<?xml version="1.0"?>
<COLLADA xmlns="http://www.collada.org/2005/11/COLLADASchema" version="1.4.1">
    <asset>
        <contributor>
            <authoring_tool>J3D Ripoff Exporter</authoring_tool>
        </contributor>
        <created>2024-08-02T13:58:37.712Z</created>
        <modified>2024-08-02T13:58:37.712Z</modified>
		<unit meter="0.01" name="centimeter" ></unit>
        <up_axis>Y_UP</up_axis>
    </asset>
    <library_images>
        <image id="tex0">
            <init_from>donkey_all.png</init_from>
        </image>
    </library_images>
    <library_effects>
        <effect id="effect0">
            <profile_COMMON>
                <newparam sid="surface0">
                    <surface type="2D">
                        <init_from>tex0</init_from>
                    </surface>
                </newparam>
                <newparam sid="sampler0">
                    <sampler2D>
                        <source>surface0</source>
                    </sampler2D>
                </newparam>
                <technique sid="COMMON">
                    <blinn>
                        <diffuse>
                            <texture texture="sampler0" texcoord="UVSET0"></texture>
                        </diffuse>
                    </blinn>
                </technique>
            </profile_COMMON>
        </effect>
    </library_effects>
    <library_materials>
        <material id="mat0" name="donkey_All">
            <instance_effect url="#effect0"></instance_effect>
        </material>
    </library_materials>
    <library_geometries>
        <geometry id="mesh0">
            <mesh>
                <source id="points0">
                    <float_array id="pointarray0" count="981">7.234375 -4.9921875 19.1953125 0.66796875 -2.3203125 15.8515625 7.85546875 6.15625 19.1953125 1.28515625 5.8515625 15.8515625 56.90234375 30.36328125 -10.2578125 58.58984375 32.18359375 -5.7890625 47.47265625 33.1640625 -9.609375 47.828125 35.0390625 -4.875 48.50390625 32.83203125 -0.2109375 58.19921875 30.18359375 -1.23828125 37.08984375 19.8203125 -26.77734375 41.23828125 15.625 -22.703125 43.68359375 20.30859375 -28.40625 43.875 16.93359375 -24.00390625 42.6015625 29.18359375 -24.69921875 50.14453125 28.1796875 -26.265625 44.14453125 28.7265625 -20.05078125 51.78125 28.390625 -21.94921875 47.16796875 24.62890625 -29.640625 39.9453125 26.1640625 -28.2734375 55.75 25.05078125 -22.88671875 55.28125 24.64453125 -27.25 52.30859375 22.51953125 -30.12890625 35.89453125 17.28125 15.73828125 42.37890625 20.90625 16.44921875 40.37890625 12.60546875 12.23046875 41.2265625 15.859375 12.890625 41.3984375 13.51171875 7.80078125 42.375 16.78125 8.14453125 46.38671875 22.90625 6.0703125 37.84765625 19.42578125 4.3203125 48.0703125 15.09375 -24.96875 48.4296875 16.65625 -28.140625 53.24609375 18.53515625 -20.0859375 50.78515625 16.3203125 -21.36328125 47.5 23.5078125 -18.35546875 46.58984375 17.8203125 -19.859375 57.9609375 21.44921875 -23.58203125 58.01953125 21.4140625 -27.30859375 54.40234375 20.05859375 -29.5234375 44.671875 24.16796875 -10.40625 46.703125 18.08984375 -7.26953125 54.80859375 23.5859375 -10.88671875 51.33984375 19.44921875 -7.4296875 35.1328125 1.03515625 -0.88671875 35.2265625 1.96484375 -6.77734375 29.953125 -4.13671875 -0.58203125 28.77734375 -3.90234375 -6.73046875 39.609375 34.26171875 -4.6875 29.734375 31.56640625 -4.4140625 39.99609375 32.90234375 -8.98828125 31.3046875 30.16796875 -8.9296875 31.34765625 30.50390625 0.13671875 41.296875 32.5546875 -0.09375 29.2890625 22.39453125 -24.5078125 28.4765625 24.890625 -20.046875 27.09375 17.8984375 -22.375 25.7421875 20.6875 -18.0859375 7.24609375 -11.109375 12.046875 0.67578125 -9.12109375 10.77734375 7.2578125 -10.58203125 1.41015625 0.38671875 -10.2890625 1.40234375 29.24609375 18.47265625 22.078125 33.83984375 20.609375 23.8671875 27.875 15.8671875 25.4765625 32.1015625 18.09375 27.4375 36.59375 20.3671875 19.7890625 31.453125 18.12890625 18.0625 20.48046875 19.62109375 10.99609375 16.65625 17.421875 9.91015625 21.2265625 20.859375 5.875 16.921875 18.0546875 4.171875 16.9296875 18.0546875 -1.69140625 17.15234375 17.1328125 -5.8203125 21.31640625 20.3984375 -1.375 20.84765625 19.609375 -6.92578125 29.51171875 7.7578125 24.265625 28.04296875 3.41015625 23.70703125 23.484375 12.4609375 23.53125 22.11328125 6.81640625 23.26171875 38.31640625 18.015625 28.93359375 40.03125 20.9296875 25.80078125 42.8671875 19.9453125 21.80078125 30.57421875 25.1875 -15.69921875 36.86328125 28.02734375 -17.83203125 34.60546875 28.2109375 -22.13671875 34.1640625 25.17578125 -26.62109375 45.93359375 13.984375 20.64453125 44.0078125 9.3984375 22.1328125 50.3984375 12.59765625 21.875 46.32421875 6.6640625 22.53125 8.8515625 14.87890625 -3.46484375 8.83984375 14.87890625 5.93359375 0.6484375 11.47265625 -7.33203125 0.9375 11.44921875 9.35546875 46.9453125 19.90625 27.59765625 52.5234375 16.49609375 28.20703125 44.203125 17.44921875 30.1875 49.42578125 14.22265625 31.17578125 53.32421875 16.171875 24.6328125 48.078125 19.0546875 23.34375 52.4765625 11.6875 31.296875 55.76953125 12.55078125 28.64453125 55.7890625 12.75390625 25.390625 50.0703125 4.40625 23.37890625 53.375 6.7890625 21.890625 57.65625 8.12890625 28.37890625 57.26171875 8.1171875 25.28515625 48.62890625 5.30078125 29.8984375 48.140625 3.8203125 26.6328125 45.69140625 10.375 29.828125 44.39453125 6.078125 25.78515625 54.36328125 7.23828125 30.16796875 55.8671875 24.84375 18.37109375 57.09375 27.3203125 14.58203125 59.6953125 21.3671875 18.01171875 62.421875 22.94921875 14.12109375 35.3359375 0.6875 3.81640625 34.98828125 -0.0078125 9.58203125 38.07421875 7.8515625 5.90234375 37.44921875 6.54296875 11.18359375 52 19.3671875 -2.3671875 47.09765625 17.96875 -2.23046875 38.51953125 8.36328125 -6.6328125 38.6171875 8.3125 -1.6171875 57.515625 26.73828125 9.25 49.6796875 29.58203125 9.01171875 48.5859375 30.46484375 14.23828125 49.6328125 16.3984375 13.75390625 52.90234375 12.390625 13.73046875 50.625 16.67578125 9.515625 53.875 13.23046875 9.6484375 -5.046875 1.9140625 5.81640625 -3.34765625 -5.125 5.97265625 -5.01953125 1.9296875 -4.31640625 -3.30859375 -5.08984375 -4.31640625 3.75390625 -8.48046875 -18.28125 3.5546875 -13.16796875 -9.796875 10.17578125 -15.91796875 -18.03515625 8.7734375 -15.39453125 -8.9765625 50.87890625 18.61328125 17.31640625 45.609375 15.22265625 13.28515625 47.68359375 27.6796875 18.4609375 42.6015625 19.046875 -2.17578125 42.18359375 19.13671875 -7.109375 21.04296875 -15.92578125 -14.67578125 15.46875 -16.37890625 -6.7734375 26.11328125 23.48046875 10.109375 29.73828125 27.4140625 11.55078125 27.33984375 21.09765625 14.3359375 30.63671875 25.34375 15.8125 31.4453125 27.734375 6.84765625 28.26171875 23.91796875 5.55078125 14.3046875 -12.3046875 1.4140625 36.98046875 27.890625 17.09765625 36.48828125 30.421875 12.9296875 38.6796875 29.953125 8.03515625 1.83203125 -2.64453125 -15.27734375 0.40234375 -9.12109375 -9.56640625 46.4453125 15.90625 8.72265625 52.9296875 21.24609375 6.84375 28.0546875 26.84375 -8.82421875 26.4453125 27.96484375 -4.1328125 25.48828125 -8.31640625 -17.00390625 26.75 -8.57421875 -6.76953125 28.13671875 -3.12890625 -14.33203125 28.25 27.0234375 0.3046875 23.6875 22.68359375 -4.484375 26.83203125 21.2734375 0.0546875 25.72265625 20.875 -8.58984375 45.18359375 24.2890625 0.671875 56.41796875 23.36328125 0.296875 41.41796875 14.59375 -1.97265625 41.41015625 14.3046875 -6.76953125 61.51953125 22.89453125 9.88671875 64.33984375 17.30859375 13.5859375 63.15234375 17.7421875 9.86328125 24.0390625 21.74609375 9.33984375 24.23828125 18.14453125 13.48046875 24.87109375 21.3359375 4.6015625 61.53125 16.37890625 16.59375 55.8671875 16.9375 -2.85546875 55.26953125 16.7890625 -7.9375 54.68359375 13.7265625 16.41015625 31.4921875 -8.265625 -24.5078125 33.25 -8.546875 -23.765625 26.8046875 -15.34375 -23.984375 31.35546875 -16.89453125 -24.30859375 42.328125 -8.93359375 -27.859375 35.1640625 -6.58203125 -28.27734375 43.3046875 -10.6875 -31.17578125 34.8671875 -7.58984375 -32.9296875 20.21875 -8.15625 -34.8125 27.15625 -10.15625 -35.95703125 25.26171875 -4.96875 -31.80078125 30.65625 -6.53515625 -32.734375 36.4453125 21.23828125 -10.0703125 32.9453125 15.08203125 -23.80078125 38.203125 15.828125 -21.80859375 38.078125 12.21484375 -20.5 39.3984375 -19.76171875 -28.6015625 41.0390625 -19.62890625 -32.03125 30.4375 -19.84375 -29.26953125 31.83203125 -18.57421875 -33.9296875 39.6484375 15 -15.3125 40.2890625 17.77734375 -16.90234375 25.1640625 -17.37109375 -32.9140625 17.48046875 -15.1796875 -31.984375 23.65625 18.75390625 -16.62890625 27.03125 18.078125 -12.3828125 28.6953125 20.7890625 -13.78125 25.11328125 13.1796875 -20.30078125 38.0859375 8.09375 -12.8828125 36.07421875 6.671875 -17.578125 18.12890625 1.76171875 -23.7109375 10.7890625 -0.03125 -23.0625 19.92578125 -0.47265625 -26.55078125 13.13671875 -2.37890625 -27.1328125 6.48828125 -10.1015625 -22.05078125 8.71875 -11.8828125 -25.5078125 35.48046875 19.57421875 -13.4921875 43.2734375 23.9609375 -17.2421875 43.71875 17.015625 -17.7578125 37.3359375 20.51171875 1.515625 34.29296875 -12.0703125 -36.09765625 42.83984375 -14.6796875 -33.66796875 30.8828125 -5.32421875 -28.07421875 26.1640625 -5.12890625 -24.47265625 27.75390625 -7.0390625 -22.23046875 21.83984375 -3.33203125 -29.92578125 16.171875 -5.58203125 -31.7578125 23.75 -18.87109375 -28.84375 16.26953125 -16.81640625 -25.30078125 23.44140625 -17.1796875 -20.953125 13.1015625 -13.73828125 -29.46875 32.90234375 11.17578125 26.46484375 41.36328125 12.0859375 28.7421875 35.796875 8.171875 23.3984375 39.39453125 7.55078125 24.3828125 37.796875 9.28125 19.63671875 41.078125 8.2890625 20.96875 38.1328125 12.97265625 17.828125 43.609375 -11.14453125 -24.49609375 46.19921875 -12.26953125 -28.19921875 41.5 -18.4921875 -24.91796875 44.56640625 -18.7109375 -28.81640625 56.7265625 16.03125 7.6796875 37.30078125 -9.79296875 -23.3515625 34.49609375 -17.6640625 -23.88671875 14.60546875 -11.5 13.78515625 14.35546875 -5.38671875 21.53515625 24.265625 -10.30859375 12.06640625 22.4296875 -7.390625 19.78515625 63.73046875 26.15625 -1.8671875 64.91796875 26.859375 -5.9140625 25.1796875 1.04296875 22.80078125 27.25390625 -5.47265625 18.90234375 21.9453125 -1.2265625 21.6640625 30.91015625 -0.5703125 20.28125 33.30078125 4.078125 21.55859375 31.453125 8.5625 -21.5234375 28.69140625 5.29296875 -20.7421875 32.62890625 2.90234375 -19.12109375 65.078125 21.12109375 -2.7578125 66.80078125 21.65234375 -6.2421875 58.7265625 18.765625 -0.13671875 57.22265625 18.96875 -10.734375 23.875 10.859375 -20.60546875 62.6015625 26.328125 -9.703125 42.19921875 8.734375 25.41015625 20.41015625 14.3515625 21.33203125 15.56640625 12.04296875 19.9296875 22.453125 16.46875 17.3359375 15.5546875 16.00390625 14.71484375 29.77734375 -6.875 12.67578125 23.796875 -9.1875 -0.16796875 25.00390625 16.2109375 19.81640625 26.7109375 15.27734375 16.19921875 35.39453125 4.63671875 17.16015625 -3.39453125 7.796875 5.66796875 -3.37109375 7.796875 -4.31640625 8.66015625 13.78515625 12.41796875 8.859375 12.20703125 -11.359375 16.8203125 15.91015625 -11.60546875 64.08203125 21.25390625 -9.3671875 17.734375 12.64453125 -17.203125 21.02734375 17.45703125 -13.08203125 21.0078125 15.0390625 -18.00390625 36.3984375 5.74609375 -9.83203125 34.484375 2.08984375 -14.2890625 33.91796875 11.75390625 -10.4921875 23.62109375 16.75390625 -10.046875 25.3671875 18.37109375 2.4921875 30.04296875 15.64453125 -10.3359375 36.6640625 3.97265625 1.65234375 -0.63671875 -1.5546875 -12.65234375 -3 1.78515625 11.07421875 23.83203125 -3.203125 -20.44921875 -2.96875 1.78515625 -9.7578125 0.421875 6.84375 -12.97265625 6.86328125 7.08984375 -16.94921875 27.63671875 -1.71875 -19 33.89453125 -0.359375 14.16796875 25.484375 2.86328125 -20.58203125 19.32421875 9.08203125 -19.5390625 57.67578125 17.0390625 -23.734375 22.01171875 1.47265625 -21.91015625 22.74609375 -12.81640625 -6.5625 15.3828125 5.14453125 -20.1953125 9.25390625 2.6796875 -19.72265625 33.1171875 14.9765625 2.296875 63.5 17.3125 -8.17578125 64.1328125 17.2265625 -3.96484375 22.6171875 16.01171875 14.1875 34.95703125 3.90625 12.62890625 32.62109375 11.37109375 14.66015625 28.17578125 17.3046875 2.21875 53.19921875 14.765625 -24.12109375 55.42578125 16.16015625 -27.4921875 59.58203125 15.8046875 -5.7421875 60.75390625 12.15234375 14.63671875 61.51953125 12.91796875 10.734375 57.28125 11.33984375 11.859375 27.5234375 14.70703125 14.84765625 57.27734375 4.546875 25.7890625 52.99609375 2.8359375 25.95703125 55.375 3.99609375 28.88671875</float_array>
                    <technique_common>
                        <accessor count="327" source="#pointarray0" stride="3">
                            <param name="X" type="float"/>
                            <param name="Y" type="float"/>
                            <param name="Z" type="float"/>
                        </accessor>
                    </technique_common>
                </source>
                <source id="uvs0">
                    <float_array id="uvarray0" count="868">0.9550889730453491 0.38200199604034424 0.9393939971923828 0.366303026676178 0.9550880193710327 0.38348299264907837 0.9393939971923828 0.3677840232849121 0.6550880074501038 0.48373401165008545 0.6407899856567383 0.48373401165008545 0.6550880074501038 0.4796820282936096 0.6407899856567383 0.477150022983551 0.6264910101890564 0.4796820282936096 0.6264910101890564 0.48373401165008545 0.9648820161819458 0.4715350270271301 0.9496539831161499 0.47417497634887695 0.9648820161819458 0.47857600450515747 0.9496539831161499 0.47857600450515747 0.6948059797286987 0.477150022983551 0.6948059797286987 0.48373401165008545 0.6805070042610168 0.4796820282936096 0.6805070042610168 0.48373401165008545 0.7091040015220642 0.48373401165008545 0.7091040015220642 0.4796820282936096 0.6805070042610168 0.4877859950065613 0.6948059797286987 0.49031901359558105 0.7091040015220642 0.4877859950065613 0.815650999546051 0.46361398696899414 0.815650999546051 0.4702150225639343 0.8308780193328857 0.46361398696899414 0.8308780193328857 0.4680140018463135 0.8461059927940369 0.46361398696899414 0.8461059927940369 0.4680140018463135 0.8613340258598328 0.4702150225639343 0.8613340258598328 0.46361398696899414 0.9496539831161499 0.48913800716400146 0.9648820161819458 0.48209601640701294 0.9191989898681641 0.48209601640701294 0.93442702293396 0.48913800716400146 0.9191989898681641 0.47857600450515747 0.93442702293396 0.47857600450515747 0.6805070042610168 0.4938979744911194 0.6948059797286987 0.4938979744911194 0.7091040015220642 0.4938979744911194 0.9131079912185669 0.4715350270271301 0.8978800177574158 0.47417497634887695 0.9131079912185669 0.47857600450515747 0.8978800177574158 0.47857600450515747 0.8573150038719177 0.43731701374053955 0.8358389735221863 0.437296986579895 0.8687949776649475 0.4250919818878174 0.8330399990081787 0.425229012966156 0.6407899856567383 0.47411102056503296 0.6407899856567383 0.46752601861953735 0.6550880074501038 0.4715780019760132 0.6550880074501038 0.46752601861953735 0.6264910101890564 0.46752601861953735 0.6264910101890564 0.4715780019760132 0.7091040015220642 0.46752601861953735 0.6948059797286987 0.46752601861953735 0.7091040015220642 0.46347397565841675 0.6948059797286987 0.46094197034835815 0.9266030192375183 0.38199299573898315 0.9155160188674927 0.3662949800491333 0.8714330196380615 0.38197600841522217 0.8714410066604614 0.36556899547576904 0.5391129851341248 0.4589160084724426 0.5391129851341248 0.46549999713897705 0.524815022945404 0.4614480137825012 0.524815022945404 0.46549999713897705 0.5534110069274902 0.46549999713897705 0.5534110069274902 0.4614480137825012 0.5740119814872742 0.4400479793548584 0.5831350088119507 0.40671300888061523 0.6052780151367188 0.4435669779777527 0.6032260060310364 0.4068149924278259 0.6300129890441895 0.406948983669281 0.6501039862632751 0.4070500135421753 0.6231549978256226 0.4436429738998413 0.6559590101242065 0.4403889775276184 0.5150949954986572 0.4490079879760742 0.5129709839820862 0.44248902797698975 0.5221620202064514 0.44851797819137573 0.5176309943199158 0.43313902616500854 0.524815022945404 0.4695519804954529 0.5391129851341248 0.47208499908447266 0.5534110069274902 0.4695519804954529 0.6805070042610168 0.46752601861953735 0.6805070042610168 0.4715780019760132 0.6948059797286987 0.47411102056503296 0.7091040015220642 0.4715780019760132 0.815650999546051 0.46889400482177734 0.8004230260848999 0.4715350270271301 0.815650999546051 0.475055992603302 0.8004230260848999 0.475055992603302 0.6383609771728516 0.3829209804534912 0.5954020023345947 0.3827049732208252 0.6561710238456726 0.3594520092010498 0.5799210071563721 0.3599569797515869 0.5391129851341248 0.473097026348114 0.5391129851341248 0.4796820282936096 0.524815022945404 0.475629985332489 0.524815022945404 0.4796820282936096 0.5534110069274902 0.4796820282936096 0.5534110069274902 0.475629985332489 0.524815022945404 0.48373401165008545 0.5391129851341248 0.48626601696014404 0.5534110069274902 0.48373401165008545 0.8004230260848999 0.4838569760322571 0.815650999546051 0.47857600450515747 0.5391129851341248 0.4898120164871216 0.5534110069274902 0.4898120164871216 0.7699679732322693 0.47857600450515747 0.785194993019104 0.4838569760322571 0.7699679732322693 0.475055992603302 0.785194993019104 0.475055992603302 0.524815022945404 0.4898120164871216 0.5724760293960571 0.48170799016952515 0.5867739915847778 0.48170799016952515 0.5724760293960571 0.485759973526001 0.5867739915847778 0.48829197883605957 0.886372983455658 0.43730199337005615 0.907817006111145 0.4371830224990845 0.8870059847831726 0.4435639977455139 0.9072359800338745 0.44295400381088257 0.882652997970581 0.47857600450515747 0.882652997970581 0.47417497634887695 0.8370199799537659 0.44389599561691284 0.8574000000953674 0.44396501779556274 0.6010720133781433 0.48170799016952515 0.6010720133781433 0.4776560068130493 0.5867739915847778 0.4751240015029907 0.8308780193328857 0.47681599855422974 0.8308780193328857 0.4856169819831848 0.8461059927940369 0.47681599855422974 0.8461059927940369 0.4856169819831848 0.8922240138053894 0.3526039719581604 0.8929399847984314 0.3566640019416809 0.844539999961853 0.35263001918792725 0.8445379734039307 0.35670799016952515 0.7825790047645569 0.3749449849128723 0.8209919929504395 0.37308698892593384 0.7878209948539734 0.38263100385665894 0.8255559802055359 0.3816850185394287 0.815650999546051 0.47681599855422974 0.8308780193328857 0.4724149703979492 0.5724760293960571 0.4776560068130493 0.882652997970581 0.46889400482177734 0.8978800177574158 0.46889400482177734 0.8038970232009888 0.3875430226325989 0.8334770202636719 0.38019198179244995 0.5867739915847778 0.4599289894104004 0.5867739915847778 0.4665129780769348 0.5724760293960571 0.462460994720459 0.5724760293960571 0.4665129780769348 0.6010720133781433 0.4665129780769348 0.6010720133781433 0.462460994720459 0.871425986289978 0.3881160020828247 0.5724760293960571 0.4705650210380554 0.5867739915847778 0.473097026348114 0.6010720133781433 0.4705650210380554 0.7948290109634399 0.3689489960670471 0.819832980632782 0.36555302143096924 0.8461059927940369 0.4724149703979492 0.8613340258598328 0.47681599855422974 0.6550880074501038 0.46347397565841675 0.6407899856567383 0.46094197034835815 0.8075349926948547 0.4070240259170532 0.8357269763946533 0.4089009761810303 0.7972850203514099 0.42536598443984985 0.6264910101890564 0.46347397565841675 0.6407899856567383 0.45840901136398315 0.6264910101890564 0.45840901136398315 0.6550880074501038 0.45840901136398315 0.8674250245094299 0.4715350270271301 0.8674250245094299 0.47857600450515747 0.882652997970581 0.464493989944458 0.8978800177574158 0.464493989944458 0.882652997970581 0.46097302436828613 0.8978800177574158 0.46097302436828613 0.6010720133781433 0.485759973526001 0.5867739915847778 0.49285101890563965 0.6010720133781433 0.49285101890563965 0.5867739915847778 0.4573959708213806 0.5724760293960571 0.4573959708213806 0.6010720133781433 0.4573959708213806 0.8308780193328857 0.46009302139282227 0.8461059927940369 0.46009302139282227 0.5724760293960571 0.49285101890563965 0.882652997970581 0.48913800716400146 0.8978800177574158 0.48913800716400146 0.815650999546051 0.4803360104560852 0.6500329971313477 0.4060879945755005 0.6500329971313477 0.41247397661209106 0.6695550084114075 0.4060879945755005 0.6695550084114075 0.41247397661209106 0.7408130168914795 0.4215959906578064 0.743457019329071 0.41247397661209106 0.7309079766273499 0.4215959906578064 0.7309079766273499 0.41247397661209106 0.7155699729919434 0.4033510088920593 0.7155699729919434 0.4097369909286499 0.7309079766273499 0.4033510088920593 0.7309079766273499 0.4097369909286499 0.9131079912185669 0.464493989944458 0.9648820161819458 0.464493989944458 0.9496539831161499 0.46889400482177734 0.9496539831161499 0.464493989944458 0.6876819729804993 0.4215959906578064 0.7002310156822205 0.4215959906578064 0.6876819729804993 0.41247397661209106 0.7002310156822205 0.41247397661209106 0.93442702293396 0.464493989944458 0.93442702293396 0.46889400482177734 0.7002310156822205 0.4097369909286499 0.7002310156822205 0.4033510088920593 0.6948059797286987 0.45840901136398315 0.6805070042610168 0.45840901136398315 0.6805070042610168 0.46347397565841675 0.7091040015220642 0.45840901136398315 0.93442702293396 0.46097302436828613 0.9496539831161499 0.46097302436828613 0.7309079766273499 0.38328200578689575 0.7155699729919434 0.3791769742965698 0.7309079766273499 0.39514100551605225 0.7155699729919434 0.394228994846344 0.7002310156822205 0.38328200578689575 0.7002310156822205 0.39514100551605225 0.9191989898681641 0.464493989944458 0.9191989898681641 0.4715350270271301 0.93442702293396 0.47417497634887695 0.8674250245094299 0.464493989944458 0.7155699729919434 0.41247397661209106 0.7155699729919434 0.4215959906578064 0.6319059729576111 0.4060879945755005 0.6319059729576111 0.40061497688293457 0.6500329971313477 0.40061497688293457 0.7309079766273499 0.40061497688293457 0.7155699729919434 0.40061497688293457 0.6319059729576111 0.41247397661209106 0.6876819729804993 0.4060879945755005 0.6876819729804993 0.40061497688293457 0.6695550084114075 0.40061497688293457 0.7002310156822205 0.40061497688293457 0.7699679732322693 0.4627329707145691 0.7699679732322693 0.46889400482177734 0.785194993019104 0.4627329707145691 0.785194993019104 0.46625399589538574 0.8004230260848999 0.4627329707145691 0.8004230260848999 0.46625399589538574 0.815650999546051 0.4627329707145691 0.6500329971313477 0.4215959906578064 0.6416670083999634 0.42615699768066406 0.6695550084114075 0.4215959906578064 0.6779209971427917 0.42615699768066406 0.8613340258598328 0.4803360104560852 0.6500329971313477 0.417946994304657 0.6695550084114075 0.417946994304657 0.929606020450592 0.38889098167419434 0.9660500288009644 0.3883259892463684 0.931693971157074 0.41079801321029663 0.9655799865722656 0.4067729711532593 0.6264910101890564 0.4877859950065613 0.6407899856567383 0.49031901359558105 0.9688259959220886 0.4292449951171875 0.9643009901046753 0.42907601594924927 0.9700189828872681 0.4066479802131653 0.9627460241317749 0.436460018157959 0.9645980000495911 0.4410160183906555 0.9618669748306274 0.44557297229766846 0.9467809796333313 0.4425309896469116 0.771291971206665 0.4447169899940491 0.767982006072998 0.4390559792518616 0.7880340218544006 0.4418179988861084 0.7777130007743835 0.4362580180168152 0.6264910101890564 0.4938979744911194 0.6407899856567383 0.4938979744911194 0.8674250245094299 0.48209601640701294 0.9131079912185669 0.48209601640701294 0.7165539860725403 0.45358699560165405 0.7089110016822815 0.45292001962661743 0.7198230028152466 0.44679999351501465 0.7136849761009216 0.43551599979400635 0.6550880074501038 0.4877859950065613 0.785194993019104 0.4715350270271301 0.5240110158920288 0.43390601873397827 0.5317540168762207 0.4093160033226013 0.556164026260376 0.43644702434539795 0.5576210021972656 0.4080290198326111 0.9306269884109497 0.4248179793357849 0.8639199733734131 0.4107769727706909 0.5391129851341248 0.4542980194091797 0.524815022945404 0.4573959708213806 0.5534110069274902 0.4573959708213806 0.785194993019104 0.4592130184173584 0.8004230260848999 0.4592130184173584 0.8915039896965027 0.35655200481414795 0.8445379734039307 0.35655999183654785 0.6681600213050842 0.3860189914703369 0.6834989786148071 0.38328200578689575 0.56038498878479 0.382066011428833 0.6744170188903809 0.3831019997596741 0.6701939702033997 0.4071509838104248 0.6550880074501038 0.4938979744911194 0.6943179965019226 0.40727299451828003 0.6738399863243103 0.44050300121307373 0.7039399743080139 0.43701398372650146 0.8177610039710999 0.4403979778289795 0.7982569932937622 0.43907397985458374 0.8213440179824829 0.4474160075187683 0.808230996131897 0.44284701347351074 0.6757280230522156 0.4550439715385437 0.664900004863739 0.44045400619506836 0.6142169833183289 0.4436119794845581 0.6927340030670166 0.45448899269104004 0.6564030051231384 0.45759397745132446 0.6660829782485962 0.45456600189208984 0.6209200024604797 0.456866979598999 0.8740010261535645 0.44049400091171265 0.743457019329071 0.4063349962234497 0.8053230047225952 0.36305201053619385 0.550233006477356 0.3608279824256897 0.5968499779701233 0.3475779891014099 0.9169449806213379 0.35751497745513916 0.7309079766273499 0.42615699768066406 0.6319059729576111 0.4215959906578064 0.743457019329071 0.40061497688293457 0.7002310156822205 0.42615699768066406 0.6542159914970398 0.394228994846344 0.8189489841461182 0.3575029969215393 0.8038039803504944 0.36559098958969116 0.5294280052185059 0.3796190023422241 0.6999769806861877 0.3774759769439697 0.7782689929008484 0.4259840250015259 0.9421390295028687 0.43911802768707275 0.5146070122718811 0.4095500111579895 0.6918650269508362 0.38328200578689575 0.6819390058517456 0.35890400409698486 0.762499988079071 0.4275779724121094 0.7140300273895264 0.40810102224349976 0.9283360242843628 0.4935380220413208 0.6709750294685364 0.4877859950065613 0.7208870053291321 0.40850400924682617 0.7214040160179138 0.4307199716567993 0.850167989730835 0.39844799041748047 0.7741469740867615 0.38757097721099854 0.7850810289382935 0.3809570074081421 0.7692139744758606 0.3770869970321655 0.7650780081748962 0.3973590135574341 0.7166540026664734 0.3828880190849304 0.7632129788398743 0.4048740267753601 0.6424639821052551 0.3478339910507202 0.8674250245094299 0.4625539779663086 0.6550880074501038 0.49896299839019775 0.6646199822425842 0.4877859950065613 0.8765619993209839 0.4935380220413208 0.6169589757919312 0.4877859950065613 0.5665670037269592 0.4399399757385254 0.9223020076751709 0.44054198265075684 0.9293869733810425 0.44336998462677 0.9199730157852173 0.4469969868659973 0.5407940149307251 0.45138901472091675 0.5552170276641846 0.45303601026535034 0.5727750062942505 0.45636701583862305 0.607545018196106 0.4556419849395752 0.6136400103569031 0.45635998249053955 0.589684009552002 0.4590659737586975 0.8735730051994324 0.44771498441696167 0.6386989951133728 0.4602530002593994 0.5629439949989319 0.48170799016952515 0.5629439949989319 0.47411102056503296 0.6106039881706238 0.48170799016952515 0.5629439949989319 0.4665129780769348 0.6709750294685364 0.475629985332489 0.7186359763145447 0.475629985332489 0.7186359763145447 0.48373401165008545 0.7186359763145447 0.46752601861953735 0.9420409798622131 0.49177801609039307 0.9557459950447083 0.4935380220413208 0.6805070042610168 0.49896299839019775 0.7186359763145447 0.4877859950065613 0.7091040015220642 0.49896299839019775 0.7186359763145447 0.46549999713897705 0.6646199822425842 0.46752601861953735 0.8902660012245178 0.49177801609039307 0.9039710164070129 0.4935380220413208 0.6264910101890564 0.49896299839019775 0.6646199822425842 0.48373401165008545 0.6169589757919312 0.48373401165008545 0.6169589757919312 0.46752601861953735 0.6646199822425842 0.46549999713897705 0.5152829885482788 0.47259098291397095 0.5629439949989319 0.47259098291397095 0.5629439949989319 0.4796820282936096 0.5152829885482788 0.46549999713897705 0.6169589757919312 0.46549999713897705 0.6646199822425842 0.475629985332489 0.6169589757919312 0.475629985332489 0.8247870206832886 0.49177801609039307 0.6106039881706238 0.485759973526001 0.6010720133781433 0.4989290237426758 0.815650999546051 0.46185302734375 0.8384919762611389 0.49001801013946533 0.6106039881706238 0.47411102056503296 0.5629439949989319 0.4644870162010193 0.6106039881706238 0.4665129780769348 0.852196991443634 0.49177801609039307 0.5724760293960571 0.4989290237426758 0.5629439949989319 0.485759973526001 0.6106039881706238 0.4644870162010193 0.5645470023155212 0.4520050287246704 0.9131079912185669 0.46262097358703613 0.6709750294685364 0.46752601861953735 0.6709750294685364 0.46549999713897705 0.6709750294685364 0.48373401165008545 0.7859990000724792 0.4057270288467407 0.6137819886207581 0.46296799182891846 0.752236008644104 0.3837429881095886 0.7658720016479492 0.38319700956344604 0.5107830166816711 0.4332280158996582 0.5534110069274902 0.4958900213241577 0.7699679732322693 0.46097302436828613 0.792809009552002 0.48737698793411255 0.5152829885482788 0.4796820282936096 0.5629439949989319 0.48373401165008545 0.5152829885482788 0.46347397565841675 0.5629439949989319 0.46549999713897705 0.8065140247344971 0.48913800716400146 0.524815022945404 0.4958900213241577 0.5152829885482788 0.48373401165008545 0.7791039943695068 0.48913800716400146 0.815650999546051 0.46097302436828613 0.5629439949989319 0.46347397565841675 0.9648820161819458 0.4627060294151306 0.5629439949989319 0.459089994430542 0.6677979826927185 0.46161001920700073 0.9191989898681641 0.4626380205154419 0.8613340258598328 0.46185302734375</float_array>
                    <technique_common>
                        <accessor count="434" source="#uvarray0" stride="2">
                            <param name="S" type="float"/>
                            <param name="T" type="float"/>
                        </accessor>
                    </technique_common>
                </source>
                <vertices id="vertices0">
                    <input semantic="POSITION" source="#points0"/>
                </vertices>
                <polylist count="650" material="Material1">
                    <input offset="0" semantic="VERTEX" source="#vertices0"/>
                    <input offset="1" semantic="TEXCOORD" source="#uvs0" set="0"/>
                    <vcount>3 3 3 3 3 3 3 3 3 3 3 3 3 3 3 3 3 3 3 3 3 3 3 3 3 3 3 3 3 3 3 3 3 3 3 3 3 3 3 3 3 3 3 3 3 3 3 3 3 3 3 3 3 3 3 3 3 3 3 3 3 3 3 3 3 3 3 3 3 3 3 3 3 3 3 3 3 3 3 3 3 3 3 3 3 3 3 3 3 3 3 3 3 3 3 3 3 3 3 3 3 3 3 3 3 3 3 3 3 3 3 3 3 3 3 3 3 3 3 3 3 3 3 3 3 3 3 3 3 3 3 3 3 3 3 3 3 3 3 3 3 3 3 3 3 3 3 3 3 3 3 3 3 3 3 3 3 3 3 3 3 3 3 3 3 3 3 3 3 3 3 3 3 3 3 3 3 3 3 3 3 3 3 3 3 3 3 3 3 3 3 3 3 3 3 3 3 3 3 3 3 3 3 3 3 3 3 3 3 3 3 3 3 3 3 3 3 3 3 3 3 3 3 3 3 3 3 3 3 3 3 3 3 3 3 3 3 3 3 3 3 3 3 3 3 3 3 3 3 3 3 3 3 3 3 3 3 3 3 3 3 3 3 3 3 3 3 3 3 3 3 3 3 3 3 3 3 3 3 3 3 3 3 3 3 3 3 3 3 3 3 3 3 3 3 3 3 3 3 3 3 3 3 3 3 3 3 3 3 3 3 3 3 3 3 3 3 3 3 3 3 3 3 3 3 3 3 3 3 3 3 3 3 3 3 3 3 3 3 3 3 3 3 3 3 3 3 3 3 3 3 3 3 3 3 3 3 3 3 3 3 3 3 3 3 3 3 3 3 3 3 3 3 3 3 3 3 3 3 3 3 3 3 3 3 3 3 3 3 3 3 3 3 3 3 3 3 3 3 3 3 3 3 3 3 3 3 3 3 3 3 3 3 3 3 3 3 3 3 3 3 3 3 3 3 3 3 3 3 3 3 3 3 3 3 3 3 3 3 3 3 3 3 3 3 3 3 3 3 3 3 3 3 3 3 3 3 3 3 3 3 3 3 3 3 3 3 3 3 3 3 3 3 3 3 3 3 3 3 3 3 3 3 3 3 3 3 3 3 3 3 3 3 3 3 3 3 3 3 3 3 3 3 3 3 3 3 3 3 3 3 3 3 3 3 3 3 3 3 3 3 3 3 3 3 3 3 3 3 3 3 3 3 3 3 3 3 3 3 3 3 3 3 3 3 3 3 3 3 3 3 3 3 3 3 3 3 3 3 3 3 3 3 3 3 3 3 3 3 3 3 3 3 3 3 3 3 3 3 3 3 3 3 3 3 3 3 3 3 3 3 3 3 3 3 3 3 3 3 3 3 3 3 3 3 3 3 3 3 3 3 3 3 3 3 3 3 3 3 3 3 3 3 3 3 3 3 3 3 3 3 3 3 3 3 3 3 3 3 3 3 3 3 3 3 3 3 3 3 3</vcount>
                    <p>2 2 1 1 0 0 3 3 1 1 2 2 6 6 5 5 4 4 7 7 5 5 6 6 8 8 5 5 7 7 9 9 5 5 8 8 12 12 11 11 10 10 13 13 11 11 12 12 16 16 15 15 14 14 17 17 15 15 16 16 19 19 15 15 18 18 14 14 15 15 19 19 20 20 15 15 17 17 21 21 15 15 20 20 22 22 15 15 21 21 18 18 15 15 22 22 25 25 24 24 23 23 26 26 24 24 25 25 27 27 26 26 25 25 28 28 26 26 27 27 28 28 30 30 29 29 27 27 30 30 28 28 12 12 31 31 13 13 32 32 31 31 12 12 35 35 34 34 33 33 36 36 34 34 35 35 38 38 20 20 37 37 21 21 20 20 38 38 38 38 22 22 21 21 39 39 22 22 38 38 42 42 41 41 40 40 43 43 41 41 42 42 46 46 45 45 44 44 47 47 45 45 46 46 50 50 49 49 48 48 51 51 49 49 50 50 53 53 49 49 52 52 48 48 49 49 53 53 56 56 55 55 54 54 57 57 55 55 56 56 1 1 58 58 0 0 59 59 58 58 1 1 59 59 60 60 58 58 61 61 60 60 59 59 64 64 63 63 62 62 65 65 63 63 64 64 67 67 63 63 66 66 62 62 63 63 67 67 70 70 69 69 68 68 71 71 69 69 70 70 74 74 73 73 72 72 75 75 73 73 74 74 78 78 77 77 76 76 79 79 77 77 78 78 80 80 63 63 65 65 81 81 63 63 80 80 82 82 63 63 81 81 66 66 63 63 82 82 84 84 55 55 83 83 85 85 55 55 84 84 86 86 55 55 85 85 54 54 55 55 86 86 89 89 88 88 87 87 90 90 88 88 89 89 93 93 92 92 91 91 94 94 92 92 93 93 97 97 96 96 95 95 98 98 96 96 97 97 100 100 96 96 99 99 95 95 96 96 100 100 101 101 96 96 98 98 102 102 96 96 101 101 103 103 96 96 102 102 99 99 96 96 103 103 89 89 104 104 90 90 105 105 104 104 89 89 106 106 103 103 102 102 107 107 103 103 106 106 110 110 109 109 108 108 111 111 109 109 110 110 106 106 101 101 112 112 102 102 101 101 106 106 115 115 114 114 113 113 116 116 114 114 115 115 119 119 118 118 117 117 120 120 118 118 119 119 122 122 43 43 121 121 41 41 43 43 122 122 123 123 44 44 45 45 124 124 44 44 123 123 126 126 114 114 125 125 127 127 114 114 126 126 130 130 129 129 128 128 131 131 129 129 130 130 134 134 133 133 132 132 135 135 133 133 134 134 48 48 6 6 50 50 7 7 6 6 48 48 53 53 7 7 48 48 8 8 7 7 53 53 138 138 137 137 136 136 139 139 137 137 138 138 141 141 140 140 24 24 128 128 140 140 141 141 142 142 114 114 127 127 113 113 114 114 142 142 144 144 122 122 143 143 41 41 122 122 144 144 145 145 139 139 138 138 146 146 139 139 145 145 149 149 148 148 147 147 150 150 148 148 149 149 152 152 148 148 151 151 147 147 148 148 152 152 139 139 153 153 60 60 146 146 153 153 139 139 154 154 148 148 150 150 155 155 148 148 154 154 156 156 148 148 155 155 151 151 148 148 156 156 137 137 157 157 136 136 158 158 157 157 137 137 160 160 159 159 29 29 130 130 159 159 160 160 161 161 49 49 51 51 162 162 49 49 161 161 165 165 164 164 163 163 47 47 164 164 165 165 166 166 49 49 162 162 52 52 49 49 166 166 168 168 162 162 167 167 166 166 162 162 168 168 167 167 161 161 169 169 162 162 161 161 167 167 122 122 171 171 170 170 121 121 171 171 122 122 124 174 173 173 172 172 123 175 173 173 124 174 175 177 174 176 116 116 176 178 174 176 175 177 178 180 147 147 177 179 149 149 147 147 178 180 177 179 152 152 179 181 147 147 152 152 177 179 120 182 27 27 25 25 119 183 27 27 120 182 175 177 115 115 180 184 116 116 115 115 175 177 43 43 181 185 121 121 182 186 181 185 43 43 28 28 141 141 26 26 159 159 141 141 28 28 140 140 129 129 183 187 128 128 129 129 140 140 154 154 127 127 155 155 142 142 127 127 154 154 155 155 126 126 156 156 127 127 126 126 155 155 141 141 130 130 128 128 159 159 130 130 141 141 174 176 114 114 116 116 125 125 114 114 174 176 91 91 71 71 72 72 92 92 71 71 91 91 186 190 185 189 184 188 187 191 185 189 186 190 190 194 189 193 188 192 191 195 189 193 190 194 194 198 193 197 192 196 195 199 193 197 194 198 144 144 196 200 40 40 173 173 196 200 144 144 198 202 197 201 10 10 199 203 197 201 198 202 202 206 201 205 200 204 203 207 201 205 202 206 199 203 205 209 204 208 198 202 205 209 199 203 207 211 193 197 206 210 192 196 193 197 207 211 209 213 57 57 208 212 210 214 57 57 209 213 208 212 56 56 211 215 57 57 56 56 208 212 212 216 199 203 204 208 213 217 199 203 212 216 216 220 215 219 214 218 217 221 215 219 216 220 217 221 218 222 215 219 219 223 218 222 217 221 204 208 221 225 220 224 205 209 221 225 204 208 173 173 143 143 172 172 144 144 143 143 173 173 198 202 222 226 205 209 11 11 222 226 198 202 172 172 170 170 223 227 143 143 170 170 172 172 84 84 14 14 85 85 16 16 14 14 84 84 85 85 19 19 86 86 14 14 19 19 85 85 191 195 225 229 224 228 190 194 225 229 191 195 195 199 224 228 193 197 191 195 224 228 195 199 227 231 184 188 226 230 228 232 184 188 227 231 194 198 230 234 229 233 192 196 230 234 194 198 216 220 230 234 217 221 229 233 230 234 216 220 184 188 189 235 226 230 185 189 189 235 184 188 224 228 201 205 203 207 225 229 201 205 224 228 206 210 224 228 203 207 193 197 224 228 206 210 186 190 232 237 231 236 233 238 232 237 186 190 207 211 230 234 192 196 234 239 230 234 207 211 217 221 234 239 219 223 230 234 234 239 217 221 237 242 236 241 235 240 238 243 236 241 237 242 202 206 186 190 231 236 187 191 186 190 202 206 239 244 238 243 237 242 240 245 238 243 239 244 240 245 241 246 87 87 239 244 241 246 240 245 244 249 243 248 242 247 245 250 243 248 244 249 160 160 131 131 130 130 246 251 131 131 160 160 248 253 242 247 247 252 244 249 242 247 248 253 187 191 247 252 185 189 248 253 247 252 187 191 233 238 184 188 228 232 186 190 184 188 233 238 13 13 34 34 36 36 31 31 34 34 13 13 251 256 250 255 249 254 252 257 250 255 251 256 253 258 5 5 9 9 254 259 5 5 253 258 257 262 256 261 255 260 252 257 256 261 257 262 258 263 255 260 256 261 77 264 255 260 258 263 77 264 259 266 76 265 258 263 259 266 77 264 213 269 261 268 260 267 262 270 261 268 213 269 264 272 253 258 263 271 254 259 253 258 264 272 171 171 181 185 265 273 121 121 181 185 171 171 90 90 109 109 111 111 104 104 109 109 90 90 42 42 182 186 43 43 266 274 182 186 42 42 261 277 211 276 260 275 267 278 211 276 261 277 222 226 35 35 221 225 36 36 35 35 222 226 268 279 5 5 254 259 4 4 5 5 268 279 269 280 110 110 236 241 111 111 110 110 269 280 272 283 271 282 270 281 273 284 271 282 272 283 252 257 274 285 256 261 251 256 274 285 252 257 251 256 46 46 274 285 275 286 46 46 251 256 164 164 46 46 275 286 47 47 46 46 164 164 78 288 62 62 276 287 64 64 62 62 78 288 210 214 55 55 57 57 83 83 55 55 210 214 276 287 67 67 277 289 62 62 67 67 276 287 259 290 239 244 237 242 278 291 239 244 259 290 222 226 13 13 36 36 11 11 13 13 222 226 58 58 153 153 249 254 60 60 153 153 58 58 240 245 269 280 238 243 88 88 269 280 240 245 280 293 132 132 279 292 134 134 132 132 280 293 163 294 233 238 228 232 145 295 233 238 163 294 80 80 95 95 81 81 97 97 95 95 80 80 81 81 100 100 82 82 95 95 100 100 81 81 274 285 117 117 118 118 46 46 117 117 274 285 269 280 90 90 111 111 88 88 90 90 269 280 69 69 281 296 273 284 92 92 281 296 69 69 73 73 282 297 91 91 283 298 282 297 73 73 264 272 268 279 254 259 284 299 268 279 264 272 286 301 285 300 283 298 287 302 285 300 286 301 0 0 249 254 250 255 58 58 249 254 0 0 123 123 45 45 288 303 45 45 289 304 288 303 290 305 123 123 288 303 288 303 289 304 212 306 291 308 209 307 286 301 283 298 73 73 291 308 292 309 71 71 70 70 287 302 208 310 211 276 283 298 285 300 282 297 91 91 72 72 73 73 281 296 271 282 273 284 293 312 291 308 169 311 292 309 168 313 74 74 294 314 44 44 124 124 212 306 290 305 288 303 286 301 209 307 208 310 248 253 202 206 200 204 248 253 187 191 202 206 189 235 185 189 247 252 232 237 207 211 231 236 206 210 231 236 207 211 195 199 194 198 226 315 135 135 295 316 158 158 279 318 3 317 94 94 296 319 133 133 1 1 257 262 250 255 252 257 3 3 296 319 1 1 243 320 225 229 190 194 203 207 202 206 206 210 244 249 200 204 245 250 207 211 232 237 234 239 202 206 231 236 206 210 191 195 195 199 189 193 242 247 243 248 188 321 194 198 229 233 227 322 194 198 227 322 226 315 195 199 226 315 189 193 243 320 245 323 225 229 228 232 297 324 163 294 201 205 225 229 245 323 248 253 200 204 244 249 232 237 219 223 234 239 243 320 190 194 188 192 188 321 247 252 242 247 135 135 298 325 295 316 296 319 132 132 133 133 280 293 299 326 298 325 158 158 137 137 61 61 281 296 3 317 2 327 300 328 282 297 285 300 163 163 301 329 165 165 262 270 165 165 301 329 118 118 302 330 274 285 271 282 2 327 257 331 270 281 271 282 79 79 256 261 302 330 258 263 297 324 228 232 227 231 297 324 227 231 216 220 232 237 218 222 219 223 138 332 232 237 233 238 138 332 233 238 145 295 282 297 299 333 93 93 2 327 271 282 281 296 79 79 78 78 270 281 303 334 261 268 262 270 267 278 304 335 285 300 216 220 227 322 229 233 218 222 232 237 138 332 201 205 245 323 200 204 297 324 216 220 214 218 188 321 189 235 247 252 34 34 305 336 33 33 37 37 20 20 33 337 303 339 306 338 304 335 303 334 262 270 301 329 307 340 163 163 164 164 45 45 47 47 165 165 146 146 145 145 307 340 153 153 307 340 275 286 309 343 300 342 308 341 214 344 309 343 308 341 304 335 306 338 308 345 267 278 303 339 304 335 304 335 308 345 300 328 306 346 214 344 308 341 94 94 93 93 279 318 280 347 93 93 299 333 1 1 133 133 59 59 223 227 310 348 124 174 284 299 264 272 311 349 196 200 173 173 123 175 40 40 41 41 144 144 122 122 170 170 143 143 284 299 311 349 266 350 181 185 312 351 265 273 263 271 253 258 265 352 272 283 313 353 273 284 286 301 208 310 287 302 315 356 278 355 314 354 120 120 315 356 314 354 302 330 314 354 278 355 258 263 302 330 259 266 272 283 270 281 276 357 276 357 277 358 272 283 68 68 313 353 178 359 316 361 292 309 179 360 178 359 177 362 68 68 314 354 118 118 120 120 314 354 302 330 118 118 117 117 294 314 119 119 124 124 310 363 294 314 117 117 44 44 294 314 74 74 168 313 167 364 169 311 75 75 167 364 142 142 24 366 140 365 160 367 126 126 125 125 154 154 23 368 24 366 300 342 295 316 299 326 16 16 84 84 221 369 19 19 12 371 10 370 197 372 86 86 10 370 34 34 317 373 305 336 31 31 32 32 318 374 33 337 305 375 37 37 39 39 318 377 32 376 260 378 211 215 56 56 196 379 51 51 50 50 182 186 311 381 319 380 311 349 264 272 312 382 42 383 4 4 268 279 253 258 171 384 265 352 9 9 8 8 171 384 52 52 166 166 223 385 312 351 319 380 311 381 290 386 169 169 161 161 312 382 264 272 263 271 97 97 80 80 236 387 100 100 89 389 87 388 80 80 65 65 235 390 196 379 161 161 51 51 166 166 310 391 223 385 53 53 52 52 223 385 6 6 42 383 40 392 53 53 223 385 170 393 42 383 6 6 4 4 8 8 170 393 171 384 266 350 42 383 268 279 253 258 9 9 171 384 182 186 319 380 181 185 129 129 320 394 183 187 176 178 246 395 174 176 141 141 24 24 26 26 29 29 159 159 28 28 27 27 119 183 30 30 176 178 175 177 321 396 23 23 315 397 120 182 131 131 322 398 129 129 115 115 113 113 140 365 246 395 160 367 174 176 29 399 156 156 126 126 154 154 150 150 23 368 149 149 315 400 23 368 30 401 152 152 151 151 131 131 321 402 322 398 321 396 175 177 320 403 30 401 151 151 156 156 160 367 125 125 174 176 115 115 140 365 183 404 113 113 142 142 140 365 150 150 149 149 23 368 320 394 322 398 321 402 320 403 175 177 180 184 310 405 179 181 152 152 176 178 321 396 246 395 183 404 320 403 180 184 131 131 246 251 321 402 129 129 322 398 320 394 30 401 156 156 29 399 126 126 160 367 29 399 284 299 266 350 268 279 3 3 279 292 296 319 295 316 298 325 299 326 292 309 316 361 168 313 313 353 323 406 178 359 209 307 291 308 293 312 292 309 70 70 179 360 72 72 71 71 292 309 69 69 273 284 313 353 272 283 277 358 313 353 291 308 75 75 169 311 213 269 212 306 289 304 119 119 294 314 310 363 323 406 313 353 277 358 69 69 71 71 92 92 69 69 313 353 68 68 72 72 292 309 74 74 283 298 291 308 286 301 302 330 278 355 259 266 262 270 213 269 289 304 75 75 291 308 73 73 265 352 312 382 263 271 182 186 266 274 311 381 181 185 319 380 312 351 196 379 50 50 40 392 40 392 50 50 6 6 8 8 53 53 170 393 172 172 223 227 124 174 196 200 123 175 290 407 196 379 290 386 161 161 168 168 310 391 166 166 180 184 115 115 183 404 300 328 299 333 282 297 282 297 93 93 91 91 281 296 92 92 94 94 281 296 94 94 3 317 249 254 153 153 251 256 279 318 93 93 280 347 84 84 220 408 221 369 10 370 86 86 19 19 84 84 83 83 220 408 210 214 290 409 220 408 197 372 56 56 54 54 31 31 318 374 317 373 318 377 38 38 305 375 197 372 260 378 56 56 197 372 54 54 86 86 12 371 18 18 22 22 20 20 35 410 33 337 17 17 16 16 35 410 83 83 210 214 220 408 305 336 317 373 318 374 305 375 38 38 37 37 133 133 61 61 59 59 61 61 135 135 158 158 61 61 133 133 135 135 134 134 280 293 298 325 279 292 132 132 296 319 135 135 134 134 298 325 301 329 297 411 303 334 297 411 306 346 303 334 316 361 310 412 168 313 177 362 70 70 68 68 179 360 70 70 177 362 75 75 74 74 167 364 306 346 297 411 214 344 309 343 214 344 215 413 309 343 218 414 136 136 138 138 136 136 218 414 309 343 136 136 157 157 309 343 215 413 218 414 137 137 139 139 60 60 307 340 164 164 275 286 163 163 297 411 301 329 145 145 163 163 307 340 146 146 307 340 153 153 295 316 157 157 158 158 251 256 153 153 275 286 262 270 289 304 165 165 256 261 274 285 302 330 287 302 267 278 285 300 267 278 261 277 303 339 257 331 255 415 79 79 250 255 2 2 0 0 257 262 2 2 250 255 285 300 304 335 300 328 157 157 295 316 300 342 309 343 157 157 300 342 257 331 79 79 271 282 255 415 77 77 79 79 267 278 287 302 211 276 78 78 276 357 270 281 60 60 61 61 137 137 107 107 106 106 324 416 235 240 76 417 259 290 104 104 325 418 109 109 101 101 98 98 110 419 105 420 89 389 103 103 97 97 236 387 110 419 89 389 100 100 99 99 64 64 76 421 235 390 241 422 67 67 66 66 104 104 324 423 325 418 324 416 106 106 326 424 241 422 66 66 82 82 89 389 99 99 103 103 101 101 110 419 108 425 98 98 97 97 110 419 65 65 64 64 235 390 326 426 325 418 324 423 326 424 106 106 112 112 107 107 324 416 105 420 108 425 326 424 112 112 104 104 105 105 324 423 109 109 325 418 326 426 241 422 82 82 87 388 87 388 82 82 100 100 80 80 235 390 236 387 237 242 235 240 259 290 278 291 315 427 241 246 241 422 315 428 67 67 209 213 290 409 210 214 197 201 213 217 260 429 204 208 220 224 212 216 315 430 323 406 277 358 315 430 178 359 323 406 179 360 310 412 316 361 293 312 290 431 209 307 293 312 169 311 290 431 289 304 45 45 165 165 46 46 44 44 117 117 39 39 32 376 22 22 222 226 221 225 205 209 10 10 11 11 198 202 197 201 199 203 213 217 39 39 38 38 318 377 220 224 290 432 212 216 31 31 317 373 34 34 20 20 17 17 35 410 32 376 12 371 22 22 16 16 221 369 35 410 12 371 19 19 18 18 78 288 76 421 64 64 142 142 154 154 24 366 25 25 23 23 120 182 119 183 310 433 30 30 30 401 310 405 152 152 178 180 315 400 149 149 112 112 101 101 108 425 109 109 326 426 108 108 107 107 105 420 103 103 269 280 236 241 238 243 87 87 88 88 240 245 239 244 278 291 241 246 315 428 277 289 67 67</p>
                </polylist>
            </mesh>
        </geometry>
    </library_geometries>
    <library_visual_scenes>
        <visual_scene id="VisualSceneNode">
            <node id="node0" name="m0" type="NODE">
                <instance_geometry url="#mesh0">
                    <bind_material>
                        <technique_common>
                            <instance_material symbol="Material1" target="#mat0">
                                <bind_vertex_input semantic="UVSET0" input_semantic="TEXCOORD" input_set="0"></bind_vertex_input>
                            </instance_material>
                        </technique_common>
                    </bind_material>
                </instance_geometry>
            </node>
        </visual_scene>
    </library_visual_scenes>
    <scene>
        <instance_visual_scene url="#VisualSceneNode"></instance_visual_scene>
    </scene>
</COLLADA>
