<?xml version="1.0"?>
<COLLADA xmlns="http://www.collada.org/2005/11/COLLADASchema" version="1.4.1">
    <asset>
        <contributor>
            <authoring_tool>J3D Ripoff Exporter</authoring_tool>
        </contributor>
        <created>2024-08-02T13:58:29.914Z</created>
        <modified>2024-08-02T13:58:29.914Z</modified>
		<unit meter="0.01" name="centimeter" ></unit>
        <up_axis>Y_UP</up_axis>
    </asset>
    <library_images>
        <image id="tex0">
            <init_from>donkey_all.png</init_from>
        </image>
    </library_images>
    <library_effects>
        <effect id="effect0">
            <profile_COMMON>
                <newparam sid="surface0">
                    <surface type="2D">
                        <init_from>tex0</init_from>
                    </surface>
                </newparam>
                <newparam sid="sampler0">
                    <sampler2D>
                        <source>surface0</source>
                    </sampler2D>
                </newparam>
                <technique sid="COMMON">
                    <blinn>
                        <diffuse>
                            <texture texture="sampler0" texcoord="UVSET0"></texture>
                        </diffuse>
                    </blinn>
                </technique>
            </profile_COMMON>
        </effect>
    </library_effects>
    <library_materials>
        <material id="mat0" name="donkey_All">
            <instance_effect url="#effect0"></instance_effect>
        </material>
    </library_materials>
    <library_geometries>
        <geometry id="mesh0">
            <mesh>
                <source id="points0">
                    <float_array id="pointarray0" count="978">7.234375 -4.9921875 19.1953125 0.66796875 -2.3203125 15.8515625 7.85546875 6.15625 19.1953125 1.28515625 5.8515625 15.8515625 54.8984375 6.16796875 -16.62109375 49.37890625 9.1484375 -15.9140625 52.9375 3.8046875 -20.8125 47.77734375 6.78125 -20.484375 48.8515625 -6.76953125 -9.61328125 46.0859375 -11.27734375 -5.8828125 51.23828125 -13.08984375 -9.328125 45.40234375 -14.78515625 -6.16015625 52.51953125 -1.91796875 -21.04296875 50.82421875 -6.62890625 -17.19921875 58.52734375 -7.375 -20.59375 53.55859375 -11.25390625 -16.9296875 60.27734375 2.5859375 -16.9609375 64.01953125 -0.60546875 -16.91796875 59.78515625 1.2890625 -12.15625 63.2421875 -2.08984375 -12.25390625 62.06640625 -2.609375 -20.92578125 58.12890625 0.68359375 -21.046875 67.265625 -6.37109375 -12.29296875 68.80859375 -6.49609375 -16.8203125 42.31640625 -1.4609375 11.55078125 48.2890625 -7.38671875 11.2578125 40.6171875 -5.08984375 8.0390625 39.8515625 -6.9375 8.01953125 40.75 -4.98046875 3.8046875 39.96875 -6.84375 3.74609375 48.42578125 -7.1484375 0.10546875 46.32421875 -2.71484375 0.3125 66.12890625 -7.2109375 -20.5234375 58.2421875 -14.9921875 -17.20703125 61.34375 -12.85546875 -20.140625 62.7578125 -11.91015625 -11.1953125 58.90234375 -14.55078125 -13.03515625 61.4296875 -5.94921875 -10.6640625 54.21875 -10.8125 -12.75390625 68.39453125 -10.453125 -12.90234375 69.6875 -10.671875 -16.3203125 67.3515625 -11.15234375 -19.5078125 30.01171875 -6.57421875 8.9921875 29.91015625 -7.203125 4.4296875 25.53515625 -10.078125 14.484375 25.328125 -9.30859375 -0.5859375 58.14453125 -0.71875 -4.15234375 54.86328125 3.859375 -3.93359375 56.66015625 -1.76953125 -8.55078125 52.98828125 2.71875 -8.44921875 53.1875 2.59375 0.62109375 56.00390625 -1.84375 0.51953125 47.65234375 8.07421875 -8.54296875 49.1171875 9.35546875 -3.8203125 44.12890625 10.73046875 -15.38671875 44.3828125 9.16015625 -10.625 49.18359375 7.10546875 -11.140625 7.24609375 -11.109375 12.046875 0.67578125 -9.12109375 10.77734375 7.2578125 -10.58203125 1.41015625 0.38671875 -10.2890625 1.40234375 45.46484375 7.2578125 16.09375 48.7890625 3.28515625 16.0390625 44.59765625 4.7578125 20.39453125 47.12109375 1.61328125 20.15625 46.80859375 2.984375 12.2890625 44.40625 6.66015625 12.359375 33.2890625 14.7109375 10.5078125 20.9453125 16.15234375 8.5703125 34.46875 15.4765625 3.65625 20.94921875 16.6796875 4.171875 20.95703125 16.6796875 -1.6875 20.9609375 16.15234375 -6.0859375 34.46875 15.4765625 -0.25390625 33.2890625 14.73046875 -7.4296875 37.109375 2.83984375 20.5859375 30.203125 2.015625 21.2421875 36.5390625 7.87109375 20.25 30.484375 8.1171875 21.015625 48.0859375 -2.58984375 19.93359375 49.80078125 -1.67578125 16.03515625 47.96484375 -1.8515625 12.10546875 42.3125 8.80859375 -19.828125 54.5078125 5.03125 -11.7890625 45.85546875 -0.21875 11.31640625 38.6328125 -3.1171875 13.609375 40.5703125 -6.07421875 10.484375 36.08203125 -2.16015625 13.9609375 8.8515625 14.87890625 -3.46484375 8.83984375 14.87890625 5.93359375 0.6484375 11.47265625 -7.33203125 0.9375 11.44921875 9.35546875 47.55859375 -8.25390625 15.0625 43.5234375 -11.3203125 14.72265625 46.12109375 -8.1484375 18.9453125 42.7734375 -10.4609375 18.84765625 43.08203125 -10.13671875 11.40234375 46.53125 -7.46875 11.25 37.8125 -11.015625 18.51171875 36.859375 -12.0703125 14.6328125 37.4375 -10.3984375 11.9296875 31.84375 -2.10546875 14.3359375 32.32421875 -4.71875 11.421875 30.9453125 -10.46484375 15.01171875 31.640625 -8.7890625 12.5234375 33.265625 -5.00390625 19.7109375 32.09375 -2.46484375 17.9375 40.13671875 -6.83984375 19.80859375 36.2109375 -2.41015625 18.05859375 32.015625 -9.32421875 17.92578125 45.55859375 -14.78125 -1.921875 46.03515625 -11.38671875 -1.88671875 35 -3.390625 4.17578125 34.71875 -3.39453125 8.32421875 50.90625 -13.515625 1.55078125 52.74609375 -14.8515625 5.82421875 53.203125 -9.89453125 1.92578125 55.33984375 -10.8203125 5.78515625 30.19921875 -8.515625 -6.78125 30.16015625 -8.41015625 -0.890625 34.85546875 -2.046875 -6.63671875 34.8671875 -2.140625 -0.8671875 58.453125 -7.359375 -8.3203125 60.5546875 -6.5078125 -4.0546875 36.81640625 -9.5 7.6640625 33.671875 -11.8203125 7.640625 37 -9.4375 3.4296875 33.9375 -11.8359375 3.25390625 58.0703125 -7.50390625 0.58203125 -5.046875 1.9140625 5.81640625 -3.34765625 -5.125 5.97265625 -5.01953125 1.9296875 -4.31640625 -3.30859375 -5.08984375 -4.31640625 53.0390625 -10.07421875 9.88671875 50.546875 -13.609375 10.015625 4.34765625 -8.59375 -17.55078125 3.5546875 -12.7890625 -9.31640625 9.3125 -16.47265625 -16.36328125 7.359375 -15.81640625 -8.33984375 46.5 -11.6484375 10.87109375 40.703125 -8.765625 7.828125 42.8046875 -8.390625 -1.99609375 42.8515625 -8.2734375 -6.15625 1.83203125 -5.53515625 -15.27734375 0.40234375 -9.12109375 -9.56640625 18.9296875 -16.1171875 -12.8125 14.1484375 -16.6171875 -6.65234375 49.109375 8.66796875 6.3984375 54.01953125 3.6640625 6.2734375 47.44921875 7.671875 10.84765625 52.02734375 2.9140625 10.6875 52.33984375 3.49609375 2.08203125 47.55078125 7.8359375 1.96875 14.3046875 -12.3046875 1.4140625 53.97265625 -3.515625 10.16015625 56.2109375 -3.16015625 6.09765625 54.12890625 -3.3359375 2.203125 40.81640625 -8.671875 3.70703125 45.05078125 -10.6328125 0.31640625 40.8046875 -4.3671875 -1.84765625 40.71484375 -4.3125 -6.08203125 47.7734375 7.98828125 0.609375 25.3984375 -11.07421875 -6.734375 22.25 -10.2578125 -12.16015625 23.89453125 -11.3828125 -6.1640625 24.7578125 -9.94140625 -14.3359375 40.80859375 13.23046875 -3.58203125 37.95703125 12.1484375 1.00390625 50.375 -6.52734375 1.29296875 52.09765625 -12.875 1.23828125 37.875 12.23828125 -8.2734375 47.5546875 -18.0625 5.515625 46.75390625 -16.83203125 1.91015625 41.2109375 -19.12890625 5.26171875 40.25 -18.4921875 2.45703125 40.4140625 -17.515625 8.29296875 46.46484375 -16.890625 9.359375 39.87890625 12.8203125 6.625 37.97265625 11.5625 10.92578125 38.21875 11.44140625 2.03515625 46.90625 -19.9453125 -1.81640625 46.78515625 -19.96875 -6.05078125 36.375 -14.046875 10.21875 37.2578125 -13.4453125 0.5078125 39.6640625 -17.1171875 -17.45703125 36.0390625 -14.1953125 -20.16796875 40.60546875 -19.8671875 -19.6328125 37.0078125 -18.0625 -22.97265625 24.66796875 -18.87890625 -26.0703125 28.7734375 -21.1953125 -25.0859375 29 -13.859375 -25.93359375 33.0234375 -16.39453125 -24.66796875 47.015625 -1.74609375 -9.578125 43.80078125 1.63671875 -20.38671875 46.44921875 -5.72265625 -16.640625 43.68359375 -3.7890625 -16.76953125 44.69140625 -3.42578125 -11.99609375 47 -5.46875 -12.28515625 32.8125 -25.29296875 -14.96875 35.12109375 -26.2265625 -18.10546875 25.109375 -24.0078125 -16.44921875 30.640625 -25.6875 -19.9765625 45.76953125 2.41015625 -9.3203125 55.796875 -1.59765625 -10.10546875 25.3984375 -24.46484375 -21.6484375 21.55859375 -22.43359375 -22.46875 39.66796875 11.89453125 -14.90625 37.42578125 10.7265625 -9.72265625 36.21484375 9.6796875 -19.22265625 17.3203125 -0.98046875 -22.07421875 11.26953125 -5.55078125 -22.89453125 21.2109375 -6.671875 -24.984375 14.71484375 -10.23046875 -25.13671875 7.8125 -11.30859375 -21.09765625 12.70703125 -15.51171875 -23.2265625 35.2890625 -2.7734375 -11.3984375 35.359375 -2.98828125 -16.88671875 47.25 -1.89453125 1.66796875 51.2265625 -6.359375 -12.87109375 -3.39453125 7.796875 5.66796875 -3.37109375 7.796875 -4.31640625 33.484375 -22.55859375 -23.6640625 38.41796875 -23.76171875 -20.74609375 31.46484375 -11.65234375 -20.7890625 28.0859375 -11.734375 -16.7890625 27.52734375 -9.19921875 -22.01953125 23.93359375 -10.71875 -15.171875 24.4453125 -10.7578125 -26.11328125 19.015625 -14.78515625 -26.28515625 31.2578125 -12.98046875 -15.1171875 21.33984375 -22.06640625 -17.3828125 16.0390625 -19.57421875 -18.625 22.6640625 -17.0546875 -16.0078125 19.98828125 -16.3203125 -14.98828125 16.49609375 -19.0234375 -23.33203125 41.7109375 -0.3671875 21.03125 41.5546875 -3.89453125 20.65625 39.8984375 -2.10546875 18.05859375 38.70703125 -0.48828125 17.94140625 26.71484375 -18.30859375 -13.37109375 39.79296875 -1.95703125 13.69140625 38.5234375 -0.35546875 13.6484375 43.58203125 1.10546875 10.7734375 38.921875 -18.921875 -13.38671875 41.30078125 -21.25 -14.421875 36.23046875 -21.77734375 -12.28125 38.81640625 -24.78515625 -15.66796875 34.5078125 -14.81640625 -13.77734375 30.53125 -19.94921875 -12.42578125 27.33203125 1.88671875 22.13671875 25.42578125 -5.6015625 20.390625 22.02734375 2.1796875 22.3828125 22.08203125 -5.80078125 21.44140625 31.02734375 -4.19140625 19.4609375 36 -1.7578125 18.07421875 35.21875 2.22265625 -20.31640625 30.28515625 1.42578125 -20.55859375 30.1171875 -4.58984375 -19.06640625 50.94921875 -18.015625 -9.0078125 61.4375 -17.27734375 -4.15234375 61.27734375 -12.16015625 -4.20703125 58.99609375 -16.94140625 -8.03125 58.76171875 -11.91015625 -8.421875 31.02734375 9.31640625 -19.69140625 58.671875 -12.12890625 0.38671875 59.16796875 -16.890625 0.10546875 38.734375 -3.26953125 17.84375 31.09765625 11.40234375 19.421875 21.91796875 12.12890625 18.6328125 32.0625 13.95703125 14.41796875 21.43359375 15.11328125 12.96875 20.328125 -11.26171875 14.90234375 23.796875 -9.61328125 -0.16796875 14.60546875 -11.5 13.78515625 14.35546875 -5.38671875 21.53515625 35.94140625 -1.62109375 14.01171875 59.55859375 -21.4453125 -4.1015625 57.3203125 -20.8046875 -7.40625 37.23046875 10.42578125 12.359375 38.7890625 10.90234375 16.49609375 8.66015625 13.78515625 12.41796875 8.859375 12.20703125 -11.359375 20.96875 15 -10.484375 57.5078125 -20.76953125 -0.75 20.9765625 12.75 -15.765625 33.6484375 13.8125 -11.41796875 31.91015625 12.3515625 -17.1328125 52.6953125 -17.26953125 1.09375 33.296875 12.41015625 -9.38671875 35.1328125 9.59375 -8.91796875 32.4296875 -5.16796875 -9.3125 30.37890625 -6.9453125 -14.125 37.12890625 2.8203125 -8.78125 -2.96875 1.78515625 -9.7578125 0.421875 6.84375 -12.97265625 34.47265625 13.66015625 1.69921875 35.25 -2.46484375 1.79296875 -0.63671875 -1.5546875 -12.65234375 -3 1.78515625 11.07421875 21.71484375 -5.015625 -18.45703125 6.86328125 6.34765625 -16.94921875 24.46875 -6.4453125 -18.94921875 29.73046875 -6.15234375 14.44140625 21.125 8.44140625 -19.53515625 25.984375 1.265625 -21.07421875 67.05078125 -14.70703125 -13.484375 21.36328125 1.6953125 -21.58203125 19.99609375 -14.796875 -5.8125 13.80078125 3.40234375 -20.3203125 8.0234375 -1.0703125 -20.2265625 49.19921875 -22.7734375 -3.9453125 36.19921875 4.0390625 1.890625 53.6875 -23.578125 -6.1171875 53.80859375 -23.5546875 -1.87890625 33.26171875 12.4140625 12.13671875 35.6328125 -1.75 11.69921875 36.8984375 3.16015625 11.85546875 62.5078125 -16.1796875 -15.15625 66.390625 -15.1484375 -17.66015625 34.73046875 -17.9296875 7.5546875 34.59375 -17.984375 3.30078125 32.5859375 -14.35546875 5.421875 35.26953125 4.5703125 11.75 27.8046875 -7.2109375 13.7109375 28.34375 -4.203125 15.93359375 28.0546875 -7.56640625 17.3125</float_array>
                    <technique_common>
                        <accessor count="326" source="#pointarray0" stride="3">
                            <param name="X" type="float"/>
                            <param name="Y" type="float"/>
                            <param name="Z" type="float"/>
                        </accessor>
                    </technique_common>
                </source>
                <source id="uvs0">
                    <float_array id="uvarray0" count="866">0.9550889730453491 0.38200199604034424 0.9393939971923828 0.366303026676178 0.9550880193710327 0.38348299264907837 0.9393939971923828 0.3677840232849121 0.6948059797286987 0.47411102056503296 0.6948059797286987 0.46752601861953735 0.7091040015220642 0.4715780019760132 0.7091040015220642 0.46752601861953735 0.9131079912185669 0.4715350270271301 0.8978800177574158 0.47417497634887695 0.9131079912185669 0.47857600450515747 0.8978800177574158 0.47857600450515747 0.9648820161819458 0.4715350270271301 0.9496539831161499 0.47417497634887695 0.9648820161819458 0.47857600450515747 0.9496539831161499 0.47857600450515747 0.6948059797286987 0.477150022983551 0.6948059797286987 0.48373401165008545 0.6805070042610168 0.4796820282936096 0.6805070042610168 0.48373401165008545 0.7091040015220642 0.48373401165008545 0.7091040015220642 0.4796820282936096 0.6805070042610168 0.4877859950065613 0.6948059797286987 0.4875980019569397 0.815650999546051 0.46361398696899414 0.815650999546051 0.4702150225639343 0.8308780193328857 0.46361398696899414 0.8308780193328857 0.4680140018463135 0.8461059927940369 0.46361398696899414 0.8461059927940369 0.4680140018463135 0.8613340258598328 0.4702150225639343 0.8613340258598328 0.46361398696899414 0.7091040015220642 0.4877859950065613 0.9496539831161499 0.48913800716400146 0.9648820161819458 0.48209601640701294 0.9191989898681641 0.48209601640701294 0.93442702293396 0.48913800716400146 0.9191989898681641 0.47857600450515747 0.93442702293396 0.47857600450515747 0.6805070042610168 0.49316900968551636 0.6948059797286987 0.49316900968551636 0.7091040015220642 0.49316900968551636 0.907817006111145 0.4371830224990845 0.886372983455658 0.43730199337005615 0.9306269884109497 0.4248179793357849 0.8687949776649475 0.4250919818878174 0.6407899856567383 0.47411102056503296 0.6407899856567383 0.46752601861953735 0.6550880074501038 0.4715780019760132 0.6550880074501038 0.46752601861953735 0.6264910101890564 0.46752601861953735 0.6264910101890564 0.4715780019760132 0.6550880074501038 0.46347397565841675 0.6407899856567383 0.46094197034835815 0.6948059797286987 0.46094197034835815 0.6805070042610168 0.46347397565841675 0.6805070042610168 0.46752601861953735 0.9266030192375183 0.38199299573898315 0.9155160188674927 0.3662949800491333 0.8714330196380615 0.38197600841522217 0.8714410066604614 0.36556899547576904 0.5391129851341248 0.4589160084724426 0.5391129851341248 0.46549999713897705 0.524815022945404 0.4614480137825012 0.524815022945404 0.46549999713897705 0.5534110069274902 0.46549999713897705 0.5534110069274902 0.4614480137825012 0.5740119814872742 0.4400479793548584 0.5831350088119507 0.40671300888061523 0.6052780151367188 0.4435669779777527 0.6032260060310364 0.4068149924278259 0.6300129890441895 0.406948983669281 0.6501039862632751 0.4070500135421753 0.6231549978256226 0.4436429738998413 0.6559590101242065 0.4403889775276184 0.5150949954986572 0.4490079879760742 0.5129709839820862 0.44248902797698975 0.5221620202064514 0.44851797819137573 0.5176309943199158 0.43313902616500854 0.524815022945404 0.4695519804954529 0.5391129851341248 0.47208499908447266 0.5534110069274902 0.4695519804954529 0.7091040015220642 0.46347397565841675 0.6805070042610168 0.4715780019760132 0.815650999546051 0.46889400482177734 0.8004230260848999 0.4715350270271301 0.815650999546051 0.475055992603302 0.8004230260848999 0.475055992603302 0.6383609771728516 0.3829209804534912 0.5954020023345947 0.3827049732208252 0.6561710238456726 0.3594520092010498 0.5799210071563721 0.3599569797515869 0.5391129851341248 0.473097026348114 0.5391129851341248 0.4796820282936096 0.524815022945404 0.475629985332489 0.524815022945404 0.4796820282936096 0.5534110069274902 0.4796820282936096 0.5534110069274902 0.475629985332489 0.524815022945404 0.48373401165008545 0.5391129851341248 0.4835450053215027 0.5534110069274902 0.48373401165008545 0.8004230260848999 0.4838569760322571 0.815650999546051 0.47857600450515747 0.5391129851341248 0.4898120164871216 0.5534110069274902 0.4898120164871216 0.7699679732322693 0.47857600450515747 0.785194993019104 0.4838569760322571 0.7699679732322693 0.475055992603302 0.785194993019104 0.475055992603302 0.524815022945404 0.4898120164871216 0.882652997970581 0.47857600450515747 0.882652997970581 0.47417497634887695 0.8870059847831726 0.4435639977455139 0.9072359800338745 0.44295400381088257 0.6010720133781433 0.48170799016952515 0.5867739915847778 0.48170799016952515 0.6010720133781433 0.4776560068130493 0.5867739915847778 0.4751240015029907 0.8358389735221863 0.437296986579895 0.8573150038719177 0.43731701374053955 0.8370199799537659 0.44389599561691284 0.8574000000953674 0.44396501779556274 0.6550880074501038 0.4796820282936096 0.6407899856567383 0.477150022983551 0.8308780193328857 0.47681599855422974 0.8308780193328857 0.4856169819831848 0.8461059927940369 0.47681599855422974 0.8461059927940369 0.4856169819831848 0.6264910101890564 0.4796820282936096 0.8922240138053894 0.3526039719581604 0.8929399847984314 0.3566640019416809 0.844539999961853 0.35263001918792725 0.8445379734039307 0.35670799016952515 0.5724760293960571 0.4776560068130493 0.5724760293960571 0.48170799016952515 0.7825790047645569 0.3749449849128723 0.8209919929504395 0.37308698892593384 0.7878209948539734 0.38263100385665894 0.8255559802055359 0.3816850185394287 0.815650999546051 0.47681599855422974 0.8308780193328857 0.4724149703979492 0.882652997970581 0.46889400482177734 0.8978800177574158 0.46889400482177734 0.7948290109634399 0.3689489960670471 0.819832980632782 0.36555302143096924 0.8038970232009888 0.3875430226325989 0.8334770202636719 0.38019198179244995 0.5867739915847778 0.4599289894104004 0.5867739915847778 0.4665129780769348 0.5724760293960571 0.462460994720459 0.5724760293960571 0.4665129780769348 0.6010720133781433 0.4665129780769348 0.6010720133781433 0.462460994720459 0.871425986289978 0.3881160020828247 0.5724760293960571 0.4705650210380554 0.5867739915847778 0.473097026348114 0.6010720133781433 0.4705650210380554 0.8461059927940369 0.4724149703979492 0.8613340258598328 0.47681599855422974 0.882652997970581 0.464493989944458 0.8978800177574158 0.464493989944458 0.882652997970581 0.46097302436828613 0.8978800177574158 0.46097302436828613 0.6264910101890564 0.46347397565841675 0.8330399990081787 0.425229012966156 0.8075349926948547 0.4070240259170532 0.8357269763946533 0.4089009761810303 0.7972850203514099 0.42536598443984985 0.6407899856567383 0.45840901136398315 0.6264910101890564 0.45840901136398315 0.8674250245094299 0.4715350270271301 0.8674250245094299 0.47857600450515747 0.6550880074501038 0.45840901136398315 0.5867739915847778 0.485571026802063 0.6010720133781433 0.485759973526001 0.5867739915847778 0.4901300072669983 0.6010720133781433 0.4901300072669983 0.5724760293960571 0.4901300072669983 0.5724760293960571 0.485759973526001 0.5867739915847778 0.4573959708213806 0.5724760293960571 0.4573959708213806 0.6010720133781433 0.4573959708213806 0.8308780193328857 0.46009302139282227 0.8461059927940369 0.46009302139282227 0.882652997970581 0.48913800716400146 0.8978800177574158 0.48913800716400146 0.815650999546051 0.4803360104560852 0.8613340258598328 0.4803360104560852 0.7408130168914795 0.4215959906578064 0.743457019329071 0.41247397661209106 0.7309079766273499 0.4215959906578064 0.7309079766273499 0.41247397661209106 0.7155699729919434 0.4033510088920593 0.7155699729919434 0.4097369909286499 0.7309079766273499 0.4033510088920593 0.7309079766273499 0.4097369909286499 0.9131079912185669 0.464493989944458 0.9648820161819458 0.464493989944458 0.9496539831161499 0.46889400482177734 0.9496539831161499 0.464493989944458 0.93442702293396 0.464493989944458 0.93442702293396 0.46889400482177734 0.6876819729804993 0.4215959906578064 0.7002310156822205 0.4215959906578064 0.6876819729804993 0.41247397661209106 0.7002310156822205 0.41247397661209106 0.9191989898681641 0.464493989944458 0.9191989898681641 0.4715350270271301 0.7002310156822205 0.4097369909286499 0.7002310156822205 0.4033510088920593 0.6948059797286987 0.45840901136398315 0.6805070042610168 0.45840901136398315 0.7091040015220642 0.45840901136398315 0.7309079766273499 0.38328200578689575 0.7155699729919434 0.3791769742965698 0.7309079766273499 0.39514100551605225 0.7155699729919434 0.394228994846344 0.7002310156822205 0.38328200578689575 0.7002310156822205 0.39514100551605225 0.93442702293396 0.46097302436828613 0.9496539831161499 0.46097302436828613 0.8674250245094299 0.464493989944458 0.93442702293396 0.47417497634887695 0.8915039896965027 0.35655200481414795 0.8445379734039307 0.35655999183654785 0.7155699729919434 0.41247397661209106 0.7155699729919434 0.4215959906578064 0.6319059729576111 0.4060879945755005 0.6500329971313477 0.4060879945755005 0.6319059729576111 0.40061497688293457 0.6500329971313477 0.40061497688293457 0.7309079766273499 0.40061497688293457 0.7155699729919434 0.40061497688293457 0.6319059729576111 0.41247397661209106 0.6500329971313477 0.41247397661209106 0.6876819729804993 0.4060879945755005 0.6876819729804993 0.40061497688293457 0.6695550084114075 0.4060879945755005 0.6695550084114075 0.40061497688293457 0.7002310156822205 0.40061497688293457 0.7699679732322693 0.4627329707145691 0.7699679732322693 0.46889400482177734 0.785194993019104 0.4627329707145691 0.785194993019104 0.46625399589538574 0.6695550084114075 0.41247397661209106 0.8004230260848999 0.4627329707145691 0.8004230260848999 0.46625399589538574 0.815650999546051 0.4627329707145691 0.6500329971313477 0.4215959906578064 0.6416670083999634 0.42615699768066406 0.6695550084114075 0.4215959906578064 0.6779209971427917 0.42615699768066406 0.6500329971313477 0.417946994304657 0.6695550084114075 0.417946994304657 0.9688259959220886 0.4292449951171875 0.9643009901046753 0.42907601594924927 0.9700189828872681 0.4066479802131653 0.9655799865722656 0.4067729711532593 0.9627460241317749 0.436460018157959 0.9645980000495911 0.4410160183906555 0.9618669748306274 0.44557297229766846 0.9467809796333313 0.4425309896469116 0.771291971206665 0.4447169899940491 0.767982006072998 0.4390559792518616 0.7880340218544006 0.4418179988861084 0.7777130007743835 0.4362580180168152 0.9131079912185669 0.48209601640701294 0.6407899856567383 0.4875980019569397 0.6407899856567383 0.48373401165008545 0.6550880074501038 0.4877859950065613 0.6550880074501038 0.48373401165008545 0.7165539860725403 0.45358699560165405 0.7089110016822815 0.45292001962661743 0.7198230028152466 0.44679999351501465 0.7136849761009216 0.43551599979400635 0.6264910101890564 0.48373401165008545 0.6264910101890564 0.4877859950065613 0.785194993019104 0.4715350270271301 0.5240110158920288 0.43390601873397827 0.5317540168762207 0.4093160033226013 0.556164026260376 0.43644702434539795 0.5576210021972656 0.4080290198326111 0.931693971157074 0.41079801321029663 0.8639199733734131 0.4107769727706909 0.929606020450592 0.38889098167419434 0.9660500288009644 0.3883259892463684 0.785194993019104 0.4592130184173584 0.8004230260848999 0.4592130184173584 0.6681600213050842 0.3860189914703369 0.6834989786148071 0.38328200578689575 0.6407899856567383 0.49316900968551636 0.6550880074501038 0.49316900968551636 0.5534110069274902 0.4573959708213806 0.5391129851341248 0.4542980194091797 0.56038498878479 0.382066011428833 0.6744170188903809 0.3831019997596741 0.6701939702033997 0.4071509838104248 0.6264910101890564 0.49316900968551636 0.6943179965019226 0.40727299451828003 0.6738399863243103 0.44050300121307373 0.7039399743080139 0.43701398372650146 0.8674250245094299 0.48209601640701294 0.524815022945404 0.4573959708213806 0.6564030051231384 0.45759397745132446 0.664900004863739 0.44045400619506836 0.6660829782485962 0.45456600189208984 0.8177610039710999 0.4403979778289795 0.7982569932937622 0.43907397985458374 0.8213440179824829 0.4474160075187683 0.808230996131897 0.44284701347351074 0.6757280230522156 0.4550439715385437 0.8189489841461182 0.3575029969215393 0.8038039803504944 0.36559098958969116 0.6927340030670166 0.45448899269104004 0.6209200024604797 0.456866979598999 0.6142169833183289 0.4436119794845581 0.8740010261535645 0.44049400091171265 0.6386989951133728 0.4602530002593994 0.743457019329071 0.4063349962234497 0.743457019329071 0.40061497688293457 0.8053230047225952 0.36305201053619385 0.550233006477356 0.3608279824256897 0.5968499779701233 0.3475779891014099 0.9169449806213379 0.35751497745513916 0.6319059729576111 0.4215959906578064 0.7002310156822205 0.42615699768066406 0.7309079766273499 0.42615699768066406 0.6542159914970398 0.394228994846344 0.5294280052185059 0.3796190023422241 0.6999769806861877 0.3774759769439697 0.7782689929008484 0.4259840250015259 0.9421390295028687 0.43911802768707275 0.5146070122718811 0.4095500111579895 0.7140300273895264 0.40810102224349976 0.762499988079071 0.4275779724121094 0.6918650269508362 0.38328200578689575 0.6819390058517456 0.35890400409698486 0.7186359763145447 0.4877859950065613 0.9283360242843628 0.4935380220413208 0.6709750294685364 0.4877859950065613 0.7208870053291321 0.40850400924682617 0.7214040160179138 0.4307199716567993 0.850167989730835 0.39844799041748047 0.7741469740867615 0.38757097721099854 0.7850810289382935 0.3809570074081421 0.7692139744758606 0.3770869970321655 0.7650780081748962 0.3973590135574341 0.7166540026664734 0.3828880190849304 0.7632129788398743 0.4048740267753601 0.6424639821052551 0.3478339910507202 0.8902660012245178 0.49177801609039307 0.8674250245094299 0.4625539779663086 0.6550880074501038 0.49823397397994995 0.6646199822425842 0.4877859950065613 0.8765619993209839 0.4935380220413208 0.5665670037269592 0.4399399757385254 0.9223020076751709 0.44054198265075684 0.9293869733810425 0.44336998462677 0.9199730157852173 0.4469969868659973 0.5407940149307251 0.45138901472091675 0.5552170276641846 0.45303601026535034 0.5727750062942505 0.45636701583862305 0.607545018196106 0.4556419849395752 0.6137109994888306 0.459663987159729 0.589684009552002 0.4590659737586975 0.8735730051994324 0.44771498441696167 0.5629439949989319 0.48170799016952515 0.5629439949989319 0.47411102056503296 0.6106039881706238 0.48170799016952515 0.6709750294685364 0.475629985332489 0.7186359763145447 0.475629985332489 0.7186359763145447 0.48373401165008545 0.7186359763145447 0.46752601861953735 0.9420409798622131 0.49177801609039307 0.9557459950447083 0.4935380220413208 0.6805070042610168 0.49823397397994995 0.7091040015220642 0.49823397397994995 0.6169589757919312 0.48373401165008545 0.6169589757919312 0.4877859950065613 0.9039710164070129 0.4935380220413208 0.6264910101890564 0.49823397397994995 0.6169589757919312 0.46752601861953735 0.6646199822425842 0.46549999713897705 0.6646199822425842 0.48373401165008545 0.6646199822425842 0.46752601861953735 0.5629439949989319 0.4796820282936096 0.5152829885482788 0.47259098291397095 0.5629439949989319 0.47259098291397095 0.5152829885482788 0.46549999713897705 0.6169589757919312 0.46549999713897705 0.6646199822425842 0.475629985332489 0.6169589757919312 0.475629985332489 0.8247870206832886 0.49177801609039307 0.6106039881706238 0.485759973526001 0.6010720133781433 0.4962080121040344 0.815650999546051 0.46185302734375 0.8384919762611389 0.49001801013946533 0.5629439949989319 0.4665129780769348 0.6106039881706238 0.47411102056503296 0.5629439949989319 0.4644870162010193 0.6106039881706238 0.4665129780769348 0.852196991443634 0.49177801609039307 0.5724760293960571 0.4962080121040344 0.5629439949989319 0.485759973526001 0.6106039881706238 0.4644870162010193 0.5645470023155212 0.4520050287246704 0.9131079912185669 0.46262097358703613 0.6709750294685364 0.46752601861953735 0.6709750294685364 0.46549999713897705 0.7186359763145447 0.46549999713897705 0.6709750294685364 0.48373401165008545 0.7859990000724792 0.4057270288467407 0.752236008644104 0.3837429881095886 0.7658720016479492 0.38319700956344604 0.5107830166816711 0.4332280158996582 0.5629439949989319 0.46347397565841675 0.5534110069274902 0.4958900213241577 0.7699679732322693 0.46097302436828613 0.792809009552002 0.48737698793411255 0.5152829885482788 0.4796820282936096 0.5629439949989319 0.48373401165008545 0.5152829885482788 0.46347397565841675 0.5629439949989319 0.46549999713897705 0.8065140247344971 0.48913800716400146 0.524815022945404 0.4958900213241577 0.5152829885482788 0.48373401165008545 0.7791039943695068 0.48913800716400146 0.815650999546051 0.46097302436828613 0.9648820161819458 0.4627060294151306 0.5629439949989319 0.459089994430542 0.6677979826927185 0.46161001920700073 0.9191989898681641 0.4626380205154419 0.8613340258598328 0.46185302734375</float_array>
                    <technique_common>
                        <accessor count="433" source="#uvarray0" stride="2">
                            <param name="S" type="float"/>
                            <param name="T" type="float"/>
                        </accessor>
                    </technique_common>
                </source>
                <vertices id="vertices0">
                    <input semantic="POSITION" source="#points0"/>
                </vertices>
                <polylist count="648" material="Material1">
                    <input offset="0" semantic="VERTEX" source="#vertices0"/>
                    <input offset="1" semantic="TEXCOORD" source="#uvs0" set="0"/>
                    <vcount>3 3 3 3 3 3 3 3 3 3 3 3 3 3 3 3 3 3 3 3 3 3 3 3 3 3 3 3 3 3 3 3 3 3 3 3 3 3 3 3 3 3 3 3 3 3 3 3 3 3 3 3 3 3 3 3 3 3 3 3 3 3 3 3 3 3 3 3 3 3 3 3 3 3 3 3 3 3 3 3 3 3 3 3 3 3 3 3 3 3 3 3 3 3 3 3 3 3 3 3 3 3 3 3 3 3 3 3 3 3 3 3 3 3 3 3 3 3 3 3 3 3 3 3 3 3 3 3 3 3 3 3 3 3 3 3 3 3 3 3 3 3 3 3 3 3 3 3 3 3 3 3 3 3 3 3 3 3 3 3 3 3 3 3 3 3 3 3 3 3 3 3 3 3 3 3 3 3 3 3 3 3 3 3 3 3 3 3 3 3 3 3 3 3 3 3 3 3 3 3 3 3 3 3 3 3 3 3 3 3 3 3 3 3 3 3 3 3 3 3 3 3 3 3 3 3 3 3 3 3 3 3 3 3 3 3 3 3 3 3 3 3 3 3 3 3 3 3 3 3 3 3 3 3 3 3 3 3 3 3 3 3 3 3 3 3 3 3 3 3 3 3 3 3 3 3 3 3 3 3 3 3 3 3 3 3 3 3 3 3 3 3 3 3 3 3 3 3 3 3 3 3 3 3 3 3 3 3 3 3 3 3 3 3 3 3 3 3 3 3 3 3 3 3 3 3 3 3 3 3 3 3 3 3 3 3 3 3 3 3 3 3 3 3 3 3 3 3 3 3 3 3 3 3 3 3 3 3 3 3 3 3 3 3 3 3 3 3 3 3 3 3 3 3 3 3 3 3 3 3 3 3 3 3 3 3 3 3 3 3 3 3 3 3 3 3 3 3 3 3 3 3 3 3 3 3 3 3 3 3 3 3 3 3 3 3 3 3 3 3 3 3 3 3 3 3 3 3 3 3 3 3 3 3 3 3 3 3 3 3 3 3 3 3 3 3 3 3 3 3 3 3 3 3 3 3 3 3 3 3 3 3 3 3 3 3 3 3 3 3 3 3 3 3 3 3 3 3 3 3 3 3 3 3 3 3 3 3 3 3 3 3 3 3 3 3 3 3 3 3 3 3 3 3 3 3 3 3 3 3 3 3 3 3 3 3 3 3 3 3 3 3 3 3 3 3 3 3 3 3 3 3 3 3 3 3 3 3 3 3 3 3 3 3 3 3 3 3 3 3 3 3 3 3 3 3 3 3 3 3 3 3 3 3 3 3 3 3 3 3 3 3 3 3 3 3 3 3 3 3 3 3 3 3 3 3 3 3 3 3 3 3 3 3 3 3 3 3 3 3 3 3 3 3 3 3 3 3 3 3 3 3 3 3 3 3 3 3 3 3 3 3 3 3 3 3 3 3 3 3 3 3 3 3 3 3 3 3 3 3 3 3 3 3 3 3 3 3</vcount>
                    <p>2 2 1 1 0 0 3 3 1 1 2 2 6 6 5 5 4 4 7 7 5 5 6 6 10 10 9 9 8 8 11 11 9 9 10 10 14 14 13 13 12 12 15 15 13 13 14 14 18 18 17 17 16 16 19 19 17 17 18 18 21 21 17 17 20 20 16 16 17 17 21 21 22 22 17 17 19 19 23 23 17 17 22 22 26 26 25 25 24 24 27 27 25 25 26 26 28 28 27 27 26 26 29 29 27 27 28 28 29 29 31 31 30 30 28 28 31 31 29 29 32 32 17 17 23 23 20 20 17 17 32 32 14 14 33 33 15 15 34 34 33 33 14 14 37 37 36 36 35 35 38 38 36 36 37 37 40 40 22 22 39 39 23 23 22 22 40 40 40 40 32 32 23 23 41 41 32 32 40 40 44 44 43 43 42 42 45 45 43 43 44 44 48 48 47 47 46 46 49 49 47 47 48 48 51 51 47 47 50 50 46 46 47 47 51 51 52 52 47 47 49 49 53 53 47 47 52 52 55 55 5 5 54 54 56 56 5 5 55 55 1 1 57 57 0 0 58 58 57 57 1 1 58 58 59 59 57 57 60 60 59 59 58 58 63 63 62 62 61 61 64 64 62 62 63 63 66 66 62 62 65 65 61 61 62 62 66 66 69 69 68 68 67 67 70 70 68 68 69 69 73 73 72 72 71 71 74 74 72 72 73 73 77 77 76 76 75 75 78 78 76 76 77 77 79 79 62 62 64 64 80 80 62 62 79 79 81 81 62 62 80 80 65 65 62 62 81 81 82 82 5 5 7 7 54 54 5 5 82 82 83 83 5 5 56 56 4 4 5 5 83 83 86 86 85 85 84 84 87 87 85 85 86 86 90 90 89 89 88 88 91 91 89 89 90 90 94 94 93 93 92 92 95 95 93 93 94 94 97 97 93 93 96 96 92 92 93 93 97 97 98 98 93 93 95 95 99 99 93 93 98 98 100 100 93 93 99 99 96 96 93 93 100 100 86 86 101 101 87 87 102 102 101 101 86 86 103 103 100 100 99 99 104 104 100 100 103 103 107 107 106 106 105 105 108 108 106 106 107 107 103 103 98 98 109 109 99 99 98 98 103 103 111 111 11 11 110 110 9 9 11 11 111 111 112 112 42 42 43 43 113 113 42 42 112 112 116 116 115 115 114 114 117 117 115 115 116 116 120 120 119 119 118 118 121 121 119 119 120 120 46 46 122 122 48 48 123 123 122 122 46 46 126 126 125 125 124 124 127 127 125 125 126 126 51 51 123 123 46 46 128 128 123 123 51 51 131 131 130 130 129 129 132 132 130 130 131 131 133 133 115 115 117 117 134 134 115 115 133 133 137 137 136 136 135 135 138 138 136 136 137 137 140 140 139 139 25 25 124 124 139 139 140 140 142 142 111 111 141 141 9 9 111 111 142 142 136 136 143 143 135 135 144 144 143 143 136 136 145 145 138 138 137 137 146 146 138 138 145 145 149 149 148 148 147 147 150 150 148 148 149 149 152 152 148 148 151 151 147 147 148 148 152 152 138 138 153 153 59 59 146 146 153 153 138 138 154 154 148 148 150 150 155 155 148 148 154 154 156 156 148 148 155 155 151 151 148 148 156 156 158 158 157 157 30 30 126 126 157 157 158 158 121 161 160 160 159 159 120 162 160 160 121 161 161 163 47 47 53 53 50 50 47 47 161 163 45 45 118 118 119 119 162 164 118 118 45 45 165 167 164 166 163 165 162 164 164 166 165 167 167 169 53 53 166 168 161 163 53 53 167 169 111 111 169 171 168 170 110 110 169 171 111 111 166 168 52 52 170 172 53 53 52 52 166 168 173 175 172 174 171 173 174 176 172 174 173 175 173 175 176 178 175 177 171 173 176 178 173 175 178 180 147 147 177 179 149 149 147 147 178 180 177 179 152 152 179 181 147 147 152 152 177 179 113 182 28 28 26 26 112 183 28 28 113 182 11 11 180 184 110 110 181 185 180 184 11 11 139 139 125 125 182 186 124 124 125 125 139 139 29 29 140 140 27 27 157 157 140 140 29 29 158 158 127 127 126 126 183 187 127 127 158 158 154 154 117 117 155 155 133 133 117 117 154 154 155 155 116 116 156 156 117 117 116 116 155 155 140 140 126 126 124 124 157 157 126 126 140 140 176 178 115 115 134 134 171 173 115 115 176 178 88 88 70 70 71 71 89 89 70 70 88 88 186 190 185 189 184 188 187 191 185 189 186 190 190 194 189 193 188 192 191 195 189 193 190 194 142 142 192 196 8 8 160 160 192 196 142 142 194 198 193 197 12 12 195 199 193 197 194 198 195 199 197 201 196 200 194 198 197 201 195 199 200 204 199 203 198 202 201 205 199 203 200 204 196 200 203 207 202 206 197 201 203 207 196 200 205 209 189 193 204 208 188 192 189 193 205 209 160 160 141 141 159 159 142 142 141 141 160 160 207 211 54 54 206 210 55 55 54 54 207 211 206 210 82 82 208 212 54 54 82 82 206 210 211 215 210 214 209 213 212 216 210 214 211 215 212 216 213 217 210 214 214 218 213 217 212 216 215 219 195 199 196 200 216 220 195 199 215 219 159 159 168 170 217 221 141 141 168 170 159 159 194 198 218 222 197 201 13 13 218 222 194 198 220 224 129 129 219 223 131 131 129 129 220 224 83 83 16 16 4 4 18 18 16 16 83 83 4 4 21 21 6 6 16 16 21 21 4 4 187 191 222 226 221 225 186 190 222 226 187 191 191 195 221 225 189 193 187 191 221 225 191 195 225 229 224 228 223 227 226 230 224 228 225 229 190 194 228 232 227 231 188 192 228 232 190 194 211 215 228 232 212 216 227 231 228 232 211 215 224 228 185 233 223 227 229 234 185 233 224 228 221 225 199 203 201 205 222 226 199 203 221 225 204 208 221 225 201 205 189 193 221 225 204 208 232 237 231 236 230 235 233 238 231 236 232 237 205 209 228 232 188 192 234 239 228 232 205 209 212 216 234 239 214 218 228 232 234 239 212 216 237 242 236 241 235 240 238 243 236 241 237 242 200 204 232 237 230 235 239 244 232 237 200 204 240 245 238 243 237 242 241 246 238 243 240 245 241 246 242 247 84 84 240 245 242 247 241 246 245 250 244 249 243 248 246 251 244 249 245 250 172 174 115 115 171 173 114 114 115 115 172 174 248 253 243 248 247 252 245 250 243 248 248 253 239 244 247 252 229 234 248 253 247 252 239 244 233 238 224 228 226 230 232 237 224 228 233 238 232 237 229 234 224 228 239 244 229 234 232 237 251 256 250 255 249 254 252 257 250 255 251 256 253 258 249 254 250 255 76 259 249 254 253 258 76 259 254 261 75 260 253 258 254 261 76 259 216 264 256 263 255 262 257 265 256 263 216 264 15 15 36 36 38 38 33 33 36 36 15 15 10 10 181 185 11 11 258 266 181 185 10 10 87 87 106 106 108 108 101 101 106 106 87 87 261 269 260 268 259 267 262 270 260 268 261 269 256 273 208 272 255 271 263 274 208 272 256 273 265 276 260 268 264 275 259 267 260 268 265 276 218 222 37 37 203 207 38 38 37 37 218 222 266 277 107 107 236 241 108 108 107 107 266 277 269 280 268 279 267 278 270 281 268 279 269 280 252 257 44 44 250 255 271 282 44 44 252 257 271 282 45 45 44 44 272 283 45 45 271 282 164 166 45 45 272 283 162 164 45 45 164 166 122 122 260 268 262 270 123 123 260 268 122 122 271 282 274 285 273 284 252 257 274 285 271 282 0 0 273 284 274 285 57 57 273 284 0 0 57 57 153 153 273 284 59 59 153 153 57 57 128 128 260 268 123 123 264 275 260 268 128 128 218 222 15 15 38 38 13 13 15 15 218 222 241 246 266 277 238 243 85 85 266 277 241 246 254 286 240 245 237 242 275 287 240 245 254 286 163 288 233 238 226 230 145 289 233 238 163 288 79 79 92 92 80 80 94 94 92 92 79 79 80 80 97 97 81 81 92 92 97 97 80 80 276 290 261 269 259 267 277 291 261 269 276 290 266 277 87 87 108 108 85 85 87 87 266 277 279 293 66 66 278 292 61 61 66 66 279 293 68 68 280 294 270 281 89 89 280 294 68 68 72 72 281 295 88 88 282 296 281 295 72 72 276 290 265 276 283 297 259 267 265 276 276 290 285 299 284 298 282 296 286 300 284 298 285 299 169 171 180 184 287 301 110 110 180 184 169 171 77 302 61 61 279 293 63 63 61 61 77 302 289 305 288 304 170 303 120 120 118 118 290 306 118 118 291 307 290 306 292 308 120 120 290 306 290 306 291 307 215 309 288 304 207 310 285 299 282 296 72 72 288 304 144 144 136 136 60 60 220 224 294 312 293 311 286 300 206 313 208 272 295 315 167 314 73 73 296 316 119 119 121 121 215 309 292 308 290 306 285 299 207 310 206 313 170 303 74 74 166 317 248 253 239 244 200 204 185 233 229 234 247 252 231 236 205 209 230 235 204 208 230 235 205 209 191 195 190 194 223 318 211 215 225 319 227 231 132 132 297 320 144 144 219 322 3 321 91 91 298 323 130 130 1 1 251 256 274 285 252 257 201 205 200 204 204 208 245 250 198 202 246 251 205 209 231 236 234 239 200 204 230 235 204 208 187 191 191 195 185 189 243 248 244 249 184 324 190 194 227 231 225 319 190 194 225 319 223 318 191 195 223 318 185 189 244 326 246 325 222 226 226 230 299 327 163 288 199 203 222 226 246 325 248 253 198 202 245 250 231 236 214 218 234 239 244 326 186 190 184 188 184 324 247 252 243 248 88 88 71 71 72 72 282 296 284 298 281 295 132 132 293 311 297 320 298 323 129 129 130 130 280 294 3 321 2 328 300 329 281 295 284 298 163 165 301 330 165 167 257 265 165 167 301 330 42 42 302 331 44 44 268 279 2 328 251 332 267 278 268 279 78 78 250 255 302 331 253 258 263 274 303 333 284 298 304 334 256 263 257 265 184 324 185 233 247 252 299 327 211 215 209 213 299 327 226 230 225 229 299 327 225 229 211 215 231 236 213 217 214 218 137 335 231 236 233 238 137 335 233 238 145 289 281 295 294 336 90 90 2 328 268 279 280 294 78 78 77 77 267 278 213 217 231 236 137 335 199 203 246 325 198 202 244 326 222 226 186 190 248 253 200 204 198 202 41 41 34 337 32 32 36 36 305 338 35 35 39 39 22 22 35 339 304 341 306 340 303 333 304 334 257 265 301 330 307 342 163 165 164 166 118 118 162 164 165 167 146 146 145 145 307 342 153 153 307 342 272 283 309 345 300 344 308 343 209 346 309 345 308 343 303 333 306 340 308 347 263 274 304 341 303 333 303 333 308 347 300 329 306 348 209 346 308 343 91 91 90 90 219 322 220 349 90 90 294 336 1 1 130 130 58 58 181 185 310 350 180 184 217 221 311 351 121 161 277 291 276 290 312 352 192 196 160 160 120 162 8 8 9 9 142 142 111 111 168 170 141 141 277 291 312 352 258 353 180 184 313 354 287 301 74 74 288 304 72 72 269 280 314 355 270 281 285 299 206 313 286 300 316 358 275 357 315 356 113 113 316 358 315 356 302 331 315 356 275 357 253 258 302 331 254 261 269 280 267 278 279 359 279 359 278 360 269 280 67 67 314 355 178 361 311 363 295 315 179 362 178 361 177 364 67 67 315 356 42 42 113 113 315 356 302 331 42 42 43 43 296 316 112 112 121 121 311 365 296 316 43 43 119 119 296 316 73 73 167 314 166 317 133 133 25 367 139 366 158 368 116 116 114 114 295 315 70 70 69 69 300 344 297 320 294 312 196 200 202 206 215 219 18 18 83 83 203 369 21 21 14 371 12 370 193 372 6 6 12 370 36 36 317 373 305 338 33 33 34 34 318 374 35 339 305 375 39 39 41 41 318 376 34 337 264 275 128 128 169 377 265 276 169 377 287 378 181 185 312 379 310 350 312 352 276 290 313 380 50 50 161 163 217 381 313 354 310 350 312 379 313 380 276 290 283 297 292 382 170 172 52 52 10 383 262 270 261 269 192 384 49 49 48 48 86 385 97 97 96 96 94 94 79 79 236 386 97 97 86 385 84 387 79 79 64 64 235 388 192 384 52 52 49 49 161 163 311 389 217 381 51 51 50 50 217 381 122 122 10 383 8 390 51 51 217 381 168 391 10 383 122 122 262 270 128 128 168 391 169 377 258 353 10 383 261 269 265 276 264 275 169 377 125 125 319 392 182 186 174 176 183 393 172 174 140 140 25 25 27 27 30 30 157 157 29 29 28 28 112 183 31 31 174 176 173 175 320 394 24 24 316 395 113 182 127 127 321 396 125 125 176 178 134 134 139 366 154 154 24 397 25 367 30 398 156 156 116 116 154 154 150 150 24 397 149 149 316 399 24 397 31 400 152 152 151 151 127 127 320 401 321 396 320 394 173 175 319 402 31 400 151 151 156 156 158 368 114 114 172 174 176 178 139 366 182 403 134 134 133 133 139 366 150 150 149 149 24 397 319 392 321 396 320 401 319 402 173 175 175 177 311 404 179 181 152 152 174 176 320 394 183 393 182 403 319 402 175 177 127 127 183 187 320 401 125 125 321 396 319 392 31 400 156 156 30 398 116 116 158 368 30 398 3 3 219 223 298 323 297 320 293 311 294 312 295 315 311 363 167 314 314 355 322 405 178 361 207 310 288 304 289 305 295 315 69 69 179 362 71 71 70 70 295 315 68 68 270 281 314 355 269 280 278 360 314 355 288 304 74 74 170 303 216 264 215 309 291 307 112 112 296 316 311 365 280 294 268 279 270 281 68 68 70 70 89 89 68 68 314 355 67 67 71 71 295 315 73 73 282 296 288 304 285 299 302 331 275 357 254 261 257 265 216 264 291 307 277 291 258 353 261 269 287 378 313 380 283 297 181 185 258 266 312 379 180 184 310 350 313 354 192 384 48 48 8 390 8 390 48 48 122 122 128 128 51 51 168 391 159 159 217 221 121 161 192 196 120 162 292 406 192 384 292 382 52 52 167 169 311 389 161 163 175 177 176 178 182 403 281 295 90 90 88 88 280 294 89 89 91 91 280 294 91 91 3 321 273 284 153 153 271 282 219 322 90 90 220 349 3 3 298 323 1 1 83 83 202 407 203 369 12 370 6 6 21 21 83 83 56 56 202 407 55 55 292 408 202 407 193 372 82 82 7 7 33 33 318 374 317 373 318 376 40 40 305 375 193 372 255 409 82 82 193 372 7 7 6 6 14 371 20 20 32 32 22 22 37 410 35 339 19 19 18 18 37 410 56 56 55 55 202 407 305 338 317 373 318 374 305 375 40 40 39 39 255 409 208 212 82 82 60 60 132 132 144 144 60 60 130 130 132 132 131 131 220 224 293 311 219 223 129 129 298 323 132 132 131 131 293 311 297 320 143 143 144 144 271 282 153 153 272 283 301 330 299 411 304 334 130 130 60 60 58 58 322 405 314 355 278 360 177 364 69 69 67 67 179 362 69 69 177 364 74 74 73 73 166 317 306 348 299 411 209 346 309 345 209 346 210 412 309 345 213 413 135 135 137 137 135 135 213 413 309 345 135 135 143 143 309 345 210 412 213 413 136 136 138 138 59 59 307 342 164 166 272 283 163 165 299 411 301 330 145 145 163 165 307 342 146 146 307 342 153 153 250 255 44 44 302 331 286 300 263 274 284 298 263 274 256 273 304 341 251 332 249 414 78 78 274 285 2 2 0 0 251 256 2 2 274 285 284 298 303 333 300 329 143 143 297 320 300 344 309 345 143 143 300 344 251 332 78 78 268 279 249 414 76 76 78 78 263 274 286 300 208 272 77 77 279 359 267 278 59 59 60 60 136 136 300 329 294 336 281 295 316 415 278 292 66 66 104 104 103 103 323 416 235 240 75 417 254 286 101 101 324 418 106 106 98 98 95 95 107 419 102 420 86 385 100 100 94 94 236 386 107 419 183 393 158 368 172 174 63 63 75 421 235 388 242 422 66 66 65 65 101 101 323 423 324 418 323 416 103 103 325 424 242 422 65 65 81 81 86 385 96 96 100 100 98 98 107 419 105 425 95 95 94 94 107 419 64 64 63 63 235 388 325 426 324 418 323 423 325 424 103 103 109 109 104 104 323 416 102 420 105 425 325 424 109 109 101 101 102 102 323 423 106 106 324 418 325 426 242 422 81 81 84 387 84 387 81 81 97 97 79 79 235 388 236 386 237 242 235 240 254 286 275 287 316 427 242 247 283 297 265 276 287 378 207 211 292 408 55 55 193 197 216 220 255 428 299 411 306 348 304 334 316 429 322 405 278 360 316 429 178 361 322 405 289 305 292 430 207 310 289 305 170 303 292 430 291 307 118 118 165 167 45 45 119 119 43 43 257 265 291 307 165 167 218 222 203 207 197 201 12 12 13 13 194 198 193 197 195 199 216 220 41 41 40 40 318 376 202 206 292 431 215 219 33 33 317 373 36 36 22 22 19 19 37 410 34 337 14 371 32 32 18 18 203 369 37 410 14 371 21 21 20 20 242 422 316 415 66 66 77 302 75 421 63 63 133 133 154 154 25 367 26 26 24 24 113 182 112 183 311 432 31 31 31 400 311 404 152 152 178 180 316 399 149 149 109 109 98 98 105 425 106 106 325 426 105 105 104 104 102 420 100 100 266 277 236 241 238 243 84 84 85 85 241 246 240 245 275 287 242 247</p>
                </polylist>
            </mesh>
        </geometry>
    </library_geometries>
    <library_visual_scenes>
        <visual_scene id="VisualSceneNode">
            <node id="node0" name="m0" type="NODE">
                <instance_geometry url="#mesh0">
                    <bind_material>
                        <technique_common>
                            <instance_material symbol="Material1" target="#mat0">
                                <bind_vertex_input semantic="UVSET0" input_semantic="TEXCOORD" input_set="0"></bind_vertex_input>
                            </instance_material>
                        </technique_common>
                    </bind_material>
                </instance_geometry>
            </node>
        </visual_scene>
    </library_visual_scenes>
    <scene>
        <instance_visual_scene url="#VisualSceneNode"></instance_visual_scene>
    </scene>
</COLLADA>
