<?xml version="1.0"?>
<COLLADA xmlns="http://www.collada.org/2005/11/COLLADASchema" version="1.4.1">
    <asset>
        <contributor>
            <authoring_tool>J3D Ripoff Exporter</authoring_tool>
        </contributor>
        <created>2024-08-02T13:58:32.500Z</created>
        <modified>2024-08-02T13:58:32.500Z</modified>
		<unit meter="0.01" name="centimeter" ></unit>
        <up_axis>Y_UP</up_axis>
    </asset>
    <library_images>
        <image id="tex0">
            <init_from>donkey_all.png</init_from>
        </image>
    </library_images>
    <library_effects>
        <effect id="effect0">
            <profile_COMMON>
                <newparam sid="surface0">
                    <surface type="2D">
                        <init_from>tex0</init_from>
                    </surface>
                </newparam>
                <newparam sid="sampler0">
                    <sampler2D>
                        <source>surface0</source>
                    </sampler2D>
                </newparam>
                <technique sid="COMMON">
                    <blinn>
                        <diffuse>
                            <texture texture="sampler0" texcoord="UVSET0"></texture>
                        </diffuse>
                    </blinn>
                </technique>
            </profile_COMMON>
        </effect>
    </library_effects>
    <library_materials>
        <material id="mat0" name="donkey_All">
            <instance_effect url="#effect0"></instance_effect>
        </material>
    </library_materials>
    <library_geometries>
        <geometry id="mesh0">
            <mesh>
                <source id="points0">
                    <float_array id="pointarray0" count="981">20.95703125 16.6796875 -1.73046875 20.95703125 16.6796875 4.1328125 8.84765625 14.87890625 -3.5 8.84765625 14.87890625 5.90234375 45.4765625 0.26953125 -1.5625 45.046875 0.01953125 -5.77734375 38.21875 -1.4765625 -1.24609375 38.140625 -1.40234375 -7.01171875 38.3046875 13.19921875 -8.4296875 42.57421875 12.7109375 -8.6796875 38.2734375 14.578125 -3.73828125 43.16015625 14.26953125 -3.91796875 38.44140625 13.84765625 0.84765625 43.59765625 13.33984375 0.40234375 54.890625 2.85546875 -10.15625 46.36328125 5.11328125 -9.7890625 50.42578125 -1.921875 -6.296875 50.93359375 -1.53515625 -1.59765625 47.1640625 5.33203125 1.765625 56.07421875 3.8828125 1.71875 68.796875 4.58203125 15.8125 69.0546875 4.14453125 11.70703125 72.47265625 -0.30078125 16.203125 71.98828125 -0.57421875 12.55078125 69.21484375 -1.44921875 18.92578125 66.19921875 3.1015625 19.2265625 63.7578125 -3.52734375 18.9375 62.12890625 -7.32421875 15.93359375 57.4453125 -0.5390625 18.015625 56.6640625 -5.40234375 14.75 58.6875 -4.8125 9.9140625 64.171875 -6.71484375 10.734375 61.53125 -0.08984375 7.73046875 66.94140625 -3.3515625 9.25390625 64.66796875 7.5703125 15.03125 65.23046875 6.66015625 10.60546875 61.6953125 5.48828125 18.72265625 60.0546875 8.0078125 9.2578125 59.36328125 9.33203125 14.14453125 56.63671875 7.52734375 17.625 56.48828125 2.61328125 6.4140625 55.65625 -2.74609375 9.5546875 54.37890625 11.01171875 12.71875 47.59375 12.90234375 10.96484375 55.1328125 9.703125 7.86328125 48.7890625 10.734375 6.21875 45.36328125 10.3359375 15.2734375 51.7578125 9.41015625 16.671875 44.5703125 12.1328125 5.01171875 42.89453125 13.5234375 9.84765625 41.484375 11.546875 14.515625 52.7734375 2.02734375 17.08984375 53.81640625 -2.953125 14.41015625 2.8125 -4.1953125 -20.23046875 0.3125 -2.5859375 -17.421875 3.54296875 -11.26953125 -10.03515625 0.38671875 -9.12109375 -8.53125 45.60546875 2.4375 -25.453125 40.01171875 3.71484375 -23.46875 43.17578125 -1.63671875 -20.93359375 39.60546875 -0.375 -19.6796875 42.0859375 -0.04296875 -15.48046875 45.55078125 -2.04296875 -17.07421875 46.26953125 4.296875 -13.79296875 51.75 2.58203125 -16.109375 7.2578125 -10.58203125 1.37890625 14.3046875 -12.30859375 1.37890625 7.20703125 -12.609375 -10.3046875 13.99609375 -13.12890625 -10.19921875 72.3203125 5.12109375 -4.83984375 70.546875 4.234375 -9.1328125 75.7265625 0.390625 -5.0546875 73.62890625 -0.44921875 -8.765625 73.8203125 -0.484375 -1.16796875 70.93359375 4.1640625 -0.36328125 69.13671875 -2.7734375 0.1484375 66.15625 -6.16015625 -2.0390625 63.84765625 0.25390625 1.015625 61.16796875 -4.03515625 -2.015625 60.91796875 -4.05859375 -6.671875 66.109375 -6.14453125 -7.21484375 63.234375 0.35546875 -10.23046875 68.796875 -2.71875 -9.86328125 67.1328125 9.046875 -4.92578125 66.4375 7.05859375 -9.2109375 66.93359375 6.9765625 -0.140625 58.796875 9.109375 -9.234375 59.79296875 11.38671875 -4.4921875 59.609375 9.9375 0 57.35546875 0.08203125 -1.94140625 56.90234375 -0.31640625 -6.65625 7.54296875 -11.6484375 -18.83203125 16.5703125 -13.22265625 -16.50390625 54.33203125 12.01171875 -4.1953125 49.2578125 12.90625 -4.08984375 53.30859375 10.14453125 -9.23046875 48.6328125 11.15234375 -8.69140625 49.421875 11.59765625 0.3359375 54.2578125 10.73828125 0.0625 33.79296875 -5.79296875 -7.7109375 33.6328125 -5.26953125 -1.03125 32.64453125 -4.70703125 4.515625 32.0390625 -4.25 10.55078125 37.98046875 -1.37109375 6.47265625 37.37109375 -1.4765625 10.75 46.53125 8.546875 21.390625 44.7109375 9.109375 25.0390625 42.9296875 10.08203125 19.75390625 39.94140625 10.93359375 23.05078125 37.890625 8.8984375 26.94140625 41.171875 7.71875 28.46484375 14.62109375 -11.5 13.74609375 14.3828125 -5.28125 20.48828125 23.796875 -8.66015625 14.1953125 20.87109375 -3.9921875 21.3984375 21.03125 -9.69140625 -0.2109375 25.6484375 -6.6015625 -0.6328125 23.88671875 -9.953125 -9.78125 28.296875 -8.0625 -9.21484375 43.05078125 -0.16796875 29.40625 49.1640625 -1.62109375 31.1328125 45.1640625 -4.46875 26.91015625 47.41796875 -6.734375 27.9140625 26.40625 -7.3671875 14.265625 24.4765625 -3.39453125 21.20703125 28.52734375 11.93359375 21.2421875 20.70703125 12.12890625 18.5859375 31.23828125 14.390625 16.578125 21.44921875 15.11328125 12.92578125 51.640625 -8.6015625 29.609375 50.328125 -6.265625 23.66015625 54.71875 -8.14453125 25.36328125 33.03515625 4.2109375 -21.453125 32.8125 10.6015625 -20.31640625 29.078125 3.06640625 -20.75 28.34375 8.91015625 -19.703125 47.18359375 -4.6015625 22.4609375 49.28125 7.0078125 22.80078125 52.484375 6.203125 23.74609375 48.234375 7.79296875 26.48046875 51.3359375 6.7890625 27.78125 44.5703125 6.546875 29.97265625 47.5 4.890625 30.94921875 39.91796875 -3.64453125 24.76953125 42.40234375 -3.49609375 20.7734375 36.7109375 -2.078125 23.46875 39.22265625 -1.828125 19.70703125 32.609375 -1.12890625 21.85546875 34.74609375 -1.0078125 18.13671875 38.41796875 10.96875 17.48828125 35.52734375 11.94140625 21.26953125 33.3046875 9.51171875 25.16796875 33.92578125 -0.96875 -17.75 29.41015625 -2.265625 -19.07421875 34.15234375 3.22265625 25.91015625 27.6015625 2.234375 23.5390625 29.171875 -1.4765625 22.0546875 25.47265625 2.38671875 23.78515625 19.76953125 3.6015625 22.33984375 20.95703125 14.99609375 -10.52734375 20.95703125 12.75 -15.80859375 30.16796875 14.67578125 -11.48828125 29.08203125 12.20703125 -17.96875 8.84765625 12.20703125 -11.39453125 20.95703125 16.15234375 -6.12890625 8.67578125 13.78515625 12.3828125 20.95703125 16.15234375 8.53125 38.86328125 2.2265625 27.9609375 48.203125 -2.890625 12.96484375 49.7734375 -2.66015625 8.38671875 43.6953125 -0.2421875 11.70703125 44.65234375 -0.20703125 7.62109375 40.0234375 13.5078125 4.19921875 38.671875 14.7734375 8.8671875 38.19921875 12.7421875 13.5703125 8.59375 -4.3828125 19.1640625 0.6875 -2.3203125 15.82421875 7.87890625 6.15625 19.1640625 1.3046875 5.8515625 15.82421875 0.640625 11.47265625 -7.359375 0.94921875 11.44921875 9.328125 27.5703125 8.08203125 23.72265625 30.8671875 16.4375 -0.3046875 30.14453125 15.39453125 -7.48046875 48.55078125 5.1796875 4.890625 44.51953125 5.12890625 15.69921875 31.16796875 15.38671875 10.45703125 30.87890625 16.44140625 3.60546875 7.2578125 -11.109375 12.015625 0.6875 -9.12109375 10.75 0.38671875 -10.2890625 1.37890625 59.08984375 1.046875 30.3828125 59.8671875 1 26.5 60.484375 -2.50390625 30.9375 61.03515625 -2.77734375 27.06640625 56.78125 -3.6796875 32.6171875 55.28125 -0.06640625 32.921875 52.35546875 -6.76171875 31.59375 55.02734375 0.21484375 22.74609375 57.44921875 -4.69921875 24.25 55.33203125 4.625 29.3203125 56.47265625 4.33203125 25.3671875 51.734375 2.640625 32.30859375 49.109375 2.00390625 20.7734375 49.51171875 -2.125 -18.8515625 46.90234375 -1.8359375 -22.453125 10.171875 2.6328125 -24.265625 5.89453125 -5.8359375 -23.125 13.3828125 0.61328125 -27.3359375 9.95703125 -7.57421875 -26.3046875 51.17578125 10.703125 -21.75390625 56.8515625 8.10546875 -24.05859375 52.5546875 8.8125 -17.3984375 57.87109375 6.40625 -19.828125 47.26171875 8.66796875 -25.20703125 52.59375 6.70703125 -27.375 13.1171875 -8.8125 -28.734375 16.36328125 -0.77734375 -29.890625 18.02734375 5.51171875 -23.0546875 19.50390625 3.5703125 -24.49609375 52.84375 -4.671875 -20.24609375 50.1171875 -4.50390625 -23.9140625 18.921875 -13.88671875 -30.9375 23.296875 -13.73046875 -27.6484375 23.82421875 -15.8828125 -34.734375 28.375 -16.06640625 -30.16796875 51.47265625 -0.328125 -27.91796875 63.76953125 2.6171875 -26.859375 60.25390625 1.86328125 -30.1328125 65.60546875 -0.89453125 -27.59765625 61.88671875 -1.546875 -30.22265625 66.1640625 -1.46875 -23.73046875 64.77734375 2.2109375 -22.8828125 43.62109375 3.3984375 18.45703125 60.80859375 -4.18359375 -20.56640625 57.1484375 -6.39453125 -21.83984375 57.89453125 0.078125 -18.75390625 39.7109375 -14.00390625 -34.6328125 39.38671875 -12.21875 -38.734375 35.98828125 -16.89453125 -36.1484375 34.4765625 -16.125 -40.7890625 36.4375 -12.9765625 -30.13671875 31.6796875 -16.671875 -32.45703125 33.8203125 -11.54296875 -27.828125 26.84765625 -8.7265625 -21.01171875 29.40234375 -9.3359375 -25.4609375 20.21875 -13 -22.859375 54.40625 -6.3046875 -25.50390625 18.98046875 -11.61328125 -34.06640625 22.453125 -3.66796875 -35.37890625 15.64453125 -10.203125 -31.40234375 18.8828125 -2.0390625 -32.46484375 38.7890625 -8.77734375 -35.3359375 35.984375 -6.578125 -32.04296875 36.50390625 -6.84375 -38.796875 31.45703125 -3.47265625 -36.44921875 60.59375 5.80859375 -25.578125 61.5625 4.203125 -21.5625 54.9296875 -3.9921875 -28.4140625 24.1171875 -0.00390625 -29.76953125 27.515625 -1.5 -33.234375 56.47265625 4.28515625 -28.85546875 30.07421875 -16.8203125 -38.5546875 28.90234375 -14.53125 -41.13671875 23.046875 -12.98046875 -37.53125 22.23046875 -10.16015625 -15.5078125 26.5234375 -6.015625 -39.05859375 31.95703125 -9.88671875 -41.58203125 47.46484375 10.0078125 -15.31640625 45.45703125 12.2265625 -19.69921875 -3.38671875 7.796875 5.640625 -5.04296875 1.9140625 5.79296875 -3.37890625 7.796875 -4.33984375 -5.0234375 1.9296875 -4.33984375 42.859375 9.59765625 -23.5234375 37.29296875 10.65234375 -21.96484375 39.83984375 12.83984375 -17.6953125 42.5859375 11.6015625 -13.56640625 30.84375 -4.2734375 -27.63671875 27.57421875 -2.07421875 -24.05859375 21.81640625 1.7109375 -27.30078125 -3.33984375 -5.125 5.94921875 -3.31640625 -5.08984375 -4.33984375 27.64453125 -7.37109375 -14.37890625 36.375 -0.88671875 -12.6015625 34.90234375 12.953125 -15.51953125 37.01171875 11.9453125 -11.46875 14.09375 -12.18359375 -26.29296875 70.41015625 -6.57421875 -4.94140625 74.125 -4.40625 -7.6015625 74.171875 -4.421875 -2.421875 38.25390625 4.14453125 -10.02734375 39.86328125 3.84765625 2.9765625 69.55078125 -4.88671875 18.359375 72.203125 -4.88671875 12.24609375 67.74609375 -7.4921875 14.2890625 26.78125 -2.14453125 -21.78125 61.69921875 -5.578125 -28.3671875 59.4453125 -7.16796875 -25.09375 64.4453125 -5.66796875 -24.70703125 56.515625 -8.26953125 28.69921875 61.3515625 -6.3125 27.59375 37.44140625 4.31640625 15.01953125 19.265625 -10.9140625 -9.4375 31.6328125 -3.08203125 17.328125 30.69921875 14.76953125 1.6484375 30.23828125 13.26171875 -9.4375 35.66015625 9.46484375 -9.5703125 36.1015625 -3.18359375 -9.4296875 31.74609375 -4.72265625 -14.171875 0.40625 6.84375 -13 -1.53515625 -0.53125 -13.9453125 6.84375 7.7890625 -16.98046875 -2.98828125 1.78515625 11.05078125 -2.98046875 1.78515625 -9.78125 36.53125 9.12890625 2.65625 35.80078125 9.1875 14.23828125 31.33984375 13.3125 13.44140625 34.14453125 -2.59765625 14.57421875 19.5 9.4140625 -19.578125 22.1953125 5.08984375 -21.80859375 25.9609375 5.05859375 -20.68359375 27.3828125 -2.625 -20.23046875 36.59375 -2.52734375 2 7.5078125 5.234375 -20.765625 58.16015625 -6.84375 31.875 17.51171875 7.4453125 -20.92578125</float_array>
                    <technique_common>
                        <accessor count="327" source="#pointarray0" stride="3">
                            <param name="X" type="float"/>
                            <param name="Y" type="float"/>
                            <param name="Z" type="float"/>
                        </accessor>
                    </technique_common>
                </source>
                <source id="uvs0">
                    <float_array id="uvarray0" count="868">0.6300129890441895 0.406948983669281 0.6032260060310364 0.4068149924278259 0.6383609771728516 0.3829209804534912 0.5954020023345947 0.3827049732208252 0.882652997970581 0.464493989944458 0.8978800177574158 0.464493989944458 0.882652997970581 0.46097302436828613 0.8978800177574158 0.46097302436828613 0.6550880074501038 0.45840901136398315 0.6550880074501038 0.46347397565841675 0.6407899856567383 0.45840901136398315 0.6407899856567383 0.46094197034835815 0.6264910101890564 0.45840901136398315 0.6264910101890564 0.46347397565841675 0.9131079912185669 0.4715350270271301 0.9131079912185669 0.464493989944458 0.8978800177574158 0.46889400482177734 0.882652997970581 0.46889400482177734 0.8674250245094299 0.464493989944458 0.8674250245094299 0.4715350270271301 0.5867739915847778 0.4861760139465332 0.6010720133781433 0.485759973526001 0.5867739915847778 0.4907349944114685 0.6010720133781433 0.4907349944114685 0.5724760293960571 0.4907349944114685 0.5724760293960571 0.485759973526001 0.815650999546051 0.4803360104560852 0.8308780193328857 0.4856169819831848 0.815650999546051 0.47681599855422974 0.8308780193328857 0.47681599855422974 0.8461059927940369 0.47681599855422974 0.8461059927940369 0.4856169819831848 0.8613340258598328 0.47681599855422974 0.8613340258598328 0.4803360104560852 0.5867739915847778 0.48170799016952515 0.6010720133781433 0.48170799016952515 0.5724760293960571 0.48170799016952515 0.6010720133781433 0.4776560068130493 0.5867739915847778 0.4751240015029907 0.5724760293960571 0.4776560068130493 0.8613340258598328 0.4702150225639343 0.8461059927940369 0.4724149703979492 0.5867739915847778 0.473097026348114 0.5867739915847778 0.4665129780769348 0.6010720133781433 0.4705650210380554 0.6010720133781433 0.4665129780769348 0.5724760293960571 0.4665129780769348 0.5724760293960571 0.4705650210380554 0.6010720133781433 0.462460994720459 0.5867739915847778 0.4599289894104004 0.5724760293960571 0.462460994720459 0.815650999546051 0.4702150225639343 0.8308780193328857 0.4724149703979492 0.7825790047645569 0.3749449849128723 0.7948290109634399 0.3689489960670471 0.8209919929504395 0.37308698892593384 0.819832980632782 0.36555302143096924 0.9648820161819458 0.4715350270271301 0.9648820161819458 0.464493989944458 0.9496539831161499 0.46889400482177734 0.9496539831161499 0.464493989944458 0.93442702293396 0.464493989944458 0.93442702293396 0.46889400482177734 0.9191989898681641 0.464493989944458 0.9191989898681641 0.4715350270271301 0.8714330196380615 0.38197600841522217 0.871425986289978 0.3881160020828247 0.8255559802055359 0.3816850185394287 0.8334770202636719 0.38019198179244995 0.6407899856567383 0.48820197582244873 0.6550880074501038 0.4877859950065613 0.6407899856567383 0.49286699295043945 0.6550880074501038 0.49286699295043945 0.6264910101890564 0.49286699295043945 0.6264910101890564 0.4877859950065613 0.8674250245094299 0.48209601640701294 0.882652997970581 0.48913800716400146 0.8674250245094299 0.47857600450515747 0.882652997970581 0.47857600450515747 0.8978800177574158 0.47857600450515747 0.8978800177574158 0.48913800716400146 0.9131079912185669 0.47857600450515747 0.9131079912185669 0.48209601640701294 0.6407899856567383 0.48373401165008545 0.6550880074501038 0.48373401165008545 0.6264910101890564 0.48373401165008545 0.6550880074501038 0.4796820282936096 0.6407899856567383 0.477150022983551 0.6264910101890564 0.4796820282936096 0.882652997970581 0.47417497634887695 0.8978800177574158 0.47417497634887695 0.7878209948539734 0.38263100385665894 0.8038970232009888 0.3875430226325989 0.6407899856567383 0.47411102056503296 0.6407899856567383 0.46752601861953735 0.6550880074501038 0.4715780019760132 0.6550880074501038 0.46752601861953735 0.6264910101890564 0.46752601861953735 0.6264910101890564 0.4715780019760132 0.8358389735221863 0.437296986579895 0.8573150038719177 0.43731701374053955 0.8370199799537659 0.44389599561691284 0.8574000000953674 0.44396501779556274 0.886372983455658 0.43730199337005615 0.907817006111145 0.4371830224990845 0.8870059847831726 0.4435639977455139 0.9072359800338745 0.44295400381088257 0.5534110069274902 0.46549999713897705 0.5391129851341248 0.46549999713897705 0.5534110069274902 0.4614480137825012 0.5391129851341248 0.4589160084724426 0.524815022945404 0.4614480137825012 0.524815022945404 0.46549999713897705 0.929606020450592 0.38889098167419434 0.9660500288009644 0.3883259892463684 0.931693971157074 0.41079801321029663 0.9655799865722656 0.4067729711532593 0.8639199733734131 0.4107769727706909 0.8687949776649475 0.4250919818878174 0.8357269763946533 0.4089009761810303 0.8330399990081787 0.425229012966156 0.7699679732322693 0.46889400482177734 0.7699679732322693 0.475055992603302 0.785194993019104 0.4715350270271301 0.785194993019104 0.475055992603302 0.9306269884109497 0.4248179793357849 0.9643009901046753 0.42907601594924927 0.5240110158920288 0.43390601873397827 0.5317540168762207 0.4093160033226013 0.556164026260376 0.43644702434539795 0.5576210021972656 0.4080290198326111 0.785194993019104 0.4838569760322571 0.8004230260848999 0.475055992603302 0.8004230260848999 0.4838569760322571 0.7165539860725403 0.45358699560165405 0.7089110016822815 0.45292001962661743 0.7198230028152466 0.44679999351501465 0.7136849761009216 0.43551599979400635 0.8004230260848999 0.4715350270271301 0.5534110069274902 0.4695519804954529 0.5534110069274902 0.475629985332489 0.5391129851341248 0.47208499908447266 0.5391129851341248 0.473097026348114 0.524815022945404 0.4695519804954529 0.524815022945404 0.475629985332489 0.785194993019104 0.46625399589538574 0.8004230260848999 0.46625399589538574 0.785194993019104 0.4627329707145691 0.8004230260848999 0.4627329707145691 0.785194993019104 0.4592130184173584 0.8004230260848999 0.4592130184173584 0.5534110069274902 0.4573959708213806 0.5391129851341248 0.4542980194091797 0.524815022945404 0.4573959708213806 0.771291971206665 0.4447169899940491 0.767982006072998 0.4390559792518616 0.7880340218544006 0.4418179988861084 0.7777130007743835 0.4362580180168152 0.9618669748306274 0.44557297229766846 0.9467809796333313 0.4425309896469116 0.9645980000495911 0.4410160183906555 0.9627460241317749 0.436460018157959 0.9688259959220886 0.4292449951171875 0.9700189828872681 0.4066479802131653 0.6701939702033997 0.4071509838104248 0.6943179965019226 0.40727299451828003 0.6738399863243103 0.44050300121307373 0.7039399743080139 0.43701398372650146 0.6744170188903809 0.3831019997596741 0.6501039862632751 0.4070500135421753 0.56038498878479 0.382066011428833 0.5831350088119507 0.40671300888061523 0.7699679732322693 0.4627329707145691 0.8308780193328857 0.4680140018463135 0.8461059927940369 0.4680140018463135 0.8308780193328857 0.46361398696899414 0.8461059927940369 0.46361398696899414 0.8308780193328857 0.46009302139282227 0.8461059927940369 0.46009302139282227 0.6010720133781433 0.4573959708213806 0.5867739915847778 0.4573959708213806 0.5724760293960571 0.4573959708213806 0.9550889730453491 0.38200199604034424 0.9393939971923828 0.366303026676178 0.9550880193710327 0.38348299264907837 0.9393939971923828 0.3677840232849121 0.6561710238456726 0.3594520092010498 0.5799210071563721 0.3599569797515869 0.5150949954986572 0.4490079879760742 0.5129709839820862 0.44248902797698975 0.5221620202064514 0.44851797819137573 0.5176309943199158 0.43313902616500854 0.6231549978256226 0.4436429738998413 0.6559590101242065 0.4403889775276184 0.8613340258598328 0.46361398696899414 0.815650999546051 0.46361398696899414 0.5740119814872742 0.4400479793548584 0.6052780151367188 0.4435669779777527 0.9266030192375183 0.38199299573898315 0.9155160188674927 0.3662949800491333 0.8714410066604614 0.36556899547576904 0.5391129851341248 0.48626601696014404 0.5534110069274902 0.48373401165008545 0.5391129851341248 0.4898120164871216 0.5534110069274902 0.4898120164871216 0.524815022945404 0.4898120164871216 0.524815022945404 0.48373401165008545 0.7699679732322693 0.47857600450515747 0.815650999546051 0.475055992603302 0.815650999546051 0.47857600450515747 0.5391129851341248 0.4796820282936096 0.5534110069274902 0.4796820282936096 0.524815022945404 0.4796820282936096 0.815650999546051 0.46889400482177734 0.93442702293396 0.47417497634887695 0.9496539831161499 0.47417497634887695 0.7155699729919434 0.3791769742965698 0.7002310156822205 0.38328200578689575 0.7155699729919434 0.394228994846344 0.7002310156822205 0.39514100551605225 0.6948059797286987 0.47411102056503296 0.6948059797286987 0.477150022983551 0.6805070042610168 0.4715780019760132 0.6805070042610168 0.4796820282936096 0.7091040015220642 0.4715780019760132 0.7091040015220642 0.4796820282936096 0.7002310156822205 0.40061497688293457 0.7155699729919434 0.40061497688293457 0.7309079766273499 0.38328200578689575 0.7309079766273499 0.39514100551605225 0.93442702293396 0.47857600450515747 0.9496539831161499 0.47857600450515747 0.6876819729804993 0.4060879945755005 0.6695550084114075 0.4060879945755005 0.6876819729804993 0.41247397661209106 0.6695550084114075 0.41247397661209106 0.9648820161819458 0.47857600450515747 0.6948059797286987 0.48820197582244873 0.7091040015220642 0.4877859950065613 0.6948059797286987 0.49286699295043945 0.7091040015220642 0.49286699295043945 0.6805070042610168 0.49286699295043945 0.6805070042610168 0.4877859950065613 0.815650999546051 0.4627329707145691 0.9191989898681641 0.48209601640701294 0.93442702293396 0.48913800716400146 0.9191989898681641 0.47857600450515747 0.6500329971313477 0.4215959906578064 0.6416670083999634 0.42615699768066406 0.6695550084114075 0.4215959906578064 0.6779209971427917 0.42615699768066406 0.6500329971313477 0.417946994304657 0.6695550084114075 0.417946994304657 0.6500329971313477 0.41247397661209106 0.6500329971313477 0.40061497688293457 0.6500329971313477 0.4060879945755005 0.6695550084114075 0.40061497688293457 0.9496539831161499 0.48913800716400146 0.7002310156822205 0.4097369909286499 0.7155699729919434 0.4097369909286499 0.7002310156822205 0.4033510088920593 0.7155699729919434 0.4033510088920593 0.7408130168914795 0.4215959906578064 0.743457019329071 0.41247397661209106 0.7309079766273499 0.4215959906578064 0.7309079766273499 0.41247397661209106 0.6948059797286987 0.48373401165008545 0.6805070042610168 0.48373401165008545 0.9648820161819458 0.48209601640701294 0.7309079766273499 0.4033510088920593 0.7309079766273499 0.4097369909286499 0.7091040015220642 0.48373401165008545 0.6876819729804993 0.4215959906578064 0.7002310156822205 0.4215959906578064 0.7002310156822205 0.41247397661209106 0.6681600213050842 0.3860189914703369 0.6834989786148071 0.38328200578689575 0.7155699729919434 0.41247397661209106 0.7155699729919434 0.4215959906578064 0.6805070042610168 0.46752601861953735 0.6948059797286987 0.46752601861953735 0.8915039896965027 0.35655200481414795 0.8922240138053894 0.3526039719581604 0.8445379734039307 0.35655999183654785 0.844539999961853 0.35263001918792725 0.7091040015220642 0.46752601861953735 0.7091040015220642 0.46347397565841675 0.6948059797286987 0.46094197034835815 0.6805070042610168 0.46347397565841675 0.6319059729576111 0.4060879945755005 0.6319059729576111 0.40061497688293457 0.7309079766273499 0.40061497688293457 0.8929399847984314 0.3566640019416809 0.8445379734039307 0.35670799016952515 0.6319059729576111 0.41247397661209106 0.8075349926948547 0.4070240259170532 0.7972850203514099 0.42536598443984985 0.93442702293396 0.46097302436828613 0.9496539831161499 0.46097302436828613 0.7091040015220642 0.45840901136398315 0.6948059797286987 0.45840901136398315 0.6805070042610168 0.45840901136398315 0.6876819729804993 0.40061497688293457 0.8902660012245178 0.49177801609039307 0.9039710164070129 0.4935380220413208 0.6264910101890564 0.4979320168495178 0.6550880074501038 0.4979320168495178 0.6709750294685364 0.475629985332489 0.6709750294685364 0.46752601861953735 0.7186359763145447 0.475629985332489 0.6709750294685364 0.46549999713897705 0.7186359763145447 0.46752601861953735 0.743457019329071 0.40061497688293457 0.6319059729576111 0.4215959906578064 0.6646199822425842 0.46752601861953735 0.6169589757919312 0.46752601861953735 0.6169589757919312 0.46549999713897705 0.6646199822425842 0.475629985332489 0.6646199822425842 0.48373401165008545 0.6169589757919312 0.475629985332489 0.6169589757919312 0.48373401165008545 0.6646199822425842 0.4877859950065613 0.8674250245094299 0.4625539779663086 0.6106039881706238 0.4644870162010193 0.5724760293960571 0.49681299924850464 0.852196991443634 0.49177801609039307 0.8384919762611389 0.49001801013946533 0.8247870206832886 0.49177801609039307 0.8765619993209839 0.4935380220413208 0.6169589757919312 0.4877859950065613 0.9648820161819458 0.4627060294151306 0.743457019329071 0.4063349962234497 0.6918650269508362 0.38328200578689575 0.7002310156822205 0.42615699768066406 0.7309079766273499 0.42615699768066406 0.6542159914970398 0.394228994846344 0.7186359763145447 0.48373401165008545 0.7186359763145447 0.4877859950065613 0.7091040015220642 0.4979320168495178 0.9191989898681641 0.4626380205154419 0.9420409798622131 0.49177801609039307 0.6709750294685364 0.48373401165008545 0.9283360242843628 0.4935380220413208 0.6709750294685364 0.4877859950065613 0.5629439949989319 0.4796820282936096 0.5629439949989319 0.48373401165008545 0.5152829885482788 0.4796820282936096 0.792809009552002 0.48737698793411255 0.7699679732322693 0.46097302436828613 0.5534110069274902 0.4958900213241577 0.5629439949989319 0.46347397565841675 0.850167989730835 0.39844799041748047 0.5146070122718811 0.4095500111579895 0.5294280052185059 0.3796190023422241 0.9421390295028687 0.43911802768707275 0.6209200024604797 0.456866979598999 0.6142169833183289 0.4436119794845581 0.6564030051231384 0.45759397745132446 0.664900004863739 0.44045400619506836 0.6660829782485962 0.45456600189208984 0.8177610039710999 0.4403979778289795 0.7982569932937622 0.43907397985458374 0.8213440179824829 0.4474160075187683 0.808230996131897 0.44284701347351074 0.6757280230522156 0.4550439715385437 0.8038039803504944 0.36559098958969116 0.8053230047225952 0.36305201053619385 0.7850810289382935 0.3809570074081421 0.9169449806213379 0.35751497745513916 0.8189489841461182 0.3575029969215393 0.6136400103569031 0.45635998249053955 0.5727750062942505 0.45636701583862305 0.5645470023155212 0.4520050287246704 0.5665670037269592 0.4399399757385254 0.607545018196106 0.4556419849395752 0.5552170276641846 0.45303601026535034 0.9293869733810425 0.44336998462677 0.9223020076751709 0.44054198265075684 0.9557459950447083 0.4935380220413208 0.6927340030670166 0.45448899269104004 0.550233006477356 0.3608279824256897 0.5968499779701233 0.3475779891014099 0.9199730157852173 0.4469969868659973 0.7140300273895264 0.40810102224349976 0.7208870053291321 0.40850400924682617 0.7214040160179138 0.4307199716567993 0.815650999546051 0.46097302436828613 0.5629439949989319 0.46549999713897705 0.5152829885482788 0.46347397565841675 0.6819390058517456 0.35890400409698486 0.7782689929008484 0.4259840250015259 0.762499988079071 0.4275779724121094 0.6137819886207581 0.46296799182891846 0.5629439949989319 0.459089994430542 0.7859990000724792 0.4057270288467407 0.7632129788398743 0.4048740267753601 0.6424639821052551 0.3478339910507202 0.5407940149307251 0.45138901472091675 0.589684009552002 0.4590659737586975 0.8740010261535645 0.44049400091171265 0.8735730051994324 0.44771498441696167 0.6386989951133728 0.4602530002593994 0.6999769806861877 0.3774759769439697 0.6805070042610168 0.4979320168495178 0.7186359763145447 0.46549999713897705 0.7692139744758606 0.3770869970321655 0.7658720016479492 0.38319700956344604 0.752236008644104 0.3837429881095886 0.6677979826927185 0.46161001920700073 0.6010720133781433 0.49681299924850464 0.6106039881706238 0.4665129780769348 0.6106039881706238 0.48170799016952515 0.5629439949989319 0.485759973526001 0.5629439949989319 0.48170799016952515 0.5629439949989319 0.4665129780769348 0.524815022945404 0.4958900213241577 0.5152829885482788 0.48373401165008545 0.8065140247344971 0.48913800716400146 0.7791039943695068 0.48913800716400146 0.5629439949989319 0.47259098291397095 0.5152829885482788 0.47259098291397095 0.5152829885482788 0.46549999713897705 0.6106039881706238 0.485759973526001 0.6106039881706238 0.47411102056503296 0.5629439949989319 0.47411102056503296 0.8613340258598328 0.46185302734375 0.5629439949989319 0.4644870162010193 0.6646199822425842 0.46549999713897705 0.9131079912185669 0.46262097358703613 0.815650999546051 0.46185302734375 0.5107830166816711 0.4332280158996582 0.7650780081748962 0.3973590135574341 0.7741469740867615 0.38757097721099854 0.7166540026664734 0.3828880190849304</float_array>
                    <technique_common>
                        <accessor count="434" source="#uvarray0" stride="2">
                            <param name="S" type="float"/>
                            <param name="T" type="float"/>
                        </accessor>
                    </technique_common>
                </source>
                <vertices id="vertices0">
                    <input semantic="POSITION" source="#points0"/>
                </vertices>
                <polylist count="650" material="Material1">
                    <input offset="0" semantic="VERTEX" source="#vertices0"/>
                    <input offset="1" semantic="TEXCOORD" source="#uvs0" set="0"/>
                    <vcount>3 3 3 3 3 3 3 3 3 3 3 3 3 3 3 3 3 3 3 3 3 3 3 3 3 3 3 3 3 3 3 3 3 3 3 3 3 3 3 3 3 3 3 3 3 3 3 3 3 3 3 3 3 3 3 3 3 3 3 3 3 3 3 3 3 3 3 3 3 3 3 3 3 3 3 3 3 3 3 3 3 3 3 3 3 3 3 3 3 3 3 3 3 3 3 3 3 3 3 3 3 3 3 3 3 3 3 3 3 3 3 3 3 3 3 3 3 3 3 3 3 3 3 3 3 3 3 3 3 3 3 3 3 3 3 3 3 3 3 3 3 3 3 3 3 3 3 3 3 3 3 3 3 3 3 3 3 3 3 3 3 3 3 3 3 3 3 3 3 3 3 3 3 3 3 3 3 3 3 3 3 3 3 3 3 3 3 3 3 3 3 3 3 3 3 3 3 3 3 3 3 3 3 3 3 3 3 3 3 3 3 3 3 3 3 3 3 3 3 3 3 3 3 3 3 3 3 3 3 3 3 3 3 3 3 3 3 3 3 3 3 3 3 3 3 3 3 3 3 3 3 3 3 3 3 3 3 3 3 3 3 3 3 3 3 3 3 3 3 3 3 3 3 3 3 3 3 3 3 3 3 3 3 3 3 3 3 3 3 3 3 3 3 3 3 3 3 3 3 3 3 3 3 3 3 3 3 3 3 3 3 3 3 3 3 3 3 3 3 3 3 3 3 3 3 3 3 3 3 3 3 3 3 3 3 3 3 3 3 3 3 3 3 3 3 3 3 3 3 3 3 3 3 3 3 3 3 3 3 3 3 3 3 3 3 3 3 3 3 3 3 3 3 3 3 3 3 3 3 3 3 3 3 3 3 3 3 3 3 3 3 3 3 3 3 3 3 3 3 3 3 3 3 3 3 3 3 3 3 3 3 3 3 3 3 3 3 3 3 3 3 3 3 3 3 3 3 3 3 3 3 3 3 3 3 3 3 3 3 3 3 3 3 3 3 3 3 3 3 3 3 3 3 3 3 3 3 3 3 3 3 3 3 3 3 3 3 3 3 3 3 3 3 3 3 3 3 3 3 3 3 3 3 3 3 3 3 3 3 3 3 3 3 3 3 3 3 3 3 3 3 3 3 3 3 3 3 3 3 3 3 3 3 3 3 3 3 3 3 3 3 3 3 3 3 3 3 3 3 3 3 3 3 3 3 3 3 3 3 3 3 3 3 3 3 3 3 3 3 3 3 3 3 3 3 3 3 3 3 3 3 3 3 3 3 3 3 3 3 3 3 3 3 3 3 3 3 3 3 3 3 3 3 3 3 3 3 3 3 3 3 3 3 3 3 3 3 3 3 3 3 3 3 3 3 3 3 3 3 3 3 3 3 3 3 3 3 3 3 3 3 3 3 3 3 3 3 3 3 3 3 3 3 3 3 3 3 3 3 3 3 3 3 3 3 3 3 3 3 3</vcount>
                    <p>2 2 1 1 0 0 3 3 1 1 2 2 6 6 5 5 4 4 7 7 5 5 6 6 10 10 9 9 8 8 11 11 9 9 10 10 12 12 11 11 10 10 13 13 11 11 12 12 16 16 15 15 14 14 5 5 15 15 16 16 5 5 17 17 4 4 16 16 17 17 5 5 4 4 19 19 18 18 17 17 19 19 4 4 22 22 21 21 20 20 23 23 21 21 22 22 22 22 25 25 24 24 20 20 25 25 22 22 28 28 27 27 26 26 29 29 27 27 28 28 32 32 31 31 30 30 33 33 31 31 32 32 21 21 34 34 20 20 35 35 34 34 21 21 25 25 34 34 36 36 20 20 34 34 25 25 37 37 34 34 35 35 38 38 34 34 37 37 39 39 34 34 38 38 36 36 34 34 39 39 32 32 41 41 40 40 30 30 41 41 32 32 44 44 43 43 42 42 45 45 43 43 44 44 47 47 43 43 46 46 42 42 43 43 47 47 48 48 43 43 45 45 49 49 43 43 48 48 50 50 43 43 49 49 46 46 43 43 50 50 52 52 28 28 51 51 29 29 28 28 52 52 30 30 27 27 29 29 31 31 27 27 30 30 52 52 30 30 29 29 41 41 30 30 52 52 42 42 37 37 44 44 38 38 37 37 42 42 47 47 38 38 42 42 39 39 38 38 47 47 55 55 54 54 53 53 56 56 54 54 55 55 59 59 58 58 57 57 60 60 58 58 59 59 60 60 62 62 61 61 59 59 62 62 60 60 61 61 64 64 63 63 62 62 64 64 61 61 67 67 66 66 65 65 68 68 66 66 67 67 71 71 70 70 69 69 72 72 70 70 71 71 71 71 74 74 73 73 69 69 74 74 71 71 77 77 76 76 75 75 78 78 76 76 77 77 81 81 80 80 79 79 82 82 80 80 81 81 70 70 83 83 69 69 84 84 83 83 70 70 74 74 83 83 85 85 69 69 83 83 74 74 86 86 83 83 84 84 87 87 83 83 86 86 88 88 83 83 87 87 85 85 83 83 88 88 16 16 89 89 17 17 90 90 89 89 16 16 81 81 90 90 14 14 79 79 90 90 81 81 92 92 67 67 91 91 68 68 67 67 92 92 95 95 94 94 93 93 96 96 94 94 95 95 98 98 94 94 97 97 93 93 94 94 98 98 9 9 94 94 96 96 11 11 94 94 9 9 13 13 94 94 11 11 97 97 94 94 13 13 89 89 77 77 19 19 78 78 77 77 89 89 91 91 55 55 53 53 67 67 55 55 91 91 79 79 76 76 78 78 80 80 76 76 79 79 7 101 100 100 99 99 6 102 100 100 7 101 89 89 79 79 78 78 90 90 79 79 89 89 93 93 86 86 95 95 87 87 86 86 93 93 98 98 87 87 93 93 88 88 87 87 98 98 103 105 102 104 101 103 104 106 102 104 103 105 107 109 106 108 105 107 108 110 106 108 107 109 109 111 106 108 108 110 110 112 106 108 109 111 113 115 112 114 111 113 114 116 112 114 113 115 117 119 116 118 115 117 118 120 116 118 117 119 121 123 120 122 119 121 122 124 120 122 121 123 113 115 116 118 123 125 115 117 116 118 113 115 114 116 123 125 124 126 113 115 123 125 114 116 127 129 126 128 125 127 128 130 126 128 127 129 130 132 129 131 122 124 131 133 129 131 130 132 134 136 133 135 132 134 135 137 133 135 134 136 121 123 130 132 122 124 136 138 130 132 121 123 139 141 138 140 137 139 140 142 138 140 139 141 141 143 140 142 139 141 142 144 140 142 141 143 144 146 121 123 143 145 136 138 121 123 144 146 147 149 146 148 145 147 148 150 146 148 147 149 150 152 107 109 149 151 108 110 107 109 150 152 151 153 108 110 150 152 109 111 108 110 151 153 152 156 134 155 132 154 153 157 134 155 152 156 155 160 147 159 154 158 156 161 147 159 155 160 156 161 157 162 124 126 155 160 157 162 156 161 158 163 124 126 157 162 114 116 124 126 158 163 161 166 160 165 159 164 162 167 160 165 161 166 164 169 163 168 2 2 159 164 163 168 164 169 166 171 165 170 128 130 3 3 165 170 166 171 145 147 119 121 167 172 143 145 119 121 145 147 146 148 143 145 145 147 144 146 143 145 146 148 169 174 52 52 168 173 41 41 52 52 169 174 104 177 171 176 170 175 103 178 171 176 104 177 173 180 48 48 172 179 49 49 48 48 173 180 174 181 49 49 173 180 50 50 49 49 174 181 177 184 176 183 175 182 178 185 176 183 177 184 179 186 3 3 2 2 180 187 3 3 179 186 151 190 155 189 154 188 181 191 155 189 151 190 182 192 164 169 0 0 183 193 164 169 182 192 169 174 184 194 40 40 171 176 184 194 169 174 171 176 168 173 170 175 169 174 168 173 171 176 170 175 51 51 185 195 168 173 51 51 170 175 187 197 166 171 186 196 1 1 166 171 187 197 189 199 65 65 188 198 190 200 65 65 189 199 176 183 188 198 175 182 189 199 188 198 176 183 193 203 192 202 191 201 194 204 192 202 193 203 193 203 196 206 195 205 191 201 196 206 193 203 120 122 129 131 197 207 122 124 129 131 120 122 198 208 131 133 130 132 199 209 131 133 198 208 192 202 200 210 191 201 201 211 200 210 192 202 196 206 200 210 202 212 191 201 200 210 196 206 138 140 200 210 201 211 140 142 200 210 138 140 142 144 200 210 140 142 202 212 200 210 142 144 198 208 136 138 203 213 130 132 136 138 198 208 188 198 66 66 111 113 65 65 66 66 188 198 175 182 111 113 112 114 188 198 111 113 175 182 137 139 106 108 139 141 105 107 106 108 137 139 141 143 106 108 110 112 139 141 106 108 141 143 59 59 204 214 62 62 205 215 204 214 59 59 208 218 207 217 206 216 209 219 207 217 208 218 212 222 211 221 210 220 213 223 211 221 212 222 210 220 215 225 214 224 211 221 215 225 210 220 208 218 216 226 209 219 217 227 216 226 208 218 219 229 206 216 218 228 208 218 206 216 219 229 204 214 221 231 220 230 205 215 221 231 204 214 224 234 223 233 222 232 225 235 223 233 224 234 226 236 205 215 57 57 221 231 205 215 226 236 229 239 228 238 227 237 230 240 228 238 229 239 229 239 232 242 231 241 227 237 232 242 229 239 144 146 233 243 203 213 146 148 233 243 144 146 236 246 235 245 234 244 220 230 235 245 236 246 239 249 238 248 237 247 240 250 238 248 239 249 242 252 237 247 241 251 239 249 237 247 242 252 225 235 241 251 243 253 242 252 241 251 225 235 246 256 245 255 244 254 223 233 245 255 246 256 221 231 235 245 220 230 247 257 235 245 221 231 223 233 243 253 245 255 225 235 243 253 223 233 250 260 249 259 248 258 251 261 249 259 250 260 254 264 253 263 252 262 255 265 253 263 254 264 213 223 256 266 211 221 257 267 256 266 213 223 204 214 236 246 64 64 220 230 236 246 204 214 226 236 247 257 221 231 258 268 247 257 226 236 259 269 249 259 251 261 260 270 249 259 259 269 228 238 256 266 227 237 261 271 256 266 228 238 232 242 256 266 257 267 227 237 256 266 232 242 215 225 256 266 261 271 211 221 256 266 215 225 224 234 263 273 262 272 264 274 263 273 224 234 265 275 246 256 244 254 92 276 246 256 265 275 255 265 267 278 266 277 254 264 267 278 255 265 260 270 266 277 249 259 255 265 266 277 260 270 212 222 269 280 268 279 210 220 269 280 212 222 272 283 271 282 270 281 273 284 271 282 272 283 275 286 269 280 274 285 276 287 269 280 275 286 277 288 269 280 276 287 268 279 269 280 277 288 279 290 245 255 278 289 244 254 245 255 279 290 259 269 217 227 280 291 251 261 217 227 259 269 219 229 217 227 208 218 280 291 217 227 219 229 273 284 281 292 271 282 282 293 281 292 273 284 245 255 253 294 278 289 243 253 253 294 245 255 283 296 117 119 265 295 118 120 117 119 283 296 250 260 217 227 251 261 216 226 217 227 250 260 214 224 269 280 210 220 274 285 269 280 214 224 284 297 60 60 61 61 152 298 60 60 284 297 285 300 275 286 133 299 276 287 275 286 285 300 286 301 276 287 285 300 277 288 276 287 286 301 223 233 287 302 222 232 246 256 287 302 223 233 123 125 101 103 102 104 116 118 101 103 123 125 116 118 99 99 100 100 118 120 99 99 116 118 248 258 266 277 264 274 249 259 266 277 248 258 266 277 263 273 264 274 267 278 263 273 266 277 80 80 289 304 288 303 289 306 71 71 290 305 212 222 63 308 64 307 57 309 214 224 215 225 212 222 268 279 63 308 277 288 291 310 63 308 58 311 275 286 274 285 259 269 280 291 279 312 237 247 238 248 252 313 255 265 260 270 253 263 224 234 222 232 248 258 15 314 9 9 96 96 13 13 292 316 18 315 98 98 97 97 18 315 86 86 81 318 14 317 98 98 18 315 19 319 81 318 86 86 84 84 88 88 19 319 77 320 82 321 81 318 70 70 74 74 85 85 77 320 80 80 288 303 76 76 18 18 292 322 6 6 81 318 84 84 70 70 15 314 96 96 95 95 292 323 172 179 48 48 293 324 22 22 24 24 293 327 295 326 294 325 89 89 19 19 17 17 72 72 289 306 82 321 76 76 290 328 75 75 73 73 74 74 75 329 286 301 291 310 277 288 58 58 152 298 132 330 61 61 63 63 284 297 287 302 250 260 222 232 248 258 222 232 250 260 260 270 259 269 278 331 219 229 279 312 280 291 207 217 287 302 91 332 263 273 240 333 262 272 238 334 267 278 254 264 264 274 224 234 248 258 239 249 262 272 240 250 250 260 287 302 216 226 203 213 136 138 144 146 121 123 119 121 143 145 259 269 279 312 278 331 260 270 278 331 253 263 238 334 240 333 267 278 244 254 296 335 265 275 263 273 267 278 240 333 242 252 262 272 239 249 287 302 209 219 216 226 238 334 254 264 252 262 252 313 241 251 237 247 226 336 215 225 261 271 230 240 258 337 228 238 204 214 64 64 62 62 57 57 205 215 59 59 58 58 60 60 152 298 230 240 229 239 297 338 63 63 291 339 284 297 247 257 298 340 235 245 232 242 257 267 236 341 258 337 226 336 228 238 213 223 64 307 236 341 72 72 71 71 289 306 15 15 5 5 7 7 14 14 90 90 16 16 235 245 299 342 234 244 231 241 232 242 234 343 91 332 246 256 92 276 91 332 287 302 246 256 287 302 207 217 209 219 296 335 279 290 219 229 296 335 244 254 279 290 296 335 219 229 218 228 252 313 253 294 241 251 242 252 224 234 262 272 242 252 225 235 224 234 253 294 243 253 241 251 199 345 198 344 192 202 196 206 202 212 120 346 131 133 300 347 129 131 167 172 154 348 147 149 194 204 193 203 301 349 302 350 149 151 107 109 146 148 148 150 233 243 99 99 118 120 283 296 125 127 126 128 181 191 68 68 92 92 303 351 126 128 177 353 158 352 102 104 304 354 123 125 2 2 0 0 164 169 165 170 126 128 128 130 166 171 1 1 3 3 305 356 12 355 182 192 307 359 306 358 8 357 7 101 99 99 308 360 99 99 309 361 308 360 291 362 7 101 308 360 308 360 309 361 284 363 306 358 286 364 161 166 159 164 164 169 306 358 305 356 1 1 187 197 312 367 311 366 310 365 178 185 270 281 313 368 311 366 314 369 310 365 305 356 315 370 12 355 317 373 316 372 174 371 286 364 306 358 307 359 305 356 187 197 172 374 0 0 1 1 305 356 166 171 128 130 317 373 127 129 149 375 317 373 304 354 318 377 148 376 178 185 313 368 176 183 247 257 297 378 298 340 159 164 306 358 161 166 304 354 148 376 147 159 153 157 152 156 309 361 183 193 306 358 164 169 127 129 317 373 128 130 161 166 285 379 162 167 270 381 178 380 180 187 313 368 281 292 176 183 158 163 112 114 114 116 302 382 148 376 318 377 104 106 302 382 318 377 190 200 282 293 56 56 281 292 190 200 189 199 270 281 271 282 313 368 190 200 281 292 282 293 162 167 285 379 133 135 159 164 160 165 163 168 273 284 272 283 314 369 321 385 320 384 319 383 145 147 167 172 147 149 148 150 302 386 233 243 233 387 302 350 107 109 151 153 154 388 109 111 163 168 310 389 179 186 177 353 126 128 165 170 181 191 151 190 125 127 321 391 153 157 322 390 303 351 265 295 117 119 321 391 134 155 153 157 135 137 319 383 160 165 124 126 304 354 156 161 172 374 292 392 315 370 302 393 174 371 316 372 92 92 265 295 303 351 68 68 303 351 66 66 302 393 316 372 149 375 311 366 54 54 56 56 113 115 66 66 115 117 322 390 296 394 321 391 296 394 320 395 321 391 315 370 292 392 12 355 270 381 179 186 272 396 156 161 304 354 147 159 111 113 66 66 113 115 127 129 125 127 150 397 150 397 149 375 127 129 186 196 317 373 174 371 315 370 305 356 172 374 165 170 180 187 178 380 174 371 173 398 186 196 318 377 102 104 104 106 318 377 304 354 102 104 165 170 3 3 180 187 101 103 323 399 103 105 6 102 292 400 323 399 163 168 179 186 2 2 101 103 100 100 323 399 182 192 12 355 10 401 312 402 310 389 163 168 65 65 190 200 55 55 8 357 183 193 10 401 162 167 135 137 160 165 297 338 229 239 299 403 58 311 132 404 275 286 58 311 274 285 214 224 226 336 261 271 228 238 232 242 236 341 234 343 257 267 213 223 236 341 268 279 277 288 63 308 299 342 298 340 297 378 299 403 229 239 231 241 132 404 133 299 275 286 230 240 297 338 258 337 234 343 299 403 231 241 247 257 258 268 297 378 235 245 298 340 299 342 58 311 214 224 57 309 215 225 226 336 57 309 213 223 212 222 64 307 161 166 286 364 285 379 284 363 291 362 308 360 323 399 100 100 6 102 124 126 123 125 304 354 153 157 309 361 283 296 116 118 100 100 101 103 309 361 99 99 283 296 324 405 53 53 54 54 324 405 206 407 207 406 307 359 8 357 291 408 55 55 67 67 65 65 303 351 117 119 115 117 265 295 296 394 322 390 307 359 291 408 286 364 294 409 22 22 293 324 184 410 45 45 44 44 32 411 35 35 21 21 25 25 28 413 26 412 36 36 39 39 28 413 46 46 50 50 185 414 194 204 301 349 199 345 197 416 325 415 195 205 131 133 199 209 301 417 129 131 300 347 325 418 233 387 137 139 203 419 203 419 137 139 138 140 141 143 167 421 119 420 23 23 294 409 33 422 26 412 293 324 24 24 31 31 33 33 294 325 27 27 295 326 293 327 184 410 44 44 40 423 37 37 32 411 40 423 39 39 47 47 51 424 170 175 185 195 104 177 103 178 292 425 184 194 184 410 292 323 48 48 174 181 302 426 50 50 195 205 196 206 197 416 129 131 325 418 197 207 194 204 199 345 192 202 12 12 292 316 13 13 24 24 25 25 26 412 27 27 293 327 26 26 74 74 77 320 75 329 85 85 88 88 77 320 97 97 13 13 18 315 290 328 288 303 289 304 290 305 71 71 73 73 291 427 8 8 9 9 72 72 82 321 70 70 75 329 290 305 73 73 80 80 82 82 289 304 76 76 288 303 290 328 15 314 95 95 14 317 14 317 95 95 86 86 88 88 98 98 19 319 4 4 18 18 6 6 15 15 7 7 291 428 15 314 291 427 9 9 40 40 41 41 169 174 171 176 103 178 184 194 23 23 22 22 294 409 185 195 302 429 104 177 31 31 295 326 27 27 25 25 36 36 28 413 33 422 32 411 21 21 39 39 51 424 28 413 32 411 37 37 35 35 47 47 185 414 51 424 40 423 44 44 37 37 47 47 46 46 185 414 50 50 302 426 185 414 184 410 48 48 45 45 31 31 294 325 295 326 282 293 314 369 311 366 312 402 163 168 160 165 165 170 178 380 177 353 313 368 271 282 281 292 56 56 55 55 190 200 272 283 310 365 314 369 282 293 273 284 314 369 306 358 183 193 8 357 151 190 150 397 125 127 135 137 162 167 133 135 157 430 155 189 181 191 152 156 284 363 309 361 158 352 181 191 126 128 324 405 54 54 312 367 54 54 311 366 312 367 103 105 323 399 292 400 160 165 319 383 312 402 158 163 177 184 112 114 316 372 317 373 149 375 173 398 187 197 186 196 172 374 187 197 173 398 112 114 177 184 175 182 183 193 182 192 10 401 320 395 296 394 218 431 158 352 157 430 181 191 324 405 218 431 206 407 324 405 207 406 53 53 135 137 134 136 321 385 282 293 311 366 56 56 166 171 317 373 186 196 0 0 305 356 182 192 23 23 33 422 21 21 52 52 51 51 168 173 142 144 119 420 120 346 198 344 138 140 201 211 142 144 141 143 119 420 138 140 198 344 203 419 141 143 110 112 167 421 109 111 154 388 167 421 233 387 107 109 105 107 131 133 301 417 300 347 301 349 193 203 325 415 233 387 105 107 137 139 198 344 201 211 192 202 196 206 120 346 197 416 202 212 142 144 120 346 110 112 109 111 167 421 325 418 300 347 301 417 325 415 193 203 195 205 91 91 53 53 207 406 153 157 283 296 322 390 66 66 303 351 115 117 265 295 322 390 283 296 324 405 312 367 326 432 218 431 324 405 326 432 319 383 320 384 326 433 135 137 321 385 319 383 319 383 326 433 312 402 320 395 218 431 326 432 180 187 179 186 270 381 272 396 179 186 310 389 176 183 281 292 189 199</p>
                </polylist>
            </mesh>
        </geometry>
    </library_geometries>
    <library_visual_scenes>
        <visual_scene id="VisualSceneNode">
            <node id="node0" name="m0" type="NODE">
                <instance_geometry url="#mesh0">
                    <bind_material>
                        <technique_common>
                            <instance_material symbol="Material1" target="#mat0">
                                <bind_vertex_input semantic="UVSET0" input_semantic="TEXCOORD" input_set="0"></bind_vertex_input>
                            </instance_material>
                        </technique_common>
                    </bind_material>
                </instance_geometry>
            </node>
        </visual_scene>
    </library_visual_scenes>
    <scene>
        <instance_visual_scene url="#VisualSceneNode"></instance_visual_scene>
    </scene>
</COLLADA>
