<?xml version="1.0"?>
<COLLADA xmlns="http://www.collada.org/2005/11/COLLADASchema" version="1.4.1">
    <asset>
        <contributor>
            <authoring_tool>J3D Ripoff Exporter</authoring_tool>
        </contributor>
        <created>2024-08-02T13:58:39.964Z</created>
        <modified>2024-08-02T13:58:39.964Z</modified>
		<unit meter="0.01" name="centimeter" ></unit>
        <up_axis>Y_UP</up_axis>
    </asset>
    <library_images>
        <image id="tex0">
            <init_from>donkey_all.png</init_from>
        </image>
    </library_images>
    <library_effects>
        <effect id="effect0">
            <profile_COMMON>
                <newparam sid="surface0">
                    <surface type="2D">
                        <init_from>tex0</init_from>
                    </surface>
                </newparam>
                <newparam sid="sampler0">
                    <sampler2D>
                        <source>surface0</source>
                    </sampler2D>
                </newparam>
                <technique sid="COMMON">
                    <blinn>
                        <diffuse>
                            <texture texture="sampler0" texcoord="UVSET0"></texture>
                        </diffuse>
                    </blinn>
                </technique>
            </profile_COMMON>
        </effect>
    </library_effects>
    <library_materials>
        <material id="mat0" name="donkey_All">
            <instance_effect url="#effect0"></instance_effect>
        </material>
    </library_materials>
    <library_geometries>
        <geometry id="mesh0">
            <mesh>
                <source id="points0">
                    <float_array id="pointarray0" count="981">7.234375 -4.9921875 19.1953125 0.66796875 -2.3203125 15.8515625 7.85546875 6.15625 19.1953125 1.28515625 5.8515625 15.8515625 67.21484375 -5.29296875 -8.7265625 68.69140625 -4.71875 -3.8359375 63.73046875 -1.51171875 -8.796875 65.78125 -0.09765625 -4.0546875 64.4296875 -1.4296875 0.625 67.23828125 -5.65625 0.33984375 52.34765625 -3.30078125 -19.0859375 51.08984375 -7.30078125 -15.48828125 57.37890625 -7.8046875 -18.61328125 52.53515625 -10.47265625 -15.13671875 63.7109375 0.3828125 -14.09375 66.44921875 -2.5546875 -13.90234375 61.609375 -0.31640625 -9.8515625 64.49609375 -3.4296875 -9.44921875 64.21875 -3.7109375 -17.89453125 61.265625 -0.8203125 -18.41796875 66.8984375 -6.8671875 -9.203125 68.49609375 -7.26953125 -13.578125 66.4140625 -7.21484375 -17.19921875 46.23828125 1.10546875 11.4765625 52.6953125 -0.8125 11.23828125 43.26171875 -3.92578125 8.34765625 46.046875 -6.2109375 7.921875 43.2734375 -3.94921875 4.11328125 45.921875 -6.0859375 3.84375 51.81640625 -0.50390625 0.109375 45.31640625 2.4375 0.44921875 55.75 -13.4453125 -14.9453125 58.984375 -11.953125 -17.69921875 59.57421875 -11.5390625 -7.89453125 56.09375 -13.15234375 -9.5546875 59.00390625 -5.19140625 -8.19140625 52.86328125 -10.203125 -9.94140625 66.8828125 -10.79296875 -9.1875 68.87109375 -11.109375 -13.31640625 66.4296875 -11.125 -16.625 56.890625 -2.578125 -9.8125 52.58984375 -8.07421875 -6.4296875 62.28515625 -7.81640625 -7.9765625 53.296875 -10.55078125 -6.54296875 31.1875 -6.421875 -0.890625 31.28515625 -7.8515625 -6.78125 25.328125 -9.30859375 -0.5859375 25.40234375 -11.07421875 -9.16796875 59.2265625 5.5 -3.8828125 52.3359375 9.34765625 -3.8046875 58.58203125 3.8671875 -8.62890625 51.765625 8.12890625 -8.36328125 51.91796875 7.93359375 0.70703125 58.61328125 3.55078125 0.76953125 50.0703125 6.0234375 -19.04296875 51.4765625 7.4921875 -14.69921875 44.70703125 8.2890625 -19.0546875 45.1875 10.3984375 -14.8125 7.24609375 -11.109375 12.046875 0.67578125 -9.12109375 10.77734375 7.2578125 -10.58203125 1.41015625 0.38671875 -10.2890625 1.40234375 42.99609375 9.6875 16.0546875 48.06640625 7.3125 15.6875 42.21875 7.56640625 19.71484375 47.7734375 5.1015625 19.3515625 47.44921875 5.9140625 11.84375 42.0703125 8.765625 12.23046875 29.078125 15.38671875 10.50390625 20.9453125 16.15234375 8.5703125 29.77734375 16.4453125 3.65234375 20.94921875 16.6796875 4.171875 20.95703125 16.6796875 -1.6875 20.9609375 16.15234375 -6.0859375 29.77734375 16.44140625 -0.2578125 29.73828125 15.3984375 -7.43359375 36.078125 2.37109375 20.6640625 30.203125 0.3515625 21.2421875 38.3046875 8.92578125 19.80859375 29.21875 7.078125 21.01171875 52.98828125 2.3984375 18.90625 53.4921875 4.3828125 15.22265625 52.3671875 2.61328125 11.25390625 50.29296875 6.67578125 -10.0078125 56.99609375 3.0859375 -9.96875 59.08203125 4.05859375 -14.45703125 57.03125 1.9609375 -18.7265625 49.8828125 -3.44140625 10.73046875 48.6953125 -7.1328125 13.01953125 53.9609375 -4.94921875 9.94921875 50.1796875 -10.4765625 12.52734375 8.8515625 14.87890625 -3.46484375 8.83984375 14.87890625 5.93359375 0.6484375 11.47265625 -7.33203125 0.9375 11.44921875 9.35546875 57.4609375 1.25390625 14.69921875 59.78515625 -1.99609375 14.28125 56.1953125 0.07421875 18.5078125 59.05078125 -3.140625 18.0546875 58.04296875 -2.44140625 10.703125 55.32421875 0.50390625 10.88671875 60.46875 -6.9609375 17.19140625 61.34765625 -6.0234375 13.8515625 59.578125 -5.84375 10.71484375 53.234375 -12.70703125 12.01171875 54.99609375 -11.12890625 9.921875 61.73046875 -10.65625 13.48046875 59.734375 -10.6015625 10.9453125 56.02734375 -11.60546875 17.828125 53.625 -12.9453125 16.00390625 54.86328125 -6.13671875 18.85546875 50.5703125 -10.71484375 16.51953125 60.36328125 -10.86328125 16.35546875 63.2421875 -4.3515625 9.27734375 64.88671875 -3.1015625 4.96484375 65.25390625 -9.15625 8.38671875 66.6328125 -9.18359375 4.421875 31.171875 -6.37890625 4.609375 31.11328125 -6.2734375 9.16796875 37.8828125 -2.84375 4.74609375 37.72265625 -3.00390625 9.05078125 53.3046875 -10.71875 -1.6875 52.6171875 -8.1796875 -1.87890625 38.84375 -3.796875 -6.6328125 38.9453125 -3.83984375 -0.8671875 62.421875 -3.99609375 0.8359375 60.05859375 0.3671875 1.3046875 61.88671875 1.7265625 5.4453125 51.34375 -10.28515625 7.4453125 53.44921875 -13.09375 7.3828125 50.96484375 -10.1015625 3.44140625 53.0859375 -12.91796875 3.16015625 -5.046875 1.9140625 5.81640625 -3.34765625 -5.125 5.97265625 -5.01953125 1.9296875 -4.31640625 -3.30859375 -5.08984375 -4.31640625 1.80859375 -6.8125 -20.203125 3.5546875 -10.1328125 -9.796875 7.0078125 -11.05859375 -23.06640625 7.36328125 -13.16015625 -10.8203125 58.546875 -4.609375 10.3203125 50.2890625 -7.63671875 7.51171875 60.66796875 0.1015625 9.73828125 50.51953125 -6.89453125 -1.75390625 50.4609375 -6.8203125 -6.46875 14.0859375 -15.15234375 -19.53125 14.0234375 -15.1953125 -10.70703125 44.5234375 11.65234375 6.5390625 48.77734375 9.86328125 6.359375 43.70703125 10.8984375 10.8828125 48.1171875 8.4296875 10.68359375 47.84375 8.703125 2.078125 44.0390625 10.609375 2.23046875 14.3046875 -12.3046875 1.4140625 55.13671875 4.7421875 10.21875 56.3203125 6.171875 5.953125 54.8359375 4.94140625 1.7734375 0.3359375 -3.265625 -17.3984375 0.40234375 -9.12109375 -9.56640625 50 -7.48046875 3.58984375 57.84375 -5.51171875 0.03125 45.46484375 10.7890625 -8.55078125 46.19921875 11.61328125 -3.8359375 22.42578125 -12.62109375 -15.921875 23.90234375 -12.19921875 -9.73828125 24.7578125 -9.94140625 -14.3359375 45.83984375 10.66015625 0.59765625 40.6171875 14.18359375 -3.68359375 40.78125 12.26171875 0.90625 40.14453125 12.6875 -8.31640625 56.93359375 -2.94921875 1.33984375 61.7578125 -9.0234375 1.23046875 45.3984375 -4.671875 -1.6640625 45.16796875 -4.64453125 -6.25 64.4296875 -8.890625 0.96484375 65.91796875 -13.875 4.4453125 63.65234375 -13.140625 1.59375 40.453125 13.89453125 6.625 40.3125 12.1796875 10.9609375 40.82421875 12.4453125 2.5390625 64.16796875 -13.39453125 7.625 56.390625 -15.5078125 -2.08984375 56.359375 -15.328125 -6.75 56.91796875 -12.6875 9.80078125 30.2578125 -2.0859375 -19.671875 33.9453125 -1.046875 -19.08203125 29.8515625 -10.11328125 -19.671875 33.90625 -10.54296875 -17.890625 43.81640625 -0.84765625 -21.6796875 36.2734375 -0.08203125 -24.9609375 46.1328125 -3.03125 -24.265625 38.296875 -2.53515625 -28.328125 29.1171875 -9.2109375 -30.96484375 33.26171875 -8.9140625 -30.41796875 28.09765625 -2.38671875 -29.5 32.98046875 -2.25390625 -29.7421875 47.640625 1.9609375 -9.51171875 45.63671875 1.0546875 -19.19921875 47.43359375 -5.4296875 -15.53515625 43.62890625 -2.88671875 -15.62109375 44.33984375 -11.47265625 -18.3828125 46.55859375 -11.703125 -23.03125 36.3828125 -13.61328125 -21.5 38.6015625 -13.140625 -26.01171875 43.82421875 -2.48828125 -10.0625 47.6328125 -5.00390625 -10.18359375 33.21875 -13.6796875 -27.12109375 29.84765625 -13.96875 -27.80078125 38.203125 12.4921875 -15.15625 39.23828125 11.140625 -10.23828125 44.63671875 9.69140625 -10.10546875 37.6015625 10.015625 -19.0390625 37.9921875 -1.890625 -10.3125 37.53125 -2.59765625 -15.74609375 9.50390625 -0.41796875 -25.67578125 15.4921875 -2.671875 -28.01953125 15.1796875 -10.3046875 -28.65234375 16.9453125 -14.46875 -25.984375 45.90234375 1.84375 -8.3515625 53.61328125 -2.53125 -8.43359375 51.34375 -6.91015625 -10.3671875 47.8203125 1.71484375 1.734375 38.65234375 -8.5625 -29.36328125 47.2890625 -7.60546875 -25.34375 30.92578125 0.38671875 -25.08203125 21.6796875 1.41015625 -25.64453125 22.63671875 0.30859375 -21.33203125 21.46484375 -2.359375 -29.20703125 22.08984375 -9.609375 -30.45703125 30.74609375 -13.23828125 -22.60546875 24.03515625 -13.8203125 -22.6640625 25.53515625 -10.50390625 -18.78515625 23.6796875 -14.28125 -27.20703125 44.72265625 2.51953125 20.0390625 50.9375 -2.94921875 19.734375 42.58984375 -3.68359375 17.7109375 45.67578125 -6.3203125 17.4140625 42.33984375 -3.53125 13.328125 45.35546875 -6.296875 13.2421875 45.99609375 3.28515625 11.390625 43.80078125 -3.1015625 -17.03515625 48.4921875 -3.33203125 -20.66796875 44.625 -9.828125 -16.88671875 48.796875 -9.46875 -19.78125 56.41796875 -11.85546875 0.1875 38.02734375 -1.36328125 -17.875 38.3125 -10.47265625 -17.05078125 14.60546875 -11.5 13.78515625 14.35546875 -5.38671875 21.53515625 23.78125 -9.859375 14.23828125 22.08203125 -5.80078125 21.44140625 68.79296875 -10.15234375 -0.4453125 70.71484375 -10.078125 -4.38671875 27.33203125 -0.12109375 22.13671875 25.42578125 -6.66015625 20.390625 22.02734375 2.1796875 22.3828125 31.34375 -4.7890625 19.41796875 37.05859375 -2.46875 18.11328125 35.84765625 2.6484375 -19.30859375 30.28515625 3.06640625 -20.7421875 30.6171875 -4.50390625 -19.06640625 67.0078125 -15.11328125 -1.3125 69.234375 -15.36328125 -4.65625 59.73828125 -14.86328125 0.3515625 59.66796875 -14.4765625 -9.140625 29.546875 8.9140625 -19.6953125 68.78125 -9.82421875 -8.328125 49.19921875 -7.28125 17.2109375 28.73046875 11.6875 19.421875 21.91796875 12.12890625 18.6328125 28.328125 14.32421875 14.4140625 21.43359375 15.11328125 12.96875 25.1875 -9.609375 14.30859375 23.796875 -9.61328125 -0.16796875 38.328125 11.0859375 16.49609375 38.54296875 10.35546875 12.44140625 36.92578125 -2.33984375 14.046875 -3.39453125 7.796875 5.66796875 -3.37109375 7.796875 -4.31640625 18.05078125 3.5703125 -22.07421875 24.18359375 -2.48046875 -21.19921875 8.66015625 13.78515625 12.41796875 8.859375 12.20703125 -11.359375 20.96875 15 -10.484375 66.95703125 -14.83203125 -7.96484375 20.9765625 12.75 -15.765625 29.48046875 14.671875 -11.34765625 29.46484375 12.20703125 -17.9296875 36.33984375 -4.65625 -8.6484375 30.87890625 -6.859375 -14.12109375 38.3671875 5.16796875 -8.3125 30.25 13.26171875 -9.390625 30.69921875 14.76953125 1.6953125 38.4765625 8.65234375 -8.8515625 35.140625 -4.32421875 1.98046875 -1.515625 -0.53125 -13.91796875 -3 1.78515625 11.07421875 18.69921875 2.6953125 -24.23046875 -2.96875 1.78515625 -9.7578125 0.421875 6.84375 -12.97265625 6.86328125 6.34765625 -16.94921875 24.46875 -6.4453125 -18.94921875 31.171875 -5.98046875 14.27734375 25.98828125 4.51953125 -21.91015625 21.125 8.44140625 -19.53515625 64.234375 -14.60546875 -10.109375 22.22265625 4.73046875 -21.765625 19.875 -14.41796875 -9.8671875 13.80078125 5.953125 -19.98828125 7.53515625 3.73828125 -20.734375 37.94140625 4.34765625 1.89453125 63.90625 -18.06640625 -6.87109375 63.94140625 -18.24609375 -2.640625 30.21484375 13.265625 12.1328125 34.9765625 -4.03515625 11.6796875 37.7890625 2.62109375 11.85546875 38.21875 7.75390625 1.88671875 59.5703125 -15.0703125 -12.3671875 63.92578125 -14.84765625 -15.08984375 59.26953125 -17.91796875 -4.7421875 59.8828125 -16.625 6.7578125 59.828125 -16.28515625 3.0546875 55.4296875 -15.88671875 4.96875 38.0703125 6.5390625 11.75390625 58.57421875 -13.65625 11.42578125 55.60546875 -14.55859375 14.27734375 59.0390625 -13.89453125 15.79296875</float_array>
                    <technique_common>
                        <accessor count="327" source="#pointarray0" stride="3">
                            <param name="X" type="float"/>
                            <param name="Y" type="float"/>
                            <param name="Z" type="float"/>
                        </accessor>
                    </technique_common>
                </source>
                <source id="uvs0">
                    <float_array id="uvarray0" count="868">0.9550889730453491 0.38200199604034424 0.9393939971923828 0.366303026676178 0.9550880193710327 0.38348299264907837 0.9393939971923828 0.3677840232849121 0.6550880074501038 0.48373401165008545 0.6407899856567383 0.48373401165008545 0.6550880074501038 0.4796820282936096 0.6407899856567383 0.477150022983551 0.6264910101890564 0.4796820282936096 0.6264910101890564 0.48373401165008545 0.9648820161819458 0.4715350270271301 0.9496539831161499 0.47417497634887695 0.9648820161819458 0.47857600450515747 0.9496539831161499 0.47857600450515747 0.6948059797286987 0.477150022983551 0.6948059797286987 0.48373401165008545 0.6805070042610168 0.4796820282936096 0.6805070042610168 0.48373401165008545 0.7091040015220642 0.48373401165008545 0.7091040015220642 0.4796820282936096 0.6805070042610168 0.4877859950065613 0.6948059797286987 0.49031901359558105 0.7091040015220642 0.4877859950065613 0.815650999546051 0.46361398696899414 0.815650999546051 0.4702150225639343 0.8308780193328857 0.46361398696899414 0.8308780193328857 0.4680140018463135 0.8461059927940369 0.46361398696899414 0.8461059927940369 0.4680140018463135 0.8613340258598328 0.4702150225639343 0.8613340258598328 0.46361398696899414 0.9496539831161499 0.48913800716400146 0.9648820161819458 0.48209601640701294 0.9191989898681641 0.48209601640701294 0.93442702293396 0.48913800716400146 0.9191989898681641 0.47857600450515747 0.93442702293396 0.47857600450515747 0.6805070042610168 0.49319398403167725 0.6948059797286987 0.49319398403167725 0.7091040015220642 0.49319398403167725 0.9131079912185669 0.4715350270271301 0.8978800177574158 0.47417497634887695 0.9131079912185669 0.47857600450515747 0.8978800177574158 0.47857600450515747 0.8573150038719177 0.43731701374053955 0.8358389735221863 0.437296986579895 0.8687949776649475 0.4250919818878174 0.8330399990081787 0.425229012966156 0.6407899856567383 0.47411102056503296 0.6407899856567383 0.46752601861953735 0.6550880074501038 0.4715780019760132 0.6550880074501038 0.46752601861953735 0.6264910101890564 0.46752601861953735 0.6264910101890564 0.4715780019760132 0.7091040015220642 0.46752601861953735 0.6948059797286987 0.46752601861953735 0.7091040015220642 0.46347397565841675 0.6948059797286987 0.46094197034835815 0.9266030192375183 0.38199299573898315 0.9155160188674927 0.3662949800491333 0.8714330196380615 0.38197600841522217 0.8714410066604614 0.36556899547576904 0.5391129851341248 0.4589160084724426 0.5391129851341248 0.46549999713897705 0.524815022945404 0.4614480137825012 0.524815022945404 0.46549999713897705 0.5534110069274902 0.46549999713897705 0.5534110069274902 0.4614480137825012 0.5740119814872742 0.4400479793548584 0.5831350088119507 0.40671300888061523 0.6052780151367188 0.4435669779777527 0.6032260060310364 0.4068149924278259 0.6300129890441895 0.406948983669281 0.6501039862632751 0.4070500135421753 0.6231549978256226 0.4436429738998413 0.6559590101242065 0.4403889775276184 0.5150949954986572 0.4490079879760742 0.5129709839820862 0.44248902797698975 0.5221620202064514 0.44851797819137573 0.5176309943199158 0.43313902616500854 0.524815022945404 0.4695519804954529 0.5391129851341248 0.47208499908447266 0.5534110069274902 0.4695519804954529 0.6805070042610168 0.46752601861953735 0.6805070042610168 0.4715780019760132 0.6948059797286987 0.47411102056503296 0.7091040015220642 0.4715780019760132 0.815650999546051 0.46889400482177734 0.8004230260848999 0.4715350270271301 0.815650999546051 0.475055992603302 0.8004230260848999 0.475055992603302 0.6383609771728516 0.3829209804534912 0.5954020023345947 0.3827049732208252 0.6561710238456726 0.3594520092010498 0.5799210071563721 0.3599569797515869 0.5391129851341248 0.473097026348114 0.5391129851341248 0.4796820282936096 0.524815022945404 0.475629985332489 0.524815022945404 0.4796820282936096 0.5534110069274902 0.4796820282936096 0.5534110069274902 0.475629985332489 0.524815022945404 0.48373401165008545 0.5391129851341248 0.48626601696014404 0.5534110069274902 0.48373401165008545 0.8004230260848999 0.4838569760322571 0.815650999546051 0.47857600450515747 0.5391129851341248 0.48860299587249756 0.5534110069274902 0.48860299587249756 0.7699679732322693 0.47857600450515747 0.785194993019104 0.4838569760322571 0.7699679732322693 0.475055992603302 0.785194993019104 0.475055992603302 0.524815022945404 0.48860299587249756 0.5724760293960571 0.48170799016952515 0.5867739915847778 0.48170799016952515 0.5724760293960571 0.485759973526001 0.5867739915847778 0.48829197883605957 0.886372983455658 0.43730199337005615 0.907817006111145 0.4371830224990845 0.8870059847831726 0.4435639977455139 0.9072359800338745 0.44295400381088257 0.882652997970581 0.47857600450515747 0.882652997970581 0.47417497634887695 0.8370199799537659 0.44389599561691284 0.8574000000953674 0.44396501779556274 0.6010720133781433 0.48170799016952515 0.6010720133781433 0.4776560068130493 0.5867739915847778 0.4751240015029907 0.8308780193328857 0.47681599855422974 0.8308780193328857 0.4856169819831848 0.8461059927940369 0.47681599855422974 0.8461059927940369 0.4856169819831848 0.8922240138053894 0.3526039719581604 0.8929399847984314 0.3566640019416809 0.844539999961853 0.35263001918792725 0.8445379734039307 0.35670799016952515 0.7825790047645569 0.3749449849128723 0.8209919929504395 0.37308698892593384 0.7878209948539734 0.38263100385665894 0.8255559802055359 0.3816850185394287 0.815650999546051 0.47681599855422974 0.8308780193328857 0.4724149703979492 0.5724760293960571 0.4776560068130493 0.882652997970581 0.46889400482177734 0.8978800177574158 0.46889400482177734 0.8038970232009888 0.3875430226325989 0.8334770202636719 0.38019198179244995 0.5867739915847778 0.4599289894104004 0.5867739915847778 0.4665129780769348 0.5724760293960571 0.462460994720459 0.5724760293960571 0.4665129780769348 0.6010720133781433 0.4665129780769348 0.6010720133781433 0.462460994720459 0.871425986289978 0.3881160020828247 0.5724760293960571 0.4705650210380554 0.5867739915847778 0.473097026348114 0.6010720133781433 0.4705650210380554 0.7948290109634399 0.3689489960670471 0.819832980632782 0.36555302143096924 0.8461059927940369 0.4724149703979492 0.8613340258598328 0.47681599855422974 0.6550880074501038 0.46347397565841675 0.6407899856567383 0.46094197034835815 0.8075349926948547 0.4070240259170532 0.8357269763946533 0.4089009761810303 0.7972850203514099 0.42536598443984985 0.6264910101890564 0.46347397565841675 0.6407899856567383 0.45840901136398315 0.6264910101890564 0.45840901136398315 0.6550880074501038 0.45840901136398315 0.8674250245094299 0.4715350270271301 0.8674250245094299 0.47857600450515747 0.882652997970581 0.464493989944458 0.8978800177574158 0.464493989944458 0.882652997970581 0.46097302436828613 0.8978800177574158 0.46097302436828613 0.6010720133781433 0.485759973526001 0.5867739915847778 0.4916419982910156 0.6010720133781433 0.4916419982910156 0.5867739915847778 0.4573959708213806 0.5724760293960571 0.4573959708213806 0.6010720133781433 0.4573959708213806 0.8308780193328857 0.46009302139282227 0.8461059927940369 0.46009302139282227 0.5724760293960571 0.4916419982910156 0.882652997970581 0.48913800716400146 0.8978800177574158 0.48913800716400146 0.815650999546051 0.4803360104560852 0.6500329971313477 0.4060879945755005 0.6500329971313477 0.41247397661209106 0.6695550084114075 0.4060879945755005 0.6695550084114075 0.41247397661209106 0.7408130168914795 0.4215959906578064 0.743457019329071 0.41247397661209106 0.7309079766273499 0.4215959906578064 0.7309079766273499 0.41247397661209106 0.7155699729919434 0.4033510088920593 0.7155699729919434 0.4097369909286499 0.7309079766273499 0.4033510088920593 0.7309079766273499 0.4097369909286499 0.9131079912185669 0.464493989944458 0.9648820161819458 0.464493989944458 0.9496539831161499 0.46889400482177734 0.9496539831161499 0.464493989944458 0.6876819729804993 0.4215959906578064 0.7002310156822205 0.4215959906578064 0.6876819729804993 0.41247397661209106 0.7002310156822205 0.41247397661209106 0.93442702293396 0.464493989944458 0.93442702293396 0.46889400482177734 0.7002310156822205 0.4097369909286499 0.7002310156822205 0.4033510088920593 0.6948059797286987 0.45840901136398315 0.6805070042610168 0.45840901136398315 0.6805070042610168 0.46347397565841675 0.7091040015220642 0.45840901136398315 0.93442702293396 0.46097302436828613 0.9496539831161499 0.46097302436828613 0.7309079766273499 0.38328200578689575 0.7155699729919434 0.3791769742965698 0.7309079766273499 0.39514100551605225 0.7155699729919434 0.394228994846344 0.7002310156822205 0.38328200578689575 0.7002310156822205 0.39514100551605225 0.9191989898681641 0.464493989944458 0.9191989898681641 0.4715350270271301 0.93442702293396 0.47417497634887695 0.8674250245094299 0.464493989944458 0.7155699729919434 0.41247397661209106 0.7155699729919434 0.4215959906578064 0.6319059729576111 0.4060879945755005 0.6319059729576111 0.40061497688293457 0.6500329971313477 0.40061497688293457 0.7309079766273499 0.40061497688293457 0.7155699729919434 0.40061497688293457 0.6319059729576111 0.41247397661209106 0.6876819729804993 0.4060879945755005 0.6876819729804993 0.40061497688293457 0.6695550084114075 0.40061497688293457 0.7002310156822205 0.40061497688293457 0.7699679732322693 0.4627329707145691 0.7699679732322693 0.46889400482177734 0.785194993019104 0.4627329707145691 0.785194993019104 0.46625399589538574 0.8004230260848999 0.4627329707145691 0.8004230260848999 0.46625399589538574 0.815650999546051 0.4627329707145691 0.6500329971313477 0.4215959906578064 0.6416670083999634 0.42615699768066406 0.6695550084114075 0.4215959906578064 0.6779209971427917 0.42615699768066406 0.8613340258598328 0.4803360104560852 0.6500329971313477 0.417946994304657 0.6695550084114075 0.417946994304657 0.929606020450592 0.38889098167419434 0.9660500288009644 0.3883259892463684 0.931693971157074 0.41079801321029663 0.9655799865722656 0.4067729711532593 0.6264910101890564 0.4877859950065613 0.6407899856567383 0.49031901359558105 0.9688259959220886 0.4292449951171875 0.9643009901046753 0.42907601594924927 0.9700189828872681 0.4066479802131653 0.9627460241317749 0.436460018157959 0.9645980000495911 0.4410160183906555 0.9618669748306274 0.44557297229766846 0.9467809796333313 0.4425309896469116 0.771291971206665 0.4447169899940491 0.767982006072998 0.4390559792518616 0.7880340218544006 0.4418179988861084 0.7777130007743835 0.4362580180168152 0.6264910101890564 0.49319398403167725 0.6407899856567383 0.49319398403167725 0.8674250245094299 0.48209601640701294 0.9131079912185669 0.48209601640701294 0.7165539860725403 0.45358699560165405 0.7089110016822815 0.45292001962661743 0.7198230028152466 0.44679999351501465 0.7136849761009216 0.43551599979400635 0.6550880074501038 0.4877859950065613 0.785194993019104 0.4715350270271301 0.5240110158920288 0.43390601873397827 0.5317540168762207 0.4093160033226013 0.556164026260376 0.43644702434539795 0.5576210021972656 0.4080290198326111 0.9306269884109497 0.4248179793357849 0.8639199733734131 0.4107769727706909 0.5391129851341248 0.4542980194091797 0.524815022945404 0.4573959708213806 0.5534110069274902 0.4573959708213806 0.785194993019104 0.4592130184173584 0.8004230260848999 0.4592130184173584 0.8915039896965027 0.35655200481414795 0.8445379734039307 0.35655999183654785 0.6681600213050842 0.3860189914703369 0.6834989786148071 0.38328200578689575 0.56038498878479 0.382066011428833 0.6744170188903809 0.3831019997596741 0.6701939702033997 0.4071509838104248 0.6550880074501038 0.49319398403167725 0.6943179965019226 0.40727299451828003 0.6738399863243103 0.44050300121307373 0.7039399743080139 0.43701398372650146 0.8177610039710999 0.4403979778289795 0.7982569932937622 0.43907397985458374 0.8213440179824829 0.4474160075187683 0.808230996131897 0.44284701347351074 0.6757280230522156 0.4550439715385437 0.664900004863739 0.44045400619506836 0.6142169833183289 0.4436119794845581 0.6927340030670166 0.45448899269104004 0.6564030051231384 0.45759397745132446 0.6660829782485962 0.45456600189208984 0.6209200024604797 0.456866979598999 0.8740010261535645 0.44049400091171265 0.743457019329071 0.4063349962234497 0.8053230047225952 0.36305201053619385 0.550233006477356 0.3608279824256897 0.5968499779701233 0.3475779891014099 0.9169449806213379 0.35751497745513916 0.7309079766273499 0.42615699768066406 0.6319059729576111 0.4215959906578064 0.743457019329071 0.40061497688293457 0.7002310156822205 0.42615699768066406 0.6542159914970398 0.394228994846344 0.8189489841461182 0.3575029969215393 0.8038039803504944 0.36559098958969116 0.5294280052185059 0.3796190023422241 0.6999769806861877 0.3774759769439697 0.7782689929008484 0.4259840250015259 0.9421390295028687 0.43911802768707275 0.5146070122718811 0.4095500111579895 0.6918650269508362 0.38328200578689575 0.6819390058517456 0.35890400409698486 0.762499988079071 0.4275779724121094 0.7140300273895264 0.40810102224349976 0.9283360242843628 0.4935380220413208 0.6709750294685364 0.4877859950065613 0.7208870053291321 0.40850400924682617 0.7214040160179138 0.4307199716567993 0.850167989730835 0.39844799041748047 0.7741469740867615 0.38757097721099854 0.7850810289382935 0.3809570074081421 0.7692139744758606 0.3770869970321655 0.7650780081748962 0.3973590135574341 0.7166540026664734 0.3828880190849304 0.7632129788398743 0.4048740267753601 0.6424639821052551 0.3478339910507202 0.8674250245094299 0.4625539779663086 0.6550880074501038 0.4982590079307556 0.6646199822425842 0.4877859950065613 0.8765619993209839 0.4935380220413208 0.6169589757919312 0.4877859950065613 0.5665670037269592 0.4399399757385254 0.9223020076751709 0.44054198265075684 0.9293869733810425 0.44336998462677 0.9199730157852173 0.4469969868659973 0.5407940149307251 0.45138901472091675 0.5552170276641846 0.45303601026535034 0.5727750062942505 0.45636701583862305 0.607545018196106 0.4556419849395752 0.6136400103569031 0.45635998249053955 0.589684009552002 0.4590659737586975 0.8735730051994324 0.44771498441696167 0.6386989951133728 0.4602530002593994 0.5629439949989319 0.48170799016952515 0.5629439949989319 0.47411102056503296 0.6106039881706238 0.48170799016952515 0.5629439949989319 0.4665129780769348 0.6709750294685364 0.475629985332489 0.7186359763145447 0.475629985332489 0.7186359763145447 0.48373401165008545 0.7186359763145447 0.46752601861953735 0.9420409798622131 0.49177801609039307 0.9557459950447083 0.4935380220413208 0.6805070042610168 0.4982590079307556 0.7186359763145447 0.4877859950065613 0.7091040015220642 0.4982590079307556 0.7186359763145447 0.46549999713897705 0.6646199822425842 0.46752601861953735 0.8902660012245178 0.49177801609039307 0.9039710164070129 0.4935380220413208 0.6264910101890564 0.4982590079307556 0.6646199822425842 0.48373401165008545 0.6169589757919312 0.48373401165008545 0.6169589757919312 0.46752601861953735 0.6646199822425842 0.46549999713897705 0.5152829885482788 0.47259098291397095 0.5629439949989319 0.47259098291397095 0.5629439949989319 0.4796820282936096 0.5152829885482788 0.46549999713897705 0.6169589757919312 0.46549999713897705 0.6646199822425842 0.475629985332489 0.6169589757919312 0.475629985332489 0.8247870206832886 0.49177801609039307 0.6106039881706238 0.485759973526001 0.6010720133781433 0.49772000312805176 0.815650999546051 0.46185302734375 0.8384919762611389 0.49001801013946533 0.6106039881706238 0.47411102056503296 0.5629439949989319 0.4644870162010193 0.6106039881706238 0.4665129780769348 0.852196991443634 0.49177801609039307 0.5724760293960571 0.49772000312805176 0.5629439949989319 0.485759973526001 0.6106039881706238 0.4644870162010193 0.5645470023155212 0.4520050287246704 0.9131079912185669 0.46262097358703613 0.6709750294685364 0.46752601861953735 0.6709750294685364 0.46549999713897705 0.6709750294685364 0.48373401165008545 0.7859990000724792 0.4057270288467407 0.6137819886207581 0.46296799182891846 0.752236008644104 0.3837429881095886 0.7658720016479492 0.38319700956344604 0.5107830166816711 0.4332280158996582 0.5534110069274902 0.4946810007095337 0.7699679732322693 0.46097302436828613 0.792809009552002 0.48737698793411255 0.5152829885482788 0.4796820282936096 0.5629439949989319 0.48373401165008545 0.5152829885482788 0.46347397565841675 0.5629439949989319 0.46549999713897705 0.8065140247344971 0.48913800716400146 0.524815022945404 0.4946810007095337 0.5152829885482788 0.48373401165008545 0.7791039943695068 0.48913800716400146 0.815650999546051 0.46097302436828613 0.5629439949989319 0.46347397565841675 0.9648820161819458 0.4627060294151306 0.5629439949989319 0.459089994430542 0.6677979826927185 0.46161001920700073 0.9191989898681641 0.4626380205154419 0.8613340258598328 0.46185302734375</float_array>
                    <technique_common>
                        <accessor count="434" source="#uvarray0" stride="2">
                            <param name="S" type="float"/>
                            <param name="T" type="float"/>
                        </accessor>
                    </technique_common>
                </source>
                <vertices id="vertices0">
                    <input semantic="POSITION" source="#points0"/>
                </vertices>
                <polylist count="650" material="Material1">
                    <input offset="0" semantic="VERTEX" source="#vertices0"/>
                    <input offset="1" semantic="TEXCOORD" source="#uvs0" set="0"/>
                    <vcount>3 3 3 3 3 3 3 3 3 3 3 3 3 3 3 3 3 3 3 3 3 3 3 3 3 3 3 3 3 3 3 3 3 3 3 3 3 3 3 3 3 3 3 3 3 3 3 3 3 3 3 3 3 3 3 3 3 3 3 3 3 3 3 3 3 3 3 3 3 3 3 3 3 3 3 3 3 3 3 3 3 3 3 3 3 3 3 3 3 3 3 3 3 3 3 3 3 3 3 3 3 3 3 3 3 3 3 3 3 3 3 3 3 3 3 3 3 3 3 3 3 3 3 3 3 3 3 3 3 3 3 3 3 3 3 3 3 3 3 3 3 3 3 3 3 3 3 3 3 3 3 3 3 3 3 3 3 3 3 3 3 3 3 3 3 3 3 3 3 3 3 3 3 3 3 3 3 3 3 3 3 3 3 3 3 3 3 3 3 3 3 3 3 3 3 3 3 3 3 3 3 3 3 3 3 3 3 3 3 3 3 3 3 3 3 3 3 3 3 3 3 3 3 3 3 3 3 3 3 3 3 3 3 3 3 3 3 3 3 3 3 3 3 3 3 3 3 3 3 3 3 3 3 3 3 3 3 3 3 3 3 3 3 3 3 3 3 3 3 3 3 3 3 3 3 3 3 3 3 3 3 3 3 3 3 3 3 3 3 3 3 3 3 3 3 3 3 3 3 3 3 3 3 3 3 3 3 3 3 3 3 3 3 3 3 3 3 3 3 3 3 3 3 3 3 3 3 3 3 3 3 3 3 3 3 3 3 3 3 3 3 3 3 3 3 3 3 3 3 3 3 3 3 3 3 3 3 3 3 3 3 3 3 3 3 3 3 3 3 3 3 3 3 3 3 3 3 3 3 3 3 3 3 3 3 3 3 3 3 3 3 3 3 3 3 3 3 3 3 3 3 3 3 3 3 3 3 3 3 3 3 3 3 3 3 3 3 3 3 3 3 3 3 3 3 3 3 3 3 3 3 3 3 3 3 3 3 3 3 3 3 3 3 3 3 3 3 3 3 3 3 3 3 3 3 3 3 3 3 3 3 3 3 3 3 3 3 3 3 3 3 3 3 3 3 3 3 3 3 3 3 3 3 3 3 3 3 3 3 3 3 3 3 3 3 3 3 3 3 3 3 3 3 3 3 3 3 3 3 3 3 3 3 3 3 3 3 3 3 3 3 3 3 3 3 3 3 3 3 3 3 3 3 3 3 3 3 3 3 3 3 3 3 3 3 3 3 3 3 3 3 3 3 3 3 3 3 3 3 3 3 3 3 3 3 3 3 3 3 3 3 3 3 3 3 3 3 3 3 3 3 3 3 3 3 3 3 3 3 3 3 3 3 3 3 3 3 3 3 3 3 3 3 3 3 3 3 3 3 3 3 3 3 3 3 3 3 3 3 3 3 3 3 3 3 3 3 3 3 3 3 3 3 3 3 3 3 3 3 3 3 3 3 3 3 3 3 3 3 3</vcount>
                    <p>2 2 1 1 0 0 3 3 1 1 2 2 6 6 5 5 4 4 7 7 5 5 6 6 8 8 5 5 7 7 9 9 5 5 8 8 12 12 11 11 10 10 13 13 11 11 12 12 16 16 15 15 14 14 17 17 15 15 16 16 19 19 15 15 18 18 14 14 15 15 19 19 20 20 15 15 17 17 21 21 15 15 20 20 22 22 15 15 21 21 18 18 15 15 22 22 25 25 24 24 23 23 26 26 24 24 25 25 27 27 26 26 25 25 28 28 26 26 27 27 28 28 30 30 29 29 27 27 30 30 28 28 12 12 31 31 13 13 32 32 31 31 12 12 35 35 34 34 33 33 36 36 34 34 35 35 38 38 20 20 37 37 21 21 20 20 38 38 38 38 22 22 21 21 39 39 22 22 38 38 42 42 41 41 40 40 43 43 41 41 42 42 46 46 45 45 44 44 47 47 45 45 46 46 50 50 49 49 48 48 51 51 49 49 50 50 53 53 49 49 52 52 48 48 49 49 53 53 56 56 55 55 54 54 57 57 55 55 56 56 1 1 58 58 0 0 59 59 58 58 1 1 59 59 60 60 58 58 61 61 60 60 59 59 64 64 63 63 62 62 65 65 63 63 64 64 67 67 63 63 66 66 62 62 63 63 67 67 70 70 69 69 68 68 71 71 69 69 70 70 74 74 73 73 72 72 75 75 73 73 74 74 78 78 77 77 76 76 79 79 77 77 78 78 80 80 63 63 65 65 81 81 63 63 80 80 82 82 63 63 81 81 66 66 63 63 82 82 84 84 55 55 83 83 85 85 55 55 84 84 86 86 55 55 85 85 54 54 55 55 86 86 89 89 88 88 87 87 90 90 88 88 89 89 93 93 92 92 91 91 94 94 92 92 93 93 97 97 96 96 95 95 98 98 96 96 97 97 100 100 96 96 99 99 95 95 96 96 100 100 101 101 96 96 98 98 102 102 96 96 101 101 103 103 96 96 102 102 99 99 96 96 103 103 89 89 104 104 90 90 105 105 104 104 89 89 106 106 103 103 102 102 107 107 103 103 106 106 110 110 109 109 108 108 111 111 109 109 110 110 106 106 101 101 112 112 102 102 101 101 106 106 115 115 114 114 113 113 116 116 114 114 115 115 119 119 118 118 117 117 120 120 118 118 119 119 122 122 43 43 121 121 41 41 43 43 122 122 123 123 44 44 45 45 124 124 44 44 123 123 126 126 114 114 125 125 127 127 114 114 126 126 130 130 129 129 128 128 131 131 129 129 130 130 134 134 133 133 132 132 135 135 133 133 134 134 48 48 6 6 50 50 7 7 6 6 48 48 53 53 7 7 48 48 8 8 7 7 53 53 138 138 137 137 136 136 139 139 137 137 138 138 141 141 140 140 24 24 128 128 140 140 141 141 142 142 114 114 127 127 113 113 114 114 142 142 144 144 122 122 143 143 41 41 122 122 144 144 145 145 139 139 138 138 146 146 139 139 145 145 149 149 148 148 147 147 150 150 148 148 149 149 152 152 148 148 151 151 147 147 148 148 152 152 139 139 153 153 60 60 146 146 153 153 139 139 154 154 148 148 150 150 155 155 148 148 154 154 156 156 148 148 155 155 151 151 148 148 156 156 137 137 157 157 136 136 158 158 157 157 137 137 160 160 159 159 29 29 130 130 159 159 160 160 161 161 49 49 51 51 162 162 49 49 161 161 165 165 164 164 163 163 47 47 164 164 165 165 166 166 49 49 162 162 52 52 49 49 166 166 168 168 162 162 167 167 166 166 162 162 168 168 167 167 161 161 169 169 162 162 161 161 167 167 122 122 171 171 170 170 121 121 171 171 122 122 124 174 173 173 172 172 123 175 173 173 124 174 175 177 174 176 116 116 176 178 174 176 175 177 178 180 147 147 177 179 149 149 147 147 178 180 177 179 152 152 179 181 147 147 152 152 177 179 120 182 27 27 25 25 119 183 27 27 120 182 175 177 115 115 180 184 116 116 115 115 175 177 43 43 181 185 121 121 182 186 181 185 43 43 28 28 141 141 26 26 159 159 141 141 28 28 140 140 129 129 183 187 128 128 129 129 140 140 154 154 127 127 155 155 142 142 127 127 154 154 155 155 126 126 156 156 127 127 126 126 155 155 141 141 130 130 128 128 159 159 130 130 141 141 174 176 114 114 116 116 125 125 114 114 174 176 91 91 71 71 72 72 92 92 71 71 91 91 186 190 185 189 184 188 187 191 185 189 186 190 190 194 189 193 188 192 191 195 189 193 190 194 194 198 193 197 192 196 195 199 193 197 194 198 144 144 196 200 40 40 173 173 196 200 144 144 198 202 197 201 10 10 199 203 197 201 198 202 202 206 201 205 200 204 203 207 201 205 202 206 199 203 205 209 204 208 198 202 205 209 199 203 207 211 193 197 206 210 192 196 193 197 207 211 209 213 57 57 208 212 210 214 57 57 209 213 208 212 56 56 211 215 57 57 56 56 208 212 212 216 199 203 204 208 213 217 199 203 212 216 215 220 138 219 214 218 216 221 138 219 215 220 216 221 145 222 138 219 217 223 145 222 216 221 204 208 219 225 218 224 205 209 219 225 204 208 173 173 143 143 172 172 144 144 143 143 173 173 198 202 220 226 205 209 11 11 220 226 198 202 172 172 170 170 221 227 143 143 170 170 172 172 84 84 14 14 85 85 16 16 14 14 84 84 85 85 19 19 86 86 14 14 19 19 85 85 191 195 223 229 222 228 190 194 223 229 191 195 195 199 222 228 193 197 191 195 222 228 195 199 225 231 184 188 224 230 226 232 184 188 225 231 194 198 228 234 227 233 192 196 228 234 194 198 215 220 228 234 216 221 227 233 228 234 215 220 184 188 189 235 224 230 185 189 189 235 184 188 222 228 201 205 203 207 223 229 201 205 222 228 206 210 222 228 203 207 193 197 222 228 206 210 186 190 230 237 229 236 231 238 230 237 186 190 207 211 228 234 192 196 232 239 228 234 207 211 216 221 232 239 217 223 228 234 232 239 216 221 235 242 234 241 233 240 236 243 234 241 235 242 202 206 186 190 229 236 187 191 186 190 202 206 237 244 236 243 235 242 238 245 236 243 237 244 238 245 239 246 87 87 237 244 239 246 238 245 242 249 241 248 240 247 243 250 241 248 242 249 160 160 131 131 130 130 244 251 131 131 160 160 246 253 240 247 245 252 242 249 240 247 246 253 187 191 245 252 185 189 246 253 245 252 187 191 231 238 184 188 226 232 186 190 184 188 231 238 13 13 34 34 36 36 31 31 34 34 13 13 249 256 248 255 247 254 250 257 248 255 249 256 251 258 5 5 9 9 252 259 5 5 251 258 255 262 254 261 253 260 250 257 254 261 255 262 256 263 253 260 254 261 77 264 253 260 256 263 77 264 257 266 76 265 256 263 257 266 77 264 213 269 259 268 258 267 260 270 259 268 213 269 262 272 251 258 261 271 252 259 251 258 262 272 171 171 181 185 263 273 121 121 181 185 171 171 90 90 109 109 111 111 104 104 109 109 90 90 42 42 182 186 43 43 264 274 182 186 42 42 259 277 211 276 258 275 265 278 211 276 259 277 220 226 35 35 219 225 36 36 35 35 220 226 266 279 5 5 252 259 4 4 5 5 266 279 267 280 110 110 234 241 111 111 110 110 267 280 270 283 269 282 268 281 271 284 269 282 270 283 250 257 272 285 254 261 249 256 272 285 250 257 249 256 46 46 272 285 273 286 46 46 249 256 164 164 46 46 273 286 47 47 46 46 164 164 78 288 62 62 274 287 64 64 62 62 78 288 210 214 55 55 57 57 83 83 55 55 210 214 274 287 67 67 275 289 62 62 67 67 274 287 257 290 237 244 235 242 276 291 237 244 257 290 220 226 13 13 36 36 11 11 13 13 220 226 58 58 153 153 247 254 60 60 153 153 58 58 238 245 267 280 236 243 88 88 267 280 238 245 278 293 132 132 277 292 134 134 132 132 278 293 279 294 231 238 226 232 280 295 231 238 279 294 80 80 95 95 81 81 97 97 95 95 80 80 81 81 100 100 82 82 95 95 100 100 81 81 272 285 117 117 118 118 46 46 117 117 272 285 267 280 90 90 111 111 88 88 90 90 267 280 69 69 281 296 271 284 92 92 281 296 69 69 73 73 282 297 91 91 283 298 282 297 73 73 262 272 266 279 252 259 284 299 266 279 262 272 286 301 285 300 283 298 287 302 285 300 286 301 0 0 247 254 248 255 58 58 247 254 0 0 123 123 45 45 288 303 45 45 289 304 288 303 290 305 123 123 288 303 288 303 289 304 212 306 291 308 209 307 286 301 283 298 73 73 291 308 292 309 71 71 70 70 287 302 208 310 211 276 283 298 285 300 282 297 91 91 72 72 73 73 281 296 269 282 271 284 293 312 291 308 169 311 292 309 168 313 74 74 294 314 44 44 124 124 212 306 290 305 288 303 286 301 209 307 208 310 246 253 202 206 200 204 246 253 187 191 202 206 189 235 185 189 245 252 230 237 207 211 229 236 206 210 229 236 207 211 195 199 194 198 224 315 135 135 295 316 158 158 277 318 3 317 94 94 296 319 133 133 1 1 255 262 248 255 250 257 3 3 296 319 1 1 241 320 223 229 190 194 203 207 202 206 206 210 242 249 200 204 243 250 207 211 230 237 232 239 202 206 229 236 206 210 191 195 195 199 189 193 240 247 241 248 188 321 194 198 227 233 225 322 194 198 225 322 224 315 195 199 224 315 189 193 241 320 243 323 223 229 226 232 297 324 279 294 201 205 223 229 243 323 246 253 200 204 242 249 230 237 217 223 232 239 241 320 190 194 188 192 188 321 245 252 240 247 135 135 298 325 295 316 296 319 132 132 133 133 278 293 299 326 298 325 158 158 137 137 61 61 281 296 3 317 2 327 300 328 282 297 285 300 163 163 301 329 165 165 260 270 165 165 301 329 118 118 302 330 272 285 269 282 2 327 255 331 268 281 269 282 79 79 254 261 302 330 256 263 297 324 226 232 225 231 297 324 225 231 215 220 230 237 145 222 217 223 163 332 230 237 231 238 163 332 231 238 280 295 282 297 299 333 93 93 2 327 269 282 281 296 79 79 78 78 268 281 303 334 259 268 260 270 265 278 304 335 285 300 215 220 225 322 227 233 145 222 230 237 163 332 201 205 243 323 200 204 297 324 215 220 214 218 188 321 189 235 245 252 34 34 305 336 33 33 37 37 20 20 33 337 303 339 306 338 304 335 303 334 260 270 301 329 307 340 163 163 164 164 45 45 47 47 165 165 146 146 145 145 307 340 153 153 307 340 273 286 309 343 300 342 308 341 279 344 309 343 308 341 304 335 306 338 308 345 265 278 303 339 304 335 304 335 308 345 300 328 306 346 279 344 308 341 94 94 93 93 277 318 278 347 93 93 299 333 1 1 133 133 59 59 221 227 310 348 124 174 284 299 262 272 311 349 196 200 173 173 123 175 40 40 41 41 144 144 122 122 170 170 143 143 284 299 311 349 264 350 181 185 312 351 263 273 261 271 251 258 263 352 270 283 313 353 271 284 286 301 208 310 287 302 315 356 276 355 314 354 120 120 315 356 314 354 302 330 314 354 276 355 256 263 302 330 257 266 270 283 268 281 274 357 274 357 275 358 270 283 68 68 313 353 178 359 316 361 292 309 179 360 178 359 177 362 68 68 314 354 118 118 120 120 314 354 302 330 118 118 117 117 294 314 119 119 124 124 310 363 294 314 117 117 44 44 294 314 74 74 168 313 167 364 169 311 75 75 167 364 142 142 24 366 140 365 160 367 126 126 125 125 154 154 23 368 24 366 300 342 295 316 299 326 16 16 84 84 219 369 19 19 12 371 10 370 197 372 86 86 10 370 34 34 317 373 305 336 31 31 32 32 318 374 33 337 305 375 37 37 39 39 318 377 32 376 258 378 211 215 56 56 196 379 51 51 50 50 182 186 311 381 319 380 311 349 262 272 312 382 42 383 4 4 266 279 251 258 171 384 263 352 9 9 8 8 171 384 52 52 166 166 221 385 312 351 319 380 311 381 290 386 169 169 161 161 312 382 262 272 261 271 97 97 80 80 234 387 100 100 89 389 87 388 80 80 65 65 233 390 196 379 161 161 51 51 166 166 310 391 221 385 53 53 52 52 221 385 6 6 42 383 40 392 53 53 221 385 170 393 42 383 6 6 4 4 8 8 170 393 171 384 264 350 42 383 266 279 251 258 9 9 171 384 182 186 319 380 181 185 129 129 320 394 183 187 176 178 244 395 174 176 141 141 24 24 26 26 29 29 159 159 28 28 27 27 119 183 30 30 176 178 175 177 321 396 23 23 315 397 120 182 131 131 322 398 129 129 115 115 113 113 140 365 244 395 160 367 174 176 29 399 156 156 126 126 154 154 150 150 23 368 149 149 315 400 23 368 30 401 152 152 151 151 131 131 321 402 322 398 321 396 175 177 320 403 30 401 151 151 156 156 160 367 125 125 174 176 115 115 140 365 183 404 113 113 142 142 140 365 150 150 149 149 23 368 320 394 322 398 321 402 320 403 175 177 180 184 310 405 179 181 152 152 176 178 321 396 244 395 183 404 320 403 180 184 131 131 244 251 321 402 129 129 322 398 320 394 30 401 156 156 29 399 126 126 160 367 29 399 284 299 264 350 266 279 3 3 277 292 296 319 295 316 298 325 299 326 292 309 316 361 168 313 313 353 323 406 178 359 209 307 291 308 293 312 292 309 70 70 179 360 72 72 71 71 292 309 69 69 271 284 313 353 270 283 275 358 313 353 291 308 75 75 169 311 213 269 212 306 289 304 119 119 294 314 310 363 323 406 313 353 275 358 69 69 71 71 92 92 69 69 313 353 68 68 72 72 292 309 74 74 283 298 291 308 286 301 302 330 276 355 257 266 260 270 213 269 289 304 75 75 291 308 73 73 263 352 312 382 261 271 182 186 264 274 311 381 181 185 319 380 312 351 196 379 50 50 40 392 40 392 50 50 6 6 8 8 53 53 170 393 172 172 221 227 124 174 196 200 123 175 290 407 196 379 290 386 161 161 168 168 310 391 166 166 180 184 115 115 183 404 300 328 299 333 282 297 282 297 93 93 91 91 281 296 92 92 94 94 281 296 94 94 3 317 247 254 153 153 249 256 277 318 93 93 278 347 84 84 218 408 219 369 10 370 86 86 19 19 84 84 83 83 218 408 210 214 290 409 218 408 197 372 56 56 54 54 31 31 318 374 317 373 318 377 38 38 305 375 197 372 258 378 56 56 197 372 54 54 86 86 12 371 18 18 22 22 20 20 35 410 33 337 17 17 16 16 35 410 83 83 210 214 218 408 305 336 317 373 318 374 305 375 38 38 37 37 133 133 61 61 59 59 61 61 135 135 158 158 61 61 133 133 135 135 134 134 278 293 298 325 277 292 132 132 296 319 135 135 134 134 298 325 301 329 280 411 303 334 280 411 306 346 303 334 316 361 310 412 168 313 177 362 70 70 68 68 179 360 70 70 177 362 75 75 74 74 167 364 306 346 280 411 279 344 309 343 279 344 297 413 309 343 214 414 136 136 138 138 136 136 214 414 309 343 136 136 157 157 309 343 297 413 214 414 137 137 139 139 60 60 307 340 164 164 273 286 163 163 280 411 301 329 145 145 163 163 307 340 146 146 307 340 153 153 295 316 157 157 158 158 249 256 153 153 273 286 260 270 289 304 165 165 254 261 272 285 302 330 287 302 265 278 285 300 265 278 259 277 303 339 255 331 253 415 79 79 248 255 2 2 0 0 255 262 2 2 248 255 285 300 304 335 300 328 157 157 295 316 300 342 309 343 157 157 300 342 255 331 79 79 269 282 253 415 77 77 79 79 265 278 287 302 211 276 78 78 274 357 268 281 60 60 61 61 137 137 107 107 106 106 324 416 233 240 76 417 257 290 104 104 325 418 109 109 101 101 98 98 110 419 105 420 89 389 103 103 97 97 234 387 110 419 89 389 100 100 99 99 64 64 76 421 233 390 239 422 67 67 66 66 104 104 324 423 325 418 324 416 106 106 326 424 239 422 66 66 82 82 89 389 99 99 103 103 101 101 110 419 108 425 98 98 97 97 110 419 65 65 64 64 233 390 326 426 325 418 324 423 326 424 106 106 112 112 107 107 324 416 105 420 108 425 326 424 112 112 104 104 105 105 324 423 109 109 325 418 326 426 239 422 82 82 87 388 87 388 82 82 100 100 80 80 233 390 234 387 235 242 233 240 257 290 276 291 315 427 239 246 239 422 315 428 67 67 209 213 290 409 210 214 197 201 213 217 258 429 204 208 218 224 212 216 315 430 323 406 275 358 315 430 178 359 323 406 179 360 310 412 316 361 293 312 290 431 209 307 293 312 169 311 290 431 289 304 45 45 165 165 46 46 44 44 117 117 39 39 32 376 22 22 220 226 219 225 205 209 10 10 11 11 198 202 197 201 199 203 213 217 39 39 38 38 318 377 218 224 290 432 212 216 31 31 317 373 34 34 20 20 17 17 35 410 32 376 12 371 22 22 16 16 219 369 35 410 12 371 19 19 18 18 78 288 76 421 64 64 142 142 154 154 24 366 25 25 23 23 120 182 119 183 310 433 30 30 30 401 310 405 152 152 178 180 315 400 149 149 112 112 101 101 108 425 109 109 326 426 108 108 107 107 105 420 103 103 267 280 234 241 236 243 87 87 88 88 238 245 237 244 276 291 239 246 315 428 275 289 67 67</p>
                </polylist>
            </mesh>
        </geometry>
    </library_geometries>
    <library_visual_scenes>
        <visual_scene id="VisualSceneNode">
            <node id="node0" name="m0" type="NODE">
                <instance_geometry url="#mesh0">
                    <bind_material>
                        <technique_common>
                            <instance_material symbol="Material1" target="#mat0">
                                <bind_vertex_input semantic="UVSET0" input_semantic="TEXCOORD" input_set="0"></bind_vertex_input>
                            </instance_material>
                        </technique_common>
                    </bind_material>
                </instance_geometry>
            </node>
        </visual_scene>
    </library_visual_scenes>
    <scene>
        <instance_visual_scene url="#VisualSceneNode"></instance_visual_scene>
    </scene>
</COLLADA>
