<?xml version="1.0"?>
<COLLADA xmlns="http://www.collada.org/2005/11/COLLADASchema" version="1.4.1">
    <asset>
        <contributor>
            <authoring_tool>J3D Ripoff Exporter</authoring_tool>
        </contributor>
        <created>2024-08-02T13:58:35.078Z</created>
        <modified>2024-08-02T13:58:35.078Z</modified>
		<unit meter="0.01" name="centimeter" ></unit>
        <up_axis>Y_UP</up_axis>
    </asset>
    <library_images>
        <image id="tex0">
            <init_from>donkey_all.png</init_from>
        </image>
    </library_images>
    <library_effects>
        <effect id="effect0">
            <profile_COMMON>
                <newparam sid="surface0">
                    <surface type="2D">
                        <init_from>tex0</init_from>
                    </surface>
                </newparam>
                <newparam sid="sampler0">
                    <sampler2D>
                        <source>surface0</source>
                    </sampler2D>
                </newparam>
                <technique sid="COMMON">
                    <blinn>
                        <diffuse>
                            <texture texture="sampler0" texcoord="UVSET0"></texture>
                        </diffuse>
                    </blinn>
                </technique>
            </profile_COMMON>
        </effect>
    </library_effects>
    <library_materials>
        <material id="mat0" name="donkey_All">
            <instance_effect url="#effect0"></instance_effect>
        </material>
    </library_materials>
    <library_geometries>
        <geometry id="mesh0">
            <mesh>
                <source id="points0">
                    <float_array id="pointarray0" count="981">20.95703125 16.6796875 -1.6875 20.94921875 16.14453125 4.171875 8.8515625 14.87890625 -3.46484375 8.83984375 14.87890625 5.93359375 45.44921875 0.2734375 -1.85546875 45.0234375 0.01953125 -6.07421875 36.23046875 -1.59375 -0.8671875 36.15625 -1.5234375 -6.63671875 38.3125 13.203125 -8.375 42.65234375 13.05078125 -9.0078125 38.27734375 14.58203125 -3.68359375 43.13671875 14.2734375 -4.21484375 38.44140625 13.8515625 0.90234375 43.56640625 13.33984375 0.109375 55.3828125 4.68359375 -10.71875 46.34765625 6.49609375 -10.08203125 51.99609375 -0.86328125 -6.0703125 52.265625 -0.7109375 -2.33203125 47.1328125 6.90625 1.47265625 56.0859375 4.9765625 0.76953125 69.93359375 -1.125 13.66796875 69.74609375 -1.546875 9.8359375 73.78125 -5.94921875 13.84765625 72.88671875 -6.21484375 10.5078125 70.9609375 -7.15625 16.296875 67.84375 -2.66015625 16.7734375 65.578125 -9.33203125 16.56640625 63.765625 -13.1484375 13.10546875 58.90625 -6.4609375 16.4765625 58.21875 -11.3203125 12.5859375 59.51953125 -10.68359375 8.51953125 65.1171875 -12.48828125 9.05078125 61.73046875 -5.83984375 6.55859375 67.4453125 -9.078125 7.9453125 65.6328125 1.76171875 13.4375 65.76171875 0.90234375 8.94140625 63.12109375 -0.359375 17.06640625 60.26171875 2.8984375 8.234375 60.74609375 3.7734375 12.546875 57.65625 2.17578125 16.265625 54.55859375 -2.16015625 5.12890625 55.015625 -7.32421875 7.44921875 55.84375 5.6640625 11.87890625 49.46875 7.9609375 10.70703125 55.53125 4.91015625 7.33203125 49.75390625 7.1015625 6.30078125 47.44921875 6.3125 14.69140625 53.03125 4.22265625 15.578125 45.62890625 8.8671875 5.3671875 44.890625 9.0859375 9.953125 43.30078125 7.99609375 13.8203125 51.6015625 -3.15234375 15.61328125 54.04296875 -7.7734375 11.6640625 2.83984375 -11.328125 -19.5625 0.3359375 -4.3515625 -17.3984375 3.5546875 -11.26953125 -9.04296875 0.3984375 -9.12109375 -8.50390625 50.50390625 13.50390625 -27.86328125 42.15625 11.69140625 -24.765625 49.3984375 8.12890625 -23.4296875 44.65625 7.3046875 -21.65625 46.6875 7.546875 -17.3125 51.53515625 8.2109375 -19.46875 47.4375 12.25390625 -14.75 56.43359375 15.06640625 -17.68359375 7.2578125 -10.58203125 1.41015625 14.3046875 -12.3046875 1.4140625 7.359375 -11.58203125 -8.4453125 14.1484375 -12.09765625 -8.33203125 70.62890625 10.8671875 -5.65625 69.59765625 9.55859375 -9.58984375 76.78515625 8.2890625 -6.1171875 75.3359375 6.796875 -9.40625 75.98828125 6.671875 -2.76953125 70.34375 9.375 -1.7265625 73.6796875 2.76171875 -1.53515625 73.4375 -1.25390625 -4.01171875 67.10546875 3.05078125 0 67.71875 -1.60546875 -3.6484375 67.32421875 -1.51171875 -7.87109375 73.0234375 -1.17578125 -8.234375 66.05859375 3.296875 -11.22265625 72.79296875 2.93359375 -10.5859375 63.515625 12.0390625 -5.52734375 64.140625 10.234375 -9.8984375 64.984375 10.03515625 -0.84375 57.2421875 10.98046875 -9.7890625 58.3828125 13.296875 -5.265625 58.375 11.72265625 -0.41796875 59.6640625 0.35546875 -3.26171875 59.4296875 0.24609375 -6.8359375 7.56640625 -14.1484375 -18.16015625 14.09375 -15.5546875 -14.94921875 53.5 13.82421875 -4.984375 48.5078125 13.76171875 -4.57421875 53.07421875 11.84765625 -9.7890625 48.19140625 12.22265625 -9.17578125 48.83203125 12.55859375 -0.1171875 53.6640625 12.08984375 -0.3984375 32.171875 -5.890625 -7.5546875 31.1875 -5.4140625 -0.890625 31.171875 -4.796875 4.609375 28.73828125 -7.8046875 10.80078125 33.88671875 -3.7890625 6.3671875 33.68359375 -4.15625 8.921875 45.98046875 -3.60546875 20.953125 44.66796875 -2.12890625 25.265625 43.6328125 -0.64453125 19.5625 41.92578125 0.4375 23.7265625 38.484375 -0.8515625 27.19140625 41.06640625 -2.796875 28.38671875 14.60546875 -11.5 13.78515625 14.35546875 -5.28125 20.52734375 23.78125 -10.234375 14.23828125 22.08203125 -5.56640625 21.44140625 21.03125 -9.69140625 -0.171875 25.65234375 -6.59765625 -0.5859375 23.8984375 -9.953125 -8.7734375 28.30859375 -8.05859375 -8.2578125 39.4375 -9.46484375 28.78125 43.0859375 -13.9921875 30.14453125 38.1953125 -14.66015625 25.75390625 39.28515625 -17.71484375 26.97265625 26.390625 -9.66015625 14.30859375 24.859375 -5.68359375 21.04296875 30.46875 7.28125 21.01953125 21.91796875 9.6796875 18.6328125 33.13671875 8.7109375 18.04296875 21.43359375 12.98046875 12.96875 42.30078125 -20.0703125 28.09765625 42.11328125 -17.921875 23.0078125 45.26171875 -20.35546875 24.2890625 34.23828125 8.9140625 -22.25390625 32.51171875 14.99609375 -20.4140625 31.765625 7.984375 -21.796875 29.6640625 14.1640625 -20.11328125 40.765625 -14.8984375 21.46875 48.234375 -6.2421875 22.125 50.234375 -7.72265625 22.92578125 47.7109375 -4.734375 26.859375 49.44921875 -6.7734375 27.7421875 43.51953125 -5.921875 29.75390625 44.953125 -7.546875 30.4453125 35.5390625 -13.3359375 24.83984375 37.984375 -13.71484375 20.78515625 34.171875 -9.984375 23.453125 35.4609375 -10.21484375 19.83984375 29.94140625 -8.0078125 21.51953125 31.953125 -8.28125 17.76953125 40.3515625 3.1484375 17.80859375 38.328125 4.04296875 21.6171875 35.11328125 2.5703125 25.77734375 34.015625 2.91015625 -18.67578125 30.6171875 -2.26171875 -19.06640625 33.625 -3.1953125 25.66015625 26.28125 -2.6015625 23.55859375 26.859375 -6.3359375 21.71484375 24.3671875 -0.5625 23.28515625 22.02734375 2.02734375 22.3828125 20.96875 16.94140625 -10.484375 20.97265625 14.6953125 -15.765625 29.48046875 16.61328125 -11.34765625 28.890625 15.86328125 -17.9765625 8.859375 14.875 -11.359375 20.9609375 16.9140625 -6.0859375 8.66015625 13.0859375 12.41796875 20.9453125 15.04296875 8.5703125 37.1875 -6.390625 27.83203125 47.6328125 -7.4296875 11.359375 48.80859375 -7.0234375 7.0234375 43.265625 -5.25 10.66015625 43.75390625 -5.01953125 6.53125 41.75 11.08203125 4.67578125 40.8203125 10.87890625 9.16796875 39.81640625 9.3984375 13.02734375 8.5703125 -4.37890625 19.1953125 0.66796875 -2.3203125 15.8515625 7.85546875 6.15625 19.1953125 1.28515625 5.8515625 15.8515625 0.6484375 11.47265625 -7.33203125 0.9375 11.44921875 9.35546875 29.08984375 2.79296875 24.25 31.8125 16.44140625 -1.15234375 31.09765625 15.3984375 -6.53515625 49.8046875 0.18359375 4.42578125 42.91796875 -0.2734375 14.09375 33.70703125 13.39453125 9.84765625 33.69140625 14.453125 4.84375 7.24609375 -11.109375 12.046875 0.67578125 -9.12109375 10.77734375 0.38671875 -10.2890625 1.40234375 53.62890625 -14.35546875 29.59375 54.44921875 -14.44921875 25.81640625 53.4609375 -18.15234375 29.609375 53.375 -18.3359375 26.5078125 49.8046875 -18.08984375 31.19140625 49.6015625 -14.16015625 32.16796875 43.79296875 -18.6015625 30.12890625 49.296875 -13.6484375 22.52734375 49.5078125 -19.0078125 23.40234375 51.35546875 -9.4375 28.5390625 52.85546875 -10.375 24.65234375 47.4921875 -10.78125 31.44140625 45.33984375 -9.671875 20.58984375 56.7734375 10.28125 -20.88671875 54.50390625 10.01171875 -24.625 14.73046875 -4.5546875 -27.34375 6.921875 -11.96875 -24.98828125 18.01953125 -7.78515625 -29.015625 11.4375 -14.40234375 -27.11328125 48.94140625 21.95703125 -21.9609375 53.05078125 23.0625 -23.203125 51.42578125 20.265625 -17.81640625 55.59765625 21.4921875 -19.31640625 47.390625 19.23046875 -25.9921875 51.25 20.59765625 -27.1640625 15.36328125 -16.0703125 -28.67578125 21.28125 -10.03125 -30.4296875 19.6328125 -1.15625 -24.796875 23.125 -5.3203125 -25.74609375 61.625 10.94140625 -22.3125 59.37890625 10.4296875 -26.13671875 20.3046875 -21.74609375 -28.56640625 25.453125 -21.08203125 -25.234375 24.78125 -24.48828125 -32.203125 30.41015625 -24.45703125 -27.23046875 56.6171875 15.09765625 -29.9140625 62.37890625 23.578125 -25.921875 60.0703125 22.07421875 -30.07421875 66.90625 22.43359375 -27.12109375 64.8125 20.58984375 -30.20703125 67.83984375 21.33203125 -23.63671875 63.46875 22.80859375 -22.24609375 43.90234375 -7.359375 19.296875 67.109375 15.9609375 -21.46875 66.59765625 12.80078125 -23.53515625 61.36328125 16.76171875 -18.91796875 41 -23.93359375 -32.03125 40.96875 -22.4140625 -36.2421875 36.26171875 -27.125 -33.68359375 34.86328125 -26.5234375 -38.37109375 38.84765625 -22.0078125 -27.6640625 33.17578125 -25.828125 -29.640625 36.52734375 -20.1640625 -25.46484375 28.37109375 -14.66796875 -19.73828125 32.33203125 -17.4140625 -22.8515625 17.9921875 -17.23046875 -20.25 64.41796875 12.2265625 -27.375 20.58984375 -18.99609375 -31.890625 26.20703125 -13.20703125 -33.75390625 18.49609375 -17.60546875 -29.7734375 23.734375 -11.62109375 -31.62109375 41.00390625 -18.71875 -33.08984375 38.48828125 -16.37890625 -30.109375 39.05859375 -16.8046875 -36.6796875 34.5234375 -13.1328125 -34.73046875 57.26171875 23.6484375 -24.40234375 59.671875 22.16015625 -20.71875 62.4296875 14.734375 -29.6953125 28.546875 -9.5703125 -29.1484375 31.6171875 -11.44921875 -31.74609375 55.47265625 21.2890625 -27.94921875 30.3984375 -26.59765625 -36.10546875 29.625 -24.38671875 -38.83984375 24.50390625 -21.7265625 -35.1953125 22.25390625 -13.9375 -14.82421875 29.16796875 -15.30859375 -37.1796875 33.8515625 -19.87109375 -39.41796875 45.23046875 18.7890625 -15.64453125 42.6171875 20.42578125 -19.6953125 -3.39453125 7.796875 5.66796875 -5.046875 1.9140625 5.81640625 -3.37109375 7.796875 -4.31640625 -5.01953125 1.9296875 -4.31640625 41.24609375 17.8359375 -24.140625 36.1796875 16.765625 -21.9140625 37.015625 18.64453125 -17.51171875 40.140625 17.58203125 -13.49609375 33.83203125 -13.26953125 -25.88671875 29.41015625 -8.9765625 -22.50390625 24.75390625 -7.18359375 -27.12109375 -3.34765625 -5.125 5.97265625 -3.30859375 -5.08984375 -4.31640625 28.40234375 -6.05078125 -14.33203125 37.25 2.86328125 -12.86328125 33.94140625 17.01953125 -15.328125 36.3984375 15.9140625 -11.9296875 15.16015625 -18.86328125 -25.5625 77.15625 0.21484375 -6.3125 78.55859375 3.625 -8.4375 78.97265625 3.54296875 -4.2109375 37.99609375 6.1171875 -10.8359375 37.83203125 1.32421875 2.5625 72.203125 -10.74609375 14.8359375 73.19921875 -10.73046875 11.265625 69.1640625 -13.2109375 11.8359375 27.15234375 -5.36328125 -21.0703125 68.5859375 17.37890625 -29.21484375 68.71875 14.3203125 -26.59375 70.76953125 17.953125 -25.375 47.16015625 -22.30859375 27.16015625 51.9765625 -21.67578125 27.05859375 34.73828125 -3.390625 13.51171875 19.28125 -10.91015625 -8.4296875 28.3515625 -8.078125 16.80078125 30.69921875 14.76953125 1.6953125 30.25 13.26171875 -9.390625 35.4765625 9.48046875 -8.9140625 34.12109375 -2.0703125 -9.0546875 33.51953125 -2.1328125 -14.24609375 0.421875 6.84375 -12.97265625 -1.515625 -0.53125 -13.91796875 6.86328125 7.7890625 -16.94921875 -3 1.78515625 11.07421875 -2.96875 1.78515625 -9.7578125 36.5546875 8.1171875 2.40234375 36.671875 3.52734375 14.51171875 32.6484375 10.7265625 13.4921875 30.48828125 -6.98046875 14.10546875 19.52734375 9.4140625 -19.5390625 22.22265625 3.32421875 -21.765625 25.984375 5.0625 -20.63671875 27.1953125 -4.390625 -19.69140625 34.6015625 -3.66015625 2.37890625 7.5390625 1.296875 -21.94140625 49.59765625 -21.51171875 30.1796875 16.01171875 3.8671875 -21.8828125</float_array>
                    <technique_common>
                        <accessor count="327" source="#pointarray0" stride="3">
                            <param name="X" type="float"/>
                            <param name="Y" type="float"/>
                            <param name="Z" type="float"/>
                        </accessor>
                    </technique_common>
                </source>
                <source id="uvs0">
                    <float_array id="uvarray0" count="868">0.6300129890441895 0.406948983669281 0.6032260060310364 0.4068149924278259 0.6383609771728516 0.3829209804534912 0.5954020023345947 0.3827049732208252 0.882652997970581 0.464493989944458 0.8978800177574158 0.464493989944458 0.882652997970581 0.46097302436828613 0.8978800177574158 0.46097302436828613 0.6550880074501038 0.45840901136398315 0.6550880074501038 0.46347397565841675 0.6407899856567383 0.45840901136398315 0.6407899856567383 0.46094197034835815 0.6264910101890564 0.45840901136398315 0.6264910101890564 0.46347397565841675 0.9131079912185669 0.4715350270271301 0.9131079912185669 0.464493989944458 0.8978800177574158 0.46889400482177734 0.882652997970581 0.46889400482177734 0.8674250245094299 0.464493989944458 0.8674250245094299 0.4715350270271301 0.5867739915847778 0.48829197883605957 0.6010720133781433 0.485759973526001 0.5867739915847778 0.49285101890563965 0.6010720133781433 0.49285101890563965 0.5724760293960571 0.49285101890563965 0.5724760293960571 0.485759973526001 0.815650999546051 0.4803360104560852 0.8308780193328857 0.4856169819831848 0.815650999546051 0.47681599855422974 0.8308780193328857 0.47681599855422974 0.8461059927940369 0.47681599855422974 0.8461059927940369 0.4856169819831848 0.8613340258598328 0.47681599855422974 0.8613340258598328 0.4803360104560852 0.5867739915847778 0.48170799016952515 0.6010720133781433 0.48170799016952515 0.5724760293960571 0.48170799016952515 0.6010720133781433 0.4776560068130493 0.5867739915847778 0.4751240015029907 0.5724760293960571 0.4776560068130493 0.8613340258598328 0.4702150225639343 0.8461059927940369 0.4724149703979492 0.5867739915847778 0.473097026348114 0.5867739915847778 0.4665129780769348 0.6010720133781433 0.4705650210380554 0.6010720133781433 0.4665129780769348 0.5724760293960571 0.4665129780769348 0.5724760293960571 0.4705650210380554 0.6010720133781433 0.462460994720459 0.5867739915847778 0.4599289894104004 0.5724760293960571 0.462460994720459 0.815650999546051 0.4702150225639343 0.8308780193328857 0.4724149703979492 0.7825790047645569 0.3749449849128723 0.7948290109634399 0.3689489960670471 0.8209919929504395 0.37308698892593384 0.819832980632782 0.36555302143096924 0.9648820161819458 0.4715350270271301 0.9648820161819458 0.464493989944458 0.9496539831161499 0.46889400482177734 0.9496539831161499 0.464493989944458 0.93442702293396 0.464493989944458 0.93442702293396 0.46889400482177734 0.9191989898681641 0.464493989944458 0.9191989898681641 0.4715350270271301 0.8714330196380615 0.38197600841522217 0.871425986289978 0.3881160020828247 0.8255559802055359 0.3816850185394287 0.8334770202636719 0.38019198179244995 0.6407899856567383 0.49031901359558105 0.6550880074501038 0.4877859950065613 0.6407899856567383 0.49343299865722656 0.6550880074501038 0.49343299865722656 0.6264910101890564 0.49343299865722656 0.6264910101890564 0.4877859950065613 0.8674250245094299 0.48209601640701294 0.882652997970581 0.48913800716400146 0.8674250245094299 0.47857600450515747 0.882652997970581 0.47857600450515747 0.8978800177574158 0.47857600450515747 0.8978800177574158 0.48913800716400146 0.9131079912185669 0.47857600450515747 0.9131079912185669 0.48209601640701294 0.6407899856567383 0.48373401165008545 0.6550880074501038 0.48373401165008545 0.6264910101890564 0.48373401165008545 0.6550880074501038 0.4796820282936096 0.6407899856567383 0.477150022983551 0.6264910101890564 0.4796820282936096 0.882652997970581 0.47417497634887695 0.8978800177574158 0.47417497634887695 0.7878209948539734 0.38263100385665894 0.8038970232009888 0.3875430226325989 0.6407899856567383 0.47411102056503296 0.6407899856567383 0.46752601861953735 0.6550880074501038 0.4715780019760132 0.6550880074501038 0.46752601861953735 0.6264910101890564 0.46752601861953735 0.6264910101890564 0.4715780019760132 0.8358389735221863 0.437296986579895 0.8573150038719177 0.43731701374053955 0.8370199799537659 0.44389599561691284 0.8574000000953674 0.44396501779556274 0.886372983455658 0.43730199337005615 0.907817006111145 0.4371830224990845 0.8870059847831726 0.4435639977455139 0.9072359800338745 0.44295400381088257 0.5534110069274902 0.46549999713897705 0.5391129851341248 0.46549999713897705 0.5534110069274902 0.4614480137825012 0.5391129851341248 0.4589160084724426 0.524815022945404 0.4614480137825012 0.524815022945404 0.46549999713897705 0.929606020450592 0.38889098167419434 0.9660500288009644 0.3883259892463684 0.931693971157074 0.41079801321029663 0.9655799865722656 0.4067729711532593 0.8639199733734131 0.4107769727706909 0.8687949776649475 0.4250919818878174 0.8357269763946533 0.4089009761810303 0.8330399990081787 0.425229012966156 0.7699679732322693 0.46889400482177734 0.7699679732322693 0.475055992603302 0.785194993019104 0.4715350270271301 0.785194993019104 0.475055992603302 0.9306269884109497 0.4248179793357849 0.9643009901046753 0.42907601594924927 0.5240110158920288 0.43390601873397827 0.5317540168762207 0.4093160033226013 0.556164026260376 0.43644702434539795 0.5576210021972656 0.4080290198326111 0.785194993019104 0.4838569760322571 0.8004230260848999 0.475055992603302 0.8004230260848999 0.4838569760322571 0.7165539860725403 0.45358699560165405 0.7089110016822815 0.45292001962661743 0.7198230028152466 0.44679999351501465 0.7136849761009216 0.43551599979400635 0.8004230260848999 0.4715350270271301 0.5534110069274902 0.4695519804954529 0.5534110069274902 0.475629985332489 0.5391129851341248 0.47208499908447266 0.5391129851341248 0.473097026348114 0.524815022945404 0.4695519804954529 0.524815022945404 0.475629985332489 0.785194993019104 0.46625399589538574 0.8004230260848999 0.46625399589538574 0.785194993019104 0.4627329707145691 0.8004230260848999 0.4627329707145691 0.785194993019104 0.4592130184173584 0.8004230260848999 0.4592130184173584 0.5534110069274902 0.4573959708213806 0.5391129851341248 0.4542980194091797 0.524815022945404 0.4573959708213806 0.771291971206665 0.4447169899940491 0.767982006072998 0.4390559792518616 0.7880340218544006 0.4418179988861084 0.7777130007743835 0.4362580180168152 0.9618669748306274 0.44557297229766846 0.9467809796333313 0.4425309896469116 0.9645980000495911 0.4410160183906555 0.9627460241317749 0.436460018157959 0.9688259959220886 0.4292449951171875 0.9700189828872681 0.4066479802131653 0.6701939702033997 0.4071509838104248 0.6943179965019226 0.40727299451828003 0.6738399863243103 0.44050300121307373 0.7039399743080139 0.43701398372650146 0.6744170188903809 0.3831019997596741 0.6501039862632751 0.4070500135421753 0.56038498878479 0.382066011428833 0.5831350088119507 0.40671300888061523 0.7699679732322693 0.4627329707145691 0.8308780193328857 0.4680140018463135 0.8461059927940369 0.4680140018463135 0.8308780193328857 0.46361398696899414 0.8461059927940369 0.46361398696899414 0.8308780193328857 0.46009302139282227 0.8461059927940369 0.46009302139282227 0.6010720133781433 0.4573959708213806 0.5867739915847778 0.4573959708213806 0.5724760293960571 0.4573959708213806 0.9550889730453491 0.38200199604034424 0.9393939971923828 0.366303026676178 0.9550880193710327 0.38348299264907837 0.9393939971923828 0.3677840232849121 0.6561710238456726 0.3594520092010498 0.5799210071563721 0.3599569797515869 0.5150949954986572 0.4490079879760742 0.5129709839820862 0.44248902797698975 0.5221620202064514 0.44851797819137573 0.5176309943199158 0.43313902616500854 0.6231549978256226 0.4436429738998413 0.6559590101242065 0.4403889775276184 0.8613340258598328 0.46361398696899414 0.815650999546051 0.46361398696899414 0.5740119814872742 0.4400479793548584 0.6052780151367188 0.4435669779777527 0.9266030192375183 0.38199299573898315 0.9155160188674927 0.3662949800491333 0.8714410066604614 0.36556899547576904 0.5391129851341248 0.48626601696014404 0.5534110069274902 0.48373401165008545 0.5391129851341248 0.4898120164871216 0.5534110069274902 0.4898120164871216 0.524815022945404 0.4898120164871216 0.524815022945404 0.48373401165008545 0.7699679732322693 0.47857600450515747 0.815650999546051 0.475055992603302 0.815650999546051 0.47857600450515747 0.5391129851341248 0.4796820282936096 0.5534110069274902 0.4796820282936096 0.524815022945404 0.4796820282936096 0.815650999546051 0.46889400482177734 0.93442702293396 0.47417497634887695 0.9496539831161499 0.47417497634887695 0.7155699729919434 0.3791769742965698 0.7002310156822205 0.38328200578689575 0.7155699729919434 0.394228994846344 0.7002310156822205 0.39514100551605225 0.6948059797286987 0.47411102056503296 0.6948059797286987 0.477150022983551 0.6805070042610168 0.4715780019760132 0.6805070042610168 0.4796820282936096 0.7091040015220642 0.4715780019760132 0.7091040015220642 0.4796820282936096 0.7002310156822205 0.40061497688293457 0.7155699729919434 0.40061497688293457 0.7309079766273499 0.38328200578689575 0.7309079766273499 0.39514100551605225 0.93442702293396 0.47857600450515747 0.9496539831161499 0.47857600450515747 0.6876819729804993 0.4060879945755005 0.6695550084114075 0.4060879945755005 0.6876819729804993 0.41247397661209106 0.6695550084114075 0.41247397661209106 0.9648820161819458 0.47857600450515747 0.6948059797286987 0.49031901359558105 0.7091040015220642 0.4877859950065613 0.6948059797286987 0.49343299865722656 0.7091040015220642 0.49343299865722656 0.6805070042610168 0.49343299865722656 0.6805070042610168 0.4877859950065613 0.815650999546051 0.4627329707145691 0.9191989898681641 0.48209601640701294 0.93442702293396 0.48913800716400146 0.9191989898681641 0.47857600450515747 0.6500329971313477 0.4215959906578064 0.6416670083999634 0.42615699768066406 0.6695550084114075 0.4215959906578064 0.6779209971427917 0.42615699768066406 0.6500329971313477 0.417946994304657 0.6695550084114075 0.417946994304657 0.6500329971313477 0.41247397661209106 0.6500329971313477 0.40061497688293457 0.6500329971313477 0.4060879945755005 0.6695550084114075 0.40061497688293457 0.9496539831161499 0.48913800716400146 0.7002310156822205 0.4097369909286499 0.7155699729919434 0.4097369909286499 0.7002310156822205 0.4033510088920593 0.7155699729919434 0.4033510088920593 0.7408130168914795 0.4215959906578064 0.743457019329071 0.41247397661209106 0.7309079766273499 0.4215959906578064 0.7309079766273499 0.41247397661209106 0.6948059797286987 0.48373401165008545 0.6805070042610168 0.48373401165008545 0.9648820161819458 0.48209601640701294 0.7309079766273499 0.4033510088920593 0.7309079766273499 0.4097369909286499 0.7091040015220642 0.48373401165008545 0.6876819729804993 0.4215959906578064 0.7002310156822205 0.4215959906578064 0.7002310156822205 0.41247397661209106 0.6681600213050842 0.3860189914703369 0.6834989786148071 0.38328200578689575 0.7155699729919434 0.41247397661209106 0.7155699729919434 0.4215959906578064 0.6805070042610168 0.46752601861953735 0.6948059797286987 0.46752601861953735 0.8915039896965027 0.35655200481414795 0.8922240138053894 0.3526039719581604 0.8445379734039307 0.35655999183654785 0.844539999961853 0.35263001918792725 0.7091040015220642 0.46752601861953735 0.7091040015220642 0.46347397565841675 0.6948059797286987 0.46094197034835815 0.6805070042610168 0.46347397565841675 0.6319059729576111 0.4060879945755005 0.6319059729576111 0.40061497688293457 0.7309079766273499 0.40061497688293457 0.8929399847984314 0.3566640019416809 0.8445379734039307 0.35670799016952515 0.6319059729576111 0.41247397661209106 0.8075349926948547 0.4070240259170532 0.7972850203514099 0.42536598443984985 0.93442702293396 0.46097302436828613 0.9496539831161499 0.46097302436828613 0.7091040015220642 0.45840901136398315 0.6948059797286987 0.45840901136398315 0.6805070042610168 0.45840901136398315 0.6876819729804993 0.40061497688293457 0.8902660012245178 0.49177801609039307 0.9039710164070129 0.4935380220413208 0.6264910101890564 0.49849700927734375 0.6550880074501038 0.49849700927734375 0.6709750294685364 0.475629985332489 0.6709750294685364 0.46752601861953735 0.7186359763145447 0.475629985332489 0.6709750294685364 0.46549999713897705 0.7186359763145447 0.46752601861953735 0.743457019329071 0.40061497688293457 0.6319059729576111 0.4215959906578064 0.6646199822425842 0.46752601861953735 0.6169589757919312 0.46752601861953735 0.6169589757919312 0.46549999713897705 0.6646199822425842 0.475629985332489 0.6646199822425842 0.48373401165008545 0.6169589757919312 0.475629985332489 0.6169589757919312 0.48373401165008545 0.6646199822425842 0.4877859950065613 0.8674250245094299 0.4625539779663086 0.6106039881706238 0.4644870162010193 0.5724760293960571 0.4989290237426758 0.852196991443634 0.49177801609039307 0.8384919762611389 0.49001801013946533 0.8247870206832886 0.49177801609039307 0.8765619993209839 0.4935380220413208 0.6169589757919312 0.4877859950065613 0.9648820161819458 0.4627060294151306 0.743457019329071 0.4063349962234497 0.6918650269508362 0.38328200578689575 0.7002310156822205 0.42615699768066406 0.7309079766273499 0.42615699768066406 0.6542159914970398 0.394228994846344 0.7186359763145447 0.48373401165008545 0.7186359763145447 0.4877859950065613 0.7091040015220642 0.49849700927734375 0.9191989898681641 0.4626380205154419 0.9420409798622131 0.49177801609039307 0.6709750294685364 0.48373401165008545 0.9283360242843628 0.4935380220413208 0.6709750294685364 0.4877859950065613 0.5629439949989319 0.4796820282936096 0.5629439949989319 0.48373401165008545 0.5152829885482788 0.4796820282936096 0.792809009552002 0.48737698793411255 0.7699679732322693 0.46097302436828613 0.5534110069274902 0.4958900213241577 0.5629439949989319 0.46347397565841675 0.850167989730835 0.39844799041748047 0.5146070122718811 0.4095500111579895 0.5294280052185059 0.3796190023422241 0.9421390295028687 0.43911802768707275 0.6209200024604797 0.456866979598999 0.6142169833183289 0.4436119794845581 0.6564030051231384 0.45759397745132446 0.664900004863739 0.44045400619506836 0.6660829782485962 0.45456600189208984 0.8177610039710999 0.4403979778289795 0.7982569932937622 0.43907397985458374 0.8213440179824829 0.4474160075187683 0.808230996131897 0.44284701347351074 0.6757280230522156 0.4550439715385437 0.8038039803504944 0.36559098958969116 0.8053230047225952 0.36305201053619385 0.7850810289382935 0.3809570074081421 0.9169449806213379 0.35751497745513916 0.8189489841461182 0.3575029969215393 0.6136400103569031 0.45635998249053955 0.5727750062942505 0.45636701583862305 0.5645470023155212 0.4520050287246704 0.5665670037269592 0.4399399757385254 0.607545018196106 0.4556419849395752 0.5552170276641846 0.45303601026535034 0.9293869733810425 0.44336998462677 0.9223020076751709 0.44054198265075684 0.9557459950447083 0.4935380220413208 0.6927340030670166 0.45448899269104004 0.550233006477356 0.3608279824256897 0.5968499779701233 0.3475779891014099 0.9199730157852173 0.4469969868659973 0.7140300273895264 0.40810102224349976 0.7208870053291321 0.40850400924682617 0.7214040160179138 0.4307199716567993 0.815650999546051 0.46097302436828613 0.5629439949989319 0.46549999713897705 0.5152829885482788 0.46347397565841675 0.6819390058517456 0.35890400409698486 0.7782689929008484 0.4259840250015259 0.762499988079071 0.4275779724121094 0.6137819886207581 0.46296799182891846 0.5629439949989319 0.459089994430542 0.7859990000724792 0.4057270288467407 0.7632129788398743 0.4048740267753601 0.6424639821052551 0.3478339910507202 0.5407940149307251 0.45138901472091675 0.589684009552002 0.4590659737586975 0.8740010261535645 0.44049400091171265 0.8735730051994324 0.44771498441696167 0.6386989951133728 0.4602530002593994 0.6999769806861877 0.3774759769439697 0.6805070042610168 0.49849700927734375 0.7186359763145447 0.46549999713897705 0.7692139744758606 0.3770869970321655 0.7658720016479492 0.38319700956344604 0.752236008644104 0.3837429881095886 0.6677979826927185 0.46161001920700073 0.6010720133781433 0.4989290237426758 0.6106039881706238 0.4665129780769348 0.6106039881706238 0.48170799016952515 0.5629439949989319 0.485759973526001 0.5629439949989319 0.48170799016952515 0.5629439949989319 0.4665129780769348 0.524815022945404 0.4958900213241577 0.5152829885482788 0.48373401165008545 0.8065140247344971 0.48913800716400146 0.7791039943695068 0.48913800716400146 0.5629439949989319 0.47259098291397095 0.5152829885482788 0.47259098291397095 0.5152829885482788 0.46549999713897705 0.6106039881706238 0.485759973526001 0.6106039881706238 0.47411102056503296 0.5629439949989319 0.47411102056503296 0.8613340258598328 0.46185302734375 0.5629439949989319 0.4644870162010193 0.6646199822425842 0.46549999713897705 0.9131079912185669 0.46262097358703613 0.815650999546051 0.46185302734375 0.5107830166816711 0.4332280158996582 0.7650780081748962 0.3973590135574341 0.7741469740867615 0.38757097721099854 0.7166540026664734 0.3828880190849304</float_array>
                    <technique_common>
                        <accessor count="434" source="#uvarray0" stride="2">
                            <param name="S" type="float"/>
                            <param name="T" type="float"/>
                        </accessor>
                    </technique_common>
                </source>
                <vertices id="vertices0">
                    <input semantic="POSITION" source="#points0"/>
                </vertices>
                <polylist count="650" material="Material1">
                    <input offset="0" semantic="VERTEX" source="#vertices0"/>
                    <input offset="1" semantic="TEXCOORD" source="#uvs0" set="0"/>
                    <vcount>3 3 3 3 3 3 3 3 3 3 3 3 3 3 3 3 3 3 3 3 3 3 3 3 3 3 3 3 3 3 3 3 3 3 3 3 3 3 3 3 3 3 3 3 3 3 3 3 3 3 3 3 3 3 3 3 3 3 3 3 3 3 3 3 3 3 3 3 3 3 3 3 3 3 3 3 3 3 3 3 3 3 3 3 3 3 3 3 3 3 3 3 3 3 3 3 3 3 3 3 3 3 3 3 3 3 3 3 3 3 3 3 3 3 3 3 3 3 3 3 3 3 3 3 3 3 3 3 3 3 3 3 3 3 3 3 3 3 3 3 3 3 3 3 3 3 3 3 3 3 3 3 3 3 3 3 3 3 3 3 3 3 3 3 3 3 3 3 3 3 3 3 3 3 3 3 3 3 3 3 3 3 3 3 3 3 3 3 3 3 3 3 3 3 3 3 3 3 3 3 3 3 3 3 3 3 3 3 3 3 3 3 3 3 3 3 3 3 3 3 3 3 3 3 3 3 3 3 3 3 3 3 3 3 3 3 3 3 3 3 3 3 3 3 3 3 3 3 3 3 3 3 3 3 3 3 3 3 3 3 3 3 3 3 3 3 3 3 3 3 3 3 3 3 3 3 3 3 3 3 3 3 3 3 3 3 3 3 3 3 3 3 3 3 3 3 3 3 3 3 3 3 3 3 3 3 3 3 3 3 3 3 3 3 3 3 3 3 3 3 3 3 3 3 3 3 3 3 3 3 3 3 3 3 3 3 3 3 3 3 3 3 3 3 3 3 3 3 3 3 3 3 3 3 3 3 3 3 3 3 3 3 3 3 3 3 3 3 3 3 3 3 3 3 3 3 3 3 3 3 3 3 3 3 3 3 3 3 3 3 3 3 3 3 3 3 3 3 3 3 3 3 3 3 3 3 3 3 3 3 3 3 3 3 3 3 3 3 3 3 3 3 3 3 3 3 3 3 3 3 3 3 3 3 3 3 3 3 3 3 3 3 3 3 3 3 3 3 3 3 3 3 3 3 3 3 3 3 3 3 3 3 3 3 3 3 3 3 3 3 3 3 3 3 3 3 3 3 3 3 3 3 3 3 3 3 3 3 3 3 3 3 3 3 3 3 3 3 3 3 3 3 3 3 3 3 3 3 3 3 3 3 3 3 3 3 3 3 3 3 3 3 3 3 3 3 3 3 3 3 3 3 3 3 3 3 3 3 3 3 3 3 3 3 3 3 3 3 3 3 3 3 3 3 3 3 3 3 3 3 3 3 3 3 3 3 3 3 3 3 3 3 3 3 3 3 3 3 3 3 3 3 3 3 3 3 3 3 3 3 3 3 3 3 3 3 3 3 3 3 3 3 3 3 3 3 3 3 3 3 3 3 3 3 3 3 3 3 3 3 3 3 3 3 3 3 3 3 3 3 3 3 3 3 3 3 3 3 3 3 3 3 3 3 3 3 3 3 3 3</vcount>
                    <p>2 2 1 1 0 0 3 3 1 1 2 2 6 6 5 5 4 4 7 7 5 5 6 6 10 10 9 9 8 8 11 11 9 9 10 10 12 12 11 11 10 10 13 13 11 11 12 12 16 16 15 15 14 14 5 5 15 15 16 16 5 5 17 17 4 4 16 16 17 17 5 5 4 4 19 19 18 18 17 17 19 19 4 4 22 22 21 21 20 20 23 23 21 21 22 22 22 22 25 25 24 24 20 20 25 25 22 22 28 28 27 27 26 26 29 29 27 27 28 28 32 32 31 31 30 30 33 33 31 31 32 32 21 21 34 34 20 20 35 35 34 34 21 21 25 25 34 34 36 36 20 20 34 34 25 25 37 37 34 34 35 35 38 38 34 34 37 37 39 39 34 34 38 38 36 36 34 34 39 39 32 32 41 41 40 40 30 30 41 41 32 32 44 44 43 43 42 42 45 45 43 43 44 44 47 47 43 43 46 46 42 42 43 43 47 47 48 48 43 43 45 45 49 49 43 43 48 48 50 50 43 43 49 49 46 46 43 43 50 50 52 52 28 28 51 51 29 29 28 28 52 52 30 30 27 27 29 29 31 31 27 27 30 30 52 52 30 30 29 29 41 41 30 30 52 52 42 42 37 37 44 44 38 38 37 37 42 42 47 47 38 38 42 42 39 39 38 38 47 47 55 55 54 54 53 53 56 56 54 54 55 55 59 59 58 58 57 57 60 60 58 58 59 59 60 60 62 62 61 61 59 59 62 62 60 60 61 61 64 64 63 63 62 62 64 64 61 61 67 67 66 66 65 65 68 68 66 66 67 67 71 71 70 70 69 69 72 72 70 70 71 71 71 71 74 74 73 73 69 69 74 74 71 71 77 77 76 76 75 75 78 78 76 76 77 77 81 81 80 80 79 79 82 82 80 80 81 81 70 70 83 83 69 69 84 84 83 83 70 70 74 74 83 83 85 85 69 69 83 83 74 74 86 86 83 83 84 84 87 87 83 83 86 86 88 88 83 83 87 87 85 85 83 83 88 88 16 16 89 89 17 17 90 90 89 89 16 16 81 81 90 90 14 14 79 79 90 90 81 81 92 92 67 67 91 91 68 68 67 67 92 92 95 95 94 94 93 93 96 96 94 94 95 95 98 98 94 94 97 97 93 93 94 94 98 98 9 9 94 94 96 96 11 11 94 94 9 9 13 13 94 94 11 11 97 97 94 94 13 13 89 89 77 77 19 19 78 78 77 77 89 89 91 91 55 55 53 53 67 67 55 55 91 91 79 79 76 76 78 78 80 80 76 76 79 79 7 101 100 100 99 99 6 102 100 100 7 101 89 89 79 79 78 78 90 90 79 79 89 89 93 93 86 86 95 95 87 87 86 86 93 93 98 98 87 87 93 93 88 88 87 87 98 98 103 105 102 104 101 103 104 106 102 104 103 105 107 109 106 108 105 107 108 110 106 108 107 109 109 111 106 108 108 110 110 112 106 108 109 111 113 115 112 114 111 113 114 116 112 114 113 115 117 119 116 118 115 117 118 120 116 118 117 119 121 123 120 122 119 121 122 124 120 122 121 123 113 115 116 118 123 125 115 117 116 118 113 115 114 116 123 125 124 126 113 115 123 125 114 116 127 129 126 128 125 127 128 130 126 128 127 129 130 132 129 131 122 124 131 133 129 131 130 132 134 136 133 135 132 134 135 137 133 135 134 136 121 123 130 132 122 124 136 138 130 132 121 123 139 141 138 140 137 139 140 142 138 140 139 141 141 143 140 142 139 141 142 144 140 142 141 143 144 146 121 123 143 145 136 138 121 123 144 146 147 149 146 148 145 147 148 150 146 148 147 149 150 152 107 109 149 151 108 110 107 109 150 152 151 153 108 110 150 152 109 111 108 110 151 153 152 156 134 155 132 154 153 157 134 155 152 156 155 160 147 159 154 158 156 161 147 159 155 160 156 161 157 162 124 126 155 160 157 162 156 161 158 163 124 126 157 162 114 116 124 126 158 163 161 166 160 165 159 164 162 167 160 165 161 166 164 169 163 168 2 2 159 164 163 168 164 169 166 171 165 170 128 130 3 3 165 170 166 171 145 147 119 121 167 172 143 145 119 121 145 147 146 148 143 145 145 147 144 146 143 145 146 148 169 174 52 52 168 173 41 41 52 52 169 174 104 177 171 176 170 175 103 178 171 176 104 177 173 180 48 48 172 179 49 49 48 48 173 180 174 181 49 49 173 180 50 50 49 49 174 181 177 184 176 183 175 182 178 185 176 183 177 184 179 186 3 3 2 2 180 187 3 3 179 186 151 190 155 189 154 188 181 191 155 189 151 190 182 192 164 169 0 0 183 193 164 169 182 192 169 174 184 194 40 40 171 176 184 194 169 174 171 176 168 173 170 175 169 174 168 173 171 176 170 175 51 51 185 195 168 173 51 51 170 175 187 197 166 171 186 196 1 1 166 171 187 197 189 199 65 65 188 198 190 200 65 65 189 199 176 183 188 198 175 182 189 199 188 198 176 183 193 203 192 202 191 201 194 204 192 202 193 203 193 203 196 206 195 205 191 201 196 206 193 203 120 122 129 131 197 207 122 124 129 131 120 122 198 208 131 133 130 132 199 209 131 133 198 208 192 202 200 210 191 201 201 211 200 210 192 202 196 206 200 210 202 212 191 201 200 210 196 206 138 140 200 210 201 211 140 142 200 210 138 140 142 144 200 210 140 142 202 212 200 210 142 144 198 208 136 138 203 213 130 132 136 138 198 208 188 198 66 66 111 113 65 65 66 66 188 198 175 182 111 113 112 114 188 198 111 113 175 182 137 139 106 108 139 141 105 107 106 108 137 139 141 143 106 108 110 112 139 141 106 108 141 143 59 59 204 214 62 62 205 215 204 214 59 59 208 218 207 217 206 216 209 219 207 217 208 218 212 222 211 221 210 220 213 223 211 221 212 222 210 220 215 225 214 224 211 221 215 225 210 220 208 218 216 226 209 219 217 227 216 226 208 218 219 229 206 216 218 228 208 218 206 216 219 229 204 214 221 231 220 230 205 215 221 231 204 214 224 234 223 233 222 232 225 235 223 233 224 234 226 236 205 215 57 57 221 231 205 215 226 236 229 239 228 238 227 237 230 240 228 238 229 239 229 239 232 242 231 241 227 237 232 242 229 239 144 146 233 243 203 213 146 148 233 243 144 146 236 246 235 245 234 244 220 230 235 245 236 246 239 249 238 248 237 247 240 250 238 248 239 249 242 252 237 247 241 251 239 249 237 247 242 252 225 235 241 251 243 253 242 252 241 251 225 235 246 256 245 255 244 254 223 233 245 255 246 256 221 231 235 245 220 230 247 257 235 245 221 231 223 233 243 253 245 255 225 235 243 253 223 233 250 260 249 259 248 258 251 261 249 259 250 260 254 264 253 263 252 262 255 265 253 263 254 264 213 223 256 266 211 221 257 267 256 266 213 223 204 214 236 246 64 64 220 230 236 246 204 214 226 236 247 257 221 231 258 268 247 257 226 236 259 269 249 259 251 261 260 270 249 259 259 269 228 238 256 266 227 237 261 271 256 266 228 238 232 242 256 266 257 267 227 237 256 266 232 242 215 225 256 266 261 271 211 221 256 266 215 225 224 234 263 273 262 272 264 274 263 273 224 234 265 275 246 256 244 254 92 276 246 256 265 275 255 265 267 278 266 277 254 264 267 278 255 265 260 270 266 277 249 259 255 265 266 277 260 270 212 222 269 280 268 279 210 220 269 280 212 222 272 283 271 282 270 281 273 284 271 282 272 283 275 286 269 280 274 285 276 287 269 280 275 286 277 288 269 280 276 287 268 279 269 280 277 288 279 290 245 255 278 289 244 254 245 255 279 290 259 269 217 227 280 291 251 261 217 227 259 269 219 229 217 227 208 218 280 291 217 227 219 229 273 284 281 292 271 282 282 293 281 292 273 284 245 255 253 294 278 289 243 253 253 294 245 255 283 296 117 119 265 295 118 120 117 119 283 296 250 260 217 227 251 261 216 226 217 227 250 260 214 224 269 280 210 220 274 285 269 280 214 224 284 297 60 60 61 61 152 298 60 60 284 297 285 300 275 286 133 299 276 287 275 286 285 300 286 301 276 287 285 300 277 288 276 287 286 301 223 233 287 302 222 232 246 256 287 302 223 233 123 125 101 103 102 104 116 118 101 103 123 125 116 118 99 99 100 100 118 120 99 99 116 118 248 258 266 277 264 274 249 259 266 277 248 258 266 277 263 273 264 274 267 278 263 273 266 277 80 80 289 304 288 303 289 306 71 71 290 305 212 222 63 308 64 307 57 309 214 224 215 225 212 222 268 279 63 308 277 288 291 310 63 308 58 311 275 286 274 285 259 269 280 291 279 312 237 247 238 248 252 313 255 265 260 270 253 263 224 234 222 232 248 258 15 314 9 9 96 96 13 13 292 316 18 315 98 98 97 97 18 315 86 86 81 318 14 317 98 98 18 315 19 319 81 318 86 86 84 84 88 88 19 319 77 320 82 321 81 318 70 70 74 74 85 85 77 320 80 80 288 303 76 76 18 18 292 322 6 6 81 318 84 84 70 70 15 314 96 96 95 95 292 323 172 179 48 48 293 324 22 22 24 24 293 327 295 326 294 325 89 89 19 19 17 17 72 72 289 306 82 321 76 76 290 328 75 75 73 73 74 74 75 329 286 301 291 310 277 288 58 58 152 298 132 330 61 61 63 63 284 297 287 302 250 260 222 232 248 258 222 232 250 260 260 270 259 269 278 331 219 229 279 312 280 291 207 217 287 302 91 332 263 273 240 333 262 272 238 334 267 278 254 264 264 274 224 234 248 258 239 249 262 272 240 250 250 260 287 302 216 226 203 213 136 138 144 146 121 123 119 121 143 145 259 269 279 312 278 331 260 270 278 331 253 263 238 334 240 333 267 278 244 254 296 335 265 275 263 273 267 278 240 333 242 252 262 272 239 249 287 302 209 219 216 226 238 334 254 264 252 262 252 313 241 251 237 247 226 336 215 225 261 271 230 240 258 337 228 238 204 214 64 64 62 62 57 57 205 215 59 59 58 58 60 60 152 298 230 240 229 239 297 338 63 63 291 339 284 297 247 257 298 340 235 245 232 242 257 267 236 341 258 337 226 336 228 238 213 223 64 307 236 341 72 72 71 71 289 306 15 15 5 5 7 7 14 14 90 90 16 16 235 245 299 342 234 244 231 241 232 242 234 343 91 332 246 256 92 276 91 332 287 302 246 256 287 302 207 217 209 219 296 335 279 290 219 229 296 335 244 254 279 290 296 335 219 229 218 228 252 313 253 294 241 251 242 252 224 234 262 272 242 252 225 235 224 234 253 294 243 253 241 251 199 345 198 344 192 202 196 206 202 212 120 346 131 133 300 347 129 131 167 172 154 348 147 149 194 204 193 203 301 349 302 350 149 151 107 109 146 148 148 150 233 243 99 99 118 120 283 296 125 127 126 128 181 191 68 68 92 92 303 351 126 128 177 353 158 352 102 104 304 354 123 125 2 2 0 0 164 169 165 170 126 128 128 130 166 171 1 1 3 3 305 356 12 355 182 192 307 359 306 358 8 357 7 101 99 99 308 360 99 99 309 361 308 360 291 362 7 101 308 360 308 360 309 361 284 363 306 358 286 364 161 166 159 164 164 169 306 358 305 356 1 1 187 197 312 367 311 366 310 365 178 185 270 281 313 368 311 366 314 369 310 365 305 356 315 370 12 355 317 373 316 372 174 371 286 364 306 358 307 359 305 356 187 197 172 374 0 0 1 1 305 356 166 171 128 130 317 373 127 129 149 375 317 373 304 354 318 377 148 376 178 185 313 368 176 183 247 257 297 378 298 340 159 164 306 358 161 166 304 354 148 376 147 159 153 157 152 156 309 361 183 193 306 358 164 169 127 129 317 373 128 130 161 166 285 379 162 167 270 381 178 380 180 187 313 368 281 292 176 183 158 163 112 114 114 116 302 382 148 376 318 377 104 106 302 382 318 377 190 200 282 293 56 56 281 292 190 200 189 199 270 281 271 282 313 368 190 200 281 292 282 293 162 167 285 379 133 135 159 164 160 165 163 168 273 284 272 283 314 369 321 385 320 384 319 383 145 147 167 172 147 149 148 150 302 386 233 243 233 387 302 350 107 109 151 153 154 388 109 111 163 168 310 389 179 186 177 353 126 128 165 170 181 191 151 190 125 127 321 391 153 157 322 390 303 351 265 295 117 119 321 391 134 155 153 157 135 137 319 383 160 165 124 126 304 354 156 161 172 374 292 392 315 370 302 393 174 371 316 372 92 92 265 295 303 351 68 68 303 351 66 66 302 393 316 372 149 375 311 366 54 54 56 56 113 115 66 66 115 117 322 390 296 394 321 391 296 394 320 395 321 391 315 370 292 392 12 355 270 381 179 186 272 396 156 161 304 354 147 159 111 113 66 66 113 115 127 129 125 127 150 397 150 397 149 375 127 129 186 196 317 373 174 371 315 370 305 356 172 374 165 170 180 187 178 380 174 371 173 398 186 196 318 377 102 104 104 106 318 377 304 354 102 104 165 170 3 3 180 187 101 103 323 399 103 105 6 102 292 400 323 399 163 168 179 186 2 2 101 103 100 100 323 399 182 192 12 355 10 401 312 402 310 389 163 168 65 65 190 200 55 55 8 357 183 193 10 401 162 167 135 137 160 165 297 338 229 239 299 403 58 311 132 404 275 286 58 311 274 285 214 224 226 336 261 271 228 238 232 242 236 341 234 343 257 267 213 223 236 341 268 279 277 288 63 308 299 342 298 340 297 378 299 403 229 239 231 241 132 404 133 299 275 286 230 240 297 338 258 337 234 343 299 403 231 241 247 257 258 268 297 378 235 245 298 340 299 342 58 311 214 224 57 309 215 225 226 336 57 309 213 223 212 222 64 307 161 166 286 364 285 379 284 363 291 362 308 360 323 399 100 100 6 102 124 126 123 125 304 354 153 157 309 361 283 296 116 118 100 100 101 103 309 361 99 99 283 296 324 405 53 53 54 54 324 405 206 407 207 406 307 359 8 357 291 408 55 55 67 67 65 65 303 351 117 119 115 117 265 295 296 394 322 390 307 359 291 408 286 364 294 409 22 22 293 324 184 410 45 45 44 44 32 411 35 35 21 21 25 25 28 413 26 412 36 36 39 39 28 413 46 46 50 50 185 414 194 204 301 349 199 345 197 416 325 415 195 205 131 133 199 209 301 417 129 131 300 347 325 418 233 387 137 139 203 419 203 419 137 139 138 140 141 143 167 421 119 420 23 23 294 409 33 422 26 412 293 324 24 24 31 31 33 33 294 325 27 27 295 326 293 327 184 410 44 44 40 423 37 37 32 411 40 423 39 39 47 47 51 424 170 175 185 195 104 177 103 178 292 425 184 194 184 410 292 323 48 48 174 181 302 426 50 50 195 205 196 206 197 416 129 131 325 418 197 207 194 204 199 345 192 202 12 12 292 316 13 13 24 24 25 25 26 412 27 27 293 327 26 26 74 74 77 320 75 329 85 85 88 88 77 320 97 97 13 13 18 315 290 328 288 303 289 304 290 305 71 71 73 73 291 427 8 8 9 9 72 72 82 321 70 70 75 329 290 305 73 73 80 80 82 82 289 304 76 76 288 303 290 328 15 314 95 95 14 317 14 317 95 95 86 86 88 88 98 98 19 319 4 4 18 18 6 6 15 15 7 7 291 428 15 314 291 427 9 9 40 40 41 41 169 174 171 176 103 178 184 194 23 23 22 22 294 409 185 195 302 429 104 177 31 31 295 326 27 27 25 25 36 36 28 413 33 422 32 411 21 21 39 39 51 424 28 413 32 411 37 37 35 35 47 47 185 414 51 424 40 423 44 44 37 37 47 47 46 46 185 414 50 50 302 426 185 414 184 410 48 48 45 45 31 31 294 325 295 326 282 293 314 369 311 366 312 402 163 168 160 165 165 170 178 380 177 353 313 368 271 282 281 292 56 56 55 55 190 200 272 283 310 365 314 369 282 293 273 284 314 369 306 358 183 193 8 357 151 190 150 397 125 127 135 137 162 167 133 135 157 430 155 189 181 191 152 156 284 363 309 361 158 352 181 191 126 128 324 405 54 54 312 367 54 54 311 366 312 367 103 105 323 399 292 400 160 165 319 383 312 402 158 163 177 184 112 114 316 372 317 373 149 375 173 398 187 197 186 196 172 374 187 197 173 398 112 114 177 184 175 182 183 193 182 192 10 401 320 395 296 394 218 431 158 352 157 430 181 191 324 405 218 431 206 407 324 405 207 406 53 53 135 137 134 136 321 385 282 293 311 366 56 56 166 171 317 373 186 196 0 0 305 356 182 192 23 23 33 422 21 21 52 52 51 51 168 173 142 144 119 420 120 346 198 344 138 140 201 211 142 144 141 143 119 420 138 140 198 344 203 419 141 143 110 112 167 421 109 111 154 388 167 421 233 387 107 109 105 107 131 133 301 417 300 347 301 349 193 203 325 415 233 387 105 107 137 139 198 344 201 211 192 202 196 206 120 346 197 416 202 212 142 144 120 346 110 112 109 111 167 421 325 418 300 347 301 417 325 415 193 203 195 205 91 91 53 53 207 406 153 157 283 296 322 390 66 66 303 351 115 117 265 295 322 390 283 296 324 405 312 367 326 432 218 431 324 405 326 432 319 383 320 384 326 433 135 137 321 385 319 383 319 383 326 433 312 402 320 395 218 431 326 432 180 187 179 186 270 381 272 396 179 186 310 389 176 183 281 292 189 199</p>
                </polylist>
            </mesh>
        </geometry>
    </library_geometries>
    <library_visual_scenes>
        <visual_scene id="VisualSceneNode">
            <node id="node0" name="m0" type="NODE">
                <instance_geometry url="#mesh0">
                    <bind_material>
                        <technique_common>
                            <instance_material symbol="Material1" target="#mat0">
                                <bind_vertex_input semantic="UVSET0" input_semantic="TEXCOORD" input_set="0"></bind_vertex_input>
                            </instance_material>
                        </technique_common>
                    </bind_material>
                </instance_geometry>
            </node>
        </visual_scene>
    </library_visual_scenes>
    <scene>
        <instance_visual_scene url="#VisualSceneNode"></instance_visual_scene>
    </scene>
</COLLADA>
