<?xml version="1.0"?>
<COLLADA xmlns="http://www.collada.org/2005/11/COLLADASchema" version="1.4.1">
    <asset>
        <contributor>
            <authoring_tool>J3D Ripoff Exporter</authoring_tool>
        </contributor>
        <created>2024-08-18T17:24:34.985Z</created>
        <modified>2024-08-18T17:24:34.985Z</modified>
		<unit meter="0.01" name="centimeter" ></unit>
        <up_axis>Y_UP</up_axis>
    </asset>
    <library_images>
        <image id="tex0">
            <init_from>akebono_eye.png</init_from>
        </image>
        <image id="tex1">
            <init_from>akebono_body.png</init_from>
        </image>
    </library_images>
    <library_effects>
        <effect id="effect0">
            <profile_COMMON>
                <newparam sid="surface0">
                    <surface type="2D">
                        <init_from>tex1</init_from>
                    </surface>
                </newparam>
                <newparam sid="sampler0">
                    <sampler2D>
                        <source>surface0</source>
                    </sampler2D>
                </newparam>
                <technique sid="COMMON">
                    <blinn>
                        <diffuse>
                            <texture texture="sampler0" texcoord="UVSET0"></texture>
                        </diffuse>
                    </blinn>
                </technique>
            </profile_COMMON>
        </effect>
        <effect id="effect1">
            <profile_COMMON>
                <newparam sid="surface1">
                    <surface type="2D">
                        <init_from>tex1</init_from>
                    </surface>
                </newparam>
                <newparam sid="sampler1">
                    <sampler2D>
                        <source>surface1</source>
                    </sampler2D>
                </newparam>
                <technique sid="COMMON">
                    <blinn>
                        <diffuse>
                            <texture texture="sampler1" texcoord="UVSET0"></texture>
                        </diffuse>
                    </blinn>
                </technique>
            </profile_COMMON>
        </effect>
        <effect id="effect2">
            <profile_COMMON>
                <newparam sid="surface2">
                    <surface type="2D">
                        <init_from>tex0</init_from>
                    </surface>
                </newparam>
                <newparam sid="sampler2">
                    <sampler2D>
                        <source>surface2</source>
                    </sampler2D>
                </newparam>
                <technique sid="COMMON">
                    <blinn>
                        <diffuse>
                            <texture texture="sampler2" texcoord="UVSET0"></texture>
                        </diffuse>
                    </blinn>
                </technique>
            </profile_COMMON>
        </effect>
    </library_effects>
    <library_materials>
        <material id="mat0" name="Skin_etc">
            <instance_effect url="#effect0"></instance_effect>
        </material>
        <material id="mat1" name="Skin_spec">
            <instance_effect url="#effect1"></instance_effect>
        </material>
        <material id="mat2" name="eye">
            <instance_effect url="#effect2"></instance_effect>
        </material>
    </library_materials>
    <library_geometries>
        <geometry id="mesh0">
            <mesh>
                <source id="points0">
                    <float_array id="pointarray0" count="126">58.46875 -26.421875 -13.2421875 59.0234375 -28.078125 -13.4921875 61.4765625 -25.25 -9.390625 62 -26.703125 -8.859375 62 -26.703125 8.8515625 59.0234375 -28.078125 13.4921875 61.4765625 -25.25 9.3828125 58.46875 -26.421875 13.234375 53.8203125 -27.8515625 17.15625 54.78125 -23.5703125 16.03125 64.1953125 -25.609375 2.171875 63.6953125 -22.3515625 0 64.3359375 -25.0234375 0 61.7734375 -23.2890625 6.1796875 62.7890625 -24.265625 4.75 61.0546875 -22.6796875 -8.1328125 61.7734375 -23.2890625 -6.1796875 62.4921875 -21.53125 -4.46875 60.078125 -22.9765625 -10.796875 60.3515625 -19.8203125 -9.046875 62.7890625 -24.265625 -4.7578125 64 -25.8984375 -3.828125 57.859375 -18.171875 -12.4375 54.1875 -31 -17.8828125 55.84375 -29.8125 -16.390625 54.2421875 -27.8515625 -17.4296875 58.9609375 -24.1640625 -12.4921875 55.890625 -20.65625 -14.59375 54.78125 -23.5703125 -16.0390625 63.703125 -26.078125 -5.1875 64.1953125 -25.609375 -2.171875 63.703125 -26.078125 5.1796875 64 -25.8984375 3.828125 60.3515625 -19.8203125 9.0390625 60.078125 -22.9765625 10.7890625 57.859375 -18.171875 12.4375 61.0546875 -22.6796875 8.1328125 62.4921875 -21.53125 4.46875 58.9609375 -24.1640625 12.484375 55.84375 -29.8125 16.3828125 54.1875 -31 17.875 55.890625 -20.65625 14.59375</float_array>
                    <technique_common>
                        <accessor count="42" source="#pointarray0" stride="3">
                            <param name="X" type="float"/>
                            <param name="Y" type="float"/>
                            <param name="Z" type="float"/>
                        </accessor>
                    </technique_common>
                </source>
                <source id="uvs0">
                    <float_array id="uvarray0" count="68">0.3681640625 0.07427978515625 0.3681640625 0.0777587890625 0.3636474609375 0.07257080078125 0.3626708984375 0.0751953125 0.360107421875 0.060302734375 0.3876953125 0.0772705078125 0.38055419921875 0.0474853515625 0.36090087890625 0.07928466796875 0.28741455078125 0.05712890625 0.2789306640625 0.032958984375 0.27862548828125 0.05535888671875 0.35980224609375 0.07159423828125 0.3565673828125 0.07318115234375 0.36370849609375 0.0758056640625 0.322021484375 0.0367431640625 0.31158447265625 0.04046630859375 0.300048828125 0.03021240234375 0.33660888671875 0.0380859375 0.3271484375 0.0233154296875 0.30084228515625 0.048828125 0.2962646484375 0.05889892578125 0.3529052734375 0.0145263671875 0.388671875 0.10107421875 0.379150390625 0.08984375 0.35089111328125 0.0467529296875 0.372802734375 0.029296875 0.3583984375 0.07373046875 0.3580322265625 0.07049560546875 0.3560791015625 0.0732421875 0.2962646484375 0.058837890625 0.36572265625 0.0716552734375 0.36248779296875 0.071044921875 0.36865234375 0.0745849609375 0.36944580078125 0.07794189453125</float_array>
                    <technique_common>
                        <accessor count="34" source="#uvarray0" stride="2">
                            <param name="S" type="float"/>
                            <param name="T" type="float"/>
                        </accessor>
                    </technique_common>
                </source>
                <vertices id="vertices0">
                    <input semantic="POSITION" source="#points0"/>
                </vertices>
                <polylist count="49" material="Material1">
                    <input offset="0" semantic="VERTEX" source="#vertices0"/>
                    <input offset="1" semantic="TEXCOORD" source="#uvs0" set="0"/>
                    <vcount>3 3 3 3 3 3 3 3 3 3 3 3 3 3 3 3 3 3 3 3 3 3 3 3 3 3 3 3 3 3 3 3 3 3 3 3 3 3 3 3 3 3 3 3 3 3 3 3 3</vcount>
                    <p>2 2 1 1 0 0 3 3 1 1 2 2 6 2 5 1 4 3 7 0 5 1 6 2 9 6 8 5 7 4 7 4 8 5 5 7 12 10 11 9 10 8 6 13 14 12 13 11 17 16 16 15 15 14 19 18 15 14 18 17 11 9 21 20 20 19 22 21 19 18 18 17 25 5 24 23 23 22 0 4 27 25 26 24 22 21 26 24 27 25 19 18 17 16 15 14 16 15 17 16 20 19 11 9 20 19 17 16 27 25 0 4 28 6 25 5 1 7 24 23 2 2 29 26 3 3 21 28 29 26 20 27 28 6 0 4 25 5 0 4 1 7 25 5 12 10 30 8 11 9 2 2 20 27 29 26 6 2 31 26 14 27 10 8 11 9 32 29 30 8 21 29 11 9 35 21 34 17 33 18 22 21 18 17 26 24 37 16 36 14 13 15 6 13 36 31 34 30 33 18 34 17 36 14 11 9 14 19 32 20 35 21 38 24 34 17 8 5 40 22 39 23 7 4 38 24 41 25 35 21 41 25 38 24 33 18 36 14 37 16 13 15 14 19 37 16 11 9 37 16 14 19 41 25 9 6 7 4 34 30 38 32 6 13 38 32 7 33 6 13 8 5 39 23 5 7 6 13 13 11 36 31 6 2 4 3 31 26 32 28 14 27 31 26</p>
                </polylist>
            </mesh>
        </geometry>
        <geometry id="mesh1">
            <mesh>
                <source id="points1">
                    <float_array id="pointarray1" count="1239">88.3671875 9.421875 6.3984375 85.078125 12.5 4.2734375 88.9765625 10 -0.5 85.15625 13.1328125 -0.46875 69.4453125 0.1796875 16.671875 63.71875 2.0078125 17.0703125 70.7578125 0.09375 18.09375 65.5703125 1.6875 20 79.265625 -3.6640625 6.0859375 74.921875 -1.6484375 11.671875 81.1796875 -3.5703125 6.8828125 76.46875 -1.6171875 12.6015625 82.296875 -11.1796875 -7.390625 79.7265625 -8.4453125 -12.7109375 82.2265625 -14.125 -7.03125 79.78125 -11.21875 -12.65625 81.921875 -2.234375 7.234375 76.8515625 -0.3671875 13.3671875 74.890625 -6.578125 -18.7265625 74.5703125 -3.9140625 -17.734375 71.7890625 1.078125 18.640625 65.734375 2.9609375 20.90625 57.5234375 3.9296875 23.078125 57.515625 2.6640625 22.0703125 81.5078125 8.625 -12.5703125 84.0078125 6.1875 -6.734375 83.890625 10.46875 -13.25 87.078125 7.7109375 -6.9453125 87.609375 11.4296875 -6.8046875 84.3046875 14.1015625 -13.3671875 57.7421875 3.1796875 17.7109375 58.234375 14.4609375 21.96875 64.8125 13.2265625 21.4765625 72.046875 15.203125 -23.71875 70.5 12.8203125 -21.515625 78.5546875 13.1328125 -19.1640625 76.4921875 11.46875 -18.296875 84.3046875 13.9765625 -5.0625 82.328125 16.2109375 -10.4765625 78.4375 16.9765625 -19.1484375 77.9375 18.84375 -15.859375 76.1015625 9.765625 12.1328125 74.5 0.125 12.0234375 79.7578125 8.828125 6.5546875 83.6796875 -13.1875 -0.4765625 83.390625 -15.984375 -0.4765625 57.890625 13.3515625 25.6171875 66.0625 12.2578125 23.5703125 85.4453125 4.390625 -0.484375 88.515625 6.0234375 -0.4921875 65.6953125 -15.953125 -15.0703125 61.578125 -12.9921875 -19.15625 57.859375 -18.171875 -12.4375 58 -16.8984375 -14.9453125 69.125 -18.15625 -11.4453125 60.3515625 -19.8203125 -9.046875 50.34375 -8.03125 -24.265625 56.9140625 -10.4765625 -22.0546875 52.859375 -3.6328125 -27.1640625 59.3046875 -6.5390625 -24.8125 71.7890625 -4.4296875 13.609375 67.734375 -10.8984375 15.3046875 76.328125 -3.9140625 10.9765625 73.6640625 -13.921875 11.1796875 63.5 -7.640625 -17.3515625 66.53125 3.640625 -15.8515625 68.8984375 -9.5078125 -15.484375 71.7265625 -2.109375 -14.390625 48.1328125 16.109375 -29.8125 47.3515625 11.46875 -31.0703125 51.8125 15.09375 -30.078125 52.1171875 8.5 -30.640625 71.1796875 -20.0625 4.6875 71.71875 -20.59375 0 68.359375 -20.9453125 4.8046875 69.4140625 -21.7890625 0 47.34375 4.3203125 -30.40625 51.140625 3.109375 -30.0859375 80.0625 -14.8984375 11.796875 79.4609375 -12.0078125 12.203125 82.6875 -16.1328125 6.078125 82.5703125 -13.1796875 6.4375 77.2109375 -0.484375 -11.359375 76.265625 -2.15625 -11.6640625 78.7578125 -0.984375 -12.390625 78.75 -2.375 -13.1171875 74.1171875 -9.015625 18.0390625 74.171875 -11.9609375 18.1171875 71.25 11.078125 17.953125 68.3046875 -0.1015625 16.0078125 80.84375 8.78125 -0.046875 80.4296875 -3.8359375 -0.046875 68.2578125 9.6328125 25.3515625 67.34375 8.6953125 23.140625 61.3125 10.21875 27.3359375 61.1484375 8.8671875 25 87.921875 5.34375 5.953125 84.9140625 3.84375 5.7734375 85.2421875 5.8984375 12.859375 82.609375 4.484375 11.5703125 85.875 10.2109375 12.9453125 68.53125 13.1875 25.9375 73.90625 8.6484375 23.4375 74.421875 12.34375 23.703125 61.0703125 13.8125 28.15625 72.140625 7.6015625 21.5546875 83.484375 13.140625 10.234375 82.3828125 -3.7734375 -0.046875 69.7265625 16.46875 23.7265625 59.015625 17.3046875 27.3984375 77.5546875 6.5078125 18.1015625 80.15625 7.65625 19.6484375 80.921875 11.5 19.6015625 78.5 14.5859375 16.5546875 83.1796875 -2.6953125 -0.046875 82.3125 8.515625 7.734375 83.6328125 8.5703125 -0.046875 78.8125 -4.421875 12.34375 78.8203125 -2.8984375 11.84375 77.28125 -2.203125 10.9140625 66.40625 0.6875 16.1328125 63.046875 -8.3203125 17.3359375 72.3203125 -1.96875 13.96875 73.6328125 -1.125 16.890625 73.546875 -3.484375 17.1875 79.984375 -3.3984375 5.8671875 76.6796875 -14.7890625 5.9453125 81.28125 -3.6640625 -0.046875 78.0546875 -14.9921875 -0.046875 69.5546875 0.4453125 -21.5 67.828125 5.1875 -23.1953125 69.2578125 -0.9609375 -23.0703125 67.265625 4.6953125 -25.4453125 74.6953125 0.6875 -5.8828125 75.953125 -0.484375 -0.078125 79.109375 7.7109375 -6.171875 80.15625 6.0546875 -0.21875 71.40625 2.9609375 -11.6484375 75.6796875 10.6953125 -11.6953125 67.2109375 6.921875 -16.890625 72.0078125 14.0859375 -17.46875 81.703125 -4.171875 6.5625 67.5 15.25 -19.9765625 64.6015625 8.8203125 -18.9453125 63.609375 10.84375 -21.8203125 67.6796875 1.1953125 19.28125 60.1015625 2.375 21.3671875 60.5546875 1.328125 16.96875 62.6796875 5.8828125 -21.1953125 68.0390625 9.5625 -23.2109375 80.875 -15.921875 -0.046875 79.2734375 -15.7265625 7.1015625 83.3828125 -5.828125 -0.046875 81.9609375 -5.734375 6.6796875 83.078125 -4.28125 -0.046875 64.4921875 17.859375 -26.390625 65.921875 20.25 -24.65625 72.359375 19.1328125 -22.140625 66.1171875 -0.59375 -18.9296875 75.1171875 -0.5 5.6796875 79.6015625 5.7109375 5.703125 72.171875 0.4140625 10.75 76.8359375 6.3515625 11.0546875 67.7734375 2.625 16.453125 72.6328125 8.4921875 16.546875 58.9453125 5.4375 20.546875 63.828125 9.3984375 20.9140625 67.3125 -0.7421875 19.6796875 59.6875 0.9375 21.90625 58.2109375 -8.28125 18.15625 65.5390625 -8.21875 20.5234375 57.875 -7.0625 23.0546875 60.5 -1.9609375 25.8984375 58.2734375 1.3125 26.9375 61.1015625 -0.328125 24.28125 58.96875 2.515625 25.0546875 63.078125 -4.796875 19.5859375 66.7109375 -4.7890625 22.21875 57.7421875 1.109375 22.609375 79.65625 -13.234375 5.625 76.5546875 -12.1640625 11.5546875 72.8046875 -9.59375 15.8203125 80.765625 -13.4609375 0.03125 77.9921875 -12.0390625 -5.609375 76.5546875 -9.1875 -11.59375 71.3515625 -4.765625 -16.2421875 57.75 5.9140625 24.0078125 59.078125 6.3671875 25.546875 63.1953125 -34.53125 8.171875 60.9765625 -35.5078125 12.6484375 65.5625 -32.890625 8.9296875 63 -33.9609375 13.375 64.3125 -33.7578125 0 64.0625 -34.0078125 3.8046875 66.9296875 -32.1875 2.4140625 66.6953125 -32.3671875 4.875 63 -33.9609375 -13.375 61.609375 -35.2109375 -11.2578125 65.5625 -32.890625 -8.9375 63.1953125 -34.53125 -8.1796875 54.78125 -23.5703125 16.03125 53.8203125 -27.8515625 17.15625 54.703125 -24.5078125 19.0078125 54.3125 -28.4140625 19.8515625 49.9921875 -22.6796875 22.4453125 51.6796875 -18.921875 20.984375 52.140625 -24.1484375 22.140625 53.828125 -19.359375 20.6484375 57.859375 -18.171875 12.4375 55.890625 -20.65625 14.59375 58 -16.8984375 14.9453125 56.328125 -20.171875 17.34375 48.59375 -28.2578125 23.5078125 51.2890625 -28.7890625 22.90625 64 -25.8984375 -3.828125 65.984375 -28.0234375 -5.203125 65.4296875 -26.6328125 -2.671875 66.3125 -27.8359375 -2.828125 62.1171875 -29.96875 -13.625 64.7578125 -28.7265625 -9.09375 54.484375 -14.078125 18.2421875 56.5078125 -15.0859375 17.5 62 -26.703125 -8.859375 59.0234375 -28.078125 -13.4921875 64.7578125 -28.7265625 9.0859375 65.984375 -28.0234375 5.203125 62 -26.703125 8.8515625 63.703125 -26.078125 5.1796875 54.7421875 -37.6640625 20.671875 53.359375 -38.6875 19.015625 51.171875 -39.1640625 22.2421875 48.6640625 -40.8359375 22.1796875 57.4609375 -4.3515625 -22.921875 65.046875 -6.4296875 -20.625 59.6640625 5.0546875 -22.015625 67.28125 2.984375 -19.9921875 57.6953125 6.8203125 -23.9375 57.7109375 8.21875 -24.6171875 57.859375 6.5703125 -18.75 58.3828125 18.4453125 -22.1796875 59.4140625 -35.7578125 17.6796875 57.2265625 -37.1640625 16.5234375 74.0625 -11.8984375 -11.9765625 76.7734375 -14.15625 -7.296875 79.7109375 -2.4375 -6.546875 57.9765625 -36.84375 -15.390625 59.4140625 -35.7578125 -17.6875 53.359375 -38.7734375 -19.1015625 54.7421875 -37.6640625 -20.671875 48.6640625 -40.8359375 -22.1953125 51.171875 -39.1640625 -22.2421875 63.703125 -26.078125 -5.1875 66.6953125 -32.3671875 -4.8828125 64.0625 -34.0078125 -3.8125 82.4140625 18.21875 -0.21875 77.7421875 22.7265625 -0.203125 80.125 19.2890625 -8.9140625 76.109375 22.9921875 -9.5 54.703125 -24.5078125 -19.0078125 54.78125 -23.5703125 -16.0390625 56.328125 -20.171875 -17.34375 55.890625 -20.65625 -14.59375 56.5078125 -15.0859375 -17.5078125 54.484375 -14.078125 -18.2578125 53.828125 -19.359375 -20.65625 52.3515625 -17.671875 -20.53125 62.8984375 -15.2109375 17.9140625 66.4453125 -17.078125 14.8046875 60.3515625 -19.8203125 9.0390625 69.203125 -18.5390625 10.953125 62.1171875 -29.96875 13.6171875 59.0234375 -28.078125 13.4921875 52.140625 -24.1484375 -22.1484375 49.5546875 -23.7578125 -22.7109375 66.3125 -27.8359375 2.828125 54.2265625 -28.75 -19.8515625 54.2421875 -27.8515625 -17.4296875 65.4296875 -26.6328125 2.6640625 64 -25.8984375 3.828125 66.9296875 -32.1875 -2.421875 65.7109375 5.390625 -19.9375 70.8671875 3.21875 -18.203125 65.8828125 6.78125 -20.703125 71.8984375 4.2734375 -18.6328125 73.40625 -0.5390625 -17.4375 73.484375 1.6953125 -16.7734375 72.2578125 0.359375 -14.390625 64.9453125 16.8203125 -20.265625 63.8203125 5.2109375 -16.890625 60.078125 6.3359375 -21.2265625 67.640625 4.7890625 -19.2734375 79.3359375 -2.7890625 -6.0546875 74.640625 2.078125 -12.5390625 79.828125 9.8125 -5.9375 76.2421875 11.6171875 -11.3984375 64.3359375 -25.0234375 0 64.1953125 -25.609375 -2.171875 66.0859375 -25.78125 0 65.9375 -26.234375 -1.5390625 66.21875 16.359375 -22.90625 58.078125 17.9609375 -25.8359375 64.1953125 -25.609375 2.171875 65.9375 -26.234375 1.5390625 81.8828125 -4.640625 -7.734375 81.6171875 -3.0703125 -7.359375 68.515625 4.0546875 -16.0859375 71.34375 14.0703125 -16.8125 60.5078125 4.453125 -16.8828125 57.4765625 -5.65625 -18.7421875 62.4921875 -21.53125 -4.46875 63.6953125 -22.3515625 0 68.359375 -20.9453125 -4.8046875 79.40625 -14.3125 -8.5078125 62.4921875 -21.53125 4.46875 51.2890625 -28.7890625 -22.90625 77.015625 1.8203125 -13.9453125 76.625 0.453125 -13.3203125 74.9140625 0.234375 -12.1953125 69.5390625 3.0703125 -16.75 48.6640625 -27.1328125 -23.3359375 81.25 -2.5703125 -6.8203125 82 -1.203125 -6.9921875 71.1796875 -20.0625 -4.6953125 82.4609375 8.875 -7.234375 54.453125 -34.4140625 -20.1875 54.1875 -31 -17.8828125 58.484375 -31.9921875 -17.4375 50.8828125 -35.671875 -22.9140625 50.6796875 6.78125 30.5390625 51.8125 3.015625 29.765625 47.34375 4.3203125 30.40625 48.1328125 16.109375 29.8046875 51.03125 20.609375 26.4296875 56.9453125 20.5078125 26.0859375 76.2109375 22.03125 9.1015625 69 26.6015625 8.953125 68.484375 27.9296875 0 61.3203125 25.9140625 17.1953125 62.5390625 24.03125 19.671875 56.3359375 24.2109375 21.0703125 65.5703125 27.4375 11.0546875 47.96875 -36.7265625 -23.1796875 47.8828125 -32.78125 -23.6484375 55.84375 -29.8125 -16.390625 64.859375 -20.3203125 7.3671875 77.203125 -17.7578125 5.3828125 74.421875 -16.59375 11.2265625 59.5234375 -7.3984375 24.5 54.59375 -1.6328125 28 67.6484375 -8.2421875 22.5234375 70.15625 -14.5390625 16.65625 66.4140625 -12.6953125 19.5703125 57.5859375 7.390625 27.515625 78.5 -17.8125 -0.4609375 50.8828125 -35.671875 22.9140625 47.96875 -36.7265625 23.1640625 47.96875 -32.78125 23.6328125 54.453125 -34.4140625 20.1875 58.484375 -31.9921875 17.4296875 54.1875 -31 17.875 58.0546875 -12.1328125 21.0546875 67.828125 22.265625 19.5 81.15625 17.15625 9.6640625 75.953125 -11.515625 -13.1484375 76.484375 -1.8125 -15.4765625 73.75 -10.0390625 -15.21875 70.046875 -8.21875 -17.75 78.0703125 2.8046875 -13.1484375 78.1328125 0.6875 13.140625 77.2265625 -6.0234375 14.984375 70.1875 -11 17.28125 73.4453125 -12.1328125 14.9296875 75.8203125 -14.125 12.2109375 67.625 -27.625 0 67.1484375 -27.9375 2.25 67.1484375 -27.9375 -2.25 64.859375 -20.3203125 -7.3671875 67.6171875 24.0234375 -18.8359375 56.9453125 20.5078125 -27.171875 68.78125 13.0546875 -25.65625 59.859375 12.3359375 -28.890625 76.640625 6.46875 -16.8828125 75.765625 12.8671875 -17.2890625 71.8828125 15.296875 -19.6328125 62.8359375 -0.4375 -26.5859375 68.09375 -5.4296875 -23.4140625 61.3203125 25.9140625 -17.1953125 56.3359375 24.2109375 -21.0703125 69 26.6015625 -8.9609375 65.5703125 27.4375 -11.0546875 50.34375 -8.03125 24.2578125 48.1875 -1.3828125 28.421875 51.9375 11.6328125 30.390625 46.890625 11.46875 31.0703125 74.0625 -9.3828125 -18.7421875 74.7265625 -2.1015625 16.0390625 76.4375 3.7734375 16.7578125 79.078125 8.5546875 14.1484375 72.8671875 11.7109375 20.4921875 76.671875 9.9609375 18.0078125 78.28125 11.8359375 -13.609375 74.9296875 0.578125 -16.8828125 75.8125 -15.3203125 -12.15625 66.6328125 -9.1875 -21.6875 67.3984375 9.515625 -26.15625 55.84375 -29.8125 16.3828125 67.171875 -32.171875 0 59.0390625 9.1953125 23.5703125 71.296875 -12.5234375 -17.921875 59.4140625 6.4453125 -28.9453125 51.03125 20.609375 -26.4375 48.1875 -1.3828125 -28.4296875 56.234375 1.65625 -29.1796875</float_array>
                    <technique_common>
                        <accessor count="413" source="#pointarray1" stride="3">
                            <param name="X" type="float"/>
                            <param name="Y" type="float"/>
                            <param name="Z" type="float"/>
                        </accessor>
                    </technique_common>
                </source>
                <source id="uvs1">
                    <float_array id="uvarray1" count="710">0.04815673828125 0.1796875 0.0406494140625 0.158203125 0.01025390625 0.17901611328125 0.01153564453125 0.15728759765625 0.707275390625 0.60015869140625 0.65960693359375 0.5982666015625 0.70428466796875 0.62432861328125 0.6573486328125 0.6231689453125 0.7935791015625 0.6153564453125 0.75079345703125 0.61358642578125 0.79296875 0.6279296875 0.75054931640625 0.62628173828125 0.06512451171875 0.3555908203125 0.11639404296875 0.33868408203125 0.06744384765625 0.3824462890625 0.1197509765625 0.36639404296875 0.79315185546875 0.633544921875 0.7506103515625 0.6319580078125 0.16424560546875 0.35137939453125 0.156494140625 0.32403564453125 0.704345703125 0.630615234375 0.657470703125 0.6292724609375 0.610595703125 0.62835693359375 0.6109619140625 0.62200927734375 0.10186767578125 0.2353515625 0.06036376953125 0.23553466796875 0.09710693359375 0.2037353515625 0.0570068359375 0.2034912109375 0.09307861328125 0.18157958984375 0.60687255859375 0.6689453125 0.654541015625 0.6688232421875 0.1895751953125 0.16607666015625 0.25689697265625 0.224609375 0.136474609375 0.20025634765625 0.21356201171875 0.2274169921875 0.0843505859375 0.15576171875 0.131591796875 0.1759033203125 0.1259765625 0.15277099609375 0.74932861328125 0.66845703125 0.793212890625 0.66796875 0.00921630859375 0.36151123046875 0.010009765625 0.38494873046875 0.00921630859375 0.2347412109375 0.00994873046875 0.202880859375 0.17803955078125 0.4532470703125 0.22723388671875 0.43121337890625 0.21624755859375 0.49359130859375 0.259033203125 0.45953369140625 0.1297607421875 0.46722412109375 0.1807861328125 0.51177978515625 0.21588134765625 0.49359130859375 0.34210205078125 0.3770751953125 0.2764892578125 0.404296875 0.30145263671875 0.33062744140625 0.25933837890625 0.3587646484375 0.70501708984375 0.6314697265625 0.70281982421875 0.668212890625 0.7509765625 0.63275146484375 0.749755859375 0.6678466796875 0.6588134765625 0.66839599609375 0.66046142578125 0.600341796875 0.3433837890625 0.15020751953125 0.3626708984375 0.1959228515625 0.3214111328125 0.18548583984375 0.31787109375 0.2418212890625 0.08404541015625 0.4835205078125 0.00927734375 0.48809814453125 0.085693359375 0.49969482421875 0.00927734375 0.502685546875 0.36676025390625 0.23919677734375 0.33111572265625 0.24859619140625 0.751220703125 0.61517333984375 0.7509765625 0.62750244140625 0.699951171875 0.66888427734375 0.704345703125 0.63055419921875 0.704345703125 0.63018798828125 0.84124755859375 0.66717529296875 0.83880615234375 0.618408203125 0.19549560546875 0.19464111328125 0.20196533203125 0.22894287109375 0.26849365234375 0.18658447265625 0.16595458984375 0.19744873046875 0.16058349609375 0.1710205078125 0.2640380859375 0.16082763671875 0.17132568359375 0.2308349609375 0.8392333984375 0.629150390625 0.188232421875 0.14483642578125 0.23760986328125 0.1429443359375 0.14068603515625 0.23272705078125 0.8394775390625 0.63458251953125 0.61175537109375 0.59539794921875 0.7059326171875 0.6021728515625 0.70489501953125 0.6256103515625 0.79638671875 0.616943359375 0.7945556640625 0.6673583984375 0.8394775390625 0.6182861328125 0.8397216796875 0.66680908203125 0.202392578125 0.3016357421875 0.2503662109375 0.26861572265625 0.21209716796875 0.326904296875 0.2569580078125 0.30474853515625 0.72479248046875 0.477294921875 0.71307373046875 0.4627685546875 0.72454833984375 0.4765625 0.7130126953125 0.46240234375 0.7354736328125 0.49261474609375 0.73492431640625 0.49163818359375 0.746826171875 0.5067138671875 0.74090576171875 0.50439453125 0.79583740234375 0.6287841796875 0.74432373046875 0.5086669921875 0.7467041015625 0.507568359375 0.74774169921875 0.51300048828125 0.6583251953125 0.62420654296875 0.6116943359375 0.62335205078125 0.61248779296875 0.5975341796875 0.69488525390625 0.54681396484375 0.75225830078125 0.512451171875 0.692626953125 0.545654296875 0.8397216796875 0.66693115234375 0.839599609375 0.62615966796875 0.79595947265625 0.63421630859375 0.83935546875 0.620849609375 0.2347412109375 0.15447998046875 0.23406982421875 0.14385986328125 0.75250244140625 0.5107421875 0.66302490234375 0.5478515625 0.72320556640625 0.47869873046875 0.7239990234375 0.4791259765625 0.73590087890625 0.49249267578125 0.73553466796875 0.4932861328125 0.75140380859375 0.50946044921875 0.749755859375 0.5087890625 0.74993896484375 0.51568603515625 0.7476806640625 0.5166015625 0.658203125 0.63043212890625 0.611328125 0.62945556640625 0.60577392578125 0.6685791015625 0.65869140625 0.66845703125 0.60565185546875 0.6685791015625 0.28082275390625 0.27447509765625 0.2379150390625 0.2781982421875 0.26043701171875 0.2547607421875 0.75225830078125 0.5147705078125 0.68634033203125 0.558837890625 0.7501220703125 0.51458740234375 0.679931640625 0.55120849609375 0.722412109375 0.47821044921875 0.59521484375 0.4884033203125 0.73626708984375 0.49176025390625 0.6239013671875 0.52178955078125 0.7530517578125 0.5101318359375 0.669677734375 0.54705810546875 0.71307373046875 0.46307373046875 0.58477783203125 0.46380615234375 0.72503662109375 0.47808837890625 0.5963134765625 0.48663330078125 0.73602294921875 0.49365234375 0.61334228515625 0.5146484375 0.75274658203125 0.509033203125 0.64154052734375 0.5357666015625 0.599365234375 0.6243896484375 0.5928955078125 0.66876220703125 0.6834716796875 0.55755615234375 0.75115966796875 0.5147705078125 0.683349609375 0.5574951171875 0.68450927734375 0.5599365234375 0.677978515625 0.55291748046875 0.35504150390625 0.53594970703125 0.397705078125 0.5440673828125 0.36224365234375 0.522216796875 0.40472412109375 0.53118896484375 0.27691650390625 0.529541015625 0.31329345703125 0.53155517578125 0.30023193359375 0.51641845703125 0.32354736328125 0.5179443359375 0.3826904296875 0.53973388671875 0.3623046875 0.522216796875 0.3551025390625 0.53594970703125 0.43011474609375 0.44476318359375 0.4407958984375 0.48040771484375 0.45849609375 0.45257568359375 0.466552734375 0.48504638671875 0.49957275390625 0.43963623046875 0.48553466796875 0.40838623046875 0.48846435546875 0.4495849609375 0.47418212890625 0.40972900390625 0.395751953125 0.39984130859375 0.41632080078125 0.4205322265625 0.419677734375 0.3892822265625 0.44256591796875 0.41650390625 0.5096435546875 0.48602294921875 0.4957275390625 0.4881591796875 0.31353759765625 0.47210693359375 0.32666015625 0.48980712890625 0.29852294921875 0.48309326171875 0.30181884765625 0.487548828125 0.4071044921875 0.50439453125 0.36383056640625 0.49566650390625 0.45941162109375 0.36810302734375 0.44415283203125 0.37420654296875 0.36151123046875 0.4788818359375 0.40582275390625 0.4886474609375 0.36376953125 0.49566650390625 0.32647705078125 0.4736328125 0.474365234375 0.56195068359375 0.45855712890625 0.57049560546875 0.4893798828125 0.574462890625 0.49700927734375 0.59063720703125 0.59320068359375 0.62310791015625 0.59051513671875 0.669189453125 0.44580078125 0.546142578125 0.43475341796875 0.55780029296875 0.4239501953125 0.55511474609375 0.44586181640625 0.546142578125 0.45941162109375 0.57122802734375 0.47442626953125 0.56195068359375 0.4971923828125 0.59063720703125 0.3236083984375 0.5179443359375 0.3133544921875 0.53155517578125 0.01153564453125 0.130126953125 0.01153564453125 0.0811767578125 0.077880859375 0.122802734375 0.079345703125 0.095947265625 0.45855712890625 0.45257568359375 0.442626953125 0.41650390625 0.4163818359375 0.4205322265625 0.45953369140625 0.36810302734375 0.4742431640625 0.40972900390625 0.48126220703125 0.39801025390625 0.2593994140625 0.45953369140625 0.22760009765625 0.43121337890625 0.17840576171875 0.4532470703125 0.130126953125 0.46722412109375 0.41973876953125 0.3892822265625 0.39581298828125 0.39984130859375 0.40704345703125 0.50439453125 0.488525390625 0.4495849609375 0.5020751953125 0.4486083984375 0.3017578125 0.487548828125 0.467041015625 0.48504638671875 0.44342041015625 0.48040771484375 0.2984619140625 0.48309326171875 0.3134765625 0.47210693359375 0.248291015625 0.51739501953125 0.22137451171875 0.518798828125 0.2362060546875 0.5242919921875 0.221435546875 0.518798828125 0.07745361328125 0.541259765625 0.0096435546875 0.545166015625 0.08673095703125 0.49969482421875 0.84033203125 0.66656494140625 0.83978271484375 0.626708984375 0.83953857421875 0.62139892578125 0.83905029296875 0.61962890625 0.84033203125 0.66632080078125 0.0089111328125 0.54443359375 0.076416015625 0.541259765625 0.49578857421875 0.4881591796875 0.508056640625 0.4766845703125 0.0850830078125 0.4835205078125 0.47406005859375 0.53497314453125 0.44775390625 0.50872802734375 0.4434814453125 0.51708984375 0.495849609375 0.54541015625 0.30694580078125 0.2733154296875 0.3438720703125 0.15020751953125 0.28558349609375 0.09625244140625 0.24322509765625 0.092041015625 0.0797119140625 0.095947265625 0.0843505859375 0.05133056640625 0.01153564453125 0.01495361328125 0.1676025390625 0.04986572265625 0.16876220703125 0.08099365234375 0.21337890625 0.055908203125 0.2852783203125 0.43316650390625 0.3251953125 0.41796875 0.10601806640625 0.03662109375 0.50653076171875 0.55645751953125 0.51104736328125 0.52362060546875 0.4334716796875 0.4990234375 0.1322021484375 0.49981689453125 0.065185546875 0.413818359375 0.11981201171875 0.41033935546875 0.29608154296875 0.3048095703125 0.1697998046875 0.399658203125 0.2069091796875 0.3837890625 0.30657958984375 0.2734375 0.31707763671875 0.2420654296875 0.01055908203125 0.41729736328125 0.49578857421875 0.54541015625 0.50640869140625 0.55645751953125 0.51092529296875 0.52362060546875 0.4739990234375 0.53497314453125 0.44769287109375 0.50872802734375 0.27685546875 0.404296875 0.207275390625 0.3837890625 0.23797607421875 0.1429443359375 0.1702880859375 0.11029052734375 0.041015625 0.158203125 0.1263427734375 0.15277099609375 0.72845458984375 0.6402587890625 0.72607421875 0.66796875 0.73114013671875 0.6168212890625 0.248291015625 0.53179931640625 0.22967529296875 0.53411865234375 0.2115478515625 0.53173828125 0.21771240234375 0.55596923828125 0.21160888671875 0.53173828125 0.21392822265625 0.52447509765625 0.2176513671875 0.55596923828125 0.29522705078125 0.47509765625 0.13323974609375 0.49981689453125 0.23370361328125 0.14385986328125 0.169921875 0.11029052734375 0.27960205078125 0.1429443359375 0.28399658203125 0.2027587890625 0.3218994140625 0.18548583984375 0.7296142578125 0.6456298828125 0.72393798828125 0.66864013671875 0.2576904296875 0.33123779296875 0.25970458984375 0.3587646484375 0.2099609375 0.352294921875 0.167236328125 0.04986572265625 0.24285888671875 0.092041015625 0.083984375 0.05133056640625 0.1055908203125 0.03662109375 0.34234619140625 0.377197265625 0.36505126953125 0.291015625 0.3631591796875 0.1959228515625 0.26507568359375 0.243408203125 0.1668701171875 0.36871337890625 0.73236083984375 0.61529541015625 0.17974853515625 0.51177978515625 0.2669677734375 0.2403564453125 0.324462890625 0.2418212890625 0.43341064453125 0.4990234375 0.27691650390625 0.51495361328125 0.248291015625 0.55450439453125 0.83917236328125 0.62054443359375 0.84014892578125 0.61968994140625 0.83880615234375 0.62786865234375 0.83978271484375 0.6207275390625 0.84014892578125 0.62786865234375 0.8388671875 0.61968994140625 0.684814453125 0.55816650390625 0.75225830078125 0.5150146484375 0.3248291015625 0.41796875 0.1878662109375 0.14483642578125 0.284912109375 0.43316650390625 0.14813232421875 0.116455078125 0.30633544921875 0.26629638671875 0.289794921875 0.122802734375 0.2955322265625 0.30535888671875 0.27996826171875 0.1429443359375</float_array>
                    <technique_common>
                        <accessor count="355" source="#uvarray1" stride="2">
                            <param name="S" type="float"/>
                            <param name="T" type="float"/>
                        </accessor>
                    </technique_common>
                </source>
                <vertices id="vertices1">
                    <input semantic="POSITION" source="#points1"/>
                </vertices>
                <polylist count="704" material="Material1">
                    <input offset="0" semantic="VERTEX" source="#vertices1"/>
                    <input offset="1" semantic="TEXCOORD" source="#uvs1" set="0"/>
                    <vcount>3 3 3 3 3 3 3 3 3 3 3 3 3 3 3 3 3 3 3 3 3 3 3 3 3 3 3 3 3 3 3 3 3 3 3 3 3 3 3 3 3 3 3 3 3 3 3 3 3 3 3 3 3 3 3 3 3 3 3 3 3 3 3 3 3 3 3 3 3 3 3 3 3 3 3 3 3 3 3 3 3 3 3 3 3 3 3 3 3 3 3 3 3 3 3 3 3 3 3 3 3 3 3 3 3 3 3 3 3 3 3 3 3 3 3 3 3 3 3 3 3 3 3 3 3 3 3 3 3 3 3 3 3 3 3 3 3 3 3 3 3 3 3 3 3 3 3 3 3 3 3 3 3 3 3 3 3 3 3 3 3 3 3 3 3 3 3 3 3 3 3 3 3 3 3 3 3 3 3 3 3 3 3 3 3 3 3 3 3 3 3 3 3 3 3 3 3 3 3 3 3 3 3 3 3 3 3 3 3 3 3 3 3 3 3 3 3 3 3 3 3 3 3 3 3 3 3 3 3 3 3 3 3 3 3 3 3 3 3 3 3 3 3 3 3 3 3 3 3 3 3 3 3 3 3 3 3 3 3 3 3 3 3 3 3 3 3 3 3 3 3 3 3 3 3 3 3 3 3 3 3 3 3 3 3 3 3 3 3 3 3 3 3 3 3 3 3 3 3 3 3 3 3 3 3 3 3 3 3 3 3 3 3 3 3 3 3 3 3 3 3 3 3 3 3 3 3 3 3 3 3 3 3 3 3 3 3 3 3 3 3 3 3 3 3 3 3 3 3 3 3 3 3 3 3 3 3 3 3 3 3 3 3 3 3 3 3 3 3 3 3 3 3 3 3 3 3 3 3 3 3 3 3 3 3 3 3 3 3 3 3 3 3 3 3 3 3 3 3 3 3 3 3 3 3 3 3 3 3 3 3 3 3 3 3 3 3 3 3 3 3 3 3 3 3 3 3 3 3 3 3 3 3 3 3 3 3 3 3 3 3 3 3 3 3 3 3 3 3 3 3 3 3 3 3 3 3 3 3 3 3 3 3 3 3 3 3 3 3 3 3 3 3 3 3 3 3 3 3 3 3 3 3 3 3 3 3 3 3 3 3 3 3 3 3 3 3 3 3 3 3 3 3 3 3 3 3 3 3 3 3 3 3 3 3 3 3 3 3 3 3 3 3 3 3 3 3 3 3 3 3 3 3 3 3 3 3 3 3 3 3 3 3 3 3 3 3 3 3 3 3 3 3 3 3 3 3 3 3 3 3 3 3 3 3 3 3 3 3 3 3 3 3 3 3 3 3 3 3 3 3 3 3 3 3 3 3 3 3 3 3 3 3 3 3 3 3 3 3 3 3 3 3 3 3 3 3 3 3 3 3 3 3 3 3 3 3 3 3 3 3 3 3 3 3 3 3 3 3 3 3 3 3 3 3 3 3 3 3 3 3 3 3 3 3 3 3 3 3 3 3 3 3 3 3 3 3 3 3 3 3 3 3 3 3 3 3 3 3 3 3 3 3 3 3 3 3 3 3 3 3 3 3 3 3 3 3 3 3 3 3 3 3 3 3 3 3 3 3 3 3 3 3 3</vcount>
                    <p>2 2 1 1 0 0 3 3 1 1 2 2 6 6 5 5 4 4 7 7 5 5 6 6 10 10 9 9 8 8 11 11 9 9 10 10 14 14 13 13 12 12 15 15 13 13 14 14 17 17 10 10 16 16 11 11 10 10 17 17 18 18 13 13 15 15 19 19 13 13 18 18 21 21 6 6 20 20 7 7 6 6 21 21 23 23 21 21 22 22 7 7 21 21 23 23 26 26 25 25 24 24 27 27 25 25 26 26 27 27 29 28 28 0 26 26 29 28 27 27 31 29 5 21 30 22 32 30 5 21 31 29 35 33 34 32 33 31 36 34 34 32 35 33 28 0 38 35 37 1 29 28 38 35 28 0 24 24 35 33 26 26 36 34 35 33 24 24 26 26 39 36 29 28 35 33 39 36 26 26 29 28 40 37 38 35 39 36 40 37 29 28 43 39 42 17 41 38 8 8 42 17 43 39 45 41 12 12 44 40 14 14 12 12 45 41 22 22 47 30 46 29 21 21 47 30 22 22 27 27 48 42 25 25 49 43 48 42 27 27 49 43 28 0 2 2 27 27 28 0 49 43 2 2 37 1 3 3 28 0 37 1 2 2 52 46 51 45 50 44 53 47 51 45 52 46 55 49 50 44 54 48 52 50 50 44 55 49 58 53 57 52 56 51 59 54 57 52 58 53 62 57 61 56 60 55 63 58 61 56 62 57 66 56 65 60 64 59 67 55 65 60 66 56 70 63 69 62 68 61 71 64 69 62 70 63 74 67 73 66 72 65 75 68 73 66 74 67 71 64 76 69 69 62 77 70 76 69 71 64 80 14 79 13 78 15 81 12 79 13 80 14 84 72 83 57 82 71 85 57 83 57 84 72 87 18 79 13 86 19 78 15 79 13 87 18 11 11 42 17 9 9 17 17 42 17 11 11 88 73 5 21 32 30 89 74 5 21 88 73 6 6 89 75 20 20 4 4 89 75 6 6 91 77 43 39 90 76 8 8 43 39 91 77 94 80 93 79 92 78 95 32 93 79 94 80 98 26 97 25 96 27 99 24 97 25 98 26 96 27 100 28 98 26 0 0 100 28 96 27 102 81 101 31 92 78 103 82 101 31 102 81 92 78 104 83 94 80 101 31 104 83 92 78 102 81 93 79 105 84 92 78 93 79 102 81 0 0 106 35 100 28 1 1 106 35 0 0 107 85 8 8 91 77 10 10 8 8 107 85 108 86 104 83 101 31 109 87 104 83 108 86 99 24 111 33 110 88 98 26 111 33 99 24 49 43 0 0 96 27 2 2 0 0 49 43 100 28 113 37 112 36 106 35 113 37 100 28 16 16 107 85 114 89 10 10 107 85 16 16 114 89 115 39 16 16 116 76 115 39 114 89 45 41 81 12 80 14 44 40 81 12 45 41 5 5 23 23 30 90 7 7 23 23 5 5 96 27 48 42 49 43 97 25 48 42 96 27 118 72 62 57 117 57 119 71 62 57 118 72 61 56 120 60 60 55 121 59 120 60 61 56 123 92 60 55 122 91 124 55 60 55 123 92 127 95 126 94 125 93 128 96 126 94 127 95 131 99 130 98 129 97 132 100 130 98 131 99 135 103 134 102 133 101 136 104 134 102 135 103 138 106 133 101 137 105 135 103 133 101 138 106 140 108 137 105 139 107 138 106 137 105 140 108 141 109 119 71 118 72 125 93 119 71 141 109 143 111 142 110 140 108 144 112 142 110 143 111 123 92 120 60 145 113 122 91 120 60 123 92 120 60 146 114 145 113 147 115 146 114 120 60 149 118 148 117 130 116 144 112 148 117 149 118 152 120 151 94 150 119 153 121 151 94 152 120 153 121 154 122 141 109 152 120 154 122 153 121 156 124 33 31 155 123 157 86 33 31 156 124 154 122 125 93 141 109 127 95 125 93 154 122 158 125 130 116 148 117 129 126 130 116 158 125 136 104 159 127 134 102 160 128 159 127 136 104 160 128 161 129 159 127 162 130 161 129 160 128 162 130 163 131 161 129 164 132 163 131 162 130 164 132 165 133 163 131 166 134 165 133 164 132 117 57 141 109 118 72 153 121 141 109 117 57 167 135 123 92 145 113 124 55 123 92 167 135 146 114 167 135 145 113 168 136 167 135 146 114 169 137 120 60 121 59 147 136 120 60 169 137 126 94 62 57 125 93 63 58 62 57 126 94 168 136 170 138 167 135 171 139 170 138 168 136 174 141 173 140 172 100 175 142 173 140 174 141 42 17 88 73 41 38 89 75 88 73 42 17 178 145 177 144 176 143 174 146 177 144 178 145 180 149 81 148 179 147 79 150 81 148 180 149 181 151 79 150 180 149 86 152 79 150 181 151 176 143 86 152 181 151 177 144 86 152 176 143 179 147 44 154 182 153 81 148 44 154 179 147 182 153 12 156 183 155 44 154 12 156 182 153 183 155 13 158 184 157 12 156 13 158 183 155 184 157 19 160 185 159 13 158 19 160 184 157 185 159 129 126 158 125 19 160 129 126 185 159 147 161 168 136 146 114 169 162 168 136 147 161 143 111 185 159 158 125 139 107 185 159 143 111 139 107 184 157 185 159 137 105 184 157 139 107 98 26 112 36 111 33 100 28 112 36 98 26 133 101 182 153 183 155 134 102 182 153 133 101 134 102 179 147 182 153 159 127 179 147 134 102 159 127 180 149 179 147 161 129 180 149 159 127 161 129 181 151 180 149 163 131 181 151 161 129 163 131 176 143 181 151 165 133 176 143 163 131 186 164 175 163 178 145 187 165 175 163 186 164 34 166 140 108 142 110 36 160 140 108 34 166 36 160 138 106 140 108 24 158 138 106 36 160 24 158 135 103 138 106 25 156 135 103 24 158 25 156 136 104 135 103 48 154 136 104 25 156 48 154 160 128 136 104 97 148 160 128 48 154 97 148 162 130 160 128 99 150 162 130 97 148 99 150 164 132 162 130 110 152 164 132 99 150 105 167 166 134 164 132 93 144 166 134 105 167 190 170 189 169 188 168 191 171 189 169 190 170 194 174 193 173 192 172 195 175 193 173 194 174 110 88 102 81 105 84 111 33 102 81 110 88 111 33 103 82 102 81 112 36 103 82 111 33 198 177 197 176 196 171 199 178 197 176 198 177 202 181 201 180 200 179 203 182 201 180 202 181 206 185 205 184 204 183 207 186 205 184 206 185 210 189 209 188 208 187 211 190 209 188 210 189 213 192 204 183 212 191 206 185 204 183 213 192 216 195 215 194 214 193 217 196 215 194 216 195 218 197 198 177 196 171 219 198 198 177 218 197 207 186 220 199 205 184 221 200 220 199 207 186 211 190 200 179 209 188 202 181 200 179 211 190 219 198 223 202 222 201 218 197 223 202 219 198 195 175 188 168 193 173 190 170 188 168 195 175 190 170 225 194 224 203 195 175 225 194 190 170 225 194 226 201 224 203 227 204 226 201 225 194 230 207 229 206 228 205 231 208 229 206 230 207 234 136 233 138 232 139 235 135 233 138 234 136 238 209 237 22 236 23 239 210 237 22 238 209 240 211 189 169 191 171 241 212 189 169 240 211 243 94 83 57 242 58 244 93 83 57 243 94 246 214 197 176 245 213 196 171 197 176 246 214 248 216 245 213 247 215 246 214 245 213 248 216 250 207 247 215 249 217 248 216 247 215 250 207 215 194 222 201 251 204 219 198 222 201 215 194 198 177 215 194 252 218 219 198 215 194 198 177 252 218 199 178 198 177 253 219 199 178 252 218 256 222 255 221 254 220 257 223 255 221 256 222 260 225 259 179 258 224 261 226 259 179 260 225 264 228 263 227 262 200 265 229 263 227 264 228 208 46 266 231 210 230 267 232 266 231 208 46 268 49 267 232 208 46 269 233 267 232 268 49 83 57 66 56 242 58 67 55 66 56 83 57 137 105 183 155 184 157 133 101 183 155 137 105 53 234 261 226 260 225 52 235 261 226 53 234 224 203 271 202 270 236 226 201 271 202 224 203 272 237 265 229 264 228 273 238 265 229 272 237 270 236 190 170 224 203 191 171 190 170 270 236 194 174 225 194 195 175 274 239 225 194 194 174 258 224 276 241 275 240 259 179 276 241 258 224 277 242 225 194 274 239 278 243 225 194 277 242 279 174 215 194 217 196 252 218 215 194 279 174 282 21 281 6 280 7 283 20 281 6 282 21 236 23 282 21 280 7 237 22 282 21 236 23 285 92 67 55 284 55 286 91 67 55 285 92 239 29 288 21 287 30 238 22 288 21 239 29 289 114 235 135 234 136 290 113 235 135 289 114 293 39 292 17 291 8 294 38 292 17 293 39 297 244 296 245 295 244 298 246 296 245 297 244 237 22 299 30 282 21 300 29 299 30 237 22 302 246 295 244 301 247 297 244 295 244 302 246 235 135 285 92 284 55 290 113 285 92 235 135 85 57 304 109 303 121 84 72 304 109 85 57 304 109 82 71 244 93 84 72 82 71 304 109 292 17 306 73 305 75 294 38 306 73 292 17 285 92 65 60 286 91 290 113 65 60 285 92 65 60 289 114 307 115 290 113 289 114 65 60 307 161 234 136 308 162 289 114 234 136 307 161 311 250 310 249 309 248 75 68 310 249 311 250 312 94 152 252 150 251 303 121 152 252 312 94 303 121 154 253 152 252 304 109 154 253 303 121 154 253 244 93 127 254 304 109 244 93 154 253 127 254 243 94 128 255 244 93 243 94 127 254 228 205 241 212 240 211 229 206 241 212 228 205 74 67 310 256 75 68 313 257 310 256 74 67 308 137 65 60 307 136 64 59 65 60 308 137 258 224 314 258 272 237 275 240 314 258 258 224 316 11 292 17 315 17 317 9 292 17 316 11 306 73 288 21 305 74 287 30 288 21 306 73 281 6 305 75 318 4 283 20 305 75 281 6 202 181 213 192 203 182 206 185 213 192 202 181 314 258 273 238 272 237 319 259 273 238 314 258 279 174 253 219 252 218 192 172 253 219 279 174 315 17 320 10 316 11 321 16 320 10 315 17 320 10 317 9 316 11 291 8 317 9 320 10 311 250 73 66 75 68 322 260 73 66 311 250 281 6 288 5 280 7 318 4 288 5 281 6 30 209 22 22 31 210 23 23 22 22 30 209 288 5 236 23 280 7 238 90 236 23 288 5 114 89 323 39 116 76 321 16 323 39 114 89 321 16 107 85 320 10 114 89 107 85 321 16 107 85 291 8 320 10 91 77 291 8 107 85 91 77 293 39 291 8 90 76 293 39 91 77 275 240 324 261 314 258 276 241 325 262 275 240 325 262 326 263 324 261 324 261 326 263 246 214 223 202 218 197 326 263 327 264 324 261 248 216 330 70 329 265 328 64 333 268 332 267 331 266 336 271 335 270 334 269 336 271 334 269 255 221 338 273 337 272 333 268 333 268 337 272 339 274 266 231 220 276 221 275 340 277 335 270 336 271 342 279 327 264 341 278 325 262 343 280 326 263 319 259 314 258 342 279 325 262 324 261 275 240 72 65 344 281 74 67 80 14 346 283 345 282 349 99 348 284 347 54 78 15 350 285 346 283 87 18 351 286 350 285 348 284 172 100 329 287 108 86 101 31 103 82 329 287 352 288 328 288 80 14 353 289 45 41 78 15 346 283 80 14 356 292 355 291 354 290 324 261 246 214 248 216 343 280 223 202 326 263 326 263 218 197 246 214 357 293 213 192 354 290 225 194 278 243 227 204 202 181 207 186 206 185 213 192 356 292 354 290 354 290 355 291 230 207 211 190 210 189 221 200 211 190 207 186 202 181 230 207 228 205 354 290 207 186 211 190 221 200 230 207 355 291 231 208 270 236 240 211 191 171 271 202 358 263 270 236 357 293 240 211 358 263 359 294 357 293 358 263 357 293 359 294 203 182 203 182 213 192 357 293 351 296 360 295 266 231 266 231 360 295 220 276 350 285 266 231 267 232 353 289 72 260 73 66 109 297 108 86 333 268 335 270 361 298 334 269 254 220 362 222 106 35 106 35 1 299 254 220 362 222 113 300 106 35 333 268 339 274 332 267 338 273 333 268 361 298 361 298 362 222 334 269 365 302 364 301 363 58 365 302 366 56 364 301 85 57 364 301 367 303 85 57 367 303 83 57 363 58 364 301 85 57 117 57 62 57 368 303 367 303 364 301 284 55 117 57 368 303 369 301 371 302 369 301 370 56 371 302 372 58 369 301 67 55 83 57 367 303 364 301 366 56 284 55 67 55 367 303 284 55 85 57 303 121 312 94 85 57 312 94 363 58 302 246 374 305 373 304 297 244 302 246 373 304 279 307 217 306 375 305 274 308 194 307 374 305 216 309 298 246 375 305 274 308 374 305 277 309 375 305 373 304 279 310 374 305 194 307 373 304 217 306 216 309 375 305 216 309 296 245 298 246 277 309 302 246 301 245 278 243 277 242 301 311 277 309 374 305 302 246 376 312 309 248 55 49 309 248 376 312 311 250 378 315 377 314 156 313 155 123 33 31 379 316 70 317 155 123 380 64 383 73 382 319 381 318 157 86 39 36 33 31 385 322 59 321 384 320 387 324 386 323 377 314 389 326 388 325 386 323 340 277 337 272 335 270 284 55 366 56 233 138 284 55 233 138 235 135 65 60 67 55 286 91 82 71 83 57 244 93 234 136 232 139 308 162 124 55 170 138 370 56 391 328 390 327 348 284 117 57 372 58 151 94 360 295 347 321 390 327 393 329 328 64 392 317 187 330 94 80 352 288 108 86 112 36 113 37 390 327 347 321 348 284 377 314 257 223 40 298 256 222 40 298 257 223 60 55 124 55 368 303 113 300 362 222 361 298 255 221 334 269 254 220 254 220 334 269 362 222 328 288 352 288 392 63 131 99 19 19 18 18 372 58 117 57 369 301 385 322 18 18 394 331 17 17 396 318 395 332 17 17 395 332 42 17 397 38 396 318 17 17 395 332 396 318 20 20 89 20 42 17 395 332 89 75 395 332 20 20 20 20 398 73 47 30 5 5 89 75 4 4 392 63 94 80 104 83 352 288 173 140 187 330 353 289 345 282 72 260 80 14 345 282 353 289 9 9 42 17 8 8 20 20 47 30 21 21 17 17 16 16 397 38 398 73 396 318 399 319 382 319 400 38 381 318 283 20 383 73 381 318 315 17 401 332 381 318 315 17 292 17 401 332 400 38 315 17 381 318 401 332 283 20 381 318 305 20 401 332 292 17 305 75 283 20 401 332 321 16 400 38 323 39 283 20 299 30 383 73 288 5 318 4 305 75 237 22 239 210 300 29 317 9 291 8 292 17 283 20 282 21 299 30 120 60 122 91 60 55 168 136 169 162 171 139 322 260 311 250 376 312 344 281 268 333 313 257 313 257 74 67 344 281 22 22 46 29 31 210 172 100 349 99 177 97 86 19 349 99 87 18 14 14 353 289 402 283 394 331 15 15 402 283 394 331 403 296 385 322 404 335 379 316 149 334 33 31 39 36 35 33 157 86 40 37 39 36 14 14 45 41 353 289 15 15 14 14 402 283 131 99 129 97 19 19 384 320 132 100 385 322 131 99 18 18 385 322 18 18 15 15 394 331 357 293 228 205 240 211 405 336 358 263 271 202 358 263 240 211 270 236 216 195 214 193 296 311 194 174 192 172 406 337 373 304 194 307 406 338 119 71 125 93 62 57 124 55 167 135 170 138 117 57 151 94 153 121 369 301 124 55 370 56 152 341 127 340 154 339 127 344 152 343 154 342 399 319 396 318 397 38 20 20 396 318 398 73 404 335 149 334 132 100 165 133 178 145 176 143 95 345 166 134 93 144 392 63 352 288 94 80 95 32 94 80 187 330 407 346 166 134 95 345 186 164 178 145 165 133 407 346 165 133 166 134 144 112 143 111 148 117 132 100 149 334 130 98 402 283 322 260 54 48 57 52 403 286 51 45 51 45 263 347 57 52 408 285 50 44 51 45 353 289 73 66 322 260 156 313 377 314 157 348 388 325 257 223 377 314 256 222 254 220 38 35 377 314 40 37 157 348 389 326 336 271 388 325 51 45 262 349 263 347 377 314 386 323 388 325 336 271 255 221 257 223 336 271 257 223 388 325 254 220 3 3 37 1 408 285 51 45 403 286 331 266 109 297 333 268 345 282 346 283 72 260 353 289 322 260 402 283 361 298 108 86 113 300 38 35 254 220 37 1 40 350 256 222 38 35 359 294 358 263 405 336 212 191 356 292 213 192 203 182 359 294 201 180 354 290 228 205 357 293 324 261 327 264 314 258 215 194 251 204 214 193 258 224 272 237 264 228 279 310 373 304 406 338 298 246 297 244 373 304 375 305 298 246 373 304 192 172 279 174 406 337 314 258 327 264 342 279 327 264 250 207 341 278 260 225 262 200 53 234 260 225 258 224 264 228 250 207 327 264 248 216 264 228 262 200 260 225 250 207 249 217 341 278 218 197 196 171 246 214 408 285 402 283 50 44 51 45 53 47 262 349 377 314 378 315 387 324 68 61 378 315 70 63 54 48 376 312 55 49 394 331 402 283 408 285 380 64 379 316 404 335 404 335 132 100 409 351 349 99 347 54 351 286 394 331 408 285 403 296 155 123 379 316 380 64 187 330 173 140 175 142 174 146 178 145 175 163 72 260 269 233 344 312 390 327 220 276 360 295 87 18 349 99 351 286 330 70 391 328 329 265 329 265 391 328 348 284 393 329 330 70 328 64 335 270 338 273 361 298 335 270 337 272 338 273 68 61 410 352 378 315 56 51 411 328 58 53 56 51 57 52 263 347 87 18 350 285 78 15 172 100 348 284 349 99 329 287 173 140 352 288 60 55 368 303 62 57 368 303 124 55 369 301 70 317 380 64 71 64 412 353 411 328 77 70 384 320 412 353 409 351 71 64 380 64 409 351 412 353 59 321 58 53 329 287 172 100 173 140 109 297 331 266 104 83 333 268 108 86 361 298 409 351 412 353 71 288 71 288 412 353 77 70 397 38 16 16 115 39 315 17 400 38 321 16 105 167 164 132 110 152 108 86 103 82 112 36 378 354 155 123 70 317 156 124 155 123 378 354 403 286 59 321 385 322 58 53 411 328 412 353 384 320 59 321 412 353 409 351 132 100 384 320 59 54 403 286 57 52 380 64 404 335 409 351 347 321 360 295 351 296 177 97 349 99 86 19 172 100 177 97 174 141 402 283 54 48 50 44 77 70 411 328 76 69 322 260 376 312 54 48 410 352 387 324 378 315 72 260 346 283 269 233 186 164 407 346 95 345 95 345 187 165 186 164 131 99 385 322 132 100 148 117 143 111 158 125 34 32 149 334 379 316 144 112 149 118 34 166 34 166 142 110 144 112 34 32 379 316 33 31 139 107 143 111 140 108 186 164 165 133 407 346 254 220 1 299 3 3 350 285 351 296 266 231 350 285 267 232 346 283 266 231 221 275 210 230 104 83 331 266 392 63 393 329 392 317 331 266 269 233 268 49 344 312 346 283 267 232 269 233</p>
                </polylist>
            </mesh>
        </geometry>
        <geometry id="mesh2">
            <mesh>
                <source id="points2">
                    <float_array id="pointarray2" count="21">62.7890625 -24.265625 -4.7578125 61.7734375 -23.2890625 -6.1796875 61.4765625 -25.25 -9.390625 61.0546875 -22.6796875 -8.1328125 60.078125 -22.9765625 -10.796875 58.9609375 -24.1640625 -12.4921875 58.46875 -26.421875 -13.2421875</float_array>
                    <technique_common>
                        <accessor count="7" source="#pointarray2" stride="3">
                            <param name="X" type="float"/>
                            <param name="Y" type="float"/>
                            <param name="Z" type="float"/>
                        </accessor>
                    </technique_common>
                </source>
                <source id="uvs2">
                    <float_array id="uvarray2" count="14">0.21539306640625 0.224853515625 0.3865966796875 0.14288330078125 0.5943603515625 0.36474609375 0.52740478515625 0.1134033203125 0.69915771484375 0.1458740234375 0.85455322265625 0.30206298828125 0.8968505859375 0.47894287109375</float_array>
                    <technique_common>
                        <accessor count="7" source="#uvarray2" stride="2">
                            <param name="S" type="float"/>
                            <param name="T" type="float"/>
                        </accessor>
                    </technique_common>
                </source>
                <vertices id="vertices2">
                    <input semantic="POSITION" source="#points2"/>
                </vertices>
                <polylist count="5" material="Material1">
                    <input offset="0" semantic="VERTEX" source="#vertices2"/>
                    <input offset="1" semantic="TEXCOORD" source="#uvs2" set="0"/>
                    <vcount>3 3 3 3 3</vcount>
                    <p>2 2 1 1 0 0 2 2 4 4 3 3 4 4 2 2 5 5 5 5 2 2 6 6 2 2 3 3 1 1</p>
                </polylist>
            </mesh>
        </geometry>
    </library_geometries>
    <library_visual_scenes>
        <visual_scene id="VisualSceneNode">
            <node id="node0" name="m0" type="NODE">
                <instance_geometry url="#mesh0">
                    <bind_material>
                        <technique_common>
                            <instance_material symbol="Material1" target="#mat0">
                                <bind_vertex_input semantic="UVSET0" input_semantic="TEXCOORD" input_set="0"></bind_vertex_input>
                            </instance_material>
                        </technique_common>
                    </bind_material>
                </instance_geometry>
            </node>
            <node id="node1" name="m1" type="NODE">
                <instance_geometry url="#mesh1">
                    <bind_material>
                        <technique_common>
                            <instance_material symbol="Material1" target="#mat1">
                                <bind_vertex_input semantic="UVSET0" input_semantic="TEXCOORD" input_set="0"></bind_vertex_input>
                            </instance_material>
                        </technique_common>
                    </bind_material>
                </instance_geometry>
            </node>
            <node id="node2" name="m2" type="NODE">
                <instance_geometry url="#mesh2">
                    <bind_material>
                        <technique_common>
                            <instance_material symbol="Material1" target="#mat2">
                                <bind_vertex_input semantic="UVSET0" input_semantic="TEXCOORD" input_set="0"></bind_vertex_input>
                            </instance_material>
                        </technique_common>
                    </bind_material>
                </instance_geometry>
            </node>
        </visual_scene>
    </library_visual_scenes>
    <scene>
        <instance_visual_scene url="#VisualSceneNode"></instance_visual_scene>
    </scene>
</COLLADA>
