<?xml version="1.0"?>
<COLLADA xmlns="http://www.collada.org/2005/11/COLLADASchema" version="1.4.1">
    <asset>
        <contributor>
            <authoring_tool>J3D Ripoff Exporter</authoring_tool>
        </contributor>
        <created>2024-08-18T17:24:44.841Z</created>
        <modified>2024-08-18T17:24:44.841Z</modified>
		<unit meter="0.01" name="centimeter" ></unit>
        <up_axis>Y_UP</up_axis>
    </asset>
    <library_images>
        <image id="tex0">
            <init_from>akebono_eye.png</init_from>
        </image>
        <image id="tex1">
            <init_from>akebono_body.png</init_from>
        </image>
    </library_images>
    <library_effects>
        <effect id="effect0">
            <profile_COMMON>
                <newparam sid="surface0">
                    <surface type="2D">
                        <init_from>tex1</init_from>
                    </surface>
                </newparam>
                <newparam sid="sampler0">
                    <sampler2D>
                        <source>surface0</source>
                    </sampler2D>
                </newparam>
                <technique sid="COMMON">
                    <blinn>
                        <diffuse>
                            <texture texture="sampler0" texcoord="UVSET0"></texture>
                        </diffuse>
                    </blinn>
                </technique>
            </profile_COMMON>
        </effect>
        <effect id="effect1">
            <profile_COMMON>
                <newparam sid="surface1">
                    <surface type="2D">
                        <init_from>tex1</init_from>
                    </surface>
                </newparam>
                <newparam sid="sampler1">
                    <sampler2D>
                        <source>surface1</source>
                    </sampler2D>
                </newparam>
                <technique sid="COMMON">
                    <blinn>
                        <diffuse>
                            <texture texture="sampler1" texcoord="UVSET0"></texture>
                        </diffuse>
                    </blinn>
                </technique>
            </profile_COMMON>
        </effect>
        <effect id="effect2">
            <profile_COMMON>
                <newparam sid="surface2">
                    <surface type="2D">
                        <init_from>tex0</init_from>
                    </surface>
                </newparam>
                <newparam sid="sampler2">
                    <sampler2D>
                        <source>surface2</source>
                    </sampler2D>
                </newparam>
                <technique sid="COMMON">
                    <blinn>
                        <diffuse>
                            <texture texture="sampler2" texcoord="UVSET0"></texture>
                        </diffuse>
                    </blinn>
                </technique>
            </profile_COMMON>
        </effect>
    </library_effects>
    <library_materials>
        <material id="mat0" name="Skin_etc">
            <instance_effect url="#effect0"></instance_effect>
        </material>
        <material id="mat1" name="Skin_spec">
            <instance_effect url="#effect1"></instance_effect>
        </material>
        <material id="mat2" name="eye">
            <instance_effect url="#effect2"></instance_effect>
        </material>
    </library_materials>
    <library_geometries>
        <geometry id="mesh0">
            <mesh>
                <source id="points0">
                    <float_array id="pointarray0" count="417">66.71875 1.8359375 4.484375 66.515625 3.21875 0.1328125 57.421875 -3.4609375 5.1484375 57.265625 -0.1953125 0.15625 52.7421875 -3.96875 4.9921875 52.6640625 -1.359375 0.1640625 58.4296875 13.125 14.5390625 51.3203125 13.28125 19.109375 76.953125 10.9140625 16.078125 69.1328125 10.6484375 20.4609375 62.515625 12.7109375 10.484375 81.765625 10.953125 10.6953125 65.25 12.46875 5.6015625 83.9921875 10.6796875 5.640625 65.8203125 12.6328125 -0.3046875 84.5703125 10.484375 -0.6015625 64.8828125 12.3046875 -6.2421875 83.265625 9.984375 -6.8359375 62.6015625 11.8984375 -11.765625 80.84375 9.078125 -12.359375 58.1796875 12.0390625 -17.5546875 76.34375 8.1171875 -17.84375 53.234375 10.78125 -21.3671875 70.3203125 6.8359375 -22.3203125 57.875 -10.84375 16.953125 48.3125 -6.5625 21.734375 49.8984375 4.890625 15.1484375 49.296875 6.1484375 19.34375 61.5625 -12.34375 11.84375 50.0078125 4.03125 10.484375 63.6015625 -12.65625 5.9609375 50.7421875 3.4609375 5.59375 64.546875 -12.4453125 -0.046875 50.9453125 3.4296875 -0.140625 63.7265625 -10.84375 -6.4296875 50.6171875 3.9921875 -5.9296875 67.4765625 6.1015625 15.1953125 77.1640625 6.1640625 9.5390625 67.984375 3.7421875 12.390625 74.71875 3.25 8 57.9453125 2.15625 16.0390625 58.453125 -0.1953125 13.5078125 53.2265625 0.2421875 13.5234375 54.234375 -1.90625 11.4765625 54.21875 3.890625 8.9765625 57.28125 5.140625 10.5859375 53.0703125 1.6015625 13 57.6640625 3.4609375 15.390625 66.96875 10.109375 9.6875 67.34375 8.4375 14.6015625 51.359375 -1.984375 5.8984375 51.34375 0.6640625 0.171875 75.1328125 9.265625 9.1484375 81.3515625 -8.671875 -7.4921875 82.71875 -10.90625 -0.59375 61.5703125 -8.109375 -11.796875 78.8515625 -6.0703125 -13.15625 56.453125 -3.671875 -17.6015625 73.8125 -2.171875 -18.7421875 51.34375 -0.359375 -20.8203125 68.890625 1.953125 -22.4765625 52.3359375 7.0703125 -17.15625 51.1171875 5.3125 -11.75 79.390625 7.203125 0.1015625 77.0625 4.640625 0.109375 76.890625 10.640625 0.109375 66.6796875 5.4453125 -23.6875 74.6875 3.25 -7.765625 77.3671875 6.1640625 -9.328125 75.0859375 9.265625 -8.921875 57.3984375 -3.46875 -4.828125 52.71875 -3.984375 -4.6484375 66.6953125 1.8359375 -4.21875 57.5859375 3.4609375 -15.078125 57.234375 5.1328125 -10.265625 53.0078125 1.6015625 -12.6640625 54.171875 3.890625 -8.6484375 81.625 -11.375 6.3046875 78.5703125 -11.0078125 12.625 73.3359375 -9.09375 18.8046875 65.625 -5.7265625 23.4140625 67.2734375 8.4375 -14.3359375 65.4921875 9.53125 -9.4140625 57.8671875 2.15625 -15.7265625 53.15625 0.2421875 -13.1875 67.40625 6.1015625 -14.9296875 51.3359375 -1.984375 -5.5546875 54.171875 -1.90625 -11.140625 58.390625 -0.1953125 -13.203125 67.921875 3.7421875 -12.125 62 -26.703125 8.8515625 59.0234375 -28.078125 13.4921875 61.4765625 -25.25 9.3828125 58.46875 -26.421875 13.234375 62.7734375 -22.28125 -6.359375 62.4921875 -21.53125 -4.46875 61.65625 -21.4296875 -8.59375 60.3515625 -19.8203125 -9.046875 54.78125 -23.5703125 -16.0390625 58.46875 -24.078125 -12.953125 55.890625 -20.65625 -14.59375 57.0625 7.78125 0.15625 65.125 9.5078125 0.1328125 51.265625 2.0546875 0.171875 63.6953125 -22.3515625 0 64.1953125 -25.609375 -2.171875 64.3359375 -25.0234375 0 54.2421875 -27.8515625 -17.4296875 58.453125 -26.3515625 -13.1640625 55.84375 -29.8125 -16.390625 59.0234375 -27.78125 -12.84375 63.703125 -26.078125 5.1796875 62.7890625 -24.265625 4.75 64 -25.8984375 3.828125 53.8203125 -27.8515625 17.15625 54.78125 -23.5703125 16.03125 60.078125 -22.9765625 10.7890625 58.9609375 -24.1640625 12.484375 57.859375 -18.171875 12.4375 55.84375 -29.8125 16.3828125 54.1875 -31 17.875 55.890625 -20.65625 14.59375 62.4921875 -21.53125 4.46875 61.0546875 -22.6796875 8.1328125 60.3515625 -19.8203125 9.0390625 61.7734375 -23.2890625 6.1796875 64.1953125 -25.609375 2.171875 64 -25.8984375 -4.1328125 59.265625 -22.515625 -11.8984375 60.375 -21.7265625 -10.6015625 57.859375 -18.171875 -12.4375 63.3984375 -23.65625 -4.9375 54.1875 -31 -17.8828125 50.8984375 6.328125 22.625 60.0078125 -1.2109375 24.9609375 47.875 13.1171875 20.4375 58.5390625 7.4765625 24.390625 62.5390625 9.78125 23.078125 57.9296875 3.140625 25.046875</float_array>
                    <technique_common>
                        <accessor count="139" source="#pointarray0" stride="3">
                            <param name="X" type="float"/>
                            <param name="Y" type="float"/>
                            <param name="Z" type="float"/>
                        </accessor>
                    </technique_common>
                </source>
                <source id="uvs0">
                    <float_array id="uvarray0" count="248">0.4122314453125 0.31219482421875 0.393798828125 0.31219482421875 0.41015625 0.3341064453125 0.393798828125 0.33477783203125 0.40960693359375 0.33685302734375 0.393798828125 0.33685302734375 0.75140380859375 0.509033203125 0.7493896484375 0.5164794921875 0.66943359375 0.5455322265625 0.68572998046875 0.5567626953125 0.73748779296875 0.4942626953125 0.62457275390625 0.52142333984375 0.72613525390625 0.4808349609375 0.596435546875 0.4896240234375 0.71539306640625 0.46484375 0.586181640625 0.4661865234375 0.7266845703125 0.47833251953125 0.59747314453125 0.4879150390625 0.73687744140625 0.49273681640625 0.61419677734375 0.5146484375 0.74273681640625 0.5048828125 0.641845703125 0.5347900390625 0.74774169921875 0.510986328125 0.6839599609375 0.55780029296875 0.754638671875 0.51031494140625 0.75384521484375 0.5147705078125 0.75299072265625 0.50970458984375 0.7515869140625 0.515625 0.73822021484375 0.49285888671875 0.73785400390625 0.49359130859375 0.724609375 0.47991943359375 0.72540283203125 0.4803466796875 0.7154541015625 0.46551513671875 0.71539306640625 0.4652099609375 0.7271728515625 0.47979736328125 0.7269287109375 0.47906494140625 0.45758056640625 0.31219482421875 0.44000244140625 0.287841796875 0.44573974609375 0.31219482421875 0.43243408203125 0.2958984375 0.4610595703125 0.33294677734375 0.45037841796875 0.33294677734375 0.45037841796875 0.33624267578125 0.44171142578125 0.3359375 0.43115234375 0.3350830078125 0.43798828125 0.33294677734375 0.44818115234375 0.336181640625 0.45831298828125 0.33294677734375 0.43426513671875 0.31219482421875 0.455078125 0.31219482421875 0.41802978515625 0.33740234375 0.393798828125 0.33740234375 0.43804931640625 0.2899169921875 0.7379150390625 0.49462890625 0.75433349609375 0.50933837890625 0.75408935546875 0.510986328125 0.66290283203125 0.54632568359375 0.74853515625 0.507080078125 0.73736572265625 0.49365234375 0.393798828125 0.27685546875 0.393798828125 0.286865234375 0.749755859375 0.51153564453125 0.393798828125 0.2794189453125 0.75384521484375 0.5125732421875 0.69415283203125 0.5452880859375 0.4326171875 0.2958984375 0.440185546875 0.287841796875 0.43829345703125 0.2899169921875 0.41033935546875 0.3341064453125 0.4097900390625 0.33685302734375 0.41241455078125 0.31219482421875 0.45849609375 0.33294677734375 0.43817138671875 0.33294677734375 0.4483642578125 0.336181640625 0.43133544921875 0.3350830078125 0.45526123046875 0.31219482421875 0.4344482421875 0.31219482421875 0.46124267578125 0.33294677734375 0.4505615234375 0.33624267578125 0.457763671875 0.31219482421875 0.41827392578125 0.33740234375 0.44189453125 0.3359375 0.4505615234375 0.33294677734375 0.4459228515625 0.31219482421875 0.3626708984375 0.0751953125 0.3681640625 0.0777587890625 0.3636474609375 0.07257080078125 0.3681640625 0.07427978515625 0.31158447265625 0.04046630859375 0.300048828125 0.03021240234375 0.322021484375 0.0367431640625 0.3271484375 0.0233154296875 0.38055419921875 0.0474853515625 0.360107421875 0.060302734375 0.372802734375 0.029296875 0.393798828125 0.33294677734375 0.393798828125 0.33721923828125 0.2789306640625 0.032958984375 0.28741455078125 0.05712890625 0.27862548828125 0.05535888671875 0.3876953125 0.0772705078125 0.36053466796875 0.06982421875 0.379150390625 0.08984375 0.36090087890625 0.07928466796875 0.3583984375 0.07373046875 0.3580322265625 0.07049560546875 0.3560791015625 0.0732421875 0.33660888671875 0.0380859375 0.35089111328125 0.0467529296875 0.3529052734375 0.0145263671875 0.388671875 0.10107421875 0.30084228515625 0.048828125 0.2962646484375 0.058837890625 0.2962646484375 0.05889892578125 0.75177001953125 0.51458740234375 0.679443359375 0.54949951171875 0.7528076171875 0.5147705078125 0.68280029296875 0.5555419921875 0.7532958984375 0.514892578125 0.69189453125 0.544189453125 0.74945068359375 0.5130615234375 0.68426513671875 0.55615234375 0.75384521484375 0.51495361328125 0.68292236328125 0.5555419921875</float_array>
                    <technique_common>
                        <accessor count="124" source="#uvarray0" stride="2">
                            <param name="S" type="float"/>
                            <param name="T" type="float"/>
                        </accessor>
                    </technique_common>
                </source>
                <vertices id="vertices0">
                    <input semantic="POSITION" source="#points0"/>
                </vertices>
                <polylist count="209" material="Material1">
                    <input offset="0" semantic="VERTEX" source="#vertices0"/>
                    <input offset="1" semantic="TEXCOORD" source="#uvs0" set="0"/>
                    <vcount>3 3 3 3 3 3 3 3 3 3 3 3 3 3 3 3 3 3 3 3 3 3 3 3 3 3 3 3 3 3 3 3 3 3 3 3 3 3 3 3 3 3 3 3 3 3 3 3 3 3 3 3 3 3 3 3 3 3 3 3 3 3 3 3 3 3 3 3 3 3 3 3 3 3 3 3 3 3 3 3 3 3 3 3 3 3 3 3 3 3 3 3 3 3 3 3 3 3 3 3 3 3 3 3 3 3 3 3 3 3 3 3 3 3 3 3 3 3 3 3 3 3 3 3 3 3 3 3 3 3 3 3 3 3 3 3 3 3 3 3 3 3 3 3 3 3 3 3 3 3 3 3 3 3 3 3 3 3 3 3 3 3 3 3 3 3 3 3 3 3 3 3 3 3 3 3 3 3 3 3 3 3 3 3 3 3 3 3 3 3 3 3 3 3 3 3 3 3 3 3 3 3 3 3 3 3 3 3 3</vcount>
                    <p>2 2 1 1 0 0 3 3 1 1 2 2 5 5 2 2 4 4 3 3 2 2 5 5 8 8 7 7 6 6 9 9 7 7 8 8 11 11 6 6 10 10 8 8 6 6 11 11 13 13 10 10 12 12 11 11 10 10 13 13 15 15 12 12 14 14 13 13 12 12 15 15 17 17 14 14 16 16 15 15 14 14 17 17 19 19 16 16 18 18 17 17 16 16 19 19 21 21 18 18 20 20 19 19 18 18 21 21 23 23 20 20 22 22 21 21 20 20 23 23 26 26 25 25 24 24 27 27 25 25 26 26 29 29 24 24 28 28 26 26 24 24 29 29 31 31 28 28 30 30 29 29 28 28 31 31 33 33 30 30 32 32 31 31 30 30 33 33 35 35 32 32 34 34 33 33 32 32 35 35 38 38 37 37 36 36 39 39 37 37 38 38 41 41 36 36 40 40 38 38 36 36 41 41 43 43 40 40 42 42 41 41 40 40 43 43 46 46 45 45 44 44 47 47 45 45 46 46 47 47 48 48 45 45 49 49 48 48 47 47 4 4 42 42 50 50 43 43 42 42 4 4 5 5 50 50 51 51 4 4 50 50 5 5 40 40 46 46 42 42 47 47 46 46 40 40 36 36 47 47 40 40 49 49 47 47 36 36 37 37 49 49 36 36 52 52 49 49 37 37 32 32 53 17 34 34 54 15 53 17 32 32 34 34 56 19 55 53 53 17 56 19 34 34 55 53 58 21 57 54 56 19 58 21 55 53 57 54 60 56 59 55 58 21 60 56 57 54 61 57 55 53 57 54 62 58 55 53 61 57 62 58 34 34 55 53 35 35 34 34 62 58 37 37 64 60 63 59 39 39 64 60 37 37 57 54 22 61 61 57 59 55 22 61 57 54 52 52 63 59 65 62 37 37 63 59 52 52 6 6 27 27 26 26 7 7 27 27 6 6 10 10 26 26 29 29 6 6 26 26 10 10 12 12 29 29 31 31 10 10 29 29 12 12 14 14 31 31 33 33 12 12 31 31 14 14 16 16 33 33 35 35 14 14 33 33 16 16 18 18 35 35 62 58 16 16 35 35 18 18 20 20 62 58 61 57 18 18 62 58 20 20 59 55 66 64 22 63 60 56 66 64 59 55 68 66 64 60 67 65 63 59 64 60 68 66 69 67 63 59 68 66 65 62 63 59 69 67 5 5 70 68 3 3 71 69 70 68 5 5 70 68 1 1 3 3 72 70 1 1 70 68 75 73 74 72 73 71 76 74 74 72 75 73 28 28 77 13 30 30 78 11 77 13 28 28 24 24 78 11 28 28 79 8 78 11 24 24 25 25 79 8 24 24 80 9 79 8 25 25 30 30 54 15 32 32 77 13 54 15 30 30 73 71 82 76 81 75 74 72 82 76 73 71 83 77 75 73 73 71 84 78 75 73 83 77 85 79 73 71 81 75 83 77 73 71 85 79 68 66 81 75 69 67 85 79 81 75 68 66 5 5 86 80 71 69 51 51 86 80 5 5 71 69 84 78 87 81 86 80 84 78 71 69 87 81 83 77 88 82 84 78 83 77 87 81 88 82 85 79 89 83 83 77 85 79 88 82 89 83 68 66 67 65 85 79 68 66 89 83 92 86 91 85 90 84 93 87 91 85 92 86 96 90 95 89 94 88 97 91 95 89 96 90 100 94 99 93 98 92 45 45 101 95 44 44 48 48 101 95 45 45 102 1 101 95 48 48 44 44 103 96 46 46 65 62 102 1 48 48 50 50 42 42 46 46 106 99 105 98 104 97 99 93 108 101 107 100 98 92 99 93 107 100 107 100 110 103 109 102 92 86 90 84 111 104 113 106 112 105 111 104 115 92 114 100 93 93 107 100 108 101 110 103 86 80 103 96 75 73 86 80 51 51 103 96 76 74 103 96 101 95 65 62 69 67 82 76 69 67 81 75 82 76 64 60 72 70 67 65 44 44 101 95 103 96 70 68 87 81 88 82 2 2 0 0 41 41 0 0 1 1 64 60 65 62 82 76 102 1 86 80 75 73 84 78 70 68 71 69 87 81 39 39 38 38 0 0 70 68 88 82 72 70 50 50 46 46 103 96 2 2 43 43 4 4 65 62 48 48 52 52 74 72 76 74 101 95 82 76 74 72 101 95 2 2 41 41 43 43 102 1 82 76 101 95 76 74 75 73 103 96 52 52 48 48 49 49 118 109 117 108 116 107 114 100 120 110 119 102 93 93 117 108 121 94 118 109 121 94 117 108 124 91 123 90 122 89 125 88 112 111 122 89 104 97 122 89 112 111 121 94 115 92 93 93 114 100 119 102 91 103 92 86 111 104 112 105 126 98 104 97 113 112 105 98 127 112 104 97 118 109 116 107 124 91 130 109 129 107 128 108 122 89 123 90 125 88 124 91 116 107 123 90 104 97 112 111 113 113 93 93 114 100 91 103 106 99 104 97 126 98 97 91 96 90 129 107 104 97 127 113 131 111 130 109 97 91 129 107 107 100 109 102 132 110 99 93 100 94 128 108 130 109 128 108 100 94 94 88 95 89 131 111 104 97 131 111 95 89 38 38 41 41 0 0 64 60 39 39 0 0 50 50 103 96 51 51 89 83 72 70 88 82 67 65 72 70 89 83 72 70 64 60 1 1 134 115 25 25 133 114 136 117 133 114 135 116 22 61 20 20 61 57 135 118 27 27 7 7 135 116 133 114 27 27 22 120 66 119 23 23 137 121 136 117 135 116 135 122 7 7 137 121 137 121 7 7 9 9 138 123 133 114 136 117 27 27 133 114 25 25 134 115 133 114 138 123 80 9 25 25 134 115</p>
                </polylist>
            </mesh>
        </geometry>
        <geometry id="mesh1">
            <mesh>
                <source id="points1">
                    <float_array id="pointarray1" count="1143">62.0859375 2.375 -15.453125 67.0078125 2.5390625 -14.203125 61.359375 -6.5546875 -17.5859375 66.40625 -7.6875 -15.953125 73.3359375 -9.09375 18.8046875 78.5703125 -11.0078125 12.625 74.171875 -12.2734375 18.1171875 79.03125 -14.5078125 12.21875 61.90625 2.5078125 -20.3203125 68.03125 1.84375 -18.140625 61.9609375 3.7109375 -19.5234375 67.9921875 3.484375 -17.3984375 70.890625 12.03125 22.1796875 69.1328125 10.6484375 20.4609375 62.34375 11.421875 25.9140625 62.5390625 9.78125 23.078125 87.0078125 12.140625 5.828125 83.9921875 10.6796875 5.640625 84.6015625 12.3359375 10.84375 81.765625 10.953125 10.6953125 84.7890625 15.5703125 10.859375 87.0390625 15.4765625 6.078125 71.2265625 14.8359375 22.2109375 79.671875 12.265625 16.7265625 79.9921875 15.3046875 16.6328125 61.34375 14.3515625 26.421875 76.953125 10.9140625 16.078125 82.2265625 17.4921875 8.765625 84.3671875 17.25 4.1484375 74.5390625 -0.2890625 -15.1640625 73.953125 2.0625 -14.765625 68.4609375 17.328125 21.4453125 59.921875 17.0703125 25.4375 77.90625 17.5234375 14.375 72.921875 0.9296875 -11.8046875 70.2734375 -2.515625 14.0703125 63.0078125 0.5625 16.25 67.9375 -8.8046875 15.84375 62.8359375 -7.3828125 18.359375 87.6484375 12.09375 -0.609375 84.5703125 10.484375 -0.6015625 87.859375 15.34375 -0.609375 60.859375 -5.5390625 -21.8515625 67.703125 -6.375 -19.2578125 76.3984375 2.9609375 12.1796875 75.453125 4.6015625 12.375 77.7890625 3.5390625 13.15625 77.7265625 4.9375 13.8203125 60.671875 13.4453125 16.7578125 61.4765625 3.625 17.1640625 68.078125 13.2890625 14.4296875 68.296875 4.984375 15.8515625 64.3359375 -25.0234375 0 64.1953125 -25.609375 -2.171875 66.0859375 -25.78125 0 65.9375 -26.234375 -1.5390625 70.9765625 5.328125 18.3203125 70.515625 4.0234375 17.8828125 69.328125 4.0078125 16.5 64.1953125 -25.609375 2.171875 65.9375 -26.234375 1.5390625 79.421875 11.8046875 1.1640625 77.96875 11.75 6.421875 82.1640625 2.875 1.6015625 80.59375 2.90625 7.1171875 84.015625 3.5234375 1.671875 82.34375 3.625 7.59375 84.4453125 4.8203125 1.703125 82.640625 5.1796875 7.84375 80.40625 12.2890625 7.5859375 82.140625 12.4296875 1.21875 54.4140625 2.828125 17.09375 54.03125 3.1015625 20.640625 62.0703125 3.8515625 19.75 64 -25.8984375 -4.1328125 65.984375 -28.0234375 -5.203125 65.4296875 -26.6328125 -2.671875 66.3125 -27.8359375 -2.828125 53.15625 12.0390625 22.625 61.9609375 12.2578125 21.5 53.6015625 4.4140625 21.3515625 61.7890625 5.21875 20.4375 81.7109375 -15.046875 5.953125 81.625 -11.375 6.3046875 62.4921875 -21.53125 -4.46875 63.6953125 -22.3515625 0 68.359375 -20.9453125 -4.8046875 69.4140625 -21.7890625 0 71.71875 -20.59375 0 71.1796875 -20.0625 -4.6953125 53.5 11.5390625 17.6875 68.359375 -20.9453125 4.8046875 62.4921875 -21.53125 4.46875 74.2421875 11.8828125 11.8515625 71.1796875 -20.0625 4.6875 75.1015625 -6.25 -8.84375 77.4296875 -6.078125 -10.234375 76.1171875 -7.2421875 -6.5546875 78.5625 -7.0390625 -8.21875 64.03125 -0.3203125 19.984375 63.8515625 -7.9765625 20.8203125 57.5390625 0.1484375 22.2578125 57.09375 -6.265625 23.34375 57.7265625 1.390625 21.5703125 57.3125 0.125 17.3828125 57.109375 -6.7265625 19.7890625 75.3125 -6.65625 12.578125 74.796875 -11.296875 13.0859375 75.6015625 -2.3515625 13.40625 74.4921875 -3.3359375 15.8046875 73.1328125 -6.7421875 11.1328125 73.34375 -11.4921875 11.765625 71.9609375 -8.4296875 -13.7734375 72.8203125 -0.65625 -11.8203125 57.859375 -18.171875 12.4375 66.4453125 -16.6796875 14.8046875 60.3515625 -19.8203125 9.0390625 69.203125 -18.5390625 10.953125 77.4453125 -9.015625 -1.71875 79.9453125 -9.2109375 -2.09375 77.65625 -8.1171875 1.234375 80.171875 -8.3984375 1.390625 77.8203125 -1.84375 -10.9765625 75.5546875 -1.515625 -9.640625 70.328125 -0.296875 14.265625 70.84375 0.71875 16.71875 71.0234375 -1.2890625 17.265625 64.1171875 1.359375 19.375 50.34375 -8.03125 -24.265625 56.9140625 -10.4765625 -22.0546875 48.1875 -1.3828125 -28.4296875 57.1796875 -3.375 -26.5625 69.125 -18.15625 -11.4453125 66.09375 -15.953125 -15.0703125 60.3515625 -19.8203125 -9.046875 57.859375 -18.171875 -12.4375 61.578125 -12.9921875 -19.15625 58 -16.8984375 -14.9453125 56.5078125 -15.0859375 -17.5078125 51.03125 20.609375 -26.4375 48.1328125 16.109375 -29.8125 55.828125 20.5078125 -26.1640625 51.8125 15.09375 -30.078125 47.3515625 11.46875 -31.0703125 52.1171875 8.5 -30.640625 84.4921875 17.1171875 -0.5859375 56.5078125 -15.0859375 17.5 62.8984375 -14.75 17.9140625 58 -16.8984375 14.9453125 81.3515625 -8.671875 -7.4921875 78.8515625 -6.0703125 -13.15625 81.5546875 -12.3359375 -7.1328125 79.3359375 -9.4296875 -13.1640625 73.890625 -2.3046875 11.9765625 74.3203125 -5.0078125 -19.6640625 73.8125 -2.171875 -18.7421875 74.6171875 -8 9.1875 76.859375 -8.1953125 10.4453125 80.84375 9.078125 -12.359375 83.265625 9.984375 -6.8359375 83.7734375 10.8515625 -13.3671875 86.0390625 11.484375 -7.0390625 86.1171875 14.8671875 -6.8984375 83.8828125 13.828125 -13.3828125 76.90625 -9.0234375 4.0625 79.3125 -9.28125 4.6796875 76.0625 -7.46875 6.796875 78.3671875 -7.7734375 7.8671875 71.9140625 8.4609375 -23.8515625 70.3203125 6.8359375 -22.3203125 77.8203125 9.59375 -20.0625 76.34375 8.1171875 -17.84375 83.71875 16.5078125 -5.171875 81.7734375 15.8125 -10.921875 77.9140625 12.296875 -19.609375 76.734375 14.3046875 -18.078125 77.0859375 -7.5 -4.1796875 79.5625 -7.3984375 -5.0859375 82.71875 -10.90625 -0.59375 82.6796875 -14.4765625 -0.59375 54.2265625 -28.75 -19.8515625 54.2421875 -27.8515625 -17.4296875 54.703125 -24.5078125 -19.0078125 54.78125 -23.5703125 -16.0390625 66.59375 4.515625 -19.625 72.4375 4.6796875 -16.40625 66.3984375 5.8828125 -20.3203125 73.140625 6 -16.7734375 55.890625 -20.65625 14.59375 54.78125 -23.5703125 16.03125 56.328125 -20.171875 17.34375 54.703125 -24.5078125 19.0078125 51.6796875 -18.921875 20.984375 54.484375 -14.078125 18.2421875 53.828125 -19.359375 20.6484375 79.546875 3.578125 -10.421875 82.203125 3.625 -5.25 79.5625 4.984375 -11.0703125 82.5234375 5.1796875 -5.4609375 48.59375 -28.2578125 23.5078125 49.9921875 -22.6796875 22.4453125 51.2890625 -28.7890625 22.90625 52.140625 -24.1484375 22.140625 77.8984375 2.9453125 -9.859375 80.390625 2.8984375 -4.625 53.8203125 -27.8515625 17.15625 54.3125 -28.4140625 19.8515625 64.6171875 4.859375 -17.203125 70.3671875 4.8203125 -15.078125 64.3125 -33.7578125 0 64.0625 -34.0078125 3.8046875 66.9296875 -32.1875 2.4140625 66.6953125 -32.3671875 4.875 63.1953125 -34.53125 8.171875 60.9765625 -35.5078125 12.6484375 65.5625 -32.890625 8.9296875 63 -33.9609375 13.375 66.3125 -27.8359375 2.828125 65.984375 -28.0234375 5.203125 65.4296875 -26.6328125 2.6640625 64 -25.8984375 3.828125 64.7578125 -28.7265625 9.0859375 62.1171875 -29.96875 13.6171875 57.8671875 3.2421875 -21.3125 57.734375 3.671875 -17.3671875 59.0234375 -28.078125 13.4921875 62 -26.703125 8.8515625 69.765625 5.7265625 -14.5625 72.140625 11.4296875 -13 63.84375 12.7109375 -16.921875 53.828125 -19.359375 -20.65625 52.3515625 -17.671875 -20.53125 52.140625 -24.1484375 -22.1484375 49.5546875 -23.7578125 -22.7109375 57.9765625 -36.84375 -15.390625 61.609375 -35.2109375 -11.2578125 59.4140625 -35.7578125 -17.6875 63 -33.9609375 -13.375 70.9375 12.765625 -22.9921875 71.6171875 10.796875 -23.9375 57.5 4.546875 -21.6875 56.78125 12.5390625 -17.5 81.2265625 11.5234375 -5.4921875 78.3515625 11.7578125 -4.4921875 56.328125 -20.171875 -17.34375 55.890625 -20.65625 -14.59375 53.359375 -38.7734375 -19.1015625 54.7421875 -37.6640625 -20.671875 66.9296875 -32.1875 -2.421875 66.6953125 -32.3671875 -4.8828125 54.484375 -14.078125 -18.2578125 64.0625 -34.0078125 -3.8125 76.03125 -2.5390625 -13.9453125 76.9765625 -9.40625 -10.2890625 62 -26.703125 -8.859375 59.0234375 -27.78125 -12.84375 64.7578125 -28.7265625 -9.09375 62.1171875 -29.96875 -13.625 65.5625 -32.890625 -8.9375 75.5 -9.2734375 -9.0546875 51.2890625 -28.7890625 -22.90625 70.15625 -14.5390625 16.65625 74.421875 -16.59375 11.6796875 63.1953125 -34.53125 -8.1796875 65.765625 11.28125 -21.984375 56.921875 9.9140625 -23.453125 59.4140625 -35.7578125 17.6796875 57.2265625 -37.1640625 16.5234375 54.7421875 -37.6640625 20.671875 53.359375 -38.6875 19.015625 77.125 4.640625 -10.2890625 76.765625 11.1875 -8.8984375 63.703125 -26.078125 -5.1875 81.8671875 20.359375 -0.3359375 78.0703125 23.34375 -0.328125 79.6875 20.3046875 -9.0078125 75.7265625 23.234375 -9.6015625 48.6640625 -40.8359375 -22.1953125 51.171875 -39.1640625 -22.2421875 48.6640625 -27.1328125 -23.3359375 51.171875 -39.1640625 22.2421875 48.6640625 -40.8359375 22.1796875 63.703125 -26.078125 5.1796875 65.625 -5.7265625 23.4140625 65.8359375 -8.40625 23.890625 58.6015625 -2.7265625 26.8671875 75.8125 -15.3203125 -12.15625 78.5 -17.8125 -0.4609375 72.984375 -7.78125 -20.1640625 67.5234375 -2.296875 -24.8203125 65.78125 -6.671875 -23.484375 47.96875 -32.78125 23.6328125 54.1875 -31 17.875 50.8828125 -35.671875 -22.9140625 54.453125 -34.4140625 -20.1875 50.6796875 6.78125 30.5390625 57.046875 8.53125 26.59375 51.8125 3.015625 29.765625 55.90625 3.125 27.3671875 66.4140625 -12.6953125 20.0859375 77.203125 -17.7578125 5.3828125 64.859375 -20.3203125 7.3671875 54.1875 -31 -17.8828125 47.8828125 -32.78125 -23.6484375 58.484375 -31.9921875 -17.4375 55.84375 -29.8125 -16.390625 69.953125 -10.125 -19.8671875 58.0546875 -12.1328125 21.0546875 54.59375 -2.4609375 27.984375 50.34375 -8.03125 24.2578125 48.1875 -1.3828125 28.421875 59.5234375 -8.078125 24.8125 47.96875 -36.7265625 -23.1796875 67.171875 -32.171875 0 67.625 -27.625 0 67.1484375 -27.9375 -2.25 74.4453125 20.0859375 15.6796875 55.84375 -29.8125 16.3828125 58.484375 -31.9921875 17.4296875 50.8828125 -35.671875 22.9140625 47.96875 -36.7265625 23.1640625 54.453125 -34.4140625 20.1875 58.5390625 7.4765625 24.390625 60.0078125 -1.2109375 24.9609375 47.34375 4.3203125 30.40625 58.8046875 9.828125 -29.2578125 62.1171875 2.8359375 -28.0859375 66.421875 5.8984375 -26.5078125 54.2265625 5.0703125 -29.7265625 47.34375 4.3203125 -30.40625 74.9609375 19.765625 -16.2734375 75.703125 2.34375 -11.1796875 72.859375 -7.0546875 -16.1328125 51.9375 11.6328125 30.0625 48.1328125 16.109375 29.8046875 46.890625 11.46875 31.0703125 67.1484375 -27.9375 2.25 64.859375 -20.3203125 -7.3671875 77.75 -11.625 1.265625 77.2421875 -11.3515625 -4.390625 76.5625 11.7578125 13.859375 74.0703125 9.8828125 17.1875 73.2109375 11.8828125 16.7265625 70.6796875 19.2109375 -20.609375 76.109375 -10.8515625 6.9609375 69.5390625 -9.59375 18.1875 77.96875 -11.6640625 8.140625 73.5234375 1.9609375 13.984375 72.6015625 -10.515625 15.9609375 79.2734375 -11.1640625 -5.3515625 65.359375 9.1484375 -26.7421875 79.859375 -12.453125 1.4609375 57.9296875 3.140625 25.046875 59.3359375 14.96875 -27.6328125 68.65625 0.7734375 -24.421875 68.890625 1.953125 -22.4765625 75.4921875 -8.3046875 -13.2734375 76.9609375 9.140625 -15.0234375 72.328125 11.78125 -17.953125 77.171875 1.171875 -14.71875 75.6484375 1.1484375 16.2734375 69.6875 11.9375 19.0625 78.9921875 20.5078125 9.5234375 69 26.6015625 8.953125 67.078125 23.7890625 17.078125 61.3203125 25.9140625 17.1953125 68.484375 27.9296875 0 65.5703125 27.4375 11.0546875 75.78125 23.171875 9.46875 67.6171875 22.9296875 -18.8359375 65.5703125 27.4375 -11.0546875 61.3203125 25.9140625 -17.1953125 69 26.890625 -8.9609375 60.71875 20.96875 -24.234375 63.5234375 21.3203125 21.859375 66.6796875 5.4453125 -23.6875 56.3359375 24.2109375 -21.0703125 51.03125 20.609375 26.4296875 78.796875 11.5625 -10.84375 77.203125 12.0078125 -15.4765625 56.3359375 24.2109375 21.0703125</float_array>
                    <technique_common>
                        <accessor count="381" source="#pointarray1" stride="3">
                            <param name="X" type="float"/>
                            <param name="Y" type="float"/>
                            <param name="Z" type="float"/>
                        </accessor>
                    </technique_common>
                </source>
                <source id="uvs1">
                    <float_array id="uvarray1" count="650">0.6146240234375 0.62542724609375 0.6629638671875 0.59674072265625 0.60919189453125 0.67205810546875 0.66131591796875 0.671875 0.15264892578125 0.32550048828125 0.1129150390625 0.3404541015625 0.1602783203125 0.3533935546875 0.11627197265625 0.36865234375 0.6607666015625 0.6263427734375 0.61492919921875 0.619384765625 0.66082763671875 0.6202392578125 0.19488525390625 0.1995849609375 0.2042236328125 0.23052978515625 0.30084228515625 0.21240234375 0.24658203125 0.230712890625 0.05413818359375 0.20263671875 0.05743408203125 0.2353515625 0.09381103515625 0.20294189453125 0.09857177734375 0.23516845703125 0.08984375 0.18035888671875 0.04541015625 0.178466796875 0.18536376953125 0.17333984375 0.1328125 0.20172119140625 0.12799072265625 0.177978515625 0.2591552734375 0.1591796875 0.1402587890625 0.2332763671875 0.08123779296875 0.154052734375 0.03790283203125 0.15655517578125 0.706787109375 0.62738037109375 0.70672607421875 0.62164306640625 0.18402099609375 0.14288330078125 0.259033203125 0.158447265625 0.12237548828125 0.1510009765625 0.7076416015625 0.59857177734375 0.61572265625 0.593994140625 0.70465087890625 0.67169189453125 0.00750732421875 0.2020263671875 0.0068359375 0.23455810546875 0.0078125 0.177734375 0.6090087890625 0.67205810546875 0.66119384765625 0.67193603515625 0.7518310546875 0.6097412109375 0.751708984375 0.6279296875 0.7515869140625 0.622314453125 0.6571044921875 0.67230224609375 0.6600341796875 0.625244140625 0.7017822265625 0.67236328125 0.70611572265625 0.62646484375 0.248291015625 0.51739501953125 0.22137451171875 0.518798828125 0.2362060546875 0.5242919921875 0.70611572265625 0.6265869140625 0.70611572265625 0.62615966796875 0.7060546875 0.62042236328125 0.70904541015625 0.5965576171875 0.221435546875 0.518798828125 0.84100341796875 0.670654296875 0.7935791015625 0.66986083984375 0.83856201171875 0.61968994140625 0.79388427734375 0.611572265625 0.8389892578125 0.6302490234375 0.7933349609375 0.6239013671875 0.8392333984375 0.625244140625 0.79351806640625 0.62945556640625 0.7935791015625 0.66619873046875 0.84100341796875 0.66705322265625 0.61505126953125 0.59185791015625 0.6142578125 0.61810302734375 0.662109375 0.59466552734375 0.659912109375 0.61920166015625 0.31353759765625 0.47210693359375 0.32666015625 0.48980712890625 0.29852294921875 0.48309326171875 0.30181884765625 0.487548828125 0.6102294921875 0.67242431640625 0.6138916015625 0.62432861328125 0.064453125 0.38507080078125 0.06219482421875 0.357666015625 0.07745361328125 0.541259765625 0.0096435546875 0.545166015625 0.08673095703125 0.49969482421875 0.00927734375 0.502685546875 0.00927734375 0.48809814453125 0.0850830078125 0.4835205078125 0.0089111328125 0.54443359375 0.085693359375 0.49969482421875 0.076416015625 0.541259765625 0.75042724609375 0.66668701171875 0.08404541015625 0.4835205078125 0.7479248046875 0.6627197265625 0.74798583984375 0.65625 0.77349853515625 0.665283203125 0.77362060546875 0.665283203125 0.60284423828125 0.62042236328125 0.59649658203125 0.6722412109375 0.74737548828125 0.67132568359375 0.74859619140625 0.628662109375 0.7298583984375 0.62896728515625 0.2109375 0.4970703125 0.17431640625 0.45721435546875 0.1807861328125 0.51177978515625 0.12652587890625 0.471435546875 0.8177490234375 0.667236328125 0.817626953125 0.664306640625 0.84063720703125 0.664306640625 0.84112548828125 0.6580810546875 0.7418212890625 0.628662109375 0.741455078125 0.64990234375 0.333740234375 0.41326904296875 0.27142333984375 0.4073486328125 0.3583984375 0.32354736328125 0.25445556640625 0.36090087890625 0.12615966796875 0.471435546875 0.1739501953125 0.45721435546875 0.2105712890625 0.4970703125 0.22271728515625 0.43475341796875 0.23992919921875 0.4803466796875 0.25927734375 0.460693359375 0.3404541015625 0.14892578125 0.35675048828125 0.1949462890625 0.31591796875 0.18438720703125 0.33770751953125 0.2027587890625 0.364990234375 0.23858642578125 0.3460693359375 0.22998046875 0.00909423828125 0.1556396484375 0.2596435546875 0.460693359375 0.22308349609375 0.43475341796875 0.24029541015625 0.4803466796875 0.7733154296875 0.6688232421875 0.74761962890625 0.66265869140625 0.7952880859375 0.662109375 0.79559326171875 0.65789794921875 0.22125244140625 0.182861328125 0.79522705078125 0.662109375 0.79559326171875 0.6573486328125 0.0068359375 0.36370849609375 0.007568359375 0.3875732421875 0.79522705078125 0.6617431640625 0.467041015625 0.48504638671875 0.44342041015625 0.48040771484375 0.45855712890625 0.45257568359375 0.43011474609375 0.44476318359375 0.41632080078125 0.4205322265625 0.44256591796875 0.41650390625 0.45849609375 0.45257568359375 0.48553466796875 0.40838623046875 0.45941162109375 0.36810302734375 0.47418212890625 0.40972900390625 0.44415283203125 0.37420654296875 0.79168701171875 0.6239013671875 0.7918701171875 0.6163330078125 0.5096435546875 0.48602294921875 0.49957275390625 0.43963623046875 0.4957275390625 0.4881591796875 0.48846435546875 0.4495849609375 0.79229736328125 0.611572265625 0.395751953125 0.39984130859375 0.419677734375 0.3892822265625 0.4407958984375 0.48040771484375 0.466552734375 0.48504638671875 0.27691650390625 0.529541015625 0.31329345703125 0.53155517578125 0.30023193359375 0.51641845703125 0.32354736328125 0.5179443359375 0.35504150390625 0.53594970703125 0.397705078125 0.5440673828125 0.36224365234375 0.522216796875 0.40472412109375 0.53118896484375 0.3017578125 0.487548828125 0.2984619140625 0.48309326171875 0.3134765625 0.47210693359375 0.36376953125 0.49566650390625 0.40704345703125 0.50439453125 0.40582275390625 0.4886474609375 0.36151123046875 0.4788818359375 0.4742431640625 0.40972900390625 0.48126220703125 0.39801025390625 0.488525390625 0.4495849609375 0.5020751953125 0.4486083984375 0.4239501953125 0.55511474609375 0.3826904296875 0.53973388671875 0.44586181640625 0.546142578125 0.20263671875 0.16290283203125 0.21197509765625 0.1728515625 0.59674072265625 0.619140625 0.5941162109375 0.67266845703125 0.8333740234375 0.6190185546875 0.8359375 0.67071533203125 0.7919921875 0.618408203125 0.79022216796875 0.611572265625 0.79193115234375 0.66986083984375 0.78985595703125 0.66986083984375 0.442626953125 0.41650390625 0.4163818359375 0.4205322265625 0.41973876953125 0.3892822265625 0.39581298828125 0.39984130859375 0.45941162109375 0.57122802734375 0.47442626953125 0.56195068359375 0.3236083984375 0.5179443359375 0.45953369140625 0.36810302734375 0.3133544921875 0.53155517578125 0.36383056640625 0.49566650390625 0.4071044921875 0.50439453125 0.3623046875 0.522216796875 0.49578857421875 0.4881591796875 0.14105224609375 0.40802001953125 0.11627197265625 0.4134521484375 0.3551025390625 0.53594970703125 0.44580078125 0.546142578125 0.43475341796875 0.55780029296875 0.474365234375 0.56195068359375 0.45855712890625 0.57049560546875 0.75042724609375 0.67193603515625 0.32647705078125 0.4736328125 0.00909423828125 0.1279296875 0.00909423828125 0.10308837890625 0.07476806640625 0.12042236328125 0.0762939453125 0.0931396484375 0.4971923828125 0.59063720703125 0.4893798828125 0.574462890625 0.508056640625 0.4766845703125 0.49700927734375 0.59063720703125 0.19805908203125 0.302734375 0.20770263671875 0.3284912109375 0.2520751953125 0.30584716796875 0.00811767578125 0.4205322265625 0.16290283203125 0.37109375 0.20556640625 0.35430908203125 0.202880859375 0.38641357421875 0.51092529296875 0.52362060546875 0.44769287109375 0.50872802734375 0.495849609375 0.54541015625 0.47406005859375 0.53497314453125 0.3104248046875 0.25244140625 0.3116455078125 0.24200439453125 0.29083251953125 0.30596923828125 0.2757568359375 0.2750244140625 0.16583251953125 0.402587890625 0.06219482421875 0.4169921875 0.1322021484375 0.49981689453125 0.44775390625 0.50872802734375 0.51104736328125 0.52362060546875 0.4434814453125 0.51708984375 0.4334716796875 0.4990234375 0.03826904296875 0.15655517578125 0.2783203125 0.32696533203125 0.334228515625 0.41326904296875 0.2542724609375 0.35980224609375 0.27178955078125 0.4073486328125 0.50653076171875 0.55645751953125 0.27691650390625 0.51495361328125 0.248291015625 0.53179931640625 0.22967529296875 0.53411865234375 0.248291015625 0.55450439453125 0.2176513671875 0.55596923828125 0.12274169921875 0.1510009765625 0.14453125 0.12939453125 0.43341064453125 0.4990234375 0.49578857421875 0.54541015625 0.50640869140625 0.55645751953125 0.4739990234375 0.53497314453125 0.25592041015625 0.24578857421875 0.2332763671875 0.27880859375 0.2025146484375 0.38641357421875 0.36651611328125 0.2830810546875 0.33697509765625 0.20306396484375 0.32257080078125 0.22332763671875 0.2528076171875 0.33282470703125 0.2923583984375 0.2325439453125 0.290283203125 0.3065185546875 0.25482177734375 0.36090087890625 0.1661376953125 0.10772705078125 0.73248291015625 0.61297607421875 0.7415771484375 0.628662109375 0.31378173828125 0.21319580078125 0.31268310546875 0.22760009765625 0.21771240234375 0.55596923828125 0.21160888671875 0.53173828125 0.21392822265625 0.52447509765625 0.2115478515625 0.53173828125 0.29522705078125 0.47509765625 0.13323974609375 0.49981689453125 0.17974853515625 0.51177978515625 0.84075927734375 0.65789794921875 0.81744384765625 0.664306640625 0.8408203125 0.67034912109375 0.8414306640625 0.6697998046875 0.79486083984375 0.67083740234375 0.75042724609375 0.6630859375 0.735595703125 0.65130615234375 0.72540283203125 0.672119140625 0.77349853515625 0.66522216796875 0.72747802734375 0.666748046875 0.3123779296875 0.24176025390625 0.26702880859375 0.20184326171875 0.8414306640625 0.67010498046875 0.2513427734375 0.26220703125 0.3123779296875 0.19573974609375 0.24884033203125 0.3021240234375 0.72747802734375 0.66986083984375 0.73370361328125 0.6114501953125 0.292236328125 0.4281005859375 0.25408935546875 0.35980224609375 0.8408203125 0.67047119140625 0.84112548828125 0.657958984375 0.108154296875 0.07470703125 0.16632080078125 0.10772705078125 0.20648193359375 0.05792236328125 0.00860595703125 0.013427734375 0.1397705078125 0.0438232421875 0.07666015625 0.0931396484375 0.16595458984375 0.10772705078125 0.1077880859375 0.07470703125 0.27490234375 0.1409912109375 0.1837158203125 0.14288330078125 0.1441650390625 0.12939453125 0.31640625 0.18438720703125 0.218505859375 0.12396240234375 0.2593994140625 0.158447265625 0.2745361328125 0.1409912109375 0.27899169921875 0.24029541015625 0.2918701171875 0.4281005859375 0.2674560546875 0.0899658203125 0.3409423828125 0.14892578125 0.267822265625 0.0899658203125</float_array>
                    <technique_common>
                        <accessor count="325" source="#uvarray1" stride="2">
                            <param name="S" type="float"/>
                            <param name="T" type="float"/>
                        </accessor>
                    </technique_common>
                </source>
                <vertices id="vertices1">
                    <input semantic="POSITION" source="#points1"/>
                </vertices>
                <polylist count="615" material="Material1">
                    <input offset="0" semantic="VERTEX" source="#vertices1"/>
                    <input offset="1" semantic="TEXCOORD" source="#uvs1" set="0"/>
                    <vcount>3 3 3 3 3 3 3 3 3 3 3 3 3 3 3 3 3 3 3 3 3 3 3 3 3 3 3 3 3 3 3 3 3 3 3 3 3 3 3 3 3 3 3 3 3 3 3 3 3 3 3 3 3 3 3 3 3 3 3 3 3 3 3 3 3 3 3 3 3 3 3 3 3 3 3 3 3 3 3 3 3 3 3 3 3 3 3 3 3 3 3 3 3 3 3 3 3 3 3 3 3 3 3 3 3 3 3 3 3 3 3 3 3 3 3 3 3 3 3 3 3 3 3 3 3 3 3 3 3 3 3 3 3 3 3 3 3 3 3 3 3 3 3 3 3 3 3 3 3 3 3 3 3 3 3 3 3 3 3 3 3 3 3 3 3 3 3 3 3 3 3 3 3 3 3 3 3 3 3 3 3 3 3 3 3 3 3 3 3 3 3 3 3 3 3 3 3 3 3 3 3 3 3 3 3 3 3 3 3 3 3 3 3 3 3 3 3 3 3 3 3 3 3 3 3 3 3 3 3 3 3 3 3 3 3 3 3 3 3 3 3 3 3 3 3 3 3 3 3 3 3 3 3 3 3 3 3 3 3 3 3 3 3 3 3 3 3 3 3 3 3 3 3 3 3 3 3 3 3 3 3 3 3 3 3 3 3 3 3 3 3 3 3 3 3 3 3 3 3 3 3 3 3 3 3 3 3 3 3 3 3 3 3 3 3 3 3 3 3 3 3 3 3 3 3 3 3 3 3 3 3 3 3 3 3 3 3 3 3 3 3 3 3 3 3 3 3 3 3 3 3 3 3 3 3 3 3 3 3 3 3 3 3 3 3 3 3 3 3 3 3 3 3 3 3 3 3 3 3 3 3 3 3 3 3 3 3 3 3 3 3 3 3 3 3 3 3 3 3 3 3 3 3 3 3 3 3 3 3 3 3 3 3 3 3 3 3 3 3 3 3 3 3 3 3 3 3 3 3 3 3 3 3 3 3 3 3 3 3 3 3 3 3 3 3 3 3 3 3 3 3 3 3 3 3 3 3 3 3 3 3 3 3 3 3 3 3 3 3 3 3 3 3 3 3 3 3 3 3 3 3 3 3 3 3 3 3 3 3 3 3 3 3 3 3 3 3 3 3 3 3 3 3 3 3 3 3 3 3 3 3 3 3 3 3 3 3 3 3 3 3 3 3 3 3 3 3 3 3 3 3 3 3 3 3 3 3 3 3 3 3 3 3 3 3 3 3 3 3 3 3 3 3 3 3 3 3 3 3 3 3 3 3 3 3 3 3 3 3 3 3 3 3 3 3 3 3 3 3 3 3 3 3 3 3 3 3 3 3 3 3 3 3 3 3 3 3 3 3 3 3 3 3 3 3 3 3 3 3 3 3 3 3 3 3</vcount>
                    <p>2 2 1 1 0 0 3 3 1 1 2 2 6 6 5 5 4 4 7 7 5 5 6 6 10 9 9 8 8 0 11 10 9 8 10 9 14 13 13 12 12 11 15 14 13 12 14 13 18 17 17 16 16 15 19 18 17 16 18 17 16 15 20 19 18 17 21 20 20 19 16 15 23 22 22 21 12 11 24 23 22 21 23 22 12 11 25 24 14 13 22 21 25 24 12 11 23 22 13 12 26 25 12 11 13 12 23 22 21 20 27 26 20 19 28 27 27 26 21 20 9 8 30 29 29 28 11 10 30 29 9 8 31 30 25 24 22 21 32 31 25 24 31 30 19 18 23 22 26 25 18 17 23 22 19 18 18 17 24 23 23 22 20 19 24 23 18 17 20 19 33 32 24 23 27 26 33 32 20 19 30 29 1 1 34 33 11 10 1 1 30 29 1 1 10 9 0 34 11 10 10 9 1 1 37 35 36 1 35 28 38 3 36 1 37 35 16 15 40 37 39 36 17 16 40 37 16 15 39 36 21 20 16 15 41 38 21 20 39 36 8 0 43 40 42 39 9 8 43 40 8 0 46 43 45 42 44 41 47 42 45 42 46 43 50 46 49 45 48 44 51 47 49 45 50 46 54 48 53 49 52 48 55 50 53 49 54 48 57 53 51 52 56 51 58 54 51 52 57 53 60 50 52 48 59 55 54 48 52 48 60 50 63 58 62 57 61 56 64 59 62 57 63 58 65 60 64 59 63 58 66 61 64 59 65 60 68 63 65 60 67 62 66 61 65 60 68 63 67 62 69 64 68 63 70 65 69 64 67 62 49 68 72 67 71 66 73 69 72 67 49 68 76 72 75 71 74 70 77 73 75 71 76 72 57 53 49 68 58 54 73 69 49 68 57 53 66 61 44 41 64 59 46 43 44 41 66 61 47 42 66 61 68 63 46 43 66 61 47 42 80 75 79 44 78 74 81 45 79 44 80 75 82 76 5 5 7 7 83 77 5 5 82 76 86 80 85 79 84 78 87 81 85 79 86 80 72 67 81 45 80 75 73 69 81 45 72 67 86 80 88 82 87 81 89 83 88 82 86 80 90 74 49 45 71 75 48 44 49 45 90 74 91 85 85 84 87 81 92 86 85 84 91 85 62 57 45 42 93 87 64 59 45 42 62 57 91 85 88 82 94 88 87 81 88 82 91 85 97 91 96 90 95 89 98 92 96 90 97 91 101 0 100 40 99 8 102 39 100 40 101 0 104 93 101 0 103 9 105 94 101 0 104 93 108 96 107 95 106 90 109 97 107 95 108 96 110 90 37 35 35 28 111 95 37 35 110 90 0 93 8 0 2 94 10 9 8 0 0 93 112 35 1 1 3 3 113 28 1 1 112 35 30 29 113 28 29 28 34 33 113 28 30 29 116 100 115 99 114 98 117 101 115 99 116 100 120 104 119 103 118 102 121 105 119 103 120 104 123 106 96 90 122 96 95 107 96 90 123 106 125 29 35 28 124 33 126 28 35 28 125 29 36 1 103 9 127 10 104 34 103 9 36 1 130 110 129 109 128 108 131 111 129 109 130 110 125 29 36 1 127 10 124 33 36 1 125 29 99 8 125 29 127 10 126 28 125 29 99 8 134 100 133 113 132 112 135 114 133 113 134 100 103 9 99 8 127 10 101 0 99 8 103 9 137 116 136 115 133 113 138 117 136 115 137 116 141 120 140 119 139 118 142 121 140 119 141 120 105 2 36 1 38 3 104 0 36 1 105 2 142 121 143 122 140 119 144 123 143 122 142 121 41 38 28 27 21 20 145 124 28 27 41 38 45 42 50 46 93 87 51 52 50 46 45 42 148 127 147 126 146 125 115 99 147 126 148 127 151 76 150 5 149 77 152 7 150 5 151 76 153 106 106 90 110 107 108 96 106 90 153 106 154 6 150 5 152 7 155 4 150 5 154 6 110 129 157 92 156 128 106 90 157 92 110 129 81 45 57 53 56 51 73 69 57 53 81 45 160 17 159 16 158 18 161 15 159 16 160 17 161 15 163 19 162 20 160 17 163 19 161 15 166 130 165 103 164 102 167 131 165 103 166 130 170 22 169 14 168 132 171 12 169 14 170 22 162 20 173 26 172 27 163 19 173 26 162 20 164 102 121 105 120 104 165 103 121 105 164 102 158 18 170 22 160 17 171 12 170 22 158 18 160 17 174 23 163 19 170 22 174 23 160 17 163 19 175 32 173 26 174 23 175 32 163 19 118 102 177 134 176 133 119 103 177 134 118 102 179 136 149 77 178 135 151 76 149 77 179 136 176 137 98 92 97 91 177 131 98 92 176 137 161 15 40 37 159 16 39 36 40 37 161 15 39 36 162 20 41 38 161 15 162 20 39 36 41 38 172 27 145 124 162 20 172 27 41 38 182 140 181 139 180 138 183 141 181 139 182 140 186 45 185 53 184 69 187 51 185 53 186 45 190 143 189 141 188 142 191 144 189 141 190 143 194 147 193 146 192 145 146 148 193 146 194 147 197 42 196 149 195 43 198 150 196 149 197 42 201 153 200 152 199 151 202 154 200 152 201 153 196 149 203 41 195 43 204 155 203 41 196 149 148 157 188 142 114 156 190 143 188 142 148 157 202 154 192 145 200 152 194 147 192 145 202 154 191 144 205 158 189 141 206 159 205 158 191 144 185 53 207 68 184 69 208 54 207 68 185 53 211 162 210 161 209 160 212 163 210 161 211 162 215 166 214 165 213 164 216 167 214 165 215 166 219 169 218 71 217 168 220 170 218 71 219 169 211 162 218 71 212 163 217 168 218 71 211 162 222 172 215 166 221 171 216 167 215 166 222 172 207 68 223 67 184 69 224 66 223 67 207 68 221 171 225 173 222 172 226 174 225 173 221 171 185 53 227 52 208 54 187 51 227 52 185 53 191 144 201 153 206 159 202 154 201 153 191 144 228 46 207 45 227 47 229 44 207 45 228 46 156 128 167 134 166 130 157 92 167 134 156 128 232 177 231 176 230 175 233 178 231 176 232 177 236 181 235 180 234 179 237 167 235 180 236 181 175 32 239 183 238 182 174 23 239 183 175 32 224 184 240 75 223 67 241 185 240 75 224 184 61 187 67 62 63 186 70 65 67 62 61 187 242 190 204 189 198 188 243 191 204 189 242 190 137 194 245 193 244 192 135 195 245 193 137 194 247 197 234 179 246 196 236 181 234 179 247 197 248 162 75 71 77 73 249 198 75 71 248 162 230 175 250 199 138 148 231 176 250 199 230 175 248 162 251 200 249 198 209 160 251 200 248 162 71 184 80 75 90 185 72 67 80 75 71 184 122 96 253 95 252 97 96 90 253 95 122 96 256 201 255 173 254 174 257 202 255 173 256 201 244 192 183 141 182 140 245 193 183 141 244 192 257 202 258 203 237 167 256 201 258 203 257 202 95 90 112 35 259 95 113 28 112 35 95 90 182 140 260 204 232 177 180 138 260 204 182 140 179 136 83 77 82 76 178 135 83 77 179 136 262 206 6 6 261 205 7 7 6 6 262 206 249 198 263 207 258 203 251 200 263 207 249 198 258 203 235 180 237 167 263 207 235 180 258 203 258 203 75 71 249 198 256 201 75 71 258 203 240 75 264 44 186 45 265 74 264 44 240 75 268 210 267 209 266 208 269 211 267 209 268 210 243 57 270 42 204 59 271 212 270 42 243 57 75 71 254 174 272 213 256 201 254 174 75 71 275 216 274 215 273 214 276 217 274 215 275 216 266 208 214 165 216 167 267 209 214 165 266 208 241 74 207 45 229 44 224 75 207 45 241 74 278 219 246 196 277 218 247 197 246 196 278 219 260 204 233 178 232 177 279 220 233 178 260 204 223 67 186 45 184 69 240 75 186 45 223 67 280 219 269 211 268 210 281 221 269 211 280 219 218 71 226 174 221 171 282 213 226 174 218 71 215 166 218 71 221 171 212 163 218 71 215 166 212 163 213 164 210 161 215 166 213 164 212 163 195 43 270 42 197 42 203 41 270 42 195 43 7 7 262 206 82 76 285 224 284 223 283 222 4 4 284 223 6 6 151 76 287 225 286 206 288 226 152 7 286 206 288 226 290 228 289 227 199 151 291 229 201 153 206 159 292 230 205 158 294 232 293 231 260 204 75 71 272 213 74 70 82 76 287 225 179 136 297 235 296 234 295 233 31 30 22 21 24 23 298 236 297 235 285 224 6 6 299 237 261 205 82 76 262 206 300 238 94 88 301 239 91 85 92 86 91 85 301 239 302 240 294 232 180 138 279 220 260 204 303 241 302 240 305 243 304 242 288 226 306 237 290 228 299 237 307 109 147 126 273 214 28 244 145 124 310 110 309 246 308 245 307 248 311 247 309 246 302 240 304 242 294 232 294 232 304 242 236 181 255 173 257 202 304 242 257 202 237 167 236 181 278 219 277 218 312 249 230 175 138 148 244 192 278 219 293 231 247 197 244 192 182 140 230 175 244 192 138 148 137 194 293 231 278 219 312 249 260 204 293 231 303 241 209 160 248 162 313 250 315 252 55 50 314 251 55 50 54 48 314 251 248 254 314 251 313 253 182 140 232 177 230 175 316 256 31 30 33 255 287 225 89 88 286 206 292 230 318 242 317 257 291 229 320 259 319 258 206 159 201 153 321 260 321 260 292 230 206 159 292 230 321 260 318 242 321 260 266 208 318 242 225 173 318 242 222 172 222 172 266 208 216 167 280 219 320 259 281 221 194 147 190 143 146 148 280 219 268 210 319 258 190 143 194 147 191 144 190 143 148 157 146 148 319 258 320 259 280 219 201 153 291 229 319 258 191 144 194 147 202 154 218 71 220 170 282 213 321 260 201 153 319 258 304 242 257 202 236 181 303 241 293 231 312 249 180 138 294 232 260 204 181 139 302 240 180 138 305 243 255 173 304 242 294 232 236 181 247 197 293 231 294 232 247 197 31 30 24 23 33 32 322 261 14 13 296 234 285 224 308 245 284 223 297 235 310 110 308 245 308 245 285 224 297 235 285 224 283 222 323 262 283 222 284 223 4 4 131 111 290 263 129 109 295 233 324 264 297 235 325 266 144 123 142 265 325 266 327 268 326 267 326 267 131 270 328 269 130 110 329 264 328 269 290 263 131 270 289 227 330 271 173 26 175 255 331 272 122 96 252 97 122 96 331 272 123 273 113 28 123 273 331 272 113 28 331 272 29 28 29 28 332 35 43 40 25 24 334 120 333 274 335 234 333 275 334 120 217 277 211 276 336 252 76 278 55 50 315 252 217 277 336 252 219 278 315 252 314 251 248 254 336 252 211 276 314 251 77 279 76 278 315 252 76 278 53 49 55 50 219 278 60 50 59 49 220 170 219 169 59 280 219 278 336 252 60 50 337 281 84 78 134 100 84 78 337 281 86 80 89 83 86 80 337 281 301 239 116 282 92 86 338 285 164 284 120 283 118 284 338 286 120 283 339 287 118 284 176 131 97 92 339 287 176 131 95 90 259 95 97 92 342 290 341 289 340 288 170 22 239 183 174 23 343 30 175 32 238 182 36 1 124 33 35 28 111 95 156 92 344 287 324 264 310 110 297 235 333 274 14 13 25 24 126 28 100 40 345 35 157 291 107 95 346 287 35 28 126 28 347 272 35 28 347 272 153 106 347 272 126 28 109 97 108 96 153 106 347 272 348 292 107 95 109 97 252 97 332 35 29 28 335 293 324 264 295 233 348 292 109 97 345 35 108 96 347 272 109 97 253 95 98 291 349 287 327 268 350 294 168 132 170 22 168 132 239 183 119 103 351 295 349 287 8 0 42 39 2 94 350 294 239 183 168 132 1 1 113 28 34 33 97 92 259 95 339 287 296 234 298 236 322 261 298 236 323 262 352 296 350 294 353 297 239 183 327 268 355 222 354 298 356 299 252 97 253 95 356 299 332 35 252 97 359 300 358 46 357 289 341 289 56 51 360 300 340 288 68 63 69 64 228 46 270 42 271 212 287 225 300 238 88 82 82 76 300 238 287 225 261 205 115 99 262 206 193 301 307 248 309 246 284 223 308 245 311 302 47 42 341 289 360 300 47 42 360 300 45 42 340 288 341 289 47 42 361 46 56 51 341 289 51 51 45 42 360 300 51 52 360 300 56 51 56 51 361 46 79 44 49 68 51 52 58 54 80 75 78 74 90 185 44 41 45 42 64 59 56 51 79 44 81 45 47 42 68 63 340 288 101 0 105 94 102 39 346 287 351 303 165 284 344 287 164 284 338 285 126 28 99 8 100 40 109 97 126 28 345 35 96 90 98 291 253 95 349 287 98 291 177 134 119 103 349 287 177 134 151 76 179 136 287 225 152 7 151 76 286 206 354 298 355 222 155 4 326 267 327 268 289 227 354 298 154 6 289 227 154 6 152 7 288 226 288 226 286 206 306 237 298 236 285 224 323 262 319 258 268 210 321 260 321 260 268 210 266 208 317 257 318 242 225 173 318 242 266 208 222 172 76 72 74 70 53 280 211 162 209 160 313 250 314 251 211 276 313 253 60 50 336 252 314 251 54 48 60 50 314 251 248 276 77 279 315 252 121 304 351 295 119 103 165 284 351 303 121 283 346 287 165 284 167 134 157 291 346 287 167 134 106 90 107 95 157 291 110 90 35 28 153 106 113 28 95 90 123 273 110 90 156 92 111 95 344 287 156 92 166 131 344 287 166 131 164 284 65 58 63 186 67 62 362 216 33 255 27 26 365 307 364 306 363 305 367 309 363 305 366 308 366 308 368 310 274 215 366 308 363 305 368 310 289 227 131 270 326 267 371 307 370 309 369 311 370 309 366 308 372 312 367 309 365 307 363 305 284 223 307 109 299 237 284 223 299 237 6 6 353 297 350 294 325 266 373 313 343 30 353 297 369 311 330 315 343 314 369 311 276 217 330 271 276 217 275 216 330 271 172 27 275 216 273 214 27 26 28 244 362 216 299 237 115 99 261 205 147 126 193 301 146 125 32 318 374 317 334 316 117 101 116 100 301 281 262 206 115 99 117 101 94 88 117 101 301 281 300 238 262 206 94 88 287 225 88 82 89 88 373 319 369 311 343 314 372 312 276 217 369 311 173 26 275 216 172 27 322 261 298 236 352 296 298 236 296 234 297 235 333 274 296 234 14 13 15 14 14 13 322 261 354 298 289 227 327 268 327 268 375 320 355 222 353 297 343 30 238 182 169 14 375 320 327 268 169 14 327 268 168 132 286 206 89 88 132 112 129 109 290 263 136 115 136 115 250 321 129 109 306 237 133 113 136 115 133 113 135 114 137 116 306 237 136 115 290 263 306 237 286 206 133 113 136 115 138 117 250 321 369 311 373 319 376 322 132 112 337 281 134 100 286 206 132 112 133 113 144 123 329 264 143 122 89 88 337 281 132 112 141 120 376 322 373 319 94 88 262 206 117 101 147 126 307 248 193 301 299 237 147 126 115 99 115 99 148 127 114 98 363 305 364 306 368 310 362 216 28 244 273 214 377 323 334 316 374 317 275 216 173 26 330 271 139 118 376 322 141 120 325 266 350 294 327 268 239 183 353 297 238 182 309 246 311 247 308 245 295 233 296 234 333 275 335 293 295 233 333 275 376 322 371 307 369 311 128 108 129 109 250 321 88 82 300 238 94 88 331 272 252 97 29 28 328 269 144 123 325 266 361 46 341 289 342 290 379 290 378 212 357 289 228 46 227 52 270 42 187 51 358 46 359 300 197 42 359 300 357 289 197 42 270 42 359 300 378 212 197 42 357 289 227 51 359 300 270 42 227 52 187 51 359 300 197 42 378 212 242 190 187 51 264 44 358 46 207 68 208 54 227 52 364 306 316 256 368 310 31 30 374 317 32 318 316 256 33 255 362 216 284 223 311 302 307 109 330 315 175 32 343 314 369 311 370 309 372 312 366 308 274 215 276 217 366 308 276 217 372 312 273 214 145 124 172 27 274 215 368 310 273 214 273 214 368 310 362 216 316 256 362 216 368 310 141 316 353 297 142 121 373 313 353 297 141 316 328 269 329 264 144 123 326 267 328 269 325 266 142 121 353 297 325 266 328 269 131 270 130 110 354 298 155 4 154 6 289 227 154 6 288 226 240 75 241 185 265 74 203 41 204 59 270 42 187 51 186 45 264 44 197 42 242 190 198 150 358 46 379 290 357 289 204 189 196 155 198 188 29 28 43 40 9 8 32 31 334 120 25 24 339 287 338 286 118 284 380 324 377 323 374 317 380 324 364 306 365 307 374 317 316 256 364 306 364 306 380 324 374 317 31 30 316 256 374 317</p>
                </polylist>
            </mesh>
        </geometry>
        <geometry id="mesh2">
            <mesh>
                <source id="points2">
                    <float_array id="pointarray2" count="57">58.46875 -24.078125 -12.953125 58.453125 -26.3515625 -13.1640625 61.78125 -24.4765625 -9.390625 62 -26.703125 -8.859375 59.0234375 -27.78125 -12.84375 63.3984375 -23.65625 -4.9375 62.7734375 -22.28125 -6.359375 60.078125 -22.9765625 10.7890625 61.0546875 -22.6796875 8.1328125 61.4765625 -25.25 9.3828125 58.9609375 -24.1640625 12.484375 58.46875 -26.421875 13.234375 61.7734375 -23.2890625 6.1796875 62.7890625 -24.265625 4.75 61.65625 -21.4296875 -8.59375 60.375 -21.7265625 -10.6015625 59.265625 -22.515625 -11.8984375 63.703125 -26.078125 -5.1875 64 -25.8984375 -4.1328125</float_array>
                    <technique_common>
                        <accessor count="19" source="#pointarray2" stride="3">
                            <param name="X" type="float"/>
                            <param name="Y" type="float"/>
                            <param name="Z" type="float"/>
                        </accessor>
                    </technique_common>
                </source>
                <source id="uvs2">
                    <float_array id="uvarray2" count="38">0.8968505859375 0.47894287109375 0.88214111328125 0.5833740234375 0.5943603515625 0.36474609375 0.53375244140625 0.53173828125 0.86737060546875 0.68780517578125 0.2244873046875 0.2362060546875 0.3865966796875 0.14288330078125 0.60430908203125 0.13214111328125 0.42816162109375 0.11334228515625 0.5709228515625 0.49871826171875 0.80316162109375 0.35009765625 0.8990478515625 0.62225341796875 0.3011474609375 0.18670654296875 0.1610107421875 0.3489990234375 0.52740478515625 0.1134033203125 0.69915771484375 0.1458740234375 0.85455322265625 0.30206298828125 0.27313232421875 0.44317626953125 0.135009765625 0.41033935546875</float_array>
                    <technique_common>
                        <accessor count="19" source="#uvarray2" stride="2">
                            <param name="S" type="float"/>
                            <param name="T" type="float"/>
                        </accessor>
                    </technique_common>
                </source>
                <vertices id="vertices2">
                    <input semantic="POSITION" source="#points2"/>
                </vertices>
                <polylist count="16" material="Material1">
                    <input offset="0" semantic="VERTEX" source="#vertices2"/>
                    <input offset="1" semantic="TEXCOORD" source="#uvs2" set="0"/>
                    <vcount>3 3 3 3 3 3 3 3 3 3 3 3 3 3 3 3</vcount>
                    <p>2 2 1 1 0 0 3 3 1 1 2 2 4 4 1 1 3 3 2 2 6 6 5 5 9 9 8 8 7 7 7 7 10 10 9 9 10 10 11 11 9 9 9 9 12 12 8 8 9 9 13 13 12 12 2 2 15 15 14 14 15 15 2 2 16 16 16 16 2 2 0 0 2 2 14 14 6 6 2 2 17 17 3 3 18 18 17 17 5 5 2 2 5 5 17 17</p>
                </polylist>
            </mesh>
        </geometry>
    </library_geometries>
    <library_visual_scenes>
        <visual_scene id="VisualSceneNode">
            <node id="node0" name="m0" type="NODE">
                <instance_geometry url="#mesh0">
                    <bind_material>
                        <technique_common>
                            <instance_material symbol="Material1" target="#mat0">
                                <bind_vertex_input semantic="UVSET0" input_semantic="TEXCOORD" input_set="0"></bind_vertex_input>
                            </instance_material>
                        </technique_common>
                    </bind_material>
                </instance_geometry>
            </node>
            <node id="node1" name="m1" type="NODE">
                <instance_geometry url="#mesh1">
                    <bind_material>
                        <technique_common>
                            <instance_material symbol="Material1" target="#mat1">
                                <bind_vertex_input semantic="UVSET0" input_semantic="TEXCOORD" input_set="0"></bind_vertex_input>
                            </instance_material>
                        </technique_common>
                    </bind_material>
                </instance_geometry>
            </node>
            <node id="node2" name="m2" type="NODE">
                <instance_geometry url="#mesh2">
                    <bind_material>
                        <technique_common>
                            <instance_material symbol="Material1" target="#mat2">
                                <bind_vertex_input semantic="UVSET0" input_semantic="TEXCOORD" input_set="0"></bind_vertex_input>
                            </instance_material>
                        </technique_common>
                    </bind_material>
                </instance_geometry>
            </node>
        </visual_scene>
    </library_visual_scenes>
    <scene>
        <instance_visual_scene url="#VisualSceneNode"></instance_visual_scene>
    </scene>
</COLLADA>
