<?xml version="1.0"?>
<COLLADA xmlns="http://www.collada.org/2005/11/COLLADASchema" version="1.4.1">
    <asset>
        <contributor>
            <authoring_tool>J3D Ripoff Exporter</authoring_tool>
        </contributor>
        <created>2024-08-18T17:24:21.300Z</created>
        <modified>2024-08-18T17:24:21.300Z</modified>
		<unit meter="0.01" name="centimeter" ></unit>
        <up_axis>Y_UP</up_axis>
    </asset>
    <library_images>
        <image id="tex0">
            <init_from>akebono_eye.png</init_from>
        </image>
        <image id="tex1">
            <init_from>akebono_body.png</init_from>
        </image>
    </library_images>
    <library_effects>
        <effect id="effect0">
            <profile_COMMON>
                <newparam sid="surface0">
                    <surface type="2D">
                        <init_from>tex1</init_from>
                    </surface>
                </newparam>
                <newparam sid="sampler0">
                    <sampler2D>
                        <source>surface0</source>
                    </sampler2D>
                </newparam>
                <technique sid="COMMON">
                    <blinn>
                        <diffuse>
                            <texture texture="sampler0" texcoord="UVSET0"></texture>
                        </diffuse>
                    </blinn>
                </technique>
            </profile_COMMON>
        </effect>
        <effect id="effect1">
            <profile_COMMON>
                <newparam sid="surface1">
                    <surface type="2D">
                        <init_from>tex0</init_from>
                    </surface>
                </newparam>
                <newparam sid="sampler1">
                    <sampler2D>
                        <source>surface1</source>
                    </sampler2D>
                </newparam>
                <technique sid="COMMON">
                    <blinn>
                        <diffuse>
                            <texture texture="sampler1" texcoord="UVSET0"></texture>
                        </diffuse>
                    </blinn>
                </technique>
            </profile_COMMON>
        </effect>
    </library_effects>
    <library_materials>
        <material id="mat0" name="Skin_spec">
            <instance_effect url="#effect0"></instance_effect>
        </material>
        <material id="mat1" name="eye">
            <instance_effect url="#effect1"></instance_effect>
        </material>
    </library_materials>
    <library_geometries>
        <geometry id="mesh0">
            <mesh>
                <source id="points0">
                    <float_array id="pointarray0" count="753">63.484375 25.1875 -17.8984375 71.5546875 25.578125 -9.9375 61.3203125 25.9140625 -17.1953125 65.5703125 27.4375 -11.0546875 76.3125 7.9921875 17.921875 81.3515625 9.2578125 18.75 81.6640625 7.09375 11.328125 86.6953125 8.3515625 12.0234375 86.6953125 8.3515625 -12.03125 81.3515625 9.2578125 -18.7578125 81.6640625 7.09375 -11.328125 76.3125 7.9921875 -17.9296875 63.4453125 9.3359375 28.2734375 63.25 11.640625 27.28125 68.546875 7.484375 25.1796875 67.8515625 9.75 24.0546875 77.9296875 5.453125 19.0078125 59.4140625 -35.7578125 17.6796875 57.2265625 -37.1640625 16.5234375 54.7421875 -37.6640625 20.671875 53.359375 -38.6875 19.015625 63 -33.9609375 13.375 60.9765625 -35.5078125 12.6484375 86.3984375 4.0703125 5.5546875 84.1328125 6.6015625 5.3046875 87.3515625 3.9453125 0 85.125 6.4921875 0 67.8515625 9.75 -24.0546875 63.25 11.640625 -27.28125 68.546875 7.484375 -25.1796875 63.4453125 9.3359375 -28.2734375 89.4765625 7.8125 5.1484375 90.03125 7.796875 0 51.171875 -39.1640625 22.2421875 48.6640625 -40.8359375 22.1796875 77.9296875 5.453125 -19.015625 60.0390625 4.0546875 28.859375 68.9453125 2.2421875 24.875 64.7578125 -29.6875 9.0859375 62 -27.671875 8.8515625 65.984375 -28.9921875 5.203125 63.703125 -27.0390625 5.1796875 65.5625 -32.890625 8.9296875 66.6953125 -32.3671875 4.875 64.0625 -34.0078125 3.8046875 63.1953125 -34.53125 8.171875 57.859375 -18.171875 12.4375 65.6953125 -15.953125 15.0625 60.3515625 -19.8203125 9.0390625 68.75 -18.2578125 9.8984375 55.890625 -20.65625 14.59375 54.78125 -23.5703125 16.03125 56.328125 -20.171875 17.34375 54.703125 -24.5078125 19.0078125 51.6796875 -18.921875 20.984375 54.484375 -14.078125 18.2421875 53.828125 -19.359375 20.6484375 56.5078125 -15.0859375 17.5 48.59375 -28.2578125 23.5078125 49.9921875 -22.6796875 22.4453125 51.2890625 -28.7890625 22.90625 52.140625 -24.1484375 22.140625 60.328125 -13.0703125 20.1953125 58 -16.8984375 14.9453125 53.8203125 -27.8515625 17.15625 54.3125 -28.4140625 19.8515625 64.3125 -33.7578125 0 67.171875 -32.0078125 0 90.1796875 11.4296875 4.984375 86.4453125 13.796875 4.65625 90.6640625 11.2421875 0 86.953125 13.5390625 0 87.1328125 11.9375 12.2890625 83.328125 14.1484375 12.078125 66.6484375 -28.4375 0 84.1328125 6.6015625 -5.3125 86.3984375 4.0703125 -5.5546875 84.0234375 4.390625 -11.15625 84.5546875 -9.703125 -5.5546875 79.796875 -15.4921875 -5.6328125 85.6328125 -10.1328125 0 80.671875 -16.359375 0 71.1796875 -20.0625 -4.6953125 68.75 -18.2578125 -9.90625 78.09375 -14.4375 -10.9375 76.46875 -7.390625 -18.4453125 73.203125 -12.2421875 -17.5234375 82.296875 -8.9765625 -11.171875 84.0234375 4.390625 11.1484375 78.09375 -14.4375 10.9375 73.203125 -12.2421875 17.515625 82.296875 -8.9765625 11.171875 76.46875 -7.390625 18.4453125 79.796875 -15.4921875 5.6328125 71.1796875 -20.0625 4.6875 84.5546875 -9.703125 5.5546875 78.4296875 0.7578125 -18.6953125 68.9453125 2.2421875 -24.875 71.71875 -20.59375 0 84.375 -0.21875 -11.234375 73.9375 13.703125 24.1484375 72.1328125 15.6640625 22.75 81.640625 12.671875 18.8359375 79.265625 14.6953125 17.4765625 62.1171875 -30.734375 13.6171875 69.4140625 -21.7890625 0 68.359375 -20.9453125 -4.8046875 68.359375 -20.9453125 4.8046875 82.0703125 21 0 79.15625 21.078125 -9.484375 86.4453125 13.796875 -4.65625 83.328125 14.1484375 -12.0859375 62.4921875 -21.53125 -4.46875 63.6953125 -22.3515625 0 78.4296875 0.7578125 18.6875 84.375 -0.21875 11.234375 74.640625 25.9921875 0 68.484375 27.9296875 0 62.4921875 -21.53125 4.46875 79.15625 21.078125 9.484375 65.5703125 27.4375 11.0546875 71.5546875 25.578125 9.9375 89.4765625 7.8125 -5.1484375 73.53125 10.3828125 -24.1328125 65.4765625 12.6796875 -27.53125 73.53125 10.3828125 24.1328125 65.4765625 12.6796875 27.53125 66.0078125 15.2265625 -27.6328125 73.9375 13.703125 -24.1484375 53.359375 -38.7734375 -19.1015625 57.9765625 -36.84375 -15.390625 54.7421875 -37.6640625 -20.671875 59.4140625 -35.7578125 -17.6875 67.71875 -5.40625 24.109375 61.609375 -35.2109375 -11.2578125 63 -33.9609375 -13.375 58.359375 -3.296875 27.9609375 48.6640625 -40.8359375 -22.1953125 51.171875 -39.1640625 -22.2421875 63.703125 -27.0390625 -5.1875 62 -27.671875 -8.859375 65.984375 -28.9921875 -5.203125 64.7578125 -29.6875 -9.09375 66.6953125 -32.3671875 -4.8828125 65.5625 -32.890625 -8.9375 63.1953125 -34.53125 -8.1796875 64.0625 -34.0078125 -3.8125 60.0390625 4.0546875 -28.859375 67.71875 -5.40625 -24.1171875 58.359375 -3.296875 -27.9609375 54.703125 -24.5078125 -19.0078125 54.78125 -23.5703125 -16.0390625 56.328125 -20.171875 -17.34375 55.890625 -20.65625 -14.59375 56.5078125 -15.0859375 -17.5078125 54.484375 -14.078125 -18.2578125 53.828125 -19.359375 -20.65625 52.3515625 -17.671875 -20.53125 65.5625 -9.9609375 22.609375 52.140625 -24.1484375 -22.1484375 49.5546875 -23.7578125 -22.7109375 51.2890625 -28.7890625 -22.90625 48.6640625 -27.1328125 -23.3359375 57.1015625 -7.15625 25.90625 58 -16.8984375 -14.9453125 57.859375 -18.171875 -12.4375 54.2265625 -28.75 -19.8515625 54.2421875 -27.8515625 -17.4296875 62.1171875 -30.734375 -13.625 58.546875 -28.84375 -13.4921875 61.3203125 25.9140625 17.1953125 63.484375 25.1875 17.8984375 66.0078125 15.2265625 27.6328125 64.9609375 16.96875 27.2421875 58.546875 -28.84375 13.4921875 90.1796875 11.4296875 -4.984375 87.1328125 11.9375 -12.296875 81.640625 12.671875 -18.8359375 79.265625 14.6953125 -17.484375 72.1328125 15.6640625 -22.75 64.9609375 16.96875 -27.2421875 65.5625 -9.9609375 -22.6171875 65.6953125 -15.953125 -15.0703125 60.328125 -13.0703125 -20.1953125 57.1015625 -7.15625 -25.9140625 60.3515625 -19.8203125 -9.046875 50.8828125 -35.671875 -22.9140625 54.3125 -34.4140625 -20.1875 54.3125 -34.4140625 20.1875 53.5390625 -31.265625 17.875 58.7421875 -32.2734375 17.4296875 47.96875 -36.7265625 23.1640625 50.8828125 -35.671875 22.9140625 71.46875 21.328125 -18.671875 64 -26.859375 -3.828125 64.390625 -26.703125 0 58.46875 -26.0625 -13.2421875 47.8828125 -32.78125 -23.6484375 47.96875 -36.7265625 -23.1796875 53.5390625 -31.265625 -17.8828125 55.84375 -30.09375 -16.390625 58.9609375 -23.9921875 -12.203125 61.0546875 -22.453125 -7.9609375 62.7890625 -24.390625 -4.7578125 61.7734375 -23.0625 -6.3984375 58.7421875 -32.2734375 -17.4375 60.078125 -22.6953125 -10.3203125 61.09375 21.515625 -24.890625 56.3359375 24.2109375 -21.0703125 50.34375 -8.03125 -24.265625 56.9140625 -11.03125 -22.6953125 55.71875 7.46875 -30.2734375 47.3515625 11.03125 -31.0703125 51.8125 3.015625 -30.234375 64.859375 -19.8046875 7.3671875 86.6484375 -0.3203125 -5.6171875 87.640625 -0.421875 0 48.1875 -1.3828125 -28.4296875 59.984375 13.453125 29.15625 48.1328125 15.6640625 29.8046875 51.9375 11.6328125 30.6484375 46.890625 11.46875 31.0703125 53.4453125 17.8671875 28.90625 51.03125 20.171875 26.4296875 71.46875 21.328125 18.6640625 56.9140625 -11.03125 22.6953125 54.484375 -14.078125 -18.2421875 47.34375 4.3203125 -30.40625 48.1328125 15.6640625 -29.8125 51.9375 11.6328125 -30.65625 53.4453125 17.8671875 -28.90625 55.71875 7.90625 30.265625 51.03125 20.171875 -26.4375 61.09375 21.515625 24.8828125 56.3359375 24.2109375 21.0703125 50.34375 -8.03125 24.2578125 51.8125 3.015625 30.2265625 64 -26.859375 3.828125 58.46875 -26.0625 13.234375 47.96875 -32.78125 23.6328125 55.84375 -30.09375 16.3828125 86.6484375 -0.3203125 5.6171875 60.078125 -22.6953125 10.3125 64.859375 -19.8046875 -7.3671875 59.984375 13.453125 -29.15625 58.9609375 -23.9921875 12.203125 62.7890625 -24.390625 4.75 61.0546875 -22.453125 7.9609375 61.7734375 -23.0625 6.390625 47.34375 4.3203125 30.40625 48.1875 -1.3828125 28.421875</float_array>
                    <technique_common>
                        <accessor count="251" source="#pointarray0" stride="3">
                            <param name="X" type="float"/>
                            <param name="Y" type="float"/>
                            <param name="Z" type="float"/>
                        </accessor>
                    </technique_common>
                </source>
                <source id="uvs0">
                    <float_array id="uvarray0" count="378">0.19036865234375 0.08245849609375 0.11871337890625 0.0750732421875 0.2169189453125 0.0709228515625 0.1717529296875 0.052001953125 0.1475830078125 0.2283935546875 0.1370849609375 0.21148681640625 0.09686279296875 0.23236083984375 0.0909423828125 0.21661376953125 0.279541015625 0.28900146484375 0.27838134765625 0.2281494140625 0.2174072265625 0.32861328125 0.22052001953125 0.30340576171875 0.1578369140625 0.35797119140625 0.15557861328125 0.3343505859375 0.44580078125 0.546142578125 0.43475341796875 0.55780029296875 0.474365234375 0.56195068359375 0.45855712890625 0.57049560546875 0.40472412109375 0.53118896484375 0.397705078125 0.5440673828125 0.055908203125 0.3870849609375 0.05517578125 0.36395263671875 0.009765625 0.3887939453125 0.009765625 0.3663330078125 0.04852294921875 0.23345947265625 0.043701171875 0.21728515625 0.009765625 0.234130859375 0.009765625 0.21710205078125 0.4893798828125 0.574462890625 0.49700927734375 0.59063720703125 0.27716064453125 0.3380126953125 0.222900390625 0.36639404296875 0.36376953125 0.49566650390625 0.36151123046875 0.4788818359375 0.32666015625 0.48980712890625 0.32647705078125 0.4736328125 0.36224365234375 0.522216796875 0.32354736328125 0.5179443359375 0.31329345703125 0.53155517578125 0.35504150390625 0.53594970703125 0.19915771484375 0.501708984375 0.19146728515625 0.4599609375 0.15008544921875 0.515625 0.138916015625 0.4744873046875 0.41632080078125 0.4205322265625 0.43011474609375 0.44476318359375 0.44256591796875 0.41650390625 0.45849609375 0.45257568359375 0.48553466796875 0.40838623046875 0.45941162109375 0.36810302734375 0.47418212890625 0.40972900390625 0.44415283203125 0.37420654296875 0.5096435546875 0.48602294921875 0.49957275390625 0.43963623046875 0.4957275390625 0.4881591796875 0.48846435546875 0.4495849609375 0.26397705078125 0.45208740234375 0.24505615234375 0.43707275390625 0.243896484375 0.4779052734375 0.395751953125 0.39984130859375 0.419677734375 0.3892822265625 0.4407958984375 0.48040771484375 0.466552734375 0.48504638671875 0.27691650390625 0.529541015625 0.27691650390625 0.51495361328125 0.0413818359375 0.1895751953125 0.0418701171875 0.171142578125 0.009765625 0.1876220703125 0.009765625 0.17022705078125 0.08984375 0.1910400390625 0.0941162109375 0.1734619140625 0.27691650390625 0.48529052734375 0.10003662109375 0.35406494140625 0.1005859375 0.3780517578125 0.07965087890625 0.428955078125 0.0814208984375 0.44073486328125 0.009765625 0.4359130859375 0.009765625 0.44677734375 0.08404541015625 0.47418212890625 0.12188720703125 0.4361572265625 0.17010498046875 0.40435791015625 0.176025390625 0.41650390625 0.1124267578125 0.42498779296875 0.16412353515625 0.39215087890625 0.00927734375 0.478759765625 0.10333251953125 0.41168212890625 0.18743896484375 0.18988037109375 0.1864013671875 0.17529296875 0.138916015625 0.1907958984375 0.13555908203125 0.1741943359375 0.40704345703125 0.50439453125 0.00927734375 0.502685546875 0.085693359375 0.49969482421875 0.009765625 0.1217041015625 0.1002197265625 0.12158203125 0.076416015625 0.53997802734375 0.0089111328125 0.54443359375 0.009765625 0.06695556640625 0.009765625 0.0416259765625 0.192138671875 0.2098388671875 0.20111083984375 0.222900390625 0.25091552734375 0.20806884765625 0.2451171875 0.19122314453125 0.45941162109375 0.57122802734375 0.4239501953125 0.55511474609375 0.47442626953125 0.56195068359375 0.44586181640625 0.546142578125 0.23394775390625 0.4017333984375 0.3826904296875 0.53973388671875 0.28790283203125 0.37353515625 0.4971923828125 0.59063720703125 0.36383056640625 0.49566650390625 0.3236083984375 0.5179443359375 0.3623046875 0.522216796875 0.3551025390625 0.53594970703125 0.3133544921875 0.53155517578125 0.45855712890625 0.45257568359375 0.442626953125 0.41650390625 0.4163818359375 0.4205322265625 0.45953369140625 0.36810302734375 0.4742431640625 0.40972900390625 0.48126220703125 0.39801025390625 0.239501953125 0.41937255859375 0.488525390625 0.4495849609375 0.5020751953125 0.4486083984375 0.49578857421875 0.4881591796875 0.508056640625 0.4766845703125 0.29327392578125 0.39129638671875 0.41973876953125 0.3892822265625 0.39581298828125 0.39984130859375 0.467041015625 0.48504638671875 0.44342041015625 0.48040771484375 0.4071044921875 0.50439453125 0.40582275390625 0.4886474609375 0.24713134765625 0.180419921875 0.495849609375 0.54541015625 0.47406005859375 0.53497314453125 0.4739990234375 0.53497314453125 0.44769287109375 0.50872802734375 0.4434814453125 0.51708984375 0.50640869140625 0.55645751953125 0.49578857421875 0.54541015625 0.179443359375 0.12298583984375 0.31353759765625 0.47210693359375 0.2789306640625 0.032958984375 0.2962646484375 0.058837890625 0.27862548828125 0.05535888671875 0.3876953125 0.0772705078125 0.36090087890625 0.07928466796875 0.360107421875 0.060302734375 0.38055419921875 0.0474853515625 0.27691650390625 0.4708251953125 0.51104736328125 0.52362060546875 0.50653076171875 0.55645751953125 0.388671875 0.10107421875 0.379150390625 0.08984375 0.35089111328125 0.0467529296875 0.372802734375 0.029296875 0.3529052734375 0.0145263671875 0.322021484375 0.0367431640625 0.300048828125 0.03021240234375 0.3271484375 0.0233154296875 0.30084228515625 0.048828125 0.31158447265625 0.04046630859375 0.44775390625 0.50872802734375 0.33660888671875 0.0380859375 0.2962646484375 0.05889892578125 0.248291015625 0.14276123046875 0.2620849609375 0.08984375 0.338623046875 0.38507080078125 0.29864501953125 0.4090576171875 0.30865478515625 0.3177490234375 0.36590576171875 0.2698974609375 0.31768798828125 0.32672119140625 0.1160888671875 0.49774169921875 0.05657958984375 0.4168701171875 0.009765625 0.42205810546875 0.34722900390625 0.3524169921875 0.29638671875 0.21441650390625 0.36285400390625 0.2142333984375 0.32568359375 0.2449951171875 0.316162109375 0.193603515625 0.345458984375 0.155517578125 0.4334716796875 0.4990234375 0.2962646484375 0.42791748046875 0.35821533203125 0.31549072265625 0.3134765625 0.47210693359375 0.51092529296875 0.52362060546875 0.43341064453125 0.4990234375</float_array>
                    <technique_common>
                        <accessor count="189" source="#uvarray0" stride="2">
                            <param name="S" type="float"/>
                            <param name="T" type="float"/>
                        </accessor>
                    </technique_common>
                </source>
                <vertices id="vertices0">
                    <input semantic="POSITION" source="#points0"/>
                </vertices>
                <polylist count="438" material="Material1">
                    <input offset="0" semantic="VERTEX" source="#vertices0"/>
                    <input offset="1" semantic="TEXCOORD" source="#uvs0" set="0"/>
                    <vcount>3 3 3 3 3 3 3 3 3 3 3 3 3 3 3 3 3 3 3 3 3 3 3 3 3 3 3 3 3 3 3 3 3 3 3 3 3 3 3 3 3 3 3 3 3 3 3 3 3 3 3 3 3 3 3 3 3 3 3 3 3 3 3 3 3 3 3 3 3 3 3 3 3 3 3 3 3 3 3 3 3 3 3 3 3 3 3 3 3 3 3 3 3 3 3 3 3 3 3 3 3 3 3 3 3 3 3 3 3 3 3 3 3 3 3 3 3 3 3 3 3 3 3 3 3 3 3 3 3 3 3 3 3 3 3 3 3 3 3 3 3 3 3 3 3 3 3 3 3 3 3 3 3 3 3 3 3 3 3 3 3 3 3 3 3 3 3 3 3 3 3 3 3 3 3 3 3 3 3 3 3 3 3 3 3 3 3 3 3 3 3 3 3 3 3 3 3 3 3 3 3 3 3 3 3 3 3 3 3 3 3 3 3 3 3 3 3 3 3 3 3 3 3 3 3 3 3 3 3 3 3 3 3 3 3 3 3 3 3 3 3 3 3 3 3 3 3 3 3 3 3 3 3 3 3 3 3 3 3 3 3 3 3 3 3 3 3 3 3 3 3 3 3 3 3 3 3 3 3 3 3 3 3 3 3 3 3 3 3 3 3 3 3 3 3 3 3 3 3 3 3 3 3 3 3 3 3 3 3 3 3 3 3 3 3 3 3 3 3 3 3 3 3 3 3 3 3 3 3 3 3 3 3 3 3 3 3 3 3 3 3 3 3 3 3 3 3 3 3 3 3 3 3 3 3 3 3 3 3 3 3 3 3 3 3 3 3 3 3 3 3 3 3 3 3 3 3 3 3 3 3 3 3 3 3 3 3 3 3 3 3 3 3 3 3 3 3 3 3 3 3 3 3 3 3 3 3 3 3 3 3 3 3 3 3 3 3 3 3 3 3 3 3 3 3 3 3 3 3 3 3 3 3 3 3 3 3 3</vcount>
                    <p>2 2 1 1 0 0 3 3 1 1 2 2 6 6 5 5 4 4 7 7 5 5 6 6 10 6 9 5 8 7 11 4 9 5 10 6 14 10 13 9 12 8 15 11 13 9 14 10 4 13 14 10 16 12 15 11 14 10 4 13 19 16 18 15 17 14 20 17 18 15 19 16 17 14 22 19 21 18 18 15 22 19 17 14 25 22 24 21 23 20 26 23 24 21 25 22 29 10 28 9 27 11 30 8 28 9 29 10 26 26 31 25 24 24 32 27 31 25 26 26 33 28 20 17 19 16 34 29 20 17 33 28 11 13 29 10 27 11 35 12 29 10 11 13 37 31 12 8 36 30 14 10 12 8 37 31 40 34 39 33 38 32 41 35 39 33 40 34 42 36 40 34 38 32 43 37 40 34 42 36 43 37 45 39 44 38 42 36 45 39 43 37 48 42 47 41 46 40 49 43 47 41 48 42 52 46 51 45 50 44 53 47 51 45 52 46 56 50 55 49 54 48 57 51 55 49 56 50 60 54 59 53 58 52 61 55 59 53 60 54 63 58 62 57 57 56 47 41 62 57 63 58 63 60 50 44 46 59 52 46 50 44 63 60 61 55 54 48 59 53 56 50 54 48 61 55 53 47 64 61 51 45 65 62 64 61 53 47 67 64 44 38 66 63 43 37 44 38 67 64 42 36 22 19 45 39 21 18 22 19 42 36 70 67 69 66 68 65 71 68 69 66 70 67 68 65 73 70 72 69 69 66 73 70 68 65 67 64 40 34 43 37 74 71 40 34 67 64 76 20 10 72 75 21 77 73 10 72 76 20 80 76 79 75 78 74 81 77 79 75 80 76 83 43 79 75 82 78 84 79 79 75 83 43 87 82 86 81 85 80 84 79 86 81 87 82 23 20 6 72 88 73 24 21 6 72 23 20 91 82 90 81 89 79 92 80 90 81 91 82 49 43 93 75 89 79 94 78 93 75 49 43 35 12 10 72 77 73 11 13 10 72 35 12 80 76 93 75 81 77 95 74 93 75 80 76 96 83 29 10 35 12 97 31 29 10 96 83 98 84 79 75 81 77 82 78 79 75 98 84 99 85 35 12 77 73 96 83 35 12 99 85 102 88 101 87 100 86 103 89 101 87 102 88 72 69 103 89 102 88 73 70 103 89 72 69 104 90 42 36 38 32 21 18 42 36 104 90 16 12 6 72 4 13 88 73 6 72 16 12 106 92 98 84 105 91 82 78 98 84 106 92 107 92 98 84 94 78 105 91 98 84 107 92 110 66 109 94 108 93 111 70 109 94 110 66 106 92 113 96 112 95 105 91 113 96 106 92 98 84 93 75 94 78 81 77 93 75 98 84 115 85 16 12 114 83 88 73 16 12 115 85 114 83 14 10 37 31 16 12 14 10 114 83 1 1 117 98 116 97 3 3 117 98 1 1 107 92 113 96 105 91 118 95 113 96 107 92 69 66 119 94 73 70 108 93 119 94 69 66 121 1 117 98 120 3 116 97 117 98 121 1 75 24 8 7 122 25 10 6 8 7 75 24 11 4 123 99 9 5 27 100 123 99 11 4 123 99 28 9 124 101 27 100 28 9 123 99 24 24 7 7 6 6 31 25 7 7 24 24 4 4 125 99 15 100 5 5 125 99 4 4 125 99 13 9 15 100 126 101 13 9 125 99 93 75 91 82 89 79 95 74 91 82 93 75 79 75 87 82 78 74 84 79 87 82 79 75 128 86 124 101 127 102 123 99 124 101 128 86 131 105 130 104 129 103 132 106 130 104 131 105 115 85 92 80 91 82 114 83 92 80 115 85 114 83 133 107 92 80 37 31 133 107 114 83 132 106 134 108 130 104 135 18 134 108 132 106 133 107 36 30 136 109 37 31 36 30 133 107 138 28 129 103 137 110 131 105 129 103 138 28 141 34 140 33 139 35 142 111 140 33 141 34 144 113 141 34 143 112 142 111 141 34 144 113 143 112 145 114 144 113 146 115 145 114 143 112 148 107 147 30 97 31 149 109 147 30 148 107 152 117 151 45 150 116 153 118 151 45 152 117 156 120 155 119 154 51 157 121 155 119 156 120 133 107 90 81 92 80 158 122 90 81 133 107 161 125 160 124 159 123 162 126 160 124 161 125 158 122 136 109 163 127 133 107 136 109 158 122 164 128 153 118 152 117 165 129 153 118 164 128 159 123 157 121 156 120 160 124 157 121 159 123 150 116 167 131 166 130 151 45 167 131 150 116 96 83 148 107 97 31 85 80 148 107 96 83 67 64 146 115 143 112 66 63 146 115 67 64 144 113 134 108 135 18 145 114 134 108 144 113 99 85 85 80 96 83 87 82 85 80 99 85 67 64 141 34 74 71 143 112 141 34 67 64 168 132 144 113 135 18 142 111 144 113 168 132 142 111 169 133 140 33 168 132 169 133 142 111 170 2 121 1 120 3 171 0 121 1 170 2 150 116 161 125 159 123 166 130 161 125 150 116 101 87 172 102 100 86 173 134 172 102 101 87 32 27 68 65 31 25 70 67 68 65 32 27 38 32 174 133 104 90 39 33 174 133 38 32 31 25 72 69 7 7 68 65 72 69 31 25 53 47 60 54 65 62 61 55 60 54 53 47 7 7 102 88 5 5 72 69 102 88 7 7 5 5 100 86 125 99 102 88 100 86 5 5 100 86 126 101 125 99 172 102 126 101 100 86 25 22 75 21 26 23 76 20 75 21 25 22 175 65 111 70 110 66 176 69 111 70 175 65 9 5 128 86 177 88 123 99 128 86 9 5 176 69 178 89 111 70 177 88 178 89 176 69 177 88 179 87 178 89 128 86 179 87 177 88 8 7 177 88 176 69 9 5 177 88 8 7 179 87 127 102 180 134 128 86 127 102 179 87 32 27 175 65 70 67 122 25 175 65 32 27 122 25 176 69 175 65 8 7 176 69 122 25 70 67 110 66 71 68 175 65 110 66 70 67 148 107 86 81 181 122 85 80 86 81 148 107 164 58 183 57 182 41 154 56 183 57 164 58 181 122 149 109 148 107 184 127 149 109 181 122 185 42 182 41 83 43 165 40 182 41 185 42 97 31 30 8 29 10 147 30 30 8 97 31 26 26 122 25 32 27 75 24 122 25 26 26 187 136 186 135 161 125 189 138 64 61 188 137 189 138 188 137 190 139 188 137 17 14 190 139 174 133 190 139 104 90 104 90 17 14 21 18 33 28 191 140 34 29 56 50 52 46 57 51 33 28 19 16 192 141 193 142 109 94 178 89 109 94 111 70 178 89 141 34 139 35 194 143 195 146 194 145 113 144 196 149 169 148 167 147 150 116 159 123 156 120 151 150 196 149 167 147 194 143 195 151 74 71 141 34 194 143 74 71 161 125 186 135 197 152 186 135 138 28 198 153 152 117 154 51 164 128 152 117 150 116 156 120 167 147 200 155 199 154 196 149 153 157 201 156 165 158 201 156 153 157 185 161 112 160 202 159 204 163 112 160 203 162 113 144 203 162 112 160 197 152 186 135 198 153 166 130 187 136 161 125 199 164 187 136 167 131 199 164 205 139 187 136 187 136 205 139 132 106 169 133 168 132 205 139 165 158 185 161 206 165 113 144 194 166 203 162 207 167 193 142 179 87 1 1 109 94 193 142 193 142 178 89 179 87 193 142 207 167 0 0 0 0 208 168 2 2 116 97 108 93 109 94 116 97 109 94 1 1 184 127 210 170 209 169 213 173 212 172 211 171 214 174 48 42 118 95 76 20 216 176 215 175 184 127 181 122 210 170 78 74 216 176 80 76 149 109 217 177 213 173 218 178 13 9 126 101 12 8 13 9 218 178 221 172 220 180 219 179 223 182 219 179 222 181 49 43 48 42 214 174 89 79 47 41 49 43 199 164 200 183 205 139 162 126 161 125 197 152 185 161 202 159 206 165 112 160 204 163 202 159 187 136 166 130 167 131 186 135 187 136 131 105 187 136 132 106 131 105 200 183 169 133 205 139 205 139 168 132 132 106 121 1 171 0 224 142 163 127 225 170 158 122 210 170 183 57 226 184 207 167 179 87 180 134 213 173 227 185 212 172 230 181 229 180 228 179 78 74 99 85 215 175 211 171 147 30 213 173 209 169 210 170 226 184 99 85 78 74 87 82 220 180 231 171 218 178 207 167 232 182 208 168 94 78 214 174 107 92 1 1 193 142 0 0 78 74 215 175 216 176 149 109 184 127 217 177 184 127 209 169 217 177 149 109 213 173 147 30 118 95 107 92 214 174 213 173 217 177 227 185 222 181 173 134 233 167 233 167 101 87 224 142 121 1 224 142 119 94 224 142 101 87 103 89 224 142 171 0 233 167 171 0 170 2 234 168 116 97 119 94 108 93 116 97 121 1 119 94 163 127 235 169 225 170 236 173 231 171 221 172 119 94 103 89 73 70 224 142 103 89 119 94 172 102 222 181 218 178 23 20 216 176 25 22 88 73 115 85 23 20 108 93 69 66 71 68 90 81 47 41 89 79 62 57 55 184 57 56 218 178 126 101 172 102 233 167 171 0 234 168 188 137 60 54 192 141 40 34 237 186 41 35 195 146 113 144 237 145 238 149 64 147 174 148 53 47 56 50 61 55 51 150 64 147 238 149 237 186 74 71 195 151 40 34 74 71 237 186 60 54 239 187 192 141 192 141 191 140 33 28 52 46 63 60 57 51 52 46 56 50 53 47 64 147 240 155 174 148 50 157 51 150 238 149 23 20 115 85 241 175 158 122 225 170 62 57 36 30 12 8 231 171 90 81 158 122 62 57 90 81 62 57 47 41 47 41 63 58 46 40 46 158 242 165 48 161 243 174 112 95 185 42 112 95 243 174 106 92 82 78 106 92 243 174 30 8 211 171 244 178 76 20 215 175 99 85 181 122 183 57 210 170 147 30 211 171 30 8 86 81 183 57 181 122 86 81 182 41 183 57 182 41 165 40 164 58 230 181 207 167 180 134 127 102 244 178 230 181 76 20 25 22 216 176 77 73 76 20 99 85 108 93 71 68 110 66 86 81 84 79 182 41 183 57 154 56 226 184 244 178 127 102 124 101 207 167 208 168 0 0 167 147 169 148 200 155 153 157 196 149 151 150 138 28 186 135 131 105 156 120 154 51 152 117 138 28 137 110 198 153 168 132 135 18 132 106 238 149 245 156 50 157 64 147 189 154 240 155 46 158 245 156 242 165 113 144 246 162 237 166 189 138 190 139 240 188 58 52 239 187 60 54 48 161 242 165 247 159 118 160 247 159 248 163 188 137 64 61 65 62 192 141 19 16 188 137 188 137 19 16 17 14 240 188 190 139 174 133 190 139 17 14 104 90 165 158 206 165 201 156 94 78 49 43 214 174 173 134 222 181 172 102 233 167 223 182 222 181 233 167 234 168 223 182 233 167 173 134 101 87 236 173 221 172 249 185 222 181 219 179 220 180 95 74 241 175 115 85 115 85 91 82 95 74 136 109 236 173 250 177 95 74 80 76 216 176 236 173 249 185 250 177 136 109 36 30 236 173 231 171 236 173 36 30 163 127 250 177 235 169 136 109 250 177 163 127 95 74 216 176 241 175 23 20 241 175 216 176 235 169 55 184 225 170 225 170 55 184 62 57 232 182 230 181 228 179 83 43 243 174 185 42 84 79 83 43 182 41 244 178 124 101 28 9 30 8 244 178 28 9 212 172 228 179 229 180 244 178 211 171 229 180 211 171 212 172 229 180 244 178 229 180 230 181 82 78 243 174 83 43 180 134 127 102 230 181 207 167 230 181 232 182 65 62 60 54 188 137 239 187 191 140 192 141 113 144 118 160 246 162 248 163 246 162 118 160 48 161 247 159 118 160 46 158 50 157 245 156 231 171 12 8 218 178 231 171 220 180 221 172 218 178 222 181 220 180</p>
                </polylist>
            </mesh>
        </geometry>
        <geometry id="mesh1">
            <mesh>
                <source id="points1">
                    <float_array id="pointarray1" count="66">62 -27.671875 8.8515625 58.546875 -28.84375 13.4921875 61.4765625 -25.4765625 9.3828125 58.46875 -26.0625 13.234375 63.703125 -27.0390625 5.1796875 62.7890625 -24.390625 4.75 61.7734375 -23.0625 6.390625 58.46875 -26.0625 -13.2421875 58.546875 -28.84375 -13.4921875 61.4765625 -25.4765625 -9.390625 62 -27.671875 -8.859375 61.7734375 -23.0625 -6.3984375 62.7890625 -24.390625 -4.7578125 63.703125 -27.0390625 -5.1875 60.078125 -22.6953125 10.3125 61.0546875 -22.453125 7.9609375 58.9609375 -23.9921875 12.203125 64 -26.859375 3.828125 61.0546875 -22.453125 -7.9609375 60.078125 -22.6953125 -10.3203125 58.9609375 -23.9921875 -12.203125 64 -26.859375 -3.828125</float_array>
                    <technique_common>
                        <accessor count="22" source="#pointarray1" stride="3">
                            <param name="X" type="float"/>
                            <param name="Y" type="float"/>
                            <param name="Z" type="float"/>
                        </accessor>
                    </technique_common>
                </source>
                <source id="uvs1">
                    <float_array id="uvarray1" count="22">0.5286865234375 0.54150390625 0.8978271484375 0.7142333984375 0.5943603515625 0.36474609375 0.8968505859375 0.47894287109375 0.24029541015625 0.44354248046875 0.21539306640625 0.224853515625 0.3865966796875 0.14288330078125 0.69915771484375 0.1458740234375 0.52740478515625 0.1134033203125 0.85455322265625 0.30206298828125 0.0875244140625 0.4072265625</float_array>
                    <technique_common>
                        <accessor count="11" source="#uvarray1" stride="2">
                            <param name="S" type="float"/>
                            <param name="T" type="float"/>
                        </accessor>
                    </technique_common>
                </source>
                <vertices id="vertices1">
                    <input semantic="POSITION" source="#points1"/>
                </vertices>
                <polylist count="20" material="Material1">
                    <input offset="0" semantic="VERTEX" source="#vertices1"/>
                    <input offset="1" semantic="TEXCOORD" source="#uvs1" set="0"/>
                    <vcount>3 3 3 3 3 3 3 3 3 3 3 3 3 3 3 3 3 3 3 3</vcount>
                    <p>2 2 1 1 0 0 3 3 1 1 2 2 5 5 2 2 4 4 6 6 2 2 5 5 9 2 8 1 7 3 10 0 8 1 9 2 12 5 9 2 11 6 13 4 9 2 12 5 2 2 15 8 14 7 14 7 16 9 2 2 16 9 3 3 2 2 2 2 6 6 15 8 2 2 0 0 4 4 17 10 5 5 4 4 9 2 19 7 18 8 19 7 9 2 20 9 20 9 9 2 7 3 9 2 18 8 11 6 9 2 13 4 10 0 21 10 13 4 12 5</p>
                </polylist>
            </mesh>
        </geometry>
    </library_geometries>
    <library_visual_scenes>
        <visual_scene id="VisualSceneNode">
            <node id="node0" name="m0" type="NODE">
                <instance_geometry url="#mesh0">
                    <bind_material>
                        <technique_common>
                            <instance_material symbol="Material1" target="#mat0">
                                <bind_vertex_input semantic="UVSET0" input_semantic="TEXCOORD" input_set="0"></bind_vertex_input>
                            </instance_material>
                        </technique_common>
                    </bind_material>
                </instance_geometry>
            </node>
            <node id="node1" name="m1" type="NODE">
                <instance_geometry url="#mesh1">
                    <bind_material>
                        <technique_common>
                            <instance_material symbol="Material1" target="#mat1">
                                <bind_vertex_input semantic="UVSET0" input_semantic="TEXCOORD" input_set="0"></bind_vertex_input>
                            </instance_material>
                        </technique_common>
                    </bind_material>
                </instance_geometry>
            </node>
        </visual_scene>
    </library_visual_scenes>
    <scene>
        <instance_visual_scene url="#VisualSceneNode"></instance_visual_scene>
    </scene>
</COLLADA>
