<?xml version="1.0"?>
<COLLADA xmlns="http://www.collada.org/2005/11/COLLADASchema" version="1.4.1">
    <asset>
        <contributor>
            <authoring_tool>J3D Ripoff Exporter</authoring_tool>
        </contributor>
        <created>2024-08-18T17:27:34.416Z</created>
        <modified>2024-08-18T17:27:34.416Z</modified>
		<unit meter="0.01" name="centimeter" ></unit>
        <up_axis>Y_UP</up_axis>
    </asset>
    <library_images>
    </library_images>
    <library_effects>
        <effect id="effect0">
            <profile_COMMON>
                <technique sid="COMMON">
                    <blinn>
                        <diffuse>
                            <color>1 1 1 1</color>
                        </diffuse>
                    </blinn>
                </technique>
            </profile_COMMON>
        </effect>
    </library_effects>
    <library_materials>
        <material id="mat0" name="Akebono_Shadow_m">
            <instance_effect url="#effect0"></instance_effect>
        </material>
    </library_materials>
    <library_geometries>
        <geometry id="mesh0">
            <mesh>
                <source id="points0">
                    <float_array id="pointarray0" count="1608">-228.45532922342136 245.74664513509236 -27.078532099932314 -162.23834724155412 250.12234061848721 -25.887245448288265 -235.65070801765725 260.4083375049471 -47.11013730543704 -165.84251676436148 258.96120169021344 -44.802220512336255 -54.29546324322345 258.07853922199706 -9.939872234637937 -82.84325351364483 256.05924645891014 10.823788307103447 -52.02110946265563 267.50809829804086 19.790137840484885 -82.84542825233105 264.26215334884375 21.754267498293046 -52.45712974883245 307.7647380816742 13.37250235634893 -54.60138333562497 316.7340847836459 -10.890452376526781 -41.0123435049017 292.2363502996998 11.314521820137006 -40.49923080718805 305.6216498185736 -9.897610707917902 -48.46649024444279 306.530507684912 -33.60645743502963 -36.37088746637815 291.10589392718157 -28.399002332461254 -153.3167988582364 263.3551923620028 22.986773803000602 -153.31840193100112 295.7382168525928 22.9860041827524 -82.84404513901596 300.0905244737581 21.753374086229773 -255.67919020028222 237.7944179773545 -23.233440898505233 -255.68048555132162 237.80339322665267 26.106860801712696 -228.45895703892006 246.081333160651 23.941628562365594 -144.72533568030678 295.73433311013036 -49.5057365243253 -130.28094703661816 301.6368675873472 -43.34924250643285 -150.83774496993186 310.57079273634554 -24.993109766178165 -138.19842253753467 312.82616728527114 -23.391090923509182 -144.7315443665808 263.3512799634664 -49.504863193901556 -130.28417009274793 262.05065193040554 -43.34823288790923 -153.31495314631283 253.34759732984998 11.532859429446255 -138.19600145745483 250.403881192938 -23.389598503027766 -82.83868127129787 256.0600548382282 -21.788521064999415 -153.31712822883907 307.1838890584954 11.531573442045527 -82.84582382772331 314.2627536201039 10.822400904684125 51.987250604358195 55.90383589522338 24.113203953740378 22.995345862123592 55.90393296765798 18.21335611460428 51.98610360558918 71.86048483474288 32.08308704127916 26.45525836709433 71.86245565724782 23.63651870701193 79.90940823133015 55.90666133461805 18.216084481567485 74.36932075698367 71.8647525789453 23.638815628712045 88.5509060622844 55.91030037477785 0.005501177341447061 81.04229737284733 72.51936206654102 0.0046868250608738116 51.92637066793534 89.1183130196753 -42.895996822592586 78.16853253072988 72.55114038976807 -25.792771020767365 51.98725949866314 128.7991891378637 -48.96768547422342 80.47078786324275 128.80381274898542 -31.310027090155586 26.957711732124128 70.1735424393431 -25.852033134547437 23.228600494790246 128.80106865225017 -31.312771186894004 13.760565179056352 82.57866397413574 0.0007799391982126203 10.211474597295679 128.7973732840219 -0.0007978600773168587 80.90895133884555 83.65219238446363 0.0014334763650905025 92.38334940845759 128.80131246915383 0.003141325059125233 -6.345351424771758 3.7806318685198903 6.6552886478949995 -12.328657909860999 3.78034503860394 -15.634060707632386 -1.8851596012725313 22.616783204456212 3.374252501704555 -6.9235157478824 26.022791677826163 -14.766614041856197 -2.6479951860434428 3.7808091137240183 -35.97734665588763 3.077501421266381 23.624833607457873 -33.586447136605194 50.453066835264124 35.47085472810106 -57.22480102951455 22.155156356758905 34.87574817192488 -35.030845060871144 50.454998226949336 1.5021047816572661 -63.54511352225224 18.79787192650848 1.500587190857118 -45.26538109204815 50.44966283700736 36.58022956619368 12.67363639016913 92.72345116365385 32.957256098222544 8.98035041378897 79.18655828018983 33.39410716224542 -36.715611074192076 81.24316181189633 1.5035807158076295 -44.79363756655562 20.152951945716644 32.38346468666015 13.44562150670206 51.9924154638286 32.75999101883883 -60.48253974563504 84.16308593853677 32.76153322810579 -35.35599750749659 51.99085538295411 55.91107996834086 -51.09015435255204 80.32585577104747 55.91241565071188 -31.541864791624768 19.27246108766105 32.75842247780099 -35.35910825780495 23.318043402056357 55.90968278953031 -31.54459765280945 6.2317034163132945 32.765645767080116 -0.0054788136268393295 11.925906238375282 55.90662709775047 0.0018279003098609081 95.78639071050887 32.769938872154015 -0.0011857085480180274 -82.84144361220771 305.420225734346 -41.314847906792984 -82.84104503921448 318.46671603567614 -21.790013864748577 -82.83805812468626 264.25602576882955 -46.548723755301914 -150.8309735630997 253.35168260899042 -24.99180218006694 -233.77310655627727 260.4053076595343 39.583514364121385 -241.44119574612975 304.79392936674253 40.765844926725606 -241.44628813951948 319.8170510558298 23.935217422653025 -241.44388356432415 319.8158526812281 -27.08493508613704 -164.2751456907905 313.35748254069205 -25.885188746363145 -309.75781100617854 334.95735117728714 31.622866056314557 -274.0105526927874 320.16652333222055 31.782227780306464 -308.56844011118886 317.96986177007585 50.60216655934545 -271.08152465131155 305.6385271093076 49.47251826167533 -259.1270355929959 248.79916544594317 48.497540134305396 -276.67505880887194 253.28953650341646 49.77714817397584 -277.8345835014069 243.68316931468797 29.2289250359584 -277.82572905434307 243.6740681683733 -26.604236622850472 -276.67090171360985 253.27947677211827 -45.84070671470358 -259.11996680174207 248.79696203982866 -45.721793243145605 -308.5641091973987 317.95981691132306 -44.414075126247106 -275.9801128484109 305.62590426211034 -54.67475541498109 -309.756805713965 334.9559084490164 -29.507533731008316 -272.2592362805793 320.1636756363848 -29.926145234993726 -241.43681464890656 304.79183663595927 -48.359253898389994 -165.84055872149227 299.75051147429986 -43.38905560799242 165.8380857484139 258.9969303630828 -44.78778117467439 235.64521483698758 260.45630285751713 -47.080719847113954 165.8326761189445 299.7782646268523 -43.36992720505349 241.42432696895622 304.8354082333159 -48.321995028752504 164.25872689455156 313.38766923907804 -25.863348073510387 241.42506776391963 319.8652258034791 -27.046339140997855 228.45273203773337 245.78680051423353 -27.055103547023318 259.119326801172 248.84504825741328 -45.69860807947718 255.67668216153584 237.84634977081564 -23.205870842496015 275.96562346615855 305.68129491163495 -54.64044531129225 271.05080124545685 305.67918805587067 49.504288814009286 259.1122911414328 248.83821908813445 48.52072507872342 241.41984484925263 304.8367693886569 40.79529234150831 233.7529296275033 260.44676180626317 39.6090731821637 228.45351209971986 246.1166138056617 23.962178914818306 255.67543282170442 237.84278243639204 26.134430927757503 153.29514051010065 307.21023867742315 11.55293892312098 241.42268112958106 319.8615329999302 23.97381324906719 153.29914994097092 295.7556753687106 23.0054881263785 153.3006775303345 263.3804634386876 23.002648632530043 82.834985343157 264.27888504201314 -46.54049034908025 82.82912061146426 256.07270883519107 -21.78234735523987 130.28023427714805 262.0696410129304 -43.34071631264637 138.18967330105642 250.42429118775843 -23.380558482494603 82.82472885204012 305.4347450640846 -41.302221034346864 130.2757027037024 301.65582787638937 -43.33722050345795 82.82684714037224 318.4793698143497 -21.776879943352974 138.1795304038923 312.8465484083682 -23.37501918777417 82.82353487353724 300.0990021726708 21.77016915334405 82.82198928769377 314.27228083519833 10.833480873863088 82.82991192214689 264.2706598274159 21.766984801806842 82.83228753787364 256.0688025308654 10.828308414475881 153.30504983667228 253.37397579044136 11.54815113255781 36.357924124214435 291.11428032903575 -28.394371405339736 48.45061512957133 306.54216184396023 -33.595347530618895 40.4863240596867 305.62729251739336 -9.89029418671283 54.58576447846219 316.7416850639157 -10.882897985200506 40.99896292200021 292.24372098639253 11.32354574175114 52.43753319479247 307.76989542908757 13.37873121000653 52.002070192389766 267.51725621921867 19.80125310719895 54.28589775905288 258.083827513224 -9.939980112364193 272.24056173226836 320.22063164874066 -29.88534653726115 273.98180288293787 320.21474900575157 31.823538376233408 308.5476025880614 318.0198276860591 50.639718615122604 276.66148051473874 253.3322025038576 49.81141513785536 309.73346488596155 335.0100362936839 31.66176595685774 309.73444868211647 335.0144539908115 -29.46863368821327 308.5520037917004 318.01889162020757 -44.368711786757885 276.66550026520196 253.33130960836544 -45.81425208886816 277.82336298441754 243.73253982671207 -26.57815349263947 277.8223685907325 243.7285045998899 29.254904510920653 98.74568784616739 1.5031969623763644 65.50378894313293 50.4477729692613 1.4998416016613874 87.19678612017071 85.54188157474118 20.073085474822918 61.144671247330464 50.44715232156507 23.336205273913734 78.30720791968976 5.979416671482865 1.4981034803713555 78.98371687997982 17.416452553722035 20.069390455149986 70.09453042580563 8.685760717893034 1.5001024328031463 11.812259215482559 28.89222655865442 83.99293450091128 22.599744622618157 23.225720651672333 128.79663364968658 28.765536955432097 51.92305753712181 83.99155541620524 31.34306725783268 51.98296207208065 128.79531931957402 40.68101872338636 70.31410146346336 83.9949201977709 22.60173031948005 80.46790802012482 128.79937774642184 28.76828105217052 17.5893260781571 69.31318570672715 0.00151012962211583 19.26988665348104 32.76336435571743 18.33895589764817 144.72109575493928 263.3810319980648 -49.4857350121132 150.82911693106104 253.3769793430411 -24.980049746717672 144.71954047240783 295.7640563655089 -49.48278222816892 150.8224010999592 310.60390170191374 -24.974799870343457 162.2327100255537 250.15325300805154 -25.86850171502595 51.98945479369359 72.64417456455486 -38.60678882659974 84.16051150435676 32.76647510602221 18.34206664795653 51.988234127948814 32.76162573487116 26.73899392360364 85.42955675886449 142.73070152082965 0.000669625332970103 51.98272750982356 142.15786940277434 32.211465495553156 51.98375526216114 152.93225006374098 -0.0019522873788497819 51.98611830362468 142.18358098313135 -38.54661181138733 17.851431914164884 142.72746193617562 -0.0025699593247807684 100.57656153039527 1.5045075273340274 8.144789305799328 49.4196775040947 267.22612505928566 -41.81091777650488 26.52618784757607 272.9742327854349 -9.143015941489839 47.51101354967982 291.070860351978 -41.90111151374403 52.67994560554356 291.6521830965436 24.2427759315959 -47.51985388377368 291.05751484958785 -41.90844010569204 -52.69912537659942 291.6462908106431 24.236440740313178 -26.540017730164255 272.9694889697315 -9.144554134449692 -49.43143346733354 267.22221572112437 -41.81997419128511 324.0396067289795 312.2647372026524 41.8628398090129 332.3425930632279 310.50892353613517 2.936645627836335 324.04334834678417 312.2706798204229 -40.24600748949384 -332.36398226734894 310.4516981013906 2.8909482720355917 -324.05998923632274 312.20771496750336 -40.28571656828248 -324.06378838814595 312.2174563731428 41.8231307364418 51.99014947733783 19.549052405523824 -0.0028509380708934273 83.44846949882997 118.68368786136563 -44.53506221430505 94.15727146997283 118.68420122379776 0.012326199313957176 103.79131686259485 150.38778810058756 -57.40908695344767 117.93700161942074 150.38846622155296 0.013466233498722335 62.35602774027592 118.68267672424405 -71.82513588278411 63.785442962070306 150.38587028449754 -97.84850481600431 0.0050616169489337524 118.67968772102027 -84.26562490030254 0.004931284524111734 150.38281275120062 -113.24999986699824 66.20512964515692 201.06567383854835 -102.87963870950135 108.92973593706617 199.30209698418884 -60.30727801697218 0.0027538342115416997 203.18750020749206 -120.63281235851507 57.12690808522674 150.3855510852381 112.78398872676209 -0.0067724172607039074 150.3828121901443 130.89062485247362 60.304564564324316 192.03414096474253 113.50289115494843 -0.008834515887765857 190.17187463701003 134.11718734876615 97.76997185602377 150.38749944716716 61.910937030235814 100.44746954044436 196.1063778545549 61.87200299011164 120.63004003715247 197.8260953759129 0.013595442366575394 -41.54447452465763 291.9662600764663 58.50085815826852 -42.56727838730211 271.3055929425675 62.91988277855524 -64.19482699710352 289.8888847880972 46.780811881625915 -69.24698777048724 269.6640002319233 52.07781634154335 -37.28438990970849 312.39458341123185 42.45474558695071 -56.58081764550705 303.6958605758507 33.19955436973656 -0.005132995201589894 260.491440656921 76.69287294513144 -0.005846271829234823 242.04105905455657 101.59655915170336 -42.10968246477267 256.3853402359026 62.126174238591524 -53.059490112870385 238.73240446967463 88.2166782940807 -0.008604484543403748 310.5521889703051 52.44662179637857 -0.008974401995267342 295.52190243723715 65.37307657636643 -92.3811503459826 253.10185968743662 0.001728495515091133 -104.74124632006075 231.37825961713474 -0.005762194615426264 -89.50112669703182 260.48952051833714 -47.60431192531149 -96.90220585616662 235.128333255933 -51.723066538312146 -75.21061026385024 292.2326356128398 -40.708686933085545 -47.01473446693081 294.56592554655407 -69.62991415835828 -55.40938536604081 260.4870047866618 -85.04141892049017 -59.652826111464385 236.43521905830272 -91.66115569708468 -0.010614390337645517 292.75224550382643 -80.14511921500328 -0.005073164215827083 260.49441183754186 -97.34002905888055 -67.98301960676109 250.96793584999813 52.727854332160554 -81.1281700410814 269.64615402504086 23.470065424871294 -80.87523497349267 252.56708408723563 31.96924678854084 -25.015201374759425 342.0190574945651 -25.1377384665212 -35.91988793551815 328.6459619445858 -48.57817227158557 -0.01348957092384911 345.44600715864294 -30.132958401041805 -0.0111587375157832 325.0152671215314 -57.869031503099976 -73.8999877248616 289.4358535106728 20.70284830476072 0.0005931686081878072 234.68388897009555 -107.47650234008685 -0.005398649012329793 221.29139431412472 121.25716353253232 -59.601482421115016 221.0740795480259 102.04475374041691 -90.29187140726347 234.29907271757867 52.146079608430995 -97.54974590170164 215.22709322931385 58.75417787249321 -66.20112005056207 201.05932649973718 -102.88598604831982 -63.777056744780026 150.3797551471298 -97.8546199533791 -108.92963856227412 199.29165316249373 -60.31772183867926 -103.78680766037263 150.37783714518204 -57.419037908864624 -100.45877999785566 196.09674673791176 61.86237187345742 -97.77690269459256 150.3781252501856 61.901562833243474 -120.63558403387978 197.81452949693826 -0.005782936630335467 -117.93799746399964 150.3771587603137 -0.005653727762482408 -60.32043515846898 192.0283583997647 113.49710858996394 -57.13871665218097 150.38007337828435 112.77851101980204 -41.652098696723996 118.6776907449634 97.69331583271929 -78.04064278854746 118.6759463377415 54.28532137561971 -51.98264617155034 71.85855538737668 32.07538350083081 -51.98149798615988 55.898899709350815 24.104614205736404 -74.36505387845149 71.85986742884167 23.628965830018053 -79.90309023085416 55.89904809081402 18.20481767562898 -81.03582712029254 72.51157124237201 -0.005865273674117599 -88.5428423601861 55.90185869614669 -0.006594063425133356 -80.46671160534287 128.7930934711581 -31.31810826096597 -78.15959093946181 72.54369418119592 -25.8038707914738 -51.981490393292745 128.79732049681982 -48.97305473784817 -51.917379061018224 89.10922021149118 -42.89753617472935 -81.22558585962177 1.49577857578916 -44.800476084295475 -50.435624586080635 1.497254596117756 -63.54900008550973 -79.17281440077197 33.38650201893542 -36.72225259522325 -50.43755597776585 35.46600454256156 -57.22868759277205 -92.71404645508008 32.948352873940166 8.972410811783927 -50.44095997602261 36.575379380654184 12.669749826911621 -3.0631216095072875 23.624525581766292 -33.58579154000961 2.664506756862615 3.78105013209057 -35.97614201523329 6.9358611753821995 26.023442419384764 -14.764999678009307 12.343218988555536 3.7815141137072317 -15.631928010240244 -18.780251032019088 1.4987721028940655 -45.266232557725715 -22.141716586328396 34.87361099808875 -35.03201861242219 -20.143921006563005 32.38151926627404 13.444639708601263 1.8960919706340145 22.62476331719617 3.3753837367412194 6.3577755011500034 3.7812271813468783 6.656847583010179 53.04442555766833 238.7364814025426 88.22553170183032 42.09367640224507 256.3889711545908 62.131724483469355 59.655437028315085 236.44060446405308 -91.65418981030004 96.89746295107615 235.1385780320893 -51.71733716595993 55.40577417527009 260.49398830345564 -85.0423427027303 89.50027301143177 260.4987511622466 -47.59815488110092 59.581792573549585 221.07901224464342 102.05338054116335 97.53137417229239 215.23591189200255 58.765519378856645 90.27220289445984 234.30789584356944 52.15411173023869 -0.004140301542359698 118.67968727989538 107.687499879135 -62.4515971956944 203.79388124886538 -95.66705628775485 0.002249732368111199 206.00000018655794 -112.92968736736628 -101.64092288311642 201.26856507386015 -55.059559918999824 -112.61228025540767 200.60397662418896 -0.005398306174437373 -94.15522772275028 118.67517383092543 -0.004513693577717248 -83.44215511764094 118.67568739808476 -44.54306267759511 -62.347096973145504 118.67669866063159 -71.83111394640343 101.64032664972567 201.27831004411428 -55.04981494873452 112.60646885250169 200.6147732422527 0.0132108119106773 62.454652517260236 203.7998690499577 -95.66106848665562 41.64477611185258 118.68168386075315 97.69730894851364 78.03748185277149 118.68342846747771 54.29280350536454 -34.71648487814944 345.3097953605191 20.064485121953712 -45.25009437871348 329.7797158417118 15.141151126507847 -21.391563013326742 344.1408079533875 -1.1691590651588708 -30.135644865360447 327.1874114540905 -4.694306352006251 -57.80653757033628 303.27843904934105 50.2089060142517 -42.54313489334751 276.24759370295874 50.20858431247318 -49.14942929806292 303.28072544986367 19.638051001468153 -38.28355815645641 277.7954611481534 33.681812556916455 -46.05015456144235 302.865756666573 79.89124151803745 -35.86452193872916 276.24666519574714 73.59846975326246 -0.01106200713361269 306.94346840517994 123.00996267125974 -0.009295646738910642 291.5926909702699 110.72724454096134 -21.08763649893892 304.1256526384539 113.10157643550201 -23.294154705261914 292.83754429786757 96.26195641201535 -32.11094523249603 303.28157598133475 -3.4575740062400193 -26.650860792838696 281.838716440657 18.22909897181578 -0.013609499114016682 303.28124275908453 -12.236404363297277 -0.009488756342765576 281.841824346672 12.804310829132644 -10.210400338132327 128.7963922444569 -0.0021427913576110846 -13.755059952516229 82.57734321920367 0.0035262599373986347 -23.227403982562027 128.78935020106215 28.76296360210813 -28.889023225277477 83.9923100252278 22.593091953191546 -51.98578748474683 128.78642095127375 40.6756883686056 -51.92069218114471 83.98956095499449 31.33420662547545 -80.46959135101453 128.78660610432686 28.760219505369708 -70.31089813008643 83.99032432836819 22.591106256329653 -92.38227514929423 128.792453059325 -0.006081976494053176 -80.90354847916983 83.64443340636785 -0.002360792931454192 -26.450991488562153 71.86216435053915 23.631262751718168 35.907277516752764 328.649261461037 -48.57419256003317 25.00514838282665 342.0222505286862 -25.13830760331197 41.52596409104072 291.9698325733576 58.506369434512116 37.26180566435057 312.3976187145237 42.46032792336663 47.00983463350887 294.5707462613756 -69.62657595459338 75.20218335325951 292.2394437049195 -40.69997466256219 104.73193138108917 231.38662110738852 0.010549610265589315 92.37077996884437 253.11169367785936 0.006938504548132496 64.55856408160025 325.01617881135513 -22.987165216703307 50.56913913172518 336.26352715358837 -11.491072229476586 74.54076941881644 323.9171972024738 0.0150794643040566 53.78159696530003 334.97732268231573 0.00918142987754722 82.8952341318165 297.88700258508317 0.008018119486356667 11.238619534224165 354.4150688433594 1.7883951661990087 -0.0124638178133879 354.41095079344956 1.7861205254243622 11.240029037853185 368.5847372769564 33.97905090293186 -0.018829589366949645 368.5830308885505 33.98021536766866 11.252381272422246 360.21247583629054 -4.415324299918155 -0.01439292233501078 360.21074133693577 -4.421867838349467 -11.262064698447727 368.5813810887863 33.98117221816023 -11.26357801054419 354.41171283856124 1.7827046711366585 -11.273251549555146 360.20903494853 -4.420703373612654 73.88762447240417 289.44124322040193 20.716257765655826 64.55048224912883 318.3865191182564 15.179894231471357 81.11377866968168 269.65535717162095 23.472523725889783 69.2271785328857 269.67003927637126 52.08669038058151 64.16898639416138 289.89470927390187 46.78819332460712 56.562784064108044 303.701165163445 33.205423568490644 42.54245971801434 271.30846174774933 62.928482398623146 67.9675181446737 250.97292433826578 52.74007606897649 80.86676115681101 252.57447639728431 31.978348745406628 -17.582548721346576 69.31147856216737 -0.0026511852402517633 -44.283267816901834 326.29418325683594 79.89175148656183 -31.6298344892272 312.21449031298107 85.74724316204652 -30.958391258925644 300.0839743008567 86.51935481257968 -0.007529286344209036 276.24191353536 98.44452641066293 -26.651594842370717 276.24015737467164 84.85204647776901 -18.30729451305471 332.25448609306886 93.63388675304348 -18.617614789146327 325.39263321080864 111.92071348206383 -23.738573420881256 326.180468759003 88.3695099629965 -0.013394884871112378 337.31976275455077 107.59528329859776 -0.015180234623334036 330.6937994007402 120.35409038250253 -18.644799999758224 348.01092271544246 97.22499571355355 -21.389323936952646 337.251303634249 91.78416815415629 -29.545250514875267 353.32484489151676 72.14118303091804 -37.04852396817029 342.9302994416354 73.81891179362366 -0.009481835987125596 348.0153928123435 104.33738223094616 -0.014580734213450321 337.73432710540567 100.56343799514663 -0.009067998404890152 327.3207013996491 -15.337736758224846 -54.86501236923308 330.2892675422932 50.209517086889676 -0.012443025264312497 324.92828635218905 118.40062122838775 -19.558457691597162 320.63934758365303 109.7922904466065 -26.295828972777727 363.72106171872593 50.21350207375014 -40.148289130710445 346.33485013299685 50.20965799265039 -22.29924858583319 361.25255795367923 30.43984396312819 -15.902734343149596 363.7176045872004 78.54665524542992 -22.0418732531128 363.7193901580263 70.47126607850312 -0.008878296318280621 363.72008123440014 83.96875712655417 -15.381820120523901 359.55983173695 16.65917241717201 -0.015240026591543231 358.3425271886788 9.704346669135521 -0.01449620847943647 345.2032076311316 -9.696121842535254 -0.01872250387174316 378.81794660755105 27.37049565010585 9.021153024303525 378.81943059109744 27.36756572634328 -0.013965741955366907 388.24746145077916 30.886589181 7.344420024244726 386.64102921497056 34.43752803034081 11.247894339670468 373.7022234307774 30.674087237027834 11.244048458245782 380.38901218794047 41.026771752545365 9.02409419920862 368.742399104173 11.31899830928299 -0.01578132896665036 368.7409151206266 11.321928233045567 -25.570443691911112 359.7165237762065 40.796688193100955 -28.8768703996084 342.5326117111547 40.12140933518985 -28.88088874435781 356.30549903533205 48.86474538658577 -29.864669699022418 341.0049615828027 48.861832974971875 -39.553968019717225 346.25224162033965 33.762807047725694 -34.14722075496864 362.8498981113581 35.93373370979181 -37.818821344837424 361.3441370886759 39.685940955964924 -40.499097702054044 348.88121739487246 39.79158438661388 -4.700076581652325 392.87037457708936 41.692105751272976 -7.367915541350756 386.64244273452346 34.43770550015819 -0.017013095555969963 406.06759056636105 34.926467091202476 -11.273772983221072 382.29157233971705 45.06856591787203 -11.273697085580869 380.39341185989014 41.02910124133376 -17.16420656795578 393.910965827299 44.76426832036411 -11.2698229147698 373.69881065396584 30.67641616650145 -11.263547904579232 371.52539525182965 52.311004235579446 -0.012472747042393172 371.51926089715334 52.309943018650465 -9.042974513907653 378.8165192126463 27.373217959623197 -9.040137147470007 368.73948790909367 11.316838732272172 -0.01491435600093875 382.2932787281228 45.06740145313522 -0.011840634048046288 368.42156795640926 -1.991806998096088 -9.043904403153636 368.42011226718364 -1.9889808814561247 -7.957186702377415 368.1246889556885 32.671507365063064 -0.016599567781504312 368.3333248415612 29.964200330298674 -14.79908771169803 367.29497137557644 36.16114511425682 -18.057573228846994 369.3368671129315 50.213543199285375 -15.540403466939958 369.4468203312799 60.33724267593808 -7.951422331843838 370.68495672177914 64.37741495049696 -0.008334139036104266 370.68227458215205 67.09242342010836 -0.011492531932118273 311.07656487225944 119.40037173747726 -20.616276967832498 307.75263539483564 109.5794624423908 -40.76600872506436 335.6978365044436 76.67307752848629 35.8376930349571 276.2484888138979 73.60666599740583 26.63472752864755 276.2456091854401 84.85494321444324 46.028912158336105 302.87105359988396 79.89430530245528 30.93815989143558 300.08935390752737 86.5250310172351 32.0983301257462 303.28751752471453 -3.4513780280302155 49.12558912527163 303.2850204161973 19.644723972906775 30.120125454965947 327.1868498035081 -4.690266082474074 45.227250306378544 329.7792129893737 15.142059940189357 57.790387471122564 303.28295761702134 50.21197661876802 54.840723380854556 330.2958913720903 50.21274183689398 44.2563926147348 326.3022888605767 79.89497015440901 19.531237310278236 320.64026770701423 109.79632463398153 18.589106562147833 325.3945474017331 111.9263303144314 34.69644116486484 345.31114192492316 20.071850171174823 40.12499201850293 346.3364602588176 50.21334093009728 22.275320427322697 361.2499016936137 30.441310165100404 26.27160394689523 363.7239108187241 50.210325445123395 29.515084761469037 353.32776702535637 72.14548272894345 18.616603665023682 348.0130349666125 97.22988589606285 22.016987563590483 363.72267910492087 70.4717722995919 15.873719791270766 363.71548095640765 78.5463010437365 21.37030989148862 344.14721285853375 -1.1670439229828475 15.355434151307946 359.5617577769955 16.65700150151956 18.282194063267394 332.2541652160217 93.63989253780682 21.364737208793038 337.25768024507454 91.78638710345494 38.270646246012554 277.7992291750255 33.68803794161279 42.52745337116081 276.2509501772553 50.21102304033135 23.265016345462104 292.8420740617987 96.26830284600652 21.06484367936046 304.12203832118814 113.1039761636364 26.635461578179576 281.84416825142546 18.23199570848999 29.84417367795903 341.0024195131358 48.86532793279629 28.85525821795567 342.5307241772015 40.1277326234782 28.851136064738814 356.30361168475065 48.863256864583384 25.551577893550046 359.7219512423611 40.79709282089111 34.117169087868 362.8470857773478 35.94073478545573 39.531718133970124 346.24955137614205 33.76664504722845 37.79783987141628 361.3523224291848 39.696811944399 40.47744938036527 348.88537364282183 39.80154830360696 4.675808394986565 392.87307503305846 41.69252393152873 17.13588926922691 393.91016807987694 44.76163109991448 11.243972560605577 382.2871726677674 45.066236429083624 11.238574121108062 371.5209389912384 52.308882361036275 -17.4116723184739 20.067707197592412 70.09381079053367 -50.443472398813526 23.33135508828282 78.30332135634083 -85.53624298434046 20.064870615373295 61.137420010158955 -64.5747071298312 325.00458049854274 -23.002925691190924 -50.58896470973501 336.25916137955073 -11.497726039481162 -53.79895635562393 334.97194237753547 0.00485656688866376 -74.56314863817737 323.90487738557727 -0.001088928152578994 -82.90962986647601 297.87905211973526 0.00007736143339087675 -64.57498219012687 318.37860846729507 15.164665438350792 9.020223135057543 368.4230236456348 -1.9946331147360432 7.927224149072181 368.1275190341405 32.67919425772578 14.774110650284271 367.29268174519416 36.166629649583136 18.031726860694416 369.34254821485797 50.21056957862935 15.509453265532855 369.4420655120244 60.33873072635703 7.925072952068637 370.6877586892822 64.37739383999156 20.590848265181954 307.7534100968858 109.58661158138557 23.711345780721 326.188223708762 88.37964600559116 40.741737974093105 335.70391676620756 76.67598256114162 37.02099371841727 342.93288324011263 73.8190893511724 31.60265955990288 312.21689561637595 85.74297959971089 -23.224524236890353 128.79583756789336 -31.315364164227553 -26.948537348856973 70.1710248936307 -25.850410490726684 -11.917842536276975 55.905531973174064 -0.0029207863935467593 -22.989027861647596 55.90177645777409 18.207546042592185 -95.77610805412624 32.76082231122726 -0.006162079949187493 -80.31476768923373 55.90476270795139 -31.55317129651975 -84.14941171955188 32.753450948281426 -35.36311616504268 -51.97929417223955 72.63925710456927 -38.60756609705493 -51.97789320756396 55.90614378246826 -51.09874410055601 -23.30695532024262 55.90749556913296 -31.55043843533506 -84.15198731370886 32.75847311202385 18.338204843485002 -51.98051446256925 32.756689548998594 26.730404175599663 -19.261362462833137 32.76158386232865 18.34131559379336 -6.221420759930677 32.76511541630116 -0.0018689748703666353 -19.25878686867616 32.75656169858621 -35.360005414734324 -8.673612287098974 1.4992565986071327 11.81237700357311 -5.973708253281804 1.4975168128562188 78.98409383475156 -50.44285175111729 1.4949914160305013 87.19289955682176 -98.7386866522304 1.493716230541736 65.49527183357492 -51.97633234212756 32.75499327302724 -60.486573869164815 -0.011957274664296415 350.9411193449282 -1.4733875659020201 -43.93222549383184 356.86949897407163 30.563137301342355 -43.71440021215734 350.34672935571507 31.65393615038373 -41.452843892211746 361.5033608692196 32.608606902282304 43.90427281306629 356.875058272312 30.567886799934037 43.69245134590848 350.35073246631123 31.664395040719185 41.43011211799786 361.50660793256804 32.61667675291499 -24.2508474038489 382.33790640300003 51.01496213639203 24.230252284337304 382.3415837543438 51.01139507948684 -0.015750964611571185 373.3709735745158 50.21609518984551 0.0019948787932491867 98.38273849739967 0.003850362702055854 -85.42981776680877 142.72250848481343 -0.009222569517543189 -51.98263157657323 142.1749184181916 -38.54543242391086 -17.85169292210917 142.72574806946747 -0.005982984859792317 -51.98602232024243 142.15597141575208 32.204834547222276 -51.98499474578111 152.92728298512307 -0.0018036242585877105 -100.5640610522515 1.4948515209528352 8.136096921694627 -51.97859948859531 19.544134945538246 -0.0036282085260852526 -0.0017002039635623887 265.9151602376413 50.20710943572064</float_array>
                    <technique_common>
                        <accessor count="536" source="#pointarray0" stride="3">
                            <param name="X" type="float"/>
                            <param name="Y" type="float"/>
                            <param name="Z" type="float"/>
                        </accessor>
                    </technique_common>
                </source>
                <source id="uvs0">
                    <float_array id="uvarray0" count="2">0 1</float_array>
                    <technique_common>
                        <accessor count="1" source="#uvarray0" stride="2">
                            <param name="S" type="float"/>
                            <param name="T" type="float"/>
                        </accessor>
                    </technique_common>
                </source>
                <vertices id="vertices0">
                    <input semantic="POSITION" source="#points0"/>
                </vertices>
                <polylist count="1036" material="Material1">
                    <input offset="0" semantic="VERTEX" source="#vertices0"/>
                    <input offset="1" semantic="TEXCOORD" source="#uvs0" set="0"/>
                    <vcount>3 3 3 3 3 3 3 3 3 3 3 3 3 3 3 3 3 3 3 3 3 3 3 3 3 3 3 3 3 3 3 3 3 3 3 3 3 3 3 3 3 3 3 3 3 3 3 3 3 3 3 3 3 3 3 3 3 3 3 3 3 3 3 3 3 3 3 3 3 3 3 3 3 3 3 3 3 3 3 3 3 3 3 3 3 3 3 3 3 3 3 3 3 3 3 3 3 3 3 3 3 3 3 3 3 3 3 3 3 3 3 3 3 3 3 3 3 3 3 3 3 3 3 3 3 3 3 3 3 3 3 3 3 3 3 3 3 3 3 3 3 3 3 3 3 3 3 3 3 3 3 3 3 3 3 3 3 3 3 3 3 3 3 3 3 3 3 3 3 3 3 3 3 3 3 3 3 3 3 3 3 3 3 3 3 3 3 3 3 3 3 3 3 3 3 3 3 3 3 3 3 3 3 3 3 3 3 3 3 3 3 3 3 3 3 3 3 3 3 3 3 3 3 3 3 3 3 3 3 3 3 3 3 3 3 3 3 3 3 3 3 3 3 3 3 3 3 3 3 3 3 3 3 3 3 3 3 3 3 3 3 3 3 3 3 3 3 3 3 3 3 3 3 3 3 3 3 3 3 3 3 3 3 3 3 3 3 3 3 3 3 3 3 3 3 3 3 3 3 3 3 3 3 3 3 3 3 3 3 3 3 3 3 3 3 3 3 3 3 3 3 3 3 3 3 3 3 3 3 3 3 3 3 3 3 3 3 3 3 3 3 3 3 3 3 3 3 3 3 3 3 3 3 3 3 3 3 3 3 3 3 3 3 3 3 3 3 3 3 3 3 3 3 3 3 3 3 3 3 3 3 3 3 3 3 3 3 3 3 3 3 3 3 3 3 3 3 3 3 3 3 3 3 3 3 3 3 3 3 3 3 3 3 3 3 3 3 3 3 3 3 3 3 3 3 3 3 3 3 3 3 3 3 3 3 3 3 3 3 3 3 3 3 3 3 3 3 3 3 3 3 3 3 3 3 3 3 3 3 3 3 3 3 3 3 3 3 3 3 3 3 3 3 3 3 3 3 3 3 3 3 3 3 3 3 3 3 3 3 3 3 3 3 3 3 3 3 3 3 3 3 3 3 3 3 3 3 3 3 3 3 3 3 3 3 3 3 3 3 3 3 3 3 3 3 3 3 3 3 3 3 3 3 3 3 3 3 3 3 3 3 3 3 3 3 3 3 3 3 3 3 3 3 3 3 3 3 3 3 3 3 3 3 3 3 3 3 3 3 3 3 3 3 3 3 3 3 3 3 3 3 3 3 3 3 3 3 3 3 3 3 3 3 3 3 3 3 3 3 3 3 3 3 3 3 3 3 3 3 3 3 3 3 3 3 3 3 3 3 3 3 3 3 3 3 3 3 3 3 3 3 3 3 3 3 3 3 3 3 3 3 3 3 3 3 3 3 3 3 3 3 3 3 3 3 3 3 3 3 3 3 3 3 3 3 3 3 3 3 3 3 3 3 3 3 3 3 3 3 3 3 3 3 3 3 3 3 3 3 3 3 3 3 3 3 3 3 3 3 3 3 3 3 3 3 3 3 3 3 3 3 3 3 3 3 3 3 3 3 3 3 3 3 3 3 3 3 3 3 3 3 3 3 3 3 3 3 3 3 3 3 3 3 3 3 3 3 3 3 3 3 3 3 3 3 3 3 3 3 3 3 3 3 3 3 3 3 3 3 3 3 3 3 3 3 3 3 3 3 3 3 3 3 3 3 3 3 3 3 3 3 3 3 3 3 3 3 3 3 3 3 3 3 3 3 3 3 3 3 3 3 3 3 3 3 3 3 3 3 3 3 3 3 3 3 3 3 3 3 3 3 3 3 3 3 3 3 3 3 3 3 3 3 3 3 3 3 3 3 3 3 3 3 3 3 3 3 3 3 3 3 3 3 3 3 3 3 3 3 3 3 3 3 3 3 3 3 3 3 3 3 3 3 3 3 3 3 3 3 3 3 3 3 3 3 3 3 3 3 3 3 3 3 3 3 3 3 3 3 3 3 3 3 3 3 3 3 3 3 3 3 3 3 3 3 3 3 3 3 3 3 3 3 3 3 3 3 3 3 3 3 3 3 3 3 3 3 3 3 3 3 3 3 3 3 3 3 3 3 3 3 3 3 3 3 3 3 3 3 3 3 3 3 3 3 3 3 3 3 3 3 3 3 3 3 3 3 3 3 3 3 3 3 3 3 3 3 3 3 3 3 3 3 3 3 3 3 3 3 3 3 3 3 3 3 3 3 3 3 3 3 3 3 3 3 3 3 3 3 3 3 3 3 3 3 3</vcount>
                    <p>2 0 1 0 0 0 3 0 1 0 2 0 6 0 5 0 4 0 7 0 5 0 6 0 10 0 9 0 8 0 11 0 9 0 10 0 11 0 12 0 9 0 13 0 12 0 11 0 7 0 15 0 14 0 16 0 15 0 7 0 0 0 18 0 17 0 19 0 18 0 0 0 22 0 21 0 20 0 23 0 21 0 22 0 21 0 24 0 20 0 25 0 24 0 21 0 26 0 7 0 14 0 5 0 7 0 26 0 28 0 26 0 27 0 5 0 26 0 28 0 15 0 30 0 29 0 16 0 30 0 15 0 33 0 32 0 31 0 34 0 32 0 33 0 36 0 31 0 35 0 33 0 31 0 36 0 38 0 35 0 37 0 36 0 35 0 38 0 41 0 40 0 39 0 42 0 40 0 41 0 44 0 39 0 43 0 41 0 39 0 44 0 46 0 43 0 45 0 44 0 43 0 46 0 42 0 47 0 40 0 48 0 47 0 42 0 51 0 50 0 49 0 52 0 50 0 51 0 52 0 53 0 50 0 54 0 53 0 52 0 57 0 56 0 55 0 58 0 56 0 57 0 52 0 53 0 50 0 54 0 53 0 52 0 60 0 55 0 59 0 61 0 55 0 60 0 61 0 57 0 55 0 62 0 57 0 61 0 51 0 50 0 49 0 52 0 50 0 51 0 55 0 63 0 59 0 56 0 63 0 55 0 66 0 65 0 64 0 67 0 65 0 66 0 69 0 64 0 68 0 66 0 64 0 69 0 71 0 68 0 70 0 69 0 68 0 71 0 67 0 72 0 65 0 37 0 72 0 67 0 23 0 73 0 21 0 74 0 73 0 23 0 73 0 25 0 21 0 75 0 25 0 73 0 25 0 28 0 27 0 75 0 28 0 25 0 30 0 23 0 29 0 74 0 23 0 30 0 24 0 27 0 76 0 25 0 27 0 24 0 14 0 78 0 77 0 15 0 78 0 14 0 78 0 29 0 79 0 15 0 29 0 78 0 19 0 14 0 77 0 26 0 14 0 19 0 1 0 19 0 0 0 26 0 19 0 1 0 29 0 80 0 79 0 81 0 80 0 29 0 84 0 83 0 82 0 85 0 83 0 84 0 85 0 87 0 86 0 84 0 87 0 85 0 88 0 86 0 87 0 18 0 86 0 88 0 17 0 88 0 89 0 18 0 88 0 17 0 90 0 17 0 89 0 91 0 17 0 90 0 93 0 90 0 92 0 91 0 90 0 93 0 94 0 93 0 92 0 95 0 93 0 94 0 83 0 94 0 82 0 95 0 94 0 83 0 97 0 2 0 96 0 3 0 2 0 97 0 80 0 97 0 96 0 81 0 97 0 80 0 91 0 0 0 17 0 2 0 0 0 91 0 96 0 91 0 93 0 2 0 91 0 96 0 95 0 96 0 93 0 80 0 96 0 95 0 79 0 95 0 83 0 80 0 95 0 79 0 85 0 79 0 83 0 78 0 79 0 85 0 78 0 86 0 77 0 85 0 86 0 78 0 18 0 77 0 86 0 19 0 77 0 18 0 3 0 76 0 1 0 24 0 76 0 3 0 20 0 3 0 97 0 24 0 3 0 20 0 81 0 20 0 97 0 22 0 20 0 81 0 100 0 99 0 98 0 101 0 99 0 100 0 103 0 100 0 102 0 101 0 100 0 103 0 105 0 104 0 99 0 106 0 104 0 105 0 101 0 105 0 99 0 107 0 105 0 101 0 110 0 109 0 108 0 111 0 109 0 110 0 113 0 111 0 112 0 109 0 111 0 113 0 104 0 113 0 112 0 106 0 113 0 104 0 114 0 103 0 102 0 115 0 103 0 114 0 110 0 114 0 116 0 115 0 114 0 110 0 117 0 110 0 116 0 111 0 110 0 117 0 120 0 119 0 118 0 121 0 119 0 120 0 122 0 120 0 118 0 123 0 120 0 122 0 125 0 122 0 124 0 123 0 122 0 125 0 116 0 127 0 126 0 114 0 127 0 116 0 128 0 116 0 126 0 117 0 116 0 128 0 130 0 128 0 129 0 117 0 128 0 130 0 119 0 130 0 129 0 121 0 130 0 119 0 133 0 132 0 131 0 134 0 132 0 133 0 135 0 134 0 133 0 136 0 134 0 135 0 137 0 129 0 128 0 138 0 129 0 137 0 139 0 101 0 103 0 107 0 101 0 139 0 115 0 139 0 103 0 140 0 139 0 115 0 108 0 115 0 110 0 140 0 115 0 108 0 108 0 142 0 141 0 109 0 142 0 108 0 141 0 140 0 108 0 143 0 140 0 141 0 140 0 144 0 139 0 143 0 144 0 140 0 144 0 107 0 139 0 145 0 107 0 144 0 107 0 146 0 105 0 145 0 146 0 107 0 146 0 106 0 105 0 147 0 106 0 146 0 106 0 148 0 113 0 147 0 148 0 106 0 127 0 125 0 124 0 114 0 125 0 127 0 151 0 150 0 149 0 152 0 150 0 151 0 152 0 153 0 150 0 154 0 153 0 152 0 154 0 155 0 153 0 63 0 155 0 154 0 59 0 154 0 152 0 63 0 154 0 59 0 152 0 60 0 59 0 151 0 60 0 152 0 157 0 45 0 156 0 46 0 45 0 157 0 159 0 156 0 158 0 157 0 156 0 159 0 161 0 158 0 160 0 159 0 158 0 161 0 48 0 160 0 47 0 161 0 160 0 48 0 160 0 33 0 36 0 158 0 33 0 160 0 47 0 36 0 38 0 160 0 36 0 47 0 156 0 162 0 34 0 45 0 162 0 156 0 158 0 34 0 33 0 156 0 34 0 158 0 32 0 70 0 163 0 71 0 70 0 32 0 164 0 121 0 120 0 165 0 121 0 164 0 123 0 164 0 120 0 166 0 164 0 123 0 167 0 123 0 125 0 166 0 123 0 167 0 168 0 112 0 130 0 104 0 112 0 168 0 112 0 117 0 130 0 111 0 117 0 112 0 99 0 168 0 98 0 104 0 168 0 99 0 102 0 166 0 167 0 100 0 166 0 102 0 166 0 98 0 164 0 100 0 98 0 166 0 98 0 165 0 164 0 168 0 165 0 98 0 148 0 109 0 113 0 142 0 109 0 148 0 34 0 71 0 32 0 162 0 71 0 34 0 43 0 66 0 69 0 169 0 66 0 43 0 169 0 67 0 66 0 40 0 67 0 169 0 37 0 170 0 72 0 35 0 170 0 37 0 35 0 171 0 170 0 31 0 171 0 35 0 31 0 163 0 171 0 32 0 163 0 31 0 174 0 173 0 172 0 174 0 172 0 175 0 174 0 175 0 176 0 149 0 177 0 60 0 155 0 150 0 153 0 138 0 179 0 178 0 138 0 137 0 179 0 178 0 179 0 131 0 179 0 135 0 133 0 180 0 118 0 178 0 180 0 178 0 131 0 133 0 131 0 179 0 137 0 181 0 135 0 30 0 8 0 9 0 12 0 182 0 73 0 30 0 16 0 8 0 12 0 74 0 9 0 182 0 75 0 73 0 16 0 7 0 183 0 184 0 11 0 10 0 13 0 185 0 182 0 4 0 184 0 6 0 4 0 185 0 184 0 185 0 4 0 75 0 12 0 13 0 182 0 182 0 185 0 75 0 6 0 183 0 7 0 28 0 75 0 4 0 5 0 28 0 4 0 183 0 6 0 10 0 10 0 6 0 184 0 11 0 184 0 13 0 184 0 185 0 13 0 187 0 186 0 148 0 187 0 188 0 144 0 186 0 142 0 148 0 179 0 137 0 135 0 129 0 138 0 119 0 119 0 138 0 118 0 137 0 128 0 181 0 132 0 180 0 131 0 178 0 118 0 138 0 124 0 132 0 134 0 127 0 124 0 134 0 126 0 136 0 181 0 136 0 135 0 181 0 126 0 181 0 128 0 180 0 122 0 118 0 124 0 122 0 132 0 127 0 134 0 136 0 132 0 122 0 180 0 127 0 136 0 126 0 189 0 89 0 88 0 189 0 190 0 89 0 191 0 84 0 82 0 186 0 143 0 141 0 189 0 94 0 190 0 191 0 88 0 87 0 191 0 87 0 84 0 190 0 94 0 92 0 64 0 65 0 192 0 68 0 64 0 192 0 70 0 68 0 192 0 65 0 72 0 192 0 190 0 90 0 89 0 189 0 191 0 82 0 189 0 82 0 94 0 190 0 92 0 90 0 175 0 44 0 176 0 157 0 176 0 46 0 38 0 40 0 47 0 72 0 170 0 192 0 170 0 171 0 192 0 171 0 163 0 192 0 163 0 70 0 192 0 173 0 161 0 172 0 26 0 76 0 27 0 26 0 1 0 76 0 81 0 29 0 22 0 22 0 29 0 23 0 172 0 42 0 175 0 189 0 88 0 191 0 155 0 57 0 150 0 177 0 62 0 61 0 58 0 155 0 50 0 58 0 50 0 53 0 52 0 56 0 54 0 63 0 52 0 51 0 56 0 58 0 54 0 155 0 63 0 49 0 54 0 58 0 53 0 63 0 56 0 52 0 49 0 63 0 51 0 50 0 155 0 49 0 58 0 57 0 155 0 177 0 57 0 62 0 177 0 61 0 60 0 149 0 60 0 151 0 150 0 177 0 149 0 150 0 57 0 177 0 186 0 141 0 142 0 188 0 145 0 144 0 188 0 147 0 146 0 187 0 147 0 188 0 187 0 148 0 147 0 188 0 146 0 145 0 187 0 144 0 143 0 187 0 143 0 186 0 8 0 183 0 10 0 16 0 183 0 8 0 30 0 9 0 74 0 12 0 73 0 74 0 130 0 121 0 165 0 130 0 165 0 168 0 102 0 167 0 114 0 167 0 125 0 114 0 174 0 176 0 173 0 175 0 42 0 41 0 172 0 48 0 42 0 37 0 40 0 38 0 69 0 71 0 43 0 43 0 71 0 162 0 37 0 67 0 40 0 43 0 162 0 45 0 169 0 43 0 39 0 40 0 169 0 39 0 175 0 41 0 44 0 176 0 44 0 46 0 173 0 176 0 157 0 173 0 157 0 159 0 173 0 159 0 161 0 172 0 161 0 48 0 195 0 194 0 193 0 196 0 194 0 195 0 198 0 193 0 197 0 195 0 193 0 198 0 200 0 197 0 199 0 198 0 197 0 200 0 201 0 195 0 198 0 202 0 195 0 201 0 203 0 198 0 200 0 201 0 198 0 203 0 206 0 205 0 204 0 207 0 205 0 206 0 209 0 204 0 208 0 206 0 204 0 209 0 210 0 208 0 196 0 209 0 208 0 210 0 213 0 212 0 211 0 214 0 212 0 213 0 216 0 211 0 215 0 213 0 211 0 216 0 219 0 218 0 217 0 220 0 218 0 219 0 215 0 222 0 221 0 211 0 222 0 215 0 225 0 224 0 223 0 226 0 224 0 225 0 228 0 225 0 227 0 229 0 225 0 228 0 229 0 226 0 225 0 230 0 226 0 229 0 231 0 229 0 228 0 232 0 229 0 231 0 214 0 219 0 212 0 233 0 219 0 214 0 234 0 233 0 214 0 235 0 233 0 234 0 238 0 237 0 236 0 239 0 237 0 238 0 240 0 214 0 213 0 234 0 214 0 240 0 230 0 232 0 241 0 229 0 232 0 230 0 220 0 242 0 218 0 243 0 242 0 220 0 244 0 243 0 220 0 245 0 243 0 244 0 203 0 247 0 246 0 200 0 247 0 203 0 246 0 249 0 248 0 247 0 249 0 246 0 252 0 251 0 250 0 253 0 251 0 252 0 250 0 255 0 254 0 251 0 255 0 250 0 251 0 256 0 255 0 257 0 256 0 251 0 260 0 259 0 258 0 261 0 259 0 260 0 262 0 261 0 260 0 263 0 261 0 262 0 266 0 265 0 264 0 267 0 265 0 266 0 270 0 269 0 268 0 271 0 269 0 270 0 272 0 271 0 270 0 273 0 271 0 272 0 276 0 275 0 274 0 277 0 275 0 276 0 269 0 279 0 278 0 271 0 279 0 269 0 271 0 280 0 279 0 273 0 280 0 271 0 281 0 277 0 276 0 282 0 277 0 281 0 276 0 275 0 274 0 277 0 275 0 276 0 284 0 218 0 283 0 217 0 218 0 284 0 287 0 286 0 285 0 288 0 286 0 287 0 285 0 232 0 287 0 241 0 232 0 285 0 283 0 242 0 289 0 218 0 242 0 283 0 291 0 289 0 290 0 283 0 289 0 291 0 255 0 292 0 205 0 256 0 292 0 255 0 294 0 246 0 293 0 203 0 246 0 294 0 293 0 248 0 295 0 246 0 248 0 293 0 295 0 252 0 296 0 248 0 252 0 295 0 253 0 257 0 251 0 297 0 257 0 253 0 249 0 297 0 253 0 298 0 297 0 249 0 247 0 298 0 249 0 299 0 298 0 247 0 200 0 299 0 247 0 199 0 299 0 200 0 300 0 210 0 202 0 301 0 210 0 300 0 302 0 202 0 201 0 300 0 202 0 302 0 294 0 201 0 203 0 302 0 201 0 294 0 204 0 292 0 303 0 205 0 292 0 204 0 208 0 303 0 304 0 204 0 303 0 208 0 196 0 304 0 194 0 208 0 304 0 196 0 307 0 306 0 305 0 308 0 306 0 307 0 311 0 310 0 309 0 312 0 310 0 311 0 309 0 314 0 313 0 310 0 314 0 309 0 317 0 316 0 315 0 318 0 316 0 317 0 321 0 320 0 319 0 322 0 320 0 321 0 325 0 324 0 323 0 326 0 324 0 325 0 327 0 326 0 325 0 328 0 326 0 327 0 329 0 328 0 327 0 330 0 328 0 329 0 331 0 330 0 329 0 332 0 330 0 331 0 328 0 333 0 326 0 258 0 333 0 328 0 238 0 334 0 239 0 335 0 334 0 238 0 337 0 222 0 336 0 221 0 222 0 337 0 231 0 287 0 232 0 338 0 287 0 231 0 338 0 288 0 287 0 339 0 288 0 338 0 288 0 340 0 286 0 341 0 340 0 288 0 202 0 196 0 195 0 210 0 196 0 202 0 248 0 253 0 252 0 249 0 253 0 248 0 335 0 342 0 334 0 343 0 342 0 335 0 343 0 344 0 342 0 345 0 344 0 343 0 342 0 346 0 339 0 344 0 346 0 342 0 349 0 348 0 347 0 350 0 348 0 349 0 347 0 352 0 351 0 348 0 352 0 347 0 353 0 348 0 350 0 354 0 348 0 353 0 354 0 352 0 348 0 355 0 352 0 354 0 344 0 356 0 346 0 357 0 356 0 344 0 334 0 339 0 338 0 342 0 339 0 334 0 254 0 205 0 207 0 255 0 205 0 254 0 319 0 312 0 311 0 320 0 312 0 319 0 239 0 228 0 237 0 231 0 228 0 239 0 356 0 359 0 358 0 360 0 359 0 356 0 239 0 338 0 231 0 334 0 338 0 239 0 361 0 336 0 360 0 337 0 336 0 361 0 360 0 362 0 359 0 336 0 362 0 360 0 359 0 284 0 363 0 362 0 284 0 359 0 358 0 363 0 364 0 359 0 363 0 358 0 326 0 365 0 324 0 333 0 365 0 326 0 330 0 258 0 328 0 260 0 258 0 330 0 332 0 260 0 330 0 262 0 260 0 332 0 313 0 367 0 366 0 368 0 367 0 313 0 318 0 369 0 316 0 370 0 369 0 318 0 373 0 372 0 371 0 367 0 372 0 373 0 371 0 375 0 374 0 372 0 375 0 371 0 378 0 377 0 376 0 379 0 377 0 378 0 376 0 381 0 380 0 377 0 381 0 376 0 382 0 319 0 308 0 321 0 319 0 382 0 308 0 311 0 306 0 319 0 311 0 308 0 306 0 309 0 383 0 311 0 309 0 306 0 383 0 313 0 366 0 309 0 313 0 383 0 372 0 384 0 375 0 385 0 384 0 372 0 388 0 387 0 386 0 305 0 387 0 388 0 390 0 376 0 389 0 378 0 376 0 390 0 389 0 380 0 391 0 376 0 380 0 389 0 393 0 307 0 392 0 394 0 307 0 393 0 392 0 305 0 388 0 307 0 305 0 392 0 305 0 383 0 387 0 306 0 383 0 305 0 377 0 374 0 381 0 371 0 374 0 377 0 394 0 308 0 307 0 382 0 308 0 394 0 397 0 396 0 395 0 398 0 396 0 397 0 398 0 399 0 396 0 400 0 399 0 398 0 401 0 395 0 396 0 402 0 395 0 401 0 405 0 404 0 403 0 406 0 404 0 405 0 407 0 403 0 404 0 408 0 403 0 407 0 408 0 405 0 403 0 409 0 405 0 408 0 409 0 406 0 405 0 410 0 406 0 409 0 413 0 412 0 411 0 397 0 412 0 413 0 416 0 415 0 414 0 412 0 415 0 416 0 353 0 415 0 417 0 418 0 415 0 353 0 419 0 353 0 350 0 418 0 353 0 419 0 397 0 420 0 412 0 395 0 420 0 397 0 412 0 417 0 415 0 420 0 417 0 412 0 421 0 395 0 402 0 420 0 395 0 421 0 416 0 422 0 411 0 414 0 422 0 416 0 355 0 353 0 417 0 354 0 353 0 355 0 355 0 423 0 352 0 424 0 423 0 355 0 424 0 402 0 423 0 421 0 402 0 424 0 426 0 392 0 425 0 393 0 392 0 426 0 425 0 388 0 427 0 392 0 388 0 425 0 427 0 386 0 428 0 388 0 386 0 427 0 428 0 390 0 429 0 386 0 390 0 428 0 429 0 389 0 430 0 390 0 389 0 429 0 430 0 391 0 431 0 389 0 391 0 430 0 433 0 315 0 432 0 317 0 315 0 433 0 385 0 432 0 384 0 433 0 432 0 385 0 434 0 377 0 379 0 373 0 377 0 434 0 366 0 373 0 434 0 367 0 373 0 366 0 437 0 436 0 435 0 438 0 436 0 437 0 368 0 370 0 318 0 313 0 370 0 368 0 441 0 440 0 439 0 442 0 440 0 441 0 442 0 443 0 440 0 444 0 443 0 442 0 444 0 437 0 443 0 445 0 437 0 444 0 447 0 384 0 446 0 375 0 384 0 447 0 450 0 449 0 448 0 451 0 449 0 450 0 454 0 453 0 452 0 455 0 453 0 454 0 455 0 380 0 453 0 391 0 380 0 455 0 393 0 456 0 394 0 457 0 456 0 393 0 457 0 448 0 456 0 450 0 448 0 457 0 448 0 444 0 442 0 449 0 444 0 448 0 459 0 374 0 458 0 381 0 374 0 459 0 394 0 441 0 382 0 456 0 441 0 394 0 456 0 442 0 441 0 448 0 442 0 456 0 440 0 461 0 460 0 443 0 461 0 440 0 443 0 435 0 461 0 437 0 435 0 443 0 463 0 316 0 462 0 315 0 316 0 463 0 321 0 464 0 322 0 439 0 464 0 321 0 439 0 460 0 464 0 440 0 460 0 439 0 467 0 466 0 465 0 468 0 466 0 467 0 470 0 468 0 469 0 466 0 468 0 470 0 469 0 467 0 471 0 468 0 467 0 469 0 471 0 465 0 472 0 467 0 465 0 471 0 413 0 398 0 397 0 473 0 398 0 413 0 474 0 400 0 398 0 475 0 400 0 474 0 349 0 400 0 476 0 399 0 400 0 349 0 419 0 349 0 476 0 350 0 349 0 419 0 273 0 477 0 280 0 478 0 477 0 273 0 478 0 272 0 479 0 273 0 272 0 478 0 237 0 227 0 480 0 228 0 227 0 237 0 236 0 480 0 481 0 237 0 480 0 236 0 481 0 483 0 482 0 480 0 483 0 481 0 480 0 484 0 483 0 227 0 484 0 480 0 483 0 240 0 485 0 484 0 240 0 483 0 474 0 422 0 475 0 473 0 422 0 474 0 351 0 349 0 347 0 399 0 349 0 351 0 351 0 423 0 486 0 352 0 423 0 351 0 486 0 402 0 401 0 423 0 402 0 486 0 426 0 457 0 393 0 487 0 457 0 426 0 487 0 450 0 457 0 488 0 450 0 487 0 488 0 451 0 450 0 489 0 451 0 488 0 489 0 454 0 451 0 490 0 454 0 489 0 490 0 455 0 454 0 491 0 455 0 490 0 491 0 391 0 455 0 431 0 391 0 491 0 492 0 315 0 463 0 432 0 315 0 492 0 446 0 432 0 492 0 384 0 432 0 446 0 494 0 459 0 493 0 495 0 459 0 494 0 445 0 493 0 496 0 494 0 493 0 445 0 437 0 496 0 438 0 445 0 496 0 437 0 462 0 369 0 436 0 316 0 369 0 462 0 497 0 267 0 266 0 498 0 267 0 497 0 323 0 498 0 497 0 324 0 498 0 323 0 264 0 332 0 331 0 265 0 332 0 264 0 333 0 499 0 365 0 500 0 499 0 333 0 258 0 500 0 333 0 259 0 500 0 258 0 493 0 447 0 496 0 458 0 447 0 493 0 458 0 375 0 447 0 374 0 375 0 458 0 452 0 459 0 495 0 453 0 459 0 452 0 453 0 381 0 459 0 380 0 381 0 453 0 382 0 439 0 321 0 441 0 439 0 382 0 281 0 277 0 276 0 282 0 277 0 281 0 502 0 501 0 263 0 503 0 501 0 502 0 504 0 502 0 265 0 505 0 502 0 504 0 498 0 505 0 504 0 506 0 505 0 498 0 263 0 507 0 261 0 501 0 507 0 263 0 261 0 508 0 259 0 507 0 508 0 261 0 259 0 509 0 500 0 508 0 509 0 259 0 500 0 510 0 499 0 509 0 510 0 500 0 499 0 511 0 506 0 510 0 511 0 499 0 477 0 512 0 280 0 513 0 512 0 477 0 241 0 293 0 230 0 294 0 293 0 241 0 230 0 295 0 226 0 293 0 295 0 230 0 226 0 296 0 224 0 295 0 296 0 226 0 243 0 207 0 242 0 254 0 207 0 243 0 245 0 254 0 243 0 250 0 254 0 245 0 289 0 207 0 206 0 242 0 207 0 289 0 290 0 206 0 209 0 289 0 206 0 290 0 286 0 301 0 300 0 340 0 301 0 286 0 285 0 300 0 302 0 286 0 300 0 285 0 241 0 302 0 294 0 285 0 302 0 241 0 478 0 513 0 477 0 514 0 513 0 478 0 479 0 514 0 478 0 515 0 514 0 479 0 505 0 503 0 502 0 516 0 503 0 505 0 506 0 516 0 505 0 511 0 516 0 506 0 370 0 313 0 314 0 436 0 438 0 462 0 517 0 482 0 215 0 482 0 517 0 481 0 343 0 335 0 517 0 335 0 238 0 517 0 223 0 227 0 225 0 235 0 234 0 223 0 223 0 484 0 227 0 234 0 240 0 484 0 366 0 434 0 383 0 318 0 317 0 368 0 371 0 377 0 373 0 434 0 379 0 387 0 404 0 406 0 407 0 410 0 409 0 518 0 410 0 518 0 519 0 409 0 520 0 518 0 408 0 520 0 409 0 518 0 520 0 408 0 410 0 519 0 407 0 406 0 410 0 407 0 518 0 408 0 407 0 519 0 518 0 407 0 367 0 368 0 317 0 433 0 367 0 317 0 433 0 385 0 367 0 220 0 233 0 244 0 217 0 222 0 212 0 222 0 211 0 212 0 358 0 341 0 346 0 358 0 346 0 356 0 341 0 339 0 346 0 364 0 341 0 358 0 341 0 288 0 339 0 291 0 340 0 364 0 222 0 362 0 336 0 217 0 362 0 222 0 283 0 291 0 363 0 345 0 357 0 344 0 345 0 337 0 357 0 337 0 361 0 357 0 357 0 361 0 356 0 517 0 337 0 345 0 217 0 284 0 362 0 481 0 517 0 236 0 235 0 223 0 224 0 290 0 340 0 291 0 363 0 291 0 364 0 283 0 363 0 284 0 361 0 360 0 356 0 217 0 212 0 219 0 364 0 340 0 341 0 466 0 470 0 465 0 472 0 521 0 471 0 472 0 522 0 521 0 471 0 521 0 523 0 469 0 471 0 523 0 521 0 469 0 523 0 472 0 470 0 522 0 465 0 470 0 472 0 419 0 524 0 418 0 421 0 424 0 355 0 417 0 420 0 421 0 417 0 421 0 355 0 412 0 416 0 411 0 422 0 413 0 411 0 415 0 524 0 414 0 414 0 524 0 419 0 415 0 418 0 524 0 422 0 414 0 419 0 462 0 438 0 463 0 458 0 493 0 459 0 494 0 449 0 495 0 452 0 451 0 454 0 496 0 463 0 438 0 492 0 463 0 496 0 492 0 496 0 446 0 419 0 476 0 525 0 215 0 485 0 216 0 482 0 485 0 215 0 209 0 301 0 290 0 250 0 245 0 296 0 245 0 224 0 296 0 290 0 301 0 340 0 378 0 390 0 386 0 427 0 526 0 425 0 425 0 526 0 426 0 431 0 526 0 430 0 430 0 526 0 429 0 429 0 526 0 428 0 428 0 526 0 427 0 385 0 372 0 367 0 378 0 386 0 387 0 379 0 378 0 387 0 434 0 387 0 383 0 401 0 351 0 486 0 399 0 401 0 396 0 399 0 351 0 401 0 398 0 473 0 474 0 422 0 473 0 413 0 400 0 475 0 525 0 475 0 419 0 525 0 400 0 525 0 476 0 422 0 419 0 475 0 297 0 527 0 257 0 298 0 527 0 297 0 528 0 264 0 331 0 529 0 266 0 264 0 532 0 531 0 530 0 532 0 528 0 531 0 532 0 529 0 528 0 532 0 530 0 529 0 528 0 331 0 329 0 531 0 329 0 327 0 531 0 327 0 325 0 531 0 325 0 530 0 530 0 323 0 497 0 529 0 497 0 266 0 528 0 529 0 264 0 531 0 528 0 329 0 325 0 323 0 530 0 529 0 530 0 497 0 533 0 272 0 270 0 278 0 277 0 512 0 278 0 275 0 277 0 276 0 274 0 279 0 280 0 281 0 276 0 533 0 270 0 268 0 279 0 274 0 278 0 263 0 265 0 502 0 506 0 498 0 499 0 503 0 534 0 501 0 501 0 534 0 507 0 507 0 534 0 508 0 508 0 534 0 509 0 509 0 534 0 510 0 510 0 534 0 511 0 511 0 534 0 516 0 516 0 534 0 503 0 209 0 210 0 301 0 250 0 296 0 252 0 485 0 240 0 216 0 482 0 483 0 485 0 512 0 514 0 269 0 515 0 272 0 533 0 515 0 479 0 272 0 514 0 515 0 533 0 514 0 533 0 269 0 512 0 513 0 514 0 199 0 197 0 527 0 197 0 193 0 527 0 299 0 527 0 298 0 199 0 527 0 299 0 256 0 527 0 292 0 257 0 527 0 256 0 244 0 235 0 224 0 216 0 240 0 213 0 220 0 219 0 233 0 233 0 235 0 244 0 221 0 337 0 517 0 345 0 343 0 517 0 221 0 517 0 215 0 236 0 517 0 238 0 521 0 470 0 469 0 522 0 470 0 521 0 488 0 487 0 526 0 487 0 426 0 526 0 431 0 491 0 526 0 491 0 490 0 526 0 490 0 489 0 526 0 489 0 488 0 526 0 446 0 496 0 447 0 452 0 449 0 451 0 495 0 449 0 452 0 494 0 444 0 449 0 445 0 444 0 494 0 320 0 535 0 312 0 322 0 535 0 320 0 370 0 535 0 369 0 314 0 535 0 370 0 234 0 484 0 223 0 512 0 282 0 280 0 274 0 275 0 278 0 280 0 276 0 279 0 282 0 281 0 280 0 277 0 282 0 512 0 278 0 512 0 269 0 533 0 268 0 269 0 263 0 262 0 265 0 262 0 332 0 265 0 265 0 267 0 504 0 504 0 267 0 498 0 498 0 324 0 365 0 498 0 365 0 499 0 193 0 194 0 527 0 194 0 304 0 527 0 304 0 303 0 527 0 303 0 292 0 527 0 310 0 535 0 314 0 312 0 535 0 310 0 464 0 460 0 535 0 322 0 464 0 535 0 436 0 369 0 535 0 435 0 436 0 535 0 461 0 435 0 535 0 460 0 461 0 535 0 245 0 244 0 224 0</p>
                </polylist>
            </mesh>
        </geometry>
    </library_geometries>
    <library_controllers>
        <controller id="controller0">
            <skin source="#mesh0">
                <bind_shape_matrix>1 0 0 0 0 1 0 0 0 0 1 0 0 0 0 1</bind_shape_matrix>
                <source id="joints0">
                    <Name_array id="JointArr0" count="35">jointnode-1 jointnode0 jointnode1 jointnode2 jointnode3 jointnode4 jointnode5 jointnode6 jointnode7 jointnode8 jointnode9 jointnode10 jointnode11 jointnode12 jointnode13 jointnode14 jointnode15 jointnode16 jointnode17 jointnode18 jointnode19 jointnode20 jointnode21 jointnode22 jointnode23 jointnode24 jointnode25 jointnode26 jointnode27 jointnode28 jointnode29 jointnode30 jointnode31 jointnode32 jointnode33</Name_array>
                    <technique_common>
                        <accessor source="#JointArr0" count="35">
                            <param name="JOINT" type="Name" />
                        </accessor>
                    </technique_common>
                </source>
                <source id="matrices0">
                    <float_array id="MatArr0" count="560">1 0 0 0 0 1 0 0 0 0 1 0 0 0 0 1 1 0 0 0 0 1 0 0 0 0 1 0 0 0 0 1 1 0 0 0 0 1 0 -125.14652252197266 0 0 1 0 0 0 0 1 1 0 0 0 0 1 0 0 0 0 1 -100 0 0 0 1 1 0 0 -100 0 1 0 0 0 0 1 0 0 0 0 1 1 0 0 100 0 1 0 0 0 0 1 0 0 0 0 1 1 0 0 0 0 1 0 -93 0 0 1 0 0 0 0 1 0.00004793836256601856 -0.9999999988509567 -4.386559881474326e-18 137.49999984200656 0.00004793836251091911 2.2980866055094973e-9 -0.9999999988509567 2.499999681140483 0.9999999977019134 0.00004793836251091911 0.00004793836256601856 -0.006711370751666425 0 0 0 1 0.00004782332063778632 -0.9999971262495844 0.0023969158313184714 124.99964171829649 -0.0000480531290230205 0.0023969135332384717 0.9999971262440761 -0.299615115979241 -0.9999999977019134 -0.00004793836251091881 -0.00004793836256589609 45.006711370751674 0 0 0 1 0.00004782332063778632 -0.9999971262495844 0.0023969158313184714 67.49964171829649 -0.0000480531290230205 0.0023969135332384717 0.9999971262440761 -1.4008831690340506 -0.9999999977019134 -0.00004793836251091881 -0.00004793836256589609 45.00671137075166 0 0 0 1 0.00004793836256601826 -0.9999999988509566 -4.826125313346229e-18 22.49968604993299 -0.000047938362510796644 -2.298086605503612e-9 0.9999999988509567 0.00846968268357816 -0.9999999977019135 -0.00004793836251091881 -0.000047938362565896096 45.00671137075167 0 0 0 1 -0.00004793606436910788 -0.00004794066059752197 0.9999999977019134 -39.991170748695424 -0.00004794066059753787 0.9999999977018031 0.00004793836251092393 -7.501603169795443 -0.9999999977019135 -0.00004793836251091881 -0.0000479383625658961 43.13171232442598 0 0 0 1 0.000047818713241344304 -0.999996891845205 0.0024927922697969397 124.99961051507236 -0.00004805771394552241 0.002492789971717479 0.9999968918394764 -0.311597758781617 -0.9999999977019135 -0.00004793836251091882 -0.00004793836256589611 -44.99328862924834 0 0 0 1 0.000047823320637786314 -0.9999971262495845 0.002396915831318472 67.4996982663124 -0.00004805312902302051 0.0023969135332384717 0.9999971262440762 -1.389465137794545 -0.9999999977019134 -0.000047938362510918806 -0.0000479383625658961 -44.993287629248336 0 0 0 1 0.00004793836256601825 -0.9999999988509567 -4.392444444352028e-18 22.49967239565499 -0.00004793836251079665 -2.2980866059372924e-9 0.9999999988509568 0.007519714675150468 -0.9999999977019135 -0.000047938362510918806 -0.00004793836256589611 -44.993286629248345 0 0 0 1 -0.000047936064369107886 -0.00004794066059752241 0.9999999977019135 -39.99212071735733 -0.000047940660597537865 0.9999999977018033 0.0000479383625109235 -7.501589561057371 -0.9999999977019135 -0.000047938362510918806 -0.000047938362565896116 -43.11828758292267 0 0 0 1 -0.00005871361779504797 0.965915484345868 0.2588576320172901 -215.20743935463906 0.013771917824122803 -0.25883230205118124 0.9658240904503947 47.98465818478839 0.9999051609188528 0.003621673062793076 -0.013287311694603402 -0.6692402177456493 0 0 0 1 0.01051220812591347 0.42259663121212093 0.9062569066045703 -150.2613894588088 0.008897339386624787 -0.9063106370182319 0.4225184807549207 270.09071790227256 0.9999051609188527 0.0036216730627930743 -0.013287311694603402 -0.6692412177456463 0 0 0 0.9999999999999999 0.013287483832915895 -0.00002347159564933433 0.9999117172143124 -36.39800156986921 0.003621041456998894 -0.9999934414451482 -0.00007159229189487702 315.98936442074597 0.9999051609188528 0.003621673062793075 -0.013287311694603404 -0.6692412177456466 0 0 0 1 0.013287483832915895 -0.00002347159564933433 0.9999117172143124 -36.39800156986921 0.003621041456998894 -0.9999934414451482 -0.00007159229189487702 315.98936442074597 0.9999051609188528 0.003621673062793075 -0.013287311694603404 -0.6692412177456466 0 0 0 1 0.006836066672438335 0.7070346976636109 0.7071458155799105 -291.1883382812628 0.011955641358508701 -0.7071695834691655 0.7069428851440223 219.2249375110387 0.9999051609188527 0.003621673062793075 -0.0132873116946034 -0.6692442177457527 0 0 0 0.9999999999999999 0.9999051569552838 0.003667977465328332 -0.013274902468319078 -42.75287054684224 0.013275253809461835 -0.00007145485700637972 0.9999118773824514 -6.61429281164158 0.003666705677295362 -0.9999932703951152 -0.00012014141182982534 278.17295011697144 0 0 0 1 0.9999531258777428 0.003667635038955757 -0.008960719867989127 -82.72522982130005 -0.008961100200736602 0.00008727945789384394 -0.9999598447265217 -6.58502001699509 -0.003666705677295363 0.9999932703951153 0.0001201414118297029 -278.9755960982833 0 0 0 1 0.9999612578900958 0.00366754967257414 -0.008001987144248315 -153.70243618739946 -0.008002373918632174 0.00009079582560643833 -0.9999679763711362 -7.685889375405186 -0.003666705677295363 0.9999932703951152 0.0001201414118297029 -278.97547709828655 0 0 0 1 0.9999051569552838 0.003667977465328332 -0.013274902468319078 -228.6297787298331 -0.003667342067012432 0.9999932726715085 0.00007220727357971919 -278.9757327155806 0.013275078018341815 -0.00002351681696446508 0.9999118819928918 5.471541473312101 0 0 0 1 0.9999051569552838 0.003667977465328332 -0.013274902468319078 -228.6297787298331 -0.003667342067012432 0.9999932726715085 0.00007220727357971919 -278.9757327155806 0.013275078018341815 -0.00002351681696446508 0.9999118819928918 5.471541473312101 0 0 0 1 -0.9999051569552838 -0.0036679774653283342 0.013274902468319059 -40.95392409556168 0.013274902196714504 0.000024421223131347067 0.9999118843054481 -6.642002815432139 -0.0036679784483016416 0.9999932726498305 0.000024273135163862503 -278.1761943598561 0 0 0 1 -0.9999051569552838 -0.0036679774653283342 0.013274902468319059 -80.95392409556167 -0.013274902196714504 -0.000024421223131224603 -0.9999118843054481 -6.200335746579612 0.00366797844830164 -0.9999932726498305 -0.000024273135163984954 278.9788413544468 0 0 0 1 -0.9999051569552838 -0.0036679774653283342 0.013274902468319059 -151.93842879526872 -0.013274902196714504 -0.000024421223131224603 -0.9999118843054481 -7.009116774373497 0.00366797844830164 -0.9999932726498305 -0.000024273135163984954 278.9807413544789 0 0 0 1 -0.999905156955284 -0.003667977465328335 0.013274902468319062 -226.83366957896015 -0.0036686148211615083 0.9999932703300817 -0.000023661003307795114 -278.98135589256617 -0.013274726344580334 -0.00007235926317101442 -0.9999118843201206 -5.741070821106231 0 0 0 1 -0.999905156955284 -0.003667977465328335 0.013274902468319062 -226.83366957896015 -0.0036686148211615083 0.9999932703300817 -0.000023661003307795114 -278.98135589256617 -0.013274726344580334 -0.00007235926317101442 -0.9999118843201206 -5.741070821106231 0 0 0 1 0.00996050452546433 0.47611445070460434 0.8793269120070486 -166.15858562059117 0.00951091569942193 -0.8793758657789512 0.4760332227566468 212.9812149251768 0.9999051609188528 0.003621673062793077 -0.013287311694603404 -0.6692412177456469 0 0 0 1 0.0041196492503854844 -0.9992827340358019 0.0376436707560175 217.0341268885778 -0.013141448089807467 -0.03769483972853426 -0.9992028830022178 72.4712999147544 0.9999051609188527 0.0036216730627930747 -0.013287311694603402 -0.6692402177456492 0 0 0 0.9999999999999999 0.0027496097456366723 -0.997876770939318 -0.06507218811418153 192.87893063675932 -0.013494769879105232 0.06502948180592379 -0.9977920914108128 53.84178955438162 0.9999051609188527 0.0036216730627930756 -0.013287311694603402 -0.6692402177456493 0 0 0 0.9999999999999999 0.003542630396653847 -0.9999759193358358 -0.005967454928476924 162.72138909569898 0.013308603898080877 -0.005919816946235672 0.9998939127875558 -62.77951906187539 -0.999905160918853 -0.0036216730627930773 0.013287311694603529 0.6692402177456417 0 0 0 0.9999999999999999</float_array>
                    <technique_common>
                        <accessor source="#MatArr0" count="35" stride="16">
                            <param type="float4x4" />
                        </accessor>
                    </technique_common>
                </source>
                <source id="weights0">
                    <float_array id="WeightArr0" count="1">1</float_array>
                    <technique_common>
                        <accessor source="#WeightArr0" count="1">
                            <param type="float" />
                        </accessor>
                    </technique_common>
                </source>
                <joints>
                    <input semantic="JOINT" source="#joints0" />
                    <input semantic="INV_BIND_MATRIX" source="#matrices0" />
                </joints>
                <vertex_weights count="536">
                    <input semantic="JOINT" offset="0" source="#joints0" />
                    <input semantic="WEIGHT" offset="1" source="#weights0" />
                    <vcount>1 1 1 1 1 1 1 1 1 1 1 1 1 1 1 1 1 1 1 1 1 1 1 1 1 1 1 1 1 1 1 1 1 1 1 1 1 1 1 1 1 1 1 1 1 1 1 1 1 1 1 1 1 1 1 1 1 1 1 1 1 1 1 1 1 1 1 1 1 1 1 1 1 1 1 1 1 1 1 1 1 1 1 1 1 1 1 1 1 1 1 1 1 1 1 1 1 1 1 1 1 1 1 1 1 1 1 1 1 1 1 1 1 1 1 1 1 1 1 1 1 1 1 1 1 1 1 1 1 1 1 1 1 1 1 1 1 1 1 1 1 1 1 1 1 1 1 1 1 1 1 1 1 1 1 1 1 1 1 1 1 1 1 1 1 1 1 1 1 1 1 1 1 1 1 1 1 1 1 1 1 1 1 1 1 1 1 1 1 1 1 1 1 1 1 1 1 1 1 1 1 1 1 1 1 1 1 1 1 1 1 1 1 1 1 1 1 1 1 1 1 1 1 1 1 1 1 1 1 1 1 1 1 1 1 1 1 1 1 1 1 1 1 1 1 1 1 1 1 1 1 1 1 1 1 1 1 1 1 1 1 1 1 1 1 1 1 1 1 1 1 1 1 1 1 1 1 1 1 1 1 1 1 1 1 1 1 1 1 1 1 1 1 1 1 1 1 1 1 1 1 1 1 1 1 1 1 1 1 1 1 1 1 1 1 1 1 1 1 1 1 1 1 1 1 1 1 1 1 1 1 1 1 1 1 1 1 1 1 1 1 1 1 1 1 1 1 1 1 1 1 1 1 1 1 1 1 1 1 1 1 1 1 1 1 1 1 1 1 1 1 1 1 1 1 1 1 1 1 1 1 1 1 1 1 1 1 1 1 1 1 1 1 1 1 1 1 1 1 1 1 1 1 1 1 1 1 1 1 1 1 1 1 1 1 1 1 1 1 1 1 1 1 1 1 1 1 1 1 1 1 1 1 1 1 1 1 1 1 1 1 1 1 1 1 1 1 1 1 1 1 1 1 1 1 1 1 1 1 1 1 1 1 1 1 1 1 1 1 1 1 1 1 1 1 1 1 1 1 1 1 1 1 1 1 1 1 1 1 1 1 1 1 1 1 1 1 1 1 1 1 1 1 1 1 1 1 1 1 1 1 1 1 1 1 1 1 1 1 1 1 1 1 1 1 1 1 1 1 1 1 1 1 1 1 1</vcount>
                    <v>28 0 28 0 28 0 28 0 27 0 27 0 27 0 27 0 27 0 27 0 27 0 27 0 27 0 27 0 27 0 27 0 27 0 29 0 29 0 28 0 28 0 27 0 28 0 27 0 28 0 27 0 27 0 27 0 27 0 27 0 27 0 9 0 9 0 8 0 8 0 9 0 8 0 9 0 8 0 8 0 9 0 8 0 8 0 9 0 8 0 8 0 8 0 8 0 8 0 10 0 10 0 10 0 10 0 10 0 10 0 10 0 10 0 10 0 10 0 10 0 10 0 10 0 10 0 10 0 10 0 10 0 9 0 9 0 10 0 9 0 9 0 9 0 9 0 27 0 27 0 27 0 28 0 28 0 29 0 29 0 29 0 28 0 29 0 29 0 29 0 29 0 29 0 29 0 29 0 29 0 29 0 29 0 29 0 29 0 29 0 29 0 29 0 28 0 23 0 23 0 23 0 24 0 23 0 24 0 23 0 24 0 24 0 24 0 24 0 24 0 24 0 23 0 23 0 24 0 22 0 24 0 22 0 22 0 22 0 22 0 22 0 22 0 22 0 22 0 22 0 22 0 22 0 22 0 22 0 22 0 22 0 22 0 22 0 22 0 22 0 22 0 22 0 22 0 22 0 24 0 24 0 24 0 24 0 24 0 24 0 24 0 24 0 24 0 24 0 11 0 11 0 11 0 11 0 11 0 11 0 10 0 8 0 8 0 8 0 8 0 8 0 8 0 8 0 9 0 23 0 23 0 23 0 23 0 23 0 9 0 9 0 9 0 8 0 8 0 8 0 8 0 8 0 10 0 22 0 22 0 22 0 22 0 27 0 27 0 27 0 27 0 24 0 24 0 24 0 29 0 29 0 29 0 9 0 7 0 7 0 7 0 7 0 7 0 7 0 7 0 7 0 7 0 7 0 7 0 7 0 7 0 7 0 7 0 7 0 7 0 7 0 16 0 16 0 16 0 16 0 16 0 16 0 16 0 16 0 16 0 16 0 16 0 16 0 16 0 16 0 16 0 16 0 16 0 16 0 16 0 16 0 16 0 16 0 16 0 16 0 16 0 16 0 16 0 16 0 16 0 16 0 16 0 16 0 16 0 16 0 16 0 7 0 7 0 7 0 7 0 7 0 7 0 7 0 7 0 7 0 7 0 7 0 7 0 12 0 13 0 12 0 13 0 12 0 13 0 12 0 13 0 12 0 12 0 14 0 14 0 14 0 14 0 14 0 14 0 14 0 14 0 14 0 14 0 14 0 14 0 14 0 14 0 14 0 16 0 16 0 16 0 16 0 16 0 16 0 16 0 16 0 16 0 7 0 7 0 7 0 7 0 7 0 7 0 7 0 7 0 7 0 7 0 7 0 7 0 7 0 18 0 18 0 18 0 18 0 18 0 18 0 18 0 18 0 18 0 18 0 18 0 18 0 18 0 18 0 18 0 18 0 18 0 18 0 12 0 12 0 12 0 12 0 12 0 12 0 12 0 12 0 12 0 12 0 12 0 16 0 16 0 16 0 16 0 16 0 16 0 16 0 16 0 21 0 16 0 21 0 16 0 16 0 18 0 16 0 18 0 18 0 18 0 18 0 18 0 18 0 18 0 16 0 21 0 16 0 16 0 16 0 16 0 16 0 16 0 16 0 12 0 18 0 18 0 18 0 18 0 18 0 18 0 18 0 18 0 18 0 18 0 18 0 18 0 18 0 18 0 18 0 18 0 18 0 18 0 18 0 18 0 18 0 18 0 18 0 18 0 18 0 18 0 18 0 18 0 18 0 18 0 18 0 18 0 18 0 18 0 18 0 18 0 18 0 18 0 18 0 18 0 18 0 18 0 18 0 18 0 18 0 18 0 18 0 18 0 18 0 18 0 18 0 18 0 18 0 18 0 18 0 18 0 18 0 18 0 18 0 18 0 18 0 18 0 18 0 18 0 18 0 18 0 18 0 18 0 18 0 18 0 18 0 18 0 18 0 18 0 18 0 18 0 18 0 18 0 18 0 18 0 18 0 18 0 18 0 18 0 18 0 18 0 18 0 18 0 18 0 18 0 18 0 18 0 18 0 18 0 18 0 18 0 18 0 18 0 18 0 18 0 18 0 18 0 18 0 18 0 18 0 18 0 18 0 18 0 18 0 18 0 18 0 15 0 15 0 15 0 26 0 16 0 16 0 26 0 16 0 26 0 18 0 18 0 18 0 18 0 18 0 18 0 18 0 18 0 18 0 18 0 18 0 12 0 13 0 13 0 13 0 13 0 13 0 14 0 13 0 13 0 13 0 13 0 13 0 13 0 13 0 14 0 14 0 15 0 15 0 15 0 14 0 16 0 18 0 18 0 18 0 18 0 18 0 18 0 18 0 18 0 18 0 12 0 12 0 12 0 12 0 12 0 12 0 14 0 13 0 16 0</v>
                </vertex_weights>
            </skin>
        </controller>
    </library_controllers>
    <library_visual_scenes>
        <visual_scene id="VisualSceneNode">
            <node id="node0" name="m0" type="NODE">
                <instance_controller url="#controller0">
                    <skeleton>#jointnode-1</skeleton>
                    <bind_material>
                        <technique_common>
                            <instance_material symbol="Material1" target="#mat0">
                                <bind_vertex_input semantic="UVSET0" input_semantic="TEXCOORD" input_set="0"></bind_vertex_input>
                            </instance_material>
                        </technique_common>
                    </bind_material>
                </instance_controller>
            </node>
            <node id="jointnode-1" name="root" sid="jointnode-1" type="JOINT">
                <node id="jointnode0" name="world_root" sid="jointnode0" type="JOINT">
                    <node id="jointnode1" name="ColPos" sid="jointnode1" type="JOINT">
                        <translate>0 125.14652252197266 0</translate>
                    </node>
                    <node id="jointnode2" name="FaceVisiblity" sid="jointnode2" type="JOINT">
                        <translate>0 0 100</translate>
                    </node>
                    <node id="jointnode3" name="LHandVisiblity" sid="jointnode3" type="JOINT">
                        <translate>100 0 0</translate>
                    </node>
                    <node id="jointnode4" name="RHandVisiblity" sid="jointnode4" type="JOINT">
                        <translate>-100 0 0</translate>
                    </node>
                    <node id="jointnode5" name="RotCenter" sid="jointnode5" type="JOINT">
                        <translate>0 93 0</translate>
                    </node>
                    <node id="jointnode6" name="hip" sid="jointnode6" type="JOINT">
                        <translate>0 137.5 2.5</translate>
                        <rotate>0 0 1 -89.99725333414716</rotate>
                        <rotate>1 0 0 -89.99725333414716</rotate>
                        <node id="jointnode7" name="legL1" sid="jointnode7" type="JOINT">
                            <translate>12.499999046325684 2.4999990463256836 45</translate>
                            <rotate>0 0 1 -0.13733329264198738</rotate>
                            <rotate>1 0 0 180</rotate>
                            <node id="jointnode8" name="legL2" sid="jointnode8" type="JOINT">
                                <translate>57.5 1.1012680530548096 0</translate>
                                <node id="jointnode9" name="footL" sid="jointnode9" type="JOINT">
                                    <translate>45 -1.3554229736328125 0</translate>
                                    <rotate>0 0 1 -0.13733329264198738</rotate>
                                    <node id="jointnode10" name="toeL" sid="jointnode10" type="JOINT">
                                        <translate>15 40 1.8749990463256836</translate>
                                        <rotate>0 0 1 89.99725333414716</rotate>
                                    </node>
                                </node>
                            </node>
                        </node>
                        <node id="jointnode11" name="legR1" sid="jointnode11" type="JOINT">
                            <translate>12.500000953674316 2.5000009536743164 -45</translate>
                            <rotate>0 0 1 -0.14282662434766685</rotate>
                            <rotate>1 0 0 180</rotate>
                            <node id="jointnode12" name="legR2" sid="jointnode12" type="JOINT">
                                <translate>57.50004577636719 1.0843390226364136 -9.999999974752427e-7</translate>
                                <rotate>0 0 1 -0.005493331705679495</rotate>
                                <node id="jointnode13" name="footR" sid="jointnode13" type="JOINT">
                                    <translate>45.00007247924805 -1.343055009841919 -9.999999974752427e-7</translate>
                                    <rotate>0 0 1 -0.13733329264198738</rotate>
                                    <node id="jointnode14" name="toeR" sid="jointnode14" type="JOINT">
                                        <translate>15 40 -1.8749990463256836</translate>
                                        <rotate>0 0 1 89.99725333414716</rotate>
                                    </node>
                                </node>
                            </node>
                        </node>
                        <node id="jointnode15" name="spin" sid="jointnode15" type="JOINT">
                            <translate>-82.79460144042969 -6.854456901550293 -0.0000019999999949504854</translate>
                            <rotate>0 0 1 -164.9977111117893</rotate>
                            <rotate>1 0 0 0.7910397656178472</rotate>
                            <node id="jointnode16" name="neck" sid="jointnode16" type="JOINT">
                                <translate>88.28052520751953 -10.517789840698242 9.999999974752427e-7</translate>
                                <rotate>0 0 1 50.00030518509476</rotate>
                                <node id="jointnode17" name="head" sid="jointnode17" type="JOINT">
                                    <translate>16.270000457763672 -0.9100000262260437 0</translate>
                                    <rotate>0 0 1 25.00015259254738</rotate>
                                    <node id="jointnode18" name="Face00" sid="jointnode18" type="JOINT">
                                    </node>
                                    <node id="jointnode19" name="hair1" sid="jointnode19" type="JOINT">
                                        <translate>14.51375961303711 -44.92366409301758 0.000003000000106112566</translate>
                                        <rotate>0 0 1 -44.99588000122074</rotate>
                                    </node>
                                </node>
                            </node>
                            <node id="jointnode20" name="shoulderL" sid="jointnode20" type="JOINT">
                                <translate>55.204620361328125 -17.607759475708008 42.0706672668457</translate>
                                <rotate>0 1 0 -89.99725333414716</rotate>
                                <rotate>1 0 0 -14.99679555650502</rotate>
                                <node id="jointnode21" name="armL1" sid="jointnode21" type="JOINT">
                                    <translate>40 -12.842338562011719 -0.8026459813117981</translate>
                                    <rotate>0 0 1 0.24719992675557725</rotate>
                                    <rotate>1 0 0 180</rotate>
                                    <node id="jointnode22" name="armL2" sid="jointnode22" type="JOINT">
                                        <translate>70.98450469970703 0.9535009860992432 -0.00011899999663000926</translate>
                                        <rotate>0 0 1 -0.054933317056794946</rotate>
                                        <node id="jointnode23" name="wristL" sid="jointnode23" type="JOINT">
                                            <translate>74.8952407836914 -0.9954410195350647 -0.000007000000096013537</translate>
                                            <rotate>0 0 1 0.3021332438123722</rotate>
                                            <rotate>1 0 0 89.99725333414716</rotate>
                                            <node id="jointnode24" name="LHand00" sid="jointnode24" type="JOINT">
                                            </node>
                                        </node>
                                    </node>
                                </node>
                            </node>
                            <node id="jointnode25" name="shoulderR" sid="jointnode25" type="JOINT">
                                <translate>55.20462417602539 -17.607759475708008 -41.63612747192383</translate>
                                <rotate>0 0 1 180</rotate>
                                <rotate>0 1 0 89.99725333414716</rotate>
                                <rotate>1 0 0 -164.9977111117893</rotate>
                                <node id="jointnode26" name="armR1" sid="jointnode26" type="JOINT">
                                    <translate>40 -12.842338562011719 0.8026469945907593</translate>
                                    <rotate>1 0 0 180</rotate>
                                    <node id="jointnode27" name="armR2" sid="jointnode27" type="JOINT">
                                        <translate>70.98450469970703 0.8087810277938843 -0.0019000000320374966</translate>
                                        <node id="jointnode28" name="wristR" sid="jointnode28" type="JOINT">
                                            <translate>74.8952407836914 -1.2546720504760742 -0.0003389999910723418</translate>
                                            <rotate>1 0 0 -89.99725333414716</rotate>
                                            <node id="jointnode29" name="RHand00" sid="jointnode29" type="JOINT">
                                            </node>
                                        </node>
                                    </node>
                                </node>
                            </node>
                            <node id="jointnode30" name="tie1" sid="jointnode30" type="JOINT">
                                <translate>53.689998626708984 22.219539642333984 9.999999974752427e-7</translate>
                                <rotate>0 0 1 46.566972869045074</rotate>
                                <node id="jointnode31" name="tie2" sid="jointnode31" type="JOINT">
                                    <translate>-5.107291221618652 50.44388961791992 -9.999999974752427e-7</translate>
                                    <rotate>0 0 1 116.27185888241218</rotate>
                                    <node id="jointnode32" name="tie3" sid="jointnode32" type="JOINT">
                                        <translate>30.69717025756836 -0.8755390048027039 0</translate>
                                        <rotate>0 0 1 5.888851588488418</rotate>
                                        <node id="jointnode33" name="tie4" sid="jointnode33" type="JOINT">
                                            <translate>26.730558395385742 0.7924079895019531 0</translate>
                                            <rotate>0 0 1 -3.389385662404248</rotate>
                                            <rotate>1 0 0 180</rotate>
                                        </node>
                                    </node>
                                </node>
                            </node>
                        </node>
                    </node>
                </node>
            </node>
        </visual_scene>
    </library_visual_scenes>
    <scene>
        <instance_visual_scene url="#VisualSceneNode"></instance_visual_scene>
    </scene>
</COLLADA>
