<?xml version="1.0"?>
<COLLADA xmlns="http://www.collada.org/2005/11/COLLADASchema" version="1.4.1">
    <asset>
        <contributor>
            <authoring_tool>J3D Ripoff Exporter</authoring_tool>
        </contributor>
        <created>2024-08-18T17:25:00.362Z</created>
        <modified>2024-08-18T17:25:00.362Z</modified>
		<unit meter="0.01" name="centimeter" ></unit>
        <up_axis>Y_UP</up_axis>
    </asset>
    <library_images>
        <image id="tex0">
            <init_from>akebono_eye.png</init_from>
        </image>
        <image id="tex1">
            <init_from>akebono_body.png</init_from>
        </image>
    </library_images>
    <library_effects>
        <effect id="effect0">
            <profile_COMMON>
                <newparam sid="surface0">
                    <surface type="2D">
                        <init_from>tex1</init_from>
                    </surface>
                </newparam>
                <newparam sid="sampler0">
                    <sampler2D>
                        <source>surface0</source>
                    </sampler2D>
                </newparam>
                <technique sid="COMMON">
                    <blinn>
                        <diffuse>
                            <texture texture="sampler0" texcoord="UVSET0"></texture>
                        </diffuse>
                    </blinn>
                </technique>
            </profile_COMMON>
        </effect>
        <effect id="effect1">
            <profile_COMMON>
                <newparam sid="surface1">
                    <surface type="2D">
                        <init_from>tex1</init_from>
                    </surface>
                </newparam>
                <newparam sid="sampler1">
                    <sampler2D>
                        <source>surface1</source>
                    </sampler2D>
                </newparam>
                <technique sid="COMMON">
                    <blinn>
                        <diffuse>
                            <texture texture="sampler1" texcoord="UVSET0"></texture>
                        </diffuse>
                    </blinn>
                </technique>
            </profile_COMMON>
        </effect>
        <effect id="effect2">
            <profile_COMMON>
                <newparam sid="surface2">
                    <surface type="2D">
                        <init_from>tex0</init_from>
                    </surface>
                </newparam>
                <newparam sid="sampler2">
                    <sampler2D>
                        <source>surface2</source>
                    </sampler2D>
                </newparam>
                <technique sid="COMMON">
                    <blinn>
                        <diffuse>
                            <texture texture="sampler2" texcoord="UVSET0"></texture>
                        </diffuse>
                    </blinn>
                </technique>
            </profile_COMMON>
        </effect>
    </library_effects>
    <library_materials>
        <material id="mat0" name="Skin_etc">
            <instance_effect url="#effect0"></instance_effect>
        </material>
        <material id="mat1" name="Skin_spec">
            <instance_effect url="#effect1"></instance_effect>
        </material>
        <material id="mat2" name="eye">
            <instance_effect url="#effect2"></instance_effect>
        </material>
    </library_materials>
    <library_geometries>
        <geometry id="mesh0">
            <mesh>
                <source id="points0">
                    <float_array id="pointarray0" count="474">58.90625 13.515625 15.9375 69.5859375 18.609375 10.21875 61.4140625 12.453125 13.03125 69.5078125 15.4765625 8.5703125 56.046875 5.921875 16.5859375 58.546875 6.1015625 14.015625 52.2109375 4.0078125 14.015625 54.8515625 2.8046875 11.9375 51.5546875 0.453125 6.25 54.40625 -0.1875 5.3359375 49.640625 0.9140625 0 52.5703125 0.296875 0 56.140625 14.1328125 15.734375 65.015625 18.4140625 9.8125 54.71875 6.140625 15.9453125 51.0859375 4.6484375 13.484375 57.0546875 3.0703125 0 60.7421875 9.109375 0 57.671875 2.3359375 -5.5078125 61.921875 9.46875 -4.8984375 54.40625 -0.1875 -5.3359375 53.140625 5.7109375 11.0625 55.3046875 13.90625 10.296875 50.734375 4.875 9.390625 65.921875 19.875 5.6640625 63.640625 19.453125 10.6015625 75.7421875 23.3828125 5.75 73.21875 22.6171875 11.1484375 59.2578125 18.078125 15.6328125 68.8515625 20.859375 16.53125 56.328125 15.890625 19.1171875 63.6328125 17.8046875 20.3984375 68.8515625 -7.1796875 17.359375 77.1328125 -7.3046875 17.7578125 62.890625 -5.1640625 19.6796875 71.7890625 -4.8203125 20.9921875 65.015625 18.4140625 -9.8203125 56.890625 14.265625 -15.3671875 69.5859375 18.609375 -10.21875 58.90625 13.515625 -15.9453125 55.3046875 13.90625 -10.3046875 54.71875 6.140625 -15.9453125 53.140625 5.7109375 -11.0625 74.21875 -8.7734375 11.078125 80.375 -9 13.375 77 -10.9296875 6.1484375 83.671875 -10.75 6.984375 58.2109375 1.734375 23.9140625 67.078125 -2.40625 22.7421875 51.5546875 0.453125 -6.2578125 54.8515625 2.8046875 -11.9375 52.2109375 4.0078125 -14.0234375 58.546875 6.1015625 -14.0234375 56.046875 5.921875 -16.59375 61.4140625 12.453125 -13.0390625 69.5078125 15.4765625 -8.5703125 56.8828125 -4.578125 11.375 46.25 -2.4140625 17.5078125 44.9375 0.7421875 21.4765625 57.671875 2.3359375 5.5 61.921875 9.46875 4.890625 71.0078125 16.3828125 0 71.265625 19.25 0 65.921875 18.9375 0 51.0859375 4.6484375 -13.484375 66.4296875 19.5234375 0 76.5078125 23.6875 0 55.1484375 10.75 22.6328125 39.5859375 9.0234375 21.390625 39.6171875 8.2265625 17.59375 65.921875 19.875 -5.671875 48.578125 5.3984375 -5.5625 49.2890625 4.6796875 0 63.640625 19.453125 -10.6015625 42.9765625 6.4453125 -10.2578125 59.546875 18.1484375 -15.9609375 39.6171875 8.2265625 -17.6015625 56.328125 15.890625 -19.1171875 39.5859375 9.0234375 -21.3984375 42.9765625 6.4453125 10.25 55.1484375 10.75 -22.6328125 44.9375 0.7421875 -21.1328125 58.2109375 1.734375 -23.921875 46.25 -2.4140625 -17.171875 56.8828125 -4.578125 -11.375 59.5859375 -6.234375 -6.1953125 60.2265625 -7.4140625 0 59.5859375 -6.234375 6.1953125 48.578125 5.3984375 5.5546875 78.1484375 -11.7890625 0 84.8203125 -11.3671875 0 58.46875 -26.421875 -13.2421875 59.0234375 -28.078125 -13.4921875 61.4765625 -25.25 -9.390625 62 -26.453125 -8.859375 67.078125 -2.40625 -22.7421875 71.7890625 -5.1875 -21 62.890625 -5.1640625 -19.6875 80.375 -9 -13.3828125 83.671875 -10.75 -6.9921875 74.21875 -9.0078125 -11.078125 77 -10.9296875 -6.15625 77.1328125 -7.3046875 -17.765625 68.8515625 -7.1796875 -17.359375 75.7421875 23.3828125 -5.75 73.21875 22.6171875 -11.15625 68.8515625 20.859375 -16.53125 63.6328125 17.8046875 -20.40625 62 -26.453125 8.8515625 59.0234375 -28.078125 13.4921875 61.4765625 -25.25 9.3828125 58.46875 -26.421875 13.234375 50.7890625 5.8046875 -9.3984375 61.15625 6.8984375 24.5078125 61.078125 15.6796875 22.4140625 60.2890625 12.796875 23.6875 64.2578125 0.5546875 23.9296875 51.125 4.765625 0 63.703125 -25.640625 -5.1875 62.7890625 -24.265625 -4.7578125 63.6953125 -22.3515625 0 64.1953125 -24.9765625 -2.171875 64.3359375 -24.3984375 0 60.078125 -22.9765625 -10.796875 61.0546875 -22.6796875 -8.1328125 60.3515625 -19.8203125 -9.046875 64 -25.4609375 -3.828125 57.859375 -18.171875 -12.4375 54.21875 10.7734375 0 48.59375 1.703125 0 62.7890625 -24.265625 4.75 63.703125 -25.640625 5.1796875 64 -25.4609375 3.828125 64.1953125 -24.9765625 2.171875 60.2890625 12.796875 -23.6875 61.15625 6.8984375 -24.5078125 64.2578125 0.5546875 -23.9296875 61.078125 15.6796875 -22.421875 60.078125 -22.9765625 10.7890625 58.9609375 -24.1640625 12.484375 57.859375 -18.171875 12.4375 55.84375 -29.8125 16.3828125 54.1875 -31 17.875 53.8203125 -27.8515625 17.15625 55.890625 -20.65625 14.59375 62.4921875 -21.53125 4.46875 61.0546875 -22.6796875 8.1328125 60.3515625 -19.8203125 9.0390625 61.7734375 -23.2890625 6.1796875 54.78125 -23.5703125 16.03125 61.7734375 -23.2890625 -6.1796875 62.4921875 -21.53125 -4.46875 54.1875 -31 -17.8828125 55.84375 -29.8125 -16.390625 54.2421875 -27.8515625 -17.4296875 58.9609375 -24.1640625 -12.4921875 55.890625 -20.65625 -14.59375 54.78125 -23.5703125 -16.0390625</float_array>
                    <technique_common>
                        <accessor count="158" source="#pointarray0" stride="3">
                            <param name="X" type="float"/>
                            <param name="Y" type="float"/>
                            <param name="Z" type="float"/>
                        </accessor>
                    </technique_common>
                </source>
                <source id="uvs0">
                    <float_array id="uvarray0" count="176">0.4617919921875 0.3121337890625 0.44287109375 0.28924560546875 0.44903564453125 0.3121337890625 0.43475341796875 0.296875 0.46551513671875 0.33160400390625 0.45404052734375 0.33160400390625 0.45404052734375 0.334716796875 0.4447021484375 0.33441162109375 0.4193115234375 0.33575439453125 0.41021728515625 0.33526611328125 0.3931884765625 0.33575439453125 0.3931884765625 0.33526611328125 0.4591064453125 0.3121337890625 0.4407958984375 0.29119873046875 0.46258544921875 0.33160400390625 0.45166015625 0.33465576171875 0.3931884765625 0.33331298828125 0.3931884765625 0.3121337890625 0.4107666015625 0.33270263671875 0.41302490234375 0.3121337890625 0.440673828125 0.33160400390625 0.43670654296875 0.3121337890625 0.433349609375 0.3336181640625 0.72564697265625 0.48162841796875 0.73931884765625 0.4971923828125 0.59906005859375 0.4918212890625 0.6329345703125 0.5286865234375 0.74365234375 0.51043701171875 0.66217041015625 0.5465087890625 0.7412109375 0.51904296875 0.68182373046875 0.55950927734375 0.74755859375 0.511962890625 0.74658203125 0.51702880859375 0.74017333984375 0.49554443359375 0.72381591796875 0.4805908203125 0.74407958984375 0.51690673828125 0.67425537109375 0.55108642578125 0.73974609375 0.49639892578125 0.74560546875 0.51116943359375 0.743896484375 0.51806640625 0.3931884765625 0.28839111328125 0.3931884765625 0.27899169921875 0.3931884765625 0.2813720703125 0.712646484375 0.463134765625 0.586669921875 0.46466064453125 0.745361328125 0.51708984375 0.7425537109375 0.5185546875 0.74462890625 0.51080322265625 0.72515869140625 0.4813232421875 0.71270751953125 0.46331787109375 0.739501953125 0.49676513671875 0.7247314453125 0.4810791015625 0.71270751953125 0.4635009765625 0.7127685546875 0.4638671875 0.3681640625 0.07427978515625 0.3681640625 0.0777587890625 0.3636474609375 0.07257080078125 0.3626708984375 0.0751953125 0.67840576171875 0.55810546875 0.6800537109375 0.55877685546875 0.74658203125 0.517333984375 0.67828369140625 0.55804443359375 0.678466796875 0.55810546875 0.3931884765625 0.33160400390625 0.3583984375 0.07373046875 0.3580322265625 0.07049560546875 0.2789306640625 0.032958984375 0.28741455078125 0.05712890625 0.27862548828125 0.05535888671875 0.33660888671875 0.0380859375 0.322021484375 0.0367431640625 0.3271484375 0.0233154296875 0.30084228515625 0.048828125 0.2962646484375 0.05889892578125 0.3529052734375 0.0145263671875 0.3931884765625 0.33563232421875 0.2962646484375 0.058837890625 0.35089111328125 0.0467529296875 0.379150390625 0.08984375 0.388671875 0.10107421875 0.3876953125 0.0772705078125 0.372802734375 0.029296875 0.360107421875 0.060302734375 0.300048828125 0.03021240234375 0.31158447265625 0.04046630859375 0.38055419921875 0.0474853515625 0.36090087890625 0.07928466796875 0.3560791015625 0.0732421875</float_array>
                    <technique_common>
                        <accessor count="88" source="#uvarray0" stride="2">
                            <param name="S" type="float"/>
                            <param name="T" type="float"/>
                        </accessor>
                    </technique_common>
                </source>
                <vertices id="vertices0">
                    <input semantic="POSITION" source="#points0"/>
                </vertices>
                <polylist count="242" material="Material1">
                    <input offset="0" semantic="VERTEX" source="#vertices0"/>
                    <input offset="1" semantic="TEXCOORD" source="#uvs0" set="0"/>
                    <vcount>3 3 3 3 3 3 3 3 3 3 3 3 3 3 3 3 3 3 3 3 3 3 3 3 3 3 3 3 3 3 3 3 3 3 3 3 3 3 3 3 3 3 3 3 3 3 3 3 3 3 3 3 3 3 3 3 3 3 3 3 3 3 3 3 3 3 3 3 3 3 3 3 3 3 3 3 3 3 3 3 3 3 3 3 3 3 3 3 3 3 3 3 3 3 3 3 3 3 3 3 3 3 3 3 3 3 3 3 3 3 3 3 3 3 3 3 3 3 3 3 3 3 3 3 3 3 3 3 3 3 3 3 3 3 3 3 3 3 3 3 3 3 3 3 3 3 3 3 3 3 3 3 3 3 3 3 3 3 3 3 3 3 3 3 3 3 3 3 3 3 3 3 3 3 3 3 3 3 3 3 3 3 3 3 3 3 3 3 3 3 3 3 3 3 3 3 3 3 3 3 3 3 3 3 3 3 3 3 3 3 3 3 3 3 3 3 3 3 3 3 3 3 3 3 3 3 3 3 3 3 3 3 3 3 3 3 3 3 3 3 3 3</vcount>
                    <p>2 2 1 1 0 0 3 3 1 1 2 2 5 5 0 0 4 4 2 2 0 0 5 5 7 7 4 4 6 6 5 5 4 4 7 7 9 9 6 6 8 8 7 7 6 6 9 9 11 11 8 8 10 10 9 9 8 8 11 11 1 1 12 12 0 0 13 13 12 12 1 1 0 0 14 14 4 4 12 12 14 14 0 0 4 4 15 15 6 6 14 14 15 15 4 4 18 18 17 17 16 16 19 19 17 17 18 18 11 11 18 18 16 16 20 9 18 18 11 11 14 14 22 21 21 20 12 12 22 21 14 14 15 15 21 20 23 22 14 14 21 20 15 15 26 25 25 24 24 23 27 26 25 24 26 25 27 26 28 27 25 24 29 28 28 27 27 26 29 28 30 29 28 27 31 30 30 29 29 28 34 32 33 28 32 31 35 30 33 28 34 32 38 1 37 12 36 13 39 0 37 12 38 1 41 14 40 21 37 12 42 20 40 21 41 14 32 31 44 26 43 33 33 28 44 26 32 31 43 33 46 25 45 34 44 26 46 25 43 33 47 35 35 30 34 32 48 36 35 30 47 35 11 11 49 8 20 9 10 10 49 8 11 11 20 9 51 6 50 7 49 8 51 6 20 9 50 7 53 4 52 5 51 6 53 4 50 7 52 5 39 0 54 2 53 4 39 0 52 5 54 2 38 1 55 3 39 0 38 1 54 2 56 37 32 31 43 33 57 38 32 31 56 37 57 38 34 32 32 31 58 39 34 32 57 38 11 11 59 18 9 9 16 16 59 18 11 11 59 18 17 17 60 19 16 16 17 17 59 18 38 1 61 40 55 3 62 41 61 40 38 1 36 13 62 41 38 1 63 42 62 41 36 13 39 0 41 14 37 12 53 4 41 14 39 0 13 13 62 41 63 42 1 1 62 41 13 13 1 1 61 40 62 41 3 3 61 40 1 1 53 4 64 15 41 14 51 6 64 15 53 4 66 44 24 23 65 43 26 25 24 23 66 44 58 39 67 45 47 35 68 46 67 45 58 39 69 47 58 39 57 38 68 46 58 39 69 47 65 43 71 48 70 23 72 49 71 48 65 43 70 23 74 50 73 24 71 48 74 50 70 23 73 24 76 47 75 27 74 50 76 47 73 24 75 27 78 46 77 29 76 47 78 46 75 27 79 50 57 38 56 37 69 47 57 38 79 50 81 39 80 45 78 46 82 35 80 45 81 39 76 47 81 39 78 46 83 38 81 39 76 47 74 50 83 38 76 47 84 37 83 38 74 50 71 48 84 37 74 50 85 51 84 37 71 48 72 49 85 51 71 48 86 52 85 51 72 49 88 48 56 37 87 51 79 50 56 37 88 48 72 49 87 51 86 52 88 48 87 51 72 49 45 34 90 44 89 53 46 25 90 44 45 34 86 52 45 34 89 53 87 51 45 34 86 52 93 56 92 55 91 54 94 57 92 55 93 56 87 51 43 33 45 34 56 37 43 33 87 51 65 43 88 48 72 49 24 23 88 48 65 43 82 35 96 30 95 36 97 32 96 30 82 35 100 33 99 25 98 26 101 34 99 25 100 33 103 31 98 26 102 28 100 33 98 26 103 31 97 32 102 28 96 30 103 31 102 28 97 32 24 23 79 50 88 48 25 24 79 50 24 23 101 34 90 44 99 25 89 53 90 44 101 34 86 52 101 34 85 51 89 53 101 34 86 52 85 51 100 33 84 37 101 34 100 33 85 51 84 37 103 31 83 38 100 33 103 31 84 37 83 38 97 32 81 39 103 31 97 32 83 38 25 24 69 47 79 50 28 27 69 47 25 24 28 27 68 46 69 47 30 29 68 46 28 27 66 44 70 23 104 25 65 43 70 23 66 44 104 25 73 24 105 26 70 23 73 24 104 25 105 26 75 27 106 28 73 24 75 27 105 26 106 28 77 29 107 30 75 27 77 29 106 28 110 56 109 55 108 57 111 54 109 55 110 56 64 15 42 20 41 14 112 22 42 20 64 15 113 58 47 35 67 45 114 59 30 29 31 30 67 60 30 29 114 59 114 59 115 61 67 45 67 45 68 46 30 29 116 62 47 35 113 58 113 58 67 45 115 61 42 20 112 22 117 63 93 56 119 65 118 64 122 68 121 67 120 66 125 71 124 70 123 69 120 66 126 73 119 72 127 74 125 71 123 69 49 8 64 15 51 6 63 42 40 21 128 17 112 22 64 15 129 75 128 17 40 21 117 63 40 21 42 20 117 63 110 56 131 64 130 65 133 67 120 66 132 76 121 67 126 76 120 66 135 58 134 61 80 45 136 62 135 58 82 35 80 45 77 29 78 46 137 59 80 45 134 61 80 60 137 59 77 29 137 59 107 30 77 29 135 58 80 45 82 35 81 39 97 32 82 35 95 36 136 62 82 35 63 42 36 13 40 21 18 18 50 7 52 5 18 18 20 9 50 7 54 2 19 19 52 5 55 3 19 19 54 2 19 19 61 40 17 17 18 18 52 5 19 19 140 74 139 77 138 69 143 80 142 79 141 78 111 82 139 77 144 81 140 74 144 81 139 77 147 71 146 70 145 83 148 84 130 72 145 83 120 66 145 83 130 72 144 81 149 85 111 82 143 80 141 78 109 86 110 56 108 57 131 64 132 87 130 65 131 64 149 85 143 80 111 82 111 82 143 80 109 86 122 68 120 66 133 67 151 83 150 84 124 70 63 42 128 17 22 21 8 8 6 6 15 15 59 18 60 19 5 5 60 19 17 17 61 40 3 3 2 2 60 19 2 2 5 5 60 19 59 18 7 7 9 9 59 18 5 5 7 7 154 80 153 78 152 79 91 82 156 81 155 77 127 74 155 77 156 81 125 71 151 83 124 70 150 84 151 83 119 72 120 66 119 72 151 83 156 81 91 82 157 85 154 80 92 86 153 78 93 56 118 64 94 57 126 87 118 64 119 65 157 85 91 82 154 80 91 82 92 86 154 80 58 39 47 35 34 32 49 8 129 75 64 15 49 8 10 10 129 75 112 22 129 75 117 63 36 13 37 12 40 21 61 40 19 19 55 3 48 36 47 35 116 62 63 42 22 21 13 13 8 8 15 15 129 75 8 8 129 75 10 10 23 22 117 63 129 75 13 13 22 21 12 12 61 40 3 3 60 19 120 66 130 72 132 73 147 71 138 69 146 70 145 83 146 70 148 84 127 74 123 69 155 77 140 74 138 69 147 71 21 20 117 63 23 22 22 21 117 63 21 20 128 17 117 63 22 21 23 22 129 75 15 15</p>
                </polylist>
            </mesh>
        </geometry>
        <geometry id="mesh1">
            <mesh>
                <source id="points1">
                    <float_array id="pointarray1" count="1110">54.0546875 6.75 22.046875 60.3671875 10.8125 21.296875 54.9609375 6.109375 21.1484375 60.7265625 9.96875 20.421875 66.703125 14.59375 18.5546875 65.84375 13.265625 18 76.7578125 18.3984375 6.9296875 77.1015625 17.3046875 6.609375 72.9765625 16.9765625 12.0859375 73.5625 16.140625 11.6015625 75.65625 15.859375 5.90625 72.375 14.9375 10.6796875 64.5625 12.140625 14.8984375 60.6796875 9.59375 16.5078125 54.953125 5.71875 17.109375 73.1640625 24.8046875 7.1484375 78.109375 19 0 74.6015625 24.1875 0 78.265625 17.8359375 0 76.7265625 16.4765625 0 71.8828125 23.5 0 70.9375 22.9609375 6.0859375 64.9453125 13.5078125 14.7734375 54.5234375 15.0625 19.6328125 61.1796875 18.0703125 15.7734375 70.7734375 15.421875 11 47.6171875 10.9765625 20.21875 59.9609375 7.328125 27.296875 61.15625 6.8984375 24.5078125 62.859375 0.5 26.7109375 64.2578125 0.5546875 23.9296875 57.859375 -18.171875 12.4375 65.6953125 -15.953125 16.3125 60.3515625 -19.8203125 9.0390625 68.75 -18.4609375 10.2578125 56.5078125 -15.0859375 17.5 61.578125 -13.0703125 20.2578125 58 -16.8984375 14.9453125 80.0859375 -13.7890625 0 83.1328125 -14.0546875 0 81.671875 -4.390625 0 83.8984375 -6.0625 0 75.6015625 -11.0859375 -12.75 69.4375 -8.15625 -17.2109375 76.7578125 -3.9375 -11.734375 73.15625 -3.7265625 -14.8671875 59.375 -3.6875 -23.6953125 67.078125 -5.015625 -21.21875 60.6953125 1.90625 -23.09375 68.4296875 -0.3671875 -20.9609375 78.6875 -12.9140625 -7.078125 80.328125 -3.8984375 -6.2734375 61.546875 0.8828125 -17.53125 67.453125 -0.3359375 -16.7578125 59.8046875 -5.6171875 -20.2578125 64.6171875 -5.71875 -19.296875 61.0234375 2.8125 -22.265625 68.6796875 0.9375 -20.2265625 73.8515625 -2.0859375 -18.4375 73.7890625 -0.4453125 -17.796875 82.4609375 -5.34375 -7.2578125 82.109375 -4.1875 -7.0390625 79.25 -3.828125 -13.390625 79.1640625 -2.8515625 -12.671875 77.6015625 -2.6484375 -11.546875 72.640625 -1.796875 -15.046875 81.296875 -12.9765625 -8.3046875 79.25 -3.828125 13.3828125 76.7578125 -3.9375 11.734375 79.1640625 -2.8515625 12.671875 77.6015625 -2.6484375 11.5390625 61.0234375 2.8125 22.265625 60.6953125 1.90625 23.09375 61.546875 0.8828125 17.53125 59.8046875 -5.609375 20.2578125 82.125 -11.0234375 12.9609375 80.375 -9 13.375 84.90625 -12.53125 6.625 83.671875 -10.75 6.984375 77.1328125 -7.3046875 17.7578125 78.3046875 -9.140625 18.2109375 76.7734375 -12.3984375 17.625 80.5859375 -14.171875 12.5390625 73 -6.7734375 22.0625 70.5703125 -9.90625 22.1484375 77.0390625 25.140625 5.9453125 75.7421875 23.3828125 5.75 74.4609375 24.203125 11.78125 73.21875 22.6171875 11.1484375 72.609375 27.640625 11.8515625 75.2109375 28.5546875 5.84375 64.7578125 19.8359375 21.5 62.046875 22.765625 22.3984375 69.921875 22.609375 17.15625 68.40625 25.90625 17.3046875 60.1484375 16.5703125 24.6796875 58.4375 17.90625 25.6875 68.8515625 20.859375 16.53125 63.6328125 17.8046875 20.3984375 70.4453125 29.0234375 9.9296875 72.6015625 29.7265625 4.1171875 66.8671875 27.65625 15.140625 85.875 -13.203125 0 84.8203125 -11.3671875 0 77.7890625 25.53125 0 76.5078125 23.6875 0 76.2109375 28.9296875 0 73.375 29.9765625 0 46.890625 11.46875 31.0703125 48.1328125 16.109375 29.8046875 56.0078125 8.0078125 29.4375 56.9296875 15.125 27.2578125 66.125 -3.4921875 24.9765625 71.7890625 -4.8203125 20.9921875 67.078125 -2.40625 22.7421875 60.7265625 9.96875 -20.421875 60.3671875 10.8125 -21.296875 54.9609375 6.109375 -21.1484375 54.0546875 6.75 -22.046875 54.5234375 15.0625 -19.640625 60.6796875 9.59375 -16.515625 47.6171875 10.9765625 -20.21875 54.953125 5.71875 -17.1171875 75.65625 15.859375 -5.90625 70.7734375 15.421875 -11.0078125 70.9375 22.9609375 -6.09375 67.3515625 20.78125 -11.0546875 56.03125 16.7734375 -21.6484375 47.8984375 10.90625 -23.53125 65.2265625 13.578125 -15.0859375 61.1796875 18.0703125 -15.7734375 60.2890625 12.796875 -23.6875 61.078125 15.6796875 -22.421875 59.09375 13.7578125 -26.109375 60.1484375 16.5703125 -24.6875 67.421875 20.46875 11.0546875 47.8984375 10.90625 23.53125 56.03125 16.7734375 21.6484375 61.078125 15.6796875 22.4140625 59.09375 13.7578125 26.1015625 60.2890625 12.796875 23.6875 65.84375 13.265625 -18.0078125 66.703125 14.59375 -18.5546875 73.5625 16.140625 -11.6015625 77.1015625 17.3046875 -6.6171875 72.9765625 16.9765625 -12.09375 76.7578125 18.3984375 -6.9296875 72.375 14.9375 -10.6796875 64.84375 12.2109375 -15.21875 73.2890625 24.28125 -7.15625 64.2578125 0.5546875 -23.9296875 61.15625 6.8984375 -24.5078125 62.859375 0.5 -26.71875 59.9609375 7.328125 -27.296875 68.75 -18.4609375 -9.90625 65.6953125 -15.953125 -15.59375 60.3515625 -19.8203125 -9.046875 57.859375 -18.171875 -12.4375 61.578125 -13.0703125 -19.9140625 58 -16.8984375 -14.9453125 56.5078125 -15.0859375 -17.5078125 66.8671875 27.65625 -15.140625 60.1484375 28.0703125 -17.1953125 62.046875 22.765625 -22.3984375 56.7734375 25.3671875 -21.046875 66.6953125 -32.3671875 -4.8828125 64.0625 -34.0078125 -3.8125 66.9296875 -32.1875 -2.421875 64.3125 -33.7578125 0 66.3125 -27.2109375 -2.828125 65.984375 -27.5859375 -5.203125 64.3359375 -24.3984375 0 64.1953125 -24.9765625 -2.171875 66.0859375 -25.15625 0 65.9375 -25.609375 -1.5390625 64 -25.4609375 -3.828125 65.4296875 -26.0078125 -2.671875 56.3359375 25.3671875 21.0703125 60.1484375 28.0703125 17.1953125 83.484375 -4.8046875 0 83.671875 -10.75 -6.9921875 80.375 -9 -13.3828125 84.90625 -12.53125 -6.625 82.125 -11.0234375 -12.96875 78.3046875 -9.140625 -18.2109375 77.1328125 -7.3046875 -17.765625 80.5859375 -14.171875 -12.4609375 76.7734375 -12.3984375 -17.6328125 70.5703125 -9.90625 -22.15625 73 -6.7734375 -22.0625 73.21875 22.6171875 -11.15625 75.7421875 23.3828125 -5.75 74.4609375 24.203125 -11.7890625 77.0390625 25.140625 -5.9453125 75.2109375 28.5546875 -5.84375 72.609375 27.640625 -11.859375 68.40625 25.90625 -17.3046875 69.921875 22.609375 -17.15625 64.7578125 19.8359375 -21.5078125 58.4375 17.90625 -25.6875 63.6328125 17.8046875 -20.40625 68.8515625 20.859375 -16.53125 72.6015625 29.7265625 -4.125 70.4453125 29.0234375 -9.9296875 67.078125 -2.40625 -22.7421875 66.125 -3.4921875 -24.984375 71.7890625 -5.1875 -21 56.9296875 15.125 -27.2578125 48.1328125 16.109375 -29.8125 56.0078125 8.0078125 -29.4375 47.3515625 11.46875 -31.0703125 53.359375 -38.7734375 -19.1015625 57.9765625 -36.84375 -15.390625 54.7421875 -37.6640625 -20.671875 59.4140625 -35.7578125 -17.6875 63 -33.9609375 13.375 60.9765625 -35.5078125 12.6484375 59.4140625 -35.7578125 17.6796875 57.2265625 -37.1640625 16.5234375 54.7421875 -37.6640625 20.671875 53.359375 -38.6875 19.015625 61.609375 -35.2109375 -11.2578125 63 -33.9609375 -13.375 48.6640625 -40.8359375 -22.1953125 51.171875 -39.1640625 -22.2421875 63.703125 -25.640625 -5.1875 62 -26.453125 -8.859375 64.7578125 -28.4765625 -9.09375 65.5625 -32.890625 -8.9375 63.1953125 -34.53125 -8.1796875 69.4140625 -21.7890625 0 63.6953125 -22.3515625 0 68.359375 -20.9453125 4.8046875 62.4921875 -21.53125 4.46875 54.703125 -24.5078125 -19.0078125 54.78125 -23.5703125 -16.0390625 56.328125 -20.171875 -17.34375 55.890625 -20.65625 -14.59375 64.1953125 -24.9765625 2.171875 65.9375 -25.609375 1.5390625 71.1796875 -20.0625 4.6875 71.71875 -20.59375 0 52.140625 -24.1484375 -22.1484375 49.5546875 -23.7578125 -22.7109375 51.2890625 -28.7890625 -22.90625 48.6640625 -27.1328125 -23.3359375 53.828125 -19.359375 -20.65625 52.3515625 -17.671875 -20.53125 54.2265625 -28.75 -19.8515625 54.2421875 -27.8515625 -17.4296875 73.15625 -3.7265625 14.859375 69.4375 -8.15625 17.203125 75.6015625 -11.0859375 12.75 54.3125 -28.4140625 19.8515625 51.2890625 -28.7890625 22.90625 54.703125 -24.5078125 19.0078125 52.140625 -24.1484375 22.140625 62.1171875 -29.96875 13.6171875 59.0234375 -28.078125 13.4921875 64.7578125 -28.4765625 9.0859375 62 -26.453125 8.8515625 65.5625 -32.890625 8.9296875 66.6953125 -32.3671875 4.875 65.984375 -27.5859375 5.203125 66.9296875 -32.1875 2.4140625 66.3125 -27.2109375 2.828125 65.4296875 -26.0078125 2.6640625 64 -25.4609375 3.828125 68.359375 -20.9453125 -4.8046875 71.1796875 -20.0625 -4.6953125 63.1953125 -34.53125 8.171875 64.0625 -34.0078125 3.8046875 54.78125 -23.5703125 16.03125 53.8203125 -27.8515625 17.15625 49.9921875 -22.6796875 22.4453125 51.6796875 -18.921875 20.984375 53.828125 -19.359375 20.6484375 55.890625 -20.65625 14.59375 56.328125 -20.171875 17.34375 48.59375 -28.2578125 23.5078125 54.484375 -14.078125 18.2421875 62.4921875 -21.53125 -4.46875 63.703125 -25.640625 5.1796875 51.171875 -39.1640625 22.2421875 48.6640625 -40.8359375 22.1796875 81.296875 -12.9765625 8.296875 82.4609375 -5.34375 7.2578125 64.6171875 -5.71875 19.2890625 67.453125 -0.3359375 16.75 68.6796875 0.9375 20.21875 68.4296875 -0.3671875 20.953125 73.7890625 -0.4453125 17.7890625 73.8515625 -2.0859375 18.4296875 82.109375 -4.1875 7.03125 80.328125 -3.8984375 6.265625 54.484375 -14.078125 -18.2578125 72.640625 -1.796875 15.0390625 59.0234375 -28.078125 -13.4921875 62.1171875 -29.96875 -13.625 78.6875 -12.9140625 7.0703125 67.078125 -5.015625 21.2109375 59.375 -3.6875 23.6875 47.34375 4.3203125 30.40625 51.8125 3.015625 30.3125 63.7265625 30.6328125 11.0546875 50.34375 -8.03125 24.2578125 64.0390625 -6.046875 25.796875 56.9140625 -10.4765625 22.890625 73.15625 -17.515625 10.9375 71.8828125 -7.578125 -19.765625 59.0390625 1.328125 28.7265625 71.8828125 -7.578125 19.765625 77.765625 -4.359375 16.703125 75.2890625 -8.90625 17.5078125 77.7578125 -10.8671875 14.1484375 51.03125 20.609375 26.4296875 78.265625 0.1328125 13.8515625 83.296875 -15.7734375 0 51.03125 20.609375 -26.4375 51.8125 3.015625 -30.3125 58.484375 -31.9921875 -17.4375 54.453125 -34.4140625 -20.1875 65.90625 32.2421875 0 63.7265625 30.6328125 -11.0546875 64.0390625 -6.046875 -25.8046875 54.1875 -31 -17.8828125 59.0390625 1.328125 -28.7265625 50.8828125 -35.671875 22.9140625 54.453125 -34.4140625 20.1875 50.8828125 -35.671875 -22.9140625 55.84375 -29.8125 -16.390625 47.96875 -36.7265625 -23.1796875 67.1484375 -27.3125 -2.25 67.625 -27 0 67.1484375 -27.3125 2.25 73.15625 -17.515625 -10.9453125 76.9609375 -18.484375 -6.09375 56.9140625 -10.4765625 -22.546875 54.484375 -14.078125 -18.2421875 67.171875 -32.171875 0 47.8828125 -32.78125 -23.6484375 69.78125 18.421875 -15.4453125 70.265625 22.5703125 -12.921875 67.5625 21.7109375 -16.359375 78.4453125 -18.8046875 0 50.34375 -8.03125 -24.265625 47.34375 4.3203125 -30.40625 48.1875 -1.3828125 -28.4296875 76.9609375 -18.484375 6.09375 56.75 -3.7109375 -27.6171875 56.75 -3.7109375 27.6171875 48.1875 -1.3828125 28.421875 63.109375 20.1328125 -19.046875 72.171875 13.0390625 -13.9609375 64.859375 -19.8046875 -7.3671875 67.5625 21.7109375 16.3515625 69.78125 18.421875 15.4375 63.109375 20.1328125 18.53125 58.484375 -31.9921875 17.4296875 54.1875 -31 17.875 47.96875 -36.7265625 23.1640625 47.96875 -32.78125 23.6328125 55.84375 -29.8125 16.3828125 64.859375 -19.8046875 7.3671875 70.265625 22.5703125 12.921875 72.171875 13.0390625 13.953125 77.765625 -4.359375 -16.7109375 77.7578125 -10.8671875 -14.15625 78.265625 0.1328125 -13.859375 75.2890625 -8.90625 -17.515625</float_array>
                    <technique_common>
                        <accessor count="370" source="#pointarray1" stride="3">
                            <param name="X" type="float"/>
                            <param name="Y" type="float"/>
                            <param name="Z" type="float"/>
                        </accessor>
                    </technique_common>
                </source>
                <source id="uvs1">
                    <float_array id="uvarray1" count="510">0.61492919921875 0.61932373046875 0.6600341796875 0.62030029296875 0.615234375 0.61260986328125 0.659912109375 0.61383056640625 0.70513916015625 0.6217041015625 0.705078125 0.61505126953125 0.79058837890625 0.62481689453125 0.7904052734375 0.61883544921875 0.74969482421875 0.6231689453125 0.7496337890625 0.61712646484375 0.79095458984375 0.60552978515625 0.7498779296875 0.6036376953125 0.70794677734375 0.58941650390625 0.662109375 0.58740234375 0.6160888671875 0.5843505859375 0.7906494140625 0.6700439453125 0.83892822265625 0.62591552734375 0.840576171875 0.669189453125 0.83868408203125 0.6201171875 0.83819580078125 0.6087646484375 0.70513916015625 0.62127685546875 0.65716552734375 0.6650390625 0.70086669921875 0.667724609375 0.70513916015625 0.62164306640625 0.5955810546875 0.67047119140625 0.59814453125 0.61370849609375 0.320556640625 0.2283935546875 0.29962158203125 0.238525390625 0.28076171875 0.28387451171875 0.268310546875 0.273193359375 0.2125244140625 0.4974365234375 0.1832275390625 0.4625244140625 0.1807861328125 0.51177978515625 0.1326904296875 0.47711181640625 0.26806640625 0.4493408203125 0.23480224609375 0.43939208984375 0.2520751953125 0.47210693359375 0.838134765625 0.66925048828125 0.83953857421875 0.66851806640625 0.83831787109375 0.610107421875 0.83953857421875 0.6187744140625 0.838134765625 0.6683349609375 0.83953857421875 0.66925048828125 0.8382568359375 0.6187744140625 0.83953857421875 0.610107421875 0.748779296875 0.669921875 0.70367431640625 0.66705322265625 0.75 0.62396240234375 0.70574951171875 0.62255859375 0.61016845703125 0.6697998046875 0.66119384765625 0.66461181640625 0.6156005859375 0.6204833984375 0.6607666015625 0.62152099609375 0.79193115234375 0.66937255859375 0.793701171875 0.607177734375 0.6629638671875 0.589599609375 0.61029052734375 0.6697998046875 0.66131591796875 0.66461181640625 0.615966796875 0.614013671875 0.66082763671875 0.61492919921875 0.7056884765625 0.61639404296875 0.79327392578125 0.62554931640625 0.79315185546875 0.61981201171875 0.74993896484375 0.618408203125 0.75018310546875 0.6053466796875 0.70660400390625 0.591552734375 0.61676025390625 0.586669921875 0.8389892578125 0.61700439453125 0.839111328125 0.6689453125 0.6041259765625 0.6151123046875 0.597900390625 0.6700439453125 0.10345458984375 0.36456298828125 0.1055908203125 0.35162353515625 0.0584716796875 0.37493896484375 0.06622314453125 0.36322021484375 0.15228271484375 0.33575439453125 0.15032958984375 0.35076904296875 0.15460205078125 0.3895263671875 0.10003662109375 0.4031982421875 0.20623779296875 0.329833984375 0.20440673828125 0.3724365234375 0.05157470703125 0.21038818359375 0.04925537109375 0.22857666015625 0.08758544921875 0.211181640625 0.08544921875 0.22967529296875 0.08740234375 0.18902587890625 0.0513916015625 0.18743896484375 0.18035888671875 0.211181640625 0.181396484375 0.1864013671875 0.1361083984375 0.2110595703125 0.135009765625 0.18719482421875 0.2237548828125 0.2127685546875 0.22509765625 0.18658447265625 0.135498046875 0.22869873046875 0.17962646484375 0.2279052734375 0.08587646484375 0.1597900390625 0.04754638671875 0.15789794921875 0.611328125 0.67022705078125 0.1185302734375 0.16217041015625 0.0064697265625 0.37445068359375 0.005615234375 0.36407470703125 0.00634765625 0.20953369140625 0.005615234375 0.2261962890625 0.00665283203125 0.185791015625 0.00665283203125 0.15478515625 0.35540771484375 0.1890869140625 0.30975341796875 0.15069580078125 0.338623046875 0.2171630859375 0.27520751953125 0.1937255859375 0.24072265625 0.30841064453125 0.2091064453125 0.3126220703125 0.23651123046875 0.294677734375 0.7484130859375 0.67059326171875 0.26361083984375 0.2298583984375 0.22198486328125 0.22869873046875 0.2725830078125 0.21337890625 0.14996337890625 0.0911865234375 0.20208740234375 0.10302734375 0.3236083984375 0.5179443359375 0.3133544921875 0.53155517578125 0.30023193359375 0.51641845703125 0.27691650390625 0.529541015625 0.30181884765625 0.487548828125 0.32666015625 0.48980712890625 0.248291015625 0.51739501953125 0.22137451171875 0.518798828125 0.2362060546875 0.5242919921875 0.31353759765625 0.47210693359375 0.29852294921875 0.48309326171875 0.83880615234375 0.611328125 0.8388671875 0.608642578125 0.839111328125 0.6688232421875 0.45941162109375 0.57122802734375 0.4239501953125 0.55511474609375 0.47442626953125 0.56195068359375 0.44586181640625 0.546142578125 0.40472412109375 0.53118896484375 0.397705078125 0.5440673828125 0.44580078125 0.546142578125 0.43475341796875 0.55780029296875 0.474365234375 0.56195068359375 0.45855712890625 0.57049560546875 0.3826904296875 0.53973388671875 0.4971923828125 0.59063720703125 0.4893798828125 0.574462890625 0.32647705078125 0.4736328125 0.36151123046875 0.4788818359375 0.36383056640625 0.49566650390625 0.3623046875 0.522216796875 0.3551025390625 0.53594970703125 0.00927734375 0.502685546875 0.0089111328125 0.54443359375 0.085693359375 0.49969482421875 0.076416015625 0.541259765625 0.45855712890625 0.45257568359375 0.43011474609375 0.44476318359375 0.442626953125 0.41650390625 0.4163818359375 0.4205322265625 0.221435546875 0.518798828125 0.08404541015625 0.4771728515625 0.00927734375 0.48175048828125 0.488525390625 0.4495849609375 0.5020751953125 0.4486083984375 0.49578857421875 0.4881591796875 0.508056640625 0.4766845703125 0.41973876953125 0.3892822265625 0.39581298828125 0.39984130859375 0.4742431640625 0.40972900390625 0.48126220703125 0.39801025390625 0.467041015625 0.48504638671875 0.44342041015625 0.48040771484375 0.466552734375 0.48504638671875 0.4957275390625 0.4881591796875 0.45849609375 0.45257568359375 0.48846435546875 0.4495849609375 0.40704345703125 0.50439453125 0.40582275390625 0.4886474609375 0.36376953125 0.49566650390625 0.36224365234375 0.522216796875 0.32354736328125 0.5179443359375 0.3017578125 0.487548828125 0.2984619140625 0.48309326171875 0.3134765625 0.47210693359375 0.08673095703125 0.49969482421875 0.0850830078125 0.4771728515625 0.35504150390625 0.53594970703125 0.31329345703125 0.53155517578125 0.4407958984375 0.48040771484375 0.49957275390625 0.43963623046875 0.48553466796875 0.40838623046875 0.47418212890625 0.40972900390625 0.395751953125 0.39984130859375 0.41632080078125 0.4205322265625 0.419677734375 0.3892822265625 0.44256591796875 0.41650390625 0.5096435546875 0.48602294921875 0.45941162109375 0.36810302734375 0.44415283203125 0.37420654296875 0.07745361328125 0.541259765625 0.0096435546875 0.545166015625 0.49700927734375 0.59063720703125 0.45953369140625 0.36810302734375 0.4071044921875 0.50439453125 0.3648681640625 0.27679443359375 0.34649658203125 0.2694091796875 0.0863037109375 0.08099365234375 0.33538818359375 0.39715576171875 0.24920654296875 0.3497314453125 0.286376953125 0.41119384765625 0.13232421875 0.47711181640625 0.1041259765625 0.444580078125 0.3079833984375 0.3011474609375 0.72833251953125 0.62957763671875 0.72601318359375 0.6649169921875 0.263671875 0.12432861328125 0.73089599609375 0.60711669921875 0.838623046875 0.61102294921875 0.8392333984375 0.61126708984375 0.00701904296875 0.40924072265625 0.4434814453125 0.51708984375 0.47406005859375 0.53497314453125 0.0048828125 0.07269287109375 0.44775390625 0.50872802734375 0.49578857421875 0.54541015625 0.4739990234375 0.53497314453125 0.495849609375 0.54541015625 0.4334716796875 0.4990234375 0.50653076171875 0.55645751953125 0.22967529296875 0.53411865234375 0.2115478515625 0.53173828125 0.21771240234375 0.55596923828125 0.248291015625 0.53179931640625 0.21392822265625 0.52447509765625 0.21160888671875 0.53173828125 0.06646728515625 0.440673828125 0.29296875 0.43072509765625 0.27691650390625 0.51495361328125 0.51104736328125 0.52362060546875 0.72943115234375 0.6376953125 0.7239990234375 0.6707763671875 0.0068359375 0.43536376953125 0.248291015625 0.55450439453125 0.2176513671875 0.55596923828125 0.3359375 0.39715576171875 0.358154296875 0.31732177734375 0.29693603515625 0.33282470703125 0.73211669921875 0.60546875 0.29522705078125 0.47509765625 0.13323974609375 0.49981689453125 0.44769287109375 0.50872802734375 0.50640869140625 0.55645751953125 0.51092529296875 0.52362060546875 0.43341064453125 0.4990234375 0.17974853515625 0.51177978515625 0.1322021484375 0.49981689453125</float_array>
                    <technique_common>
                        <accessor count="255" source="#uvarray1" stride="2">
                            <param name="S" type="float"/>
                            <param name="T" type="float"/>
                        </accessor>
                    </technique_common>
                </source>
                <vertices id="vertices1">
                    <input semantic="POSITION" source="#points1"/>
                </vertices>
                <polylist count="612" material="Material1">
                    <input offset="0" semantic="VERTEX" source="#vertices1"/>
                    <input offset="1" semantic="TEXCOORD" source="#uvs1" set="0"/>
                    <vcount>3 3 3 3 3 3 3 3 3 3 3 3 3 3 3 3 3 3 3 3 3 3 3 3 3 3 3 3 3 3 3 3 3 3 3 3 3 3 3 3 3 3 3 3 3 3 3 3 3 3 3 3 3 3 3 3 3 3 3 3 3 3 3 3 3 3 3 3 3 3 3 3 3 3 3 3 3 3 3 3 3 3 3 3 3 3 3 3 3 3 3 3 3 3 3 3 3 3 3 3 3 3 3 3 3 3 3 3 3 3 3 3 3 3 3 3 3 3 3 3 3 3 3 3 3 3 3 3 3 3 3 3 3 3 3 3 3 3 3 3 3 3 3 3 3 3 3 3 3 3 3 3 3 3 3 3 3 3 3 3 3 3 3 3 3 3 3 3 3 3 3 3 3 3 3 3 3 3 3 3 3 3 3 3 3 3 3 3 3 3 3 3 3 3 3 3 3 3 3 3 3 3 3 3 3 3 3 3 3 3 3 3 3 3 3 3 3 3 3 3 3 3 3 3 3 3 3 3 3 3 3 3 3 3 3 3 3 3 3 3 3 3 3 3 3 3 3 3 3 3 3 3 3 3 3 3 3 3 3 3 3 3 3 3 3 3 3 3 3 3 3 3 3 3 3 3 3 3 3 3 3 3 3 3 3 3 3 3 3 3 3 3 3 3 3 3 3 3 3 3 3 3 3 3 3 3 3 3 3 3 3 3 3 3 3 3 3 3 3 3 3 3 3 3 3 3 3 3 3 3 3 3 3 3 3 3 3 3 3 3 3 3 3 3 3 3 3 3 3 3 3 3 3 3 3 3 3 3 3 3 3 3 3 3 3 3 3 3 3 3 3 3 3 3 3 3 3 3 3 3 3 3 3 3 3 3 3 3 3 3 3 3 3 3 3 3 3 3 3 3 3 3 3 3 3 3 3 3 3 3 3 3 3 3 3 3 3 3 3 3 3 3 3 3 3 3 3 3 3 3 3 3 3 3 3 3 3 3 3 3 3 3 3 3 3 3 3 3 3 3 3 3 3 3 3 3 3 3 3 3 3 3 3 3 3 3 3 3 3 3 3 3 3 3 3 3 3 3 3 3 3 3 3 3 3 3 3 3 3 3 3 3 3 3 3 3 3 3 3 3 3 3 3 3 3 3 3 3 3 3 3 3 3 3 3 3 3 3 3 3 3 3 3 3 3 3 3 3 3 3 3 3 3 3 3 3 3 3 3 3 3 3 3 3 3 3 3 3 3 3 3 3 3 3 3 3 3 3 3 3 3 3 3 3 3 3 3 3 3 3 3 3 3 3 3 3 3 3 3 3 3 3 3 3 3 3 3 3 3 3 3 3 3 3 3 3 3 3 3 3 3 3 3 3 3 3 3 3 3 3 3 3</vcount>
                    <p>2 2 1 1 0 0 3 3 1 1 2 2 1 1 5 5 4 4 3 3 5 5 1 1 8 8 7 7 6 6 9 9 7 7 8 8 7 7 11 11 10 10 9 9 11 11 7 7 5 5 13 13 12 12 3 3 13 13 5 5 13 13 2 2 14 14 3 3 2 2 13 13 16 16 15 15 6 6 17 17 15 15 16 16 6 6 18 18 16 16 7 7 18 18 6 6 18 18 10 10 19 19 7 7 10 10 18 18 19 19 21 15 20 17 10 10 21 15 19 19 5 5 22 20 4 4 12 12 22 20 5 5 24 22 13 1 23 21 22 23 13 1 24 22 9 9 25 8 11 11 8 8 25 8 9 9 14 25 0 0 26 24 2 2 0 0 14 25 29 28 28 27 27 26 30 29 28 27 29 28 33 32 32 31 31 30 34 33 32 31 33 32 37 36 36 35 35 34 32 31 36 35 37 36 40 39 39 38 38 37 41 40 39 38 40 39 41 43 38 42 39 41 40 44 38 42 41 43 44 47 43 46 42 45 45 48 43 46 44 47 48 51 47 50 46 49 49 52 47 50 48 51 50 53 44 47 42 45 51 54 44 47 50 53 54 56 53 55 52 51 55 57 53 55 54 56 56 58 49 52 48 51 57 59 49 52 56 58 49 52 59 60 58 48 57 59 59 60 49 52 62 47 61 62 60 61 63 63 61 62 62 47 61 62 64 64 51 54 63 63 64 64 61 62 59 60 53 55 65 65 57 59 53 55 59 60 53 55 56 58 52 66 57 59 56 58 53 55 41 67 66 53 60 61 39 68 66 53 41 67 69 63 68 47 67 47 70 64 68 47 69 63 73 69 72 51 71 58 74 70 72 51 73 69 40 39 39 38 41 40 38 37 39 38 40 39 41 43 38 42 40 44 39 41 38 42 41 43 77 73 76 72 75 71 78 74 76 72 77 73 80 76 76 72 79 75 75 71 76 72 80 76 82 78 80 76 81 77 75 71 80 76 82 78 84 80 80 76 83 79 81 77 80 76 84 80 87 83 86 82 85 81 88 84 86 82 87 83 85 81 89 85 87 83 90 86 89 85 85 81 93 89 92 88 91 87 94 90 92 88 93 89 91 87 96 92 95 91 92 88 96 92 91 87 93 89 98 94 97 93 91 87 98 94 93 89 90 86 99 95 89 85 100 96 99 95 90 86 26 97 13 1 14 0 23 21 13 1 26 97 87 83 94 90 93 89 89 85 94 90 87 83 89 85 101 98 94 90 99 95 101 98 89 85 102 99 78 74 77 73 103 100 78 74 102 99 85 81 105 102 104 101 86 82 105 102 85 81 104 101 90 86 85 81 106 103 90 86 104 101 106 103 100 96 90 86 107 104 100 96 106 103 110 107 109 106 108 105 111 108 109 106 110 107 113 110 112 109 83 79 114 111 112 109 113 110 80 76 113 110 83 79 79 75 113 110 80 76 114 111 29 28 112 109 30 29 29 28 114 111 117 2 116 1 115 3 118 0 116 1 117 2 121 97 120 1 119 21 122 0 120 1 121 97 125 15 124 8 123 10 126 112 124 8 125 15 118 0 127 21 116 1 128 97 127 21 118 0 124 8 130 22 129 20 126 112 130 22 124 8 133 115 132 114 131 113 134 91 132 114 133 115 21 15 25 8 135 112 10 10 25 8 21 15 0 0 137 21 136 97 1 1 137 21 0 0 25 8 24 22 135 112 22 20 24 22 25 8 139 115 138 114 95 91 140 113 138 114 139 115 95 91 111 108 139 115 96 92 111 108 95 91 27 26 140 113 139 115 28 27 140 113 27 26 116 1 141 5 115 3 142 4 141 5 116 1 145 8 144 7 143 9 146 6 144 7 145 8 144 7 147 11 143 9 123 10 147 11 144 7 141 5 120 13 115 3 148 12 120 13 141 5 120 13 117 2 115 3 122 14 117 2 120 13 16 16 149 15 17 17 146 6 149 15 16 16 146 6 18 18 144 7 16 16 18 18 146 6 18 18 123 10 144 7 19 19 123 10 18 18 19 19 125 15 123 10 20 17 125 15 19 19 141 5 129 20 148 12 142 4 129 20 141 5 130 22 120 1 129 23 119 21 120 1 130 22 143 9 124 8 145 8 147 11 124 8 143 9 122 25 118 0 117 2 121 24 118 0 122 25 152 28 151 27 150 29 153 26 151 27 152 28 156 32 155 31 154 33 157 30 155 31 156 32 159 36 158 35 155 31 160 34 158 35 159 36 163 88 162 116 161 98 164 117 162 116 163 88 40 39 39 38 41 40 38 37 39 38 40 39 41 43 38 42 40 44 39 41 38 42 41 43 167 120 166 119 165 118 168 121 166 119 167 120 167 120 170 123 169 122 165 118 170 123 167 120 173 124 172 125 171 124 174 126 172 125 173 124 88 84 93 89 97 93 87 83 93 89 88 84 176 128 170 123 175 127 169 122 170 123 176 128 101 98 177 117 92 88 178 116 177 117 101 98 60 61 179 129 41 67 61 62 179 129 60 61 179 129 51 54 40 130 61 62 51 54 179 129 40 130 50 53 38 131 51 54 50 53 40 130 59 60 45 48 58 48 65 65 45 48 59 60 43 46 53 55 55 57 45 48 53 55 43 46 63 63 44 47 64 64 62 47 44 47 63 63 52 69 48 51 54 70 56 58 48 51 52 69 40 39 39 38 38 37 41 40 39 38 40 39 41 43 38 42 39 41 40 44 38 42 41 43 182 73 181 72 180 74 183 71 181 72 182 73 184 76 181 72 183 71 185 75 181 72 184 76 186 78 184 76 183 71 187 77 184 76 186 78 188 80 184 76 187 77 189 79 184 76 188 80 192 83 191 82 190 84 193 81 191 82 192 83 193 81 195 85 194 86 192 83 195 85 193 81 197 89 163 88 196 90 198 87 163 88 197 89 198 87 199 92 163 88 134 91 199 92 198 87 197 89 200 94 198 87 201 93 200 94 197 89 194 86 203 95 202 96 195 85 203 95 194 86 190 84 197 89 192 83 201 93 197 89 190 84 192 83 196 90 195 85 197 89 196 90 192 83 195 85 161 98 203 95 196 90 161 98 195 85 102 99 180 74 103 100 182 73 180 74 102 99 193 81 105 102 191 82 104 101 105 102 193 81 104 101 194 86 106 103 193 81 194 86 104 101 106 103 202 96 107 104 194 86 202 96 106 103 206 110 205 109 204 111 189 79 205 109 206 110 184 76 206 110 185 75 189 79 206 110 184 76 204 111 152 28 150 29 205 109 152 28 204 111 209 107 208 106 207 108 210 105 208 106 209 107 153 26 131 113 151 27 133 115 131 113 153 26 134 91 207 108 199 92 133 115 207 108 134 91 213 134 212 133 211 132 214 135 212 133 213 134 217 138 216 137 215 136 218 139 216 137 217 138 219 140 218 139 217 138 220 141 218 139 219 140 214 135 221 142 212 133 222 136 221 142 214 135 224 144 211 132 223 143 213 134 211 132 224 144 170 123 226 146 225 145 227 147 226 146 170 123 228 148 170 123 165 118 227 147 170 123 228 148 165 118 229 149 228 148 166 119 229 149 165 118 232 152 231 151 230 150 233 153 231 151 232 152 236 156 235 155 234 154 237 157 235 155 236 156 239 126 171 124 238 158 173 124 171 124 239 126 232 152 241 160 240 159 230 150 241 160 232 152 244 163 243 162 242 161 245 164 243 162 244 163 159 165 237 157 236 156 157 166 237 157 159 165 242 161 247 168 246 167 243 162 247 168 242 161 234 154 249 170 248 169 235 155 249 170 234 154 228 148 221 142 222 136 229 149 221 142 228 148 68 47 251 46 250 48 252 45 251 46 68 47 255 173 254 172 253 171 256 174 254 172 255 173 259 177 258 176 257 175 260 146 258 176 259 177 257 175 261 178 259 177 215 136 261 178 257 175 264 120 263 123 262 179 265 180 263 123 264 120 266 181 263 123 265 180 267 182 263 123 266 181 268 183 241 160 230 150 269 184 241 160 268 183 261 178 216 137 270 185 215 136 216 137 261 178 264 120 271 186 168 121 262 179 271 186 264 120 255 173 273 187 272 155 253 171 273 187 255 173 256 174 275 189 274 188 276 190 275 189 256 174 37 193 277 192 31 191 278 194 277 192 37 193 254 172 274 188 279 195 256 174 274 188 254 172 276 190 280 196 275 189 35 197 280 196 276 190 278 194 272 155 277 192 255 173 272 155 278 194 262 179 270 185 271 186 261 178 270 185 262 179 261 178 263 123 259 177 262 179 263 123 261 178 268 183 231 199 281 198 230 150 231 199 268 183 263 123 260 146 259 177 282 145 260 146 263 123 283 144 220 141 219 140 284 200 220 141 283 144 41 67 285 53 39 68 286 61 285 53 41 67 74 56 288 55 287 57 73 51 288 55 74 56 71 58 290 52 289 59 72 51 290 52 71 58 234 154 244 163 242 161 248 169 244 163 234 154 290 52 291 60 289 59 292 48 291 60 290 52 286 61 179 129 293 62 41 67 179 129 286 61 179 129 294 54 293 62 40 130 294 54 179 129 246 167 295 201 160 197 247 168 295 201 246 167 291 60 288 55 289 59 296 65 288 55 291 60 251 46 288 55 250 48 287 57 288 55 251 46 288 55 71 58 289 59 73 66 71 58 288 55 227 147 297 176 226 146 298 202 297 176 227 147 298 202 228 148 222 136 227 147 228 148 298 202 291 60 250 48 296 65 292 48 250 48 291 60 293 62 70 64 69 63 294 54 70 64 293 62 67 47 293 62 69 63 286 61 293 62 67 47 40 130 299 53 294 54 38 131 299 53 40 130 72 51 300 50 290 52 301 49 300 50 72 51 299 53 68 47 294 54 252 45 68 47 299 53 303 204 108 105 302 203 27 26 139 115 111 108 304 205 101 98 99 95 288 55 296 65 250 48 307 208 306 207 305 206 308 210 34 209 240 159 101 98 92 88 94 90 72 51 74 70 301 49 278 194 37 193 35 197 278 194 276 190 255 173 48 51 46 49 54 70 53 55 45 48 65 65 58 48 309 46 47 50 27 26 110 107 310 211 313 213 312 212 311 46 313 213 314 45 312 212 92 88 177 117 315 214 111 108 110 107 27 26 67 47 314 45 285 53 250 48 292 48 316 215 250 48 316 215 68 47 32 31 84 80 36 35 112 109 306 207 83 79 316 215 292 48 312 212 70 64 294 54 68 47 292 48 290 52 300 50 67 47 285 53 286 61 312 212 292 48 311 46 41 43 40 44 179 216 40 39 41 40 179 217 77 73 82 78 317 218 308 210 32 31 34 209 84 80 306 207 307 208 75 71 82 78 77 73 292 48 300 50 311 46 77 73 317 218 102 99 163 88 318 214 164 117 209 107 319 204 210 105 297 176 298 202 320 219 321 220 320 219 214 135 323 205 322 221 203 95 189 79 188 80 324 207 249 170 325 222 248 169 325 222 320 219 321 220 153 26 326 211 209 107 200 94 132 114 198 87 328 224 254 172 327 223 320 219 298 202 214 135 163 88 199 92 318 214 321 220 329 225 244 163 330 226 297 176 320 219 321 220 214 135 213 134 329 225 321 220 213 134 325 222 321 220 248 169 224 144 223 143 331 227 120 13 148 12 129 20 246 167 160 197 236 156 118 0 121 24 128 97 224 144 329 225 213 134 167 230 169 229 332 228 173 124 239 126 333 231 236 156 234 154 246 167 239 126 334 228 333 231 183 71 182 73 186 78 265 233 334 228 266 232 176 232 174 126 332 228 170 123 225 145 175 127 186 78 336 234 335 210 187 77 335 210 155 31 186 78 317 218 336 234 187 77 186 78 335 210 158 35 337 208 188 80 202 96 322 221 107 104 158 35 338 235 337 208 155 31 157 30 159 36 168 121 167 120 339 236 245 164 244 163 340 237 325 222 330 226 320 219 155 31 158 35 188 80 205 109 189 79 324 207 340 237 329 225 331 227 248 169 321 220 244 163 298 202 222 136 214 135 322 221 202 96 203 95 343 239 342 112 341 238 207 108 208 106 199 92 199 92 208 106 318 214 336 234 344 240 269 159 344 240 241 160 269 159 207 108 153 26 209 107 174 126 173 124 333 231 41 43 40 44 179 216 40 39 41 40 179 217 167 242 333 231 339 241 338 235 345 243 337 208 347 244 346 203 319 204 209 107 326 211 319 204 335 210 336 234 269 159 308 210 240 159 348 234 349 245 319 204 326 211 345 206 349 245 324 207 351 244 350 245 303 204 351 244 305 206 350 245 350 245 310 211 303 204 349 245 326 211 324 207 347 244 319 204 349 245 351 244 303 204 302 203 142 4 352 22 341 238 145 8 353 246 341 238 145 8 124 8 353 246 342 112 145 8 341 238 353 246 142 4 341 238 129 4 353 246 124 8 129 20 142 4 353 246 145 8 342 112 149 15 142 4 127 21 352 22 265 233 264 230 334 228 236 156 160 197 159 165 333 231 264 230 339 241 329 225 224 144 331 227 264 120 168 121 339 236 176 128 175 127 172 247 147 11 123 10 124 8 142 4 116 1 127 21 145 8 149 15 146 6 352 22 343 239 341 238 234 154 242 161 246 167 153 26 152 28 326 211 244 163 329 225 340 237 317 218 344 240 336 234 314 45 67 47 312 212 67 47 68 47 316 215 99 95 322 221 304 205 348 234 240 159 344 240 344 240 240 159 241 160 110 107 108 105 303 204 100 96 322 221 99 95 83 79 306 207 84 80 67 47 316 215 312 212 158 35 160 34 338 235 154 33 354 248 156 32 269 159 354 248 154 33 132 114 134 91 198 87 332 228 174 126 333 231 357 22 356 238 355 239 8 8 6 6 15 15 4 4 137 21 1 1 11 11 25 8 10 10 328 224 217 138 358 219 359 249 328 224 358 219 328 224 359 249 253 171 253 171 254 172 328 224 361 251 360 250 327 223 359 249 358 219 362 252 279 195 361 251 254 172 363 254 33 253 233 153 233 153 232 152 363 254 240 159 363 254 232 152 276 190 278 194 35 197 40 39 179 217 41 40 41 43 179 216 40 44 283 144 360 250 284 200 138 114 91 87 95 91 240 159 34 33 363 248 34 33 33 32 363 248 36 35 280 235 35 34 257 175 217 138 215 136 32 31 37 36 31 30 36 35 307 208 280 235 100 96 107 104 322 221 36 35 84 80 307 208 109 106 111 108 96 92 315 214 109 106 96 92 253 171 359 249 273 187 0 0 136 97 26 24 327 223 219 140 328 224 13 13 22 20 12 12 328 224 219 140 217 138 362 252 358 219 258 176 4 4 357 22 137 21 8 8 15 15 364 112 22 20 365 246 4 4 22 4 25 8 365 246 365 246 356 238 4 4 364 112 356 238 8 8 8 8 365 246 25 8 8 8 356 238 365 246 4 4 356 238 357 22 358 219 217 138 257 175 355 239 356 238 364 112 101 98 304 205 178 116 92 88 315 214 96 92 98 94 91 87 138 114 29 28 310 211 112 109 350 245 306 207 310 211 350 245 305 206 306 207 112 109 310 211 306 207 84 80 32 31 81 77 366 212 309 46 58 48 62 47 60 61 66 53 58 48 47 50 49 52 64 64 44 47 51 54 254 172 361 251 327 223 327 223 360 250 283 144 317 218 348 234 344 240 258 176 358 219 257 175 27 26 310 211 29 28 335 210 269 159 154 209 163 88 161 98 196 90 337 208 345 206 324 207 269 184 268 183 354 248 266 232 334 228 239 126 267 182 266 181 238 247 281 198 354 248 268 183 323 205 203 95 161 98 161 98 162 116 323 205 266 232 239 126 238 125 153 26 207 108 133 115 176 232 172 125 174 126 319 204 346 203 210 105 182 73 102 99 317 218 169 229 176 232 332 228 334 228 264 230 333 231 354 248 281 198 156 32 332 228 333 231 167 242 81 77 308 210 82 78 82 78 348 234 317 218 81 77 32 31 308 210 82 78 308 210 348 234 62 47 66 53 367 45 45 48 368 215 58 48 45 48 44 47 368 215 368 215 366 212 58 48 367 45 366 212 62 47 62 47 368 215 44 47 62 47 366 212 368 215 369 213 309 46 366 212 283 144 219 140 327 223 369 213 366 212 367 45 110 107 303 204 310 211 280 235 307 208 305 243 152 28 205 109 326 211 263 123 267 182 282 145 347 244 349 245 345 206 205 109 324 207 326 211 188 80 187 77 155 31 188 80 337 208 324 207 335 210 154 209 155 31 182 73 317 218 186 78 255 173 276 190 256 174 40 39 179 217 41 40 41 43 179 216 40 44</p>
                </polylist>
            </mesh>
        </geometry>
        <geometry id="mesh2">
            <mesh>
                <source id="points2">
                    <float_array id="pointarray2" count="42">62.7890625 -24.265625 -4.7578125 61.7734375 -23.2890625 -6.1796875 61.4765625 -25.25 -9.390625 60.078125 -22.9765625 10.7890625 61.0546875 -22.6796875 8.1328125 61.4765625 -25.25 9.3828125 58.9609375 -24.1640625 12.484375 58.46875 -26.421875 13.234375 61.7734375 -23.2890625 6.1796875 62.7890625 -24.265625 4.75 61.0546875 -22.6796875 -8.1328125 60.078125 -22.9765625 -10.796875 58.9609375 -24.1640625 -12.4921875 58.46875 -26.421875 -13.2421875</float_array>
                    <technique_common>
                        <accessor count="14" source="#pointarray2" stride="3">
                            <param name="X" type="float"/>
                            <param name="Y" type="float"/>
                            <param name="Z" type="float"/>
                        </accessor>
                    </technique_common>
                </source>
                <source id="uvs2">
                    <float_array id="uvarray2" count="14">0.21539306640625 0.224853515625 0.3865966796875 0.14288330078125 0.5943603515625 0.36474609375 0.69915771484375 0.1458740234375 0.52740478515625 0.1134033203125 0.85455322265625 0.30206298828125 0.8968505859375 0.47894287109375</float_array>
                    <technique_common>
                        <accessor count="7" source="#uvarray2" stride="2">
                            <param name="S" type="float"/>
                            <param name="T" type="float"/>
                        </accessor>
                    </technique_common>
                </source>
                <vertices id="vertices2">
                    <input semantic="POSITION" source="#points2"/>
                </vertices>
                <polylist count="10" material="Material1">
                    <input offset="0" semantic="VERTEX" source="#vertices2"/>
                    <input offset="1" semantic="TEXCOORD" source="#uvs2" set="0"/>
                    <vcount>3 3 3 3 3 3 3 3 3 3</vcount>
                    <p>2 2 1 1 0 0 5 2 4 4 3 3 3 3 6 5 5 2 6 5 7 6 5 2 5 2 8 1 4 4 5 2 9 0 8 1 2 2 11 3 10 4 11 3 2 2 12 5 12 5 2 2 13 6 2 2 10 4 1 1</p>
                </polylist>
            </mesh>
        </geometry>
    </library_geometries>
    <library_visual_scenes>
        <visual_scene id="VisualSceneNode">
            <node id="node0" name="m0" type="NODE">
                <instance_geometry url="#mesh0">
                    <bind_material>
                        <technique_common>
                            <instance_material symbol="Material1" target="#mat0">
                                <bind_vertex_input semantic="UVSET0" input_semantic="TEXCOORD" input_set="0"></bind_vertex_input>
                            </instance_material>
                        </technique_common>
                    </bind_material>
                </instance_geometry>
            </node>
            <node id="node1" name="m1" type="NODE">
                <instance_geometry url="#mesh1">
                    <bind_material>
                        <technique_common>
                            <instance_material symbol="Material1" target="#mat1">
                                <bind_vertex_input semantic="UVSET0" input_semantic="TEXCOORD" input_set="0"></bind_vertex_input>
                            </instance_material>
                        </technique_common>
                    </bind_material>
                </instance_geometry>
            </node>
            <node id="node2" name="m2" type="NODE">
                <instance_geometry url="#mesh2">
                    <bind_material>
                        <technique_common>
                            <instance_material symbol="Material1" target="#mat2">
                                <bind_vertex_input semantic="UVSET0" input_semantic="TEXCOORD" input_set="0"></bind_vertex_input>
                            </instance_material>
                        </technique_common>
                    </bind_material>
                </instance_geometry>
            </node>
        </visual_scene>
    </library_visual_scenes>
    <scene>
        <instance_visual_scene url="#VisualSceneNode"></instance_visual_scene>
    </scene>
</COLLADA>
