<?xml version="1.0"?>
<COLLADA xmlns="http://www.collada.org/2005/11/COLLADASchema" version="1.4.1">
    <asset>
        <contributor>
            <authoring_tool>J3D Ripoff Exporter</authoring_tool>
        </contributor>
        <created>2024-08-18T17:24:54.794Z</created>
        <modified>2024-08-18T17:24:54.794Z</modified>
		<unit meter="0.01" name="centimeter" ></unit>
        <up_axis>Y_UP</up_axis>
    </asset>
    <library_images>
        <image id="tex0">
            <init_from>akebono_eye.png</init_from>
        </image>
        <image id="tex1">
            <init_from>akebono_body.png</init_from>
        </image>
    </library_images>
    <library_effects>
        <effect id="effect0">
            <profile_COMMON>
                <newparam sid="surface0">
                    <surface type="2D">
                        <init_from>tex1</init_from>
                    </surface>
                </newparam>
                <newparam sid="sampler0">
                    <sampler2D>
                        <source>surface0</source>
                    </sampler2D>
                </newparam>
                <technique sid="COMMON">
                    <blinn>
                        <diffuse>
                            <texture texture="sampler0" texcoord="UVSET0"></texture>
                        </diffuse>
                    </blinn>
                </technique>
            </profile_COMMON>
        </effect>
        <effect id="effect1">
            <profile_COMMON>
                <newparam sid="surface1">
                    <surface type="2D">
                        <init_from>tex1</init_from>
                    </surface>
                </newparam>
                <newparam sid="sampler1">
                    <sampler2D>
                        <source>surface1</source>
                    </sampler2D>
                </newparam>
                <technique sid="COMMON">
                    <blinn>
                        <diffuse>
                            <texture texture="sampler1" texcoord="UVSET0"></texture>
                        </diffuse>
                    </blinn>
                </technique>
            </profile_COMMON>
        </effect>
        <effect id="effect2">
            <profile_COMMON>
                <newparam sid="surface2">
                    <surface type="2D">
                        <init_from>tex0</init_from>
                    </surface>
                </newparam>
                <newparam sid="sampler2">
                    <sampler2D>
                        <source>surface2</source>
                    </sampler2D>
                </newparam>
                <technique sid="COMMON">
                    <blinn>
                        <diffuse>
                            <texture texture="sampler2" texcoord="UVSET0"></texture>
                        </diffuse>
                    </blinn>
                </technique>
            </profile_COMMON>
        </effect>
    </library_effects>
    <library_materials>
        <material id="mat0" name="Skin_etc">
            <instance_effect url="#effect0"></instance_effect>
        </material>
        <material id="mat1" name="Skin_spec">
            <instance_effect url="#effect1"></instance_effect>
        </material>
        <material id="mat2" name="eye">
            <instance_effect url="#effect2"></instance_effect>
        </material>
    </library_materials>
    <library_geometries>
        <geometry id="mesh0">
            <mesh>
                <source id="points0">
                    <float_array id="pointarray0" count="252">71.8515625 -2.734375 -14.90625 75.203125 -5.59375 -9.5 78.28125 -6.59375 -16.2265625 81.796875 -9.8515625 -11.0390625 58.34375 -6.3515625 19.7421875 57.828125 -3.7578125 22.6640625 61.125 -3.3671875 20.7890625 61.3984375 -4.7109375 22.6875 64.5859375 -9.0390625 16.375 68.390625 -6.125 17.5078125 69.671875 -10.875 11.1953125 74.453125 -8.3828125 11.515625 72.3359375 -11.65625 6.2421875 76.8828125 -9.265625 6.2109375 73.3046875 -12.6015625 0.5546875 77.8515625 -9.0546875 0.359375 72.0859375 -11.2578125 -5.5546875 77.046875 -7.65625 -4.6328125 69.28125 -9.8828125 -11.390625 67.5 -8.078125 -15.0859375 76.8203125 -9.6328125 -16.09375 80.140625 -12.3125 -10.828125 81.8125 -13.671875 -5.828125 82.4921875 -14.265625 0.1171875 81.5078125 -13.7265625 6.9453125 73.5859375 -10.0234375 18.578125 67.328125 -7.1328125 22.6328125 79.1796875 -12.546875 12.8828125 55.84375 -31.7421875 16.3828125 53.8203125 -27.8515625 17.15625 59.859375 -29.5859375 12.234375 59.2421875 -27.984375 12.9296875 64.390625 -29.9921875 0 63.6953125 -22.3515625 0 63.3984375 -26.3046875 -4.5546875 62.7890625 -24.390625 -5.25 60.8515625 -4.3046875 24.6953125 59.2421875 -27.984375 -12.9375 54.2421875 -27.8515625 -17.4296875 59.859375 -29.5859375 -12.2421875 55.84375 -31.7421875 -16.390625 62.7890625 -24.390625 5.2421875 63.3984375 -26.3046875 4.5546875 68.2421875 -4.4453125 -20.7109375 70.0703125 -0.859375 -20.1015625 74.5234375 -3.234375 -19.828125 71.859375 -3.875 -21.3046875 72.765625 -2.7265625 -21.109375 68.3515625 -7.4921875 21.8984375 61.7734375 -4.8046875 24.71875 76.734375 -10.921875 17.7265625 81.765625 -12.859375 12.1015625 83.984375 -13.40625 6.296875 84.640625 -13.1796875 0.1171875 83.6328125 -11.8203125 -6.0546875 55.890625 -20.65625 14.59375 59.390625 -23.9921875 12.203125 59.0546875 -25.8515625 13.03125 72.4921875 -6.0703125 -20.296875 53 -32.203125 17.875 59.390625 -23.9921875 -12.203125 55.890625 -20.65625 -14.59375 59.0546875 -25.8515625 -13.03125 57.859375 -18.171875 -12.4375 61.0546875 -22.453125 -8.53125 62.4921875 -21.53125 -4.46875 60.3515625 -19.8203125 -9.046875 61.7734375 -23.0625 -6.6875 54.78125 -23.5703125 -16.0390625 63.4765625 -30.2109375 -5.71875 63.625 -28.578125 -4.8671875 63.625 -28.578125 4.859375 60.8203125 -30.71875 -11.1640625 60.8203125 -30.71875 11.15625 60.3515625 -19.8203125 9.0390625 60.078125 -22.6953125 10.5703125 57.859375 -18.171875 12.4375 63.4765625 -30.2109375 5.71875 61.0546875 -22.453125 8.5234375 61.7734375 -23.0625 6.6796875 62.4921875 -21.53125 4.46875 60.078125 -22.6953125 -10.578125 54.78125 -23.5703125 16.03125 53 -32.203125 -17.8828125</float_array>
                    <technique_common>
                        <accessor count="84" source="#pointarray0" stride="3">
                            <param name="X" type="float"/>
                            <param name="Y" type="float"/>
                            <param name="Z" type="float"/>
                        </accessor>
                    </technique_common>
                </source>
                <source id="uvs0">
                    <float_array id="uvarray0" count="114">0.74969482421875 0.50640869140625 0.7435302734375 0.49420166015625 0.64453125 0.536376953125 0.615478515625 0.51617431640625 0.75323486328125 0.51629638671875 0.7510986328125 0.51617431640625 0.74859619140625 0.51806640625 0.75323486328125 0.51654052734375 0.75408935546875 0.51190185546875 0.750732421875 0.51055908203125 0.74493408203125 0.494384765625 0.74420166015625 0.49578857421875 0.730712890625 0.48138427734375 0.7322998046875 0.48223876953125 0.72113037109375 0.4669189453125 0.72100830078125 0.46630859375 0.7333984375 0.48126220703125 0.73284912109375 0.47979736328125 0.74462890625 0.49609375 0.7537841796875 0.5108642578125 0.59796142578125 0.48944091796875 0.58612060546875 0.4676513671875 0.59686279296875 0.49114990234375 0.67340087890625 0.54718017578125 0.69049072265625 0.55841064453125 0.6263427734375 0.52301025390625 0.379150390625 0.08984375 0.3876953125 0.0772705078125 0.3607177734375 0.07452392578125 0.36053466796875 0.06982421875 0.27862548828125 0.05535888671875 0.2789306640625 0.032958984375 0.29852294921875 0.0538330078125 0.30084228515625 0.048828125 0.6839599609375 0.5511474609375 0.71246337890625 0.5263671875 0.71728515625 0.52105712890625 0.68865966796875 0.5594482421875 0.68829345703125 0.54180908203125 0.71002197265625 0.53570556640625 0.6875 0.55718994140625 0.372802734375 0.029296875 0.35089111328125 0.0467529296875 0.360107421875 0.060302734375 0.66656494140625 0.54791259765625 0.388671875 0.10107421875 0.3529052734375 0.0145263671875 0.322021484375 0.0367431640625 0.300048828125 0.03021240234375 0.3271484375 0.0233154296875 0.31158447265625 0.04046630859375 0.38055419921875 0.0474853515625 0.2962646484375 0.05889892578125 0.29736328125 0.05633544921875 0.36090087890625 0.07928466796875 0.33660888671875 0.0380859375 0.2962646484375 0.058837890625</float_array>
                    <technique_common>
                        <accessor count="57" source="#uvarray0" stride="2">
                            <param name="S" type="float"/>
                            <param name="T" type="float"/>
                        </accessor>
                    </technique_common>
                </source>
                <vertices id="vertices0">
                    <input semantic="POSITION" source="#points0"/>
                </vertices>
                <polylist count="100" material="Material1">
                    <input offset="0" semantic="VERTEX" source="#vertices0"/>
                    <input offset="1" semantic="TEXCOORD" source="#uvs0" set="0"/>
                    <vcount>3 3 3 3 3 3 3 3 3 3 3 3 3 3 3 3 3 3 3 3 3 3 3 3 3 3 3 3 3 3 3 3 3 3 3 3 3 3 3 3 3 3 3 3 3 3 3 3 3 3 3 3 3 3 3 3 3 3 3 3 3 3 3 3 3 3 3 3 3 3 3 3 3 3 3 3 3 3 3 3 3 3 3 3 3 3 3 3 3 3 3 3 3 3 3 3 3 3 3 3</vcount>
                    <p>2 2 1 1 0 0 3 3 1 1 2 2 6 6 5 5 4 4 7 7 5 5 6 6 9 9 4 4 8 8 6 6 4 4 9 9 11 11 8 8 10 10 9 9 8 8 11 11 13 13 10 10 12 12 11 11 10 10 13 13 15 15 12 12 14 14 13 13 12 12 15 15 17 17 14 14 16 16 15 15 14 14 17 17 1 1 16 16 18 18 17 17 16 16 1 1 0 0 18 18 19 19 1 1 18 18 0 0 18 18 20 2 19 19 21 3 20 2 18 18 16 16 21 3 18 18 22 20 21 3 16 16 14 14 22 20 16 16 23 21 22 20 14 14 12 12 23 21 14 14 24 22 23 21 12 12 4 4 25 23 8 8 26 24 25 23 4 4 8 8 27 25 10 10 25 23 27 25 8 8 30 28 29 27 28 26 31 29 29 27 30 28 34 32 33 31 32 30 35 33 33 31 34 32 5 5 26 24 4 4 36 34 26 24 5 5 39 28 38 27 37 29 40 26 38 27 39 28 42 32 33 31 41 33 32 30 33 31 42 32 44 36 19 19 43 35 0 0 19 19 44 36 45 37 0 0 44 36 2 2 0 0 45 37 46 38 44 36 43 35 47 39 44 36 46 38 48 24 7 7 6 6 49 40 7 7 48 24 50 23 6 6 9 9 48 24 6 6 50 23 51 25 9 9 11 11 50 23 9 9 51 25 52 22 11 11 13 13 51 25 11 11 52 22 53 21 13 13 15 15 52 22 13 13 53 21 54 20 15 15 17 17 53 21 15 15 54 20 3 3 17 17 1 1 54 20 17 17 3 3 10 10 24 22 12 12 27 25 24 22 10 10 57 43 56 42 55 41 58 44 19 19 20 2 29 27 59 45 28 26 62 43 61 41 60 42 63 46 60 42 61 41 66 49 65 48 64 47 67 50 65 48 35 33 46 38 43 35 58 44 33 31 35 33 65 48 43 35 19 19 58 44 61 41 62 43 68 51 68 51 62 43 38 27 70 53 32 30 69 52 34 32 32 30 70 53 62 43 37 29 38 27 32 30 42 32 71 53 57 43 29 27 31 29 40 26 39 28 72 54 30 28 28 26 73 54 76 46 75 55 74 49 76 46 56 42 75 55 32 30 71 53 77 56 74 49 75 55 78 47 36 34 5 5 49 40 80 48 78 47 79 50 63 46 81 55 60 42 76 46 55 41 56 42 74 49 78 47 80 48 79 50 41 33 80 48 33 31 80 48 41 33 55 41 82 51 57 43 82 51 29 27 57 43 49 40 5 5 7 7 44 36 47 39 45 37 65 48 67 50 64 47 66 49 64 47 81 55 63 46 66 49 81 55 38 27 40 26 83 45</p>
                </polylist>
            </mesh>
        </geometry>
        <geometry id="mesh1">
            <mesh>
                <source id="points1">
                    <float_array id="pointarray1" count="918">81.8125 -13.671875 -5.828125 80.140625 -12.3125 -10.828125 81.140625 -15.6796875 -5.46875 79.4609375 -14.203125 -11 75.859375 -11.3984375 -12.0234375 74.7421875 -11.5078125 -11.1640625 79.671875 -12.8203125 -5.7890625 78.0390625 -12.921875 -4.9765625 76.25 -10.4296875 -12.65625 80.40625 -11.8359375 -5.984375 71 -1.578125 22.1484375 71.4765625 5.0859375 23.5546875 79.1484375 -4.4375 17.28125 78.8984375 3.8515625 19.1015625 68 -6.3203125 -18.671875 72.0546875 -9.15625 -16.2265625 67.9609375 -5.390625 -19.28125 73.0078125 -8.4921875 -16.5703125 61.9765625 -4 -21.6015625 60.5625 -5.0390625 -22.2421875 71.578125 -6.84375 22.6875 71.96875 -4.34375 22.9765625 80.34375 -9.9765625 18.328125 81.5234375 -7.359375 18.1796875 62.7265625 -4.859375 24.9296875 63 -2.8671875 25.8359375 76.734375 -10.921875 17.7265625 68.3515625 -7.4921875 21.8984375 73.15625 25.953125 0.046875 71.3515625 25.0078125 11.25 68.484375 27.9296875 0 65.5703125 27.4375 11.0546875 86.890625 -9.03125 12.765625 84.1171875 -5.6015625 10.6875 89.5859375 -9.65625 6.34375 85.9296875 -5.8984375 5.6484375 81.765625 -12.859375 12.1015625 85.5 -11.71875 12.75 84.8359375 3.203125 11.28125 68.8125 -0.0234375 -20.59375 62.703125 2.390625 -23.5078125 80.828125 -15.703125 6.59375 81.5078125 -13.7265625 6.9453125 81.6640625 -16.1875 0.1171875 82.4921875 -14.265625 0.1171875 88.84375 -11.640625 0.1171875 84.640625 -13.1796875 0.1171875 88.2734375 -12.2734375 6.484375 83.984375 -13.40625 6.296875 90.2578125 -9.109375 0.1171875 86.59375 -5.734375 0.1328125 66.0703125 -8.2890625 22.8828125 67.328125 -7.1328125 22.6328125 72.9140625 -11.5859375 18.8671875 73.5859375 -10.0234375 18.578125 86.5546875 9.5859375 0.0859375 86.1171875 9.640625 5.78125 84.0859375 14.6328125 0.109375 83.8515625 14.6875 5.71875 69.4140625 -21.7890625 0 63.6953125 -22.3515625 0 68.359375 -20.9453125 4.8046875 62.4921875 -21.53125 4.46875 81.3515625 19.5 0.3203125 80.9296875 19.765625 5.546875 77.40625 22.8359375 0.1953125 77.5078125 23.0234375 5.2578125 71.1796875 -20.0625 4.6875 71.71875 -20.59375 0 87.0859375 3.28125 0.0703125 86.59375 3.2578125 5.90625 66.09375 -15.953125 -15.0703125 61.578125 -12.9921875 -19.15625 58 -16.8984375 -14.9453125 56.5078125 -15.0859375 -17.5078125 62.0859375 -4.203125 -17.2890625 63.09375 2.734375 -20.4609375 58 -16.8984375 14.9453125 69.203125 -18.5390625 10.953125 57.859375 -18.171875 12.4375 60.3515625 -19.8203125 9.0390625 56.5078125 -15.0859375 17.5 62.8984375 -14.75 17.9140625 66.4453125 -16.6796875 14.8046875 89.0078125 -7.59375 -6.109375 87.7265625 -9.96875 -6.25 83.6328125 -11.8203125 -6.0546875 62.6015625 8.3203125 -27.875 53.203125 13.0859375 -29.84375 60.625 2.078125 -27.8515625 54.2265625 5.5 -29.671875 60.0078125 -5.5078125 23.1640625 65.8359375 -7.25 20.921875 60.09375 -6.3046875 22.296875 65.796875 -8.09375 20.1640625 70.5234375 -9.84375 17.765625 69.53125 -10.453125 17.3828125 80.265625 4.703125 -17.2734375 80.625 -1.390625 -15.71875 84.6640625 3.8359375 -10.7890625 84.3359375 -3.46875 -9.75 66.03125 -7.671875 -15.84375 70.9765625 -9.21875 -15.3671875 86.203125 -4.375 0.84375 84 -4.4375 -6.2265625 81.28125 -12.5 0.75 80.515625 -13.5546875 0.703125 78.8125 -13.46875 0.78125 79.1796875 -12.546875 12.8828125 78.4921875 -14.40625 12.4765625 70.1953125 -8.515625 -14.609375 85.7890625 -4.609375 -5.234375 76.8203125 -9.6328125 -16.09375 72.4921875 -6.0703125 -20.296875 75.4921875 -11.296875 -16.765625 71.5703125 -7.390625 -20.9921875 62.96875 -4.7890625 24.3671875 67.28125 -4.8203125 23.1328125 86.515625 3.3125 -5.5234375 67.8125 2.921875 -25.40625 65.484375 -3.0234375 -25.1875 79.3203125 11.265625 -17.4765625 73.5703125 6.09375 -23.0390625 72.8359375 12.265625 -23.28125 83.8515625 10.03125 -11.0625 85.9375 9.5390625 -5.4609375 83.9375 9.6640625 11.4140625 77.96875 10.46875 19.3671875 70.703125 10.90625 23.90625 81.5625 15.125 11.7890625 83.7109375 14.6796875 -5.3359375 81.21875 14.8359375 -11.5546875 77.453125 16.0078125 -17.984375 61.1953125 -3.8203125 22.359375 59.984375 -7.1484375 18.4609375 81.796875 -9.8515625 -11.0390625 85.0390625 -7.7734375 -11.4296875 86.125 -5.515625 -11.4375 74.734375 -12.5546875 12.3359375 74.5078125 -11.2734375 12.6953125 76.1328125 -12.5546875 13.265625 76.5859375 -11.671875 14.03125 69.703125 -9.8515625 15.796875 70.75 -9.703125 16.296875 78.1953125 -13.1484375 6.6328125 79.8984375 -13.1484375 7.3125 80.6484375 -12.203125 7.6171875 84.265625 -4.4296875 8.078125 81.984375 -3.0625 -16.4140625 75.609375 -0.1875 -21.203125 80.828125 -5.1171875 -16.5625 75.3984375 -1.6171875 -20.7890625 65.2265625 -7.453125 17.359375 74.5234375 -3.234375 -19.828125 78.28125 -6.59375 -16.2265625 65.5703125 27.4375 -11.0546875 71.9296875 24.7890625 -11.140625 54.484375 -14.078125 -18.2578125 53.828125 -19.359375 -20.65625 52.3515625 -17.671875 -20.53125 55.4609375 -37.6640625 20.0625 51.9921875 -39.578125 19.015625 51.890625 -39.1640625 22.2421875 48.6640625 -40.8359375 22.1796875 64.7578125 -32.5703125 9.0859375 62.1484375 -30.5 8.8515625 65.984375 -32.1640625 5.203125 63.4765625 -30.2109375 5.71875 65.1328125 -35.3359375 8.9296875 66.6953125 -34.9453125 4.875 58.8828125 -37.015625 1.8984375 57.34375 -37.6328125 6.3203125 55.890625 -20.65625 14.59375 54.78125 -23.5703125 16.03125 56.328125 -20.171875 17.34375 54.703125 -24.5078125 19.0078125 51.6796875 -18.921875 20.984375 54.484375 -14.078125 18.2421875 53.828125 -19.359375 20.6484375 48.59375 -28.2578125 23.5078125 49.9921875 -22.6796875 22.4453125 51.2890625 -28.7890625 22.90625 52.140625 -24.1484375 22.140625 56.3125 -2.921875 27.3125 61.7734375 -4.8046875 24.71875 60.8515625 -4.3046875 24.6953125 53.8203125 -27.8515625 17.15625 54.3125 -28.4140625 19.8515625 74.6171875 -10.1953125 -11.09375 66.6953125 -34.9453125 -4.8828125 58.8828125 -37.015625 -1.90625 67.171875 -34.71875 0 59.0078125 -36.890625 0 52.140625 -24.1484375 -22.1484375 49.5546875 -23.7578125 -22.7109375 51.2890625 -28.7890625 -22.90625 48.6640625 -27.1328125 -23.3359375 56.75 -38 12.6484375 62.5546875 -36.09375 13.375 68.359375 -20.9453125 -4.8046875 71.1796875 -20.0625 -4.6953125 66.6484375 -31.90625 0 56.328125 -20.171875 -17.34375 55.890625 -20.65625 -14.59375 57.859375 -18.171875 -12.4375 62.1171875 -33.3046875 13.6171875 60.8203125 -30.71875 11.15625 54.2265625 -28.75 -19.8515625 54.2421875 -27.8515625 -17.4296875 54.703125 -24.5078125 -19.0078125 54.78125 -23.5703125 -16.0390625 65.1328125 -35.3359375 -8.9375 57.34375 -37.6328125 -6.328125 62.4921875 -21.53125 -4.46875 58.8828125 -36.90625 17.6796875 53.8125 -38.765625 16.5234375 65.984375 -32.1640625 -5.203125 64.7578125 -32.5703125 -9.09375 63.4765625 -30.2109375 -5.71875 62.1484375 -30.5 -8.859375 62.5546875 -35.96875 -13.375 57.3828125 -37.6953125 -11.5859375 48.6640625 -40.8359375 -22.1953125 51.9921875 -39.53125 -19.1015625 51.890625 -39.1640625 -22.2421875 55.4609375 -37.6640625 -20.0703125 62.1171875 -33.3046875 -13.625 69.125 -18.15625 -11.4453125 60.3515625 -19.8203125 -9.046875 55.0859375 -38.4453125 -15.390625 58.8828125 -36.90625 -17.6875 60.8203125 -30.71875 -11.1640625 80.8359375 19.4609375 -5.09375 77.1328125 22.9765625 -4.875 54.3125 -34.4140625 20.1875 58.7421875 -34.0625 17.4296875 55.84375 -31.7421875 16.3828125 56.9140625 -10.7109375 -22.1875 64.859375 -19.8046875 -7.3671875 58.0546875 -12.1328125 21.0546875 64.859375 -19.8046875 7.3671875 47.3515625 11.46875 -31.0703125 56.3359375 24.2109375 -21.0703125 51.03125 20.609375 -26.4375 60.6484375 18.1953125 -26.6640625 50.8828125 -35.671875 22.9140625 54.3125 -34.4140625 -20.1875 53 -32.203125 -17.8828125 58.7421875 -34.0625 -17.4375 47.96875 -36.7265625 -23.1796875 50.8828125 -35.671875 -22.9140625 55.84375 -31.7421875 -16.390625 64.390625 -29.9921875 0 47.96875 -32.78125 23.6328125 47.96875 -36.7265625 23.1640625 47.8828125 -32.78125 -23.6484375 70.2734375 -12.953125 -17.96875 67.796875 -8.703125 -22.1171875 51.8125 3.015625 29.765625 62.5078125 0.6484375 26.609375 56.3125 -0.2578125 -28.1015625 74.828125 -15.90625 -11.6953125 69.3203125 16.890625 22.5390625 60.6484375 17.2578125 26.4921875 76.5546875 15.90625 18.171875 75.765625 21.796875 12.9140625 71.59375 17.53125 -21.859375 78.390625 20.3671875 -12.84375 68.53125 22.7265625 -18.9609375 74.0078125 -15.75 11.9453125 71.546875 -0.6484375 -22.9765625 76.6328125 -4.8359375 -15.4453125 79.2265625 -2.4453125 -12.109375 74.546875 -9.859375 -15.6171875 70.5859375 -3.25 -23.265625 72.765625 -2.7265625 -21.109375 57.1328125 -4.2734375 26.328125 48.1875 -1.3828125 -28.4296875 57.4921875 -6.1875 -25.5546875 53 -32.203125 17.875 77.7265625 -1.9140625 -16.4453125 75.2734375 -1.3203125 -17.8046875 75.4140625 -8.0078125 17.015625 71.984375 -12.078125 16.6484375 80.7890625 -5.1640625 14.484375 74.0234375 -5.2421875 20.015625 50.34375 -8.03125 24.2578125 48.1875 -1.3828125 28.421875 67.0703125 22.9296875 19.125 62.78125 21.7734375 22.6640625 56.3359375 24.2109375 21.0703125 69.28125 -13.25 17.8828125 71.859375 -3.875 -21.3046875 64.59375 21.1484375 -22.8125 61.578125 7.265625 27.5390625 48.1328125 16.109375 -29.8125 51.03125 20.609375 26.9453125 50.34375 -8.03125 -24.265625 61.3203125 25.9140625 -17.1953125 61.3203125 25.9140625 17.1953125 77.546875 -5.5078125 17.828125 48.1328125 16.109375 29.8046875 77.25 -18.09375 0.0078125 47.34375 4.3203125 -30.40625 46.890625 11.46875 31.0703125 47.34375 4.3203125 30.40625</float_array>
                    <technique_common>
                        <accessor count="306" source="#pointarray1" stride="3">
                            <param name="X" type="float"/>
                            <param name="Y" type="float"/>
                            <param name="Z" type="float"/>
                        </accessor>
                    </technique_common>
                </source>
                <source id="uvs1">
                    <float_array id="uvarray1" count="464">0.06500244140625 0.35760498046875 0.110595703125 0.34228515625 0.06085205078125 0.3740234375 0.1112060546875 0.35894775390625 0.75048828125 0.62677001953125 0.750732421875 0.6142578125 0.792236328125 0.62835693359375 0.7928466796875 0.61602783203125 0.75054931640625 0.63238525390625 0.79241943359375 0.6339111328125 0.1942138671875 0.17755126953125 0.182861328125 0.11181640625 0.1273193359375 0.16033935546875 0.145263671875 0.11297607421875 0.65863037109375 0.62371826171875 0.704833984375 0.6248779296875 0.65875244140625 0.6297607421875 0.70489501953125 0.63104248046875 0.61285400390625 0.62255859375 0.61248779296875 0.6287841796875 0.2015380859375 0.212646484375 0.19952392578125 0.19256591796875 0.14508056640625 0.2005615234375 0.1436767578125 0.18017578125 0.2410888671875 0.21881103515625 0.2420654296875 0.19647216796875 0.145263671875 0.2359619140625 0.2012939453125 0.23370361328125 0.01214599609375 0.0465087890625 0.1102294921875 0.05438232421875 0.01141357421875 0.04510498046875 0.19305419921875 0.0662841796875 0.10235595703125 0.18115234375 0.090576171875 0.16156005859375 0.06182861328125 0.179931640625 0.060546875 0.16180419921875 0.10345458984375 0.2359619140625 0.1024169921875 0.2003173828125 0.101318359375 0.1138916015625 0.65582275390625 0.66363525390625 0.60882568359375 0.6768798828125 0.012939453125 0.3848876953125 0.01214599609375 0.37115478515625 0.01287841796875 0.2001953125 0.01214599609375 0.23590087890625 0.061279296875 0.20050048828125 0.06396484375 0.23492431640625 0.01318359375 0.1806640625 0.01226806640625 0.162353515625 0.22528076171875 0.30938720703125 0.21319580078125 0.29669189453125 0.1707763671875 0.33416748046875 0.165771484375 0.3193359375 0.011962890625 0.1029052734375 0.06121826171875 0.103515625 0.01153564453125 0.0877685546875 0.0615234375 0.0902099609375 0.00927734375 0.502685546875 0.0089111328125 0.54443359375 0.085693359375 0.49969482421875 0.076416015625 0.541259765625 0.01202392578125 0.07330322265625 0.062744140625 0.07452392578125 0.01171875 0.05987548828125 0.06341552734375 0.05877685546875 0.08404541015625 0.4835205078125 0.00927734375 0.48809814453125 0.011474609375 0.11309814453125 0.06103515625 0.11334228515625 0.177490234375 0.4569091796875 0.22711181640625 0.43585205078125 0.2303466796875 0.4871826171875 0.26971435546875 0.4644775390625 0.5953369140625 0.6236572265625 0.59271240234375 0.67706298828125 0.1287841796875 0.4705810546875 0.16888427734375 0.504638671875 0.12713623046875 0.51348876953125 0.26544189453125 0.15203857421875 0.344482421875 0.18133544921875 0.3115234375 0.2623291015625 0.33831787109375 0.24407958984375 0.2120361328125 0.130859375 0.65972900390625 0.59918212890625 0.70672607421875 0.60107421875 0.6136474609375 0.59637451171875 0.84149169921875 0.67510986328125 0.79248046875 0.67584228515625 0.83978271484375 0.63494873046875 0.83953857421875 0.62957763671875 0.83905029296875 0.61907958984375 0.70489501953125 0.630615234375 0.3199462890625 0.2147216796875 0.27569580078125 0.30316162109375 0.14501953125 0.10125732421875 0.26446533203125 0.1717529296875 0.1812744140625 0.111328125 0.1019287109375 0.103515625 0.1033935546875 0.0894775390625 0.14404296875 0.087646484375 0.2618408203125 0.1964111328125 0.44415283203125 0.37420654296875 0.45953369140625 0.36810302734375 0.4742431640625 0.40972900390625 0.48126220703125 0.39801025390625 0.474365234375 0.56195068359375 0.45855712890625 0.57049560546875 0.4893798828125 0.574462890625 0.49700927734375 0.59063720703125 0.36376953125 0.49566650390625 0.36151123046875 0.4788818359375 0.32666015625 0.48980712890625 0.3199462890625 0.472900390625 0.36224365234375 0.522216796875 0.32354736328125 0.5179443359375 0.31329345703125 0.53155517578125 0.35504150390625 0.53594970703125 0.41632080078125 0.4205322265625 0.43011474609375 0.44476318359375 0.44256591796875 0.41650390625 0.45849609375 0.45257568359375 0.48553466796875 0.40838623046875 0.45941162109375 0.36810302734375 0.47418212890625 0.40972900390625 0.5096435546875 0.48602294921875 0.49957275390625 0.43963623046875 0.4957275390625 0.4881591796875 0.48846435546875 0.4495849609375 0.3211669921875 0.240234375 0.267333984375 0.27655029296875 0.25390625 0.2652587890625 0.395751953125 0.39984130859375 0.419677734375 0.3892822265625 0.4407958984375 0.48040771484375 0.466552734375 0.48504638671875 0.3236083984375 0.5179443359375 0.3133544921875 0.53155517578125 0.27691650390625 0.51495361328125 0.27691650390625 0.529541015625 0.488525390625 0.4495849609375 0.5020751953125 0.4486083984375 0.49578857421875 0.4881591796875 0.508056640625 0.4766845703125 0.397705078125 0.5440673828125 0.40472412109375 0.53118896484375 0.08673095703125 0.49969482421875 0.0850830078125 0.4835205078125 0.27691650390625 0.48529052734375 0.442626953125 0.41650390625 0.4163818359375 0.4205322265625 0.41973876953125 0.3892822265625 0.39581298828125 0.39984130859375 0.40704345703125 0.50439453125 0.40582275390625 0.4886474609375 0.467041015625 0.48504638671875 0.44342041015625 0.48040771484375 0.45855712890625 0.45257568359375 0.3623046875 0.522216796875 0.3551025390625 0.53594970703125 0.07745361328125 0.541259765625 0.0096435546875 0.545166015625 0.44580078125 0.546142578125 0.43475341796875 0.55780029296875 0.36383056640625 0.49566650390625 0.32000732421875 0.472900390625 0.3826904296875 0.53973388671875 0.4971923828125 0.59063720703125 0.45941162109375 0.57122802734375 0.47442626953125 0.56195068359375 0.4071044921875 0.50439453125 0.4239501953125 0.55511474609375 0.44586181640625 0.546142578125 0.4739990234375 0.53497314453125 0.4434814453125 0.51708984375 0.43341064453125 0.4990234375 0.2767333984375 0.4085693359375 0.29022216796875 0.440185546875 0.07843017578125 0.5040283203125 0.06072998046875 0.476318359375 0.2784423828125 0.44464111328125 0.36187744140625 0.19580078125 0.2728271484375 0.10595703125 0.337646484375 0.169189453125 0.26025390625 0.13330078125 0.49578857421875 0.54541015625 0.1322021484375 0.49981689453125 0.47406005859375 0.53497314453125 0.44775390625 0.50872802734375 0.50653076171875 0.55645751953125 0.495849609375 0.54541015625 0.13323974609375 0.49981689453125 0.4334716796875 0.4990234375 0.27691650390625 0.4708251953125 0.51092529296875 0.52362060546875 0.50640869140625 0.55645751953125 0.1807861328125 0.51177978515625 0.51104736328125 0.52362060546875 0.15875244140625 0.39410400390625 0.23895263671875 0.3267822265625 0.32537841796875 0.19500732421875 0.23974609375 0.19366455078125 0.23980712890625 0.23553466796875 0.307861328125 0.281982421875 0.1043701171875 0.40924072265625 0.18316650390625 0.09771728515625 0.10626220703125 0.07171630859375 0.1864013671875 0.082763671875 0.30291748046875 0.22509765625 0.7298583984375 0.64581298828125 0.749267578125 0.67633056640625 0.7325439453125 0.615966796875 0.27972412109375 0.27655029296875 0.29864501953125 0.2325439453125 0.2845458984375 0.30169677734375 0.3438720703125 0.2940673828125 0.28778076171875 0.3271484375 0.17974853515625 0.51177978515625 0.44769287109375 0.50872802734375 0.7242431640625 0.676513671875 0.7005615234375 0.66937255859375 0.313720703125 0.38525390625 0.22515869140625 0.10272216796875 0.24359130859375 0.1143798828125 0.2662353515625 0.2652587890625 0.25982666015625 0.1732177734375 0.35955810546875 0.1824951171875 0.23297119140625 0.08612060546875 0.3465576171875 0.1834716796875 0.0111083984375 0.4283447265625 0.00927734375 0.47174072265625 0.3636474609375 0.25421142578125 0.35546875 0.19775390625</float_array>
                    <technique_common>
                        <accessor count="232" source="#uvarray1" stride="2">
                            <param name="S" type="float"/>
                            <param name="T" type="float"/>
                        </accessor>
                    </technique_common>
                </source>
                <vertices id="vertices1">
                    <input semantic="POSITION" source="#points1"/>
                </vertices>
                <polylist count="496" material="Material1">
                    <input offset="0" semantic="VERTEX" source="#vertices1"/>
                    <input offset="1" semantic="TEXCOORD" source="#uvs1" set="0"/>
                    <vcount>3 3 3 3 3 3 3 3 3 3 3 3 3 3 3 3 3 3 3 3 3 3 3 3 3 3 3 3 3 3 3 3 3 3 3 3 3 3 3 3 3 3 3 3 3 3 3 3 3 3 3 3 3 3 3 3 3 3 3 3 3 3 3 3 3 3 3 3 3 3 3 3 3 3 3 3 3 3 3 3 3 3 3 3 3 3 3 3 3 3 3 3 3 3 3 3 3 3 3 3 3 3 3 3 3 3 3 3 3 3 3 3 3 3 3 3 3 3 3 3 3 3 3 3 3 3 3 3 3 3 3 3 3 3 3 3 3 3 3 3 3 3 3 3 3 3 3 3 3 3 3 3 3 3 3 3 3 3 3 3 3 3 3 3 3 3 3 3 3 3 3 3 3 3 3 3 3 3 3 3 3 3 3 3 3 3 3 3 3 3 3 3 3 3 3 3 3 3 3 3 3 3 3 3 3 3 3 3 3 3 3 3 3 3 3 3 3 3 3 3 3 3 3 3 3 3 3 3 3 3 3 3 3 3 3 3 3 3 3 3 3 3 3 3 3 3 3 3 3 3 3 3 3 3 3 3 3 3 3 3 3 3 3 3 3 3 3 3 3 3 3 3 3 3 3 3 3 3 3 3 3 3 3 3 3 3 3 3 3 3 3 3 3 3 3 3 3 3 3 3 3 3 3 3 3 3 3 3 3 3 3 3 3 3 3 3 3 3 3 3 3 3 3 3 3 3 3 3 3 3 3 3 3 3 3 3 3 3 3 3 3 3 3 3 3 3 3 3 3 3 3 3 3 3 3 3 3 3 3 3 3 3 3 3 3 3 3 3 3 3 3 3 3 3 3 3 3 3 3 3 3 3 3 3 3 3 3 3 3 3 3 3 3 3 3 3 3 3 3 3 3 3 3 3 3 3 3 3 3 3 3 3 3 3 3 3 3 3 3 3 3 3 3 3 3 3 3 3 3 3 3 3 3 3 3 3 3 3 3 3 3 3 3 3 3 3 3 3 3 3 3 3 3 3 3 3 3 3 3 3 3 3 3 3 3 3 3 3 3 3 3 3 3 3 3 3 3 3 3 3 3 3 3 3 3 3 3 3 3 3 3 3 3 3 3 3</vcount>
                    <p>2 2 1 1 0 0 3 3 1 1 2 2 6 6 5 5 4 4 7 7 5 5 6 6 8 8 6 6 4 4 9 9 6 6 8 8 12 12 11 11 10 10 13 13 11 11 12 12 16 16 15 15 14 14 17 17 15 15 16 16 18 18 16 16 14 14 19 19 16 16 18 18 22 22 21 21 20 20 23 23 21 21 22 22 20 20 25 25 24 24 21 21 25 25 20 20 22 22 27 27 26 26 20 20 27 27 22 22 30 30 29 29 28 28 31 31 29 29 30 30 34 34 33 33 32 32 35 35 33 33 34 34 23 23 10 10 21 21 12 12 10 10 23 23 36 36 22 22 26 26 37 37 22 22 36 36 37 37 23 23 22 22 32 32 23 23 37 37 32 32 12 12 23 23 33 33 12 12 32 32 38 38 12 12 33 33 13 13 12 12 38 38 19 19 39 39 16 16 40 40 39 39 19 19 43 41 42 0 41 2 44 42 42 0 43 41 47 45 46 44 45 43 48 46 46 44 47 45 45 43 34 34 47 45 49 47 34 34 45 43 49 47 35 35 34 34 50 48 35 35 49 47 53 51 52 50 51 49 54 52 52 50 53 51 57 55 56 54 55 53 58 56 56 54 57 55 61 59 60 58 59 57 62 60 60 58 61 59 63 61 58 56 57 55 64 62 58 56 63 61 65 63 64 62 63 61 66 64 64 62 65 63 61 59 68 66 67 65 59 57 68 66 61 59 69 67 35 35 50 48 70 68 35 35 69 67 73 71 72 70 71 69 74 72 72 70 73 71 75 73 19 19 18 18 76 74 19 19 75 73 79 76 78 75 77 71 80 77 78 75 79 76 77 71 82 70 81 72 83 69 82 70 77 71 45 43 84 34 49 47 85 45 84 34 45 43 85 45 46 44 86 46 45 43 46 44 85 45 43 41 0 0 44 42 2 2 0 0 43 41 89 80 88 79 87 78 90 81 88 79 89 80 93 18 92 16 91 19 94 14 92 16 93 18 92 16 96 15 95 17 94 14 96 15 92 16 99 38 98 12 97 82 100 33 98 12 99 38 15 15 101 83 14 14 102 84 101 83 15 15 101 83 18 18 14 14 75 85 18 18 101 83 47 45 32 32 37 37 34 34 32 32 47 45 37 37 48 46 47 45 36 36 48 46 37 37 105 88 104 87 103 86 9 9 104 87 105 88 9 9 106 89 6 6 105 88 106 89 9 9 106 89 7 7 6 6 107 90 7 7 106 89 53 51 108 1 54 52 109 3 108 1 53 51 15 15 110 91 102 84 17 17 110 91 15 15 41 2 108 1 109 3 42 0 108 1 41 2 49 47 111 35 50 48 84 34 111 35 49 47 114 51 113 50 112 52 115 49 113 50 114 51 91 19 117 39 116 40 92 16 117 39 91 19 111 35 99 38 118 68 100 33 99 38 111 35 119 92 89 80 87 78 120 93 89 80 119 92 122 95 121 94 97 82 123 96 121 94 122 95 121 94 99 38 97 82 124 97 99 38 121 94 118 68 124 97 125 54 99 38 124 97 118 68 70 68 126 97 38 38 56 54 126 97 70 68 126 97 13 13 38 38 127 94 13 13 126 97 13 13 128 96 11 11 127 94 128 96 13 13 56 54 129 98 126 97 58 56 129 98 56 54 125 54 131 98 130 56 124 97 131 98 125 54 132 99 124 97 121 94 131 98 124 97 132 99 35 35 38 38 33 33 70 68 38 38 35 35 114 51 1 1 3 3 112 52 1 1 114 51 134 73 91 19 133 74 93 18 91 19 134 73 136 37 86 46 135 36 85 45 86 46 136 37 85 45 137 32 84 34 136 37 137 32 85 45 140 4 139 8 138 5 141 8 139 8 140 4 96 15 142 91 95 17 143 84 142 91 96 15 106 89 144 7 107 90 145 6 144 7 106 89 146 9 106 89 105 88 145 6 106 89 146 9 105 88 147 87 146 9 103 86 147 87 105 88 150 22 149 100 148 23 151 20 149 100 150 22 152 83 93 18 134 85 94 14 93 18 152 83 96 15 152 83 143 84 94 14 152 83 96 15 150 22 153 27 151 20 154 26 153 27 150 22 30 30 156 29 155 31 28 28 156 29 30 30 84 34 100 33 111 35 137 32 100 33 84 34 145 6 138 5 144 7 140 4 138 5 145 6 141 8 145 6 146 9 140 4 145 6 141 8 135 36 150 22 136 37 154 26 150 22 135 36 136 37 148 23 137 32 150 22 148 23 136 37 137 32 98 12 100 33 148 23 98 12 137 32 158 103 157 102 74 101 159 104 157 102 158 103 162 107 161 106 160 105 163 108 161 106 162 107 166 111 165 110 164 109 167 112 165 110 166 111 168 113 166 111 164 109 169 114 166 111 168 113 169 114 171 116 170 115 168 113 171 116 169 114 174 119 173 118 172 117 175 120 173 118 174 119 178 123 177 122 176 121 81 101 177 122 178 123 181 126 180 125 179 124 182 127 180 125 181 126 52 50 184 129 183 128 185 130 184 129 52 50 77 132 172 117 79 131 174 119 172 117 77 132 182 127 176 121 180 125 178 123 176 121 182 127 175 120 186 133 173 118 187 134 186 133 175 120 4 4 188 8 8 8 5 5 188 8 4 4 191 137 190 136 189 135 192 138 190 136 191 137 191 137 170 115 192 138 169 114 170 115 191 137 195 141 194 140 193 139 196 142 194 140 195 141 168 113 197 143 171 116 198 144 197 143 168 113 199 145 68 66 59 57 200 146 68 66 199 145 191 137 166 111 169 114 201 147 166 111 191 137 73 150 203 149 202 148 204 151 203 149 73 150 205 152 168 113 164 109 198 144 168 113 205 152 164 109 206 153 205 152 165 110 206 153 164 109 175 120 181 126 187 134 182 127 181 126 175 120 193 139 159 104 158 103 194 140 159 104 193 139 209 156 208 155 207 154 210 118 208 155 209 156 55 53 70 68 69 67 56 54 70 68 55 53 111 35 69 67 50 48 118 68 69 67 111 35 118 68 55 53 69 67 125 54 55 53 118 68 189 135 212 158 211 157 190 136 212 158 189 135 199 145 60 160 213 159 59 57 60 160 199 145 214 161 197 143 198 144 215 162 197 143 214 161 202 148 210 118 209 156 203 149 210 118 202 148 211 157 216 111 189 135 217 163 216 111 211 157 216 111 219 110 218 164 217 163 219 110 216 111 211 157 221 165 220 144 212 158 221 165 211 157 224 107 223 167 222 166 225 168 223 167 224 107 191 137 216 111 201 147 189 135 216 111 191 137 226 169 211 157 220 144 217 163 211 157 226 169 228 77 73 71 227 75 204 76 73 71 228 77 230 171 221 165 229 170 220 144 221 165 230 171 217 163 231 153 219 110 226 169 231 153 217 163 209 156 195 141 193 139 207 154 195 141 209 156 232 62 65 63 63 61 233 64 65 63 232 62 130 56 63 61 57 55 232 62 63 61 130 56 125 54 57 55 55 53 130 56 57 55 125 54 234 172 160 105 214 161 236 174 235 173 206 153 235 173 214 161 205 152 72 70 157 176 237 175 71 69 227 75 73 71 72 70 74 72 157 176 227 75 238 177 228 77 200 178 238 177 227 75 177 179 82 70 239 175 82 70 177 179 81 72 78 75 80 77 240 177 88 79 90 81 241 180 244 183 243 182 242 181 245 184 160 105 234 172 234 172 186 133 187 134 67 65 240 185 61 59 247 187 246 186 208 155 247 187 248 173 246 186 246 186 248 173 230 171 230 171 223 167 225 168 231 153 226 169 248 173 226 169 220 144 230 171 224 107 222 166 249 188 158 103 74 101 202 148 224 107 250 189 225 168 202 148 209 156 158 103 202 148 74 101 73 150 213 159 238 190 199 145 200 146 199 145 238 190 246 186 207 154 208 155 250 189 246 186 225 168 246 186 230 171 225 168 251 191 231 153 248 173 248 173 226 169 230 171 234 172 181 126 245 184 175 120 178 123 182 127 167 112 201 147 252 192 166 111 201 147 167 112 181 126 253 193 245 184 245 184 254 194 162 107 246 186 250 189 195 141 238 190 213 159 228 195 196 142 195 141 255 196 247 187 251 191 248 173 255 196 250 189 249 188 207 154 246 186 195 141 237 175 257 198 256 197 239 175 82 70 51 49 259 200 258 199 25 25 24 24 183 128 184 201 90 81 89 80 260 202 261 203 256 197 3 3 256 197 257 198 114 51 114 51 257 198 115 49 263 183 128 96 262 204 127 94 129 98 264 99 265 205 264 99 129 98 266 204 132 99 123 96 132 99 268 206 267 205 266 204 123 96 244 183 89 80 120 93 260 202 122 95 119 92 87 78 53 51 269 203 109 3 270 207 149 100 151 20 272 209 8 8 271 208 273 210 17 17 271 208 274 211 119 92 270 207 270 207 151 20 275 212 183 128 276 213 51 49 110 17 273 210 188 8 260 202 278 215 277 214 110 91 17 17 273 210 62 60 61 59 240 185 240 185 80 216 62 60 179 124 253 193 181 126 279 217 235 173 236 174 253 193 254 194 245 184 8 8 104 87 9 9 281 219 280 218 271 208 283 210 282 208 95 17 142 17 139 8 283 210 142 91 283 210 95 17 141 8 147 87 284 209 95 17 285 219 117 39 286 220 239 175 276 213 152 83 142 91 143 84 286 220 276 213 287 214 289 221 262 204 288 206 290 181 289 222 288 206 91 19 116 40 133 74 83 69 77 71 78 75 51 49 82 70 291 197 229 170 223 167 230 171 127 94 126 97 129 98 262 204 128 96 127 94 161 106 214 161 160 105 292 223 113 50 274 211 266 204 293 221 268 206 263 183 294 224 128 96 127 94 264 99 262 204 227 75 256 197 261 203 71 69 256 197 227 75 66 64 65 63 28 28 183 128 287 214 276 213 243 182 244 183 295 225 290 181 296 182 289 222 66 64 28 28 29 29 28 28 233 64 156 29 297 220 237 175 157 176 295 225 88 79 241 180 298 226 268 206 242 181 138 5 139 8 144 7 31 31 299 226 288 206 95 17 117 39 92 16 141 8 146 9 147 87 285 219 282 208 300 218 263 183 296 182 301 227 286 220 177 179 239 175 280 218 272 209 271 208 17 17 281 219 271 208 278 215 120 93 257 198 8 8 273 210 271 208 8 8 188 8 273 210 187 134 181 126 234 172 279 217 186 133 234 172 279 217 234 172 235 173 234 172 214 161 235 173 215 162 214 161 161 106 206 153 235 173 205 152 205 152 214 161 198 144 162 107 254 194 163 108 178 123 174 119 81 101 162 107 160 105 245 184 174 119 178 123 175 120 174 119 77 132 81 101 53 51 291 197 269 203 269 203 83 69 78 75 68 229 302 228 67 178 67 178 78 75 240 177 294 224 259 200 11 11 52 50 183 128 51 49 28 28 65 63 233 64 269 203 78 75 67 178 261 203 200 178 227 75 291 197 82 70 83 69 291 197 83 69 269 203 131 98 232 62 130 56 97 82 149 100 122 95 155 31 156 29 268 206 122 95 149 100 119 92 295 225 244 183 88 79 275 212 151 20 153 27 3 3 256 197 114 51 277 214 278 215 297 220 256 197 71 69 72 70 289 222 296 182 263 183 129 98 64 62 265 205 299 226 290 181 288 206 68 229 200 178 302 228 267 205 232 62 131 98 155 31 268 206 298 226 244 183 293 221 266 204 278 215 257 198 237 175 3 3 2 2 261 203 260 202 303 230 90 81 123 96 132 99 121 94 244 183 123 96 87 78 120 93 274 211 115 49 304 231 258 199 294 224 250 189 224 107 249 188 195 141 250 189 255 196 216 111 218 164 201 147 218 164 252 192 201 147 209 156 193 139 158 103 25 25 258 199 183 128 258 199 287 214 183 128 24 24 25 25 183 128 25 25 21 21 259 200 263 183 301 227 304 231 264 99 288 206 262 204 129 98 58 56 64 62 64 62 66 64 265 205 31 31 288 206 29 29 11 11 259 200 10 10 304 231 294 224 263 183 27 27 24 24 184 201 260 202 277 214 303 230 237 175 297 220 278 215 149 100 98 12 148 23 237 175 256 197 72 70 119 92 149 100 270 207 132 99 267 205 131 98 300 218 282 208 284 209 95 17 282 208 285 219 141 8 282 208 283 210 141 8 283 210 139 8 284 209 282 208 141 8 293 221 242 181 268 206 8 8 272 209 104 87 17 17 39 39 281 219 305 81 287 214 258 199 260 202 120 93 278 215 101 83 102 84 110 91 97 82 98 12 149 100 259 200 21 21 10 10 19 19 76 74 40 40 27 27 20 20 24 24 67 178 302 228 269 203 302 228 200 178 261 203 41 2 302 228 43 41 2 2 43 41 302 228 41 2 269 203 302 228 5 5 7 7 188 8 17 17 16 16 39 39 2 2 302 228 261 203 128 96 294 224 11 11 123 96 122 95 87 78 87 78 88 79 244 183 120 93 115 49 257 198 274 211 113 50 115 49 244 183 242 181 293 221 233 64 232 62 267 205 241 180 90 81 303 230 266 204 268 206 132 99 288 206 265 205 29 29 233 64 267 205 156 29 268 206 156 29 267 205 265 205 288 206 264 99 66 64 29 29 265 205 263 183 262 204 289 221 305 81 258 199 304 231 276 213 239 175 51 49 109 3 269 203 41 2 259 200 294 224 258 199 120 93 119 92 274 211 275 212 292 223 274 211 274 211 270 207 275 212 51 49 291 197 53 51</p>
                </polylist>
            </mesh>
        </geometry>
        <geometry id="mesh2">
            <mesh>
                <source id="points2">
                    <float_array id="pointarray2" count="84">59.859375 -29.5859375 -12.2421875 62.1484375 -30.5 -8.859375 59.2421875 -27.984375 -12.9375 61.4765625 -26.1328125 -9.390625 62.1484375 -30.5 8.8515625 59.859375 -29.5859375 12.234375 61.4765625 -26.1328125 9.3828125 59.2421875 -27.984375 12.9296875 59.0546875 -25.8515625 -13.03125 63.625 -28.578125 -4.8671875 63.4765625 -30.2109375 -5.71875 61.7734375 -23.0625 -6.6875 61.0546875 -22.453125 -8.53125 59.390625 -23.9921875 -12.203125 60.078125 -22.6953125 -10.578125 63.3984375 -26.3046875 4.5546875 62.7890625 -24.390625 5.2421875 61.0546875 -22.453125 8.5234375 61.7734375 -23.0625 6.6796875 59.0546875 -25.8515625 13.03125 59.390625 -23.9921875 12.203125 60.078125 -22.6953125 10.5703125 63.3984375 -26.3046875 -4.5546875 62.7890625 -24.390625 -5.25 63.625 -28.578125 4.859375 63.4765625 -30.2109375 5.71875 60.8203125 -30.71875 -11.1640625 60.8203125 -30.71875 11.15625</float_array>
                    <technique_common>
                        <accessor count="28" source="#pointarray2" stride="3">
                            <param name="X" type="float"/>
                            <param name="Y" type="float"/>
                            <param name="Z" type="float"/>
                        </accessor>
                    </technique_common>
                </source>
                <source id="uvs2">
                    <float_array id="uvarray2" count="28">0.8594970703125 0.695556640625 0.52789306640625 0.76104736328125 0.8973388671875 0.56451416015625 0.5943603515625 0.36474609375 0.8968505859375 0.38665771484375 0.192626953125 0.620361328125 0.271240234375 0.72979736328125 0.3865966796875 0.14288330078125 0.52740478515625 0.1134033203125 0.82843017578125 0.24188232421875 0.69915771484375 0.1458740234375 0.16119384765625 0.41845703125 0.21539306640625 0.224853515625 0.77545166015625 0.79449462890625</float_array>
                    <technique_common>
                        <accessor count="14" source="#uvarray2" stride="2">
                            <param name="S" type="float"/>
                            <param name="T" type="float"/>
                        </accessor>
                    </technique_common>
                </source>
                <vertices id="vertices2">
                    <input semantic="POSITION" source="#points2"/>
                </vertices>
                <polylist count="26" material="Material1">
                    <input offset="0" semantic="VERTEX" source="#vertices2"/>
                    <input offset="1" semantic="TEXCOORD" source="#uvs2" set="0"/>
                    <vcount>3 3 3 3 3 3 3 3 3 3 3 3 3 3 3 3 3 3 3 3 3 3 3 3 3 3</vcount>
                    <p>2 2 1 1 0 0 3 3 1 1 2 2 6 3 5 0 4 1 7 2 5 0 6 3 2 2 8 4 3 3 1 1 3 3 9 5 1 1 9 5 10 6 3 3 12 8 11 7 13 9 3 3 8 4 14 10 3 3 13 9 3 3 14 10 12 8 16 12 6 3 15 11 6 3 18 7 17 8 20 9 19 4 6 3 21 10 20 9 6 3 6 3 17 8 21 10 23 12 22 11 3 3 25 6 24 5 4 1 3 3 22 11 9 5 15 11 6 3 24 5 7 2 6 3 19 4 26 13 0 0 1 1 27 13 4 1 5 0 16 12 18 7 6 3 23 12 3 3 11 7 4 1 24 5 6 3</p>
                </polylist>
            </mesh>
        </geometry>
    </library_geometries>
    <library_visual_scenes>
        <visual_scene id="VisualSceneNode">
            <node id="node0" name="m0" type="NODE">
                <instance_geometry url="#mesh0">
                    <bind_material>
                        <technique_common>
                            <instance_material symbol="Material1" target="#mat0">
                                <bind_vertex_input semantic="UVSET0" input_semantic="TEXCOORD" input_set="0"></bind_vertex_input>
                            </instance_material>
                        </technique_common>
                    </bind_material>
                </instance_geometry>
            </node>
            <node id="node1" name="m1" type="NODE">
                <instance_geometry url="#mesh1">
                    <bind_material>
                        <technique_common>
                            <instance_material symbol="Material1" target="#mat1">
                                <bind_vertex_input semantic="UVSET0" input_semantic="TEXCOORD" input_set="0"></bind_vertex_input>
                            </instance_material>
                        </technique_common>
                    </bind_material>
                </instance_geometry>
            </node>
            <node id="node2" name="m2" type="NODE">
                <instance_geometry url="#mesh2">
                    <bind_material>
                        <technique_common>
                            <instance_material symbol="Material1" target="#mat2">
                                <bind_vertex_input semantic="UVSET0" input_semantic="TEXCOORD" input_set="0"></bind_vertex_input>
                            </instance_material>
                        </technique_common>
                    </bind_material>
                </instance_geometry>
            </node>
        </visual_scene>
    </library_visual_scenes>
    <scene>
        <instance_visual_scene url="#VisualSceneNode"></instance_visual_scene>
    </scene>
</COLLADA>
