<?xml version="1.0"?>
<COLLADA xmlns="http://www.collada.org/2005/11/COLLADASchema" version="1.4.1">
    <asset>
        <contributor>
            <authoring_tool>J3D Ripoff Exporter</authoring_tool>
        </contributor>
        <created>2024-08-18T22:44:47.246Z</created>
        <modified>2024-08-18T22:44:47.246Z</modified>
		<unit meter="0.01" name="centimeter" ></unit>
        <up_axis>Y_UP</up_axis>
    </asset>
    <library_images>
        <image id="tex0">
            <init_from>wilddonkey_skin.png</init_from>
        </image>
        <image id="tex1">
            <init_from>wilddonkey_eye.png</init_from>
        </image>
    </library_images>
    <library_effects>
        <effect id="effect0">
            <profile_COMMON>
                <newparam sid="surface0">
                    <surface type="2D">
                        <init_from>tex1</init_from>
                    </surface>
                </newparam>
                <newparam sid="sampler0">
                    <sampler2D>
                        <source>surface0</source>
                    </sampler2D>
                </newparam>
                <technique sid="COMMON">
                    <blinn>
                        <diffuse>
                            <texture texture="sampler0" texcoord="UVSET0"></texture>
                        </diffuse>
                    </blinn>
                </technique>
            </profile_COMMON>
        </effect>
        <effect id="effect1">
            <profile_COMMON>
                <newparam sid="surface1">
                    <surface type="2D">
                        <init_from>tex0</init_from>
                    </surface>
                </newparam>
                <newparam sid="sampler1">
                    <sampler2D>
                        <source>surface1</source>
                    </sampler2D>
                </newparam>
                <technique sid="COMMON">
                    <blinn>
                        <diffuse>
                            <texture texture="sampler1" texcoord="UVSET0"></texture>
                        </diffuse>
                    </blinn>
                </technique>
            </profile_COMMON>
        </effect>
        <effect id="effect2">
            <profile_COMMON>
                <newparam sid="surface2">
                    <surface type="2D">
                        <init_from>tex0</init_from>
                    </surface>
                </newparam>
                <newparam sid="sampler2">
                    <sampler2D>
                        <source>surface2</source>
                    </sampler2D>
                </newparam>
                <technique sid="COMMON">
                    <blinn>
                        <diffuse>
                            <texture texture="sampler2" texcoord="UVSET0"></texture>
                        </diffuse>
                    </blinn>
                </technique>
            </profile_COMMON>
        </effect>
    </library_effects>
    <library_materials>
        <material id="mat0" name="Eye">
            <instance_effect url="#effect0"></instance_effect>
        </material>
        <material id="mat1" name="Skin">
            <instance_effect url="#effect1"></instance_effect>
        </material>
        <material id="mat2" name="Skin_etc">
            <instance_effect url="#effect2"></instance_effect>
        </material>
    </library_materials>
    <library_geometries>
        <geometry id="mesh0">
            <mesh>
                <source id="points0">
                    <float_array id="pointarray0" count="27">52.35546875 -26.3203125 -24.2578125 51.375 -28.5 -25.17578125 55.8515625 -27.7578125 -20.53125 55.5390625 -32.703125 -19.88671875 58.68359375 -28.765625 -14.62109375 58.7421875 -30.00390625 -14.10546875 61.4765625 -29.01171875 -6.39453125 51.08984375 -31.72265625 -25.078125 51.91015625 -35 -23.328125</float_array>
                    <technique_common>
                        <accessor count="9" source="#pointarray0" stride="3">
                            <param name="X" type="float"/>
                            <param name="Y" type="float"/>
                            <param name="Z" type="float"/>
                        </accessor>
                    </technique_common>
                </source>
                <source id="uvs0">
                    <float_array id="uvarray0" count="18">0.88421630859375 0.34857177734375 0.89300537109375 0.424560546875 0.7108154296875 0.3331298828125 0.68475341796875 0.54498291015625 0.5115966796875 0.335693359375 0.48046875 0.4561767578125 0.26593017578125 0.37579345703125 0.9017333984375 0.50048828125 0.8389892578125 0.635009765625</float_array>
                    <technique_common>
                        <accessor count="9" source="#uvarray0" stride="2">
                            <param name="S" type="float"/>
                            <param name="T" type="float"/>
                        </accessor>
                    </technique_common>
                </source>
                <vertices id="vertices0">
                    <input semantic="POSITION" source="#points0"/>
                </vertices>
                <polylist count="7" material="Material1">
                    <input offset="0" semantic="VERTEX" source="#vertices0"/>
                    <input offset="1" semantic="TEXCOORD" source="#uvs0" set="0"/>
                    <vcount>3 3 3 3 3 3 3</vcount>
                    <p>2 2 1 1 0 0 3 3 1 1 2 2 4 4 3 3 2 2 5 5 3 3 4 4 6 6 5 5 4 4 3 3 7 7 1 1 8 8 7 7 3 3</p>
                </polylist>
            </mesh>
        </geometry>
        <geometry id="mesh1">
            <mesh>
                <source id="points1">
                    <float_array id="pointarray1" count="441">46.234375 2.078125 0.69140625 46.11328125 -3.53515625 9.89453125 46.26171875 0.1484375 0.69140625 47.92578125 -2.7421875 0.69140625 46.11328125 -3.53515625 -8.5078125 47.8671875 -6.17578125 -7.0546875 48.7265625 -0.5390625 -20.76953125 49.97265625 -3.58984375 -17.484375 55.19921875 1.83984375 -24.83203125 55.7578125 -1.45703125 -20.76953125 68.28515625 6.7578125 -23.51171875 68.84375 3.45703125 -19.0078125 81.71484375 6.2734375 -14.46875 77.92578125 2.37890625 -11.97265625 81.1875 4.171875 0.69140625 67.0546875 0.875 -6.296875 66.87890625 2.8125 0.69140625 54.20703125 -5.8046875 -7.3203125 54.19921875 -1.390625 0.69140625 54.20703125 -5.8046875 8.7109375 47.8671875 -6.17578125 8.4453125 49.97265625 -3.58984375 18.87109375 48.7265625 -0.5390625 22.16015625 55.19921875 1.83984375 26.22265625 48.59375 1.34765625 21.31640625 54.890625 3.66796875 25.1796875 54.4921875 6.015625 17.453125 67.84375 12.359375 16.04296875 54.375 9.69921875 0.69140625 65.3515625 11.625 0.69140625 65.88671875 11.63671875 -14.65625 81.296875 12.515625 0.69140625 78.81640625 10.70703125 -13.828125 84.4765625 7.58984375 0.69140625 42.21875 17.640625 33.25390625 46.875 17.66796875 31.12890625 43.7421875 7.890625 31.50390625 56.47265625 17.0390625 23.80859375 44.5 6.10546875 24.75390625 61.984375 16.22265625 17.31640625 44.609375 4.8984375 17.2578125 65.671875 15.7265625 9.4765625 45.58984375 4.0625 9.41015625 66.47265625 15.92578125 -0.01953125 45.87890625 4.015625 0.1796875 65.2109375 15.51953125 -9.56640625 45.48046875 4.8125 -9.12109375 62.12109375 15.08984375 -18.44140625 46.26171875 6.61328125 -18.47265625 56.1796875 15.54296875 -27.7734375 48.01953125 8.984375 -27.14453125 49.44921875 14.08203125 -33.9140625 52.96875 -6.0703125 -27.85546875 46.265625 -1.27734375 -33.046875 70.0859375 0.9140625 -36.29296875 67.296875 5.89453125 -37.32421875 81.33984375 12.88671875 26.359375 87.8515625 12.6640625 17.72265625 90.86328125 12.15625 9.61328125 91.6484375 11.85546875 -0.4140625 89.8828125 11.23046875 -10.4453125 86.58203125 10.1171875 -19.32421875 80.4765625 9.03515625 -28.890625 72.2890625 7.609375 -34.53515625 78.81640625 10.70703125 15.21875 68.2421875 10.01171875 23.953125 81.37890625 6.28125 15.859375 68.28515625 6.7578125 24.90234375 68.84375 3.45703125 20.3984375 55.7578125 -1.45703125 22.16015625 67.0546875 0.875 7.6875 49.828125 -21.62109375 28.36328125 53.26171875 -23.66015625 24.4609375 47.04296875 -27.453125 30.2265625 52.59765625 -27.546875 25.109375 51.90234375 -33.5859375 24.17578125 55.5390625 -32.0703125 19.88671875 55.390625 -35.34765625 18.19140625 59.9375 -28.765625 15.87109375 58.66015625 -32.30859375 13.50390625 60.0859375 -30.23828125 6.78515625 48.59375 1.34765625 -19.92578125 54.890625 3.66796875 -23.79296875 68.2421875 10.01171875 -22.5625 50.2890625 4.46484375 -13.46484375 54.4921875 6.015625 -16.0625 60.734375 -29.71484375 -3.4453125 60.94140625 -28.13671875 -2.4296875 61.4765625 -29.01171875 -6.39453125 60.546875 -27.55078125 -8.515625 58.68359375 -28.765625 -14.62109375 58.453125 -26.3984375 -15.1796875 55.84765625 -24.9375 -20.31640625 54.375 -14.859375 27.6875 59.265625 -16.9765625 19.48828125 82.2890625 -16.265625 20.81640625 86.4140625 -16.4609375 10.671875 62.01953125 -17.05859375 10.046875 87.94140625 -15.54296875 -0.4140625 63.33203125 -16.46484375 0.3828125 86.765625 -13.21875 -11.50390625 62.3359375 -14.8515625 -9.87109375 83.04296875 -10.15234375 -20.62109375 59.6015625 -11.7109375 -18.5 76.48046875 -5.1015625 -29.6171875 59.70703125 -26.3984375 16.4296875 55.84765625 -24.9375 20.31640625 55.8515625 -27.7578125 20.53125 50.2890625 4.46484375 14.85546875 77.92578125 2.37890625 13.36328125 60.73046875 -30.23828125 -6.78515625 58.7421875 -30.00390625 -14.10546875 58.55859375 -31.94140625 -13.08203125 54.71484375 -35.3515625 -18.19140625 61.32421875 12.5703125 36.625 56.26953125 9.1875 38.98046875 45.90625 8.03515625 36.78125 55.203125 3.20703125 40.04296875 57.7578125 -2.9609375 40.56640625 41.6875 -9.44921875 35.33984375 65.08984375 -9.35546875 38.3828125 75.3203125 -13.96484375 30.72265625 45.65234375 -32.90234375 30.16015625 49.4140625 -42.4921875 22.4765625 46.56640625 -38.76171875 26.9296875 47.7421875 -45.4140625 22.69140625 49.828125 -21.62109375 -28.36328125 47.04296875 -27.453125 -30.2265625 53.26171875 -23.66015625 -24.4609375 52.35546875 -26.3203125 -24.2578125 55.8515625 -27.7578125 -20.53125 70.7578125 12.98046875 33.3671875 45.65234375 -32.90234375 -30.16015625 49.4140625 -42.4921875 -22.4765625 51.91015625 -35 -23.328125 52.265625 -37.77734375 -20.890625 47.7421875 -45.4140625 -22.69140625 46.56640625 -38.76171875 -26.9296875 51.375 -28.5 -25.17578125 51.08984375 -31.72265625 -25.078125 61.0859375 -28.03125 0 60.5859375 -29.51171875 0 60.94140625 -28.13671875 2.4296875 60.734375 -29.71484375 3.4453125 52.62890625 -38.37890625 20.890625 55.5390625 -32.703125 -19.88671875 60.546875 -27.55078125 8.515625</float_array>
                    <technique_common>
                        <accessor count="147" source="#pointarray1" stride="3">
                            <param name="X" type="float"/>
                            <param name="Y" type="float"/>
                            <param name="Z" type="float"/>
                        </accessor>
                    </technique_common>
                </source>
                <source id="uvs1">
                    <float_array id="uvarray1" count="258">0.419189453125 0.99761962890625 0.44342041015625 0.997802734375 0.419189453125 0.997802734375 0.419189453125 0.9971923828125 0.443603515625 0.997802734375 0.4351806640625 0.9971923828125 0.4759521484375 0.99664306640625 0.46728515625 0.996337890625 0.48663330078125 0.99334716796875 0.4759521484375 0.99334716796875 0.483154296875 0.97259521484375 0.47125244140625 0.97259521484375 0.465576171875 0.9482421875 0.45794677734375 0.956298828125 0.419189453125 0.947265625 0.43780517578125 0.97259521484375 0.419189453125 0.97259521484375 0.43572998046875 0.9945068359375 0.419189453125 0.99517822265625 0.43548583984375 0.9945068359375 0.4349365234375 0.9971923828125 0.467041015625 0.996337890625 0.4757080078125 0.99664306640625 0.4864501953125 0.99334716796875 0.4735107421875 0.99658203125 0.48370361328125 0.99334716796875 0.46331787109375 0.99334716796875 0.4595947265625 0.97259521484375 0.419189453125 0.99334716796875 0.4598388671875 0.97259521484375 0.419189453125 0.9398193359375 0.463623046875 0.9503173828125 0.419189453125 0.937255859375 0.5479736328125 0.68841552734375 0.54937744140625 0.68572998046875 0.54864501953125 0.687255859375 0.5430908203125 0.6871337890625 0.54364013671875 0.688232421875 0.5306396484375 0.677734375 0.530029296875 0.677978515625 0.519287109375 0.6700439453125 0.5189208984375 0.66949462890625 0.505859375 0.66278076171875 0.506103515625 0.66278076171875 0.5172119140625 0.67041015625 0.517822265625 0.6705322265625 0.529296875 0.67730712890625 0.53009033203125 0.67767333984375 0.53955078125 0.6812744140625 0.54144287109375 0.6851806640625 0.545166015625 0.68603515625 0.5433349609375 0.6890869140625 0.544677734375 0.68896484375 0.574462890625 0.6439208984375 0.57366943359375 0.6650390625 0.5738525390625 0.6483154296875 0.55352783203125 0.61798095703125 0.5267333984375 0.59893798828125 0.5069580078125 0.59197998046875 0.5252685546875 0.59967041015625 0.54779052734375 0.6109619140625 0.56475830078125 0.62969970703125 0.58416748046875 0.65814208984375 0.54473876953125 0.6846923828125 0.46343994140625 0.9503173828125 0.48046875 0.97259521484375 0.46539306640625 0.9482421875 0.48297119140625 0.97259521484375 0.4710693359375 0.97259521484375 0.4757080078125 0.99334716796875 0.4376220703125 0.97259521484375 0.75189208984375 0.671875 0.81890869140625 0.6871337890625 0.814697265625 0.666748046875 0.8446044921875 0.69671630859375 0.873046875 0.701171875 0.8775634765625 0.71185302734375 0.8978271484375 0.70355224609375 0.88348388671875 0.71826171875 0.89459228515625 0.70404052734375 0.9180908203125 0.73236083984375 0.47369384765625 0.99658203125 0.48388671875 0.99334716796875 0.48065185546875 0.97259521484375 0.4566650390625 0.9954833984375 0.4635009765625 0.99334716796875 0.77880859375 0.67156982421875 0.83306884765625 0.67266845703125 0.8245849609375 0.6917724609375 0.83941650390625 0.6932373046875 0.80853271484375 0.6986083984375 0.8197021484375 0.68682861328125 0.544189453125 0.6893310546875 0.5294189453125 0.67822265625 0.51849365234375 0.66900634765625 0.50634765625 0.66278076171875 0.5184326171875 0.67071533203125 0.53094482421875 0.677978515625 0.80181884765625 0.69097900390625 0.45648193359375 0.9954833984375 0.457763671875 0.956298828125 0.93585205078125 0.75054931640625 0.90362548828125 0.7391357421875 0.93255615234375 0.7255859375 0.897705078125 0.7034912109375 0.582763671875 0.65838623046875 0.54791259765625 0.68804931640625 0.582275390625 0.6573486328125 0.54779052734375 0.6873779296875 0.582275390625 0.657470703125 0.5771484375 0.6551513671875 0.54791259765625 0.68878173828125 0.58331298828125 0.65936279296875 0.87066650390625 0.6771240234375 0.92340087890625 0.71917724609375 0.92608642578125 0.715087890625 0.9359130859375 0.72308349609375 0.79840087890625 0.7010498046875 0.548095703125 0.68878173828125 0.86932373046875 0.72235107421875 0.8194580078125 0.70928955078125 0.8404541015625 0.71466064453125 0.79888916015625 0.750732421875 0.8363037109375 0.75732421875 0.8057861328125 0.72711181640625 0.8353271484375 0.73394775390625 0.57269287109375 0.66357421875 0.54644775390625 0.685791015625 0.54608154296875 0.68878173828125</float_array>
                    <technique_common>
                        <accessor count="129" source="#uvarray1" stride="2">
                            <param name="S" type="float"/>
                            <param name="T" type="float"/>
                        </accessor>
                    </technique_common>
                </source>
                <vertices id="vertices1">
                    <input semantic="POSITION" source="#points1"/>
                </vertices>
                <polylist count="222" material="Material1">
                    <input offset="0" semantic="VERTEX" source="#vertices1"/>
                    <input offset="1" semantic="TEXCOORD" source="#uvs1" set="0"/>
                    <vcount>3 3 3 3 3 3 3 3 3 3 3 3 3 3 3 3 3 3 3 3 3 3 3 3 3 3 3 3 3 3 3 3 3 3 3 3 3 3 3 3 3 3 3 3 3 3 3 3 3 3 3 3 3 3 3 3 3 3 3 3 3 3 3 3 3 3 3 3 3 3 3 3 3 3 3 3 3 3 3 3 3 3 3 3 3 3 3 3 3 3 3 3 3 3 3 3 3 3 3 3 3 3 3 3 3 3 3 3 3 3 3 3 3 3 3 3 3 3 3 3 3 3 3 3 3 3 3 3 3 3 3 3 3 3 3 3 3 3 3 3 3 3 3 3 3 3 3 3 3 3 3 3 3 3 3 3 3 3 3 3 3 3 3 3 3 3 3 3 3 3 3 3 3 3 3 3 3 3 3 3 3 3 3 3 3 3 3 3 3 3 3 3 3 3 3 3 3 3 3 3 3 3 3 3 3 3 3 3 3 3 3 3 3 3 3 3 3 3 3 3 3 3</vcount>
                    <p>2 2 1 1 0 0 3 3 1 1 2 2 4 4 3 3 2 2 5 5 3 3 4 4 6 6 5 5 4 4 7 7 5 5 6 6 8 8 7 7 6 6 9 9 7 7 8 8 10 10 9 9 8 8 11 11 9 9 10 10 12 12 11 11 10 10 13 13 11 11 12 12 14 14 13 13 12 12 15 15 13 13 14 14 16 16 15 15 14 14 17 17 15 15 16 16 18 18 17 17 16 16 3 3 17 17 18 18 19 19 3 3 18 18 20 20 3 3 19 19 21 21 20 20 19 19 22 22 20 20 21 21 23 23 22 22 21 21 24 24 22 22 23 23 25 25 24 24 23 23 26 26 24 24 25 25 27 27 26 26 25 25 28 28 26 26 27 27 29 16 28 28 27 27 30 29 28 28 29 16 31 30 30 29 29 16 32 31 30 29 31 30 33 32 32 31 31 30 12 12 32 31 33 32 14 14 12 12 33 32 36 35 35 34 34 33 37 36 35 34 36 35 38 37 37 36 36 35 39 38 37 36 38 37 40 39 39 38 38 37 41 40 39 38 40 39 42 41 41 40 40 39 43 42 41 40 42 41 44 43 43 42 42 41 45 44 43 42 44 43 46 45 45 44 44 43 47 46 45 44 46 45 48 47 47 46 46 45 49 48 47 46 48 47 50 49 49 48 48 47 51 50 49 48 50 49 52 51 51 50 50 49 53 52 51 50 52 51 54 53 53 52 52 51 55 54 53 52 54 53 37 36 56 55 35 34 57 56 56 55 37 36 39 38 57 56 37 36 58 57 57 56 39 38 41 40 58 57 39 38 59 58 58 57 41 40 43 42 59 58 41 40 60 59 59 58 43 42 45 44 60 59 43 42 61 60 60 59 45 44 47 46 61 60 45 44 62 61 61 60 47 46 49 48 62 61 47 46 63 62 62 61 49 48 51 63 63 62 49 48 27 27 31 30 29 16 64 64 31 30 27 27 65 65 64 64 27 27 66 66 64 64 65 65 67 67 66 66 65 65 68 68 66 66 67 67 69 69 68 68 67 67 70 70 68 68 69 69 19 19 70 70 69 69 16 16 70 70 19 19 18 18 16 16 19 19 73 73 72 72 71 71 74 74 72 72 73 73 75 75 74 74 73 73 76 76 74 74 75 75 77 77 76 76 75 75 78 78 76 76 77 77 79 79 78 78 77 77 80 80 78 78 79 79 81 81 6 6 4 4 8 8 6 6 81 81 82 82 8 8 81 81 10 10 8 8 82 82 83 83 10 10 82 82 12 12 10 10 83 83 32 31 12 12 83 83 69 69 21 21 19 19 23 23 21 21 69 69 67 67 23 23 69 69 25 25 23 23 67 67 65 65 25 25 67 67 27 27 25 25 65 65 0 0 4 4 2 2 81 81 4 4 0 0 84 84 81 81 0 0 85 85 81 81 84 84 28 28 85 85 84 84 30 29 85 85 28 28 15 15 11 11 13 13 9 9 11 11 15 15 17 17 9 9 15 15 7 7 9 9 17 17 5 5 7 7 17 17 88 88 87 87 86 86 89 89 87 87 88 88 90 90 89 89 88 88 91 91 89 89 90 90 92 91 91 91 90 90 93 92 40 39 38 37 94 93 40 39 93 92 95 56 94 93 93 92 96 57 94 93 95 56 94 93 42 41 40 39 97 94 42 41 94 93 96 57 97 94 94 93 98 58 97 94 96 57 97 94 44 43 42 41 99 95 44 43 97 94 98 58 99 95 97 94 100 59 99 95 98 58 99 95 46 45 44 43 101 96 46 45 99 95 100 59 101 96 99 95 102 60 101 96 100 59 101 96 48 47 46 45 103 97 48 47 101 96 102 60 103 97 101 96 104 61 103 97 102 60 103 97 50 49 48 47 52 51 50 49 103 97 104 61 52 51 103 97 54 53 52 51 104 61 106 91 78 98 105 91 107 90 78 98 106 91 72 72 107 90 106 91 74 74 107 90 72 72 0 0 28 28 84 84 108 99 28 28 0 0 24 24 108 99 0 0 26 26 108 99 24 24 14 14 70 70 16 16 109 100 70 70 14 14 66 66 109 100 14 14 68 68 109 100 66 66 110 103 88 102 86 101 111 78 88 102 110 103 112 104 111 78 110 103 113 77 111 78 112 104 115 107 34 106 114 105 116 108 34 106 115 107 117 109 116 108 115 107 118 110 116 108 117 109 116 108 36 35 34 106 119 111 36 35 116 108 118 110 119 111 116 108 120 112 119 111 118 110 119 111 38 37 36 35 93 92 38 37 119 111 121 55 93 92 119 111 95 56 93 92 121 55 122 113 75 75 73 73 123 114 75 75 122 113 124 115 123 114 122 113 125 116 123 114 124 115 128 72 127 73 126 71 129 117 127 73 128 72 130 90 129 117 128 72 35 34 114 105 34 118 131 112 114 105 35 34 56 55 131 112 35 34 1 1 24 24 0 0 22 22 24 24 1 1 20 20 22 22 1 1 134 119 133 114 132 113 135 104 133 114 134 119 113 77 135 104 134 119 33 32 66 66 14 14 64 64 66 66 33 32 31 30 64 64 33 32 137 115 133 114 136 114 132 113 133 114 137 115 83 83 30 29 32 31 82 82 30 29 83 83 138 120 127 73 129 117 139 121 127 73 138 120 139 121 132 113 127 73 134 119 132 113 139 121 142 124 141 123 140 122 143 125 141 123 142 124 76 76 107 90 74 74 78 98 107 90 76 76 144 104 75 75 123 114 77 77 75 75 144 104 87 124 141 123 86 125 140 122 141 123 87 124 82 82 85 85 30 29 81 81 85 85 82 82 145 76 113 77 134 119 111 78 113 77 145 76 92 91 130 90 128 72 90 90 130 90 92 91 142 87 80 88 143 86 146 89 80 88 142 87 146 89 78 98 80 88 105 91 78 98 146 89 17 17 3 3 5 5 1 1 3 3 20 20 109 100 68 68 70 70 26 26 28 28 108 99 51 127 55 126 63 62 121 55 119 111 120 112 55 54 51 128 53 52</p>
                </polylist>
            </mesh>
        </geometry>
        <geometry id="mesh2">
            <mesh>
                <source id="points2">
                    <float_array id="pointarray2" count="1299">56.26953125 9.1875 38.98046875 55.203125 3.20703125 40.04296875 52.46484375 3.3046875 43.640625 57.7578125 -2.9609375 40.56640625 55.4375 -5.484375 43.62109375 65.08984375 -9.35546875 38.3828125 65.1640625 -14.30859375 39.37109375 75.3203125 -13.96484375 30.72265625 75.15625 -18.46875 31.46875 82.2890625 -16.265625 20.81640625 82.71875 -20.5859375 20.15625 86.328125 -20.8046875 10.09765625 75.15625 -22.76171875 18.96484375 80.31640625 -24.3203125 -0.4140625 71.8984375 -25.359375 8.11328125 73.8125 -25.703125 0 68.7265625 -26.79296875 8.296875 70.3671875 -27.1875 0 61.0859375 -28.03125 0 68.7265625 -26.79296875 -8.296875 60.94140625 -28.13671875 -2.4296875 60.265625 -27.55078125 -8.515625 81.3515625 17.61328125 -28.5390625 88.21484375 19.70703125 -17.0078125 79.265625 26.875 -25.640625 85.64453125 27.453125 -13.953125 80.4765625 32.69140625 -14.91015625 83.61328125 32.7109375 0 69.33984375 38.59765625 0 80.4765625 32.58203125 15.73828125 68.02734375 37.77734375 16.08203125 68.73828125 33.75 27.92578125 52.78515625 38.6484375 19.37109375 52.60546875 33.53125 32.84765625 40.54296875 37.8125 21.62109375 37.50390625 28.3046875 41.078125 26.8828125 29.6328125 36.5234375 32.1953125 17.5703125 47.85546875 21.40625 17.8828125 44.04296875 30.1796875 9.08203125 48.87890625 20.79296875 7.3515625 46.24609375 26.46484375 -0.84765625 45.86328125 19.18359375 -1.86328125 39.6484375 25.890625 -8.6875 40.6328125 80.19140625 -13.30859375 7.04296875 79.1328125 -11.5390625 11.43359375 79.00390625 -15.59765625 11.69921875 77.140625 -12.1953125 15.26953125 75.22265625 -16.5390625 19.41015625 75.20703125 -10.6640625 18.390625 68.05859375 -13.1484375 25.9453125 71.57421875 -5.3359375 23.109375 61.93359375 -0.671875 26.58203125 71.77734375 -2.30078125 23.421875 72.5234375 -0.91015625 27.37109375 72.6484375 -3.7109375 28.23828125 77.68359375 2.55859375 21.4921875 77.26953125 -5.515625 25.33984375 78.859375 -3.48828125 21.43359375 77.1875 -16.4609375 21.53515625 78.14453125 -10.71484375 20.7265625 80.1484375 -12.6015625 17.3046875 54.30859375 10.7421875 43.18359375 47.76953125 13.08203125 46.37109375 61.6328125 14.44921875 40.88671875 60.44921875 18.609375 41.703125 73.203125 14.79296875 35.99609375 73.8203125 18.73828125 36.03515625 85.08203125 14.609375 27.41015625 85.703125 19.2109375 26.89453125 91.765625 14.4140625 17.98046875 92.203125 19.078125 18.00390625 95.01953125 14.01171875 9.92578125 95.24609375 18.7578125 10.33203125 95.90234375 13.8984375 -0.4140625 96.37109375 18.484375 -0.4140625 94.015625 17.83984375 -10.53125 90.85546875 20.73828125 -7.76171875 73.46875 25.77734375 -32.625 69.1484375 33.0390625 -28.1328125 60.140625 28.72265625 -38.4921875 52.60546875 34.21875 -32.69921875 46.51171875 24.9140625 -44.4765625 37.50390625 25.47265625 -44.92578125 32.1953125 17.5703125 -49.32421875 21.39453125 17.10546875 -43.8984375 29.38671875 9.08203125 -49.796875 20.79296875 7.3515625 -46.24609375 26.46484375 -0.84765625 -45.86328125 19.18359375 -1.86328125 -39.6484375 25.890625 -8.6875 -40.6328125 49.828125 -21.62109375 -28.36328125 49.06640625 -19.875 -31.03515625 47.04296875 -27.453125 -30.2265625 47.34765625 -27.953125 -32.15234375 45.65234375 -32.90234375 -30.16015625 46.03125 -33.76171875 -32.109375 46.56640625 -38.76171875 -26.9296875 46.91796875 -40.375 -28.8203125 47.7421875 -45.4140625 -22.69140625 48.171875 -46.54296875 -25.16015625 48.87890625 -52.2265625 -22.203125 45.89453125 -52.21484375 -24.5546875 42.52734375 -53.02734375 -23.90625 40.625 -46.7734375 -28.10546875 64.81640625 -37.77734375 0 60.19140625 -39.23046875 0 64.4453125 -37.87890625 3.41015625 59.80859375 -39.75 5.640625 63.890625 -38.44140625 6.94921875 58.45703125 -41.58203125 10.0859375 62.625 -40.14453125 12.05859375 55.21484375 -44.5546875 13.328125 59.078125 -43.3046875 16.08984375 56.08984375 -47.359375 18.34765625 53.390625 -45.578125 21.51171875 48.87890625 -52.2265625 22.203125 47.7421875 -45.4140625 22.69140625 48.171875 -46.54296875 25.16015625 64.828125 -27.51171875 -7.0234375 66.87890625 -27.796875 -3.9140625 69.41015625 -26.98828125 -6.97265625 69.77734375 -27.44140625 -3.8671875 72.98828125 -25.40625 -6.953125 73.359375 -25.94140625 -3.84765625 79.8125 -23.234375 -6.96875 80.1796875 -23.76953125 -3.86328125 83.5234375 -21.34375 -6.984375 83.890625 -21.7265625 -3.875 87.234375 -18.75390625 -6.99609375 87.6015625 -19.296875 -3.890625 87.40234375 -14.06640625 -7.0234375 87.76953125 -14.53125 -3.9140625 86.4140625 -16.4609375 10.671875 87.69140625 -19.63671875 -0.4140625 86.68359375 -17.5625 -10.9296875 77.2265625 -19.796875 -19.796875 83.50390625 -14.3046875 -20.62890625 75.046875 -12.25390625 -31.91015625 77.00390625 -8.7578125 -31.1015625 69.70703125 -0.71484375 -38.76171875 76.48046875 -5.1015625 -29.6171875 70.0859375 0.9140625 -36.29296875 84.734375 12.94140625 1.265625 82.75 12.9453125 9.72265625 87.9296875 0.37890625 1.98046875 85.79296875 0.515625 10.84765625 90.45703125 1.16796875 2.109375 88.1953125 1.41015625 11.61328125 88.6796875 3.5546875 12.0234375 82.01953125 3.50390625 21.609375 80.828125 13.0390625 21.66015625 79.16015625 9.44140625 27.0078125 76.30859375 13.41015625 26.2578125 71.54296875 13.6875 30 52.89453125 41.16015625 0 37.4140625 41.12109375 0 26.43359375 36.13671875 22.48828125 13.2421875 23.96875 22.81640625 12.0078125 16.0078125 30.65625 14.42578125 4.97265625 37.46484375 69.29296875 4.1171875 24.83203125 78.984375 -1.6328125 25.54296875 78.9296875 3.16796875 19.2734375 82.02734375 1.55078125 20.5390625 80.12109375 0.828125 18.96484375 77.71484375 13.3515625 18.43359375 49.4140625 -42.4921875 22.4765625 52.62890625 -38.37890625 20.890625 58.5 -39.2578125 17.64453125 55.390625 -35.34765625 18.19140625 62.125 -35.87109375 13.06640625 58.66015625 -32.30859375 13.50390625 64.12109375 -34.23046875 7.4296875 60.0859375 -30.23828125 6.78515625 60.734375 -29.71484375 3.4453125 47.296875 -5.328125 46.6328125 46.6171875 3.41015625 47.16015625 61.32421875 12.5703125 36.625 70.7578125 12.98046875 33.3671875 74.25390625 -15.55859375 26.15234375 70.16796875 -14.37109375 29.71875 62.57421875 -12.109375 33.93359375 63.25390625 -1.95703125 32.58203125 54.51171875 -0.9296875 36.21484375 54.84375 0.7890625 35.10546875 54.22265625 -0.9453125 28.375 69.55078125 -20.33203125 30.1484375 64.0078125 -22.703125 25.5546875 67.99609375 -24.05078125 18.40234375 59.70703125 -26.3984375 16.4296875 63.30078125 -26.08984375 12.51171875 60.546875 -27.55078125 8.515625 60.94140625 -28.13671875 2.4296875 91.6484375 11.85546875 -0.4140625 93.71484375 13.14453125 -10.7578125 89.8828125 11.23046875 -10.4453125 90.63671875 12.40625 -20.93359375 86.58203125 10.1171875 -19.32421875 82.5546875 11 -31.71875 80.4765625 9.03515625 -28.890625 72.2890625 7.609375 -34.53515625 90.9609375 16.53125 -20.95703125 82.83203125 14.74609375 -30.99609375 74.26953125 13.03515625 -37.98046875 74.53515625 9.77734375 -37.828125 60.90625 1.8984375 -24.37890625 60.8203125 3.7578125 -30.9140625 67.546875 1.83984375 -22.34765625 68.9453125 3.09375 -27.48046875 76.890625 0.76953125 -23.23046875 68.90625 0.81640625 -28.671875 77.171875 -1.98046875 -24.3046875 67.99609375 -10.140625 -30.47265625 74.9140625 -11.15625 -25.421875 50.42578125 1.93359375 27.671875 49.91015625 2.33203125 33.375 60 2.62109375 26.921875 60.80859375 2.91015625 31.06640625 72.21875 2.65234375 28.11328125 60.5078125 4.8203125 32.1796875 72.91015625 4.4375 28.81640625 61.12890625 14.5859375 33.890625 67.296875 5.89453125 -37.32421875 66.98828125 6.5390625 -41.72265625 65.7421875 11.109375 -42.5078125 73.45703125 15.8125 -36.453125 71.3671875 -15.95703125 -31.44140625 64.0078125 -21.859375 -25.5546875 67.99609375 -23.73828125 -18.40234375 58.453125 -26.3984375 -15.1796875 63.30078125 -26.08984375 -12.51171875 55.0703125 2.91015625 -27.47265625 63.15625 4.2109375 -26.1015625 55.234375 2.296875 -33.8046875 65.81640625 3.6171875 -29.99609375 65.62890625 5.5234375 -31.10546875 74.9609375 3.453125 -25.86328125 75.984375 5.23828125 -26.44921875 71.4140625 5.0625 -22.91796875 81.1484375 -1.69140625 -23.1328125 53.390625 -45.578125 -21.51171875 56.078125 -47.359375 -17.75 59.078125 -43.3046875 -16.08984375 55.21484375 -44.5546875 -13.328125 62.625 -40.14453125 -12.0546875 58.45703125 -41.58203125 -10.0859375 63.890625 -38.44140625 -6.94921875 65.40234375 -10.578125 -38.078125 55.78515625 -5.85546875 -43.08984375 50.95703125 -14.34765625 -37.8984375 47.36328125 -1.15234375 -46.55078125 42.8984375 -11.203125 -40.9453125 37.66796875 -0.8125 -48.40234375 36.1875 -9.68359375 -42.69921875 64.703125 -33.87890625 4.06640625 65.3671875 -33.47265625 2.6484375 62.97265625 -29.97265625 2.30078125 65.73828125 -33.0546875 0 62.375 -28.56640625 0 62.97265625 -29.97265625 -2.30078125 60.734375 -29.71484375 -3.4453125 64.703125 -33.87890625 -4.06640625 83.30859375 12.93359375 -6.69140625 85.5546875 0.51171875 -6.90625 81.265625 3.12109375 -16.01953125 82.2109375 0.71875 -15.3203125 84.4765625 1.50390625 -16.2265625 88.046875 1.41796875 -7.90234375 84.57421875 3.453125 -17.265625 88.5703125 3.55859375 -8.23828125 77.9609375 -10.05078125 -13.70703125 77.9375 -3.0390625 -14.984375 81.109375 -10.00390625 -15.92578125 80.59375 -3.07421875 -17.125 80.30859375 -14 -16.01953125 79.96484375 -2.859375 -19.8515625 78.37890625 -12.7265625 -20.82421875 46.56640625 -38.76171875 26.9296875 46.91796875 -40.375 28.8203125 44.35546875 -47.140625 28.1953125 45.89453125 -52.21484375 24.5546875 40.625 -46.7734375 28.10546875 42.52734375 -53.02734375 23.90625 82.58203125 -11.14453125 -12.69140625 83.29296875 -15.93359375 -8.078125 83.8984375 -11.5078125 -7.6484375 84.30078125 -13.51171875 -2.8359375 80.9375 -13.16015625 -2.24609375 81.26171875 -12.16796875 2.5 45.65234375 -32.90234375 30.16015625 46.03125 -33.76171875 32.109375 43.16796875 -41.1953125 31.8046875 39.3046875 -40.80859375 31.47265625 47.04296875 -27.453125 30.2265625 47.34765625 -27.953125 32.15234375 41.86328125 -31.21484375 36.16796875 41.44140625 -34.46484375 35.65625 38.73828125 -30.40234375 35.96484375 38.12109375 -34.04296875 35.57421875 49.828125 -21.62109375 28.36328125 49.06640625 -20.1953125 31.03515625 45.74609375 -18.56640625 34.08984375 42.89453125 -26.83984375 36.12109375 42.83984375 -17.734375 34.296875 40.12109375 -25.63671875 36.1171875 59.1953125 -19.4453125 -31.44921875 45.74609375 -18.20703125 -34.08984375 42.83984375 -17.734375 -34.296875 36.5234375 -14.70703125 -37.37890625 75.22265625 13.31640625 -28.359375 65.08203125 13.06640625 -33.79296875 54.8203125 4.140625 -34.41015625 41.234375 17.4453125 -49.703125 39.17578125 10.9765625 -50.68359375 56.9453125 12.4375 -47.18359375 50.5 6.09375 -48.359375 61.01171875 2.52734375 -44.26171875 68.00390625 -4.9140625 -39.41015625 42.89453125 -26.83984375 -36.12109375 41.86328125 -31.21484375 -36.16796875 40.12109375 -25.63671875 -36.1171875 38.73828125 -30.40234375 -35.96484375 63.46875 0.37109375 31.60546875 41.44140625 -34.46484375 -35.65625 43.16796875 -41.1953125 -31.8046875 38.12109375 -34.04296875 -35.57421875 39.3046875 -40.80859375 -31.47265625 42.8984375 -12.5 42.359375 36.5234375 -14.70703125 37.37890625 35.2109375 -10.76171875 42.3984375 29.5 -11.0546875 39.7421875 40.30859375 15.421875 47.51953125 45.4453125 21.6875 44.78125 63.79296875 29.21875 35.59765625 38.6328125 6.34765625 49.2421875 52.29296875 -48.19921875 14.80859375 52.3828125 -52.44921875 17.82421875 50.95703125 -15.265625 40.62890625 64.12109375 -34.23046875 -7.4296875 62.125 -35.87109375 -13.06640625 58.5 -39.2578125 -17.64453125 54.71484375 -35.3515625 -18.19140625 52.265625 -37.77734375 -20.890625 65.3671875 -33.47265625 -2.6484375 81.3203125 9.3828125 -23.62890625 82.69921875 12.6875 -16.90625 81.80078125 13.34765625 -24.34765625 88.5703125 27.38671875 0 84.65625 27.85546875 15.8359375 78.48046875 27.3359375 25.7109375 82.99609375 22.3359375 23.37890625 70.234375 22.82421875 33.5859375 91.921875 21.72265625 -0.390625 91.74609375 21.9609375 7.2109375 88.859375 22.51171875 14.62890625 17.09375 33.265625 0 26.43359375 36.0078125 -22.48828125 40.54296875 37.8125 -21.62109375 52.78515625 38.671875 -19.37109375 38.24609375 5.22265625 -50.27734375 67.9140625 37.09765625 -16.5390625 57.9453125 19.6015625 -45.7109375 81.19140625 -16.24609375 2.55078125 80.54296875 -16 -6.54296875 80.546875 -11.47265625 -6.1953125 79.2578125 -11.20703125 -10.02734375 44.35546875 -47.140625 -28.1953125 52.29296875 -48.19921875 -14.80859375 52.76171875 -52.44921875 -17.5546875 49.10546875 -52.99609375 -15.1640625 64.4453125 -37.87890625 -3.41015625 59.80859375 -39.75 -5.640625 75.20703125 -2.94140625 -18.49609375 75.43359375 -0.734375 -18.47265625 82.21875 -12.0625 13.171875 72.17578125 3.76171875 -23.7421875 14.42578125 4.97265625 -37.46484375 12.0078125 16.0078125 -30.65625 13.2421875 23.96875 -22.81640625 71.8984375 -25.359375 -8.11328125 79.33984375 3.02734375 -17.453125 59.1953125 -20.36328125 31.44921875 36.91015625 -3.98828125 47.57421875 83.04296875 -10.15234375 -20.62109375 86.765625 -13.21875 -11.50390625 87.94140625 -15.54296875 -0.4140625 53.26171875 -23.66015625 24.4609375 55.84765625 -24.9375 20.31640625 70.62109375 2.703125 25.87890625 60.6796875 2.09375 -32.203125 58.82421875 -8.76953125 -34.66796875 49.40234375 4.17578125 34.5078125 49.234375 14.79296875 36.55859375 66.16796875 -11.60546875 -25.16796875 73.61328125 -12.71875 -21.640625 81.33984375 12.88671875 26.359375 87.8515625 12.6640625 17.72265625 60.73046875 -30.23828125 -6.78515625 58.55859375 -31.94140625 -13.08203125 30.11328125 31.01953125 -35.84765625 52.28125 -23.66015625 -24.4609375 29.5 -11.0546875 -39.7421875 58.68359375 22.7578125 39.6796875 15.78125 29.48828125 13.8359375 81.45703125 -16.7421875 13.609375 83.421875 -13.765625 8.04296875 54.28125 15.2734375 -27.69140625 62.5546875 15.15234375 -25.66015625 74.9296875 12.83984375 -20.390625 53.55078125 -9.5859375 37.953125 53.5546875 -10.078125 32.24609375 54.34375 11.625 -37.25390625 61.24609375 -11.1875 29.9765625 86.0703125 13.5546875 11.6015625 91.1171875 2.9453125 2.1640625 81.1484375 12.23828125 -13.78125 15.78125 29.48828125 -13.8359375 59.41796875 -9.9765625 -27.80859375 90.86328125 12.15625 9.61328125 55.84765625 -24.9375 -20.31640625 84.63671875 -12.62890625 2.765625 76.55859375 -3.328125 19.13671875 49.4140625 -42.4921875 -22.4765625 87.16796875 12.44140625 -8.296875 83.9921875 -17.31640625 2.8828125 60.5859375 -29.51171875 0 78.3203125 -13.7109375 -14.0390625 49.10546875 -52.99609375 15.1640625 59.4765625 16.30859375 26.2578125 69.46875 15.6640625 22.546875 88.44140625 13.6484375 1.375 49.6875 14.08203125 27.72265625</float_array>
                    <technique_common>
                        <accessor count="433" source="#pointarray2" stride="3">
                            <param name="X" type="float"/>
                            <param name="Y" type="float"/>
                            <param name="Z" type="float"/>
                        </accessor>
                    </technique_common>
                </source>
                <source id="uvs2">
                    <float_array id="uvarray2" count="676">0.24444580078125 0.771728515625 0.23284912109375 0.78070068359375 0.2425537109375 0.79644775390625 0.2049560546875 0.79937744140625 0.22161865234375 0.82049560546875 0.173828125 0.81805419921875 0.18231201171875 0.838134765625 0.13360595703125 0.83587646484375 0.140380859375 0.85760498046875 0.09844970703125 0.8475341796875 0.10137939453125 0.8695068359375 0.0555419921875 0.88232421875 0.1014404296875 0.90447998046875 0.00567626953125 0.9100341796875 0.05126953125 0.952880859375 0.006591796875 0.94927978515625 0.05279541015625 0.96710205078125 0.006591796875 0.9637451171875 0.006591796875 0.99114990234375 0.05242919921875 0.96710205078125 0.0252685546875 0.99169921875 0.05487060546875 0.99029541015625 0.10711669921875 0.69964599609375 0.07037353515625 0.7020263671875 0.1455078125 0.66583251953125 0.064697265625 0.67578125 0.06597900390625 0.6544189453125 0.006591796875 0.6622314453125 0.006591796875 0.63385009765625 0.06634521484375 0.6544189453125 0.09423828125 0.64007568359375 0.14569091796875 0.66583251953125 0.13690185546875 0.62677001953125 0.2095947265625 0.65130615234375 0.18341064453125 0.6204833984375 0.2919921875 0.7001953125 0.3211669921875 0.67681884765625 0.314697265625 0.73394775390625 0.34832763671875 0.7322998046875 0.32196044921875 0.76800537109375 0.3450927734375 0.78631591796875 0.32916259765625 0.82830810546875 0.364501953125 0.83349609375 0.342041015625 0.8685302734375 0.444091796875 0.690673828125 0.44964599609375 0.7120361328125 0.43841552734375 0.7127685546875 0.4432373046875 0.73358154296875 0.43804931640625 0.75921630859375 0.4510498046875 0.75860595703125 0.43768310546875 0.801025390625 0.47601318359375 0.79888916015625 0.5025634765625 0.84173583984375 0.5009765625 0.79803466796875 0.48101806640625 0.7989501953125 0.48846435546875 0.77374267578125 0.47467041015625 0.77630615234375 0.47491455078125 0.75799560546875 0.44329833984375 0.733642578125 0.2742919921875 0.77069091796875 0.27618408203125 0.7481689453125 0.25286865234375 0.74688720703125 0.22784423828125 0.7060546875 0.167724609375 0.744873046875 0.16253662109375 0.717041015625 0.11602783203125 0.74237060546875 0.11175537109375 0.720703125 0.08154296875 0.74017333984375 0.07806396484375 0.7225341796875 0.04644775390625 0.73992919921875 0.03863525390625 0.7210693359375 0.00518798828125 0.739501953125 0.00543212890625 0.72052001953125 0.03204345703125 0.70391845703125 0.1068115234375 0.69964599609375 0.1260986328125 0.6827392578125 0.16107177734375 0.69329833984375 0.14532470703125 0.66583251953125 0.241455078125 0.6917724609375 0.20928955078125 0.65130615234375 0.278076171875 0.72564697265625 0.29150390625 0.7001953125 0.314208984375 0.73394775390625 0.347900390625 0.7322998046875 0.321533203125 0.76800537109375 0.34466552734375 0.78631591796875 0.32867431640625 0.82830810546875 0.364013671875 0.83349609375 0.34161376953125 0.8685302734375 0.7437744140625 0.71478271484375 0.7203369140625 0.69952392578125 0.72747802734375 0.7657470703125 0.7105712890625 0.77008056640625 0.72802734375 0.81329345703125 0.7109375 0.82080078125 0.75628662109375 0.86444091796875 0.73974609375 0.8785400390625 0.79339599609375 0.92254638671875 0.77178955078125 0.932373046875 0.79766845703125 0.98199462890625 0.777099609375 0.98187255859375 0.76483154296875 0.9949951171875 0.72119140625 0.93438720703125 0.99212646484375 0.8558349609375 0.99212646484375 0.8685302734375 0.96173095703125 0.8587646484375 0.9427490234375 0.873046875 0.9312744140625 0.86163330078125 0.90380859375 0.8890380859375 0.88653564453125 0.87652587890625 0.87542724609375 0.9150390625 0.85125732421875 0.90411376953125 0.83673095703125 0.93951416015625 0.80377197265625 0.9239501953125 0.576416015625 0.42816162109375 0.576416015625 0.43182373046875 0.589111328125 0.42816162109375 0.589111328125 0.43182373046875 0.62518310546875 0.42816162109375 0.62518310546875 0.43182373046875 0.62445068359375 0.40826416015625 0.62445068359375 0.4119873046875 0.62310791015625 0.4012451171875 0.62310791015625 0.40496826171875 0.62152099609375 0.396484375 0.62152099609375 0.40020751953125 0.60992431640625 0.3853759765625 0.60992431640625 0.3890380859375 0.05352783203125 0.8609619140625 0.00518798828125 0.88427734375 0.14263916015625 0.87139892578125 0.21875 0.81756591796875 0.4385986328125 0.67193603515625 0.4393310546875 0.71405029296875 0.482666015625 0.67431640625 0.48974609375 0.71368408203125 0.47357177734375 0.67388916015625 0.47906494140625 0.71429443359375 0.4742431640625 0.714111328125 0.4755859375 0.7550048828125 0.4420166015625 0.7562255859375 0.455322265625 0.77069091796875 0.43731689453125 0.78070068359375 0.4371337890625 0.80377197265625 0.00653076171875 0.6187744140625 0.00714111328125 0.60150146484375 0.29876708984375 0.6060791015625 0.4090576171875 0.70050048828125 0.407470703125 0.741943359375 0.3824462890625 0.7984619140625 0.47674560546875 0.79949951171875 0.48980712890625 0.7725830078125 0.48040771484375 0.75506591796875 0.49127197265625 0.75482177734375 0.7952880859375 0.89697265625 0.8092041015625 0.8558349609375 0.837646484375 0.8687744140625 0.83282470703125 0.83465576171875 0.87774658203125 0.8392333984375 0.8775634765625 0.804931640625 0.92706298828125 0.82489013671875 0.93267822265625 0.7900390625 0.97271728515625 0.78546142578125 0.24481201171875 0.83697509765625 0.255859375 0.820556640625 0.22967529296875 0.76788330078125 0.17340087890625 0.76708984375 0.44195556640625 0.77862548828125 0.4375 0.84344482421875 0.4769287109375 0.8438720703125 0.47772216796875 0.8890380859375 0.48291015625 0.888671875 0.4820556640625 0.9005126953125 0.145263671875 0.89599609375 0.15277099609375 0.93865966796875 0.1104736328125 0.94970703125 0.1090087890625 0.9820556640625 0.06671142578125 0.974609375 0.05517578125 0.99029541015625 0.025634765625 0.99169921875 0.0045166015625 0.76483154296875 0.04937744140625 0.76544189453125 0.08575439453125 0.76531982421875 0.18359375 0.76580810546875 0.18609619140625 0.7166748046875 0.1943359375 0.7244873046875 0.50494384765625 0.887939453125 0.482177734375 0.84381103515625 0.50677490234375 0.88861083984375 0.48406982421875 0.889404296875 0.50433349609375 0.84259033203125 0.48309326171875 0.8447265625 0.4820556640625 0.79962158203125 0.47784423828125 0.8446044921875 0.43719482421875 0.84747314453125 0.24542236328125 0.769287109375 0.283935546875 0.75604248046875 0.22943115234375 0.7412109375 0.1778564453125 0.70892333984375 0.161376953125 0.69329833984375 0.1524658203125 0.93865966796875 0.11016845703125 0.94970703125 0.108642578125 0.9820556640625 0.06640625 0.974609375 0.47711181640625 0.799560546875 0.177734375 0.88336181640625 0.22369384765625 0.86346435546875 0.23870849609375 0.89971923828125 0.26055908203125 0.84112548828125 0.270751953125 0.88140869140625 0.28778076171875 0.82733154296875 0.30059814453125 0.87359619140625 0.9425048828125 0.971435546875 0.94036865234375 0.943603515625 0.9500732421875 0.94091796875 0.95513916015625 0.92535400390625 0.9766845703125 0.93731689453125 0.9766845703125 0.92364501953125 0.94879150390625 0.92535400390625 0.47906494140625 0.71588134765625 0.485595703125 0.7156982421875 0.45654296875 0.7650146484375 0.47491455078125 0.76458740234375 0.43927001953125 0.77862548828125 0.7452392578125 0.93756103515625 0.45013427734375 0.7120361328125 0.444091796875 0.69049072265625 0.4415283203125 0.69036865234375 0.444091796875 0.6722412109375 0.713623046875 0.88568115234375 0.6890869140625 0.88232421875 0.6754150390625 0.798583984375 0.67987060546875 0.826904296875 0.652099609375 0.79150390625 0.6556396484375 0.8232421875 0.693603515625 0.68499755859375 0.67584228515625 0.7603759765625 0.67132568359375 0.680908203125 0.65399169921875 0.7498779296875 0.195556640625 0.92108154296875 0.2607421875 0.92095947265625 0.2781982421875 0.9215087890625 0.309814453125 0.90155029296875 0.47869873046875 0.8897705078125 0.483154296875 0.906494140625 0.28662109375 0.77587890625 0.25543212890625 0.82098388671875 0.22222900390625 0.841552734375 0.2239990234375 0.86346435546875 0.180419921875 0.85833740234375 0.26104736328125 0.92095947265625 0.27862548828125 0.9215087890625 0.27117919921875 0.88140869140625 0.310302734375 0.90155029296875 0.30108642578125 0.87359619140625 0.3319091796875 0.880615234375 0.27496337890625 0.77044677734375 0.278564453125 0.72564697265625 0.17535400390625 0.6788330078125 0.27520751953125 0.7593994140625 0.8624267578125 0.94683837890625 0.83837890625 0.98394775390625 0.9766845703125 0.97015380859375 0.4375 0.7562255859375 0.006591796875 0.68157958984375 0.12640380859375 0.6827392578125 0.006591796875 0.7032470703125 0.0323486328125 0.70391845703125 0.0084228515625 0.583251953125 0.29852294921875 0.6060791015625 0.0069580078125 0.60150146484375 0.183349609375 0.6204833984375 0.1365966796875 0.62677001953125 0.28753662109375 0.80120849609375 0.0938720703125 0.64007568359375 0.006103515625 0.6187744140625 0.27496337890625 0.73455810546875 0.44964599609375 0.67218017578125 0.4393310546875 0.6715087890625 0.85931396484375 0.99468994140625 0.9595947265625 0.82183837890625 0.44549560546875 0.7586669921875 0.4432373046875 0.733642578125 0.4462890625 0.71240234375 0.44598388671875 0.71234130859375 0.440185546875 0.73382568359375 0.44549560546875 0.75897216796875 0.502685546875 0.79669189453125 0.3819580078125 0.7984619140625 0.406982421875 0.741943359375 0.4085693359375 0.70050048828125 0.05096435546875 0.952880859375 0.47491455078125 0.76483154296875 0.1959228515625 0.92108154296875 0.239013671875 0.89971923828125 0.2882080078125 0.82733154296875 0.0045166015625 0.86566162109375 0.19873046875 0.96142578125 0.14532470703125 0.97509765625 0.4373779296875 0.89447021484375 0.43707275390625 0.893310546875 0.4375 0.84332275390625 0.1197509765625 0.761962890625 0.23297119140625 0.943603515625 0.24053955078125 0.92803955078125 0.3206787109375 0.67681884765625 0.17803955078125 0.88336181640625 0.24176025390625 0.6917724609375 0.24017333984375 0.92803955078125 0.232666015625 0.943603515625 0.1983642578125 0.96142578125 0.3314208984375 0.880615234375 0.2047119140625 0.6917724609375 0.24530029296875 0.58251953125 0.14154052734375 0.58349609375 0.00885009765625 0.583251953125 0.43719482421875 0.90673828125 0.4368896484375 0.9090576171875 0.4373779296875 0.89434814453125 0.47784423828125 0.67364501953125 0.244873046875 0.58251953125 0.14111328125 0.58349609375 0.14495849609375 0.97509765625 0.449462890625 0.6717529296875 0.43890380859375 0.672119140625 0.4832763671875 0.67938232421875 0.4385986328125 0.6768798828125 0.4393310546875 0.71563720703125 0.43878173828125 0.672119140625 0.4495849609375 0.6717529296875 0.4390869140625 0.6715087890625 0.48974609375 0.71527099609375 0.48974609375 0.71728515625 0.48382568359375 0.715576171875 0.476806640625 0.79949951171875 0.20501708984375 0.6917724609375 0.4393310546875 0.7176513671875 0.44598388671875 0.71240234375</float_array>
                    <technique_common>
                        <accessor count="338" source="#uvarray2" stride="2">
                            <param name="S" type="float"/>
                            <param name="T" type="float"/>
                        </accessor>
                    </technique_common>
                </source>
                <vertices id="vertices2">
                    <input semantic="POSITION" source="#points2"/>
                </vertices>
                <polylist count="699" material="Material1">
                    <input offset="0" semantic="VERTEX" source="#vertices2"/>
                    <input offset="1" semantic="TEXCOORD" source="#uvs2" set="0"/>
                    <vcount>3 3 3 3 3 3 3 3 3 3 3 3 3 3 3 3 3 3 3 3 3 3 3 3 3 3 3 3 3 3 3 3 3 3 3 3 3 3 3 3 3 3 3 3 3 3 3 3 3 3 3 3 3 3 3 3 3 3 3 3 3 3 3 3 3 3 3 3 3 3 3 3 3 3 3 3 3 3 3 3 3 3 3 3 3 3 3 3 3 3 3 3 3 3 3 3 3 3 3 3 3 3 3 3 3 3 3 3 3 3 3 3 3 3 3 3 3 3 3 3 3 3 3 3 3 3 3 3 3 3 3 3 3 3 3 3 3 3 3 3 3 3 3 3 3 3 3 3 3 3 3 3 3 3 3 3 3 3 3 3 3 3 3 3 3 3 3 3 3 3 3 3 3 3 3 3 3 3 3 3 3 3 3 3 3 3 3 3 3 3 3 3 3 3 3 3 3 3 3 3 3 3 3 3 3 3 3 3 3 3 3 3 3 3 3 3 3 3 3 3 3 3 3 3 3 3 3 3 3 3 3 3 3 3 3 3 3 3 3 3 3 3 3 3 3 3 3 3 3 3 3 3 3 3 3 3 3 3 3 3 3 3 3 3 3 3 3 3 3 3 3 3 3 3 3 3 3 3 3 3 3 3 3 3 3 3 3 3 3 3 3 3 3 3 3 3 3 3 3 3 3 3 3 3 3 3 3 3 3 3 3 3 3 3 3 3 3 3 3 3 3 3 3 3 3 3 3 3 3 3 3 3 3 3 3 3 3 3 3 3 3 3 3 3 3 3 3 3 3 3 3 3 3 3 3 3 3 3 3 3 3 3 3 3 3 3 3 3 3 3 3 3 3 3 3 3 3 3 3 3 3 3 3 3 3 3 3 3 3 3 3 3 3 3 3 3 3 3 3 3 3 3 3 3 3 3 3 3 3 3 3 3 3 3 3 3 3 3 3 3 3 3 3 3 3 3 3 3 3 3 3 3 3 3 3 3 3 3 3 3 3 3 3 3 3 3 3 3 3 3 3 3 3 3 3 3 3 3 3 3 3 3 3 3 3 3 3 3 3 3 3 3 3 3 3 3 3 3 3 3 3 3 3 3 3 3 3 3 3 3 3 3 3 3 3 3 3 3 3 3 3 3 3 3 3 3 3 3 3 3 3 3 3 3 3 3 3 3 3 3 3 3 3 3 3 3 3 3 3 3 3 3 3 3 3 3 3 3 3 3 3 3 3 3 3 3 3 3 3 3 3 3 3 3 3 3 3 3 3 3 3 3 3 3 3 3 3 3 3 3 3 3 3 3 3 3 3 3 3 3 3 3 3 3 3 3 3 3 3 3 3 3 3 3 3 3 3 3 3 3 3 3 3 3 3 3 3 3 3 3 3 3 3 3 3 3 3 3 3 3 3 3 3 3 3 3 3 3 3 3 3 3 3 3 3 3 3 3 3 3 3 3 3 3 3 3 3 3 3 3 3 3 3 3 3 3 3 3 3 3 3 3 3 3 3 3 3 3 3 3 3 3 3 3 3 3 3 3 3 3 3 3 3 3 3 3 3 3 3 3 3 3 3 3 3 3 3 3 3</vcount>
                    <p>2 2 1 1 0 0 3 3 1 1 2 2 4 4 3 3 2 2 5 5 3 3 4 4 6 6 5 5 4 4 7 7 5 5 6 6 8 8 7 7 6 6 9 9 7 7 8 8 10 10 9 9 8 8 11 11 9 9 10 10 12 12 11 11 10 10 13 13 11 11 12 12 14 14 13 13 12 12 15 15 13 13 14 14 16 16 15 15 14 14 17 17 15 15 16 16 18 18 17 17 16 16 19 19 17 17 18 18 20 20 19 19 18 18 21 21 19 19 20 20 24 24 23 23 22 22 25 25 23 23 24 24 26 26 25 25 24 24 27 27 25 25 26 26 28 28 27 27 26 26 29 29 27 27 28 28 30 30 29 29 28 28 31 31 29 29 30 30 32 32 31 31 30 30 33 33 31 31 32 32 34 34 33 33 32 32 35 35 33 33 34 34 36 36 35 35 34 34 37 37 35 35 36 36 38 38 37 37 36 36 39 39 37 37 38 38 40 40 39 39 38 38 41 41 39 39 40 40 42 42 41 41 40 40 43 43 41 41 42 42 46 46 45 45 44 44 47 47 45 45 46 46 48 48 47 47 46 46 49 49 47 47 48 48 50 50 49 49 48 48 51 51 49 49 50 50 52 52 51 51 50 50 53 53 51 51 52 52 54 54 53 53 52 52 51 51 53 53 54 54 55 51 51 51 54 54 56 55 51 51 55 51 57 56 56 55 55 51 58 57 56 55 57 56 59 48 58 57 57 56 60 49 58 57 59 48 61 58 60 49 59 48 64 61 63 60 62 59 65 62 63 60 64 61 66 63 65 62 64 61 67 64 65 62 66 63 68 65 67 64 66 63 69 66 67 64 68 65 70 67 69 66 68 65 71 68 69 66 70 67 72 69 71 68 70 67 73 70 71 68 72 69 74 71 73 70 72 69 75 72 73 70 74 71 76 70 75 72 74 71 77 73 75 72 76 70 23 23 77 73 76 70 25 25 77 73 23 23 78 76 24 75 22 74 79 77 24 75 78 76 80 78 79 77 78 76 81 79 79 77 80 78 82 80 81 79 80 78 83 81 81 79 82 80 84 82 83 81 82 80 85 83 83 81 84 82 86 84 85 83 84 82 87 85 85 83 86 84 88 86 87 85 86 84 89 87 87 85 88 86 90 88 89 87 88 86 93 91 92 90 91 89 94 92 92 90 93 91 95 93 94 92 93 91 96 94 94 92 95 93 97 95 96 94 95 93 98 96 96 94 97 95 99 97 98 96 97 95 100 98 98 96 99 97 101 99 100 98 99 97 102 100 100 98 101 99 103 101 102 100 101 99 104 102 102 100 103 101 107 105 106 104 105 103 108 106 106 104 107 105 109 107 108 106 107 105 110 108 108 106 109 107 111 109 110 108 109 107 112 110 110 108 111 109 113 111 112 110 111 109 114 112 112 110 113 111 115 113 114 112 113 111 116 99 114 112 115 113 117 97 116 99 115 113 118 98 116 99 117 97 121 116 120 115 119 114 122 117 120 115 121 116 123 118 122 117 121 116 124 119 122 117 123 118 125 120 124 119 123 118 126 121 124 119 125 120 127 122 126 121 125 120 128 123 126 121 127 122 129 124 128 123 127 122 130 125 128 123 129 124 131 126 130 125 129 124 132 127 130 125 131 126 11 11 133 128 9 9 134 129 133 128 11 11 13 13 134 129 11 11 135 11 134 129 13 13 136 12 135 11 13 13 137 10 135 11 136 12 138 130 137 10 136 12 139 8 137 10 138 130 140 131 139 8 138 130 141 7 139 8 140 131 142 5 141 7 140 131 145 134 144 133 143 132 146 135 144 133 145 134 147 136 146 135 145 134 148 137 146 135 147 136 149 138 148 137 147 136 150 139 148 137 149 138 151 140 150 139 149 138 152 141 150 139 151 140 153 142 152 141 151 140 154 143 152 141 153 142 155 144 30 30 28 28 32 32 30 30 155 144 156 145 32 32 155 144 34 34 32 32 156 145 157 146 34 34 156 145 36 36 34 34 157 146 158 147 36 36 157 146 38 38 36 36 158 147 159 148 38 38 158 147 160 149 38 38 159 148 163 139 162 151 161 150 150 139 162 151 163 139 164 152 150 139 163 139 148 137 150 139 164 152 165 153 148 137 164 152 146 135 148 137 165 153 163 139 146 135 165 153 144 133 146 135 163 139 166 140 144 133 163 139 115 113 167 154 117 97 168 155 167 154 115 113 169 156 168 155 115 113 170 157 168 155 169 156 171 158 170 157 169 156 172 159 170 157 171 158 173 160 172 159 171 158 174 161 172 159 173 160 175 162 174 161 173 160 4 4 176 163 6 6 177 164 176 163 4 4 2 2 177 164 4 4 62 59 177 164 2 2 0 0 62 59 2 2 64 61 62 59 0 0 178 165 64 61 0 0 179 166 64 61 178 165 57 56 180 167 59 48 181 50 180 167 57 56 55 51 181 50 57 56 182 168 181 50 55 51 183 169 182 168 55 51 184 170 182 168 183 169 185 171 184 170 183 169 186 172 184 170 185 171 188 174 12 12 187 173 189 175 12 12 188 174 190 176 189 175 188 174 191 177 189 175 190 176 192 178 191 177 190 176 16 16 191 177 192 178 193 179 16 16 192 178 18 18 16 16 193 179 194 180 74 71 72 69 195 69 74 71 194 180 196 181 195 69 194 180 197 67 195 69 196 181 198 182 197 67 196 181 199 65 197 67 198 182 200 183 199 65 198 182 201 165 199 65 200 183 195 69 76 70 74 71 202 68 76 70 195 69 197 67 202 68 195 69 203 66 202 68 197 67 199 65 203 66 197 67 204 184 203 66 199 65 205 185 204 184 199 65 208 52 207 171 206 186 209 187 207 171 208 52 210 54 209 187 208 52 211 169 209 187 210 54 212 51 211 169 210 54 213 168 211 169 212 51 214 50 213 168 212 51 217 190 216 189 215 188 218 191 216 189 217 190 219 192 218 191 217 190 220 193 218 191 219 192 221 150 220 193 219 192 222 194 220 193 221 150 154 143 222 194 221 150 224 196 201 165 223 195 205 185 201 165 224 196 225 197 205 185 224 196 204 184 205 185 225 197 226 198 204 184 225 197 22 74 204 184 226 198 78 199 22 74 226 198 136 12 227 173 138 130 228 200 227 173 136 12 229 201 228 200 136 12 230 202 228 200 229 201 231 203 230 202 229 201 21 21 230 202 231 203 19 19 21 21 231 203 234 189 233 190 232 188 235 191 233 190 234 189 236 193 235 191 234 189 237 192 235 191 236 193 238 150 237 192 236 193 239 204 237 192 238 150 240 151 239 204 238 150 241 113 101 99 99 97 242 112 101 99 241 113 243 111 242 112 241 113 244 110 242 112 243 111 245 109 244 110 243 111 246 108 244 110 245 109 247 107 246 108 245 109 250 207 249 206 248 205 251 208 249 206 250 207 252 209 251 208 250 207 253 210 251 208 252 209 254 211 253 210 252 209 88 86 253 210 254 211 90 88 88 86 254 211 256 214 255 213 107 212 257 215 255 213 256 214 258 216 257 215 256 214 259 217 257 215 258 216 260 215 259 217 258 216 261 218 259 217 260 215 262 213 261 218 260 215 265 139 264 135 263 133 266 153 264 135 265 139 267 152 266 153 265 139 268 219 266 153 267 152 269 139 268 219 267 152 270 220 268 219 269 139 273 49 272 222 271 221 274 57 272 222 273 49 275 48 274 57 273 49 276 56 274 57 275 48 277 223 276 56 275 48 214 50 276 56 277 223 279 96 117 97 278 95 118 98 117 97 279 96 280 224 118 98 279 96 281 100 118 98 280 224 282 102 281 100 280 224 283 101 281 100 282 102 284 58 275 48 273 49 285 46 275 48 284 58 286 225 285 46 284 58 287 226 285 46 286 225 288 227 287 226 286 225 289 228 287 226 288 227 291 94 278 95 290 93 279 96 278 95 291 94 292 229 279 96 291 94 280 224 279 96 292 229 293 230 280 224 292 229 282 102 280 224 293 230 295 92 290 93 294 91 291 94 290 93 295 92 296 231 291 94 295 92 297 232 291 94 296 231 298 233 297 232 296 231 299 234 297 232 298 233 301 90 294 91 300 89 295 92 294 91 301 90 302 235 295 92 301 90 303 236 295 92 302 235 304 237 303 236 302 235 305 238 303 236 304 237 306 239 248 205 227 173 250 207 248 205 306 239 307 240 250 207 306 239 252 209 250 207 307 240 308 241 252 209 307 240 309 242 252 209 308 241 238 150 310 143 240 151 311 194 310 143 238 150 236 193 311 194 238 150 312 243 311 194 236 193 234 189 312 243 236 193 232 244 312 243 234 189 315 196 314 245 313 59 316 246 314 245 315 196 317 247 316 246 315 196 249 248 316 246 317 247 318 249 249 248 317 247 248 205 249 248 318 249 94 92 307 235 92 90 319 236 307 235 94 92 320 231 319 236 94 92 321 238 319 236 320 231 322 233 321 238 320 231 54 54 183 169 55 51 323 187 183 169 54 54 52 52 323 187 54 54 185 171 323 187 52 52 186 186 185 171 52 52 96 94 320 231 94 92 324 232 320 231 96 94 325 229 324 232 96 94 326 234 324 232 325 229 327 230 326 234 325 229 328 252 304 251 302 250 329 253 304 251 328 252 330 254 329 253 328 252 331 255 329 253 330 254 43 43 331 255 330 254 333 257 37 37 332 256 35 35 37 37 333 257 334 258 35 35 333 257 33 33 35 35 334 258 31 31 33 33 334 258 63 259 177 164 62 59 335 245 177 164 63 259 332 256 335 245 63 259 39 39 335 245 332 256 37 37 39 39 332 256 114 112 336 260 112 110 337 261 336 260 114 112 116 99 337 261 114 112 283 101 337 261 116 99 281 100 283 101 116 99 8 8 12 12 10 10 187 173 12 12 8 8 6 6 187 173 8 8 338 207 187 173 6 6 176 163 338 207 6 6 245 109 339 160 247 107 340 158 339 160 245 109 341 156 340 158 245 109 342 157 340 158 341 156 343 155 342 157 341 156 105 262 256 214 107 212 258 216 256 214 105 262 344 214 258 216 105 262 260 215 258 216 344 214 262 213 260 215 344 214 240 151 265 139 239 150 269 139 265 139 240 151 345 141 269 139 240 151 346 263 269 139 345 141 347 142 346 263 345 141 29 29 348 264 27 27 349 25 348 264 29 29 350 265 349 25 29 29 351 22 349 25 350 265 352 199 351 22 350 265 348 264 353 266 77 73 354 267 353 266 348 264 349 25 354 267 348 264 355 23 354 267 349 25 351 22 355 23 349 25 156 270 357 269 356 268 358 271 357 269 156 270 359 272 358 271 156 270 81 79 358 271 359 272 79 77 81 79 359 272 251 208 316 246 249 248 360 273 316 246 251 208 253 210 360 273 251 208 86 84 360 273 253 210 88 86 86 84 253 210 79 77 26 26 24 24 361 274 26 26 79 77 359 272 361 274 79 77 155 275 361 274 359 272 156 270 155 275 359 272 315 196 224 196 317 247 225 197 224 196 315 196 362 276 225 197 315 196 226 198 225 197 362 276 78 199 226 198 362 276 288 44 363 278 289 277 364 46 363 278 288 44 365 45 364 46 288 44 366 47 364 46 365 45 98 96 325 229 96 94 367 224 325 229 98 96 100 98 367 224 98 96 102 100 367 224 100 98 368 260 242 112 244 110 369 261 242 112 368 260 370 279 369 261 368 260 103 101 369 261 370 279 371 105 339 160 262 280 247 107 339 160 371 105 372 106 247 107 371 105 246 108 247 107 372 106 366 282 273 49 271 281 284 47 273 49 366 282 365 283 284 47 366 282 286 45 284 47 365 283 210 54 373 51 212 51 374 53 373 51 210 54 208 52 374 53 210 54 373 51 374 53 208 52 47 285 375 225 45 284 61 47 375 225 47 285 49 286 61 47 47 285 60 49 61 47 49 286 237 192 233 190 235 191 376 287 233 190 237 192 239 204 376 287 237 192 233 190 376 287 239 204 377 288 87 85 89 87 85 83 87 85 377 288 378 289 85 83 377 288 379 290 85 83 378 289 19 19 15 15 17 17 380 291 15 15 19 19 231 203 380 291 19 19 229 201 380 291 231 203 140 131 223 195 142 5 224 196 223 195 140 131 318 249 224 196 140 131 317 247 224 196 318 249 212 51 276 56 214 50 381 55 276 56 212 51 373 51 381 55 212 51 272 292 381 55 373 51 338 294 302 250 382 293 328 252 302 250 338 294 176 163 328 252 338 294 383 295 328 252 176 163 385 128 135 11 384 9 134 129 135 11 385 128 386 296 134 129 385 128 133 128 134 129 386 296 382 293 187 173 338 207 188 174 187 173 382 293 387 297 188 174 382 293 388 298 188 174 387 297 219 192 161 204 221 150 389 287 161 204 219 192 217 190 389 287 219 192 161 204 389 287 217 190 22 74 203 66 204 184 202 68 203 66 22 74 23 23 202 68 22 74 76 70 202 68 23 23 211 169 207 171 209 187 390 170 207 171 211 169 213 168 390 170 211 169 391 299 390 170 213 168 220 193 216 189 218 191 392 243 216 189 220 193 222 194 392 243 220 193 393 300 392 243 222 194 395 50 208 52 394 301 373 51 208 52 395 50 271 49 373 51 395 50 272 292 373 51 271 49 335 245 176 163 177 164 383 295 176 163 335 245 39 39 383 295 335 245 41 41 383 295 39 39 179 166 66 63 64 61 68 65 66 63 179 166 396 302 68 65 179 166 397 182 68 65 396 302 341 156 241 113 343 155 243 111 241 113 341 156 245 109 243 111 341 156 339 160 261 162 262 280 398 161 261 162 339 160 399 159 398 161 339 160 382 293 300 303 387 297 301 304 300 303 382 293 302 250 301 304 382 293 400 305 379 290 357 269 85 83 379 290 400 305 83 81 85 83 400 305 400 305 81 79 83 81 358 271 81 79 400 305 357 269 358 271 400 305 138 130 318 249 140 131 248 306 318 249 138 130 227 173 248 306 138 130 362 276 80 307 78 199 82 257 80 307 362 276 313 256 82 257 362 276 306 239 92 308 307 240 91 309 92 308 306 239 401 310 91 309 306 239 173 160 255 280 175 162 107 105 255 280 173 160 109 107 107 105 173 160 254 211 402 311 90 88 309 242 402 311 254 211 252 209 309 242 254 211 380 291 13 13 15 15 136 12 13 13 380 291 229 201 136 12 380 291 65 62 333 80 63 60 403 312 333 80 65 62 352 199 403 312 65 62 384 9 139 8 141 7 137 10 139 8 384 9 135 11 137 10 384 9 157 146 404 314 158 313 356 315 404 314 157 146 156 145 356 315 157 146 313 256 84 82 82 80 86 84 84 82 313 256 314 245 86 84 313 256 405 46 61 58 59 48 375 225 61 58 405 46 406 44 375 225 405 46 233 193 407 300 232 243 408 194 407 300 233 193 409 143 408 194 233 193 184 170 410 299 182 168 411 316 410 299 184 170 186 172 411 316 184 170 312 243 412 300 311 194 407 317 412 300 312 243 232 244 407 317 312 243 52 52 411 318 186 170 413 301 411 318 52 52 50 50 413 301 52 52 221 150 152 141 154 143 162 151 152 141 221 150 161 204 162 151 221 150 292 229 299 234 293 230 297 232 299 234 292 229 291 94 297 232 292 229 149 138 414 133 151 140 415 319 414 133 149 138 147 136 415 319 149 138 265 139 409 143 239 204 416 263 409 143 265 139 263 133 416 263 265 139 417 321 357 269 379 320 356 268 357 269 417 321 361 274 28 28 26 26 155 275 28 28 361 274 40 40 160 149 42 42 38 38 160 149 40 40 418 318 208 52 206 170 394 301 208 52 418 318 419 181 72 69 70 67 194 180 72 69 419 181 397 182 70 67 68 65 419 181 70 67 397 182 418 316 390 170 391 299 206 172 390 170 418 316 75 72 353 266 354 73 77 73 353 266 75 72 73 70 354 73 355 23 75 72 354 73 73 70 71 68 355 23 351 74 73 70 355 23 71 68 420 322 228 200 230 202 401 310 228 200 420 322 274 57 381 55 272 292 276 56 381 55 274 57 289 228 421 323 287 226 44 227 421 323 289 228 44 227 406 226 421 323 45 284 406 226 44 227 340 158 399 159 339 160 342 157 399 159 340 158 363 324 44 44 289 277 46 46 44 44 363 324 101 99 369 261 103 101 242 112 369 261 101 99 51 51 422 222 49 49 56 55 422 222 51 51 423 154 241 113 99 97 343 155 241 113 423 154 58 57 422 222 56 55 60 49 422 222 58 57 344 214 371 212 262 213 105 262 371 212 344 214 145 325 415 319 147 134 143 326 415 319 145 325 175 218 257 215 259 217 255 213 257 215 175 218 424 327 269 139 346 263 270 220 269 139 424 327 425 328 406 44 405 46 421 277 406 44 425 328 31 31 350 265 29 29 334 258 350 265 31 31 425 330 287 226 421 329 285 46 287 226 425 330 25 25 348 264 77 73 27 27 348 264 25 25 259 217 426 217 175 218 261 218 426 217 259 217 366 47 427 48 364 46 271 49 427 48 366 47 310 143 345 141 240 151 347 142 345 141 310 143 228 200 306 239 227 173 401 310 306 239 228 200 270 333 264 332 268 331 424 327 264 332 270 333 173 160 111 109 109 107 171 158 111 109 173 160 428 279 337 261 283 101 336 260 337 261 428 279 113 111 169 156 115 113 111 109 169 156 113 111 430 143 217 193 429 194 161 334 217 193 430 143 415 319 431 132 414 133 143 326 431 132 415 319 189 175 14 14 12 12 191 177 14 14 189 175 371 105 106 104 372 106 105 103 106 104 371 105 403 335 334 258 333 257 352 199 334 258 403 335 432 317 392 243 393 300 215 244 392 243 432 317 432 300 217 193 215 243 429 194 217 193 432 300 319 236 308 237 307 235 321 238 308 237 319 236 163 139 430 143 166 140 161 204 430 143 163 139 383 295 330 254 328 252 41 41 330 254 383 295 104 102 367 224 102 100 327 230 367 224 104 102 67 64 352 199 65 62 69 66 352 199 67 64 69 66 351 74 352 199 71 68 351 74 69 66 324 232 322 233 320 231 326 234 322 233 324 232 360 273 314 245 316 246 86 84 314 245 360 273 303 236 296 231 295 92 305 238 296 231 303 236 327 230 325 229 367 224 265 139 269 139 267 152 264 332 424 327 263 336 183 169 323 187 185 171 233 193 239 334 409 143 60 49 49 221 422 222 352 199 350 265 334 258 305 238 298 233 296 231 118 98 281 100 116 99 332 59 63 259 333 80 111 109 171 158 169 156 266 153 268 219 264 331 392 243 215 244 216 189 163 139 165 153 164 152 201 165 205 185 199 65 14 14 191 177 16 16 150 139 152 141 162 151 188 174 388 298 190 176 43 43 330 254 41 41 390 170 206 172 207 171 313 256 362 276 315 196 395 50 427 48 271 49 286 225 365 337 288 227 406 226 45 284 375 45</p>
                </polylist>
            </mesh>
        </geometry>
    </library_geometries>
    <library_visual_scenes>
        <visual_scene id="VisualSceneNode">
            <node id="node0" name="m0" type="NODE">
                <instance_geometry url="#mesh0">
                    <bind_material>
                        <technique_common>
                            <instance_material symbol="Material1" target="#mat0">
                                <bind_vertex_input semantic="UVSET0" input_semantic="TEXCOORD" input_set="0"></bind_vertex_input>
                            </instance_material>
                        </technique_common>
                    </bind_material>
                </instance_geometry>
            </node>
            <node id="node1" name="m1" type="NODE">
                <instance_geometry url="#mesh1">
                    <bind_material>
                        <technique_common>
                            <instance_material symbol="Material1" target="#mat2">
                                <bind_vertex_input semantic="UVSET0" input_semantic="TEXCOORD" input_set="0"></bind_vertex_input>
                            </instance_material>
                        </technique_common>
                    </bind_material>
                </instance_geometry>
            </node>
            <node id="node2" name="m2" type="NODE">
                <instance_geometry url="#mesh2">
                    <bind_material>
                        <technique_common>
                            <instance_material symbol="Material1" target="#mat1">
                                <bind_vertex_input semantic="UVSET0" input_semantic="TEXCOORD" input_set="0"></bind_vertex_input>
                            </instance_material>
                        </technique_common>
                    </bind_material>
                </instance_geometry>
            </node>
        </visual_scene>
    </library_visual_scenes>
    <scene>
        <instance_visual_scene url="#VisualSceneNode"></instance_visual_scene>
    </scene>
</COLLADA>
