<?xml version="1.0"?>
<COLLADA xmlns="http://www.collada.org/2005/11/COLLADASchema" version="1.4.1">
    <asset>
        <contributor>
            <authoring_tool>J3D Ripoff Exporter</authoring_tool>
        </contributor>
        <created>2024-08-18T22:45:09.725Z</created>
        <modified>2024-08-18T22:45:09.725Z</modified>
		<unit meter="0.01" name="centimeter" ></unit>
        <up_axis>Y_UP</up_axis>
    </asset>
    <library_images>
        <image id="tex0">
            <init_from>wilddonkey_skin.png</init_from>
        </image>
        <image id="tex1">
            <init_from>wilddonkey_eye.png</init_from>
        </image>
    </library_images>
    <library_effects>
        <effect id="effect0">
            <profile_COMMON>
                <newparam sid="surface0">
                    <surface type="2D">
                        <init_from>tex1</init_from>
                    </surface>
                </newparam>
                <newparam sid="sampler0">
                    <sampler2D>
                        <source>surface0</source>
                    </sampler2D>
                </newparam>
                <technique sid="COMMON">
                    <blinn>
                        <diffuse>
                            <texture texture="sampler0" texcoord="UVSET0"></texture>
                        </diffuse>
                    </blinn>
                </technique>
            </profile_COMMON>
        </effect>
        <effect id="effect1">
            <profile_COMMON>
                <newparam sid="surface1">
                    <surface type="2D">
                        <init_from>tex0</init_from>
                    </surface>
                </newparam>
                <newparam sid="sampler1">
                    <sampler2D>
                        <source>surface1</source>
                    </sampler2D>
                </newparam>
                <technique sid="COMMON">
                    <blinn>
                        <diffuse>
                            <texture texture="sampler1" texcoord="UVSET0"></texture>
                        </diffuse>
                    </blinn>
                </technique>
            </profile_COMMON>
        </effect>
        <effect id="effect2">
            <profile_COMMON>
                <newparam sid="surface2">
                    <surface type="2D">
                        <init_from>tex0</init_from>
                    </surface>
                </newparam>
                <newparam sid="sampler2">
                    <sampler2D>
                        <source>surface2</source>
                    </sampler2D>
                </newparam>
                <technique sid="COMMON">
                    <blinn>
                        <diffuse>
                            <texture texture="sampler2" texcoord="UVSET0"></texture>
                        </diffuse>
                    </blinn>
                </technique>
            </profile_COMMON>
        </effect>
    </library_effects>
    <library_materials>
        <material id="mat0" name="Eye">
            <instance_effect url="#effect0"></instance_effect>
        </material>
        <material id="mat1" name="Skin">
            <instance_effect url="#effect1"></instance_effect>
        </material>
        <material id="mat2" name="Skin_etc">
            <instance_effect url="#effect2"></instance_effect>
        </material>
    </library_materials>
    <library_geometries>
        <geometry id="mesh0">
            <mesh>
                <source id="points0">
                    <float_array id="pointarray0" count="96">52.265625 -37.77734375 20.890625 51.015625 -34.30078125 23.69921875 54.71484375 -35.3515625 18.19140625 55.5390625 -31.74609375 19.88671875 58.92578125 -29.33984375 14.62109375 55.8515625 -27.83203125 20.53125 55.84765625 -24.9375 20.31640625 53.26171875 -23.66015625 24.4609375 60.546875 -29.71484375 -2.21484375 60.94140625 -28.13671875 -2.4296875 60.0859375 -30.23828125 -6.78515625 60.265625 -27.55078125 -8.515625 58.92578125 -29.33984375 -14.62109375 58.453125 -26.3984375 -15.1796875 55.84765625 -24.9375 -20.31640625 50.6171875 -30.6796875 25.25 51.7109375 -26.55859375 25.4609375 52.265625 -37.77734375 -20.890625 54.71484375 -35.3515625 -18.19140625 51.015625 -34.30078125 -23.69921875 55.5390625 -31.74609375 -19.88671875 50.6171875 -30.6796875 -25.25 51.7109375 -26.55859375 -25.4609375 55.8515625 -27.83203125 -20.53125 53.26171875 -23.66015625 -24.4609375 60.546875 -29.71484375 2.21484375 60.0859375 -30.23828125 6.78515625 60.94140625 -28.13671875 2.4296875 60.265625 -27.55078125 8.515625 58.55859375 -31.94140625 -13.08203125 58.55859375 -31.94140625 13.08203125 58.453125 -26.3984375 15.1796875</float_array>
                    <technique_common>
                        <accessor count="32" source="#pointarray0" stride="3">
                            <param name="X" type="float"/>
                            <param name="Y" type="float"/>
                            <param name="Z" type="float"/>
                        </accessor>
                    </technique_common>
                </source>
                <source id="uvs0">
                    <float_array id="uvarray0" count="64">0.73980712890625 0.8406982421875 0.832275390625 0.6968994140625 0.65087890625 0.7403564453125 0.70672607421875 0.59130859375 0.533203125 0.48175048828125 0.72796630859375 0.42950439453125 0.7208251953125 0.3099365234375 0.85723876953125 0.257080078125 0.1236572265625 0.4898681640625 0.13079833984375 0.3970947265625 0.27423095703125 0.5206298828125 0.33123779296875 0.36273193359375 0.5322265625 0.48175048828125 0.5506591796875 0.33831787109375 0.7198486328125 0.3099365234375 0.88330078125 0.54730224609375 0.89019775390625 0.37701416015625 0.73883056640625 0.8406982421875 0.64990234375 0.7403564453125 0.83123779296875 0.6968994140625 0.70574951171875 0.59130859375 0.88232421875 0.54730224609375 0.88922119140625 0.37701416015625 0.72698974609375 0.42950439453125 0.85626220703125 0.257080078125 0.1246337890625 0.4898681640625 0.27520751953125 0.5206298828125 0.13177490234375 0.3970947265625 0.33221435546875 0.36273193359375 0.4815673828125 0.6085205078125 0.48260498046875 0.6085205078125 0.5516357421875 0.33831787109375</float_array>
                    <technique_common>
                        <accessor count="32" source="#uvarray0" stride="2">
                            <param name="S" type="float"/>
                            <param name="T" type="float"/>
                        </accessor>
                    </technique_common>
                </source>
                <vertices id="vertices0">
                    <input semantic="POSITION" source="#points0"/>
                </vertices>
                <polylist count="34" material="Material1">
                    <input offset="0" semantic="VERTEX" source="#vertices0"/>
                    <input offset="1" semantic="TEXCOORD" source="#uvs0" set="0"/>
                    <vcount>3 3 3 3 3 3 3 3 3 3 3 3 3 3 3 3 3 3 3 3 3 3 3 3 3 3 3 3 3 3 3 3 3 3</vcount>
                    <p>2 2 1 1 0 0 3 3 1 1 2 2 4 4 3 3 2 2 5 5 3 3 4 4 6 6 5 5 4 4 7 7 5 5 6 6 10 10 9 9 8 8 11 11 9 9 10 10 12 12 11 11 10 10 13 13 11 11 12 12 14 14 13 13 12 12 3 3 15 15 1 1 16 16 15 15 3 3 5 5 16 16 3 3 7 7 16 16 5 5 19 19 18 18 17 17 20 20 18 18 19 19 21 21 20 20 19 19 22 22 20 20 21 21 20 20 12 12 18 18 23 23 12 12 20 20 22 22 23 23 20 20 24 24 23 23 22 22 27 27 26 26 25 25 28 28 26 26 27 27 29 29 12 12 10 10 18 18 12 12 29 29 30 30 4 4 2 2 26 26 4 4 30 30 28 28 4 4 26 26 31 31 4 4 28 28 23 23 14 14 12 12 24 24 14 14 23 23 6 6 4 4 31 31</p>
                </polylist>
            </mesh>
        </geometry>
        <geometry id="mesh1">
            <mesh>
                <source id="points1">
                    <float_array id="pointarray1" count="222">60.0546875 11.140625 42.87890625 72.35546875 10.65234375 36.8984375 57.97265625 13.16015625 36.9140625 65.43359375 12.7890625 27.48046875 57.06640625 0.87109375 26.77734375 71.57421875 12.265625 17.8359375 63.30859375 -1.671875 17.1796875 74.77734375 12.15234375 8.58203125 66.62109375 -2.75390625 8.8125 67.30078125 -2.97265625 0 89.91015625 -7.83203125 0 66.62109375 -2.75390625 -8.8125 89.30859375 -7.51953125 -9.296875 63.30859375 -1.671875 -17.1796875 85.78125 -6.0078125 -18.17578125 57.06640625 0.87109375 -26.77734375 79.33203125 -3.015625 -28.96875 51.2421875 5.76953125 -36.9296875 68.09765625 1.7578125 -38.23828125 55.77734375 7.2421875 -43.82421875 82.36328125 10.31640625 28.18359375 88.40234375 9.7890625 18.4921875 91.5 9.6328125 8.3515625 92.2578125 9.52734375 0 75.49609375 11.9921875 0 91.5 9.6328125 -8.3515625 74.77734375 12.15234375 -8.58203125 88.40234375 9.7890625 -18.4921875 71.57421875 12.265625 -17.8359375 82.36328125 10.31640625 -28.18359375 65.43359375 12.7890625 -27.48046875 72.35546875 10.65234375 -36.8984375 57.97265625 13.16015625 -36.9140625 60.0546875 11.140625 -42.87890625 54.55859375 11.296875 -44.90234375 49.07421875 10.9375 -41.71875 49.8984375 11.11328125 -46.30859375 52.265625 -37.77734375 20.890625 49.4140625 -42.4921875 22.4765625 51.015625 -34.30078125 23.69921875 45.65234375 -32.90234375 30.16015625 50.6171875 -30.6796875 25.25 47.04296875 -27.453125 30.2265625 51.7109375 -26.55859375 25.4609375 53.26171875 -23.66015625 24.4609375 51.7109375 -26.55859375 -25.4609375 47.04296875 -27.453125 -30.2265625 50.6171875 -30.6796875 -25.25 45.65234375 -32.90234375 -30.16015625 51.015625 -34.30078125 -23.69921875 49.4140625 -42.4921875 -22.4765625 52.265625 -37.77734375 -20.890625 54.55859375 11.296875 44.90234375 49.07421875 10.50390625 41.71875 49.8984375 11.11328125 46.30859375 55.77734375 7.2421875 43.82421875 85.78125 -6.0078125 18.17578125 79.33203125 -3.015625 28.96875 51.2421875 5.76953125 36.9296875 60.546875 -29.71484375 2.21484375 60.94140625 -28.13671875 2.4296875 60.3984375 -29.51171875 0 61.0859375 -28.03125 0 60.94140625 -28.13671875 -2.4296875 68.09765625 1.7578125 38.23828125 89.30859375 -7.51953125 9.296875 47.7421875 -45.4140625 22.69140625 46.56640625 -38.7578125 26.9296875 47.7421875 -45.4140625 -22.69140625 46.56640625 -38.7578125 -26.9296875 49.828125 -21.62109375 -28.36328125 53.26171875 -23.66015625 -24.4609375 60.546875 -29.71484375 -2.21484375 49.828125 -21.62109375 28.36328125</float_array>
                    <technique_common>
                        <accessor count="74" source="#pointarray1" stride="3">
                            <param name="X" type="float"/>
                            <param name="Y" type="float"/>
                            <param name="Z" type="float"/>
                        </accessor>
                    </technique_common>
                </source>
                <source id="uvs1">
                    <float_array id="uvarray1" count="148">0.55853271484375 0.62811279296875 0.54949951171875 0.61944580078125 0.54888916015625 0.67047119140625 0.53955078125 0.66546630859375 0.5380859375 0.6788330078125 0.52825927734375 0.66156005859375 0.52685546875 0.6756591796875 0.51776123046875 0.65924072265625 0.51824951171875 0.6734619140625 0.5062255859375 0.67205810546875 0.5068359375 0.593994140625 0.51837158203125 0.6734619140625 0.517333984375 0.59686279296875 0.52703857421875 0.6756591796875 0.52850341796875 0.6021728515625 0.5382080078125 0.6788330078125 0.54107666015625 0.61163330078125 0.546630859375 0.682861328125 0.55853271484375 0.62762451171875 0.57098388671875 0.642333984375 0.541015625 0.6121826171875 0.52960205078125 0.60284423828125 0.51727294921875 0.59686279296875 0.5062255859375 0.593994140625 0.5062255859375 0.65765380859375 0.51739501953125 0.59686279296875 0.51788330078125 0.65924072265625 0.52972412109375 0.60284423828125 0.52838134765625 0.66156005859375 0.5411376953125 0.6121826171875 0.5396728515625 0.66546630859375 0.54962158203125 0.61944580078125 0.54901123046875 0.67047119140625 0.55865478515625 0.62811279296875 0.570556640625 0.64190673828125 0.55413818359375 0.685791015625 0.5826416015625 0.65667724609375 0.906982421875 0.76434326171875 0.95782470703125 0.759521484375 0.87542724609375 0.73431396484375 0.87066650390625 0.6771240234375 0.8404541015625 0.71466064453125 0.814697265625 0.666748046875 0.79840087890625 0.70538330078125 0.76702880859375 0.7086181640625 0.79815673828125 0.7069091796875 0.814453125 0.668212890625 0.8402099609375 0.71612548828125 0.870361328125 0.67864990234375 0.8751220703125 0.73577880859375 0.95758056640625 0.760986328125 0.90673828125 0.765869140625 0.5704345703125 0.64190673828125 0.55401611328125 0.685791015625 0.58251953125 0.65667724609375 0.57086181640625 0.642333984375 0.52838134765625 0.6021728515625 0.54095458984375 0.61163330078125 0.5465087890625 0.682861328125 0.84515380859375 0.73626708984375 0.8057861328125 0.72711181640625 0.8363037109375 0.75732421875 0.79888916015625 0.750732421875 0.8055419921875 0.7286376953125 0.55841064453125 0.62762451171875 0.5172119140625 0.59686279296875 0.98828125 0.76300048828125 0.92608642578125 0.715087890625 0.988037109375 0.76446533203125 0.92584228515625 0.716552734375 0.75164794921875 0.67340087890625 0.76678466796875 0.7100830078125 0.84490966796875 0.73779296875 0.75189208984375 0.671875</float_array>
                    <technique_common>
                        <accessor count="74" source="#uvarray1" stride="2">
                            <param name="S" type="float"/>
                            <param name="T" type="float"/>
                        </accessor>
                    </technique_common>
                </source>
                <vertices id="vertices1">
                    <input semantic="POSITION" source="#points1"/>
                </vertices>
                <polylist count="86" material="Material1">
                    <input offset="0" semantic="VERTEX" source="#vertices1"/>
                    <input offset="1" semantic="TEXCOORD" source="#uvs1" set="0"/>
                    <vcount>3 3 3 3 3 3 3 3 3 3 3 3 3 3 3 3 3 3 3 3 3 3 3 3 3 3 3 3 3 3 3 3 3 3 3 3 3 3 3 3 3 3 3 3 3 3 3 3 3 3 3 3 3 3 3 3 3 3 3 3 3 3 3 3 3 3 3 3 3 3 3 3 3 3 3 3 3 3 3 3 3 3 3 3 3 3</vcount>
                    <p>2 2 1 1 0 0 3 3 1 1 2 2 4 4 3 3 2 2 5 5 3 3 4 4 6 6 5 5 4 4 7 7 5 5 6 6 8 8 7 7 6 6 9 9 7 7 8 8 10 10 9 9 8 8 11 11 9 9 10 10 12 12 11 11 10 10 13 13 11 11 12 12 14 14 13 13 12 12 15 15 13 13 14 14 16 16 15 15 14 14 17 17 15 15 16 16 18 18 17 17 16 16 19 19 17 17 18 18 3 3 20 20 1 1 21 21 20 20 3 3 5 5 21 21 3 3 22 22 21 21 5 5 7 7 22 22 5 5 23 23 22 22 7 7 24 24 23 23 7 7 25 25 23 23 24 24 26 26 25 25 24 24 27 27 25 25 26 26 28 28 27 27 26 26 29 29 27 27 28 28 30 30 29 29 28 28 31 31 29 29 30 30 32 32 31 31 30 30 33 33 31 31 32 32 34 34 33 33 32 32 15 15 30 30 28 28 32 32 30 30 15 15 17 17 32 32 15 15 35 35 32 32 17 17 19 19 35 35 17 17 36 36 35 35 19 19 39 39 38 38 37 37 40 40 38 38 39 39 41 41 40 40 39 39 42 42 40 40 41 41 43 43 42 42 41 41 44 44 42 42 43 43 47 47 46 46 45 45 48 48 46 46 47 47 49 49 48 48 47 47 50 50 48 48 49 49 51 51 50 50 49 49 9 9 24 24 7 7 26 26 24 24 9 9 11 11 26 26 9 9 13 13 26 26 11 11 52 52 2 2 0 0 53 53 2 2 52 52 54 54 53 53 52 52 55 55 53 53 54 54 4 4 57 57 56 56 58 58 57 57 4 4 2 2 58 58 4 4 53 53 58 58 2 2 61 61 60 60 59 59 62 62 60 60 61 61 63 63 62 62 61 61 34 34 35 35 36 36 32 32 35 35 34 34 13 13 28 28 26 26 15 15 28 28 13 13 55 55 58 58 53 53 64 64 58 58 55 55 6 6 56 56 65 65 4 4 56 56 6 6 8 8 65 65 10 10 6 6 65 65 8 8 38 38 67 67 66 66 40 40 67 67 38 38 69 69 50 50 68 68 48 48 50 50 69 69 71 71 46 46 70 70 45 45 46 46 71 71 58 58 64 64 57 57 61 61 72 72 63 63 73 73 42 42 44 44</p>
                </polylist>
            </mesh>
        </geometry>
        <geometry id="mesh2">
            <mesh>
                <source id="points2">
                    <float_array id="pointarray2" count="1296">95.52734375 11.30078125 -8.09375 93.53515625 15.953125 -19.328125 92.11328125 11.3984375 -18.91015625 86.79296875 15.5078125 -29.6171875 85.55859375 11.6796875 -29.48828125 77.34765625 15.15234375 -37.34375 75.96484375 11.84375 -37.3203125 62.421875 12 -43.04296875 60.0546875 11.140625 -42.87890625 54.59765625 11.98828125 -46.453125 54.55859375 11.296875 -44.90234375 45.99609375 11.9375 -49.3046875 49.8984375 11.11328125 -46.30859375 50.0390625 8.765625 -47.5546875 55.77734375 7.2421875 -43.82421875 56.765625 4.61328125 -44.78125 69.89453125 -0.765625 -39.0546875 69.73046875 -5.19921875 -38.52734375 82.25 -5.8046875 -29.2890625 81.78125 -9.57421875 -29.19140625 88.99609375 -8.6875 -17.85546875 88.6640625 -12.56640625 -17.53515625 92.1015625 -13.91796875 -8.734375 84.12890625 -15.171875 -16.5703125 87.80859375 -16.71484375 0 80.078125 -19.94140625 -8.51953125 81.15234375 -20.8515625 0 73.8125 -24.78515625 0 80.078125 -19.94140625 8.51953125 71.8984375 -24.4375 8.11328125 67.99609375 -22.81640625 18.40234375 63.30078125 -26.08984375 12.51171875 58.453125 -26.3984375 15.1796875 60.265625 -27.55078125 8.515625 84.12890625 -15.171875 16.5703125 92.1015625 -13.91796875 8.734375 88.6640625 -12.56640625 17.53515625 88.99609375 -8.6875 17.85546875 81.78125 -9.57421875 29.19140625 82.25 -5.8046875 29.2890625 69.73046875 -5.19921875 38.52734375 69.89453125 -0.765625 39.0546875 56.765625 4.61328125 44.78125 55.77734375 7.2421875 43.82421875 50.0390625 8.765625 47.5546875 49.8984375 11.11328125 46.30859375 45.99609375 11.9375 49.3046875 54.55859375 11.296875 44.90234375 54.59765625 11.98828125 46.453125 60.0546875 11.140625 42.87890625 62.421875 12 43.04296875 75.96484375 11.84375 37.3203125 77.34765625 15.15234375 37.34375 85.55859375 11.6796875 29.48828125 86.79296875 15.5078125 29.6171875 92.11328125 11.3984375 18.91015625 93.53515625 15.953125 19.328125 17.09375 33.265625 0 26.43359375 33.96875 -22.48828125 37.4140625 39.9375 0 40.54296875 37.8125 -21.62109375 52.78515625 38.6484375 -19.37109375 52.60546875 33.890625 -33.9375 67.9140625 36.953125 -16.5390625 69.1484375 32.3515625 -29.3515625 80.4765625 32.32421875 -14.91015625 87.2890625 26.2265625 -16.10546875 83.61328125 32.31640625 0 90.09375 26.19140625 0 87.2890625 26.2265625 16.10546875 93.8828125 20.00390625 7.32421875 90.640625 19.6640625 19 97.2734375 16.17578125 7.8359375 95.52734375 11.30078125 8.09375 91.5 9.6328125 8.3515625 88.40234375 9.7890625 18.4921875 92.2578125 9.52734375 0 96.20703125 11.32421875 0 97.2734375 16.17578125 -7.8359375 90.640625 19.6640625 -19 85.6953125 19.0625 -27.484375 76.77734375 25.7890625 -31.55859375 60.140625 28.72265625 -38.83203125 37.50390625 26.05859375 -42.8828125 30.11328125 30.8359375 -34.9375 21.39453125 17.88671875 -43.8984375 13.2421875 23.96875 -22.81640625 12.0078125 16.0078125 -30.65625 54.93359375 11.7421875 29.1953125 63.0234375 9.875 27.359375 54.03515625 12.05078125 36.875 63.90234375 9.4296875 33.515625 63.6015625 7.3125 34.7890625 72.94921875 6.234375 27.76171875 73.046875 3.63671875 28.90234375 71.2578125 3.86328125 23.109375 78.86328125 8.34375 23.1171875 78.0703125 2.94921875 17.99609375 81.2734375 2.51171875 20.71875 81.15625 4.15625 19.49609375 86.62109375 2.3984375 11.6875 79.1328125 4.84765625 17.62109375 84.7421875 3.21875 10.25390625 81.484375 -9.703125 10.2890625 75.3046875 -8.671875 18.98046875 77.41015625 -12.25390625 -28.0390625 72.91796875 -15.74609375 -27.0234375 67.484375 -8.4140625 -36.0546875 59.1953125 -18.5234375 -31.44921875 55.78515625 -4.17578125 -42.2109375 50.95703125 -14.34765625 -37.8984375 47.36328125 -1.15234375 -46.1953125 42.8984375 -11.203125 -40.9453125 37.66796875 -0.8125 -48.40234375 36.1875 -9.68359375 -42.69921875 26.46484375 -0.84765625 -45.86328125 25.890625 -8.6875 -40.6328125 19.18359375 -1.86328125 -39.6484375 70.7890625 7.74609375 25.6640625 63.7109375 10.2421875 28.26171875 72.015625 6.4453125 26.76171875 73.6640625 6.40234375 29.21875 75 7.5546875 29.95703125 77.3359375 2.90625 28.19140625 78.48828125 9.83984375 28.1484375 81.1953125 6.1953125 23.0078125 83.17578125 16.76953125 22.96484375 87.87890625 4.33984375 12.1640625 88.50390625 15.7109375 12.3359375 89.4296875 3.76953125 0 90.15234375 15.5390625 0 88.50390625 15.7109375 -12.3359375 49.828125 -21.62109375 -28.36328125 49.06640625 -19.875 -31.03515625 47.04296875 -27.453125 -30.2265625 47.34765625 -27.953125 -32.15234375 45.65234375 -32.90234375 -30.16015625 46.03125 -33.76171875 -32.109375 46.56640625 -38.7578125 -26.9296875 46.91796875 -40.375 -28.8203125 47.7421875 -45.4140625 -22.69140625 48.171875 -46.54296875 -25.16015625 48.87890625 -52.2265625 -22.203125 45.89453125 -52.21484375 -24.5546875 42.52734375 -53.02734375 -23.90625 40.625 -46.7734375 -28.10546875 77.41015625 -12.25390625 28.0390625 67.484375 -8.4140625 36.0546875 56.890625 -0.13671875 44.03515625 55.78515625 -4.17578125 42.2109375 47.36328125 -1.15234375 46.1953125 50.95703125 -14.34765625 37.8984375 42.8984375 -11.203125 40.9453125 45.74609375 -18.20703125 34.08984375 42.83984375 -17.734375 34.296875 12.0078125 16.0078125 30.65625 13.2421875 23.96875 22.81640625 21.40625 17.8828125 43.8984375 30.11328125 30.8359375 34.9375 37.50390625 26.05859375 42.8828125 52.60546875 33.890625 33.9375 60.140625 28.72265625 38.83203125 69.1484375 32.3515625 29.3515625 76.77734375 25.7890625 31.55859375 85.6953125 19.0625 27.484375 53.390625 -45.578125 -21.51171875 56.078125 -47.359375 -17.75 59.078125 -43.3046875 -16.08984375 55.21484375 -44.5546875 -13.328125 62.625 -40.14453125 -12.05859375 58.45703125 -41.58203125 -10.0859375 63.890625 -38.4375 -6.94921875 59.80859375 -39.75 -5.640625 64.62890625 -37.77734375 0 60.19140625 -39.23046875 0 59.80859375 -39.75 5.640625 68.09765625 1.7578125 38.23828125 79.33203125 -3.015625 28.96875 85.78125 -6.0078125 18.17578125 92.41796875 -10.125 9.015625 92.76171875 -14.17578125 0 64.52734375 23.08984375 -41.2265625 45.29296875 21.8125 -47.60546875 50.375 17.109375 -47.75 41.234375 17.1015625 -49.703125 38.7890625 10.39453125 -50.68359375 38.24609375 5.22265625 -50.27734375 29.38671875 9.08203125 -49.796875 86.6328125 16.94140625 0 85.91796875 2.25 0 85.2734375 17.109375 -10.29296875 84.48828125 2.703125 -10.25390625 78.26171875 6.7890625 -20.51171875 78.7109375 4.61328125 -20.11328125 80.65625 4.65625 -21.80078125 86.8828125 2.76953125 -11.6875 81.1953125 6.1953125 -23.0078125 87.87890625 4.33984375 -12.1640625 83.17578125 16.76953125 -22.96484375 37.66796875 -0.8125 48.40234375 29.38671875 9.08203125 49.796875 38.24609375 5.22265625 50.27734375 38.7890625 10.39453125 50.68359375 41.234375 17.1015625 49.703125 50.375 17.109375 47.75 45.29296875 21.8125 47.60546875 64.52734375 23.08984375 41.2265625 36.5234375 -14.70703125 37.37890625 36.1875 -9.68359375 42.69921875 26.46484375 -0.84765625 45.86328125 20.79296875 7.3515625 46.24609375 14.42578125 4.97265625 37.46484375 60.546875 -29.71484375 -2.21484375 60.0859375 -30.23828125 -6.78515625 64.12109375 -34.23046875 -7.4296875 58.55859375 -31.94140625 -13.08203125 62.125 -35.87109375 -13.06640625 54.71484375 -35.3515625 -18.19140625 58.5 -39.2578125 -17.64453125 52.265625 -37.77734375 -20.890625 49.4140625 -42.4921875 -22.4765625 78.26171875 6.7890625 20.51171875 80.65625 4.65625 21.80078125 86.8828125 2.76953125 11.6875 78.7109375 4.61328125 20.11328125 84.109375 2.703125 10.25390625 85.2734375 17.109375 10.29296875 80.43359375 18.1640625 19.421875 48.87890625 -52.2265625 22.203125 53.390625 -45.578125 21.51171875 56.078125 -47.359375 17.75 59.078125 -43.3046875 16.08984375 55.21484375 -44.5546875 13.328125 62.625 -40.14453125 12.05859375 58.45703125 -41.58203125 10.0859375 63.890625 -38.4375 6.94921875 59.26953125 -3.9453125 -34.64453125 63.0234375 9.875 -27.359375 67.6015625 -6.625 -30.0859375 71.2578125 3.86328125 -23.109375 78.0703125 2.94921875 -17.99609375 78.86328125 8.34375 -23.1171875 81.2734375 2.51171875 -20.71875 78.203125 -0.6640625 -26.19921875 78.22265625 -9.01953125 -22.35546875 75.421875 -8.09765625 -28.54296875 84.859375 -10.16796875 -12.328125 87.09375 0.59375 -12.1640625 86.62109375 2.3984375 -11.6875 88.8515625 1.5703125 0 84.36328125 3.21875 -10.25390625 86.5078125 2.29296875 0 81.484375 -9.703125 -10.2890625 83.23046875 -10.015625 0 91.5 9.6328125 -8.3515625 88.40234375 9.7890625 -18.4921875 82.36328125 10.31640625 -28.18359375 72.35546875 10.65234375 -36.8984375 60.0859375 -30.23828125 6.78515625 64.12109375 -34.23046875 7.4296875 58.55859375 -31.94140625 13.08203125 62.125 -35.87109375 13.06640625 54.71484375 -35.3515625 18.19140625 58.5 -39.2578125 17.64453125 52.265625 -37.77734375 20.890625 49.4140625 -42.4921875 22.4765625 47.7421875 -45.4140625 22.69140625 26.43359375 33.96875 22.48828125 40.54296875 37.8125 21.62109375 52.78515625 38.6484375 19.37109375 67.9140625 36.953125 16.5390625 52.89453125 41.015625 0 69.33984375 38.59765625 0 76.0234375 18.453125 -33.08984375 67.57421875 19.6640625 -37.80859375 75 7.5546875 -29.95703125 66.125 10.2578125 -34.7890625 73.6640625 6.40234375 -29.21875 65.85546875 8.67578125 -33.515625 63.7109375 10.2421875 -28.26171875 55.87109375 10.5390625 -36.875 56.3046875 12.0625 -29.1484375 70.125 -6.65625 -32.12109375 73.046875 3.63671875 -28.90234375 61.1640625 -3.82421875 -38.38671875 63.6015625 7.3125 -34.7890625 53.62109375 10.51953125 -38.28125 54.03515625 12.05078125 -36.875 54.93359375 11.7421875 -29.1953125 56.3046875 12.0625 29.1484375 55.87109375 10.5390625 36.875 65.85546875 8.67578125 33.515625 66.125 10.2578125 34.7890625 67.57421875 19.6640625 37.80859375 76.0234375 18.453125 33.08984375 89.30859375 -7.51953125 9.296875 89.91015625 -7.83203125 0 93.1875 -10.51953125 0 89.30859375 -7.51953125 -9.296875 92.41796875 -10.125 -9.015625 85.78125 -6.0078125 -18.17578125 79.1328125 4.84765625 -17.62109375 81.15625 4.15625 -19.49609375 29.5 -11.0546875 39.7421875 25.890625 -8.6875 40.6328125 19.18359375 -1.86328125 39.6484375 60.94140625 -28.13671875 -2.4296875 68.7265625 -26.0625 -8.296875 60.265625 -27.55078125 -8.515625 63.30078125 -26.08984375 -12.51171875 58.453125 -26.3984375 -15.1796875 67.99609375 -22.81640625 -18.40234375 64.0078125 -20.9375 -25.5546875 78.16796875 -18.9375 -16.8046875 76.31640625 18.3125 -35.14453125 63.41015625 17.1015625 -43.0546875 64.1015625 14.70703125 -43.859375 64.9140625 -33.53125 0 60.546875 -29.71484375 2.21484375 72.94921875 6.234375 -27.76171875 71.71875 6.6484375 -23.3046875 88.3671875 2.19921875 0 68.7265625 -26.0625 8.296875 70.3671875 -26.45703125 0 61.0859375 -28.03125 0 97.87109375 16.46484375 0 93.8828125 20.00390625 -7.32421875 46.56640625 -38.7578125 26.9296875 46.91796875 -40.375 28.8203125 48.171875 -46.54296875 25.16015625 44.35546875 -47.140625 28.1953125 45.89453125 -52.21484375 24.5546875 40.625 -46.7734375 28.10546875 42.52734375 -53.02734375 23.90625 67.6015625 -6.625 30.0859375 71.71875 6.6484375 23.3046875 45.65234375 -32.90234375 30.16015625 46.03125 -33.76171875 32.109375 43.16796875 -41.1953125 31.8046875 39.3046875 -40.80859375 31.47265625 47.04296875 -27.453125 30.2265625 47.34765625 -27.953125 32.15234375 41.86328125 -31.21484375 36.16796875 41.44140625 -34.46484375 35.65625 38.73828125 -30.40234375 35.96484375 38.12109375 -34.04296875 35.57421875 49.828125 -21.62109375 28.36328125 49.06640625 -19.875 31.03515625 42.89453125 -26.83984375 36.12109375 40.12109375 -25.63671875 36.1171875 76.31640625 18.3125 35.14453125 64.1015625 14.70703125 43.859375 63.41015625 17.1015625 43.0546875 32.1953125 17.5703125 -49.32421875 29.5 -11.0546875 -39.7421875 36.5234375 -14.70703125 -37.37890625 42.83984375 -17.734375 -34.296875 45.74609375 -18.20703125 -34.08984375 63.90234375 9.4296875 -33.515625 46.6796875 5.390625 48.171875 41.86328125 -31.21484375 -36.16796875 41.44140625 -34.46484375 -35.65625 43.16796875 -41.1953125 -31.8046875 38.12109375 -34.04296875 -35.57421875 39.3046875 -40.80859375 -31.47265625 42.89453125 -26.83984375 -36.12109375 40.12109375 -25.63671875 -36.1171875 38.73828125 -30.40234375 -35.96484375 94.50390625 20.140625 0 70.7890625 7.74609375 -25.6640625 77.3359375 2.90625 -28.19140625 78.48828125 9.83984375 -28.1484375 79.74609375 17.27734375 -29.0234375 61.1640625 -3.82421875 38.38671875 53.62109375 10.51953125 38.28125 55.94140625 12.12890625 38.28125 57.4296875 21.46875 41.55859375 64.0078125 -20.9375 25.5546875 78.16796875 -18.9375 16.8046875 59.1953125 -18.5234375 31.44921875 53.26171875 -23.66015625 24.4609375 55.84765625 -24.9375 20.31640625 52.76171875 -52.44921875 17.5546875 49.10546875 -52.99609375 15.1640625 52.29296875 -48.19921875 14.80859375 44.35546875 -47.140625 -28.1953125 52.29296875 -48.19921875 -14.80859375 52.76171875 -52.44921875 -17.5546875 49.10546875 -52.99609375 -15.1640625 46.6796875 5.390625 -48.171875 56.890625 -0.13671875 -44.03515625 14.42578125 4.97265625 -37.46484375 20.79296875 7.3515625 -46.24609375 80.4765625 32.32421875 14.91015625 55.94140625 12.12890625 -38.28125 57.859375 22.26953125 -35.38671875 70.125 -6.65625 32.12109375 78.203125 -0.6640625 26.19921875 75.421875 -8.09765625 28.54296875 78.22265625 -9.01953125 22.35546875 72.015625 6.4453125 -26.76171875 32.1953125 17.5703125 49.32421875 87.09375 0.59375 12.1640625 84.859375 -10.16796875 12.328125 89.39453125 -0.25390625 0 86.87890625 -10.57421875 0 71.8984375 -24.4375 -8.11328125 53.26171875 -23.66015625 -24.4609375 55.84765625 -24.9375 -20.31640625 72.91796875 -15.74609375 27.0234375 79.74609375 17.27734375 29.0234375 72.890625 18.90234375 -27.97265625 80.43359375 18.1640625 -19.421875 60.94140625 -28.13671875 2.4296875 51.19140625 -0.7734375 42.33203125 51.359375 -1.66796875 37.32421875 15.78125 29.48828125 13.8359375 59.26953125 -3.9453125 34.64453125 72.890625 18.90234375 27.97265625 66.0234375 20.484375 33.13671875 57.859375 22.26953125 35.38671875 66.0234375 20.484375 -33.13671875 15.78125 29.48828125 -13.8359375 60.3984375 -29.51171875 0 75.3046875 -8.671875 -18.98046875 51.19140625 -0.7734375 -42.33203125 51.359375 -1.66796875 -37.32421875 57.4296875 21.46875 -41.55859375 72.35546875 10.65234375 36.8984375 82.36328125 10.31640625 28.18359375 68.09765625 1.7578125 -38.23828125 79.33203125 -3.015625 -28.96875</float_array>
                    <technique_common>
                        <accessor count="432" source="#pointarray2" stride="3">
                            <param name="X" type="float"/>
                            <param name="Y" type="float"/>
                            <param name="Z" type="float"/>
                        </accessor>
                    </technique_common>
                </source>
                <source id="uvs2">
                    <float_array id="uvarray2" count="726">0.0335693359375 0.759033203125 0.0706787109375 0.7421875 0.071533203125 0.758544921875 0.11016845703125 0.7445068359375 0.10870361328125 0.757080078125 0.14923095703125 0.746337890625 0.15301513671875 0.75836181640625 0.2003173828125 0.75823974609375 0.20770263671875 0.76690673828125 0.2252197265625 0.76251220703125 0.225341796875 0.76605224609375 0.24908447265625 0.7628173828125 0.2392578125 0.76702880859375 0.23846435546875 0.779052734375 0.2215576171875 0.786865234375 0.21856689453125 0.80029296875 0.1734619140625 0.827880859375 0.17333984375 0.85064697265625 0.12005615234375 0.85369873046875 0.12542724609375 0.873046875 0.07763671875 0.86846923828125 0.079345703125 0.88836669921875 0.04339599609375 0.89532470703125 0.08154296875 0.9017333984375 0.006591796875 0.90960693359375 0.05157470703125 0.9261474609375 0.006591796875 0.93084716796875 0.006591796875 0.94927978515625 0.05194091796875 0.9261474609375 0.05126953125 0.952880859375 0.1104736328125 0.94970703125 0.06671142578125 0.974609375 0.1090087890625 0.9820556640625 0.05517578125 0.99029541015625 0.08184814453125 0.9017333984375 0.043701171875 0.89532470703125 0.07965087890625 0.88836669921875 0.07794189453125 0.86846923828125 0.125732421875 0.873046875 0.12042236328125 0.85369873046875 0.17364501953125 0.85064697265625 0.17376708984375 0.827880859375 0.2188720703125 0.80029296875 0.22186279296875 0.786865234375 0.23876953125 0.779052734375 0.23956298828125 0.76702880859375 0.2493896484375 0.7628173828125 0.2257080078125 0.76605224609375 0.22552490234375 0.76251220703125 0.20806884765625 0.76690673828125 0.20062255859375 0.75823974609375 0.1533203125 0.75836181640625 0.1495361328125 0.746337890625 0.1090087890625 0.757080078125 0.1104736328125 0.7445068359375 0.0718994140625 0.758544921875 0.07098388671875 0.7421875 0.0084228515625 0.583251953125 0.29852294921875 0.6060791015625 0.0069580078125 0.60150146484375 0.183349609375 0.6204833984375 0.1365966796875 0.62677001953125 0.20928955078125 0.6556396484375 0.0938720703125 0.6444091796875 0.14532470703125 0.670166015625 0.07958984375 0.6702880859375 0.0784912109375 0.6895751953125 0.006591796875 0.67034912109375 0.006591796875 0.68975830078125 0.07879638671875 0.6895751953125 0.0323486328125 0.721435546875 0.07440185546875 0.72320556640625 0.031982421875 0.7410888671875 0.03387451171875 0.759033203125 0.0377197265625 0.77459716796875 0.07659912109375 0.7738037109375 0.006591796875 0.775146484375 0.006591796875 0.7589111328125 0.03167724609375 0.7410888671875 0.0740966796875 0.72320556640625 0.107421875 0.72625732421875 0.14019775390625 0.69183349609375 0.20391845703125 0.68658447265625 0.29150390625 0.7001953125 0.3206787109375 0.67681884765625 0.347900390625 0.7322998046875 0.4085693359375 0.70050048828125 0.406982421875 0.741943359375 0.4989013671875 0.8902587890625 0.49896240234375 0.840576171875 0.48016357421875 0.89105224609375 0.4793701171875 0.84271240234375 0.47369384765625 0.84454345703125 0.47808837890625 0.79937744140625 0.4727783203125 0.79931640625 0.48614501953125 0.7725830078125 0.4715576171875 0.75628662109375 0.47637939453125 0.75634765625 0.47515869140625 0.71441650390625 0.48565673828125 0.756103515625 0.48406982421875 0.71380615234375 0.43701171875 0.71392822265625 0.43658447265625 0.757568359375 0.13043212890625 0.88677978515625 0.1400146484375 0.9053955078125 0.177734375 0.8670654296875 0.195556640625 0.92108154296875 0.221435546875 0.84539794921875 0.23870849609375 0.89971923828125 0.24676513671875 0.82989501953125 0.270751953125 0.88140869140625 0.2864990234375 0.828125 0.30059814453125 0.87359619140625 0.32867431640625 0.82830810546875 0.34161376953125 0.8685302734375 0.364013671875 0.83349609375 0.472900390625 0.79931640625 0.49957275390625 0.79840087890625 0.4725341796875 0.79931640625 0.4638671875 0.77520751953125 0.4713134765625 0.75628662109375 0.43634033203125 0.757568359375 0.469970703125 0.7142333984375 0.436767578125 0.71392822265625 0.468994140625 0.66973876953125 0.4375 0.66973876953125 0.74359130859375 0.71478271484375 0.72021484375 0.69952392578125 0.727294921875 0.7657470703125 0.71044921875 0.77008056640625 0.7279052734375 0.81329345703125 0.7108154296875 0.82080078125 0.75616455078125 0.86444091796875 0.7396240234375 0.8785400390625 0.79327392578125 0.92254638671875 0.77166748046875 0.932373046875 0.79754638671875 0.98199462890625 0.7769775390625 0.98187255859375 0.76470947265625 0.9949951171875 0.72100830078125 0.93438720703125 0.13079833984375 0.88677978515625 0.17803955078125 0.8670654296875 0.2183837890625 0.82470703125 0.22174072265625 0.84539794921875 0.2470703125 0.82989501953125 0.239013671875 0.89971923828125 0.27117919921875 0.88140869140625 0.26104736328125 0.92095947265625 0.27862548828125 0.9215087890625 0.407470703125 0.741943359375 0.4090576171875 0.70050048828125 0.34832763671875 0.7322998046875 0.3211669921875 0.67681884765625 0.2919921875 0.7001953125 0.2095947265625 0.6556396484375 0.2042236328125 0.68658447265625 0.14569091796875 0.670166015625 0.1405029296875 0.69183349609375 0.1077880859375 0.72625732421875 0.80364990234375 0.9239501953125 0.8365478515625 0.93951416015625 0.85107421875 0.90411376953125 0.87530517578125 0.9150390625 0.88641357421875 0.87652587890625 0.9036865234375 0.8890380859375 0.93115234375 0.86163330078125 0.94256591796875 0.873046875 0.99212646484375 0.8558349609375 0.99212646484375 0.8685302734375 0.9427490234375 0.873046875 0.17852783203125 0.81494140625 0.12744140625 0.83941650390625 0.0804443359375 0.854736328125 0.04296875 0.8758544921875 0.006591796875 0.8966064453125 0.1925048828125 0.70562744140625 0.25823974609375 0.712158203125 0.2374267578125 0.73626708984375 0.27191162109375 0.736328125 0.27972412109375 0.77069091796875 0.2821044921875 0.79718017578125 0.31256103515625 0.77740478515625 0.48333740234375 0.67041015625 0.47491455078125 0.71441650390625 0.2869873046875 0.828125 0.31298828125 0.77740478515625 0.2825927734375 0.79718017578125 0.2801513671875 0.77069091796875 0.27239990234375 0.736328125 0.23773193359375 0.73626708984375 0.2586669921875 0.712158203125 0.19281005859375 0.70562744140625 0.310302734375 0.90155029296875 0.30108642578125 0.87359619140625 0.32916259765625 0.82830810546875 0.3450927734375 0.78631591796875 0.3824462890625 0.7984619140625 0.97259521484375 0.78546142578125 0.93255615234375 0.7900390625 0.92694091796875 0.82489013671875 0.87744140625 0.804931640625 0.8775634765625 0.8392333984375 0.83270263671875 0.83465576171875 0.8375244140625 0.8687744140625 0.80902099609375 0.8558349609375 0.795166015625 0.89697265625 0.79766845703125 0.98199462890625 0.80377197265625 0.9239501953125 0.83673095703125 0.93951416015625 0.85125732421875 0.90411376953125 0.87542724609375 0.9150390625 0.88653564453125 0.87652587890625 0.90380859375 0.8890380859375 0.9312744140625 0.86163330078125 0.43603515625 0.847412109375 0.43621826171875 0.8009033203125 0.464111328125 0.7752685546875 0.43646240234375 0.78070068359375 0.47021484375 0.7142333984375 0.47406005859375 0.66998291015625 0.48358154296875 0.67041015625 0.43798828125 0.66973876953125 0.03741455078125 0.77459716796875 0.0762939453125 0.7738037109375 0.11712646484375 0.7711181640625 0.16021728515625 0.76934814453125 0.93267822265625 0.7900390625 0.92706298828125 0.82489013671875 0.8775634765625 0.804931640625 0.87774658203125 0.8392333984375 0.83282470703125 0.83465576171875 0.837646484375 0.8687744140625 0.8092041015625 0.8558349609375 0.7952880859375 0.89697265625 0.79339599609375 0.92254638671875 0.29876708984375 0.6060791015625 0.18341064453125 0.6204833984375 0.13690185546875 0.62677001953125 0.09423828125 0.6444091796875 0.00653076171875 0.6187744140625 0.006591796875 0.63818359375 0.43597412109375 0.8009033203125 0.4791259765625 0.84271240234375 0.43603515625 0.8475341796875 0.47454833984375 0.89141845703125 0.47918701171875 0.90631103515625 0.043212890625 0.862548828125 0.006591796875 0.8641357421875 0.006591796875 0.87786865234375 0.04290771484375 0.862548828125 0.04266357421875 0.8758544921875 0.08013916015625 0.854736328125 0.3319091796875 0.880615234375 0.342041015625 0.8685302734375 0.364501953125 0.83349609375 0.0252685546875 0.99169921875 0.05242919921875 0.96710205078125 0.05487060546875 0.99029541015625 0.06640625 0.974609375 0.108642578125 0.9820556640625 0.11016845703125 0.94970703125 0.1524658203125 0.93865966796875 0.088623046875 0.9239501953125 0.14837646484375 0.7301025390625 0.197265625 0.736328125 0.19561767578125 0.74859619140625 0.99212646484375 0.81878662109375 0.97271728515625 0.78546142578125 0.47381591796875 0.669921875 0.05279541015625 0.96710205078125 0.006591796875 0.9637451171875 0.006591796875 0.99114990234375 0.006591796875 0.73956298828125 0.03204345703125 0.721435546875 0.75628662109375 0.86444091796875 0.73974609375 0.8785400390625 0.77178955078125 0.932373046875 0.7452392578125 0.93756103515625 0.777099609375 0.98187255859375 0.72119140625 0.93438720703125 0.76483154296875 0.9949951171875 0.72802734375 0.81329345703125 0.7109375 0.82080078125 0.713623046875 0.88568115234375 0.6890869140625 0.88232421875 0.72747802734375 0.7657470703125 0.7105712890625 0.77008056640625 0.6754150390625 0.798583984375 0.67987060546875 0.826904296875 0.652099609375 0.79150390625 0.6556396484375 0.8232421875 0.7437744140625 0.71478271484375 0.7203369140625 0.69952392578125 0.693603515625 0.68499755859375 0.67584228515625 0.7603759765625 0.67132568359375 0.680908203125 0.65399169921875 0.7498779296875 0.148681640625 0.7301025390625 0.1959228515625 0.74859619140625 0.19757080078125 0.736328125 0.30419921875 0.73394775390625 0.3314208984375 0.880615234375 0.309814453125 0.90155029296875 0.2781982421875 0.9215087890625 0.2607421875 0.92095947265625 0.24810791015625 0.79632568359375 0.67529296875 0.798583984375 0.67974853515625 0.826904296875 0.7135009765625 0.88568115234375 0.65545654296875 0.8232421875 0.68896484375 0.88232421875 0.6934814453125 0.68499755859375 0.67572021484375 0.7603759765625 0.65386962890625 0.7498779296875 0.6519775390625 0.79150390625 0.006591796875 0.72076416015625 0.43621826171875 0.78070068359375 0.4359130859375 0.89312744140625 0.15277099609375 0.93865966796875 0.08892822265625 0.9239501953125 0.23297119140625 0.943603515625 0.1959228515625 0.92108154296875 0.19873046875 0.96142578125 0.14532470703125 0.97509765625 0.83837890625 0.98394775390625 0.85931396484375 0.99468994140625 0.8624267578125 0.94683837890625 0.7451171875 0.93756103515625 0.8623046875 0.94683837890625 0.8382568359375 0.98394775390625 0.85919189453125 0.99468994140625 0.24774169921875 0.79632568359375 0.21807861328125 0.82470703125 0.3819580078125 0.7984619140625 0.34466552734375 0.78631591796875 0.07989501953125 0.6702880859375 0.43572998046875 0.90838623046875 0.3046875 0.73394775390625 0.46923828125 0.66973876953125 0.437744140625 0.66973876953125 0.05096435546875 0.952880859375 0.1983642578125 0.96142578125 0.14495849609375 0.97509765625 0.140380859375 0.9053955078125 0.025634765625 0.99169921875 0.4359130859375 0.893310546875 0.24530029296875 0.58251953125 0.14154052734375 0.58349609375 0.00885009765625 0.583251953125 0.00714111328125 0.60150146484375 0.47259521484375 0.79931640625 0.24017333984375 0.92803955078125 0.232666015625 0.943603515625 0.244873046875 0.58251953125 0.14111328125 0.58349609375 0.99212646484375 0.78369140625 0.24053955078125 0.92803955078125 0.1605224609375 0.76934814453125 0.117431640625 0.7711181640625 0.17822265625 0.81494140625 0.1270751953125 0.83941650390625 0.006103515625 0.6187744140625 0.67120361328125 0.680908203125</float_array>
                    <technique_common>
                        <accessor count="363" source="#uvarray2" stride="2">
                            <param name="S" type="float"/>
                            <param name="T" type="float"/>
                        </accessor>
                    </technique_common>
                </source>
                <vertices id="vertices2">
                    <input semantic="POSITION" source="#points2"/>
                </vertices>
                <polylist count="712" material="Material1">
                    <input offset="0" semantic="VERTEX" source="#vertices2"/>
                    <input offset="1" semantic="TEXCOORD" source="#uvs2" set="0"/>
                    <vcount>3 3 3 3 3 3 3 3 3 3 3 3 3 3 3 3 3 3 3 3 3 3 3 3 3 3 3 3 3 3 3 3 3 3 3 3 3 3 3 3 3 3 3 3 3 3 3 3 3 3 3 3 3 3 3 3 3 3 3 3 3 3 3 3 3 3 3 3 3 3 3 3 3 3 3 3 3 3 3 3 3 3 3 3 3 3 3 3 3 3 3 3 3 3 3 3 3 3 3 3 3 3 3 3 3 3 3 3 3 3 3 3 3 3 3 3 3 3 3 3 3 3 3 3 3 3 3 3 3 3 3 3 3 3 3 3 3 3 3 3 3 3 3 3 3 3 3 3 3 3 3 3 3 3 3 3 3 3 3 3 3 3 3 3 3 3 3 3 3 3 3 3 3 3 3 3 3 3 3 3 3 3 3 3 3 3 3 3 3 3 3 3 3 3 3 3 3 3 3 3 3 3 3 3 3 3 3 3 3 3 3 3 3 3 3 3 3 3 3 3 3 3 3 3 3 3 3 3 3 3 3 3 3 3 3 3 3 3 3 3 3 3 3 3 3 3 3 3 3 3 3 3 3 3 3 3 3 3 3 3 3 3 3 3 3 3 3 3 3 3 3 3 3 3 3 3 3 3 3 3 3 3 3 3 3 3 3 3 3 3 3 3 3 3 3 3 3 3 3 3 3 3 3 3 3 3 3 3 3 3 3 3 3 3 3 3 3 3 3 3 3 3 3 3 3 3 3 3 3 3 3 3 3 3 3 3 3 3 3 3 3 3 3 3 3 3 3 3 3 3 3 3 3 3 3 3 3 3 3 3 3 3 3 3 3 3 3 3 3 3 3 3 3 3 3 3 3 3 3 3 3 3 3 3 3 3 3 3 3 3 3 3 3 3 3 3 3 3 3 3 3 3 3 3 3 3 3 3 3 3 3 3 3 3 3 3 3 3 3 3 3 3 3 3 3 3 3 3 3 3 3 3 3 3 3 3 3 3 3 3 3 3 3 3 3 3 3 3 3 3 3 3 3 3 3 3 3 3 3 3 3 3 3 3 3 3 3 3 3 3 3 3 3 3 3 3 3 3 3 3 3 3 3 3 3 3 3 3 3 3 3 3 3 3 3 3 3 3 3 3 3 3 3 3 3 3 3 3 3 3 3 3 3 3 3 3 3 3 3 3 3 3 3 3 3 3 3 3 3 3 3 3 3 3 3 3 3 3 3 3 3 3 3 3 3 3 3 3 3 3 3 3 3 3 3 3 3 3 3 3 3 3 3 3 3 3 3 3 3 3 3 3 3 3 3 3 3 3 3 3 3 3 3 3 3 3 3 3 3 3 3 3 3 3 3 3 3 3 3 3 3 3 3 3 3 3 3 3 3 3 3 3 3 3 3 3 3 3 3 3 3 3 3 3 3 3 3 3 3 3 3 3 3 3 3 3 3 3 3 3 3 3 3 3 3 3 3 3 3 3 3 3 3 3 3 3 3 3 3 3 3 3 3 3 3 3 3 3 3 3 3 3 3 3 3 3 3 3 3 3 3 3 3 3 3 3 3 3 3 3 3 3 3 3 3 3 3 3 3 3 3 3 3 3 3 3 3 3 3 3 3 3</vcount>
                    <p>2 2 1 1 0 0 3 3 1 1 2 2 4 4 3 3 2 2 5 5 3 3 4 4 6 6 5 5 4 4 7 7 5 5 6 6 8 8 7 7 6 6 9 9 7 7 8 8 10 10 9 9 8 8 11 11 9 9 10 10 12 12 11 11 10 10 13 13 11 11 12 12 14 14 13 13 12 12 15 15 13 13 14 14 16 16 15 15 14 14 17 17 15 15 16 16 18 18 17 17 16 16 19 19 17 17 18 18 20 20 19 19 18 18 21 21 19 19 20 20 22 22 21 21 20 20 23 23 21 21 22 22 24 24 23 23 22 22 25 25 23 23 24 24 26 26 25 25 24 24 27 27 25 25 26 26 28 28 27 27 26 26 29 29 27 27 28 28 30 30 29 29 28 28 31 31 29 29 30 30 32 32 31 31 30 30 33 33 31 31 32 32 24 24 28 28 26 26 34 34 28 28 24 24 35 35 34 34 24 24 36 36 34 34 35 35 37 37 36 36 35 35 38 38 36 36 37 37 39 39 38 38 37 37 40 40 38 38 39 39 41 41 40 40 39 39 42 42 40 40 41 41 43 43 42 42 41 41 44 44 42 42 43 43 45 45 44 44 43 43 46 46 44 44 45 45 47 47 46 46 45 45 48 48 46 46 47 47 49 49 48 48 47 47 50 50 48 48 49 49 51 51 50 50 49 49 52 52 50 50 51 51 53 53 52 52 51 51 54 54 52 52 53 53 55 55 54 54 53 53 56 56 54 54 55 55 59 59 58 58 57 57 60 60 58 58 59 59 61 61 60 60 59 59 62 62 60 60 61 61 63 63 62 62 61 61 64 64 62 62 63 63 65 65 64 64 63 63 66 66 64 64 65 65 67 67 66 66 65 65 68 68 66 66 67 67 69 69 68 68 67 67 70 70 68 68 69 69 71 71 70 70 69 69 72 72 70 70 71 71 56 56 72 72 71 71 73 73 72 72 56 56 55 55 73 73 56 56 74 74 73 73 55 55 75 75 74 74 55 55 76 76 73 73 74 74 77 77 73 73 76 76 0 0 77 77 76 76 78 78 77 77 0 0 1 1 78 78 0 0 79 79 78 78 1 1 80 80 79 79 1 1 66 66 79 79 80 80 81 81 66 66 80 80 64 64 66 66 81 81 82 82 64 64 81 81 62 62 64 64 82 82 83 83 62 62 82 82 84 84 62 62 83 83 85 85 84 84 83 83 86 86 84 84 85 85 87 87 86 86 85 85 90 90 89 89 88 88 91 91 89 89 90 90 92 92 91 91 90 90 93 93 91 91 92 92 94 94 93 93 92 92 95 94 93 93 94 94 96 95 95 94 94 94 97 96 95 94 96 95 98 96 97 96 96 95 99 97 97 96 98 96 100 98 99 97 98 96 101 99 99 97 100 98 102 100 101 99 100 98 97 96 101 99 102 100 103 101 97 96 102 100 104 102 97 96 103 101 23 23 19 19 21 21 105 103 19 19 23 23 106 104 105 103 23 23 107 105 105 103 106 104 108 106 107 105 106 104 109 107 107 105 108 106 110 108 109 107 108 106 111 109 109 107 110 108 112 110 111 109 110 108 113 111 111 109 112 110 114 112 113 111 112 110 115 113 113 111 114 112 116 114 115 113 114 112 117 115 115 113 116 114 120 117 119 89 118 116 121 93 119 89 120 117 118 116 121 93 120 117 122 118 121 93 118 116 123 95 122 118 118 116 124 119 122 118 123 95 125 120 124 119 123 95 126 121 124 119 125 120 127 122 126 121 125 120 128 123 126 121 127 122 129 124 128 123 127 122 130 125 128 123 129 124 131 123 130 125 129 124 134 128 133 127 132 126 135 129 133 127 134 128 136 130 135 129 134 128 137 131 135 129 136 130 138 132 137 131 136 130 139 133 137 131 138 132 140 134 139 133 138 132 141 135 139 133 140 134 142 136 141 135 140 134 143 137 141 135 142 136 144 138 143 137 142 136 145 139 143 137 144 138 38 38 34 34 36 36 146 140 34 34 38 38 40 40 146 140 38 38 147 141 146 140 40 40 148 142 147 141 40 40 149 143 147 141 148 142 150 144 149 143 148 142 151 145 149 143 150 144 152 146 151 145 150 144 153 147 151 145 152 146 154 148 153 147 152 146 157 151 156 150 155 149 158 152 156 150 157 151 159 153 158 152 157 151 160 154 158 152 159 153 161 155 160 154 159 153 162 156 160 154 161 155 163 157 162 156 161 155 69 69 162 156 163 157 164 158 69 69 163 157 71 71 69 69 164 158 56 56 71 71 164 158 165 159 142 136 140 134 166 160 142 136 165 159 167 161 166 160 165 159 168 162 166 160 167 161 169 163 168 162 167 161 170 164 168 162 169 163 171 165 170 164 169 163 172 166 170 164 171 165 173 167 172 166 171 165 174 168 172 166 173 167 175 169 174 168 173 167 41 41 176 170 43 43 177 171 176 170 41 41 39 39 177 171 41 41 178 172 177 171 39 39 37 37 178 172 39 39 179 173 178 172 37 37 35 35 179 173 37 37 180 174 179 173 35 35 24 24 180 174 35 35 22 22 180 174 24 24 181 175 82 82 81 81 182 176 82 82 181 175 183 177 182 176 181 175 184 178 182 176 183 177 11 11 184 178 183 177 185 179 184 178 11 11 186 180 185 179 11 11 187 181 185 179 186 180 113 111 187 181 186 180 115 113 187 181 113 111 190 123 189 182 188 125 191 100 189 182 190 123 192 120 191 100 190 123 193 99 191 100 192 120 194 97 193 99 192 120 195 183 193 99 194 97 196 120 195 183 194 97 197 122 195 183 196 120 198 121 197 122 196 120 131 123 197 122 198 121 201 186 200 185 199 184 202 187 200 185 201 186 46 46 202 187 201 186 203 188 202 187 46 46 204 189 203 188 46 46 205 190 203 188 204 189 206 191 205 190 204 189 161 155 205 190 206 191 163 157 161 155 206 191 152 146 207 192 154 148 208 193 207 192 152 146 199 184 208 193 152 146 209 194 208 193 199 184 200 185 209 194 199 184 210 195 209 194 200 185 157 151 210 195 200 185 211 196 210 195 157 151 155 149 211 196 157 151 214 199 213 198 212 197 215 200 213 198 214 199 216 201 215 200 214 199 217 202 215 200 216 201 218 203 217 202 216 201 219 204 217 202 218 203 165 159 219 204 218 203 220 205 219 204 165 159 140 134 220 205 165 159 221 120 123 95 118 118 125 120 123 95 221 120 222 97 125 120 221 120 223 183 125 120 222 97 224 99 223 183 222 97 225 100 223 183 224 99 221 120 225 100 224 99 226 123 225 100 221 120 227 121 226 123 221 120 230 208 229 207 228 206 231 209 229 207 230 208 232 210 231 209 230 208 233 211 231 209 232 210 234 212 233 211 232 210 235 213 233 211 234 212 175 169 235 213 234 212 173 167 235 213 175 169 238 215 237 89 236 214 239 94 237 89 238 215 240 96 239 94 238 215 241 95 239 94 240 96 242 96 241 95 240 96 243 216 241 95 242 96 244 102 243 216 242 96 245 217 243 216 244 102 242 96 246 101 244 102 247 218 246 101 242 96 248 98 247 218 242 96 249 219 247 218 248 98 250 100 249 219 248 98 251 220 249 219 250 100 252 101 251 220 250 100 253 221 251 220 252 101 254 222 0 0 76 76 2 2 0 0 254 222 255 223 2 2 254 222 4 4 2 2 255 223 256 224 4 4 255 223 6 6 4 4 256 224 257 225 6 6 256 224 8 8 6 6 257 225 260 228 259 227 258 226 261 229 259 227 260 228 262 230 261 229 260 228 263 231 261 229 262 230 264 232 263 231 262 230 229 207 263 231 264 232 265 233 229 207 264 232 266 234 229 207 265 233 158 152 267 235 156 150 268 236 267 235 158 152 160 154 268 236 158 152 269 237 268 236 160 154 270 238 269 237 160 154 271 239 269 237 270 238 272 240 271 239 270 238 275 118 274 214 273 241 276 92 274 214 275 118 277 93 276 92 275 118 278 242 276 92 277 93 279 89 278 242 277 93 280 90 278 242 279 89 281 88 280 90 279 89 282 215 243 216 245 217 283 94 243 216 282 215 284 243 283 94 282 215 285 92 283 94 284 243 286 244 285 92 284 243 287 90 285 92 286 244 288 245 287 90 286 244 119 89 290 90 289 88 291 242 290 90 119 89 121 93 291 242 119 89 292 92 291 242 121 93 122 118 292 92 121 93 293 214 292 92 122 118 294 241 293 214 122 118 297 248 296 247 295 246 298 249 296 247 297 248 299 250 298 249 297 248 300 251 298 249 299 250 20 20 300 251 299 250 18 18 300 251 20 20 250 100 240 96 252 101 301 99 240 96 250 100 248 98 301 99 250 100 302 97 301 99 248 98 242 96 302 97 248 98 240 96 302 97 242 96 208 193 303 252 207 192 304 253 303 252 208 193 209 194 304 253 208 193 305 254 304 253 209 194 210 195 305 254 209 194 211 196 305 254 210 195 308 257 307 256 306 255 309 258 307 256 308 257 310 259 309 258 308 257 311 260 309 258 310 259 312 261 311 260 310 259 313 262 311 260 312 261 314 263 81 81 80 80 181 175 81 81 314 263 315 264 181 175 314 263 183 177 181 175 315 264 316 265 183 177 315 264 9 9 183 177 316 265 3 3 80 80 1 1 314 263 80 80 3 3 5 5 314 263 3 3 316 265 314 263 5 5 7 7 316 265 5 5 9 9 316 265 7 7 179 173 295 246 178 172 297 248 295 246 179 173 180 174 297 248 179 173 299 250 297 248 180 174 22 22 299 250 180 174 20 20 299 250 22 22 214 199 171 165 169 163 173 167 171 165 214 199 317 266 173 167 214 199 259 227 173 167 317 266 318 267 259 227 317 266 258 226 259 227 318 267 283 94 241 95 243 216 239 94 241 95 283 94 319 93 239 94 283 94 320 117 239 94 319 93 237 89 320 117 319 93 239 94 320 117 237 89 223 183 127 122 125 120 321 268 127 122 223 183 225 100 321 268 223 183 189 182 321 268 225 100 226 123 189 182 225 100 188 125 189 182 226 123 322 269 29 29 31 31 27 27 29 29 322 269 323 270 27 27 322 269 307 256 27 27 323 270 324 271 307 256 323 270 306 255 307 256 324 271 77 77 72 72 73 73 325 272 72 72 77 77 78 78 325 272 77 77 326 273 325 272 78 78 79 79 326 273 78 78 66 66 326 273 79 79 328 275 266 234 327 274 329 276 266 234 328 275 330 277 329 276 328 275 331 278 329 276 330 277 332 279 331 278 330 277 333 280 331 278 332 279 334 215 97 96 104 102 95 94 97 96 334 215 89 89 95 94 334 215 335 117 95 94 89 89 93 93 335 117 89 89 95 94 335 117 93 93 337 282 327 274 336 281 328 275 327 274 337 282 338 283 328 275 337 282 330 277 328 275 338 283 339 284 330 277 338 283 332 279 330 277 339 284 341 286 336 281 340 285 337 282 336 281 341 286 342 287 337 282 341 286 343 288 337 282 342 287 344 289 343 288 342 287 345 290 343 288 344 289 347 292 340 285 346 291 341 286 340 285 347 292 153 293 341 286 347 292 348 294 341 286 153 293 154 295 348 294 153 293 349 296 348 294 154 295 350 297 52 52 54 54 351 298 52 52 350 297 352 299 351 298 350 297 204 189 351 298 352 299 206 191 204 189 352 299 182 176 83 83 82 82 353 300 83 83 182 176 184 178 353 300 182 176 187 181 353 300 184 178 185 179 187 181 184 178 114 112 354 301 116 114 355 302 354 301 114 112 112 110 355 302 114 112 356 303 355 302 112 110 357 304 356 303 112 110 285 92 319 93 283 94 358 91 319 93 285 92 287 90 358 91 285 92 237 89 358 91 287 90 288 88 237 89 287 90 150 144 199 184 152 146 201 186 199 184 150 144 359 305 201 186 150 144 46 46 201 186 359 305 44 44 46 46 359 305 137 131 360 306 135 129 361 307 360 306 137 131 362 308 361 307 137 131 363 309 361 307 362 308 364 310 363 309 362 308 195 183 191 100 193 99 321 268 191 100 195 183 197 122 321 268 195 183 129 124 321 268 197 122 131 123 129 124 197 122 135 129 357 311 133 127 365 312 357 311 135 129 360 306 365 312 135 129 366 313 365 312 360 306 367 314 366 313 360 306 325 272 70 70 72 72 368 315 70 70 325 272 326 273 368 315 325 272 68 68 368 315 326 273 66 66 68 68 326 273 370 95 192 120 369 118 196 120 192 120 370 95 371 119 196 120 370 95 198 121 196 120 371 119 372 316 198 121 371 119 371 119 273 241 372 316 275 118 273 241 371 119 370 95 275 118 371 119 369 116 275 118 370 95 92 92 373 243 94 94 374 244 373 243 92 92 90 90 374 244 92 92 88 245 374 244 90 90 292 92 290 90 291 242 375 244 290 90 292 92 293 214 375 244 292 92 376 317 375 244 293 214 30 30 377 318 32 32 378 319 377 318 30 30 28 28 378 319 30 30 34 34 378 319 28 28 380 322 379 321 346 320 377 318 379 321 380 322 381 323 377 318 380 322 32 32 377 318 381 323 333 280 228 206 331 278 382 324 228 206 333 280 383 325 382 324 333 280 384 326 382 324 383 325 139 133 362 308 137 131 385 327 362 308 139 133 141 135 385 327 139 133 143 137 385 327 141 135 386 328 166 160 168 162 387 329 166 160 386 328 388 330 387 329 386 328 144 138 387 329 388 330 106 104 312 261 108 106 313 262 312 261 106 104 23 23 313 262 106 104 25 25 313 262 23 23 186 180 111 109 113 111 389 331 111 109 186 180 11 11 389 331 186 180 13 13 389 331 11 11 218 203 167 161 165 159 169 163 167 161 218 203 216 201 169 163 218 203 214 199 169 163 216 201 15 15 389 331 13 13 390 332 389 331 15 15 17 17 390 332 15 15 107 105 390 332 17 17 85 85 391 333 87 87 392 334 391 333 85 85 187 181 392 334 85 85 115 113 392 334 187 181 162 156 270 238 160 154 393 335 270 238 162 156 69 69 393 335 162 156 67 67 393 335 69 69 280 90 276 92 278 242 394 244 276 92 280 90 281 245 394 244 280 90 395 336 394 244 281 245 396 215 94 94 373 243 397 216 94 94 396 215 398 217 397 216 396 215 399 102 397 216 398 217 48 48 204 189 46 46 351 298 204 189 48 48 50 50 351 298 48 48 52 52 351 298 50 50 369 116 277 93 275 118 400 117 277 93 369 116 279 89 400 117 369 116 277 93 400 117 279 89 159 153 205 190 161 155 401 337 205 190 159 153 157 151 401 337 159 153 200 185 401 337 157 151 164 158 54 54 56 56 350 297 54 54 164 158 163 157 350 297 164 158 206 191 350 297 163 157 403 101 402 218 98 96 404 338 402 218 403 101 405 339 404 338 403 101 246 101 404 338 405 339 233 211 261 229 263 231 259 227 261 229 233 211 235 213 259 227 233 211 173 167 259 227 235 213 397 216 96 95 94 94 98 96 96 95 397 216 399 102 98 96 397 216 403 101 98 96 399 102 25 25 311 260 313 262 406 340 311 260 25 25 27 27 406 340 25 25 307 256 406 340 27 27 84 84 60 60 62 62 58 58 60 60 84 84 86 86 58 58 84 84 390 332 111 109 389 331 109 107 111 109 390 332 107 105 109 107 390 332 342 287 349 296 344 289 348 294 349 296 342 287 341 286 348 294 342 287 385 327 364 310 362 308 145 139 364 310 385 327 143 137 145 139 385 327 148 142 359 305 150 144 42 42 359 305 148 142 40 40 42 42 148 142 312 261 407 341 108 106 408 342 407 341 312 261 310 259 408 342 312 261 409 343 377 318 378 319 379 321 377 318 409 343 147 141 379 321 409 343 409 343 146 140 147 141 34 34 146 140 409 343 378 319 34 34 409 343 338 283 345 290 339 284 343 288 345 290 338 283 337 282 343 288 338 283 402 218 100 98 98 96 249 219 100 98 402 218 404 338 249 219 402 218 203 188 200 185 202 187 401 337 200 185 203 188 205 190 401 337 203 188 124 119 294 241 122 118 410 316 294 241 124 119 126 121 410 316 124 119 192 120 411 241 369 116 412 121 411 241 192 120 190 123 412 121 192 120 322 269 324 271 323 270 413 344 324 271 322 269 33 33 413 344 322 269 374 244 414 345 373 243 415 336 414 345 374 244 88 245 415 336 374 244 267 235 416 347 156 346 57 348 416 347 267 235 59 349 57 348 267 235 89 89 415 317 88 244 417 214 415 317 89 89 334 215 417 214 89 89 119 92 418 241 118 350 419 214 418 241 119 92 420 317 419 214 119 92 228 206 329 276 331 278 266 234 329 276 228 206 229 207 266 234 228 206 379 321 151 145 153 147 149 143 151 145 379 321 147 141 149 143 379 321 108 106 133 351 357 304 132 352 133 351 108 106 407 341 132 352 108 106 279 92 395 317 281 244 421 214 395 317 279 92 411 241 421 214 279 92 406 340 309 258 311 260 307 256 309 258 406 340 422 354 58 58 86 353 57 57 58 58 422 354 382 324 230 208 228 206 384 326 230 208 382 324 231 209 263 231 229 207 233 211 263 231 231 209 247 218 404 338 246 101 249 219 404 338 247 218 387 329 142 136 166 160 144 138 142 136 387 329 212 197 317 266 214 199 423 355 317 266 212 197 347 356 379 321 153 147 346 320 379 321 347 356 424 102 240 96 238 215 252 101 240 96 424 102 425 345 286 244 284 243 426 336 286 244 425 345 426 317 237 89 288 244 236 214 237 89 426 317 427 317 394 244 395 336 274 214 394 244 427 317 393 335 272 240 270 238 67 67 272 240 393 335 268 236 59 349 267 235 269 237 59 349 268 236 65 65 272 240 67 67 63 63 272 240 65 65 428 357 51 51 49 49 429 358 51 51 428 357 429 358 53 53 51 51 75 75 53 53 429 358 110 108 357 304 112 110 108 106 357 304 110 108 105 103 17 17 19 19 107 105 17 17 105 103 430 359 16 16 14 14 431 360 16 16 430 359 431 360 18 18 16 16 300 251 18 18 431 360 63 63 271 361 272 240 61 61 271 361 63 63 103 101 251 220 253 221 102 100 251 220 103 101 102 100 249 219 251 220 100 98 249 219 102 100 420 336 375 244 376 317 289 245 375 244 420 336 353 300 85 85 83 83 187 181 85 85 353 300 117 115 392 334 115 113 391 333 392 334 117 115 365 312 356 362 357 311 366 313 356 362 365 312 221 120 418 241 227 121 118 116 418 241 221 120 361 307 367 314 360 306 363 309 367 314 361 307 375 244 289 245 290 90 240 96 301 99 302 97 33 33 322 269 31 31 237 89 319 93 358 91 68 68 70 70 368 315 119 92 289 244 420 317 279 92 369 350 411 241 359 305 42 42 44 44 230 208 384 326 232 210 97 96 99 97 101 99 191 100 321 268 189 182 269 237 271 239 59 349 192 120 196 120 194 97 321 268 129 124 127 122 53 53 75 75 55 55 206 191 352 299 350 297 316 265 315 264 314 263 11 11 183 177 9 9 61 61 59 59 271 361 221 120 224 99 222 97 89 89 91 91 93 93 318 267 317 266 423 355 274 214 276 92 394 244 286 244 426 336 288 245</p>
                </polylist>
            </mesh>
        </geometry>
    </library_geometries>
    <library_visual_scenes>
        <visual_scene id="VisualSceneNode">
            <node id="node0" name="m0" type="NODE">
                <instance_geometry url="#mesh0">
                    <bind_material>
                        <technique_common>
                            <instance_material symbol="Material1" target="#mat0">
                                <bind_vertex_input semantic="UVSET0" input_semantic="TEXCOORD" input_set="0"></bind_vertex_input>
                            </instance_material>
                        </technique_common>
                    </bind_material>
                </instance_geometry>
            </node>
            <node id="node1" name="m1" type="NODE">
                <instance_geometry url="#mesh1">
                    <bind_material>
                        <technique_common>
                            <instance_material symbol="Material1" target="#mat2">
                                <bind_vertex_input semantic="UVSET0" input_semantic="TEXCOORD" input_set="0"></bind_vertex_input>
                            </instance_material>
                        </technique_common>
                    </bind_material>
                </instance_geometry>
            </node>
            <node id="node2" name="m2" type="NODE">
                <instance_geometry url="#mesh2">
                    <bind_material>
                        <technique_common>
                            <instance_material symbol="Material1" target="#mat1">
                                <bind_vertex_input semantic="UVSET0" input_semantic="TEXCOORD" input_set="0"></bind_vertex_input>
                            </instance_material>
                        </technique_common>
                    </bind_material>
                </instance_geometry>
            </node>
        </visual_scene>
    </library_visual_scenes>
    <scene>
        <instance_visual_scene url="#VisualSceneNode"></instance_visual_scene>
    </scene>
</COLLADA>
