<?xml version="1.0"?>
<COLLADA xmlns="http://www.collada.org/2005/11/COLLADASchema" version="1.4.1">
    <asset>
        <contributor>
            <authoring_tool>J3D Ripoff Exporter</authoring_tool>
        </contributor>
        <created>2024-08-18T22:44:21.931Z</created>
        <modified>2024-08-18T22:44:21.931Z</modified>
		<unit meter="0.01" name="centimeter" ></unit>
        <up_axis>Y_UP</up_axis>
    </asset>
    <library_images>
        <image id="tex0">
            <init_from>wilddonkey_skin.png</init_from>
        </image>
        <image id="tex1">
            <init_from>wilddonkey_eye.png</init_from>
        </image>
    </library_images>
    <library_effects>
        <effect id="effect0">
            <profile_COMMON>
                <newparam sid="surface0">
                    <surface type="2D">
                        <init_from>tex1</init_from>
                    </surface>
                </newparam>
                <newparam sid="sampler0">
                    <sampler2D>
                        <source>surface0</source>
                    </sampler2D>
                </newparam>
                <technique sid="COMMON">
                    <blinn>
                        <diffuse>
                            <texture texture="sampler0" texcoord="UVSET0"></texture>
                        </diffuse>
                    </blinn>
                </technique>
            </profile_COMMON>
        </effect>
        <effect id="effect1">
            <profile_COMMON>
                <newparam sid="surface1">
                    <surface type="2D">
                        <init_from>tex0</init_from>
                    </surface>
                </newparam>
                <newparam sid="sampler1">
                    <sampler2D>
                        <source>surface1</source>
                    </sampler2D>
                </newparam>
                <technique sid="COMMON">
                    <blinn>
                        <diffuse>
                            <texture texture="sampler1" texcoord="UVSET0"></texture>
                        </diffuse>
                    </blinn>
                </technique>
            </profile_COMMON>
        </effect>
        <effect id="effect2">
            <profile_COMMON>
                <newparam sid="surface2">
                    <surface type="2D">
                        <init_from>tex0</init_from>
                    </surface>
                </newparam>
                <newparam sid="sampler2">
                    <sampler2D>
                        <source>surface2</source>
                    </sampler2D>
                </newparam>
                <technique sid="COMMON">
                    <blinn>
                        <diffuse>
                            <texture texture="sampler2" texcoord="UVSET0"></texture>
                        </diffuse>
                    </blinn>
                </technique>
            </profile_COMMON>
        </effect>
    </library_effects>
    <library_materials>
        <material id="mat0" name="Eye">
            <instance_effect url="#effect0"></instance_effect>
        </material>
        <material id="mat1" name="Skin">
            <instance_effect url="#effect1"></instance_effect>
        </material>
        <material id="mat2" name="Skin_etc">
            <instance_effect url="#effect2"></instance_effect>
        </material>
    </library_materials>
    <library_geometries>
        <geometry id="mesh0">
            <mesh>
                <source id="points0">
                    <float_array id="pointarray0" count="84">52.265625 -37.77734375 20.890625 49.4140625 -42.4921875 22.4765625 51.015625 -34.30078125 23.69921875 45.65234375 -32.90234375 30.16015625 50.6171875 -30.6796875 25.25 47.04296875 -27.453125 30.2265625 51.7109375 -26.55859375 25.4609375 53.26171875 -23.66015625 24.4609375 52.265625 -37.77734375 -20.890625 51.015625 -34.30078125 -23.69921875 49.4140625 -42.4921875 -22.4765625 45.65234375 -32.90234375 -30.16015625 46.56640625 -38.7578125 -26.9296875 51.7109375 -26.55859375 -25.4609375 47.04296875 -27.453125 -30.2265625 50.6171875 -30.6796875 -25.25 47.7421875 -45.4140625 22.69140625 46.56640625 -38.7578125 26.9296875 49.828125 -21.62109375 -28.36328125 53.26171875 -23.66015625 -24.4609375 60.546875 -29.71484375 -2.21484375 60.3984375 -29.51171875 0 60.94140625 -28.13671875 -2.4296875 61.0859375 -28.03125 0 60.94140625 -28.13671875 2.4296875 60.546875 -29.71484375 2.21484375 49.828125 -21.62109375 28.36328125 47.7421875 -45.4140625 -22.69140625</float_array>
                    <technique_common>
                        <accessor count="28" source="#pointarray0" stride="3">
                            <param name="X" type="float"/>
                            <param name="Y" type="float"/>
                            <param name="Z" type="float"/>
                        </accessor>
                    </technique_common>
                </source>
                <source id="uvs0">
                    <float_array id="uvarray0" count="30">0.906982421875 0.76434326171875 0.95782470703125 0.759521484375 0.87542724609375 0.73431396484375 0.87066650390625 0.6771240234375 0.8404541015625 0.71466064453125 0.814697265625 0.666748046875 0.79840087890625 0.70538330078125 0.76702880859375 0.7086181640625 0.92608642578125 0.715087890625 0.98828125 0.76300048828125 0.75189208984375 0.671875 0.84515380859375 0.73626708984375 0.8363037109375 0.75732421875 0.8057861328125 0.72711181640625 0.79888916015625 0.750732421875</float_array>
                    <technique_common>
                        <accessor count="15" source="#uvarray0" stride="2">
                            <param name="S" type="float"/>
                            <param name="T" type="float"/>
                        </accessor>
                    </technique_common>
                </source>
                <vertices id="vertices0">
                    <input semantic="POSITION" source="#points0"/>
                </vertices>
                <polylist count="22" material="Material1">
                    <input offset="0" semantic="VERTEX" source="#vertices0"/>
                    <input offset="1" semantic="TEXCOORD" source="#uvs0" set="0"/>
                    <vcount>3 3 3 3 3 3 3 3 3 3 3 3 3 3 3 3 3 3 3 3 3 3</vcount>
                    <p>2 2 1 1 0 0 3 3 1 1 2 2 4 4 3 3 2 2 5 5 3 3 4 4 6 6 5 5 4 4 7 7 5 5 6 6 10 1 9 2 8 0 11 3 9 2 10 1 12 8 11 3 10 1 15 4 14 5 13 6 11 3 14 5 15 4 9 2 11 3 15 4 1 1 17 8 16 9 3 3 17 8 1 1 19 7 14 5 18 10 13 6 14 5 19 7 22 13 21 12 20 11 23 14 21 12 22 13 24 13 21 12 23 14 25 11 21 12 24 13 26 10 5 5 7 7 10 1 27 9 12 8</p>
                </polylist>
            </mesh>
        </geometry>
        <geometry id="mesh1">
            <mesh>
                <source id="points1">
                    <float_array id="pointarray1" count="96">52.265625 -37.77734375 20.890625 51.015625 -34.30078125 23.69921875 54.71484375 -35.3515625 18.19140625 55.5390625 -31.74609375 19.88671875 58.92578125 -29.33984375 14.62109375 55.8515625 -27.83203125 20.53125 55.84765625 -24.9375 20.31640625 53.26171875 -23.66015625 24.4609375 60.546875 -29.71484375 -2.21484375 60.94140625 -28.13671875 -2.4296875 60.0859375 -30.23828125 -6.78515625 60.265625 -27.55078125 -8.515625 58.92578125 -29.33984375 -14.62109375 58.453125 -26.3984375 -15.1796875 55.84765625 -24.9375 -20.31640625 50.6171875 -30.6796875 25.25 51.7109375 -26.55859375 25.4609375 52.265625 -37.77734375 -20.890625 54.71484375 -35.3515625 -18.19140625 51.015625 -34.30078125 -23.69921875 55.5390625 -31.74609375 -19.88671875 50.6171875 -30.6796875 -25.25 51.7109375 -26.55859375 -25.4609375 55.8515625 -27.83203125 -20.53125 53.26171875 -23.66015625 -24.4609375 60.546875 -29.71484375 2.21484375 60.0859375 -30.23828125 6.78515625 60.94140625 -28.13671875 2.4296875 60.265625 -27.55078125 8.515625 58.55859375 -31.94140625 -13.08203125 58.55859375 -31.94140625 13.08203125 58.453125 -26.3984375 15.1796875</float_array>
                    <technique_common>
                        <accessor count="32" source="#pointarray1" stride="3">
                            <param name="X" type="float"/>
                            <param name="Y" type="float"/>
                            <param name="Z" type="float"/>
                        </accessor>
                    </technique_common>
                </source>
                <source id="uvs1">
                    <float_array id="uvarray1" count="32">0.7318115234375 0.7930908203125 0.826171875 0.66351318359375 0.593017578125 0.70269775390625 0.6500244140625 0.568359375 0.51861572265625 0.495361328125 0.67169189453125 0.422607421875 0.6644287109375 0.3148193359375 0.8516845703125 0.2672119140625 0.129150390625 0.50457763671875 0.136474609375 0.41180419921875 0.25543212890625 0.535400390625 0.3135986328125 0.37744140625 0.5374755859375 0.349609375 0.87823486328125 0.5286865234375 0.88531494140625 0.375244140625 0.46697998046875 0.62420654296875</float_array>
                    <technique_common>
                        <accessor count="16" source="#uvarray1" stride="2">
                            <param name="S" type="float"/>
                            <param name="T" type="float"/>
                        </accessor>
                    </technique_common>
                </source>
                <vertices id="vertices1">
                    <input semantic="POSITION" source="#points1"/>
                </vertices>
                <polylist count="34" material="Material1">
                    <input offset="0" semantic="VERTEX" source="#vertices1"/>
                    <input offset="1" semantic="TEXCOORD" source="#uvs1" set="0"/>
                    <vcount>3 3 3 3 3 3 3 3 3 3 3 3 3 3 3 3 3 3 3 3 3 3 3 3 3 3 3 3 3 3 3 3 3 3</vcount>
                    <p>2 2 1 1 0 0 3 3 1 1 2 2 4 4 3 3 2 2 5 5 3 3 4 4 6 6 5 5 4 4 7 7 5 5 6 6 10 10 9 9 8 8 11 11 9 9 10 10 12 4 11 11 10 10 13 12 11 11 12 4 14 6 13 12 12 4 3 3 15 13 1 1 16 14 15 13 3 3 5 5 16 14 3 3 7 7 16 14 5 5 19 1 18 2 17 0 20 3 18 2 19 1 21 13 20 3 19 1 22 14 20 3 21 13 20 3 12 4 18 2 23 5 12 4 20 3 22 14 23 5 20 3 24 7 23 5 22 14 27 9 26 10 25 8 28 11 26 10 27 9 29 15 12 4 10 10 18 2 12 4 29 15 30 15 4 4 2 2 26 10 4 4 30 15 28 11 4 4 26 10 31 12 4 4 28 11 23 5 14 6 12 4 24 7 14 6 23 5 6 6 4 4 31 12</p>
                </polylist>
            </mesh>
        </geometry>
        <geometry id="mesh2">
            <mesh>
                <source id="points2">
                    <float_array id="pointarray2" count="864">81.16796875 -20.27734375 0 87.25 -11.70703125 0 80.09375 -19.3671875 -8.51953125 85.9296875 -11.11328125 -8.40234375 83.1640625 -10.10546875 -16.8984375 85.7109375 1.9453125 -16.9921875 76.0078125 -7.92578125 -27.90234375 78.41015625 2.796875 -28.2734375 65.27734375 -5.1953125 -36.47265625 66.7734375 4.62109375 -37.625 55.5859375 7.828125 -43.0859375 56.3671875 15.7109375 -42.765625 46.38671875 14.52734375 -45.95703125 43.640625 19.4765625 -47.05859375 36.640625 12.8203125 -47.69140625 37.67578125 23.1953125 -46.14453125 27.68359375 11.078125 -46.62890625 29.390625 21.44140625 -45.4453125 21.40625 18.76953125 -42.234375 22.78515625 28.31640625 -34.89453125 12.0078125 14.25390625 -30.65625 13.2421875 20.53515625 -22.81640625 15.78125 26.484375 -13.8359375 26.43359375 32.9921875 -21.63671875 17.09375 30.07421875 0 37.4140625 39.37890625 0 26.43359375 33.96875 21.63671875 40.54296875 37.8125 20.80078125 40.421875 35.3203125 28.8671875 53.796875 35.2734375 31.40234375 39.3984375 31.1484375 39.1328125 57.1484375 31.875 37.6484375 46.81640625 27.4609375 44.6875 58.22265625 26.22265625 41.203125 59.5078125 23.82421875 43.08203125 70.68359375 24.42578125 34.41015625 72.90625 21.7265625 36.52734375 82.3515625 20.66015625 28.4921875 82 15.9609375 28.37109375 88.5546875 15.13671875 18.1953125 82.37890625 13.40625 17.140625 85.40625 13.01171875 8.03125 69.87890625 31.61328125 28.23828125 79.4375 23.4453125 26.44140625 80.109375 31.2734375 14.34375 84.421875 23.1171875 18.27734375 88.25 22.78125 7.046875 92.828125 19.51953125 7.5390625 93.4296875 19.40625 0 92.64453125 14.796875 0 92.828125 19.51953125 -7.5390625 91.96875 14.67578125 -7.78515625 89.08984375 20.07421875 -18.59765625 88.5546875 15.13671875 -18.1953125 82.3515625 20.66015625 -28.4921875 82 15.9609375 -28.37109375 72.90625 21.7265625 -36.52734375 72.40625 17.15234375 -36.50390625 58.859375 20.3125 -42.92578125 56.12890625 18.8828125 -41.265625 46.33984375 22.6953125 -45.859375 75.8203125 14.21484375 27.11328125 77.796875 10.71875 28.0859375 85.27734375 9.6875 16.87109375 85.7109375 1.9453125 16.9921875 88.19140625 9.5234375 8.40234375 88.5 1.8046875 8.49609375 89.7109375 1.6640625 0 85.9296875 -11.11328125 8.40234375 80.09375 -19.3671875 8.51953125 73.8125 -24.78515625 0 71.8984375 -24.4375 -8.11328125 67.99609375 -22.81640625 -18.40234375 63.30078125 -26.08984375 -12.51171875 58.453125 -26.3984375 -15.1796875 60.265625 -27.55078125 -8.515625 64.58203125 15.9609375 35.5625 66.29296875 12.68359375 37.12109375 78.41015625 2.796875 28.2734375 76.0078125 -7.92578125 27.90234375 83.1640625 -10.10546875 16.8984375 72 -15.171875 27.0234375 77.99609375 -18.36328125 16.8046875 64.0078125 -20.9375 25.5546875 67.99609375 -22.81640625 18.40234375 58.453125 -26.3984375 15.1796875 63.30078125 -26.08984375 12.51171875 60.265625 -27.55078125 8.515625 68.7265625 -26.0625 8.296875 60.94140625 -28.13671875 2.4296875 61.0859375 -28.03125 0 89.08984375 20.07421875 18.59765625 91.96875 14.67578125 7.78515625 86.62890625 13 0 85.40625 13.01171875 -8.03125 82.37890625 13.40625 -17.140625 75.8203125 14.21484375 -27.11328125 64.58203125 15.9609375 -35.5625 42.83984375 -17.734375 34.296875 42.8984375 -11.203125 40.21875 45.74609375 -18.20703125 34.08984375 50.95703125 -14.34765625 37.5 57.09765625 -18.5234375 31.44921875 52.24609375 -8.82421875 40.57421875 62.62890625 -11.4609375 34.67578125 53.53125 -3.30078125 42.25 65.27734375 -5.1953125 36.47265625 55.5859375 7.828125 43.0859375 66.7734375 4.62109375 37.625 56.3671875 15.7109375 42.765625 56.12890625 18.8828125 41.265625 72.40625 17.15234375 36.50390625 58.859375 20.3125 42.92578125 46.33984375 22.6953125 45.859375 37.67578125 23.1953125 46.14453125 29.390625 21.44140625 45.4453125 31.09375 30.3125 38.26953125 22.78515625 27.57421875 34.89453125 59.80859375 -39.75 -5.640625 60.19140625 -39.23046875 0 64.62890625 -37.77734375 0 59.80859375 -39.75 5.640625 63.890625 -38.4375 6.94921875 58.45703125 -41.58203125 10.0859375 62.625 -40.14453125 12.05859375 55.21484375 -44.5546875 13.328125 59.078125 -43.3046875 16.08984375 56.078125 -47.359375 17.75 53.390625 -45.578125 21.51171875 48.87890625 -52.2265625 22.203125 47.7421875 -45.4140625 22.69140625 48.171875 -46.54296875 25.16015625 49.828125 -21.62109375 -28.36328125 49.06640625 -19.875 -31.03515625 47.04296875 -27.453125 -30.2265625 47.34765625 -27.953125 -32.15234375 45.65234375 -32.90234375 -30.16015625 46.03125 -33.76171875 -32.109375 46.56640625 -38.7578125 -26.9296875 46.91796875 -40.375 -28.8203125 47.7421875 -45.4140625 -22.69140625 48.171875 -46.54296875 -25.16015625 48.87890625 -52.2265625 -22.203125 45.89453125 -52.21484375 -24.5546875 42.52734375 -53.02734375 -23.90625 40.625 -46.7734375 -28.10546875 88.5 1.8046875 -8.49609375 88.19140625 9.5234375 -8.40234375 85.27734375 9.6875 -16.87109375 77.796875 10.71875 -28.0859375 66.29296875 12.68359375 -37.12109375 36.5234375 -14.70703125 37.37890625 36.1875 -9.68359375 41.70703125 44.30859375 -2.484375 44.25 36.046875 -1.62890625 45.1015625 35.90625 5.75390625 46.56640625 26.46484375 -0.84765625 44.85546875 27.68359375 11.078125 46.62890625 20.79296875 8.9921875 43.48828125 21.40625 18.76953125 42.234375 14.42578125 4.97265625 37.46484375 12.0078125 14.25390625 30.65625 14.42578125 4.97265625 -37.46484375 20.79296875 8.9921875 -43.48828125 26.46484375 -0.84765625 -44.85546875 35.90625 5.75390625 -46.56640625 36.046875 -1.62890625 -45.1015625 44.30859375 -2.484375 -44.25 36.1875 -9.68359375 -41.70703125 42.8984375 -11.203125 -40.21875 36.5234375 -14.70703125 -37.37890625 42.83984375 -17.734375 -34.296875 70.68359375 24.42578125 -34.41015625 79.4375 23.4453125 -26.44140625 69.87890625 31.61328125 -28.23828125 80.109375 31.2734375 -14.34375 68.8515625 36.45703125 -15.9140625 70.27734375 38.0390625 0 52.89453125 40.45703125 0 68.8515625 36.45703125 15.9140625 52.78515625 38.15234375 18.63671875 52.76171875 -52.44921875 -17.5546875 56.078125 -47.359375 -17.75 53.390625 -45.578125 -21.51171875 59.078125 -43.3046875 -16.08984375 58.5 -39.2578125 -17.64453125 62.625 -40.14453125 -12.0546875 62.125 -35.87109375 -13.06640625 64.12109375 -34.23046875 -7.4296875 58.55859375 -31.94140625 -13.08203125 60.0859375 -30.23828125 -6.78515625 81.4453125 32.33203125 0 88.25 22.78125 -7.046875 84.421875 23.1171875 -18.27734375 45.74609375 -18.20703125 -34.08984375 50.95703125 -14.34765625 -37.5 52.24609375 -8.82421875 -40.57421875 57.09765625 -18.5234375 -31.44921875 62.62890625 -11.4609375 -34.67578125 72 -15.171875 -27.0234375 45.74609375 6.015625 45.6328125 46.38671875 14.52734375 45.95703125 43.640625 19.4765625 47.05859375 55.21484375 -44.5546875 -13.328125 58.45703125 -41.58203125 -10.0859375 63.890625 -38.4375 -6.94921875 64.9140625 -33.53125 0 64.12109375 -34.23046875 7.4296875 60.546875 -29.71484375 2.21484375 60.0859375 -30.23828125 6.78515625 49.4140625 -42.4921875 22.4765625 52.265625 -37.77734375 20.890625 58.5 -39.2578125 17.64453125 54.71484375 -35.3515625 18.19140625 62.125 -35.87109375 13.06640625 58.55859375 -31.94140625 13.08203125 39.3984375 31.1484375 -39.1328125 46.81640625 27.4609375 -44.6875 57.1484375 31.875 -37.6484375 58.22265625 26.22265625 -41.203125 59.5078125 23.82421875 -43.08203125 53.796875 35.2734375 -31.40234375 40.421875 35.57421875 -28.8671875 31.09375 30.3125 -38.26953125 53.26171875 -23.66015625 -24.4609375 64.0078125 -20.9375 -25.5546875 77.99609375 -18.36328125 -16.8046875 49.10546875 -52.99609375 -15.1640625 52.29296875 -48.19921875 -14.80859375 49.828125 -21.62109375 28.36328125 47.04296875 -27.453125 30.2265625 49.06640625 -19.875 31.03515625 47.34765625 -27.953125 32.15234375 42.89453125 -26.83984375 36.12109375 40.12109375 -25.63671875 36.1171875 19.18359375 -1.86328125 39.6484375 25.890625 -8.6875 40.6328125 29.5 -11.0546875 39.7421875 45.65234375 -32.90234375 30.16015625 46.03125 -33.76171875 32.109375 41.86328125 -31.21484375 36.16796875 41.44140625 -34.46484375 35.65625 38.73828125 -30.40234375 35.96484375 38.12109375 -34.04296875 35.57421875 36.640625 12.8203125 47.69140625 46.56640625 -38.7578125 26.9296875 46.91796875 -40.375 28.8203125 43.16796875 -41.1953125 31.8046875 44.35546875 -47.140625 28.1953125 39.3046875 -40.80859375 31.47265625 40.625 -46.7734375 28.10546875 45.89453125 -52.21484375 24.5546875 42.52734375 -53.02734375 23.90625 49.4140625 -42.4921875 -22.4765625 52.265625 -37.77734375 -20.890625 54.71484375 -35.3515625 -18.19140625 41.86328125 -31.21484375 -36.16796875 41.44140625 -34.46484375 -35.65625 43.16796875 -41.1953125 -31.8046875 38.12109375 -34.04296875 -35.57421875 39.3046875 -40.80859375 -31.47265625 42.89453125 -26.83984375 -36.12109375 40.12109375 -25.63671875 -36.1171875 38.73828125 -30.40234375 -35.96484375 88.87109375 22.5625 0 52.78515625 38.15234375 -18.63671875 40.54296875 38.0625 -20.80078125 52.29296875 -48.19921875 14.80859375 52.76171875 -52.44921875 17.5546875 68.7265625 -26.0625 -8.296875 70.3671875 -26.45703125 0 44.35546875 -47.140625 -28.1953125 45.74609375 6.015625 -45.6328125 53.53125 -3.30078125 -42.25 60.546875 -29.71484375 -2.21484375 60.3984375 -29.51171875 0 71.8984375 -24.4375 8.11328125 15.78125 25.2734375 13.8359375 13.2421875 20.53515625 22.81640625 53.26171875 -23.66015625 24.4609375 55.84765625 -24.9375 20.31640625 89.359375 9.4921875 0 55.84765625 -24.9375 -20.31640625 60.94140625 -28.13671875 -2.4296875 25.890625 -8.6875 -40.6328125 29.5 -11.0546875 -39.7421875 49.10546875 -52.99609375 15.1640625 19.18359375 -1.86328125 -39.6484375</float_array>
                    <technique_common>
                        <accessor count="288" source="#pointarray2" stride="3">
                            <param name="X" type="float"/>
                            <param name="Y" type="float"/>
                            <param name="Z" type="float"/>
                        </accessor>
                    </technique_common>
                </source>
                <source id="uvs2">
                    <float_array id="uvarray2" count="328">0.006591796875 0.93084716796875 0.006591796875 0.92022705078125 0.05194091796875 0.9261474609375 0.06689453125 0.9139404296875 0.08538818359375 0.912841796875 0.08184814453125 0.9017333984375 0.13555908203125 0.8961181640625 0.13079833984375 0.88677978515625 0.18701171875 0.89410400390625 0.17803955078125 0.8670654296875 0.22174072265625 0.84539794921875 0.2183837890625 0.812255859375 0.2470703125 0.82989501953125 0.26422119140625 0.78594970703125 0.2825927734375 0.79718017578125 0.2801513671875 0.754638671875 0.31298828125 0.77740478515625 0.3046875 0.73394775390625 0.34832763671875 0.7322998046875 0.3651123046875 0.68865966796875 0.407470703125 0.741943359375 0.4090576171875 0.70050048828125 0.3101806640625 0.60711669921875 0.28887939453125 0.61834716796875 0.00885009765625 0.583251953125 0.00714111328125 0.60150146484375 0.18341064453125 0.6204833984375 0.27862548828125 0.67449951171875 0.2095947265625 0.6556396484375 0.27532958984375 0.7061767578125 0.19854736328125 0.69610595703125 0.23773193359375 0.73626708984375 0.19757080078125 0.73114013671875 0.1959228515625 0.73944091796875 0.148681640625 0.72601318359375 0.1495361328125 0.7371826171875 0.1104736328125 0.7353515625 0.1090087890625 0.75115966796875 0.0718994140625 0.7525634765625 0.07659912109375 0.7646484375 0.0377197265625 0.76544189453125 0.14312744140625 0.68096923828125 0.1077880859375 0.72265625 0.079345703125 0.679931640625 0.07440185546875 0.7196044921875 0.0323486328125 0.71783447265625 0.031982421875 0.73193359375 0.006591796875 0.73040771484375 0.006591796875 0.75299072265625 0.03387451171875 0.75311279296875 0.07098388671875 0.7330322265625 0.1533203125 0.75244140625 0.20062255859375 0.7523193359375 0.20806884765625 0.7598876953125 0.2476806640625 0.7667236328125 0.1239013671875 0.84259033203125 0.0792236328125 0.857666015625 0.125732421875 0.86065673828125 0.07965087890625 0.8759765625 0.043701171875 0.88287353515625 0.044189453125 0.90570068359375 0.006591796875 0.90960693359375 0.006591796875 0.94927978515625 0.05126953125 0.952880859375 0.1104736328125 0.94970703125 0.06671142578125 0.974609375 0.1090087890625 0.9820556640625 0.05517578125 0.99029541015625 0.1761474609375 0.8189697265625 0.17364501953125 0.83819580078125 0.140380859375 0.9053955078125 0.08892822265625 0.9239501953125 0.15277099609375 0.93865966796875 0.05279541015625 0.96710205078125 0.025634765625 0.99169921875 0.006591796875 0.99114990234375 0.006591796875 0.7659912109375 0.117431640625 0.76409912109375 0.1605224609375 0.76239013671875 0.27862548828125 0.9215087890625 0.27117919921875 0.88140869140625 0.26104736328125 0.92095947265625 0.239013671875 0.89971923828125 0.1959228515625 0.92108154296875 0.2347412109375 0.8861083984375 0.19146728515625 0.9075927734375 0.23040771484375 0.87255859375 0.2203369140625 0.7935791015625 0.3201904296875 0.69744873046875 0.9427490234375 0.873046875 0.99212646484375 0.8685302734375 0.99212646484375 0.8558349609375 0.9312744140625 0.86163330078125 0.90380859375 0.8890380859375 0.88653564453125 0.87652587890625 0.87542724609375 0.9150390625 0.85125732421875 0.90411376953125 0.83673095703125 0.93951416015625 0.80377197265625 0.9239501953125 0.79766845703125 0.98199462890625 0.79339599609375 0.92254638671875 0.77178955078125 0.932373046875 0.7437744140625 0.71478271484375 0.7203369140625 0.69952392578125 0.72747802734375 0.7657470703125 0.7105712890625 0.77008056640625 0.72802734375 0.81329345703125 0.7109375 0.82080078125 0.75628662109375 0.86444091796875 0.73974609375 0.8785400390625 0.777099609375 0.98187255859375 0.76483154296875 0.9949951171875 0.72119140625 0.93438720703125 0.310302734375 0.90155029296875 0.30108642578125 0.87359619140625 0.26104736328125 0.852783203125 0.29046630859375 0.8446044921875 0.2869873046875 0.828125 0.32916259765625 0.82830810546875 0.3450927734375 0.78631591796875 0.3824462890625 0.7984619140625 0.09423828125 0.6444091796875 0.006591796875 0.63818359375 0.00653076171875 0.6187744140625 0.13690185546875 0.62677001953125 0.83837890625 0.98394775390625 0.837646484375 0.8687744140625 0.87774658203125 0.8392333984375 0.92706298828125 0.82489013671875 0.8775634765625 0.804931640625 0.93267822265625 0.7900390625 0.006591796875 0.6800537109375 0.25433349609375 0.8367919921875 0.99212646484375 0.81878662109375 0.97271728515625 0.78546142578125 0.7952880859375 0.89697265625 0.8092041015625 0.8558349609375 0.83282470703125 0.83465576171875 0.23297119140625 0.943603515625 0.19873046875 0.96142578125 0.85931396484375 0.99468994140625 0.8624267578125 0.94683837890625 0.693603515625 0.68499755859375 0.67584228515625 0.7603759765625 0.67132568359375 0.680908203125 0.65399169921875 0.7498779296875 0.364501953125 0.83349609375 0.342041015625 0.8685302734375 0.3319091796875 0.880615234375 0.6754150390625 0.798583984375 0.67987060546875 0.826904296875 0.652099609375 0.79150390625 0.6556396484375 0.8232421875 0.713623046875 0.88568115234375 0.7452392578125 0.93756103515625 0.6890869140625 0.88232421875 0.006591796875 0.71710205078125 0.006591796875 0.9637451171875 0.99212646484375 0.78369140625 0.14532470703125 0.97509765625 0.006591796875 0.88421630859375 0.0430908203125 0.865234375 0.006591796875 0.86700439453125 0.24053955078125 0.92803955078125</float_array>
                    <technique_common>
                        <accessor count="164" source="#uvarray2" stride="2">
                            <param name="S" type="float"/>
                            <param name="T" type="float"/>
                        </accessor>
                    </technique_common>
                </source>
                <vertices id="vertices2">
                    <input semantic="POSITION" source="#points2"/>
                </vertices>
                <polylist count="500" material="Material1">
                    <input offset="0" semantic="VERTEX" source="#vertices2"/>
                    <input offset="1" semantic="TEXCOORD" source="#uvs2" set="0"/>
                    <vcount>3 3 3 3 3 3 3 3 3 3 3 3 3 3 3 3 3 3 3 3 3 3 3 3 3 3 3 3 3 3 3 3 3 3 3 3 3 3 3 3 3 3 3 3 3 3 3 3 3 3 3 3 3 3 3 3 3 3 3 3 3 3 3 3 3 3 3 3 3 3 3 3 3 3 3 3 3 3 3 3 3 3 3 3 3 3 3 3 3 3 3 3 3 3 3 3 3 3 3 3 3 3 3 3 3 3 3 3 3 3 3 3 3 3 3 3 3 3 3 3 3 3 3 3 3 3 3 3 3 3 3 3 3 3 3 3 3 3 3 3 3 3 3 3 3 3 3 3 3 3 3 3 3 3 3 3 3 3 3 3 3 3 3 3 3 3 3 3 3 3 3 3 3 3 3 3 3 3 3 3 3 3 3 3 3 3 3 3 3 3 3 3 3 3 3 3 3 3 3 3 3 3 3 3 3 3 3 3 3 3 3 3 3 3 3 3 3 3 3 3 3 3 3 3 3 3 3 3 3 3 3 3 3 3 3 3 3 3 3 3 3 3 3 3 3 3 3 3 3 3 3 3 3 3 3 3 3 3 3 3 3 3 3 3 3 3 3 3 3 3 3 3 3 3 3 3 3 3 3 3 3 3 3 3 3 3 3 3 3 3 3 3 3 3 3 3 3 3 3 3 3 3 3 3 3 3 3 3 3 3 3 3 3 3 3 3 3 3 3 3 3 3 3 3 3 3 3 3 3 3 3 3 3 3 3 3 3 3 3 3 3 3 3 3 3 3 3 3 3 3 3 3 3 3 3 3 3 3 3 3 3 3 3 3 3 3 3 3 3 3 3 3 3 3 3 3 3 3 3 3 3 3 3 3 3 3 3 3 3 3 3 3 3 3 3 3 3 3 3 3 3 3 3 3 3 3 3 3 3 3 3 3 3 3 3 3 3 3 3 3 3 3 3 3 3 3 3 3 3 3 3 3 3 3 3 3 3 3 3 3 3 3 3 3 3 3 3 3 3 3 3 3 3 3 3 3 3 3 3 3 3 3 3 3 3 3 3 3 3 3 3 3 3 3 3 3 3 3 3 3 3 3 3 3 3 3 3 3 3 3 3 3 3 3 3 3 3 3 3 3</vcount>
                    <p>2 2 1 1 0 0 3 3 1 1 2 2 4 4 3 3 2 2 5 5 3 3 4 4 6 6 5 5 4 4 7 7 5 5 6 6 8 8 7 7 6 6 9 9 7 7 8 8 10 10 9 9 8 8 11 11 9 9 10 10 12 12 11 11 10 10 13 13 11 11 12 12 14 14 13 13 12 12 15 15 13 13 14 14 16 16 15 15 14 14 17 17 15 15 16 16 18 18 17 17 16 16 19 19 17 17 18 18 20 20 19 19 18 18 21 21 19 19 20 20 22 22 19 19 21 21 23 23 19 19 22 22 24 24 23 23 22 22 25 25 23 23 24 24 26 23 25 25 24 24 27 26 25 25 26 23 28 27 27 26 26 23 29 28 27 26 28 27 30 29 29 28 28 27 31 30 29 28 30 29 32 31 31 30 30 29 33 32 31 30 32 31 34 33 33 32 32 31 35 34 33 32 34 33 36 35 35 34 34 33 37 36 35 34 36 35 38 37 37 36 36 35 39 38 37 36 38 37 40 39 39 38 38 37 41 40 39 38 40 39 35 34 31 30 33 32 42 41 31 30 35 34 43 42 42 41 35 34 44 43 42 41 43 42 45 44 44 43 43 42 46 45 44 43 45 44 47 46 46 45 45 44 48 47 46 45 47 46 49 48 48 47 47 46 50 46 48 47 49 48 51 49 50 46 49 48 52 50 50 46 51 49 53 38 52 50 51 49 54 36 52 50 53 38 55 37 54 36 53 38 56 35 54 36 55 37 57 51 56 35 55 37 58 52 56 35 57 51 59 53 58 52 57 51 60 54 58 52 59 53 62 57 40 56 61 55 63 58 40 56 62 57 64 5 63 58 62 57 65 59 63 58 64 5 66 60 65 59 64 5 67 61 65 59 66 60 68 3 67 61 66 60 1 1 67 61 68 3 69 2 1 1 68 3 0 0 1 1 69 2 70 62 0 0 69 2 2 2 0 0 70 62 71 63 2 2 70 62 72 64 2 2 71 63 73 65 72 64 71 63 74 66 72 64 73 65 75 67 74 66 73 65 77 69 61 55 76 68 62 57 61 55 77 69 78 7 62 57 77 69 64 5 62 57 78 7 79 6 64 5 78 7 80 4 64 5 79 6 81 70 80 4 79 6 82 71 80 4 81 70 83 72 82 71 81 70 84 64 82 71 83 72 85 66 84 64 83 72 86 65 84 64 85 66 87 67 86 65 85 66 88 73 86 65 87 67 89 74 88 73 87 67 90 75 88 73 89 74 91 50 45 44 43 42 47 46 45 44 91 50 92 49 47 46 91 50 49 48 47 46 92 49 93 76 49 48 92 49 51 49 49 48 93 76 94 40 51 49 93 76 53 38 51 49 94 40 95 39 53 38 94 40 55 37 53 38 95 39 96 77 55 37 95 39 57 51 55 37 96 77 97 78 57 51 96 77 59 53 57 51 97 78 100 81 99 80 98 79 101 82 99 80 100 81 102 83 101 82 100 81 103 84 101 82 102 83 104 85 103 84 102 83 105 86 103 84 104 85 106 8 105 86 104 85 107 10 105 86 106 8 108 9 107 10 106 8 109 11 107 10 108 9 77 69 109 11 108 9 110 87 109 11 77 69 76 68 110 87 77 69 38 37 61 77 40 39 111 51 61 77 38 37 36 35 111 51 38 37 112 52 111 51 36 35 34 33 112 52 36 35 113 54 112 52 34 33 32 31 113 54 34 33 114 15 113 54 32 31 30 29 114 15 32 31 115 17 114 15 30 29 116 88 115 17 30 29 117 19 115 17 116 88 26 23 117 19 116 88 120 91 119 90 118 89 121 89 119 90 120 91 122 92 121 89 120 91 123 93 121 89 122 92 124 94 123 93 122 92 125 95 123 93 124 94 126 96 125 95 124 94 127 97 125 95 126 96 128 98 127 97 126 96 129 99 127 97 128 98 130 100 129 99 128 98 131 101 129 99 130 100 134 104 133 103 132 102 135 105 133 103 134 104 136 106 135 105 134 104 137 107 135 105 136 106 138 108 137 107 136 106 139 109 137 107 138 108 140 100 139 109 138 108 141 101 139 109 140 100 142 99 141 101 140 100 143 110 141 101 142 99 144 111 143 110 142 99 145 112 143 110 144 111 3 3 67 61 1 1 146 60 67 61 3 3 5 5 146 60 3 3 147 59 146 60 5 5 148 58 147 59 5 5 95 56 147 59 148 58 149 57 95 56 148 58 96 55 95 56 149 57 150 69 96 55 149 57 97 68 96 55 150 69 59 87 97 68 150 69 99 80 151 113 98 79 152 114 151 113 99 80 153 115 152 114 99 80 154 116 152 114 153 115 155 117 154 116 153 115 156 118 154 116 155 117 157 16 156 118 155 117 158 119 156 118 157 16 159 18 158 119 157 16 160 120 158 119 159 18 161 20 160 120 159 18 18 18 162 120 20 20 163 119 162 120 18 18 16 16 163 119 18 18 164 118 163 119 16 16 165 117 164 118 16 16 166 116 164 118 165 117 167 115 166 116 165 117 168 114 166 116 167 115 169 80 168 114 167 115 170 113 168 114 169 80 171 79 170 113 169 80 172 34 54 36 56 35 173 42 54 36 172 34 174 41 173 42 172 34 175 43 173 42 174 41 176 121 175 43 174 41 177 122 175 43 176 121 178 123 177 122 176 121 179 121 177 122 178 123 180 124 179 121 178 123 29 28 179 121 180 124 27 26 29 28 180 124 142 99 181 125 144 111 182 97 181 125 142 99 183 98 182 97 142 99 184 96 182 97 183 98 185 126 184 96 183 98 186 94 184 96 185 126 187 127 186 94 185 126 188 128 186 94 187 127 189 129 188 128 187 127 190 130 188 128 189 129 42 41 29 28 31 30 179 121 29 28 42 41 44 43 179 121 42 41 177 122 179 121 44 43 191 131 177 122 44 43 175 43 177 122 191 131 192 45 175 43 191 131 193 44 175 43 192 45 50 46 193 44 192 45 52 50 193 44 50 46 169 80 194 81 171 79 195 82 194 81 169 80 196 84 195 82 169 80 197 83 195 82 196 84 198 85 197 83 196 84 199 70 197 83 198 85 8 8 199 70 198 85 6 6 199 70 8 8 103 84 99 80 101 82 153 115 99 80 103 84 105 86 153 115 103 84 200 132 153 115 105 86 107 10 200 132 105 86 201 12 200 132 107 10 109 11 201 12 107 10 202 13 201 12 109 11 186 94 204 93 203 95 205 92 204 93 186 94 188 128 205 92 186 94 120 91 205 92 188 128 206 133 120 91 188 128 207 128 120 91 206 133 208 134 207 128 206 133 209 130 207 128 208 134 128 98 210 135 130 100 211 136 210 135 128 98 212 126 211 136 128 98 213 137 211 136 212 126 214 127 213 137 212 126 215 129 213 137 214 127 207 128 215 129 214 127 209 130 215 129 207 128 216 29 15 15 17 17 217 31 15 15 216 29 218 30 217 31 216 29 219 32 217 31 218 30 172 34 219 32 218 30 220 33 219 32 172 34 56 35 220 33 172 34 58 52 220 33 56 35 218 30 174 41 172 34 221 28 174 41 218 30 216 29 221 28 218 30 222 27 221 28 216 29 223 88 222 27 216 29 23 23 222 27 223 88 19 19 23 23 223 88 197 83 224 139 132 138 225 72 224 139 197 83 199 70 225 72 197 83 226 71 225 72 199 70 4 4 226 71 199 70 2 2 226 71 4 4 37 36 43 42 35 34 91 50 43 42 37 36 39 38 91 50 37 36 92 49 91 50 39 38 41 40 92 49 39 38 93 76 92 49 41 40 181 125 227 140 144 111 228 141 227 140 181 125 182 97 228 141 181 125 203 95 228 141 182 97 184 96 203 95 182 97 186 94 203 95 184 96 231 103 230 104 229 102 232 105 230 104 231 103 100 142 232 105 231 103 233 143 232 105 100 142 98 144 233 143 100 142 234 145 233 143 98 144 235 146 158 119 160 120 156 118 158 119 235 146 236 147 156 118 235 146 152 114 156 118 236 147 237 148 152 114 236 147 151 113 152 114 237 148 232 105 238 106 230 104 239 107 238 106 232 105 240 149 239 107 232 105 241 150 239 107 240 149 242 151 241 150 240 149 243 152 241 150 242 151 113 54 109 11 110 87 202 13 109 11 113 54 114 15 202 13 113 54 244 14 202 13 114 15 157 16 244 14 114 15 155 117 244 14 157 16 239 107 245 108 238 106 246 109 245 108 239 107 247 153 246 109 239 107 248 154 246 109 247 153 249 155 248 154 247 153 250 112 248 154 249 155 246 109 130 100 245 108 131 101 130 100 246 109 248 154 131 101 246 109 251 110 131 101 248 154 250 112 251 110 248 154 252 111 251 110 250 112 254 136 183 98 253 135 185 126 183 98 254 136 255 137 185 126 254 136 187 127 185 126 255 137 189 129 187 127 255 137 137 107 256 149 135 105 257 150 256 149 137 107 258 153 257 150 137 107 259 152 257 150 258 153 260 155 259 152 258 153 135 105 194 142 133 103 261 143 194 142 135 105 256 149 261 143 135 105 262 145 261 143 256 149 263 151 262 145 256 149 192 45 48 47 50 46 264 156 48 47 192 45 191 131 264 156 192 45 46 45 264 156 191 131 44 43 46 45 191 131 221 28 176 121 174 41 265 124 176 121 221 28 266 26 265 124 221 28 25 25 265 124 266 26 23 23 25 25 266 26 127 97 267 141 125 95 268 125 267 141 127 97 129 99 268 125 127 97 252 111 268 125 129 99 110 53 112 52 113 54 111 51 112 52 110 53 76 78 111 51 110 53 61 77 111 51 76 78 70 62 269 73 71 63 270 157 269 73 70 62 88 73 270 157 70 62 90 75 270 157 88 73 207 128 122 92 120 91 124 94 122 92 207 128 214 127 124 94 207 128 212 126 124 94 214 127 139 109 258 153 137 107 271 154 258 153 139 109 141 101 271 154 139 109 143 110 271 154 141 101 272 132 167 115 165 117 273 86 167 115 272 132 10 10 273 86 272 132 8 8 273 86 10 10 14 14 165 117 16 16 272 132 165 117 14 14 12 12 272 132 14 14 10 10 272 132 12 12 274 134 188 128 190 130 206 133 188 128 274 134 275 158 206 133 274 134 208 134 206 133 275 158 84 64 69 2 82 71 276 63 69 2 84 64 86 65 276 63 84 64 88 73 276 63 86 65 159 18 117 19 161 20 115 17 117 19 159 18 157 16 115 17 159 18 114 15 115 17 157 16 277 22 26 23 24 24 117 19 26 23 277 22 278 21 117 19 277 22 161 20 117 19 278 21 244 14 201 12 202 13 200 132 201 12 244 14 155 117 200 132 244 14 153 115 200 132 155 117 279 139 102 83 229 138 83 72 102 83 279 139 280 159 83 72 279 139 85 66 83 72 280 159 147 59 67 61 146 60 281 160 67 61 147 59 94 161 281 160 147 59 93 162 281 160 94 161 247 153 243 152 249 155 241 150 243 152 247 153 239 107 241 150 247 153 11 11 150 69 9 9 59 87 150 69 11 11 60 54 59 87 11 11 81 70 102 83 83 72 104 85 102 83 81 70 106 8 104 85 81 70 281 160 65 59 67 61 41 161 65 59 281 160 93 162 41 161 281 160 225 72 282 159 224 139 74 66 282 159 225 72 72 64 74 66 225 72 271 154 260 155 258 153 145 112 260 155 271 154 143 110 145 112 271 154 269 73 73 65 71 63 75 67 73 65 269 73 283 74 75 67 269 73 197 83 194 81 195 82 133 163 194 81 197 83 132 138 133 163 197 83 240 149 234 145 242 151 233 143 234 145 240 149 232 105 233 143 240 149 220 33 217 31 219 32 60 54 217 31 220 33 58 52 60 54 220 33 168 114 164 118 166 116 284 147 164 118 168 114 285 148 284 147 168 114 205 92 118 89 204 93 120 91 118 89 205 92 126 96 212 126 128 98 124 94 212 126 126 96 251 110 129 99 131 101 252 111 129 99 251 110 286 140 268 125 252 111 267 141 268 125 286 140 269 73 90 75 283 74 270 157 90 75 269 73 222 27 266 26 221 28 23 23 266 26 222 27 193 44 173 42 175 43 52 50 173 42 193 44 17 17 223 88 216 29 19 19 223 88 17 17 265 124 178 123 176 121 25 25 178 123 265 124 25 25 180 124 178 123 27 26 180 124 25 25 78 7 108 9 106 8 77 69 108 9 78 7 79 6 106 8 81 70 78 7 106 8 79 6 64 5 68 3 66 60 80 4 68 3 64 5 231 163 102 83 100 81 229 138 102 83 231 163 261 143 171 144 194 142 262 145 171 144 261 143 163 119 287 146 162 120 164 118 287 146 163 119 257 150 263 151 256 149 259 152 263 151 257 150 167 115 196 84 169 80 273 86 196 84 167 115 198 85 273 86 8 8 196 84 273 86 198 85 226 71 72 64 225 72 2 2 72 64 226 71 5 5 149 57 148 58 7 7 149 57 5 5 7 7 150 69 149 57 9 9 150 69 7 7 13 13 60 54 11 11 15 15 60 54 13 13 65 59 40 56 63 58 41 161 40 56 65 59 28 27 116 88 30 29 26 23 116 88 28 27 80 4 69 2 68 3 82 71 69 2 80 4 276 63 70 62 69 2 88 73 70 62 276 63 140 100 183 98 142 99 253 135 183 98 140 100 199 70 6 6 4 4 95 56 94 161 147 59 284 147 287 146 164 118 217 31 60 54 15 15 170 113 285 148 168 114 46 45 48 47 264 156 152 114 154 116 156 118 173 42 52 50 54 36</p>
                </polylist>
            </mesh>
        </geometry>
    </library_geometries>
    <library_visual_scenes>
        <visual_scene id="VisualSceneNode">
            <node id="node0" name="m0" type="NODE">
                <instance_geometry url="#mesh0">
                    <bind_material>
                        <technique_common>
                            <instance_material symbol="Material1" target="#mat2">
                                <bind_vertex_input semantic="UVSET0" input_semantic="TEXCOORD" input_set="0"></bind_vertex_input>
                            </instance_material>
                        </technique_common>
                    </bind_material>
                </instance_geometry>
            </node>
            <node id="node1" name="m1" type="NODE">
                <instance_geometry url="#mesh1">
                    <bind_material>
                        <technique_common>
                            <instance_material symbol="Material1" target="#mat0">
                                <bind_vertex_input semantic="UVSET0" input_semantic="TEXCOORD" input_set="0"></bind_vertex_input>
                            </instance_material>
                        </technique_common>
                    </bind_material>
                </instance_geometry>
            </node>
            <node id="node2" name="m2" type="NODE">
                <instance_geometry url="#mesh2">
                    <bind_material>
                        <technique_common>
                            <instance_material symbol="Material1" target="#mat1">
                                <bind_vertex_input semantic="UVSET0" input_semantic="TEXCOORD" input_set="0"></bind_vertex_input>
                            </instance_material>
                        </technique_common>
                    </bind_material>
                </instance_geometry>
            </node>
        </visual_scene>
    </library_visual_scenes>
    <scene>
        <instance_visual_scene url="#VisualSceneNode"></instance_visual_scene>
    </scene>
</COLLADA>
