<?xml version="1.0"?>
<COLLADA xmlns="http://www.collada.org/2005/11/COLLADASchema" version="1.4.1">
    <asset>
        <contributor>
            <authoring_tool>J3D Ripoff Exporter</authoring_tool>
        </contributor>
        <created>2024-08-18T22:44:59.001Z</created>
        <modified>2024-08-18T22:44:59.001Z</modified>
		<unit meter="0.01" name="centimeter" ></unit>
        <up_axis>Y_UP</up_axis>
    </asset>
    <library_images>
        <image id="tex0">
            <init_from>wilddonkey_skin.png</init_from>
        </image>
        <image id="tex1">
            <init_from>wilddonkey_eye.png</init_from>
        </image>
    </library_images>
    <library_effects>
        <effect id="effect0">
            <profile_COMMON>
                <newparam sid="surface0">
                    <surface type="2D">
                        <init_from>tex1</init_from>
                    </surface>
                </newparam>
                <newparam sid="sampler0">
                    <sampler2D>
                        <source>surface0</source>
                    </sampler2D>
                </newparam>
                <technique sid="COMMON">
                    <blinn>
                        <diffuse>
                            <texture texture="sampler0" texcoord="UVSET0"></texture>
                        </diffuse>
                    </blinn>
                </technique>
            </profile_COMMON>
        </effect>
        <effect id="effect1">
            <profile_COMMON>
                <newparam sid="surface1">
                    <surface type="2D">
                        <init_from>tex0</init_from>
                    </surface>
                </newparam>
                <newparam sid="sampler1">
                    <sampler2D>
                        <source>surface1</source>
                    </sampler2D>
                </newparam>
                <technique sid="COMMON">
                    <blinn>
                        <diffuse>
                            <texture texture="sampler1" texcoord="UVSET0"></texture>
                        </diffuse>
                    </blinn>
                </technique>
            </profile_COMMON>
        </effect>
        <effect id="effect2">
            <profile_COMMON>
                <newparam sid="surface2">
                    <surface type="2D">
                        <init_from>tex0</init_from>
                    </surface>
                </newparam>
                <newparam sid="sampler2">
                    <sampler2D>
                        <source>surface2</source>
                    </sampler2D>
                </newparam>
                <technique sid="COMMON">
                    <blinn>
                        <diffuse>
                            <texture texture="sampler2" texcoord="UVSET0"></texture>
                        </diffuse>
                    </blinn>
                </technique>
            </profile_COMMON>
        </effect>
    </library_effects>
    <library_materials>
        <material id="mat0" name="Eye">
            <instance_effect url="#effect0"></instance_effect>
        </material>
        <material id="mat1" name="Skin">
            <instance_effect url="#effect1"></instance_effect>
        </material>
        <material id="mat2" name="Skin_etc">
            <instance_effect url="#effect2"></instance_effect>
        </material>
    </library_materials>
    <library_geometries>
        <geometry id="mesh0">
            <mesh>
                <source id="points0">
                    <float_array id="pointarray0" count="54">52.375 -26.3515625 -24.19140625 51.39453125 -28.53125 -25.109375 55.875 -27.7890625 -20.46484375 55.55859375 -32.375 -19.8203125 58.703125 -28.796875 -14.55078125 58.76171875 -30.09765625 -13.78515625 60.85546875 -29.04296875 -6.328125 52.375 -26.3515625 24.32421875 55.875 -27.7890625 20.59765625 51.39453125 -28.53125 25.2421875 55.55859375 -32.375 19.953125 51.109375 -31.75390625 25.14453125 51.56640625 -34.4296875 23.39453125 60.85546875 -29.04296875 6.4609375 58.76171875 -30.09765625 13.91796875 58.703125 -28.796875 14.6875 51.109375 -31.75390625 -25.01171875 51.56640625 -34.4296875 -23.26171875</float_array>
                    <technique_common>
                        <accessor count="18" source="#pointarray0" stride="3">
                            <param name="X" type="float"/>
                            <param name="Y" type="float"/>
                            <param name="Z" type="float"/>
                        </accessor>
                    </technique_common>
                </source>
                <source id="uvs0">
                    <float_array id="uvarray0" count="18">0.88421630859375 0.34857177734375 0.89300537109375 0.424560546875 0.7108154296875 0.3331298828125 0.68475341796875 0.54498291015625 0.5115966796875 0.335693359375 0.48046875 0.4561767578125 0.26593017578125 0.37579345703125 0.9017333984375 0.50048828125 0.8389892578125 0.635009765625</float_array>
                    <technique_common>
                        <accessor count="9" source="#uvarray0" stride="2">
                            <param name="S" type="float"/>
                            <param name="T" type="float"/>
                        </accessor>
                    </technique_common>
                </source>
                <vertices id="vertices0">
                    <input semantic="POSITION" source="#points0"/>
                </vertices>
                <polylist count="14" material="Material1">
                    <input offset="0" semantic="VERTEX" source="#vertices0"/>
                    <input offset="1" semantic="TEXCOORD" source="#uvs0" set="0"/>
                    <vcount>3 3 3 3 3 3 3 3 3 3 3 3 3 3</vcount>
                    <p>2 2 1 1 0 0 3 3 1 1 2 2 4 4 3 3 2 2 5 5 3 3 4 4 6 6 5 5 4 4 9 1 8 2 7 0 10 3 8 2 9 1 11 7 10 3 9 1 12 8 10 3 11 7 15 4 14 5 13 6 10 3 14 5 15 4 8 2 10 3 15 4 3 3 16 7 1 1 17 8 16 7 3 3</p>
                </polylist>
            </mesh>
        </geometry>
        <geometry id="mesh1">
            <mesh>
                <source id="points1">
                    <float_array id="pointarray1" count="300">57.953125 24.73046875 -22.4375 68.4609375 30.5 -14.23828125 55.984375 25.890625 -15.015625 69.66015625 33.1640625 0.06640625 54.05078125 23.87109375 0.06640625 55.984375 25.890625 15.1484375 49.1328125 15.37890625 0.06640625 51.73046875 13.23828125 16.46875 48.671875 9.63671875 14.03125 49.1171875 6.6875 20.09765625 46.328125 5.6328125 0.06640625 49.98828125 2.17578125 9.37890625 47.65234375 4.48828125 0.06640625 51.22265625 3.8046875 0.06640625 49.98828125 2.17578125 -9.24609375 53.47265625 1.69921875 -7.8828125 50.5234375 5.63671875 -20.75390625 53.78515625 4.58984375 -17.66796875 55.2265625 11.17578125 -24.56640625 57.9921875 9.54296875 -20.75390625 60.1875 22.8046875 -23.328125 62.953125 21.171875 -19.1015625 73.93359375 29.46484375 -14.83984375 73.1953125 24.92578125 -12.5 75.16796875 28.0703125 0.06640625 62.94140625 18.48046875 -7.171875 61.46875 19.53515625 0.06640625 59.40625 5.94140625 -8.1328125 56.42578125 8.58984375 0.06640625 59.40625 5.94140625 8.265625 53.47265625 1.69921875 8.015625 53.78515625 4.58984375 17.80078125 50.5234375 5.63671875 20.88671875 55.2265625 11.17578125 24.69921875 53.6953125 12.078125 23.72265625 49.1171875 6.6875 -19.96484375 53.6953125 12.078125 -23.58984375 76.078125 32.21484375 0.06640625 68.4609375 30.5 14.375 57.953125 24.73046875 22.5703125 60.1875 22.8046875 23.4609375 57.9921875 9.54296875 20.88671875 62.94140625 18.48046875 7.3046875 73.1953125 24.92578125 12.6328125 73.93359375 29.46484375 14.97265625 62.953125 21.171875 19.234375 48.671875 9.63671875 -13.8984375 51.73046875 13.23828125 -16.3359375 60.75390625 -29.74609375 -3.37890625 60.94140625 -28.13671875 -2.36328125 60.85546875 -29.04296875 -6.328125 60.265625 -27.55078125 -8.44921875 58.703125 -28.796875 -14.55078125 58.453125 -26.3984375 -15.11328125 55.84765625 -24.9375 -20.25 58.453125 -26.3984375 15.24609375 58.703125 -28.796875 14.6875 55.84765625 -24.9375 20.3828125 55.875 -27.7890625 20.59765625 53.26171875 -23.66015625 24.52734375 52.375 -26.3515625 24.32421875 51.56640625 -34.4296875 23.39453125 55.55859375 -32.375 19.953125 54.734375 -35.3828125 18.2578125 58.76171875 -30.09765625 13.91796875 58.578125 -31.97265625 13.1484375 60.109375 -30.26953125 6.8515625 60.10546875 -30.26953125 -6.71875 58.76171875 -30.09765625 -13.78515625 58.578125 -31.97265625 -13.015625 54.734375 -35.3828125 -18.125 47.76171875 -45.4453125 22.7578125 46.5859375 -38.79296875 26.99609375 49.43359375 -42.5234375 22.54296875 45.671875 -32.93359375 30.2265625 51.109375 -31.75390625 25.14453125 49.828125 -21.62109375 -28.296875 47.0625 -27.484375 -30.16015625 53.38671875 -23.66015625 -24.390625 52.375 -26.3515625 -24.19140625 55.875 -27.7890625 -20.46484375 45.671875 -32.93359375 -30.09375 49.43359375 -42.5234375 -22.41015625 51.56640625 -34.4296875 -23.26171875 52.28515625 -37.80859375 -20.82421875 49.828125 -21.62109375 28.4296875 47.0625 -27.484375 30.29296875 51.39453125 -28.53125 25.2421875 60.75390625 -29.74609375 3.51171875 60.85546875 -29.04296875 6.4609375 52.28515625 -37.80859375 20.95703125 60.94140625 -28.13671875 2.49609375 60.546875 -27.55078125 8.5859375 61.0859375 -28.03125 0.06640625 60.60546875 -29.546875 0.06640625 55.55859375 -32.375 -19.8203125 47.76171875 -45.4453125 -22.625 46.5859375 -38.79296875 -26.86328125 51.109375 -31.75390625 -25.01171875 51.39453125 -28.53125 -25.109375</float_array>
                    <technique_common>
                        <accessor count="100" source="#pointarray1" stride="3">
                            <param name="X" type="float"/>
                            <param name="Y" type="float"/>
                            <param name="Z" type="float"/>
                        </accessor>
                    </technique_common>
                </source>
                <source id="uvs1">
                    <float_array id="uvarray1" count="110">0.4833984375 0.97259521484375 0.46636962890625 0.9503173828125 0.46258544921875 0.97259521484375 0.422119140625 0.9398193359375 0.422119140625 0.97259521484375 0.422119140625 0.99334716796875 0.46624755859375 0.99334716796875 0.45941162109375 0.9954833984375 0.4764404296875 0.99658203125 0.422119140625 0.99761962890625 0.44635009765625 0.997802734375 0.422119140625 0.997802734375 0.422119140625 0.9971923828125 0.43792724609375 0.9971923828125 0.47869873046875 0.99664306640625 0.47003173828125 0.996337890625 0.4893798828125 0.99334716796875 0.47869873046875 0.99334716796875 0.48590087890625 0.97259521484375 0.47406005859375 0.97259521484375 0.46832275390625 0.9482421875 0.46075439453125 0.956298828125 0.422119140625 0.947265625 0.4405517578125 0.97259521484375 0.4384765625 0.9945068359375 0.422119140625 0.99517822265625 0.48663330078125 0.99334716796875 0.422119140625 0.937255859375 0.77880859375 0.67156982421875 0.83306884765625 0.67266845703125 0.8245849609375 0.68426513671875 0.874267578125 0.68182373046875 0.79913330078125 0.711669921875 0.76788330078125 0.703857421875 0.76702880859375 0.7041015625 0.79840087890625 0.7039794921875 0.86724853515625 0.7330322265625 0.85858154296875 0.7064208984375 0.9034423828125 0.6993408203125 0.88348388671875 0.71826171875 0.90338134765625 0.69927978515625 0.93255615234375 0.7255859375 0.93585205078125 0.75054931640625 0.90362548828125 0.7391357421875 0.98828125 0.76300048828125 0.92608642578125 0.715087890625 0.87066650390625 0.6771240234375 0.8404541015625 0.71466064453125 0.75189208984375 0.671875 0.814697265625 0.666748046875 0.8194580078125 0.70928955078125 0.79888916015625 0.750732421875 0.8363037109375 0.75732421875 0.8057861328125 0.72711181640625 0.8353271484375 0.73394775390625</float_array>
                    <technique_common>
                        <accessor count="55" source="#uvarray1" stride="2">
                            <param name="S" type="float"/>
                            <param name="T" type="float"/>
                        </accessor>
                    </technique_common>
                </source>
                <vertices id="vertices1">
                    <input semantic="POSITION" source="#points1"/>
                </vertices>
                <polylist count="146" material="Material1">
                    <input offset="0" semantic="VERTEX" source="#vertices1"/>
                    <input offset="1" semantic="TEXCOORD" source="#uvs1" set="0"/>
                    <vcount>3 3 3 3 3 3 3 3 3 3 3 3 3 3 3 3 3 3 3 3 3 3 3 3 3 3 3 3 3 3 3 3 3 3 3 3 3 3 3 3 3 3 3 3 3 3 3 3 3 3 3 3 3 3 3 3 3 3 3 3 3 3 3 3 3 3 3 3 3 3 3 3 3 3 3 3 3 3 3 3 3 3 3 3 3 3 3 3 3 3 3 3 3 3 3 3 3 3 3 3 3 3 3 3 3 3 3 3 3 3 3 3 3 3 3 3 3 3 3 3 3 3 3 3 3 3 3 3 3 3 3 3 3 3 3 3 3 3 3 3 3 3 3 3 3 3</vcount>
                    <p>2 2 1 1 0 0 3 3 1 1 2 2 4 4 3 3 2 2 5 2 3 3 4 4 6 5 5 2 4 4 7 6 5 2 6 5 8 7 7 6 6 5 9 8 7 6 8 7 10 9 9 8 8 7 11 10 9 8 10 9 12 11 11 10 10 9 13 12 11 10 12 11 14 10 13 12 12 11 15 13 13 12 14 10 16 14 15 13 14 10 17 15 15 13 16 14 18 16 17 15 16 14 19 17 17 15 18 16 20 18 19 17 18 16 21 19 19 17 20 18 22 20 21 19 20 18 23 21 21 19 22 20 24 22 23 21 22 20 25 23 23 21 24 22 26 4 25 23 24 22 27 24 25 23 26 4 28 25 27 24 26 4 13 12 27 24 28 25 29 24 13 12 28 25 30 13 13 12 29 24 31 15 30 13 29 24 32 14 30 13 31 15 33 16 32 14 31 15 9 8 32 14 33 16 34 26 9 8 33 16 7 6 9 8 34 26 5 2 7 6 34 26 35 8 16 14 14 10 18 16 16 14 35 8 36 26 18 16 35 8 20 18 18 16 36 26 0 0 20 18 36 26 22 20 20 18 0 0 1 1 22 20 0 0 37 27 22 20 1 1 3 3 37 27 1 1 38 1 37 27 3 3 5 2 38 1 3 3 39 0 38 1 5 2 34 26 39 0 5 2 40 18 39 0 34 26 33 16 40 18 34 26 41 17 40 18 33 16 31 15 41 17 33 16 29 24 41 17 31 15 26 4 29 24 28 25 42 23 29 24 26 4 24 22 42 23 26 4 43 21 42 23 24 22 44 20 43 21 24 22 45 19 43 21 44 20 40 18 45 19 44 20 41 17 45 19 40 18 10 9 14 10 12 11 35 8 14 10 10 9 46 7 35 8 10 9 47 6 35 8 46 7 6 5 47 6 46 7 2 2 47 6 6 5 4 4 2 2 6 5 25 23 21 19 23 21 19 17 21 19 25 23 27 24 19 17 25 23 17 15 19 17 27 24 15 13 17 15 27 24 50 30 49 29 48 28 51 31 49 29 50 30 52 32 51 31 50 30 53 33 51 31 52 32 54 33 53 33 52 32 57 33 56 32 55 33 58 32 56 32 57 33 59 34 58 32 57 33 60 35 58 32 59 34 63 38 62 37 61 36 64 39 62 37 63 38 65 40 64 39 63 38 66 41 64 39 65 40 67 41 50 43 48 42 68 39 50 43 67 41 69 40 68 39 67 41 70 38 68 39 69 40 73 44 72 45 71 44 74 46 72 45 73 44 61 36 74 46 73 44 75 47 74 46 61 36 78 34 77 49 76 48 79 35 77 49 78 34 80 32 79 35 78 34 44 20 39 0 40 18 38 1 39 0 44 20 37 27 38 1 44 20 83 36 82 44 81 46 84 40 82 44 83 36 70 38 84 40 83 36 86 49 59 34 85 48 60 35 59 34 86 49 87 50 60 35 86 49 11 10 32 14 9 8 30 13 32 14 11 10 13 12 30 13 11 10 24 22 37 27 44 20 22 20 37 27 24 22 47 6 36 26 35 8 2 2 36 26 47 6 45 19 42 23 43 21 41 17 42 23 45 19 10 9 6 5 46 7 8 7 6 5 10 9 89 43 66 41 88 42 64 39 66 41 89 43 90 40 61 36 73 44 63 38 61 36 90 40 75 47 86 49 74 46 87 50 86 49 75 47 91 29 89 30 88 28 92 31 89 30 91 29 91 53 94 52 93 51 88 54 94 52 91 53 92 31 56 32 89 30 55 33 56 32 92 31 95 37 70 38 83 36 68 39 70 38 95 37 80 32 54 33 52 32 78 34 54 33 80 32 49 53 94 52 48 54 93 51 94 52 49 53 97 45 82 44 96 44 81 46 82 44 97 45 98 47 81 46 77 49 83 36 81 46 98 47 99 50 77 49 79 35 98 47 77 49 99 50 29 24 42 23 41 17 2 2 0 0 36 26 27 24 13 12 15 13</p>
                </polylist>
            </mesh>
        </geometry>
        <geometry id="mesh2">
            <mesh>
                <source id="points2">
                    <float_array id="pointarray2" count="1434">62.0390625 25.4921875 -34.56640625 65.5859375 29.43359375 -31.53515625 67.58984375 31.484375 -33.79296875 77.4375 35.43359375 -26.33203125 65.61328125 35.1953125 -34.38671875 75.96484375 39.86328125 -26.44140625 62.48046875 40.515625 -31 70.8671875 42.7109375 -23.0625 57.75 45.45703125 -23.4921875 71.578125 46.03125 -16.2890625 65.85546875 47.734375 -15.87109375 70.58984375 49.42578125 -6.078125 64.4609375 49.9375 -6.703125 65.19921875 50.5 0.06640625 55.85546875 49.7421875 0.06640625 64.4609375 49.9375 6.8359375 59.83984375 48.62890625 14.44140625 65.85546875 47.734375 16.00390625 57.75 45.45703125 23.625 71.578125 46.03125 16.421875 70.8671875 42.7109375 23.19921875 76.08984375 44.44140625 15.22265625 82.4609375 42.31640625 18.1953125 86.10546875 43.71875 9.01171875 87.4296875 38.921875 9.20703125 88.51953125 39.44921875 0.06640625 84.609375 36.7890625 0.06640625 87.4296875 38.921875 -9.07421875 83.53515625 36.41015625 -8.80078125 83.80859375 37.56640625 -18.04296875 80.02734375 35.17578125 -17.109375 73.83984375 33.1953125 -25.42578125 13.2421875 23.96875 22.8828125 15.78125 29.48828125 13.90234375 24.61328125 35.19140625 22.5546875 17.09375 33.265625 0.06640625 38.16015625 41.76171875 0.06640625 24.61328125 35.19140625 -22.421875 32.7578125 38.63671875 -21.5546875 36.9921875 37.234375 -34.25 47.12890625 41.890625 -29.7109375 39.02734375 33.58984375 -39.08203125 50.07421875 36.92578125 -36.7265625 53.01171875 31.15625 -40.6796875 59.453125 30.015625 -39.65234375 61.265625 27.51171875 -37.8203125 59.03125 22.85546875 -40.5859375 60.87109375 21.48046875 -36.16796875 59.17578125 11.5859375 -42.93359375 60.83203125 11.3046875 -38.5546875 62.1328125 2.38671875 -41.4375 63.9921875 3.203125 -37.6484375 68.64453125 -1.6796875 -35.78125 74.91796875 -4.96875 -33.02734375 82.015625 -7.8984375 -27.9375 63.078125 -5.109375 -30.96484375 71.0078125 -7.58984375 -27.3046875 39.26171875 -2.23046875 -27.546875 53.40234375 -3.8046875 -17.8828125 34.90625 13.98046875 -16.0703125 42.859375 19.35546875 -8.6484375 69.74609375 35.4453125 -8.6796875 70.29296875 35.84375 0.06640625 69.74609375 35.4453125 8.8125 83.53515625 36.41015625 8.93359375 66.66015625 34.421875 16.41015625 80.02734375 35.17578125 17.2421875 60.57421875 32.62109375 24.19140625 73.83984375 33.1953125 25.55859375 56.10546875 29.3125 29.65234375 87.04296875 -9.63671875 -21.03515625 78.14453125 -8.58984375 -17.4140625 57 -4.85546875 -9.7265625 43.55859375 19.55859375 0.06640625 42.859375 19.35546875 8.78125 34.90625 13.98046875 16.203125 30.43359375 14.66015625 27.71484375 30.390625 14.82421875 33.66796875 53.00390625 20.890625 33.18359375 53.32421875 47.578125 -14.18359375 41.52734375 43.96875 -13.63671875 48.73046875 48 0.06640625 41.52734375 43.96875 13.76953125 32.7578125 38.63671875 21.6875 47.12890625 41.890625 29.84375 36.9921875 37.234375 34.3828125 39.02734375 33.58984375 39.21484375 29.515625 30.25390625 38.91796875 31.54296875 23.05859375 45.96484375 74.91796875 -4.96875 33.1640625 82.015625 -7.8984375 28.07421875 83.578125 -10.9375 28.77734375 87.04296875 -9.63671875 21.16796875 89.3671875 -12.70703125 20.515625 93.73828125 -13.8359375 10.5390625 86.87109375 -17.44140625 19.33203125 91.38671875 -18.5546875 0.06640625 82.11328125 -22.2109375 9.69921875 84.6796875 -22.76953125 0.06640625 73.8125 -25.703125 0.06640625 82.11328125 -22.2109375 -9.56640625 71.8984375 -25.359375 -8.046875 76.44140625 -20.921875 -18.99609375 67.99609375 -23.73828125 -18.3359375 64.0078125 -21.859375 -25.48828125 91.421875 -10.74609375 -10.9765625 81.84375 -9.04296875 -9.66015625 57.8515625 -4.84765625 0.06640625 57 -4.85546875 9.859375 53.40234375 -3.8046875 18.015625 39.26171875 -2.23046875 27.6796875 37.515625 1.5625 33.921875 92.95703125 -11.08203125 0.06640625 83.375 -9.64453125 0.06640625 81.84375 -9.04296875 9.79296875 78.14453125 -8.58984375 17.546875 71.0078125 -7.58984375 27.44140625 63.078125 -5.109375 31.09765625 56.85546875 2.38671875 37.76171875 60.83203125 11.3046875 38.6875 60.87109375 21.48046875 36.30078125 59.17578125 11.5859375 43.06640625 62.1328125 2.38671875 41.57421875 56.26171875 0.31640625 45.3359375 67.37890625 -3.96484375 38.88671875 64.6015625 -8.33203125 40.7265625 76.53125 -8.36328125 34.84375 73.2890625 -13.32421875 34.984375 81.54296875 -15.88671875 27.86328125 76.44140625 -20.921875 19.12890625 71.8984375 -25.359375 8.1796875 76.19140625 35.078125 -19.828125 77.98828125 26.64453125 -18.71484375 80.62890625 38.046875 -10.93359375 83.31640625 28.31640625 -10.6953125 85.24609375 28.84765625 0.06640625 85.09375 27.28515625 0.06640625 83.31640625 28.31640625 10.83203125 83.42578125 26.5625 10.35546875 77.98828125 26.64453125 18.84765625 78.4921875 25.23828125 18.11328125 74.65625 25.30859375 17.18359375 76.58203125 24.03515625 16.703125 81.109375 25.0390625 9.2734375 87.5625 -14.63671875 13.171875 82.85546875 -12.4375 22.38671875 84.8359375 -0.5546875 21.1796875 82.86328125 -2.3828125 26.41015625 83.52734375 5.55078125 21.921875 77.65234375 0.6796875 29.12890625 76.734375 -0.8359375 23.51171875 77.578125 3.453125 28.1171875 76.05078125 2.14453125 23.7890625 69.1484375 3.9375 26.484375 71.78515625 -9.08203125 27.1953125 81.51953125 -0.2265625 18.58203125 79.98828125 -12.35546875 20.1796875 84.08984375 -14.171875 11.2421875 82.4609375 42.31640625 -18.0625 76.08984375 44.44140625 -15.08984375 78.203125 45.46484375 -6.23828125 75.2109375 47.79296875 -5.98828125 76.28515625 48.171875 0.06640625 71.8046875 49.78125 0.06640625 75.2109375 47.79296875 6.12109375 70.58984375 49.42578125 6.2109375 64.46484375 -37.91015625 3.48046875 64.8359375 -37.80859375 0.06640625 60.19140625 -39.23046875 0 64.46484375 -37.91015625 -3.34375 59.80859375 -39.75 -5.640625 63.91015625 -38.47265625 -6.8828125 58.45703125 -41.58203125 -10.0859375 62.64453125 -40.17578125 -11.98828125 55.21484375 -44.5546875 -13.328125 59.09765625 -43.3359375 -16.0234375 56.09765625 -47.390625 -17.68359375 53.4140625 -45.609375 -21.4453125 48.8984375 -52.2578125 -22.13671875 47.76171875 -45.4453125 -22.625 77.4375 35.43359375 26.46484375 65.5859375 29.43359375 31.66796875 67.58984375 31.484375 33.92578125 62.0390625 25.4921875 34.69921875 61.265625 27.51171875 37.953125 59.03125 22.85546875 40.71875 56.65234375 25.609375 42.3984375 53.27734375 13.58203125 46.33984375 32.8125 13.265625 49.17578125 36.91015625 -1.9375 46.60546875 49.828125 -21.62109375 -28.296875 49.06640625 -19.875 -30.96875 47.0625 -27.484375 -30.16015625 47.3671875 -27.984375 -32.0859375 45.671875 -32.93359375 -30.09375 46.05078125 -33.79296875 -32.04296875 46.5859375 -38.79296875 -26.86328125 46.94140625 -40.40625 -28.75390625 48.19140625 -46.57421875 -25.09375 45.9140625 -52.24609375 -24.48828125 42.52734375 -53.02734375 -23.90625 40.625 -46.7734375 -28.10546875 85.953125 -14.89453125 0.06640625 88.0546875 -0.09765625 0.06640625 86.30859375 0.34765625 9.98046875 82.640625 1.8515625 18.28125 84.7265625 1.19921875 20.05859375 88.640625 -0.41015625 11.18359375 89.109375 -2.3125 11.53515625 91.015625 -2.7265625 0.06640625 89.71875 -15.31640625 0.06640625 68.64453125 -1.6796875 35.9140625 91.421875 -10.74609375 11.109375 83.80859375 37.56640625 18.17578125 75.96484375 39.86328125 26.57421875 62.48046875 40.515625 31.1328125 50.07421875 36.92578125 36.859375 56.85546875 2.38671875 -37.62890625 37.515625 1.5625 -33.7890625 30.43359375 14.66015625 -27.58203125 66.66015625 34.421875 -16.27734375 13.2421875 23.96875 -22.75 12.0078125 16.0078125 -30.58984375 21.40625 16.91796875 -44.1328125 20.79296875 7.3515625 -44.46484375 32.8125 13.265625 -49.04296875 26.46484375 -1.52734375 -43.6875 36.91015625 -1.9375 -46.47265625 36.16796875 -9.703125 -41.82421875 44.203125 -11.1953125 -40.765625 36.5234375 -14.70703125 -37.3125 42.83984375 -17.734375 -34.296875 94.35546875 -13.98046875 0.06640625 93.73828125 -13.8359375 -10.40625 86.87109375 -17.44140625 -19.19921875 89.3671875 -12.70703125 -20.3828125 83.578125 -10.9375 -28.64453125 81.54296875 -15.88671875 -27.73046875 73.2890625 -13.32421875 -34.8515625 59.1953125 -19.4453125 -31.3828125 50.95703125 -15.265625 -37.45703125 45.74609375 -18.20703125 -34.0234375 78.57421875 37.17578125 0.06640625 82.6875 25.75390625 0.06640625 77.1796875 36.40625 -9.3203125 81.109375 25.0390625 -9.13671875 74.65625 25.30859375 -17.05078125 76.58203125 24.03515625 -16.5703125 78.4921875 25.23828125 -17.98046875 83.42578125 26.5625 -10.22265625 79.57421875 -10.34765625 27.6796875 75.0390625 -8.9375 31.2265625 68.6484375 -5.33203125 33.5078125 70.4453125 2.62890625 33.09765625 60.16015625 5.578125 36.46484375 60.59765625 7.25 35.16015625 61.296875 5.625 27.7109375 82.85546875 -12.4375 -22.25 87.5625 -14.63671875 -13.0390625 84.8359375 -0.5546875 -21.046875 89.109375 -2.3125 -11.40234375 88.640625 -0.41015625 -11.05078125 90.47265625 -0.7421875 0.06640625 86.30859375 0.34765625 -9.84765625 84.08984375 -14.171875 -11.109375 65.37109375 -5.875 -30.3515625 69.1484375 3.9375 -26.3515625 71.78515625 -9.08203125 -27.0625 76.734375 -0.8359375 -23.375 81.51953125 -0.2265625 -18.44921875 83.52734375 5.55078125 -21.7890625 82.86328125 -2.3828125 -26.27734375 79.57421875 -10.34765625 -27.546875 86.10546875 43.71875 -8.875 87.5234375 44.046875 0.06640625 79.27734375 45.94921875 0.06640625 78.203125 45.46484375 6.37109375 65.61328125 35.1953125 34.51953125 59.453125 30.015625 39.78515625 53.01171875 31.15625 40.81640625 41.84375 26.83203125 43.9765625 45.71484375 20.9921875 45.9609375 52.28515625 -37.80859375 20.95703125 54.734375 -35.3828125 18.2578125 58.51953125 -39.2890625 17.7109375 62.14453125 -35.90234375 13.1328125 62.64453125 -40.17578125 12.125 64.140625 -34.26171875 7.49609375 63.91015625 -38.47265625 7.015625 59.80859375 -39.75 5.640625 70.3671875 -27.37890625 0.06640625 68.7265625 -26.984375 -8.23046875 63.30078125 -26.08984375 -12.4453125 58.453125 -26.3984375 -15.11328125 55.84765625 -24.9375 -20.25 53.38671875 -23.66015625 -24.390625 14.42578125 4.97265625 -37.46484375 19.18359375 -1.86328125 -39.6484375 25.890625 -8.6875 -40.56640625 29.5 -11.0546875 -39.67578125 60.75390625 -29.74609375 -3.37890625 60.10546875 -30.26953125 -6.71875 64.140625 -34.26171875 -7.36328125 58.578125 -31.97265625 -13.015625 62.14453125 -35.90234375 -13 54.734375 -35.3828125 -18.125 58.51953125 -39.2890625 -17.578125 52.28515625 -37.80859375 -20.82421875 64.6015625 -8.33203125 -40.59375 56.26171875 0.31640625 -45.203125 53.27734375 13.58203125 -46.20703125 45.71484375 20.9921875 -45.828125 56.65234375 25.609375 -42.265625 41.84375 26.83203125 -43.84375 51.20703125 14.53125 24.6640625 51.33984375 13.91015625 31.046875 59.609375 17.99609375 24.62890625 62.18359375 19.10546875 29.12109375 71.2734375 22.3125 25.2421875 61.39453125 20.3671875 30.328125 71.7890625 23.96875 25.96484375 55.7421875 28.86328125 33.60546875 66.1875 33.6953125 28.625 66.1875 33.6953125 -28.48828125 55.7421875 28.86328125 -33.46875 71.7890625 23.96875 -25.83203125 61.39453125 20.3671875 -30.1953125 71.2734375 22.3125 -25.109375 62.18359375 19.10546875 -28.98828125 59.609375 17.99609375 -24.49609375 51.33984375 13.91015625 -30.9140625 51.20703125 14.53125 -24.53125 75.0390625 -8.9375 -31.09375 77.65234375 0.6796875 -28.99609375 68.6484375 -5.33203125 -33.375 70.4453125 2.62890625 -32.96484375 60.16015625 5.578125 -36.328125 60.59765625 7.25 -35.02734375 61.296875 5.625 -27.578125 64.72265625 -33.9140625 4.1328125 60.75390625 -29.74609375 3.51171875 62.9921875 -30.00390625 2.3671875 62.39453125 -28.59765625 0.06640625 65.7578125 -33.0859375 0.06640625 62.9921875 -30.00390625 -2.234375 65.38671875 -33.50390625 -2.58203125 64.72265625 -33.9140625 -4 77.578125 3.453125 -27.984375 76.05078125 2.14453125 -23.65625 53.00390625 20.890625 -33.046875 30.390625 14.82421875 -33.53515625 56.10546875 29.3125 -29.51953125 60.57421875 32.62109375 -24.05859375 49.828125 -21.62109375 28.4296875 47.0625 -27.484375 30.29296875 49.06640625 -20.1953125 31.1015625 47.3671875 -27.984375 32.21875 45.765625 -18.59765625 34.16015625 42.9140625 -26.87109375 36.1875 42.83984375 -17.734375 34.36328125 40.12109375 -25.63671875 36.1171875 80.62890625 38.046875 11.06640625 76.19140625 35.078125 19.9609375 74.296875 29.2421875 23.9765625 72.4375 35.09375 25.23828125 82.640625 1.8515625 -18.1484375 84.7265625 1.19921875 -19.92578125 46.5859375 -38.79296875 26.99609375 47.76171875 -45.4453125 22.7578125 46.94140625 -40.40625 28.88671875 48.19140625 -46.57421875 25.2265625 44.375 -47.171875 28.26171875 45.9140625 -52.24609375 24.62109375 40.625 -46.7734375 28.10546875 42.52734375 -53.02734375 23.90625 45.671875 -32.93359375 30.2265625 46.05078125 -33.79296875 32.17578125 41.8828125 -31.24609375 36.234375 41.46484375 -34.49609375 35.72265625 38.73828125 -30.40234375 35.96484375 38.12109375 -34.04296875 35.57421875 43.1875 -41.2265625 31.87109375 39.3046875 -40.80859375 31.47265625 49.43359375 -42.5234375 22.54296875 53.4140625 -45.609375 21.578125 59.09765625 -43.3359375 16.15625 55.21484375 -44.5546875 13.328125 58.45703125 -41.58203125 10.0859375 63.9921875 3.203125 37.78125 68.7265625 -26.984375 8.36328125 61.0859375 -28.03125 0.06640625 60.94140625 -28.13671875 -2.36328125 60.265625 -27.55078125 -8.44921875 64.0078125 -21.859375 25.62109375 67.99609375 -23.73828125 18.46875 58.453125 -26.3984375 15.24609375 63.30078125 -26.08984375 12.578125 60.546875 -27.55078125 8.5859375 60.94140625 -28.13671875 2.49609375 76.53125 -8.36328125 -34.7109375 67.37890625 -3.96484375 -38.75390625 29.515625 30.25390625 -38.78515625 31.54296875 23.05859375 -45.83203125 21.40625 16.91796875 44.265625 12.0078125 16.0078125 30.72265625 20.79296875 7.3515625 44.6015625 14.42578125 4.97265625 37.46484375 19.18359375 -1.86328125 39.6484375 26.46484375 -1.52734375 43.82421875 25.890625 -8.6875 40.69921875 68.19921875 22.16796875 -22.02734375 75.734375 20.19140625 -21.74609375 74.296875 29.2421875 -23.84375 72.4375 35.09375 -25.10546875 41.8828125 -31.24609375 -36.1015625 41.46484375 -34.49609375 -35.58984375 43.1875 -41.2265625 -31.73828125 38.12109375 -34.04296875 -35.57421875 39.3046875 -40.80859375 -31.47265625 42.9140625 -26.87109375 -36.0546875 40.12109375 -25.63671875 -36.1171875 38.73828125 -30.40234375 -35.96484375 70.7734375 4.91015625 -31.8125 70.7734375 4.91015625 31.9453125 44.203125 -11.1953125 40.8984375 50.95703125 -15.265625 37.58984375 59.1953125 -19.4453125 31.515625 48.8984375 -52.2578125 22.26953125 52.78125 -52.48046875 17.62109375 49.10546875 -52.99609375 15.1640625 52.29296875 -48.19921875 14.80859375 52.29296875 -48.19921875 -14.80859375 52.78125 -52.48046875 -17.48828125 49.10546875 -52.99609375 -15.1640625 53.32421875 47.578125 14.31640625 44.375 -47.171875 -28.12890625 69.5625 21.3984375 -23 50.359375 15.04296875 32.328125 43.66796875 23.4453125 35.70703125 36.16796875 -9.703125 41.95703125 29.5 -11.0546875 39.80859375 53.26171875 -23.66015625 24.52734375 55.84765625 -24.9375 20.3828125 50.359375 15.04296875 -32.19140625 43.32421875 24.57421875 -30.52734375 63.0546875 31.83984375 -24.29296875 71.87109375 34.48828125 -16.97265625 36.5234375 -14.70703125 37.4453125 59.83984375 48.62890625 -14.30859375 58.40625 -3.98828125 37.41015625 58.97265625 -5.9921875 32 68.19921875 22.16796875 22.16015625 69.5625 21.3984375 23.1328125 75.734375 20.19140625 21.87890625 58.97265625 -5.9921875 -31.8671875 58.40625 -3.98828125 -37.2734375 53.515625 28.67578125 -29.5234375 90.484375 -0.9453125 0.06640625 91.0234375 -2.85546875 0.06640625 88.06640625 -0.3046875 0.06640625 89.72265625 -15.3984375 0.06640625 85.95703125 -15.0078125 0.06640625 65.38671875 -33.50390625 2.71484375 56.09765625 -47.390625 17.81640625 63.0546875 31.83984375 24.42578125 71.87109375 34.48828125 17.10546875 77.1796875 36.40625 9.453125 15.78125 29.48828125 -13.76953125 49.43359375 -42.5234375 -22.41015625 60.109375 -30.26953125 6.8515625 58.578125 -31.97265625 13.1484375 60.60546875 -29.546875 0.06640625 43.32421875 24.57421875 30.66015625 79.98828125 -12.35546875 -20.046875 82.296875 38.24609375 0.06640625 43.66796875 23.4453125 -35.57421875 53.515625 28.67578125 29.66015625 65.37109375 -5.875 30.484375</float_array>
                    <technique_common>
                        <accessor count="478" source="#pointarray2" stride="3">
                            <param name="X" type="float"/>
                            <param name="Y" type="float"/>
                            <param name="Z" type="float"/>
                        </accessor>
                    </technique_common>
                </source>
                <source id="uvs2">
                    <float_array id="uvarray2" count="568">0.1851806640625 0.76116943359375 0.14971923828125 0.76055908203125 0.15032958984375 0.74786376953125 0.11334228515625 0.74774169921875 0.1512451171875 0.72900390625 0.1124267578125 0.7296142578125 0.1446533203125 0.69927978515625 0.10797119140625 0.7119140625 0.12066650390625 0.650390625 0.07354736328125 0.68511962890625 0.07647705078125 0.658447265625 0.0394287109375 0.65869140625 0.0394287109375 0.64263916015625 0.00506591796875 0.6417236328125 0.00506591796875 0.6280517578125 0.07867431640625 0.63031005859375 0.0712890625 0.70880126953125 0.07257080078125 0.7310791015625 0.04248046875 0.7298583984375 0.0426025390625 0.74725341796875 0.00482177734375 0.74658203125 0.004150390625 0.75927734375 0.04071044921875 0.76104736328125 0.07275390625 0.74786376953125 0.07098388671875 0.76190185546875 0.11285400390625 0.76116943359375 0.29736328125 0.60589599609375 0.14154052734375 0.58349609375 0.29876708984375 0.6060791015625 0.00506591796875 0.583251953125 0.00506591796875 0.60150146484375 0.18341064453125 0.62762451171875 0.239013671875 0.65692138671875 0.1573486328125 0.63702392578125 0.23699951171875 0.67633056640625 0.18414306640625 0.68646240234375 0.1890869140625 0.712890625 0.187744140625 0.72918701171875 0.1866455078125 0.74908447265625 0.22747802734375 0.74951171875 0.219970703125 0.76202392578125 0.273681640625 0.76422119140625 0.2501220703125 0.76861572265625 0.234375 0.80303955078125 0.223876953125 0.794921875 0.197265625 0.81121826171875 0.58197021484375 0.66094970703125 0.57269287109375 0.64996337890625 0.5472412109375 0.69036865234375 0.5435791015625 0.69091796875 0.5430908203125 0.6898193359375 0.52972412109375 0.6795654296875 0.530029296875 0.679443359375 0.51898193359375 0.67138671875 0.5191650390625 0.671630859375 0.50604248046875 0.66436767578125 0.50714111328125 0.5936279296875 0.5264892578125 0.6005859375 0.53033447265625 0.6793212890625 0.55279541015625 0.61956787109375 0.54254150390625 0.688720703125 0.5487060546875 0.6873779296875 0.5291748046875 0.6798095703125 0.518798828125 0.671142578125 0.50616455078125 0.66436767578125 0.54278564453125 0.68927001953125 0.54833984375 0.6881103515625 0.54730224609375 0.689697265625 0.08135986328125 0.62200927734375 0.0850830078125 0.6165771484375 0.00506591796875 0.61376953125 0.3206787109375 0.67681884765625 0.314208984375 0.73394775390625 0.17437744140625 0.82489013671875 0.12689208984375 0.8424072265625 0.12518310546875 0.85382080078125 0.08782958984375 0.8544921875 0.0860595703125 0.86431884765625 0.04840087890625 0.8721923828125 0.08319091796875 0.89361572265625 0.00537109375 0.898193359375 0.0550537109375 0.92205810546875 0.00518798828125 0.91802978515625 0.006591796875 0.94927978515625 0.05096435546875 0.952880859375 0.0865478515625 0.925048828125 0.11016845703125 0.94970703125 0.15277099609375 0.93865966796875 0.5184326171875 0.67059326171875 0.50628662109375 0.66436767578125 0.5479736328125 0.68890380859375 0.50653076171875 0.6644287109375 0.547119140625 0.68896484375 0.5809326171875 0.6590576171875 0.257080078125 0.816162109375 0.20086669921875 0.8216552734375 0.20794677734375 0.85302734375 0.1719970703125 0.83795166015625 0.17047119140625 0.8702392578125 0.1287841796875 0.88323974609375 0.4384765625 0.75653076171875 0.4765625 0.75531005859375 0.43890380859375 0.71435546875 0.4752197265625 0.71441650390625 0.474365234375 0.6697998046875 0.47900390625 0.6700439453125 0.48004150390625 0.714599609375 0.48138427734375 0.75537109375 0.49224853515625 0.755126953125 0.49072265625 0.7139892578125 0.43939208984375 0.71307373046875 0.43902587890625 0.75616455078125 0.47589111328125 0.75494384765625 0.471435546875 0.776611328125 0.48944091796875 0.7740478515625 0.47698974609375 0.7991943359375 0.48199462890625 0.79925537109375 0.501953125 0.79833984375 0.5035400390625 0.842041015625 0.4412841796875 0.80133056640625 0.03924560546875 0.7073974609375 0.0394287109375 0.68499755859375 0.00506591796875 0.68450927734375 0.00506591796875 0.65997314453125 0.96173095703125 0.8587646484375 0.99212646484375 0.8558349609375 0.99212646484375 0.8685302734375 0.9427490234375 0.873046875 0.9312744140625 0.86163330078125 0.90380859375 0.8890380859375 0.88653564453125 0.87652587890625 0.87542724609375 0.9150390625 0.85125732421875 0.90411376953125 0.83673095703125 0.93951416015625 0.80377197265625 0.9239501953125 0.79766845703125 0.98199462890625 0.79339599609375 0.92254638671875 0.22967529296875 0.734619140625 0.28228759765625 0.75494384765625 0.321533203125 0.76800537109375 0.28778076171875 0.82733154296875 0.7437744140625 0.71478271484375 0.7203369140625 0.69952392578125 0.72747802734375 0.7657470703125 0.7105712890625 0.77008056640625 0.72802734375 0.81329345703125 0.7109375 0.82080078125 0.75628662109375 0.86444091796875 0.73974609375 0.8785400390625 0.77178955078125 0.932373046875 0.777099609375 0.98187255859375 0.76483154296875 0.9949951171875 0.72119140625 0.93438720703125 0.43988037109375 0.66961669921875 0.48822021484375 0.66986083984375 0.4893798828125 0.71124267578125 0.49090576171875 0.7547607421875 0.4803466796875 0.7550048828125 0.479248046875 0.71185302734375 0.474609375 0.711669921875 0.48150634765625 0.66973876953125 0.43975830078125 0.6695556640625 0.57598876953125 0.65673828125 0.4090576171875 0.70050048828125 0.407470703125 0.741943359375 0.34832763671875 0.7322998046875 0.3450927734375 0.78631591796875 0.32196044921875 0.76800537109375 0.32916259765625 0.82830810546875 0.2882080078125 0.82733154296875 0.30108642578125 0.87359619140625 0.27117919921875 0.88140869140625 0.310302734375 0.90155029296875 0.27862548828125 0.9215087890625 0.05487060546875 0.86328125 0.0048828125 0.871826171875 0.1959228515625 0.92108154296875 0.239013671875 0.89971923828125 0.26104736328125 0.92095947265625 0.4395751953125 0.6680908203125 0.48809814453125 0.67047119140625 0.4429931640625 0.7789306640625 0.4432373046875 0.84375 0.4779052734375 0.84417724609375 0.47869873046875 0.88934326171875 0.48388671875 0.88897705078125 0.4830322265625 0.90081787109375 0.486083984375 0.669921875 0.4432373046875 0.8436279296875 0.00506591796875 0.72857666015625 0.00506591796875 0.705078125 0.25152587890625 0.71466064453125 0.29034423828125 0.744384765625 0.8092041015625 0.8558349609375 0.83282470703125 0.83465576171875 0.837646484375 0.8687744140625 0.87774658203125 0.8392333984375 0.92706298828125 0.82489013671875 0.006591796875 0.9637451171875 0.05279541015625 0.96710205078125 0.05126953125 0.952880859375 0.06671142578125 0.974609375 0.1104736328125 0.94970703125 0.1090087890625 0.9820556640625 0.14532470703125 0.97509765625 0.19873046875 0.96142578125 0.3824462890625 0.7984619140625 0.364501953125 0.83349609375 0.342041015625 0.8685302734375 0.3319091796875 0.880615234375 0.97271728515625 0.78546142578125 0.93267822265625 0.7900390625 0.8775634765625 0.804931640625 0.270751953125 0.88140869140625 0.50775146484375 0.888916015625 0.48504638671875 0.88970947265625 0.50531005859375 0.84283447265625 0.48406982421875 0.84503173828125 0.4830322265625 0.7999267578125 0.47882080078125 0.84490966796875 0.47772216796875 0.7998046875 0.44293212890625 0.8477783203125 0.44073486328125 0.8040771484375 0.94036865234375 0.943603515625 0.94879150390625 0.92535400390625 0.95513916015625 0.92535400390625 0.9766845703125 0.92364501953125 0.9766845703125 0.93731689453125 0.9500732421875 0.94091796875 0.9425048828125 0.971435546875 0.693603515625 0.68499755859375 0.67584228515625 0.7603759765625 0.67132568359375 0.680908203125 0.65399169921875 0.7498779296875 0.46490478515625 0.7755126953125 0.43829345703125 0.781005859375 0.7452392578125 0.93756103515625 0.6754150390625 0.798583984375 0.67987060546875 0.826904296875 0.652099609375 0.79150390625 0.6556396484375 0.8232421875 0.713623046875 0.88568115234375 0.6890869140625 0.88232421875 0.7952880859375 0.89697265625 0.006591796875 0.99114990234375 0.025634765625 0.99169921875 0.05517578125 0.99029541015625 0.3211669921875 0.67681884765625 0.314697265625 0.73394775390625 0.49078369140625 0.77288818359375 0.58148193359375 0.65997314453125 0.5809326171875 0.65899658203125 0.58099365234375 0.65911865234375 0.483154296875 0.8441162109375 0.50592041015625 0.88824462890625 0.83837890625 0.98394775390625 0.85931396484375 0.99468994140625 0.8624267578125 0.94683837890625 0.47808837890625 0.79986572265625 0.503662109375 0.7969970703125 0.47967529296875 0.89007568359375 0.438720703125 0.89361572265625 0.24053955078125 0.92803955078125 0.23297119140625 0.943603515625 0.484130859375 0.90679931640625 0.43853759765625 0.90936279296875 0.4390869140625 0.894775390625 0.43890380859375 0.90704345703125 0.004150390625 0.86395263671875 0.54742431640625 0.69036865234375 0.48614501953125 0.66949462890625 0.48004150390625 0.66912841796875 0.487060546875 0.67041015625 0.44012451171875 0.66912841796875 0.43951416015625 0.6705322265625 0.9766845703125 0.97015380859375 0.486328125 0.67010498046875 0.487060546875 0.66912841796875 0.48004150390625 0.67047119140625 0.43951416015625 0.66912841796875 0.44024658203125 0.6705322265625 0.9595947265625 0.82183837890625 0.4390869140625 0.8946533203125 0.477783203125 0.7998046875</float_array>
                    <technique_common>
                        <accessor count="284" source="#uvarray2" stride="2">
                            <param name="S" type="float"/>
                            <param name="T" type="float"/>
                        </accessor>
                    </technique_common>
                </source>
                <vertices id="vertices2">
                    <input semantic="POSITION" source="#points2"/>
                </vertices>
                <polylist count="830" material="Material1">
                    <input offset="0" semantic="VERTEX" source="#vertices2"/>
                    <input offset="1" semantic="TEXCOORD" source="#uvs2" set="0"/>
                    <vcount>3 3 3 3 3 3 3 3 3 3 3 3 3 3 3 3 3 3 3 3 3 3 3 3 3 3 3 3 3 3 3 3 3 3 3 3 3 3 3 3 3 3 3 3 3 3 3 3 3 3 3 3 3 3 3 3 3 3 3 3 3 3 3 3 3 3 3 3 3 3 3 3 3 3 3 3 3 3 3 3 3 3 3 3 3 3 3 3 3 3 3 3 3 3 3 3 3 3 3 3 3 3 3 3 3 3 3 3 3 3 3 3 3 3 3 3 3 3 3 3 3 3 3 3 3 3 3 3 3 3 3 3 3 3 3 3 3 3 3 3 3 3 3 3 3 3 3 3 3 3 3 3 3 3 3 3 3 3 3 3 3 3 3 3 3 3 3 3 3 3 3 3 3 3 3 3 3 3 3 3 3 3 3 3 3 3 3 3 3 3 3 3 3 3 3 3 3 3 3 3 3 3 3 3 3 3 3 3 3 3 3 3 3 3 3 3 3 3 3 3 3 3 3 3 3 3 3 3 3 3 3 3 3 3 3 3 3 3 3 3 3 3 3 3 3 3 3 3 3 3 3 3 3 3 3 3 3 3 3 3 3 3 3 3 3 3 3 3 3 3 3 3 3 3 3 3 3 3 3 3 3 3 3 3 3 3 3 3 3 3 3 3 3 3 3 3 3 3 3 3 3 3 3 3 3 3 3 3 3 3 3 3 3 3 3 3 3 3 3 3 3 3 3 3 3 3 3 3 3 3 3 3 3 3 3 3 3 3 3 3 3 3 3 3 3 3 3 3 3 3 3 3 3 3 3 3 3 3 3 3 3 3 3 3 3 3 3 3 3 3 3 3 3 3 3 3 3 3 3 3 3 3 3 3 3 3 3 3 3 3 3 3 3 3 3 3 3 3 3 3 3 3 3 3 3 3 3 3 3 3 3 3 3 3 3 3 3 3 3 3 3 3 3 3 3 3 3 3 3 3 3 3 3 3 3 3 3 3 3 3 3 3 3 3 3 3 3 3 3 3 3 3 3 3 3 3 3 3 3 3 3 3 3 3 3 3 3 3 3 3 3 3 3 3 3 3 3 3 3 3 3 3 3 3 3 3 3 3 3 3 3 3 3 3 3 3 3 3 3 3 3 3 3 3 3 3 3 3 3 3 3 3 3 3 3 3 3 3 3 3 3 3 3 3 3 3 3 3 3 3 3 3 3 3 3 3 3 3 3 3 3 3 3 3 3 3 3 3 3 3 3 3 3 3 3 3 3 3 3 3 3 3 3 3 3 3 3 3 3 3 3 3 3 3 3 3 3 3 3 3 3 3 3 3 3 3 3 3 3 3 3 3 3 3 3 3 3 3 3 3 3 3 3 3 3 3 3 3 3 3 3 3 3 3 3 3 3 3 3 3 3 3 3 3 3 3 3 3 3 3 3 3 3 3 3 3 3 3 3 3 3 3 3 3 3 3 3 3 3 3 3 3 3 3 3 3 3 3 3 3 3 3 3 3 3 3 3 3 3 3 3 3 3 3 3 3 3 3 3 3 3 3 3 3 3 3 3 3 3 3 3 3 3 3 3 3 3 3 3 3 3 3 3 3 3 3 3 3 3 3 3 3 3 3 3 3 3 3 3 3 3 3 3 3 3 3 3 3 3 3 3 3 3 3 3 3 3 3 3 3 3 3 3 3 3 3 3 3 3 3 3 3 3 3 3 3 3 3 3 3 3 3 3 3 3 3 3 3 3 3 3 3 3 3 3 3 3 3 3 3 3 3 3 3 3 3 3 3 3 3 3 3 3 3 3 3 3 3 3 3 3 3 3 3 3 3 3 3 3 3 3 3 3 3 3 3 3 3 3 3 3 3 3 3 3 3 3 3 3 3</vcount>
                    <p>2 2 1 1 0 0 3 3 1 1 2 2 4 4 3 3 2 2 5 5 3 3 4 4 6 6 5 5 4 4 7 7 5 5 6 6 8 8 7 7 6 6 9 9 7 7 8 8 10 10 9 9 8 8 11 11 9 9 10 10 12 12 11 11 10 10 13 13 11 11 12 12 14 14 13 13 12 12 15 12 13 13 14 14 16 15 15 12 14 14 17 10 15 12 16 15 18 8 17 10 16 15 19 9 17 10 18 8 20 7 19 9 18 8 21 16 19 9 20 7 22 17 21 16 20 7 23 18 21 16 22 17 24 19 23 18 22 17 25 20 23 18 24 19 26 21 25 20 24 19 27 19 25 20 26 21 28 22 27 19 26 21 29 23 27 19 28 22 30 24 29 23 28 22 3 3 29 23 30 24 31 25 3 3 30 24 1 1 3 3 31 25 34 28 33 27 32 26 35 29 33 27 34 28 36 30 35 29 34 28 37 28 35 29 36 30 38 31 37 28 36 30 39 32 37 28 38 31 40 33 39 32 38 31 41 34 39 32 40 33 42 35 41 34 40 33 43 36 41 34 42 35 4 4 43 36 42 35 44 37 43 36 4 4 2 2 44 37 4 4 45 38 44 37 2 2 0 0 45 38 2 2 46 39 45 38 0 0 47 40 46 39 0 0 48 41 46 39 47 40 49 42 48 41 47 40 50 43 48 41 49 42 51 44 50 43 49 42 52 45 50 43 51 44 55 48 54 47 53 46 56 49 54 47 55 48 57 50 56 49 55 48 58 51 56 49 57 50 59 52 58 51 57 50 60 53 58 51 59 52 61 54 60 53 59 52 62 55 60 53 61 54 26 56 62 55 61 54 63 54 62 55 26 56 64 57 63 54 26 56 65 58 63 54 64 57 66 59 65 58 64 57 67 60 65 58 66 59 68 47 67 60 66 59 69 61 67 60 68 47 56 49 70 59 54 47 71 62 70 59 56 49 58 51 71 62 56 49 72 63 71 62 58 51 60 53 72 63 58 51 73 64 72 63 60 53 62 55 73 64 60 53 74 53 73 64 62 55 63 54 74 53 62 55 75 52 74 53 63 54 65 58 75 52 63 54 76 65 75 52 65 58 67 60 76 65 65 58 77 66 76 65 67 60 69 61 77 66 67 60 78 67 77 66 69 61 42 35 6 6 4 4 8 8 6 6 42 35 40 33 8 8 42 35 79 68 8 8 40 33 80 69 79 68 40 33 81 70 79 68 80 69 36 30 81 70 80 69 82 69 81 70 36 30 83 31 82 69 36 30 84 33 82 69 83 31 85 32 84 33 83 31 86 34 84 33 85 32 87 71 86 34 85 32 88 72 86 34 87 71 91 75 90 74 89 73 92 76 90 74 91 75 93 77 92 76 91 75 94 78 92 76 93 77 95 79 94 78 93 77 96 80 94 78 95 79 97 81 96 80 95 79 98 82 96 80 97 81 99 83 98 82 97 81 100 81 98 82 99 83 101 84 100 81 99 83 102 85 100 81 101 84 103 86 102 85 101 84 104 87 102 85 103 86 71 62 105 57 70 59 106 88 105 57 71 62 72 63 106 88 71 62 107 89 106 88 72 63 73 64 107 89 72 63 108 63 107 89 73 64 74 53 108 63 73 64 109 51 108 63 74 53 75 52 109 51 74 53 110 50 109 51 75 52 76 65 110 50 75 52 111 90 110 50 76 65 77 66 111 90 76 65 78 67 111 90 77 66 106 88 112 56 105 57 113 91 112 56 106 88 107 89 113 91 106 88 114 88 113 91 107 89 108 63 114 88 107 89 115 62 114 88 108 63 109 51 115 62 108 63 116 49 115 62 109 51 110 50 116 49 109 51 117 48 116 49 110 50 111 90 117 48 110 50 118 92 117 48 111 90 78 67 118 92 111 90 119 93 118 92 78 67 121 41 119 42 120 40 122 43 119 42 121 41 123 94 122 43 121 41 124 95 122 43 123 94 125 96 124 95 123 94 126 97 124 95 125 96 127 98 126 97 125 96 91 75 126 97 127 98 128 99 91 75 127 98 95 79 91 75 128 99 129 85 95 79 128 99 97 81 95 79 129 85 130 84 97 81 129 85 99 83 97 81 130 84 133 102 132 101 131 100 134 103 132 101 133 102 135 104 134 103 133 102 136 105 134 103 135 104 137 103 136 105 135 104 138 106 136 105 137 103 139 101 138 106 137 103 140 107 138 106 139 101 141 101 140 107 139 101 142 108 140 107 141 101 143 109 142 108 141 101 138 106 142 108 143 109 136 105 138 106 143 109 146 112 145 111 144 110 147 113 145 111 146 112 148 114 147 113 146 112 149 115 147 113 148 114 150 115 149 115 148 114 151 116 149 115 150 115 152 117 151 116 150 115 153 118 151 116 152 117 150 115 153 118 152 117 154 119 153 118 150 115 155 112 154 119 150 115 156 111 154 119 155 112 157 110 156 111 155 112 5 5 29 23 3 3 158 17 29 23 5 5 7 7 158 17 5 5 159 16 158 17 7 7 9 9 159 16 7 7 160 120 159 16 9 9 161 121 160 120 9 9 162 122 160 120 161 121 163 123 162 122 161 121 164 121 162 122 163 123 165 11 164 121 163 123 19 9 164 121 165 11 17 10 19 9 165 11 168 126 167 125 166 124 169 124 167 125 168 126 170 127 169 124 168 126 171 128 169 124 170 127 172 129 171 128 170 127 173 130 171 128 172 129 174 131 173 130 172 129 175 132 173 130 174 131 176 133 175 132 174 131 177 134 175 132 176 133 178 135 177 134 176 133 179 136 177 134 178 135 180 3 68 25 66 24 181 1 68 25 180 3 182 2 181 1 180 3 183 0 181 1 182 2 184 38 183 0 182 2 185 39 183 0 184 38 186 137 185 39 184 38 121 41 185 39 186 137 187 138 121 41 186 137 123 94 121 41 187 138 188 139 123 94 187 138 189 140 123 94 188 139 192 143 191 142 190 141 193 144 191 142 192 143 194 145 193 144 192 143 195 146 193 144 194 145 196 147 195 146 194 145 197 148 195 146 196 147 179 136 197 148 196 147 198 149 197 148 179 136 178 135 198 149 179 136 199 150 198 149 178 135 200 151 199 150 178 135 201 152 199 150 200 151 157 110 203 154 202 153 204 155 203 154 157 110 155 112 204 155 157 110 205 156 204 155 155 112 206 157 205 156 155 112 207 158 205 156 206 157 146 112 207 158 206 157 208 159 207 158 146 112 144 110 208 159 146 112 209 160 208 159 144 110 210 161 209 160 144 110 89 46 118 92 211 162 117 48 118 92 89 46 90 47 117 48 89 46 116 49 117 48 90 47 92 59 116 49 90 47 115 62 116 49 92 59 212 57 115 62 92 59 114 88 115 62 212 57 112 56 114 88 212 57 113 91 114 88 112 56 24 19 64 22 26 21 213 23 64 22 24 19 22 17 213 23 24 19 214 5 213 23 22 17 20 7 214 5 22 17 215 6 214 5 20 7 18 8 215 6 20 7 216 35 215 6 18 8 84 33 216 35 18 8 86 34 216 35 84 33 217 92 53 46 52 162 55 48 53 46 217 92 218 90 55 48 217 92 57 50 55 48 218 90 219 65 57 50 218 90 59 52 57 50 219 65 220 58 59 52 219 65 61 54 59 52 220 58 28 57 61 54 220 58 26 56 61 54 28 57 223 165 222 164 221 163 224 166 222 164 223 165 225 167 224 166 223 165 226 168 224 166 225 167 227 169 226 168 225 167 228 170 226 168 227 169 229 171 228 170 227 169 230 172 228 170 229 171 231 173 230 172 229 171 94 78 212 174 92 76 232 175 212 174 94 78 96 80 232 175 94 78 233 78 232 175 96 80 234 79 233 78 96 80 235 77 233 78 234 79 236 75 235 77 234 79 70 76 235 77 236 75 54 74 70 76 236 75 100 81 96 80 98 82 234 79 96 80 100 81 102 85 234 79 100 81 237 99 234 79 102 85 104 87 237 99 102 85 238 98 237 99 104 87 239 176 238 98 104 87 240 177 238 98 239 176 241 178 240 177 239 176 244 102 243 180 242 179 245 109 243 180 244 102 246 101 245 109 244 102 247 108 245 109 246 101 248 107 247 108 246 101 249 106 247 108 248 107 132 101 249 106 248 107 134 103 249 106 132 101 147 113 250 181 145 111 251 119 250 181 147 113 149 115 251 119 147 113 252 182 251 119 149 115 253 183 252 182 149 115 254 184 252 182 253 183 255 185 254 184 253 183 256 186 254 184 255 185 259 112 258 110 257 111 260 159 258 110 259 112 261 158 260 159 259 112 262 187 260 159 261 158 263 155 262 187 261 158 203 154 262 187 263 155 264 110 203 154 263 155 202 153 203 154 264 110 267 119 266 118 265 188 268 115 266 118 267 119 269 112 268 115 267 119 270 114 268 115 269 112 259 112 270 114 269 112 271 113 270 114 259 112 257 111 271 113 259 112 272 181 271 113 257 111 273 18 25 20 27 19 274 189 25 20 273 18 160 120 274 189 273 18 275 190 274 189 160 120 162 122 275 190 160 120 276 120 275 190 162 122 164 121 276 120 162 122 19 9 276 120 164 121 277 4 182 2 180 3 278 37 182 2 277 4 279 36 278 37 277 4 186 137 278 37 279 36 280 191 186 137 279 36 281 192 186 137 280 191 88 72 281 192 280 191 188 139 281 192 88 72 284 195 283 194 282 193 285 196 283 194 284 195 286 130 285 196 284 195 287 197 285 196 286 130 288 128 287 197 286 130 166 124 287 197 288 128 289 127 166 124 288 128 168 126 166 124 289 127 291 199 99 83 290 198 101 200 99 83 291 199 292 201 101 200 291 199 103 202 101 200 292 201 293 203 103 202 292 201 104 87 103 202 293 203 294 204 104 87 293 203 295 205 104 87 294 204 224 166 296 206 222 164 297 207 296 206 224 166 226 168 297 207 224 166 298 208 297 207 226 168 228 170 298 208 226 168 299 209 298 208 228 170 230 172 299 209 228 170 302 197 301 211 300 210 303 212 301 211 302 197 304 196 303 212 302 197 305 194 303 212 304 196 306 195 305 194 304 196 307 193 305 194 306 195 177 134 307 193 306 195 227 140 308 96 229 213 309 94 308 96 227 140 225 139 309 94 227 140 310 138 309 94 225 139 311 192 310 138 225 139 312 137 310 138 311 192 313 191 312 137 311 192 316 216 315 215 314 214 317 217 315 215 316 216 318 218 317 217 316 216 319 219 317 217 318 218 320 220 319 219 318 218 321 221 319 219 320 220 322 222 321 221 320 220 325 220 324 221 323 222 326 219 324 221 325 220 327 218 326 219 325 220 328 217 326 219 327 218 329 216 328 217 327 218 330 215 328 217 329 216 331 214 330 215 329 216 332 119 271 113 272 181 333 115 271 113 332 119 334 182 333 115 332 119 335 183 333 115 334 182 336 184 335 183 334 182 337 185 335 183 336 184 338 186 337 185 336 184 341 225 340 224 339 223 342 226 340 224 341 225 343 227 342 226 341 225 344 225 342 226 343 227 345 228 344 225 343 227 346 223 344 225 345 228 169 229 346 223 345 228 213 23 66 24 64 22 180 3 66 24 213 23 214 5 180 3 213 23 277 4 180 3 214 5 215 6 277 4 214 5 216 35 277 4 215 6 333 115 270 114 271 113 268 115 270 114 333 115 347 116 268 115 333 115 348 117 268 115 347 116 266 118 348 117 347 116 268 115 348 117 266 118 349 67 218 90 217 92 350 66 218 90 349 67 351 61 350 66 349 67 352 60 350 66 351 61 31 47 352 60 351 61 30 59 352 60 31 47 355 142 354 143 353 141 356 144 354 143 355 142 357 230 356 144 355 142 358 231 356 144 357 230 359 232 358 231 357 230 360 233 358 231 359 232 361 102 137 103 135 104 139 101 137 103 361 102 362 100 139 101 361 102 363 234 139 101 362 100 364 235 363 234 362 100 322 222 363 234 364 235 263 155 269 112 264 110 365 156 269 112 263 155 261 158 365 156 263 155 366 157 365 156 261 158 259 112 366 157 261 158 269 112 366 157 259 112 369 148 368 136 367 147 370 149 368 136 369 148 371 236 370 149 369 148 372 150 370 149 371 236 373 152 372 150 371 236 374 151 372 150 373 152 356 144 375 145 354 143 376 146 375 145 356 144 377 237 376 146 356 144 378 238 376 146 377 237 379 239 378 238 377 237 380 240 378 238 379 239 376 146 367 147 375 145 369 148 367 147 376 146 381 241 369 148 376 146 371 236 369 148 381 241 382 242 371 236 381 241 373 152 371 236 382 242 384 134 282 193 383 243 284 195 282 193 384 134 385 132 284 195 384 134 286 130 284 195 385 132 386 131 286 130 385 132 387 129 286 130 386 131 122 43 388 44 119 42 211 45 388 44 122 43 124 95 211 45 122 43 89 73 211 45 124 95 126 97 89 73 124 95 91 75 89 73 126 97 389 199 99 83 130 200 290 198 99 83 389 199 390 244 290 198 389 199 291 199 290 198 390 244 391 245 291 199 390 244 392 246 291 199 391 245 395 203 394 202 393 87 396 201 394 202 395 203 397 246 396 201 395 203 389 199 396 201 397 246 398 245 389 199 397 246 390 244 389 199 398 245 236 75 53 73 54 74 399 97 53 73 236 75 238 98 399 97 236 75 308 96 399 97 238 98 240 177 308 96 238 98 229 213 308 96 240 177 48 41 310 138 312 137 309 94 310 138 48 41 50 43 309 94 48 41 400 95 309 94 50 43 52 45 400 95 50 43 53 73 400 95 52 45 11 11 161 121 9 9 163 123 161 121 11 11 13 13 163 123 11 11 165 11 163 123 13 13 15 12 165 11 13 13 17 10 165 11 15 12 41 34 402 72 401 71 313 191 402 72 41 34 43 36 313 191 41 34 312 137 313 191 43 36 44 37 312 137 43 36 45 38 312 137 44 37 32 163 87 247 34 28 403 165 87 247 32 163 404 164 403 165 32 163 405 166 403 165 404 164 406 206 405 166 404 164 407 207 405 166 406 206 403 165 88 248 87 247 188 167 88 248 403 165 405 166 188 167 403 165 408 168 188 167 405 166 407 207 408 168 405 166 409 208 408 168 407 207 411 249 246 101 410 220 132 101 246 101 411 249 412 234 132 101 411 249 131 100 132 101 412 234 413 235 131 100 412 234 195 146 414 237 193 144 415 238 414 237 195 146 416 241 415 238 195 146 417 240 415 238 416 241 418 242 417 240 416 241 193 144 241 230 191 142 419 231 241 230 193 144 414 237 419 231 193 144 420 233 419 231 414 237 421 239 420 233 414 237 349 67 47 251 0 250 49 93 47 251 349 67 217 92 49 93 349 67 51 252 49 93 217 92 52 162 51 252 217 92 335 183 347 116 333 115 422 253 347 116 335 183 337 185 422 253 335 183 266 118 422 253 337 185 338 254 266 118 337 185 255 185 153 118 256 254 423 253 153 118 255 185 253 183 423 253 255 185 151 116 423 253 253 183 149 115 151 116 253 183 425 177 125 96 424 213 127 98 125 96 425 177 426 176 127 98 425 177 393 87 127 98 426 176 374 151 427 135 372 150 428 255 427 135 374 151 429 256 428 255 374 151 430 257 428 255 429 256 431 257 176 133 174 131 432 255 176 133 431 257 433 256 432 255 431 257 200 151 432 255 433 256 306 195 175 132 177 134 173 130 175 132 306 195 304 196 173 130 306 195 302 197 173 130 304 196 393 87 128 99 127 98 129 85 128 99 393 87 394 86 129 85 393 87 130 84 129 85 394 86 368 136 384 134 383 243 427 135 384 134 368 136 370 149 427 135 368 136 372 150 427 135 370 149 81 70 14 14 79 68 434 68 14 14 81 70 82 69 434 68 81 70 84 33 434 68 82 69 197 148 416 241 195 146 435 236 416 241 197 148 198 149 435 236 197 148 199 150 435 236 198 149 158 17 27 19 29 23 273 18 27 19 158 17 159 16 273 18 158 17 160 120 273 18 159 16 410 258 327 218 325 220 436 259 327 218 410 258 329 216 436 259 410 258 327 218 436 259 329 216 412 234 323 222 413 235 325 220 323 222 412 234 411 249 325 220 412 234 410 258 325 220 411 249 319 219 315 215 317 217 437 260 315 215 319 219 321 221 437 260 319 219 438 261 437 260 321 221 408 168 189 169 188 167 439 170 189 169 408 168 409 208 439 170 408 168 440 209 439 170 409 208 357 178 425 177 424 171 426 176 425 177 357 178 355 262 426 176 357 178 353 263 426 176 355 262 441 205 426 176 353 263 393 87 426 176 441 205 442 204 393 87 441 205 395 203 393 87 442 204 401 247 221 163 37 28 223 165 221 163 401 247 402 248 223 165 401 247 225 167 223 165 402 248 330 215 326 219 328 217 443 260 326 219 330 215 331 264 443 260 330 215 444 265 443 260 331 264 239 176 191 262 241 178 190 263 191 262 239 176 295 205 190 263 239 176 246 101 445 222 410 258 446 100 445 222 246 101 244 102 446 100 246 101 274 189 23 18 25 20 276 120 23 18 274 189 275 190 276 120 274 189 439 170 424 171 189 169 447 172 424 171 439 170 440 209 447 172 439 170 400 95 308 96 309 94 399 97 308 96 400 95 53 73 399 97 400 95 204 155 262 187 203 154 207 158 262 187 204 155 205 156 207 158 204 155 448 15 14 14 12 12 79 68 14 14 448 15 8 8 79 68 448 15 254 184 449 266 252 182 450 267 449 266 254 184 256 186 450 267 254 184 232 175 112 268 212 174 105 174 112 268 232 175 233 78 105 174 232 175 69 61 183 250 78 269 181 46 183 250 69 61 68 47 181 46 69 61 249 106 245 109 247 108 136 105 245 109 249 106 134 103 136 105 249 106 452 259 316 216 451 258 318 218 316 216 452 259 451 258 318 218 452 259 363 234 453 249 139 101 320 220 453 249 363 234 322 222 320 220 363 234 336 184 454 267 338 186 455 266 454 267 336 184 334 182 455 266 336 184 329 219 444 261 331 260 456 221 444 261 329 219 445 222 456 221 329 219 220 58 30 59 28 57 352 60 30 59 220 58 219 65 352 60 220 58 459 272 458 271 457 270 460 273 458 271 459 272 461 274 460 273 459 272 462 228 341 225 339 223 343 227 341 225 462 228 167 275 343 227 462 228 463 133 384 134 427 135 385 132 384 134 463 133 386 131 385 132 463 133 209 278 203 277 262 276 202 279 203 277 209 278 210 280 202 279 209 278 381 241 380 240 382 242 378 238 380 240 381 241 376 146 378 238 381 241 377 237 360 233 379 239 358 231 360 233 377 237 356 144 358 231 377 237 171 128 302 197 169 124 173 130 302 197 171 128 0 250 351 61 349 269 1 46 351 61 0 250 346 281 302 197 300 210 169 124 302 197 346 281 85 32 34 28 87 71 83 31 34 28 85 32 38 31 80 69 40 33 36 30 80 69 38 31 39 32 401 71 37 28 41 34 401 71 39 32 359 173 424 171 447 172 357 178 424 171 359 173 458 271 459 272 457 270 460 273 459 272 458 271 21 16 276 120 19 9 23 18 276 120 21 16 166 229 462 228 339 223 167 275 462 228 166 229 464 222 141 101 451 258 465 100 141 101 464 222 466 102 141 101 465 100 143 109 141 101 466 102 428 255 463 133 427 135 430 257 463 133 428 255 467 27 37 28 221 26 35 29 37 28 467 27 468 243 177 134 179 136 307 193 177 134 468 243 345 228 167 275 169 229 343 227 167 275 345 228 288 128 387 129 289 127 286 130 387 129 288 128 300 224 344 225 346 223 342 226 344 225 300 224 120 251 78 67 183 250 119 93 78 67 120 251 448 15 10 10 8 8 12 12 10 10 448 15 18 8 434 68 84 33 16 15 434 68 18 8 339 281 287 197 166 124 340 210 287 197 339 281 469 211 287 197 340 210 470 212 287 197 469 211 470 212 285 196 287 197 283 194 285 196 470 212 203 277 209 278 262 276 202 279 209 278 203 277 415 238 421 239 414 237 417 240 421 239 415 238 432 255 178 135 176 133 200 151 178 135 432 255 201 152 435 236 199 150 418 242 435 236 201 152 419 231 231 232 241 230 420 233 231 232 419 231 141 101 453 249 451 220 139 101 453 249 141 101 342 226 471 226 340 224 300 224 471 226 342 226 148 114 155 112 150 115 146 112 155 112 148 114 472 265 437 260 438 261 314 264 437 260 472 265 454 282 266 118 338 184 265 188 266 118 454 282 136 105 243 180 245 109 143 109 243 180 136 105 473 111 269 112 267 119 264 110 269 112 473 111 320 220 451 258 453 249 318 218 451 258 320 220 474 179 135 104 133 102 361 102 135 104 474 179 258 110 209 160 210 161 260 159 209 160 258 110 229 171 241 178 231 173 240 177 241 178 229 171 292 201 392 246 293 203 291 199 392 246 292 201 350 66 219 65 218 90 352 60 219 65 350 66 388 252 118 92 119 93 211 162 118 92 388 252 46 39 312 137 45 38 48 41 312 137 46 39 189 140 125 96 123 94 424 213 125 96 189 140 185 39 120 40 183 0 121 41 120 40 185 39 278 37 184 38 182 2 186 137 184 38 278 37 86 34 280 191 279 36 88 72 280 191 86 34 216 35 279 36 277 4 86 34 279 36 216 35 187 138 281 192 188 139 186 137 281 192 187 138 475 261 443 260 444 265 324 221 443 260 475 261 311 192 402 72 313 191 225 139 402 72 311 192 237 99 236 75 234 79 238 98 236 75 237 99 70 76 233 78 235 77 105 174 233 78 70 76 396 201 130 200 394 202 389 199 130 200 396 201 472 261 316 219 314 260 476 221 316 219 472 261 464 222 316 219 476 221 451 283 316 219 464 222 243 180 466 102 242 179 143 109 466 102 243 180 208 159 262 187 207 158 209 160 262 187 208 159 477 188 153 118 154 119 450 282 153 118 477 188 155 112 146 112 206 157 324 221 326 219 443 260 34 28 83 31 36 30 418 242 416 241 435 236 460 273 461 274 459 272 16 15 14 14 434 68 463 133 430 257 386 131 239 176 104 87 295 205 351 61 1 46 31 47 91 75 95 79 93 77 202 279 210 280 209 278 437 260 314 264 315 215 246 101 132 101 248 107 262 187 209 160 260 159 153 118 450 282 256 184 266 118 347 116 422 253 269 112 365 156 366 157 329 219 410 283 445 222 153 118 423 253 151 116 142 108 138 106 140 107</p>
                </polylist>
            </mesh>
        </geometry>
    </library_geometries>
    <library_visual_scenes>
        <visual_scene id="VisualSceneNode">
            <node id="node0" name="m0" type="NODE">
                <instance_geometry url="#mesh0">
                    <bind_material>
                        <technique_common>
                            <instance_material symbol="Material1" target="#mat0">
                                <bind_vertex_input semantic="UVSET0" input_semantic="TEXCOORD" input_set="0"></bind_vertex_input>
                            </instance_material>
                        </technique_common>
                    </bind_material>
                </instance_geometry>
            </node>
            <node id="node1" name="m1" type="NODE">
                <instance_geometry url="#mesh1">
                    <bind_material>
                        <technique_common>
                            <instance_material symbol="Material1" target="#mat2">
                                <bind_vertex_input semantic="UVSET0" input_semantic="TEXCOORD" input_set="0"></bind_vertex_input>
                            </instance_material>
                        </technique_common>
                    </bind_material>
                </instance_geometry>
            </node>
            <node id="node2" name="m2" type="NODE">
                <instance_geometry url="#mesh2">
                    <bind_material>
                        <technique_common>
                            <instance_material symbol="Material1" target="#mat1">
                                <bind_vertex_input semantic="UVSET0" input_semantic="TEXCOORD" input_set="0"></bind_vertex_input>
                            </instance_material>
                        </technique_common>
                    </bind_material>
                </instance_geometry>
            </node>
        </visual_scene>
    </library_visual_scenes>
    <scene>
        <instance_visual_scene url="#VisualSceneNode"></instance_visual_scene>
    </scene>
</COLLADA>
