<?xml version="1.0"?>
<COLLADA xmlns="http://www.collada.org/2005/11/COLLADASchema" version="1.4.1">
    <asset>
        <contributor>
            <authoring_tool>J3D Ripoff Exporter</authoring_tool>
        </contributor>
        <created>2024-08-18T22:44:35.365Z</created>
        <modified>2024-08-18T22:44:35.365Z</modified>
		<unit meter="0.01" name="centimeter" ></unit>
        <up_axis>Y_UP</up_axis>
    </asset>
    <library_images>
        <image id="tex0">
            <init_from>wilddonkey_skin.png</init_from>
        </image>
        <image id="tex1">
            <init_from>wilddonkey_eye.png</init_from>
        </image>
    </library_images>
    <library_effects>
        <effect id="effect0">
            <profile_COMMON>
                <newparam sid="surface0">
                    <surface type="2D">
                        <init_from>tex1</init_from>
                    </surface>
                </newparam>
                <newparam sid="sampler0">
                    <sampler2D>
                        <source>surface0</source>
                    </sampler2D>
                </newparam>
                <technique sid="COMMON">
                    <blinn>
                        <diffuse>
                            <texture texture="sampler0" texcoord="UVSET0"></texture>
                        </diffuse>
                    </blinn>
                </technique>
            </profile_COMMON>
        </effect>
        <effect id="effect1">
            <profile_COMMON>
                <newparam sid="surface1">
                    <surface type="2D">
                        <init_from>tex0</init_from>
                    </surface>
                </newparam>
                <newparam sid="sampler1">
                    <sampler2D>
                        <source>surface1</source>
                    </sampler2D>
                </newparam>
                <technique sid="COMMON">
                    <blinn>
                        <diffuse>
                            <texture texture="sampler1" texcoord="UVSET0"></texture>
                        </diffuse>
                    </blinn>
                </technique>
            </profile_COMMON>
        </effect>
        <effect id="effect2">
            <profile_COMMON>
                <newparam sid="surface2">
                    <surface type="2D">
                        <init_from>tex0</init_from>
                    </surface>
                </newparam>
                <newparam sid="sampler2">
                    <sampler2D>
                        <source>surface2</source>
                    </sampler2D>
                </newparam>
                <technique sid="COMMON">
                    <blinn>
                        <diffuse>
                            <texture texture="sampler2" texcoord="UVSET0"></texture>
                        </diffuse>
                    </blinn>
                </technique>
            </profile_COMMON>
        </effect>
    </library_effects>
    <library_materials>
        <material id="mat0" name="Eye">
            <instance_effect url="#effect0"></instance_effect>
        </material>
        <material id="mat1" name="Skin">
            <instance_effect url="#effect1"></instance_effect>
        </material>
        <material id="mat2" name="Skin_etc">
            <instance_effect url="#effect2"></instance_effect>
        </material>
    </library_materials>
    <library_geometries>
        <geometry id="mesh0">
            <mesh>
                <source id="points0">
                    <float_array id="pointarray0" count="54">52.35546875 -26.3203125 -24.2578125 51.375 -28.5 -25.17578125 55.8515625 -27.7578125 -20.53125 55.5390625 -32.34375 -19.88671875 58.68359375 -28.765625 -14.62109375 58.7421875 -30.06640625 -13.8515625 60.8359375 -29.01171875 -6.39453125 52.35546875 -26.3203125 24.2578125 55.8515625 -27.7578125 20.53125 51.375 -28.5 25.17578125 55.5390625 -32.34375 19.88671875 51.08984375 -31.72265625 25.078125 51.546875 -34.3984375 23.328125 60.8359375 -29.01171875 6.39453125 58.7421875 -30.06640625 13.8515625 58.68359375 -28.765625 14.62109375 51.08984375 -31.72265625 -25.078125 51.546875 -34.3984375 -23.328125</float_array>
                    <technique_common>
                        <accessor count="18" source="#pointarray0" stride="3">
                            <param name="X" type="float"/>
                            <param name="Y" type="float"/>
                            <param name="Z" type="float"/>
                        </accessor>
                    </technique_common>
                </source>
                <source id="uvs0">
                    <float_array id="uvarray0" count="18">0.88421630859375 0.34857177734375 0.89300537109375 0.424560546875 0.7108154296875 0.3331298828125 0.68475341796875 0.54498291015625 0.5115966796875 0.335693359375 0.48046875 0.4561767578125 0.26593017578125 0.37579345703125 0.9017333984375 0.50048828125 0.8389892578125 0.635009765625</float_array>
                    <technique_common>
                        <accessor count="9" source="#uvarray0" stride="2">
                            <param name="S" type="float"/>
                            <param name="T" type="float"/>
                        </accessor>
                    </technique_common>
                </source>
                <vertices id="vertices0">
                    <input semantic="POSITION" source="#points0"/>
                </vertices>
                <polylist count="14" material="Material1">
                    <input offset="0" semantic="VERTEX" source="#vertices0"/>
                    <input offset="1" semantic="TEXCOORD" source="#uvs0" set="0"/>
                    <vcount>3 3 3 3 3 3 3 3 3 3 3 3 3 3</vcount>
                    <p>2 2 1 1 0 0 3 3 1 1 2 2 4 4 3 3 2 2 5 5 3 3 4 4 6 6 5 5 4 4 9 1 8 2 7 0 10 3 8 2 9 1 11 7 10 3 9 1 12 8 10 3 11 7 15 4 14 5 13 6 10 3 14 5 15 4 8 2 10 3 15 4 3 3 16 7 1 1 17 8 16 7 3 3</p>
                </polylist>
            </mesh>
        </geometry>
        <geometry id="mesh1">
            <mesh>
                <source id="points1">
                    <float_array id="pointarray1" count="324">72.2890625 20.26171875 -33.84765625 74.37890625 21.70703125 -27.3203125 80.23828125 18.1171875 -29.04296875 79.0625 17.10546875 -18.44140625 86.76171875 14.2578125 -19.875 83.40625 12.65625 -9.56640625 89.8828125 10.125 -10.4453125 84.66796875 10.25390625 -0.01953125 91.6484375 7.49609375 -0.4140625 83.87109375 9.8125 9.4765625 90.86328125 6.77734375 9.61328125 80.1796875 10.93359375 18.11328125 87.78515625 7.859375 19.05859375 74.671875 14.265625 27.07421875 81.50390625 11.07421875 28.86328125 62.87890625 16.23046875 34.00390625 68.20703125 14.93359375 37.3203125 59.2265625 15.70703125 40.6953125 68.7578125 16.12890625 -37.203125 62.890625 18.27734375 -34.7578125 68.4140625 23.44921875 -30.91796875 64.05859375 15.359375 -30.34375 67.41015625 12.49609375 -27.14453125 72.08203125 -4.21484375 -26.97265625 78.71484375 -10.765625 -18.5 76.48046875 -3.26953125 -29.6171875 83.04296875 -9.96484375 -20.62109375 78.515625 1.4140625 0.1796875 76.9375 3.16796875 -9.12109375 84 -17.01171875 0.3828125 80.4140625 -14.6875 -8.67578125 86.765625 -13.81640625 -11.50390625 86.4140625 -16.9375 10.671875 82.2890625 -15.05859375 20.81640625 78.3828125 -15.01171875 19.48828125 73.4921875 -11.5859375 27.6875 73.4609375 2.984375 17.640625 67.6875 6.4375 27.3828125 87.94140625 -16.8515625 -0.4140625 82.49609375 -16.7734375 9.34765625 77.36328125 1.4609375 9.41015625 70.0859375 3.23046875 -34.8515625 65.37890625 2.046875 -31.37109375 68.12890625 10.01171875 -37.4140625 61.26171875 11.3984375 -34.4140625 60.734375 -29.71484375 -3.4453125 60.94140625 -28.13671875 -2.4296875 60.8359375 -29.01171875 -6.39453125 60.546875 -27.55078125 -8.515625 58.68359375 -28.765625 -14.62109375 58.453125 -26.3984375 -15.1796875 55.84765625 -24.9375 -20.31640625 72.72265625 6.61328125 -18.47265625 75.3203125 -10.3515625 30.72265625 60.80078125 -3.59765625 33.7734375 56.01953125 11.0703125 33.890625 56.25 12.37109375 42.05859375 54.43359375 11.8359375 39.56640625 56.421875 16.328125 38.27734375 54.0625 5.109375 38.08203125 65.62890625 -3.8671875 37.12890625 55.80859375 6.98046875 42.03515625 58.4921875 3.37109375 40.79296875 51.546875 -34.3984375 23.328125 55.5390625 -32.34375 19.88671875 54.71484375 -35.3515625 18.19140625 58.7421875 -30.06640625 13.8515625 58.55859375 -31.94140625 13.08203125 60.0859375 -30.23828125 6.78515625 58.453125 -26.3984375 15.1796875 58.68359375 -28.765625 14.62109375 55.84765625 -24.9375 20.31640625 55.8515625 -27.7578125 20.53125 53.26171875 -23.66015625 24.4609375 52.35546875 -26.3203125 24.2578125 47.7421875 -45.4140625 22.69140625 46.56640625 -38.76171875 26.9296875 49.4140625 -42.4921875 22.4765625 45.65234375 -32.90234375 30.16015625 51.08984375 -31.72265625 25.078125 60.0859375 -30.23828125 -6.78515625 58.7421875 -30.06640625 -13.8515625 58.55859375 -31.94140625 -13.08203125 54.71484375 -35.3515625 -18.19140625 49.828125 -21.62109375 28.36328125 47.04296875 -27.453125 30.2265625 51.375 -28.5 25.17578125 45.65234375 -32.90234375 -30.16015625 49.4140625 -42.4921875 -22.4765625 51.546875 -34.3984375 -23.328125 52.265625 -37.77734375 -20.890625 49.828125 -21.62109375 -28.36328125 47.04296875 -27.453125 -30.2265625 53.26171875 -23.66015625 -24.4609375 52.35546875 -26.3203125 -24.2578125 55.8515625 -27.7578125 -20.53125 52.265625 -37.77734375 20.890625 60.734375 -29.71484375 3.4453125 60.8359375 -29.01171875 6.39453125 60.94140625 -28.13671875 2.4296875 60.546875 -27.55078125 8.515625 51.375 -28.5 -25.17578125 51.08984375 -31.72265625 -25.078125 47.7421875 -45.4140625 -22.69140625 46.56640625 -38.76171875 -26.9296875 61.0859375 -28.03125 0 60.5859375 -29.51171875 0 55.5390625 -32.34375 -19.88671875</float_array>
                    <technique_common>
                        <accessor count="108" source="#pointarray1" stride="3">
                            <param name="X" type="float"/>
                            <param name="Y" type="float"/>
                            <param name="Z" type="float"/>
                        </accessor>
                    </technique_common>
                </source>
                <source id="uvs1">
                    <float_array id="uvarray1" count="150">0.58416748046875 0.65814208984375 0.53955078125 0.6812744140625 0.56475830078125 0.62969970703125 0.529296875 0.67730712890625 0.54779052734375 0.6109619140625 0.5172119140625 0.67041015625 0.5252685546875 0.59967041015625 0.505859375 0.66278076171875 0.5069580078125 0.59197998046875 0.519287109375 0.6700439453125 0.5267333984375 0.59893798828125 0.5306396484375 0.677734375 0.55352783203125 0.61798095703125 0.5430908203125 0.6871337890625 0.5738525390625 0.6483154296875 0.54937744140625 0.68572998046875 0.58331298828125 0.65936279296875 0.582763671875 0.65838623046875 0.57269287109375 0.66357421875 0.54644775390625 0.685791015625 0.54302978515625 0.68353271484375 0.5421142578125 0.68511962890625 0.54144287109375 0.6851806640625 0.5433349609375 0.6890869140625 0.53094482421875 0.677978515625 0.506103515625 0.66278076171875 0.517822265625 0.6705322265625 0.50634765625 0.66278076171875 0.5184326171875 0.67071533203125 0.5294189453125 0.67822265625 0.544189453125 0.6893310546875 0.530029296875 0.677978515625 0.54364013671875 0.688232421875 0.51849365234375 0.66900634765625 0.5189208984375 0.66949462890625 0.574462890625 0.6439208984375 0.544677734375 0.68896484375 0.57366943359375 0.6650390625 0.54608154296875 0.68878173828125 0.77880859375 0.67156982421875 0.83306884765625 0.67266845703125 0.8245849609375 0.68426513671875 0.874267578125 0.68182373046875 0.79913330078125 0.711669921875 0.76788330078125 0.703857421875 0.53009033203125 0.67767333984375 0.54791259765625 0.68878173828125 0.54864501953125 0.687255859375 0.582275390625 0.6573486328125 0.54791259765625 0.68804931640625 0.548095703125 0.68878173828125 0.54779052734375 0.6873779296875 0.582275390625 0.657470703125 0.5771484375 0.6551513671875 0.86724853515625 0.7330322265625 0.85858154296875 0.7064208984375 0.9034423828125 0.6993408203125 0.88348388671875 0.71826171875 0.90338134765625 0.69927978515625 0.93255615234375 0.7255859375 0.76702880859375 0.7041015625 0.79840087890625 0.7039794921875 0.98828125 0.76300048828125 0.92608642578125 0.715087890625 0.87066650390625 0.6771240234375 0.8404541015625 0.71466064453125 0.93585205078125 0.75054931640625 0.90362548828125 0.7391357421875 0.75189208984375 0.671875 0.814697265625 0.666748046875 0.8194580078125 0.70928955078125 0.79888916015625 0.750732421875 0.8363037109375 0.75732421875 0.8057861328125 0.72711181640625 0.8353271484375 0.73394775390625</float_array>
                    <technique_common>
                        <accessor count="75" source="#uvarray1" stride="2">
                            <param name="S" type="float"/>
                            <param name="T" type="float"/>
                        </accessor>
                    </technique_common>
                </source>
                <vertices id="vertices1">
                    <input semantic="POSITION" source="#points1"/>
                </vertices>
                <polylist count="140" material="Material1">
                    <input offset="0" semantic="VERTEX" source="#vertices1"/>
                    <input offset="1" semantic="TEXCOORD" source="#uvs1" set="0"/>
                    <vcount>3 3 3 3 3 3 3 3 3 3 3 3 3 3 3 3 3 3 3 3 3 3 3 3 3 3 3 3 3 3 3 3 3 3 3 3 3 3 3 3 3 3 3 3 3 3 3 3 3 3 3 3 3 3 3 3 3 3 3 3 3 3 3 3 3 3 3 3 3 3 3 3 3 3 3 3 3 3 3 3 3 3 3 3 3 3 3 3 3 3 3 3 3 3 3 3 3 3 3 3 3 3 3 3 3 3 3 3 3 3 3 3 3 3 3 3 3 3 3 3 3 3 3 3 3 3 3 3 3 3 3 3 3 3 3 3 3 3 3 3</vcount>
                    <p>2 2 1 1 0 0 3 3 1 1 2 2 4 4 3 3 2 2 5 5 3 3 4 4 6 6 5 5 4 4 7 7 5 5 6 6 8 8 7 7 6 6 9 9 7 7 8 8 10 10 9 9 8 8 11 11 9 9 10 10 12 12 11 11 10 10 13 13 11 11 12 12 14 14 13 13 12 12 15 15 13 13 14 14 16 16 15 15 14 14 17 17 15 15 16 16 0 0 19 19 18 18 20 20 19 19 0 0 1 1 20 20 0 0 21 21 20 20 1 1 22 22 21 21 1 1 23 23 21 21 22 22 24 24 23 23 22 22 25 2 23 23 24 24 26 4 25 2 24 24 27 25 5 5 7 7 28 26 5 5 27 25 29 27 28 26 27 25 30 28 28 26 29 27 31 6 30 28 29 27 26 4 30 28 31 6 34 29 33 12 32 10 35 30 33 12 34 29 36 31 35 30 34 29 37 32 35 30 36 31 11 11 37 32 36 31 13 13 37 32 11 11 39 33 32 10 38 8 34 29 32 10 39 33 40 34 34 29 39 33 36 31 34 29 40 34 9 9 36 31 40 34 11 11 36 31 9 9 29 27 38 8 31 6 39 33 38 8 29 27 27 25 39 33 29 27 40 34 39 33 27 25 7 7 40 34 27 25 9 9 40 34 7 7 41 35 23 23 25 2 42 36 23 23 41 35 43 37 42 36 41 35 44 38 42 36 43 37 18 18 44 38 43 37 19 19 44 38 18 18 47 41 46 40 45 39 48 42 46 40 47 41 49 43 48 42 47 41 50 44 48 42 49 43 51 44 50 44 49 43 28 26 3 3 5 5 52 45 3 3 28 26 30 28 52 45 28 26 24 24 52 45 30 28 26 4 24 24 30 28 35 30 53 14 33 12 54 46 53 14 35 30 37 32 54 46 35 30 55 47 54 46 37 32 13 13 55 47 37 32 57 49 17 17 56 48 58 50 17 17 57 49 55 47 58 50 57 49 15 15 58 50 55 47 13 13 15 15 55 47 59 51 55 47 57 49 54 46 55 47 59 51 60 16 54 46 59 51 53 14 54 46 60 16 61 52 57 49 56 48 59 51 57 49 61 52 62 53 59 51 61 52 60 16 59 51 62 53 65 56 64 55 63 54 66 57 64 55 65 56 67 58 66 57 65 56 68 59 66 57 67 58 71 44 70 43 69 44 72 43 70 43 71 44 73 60 72 43 71 44 74 61 72 43 73 60 77 62 76 63 75 62 78 64 76 63 77 62 63 54 78 64 77 62 79 65 78 64 63 54 80 59 47 67 45 66 81 57 47 67 80 59 82 58 81 57 80 59 83 56 81 57 82 58 85 69 73 60 84 68 74 61 73 60 85 69 86 70 74 61 85 69 89 54 88 62 87 64 90 58 88 62 89 54 83 56 90 58 89 54 93 60 92 69 91 68 94 61 92 69 93 60 95 43 94 61 93 60 22 22 52 45 24 24 1 1 52 45 22 22 85 69 79 65 86 70 78 64 79 65 85 69 96 58 63 54 77 62 65 56 63 54 96 58 98 67 68 59 97 66 66 57 68 59 98 67 99 40 98 41 97 39 100 42 98 41 99 40 100 42 70 43 98 41 69 44 70 43 100 42 101 70 92 69 94 61 102 65 92 69 101 70 19 19 21 21 44 38 20 20 21 21 19 19 42 36 21 21 23 23 44 38 21 21 42 36 102 65 87 64 92 69 89 54 87 64 102 65 104 63 88 62 103 62 87 64 88 62 104 63 95 43 51 44 49 43 93 60 51 44 95 43 99 73 106 72 105 71 97 74 106 72 99 73 46 73 106 72 45 74 105 71 106 72 46 73 107 55 83 56 89 54 81 57 83 56 107 55 52 45 1 1 3 3 58 50 15 15 17 17</p>
                </polylist>
            </mesh>
        </geometry>
        <geometry id="mesh2">
            <mesh>
                <source id="points2">
                    <float_array id="pointarray2" count="1236">60.94140625 -28.13671875 2.4296875 60.546875 -27.55078125 8.515625 68.7265625 -26.984375 8.296875 63.30078125 -26.08984375 12.51171875 71.8984375 -25.359375 8.11328125 67.99609375 -23.73828125 18.40234375 75.15625 -21.5546875 18.96484375 64.0078125 -21.859375 25.5546875 69.55078125 -18.40625 30.1484375 59.1953125 -19.4453125 31.44921875 64.625 -15.9375 35.71484375 50.95703125 -15.265625 39.6796875 55.78515625 -7.21484375 43.47265625 47.296875 -5.328125 46.8515625 49.07421875 3.859375 48.05078125 36.91015625 -1.9375 48.40234375 38.6328125 6.34765625 49.65625 29.38671875 9.08203125 49.796875 41.234375 15.421875 48.45703125 32.1953125 17.5703125 48.4921875 45.4453125 21.0390625 46.1640625 37.50390625 26.05859375 42.8828125 58.68359375 26.48046875 39.69921875 52.60546875 32.8515625 33.9375 69.1484375 32.0546875 29.3515625 67.9140625 36.953125 16.5390625 80.4765625 31.66015625 14.91015625 56.9453125 12.4375 -47.18359375 67.3515625 9.36328125 -41.765625 67.90625 16.11328125 -41.9921875 68.7578125 16.12890625 -37.203125 70.01171875 20.66015625 -40.30078125 72.2890625 20.26171875 -33.84765625 74.53515625 23.07421875 -36.64453125 83.125 20.078125 -30.14453125 83.6953125 24.78125 -29.41796875 90.48828125 16.10546875 -20.93359375 92.16796875 20.796875 -20.95703125 93.71484375 12.0390625 -10.7578125 96.58203125 17.09765625 -10.53125 95.90234375 9.5390625 -0.4140625 98.0859375 15.00390625 -0.4140625 97.0390625 14.24609375 10.64453125 91.74609375 18.84375 7.2109375 89.625 19.7421875 16.76171875 82.66015625 27.140625 -24.3359375 88.36328125 23.6015625 -16.44140625 85.64453125 28.23046875 -13.953125 88.5703125 26.05859375 0 83.61328125 31.7890625 0 69.33984375 38.59765625 0 52.89453125 41.90234375 0 52.78515625 38.6484375 19.37109375 37.4140625 39.5234375 0 40.54296875 37.8125 21.62109375 26.43359375 33.96875 22.48828125 30.11328125 30.8359375 34.9375 13.2421875 23.96875 22.81640625 21.40625 17.8828125 43.8984375 12.0078125 16.0078125 30.65625 14.42578125 3.43359375 37.46484375 57.75390625 5.1953125 27.546875 65.5703125 3.8359375 26.21484375 57.20703125 6.69921875 34.98828125 67.30078125 4.44921875 31.65625 66.66015625 1.75390625 32.61328125 75.140625 0.71875 27.7890625 74.84765625 -2.58203125 28.56640625 72.5546875 -3.76953125 22.9296875 81.48046875 2.89453125 21.8671875 78.71484375 -3.41015625 18.13671875 82.0078125 -4.32421875 20.66796875 82.13671875 -2.1875 19.703125 85.93359375 -4.20703125 10.86328125 80.125 -1.08984375 18.0078125 83.68359375 -2.984375 9.73828125 78.3359375 -19.359375 9.8515625 74.359375 -17.3515625 18.76953125 91.921875 19.625 -0.390625 90.85546875 20.71484375 -7.76171875 75.2109375 27.87890625 -33.328125 60.140625 28.72265625 -40.1015625 57.9453125 19.6015625 -45.7109375 81.37109375 18.57421875 -21.5 80.1796875 4.56640625 -22.44140625 88.0078125 14.01953125 -11.24609375 86.625 -0.0625 -10.8671875 88.0625 -2.2578125 0.26953125 86.91015625 -3.703125 0.265625 86.375 -1.5078125 11.9375 85.2734375 -3.31640625 11.37890625 79.671875 1.515625 22.3125 79.06640625 -0.19921875 21.00390625 76.5546875 2.390625 19.8984375 76.98828125 -0.1328125 19.3359375 82.703125 -3.30078125 10.09375 49.828125 -21.62109375 -28.36328125 49.06640625 -19.875 -31.03515625 47.04296875 -27.453125 -30.2265625 47.34765625 -27.953125 -32.15234375 45.65234375 -32.90234375 -30.16015625 46.03125 -33.76171875 -32.109375 46.56640625 -38.76171875 -26.9296875 46.91796875 -40.375 -28.8203125 47.7421875 -45.4140625 -22.69140625 48.171875 -46.54296875 -25.16015625 48.87890625 -52.2265625 -22.203125 45.89453125 -52.21484375 -24.5546875 42.52734375 -53.02734375 -23.90625 40.625 -46.7734375 -28.10546875 80.23828125 18.1171875 -29.04296875 86.76171875 14.2578125 -19.875 89.8828125 10.125 -10.4453125 91.6484375 7.49609375 -0.4140625 95.01953125 8.6328125 9.92578125 93.91796875 15.546875 20.140625 82.99609375 21.875 26.453125 64.81640625 -37.77734375 0 60.19140625 -39.23046875 0 64.4453125 -37.87890625 3.41015625 59.80859375 -39.75 5.640625 63.890625 -38.44140625 6.94921875 58.45703125 -41.58203125 10.0859375 62.625 -40.14453125 12.05859375 55.21484375 -44.5546875 13.328125 59.078125 -43.3046875 16.08984375 56.078125 -47.359375 17.75 53.390625 -45.578125 21.51171875 48.87890625 -52.2265625 22.203125 47.7421875 -45.4140625 22.69140625 48.171875 -46.54296875 25.16015625 83.95703125 -20.640625 0.2578125 88.09375 -6.75 0.2734375 82.14453125 -18.15234375 -13.31640625 86.19921875 -4.87890625 -12.05859375 82.1953125 -1.44921875 -21.1328125 85.96875 -2.65625 -11.45703125 82.30078125 0.49609375 -19.79296875 80.26171875 1.3125 -17.9609375 78.859375 -0.94921875 -18.53515625 83.69921875 -1.62890625 -10.16796875 78.609375 -17.703125 -11.37890625 85.4375 -3.45703125 0.26171875 80.19921875 -19.7734375 0.24609375 52.28125 -23.66015625 -24.4609375 55.84765625 -24.9375 -20.31640625 64.0078125 -21.859375 -25.5546875 58.453125 -26.3984375 -15.1796875 67.99609375 -23.73828125 -18.40234375 63.30078125 -26.08984375 -12.51171875 71.8984375 -25.359375 -8.11328125 68.7265625 -26.984375 -8.296875 73.8125 -25.703125 0 70.3671875 -27.37890625 0 61.0859375 -28.03125 0 79.4453125 15.77734375 19.81640625 84.3125 14.171875 10.83984375 84.2734375 -3.6328125 0.2578125 82.9140625 -2.078125 -9.3828125 85.51171875 -1.92578125 -10.59375 77.2265625 2.5078125 -19.44140625 79.546875 2.6875 -21.40234375 77.0078125 5.109375 -20.00390625 20.79296875 7.3515625 46.24609375 26.46484375 -0.84765625 45.86328125 35.2109375 -10.76171875 42.890625 42.8984375 -12.5 42.359375 45.74609375 -18.56640625 34.08984375 49.4140625 -42.4921875 22.4765625 52.265625 -37.77734375 20.890625 58.5 -39.2578125 17.64453125 54.71484375 -35.3515625 18.19140625 62.125 -35.87109375 13.06640625 58.55859375 -31.94140625 13.08203125 64.12109375 -34.23046875 7.4296875 60.0859375 -30.23828125 6.78515625 60.734375 -29.71484375 3.4453125 55.78515625 -5.85546875 -43.08984375 50.5 6.09375 -48.359375 47.36328125 -1.15234375 -46.55078125 38.24609375 5.22265625 -50.27734375 37.66796875 -0.8125 -48.40234375 29.38671875 9.08203125 -49.796875 26.46484375 -0.84765625 -45.86328125 20.79296875 7.3515625 -46.24609375 19.18359375 -1.86328125 -39.6484375 14.42578125 4.97265625 -37.46484375 90.86328125 6.77734375 9.61328125 87.78515625 7.859375 19.05859375 91.765625 9.61328125 20.1171875 85.08203125 12.4765625 31.34765625 86.91015625 17.76953125 30.83203125 73.08984375 20.6640625 38.7421875 71.2890625 24.796875 35.95703125 59.46484375 22.140625 42.15234375 25.890625 -8.6875 -40.6328125 36.1875 -9.68359375 -42.69921875 42.8984375 -11.203125 -40.9453125 50.95703125 -14.34765625 -37.8984375 65.40234375 -10.578125 -38.078125 54.109375 8.015625 28.61328125 53.75390625 7.3125 36.11328125 62.05078125 5.90234375 27.6953125 64.5 5.3046875 32.81640625 72.73828125 2.484375 28.4296875 64.81640625 7.07421875 34.1875 74.19921875 3.78515625 29.2578125 65.94140625 19.88671875 37.921875 75.0703125 18.7421875 33.3359375 58.21875 9.5625 -27.33203125 57.796875 12.23828125 -34.40234375 66.24609375 7.94921875 -25.63671875 67.8359375 9.47265625 -31.33984375 75.44140625 4.671875 -27.36328125 67.21484375 6.96875 -32.78125 75.1640625 1.5390625 -28.73046875 63.48828125 -6.16796875 -35.32421875 70.05078125 -9.296875 -30.29296875 75.80078125 23.12890625 -31.03515625 66.78125 24.90234375 -35.6328125 74.86328125 7.796875 -29.015625 65.62890625 12.40625 -33.484375 73.390625 6.3984375 -28.41015625 65.2890625 10.46875 -32.38671875 62.72265625 10.3671875 -27.2890625 54.64453125 13.10546875 -38.34375 54.82421875 12.7421875 -30.2578125 39.17578125 10.9765625 -50.68359375 41.234375 16.61328125 -49.703125 32.1953125 17.5703125 -49.32421875 21.39453125 17.88671875 -43.8984375 37.50390625 26.05859375 -42.8828125 30.11328125 30.8359375 -34.9375 52.60546875 33.47265625 -32.69921875 40.54296875 37.8125 -21.62109375 52.78515625 38.3984375 -19.37109375 67.9140625 37.5703125 -16.5390625 80.4765625 32.69140625 -14.91015625 86.765625 -13.81640625 -11.50390625 83.04296875 -9.96484375 -20.62109375 86.68359375 -18.16015625 -10.9296875 83.62109375 -14.12109375 -20.62890625 77.2265625 -19.796875 -19.796875 75.875 -11.47265625 -32.453125 71.3671875 -15.95703125 -31.44140625 79.734375 -6.5625 25.6640625 69.71875 -13.51171875 29.8828125 63.6875 -8.94921875 35.48828125 56.53515625 4.71875 36.140625 87.71484375 13.52734375 12.75 82.328125 13.89453125 23.18359375 79.421875 7.3515625 27.89453125 80.1953125 16.00390625 29.37890625 81.11328125 -23.98828125 -0.4140625 79.203125 -0.484375 -25.35546875 81.67578125 5.859375 -21.0234375 72.78125 -0.52734375 -23.43359375 68.39453125 -11.08203125 -26.10546875 75.12890625 -14.94921875 -19.3359375 46.56640625 -38.76171875 26.9296875 46.91796875 -40.375 28.8203125 44.35546875 -47.140625 28.1953125 45.89453125 -52.21484375 24.5546875 40.625 -46.7734375 28.10546875 42.52734375 -53.02734375 23.90625 45.65234375 -32.90234375 30.16015625 46.03125 -33.76171875 32.109375 43.16796875 -41.1953125 31.8046875 39.3046875 -40.80859375 31.47265625 47.04296875 -27.453125 30.2265625 47.34765625 -27.953125 32.15234375 41.86328125 -31.21484375 36.16796875 41.44140625 -34.46484375 35.65625 38.73828125 -30.40234375 35.96484375 38.12109375 -34.04296875 35.57421875 81.50390625 11.07421875 28.86328125 68.20703125 14.93359375 37.3203125 72.4765625 16 38.69921875 59.53515625 17.5859375 43.20703125 49.828125 -21.62109375 28.36328125 49.06640625 -20.1953125 31.03515625 42.89453125 -26.83984375 36.12109375 42.83984375 -17.734375 34.296875 40.12109375 -25.63671875 36.1171875 19.18359375 -3.40234375 39.6484375 25.890625 -8.6875 40.6328125 29.5 -11.0546875 39.7421875 36.5234375 -14.70703125 37.37890625 68.00390625 -4.9140625 -40.25 61.01171875 2.52734375 -44.26171875 17.09375 33.265625 0 26.43359375 33.96875 -22.48828125 69.1484375 34.23046875 -27.859375 49.10546875 -52.99609375 -15.1640625 52.29296875 -48.19921875 -14.80859375 52.76171875 -52.44921875 -17.5546875 56.078125 -47.359375 -17.75 53.390625 -45.578125 -21.51171875 49.4140625 -42.4921875 -22.4765625 52.265625 -37.77734375 -20.890625 58.5 -39.2578125 -17.64453125 54.71484375 -35.3515625 -18.19140625 62.125 -35.87109375 -13.06640625 58.55859375 -31.94140625 -13.08203125 64.12109375 -34.23046875 -7.4296875 52.29296875 -48.19921875 14.80859375 52.76171875 -52.44921875 17.5546875 62.375 -28.56640625 0 62.97265625 -29.97265625 2.30078125 65.73828125 -33.0546875 0 65.3671875 -33.47265625 2.6484375 41.86328125 -31.21484375 -36.16796875 41.44140625 -34.46484375 -35.65625 43.16796875 -41.1953125 -31.8046875 38.12109375 -34.04296875 -35.57421875 39.3046875 -40.80859375 -31.47265625 45.74609375 -18.20703125 -34.08984375 42.89453125 -26.83984375 -36.12109375 40.12109375 -25.63671875 -36.1171875 38.73828125 -30.40234375 -35.96484375 13.2421875 23.96875 -22.81640625 12.0078125 16.0078125 -30.65625 73.68359375 2.90234375 -23.30078125 70.2890625 7.75390625 -24.87890625 77.296875 2.98828125 -27.65625 80.05078125 11.1015625 -27.15234375 80.84375 19.875 -27.37890625 29.5 -11.0546875 -39.7421875 36.5234375 -14.70703125 -37.37890625 42.83984375 -17.734375 -34.296875 86.4140625 -16.9375 10.671875 86.328125 -21.28125 10.09765625 82.2890625 -15.05859375 20.81640625 82.87109375 -19.37890625 20.15625 75.15625 -14.85546875 31.46875 69.58984375 1.27734375 -38.76171875 68.12890625 10.01171875 -37.4140625 73.45703125 -0.3671875 23.43359375 66.4375 -13.07421875 25.91015625 81.7734375 -20.40234375 11.71484375 86.15625 -6.4921875 11.05859375 87.80078125 -4.46875 0.26953125 87.33203125 -20.9453125 -0.4140625 87.94140625 -16.8515625 -0.4140625 84.54296875 15.5390625 -9.18359375 85.796875 14.015625 0.26171875 71.5859375 6.29296875 -26.0390625 44.35546875 -47.140625 -28.1953125 66.6484375 -9.21484375 38.54296875 75.3203125 -10.3515625 30.72265625 65.62890625 -3.8671875 37.12890625 57.51953125 0.578125 44.54296875 58.4921875 3.37109375 40.79296875 54.78125 5.3515625 45.53125 55.80859375 6.98046875 42.03515625 86.79296875 25.3203125 15.8359375 64.4453125 -37.87890625 -3.41015625 65.3671875 -33.47265625 -2.6484375 64.703125 -33.87890625 -4.06640625 62.97265625 -29.97265625 -2.30078125 60.734375 -29.71484375 -3.4453125 55.21484375 -44.5546875 -13.328125 59.078125 -43.3046875 -16.08984375 63.890625 -38.44140625 -6.94921875 59.80859375 -39.75 -5.640625 58.45703125 -41.58203125 -10.0859375 59.1953125 -19.4453125 -31.44921875 57.1484375 10.47265625 -35.90625 53.47265625 -2.52734375 -39.08203125 53.8515625 9.08203125 37.61328125 55.01953125 21.80078125 41.58984375 69.43359375 2.3984375 24.90625 70.9921875 2.70703125 26.01953125 77.70703125 -14.58984375 -21.66015625 74.8671875 -12.28125 -25.6484375 54.77734375 15.06640625 -39.6796875 56.3828125 28.015625 -35.79296875 72.86328125 18.0078125 28.3984375 64.34765625 21.1640625 33.42578125 55.5703125 23.14453125 35.66015625 60.0859375 -30.23828125 -6.78515625 53.26171875 -23.66015625 24.4609375 58.453125 -26.3984375 15.1796875 55.84765625 -24.9375 20.31640625 54.30859375 13.921875 45.0625 64.703125 -33.87890625 4.06640625 53.84765625 -8.36328125 30.86328125 60.34765625 -8.83203125 29.3828125 77.234375 -17.8984375 20.9296875 73.48828125 21.73828125 -26.30078125 79.875 18.3515625 -17.96484375 74.1484375 -15.43359375 26.2890625 65.078125 25.55859375 -31.03515625 76.671875 -0.74609375 27.18359375 76.60546875 -7.21875 -31.1015625 76.48046875 -3.26953125 -29.6171875 62.625 -40.14453125 -12.0546875 60.94140625 -28.13671875 -2.4296875 15.78125 29.48828125 -13.8359375 60.5859375 -29.51171875 0 70.0859375 3.23046875 -34.8515625 56.25 12.37109375 42.05859375 53.375 -4.359375 -31.6640625 61.30078125 -7.84375 -29.41015625 46.51171875 22.7890625 -46.99609375 59.2265625 15.70703125 40.6953125 15.78125 29.48828125 13.8359375 53.47265625 -6.5234375 39.78125 89.53125 13.5 0.2734375 55.9609375 27.4453125 -41.203125 49.10546875 -52.99609375 15.1640625 60.265625 -27.55078125 -8.515625</float_array>
                    <technique_common>
                        <accessor count="412" source="#pointarray2" stride="3">
                            <param name="X" type="float"/>
                            <param name="Y" type="float"/>
                            <param name="Z" type="float"/>
                        </accessor>
                    </technique_common>
                </source>
                <source id="uvs2">
                    <float_array id="uvarray2" count="608">0.025634765625 0.99169921875 0.05517578125 0.99029541015625 0.05279541015625 0.96710205078125 0.06671142578125 0.974609375 0.05126953125 0.952880859375 0.1104736328125 0.94970703125 0.1014404296875 0.90447998046875 0.15277099609375 0.93865966796875 0.145263671875 0.89599609375 0.1959228515625 0.92108154296875 0.17803955078125 0.88336181640625 0.239013671875 0.89971923828125 0.2239990234375 0.86346435546875 0.2635498046875 0.8536376953125 0.255859375 0.820556640625 0.2882080078125 0.82733154296875 0.28662109375 0.77587890625 0.32196044921875 0.76800537109375 0.27496337890625 0.77044677734375 0.314697265625 0.73394775390625 0.278564453125 0.72564697265625 0.2919921875 0.7001953125 0.20501708984375 0.6917724609375 0.2095947265625 0.65130615234375 0.14569091796875 0.66583251953125 0.09423828125 0.64007568359375 0.06634521484375 0.6544189453125 0.264892578125 0.7899169921875 0.22161865234375 0.82049560546875 0.28076171875 0.77044677734375 0.24609375 0.769287109375 0.24530029296875 0.7393798828125 0.22967529296875 0.76788330078125 0.16253662109375 0.717041015625 0.11602783203125 0.74005126953125 0.11175537109375 0.720703125 0.08154296875 0.74017333984375 0.07806396484375 0.7225341796875 0.04644775390625 0.73992919921875 0.03863525390625 0.7210693359375 0.00518798828125 0.739501953125 0.00543212890625 0.72052001953125 0.03204345703125 0.70391845703125 0.07037353515625 0.7020263671875 0.126220703125 0.67071533203125 0.064697265625 0.67578125 0.006591796875 0.68157958984375 0.006591796875 0.6622314453125 0.006591796875 0.63385009765625 0.00653076171875 0.6187744140625 0.13690185546875 0.62677001953125 0.00714111328125 0.60150146484375 0.18341064453125 0.6204833984375 0.29876708984375 0.6060791015625 0.3211669921875 0.67681884765625 0.4090576171875 0.70050048828125 0.34832763671875 0.7322998046875 0.407470703125 0.741943359375 0.3824462890625 0.7984619140625 0.497802734375 0.88934326171875 0.49542236328125 0.8431396484375 0.475830078125 0.89013671875 0.47509765625 0.84521484375 0.46978759765625 0.8453369140625 0.473876953125 0.8004150390625 0.46893310546875 0.80035400390625 0.48138427734375 0.775146484375 0.46783447265625 0.75604248046875 0.4722900390625 0.756103515625 0.47119140625 0.71295166015625 0.4827880859375 0.755859375 0.4813232421875 0.71240234375 0.4383544921875 0.71417236328125 0.43792724609375 0.75726318359375 0.006591796875 0.7032470703125 0.1068115234375 0.69964599609375 0.161376953125 0.69329833984375 0.24176025390625 0.6917724609375 0.4373779296875 0.75762939453125 0.46844482421875 0.75640869140625 0.43780517578125 0.7154541015625 0.4671630859375 0.71551513671875 0.46624755859375 0.6708984375 0.47088623046875 0.671142578125 0.471923828125 0.7156982421875 0.47332763671875 0.7564697265625 0.48419189453125 0.7562255859375 0.48260498046875 0.715087890625 0.7437744140625 0.71478271484375 0.7203369140625 0.69952392578125 0.72747802734375 0.7657470703125 0.7105712890625 0.77008056640625 0.72802734375 0.81329345703125 0.7109375 0.82080078125 0.75628662109375 0.86444091796875 0.73974609375 0.8785400390625 0.79339599609375 0.92254638671875 0.77178955078125 0.932373046875 0.79766845703125 0.98199462890625 0.777099609375 0.98187255859375 0.76483154296875 0.9949951171875 0.72119140625 0.93438720703125 0.18359375 0.76580810546875 0.08575439453125 0.76531982421875 0.04937744140625 0.76544189453125 0.0045166015625 0.76483154296875 0.99212646484375 0.8558349609375 0.99212646484375 0.8685302734375 0.96173095703125 0.8587646484375 0.9427490234375 0.873046875 0.9312744140625 0.86163330078125 0.90380859375 0.8890380859375 0.88653564453125 0.87652587890625 0.87542724609375 0.9150390625 0.85125732421875 0.90411376953125 0.83673095703125 0.93951416015625 0.80377197265625 0.9239501953125 0.43896484375 0.67010498046875 0.47296142578125 0.670654296875 0.466552734375 0.7127685546875 0.47900390625 0.67132568359375 0.439208984375 0.67010498046875 0.1983642578125 0.96142578125 0.14495849609375 0.97509765625 0.1524658203125 0.93865966796875 0.108642578125 0.9820556640625 0.11016845703125 0.94970703125 0.06640625 0.974609375 0.05096435546875 0.952880859375 0.05242919921875 0.96710205078125 0.006591796875 0.94927978515625 0.006591796875 0.9637451171875 0.006591796875 0.99114990234375 0.48004150390625 0.671630859375 0.3450927734375 0.78631591796875 0.32916259765625 0.82830810546875 0.30108642578125 0.87359619140625 0.27117919921875 0.88140869140625 0.26104736328125 0.92095947265625 0.7952880859375 0.89697265625 0.8092041015625 0.8558349609375 0.837646484375 0.8687744140625 0.83282470703125 0.83465576171875 0.87774658203125 0.8392333984375 0.8775634765625 0.804931640625 0.92706298828125 0.82489013671875 0.93267822265625 0.7900390625 0.97271728515625 0.78546142578125 0.25543212890625 0.82098388671875 0.26055908203125 0.84112548828125 0.28753662109375 0.80120849609375 0.28778076171875 0.82733154296875 0.321533203125 0.76800537109375 0.32867431640625 0.82830810546875 0.34466552734375 0.78631591796875 0.364013671875 0.83349609375 0.3819580078125 0.7984619140625 0.22784423828125 0.7060546875 0.2047119140625 0.6917724609375 0.278076171875 0.72564697265625 0.34161376953125 0.8685302734375 0.30059814453125 0.87359619140625 0.270751953125 0.88140869140625 0.23870849609375 0.89971923828125 0.22369384765625 0.86346435546875 0.177734375 0.88336181640625 0.49969482421875 0.8900146484375 0.47698974609375 0.89080810546875 0.4971923828125 0.843994140625 0.47601318359375 0.84613037109375 0.4749755859375 0.801025390625 0.47076416015625 0.84600830078125 0.4696044921875 0.80096435546875 0.43707275390625 0.848876953125 0.43701171875 0.80517578125 0.4373779296875 0.84490966796875 0.43756103515625 0.80242919921875 0.314208984375 0.73394775390625 0.347900390625 0.7322998046875 0.29150390625 0.7001953125 0.3206787109375 0.67681884765625 0.20928955078125 0.65130615234375 0.183349609375 0.6204833984375 0.0069580078125 0.60150146484375 0.1365966796875 0.62677001953125 0.006103515625 0.6187744140625 0.0938720703125 0.64007568359375 0.06597900390625 0.6544189453125 0.05352783203125 0.8609619140625 0.09844970703125 0.8475341796875 0.0555419921875 0.88232421875 0.10137939453125 0.8695068359375 0.14263916015625 0.87139892578125 0.46142578125 0.7777099609375 0.4705810546875 0.89044189453125 0.47491455078125 0.90191650390625 0.45684814453125 0.776611328125 0.437255859375 0.7821044921875 0.00567626953125 0.9100341796875 0.7452392578125 0.93756103515625 0.713623046875 0.88568115234375 0.6890869140625 0.88232421875 0.6754150390625 0.798583984375 0.67987060546875 0.826904296875 0.652099609375 0.79150390625 0.6556396484375 0.8232421875 0.1197509765625 0.76580810546875 0.17340087890625 0.76708984375 0.167724609375 0.73980712890625 0.231689453125 0.73760986328125 0.693603515625 0.68499755859375 0.67584228515625 0.7603759765625 0.67132568359375 0.680908203125 0.65399169921875 0.7498779296875 0.364501953125 0.83349609375 0.342041015625 0.8685302734375 0.3319091796875 0.880615234375 0.310302734375 0.90155029296875 0.180419921875 0.85833740234375 0.22222900390625 0.841552734375 0.2742919921875 0.77069091796875 0.0084228515625 0.583251953125 0.29852294921875 0.6060791015625 0.14532470703125 0.66583251953125 0.241455078125 0.6917724609375 0.85931396484375 0.99468994140625 0.8624267578125 0.94683837890625 0.83837890625 0.98394775390625 0.94879150390625 0.92535400390625 0.9766845703125 0.92364501953125 0.95513916015625 0.92535400390625 0.9766845703125 0.93731689453125 0.9500732421875 0.94091796875 0.9766845703125 0.97015380859375 0.9425048828125 0.971435546875 0.4085693359375 0.70050048828125 0.406982421875 0.741943359375 0.493896484375 0.7994384765625 0.482666015625 0.77398681640625 0.3314208984375 0.880615234375 0.309814453125 0.90155029296875 0.2781982421875 0.9215087890625 0.2607421875 0.92095947265625 0.140380859375 0.85760498046875 0.18231201171875 0.838134765625 0.2239990234375 0.791748046875 0.43865966796875 0.67071533203125 0.47344970703125 0.67083740234375 0.47796630859375 0.6710205078125 0.00518798828125 0.88427734375 0.0045166015625 0.86566162109375 0.4384765625 0.66925048828125 0.47003173828125 0.80096435546875 0.49560546875 0.798095703125 0.13360595703125 0.83587646484375 0.173828125 0.81805419921875 0.2049560546875 0.79937744140625 0.2425537109375 0.79644775390625 0.23284912109375 0.78070068359375 0.0323486328125 0.70391845703125 0.94036865234375 0.943603515625 0.9595947265625 0.82183837890625 0.195556640625 0.92108154296875 0.437255859375 0.89593505859375 0.4715576171875 0.89117431640625 0.43695068359375 0.89471435546875 0.43780517578125 0.780029296875 0.47607421875 0.90789794921875 0.436767578125 0.91046142578125 0.4697265625 0.80096435546875 0.19873046875 0.96142578125 0.23297119140625 0.943603515625 0.24053955078125 0.92803955078125 0.47747802734375 0.6708984375 0.1090087890625 0.9820556640625 0.14532470703125 0.97509765625 0.437255859375 0.895751953125 0.4373779296875 0.8447265625 0.24017333984375 0.92803955078125 0.232666015625 0.943603515625 0.48016357421875 0.67095947265625 0.43878173828125 0.67071533203125 0.47802734375 0.67059326171875 0.47198486328125 0.6702880859375 0.47894287109375 0.67156982421875 0.43902587890625 0.6702880859375 0.43841552734375 0.67169189453125 0.47821044921875 0.67120361328125 0.47894287109375 0.6702880859375 0.47198486328125 0.67156982421875 0.43841552734375 0.6702880859375 0.439208984375 0.67169189453125 0.0252685546875 0.99169921875 0.244873046875 0.58251953125 0.14111328125 0.58349609375 0.27862548828125 0.9215087890625 0.16107177734375 0.69329833984375 0.24444580078125 0.771728515625 0.43707275390625 0.90814208984375 0.10711669921875 0.69964599609375 0.00885009765625 0.583251953125 0.14154052734375 0.58349609375 0.05487060546875 0.99029541015625 0.24530029296875 0.58251953125</float_array>
                    <technique_common>
                        <accessor count="304" source="#uvarray2" stride="2">
                            <param name="S" type="float"/>
                            <param name="T" type="float"/>
                        </accessor>
                    </technique_common>
                </source>
                <vertices id="vertices2">
                    <input semantic="POSITION" source="#points2"/>
                </vertices>
                <polylist count="680" material="Material1">
                    <input offset="0" semantic="VERTEX" source="#vertices2"/>
                    <input offset="1" semantic="TEXCOORD" source="#uvs2" set="0"/>
                    <vcount>3 3 3 3 3 3 3 3 3 3 3 3 3 3 3 3 3 3 3 3 3 3 3 3 3 3 3 3 3 3 3 3 3 3 3 3 3 3 3 3 3 3 3 3 3 3 3 3 3 3 3 3 3 3 3 3 3 3 3 3 3 3 3 3 3 3 3 3 3 3 3 3 3 3 3 3 3 3 3 3 3 3 3 3 3 3 3 3 3 3 3 3 3 3 3 3 3 3 3 3 3 3 3 3 3 3 3 3 3 3 3 3 3 3 3 3 3 3 3 3 3 3 3 3 3 3 3 3 3 3 3 3 3 3 3 3 3 3 3 3 3 3 3 3 3 3 3 3 3 3 3 3 3 3 3 3 3 3 3 3 3 3 3 3 3 3 3 3 3 3 3 3 3 3 3 3 3 3 3 3 3 3 3 3 3 3 3 3 3 3 3 3 3 3 3 3 3 3 3 3 3 3 3 3 3 3 3 3 3 3 3 3 3 3 3 3 3 3 3 3 3 3 3 3 3 3 3 3 3 3 3 3 3 3 3 3 3 3 3 3 3 3 3 3 3 3 3 3 3 3 3 3 3 3 3 3 3 3 3 3 3 3 3 3 3 3 3 3 3 3 3 3 3 3 3 3 3 3 3 3 3 3 3 3 3 3 3 3 3 3 3 3 3 3 3 3 3 3 3 3 3 3 3 3 3 3 3 3 3 3 3 3 3 3 3 3 3 3 3 3 3 3 3 3 3 3 3 3 3 3 3 3 3 3 3 3 3 3 3 3 3 3 3 3 3 3 3 3 3 3 3 3 3 3 3 3 3 3 3 3 3 3 3 3 3 3 3 3 3 3 3 3 3 3 3 3 3 3 3 3 3 3 3 3 3 3 3 3 3 3 3 3 3 3 3 3 3 3 3 3 3 3 3 3 3 3 3 3 3 3 3 3 3 3 3 3 3 3 3 3 3 3 3 3 3 3 3 3 3 3 3 3 3 3 3 3 3 3 3 3 3 3 3 3 3 3 3 3 3 3 3 3 3 3 3 3 3 3 3 3 3 3 3 3 3 3 3 3 3 3 3 3 3 3 3 3 3 3 3 3 3 3 3 3 3 3 3 3 3 3 3 3 3 3 3 3 3 3 3 3 3 3 3 3 3 3 3 3 3 3 3 3 3 3 3 3 3 3 3 3 3 3 3 3 3 3 3 3 3 3 3 3 3 3 3 3 3 3 3 3 3 3 3 3 3 3 3 3 3 3 3 3 3 3 3 3 3 3 3 3 3 3 3 3 3 3 3 3 3 3 3 3 3 3 3 3 3 3 3 3 3 3 3 3 3 3 3 3 3 3 3 3 3 3 3 3 3 3 3 3 3 3 3 3 3 3 3 3 3 3 3 3 3 3 3 3 3 3 3 3 3 3 3 3 3 3 3 3 3 3 3 3 3 3 3 3 3 3 3 3 3 3 3 3 3 3 3 3 3 3 3 3 3 3 3 3 3 3 3 3 3 3 3 3 3 3 3 3 3 3 3 3 3 3 3 3 3 3 3 3</vcount>
                    <p>2 2 1 1 0 0 3 3 1 1 2 2 4 4 3 3 2 2 5 5 3 3 4 4 6 6 5 5 4 4 7 7 5 5 6 6 8 8 7 7 6 6 9 9 7 7 8 8 10 10 9 9 8 8 11 11 9 9 10 10 12 12 11 11 10 10 13 13 11 11 12 12 14 14 13 13 12 12 15 15 13 13 14 14 16 16 15 15 14 14 17 17 15 15 16 16 18 18 17 17 16 16 19 19 17 17 18 18 20 20 19 19 18 18 21 21 19 19 20 20 22 22 21 21 20 20 23 23 21 21 22 22 24 24 23 23 22 22 25 25 23 23 24 24 26 26 25 25 24 24 29 29 28 28 27 27 30 30 28 28 29 29 31 31 30 30 29 29 32 32 30 30 31 31 33 33 32 32 31 31 34 34 32 32 33 33 35 35 34 34 33 33 36 36 34 34 35 35 37 37 36 36 35 35 38 38 36 36 37 37 39 39 38 38 37 37 40 40 38 38 39 39 41 41 40 40 39 39 42 39 40 40 41 41 43 42 42 39 41 41 44 43 42 39 43 42 47 45 46 43 45 44 48 46 46 43 47 45 49 47 48 46 47 45 26 26 48 46 49 47 50 48 26 26 49 47 25 25 26 26 50 48 51 49 25 25 50 48 52 50 25 25 51 49 53 51 52 50 51 49 54 52 52 50 53 51 55 53 54 52 53 51 56 54 54 52 55 53 57 55 56 54 55 53 58 56 56 54 57 55 59 57 58 56 57 55 60 58 58 56 59 57 63 61 62 60 61 59 64 62 62 60 63 61 65 63 64 62 63 61 66 64 64 62 65 63 67 65 66 64 65 63 68 65 66 64 67 65 69 66 68 65 67 65 70 67 68 65 69 66 71 67 70 67 69 66 72 68 70 67 71 67 73 69 72 68 71 67 74 70 72 68 73 69 75 71 74 70 73 69 70 67 74 70 75 71 76 72 70 67 75 71 77 73 70 67 76 72 41 41 78 74 43 42 79 42 78 74 41 41 39 39 79 42 41 41 46 43 79 42 39 39 37 37 46 43 39 39 45 75 46 43 37 37 35 35 45 75 37 37 80 76 45 75 35 35 33 33 80 76 35 35 81 77 80 76 33 33 31 31 81 77 33 33 82 18 81 77 31 31 29 29 82 18 31 31 27 27 82 18 29 29 85 80 84 79 83 78 86 81 84 79 85 80 87 82 86 81 85 80 88 83 86 81 87 82 89 81 88 83 87 82 90 84 88 83 89 81 91 79 90 84 89 81 92 85 90 84 91 79 93 79 92 85 91 79 94 86 92 85 93 79 95 87 94 86 93 79 90 84 94 86 95 87 88 83 90 84 95 87 98 90 97 89 96 88 99 91 97 89 98 90 100 92 99 91 98 90 101 93 99 91 100 92 102 94 101 93 100 92 103 95 101 93 102 94 104 96 103 95 102 94 105 97 103 95 104 96 106 98 105 97 104 96 107 99 105 97 106 98 108 100 107 99 106 98 109 101 107 99 108 100 34 34 110 102 32 32 111 103 110 102 34 34 36 36 111 103 34 34 112 104 111 103 36 36 38 38 112 104 36 36 113 105 112 104 38 38 40 40 113 105 38 38 114 38 113 105 40 40 42 39 114 38 40 40 115 37 114 38 42 39 44 43 115 37 42 39 116 75 115 37 44 43 119 108 118 107 117 106 120 109 118 107 119 108 121 110 120 109 119 108 122 111 120 109 121 110 123 112 122 111 121 110 124 113 122 111 123 112 125 114 124 113 123 112 126 115 124 113 125 114 127 116 126 115 125 114 128 98 126 115 127 116 129 96 128 98 127 116 130 97 128 98 129 96 133 72 132 118 131 117 134 119 132 118 133 72 135 67 134 119 133 72 136 69 134 119 135 67 137 68 136 69 135 67 138 70 136 69 137 68 139 67 138 70 137 68 140 71 138 70 139 67 141 72 140 71 139 67 142 120 140 71 141 72 143 121 142 120 141 72 146 124 145 123 144 122 147 125 145 123 146 124 148 126 147 125 146 124 149 127 147 125 148 126 150 128 149 127 148 126 151 129 149 127 150 128 152 130 151 129 150 128 153 131 151 129 152 130 2 2 153 131 152 130 154 132 153 131 2 2 0 0 154 132 2 2 156 80 93 79 155 78 95 87 93 79 156 80 157 133 95 87 156 80 88 83 95 87 157 133 158 87 88 83 157 133 159 84 88 83 158 87 160 86 159 84 158 87 161 85 159 84 160 86 162 79 161 85 160 86 84 79 161 85 162 79 163 134 58 56 60 58 17 17 58 56 163 134 164 135 17 17 163 134 15 15 17 17 164 135 165 136 15 15 164 135 13 13 15 15 165 136 166 137 13 13 165 136 11 11 13 13 166 137 167 138 11 11 166 137 127 116 168 139 129 96 169 140 168 139 127 116 170 141 169 140 127 116 171 142 169 140 170 141 172 143 171 142 170 141 173 144 171 142 172 143 174 145 173 144 172 143 175 146 173 144 174 145 176 147 175 146 174 145 179 149 178 148 177 12 180 150 178 148 179 149 181 151 180 150 179 149 182 152 180 150 181 151 183 153 182 152 181 151 184 154 182 152 183 153 185 155 184 154 183 153 186 156 184 154 185 155 189 36 188 103 187 104 190 34 188 103 189 36 191 35 190 34 189 36 192 33 190 34 191 35 193 76 192 33 191 35 194 157 192 33 193 76 22 158 194 157 193 76 20 159 194 157 22 158 183 153 195 160 185 155 196 161 195 160 183 153 181 151 196 161 183 153 197 162 196 161 181 151 179 149 197 162 181 151 198 163 197 162 179 149 177 164 198 163 179 149 199 165 198 163 177 164 202 168 201 167 200 166 203 169 201 167 202 168 204 170 203 169 202 168 205 171 203 169 204 170 206 172 205 171 204 170 207 173 205 171 206 172 208 174 207 173 206 172 211 60 210 61 209 59 212 62 210 61 211 60 213 64 212 62 211 60 214 63 212 62 213 64 215 65 214 63 213 64 216 175 214 63 215 65 217 176 216 175 215 65 220 172 219 173 218 174 221 171 219 173 220 172 222 170 221 171 220 172 223 169 221 171 222 170 224 168 223 169 222 170 225 167 223 169 224 168 226 166 225 167 224 168 182 152 228 18 227 16 229 177 228 18 182 152 230 178 229 177 182 152 231 179 229 177 230 178 232 180 231 179 230 178 233 181 231 179 232 180 234 182 233 181 232 180 51 185 235 184 53 183 236 186 235 184 51 185 50 48 236 186 51 185 237 187 236 186 50 48 49 47 237 187 50 48 47 45 237 187 49 47 240 190 239 189 238 188 241 191 239 189 240 190 242 6 241 191 240 190 243 192 241 191 242 6 244 8 243 192 242 6 199 10 243 192 244 8 67 65 246 176 245 193 247 175 246 176 67 65 65 63 247 175 67 65 248 194 247 175 65 63 63 61 248 194 65 63 61 195 248 194 63 61 249 80 89 81 87 82 91 79 89 81 249 80 250 78 91 79 249 80 251 196 91 79 250 78 252 197 251 196 250 78 208 174 251 196 252 197 152 130 4 4 2 2 253 198 4 4 152 130 150 128 253 198 152 130 242 6 253 198 150 128 148 126 242 6 150 128 146 124 242 6 148 126 215 65 254 193 217 176 255 66 254 193 215 65 256 65 255 66 215 65 139 67 255 66 256 65 257 176 139 67 256 65 258 73 139 67 257 176 260 95 129 96 259 94 130 97 129 96 260 95 261 199 130 97 260 95 262 99 130 97 261 199 263 101 262 99 261 199 264 100 262 99 263 101 266 93 259 94 265 92 260 95 259 94 266 93 267 200 260 95 266 93 261 199 260 95 267 200 268 201 261 199 267 200 263 101 261 199 268 201 114 38 187 104 113 105 189 36 187 104 114 38 115 37 189 36 114 38 191 35 189 36 115 37 116 75 191 35 115 37 193 76 191 35 116 75 270 91 265 92 269 90 266 93 265 92 270 91 271 202 266 93 270 91 272 203 266 93 271 202 273 204 272 203 271 202 274 205 272 203 273 204 190 34 275 206 188 103 276 207 275 206 190 34 277 208 276 207 190 34 278 209 276 207 277 208 194 157 278 209 277 208 20 159 278 209 194 157 280 89 269 90 279 88 270 91 269 90 280 89 167 210 270 91 280 89 281 211 270 91 167 210 282 212 281 211 167 210 283 213 281 211 282 212 284 214 163 134 60 58 164 135 163 134 284 214 285 215 164 135 284 214 165 136 164 135 285 215 286 216 165 136 285 215 287 217 165 136 286 216 177 12 288 218 199 165 289 219 288 218 177 12 178 148 289 219 177 12 27 27 289 219 178 148 227 16 27 27 178 148 228 220 27 27 227 16 53 183 291 222 290 221 234 182 291 222 53 183 235 184 234 182 53 183 233 181 234 182 235 184 292 223 233 181 235 184 81 224 233 181 292 223 295 227 294 226 293 225 296 115 294 226 295 227 106 98 296 115 295 227 297 116 296 115 106 98 104 96 297 116 106 98 298 139 297 116 104 96 299 140 297 116 298 139 300 141 297 116 299 140 301 142 300 141 299 140 302 143 300 141 301 142 303 144 302 143 301 142 304 145 302 143 303 144 126 115 305 226 124 113 306 227 305 226 126 115 128 98 306 227 126 115 264 100 306 227 128 98 262 99 264 100 128 98 308 230 307 229 176 228 309 231 307 229 308 230 310 232 309 231 308 230 117 233 309 231 310 232 119 234 117 233 310 232 101 93 311 202 99 91 312 203 311 202 101 93 313 200 312 203 101 93 314 205 312 203 313 200 315 201 314 205 313 200 99 91 316 210 97 89 317 211 316 210 99 91 311 202 317 211 99 91 318 213 317 211 311 202 319 204 318 213 311 202 232 180 291 222 234 182 320 235 291 222 232 180 230 178 320 235 232 180 321 236 320 235 230 178 186 156 321 236 230 178 213 64 256 65 215 65 322 237 256 65 213 64 211 60 322 237 213 64 256 65 322 237 211 60 257 176 256 65 211 60 324 238 162 79 323 172 84 79 162 79 324 238 325 196 84 79 324 238 83 78 84 79 325 196 326 197 83 78 325 196 196 161 327 239 195 160 328 240 327 239 196 161 197 162 328 240 196 161 329 241 328 240 197 162 316 242 329 241 197 162 332 189 331 190 330 188 333 191 331 190 332 189 334 243 333 191 332 189 6 6 333 191 334 243 8 8 6 6 334 243 288 218 243 192 199 10 335 244 243 192 288 218 28 28 335 244 288 218 336 245 335 244 28 28 30 30 336 245 28 28 66 64 62 60 64 62 337 237 62 60 66 64 68 65 337 237 66 64 62 60 337 237 68 65 338 176 62 60 68 65 132 247 339 72 131 246 340 119 339 72 132 247 341 248 340 119 132 247 73 69 340 119 341 248 75 71 73 69 341 248 253 198 6 6 4 4 331 190 6 6 253 198 342 249 331 190 253 198 330 188 331 190 342 249 343 250 330 188 342 249 56 54 23 23 54 52 21 21 23 23 56 54 58 56 21 21 56 54 19 19 21 21 58 56 17 17 19 19 58 56 158 87 162 79 160 86 344 80 162 79 158 87 157 133 344 80 158 87 345 251 344 80 157 133 156 80 345 251 157 133 342 249 238 188 343 250 240 190 238 188 342 249 253 198 240 190 342 249 242 6 240 190 253 198 323 252 222 170 220 172 346 253 222 170 323 252 224 168 346 253 323 252 222 170 346 253 224 168 103 95 313 200 101 93 347 199 313 200 103 95 105 97 347 199 103 95 107 99 347 199 105 97 334 243 10 165 8 8 348 244 10 165 334 243 349 254 348 244 334 243 350 255 348 244 349 254 348 244 12 164 10 165 351 28 12 164 348 244 350 255 351 28 348 244 352 256 351 28 350 255 351 28 14 14 12 164 353 257 14 14 351 28 352 256 353 257 351 28 354 258 353 257 352 256 48 46 44 43 43 259 355 45 44 43 48 46 26 26 355 45 48 46 24 24 355 45 26 26 358 260 357 232 356 234 359 230 357 232 358 260 360 228 359 230 358 260 307 229 359 230 360 228 309 231 359 230 307 229 357 232 359 230 309 231 117 233 357 232 309 231 356 234 357 232 117 233 296 115 361 113 294 226 362 114 361 113 296 115 297 116 362 114 296 115 300 141 362 114 297 116 356 108 304 145 358 261 363 110 304 145 356 108 364 109 363 110 356 108 365 111 363 110 364 109 198 163 316 242 197 162 366 262 316 242 198 163 199 165 366 262 198 163 244 8 366 262 199 165 214 63 210 61 212 62 367 194 210 61 214 63 216 175 367 194 214 63 368 263 367 194 216 175 205 171 201 167 203 169 369 264 201 167 205 171 207 173 369 264 205 171 370 265 369 264 207 173 204 170 371 252 206 172 372 253 371 252 204 170 202 168 372 253 204 170 371 252 372 253 202 168 373 73 135 67 133 72 254 193 135 67 373 73 374 266 254 193 373 73 217 176 254 193 374 266 225 167 221 171 223 169 375 264 221 171 225 167 226 267 375 264 225 167 376 268 375 264 226 267 325 196 218 174 326 197 220 172 218 174 325 196 324 238 220 172 325 196 323 252 220 172 324 238 202 171 377 174 371 269 378 173 377 174 202 171 379 265 378 173 202 171 304 145 360 147 358 261 380 146 360 147 304 145 303 144 380 146 304 145 146 124 244 8 242 6 366 262 244 8 146 124 144 122 366 262 146 124 9 9 381 270 7 7 279 271 381 270 9 9 280 272 279 271 9 9 140 71 136 69 138 70 341 273 136 69 140 71 142 120 341 273 140 71 7 7 382 274 5 5 383 275 382 274 7 7 381 270 383 275 7 7 384 220 14 14 353 257 18 220 14 14 384 220 20 159 18 220 384 220 174 145 385 261 176 147 119 108 385 261 174 145 121 110 119 108 174 145 62 60 386 276 61 194 387 277 386 276 62 60 338 176 387 277 62 60 71 67 340 119 73 69 339 72 340 119 71 67 388 73 339 72 71 67 48 46 79 42 46 43 78 74 79 42 48 46 43 259 78 74 48 46 162 79 389 174 323 252 390 78 389 174 162 79 344 80 390 78 162 79 366 262 97 278 316 242 96 279 97 278 366 262 144 122 96 279 366 262 245 193 388 73 71 67 391 266 388 73 245 193 246 176 391 266 245 193 142 280 75 71 341 248 76 72 75 71 142 280 143 281 76 72 142 280 224 171 376 265 226 264 392 173 376 265 224 171 389 174 392 173 224 171 271 202 283 213 273 204 281 211 283 213 271 202 270 91 281 211 271 202 267 200 274 205 268 201 272 203 274 205 267 200 266 93 272 203 267 200 142 284 132 283 341 282 131 285 132 283 142 284 143 286 131 285 142 284 206 172 251 196 208 174 393 238 251 196 206 172 371 252 393 238 206 172 132 289 142 288 341 287 143 290 142 288 132 289 131 291 143 290 132 289 394 243 241 191 243 192 239 189 241 191 394 243 395 254 239 189 394 243 396 112 304 145 363 110 302 143 304 145 396 112 300 141 302 143 396 112 9 9 167 138 280 272 11 11 167 138 9 9 154 132 151 129 153 131 397 292 151 129 154 132 108 100 295 227 293 225 106 98 295 227 108 100 398 294 291 222 320 293 290 221 291 222 398 294 134 119 341 273 132 118 136 69 341 273 134 119 287 217 166 137 165 136 282 295 166 137 287 217 289 219 28 28 288 218 27 27 28 28 289 219 80 296 292 223 45 75 81 224 292 223 80 296 365 111 396 112 363 110 361 113 396 112 365 111 399 229 307 229 360 228 176 228 307 229 399 229 396 112 362 114 300 141 361 113 362 114 396 112 400 255 335 244 336 245 395 254 335 244 400 255 255 66 135 67 254 193 139 67 135 67 255 66 93 79 393 238 371 172 91 79 393 238 93 79 354 258 384 220 353 257 401 297 384 220 354 258 402 276 211 60 209 194 403 277 211 60 402 276 402 298 367 194 368 263 209 195 367 194 402 298 228 18 82 18 27 27 404 20 82 18 228 18 335 244 394 243 243 192 395 254 394 243 335 244 192 33 277 208 190 34 194 157 277 208 192 33 116 299 355 45 24 24 44 43 355 45 116 299 405 32 278 209 401 297 276 207 278 209 405 32 290 300 55 53 53 51 406 301 55 53 290 300 384 220 278 209 20 159 401 297 278 209 384 220 125 114 170 141 127 116 123 112 170 141 125 114 379 268 369 264 370 265 200 267 369 264 379 268 310 232 385 260 119 234 308 230 385 260 310 232 386 298 248 194 61 195 407 263 248 194 386 298 69 66 245 193 71 67 67 65 245 193 69 66 45 24 237 187 47 45 292 223 237 187 45 24 312 203 319 204 311 202 314 205 319 204 312 203 109 101 347 199 107 99 315 201 347 199 109 101 292 223 236 186 237 187 235 184 236 186 292 223 317 211 329 212 316 210 318 213 329 212 317 211 84 79 159 84 161 85 86 81 159 84 84 79 408 251 87 82 85 80 249 80 87 82 408 251 70 67 338 176 68 65 77 73 338 176 70 67 404 159 229 177 231 179 228 18 229 177 404 159 409 265 375 264 376 268 219 173 375 264 409 265 184 154 230 178 182 152 186 156 230 178 184 154 81 224 231 179 233 181 404 159 231 179 81 224 377 174 93 79 371 252 155 78 93 79 377 174 180 150 227 16 178 148 182 152 227 16 180 150 118 107 356 108 117 106 364 109 356 108 118 107 52 50 23 23 25 25 54 52 23 23 52 50 193 76 24 24 22 22 116 299 24 24 193 76 306 227 410 225 305 226 264 100 410 225 306 227 3 3 382 274 1 1 5 5 382 274 3 3 149 127 411 302 147 125 151 129 411 302 149 127 174 145 123 112 121 110 172 143 123 112 174 145 70 67 72 68 74 70 88 83 159 84 86 81 91 79 251 196 393 238 16 16 14 14 18 18 367 194 209 195 210 61 166 137 282 295 167 138 139 67 137 68 135 67 211 60 403 277 257 176 219 173 221 171 375 264 202 171 200 264 379 265 123 112 172 143 170 141 130 97 262 99 128 98 315 201 313 200 347 199 57 303 55 53 406 301 224 171 323 269 389 174 139 67 258 73 141 72 81 77 82 18 404 20 333 191 6 6 331 190 247 175 248 194 407 263 369 264 200 267 201 167 176 228 385 260 308 230 94 86 90 84 92 85 411 302 151 129 397 292 332 189 349 254 334 243</p>
                </polylist>
            </mesh>
        </geometry>
    </library_geometries>
    <library_visual_scenes>
        <visual_scene id="VisualSceneNode">
            <node id="node0" name="m0" type="NODE">
                <instance_geometry url="#mesh0">
                    <bind_material>
                        <technique_common>
                            <instance_material symbol="Material1" target="#mat0">
                                <bind_vertex_input semantic="UVSET0" input_semantic="TEXCOORD" input_set="0"></bind_vertex_input>
                            </instance_material>
                        </technique_common>
                    </bind_material>
                </instance_geometry>
            </node>
            <node id="node1" name="m1" type="NODE">
                <instance_geometry url="#mesh1">
                    <bind_material>
                        <technique_common>
                            <instance_material symbol="Material1" target="#mat2">
                                <bind_vertex_input semantic="UVSET0" input_semantic="TEXCOORD" input_set="0"></bind_vertex_input>
                            </instance_material>
                        </technique_common>
                    </bind_material>
                </instance_geometry>
            </node>
            <node id="node2" name="m2" type="NODE">
                <instance_geometry url="#mesh2">
                    <bind_material>
                        <technique_common>
                            <instance_material symbol="Material1" target="#mat1">
                                <bind_vertex_input semantic="UVSET0" input_semantic="TEXCOORD" input_set="0"></bind_vertex_input>
                            </instance_material>
                        </technique_common>
                    </bind_material>
                </instance_geometry>
            </node>
        </visual_scene>
    </library_visual_scenes>
    <scene>
        <instance_visual_scene url="#VisualSceneNode"></instance_visual_scene>
    </scene>
</COLLADA>
