<?xml version="1.0"?>
<COLLADA xmlns="http://www.collada.org/2005/11/COLLADASchema" version="1.4.1">
    <asset>
        <contributor>
            <authoring_tool>J3D Ripoff Exporter</authoring_tool>
        </contributor>
        <created>2024-08-18T22:45:45.636Z</created>
        <modified>2024-08-18T22:45:45.636Z</modified>
		<unit meter="0.01" name="centimeter" ></unit>
        <up_axis>Y_UP</up_axis>
    </asset>
    <library_images>
    </library_images>
    <library_effects>
        <effect id="effect0">
            <profile_COMMON>
                <technique sid="COMMON">
                    <blinn>
                        <diffuse>
                            <color>1 1 1 1</color>
                        </diffuse>
                    </blinn>
                </technique>
            </profile_COMMON>
        </effect>
    </library_effects>
    <library_materials>
        <material id="mat0" name="Dread_Shadow_m">
            <instance_effect url="#effect0"></instance_effect>
        </material>
    </library_materials>
    <library_geometries>
        <geometry id="mesh0">
            <mesh>
                <source id="points0">
                    <float_array id="pointarray0" count="1593">-138.19901179672792 204.47819010401497 -19.250347648286912 -153.3174450003976 207.42794175057662 15.675179459953245 -82.84750500562137 203.72812699371224 -17.646890471602685 -82.84866358393191 203.72500044872297 14.962484357931203 -54.2932407334101 205.28563220463155 -5.80588282380142 -52.016969141081844 214.71637798960307 23.93728991311521 -82.8451593638007 211.92707674393898 25.900770944152594 -259.12426254566105 193.57777683913983 52.64131696075169 -290.0696280341857 198.0698521598557 53.92558910456179 -271.07361407111256 253.46052274173337 53.624231963099206 -298.1244239889396 246.4760494298247 54.75184228678652 -255.68402145282005 182.58536308440296 -24.003619177318235 -255.6860213510375 182.58266456687238 32.28544322247056 -228.46524557614507 198.2339145166917 -25.45112067493604 -228.46712123841624 200.16888790804197 27.25209711555834 -233.77241450831303 214.492312201588 43.643220322604776 -241.44049303899925 254.71489651255087 44.88315741998291 -274.00660470037695 268.93011587556964 35.9373693429296 -241.43988889670433 268.2860541329285 27.25490176615199 -272.254412169073 268.9330771791246 -25.773505871191542 -241.4379898955031 268.28861650734706 -26.194316888692573 -275.9761637641687 253.46160138800852 -50.524379853652015 -241.43718260674322 258.8873413136902 -48.48383010014445 -259.1206349717812 193.58267162409572 -49.4602453574773 -235.65590635681053 214.49666326388774 -47.181065299217515 64.26115810116133 55.90436071049392 14.309077774472739 36.288185249242204 55.90322752950084 20.91322403044042 57.05306291634205 73.83615738142461 18.57074367708749 36.287064046164616 73.83432851564152 26.37055385424834 71.41407750743065 58.20634727018256 -0.0008247912736591978 63.577359324010715 74.49117541160842 -0.0008787019463398771 36.24207585735657 89.11356300949564 -28.267790828777443 60.1955169363839 74.52056236630472 -20.267088381455334 35.91230965667411 128.79981534855034 -33.71841560415546 55.72827868579626 128.80308723084858 -24.600257523897163 38.559134115530696 36.58356580600645 10.661348579059874 13.01633526835118 32.38702882123236 11.312467840213365 38.56200629757835 35.47028469241492 -48.13943260337549 14.705670966690558 34.87539105807879 -29.46870121694039 38.56388956364183 1.5015347436640525 -53.4558388472667 11.875652572648411 1.5002553532814886 -38.08211821998422 -14.360026627589743 3.776341410395105 -13.153688381609934 -6.202956076393983 3.7767324470011374 -30.27048486467187 -9.806440596840408 26.022653477415204 -12.423001288188527 -1.3758791773927523 23.62462012196974 -28.25462841458115 74.18445705583082 32.960273621490714 7.549775136803567 62.780028739818746 33.39722691237337 -30.888271615978105 64.5123522885026 1.5027786704796142 -37.685063652329845 -9.314050670744203 3.7765833062202887 5.600459785764589 -5.5570091256249885 22.62051343429259 2.8389211823160028 36.667575422878805 32.759256373385696 -47.52233592481062 67.7799103804959 32.76074784778089 -27.78256317773359 36.29112966464993 55.90833855533505 -40.512745852003015 64.60278720838211 57.75598893620766 -24.785300099632437 14.084598003892374 32.758173782425146 -27.785137243092286 17.427006066796142 57.75372740650438 -24.78756162933831 3.2902973598369196 32.76159852439247 -0.005609503202063326 8.003921403152674 58.2033074911254 -0.0038645703343109794 77.39576593953613 32.76515101921743 -0.0020570083730344635 38.55771742455579 1.4998410694683173 75.31731083404864 1.073673569142676 1.4983752200983531 68.40926391036052 38.557139108989624 20.38298049635864 68.49790356083315 10.713876787641281 17.116351810269776 61.59016224420656 79.26171716419121 1.5026672276857767 57.06926211715253 68.13220642417458 17.119465386770486 54.06166478491773 3.353819364530384 1.4998468305509505 9.937004562461317 -300.62743677853143 188.4654041896358 32.27240976622705 -300.6253910811181 188.46816450527774 -25.305715131266837 -290.0659380004678 198.070924964968 -49.93378589780454 -298.1207306307603 246.48103297934057 -49.20128252814612 -309.75051180677804 263.468152130884 -25.3571313125524 -52.45041188234457 261.8380865356078 17.519917448672473 -54.59409554403435 270.80915992178575 -6.748829956125045 -41.0050009647161 246.3109585589304 15.464147860783081 -40.49645622551918 259.6997132526731 -5.761112985486443 -48.46034050606329 260.60854345393824 -32.80818393820533 -36.366869195567375 245.18196182306454 -24.25454580544512 -150.83190191193577 207.42944177252127 -20.85226330612122 -149.745209147288 217.43543211675313 -42.57001544904791 -130.28425918240325 216.12855431073527 -39.20988702746672 -149.74135592608081 249.8221507242314 -42.56691011515022 -130.28432400531847 255.7183978787131 -39.20609120640058 -309.75268379894345 263.46522140226824 35.775681078613104 -150.82808936894676 264.65991026577547 -20.84677598682831 -138.19520776674335 266.9078773233647 -19.244361834880642 -153.31362690572723 261.2677852594199 15.680341690673341 -82.8448631292813 268.33828140803314 14.968679531374576 -82.83980518301138 272.5445329400804 -17.640292169391593 -82.84287748358054 259.49985084477487 -40.51263685547677 -82.84651973927394 211.93394704676615 -45.75547882004876 -153.31786843721818 217.43074946914163 27.13316981116159 -153.31401521601097 249.8174680766199 27.13627514505926 -82.8452285231675 254.16535779974004 25.904820693850485 -164.27337463895634 267.44513030043163 -21.741517895654876 -162.24202109626722 204.20685266015482 -21.747508928569587 -165.83913684068617 253.83352443110465 -39.24287868038758 -165.8429260703899 213.04850394073608 -40.66085173780511 153.3074243943515 207.44261712604322 15.687974094172956 228.45687878152776 200.18838893800944 27.274359294247024 162.23830134905313 204.2203648500783 -21.73116725692641 228.4602416500992 198.25341561795344 -25.42885842495313 138.1849357509458 266.92110283197235 -19.232165827674677 130.2771441814423 255.73086498998285 -39.1938104760291 150.8175262974173 264.6723279049441 -20.83311647120386 149.7355192475565 249.83446428240862 -42.551563909424715 130.28087546699527 216.14102159776925 -39.197606121331006 149.7424774752532 217.45165244121844 -42.55464775209392 138.1947258713632 204.49141626268636 -19.238134136121822 150.82682601264406 207.44576628827505 -20.838582188971284 165.83840135833134 213.06236133089544 -40.6449767085114 165.83092129340184 253.85128754740083 -39.227002874228866 164.26362483450652 267.45883705895056 -21.72598916195773 235.655332423331 214.52076042539645 -47.15811318411868 241.43247749211957 258.9119925669914 -48.460323893252486 241.4302469757331 268.3093616296856 -26.1747171872946 153.302350435053 261.2785541395102 15.693135572569698 241.42702145084016 268.3067990044153 27.27840765395828 259.12228450794623 193.60901861353216 -49.43504341444809 275.96826792547625 253.48956379188155 -50.497562363781284 272.24656659555205 268.9567766869329 -25.74704534706028 273.98893650808685 268.95398272610305 35.96399734218921 241.42723684757107 254.7356416105854 44.90275709707688 271.05963980693576 253.4841089319479 53.64667273237646 259.1161233876852 193.60412370712226 52.66651878232682 233.76313330998005 214.51622854991456 43.662085187261226 255.68088805452743 182.60868193164453 32.31031554083508 255.68428470855446 182.61138051613327 -23.978746791995544 298.10710452725266 246.50222863460908 54.78078264029972 290.06093514262017 198.0952596916017 53.95375765263263 309.7355543682407 263.496421745629 35.805736507975276 309.73924330894323 263.4993525469648 -25.3270758104702 298.11337761216754 246.50721249505312 -49.176248300964765 290.06720233465853 198.1002388702545 -49.90561703892187 300.62521474069854 188.4984907472824 -25.276533935664872 300.62174053641655 188.49573055042055 32.29768464334903 82.82922886248407 272.55635745821735 -17.633933066373913 82.83147939627342 268.34619961743454 14.979264890942348 36.360296368600046 245.1854243989789 -24.25007931287658 48.451078698968544 260.61316553847536 -32.80515627094481 40.4850880520937 259.70357122880785 -5.753896796748553 54.58227010128504 270.81437007117745 -6.7458519530614875 40.995079168099856 246.31486598288933 15.465998320688225 52.437847355839935 261.8430908954757 17.525385243347444 82.8358384865845 211.93499552760733 25.907550751006283 82.84147531724577 203.73291931788248 14.973087232152446 52.007948067879205 214.72134111941068 23.940903805282673 54.2874037232803 205.29081353585138 -5.800316851278035 153.30714034542603 217.44542490302413 27.146076928137393 20.43782036152542 72.14744778754276 -20.314092097805936 17.353278773985334 128.80124759618724 -24.602097158560618 7.272347086592702 81.26194110663661 -0.0002820221740975626 1.7153808668204371 128.79696599519977 -0.0012051488998965354 22.040896271314068 83.992714714621 17.755652000828754 17.351016120424823 128.7972022420785 22.60117307975328 36.2397859328853 83.99032426269878 24.623547268266908 35.9091612013802 128.79708809062706 31.961467029504625 53.697146198565264 83.99423226340923 17.757169549618716 55.72601603223574 128.79904187673984 22.603012714416735 62.46760827385122 82.33489650372513 -0.0002014982472609006 61.46538072950976 128.79983031235977 0.0016591682633961824 20.0257192514341 73.83438235119712 18.568968646857964 10.932982128101083 71.27770472053116 -0.0035185251941549645 14.082575125517304 32.76150903414647 14.409013238121734 17.163501959395823 55.902102925975214 14.306819989951437 36.66429022054173 32.76277127325889 21.003864286705006 153.30018209954957 249.82823674385355 27.149164515946918 82.83962129007115 203.73604594668552 -17.64051407099413 82.83185758962512 254.17327639588615 25.91160031318188 82.83285950408957 259.50776932062644 -40.50648630674848 82.84072781947833 211.94186603906027 -45.74936324237984 36.28959287763671 74.61617166902545 -27.163017370356915 67.77788750212082 32.764083099502216 14.41158730348043 36.665931099593585 19.544412529375123 -0.006710979408123929 -26.53548081209233 220.18013271236336 -5.0104997987621065 315.1717247010287 240.7581937526366 -36.109088276197944 323.47006586768805 238.99518682572403 7.07882807805371 315.16676973473426 240.75425711526412 46.00419272993893 -47.51861400390285 245.1366846815372 -41.11041519495551 -323.48209183208377 238.96266990702975 7.047456073356476 -315.1758729458477 240.72647246122636 -36.135758083947074 -315.1787903546214 240.722535921531 45.97752301986697 52.680902043102414 245.72097843564853 28.388281477477683 47.512263346314 245.14512254276093 -41.10380093038968 49.42495362265733 214.4382632745251 -41.020264165699075 26.528360576497597 220.18265254044053 -5.006252507930518 80.80709249584542 1.5035598136444719 6.846967542004256 -52.69295908636797 245.7159505320251 28.385550618322807 -49.42872302743419 214.42964221203096 -41.02748971056508 12.910025301003282 142.7311406549694 0.0010900335727463961 35.911242981527145 142.1804901052528 -24.84811873475257 59.83190019317276 142.73339001282284 0.003339391428752947 35.90904564749584 142.16149581931705 21.00752721525386 35.90972634880255 148.96663777304335 0.0028742988734418162 21.367154753834555 297.9207966053443 87.21784912435481 -0.012182685333451071 298.13028806890753 96.00199059640505 18.620245292410544 310.02589828815167 92.12845403618235 -0.012907772977011976 310.0246644207657 99.23302954333211 30.785428855070027 304.9453277138796 73.82410607923015 29.51938605490989 315.33597235607 72.14876227063908 19.52660477930941 280.6887072801214 119.18177860134293 -0.013115697517343846 285.9842414724995 127.61078333482239 18.284990954544273 294.26409099728596 93.63940108742737 -0.012628517643124441 295.8367635121434 107.59563064859445 -0.01274603903882443 280.2226161825756 125.66128838193973 -0.01189752222162067 261.5272559721487 126.65648590698274 -20.492596421929168 275.9329846314222 117.0507259909554 -20.620769143041663 260.8431448490302 116.8390589294857 -0.01196922005461885 257.3902671909034 132.289100086515 -21.08951388227812 257.2140474076096 120.35839373646672 -36.280718472699405 74.61275003348962 -27.1661966435772 -36.279181685686176 55.904916919799234 -40.515925125223305 -20.42936606166721 72.14554594790592 -20.31575157512551 -17.416742870238874 57.75211432059797 -24.78893235292712 35.56370008515314 143.06420487194237 53.388423686806924 -0.003286586720635666 141.69140609726253 66.86718742603931 38.28449794589213 169.63858300033777 65.55953905652856 -0.005028087784255184 167.77556328766823 77.09009138466179 0.0024158313080168714 130.1953126074176 -40.589843700487904 31.748296594609876 130.19683445296135 -36.14691559983904 0.0012177467625775055 150.73437507358366 -36.136718705604736 32.567403705069275 152.43906124517227 -33.24453252873592 -10.926392880668505 71.27664503231513 -0.0033238049670347714 -7.996077577186909 58.20259774373754 -0.004331955403527488 -20.02115560235397 73.83032516185492 18.56805605613955 -17.156809666549627 55.90052429574892 14.309380597873673 -36.28324826873775 73.82946012166414 26.368082187238862 -36.2821261010939 55.89980589396502 20.91004475722013 -57.048499267261924 73.82855013162742 18.566281025910026 -64.25446580831513 55.898266511230204 14.307122813352372 -63.571077928037255 74.48506833452274 -0.006039222054496918 -71.40623368146487 58.19955796468038 -0.007371734464178825 -55.72484592734982 128.79538357737752 -24.60596656980273 -60.18729430407494 74.51484867781136 -20.272559707635786 -35.90800269245188 128.79704373702634 -33.72223419087172 -36.234486697725735 89.11128270736211 -28.267835910686518 -17.349846015538898 128.79722321203886 -24.604126935139277 -1.7143066076570848 128.79679953327903 -0.001735502535031408 -7.266715393122993 81.26123262345504 -0.0006936508771935301 -61.46430647034641 128.79393521611902 -0.004599819698324126 -62.4620789472459 82.3288958238586 -0.006007690506005581 0.0027431604401689136 118.67968760987726 -35.902343705874046 29.822822828689414 118.68111713566978 -31.045445424500734 56.50199586627633 118.68239609154128 -20.313697706298 58.851941377431835 151.65516503196835 -19.555772477113038 57.02405326455909 116.32695236541161 10.83085860065224 58.72172880734982 148.76453378646949 10.584846308699529 49.10166631603335 116.65860382953477 21.178135077046385 53.701254905928714 146.252574360285 32.76038690510963 22.312007269694647 118.68075707946994 31.59872584128028 -0.0007827435743317859 118.6796874408512 37.64843745961292 0.0010152877401801534 188.46569624867254 -69.66558044672942 47.481117078964424 189.09715139141983 -62.63995534026738 68.42192716350766 166.05458982428783 -27.160306910230194 69.41621183221955 165.9287925745071 10.703190924930047 65.74293744781009 171.72149526042284 34.10163898702641 -14.69276451063464 34.873968090940366 -29.46916056179291 -13.007100216730066 32.38576764606739 11.3121702873345 -38.54736657010299 35.46657454105889 -48.14217913244822 -38.55023875215065 36.5798556546504 10.658602049987131 -0.012226709379049416 384.01717401680526 11.033451623078662 -0.013287938647541265 361.1361095533176 56.05188599231821 -18.847512488770377 373.91096955653705 7.543782977469617 -18.84873066547432 357.9324227993493 48.93364199210557 -58.98738983965427 270.9243869708443 -68.03729733876854 -21.572089708673225 277.384759194562 -18.828162718934117 -0.0017480329662416163 269.39715823625613 -92.93298057281291 -0.005472292536449943 277.9485312566274 -23.795851883984533 -0.01262626817259624 336.04181821860595 67.34365176308172 -18.848068994999377 332.8381314646377 60.225407762869104 -28.928241980738658 298.71287051435456 55.586569810834526 -32.98988615877388 281.52911407711133 54.91758255942523 -32.990965345278795 295.30213262648164 63.65652406538379 -34.20898181291722 280.00129298676654 63.65573214610615 -46.12257150274707 285.24363350022236 48.5499435920568 -39.467221519056714 301.8454109306719 50.72293352851284 -43.98686116967169 300.34501393590995 54.48436370339663 -47.28314364500835 287.88000711152614 54.58907686216684 -48.22495220551695 268.7067654743869 82.15451885104896 -47.13399553347185 247.75380119615699 79.89184789306942 -48.23534411981409 272.97392138219016 50.209410349761946 -47.67975979365288 254.26691676599307 50.20854015612687 -10.55373239644615 331.85547482089527 32.674976938200274 -18.884728651063647 322.261900519668 20.67802388316802 -0.010615179465919444 331.47329788583573 29.96062025569327 -0.00943901512318553 321.5716556652909 15.327333087176342 -17.389854511172178 332.22216757316215 36.159041828910006 -25.799307014213472 323.26110108528985 30.43945910026232 -18.05471658028485 334.8464619420573 50.21382330074381 -26.300373227343076 325.7288791587789 50.21299093347242 -15.539729562287206 338.02578444323615 60.343002551422074 -22.043531816931868 325.7281120984245 70.47100749947758 -7.954045247769672 339.2681419624788 64.38248824799692 -15.899387627322264 325.72801957381034 78.54552078968918 -0.01276896769421219 339.2683926963559 67.09380643977904 -0.012929191680823647 325.72852085428724 83.97596986049469 -0.007412257459384368 289.32994933140964 5.290631222565479 31.675726963979162 289.198194824264 14.905424943264126 -0.0083339853904661 307.2126973700487 6.635238492225769 28.30774245670873 306.1550805356359 14.574045168883133 39.33142212349443 289.2839485963623 26.39407731465448 41.19751046432103 288.39227114680347 50.21443657472058 34.697688654510756 307.318826347739 27.57050104836537 37.180898944642934 308.9702035970239 50.215230553849445 18.865271262183587 322.2637101928528 20.679833556354875 25.778817867255526 323.2635736561437 30.44193167111903 15.874049799659623 325.72954274037545 78.54704395625602 22.018968081808687 325.73022438252264 70.47311978357813 26.27775165182784 325.73139966799533 50.2155114426917 20.468340983939054 275.93494823169283 117.05268959122832 48.21778065852827 272.9785451870617 50.21403415463879 48.204735072879274 268.71138815570305 82.15914153237044 41.54395129203302 284.0627397717284 79.89783943935123 34.68449959900262 265.287996674224 18.787235410209238 42.62550513245036 261.537796849417 30.89681131153352 -0.006345186491541955 263.4313373569618 8.930014685513669 -58.723583422750686 148.7589036505037 10.579216172727264 -57.022821473351314 116.32148514497466 10.825391380209007 -58.8511833520762 151.64952253689347 -19.561414972194406 -56.49800387403988 118.67697905657758 -20.319114741267924 60.599190228969476 206.0292791410471 64.92346852293251 30.442191865019563 206.77589340191645 79.78637045143392 60.45399891803209 226.37969364035825 58.341997506715295 25.273852369432245 227.47919671453846 66.81661687485702 58.67821080960713 195.86934287733357 56.40139303544575 30.813752884267036 201.2287741735837 75.58621486909283 79.27633090336376 202.1698692524177 40.4260176414663 81.58012201332656 210.81541865649666 50.4793825106149 83.06939592242205 190.07045545074277 -30.967414952593373 84.5787977867215 191.56914469327518 15.864482111387376 89.40842813861013 219.84973323190556 -43.81769604349472 93.24879789425957 219.22747866445434 27.317045707825148 48.745844983264945 217.34976533681063 -72.17898460166175 0.0001377018587781242 216.19321601550547 -79.08655334913698 -89.4118839504453 219.84116087894068 -43.82626839646945 -83.0712286957724 190.06249094123376 -30.975379462111512 -48.74634229268956 217.3450917209843 -72.18365821749344 -47.479820202807126 189.0925991195736 -62.64450761211883 -69.41972534872346 165.92213700700572 10.696535357421025 -68.42182252201357 166.04802975899304 -27.166866975532542 -65.74924975000947 171.71519174027117 34.09533546686748 -53.70499484724242 146.2474254805366 32.7552380253553 -38.29362687812471 169.63491197042114 65.5558680266077 -35.569112251377504 143.06079488139034 53.38501369625099 -32.565408645249875 152.4359388847953 -33.24765488911646 -31.743890759479577 130.19379074146036 -36.1499593113435 -17.35210869927016 128.7937973150507 22.599153211534915 -22.037228522780183 83.98838623966756 17.753572223950485 -35.91115107603627 128.79280117544474 31.957667877317938 -36.236776514314236 83.98919905707058 24.620096642212022 93.92666320727601 254.48642518685352 30.069171023446675 -0.007952900430265336 250.0315166724703 55.84608098835552 32.69948690859828 299.516720659577 -2.160145399581552 -0.007818086620053216 301.91999080770063 1.166234768538731 -32.714575441074544 299.51358481653557 -2.1632812426265717 -93.9405238609889 254.47741914151533 30.0601649780981 -55.727108611081086 128.79195768038934 22.59731357687146 -53.693478450031385 83.98686869087933 17.752054675160522 -11.858720417693295 1.4991039120244238 -38.08230603895501 -38.545483304039514 1.4978245923080067 -53.458585376339435 1.3897477713662454 23.62473904731924 -28.25354586694396 6.218920850174116 3.7773142771636685 -30.268939412221158 9.818561313174285 26.023580613595172 -12.42111052971996 14.374350261490816 3.7777052350960787 -13.151360934619873 -62.76684401654902 33.391194746583224 -30.893340159487614 -74.17491564811183 32.95314786180583 7.54361299939803 -64.49545795991165 1.4965805930129648 -37.69029810751605 5.567992616664213 22.624939344386718 2.8404044647027593 9.32657624153267 3.7774632530746715 5.602303354907503 -64.59252401182484 57.74985279089468 -24.791193882632996 -67.76696235289099 32.75423629836567 -27.78811110486875 -36.65273495351012 32.7557278634814 -47.52490081243145 -14.071649976287484 32.756810363721414 -27.785537039510054 -3.280014142172902 32.76134082078235 -0.005624844493024916 -77.38548272187212 32.75778832595739 -0.009177339322053335 -10.707998115363381 17.115311226384634 61.59008528260775 -1.0669513781719675 1.4982589477653505 68.41011126031492 -38.55223566604034 20.37927034491119 68.49515703166898 -38.55165735047417 1.4961309180208673 75.31456430488447 -68.12560571492713 17.112919756084196 54.056082776511495 -79.25390742376014 1.4950545939151993 57.062613105660745 -3.341491164968565 1.499512214048906 9.937633568246415 -14.073673826886166 32.76021653603934 14.407963102332577 -36.65602112807081 32.75931368395119 21.00064905971279 -67.76898620348967 32.75764247068359 14.405389036973881 -22.312992627753236 118.6786178300429 31.596586591850784 -49.10145845828736 116.65389613252884 21.17342738003505 -58.688976420672915 195.86371648655236 56.39576664465806 -30.826871974077466 201.22581922295709 75.5832599184628 -29.81780203425127 118.67825806176818 -31.048304498405635 -42.64011967160185 261.53370935497605 30.892723817087877 -38.28411906744712 245.55321516321715 35.77888527239382 -34.698312741549664 265.28467057580644 18.783909311787784 -30.346248723973446 249.749479706891 23.857591926955664 -0.006184853380416605 253.22788353744187 15.788900548645234 -0.01054285323452391 239.6252169578549 120.29996720909361 -23.596317590215648 242.15952680394244 114.36927058273658 -35.863346534357795 230.72729922997436 73.60250938741994 -42.54237082255016 240.2866942940085 50.208116201233686 -34.71637368596972 307.31549875124756 27.567173451870087 -39.34826519569283 289.28017682098067 26.390305539268553 -28.32506991314416 306.15236565134023 14.571330284584393 -31.691460390397552 289.19515710505834 14.902387224054984 -21.390657647904288 297.91874686582855 87.21579938483669 -18.308758961360123 294.2623367528328 93.63764684297225 -37.20191338441893 308.96663780679376 50.21166476361517 -41.21655184628432 288.38832035159936 50.21048577951194 39.51659561420104 268.72186271628493 -67.50311302009214 94.38225252249767 268.17402843226466 -35.02432182710603 20.334833306771145 292.3268550824467 -47.82829275187079 41.9200884245632 293.11116490047175 -34.37699300254931 -0.0025846325258764976 267.46633322584 -73.57144844419928 -0.0046275337426222255 292.1891447541841 -55.679095330374615 80.06331958220133 239.54008995634763 46.3159931995452 -0.006552642487824957 302.6408375653078 -25.972788612071874 8.344872359015646 301.5636851112106 -22.027000655852973 24.911064540566638 300.3940000616706 -16.391027897911844 62.52011388293241 292.95932547438764 -2.1612930449250474 102.98981912256835 273.031646567169 -2.158087629059036 -0.0010815998937002457 244.22254408836523 -81.6811004665669 45.217322230361404 244.22811608839334 -74.46336232064648 94.67285615980346 244.2268259238324 -43.225414688089714 95.33734798688708 236.1149019015677 37.41557075624737 -0.007145460908525138 209.3322929318154 79.70201933268356 -45.22017756180539 244.2237806627338 -74.46769774631102 18.823805918427386 332.83993739263786 60.22721369087139 18.823144247952442 357.9342287273495 48.935447920107855 21.560722692203836 277.3868269109637 -18.82609500253001 -26.65288297964577 229.36392020793667 84.85288556535716 -39.71706698164442 249.05396013387366 100.29070330879058 35.847590800844266 230.7307369348922 73.60594709234174 26.63617939789135 229.36647479833266 84.85544015575607 47.116004249933496 247.75831938682362 79.89636608374123 39.69699533585518 249.05776711399022 100.29451028891152 -95.73082568171213 282.13675848714297 28.273979075354813 -18.645379621949825 310.02411183511117 92.12666758313986 -29.543113809359365 315.3331409965342 72.14593091110004 -19.551520130885677 280.6868339387989 119.1799052600183 -41.56542351697443 284.05875564438156 79.89385531199989 -30.8083210033822 304.9423750103637 73.82115337571088 -0.009017092331223189 229.6497020591243 98.4479264992407 -34.64360098873387 289.6686789368887 75.37883104998275 -31.581610136512715 291.258236530379 84.41030405496953 -90.57935376783169 274.44045213813706 -27.327705577143945 -85.4780985281255 313.74305486641117 21.264267011362136 -79.49464761411217 307.16397721193084 -34.36466794871869 -55.03998907884476 304.57671527843604 -63.76596354124598 -0.0035083376157579492 302.52979874789787 -89.34545474827706 -69.60395274385333 342.21307650288554 10.61404905260561 -63.515471449313004 339.2001427272107 -39.43658489661939 -48.68632277586933 336.9400501854284 -58.5297324398012 -0.005277617673623684 332.9201113146875 -82.82837288645234 -0.007763695895245788 364.223813337446 -62.27218473823116 -41.59457705185061 363.0997962416352 -42.87970083794955 58.98135988924332 270.93004219954673 -68.03164211005962 55.03032316820413 304.5819918689783 -63.76068695069765 79.48191452054591 307.17159828801465 -34.357046872626114 90.5690833158735 274.44913609760215 -27.31902161766886 85.45940107904532 313.7512493302528 21.272461475213206 95.71448637832998 282.14593606193455 28.283156650156936 41.57729775701323 363.10378336512963 -42.875713714450534 63.50015325879408 339.20623164828646 -39.43049597553662 54.33701422195034 360.6647758323501 1.3318123600996443 69.58354693628175 342.2197489237175 10.62072147344522 18.82436242465639 373.9127754845373 7.545588905471895 23.575557301379295 242.1617881463865 114.37153192518322 31.559014718384667 291.2612633885494 84.41333091314341 34.62202385208773 289.6719994175295 75.38215153062734 20.59798076223408 260.8451208084099 116.84103488886771 21.06673602084317 257.21606830920416 120.36041463806365 7.9287672157302485 339.26890335850214 64.3832496440211 15.514957866346434 338.0272731541032 60.344491262290816 18.03122083678654 334.8481918428107 50.215553201499205 17.36795790895136 332.2238338057779 36.160708061527615 10.53220505509654 331.856485646211 32.675987763517185 47.663989987238935 254.2714873892437 50.213110779382745 47.263731137714736 287.88453953389416 54.593609284540044 34.18945552989725 280.0045718958586 63.65901105520195 43.96626362820442 300.3492302647001 54.48858003219167 32.96997200313726 295.30529468581506 63.659686124720835 39.44684079959194 301.8491939416072 50.7267165394525 28.90769538634935 298.7156430744926 55.58934237097572 46.10399078530829 285.24805469060857 48.55436478244811 32.971051189642175 281.5322761364447 54.92074461876227 -54.35829802825842 360.6595651570562 1.3266016847998288 -94.67870590505025 244.2177487199873 -43.23449189194522 -24.92487284490606 300.39161100843273 -16.393416951152517 -41.93147388273865 293.10714519387153 -34.381012709154135 -8.358252602599126 301.56288439074933 -22.027801376315203 -20.34485409974341 292.32490496484047 -47.83024286947923 -62.53457332968109 292.9533305574446 -2.167287961874961 -103.00236790404375 273.0217716390103 -2.16796255722911 -94.39118454368463 268.1649789427854 -35.03337131659568 -84.58526432452483 191.56103524512326 15.856372663226166 -39.52246670416035 268.7180737130543 -67.50690202332713 -93.25901417712933 219.21853778532764 27.308104828688187 -60.611746992477286 206.02346848718497 64.9176578690637 -81.59175261169034 210.8075964640014 50.471560318110626 -79.28616873224588 202.1622680258121 40.41841641485198 -25.288647514370748 227.47677283108402 66.81419299139979 -30.456245495030554 206.77297403054325 79.78345108005736 -60.467875804078965 226.37389684367906 58.33620071002942 -95.35015157489653 236.10576065506643 37.406429509735624 -80.07730504978164 239.5324130770137 46.30831632020245 38.27056825662358 245.5568850695784 35.782555178759296 42.52794148195088 240.290772425488 50.21219433271789 30.333438636579373 249.7523885917474 23.860500811815413 48.6730520003904 336.944717434441 -58.52506519078329 -0.011942256146422253 338.9020143831155 50.21488262620076 -0.009747124690644912 380.3515092359668 -37.02531785289413 -35.909069534588895 142.1785786247065 -24.849314019655708 -12.91028705798224 142.72990092771118 -0.0018496015464513071 -35.910585875818384 148.9631929178142 -0.002868234257482616 -59.83216195015171 142.72765156985776 -0.004098959402457414 -35.91126670494062 142.16006485269585 21.002437040301107 58.52016160038198 246.37497194900328 43.42747694719566 -80.79446767766557 1.4957992451747373 6.840170595813184 -0.00239598745749743 105.83859433002115 2.6571475159104025 -0.006890869291042377 233.5133416858414 50.210158904252545 -0.007636728000825836 228.59619439048714 70.68600841386237 -58.53452563061621 246.36936053896034 43.42186553714627 40.63341889576772 275.92521110753114 95.88178071024434 44.302026786398784 262.01129657296144 96.46332077795049 -40.65564341742298 275.92131424298486 95.8778838456936 -44.32297300993329 262.0070480355839 96.4590722405681 -51.49792750195777 295.8685291797658 45.350976525811774 -51.23594844472652 289.34505180602866 46.44442634675487 -48.45918522816524 300.5013892282588 47.39821929823294 48.439252049153765 300.5060343806824 47.40286445066186 51.47863476139317 295.87346570754903 45.35591305360067 51.21717631982733 289.3499632410753 46.4493377818071 -36.654379276795346 19.540884019470795 -0.009275867028954554</float_array>
                    <technique_common>
                        <accessor count="531" source="#pointarray0" stride="3">
                            <param name="X" type="float"/>
                            <param name="Y" type="float"/>
                            <param name="Z" type="float"/>
                        </accessor>
                    </technique_common>
                </source>
                <source id="uvs0">
                    <float_array id="uvarray0" count="2">0 1</float_array>
                    <technique_common>
                        <accessor count="1" source="#uvarray0" stride="2">
                            <param name="S" type="float"/>
                            <param name="T" type="float"/>
                        </accessor>
                    </technique_common>
                </source>
                <vertices id="vertices0">
                    <input semantic="POSITION" source="#points0"/>
                </vertices>
                <polylist count="1016" material="Material1">
                    <input offset="0" semantic="VERTEX" source="#vertices0"/>
                    <input offset="1" semantic="TEXCOORD" source="#uvs0" set="0"/>
                    <vcount>3 3 3 3 3 3 3 3 3 3 3 3 3 3 3 3 3 3 3 3 3 3 3 3 3 3 3 3 3 3 3 3 3 3 3 3 3 3 3 3 3 3 3 3 3 3 3 3 3 3 3 3 3 3 3 3 3 3 3 3 3 3 3 3 3 3 3 3 3 3 3 3 3 3 3 3 3 3 3 3 3 3 3 3 3 3 3 3 3 3 3 3 3 3 3 3 3 3 3 3 3 3 3 3 3 3 3 3 3 3 3 3 3 3 3 3 3 3 3 3 3 3 3 3 3 3 3 3 3 3 3 3 3 3 3 3 3 3 3 3 3 3 3 3 3 3 3 3 3 3 3 3 3 3 3 3 3 3 3 3 3 3 3 3 3 3 3 3 3 3 3 3 3 3 3 3 3 3 3 3 3 3 3 3 3 3 3 3 3 3 3 3 3 3 3 3 3 3 3 3 3 3 3 3 3 3 3 3 3 3 3 3 3 3 3 3 3 3 3 3 3 3 3 3 3 3 3 3 3 3 3 3 3 3 3 3 3 3 3 3 3 3 3 3 3 3 3 3 3 3 3 3 3 3 3 3 3 3 3 3 3 3 3 3 3 3 3 3 3 3 3 3 3 3 3 3 3 3 3 3 3 3 3 3 3 3 3 3 3 3 3 3 3 3 3 3 3 3 3 3 3 3 3 3 3 3 3 3 3 3 3 3 3 3 3 3 3 3 3 3 3 3 3 3 3 3 3 3 3 3 3 3 3 3 3 3 3 3 3 3 3 3 3 3 3 3 3 3 3 3 3 3 3 3 3 3 3 3 3 3 3 3 3 3 3 3 3 3 3 3 3 3 3 3 3 3 3 3 3 3 3 3 3 3 3 3 3 3 3 3 3 3 3 3 3 3 3 3 3 3 3 3 3 3 3 3 3 3 3 3 3 3 3 3 3 3 3 3 3 3 3 3 3 3 3 3 3 3 3 3 3 3 3 3 3 3 3 3 3 3 3 3 3 3 3 3 3 3 3 3 3 3 3 3 3 3 3 3 3 3 3 3 3 3 3 3 3 3 3 3 3 3 3 3 3 3 3 3 3 3 3 3 3 3 3 3 3 3 3 3 3 3 3 3 3 3 3 3 3 3 3 3 3 3 3 3 3 3 3 3 3 3 3 3 3 3 3 3 3 3 3 3 3 3 3 3 3 3 3 3 3 3 3 3 3 3 3 3 3 3 3 3 3 3 3 3 3 3 3 3 3 3 3 3 3 3 3 3 3 3 3 3 3 3 3 3 3 3 3 3 3 3 3 3 3 3 3 3 3 3 3 3 3 3 3 3 3 3 3 3 3 3 3 3 3 3 3 3 3 3 3 3 3 3 3 3 3 3 3 3 3 3 3 3 3 3 3 3 3 3 3 3 3 3 3 3 3 3 3 3 3 3 3 3 3 3 3 3 3 3 3 3 3 3 3 3 3 3 3 3 3 3 3 3 3 3 3 3 3 3 3 3 3 3 3 3 3 3 3 3 3 3 3 3 3 3 3 3 3 3 3 3 3 3 3 3 3 3 3 3 3 3 3 3 3 3 3 3 3 3 3 3 3 3 3 3 3 3 3 3 3 3 3 3 3 3 3 3 3 3 3 3 3 3 3 3 3 3 3 3 3 3 3 3 3 3 3 3 3 3 3 3 3 3 3 3 3 3 3 3 3 3 3 3 3 3 3 3 3 3 3 3 3 3 3 3 3 3 3 3 3 3 3 3 3 3 3 3 3 3 3 3 3 3 3 3 3 3 3 3 3 3 3 3 3 3 3 3 3 3 3 3 3 3 3 3 3 3 3 3 3 3 3 3 3 3 3 3 3 3 3 3 3 3 3 3 3 3 3 3 3 3 3 3 3 3 3 3 3 3 3 3 3 3 3 3 3 3 3 3 3 3 3 3 3 3 3 3 3 3 3 3 3 3 3 3 3 3 3 3 3 3 3 3 3 3 3 3 3 3 3 3 3 3 3 3 3 3 3 3 3 3 3 3 3 3 3 3 3 3 3 3 3 3 3 3 3 3 3 3 3 3 3 3 3 3 3 3 3 3 3 3 3 3 3 3 3 3 3 3 3 3 3 3 3 3 3 3 3 3 3 3 3 3 3 3 3 3 3 3 3 3 3 3 3 3 3 3 3 3 3 3 3 3 3 3 3 3 3 3 3 3 3 3 3 3 3 3 3 3 3 3 3 3 3 3 3 3 3 3 3 3 3 3 3 3 3 3 3 3 3 3 3 3 3 3 3 3 3 3 3 3 3 3 3 3</vcount>
                    <p>2 0 1 0 0 0 3 0 1 0 2 0 5 0 3 0 4 0 6 0 3 0 5 0 9 0 8 0 7 0 10 0 8 0 9 0 13 0 12 0 11 0 14 0 12 0 13 0 12 0 15 0 7 0 14 0 15 0 12 0 16 0 7 0 15 0 9 0 7 0 16 0 9 0 18 0 17 0 16 0 18 0 9 0 18 0 19 0 17 0 20 0 19 0 18 0 19 0 22 0 21 0 20 0 22 0 19 0 22 0 23 0 21 0 24 0 23 0 22 0 23 0 13 0 11 0 24 0 13 0 23 0 27 0 26 0 25 0 28 0 26 0 27 0 30 0 25 0 29 0 27 0 25 0 30 0 33 0 32 0 31 0 34 0 32 0 33 0 37 0 36 0 35 0 38 0 36 0 37 0 39 0 38 0 37 0 40 0 38 0 39 0 43 0 42 0 41 0 44 0 42 0 43 0 45 0 37 0 35 0 46 0 37 0 45 0 46 0 39 0 37 0 47 0 39 0 46 0 49 0 41 0 48 0 43 0 41 0 49 0 52 0 51 0 50 0 53 0 51 0 52 0 55 0 50 0 54 0 52 0 50 0 55 0 57 0 54 0 56 0 55 0 54 0 57 0 53 0 58 0 51 0 29 0 58 0 53 0 61 0 60 0 59 0 62 0 60 0 61 0 64 0 59 0 63 0 61 0 59 0 64 0 62 0 65 0 60 0 36 0 65 0 62 0 35 0 62 0 61 0 36 0 62 0 35 0 61 0 45 0 35 0 64 0 45 0 61 0 66 0 7 0 8 0 12 0 7 0 66 0 11 0 66 0 67 0 12 0 66 0 11 0 68 0 11 0 67 0 23 0 11 0 68 0 21 0 68 0 69 0 23 0 68 0 21 0 70 0 21 0 69 0 19 0 21 0 70 0 73 0 72 0 71 0 74 0 72 0 73 0 74 0 75 0 72 0 76 0 75 0 74 0 78 0 0 0 77 0 79 0 0 0 78 0 81 0 78 0 80 0 79 0 78 0 81 0 17 0 70 0 82 0 19 0 70 0 17 0 10 0 17 0 82 0 9 0 17 0 10 0 83 0 81 0 80 0 84 0 81 0 83 0 86 0 84 0 85 0 87 0 84 0 86 0 84 0 88 0 81 0 87 0 88 0 84 0 88 0 79 0 81 0 89 0 79 0 88 0 79 0 2 0 0 0 89 0 2 0 79 0 1 0 6 0 90 0 3 0 6 0 1 0 6 0 91 0 90 0 92 0 91 0 6 0 91 0 86 0 85 0 92 0 86 0 91 0 85 0 20 0 18 0 93 0 20 0 85 0 16 0 85 0 18 0 91 0 85 0 16 0 90 0 16 0 15 0 91 0 16 0 90 0 14 0 90 0 15 0 1 0 90 0 14 0 94 0 14 0 13 0 1 0 14 0 94 0 20 0 95 0 22 0 93 0 95 0 20 0 95 0 24 0 22 0 96 0 24 0 95 0 24 0 94 0 13 0 96 0 94 0 24 0 93 0 80 0 95 0 83 0 80 0 93 0 80 0 96 0 95 0 78 0 96 0 80 0 96 0 77 0 94 0 78 0 77 0 96 0 99 0 98 0 97 0 100 0 98 0 99 0 103 0 102 0 101 0 104 0 102 0 103 0 102 0 106 0 105 0 104 0 106 0 102 0 106 0 107 0 105 0 108 0 107 0 106 0 109 0 108 0 106 0 99 0 108 0 109 0 104 0 109 0 106 0 110 0 109 0 104 0 111 0 104 0 103 0 110 0 104 0 111 0 112 0 99 0 109 0 100 0 99 0 112 0 110 0 112 0 109 0 113 0 112 0 110 0 114 0 110 0 111 0 113 0 110 0 114 0 115 0 114 0 111 0 116 0 114 0 115 0 113 0 117 0 112 0 118 0 117 0 113 0 119 0 113 0 114 0 118 0 113 0 119 0 116 0 119 0 114 0 120 0 119 0 116 0 122 0 116 0 121 0 120 0 116 0 122 0 121 0 123 0 122 0 124 0 123 0 121 0 125 0 124 0 98 0 123 0 124 0 125 0 100 0 125 0 98 0 126 0 125 0 100 0 122 0 128 0 127 0 123 0 128 0 122 0 127 0 120 0 122 0 129 0 120 0 127 0 120 0 130 0 119 0 129 0 130 0 120 0 130 0 118 0 119 0 131 0 118 0 130 0 118 0 132 0 117 0 131 0 132 0 118 0 132 0 126 0 117 0 133 0 126 0 132 0 126 0 134 0 125 0 133 0 134 0 126 0 134 0 123 0 125 0 128 0 123 0 134 0 136 0 101 0 135 0 115 0 101 0 136 0 139 0 138 0 137 0 140 0 138 0 139 0 141 0 140 0 139 0 142 0 140 0 141 0 145 0 144 0 143 0 146 0 144 0 145 0 98 0 147 0 97 0 124 0 147 0 98 0 117 0 100 0 112 0 126 0 100 0 117 0 149 0 31 0 148 0 33 0 31 0 149 0 151 0 148 0 150 0 149 0 148 0 151 0 153 0 150 0 152 0 151 0 150 0 153 0 155 0 152 0 154 0 153 0 152 0 155 0 157 0 154 0 156 0 155 0 154 0 157 0 159 0 156 0 158 0 157 0 156 0 159 0 34 0 158 0 32 0 159 0 158 0 34 0 156 0 28 0 27 0 154 0 28 0 156 0 158 0 27 0 30 0 156 0 27 0 158 0 152 0 161 0 160 0 150 0 161 0 152 0 154 0 160 0 28 0 152 0 160 0 154 0 163 0 56 0 162 0 57 0 56 0 163 0 26 0 162 0 164 0 163 0 162 0 26 0 147 0 121 0 165 0 124 0 121 0 147 0 121 0 115 0 165 0 116 0 115 0 121 0 166 0 97 0 144 0 107 0 97 0 166 0 97 0 143 0 144 0 147 0 143 0 97 0 143 0 165 0 167 0 147 0 165 0 143 0 165 0 136 0 167 0 115 0 136 0 165 0 101 0 168 0 135 0 102 0 168 0 101 0 168 0 105 0 169 0 102 0 105 0 168 0 105 0 166 0 169 0 107 0 166 0 105 0 28 0 163 0 26 0 160 0 163 0 28 0 160 0 57 0 163 0 161 0 57 0 160 0 148 0 52 0 55 0 170 0 52 0 148 0 170 0 53 0 52 0 32 0 53 0 170 0 29 0 171 0 58 0 25 0 171 0 29 0 25 0 164 0 171 0 26 0 164 0 25 0 51 0 58 0 172 0 58 0 171 0 172 0 171 0 164 0 172 0 164 0 162 0 172 0 3 0 2 0 4 0 173 0 73 0 5 0 174 0 132 0 131 0 175 0 134 0 133 0 175 0 133 0 174 0 176 0 129 0 127 0 175 0 176 0 134 0 175 0 174 0 130 0 176 0 128 0 134 0 176 0 127 0 128 0 87 0 72 0 75 0 86 0 71 0 72 0 75 0 177 0 88 0 86 0 92 0 71 0 103 0 101 0 115 0 111 0 103 0 115 0 97 0 108 0 99 0 97 0 107 0 108 0 178 0 82 0 70 0 179 0 69 0 68 0 178 0 67 0 66 0 178 0 179 0 67 0 180 0 10 0 82 0 178 0 66 0 180 0 178 0 70 0 179 0 180 0 66 0 8 0 180 0 8 0 10 0 178 0 180 0 82 0 179 0 68 0 67 0 179 0 70 0 69 0 145 0 143 0 181 0 138 0 182 0 137 0 183 0 169 0 146 0 174 0 131 0 130 0 174 0 133 0 132 0 182 0 169 0 183 0 182 0 183 0 137 0 139 0 137 0 184 0 142 0 141 0 181 0 167 0 142 0 181 0 136 0 135 0 140 0 135 0 138 0 140 0 136 0 140 0 142 0 138 0 168 0 182 0 136 0 142 0 167 0 135 0 168 0 138 0 182 0 168 0 169 0 167 0 181 0 143 0 175 0 129 0 176 0 145 0 181 0 141 0 184 0 145 0 141 0 144 0 146 0 166 0 166 0 146 0 169 0 65 0 39 0 59 0 63 0 45 0 64 0 59 0 185 0 63 0 59 0 39 0 185 0 65 0 59 0 60 0 63 0 185 0 45 0 2 0 89 0 4 0 5 0 186 0 6 0 75 0 76 0 177 0 187 0 4 0 89 0 4 0 187 0 173 0 175 0 130 0 129 0 153 0 188 0 151 0 189 0 149 0 188 0 190 0 157 0 159 0 191 0 155 0 157 0 191 0 153 0 155 0 191 0 188 0 153 0 188 0 149 0 151 0 189 0 33 0 149 0 190 0 159 0 34 0 189 0 34 0 33 0 192 0 188 0 191 0 192 0 191 0 190 0 185 0 46 0 45 0 185 0 39 0 47 0 40 0 39 0 65 0 41 0 65 0 48 0 48 0 36 0 49 0 36 0 38 0 43 0 44 0 40 0 42 0 65 0 36 0 48 0 38 0 40 0 44 0 36 0 43 0 49 0 43 0 38 0 44 0 40 0 41 0 42 0 40 0 65 0 41 0 185 0 47 0 46 0 1 0 77 0 0 0 177 0 187 0 89 0 177 0 76 0 187 0 74 0 173 0 76 0 5 0 73 0 186 0 146 0 184 0 183 0 146 0 145 0 184 0 183 0 184 0 137 0 184 0 141 0 139 0 4 0 173 0 5 0 187 0 76 0 173 0 173 0 74 0 73 0 93 0 85 0 83 0 1 0 94 0 77 0 71 0 186 0 73 0 92 0 186 0 71 0 83 0 85 0 84 0 87 0 75 0 88 0 177 0 89 0 88 0 92 0 6 0 186 0 86 0 72 0 87 0 162 0 56 0 172 0 56 0 54 0 172 0 54 0 50 0 172 0 50 0 51 0 172 0 29 0 32 0 30 0 55 0 57 0 148 0 192 0 190 0 189 0 192 0 189 0 188 0 148 0 57 0 161 0 29 0 53 0 32 0 148 0 161 0 150 0 170 0 148 0 31 0 32 0 170 0 31 0 30 0 32 0 158 0 190 0 34 0 189 0 191 0 157 0 190 0 195 0 194 0 193 0 196 0 194 0 195 0 198 0 193 0 197 0 195 0 193 0 198 0 201 0 200 0 199 0 202 0 200 0 201 0 205 0 204 0 203 0 206 0 204 0 205 0 206 0 207 0 204 0 208 0 207 0 206 0 211 0 210 0 209 0 212 0 210 0 211 0 215 0 214 0 213 0 216 0 214 0 215 0 219 0 218 0 217 0 220 0 218 0 219 0 223 0 222 0 221 0 224 0 222 0 223 0 225 0 224 0 223 0 226 0 224 0 225 0 227 0 226 0 225 0 228 0 226 0 227 0 229 0 228 0 227 0 230 0 228 0 229 0 233 0 232 0 231 0 234 0 232 0 233 0 235 0 234 0 233 0 211 0 234 0 235 0 236 0 211 0 235 0 237 0 211 0 236 0 231 0 239 0 238 0 232 0 239 0 231 0 217 0 241 0 240 0 218 0 241 0 217 0 218 0 242 0 241 0 243 0 242 0 218 0 243 0 244 0 242 0 245 0 244 0 243 0 245 0 246 0 244 0 247 0 246 0 245 0 247 0 248 0 246 0 213 0 248 0 247 0 213 0 249 0 248 0 214 0 249 0 213 0 250 0 220 0 219 0 251 0 220 0 250 0 252 0 245 0 243 0 253 0 245 0 252 0 253 0 247 0 245 0 254 0 247 0 253 0 257 0 256 0 255 0 258 0 256 0 257 0 261 0 260 0 259 0 262 0 260 0 261 0 265 0 264 0 263 0 266 0 264 0 265 0 262 0 267 0 260 0 268 0 267 0 262 0 271 0 270 0 269 0 272 0 270 0 271 0 273 0 269 0 270 0 274 0 269 0 273 0 274 0 271 0 269 0 275 0 271 0 274 0 275 0 272 0 271 0 276 0 272 0 275 0 279 0 278 0 277 0 280 0 278 0 279 0 283 0 282 0 281 0 284 0 282 0 283 0 281 0 286 0 285 0 282 0 286 0 281 0 285 0 288 0 287 0 286 0 288 0 285 0 287 0 290 0 289 0 288 0 290 0 287 0 289 0 292 0 291 0 290 0 292 0 289 0 291 0 294 0 293 0 292 0 294 0 291 0 297 0 296 0 295 0 298 0 296 0 297 0 193 0 202 0 201 0 194 0 202 0 193 0 301 0 300 0 299 0 302 0 300 0 301 0 303 0 301 0 298 0 304 0 301 0 303 0 284 0 298 0 297 0 303 0 298 0 284 0 305 0 196 0 195 0 294 0 196 0 305 0 306 0 195 0 198 0 305 0 195 0 306 0 304 0 302 0 301 0 307 0 302 0 304 0 199 0 203 0 308 0 200 0 203 0 199 0 300 0 310 0 309 0 311 0 310 0 300 0 296 0 313 0 312 0 299 0 313 0 296 0 295 0 312 0 314 0 296 0 312 0 295 0 317 0 316 0 315 0 318 0 316 0 317 0 321 0 320 0 319 0 322 0 320 0 321 0 319 0 324 0 323 0 320 0 324 0 319 0 326 0 323 0 325 0 319 0 323 0 326 0 329 0 328 0 327 0 330 0 328 0 329 0 331 0 327 0 251 0 329 0 327 0 331 0 215 0 323 0 324 0 254 0 323 0 215 0 251 0 332 0 331 0 250 0 332 0 251 0 335 0 334 0 333 0 336 0 334 0 335 0 336 0 332 0 250 0 335 0 332 0 336 0 254 0 213 0 247 0 215 0 213 0 254 0 338 0 315 0 337 0 317 0 315 0 338 0 337 0 340 0 339 0 315 0 340 0 337 0 339 0 342 0 341 0 340 0 342 0 339 0 341 0 214 0 216 0 342 0 214 0 341 0 219 0 344 0 343 0 217 0 344 0 219 0 250 0 343 0 336 0 219 0 343 0 250 0 345 0 237 0 236 0 346 0 237 0 345 0 347 0 346 0 345 0 348 0 346 0 347 0 351 0 350 0 349 0 352 0 350 0 351 0 353 0 350 0 352 0 354 0 350 0 353 0 355 0 348 0 347 0 356 0 348 0 355 0 238 0 356 0 355 0 239 0 356 0 238 0 356 0 225 0 348 0 227 0 225 0 356 0 239 0 227 0 356 0 229 0 227 0 239 0 346 0 221 0 237 0 223 0 221 0 346 0 358 0 255 0 357 0 257 0 255 0 358 0 361 0 360 0 359 0 362 0 360 0 361 0 364 0 257 0 363 0 258 0 257 0 364 0 363 0 358 0 365 0 257 0 358 0 363 0 366 0 362 0 361 0 367 0 362 0 366 0 210 0 369 0 368 0 370 0 369 0 210 0 212 0 370 0 210 0 371 0 370 0 212 0 222 0 371 0 212 0 372 0 371 0 222 0 368 0 373 0 230 0 369 0 373 0 368 0 376 0 375 0 374 0 377 0 375 0 376 0 378 0 377 0 376 0 379 0 377 0 378 0 374 0 380 0 256 0 375 0 380 0 374 0 258 0 374 0 256 0 376 0 374 0 258 0 376 0 364 0 378 0 258 0 364 0 376 0 224 0 372 0 222 0 381 0 372 0 224 0 226 0 381 0 224 0 382 0 381 0 226 0 228 0 382 0 226 0 383 0 382 0 228 0 230 0 383 0 228 0 373 0 383 0 230 0 209 0 368 0 232 0 210 0 368 0 209 0 342 0 249 0 214 0 384 0 249 0 342 0 340 0 384 0 342 0 385 0 384 0 340 0 341 0 386 0 339 0 387 0 386 0 341 0 327 0 253 0 252 0 328 0 253 0 327 0 315 0 385 0 340 0 316 0 385 0 315 0 217 0 388 0 344 0 240 0 388 0 217 0 344 0 318 0 317 0 388 0 318 0 344 0 391 0 390 0 389 0 392 0 390 0 391 0 314 0 392 0 391 0 393 0 392 0 314 0 208 0 394 0 207 0 395 0 394 0 208 0 280 0 396 0 278 0 397 0 396 0 280 0 389 0 397 0 280 0 390 0 397 0 389 0 400 0 399 0 398 0 401 0 399 0 400 0 297 0 401 0 400 0 295 0 401 0 297 0 402 0 202 0 194 0 403 0 202 0 402 0 398 0 405 0 404 0 399 0 405 0 398 0 282 0 398 0 286 0 400 0 398 0 282 0 408 0 407 0 406 0 409 0 407 0 408 0 411 0 406 0 410 0 408 0 406 0 411 0 412 0 319 0 326 0 321 0 319 0 412 0 413 0 408 0 411 0 414 0 408 0 413 0 414 0 409 0 408 0 415 0 409 0 414 0 415 0 416 0 409 0 351 0 416 0 415 0 409 0 417 0 407 0 416 0 417 0 409 0 410 0 419 0 418 0 406 0 419 0 410 0 406 0 420 0 419 0 407 0 420 0 406 0 420 0 330 0 329 0 421 0 330 0 420 0 215 0 422 0 216 0 324 0 422 0 215 0 419 0 332 0 418 0 331 0 332 0 419 0 419 0 329 0 331 0 420 0 329 0 419 0 341 0 422 0 387 0 216 0 422 0 341 0 423 0 332 0 335 0 418 0 332 0 423 0 266 0 425 0 424 0 426 0 425 0 266 0 428 0 427 0 395 0 278 0 427 0 428 0 431 0 430 0 429 0 432 0 430 0 431 0 348 0 223 0 346 0 225 0 223 0 348 0 264 0 262 0 433 0 266 0 262 0 264 0 284 0 400 0 282 0 297 0 400 0 284 0 292 0 196 0 294 0 434 0 196 0 292 0 290 0 434 0 292 0 435 0 434 0 290 0 286 0 404 0 288 0 398 0 404 0 286 0 436 0 203 0 200 0 205 0 203 0 436 0 405 0 277 0 437 0 279 0 277 0 405 0 401 0 389 0 399 0 391 0 389 0 401 0 295 0 391 0 401 0 314 0 391 0 295 0 434 0 194 0 196 0 402 0 194 0 434 0 435 0 402 0 434 0 438 0 402 0 435 0 403 0 200 0 202 0 436 0 200 0 403 0 395 0 439 0 394 0 427 0 439 0 395 0 440 0 402 0 438 0 441 0 402 0 440 0 443 0 442 0 433 0 444 0 442 0 443 0 444 0 263 0 442 0 445 0 263 0 444 0 446 0 263 0 445 0 265 0 263 0 446 0 447 0 444 0 443 0 448 0 444 0 447 0 444 0 449 0 445 0 448 0 449 0 444 0 445 0 450 0 446 0 449 0 450 0 445 0 449 0 451 0 450 0 452 0 451 0 449 0 446 0 453 0 265 0 454 0 453 0 446 0 455 0 453 0 454 0 456 0 453 0 455 0 457 0 456 0 455 0 458 0 456 0 457 0 461 0 460 0 459 0 462 0 460 0 461 0 453 0 458 0 426 0 456 0 458 0 453 0 463 0 260 0 425 0 259 0 260 0 463 0 464 0 439 0 430 0 394 0 439 0 464 0 466 0 193 0 465 0 197 0 193 0 466 0 308 0 204 0 467 0 203 0 204 0 308 0 467 0 207 0 468 0 204 0 207 0 467 0 469 0 294 0 305 0 293 0 294 0 469 0 470 0 305 0 306 0 469 0 305 0 470 0 471 0 306 0 307 0 470 0 306 0 471 0 472 0 307 0 304 0 471 0 307 0 472 0 473 0 304 0 303 0 472 0 304 0 473 0 283 0 303 0 284 0 473 0 303 0 283 0 309 0 431 0 474 0 310 0 431 0 309 0 477 0 476 0 475 0 478 0 476 0 477 0 479 0 478 0 477 0 480 0 478 0 479 0 481 0 480 0 479 0 482 0 480 0 481 0 478 0 482 0 476 0 480 0 482 0 478 0 425 0 267 0 424 0 260 0 267 0 425 0 265 0 426 0 266 0 453 0 426 0 265 0 483 0 448 0 447 0 452 0 448 0 483 0 263 0 433 0 442 0 264 0 433 0 263 0 423 0 333 0 484 0 335 0 333 0 423 0 487 0 486 0 485 0 488 0 486 0 487 0 413 0 488 0 487 0 411 0 488 0 413 0 485 0 489 0 353 0 486 0 489 0 485 0 486 0 490 0 489 0 491 0 490 0 486 0 334 0 337 0 492 0 338 0 337 0 334 0 488 0 491 0 486 0 493 0 491 0 488 0 410 0 423 0 493 0 418 0 423 0 410 0 493 0 484 0 491 0 423 0 484 0 493 0 333 0 492 0 494 0 334 0 492 0 333 0 496 0 386 0 495 0 497 0 386 0 496 0 500 0 499 0 498 0 495 0 499 0 500 0 411 0 493 0 488 0 410 0 493 0 411 0 484 0 494 0 501 0 333 0 494 0 484 0 495 0 387 0 499 0 386 0 387 0 495 0 502 0 495 0 500 0 496 0 495 0 502 0 298 0 299 0 296 0 301 0 299 0 298 0 313 0 504 0 503 0 474 0 504 0 313 0 474 0 429 0 504 0 431 0 429 0 474 0 468 0 394 0 464 0 207 0 394 0 468 0 314 0 505 0 393 0 312 0 505 0 314 0 312 0 503 0 505 0 313 0 503 0 312 0 506 0 451 0 459 0 450 0 451 0 506 0 454 0 450 0 506 0 446 0 450 0 454 0 455 0 506 0 460 0 454 0 506 0 455 0 462 0 455 0 460 0 457 0 455 0 462 0 281 0 507 0 283 0 285 0 507 0 281 0 447 0 443 0 262 0 293 0 507 0 291 0 291 0 507 0 289 0 317 0 338 0 343 0 317 0 343 0 344 0 443 0 433 0 262 0 449 0 448 0 452 0 483 0 508 0 452 0 262 0 261 0 483 0 262 0 266 0 268 0 430 0 432 0 464 0 427 0 278 0 396 0 425 0 426 0 458 0 511 0 510 0 509 0 511 0 509 0 512 0 511 0 512 0 513 0 511 0 513 0 510 0 509 0 233 0 231 0 512 0 231 0 238 0 509 0 235 0 233 0 510 0 236 0 235 0 513 0 345 0 510 0 513 0 347 0 345 0 513 0 512 0 355 0 512 0 509 0 231 0 513 0 355 0 347 0 512 0 238 0 355 0 230 0 229 0 232 0 229 0 239 0 232 0 232 0 234 0 209 0 209 0 234 0 211 0 349 0 417 0 416 0 326 0 421 0 412 0 349 0 514 0 412 0 514 0 321 0 412 0 326 0 330 0 421 0 254 0 253 0 328 0 422 0 324 0 320 0 351 0 349 0 416 0 350 0 514 0 349 0 357 0 380 0 358 0 362 0 367 0 380 0 367 0 366 0 256 0 256 0 361 0 255 0 515 0 364 0 363 0 515 0 365 0 358 0 359 0 360 0 357 0 380 0 367 0 256 0 255 0 359 0 357 0 256 0 366 0 361 0 361 0 359 0 255 0 357 0 360 0 362 0 357 0 362 0 380 0 515 0 363 0 365 0 242 0 244 0 516 0 244 0 246 0 516 0 246 0 248 0 516 0 248 0 249 0 516 0 240 0 241 0 516 0 241 0 242 0 516 0 240 0 516 0 388 0 318 0 516 0 316 0 316 0 516 0 385 0 385 0 516 0 384 0 384 0 516 0 249 0 388 0 516 0 318 0 509 0 510 0 235 0 345 0 236 0 510 0 429 0 430 0 517 0 430 0 439 0 517 0 393 0 505 0 517 0 505 0 503 0 517 0 485 0 352 0 487 0 397 0 517 0 396 0 390 0 517 0 397 0 392 0 517 0 390 0 393 0 517 0 392 0 427 0 517 0 439 0 396 0 517 0 427 0 353 0 352 0 485 0 487 0 352 0 413 0 349 0 421 0 417 0 338 0 334 0 336 0 514 0 322 0 321 0 252 0 251 0 327 0 350 0 322 0 514 0 325 0 328 0 330 0 325 0 254 0 328 0 325 0 323 0 254 0 417 0 421 0 420 0 417 0 420 0 407 0 412 0 421 0 349 0 422 0 320 0 518 0 518 0 320 0 322 0 325 0 330 0 326 0 350 0 518 0 322 0 339 0 492 0 337 0 496 0 501 0 494 0 519 0 502 0 500 0 354 0 502 0 519 0 518 0 498 0 499 0 422 0 518 0 499 0 502 0 354 0 501 0 497 0 494 0 492 0 497 0 496 0 494 0 354 0 489 0 490 0 496 0 502 0 501 0 354 0 490 0 501 0 519 0 500 0 498 0 350 0 519 0 498 0 490 0 491 0 484 0 490 0 484 0 501 0 497 0 339 0 386 0 497 0 492 0 339 0 350 0 354 0 519 0 350 0 498 0 518 0 422 0 499 0 387 0 353 0 489 0 354 0 351 0 415 0 352 0 414 0 413 0 352 0 415 0 414 0 352 0 503 0 504 0 517 0 504 0 429 0 517 0 463 0 461 0 508 0 461 0 459 0 508 0 466 0 300 0 302 0 311 0 465 0 520 0 197 0 302 0 198 0 198 0 302 0 307 0 309 0 299 0 300 0 308 0 521 0 199 0 438 0 435 0 404 0 437 0 522 0 441 0 440 0 404 0 405 0 437 0 440 0 405 0 441 0 440 0 437 0 523 0 428 0 208 0 261 0 508 0 483 0 259 0 508 0 261 0 452 0 508 0 451 0 525 0 524 0 273 0 524 0 274 0 273 0 272 0 276 0 273 0 276 0 525 0 273 0 311 0 300 0 466 0 465 0 311 0 466 0 403 0 402 0 441 0 464 0 432 0 468 0 395 0 208 0 428 0 524 0 526 0 274 0 338 0 336 0 343 0 243 0 220 0 252 0 289 0 507 0 287 0 287 0 507 0 285 0 243 0 218 0 220 0 252 0 220 0 251 0 435 0 290 0 288 0 205 0 436 0 523 0 279 0 405 0 399 0 435 0 288 0 404 0 521 0 468 0 432 0 467 0 468 0 521 0 201 0 465 0 193 0 466 0 302 0 197 0 198 0 307 0 306 0 472 0 473 0 507 0 473 0 283 0 507 0 293 0 469 0 507 0 469 0 470 0 507 0 470 0 471 0 507 0 471 0 472 0 507 0 528 0 479 0 527 0 475 0 481 0 529 0 476 0 481 0 475 0 528 0 481 0 479 0 529 0 481 0 528 0 459 0 451 0 508 0 259 0 463 0 508 0 520 0 521 0 310 0 311 0 520 0 310 0 520 0 465 0 199 0 521 0 432 0 431 0 482 0 481 0 476 0 475 0 528 0 477 0 475 0 529 0 528 0 477 0 528 0 527 0 479 0 477 0 527 0 440 0 438 0 404 0 211 0 237 0 221 0 211 0 221 0 222 0 230 0 232 0 368 0 212 0 211 0 222 0 379 0 378 0 364 0 377 0 379 0 515 0 377 0 515 0 358 0 380 0 375 0 377 0 380 0 377 0 358 0 379 0 364 0 515 0 370 0 530 0 369 0 371 0 530 0 370 0 372 0 530 0 371 0 381 0 530 0 372 0 382 0 530 0 381 0 383 0 530 0 382 0 373 0 530 0 383 0 369 0 530 0 373 0 274 0 526 0 275 0 275 0 526 0 524 0 276 0 524 0 525 0 206 0 205 0 523 0 276 0 275 0 524 0 270 0 272 0 273 0 523 0 277 0 278 0 279 0 399 0 389 0 523 0 278 0 428 0 522 0 436 0 441 0 437 0 277 0 522 0 522 0 277 0 523 0 441 0 436 0 403 0 522 0 523 0 436 0 280 0 279 0 389 0 206 0 523 0 208 0 483 0 447 0 262 0 425 0 461 0 463 0 506 0 459 0 460 0 457 0 425 0 458 0 462 0 425 0 457 0 461 0 425 0 462 0 467 0 521 0 308 0 521 0 431 0 310 0 309 0 313 0 299 0 474 0 313 0 309 0 520 0 199 0 521 0 465 0 201 0 199 0</p>
                </polylist>
            </mesh>
        </geometry>
    </library_geometries>
    <library_controllers>
        <controller id="controller0">
            <skin source="#mesh0">
                <bind_shape_matrix>1 0 0 0 0 1 0 0 0 0 1 0 0 0 0 1</bind_shape_matrix>
                <source id="joints0">
                    <Name_array id="JointArr0" count="35">jointnode-1 jointnode0 jointnode1 jointnode2 jointnode3 jointnode4 jointnode5 jointnode6 jointnode7 jointnode8 jointnode9 jointnode10 jointnode11 jointnode12 jointnode13 jointnode14 jointnode15 jointnode16 jointnode17 jointnode18 jointnode19 jointnode20 jointnode21 jointnode22 jointnode23 jointnode24 jointnode25 jointnode26 jointnode27 jointnode28 jointnode29 jointnode30 jointnode31 jointnode32 jointnode33</Name_array>
                    <technique_common>
                        <accessor source="#JointArr0" count="35">
                            <param name="JOINT" type="Name" />
                        </accessor>
                    </technique_common>
                </source>
                <source id="matrices0">
                    <float_array id="MatArr0" count="560">1 0 0 0 0 1 0 0 0 0 1 0 0 0 0 1 1 0 0 0 0 1 0 0 0 0 1 0 0 0 0 1 1 0 0 0 0 1 0 -125.14652252197266 0 0 1 0 0 0 0 1 1 0 0 0 0 1 0 0 0 0 1 -100 0 0 0 1 1 0 0 -100 0 1 0 0 0 0 1 0 0 0 0 1 1 0 0 100 0 1 0 0 0 0 1 0 0 0 0 1 1 0 0 0 0 1 0 -93 0 0 1 0 0 0 0 1 0.00004793836256601856 -0.9999999988509567 -4.386559881474326e-18 137.49999984200656 0.00004793836251091911 2.2980866055094973e-9 -0.9999999988509567 2.499999681140483 0.9999999977019134 0.00004793836251091911 0.00004793836256601856 -0.006711370751666425 0 0 0 1 0.00004782332063778632 -0.9999971262495844 0.0023969158313184714 124.99964171829647 -0.0000480531290230205 0.0023969135332384717 0.9999971262440761 -0.29961511597924 -0.9999999977019134 -0.00004793836251091881 -0.00004793836256589609 37.00671137075166 0 0 0 1 0.00004782332063778632 -0.9999971262495844 0.0023969158313184714 67.49964171829649 -0.0000480531290230205 0.0023969135332384717 0.9999971262440761 -1.4008841227083664 -0.9999999977019134 -0.00004793836251091881 -0.00004793836256589609 37.00671137075167 0 0 0 1 0.00004793836256601826 -0.9999999988509566 -4.826125313346229e-18 22.49968605221886 -0.000047938362510796644 -2.298086605503612e-9 0.9999999988509567 0.008468729012002334 -0.9999999977019135 -0.00004793836251091881 -0.000047938362565896096 37.00671137075167 0 0 0 1 -0.00004793606436910788 -0.00004794066059752197 0.9999999977019134 -39.991171702366906 -0.00004794066059753787 0.9999999977018031 0.00004793836251092393 -7.501603172127032 -0.9999999977019135 -0.00004793836251091881 -0.0000479383625658961 35.13171232442598 0 0 0 1 0.000047818713241344304 -0.999996891845205 0.0024927922697969397 124.99961051507236 -0.00004805771394552241 0.002492789971717479 0.9999968918394764 -0.31159775878161794 -0.9999999977019135 -0.00004793836251091882 -0.00004793836256589611 -36.993288629248326 0 0 0 1 0.000047823320637786314 -0.9999971262495845 0.002396915831318472 67.4996982663124 -0.00004805312902302051 0.0023969135332384717 0.9999971262440762 -1.3894651377945462 -0.9999999977019134 -0.000047938362510918806 -0.0000479383625658961 -36.99328762924834 0 0 0 1 0.00004793836256601825 -0.9999999988509567 -4.392444444352028e-18 22.499672397940877 -0.00004793836251079665 -2.2980866059372924e-9 0.9999999988509568 0.00751876100357246 -0.9999999977019135 -0.000047938362510918806 -0.00004793836256589611 -36.99328662924834 0 0 0 1 -0.000047936064369107886 -0.00004794066059752241 0.9999999977019135 -39.9921216710288 -0.000047940660597537865 0.9999999977018033 0.0000479383625109235 -7.501589563388977 -0.9999999977019135 -0.000047938362510918806 -0.000047938362565896116 -35.11828758292266 0 0 0 1 -0.000058713617795048536 0.965915484345868 0.25885763201729006 -170.51237327745616 -0.00003389519569432086 -0.2588576342370475 0.9659154849407453 37.651065971063886 0.9999999977019135 0.00004793836251091912 0.000047938362566018563 -0.006710370751668949 0 0 0 1 -0.00006370548882742022 0.42257722554517396 0.9063269191589503 -129.44816341383935 0.000023190168153741 -0.9063269201300692 0.42257722762799177 229.209894998565 0.9999999977019134 0.00004793836251091912 0.000047938362566018563 -0.006711370751666424 0 0 0 1 -0.00004793606436923036 -0.000047940660597482686 0.9999999977019136 -34.81191714682002 0.00004794066059753818 -0.9999999977018035 -0.00004793836251077582 270.14270264601845 0.9999999977019134 0.00004793836251091912 0.00004793836256601857 -0.006711370751666424 0 0 0 1 -0.00004793606436923036 -0.000047940660597482686 0.9999999977019136 -34.81191714682002 0.00004794066059753818 -0.9999999977018035 -0.00004793836251077582 270.14270264601845 0.9999999977019134 0.00004793836251091912 0.00004793836256601857 -0.006711370751666424 0 0 0 1 -0.00006779508197298451 0.7070220298179067 0.7071915191488048 -257.6505723683458 8.125002052705607e-9 -0.7071915207736028 0.7070220314430941 187.92557142714367 0.9999999977019134 0.000047938362510919124 0.00004793836256601857 -0.006714370751772538 0 0 0 1 0.9999999937382356 0.00009424276915255065 0.00006034757352756114 -42.088198092327026 -0.00006033853753039688 -0.00009587990486030716 0.9999999935831527 -5.030414436130113 0.00009424855466745052 -0.9999999909626723 -0.00009587421778905237 232.32624308908066 0 0 0 1 0.9999904261750173 0.0000938282239882645 0.004374786231528593 -91.31202091131395 0.004374777196284624 0.00009628561718526283 -0.9999904259809506 -8.205960667471855 -0.00009424855466744996 0.9999999909626722 0.00009587421778892991 -233.1288890703924 0 0 0 1 0.9999857721696648 0.00009373586538076876 0.005333542146341052 -162.28766922620122 0.005333533111287301 0.00009637553234538999 -0.9999857719669354 -9.315062013702452 -0.00009424855466744996 0.9999999909626722 0.00009587421778892991 -233.12877007039577 0 0 0 1 0.9999999937382356 0.00009424276915255062 0.00006034757352756202 -237.22348335051322 -0.00009424566202846592 0.9999999944099547 0.000047935855420453135 -233.12910166890552 -0.00006034305558245018 -0.00004794154261732291 0.9999999970301623 7.057617663067584 0 0 0 1 0.9999999937382356 0.00009424276915255062 0.00006034757352756202 -237.22348335051322 -0.00009424566202846592 0.9999999944099547 0.000047935855420453135 -233.12910166890552 -0.00006034305558245018 -0.00004794154261732291 0.9999999970301623 7.057617663067584 0 0 0 1 -0.9999999993675048 -0.0000016339557591210803 -0.000035529151494309486 -41.640237556599395 -0.00003552899466944897 -0.00009587871553144504 0.9999999947724816 -5.0304209800884125 -0.000001637362239988157 0.9999999954023013 0.00009587865741798285 -232.32626751693024 0 0 0 1 -0.9999999993675048 -0.0000016339557591210805 -0.00003552915149430949 -91.53920529951932 0.00003552899466944897 0.0000958787155315675 -0.9999999947724816 -7.811917581923337 0.0000016373622399881615 -0.9999999954023013 -0.00009587865741810531 233.12891349824204 0 0 0 1 -0.9999999993675048 -0.0000016339557591210805 -0.00003552915149430949 -162.52370999922638 0.00003552899466944897 0.0000958787155315675 -0.9999999947724816 -8.620698609717222 0.0000016373622399881615 -0.9999999954023013 -0.00009587865741810531 233.1308134982741 0 0 0 1 -0.9999999993675048 -0.0000016339557591210803 -0.000035529151494309486 -237.41895078291776 -0.0000016356590362786915 0.9999999988495266 0.000047940294992532895 -233.13150534563925 0.00003552907312108933 0.000047940353075802494 -0.9999999982197041 -7.3548506250633725 0 0 0 1 -0.9999999993675048 -0.0000016339557591210803 -0.000035529151494309486 -237.41895078291776 -0.0000016356590362786915 0.9999999988495266 0.000047940294992532895 -233.13150534563925 0.00003552907312108933 0.000047940353075802494 -0.9999999982197041 -7.3548506250633725 0 0 0 1 -0.00006497993935398544 0.47609605501609975 0.8793932807201308 -142.93448219390152 0.000019333408579237113 -0.8793932818142407 0.4760960570370218 173.42021039154895 0.9999999977019134 0.00004793836251091911 0.000047938362566018563 -0.006711370751666424 0 0 0 1 0.00004609846769127282 -0.9992902085644959 0.03767063766460643 171.2799142706723 0.00004971020501120493 -0.037670635368150955 -0.9992902084779256 69.1570749074872 0.9999999977019134 0.00004793836251091911 0.000047938362566018563 -0.006710370751668949 0 0 0 1 0.00005095541360545738 -0.9978817226805179 -0.06505432302090859 147.02613604652703 0.00004471821809996589 0.06505432531412722 -0.9978817228300183 55.23939033760153 0.9999999977019135 0.00004793836251091912 0.00004793836256601857 -0.00671037075166895 0 0 0 1 0.000048222476669046967 -0.999982331199505 -0.0059443219459814406 116.86617214785487 -0.0000476525544921875 -0.005944324244027465 0.9999823312131657 -61.46379175371459 -0.9999999977019137 -0.00004793836251091985 -0.00004793836256589611 0.006710370751661424 0 0 0 1</float_array>
                    <technique_common>
                        <accessor source="#MatArr0" count="35" stride="16">
                            <param type="float4x4" />
                        </accessor>
                    </technique_common>
                </source>
                <source id="weights0">
                    <float_array id="WeightArr0" count="1">1</float_array>
                    <technique_common>
                        <accessor source="#WeightArr0" count="1">
                            <param type="float" />
                        </accessor>
                    </technique_common>
                </source>
                <joints>
                    <input semantic="JOINT" source="#joints0" />
                    <input semantic="INV_BIND_MATRIX" source="#matrices0" />
                </joints>
                <vertex_weights count="531">
                    <input semantic="JOINT" offset="0" source="#joints0" />
                    <input semantic="WEIGHT" offset="1" source="#weights0" />
                    <vcount>1 1 1 1 1 1 1 1 1 1 1 1 1 1 1 1 1 1 1 1 1 1 1 1 1 1 1 1 1 1 1 1 1 1 1 1 1 1 1 1 1 1 1 1 1 1 1 1 1 1 1 1 1 1 1 1 1 1 1 1 1 1 1 1 1 1 1 1 1 1 1 1 1 1 1 1 1 1 1 1 1 1 1 1 1 1 1 1 1 1 1 1 1 1 1 1 1 1 1 1 1 1 1 1 1 1 1 1 1 1 1 1 1 1 1 1 1 1 1 1 1 1 1 1 1 1 1 1 1 1 1 1 1 1 1 1 1 1 1 1 1 1 1 1 1 1 1 1 1 1 1 1 1 1 1 1 1 1 1 1 1 1 1 1 1 1 1 1 1 1 1 1 1 1 1 1 1 1 1 1 1 1 1 1 1 1 1 1 1 1 1 1 1 1 1 1 1 1 1 1 1 1 1 1 1 1 1 1 1 1 1 1 1 1 1 1 1 1 1 1 1 1 1 1 1 1 1 1 1 1 1 1 1 1 1 1 1 1 1 1 1 1 1 1 1 1 1 1 1 1 1 1 1 1 1 1 1 1 1 1 1 1 1 1 1 1 1 1 1 1 1 1 1 1 1 1 1 1 1 1 1 1 1 1 1 1 1 1 1 1 1 1 1 1 1 1 1 1 1 1 1 1 1 1 1 1 1 1 1 1 1 1 1 1 1 1 1 1 1 1 1 1 1 1 1 1 1 1 1 1 1 1 1 1 1 1 1 1 1 1 1 1 1 1 1 1 1 1 1 1 1 1 1 1 1 1 1 1 1 1 1 1 1 1 1 1 1 1 1 1 1 1 1 1 1 1 1 1 1 1 1 1 1 1 1 1 1 1 1 1 1 1 1 1 1 1 1 1 1 1 1 1 1 1 1 1 1 1 1 1 1 1 1 1 1 1 1 1 1 1 1 1 1 1 1 1 1 1 1 1 1 1 1 1 1 1 1 1 1 1 1 1 1 1 1 1 1 1 1 1 1 1 1 1 1 1 1 1 1 1 1 1 1 1 1 1 1 1 1 1 1 1 1 1 1 1 1 1 1 1 1 1 1 1 1 1 1 1 1 1 1 1 1 1 1 1 1 1 1 1 1 1 1 1 1 1 1 1 1 1 1 1 1 1 1 1 1 1 1 1 1 1 1 1 1 1 1 1 1 1 1</vcount>
                    <v>27 0 27 0 27 0 27 0 27 0 27 0 27 0 29 0 29 0 29 0 29 0 29 0 29 0 29 0 29 0 29 0 29 0 29 0 29 0 29 0 29 0 29 0 29 0 29 0 29 0 9 0 9 0 8 0 8 0 9 0 8 0 8 0 9 0 8 0 8 0 10 0 10 0 10 0 10 0 10 0 10 0 10 0 10 0 10 0 10 0 10 0 10 0 10 0 10 0 10 0 10 0 10 0 9 0 9 0 10 0 9 0 9 0 9 0 9 0 11 0 11 0 11 0 11 0 11 0 11 0 10 0 29 0 29 0 29 0 29 0 29 0 27 0 27 0 27 0 27 0 27 0 27 0 28 0 28 0 27 0 28 0 27 0 29 0 28 0 27 0 27 0 27 0 27 0 27 0 27 0 27 0 27 0 27 0 28 0 28 0 28 0 28 0 22 0 24 0 23 0 24 0 22 0 22 0 23 0 23 0 22 0 23 0 22 0 23 0 23 0 23 0 23 0 24 0 24 0 24 0 22 0 24 0 24 0 24 0 24 0 24 0 24 0 24 0 24 0 24 0 24 0 24 0 24 0 24 0 24 0 24 0 24 0 24 0 24 0 24 0 22 0 22 0 22 0 22 0 22 0 22 0 22 0 22 0 22 0 22 0 22 0 22 0 22 0 9 0 8 0 8 0 8 0 8 0 8 0 8 0 8 0 8 0 8 0 8 0 8 0 8 0 8 0 9 0 9 0 9 0 22 0 22 0 22 0 22 0 22 0 9 0 9 0 10 0 27 0 24 0 24 0 24 0 27 0 29 0 29 0 29 0 22 0 22 0 22 0 22 0 10 0 27 0 27 0 8 0 8 0 8 0 8 0 8 0 18 0 18 0 18 0 18 0 18 0 18 0 18 0 18 0 18 0 18 0 18 0 18 0 18 0 18 0 18 0 18 0 13 0 13 0 13 0 13 0 7 0 7 0 16 0 16 0 7 0 7 0 7 0 7 0 12 0 13 0 12 0 13 0 12 0 13 0 12 0 13 0 12 0 13 0 12 0 13 0 12 0 12 0 12 0 12 0 12 0 12 0 12 0 7 0 7 0 7 0 7 0 7 0 7 0 7 0 7 0 7 0 7 0 16 0 16 0 16 0 16 0 16 0 14 0 14 0 14 0 14 0 18 0 18 0 18 0 18 0 18 0 18 0 18 0 18 0 18 0 18 0 18 0 18 0 18 0 18 0 18 0 18 0 18 0 18 0 18 0 18 0 18 0 18 0 18 0 18 0 18 0 18 0 18 0 18 0 18 0 18 0 18 0 18 0 18 0 18 0 18 0 18 0 18 0 18 0 18 0 18 0 18 0 18 0 18 0 18 0 18 0 18 0 18 0 18 0 18 0 18 0 18 0 18 0 18 0 18 0 18 0 18 0 7 0 7 0 7 0 7 0 16 0 16 0 16 0 16 0 16 0 16 0 16 0 16 0 16 0 16 0 16 0 16 0 16 0 16 0 16 0 16 0 16 0 16 0 16 0 16 0 16 0 7 0 16 0 7 0 7 0 7 0 12 0 12 0 12 0 12 0 16 0 16 0 16 0 18 0 16 0 16 0 12 0 12 0 14 0 14 0 14 0 14 0 14 0 14 0 14 0 14 0 14 0 14 0 14 0 13 0 14 0 14 0 14 0 13 0 13 0 15 0 15 0 15 0 15 0 15 0 15 0 14 0 13 0 13 0 13 0 7 0 7 0 16 0 16 0 7 0 18 0 18 0 18 0 18 0 18 0 18 0 18 0 18 0 18 0 18 0 18 0 18 0 18 0 18 0 18 0 18 0 18 0 16 0 16 0 16 0 16 0 16 0 16 0 16 0 16 0 16 0 16 0 16 0 16 0 16 0 16 0 16 0 16 0 16 0 16 0 18 0 18 0 18 0 18 0 18 0 18 0 18 0 18 0 18 0 18 0 18 0 18 0 18 0 18 0 18 0 18 0 18 0 18 0 18 0 18 0 18 0 18 0 18 0 18 0 18 0 18 0 18 0 18 0 18 0 18 0 18 0 18 0 18 0 18 0 18 0 18 0 18 0 18 0 18 0 18 0 18 0 18 0 18 0 18 0 18 0 18 0 18 0 18 0 18 0 18 0 18 0 18 0 18 0 18 0 18 0 18 0 18 0 18 0 18 0 18 0 16 0 16 0 16 0 16 0 16 0 16 0 16 0 16 0 16 0 16 0 16 0 16 0 16 0 16 0 16 0 16 0 16 0 16 0 16 0 18 0 18 0 18 0 18 0 18 0 18 0 12 0 12 0 12 0 12 0 12 0 16 0 14 0 12 0 16 0 16 0 16 0 18 0 18 0 18 0 18 0 18 0 18 0 18 0 18 0 18 0 18 0 14 0</v>
                </vertex_weights>
            </skin>
        </controller>
    </library_controllers>
    <library_visual_scenes>
        <visual_scene id="VisualSceneNode">
            <node id="node0" name="m0" type="NODE">
                <instance_controller url="#controller0">
                    <skeleton>#jointnode-1</skeleton>
                    <bind_material>
                        <technique_common>
                            <instance_material symbol="Material1" target="#mat0">
                                <bind_vertex_input semantic="UVSET0" input_semantic="TEXCOORD" input_set="0"></bind_vertex_input>
                            </instance_material>
                        </technique_common>
                    </bind_material>
                </instance_controller>
            </node>
            <node id="jointnode-1" name="root" sid="jointnode-1" type="JOINT">
                <node id="jointnode0" name="world_root" sid="jointnode0" type="JOINT">
                    <node id="jointnode1" name="ColPos" sid="jointnode1" type="JOINT">
                        <translate>0 125.14652252197266 0</translate>
                    </node>
                    <node id="jointnode2" name="FaceVisiblity" sid="jointnode2" type="JOINT">
                        <translate>0 0 100</translate>
                    </node>
                    <node id="jointnode3" name="LHandVisiblity" sid="jointnode3" type="JOINT">
                        <translate>100 0 0</translate>
                    </node>
                    <node id="jointnode4" name="RHandVisiblity" sid="jointnode4" type="JOINT">
                        <translate>-100 0 0</translate>
                    </node>
                    <node id="jointnode5" name="RotCenter" sid="jointnode5" type="JOINT">
                        <translate>0 93 0</translate>
                    </node>
                    <node id="jointnode6" name="hip" sid="jointnode6" type="JOINT">
                        <translate>0 137.5 2.5</translate>
                        <rotate>0 0 1 -89.99725333414716</rotate>
                        <rotate>1 0 0 -89.99725333414716</rotate>
                        <node id="jointnode7" name="legL1" sid="jointnode7" type="JOINT">
                            <translate>12.499999046325684 2.4999990463256836 37</translate>
                            <rotate>0 0 1 -0.13733329264198738</rotate>
                            <rotate>1 0 0 180</rotate>
                            <node id="jointnode8" name="legL2" sid="jointnode8" type="JOINT">
                                <translate>57.5 1.101269006729126 0</translate>
                                <node id="jointnode9" name="footL" sid="jointnode9" type="JOINT">
                                    <translate>45 -1.3554229736328125 0</translate>
                                    <rotate>0 0 1 -0.13733329264198738</rotate>
                                    <node id="jointnode10" name="toeL" sid="jointnode10" type="JOINT">
                                        <translate>15 40 1.8749990463256836</translate>
                                        <rotate>0 0 1 89.99725333414716</rotate>
                                    </node>
                                </node>
                            </node>
                        </node>
                        <node id="jointnode11" name="legR1" sid="jointnode11" type="JOINT">
                            <translate>12.500000953674316 2.5000009536743164 -37</translate>
                            <rotate>0 0 1 -0.14282662434766685</rotate>
                            <rotate>1 0 0 180</rotate>
                            <node id="jointnode12" name="legR2" sid="jointnode12" type="JOINT">
                                <translate>57.50004577636719 1.0843390226364136 -9.999999974752427e-7</translate>
                                <rotate>0 0 1 -0.005493331705679495</rotate>
                                <node id="jointnode13" name="footR" sid="jointnode13" type="JOINT">
                                    <translate>45.00007247924805 -1.3430540561676025 -9.999999974752427e-7</translate>
                                    <rotate>0 0 1 -0.13733329264198738</rotate>
                                    <node id="jointnode14" name="toeR" sid="jointnode14" type="JOINT">
                                        <translate>15 40 -1.8749990463256836</translate>
                                        <rotate>0 0 1 89.99725333414716</rotate>
                                    </node>
                                </node>
                            </node>
                        </node>
                        <node id="jointnode15" name="spin" sid="jointnode15" type="JOINT">
                            <translate>-36.946807861328125 -5.270681858062744 -9.999999974752427e-7</translate>
                            <rotate>0 0 1 -164.9977111117893</rotate>
                            <node id="jointnode16" name="neck" sid="jointnode16" type="JOINT">
                                <translate>88.28052520751953 -10.517789840698242 9.999999974752427e-7</translate>
                                <rotate>0 0 1 50.00030518509476</rotate>
                                <node id="jointnode17" name="head" sid="jointnode17" type="JOINT">
                                    <translate>16.270000457763672 -0.9100000262260437 0</translate>
                                    <rotate>0 0 1 25.00015259254738</rotate>
                                    <node id="jointnode18" name="Face00" sid="jointnode18" type="JOINT">
                                    </node>
                                    <node id="jointnode19" name="hair1" sid="jointnode19" type="JOINT">
                                        <translate>14.51375961303711 -44.92366409301758 0.000003000000106112566</translate>
                                        <rotate>0 0 1 -44.99588000122074</rotate>
                                    </node>
                                </node>
                            </node>
                            <node id="jointnode20" name="shoulderL" sid="jointnode20" type="JOINT">
                                <translate>55.204620361328125 -17.607759475708008 42.0706672668457</translate>
                                <rotate>0 1 0 -89.99725333414716</rotate>
                                <rotate>1 0 0 -14.99679555650502</rotate>
                                <node id="jointnode21" name="armL1" sid="jointnode21" type="JOINT">
                                    <translate>49.25837707519531 -12.842338562011719 -0.8026459813117981</translate>
                                    <rotate>0 0 1 0.24719992675557725</rotate>
                                    <rotate>1 0 0 180</rotate>
                                    <node id="jointnode22" name="armL2" sid="jointnode22" type="JOINT">
                                        <translate>70.98450469970703 0.9535009860992432 -0.00011899999663000926</translate>
                                        <rotate>0 0 1 -0.054933317056794946</rotate>
                                        <node id="jointnode23" name="wristL" sid="jointnode23" type="JOINT">
                                            <translate>74.8952407836914 -0.9954410195350647 -0.000007000000096013537</translate>
                                            <rotate>0 0 1 0.3021332438123722</rotate>
                                            <rotate>1 0 0 89.99725333414716</rotate>
                                            <node id="jointnode24" name="LHand00" sid="jointnode24" type="JOINT">
                                            </node>
                                        </node>
                                    </node>
                                </node>
                            </node>
                            <node id="jointnode25" name="shoulderR" sid="jointnode25" type="JOINT">
                                <translate>55.20462417602539 -17.607759475708008 -41.63612747192383</translate>
                                <rotate>0 1 0 89.99725333414716</rotate>
                                <rotate>1 0 0 14.99679555650502</rotate>
                                <node id="jointnode26" name="armR1" sid="jointnode26" type="JOINT">
                                    <translate>49.89896774291992 -12.842338562011719 0.8026459813117981</translate>
                                    <rotate>1 0 0 180</rotate>
                                    <node id="jointnode27" name="armR2" sid="jointnode27" type="JOINT">
                                        <translate>70.98450469970703 0.8087810277938843 -0.0019000000320374966</translate>
                                        <node id="jointnode28" name="wristR" sid="jointnode28" type="JOINT">
                                            <translate>74.8952407836914 -1.2546720504760742 -0.0003389999910723418</translate>
                                            <rotate>1 0 0 -89.99725333414716</rotate>
                                            <node id="jointnode29" name="RHand00" sid="jointnode29" type="JOINT">
                                            </node>
                                        </node>
                                    </node>
                                </node>
                            </node>
                            <node id="jointnode30" name="tie1" sid="jointnode30" type="JOINT">
                                <translate>53.689998626708984 22.219539642333984 9.999999974752427e-7</translate>
                                <rotate>0 0 1 46.566972869045074</rotate>
                                <node id="jointnode31" name="tie2" sid="jointnode31" type="JOINT">
                                    <translate>-5.107291221618652 50.44388961791992 -9.999999974752427e-7</translate>
                                    <rotate>0 0 1 116.27185888241218</rotate>
                                    <node id="jointnode32" name="tie3" sid="jointnode32" type="JOINT">
                                        <translate>30.69717025756836 -0.8755390048027039 0</translate>
                                        <rotate>0 0 1 5.888851588488418</rotate>
                                        <node id="jointnode33" name="tie4" sid="jointnode33" type="JOINT">
                                            <translate>26.730558395385742 0.7924079895019531 0</translate>
                                            <rotate>0 0 1 -3.389385662404248</rotate>
                                            <rotate>1 0 0 180</rotate>
                                        </node>
                                    </node>
                                </node>
                            </node>
                        </node>
                    </node>
                </node>
            </node>
        </visual_scene>
    </library_visual_scenes>
    <scene>
        <instance_visual_scene url="#VisualSceneNode"></instance_visual_scene>
    </scene>
</COLLADA>
