<?xml version="1.0"?>
<COLLADA xmlns="http://www.collada.org/2005/11/COLLADASchema" version="1.4.1">
    <asset>
        <contributor>
            <authoring_tool>J3D Ripoff Exporter</authoring_tool>
        </contributor>
        <created>2024-08-18T22:44:52.113Z</created>
        <modified>2024-08-18T22:44:52.113Z</modified>
		<unit meter="0.01" name="centimeter" ></unit>
        <up_axis>Y_UP</up_axis>
    </asset>
    <library_images>
        <image id="tex0">
            <init_from>wilddonkey_skin.png</init_from>
        </image>
        <image id="tex1">
            <init_from>wilddonkey_eye.png</init_from>
        </image>
    </library_images>
    <library_effects>
        <effect id="effect0">
            <profile_COMMON>
                <newparam sid="surface0">
                    <surface type="2D">
                        <init_from>tex1</init_from>
                    </surface>
                </newparam>
                <newparam sid="sampler0">
                    <sampler2D>
                        <source>surface0</source>
                    </sampler2D>
                </newparam>
                <technique sid="COMMON">
                    <blinn>
                        <diffuse>
                            <texture texture="sampler0" texcoord="UVSET0"></texture>
                        </diffuse>
                    </blinn>
                </technique>
            </profile_COMMON>
        </effect>
        <effect id="effect1">
            <profile_COMMON>
                <newparam sid="surface1">
                    <surface type="2D">
                        <init_from>tex0</init_from>
                    </surface>
                </newparam>
                <newparam sid="sampler1">
                    <sampler2D>
                        <source>surface1</source>
                    </sampler2D>
                </newparam>
                <technique sid="COMMON">
                    <blinn>
                        <diffuse>
                            <texture texture="sampler1" texcoord="UVSET0"></texture>
                        </diffuse>
                    </blinn>
                </technique>
            </profile_COMMON>
        </effect>
        <effect id="effect2">
            <profile_COMMON>
                <newparam sid="surface2">
                    <surface type="2D">
                        <init_from>tex0</init_from>
                    </surface>
                </newparam>
                <newparam sid="sampler2">
                    <sampler2D>
                        <source>surface2</source>
                    </sampler2D>
                </newparam>
                <technique sid="COMMON">
                    <blinn>
                        <diffuse>
                            <texture texture="sampler2" texcoord="UVSET0"></texture>
                        </diffuse>
                    </blinn>
                </technique>
            </profile_COMMON>
        </effect>
    </library_effects>
    <library_materials>
        <material id="mat0" name="Eye">
            <instance_effect url="#effect0"></instance_effect>
        </material>
        <material id="mat1" name="Skin">
            <instance_effect url="#effect1"></instance_effect>
        </material>
        <material id="mat2" name="Skin_etc">
            <instance_effect url="#effect2"></instance_effect>
        </material>
    </library_materials>
    <library_geometries>
        <geometry id="mesh0">
            <mesh>
                <source id="points0">
                    <float_array id="pointarray0" count="102">58.453125 -26.3984375 -15.1796875 56.1953125 -25.37109375 -20.19140625 58.3515625 -31.921875 -14.62109375 56.203125 -28.2421875 -19.625 55.890625 -31.74609375 -19.0078125 52.7265625 -28.328125 -22.96875 51.54296875 -31.48046875 -23.2109375 59.30078125 -37.484375 8.66015625 57.60546875 -38.4140625 13.08203125 58.3515625 -31.921875 14.62109375 55.06640625 -39.37109375 16.61328125 55.890625 -31.74609375 19.0078125 53.34765625 -37.98828125 19.62890625 51.62890625 -35.16796875 22.1953125 51.54296875 -31.48046875 23.2109375 52.7265625 -28.328125 22.96875 56.203125 -28.2421875 19.625 54.7109375 -26.2734375 21.7734375 56.1953125 -25.37109375 20.19140625 57.60546875 -38.4140625 -13.08203125 59.30078125 -37.484375 -8.66015625 59.90625 -35.0859375 -7.79296875 60.17578125 -32.6875 -7.515625 60.21875 -29.8203125 -7.921875 60.265625 -27.55078125 -9.1015625 51.62890625 -35.16796875 -22.1953125 53.34765625 -37.98828125 -19.62890625 55.06640625 -39.37109375 -16.61328125 60.21875 -29.8203125 7.921875 60.17578125 -32.6875 7.515625 59.90625 -35.0859375 7.79296875 58.453125 -26.3984375 15.1796875 54.7109375 -26.2734375 -21.7734375 60.265625 -27.55078125 9.1015625</float_array>
                    <technique_common>
                        <accessor count="34" source="#pointarray0" stride="3">
                            <param name="X" type="float"/>
                            <param name="Y" type="float"/>
                            <param name="Z" type="float"/>
                        </accessor>
                    </technique_common>
                </source>
                <source id="uvs0">
                    <float_array id="uvarray0" count="34">0.50543212890625 0.144287109375 0.751220703125 0.11273193359375 0.46527099609375 0.41607666015625 0.704833984375 0.27911376953125 0.65570068359375 0.44256591796875 0.9678955078125 0.32733154296875 0.95782470703125 0.5035400390625 0.23675537109375 0.6895751953125 0.399658203125 0.76129150390625 0.5684814453125 0.85113525390625 0.74090576171875 0.814697265625 0.88385009765625 0.71112060546875 0.86932373046875 0.16314697265625 0.20062255859375 0.56536865234375 0.212890625 0.42236328125 0.2437744140625 0.28570556640625 0.30810546875 0.18011474609375</float_array>
                    <technique_common>
                        <accessor count="17" source="#uvarray0" stride="2">
                            <param name="S" type="float"/>
                            <param name="T" type="float"/>
                        </accessor>
                    </technique_common>
                </source>
                <vertices id="vertices0">
                    <input semantic="POSITION" source="#points0"/>
                </vertices>
                <polylist count="36" material="Material1">
                    <input offset="0" semantic="VERTEX" source="#vertices0"/>
                    <input offset="1" semantic="TEXCOORD" source="#uvs0" set="0"/>
                    <vcount>3 3 3 3 3 3 3 3 3 3 3 3 3 3 3 3 3 3 3 3 3 3 3 3 3 3 3 3 3 3 3 3 3 3 3 3</vcount>
                    <p>2 2 1 1 0 0 3 3 1 1 2 2 4 4 3 3 2 2 5 5 3 3 4 4 6 6 5 5 4 4 9 2 8 8 7 7 10 9 8 8 9 2 11 4 10 9 9 2 12 10 10 9 11 4 13 11 12 10 11 4 11 4 14 6 13 11 15 5 14 6 11 4 16 3 15 5 11 4 17 12 15 5 16 3 18 1 17 12 16 3 2 2 20 7 19 8 21 13 20 7 2 2 22 14 21 13 2 2 2 2 23 15 22 14 24 16 23 15 2 2 0 0 24 16 2 2 4 4 25 11 6 6 26 10 25 11 4 4 27 9 26 10 4 4 9 2 29 14 28 15 30 13 29 14 9 2 7 7 30 13 9 2 9 2 16 3 11 4 18 1 16 3 9 2 31 0 18 1 9 2 32 12 3 3 5 5 1 1 3 3 32 12 2 2 27 9 4 4 19 8 27 9 2 2 9 2 33 16 31 0 28 15 33 16 9 2</p>
                </polylist>
            </mesh>
        </geometry>
        <geometry id="mesh1">
            <mesh>
                <source id="points1">
                    <float_array id="pointarray1" count="258">71.9765625 -2.2578125 -35.66796875 73.96484375 -6.46875 -33.52734375 66.58984375 -9.5625 -23.98828125 80.35546875 -12.05859375 -25.69921875 69.21875 -12.14453125 -18.10546875 85.2578125 -15.76953125 -17.22265625 73.35546875 -13.76171875 -8.828125 87.7265625 -16.734375 -9.26171875 75.16015625 -15.30078125 0.890625 88.7265625 -17.046875 0.19140625 73.7265625 -14.4296875 9.92578125 87.26953125 -16.98046875 11.05078125 69.80078125 -13.66796875 17.80859375 83.8359375 -16.3203125 20.48828125 62.28515625 -11.16796875 26.4296875 75.578125 -13.64453125 30.86328125 53.06640625 -6.9375 32.6796875 66.33203125 -10.22265625 38.484375 52.30859375 -4.6484375 37.90625 56.76953125 -5.41015625 41.73828125 58.12890625 -6.28125 41.9140625 60.265625 -27.55078125 -9.1015625 60.21875 -29.8203125 -7.921875 60.94140625 -28.38671875 -2.4296875 60.17578125 -32.6875 -7.515625 60.546875 -36.8984375 -2.21484375 59.90625 -35.0859375 -7.79296875 59.30078125 -37.484375 -8.66015625 59.30078125 -37.484375 8.66015625 59.90625 -35.0859375 7.79296875 60.546875 -36.8984375 2.21484375 60.17578125 -32.6875 7.515625 60.94140625 -28.38671875 2.4296875 60.21875 -29.8203125 7.921875 60.265625 -27.55078125 9.1015625 55.06640625 -39.37109375 -16.61328125 53.34765625 -37.98828125 -19.62890625 52.0625 -41.03125 -19.34375 51.62890625 -35.16796875 -22.1953125 49.4140625 -42.90234375 -21.3515625 45.65234375 -32.90234375 -30.16015625 46.56640625 -38.7578125 -26.9296875 57.171875 -4.10546875 34.40625 57.578125 -6.10546875 38.10546875 67.84375 -10.80078125 37.13671875 47.7421875 -45.4140625 22.69140625 46.56640625 -38.7578125 26.9296875 49.4140625 -42.90234375 21.3515625 45.65234375 -32.90234375 30.16015625 51.62890625 -35.16796875 22.1953125 51.54296875 -31.48046875 23.2109375 67.90625 -6.52734375 28.47265625 80.22265625 -14.15234375 29.1796875 76.8515625 -9.90234375 18.3203125 87.66015625 -15.9609375 19.24609375 80.44921875 -10.3046875 9.87890625 90.93359375 -16.00390625 10.01171875 81.87109375 -9.7734375 0.578125 92.34375 -15.43359375 0.19140625 80.69140625 -7.921875 -7.36328125 90.41796875 -13.3515625 -9.62890625 77.96484375 -5.65234375 -15.10546875 88.37890625 -11.390625 -15.90234375 73.015625 -1.69921875 -23.703125 82.96875 -7.23828125 -24.44140625 73.18359375 -0.59765625 -35.25390625 76.8359375 -2.390625 -32.4296875 60.3984375 -36.69921875 0 61.0859375 -28.3671875 0 52.7265625 -28.328125 -22.96875 47.04296875 -27.453125 -30.2265625 51.54296875 -31.48046875 -23.2109375 52.0625 -41.03125 19.34375 53.34765625 -37.98828125 19.62890625 55.06640625 -39.37109375 16.61328125 49.828125 -21.62109375 28.36328125 53.26171875 -23.66015625 24.4609375 47.04296875 -27.453125 30.2265625 52.7265625 -28.328125 22.96875 56.1953125 -25.37109375 20.19140625 54.7109375 -26.2734375 21.7734375 49.828125 -21.62109375 -28.36328125 53.26171875 -23.66015625 -24.4609375 56.1953125 -25.37109375 -20.19140625 54.7109375 -26.2734375 -21.7734375 47.7421875 -45.4140625 -22.69140625</float_array>
                    <technique_common>
                        <accessor count="86" source="#pointarray1" stride="3">
                            <param name="X" type="float"/>
                            <param name="Y" type="float"/>
                            <param name="Z" type="float"/>
                        </accessor>
                    </technique_common>
                </source>
                <source id="uvs1">
                    <float_array id="uvarray1" count="108">0.56658935546875 0.65673828125 0.57147216796875 0.6427001953125 0.5418701171875 0.68792724609375 0.562255859375 0.62847900390625 0.5301513671875 0.67681884765625 0.546142578125 0.6097412109375 0.51824951171875 0.66949462890625 0.5247802734375 0.59844970703125 0.5068359375 0.66162109375 0.50738525390625 0.5908203125 0.51837158203125 0.66778564453125 0.526123046875 0.5977783203125 0.52874755859375 0.677001953125 0.55157470703125 0.61676025390625 0.542724609375 0.6881103515625 0.57086181640625 0.6470947265625 0.5462646484375 0.68756103515625 0.57989501953125 0.65814208984375 0.546142578125 0.6861572265625 0.57403564453125 0.6539306640625 0.578857421875 0.65625 0.79888916015625 0.750732421875 0.8082275390625 0.75238037109375 0.8057861328125 0.72711181640625 0.81756591796875 0.7540283203125 0.84515380859375 0.73626708984375 0.826904296875 0.75567626953125 0.8363037109375 0.75732421875 0.89642333984375 0.75396728515625 0.88592529296875 0.744140625 0.90521240234375 0.762939453125 0.87542724609375 0.73431396484375 0.95782470703125 0.759521484375 0.87066650390625 0.6771240234375 0.92608642578125 0.715087890625 0.547607421875 0.6845703125 0.54644775390625 0.68756103515625 0.98828125 0.76300048828125 0.8404541015625 0.71466064453125 0.54168701171875 0.6859130859375 0.52984619140625 0.676513671875 0.51904296875 0.6688232421875 0.50628662109375 0.66156005859375 0.51708984375 0.669189453125 0.52862548828125 0.67608642578125 0.538330078125 0.6800537109375 0.56170654296875 0.6707763671875 0.5806884765625 0.656982421875 0.79840087890625 0.70538330078125 0.814697265625 0.666748046875 0.75189208984375 0.671875 0.76702880859375 0.7086181640625 0.777099609375 0.71343994140625 0.78778076171875 0.70941162109375</float_array>
                    <technique_common>
                        <accessor count="54" source="#uvarray1" stride="2">
                            <param name="S" type="float"/>
                            <param name="T" type="float"/>
                        </accessor>
                    </technique_common>
                </source>
                <vertices id="vertices1">
                    <input semantic="POSITION" source="#points1"/>
                </vertices>
                <polylist count="96" material="Material1">
                    <input offset="0" semantic="VERTEX" source="#vertices1"/>
                    <input offset="1" semantic="TEXCOORD" source="#uvs1" set="0"/>
                    <vcount>3 3 3 3 3 3 3 3 3 3 3 3 3 3 3 3 3 3 3 3 3 3 3 3 3 3 3 3 3 3 3 3 3 3 3 3 3 3 3 3 3 3 3 3 3 3 3 3 3 3 3 3 3 3 3 3 3 3 3 3 3 3 3 3 3 3 3 3 3 3 3 3 3 3 3 3 3 3 3 3 3 3 3 3 3 3 3 3 3 3 3 3 3 3 3 3</vcount>
                    <p>2 2 1 1 0 0 3 3 1 1 2 2 4 4 3 3 2 2 5 5 3 3 4 4 6 6 5 5 4 4 7 7 5 5 6 6 8 8 7 7 6 6 9 9 7 7 8 8 10 10 9 9 8 8 11 11 9 9 10 10 12 12 11 11 10 10 13 13 11 11 12 12 14 14 13 13 12 12 15 15 13 13 14 14 16 16 15 15 14 14 17 17 15 15 16 16 18 18 17 17 16 16 19 19 17 17 18 18 20 20 19 19 18 18 23 23 22 22 21 21 24 24 22 22 23 23 25 25 24 24 23 23 26 26 24 24 25 25 27 27 26 26 25 25 30 25 29 26 28 27 31 24 29 26 30 25 32 23 31 24 30 25 33 22 31 24 32 23 34 21 33 22 32 23 37 30 36 29 35 28 38 31 36 29 37 30 39 32 38 31 37 30 40 33 38 31 39 32 41 34 40 33 39 32 42 35 18 18 16 16 43 36 18 18 42 35 44 17 43 36 42 35 20 20 43 36 44 17 47 32 46 34 45 37 48 33 46 34 47 32 49 31 48 33 47 32 50 38 48 33 49 31 51 39 16 16 14 14 42 35 16 16 51 39 52 15 42 35 51 39 44 17 42 35 52 15 53 40 14 14 12 12 51 39 14 14 53 40 54 13 51 39 53 40 52 15 51 39 54 13 55 41 12 12 10 10 53 40 12 12 55 41 56 11 53 40 55 41 54 13 53 40 56 11 57 42 10 10 8 8 55 41 10 10 57 42 58 9 55 41 57 42 56 11 55 41 58 9 59 43 8 8 6 6 57 42 8 8 59 43 60 7 57 42 59 43 58 9 57 42 60 7 61 44 6 6 4 4 59 43 6 6 61 44 62 5 59 43 61 44 60 7 59 43 62 5 63 45 4 4 2 2 61 44 4 4 63 45 64 3 61 44 63 45 62 5 61 44 64 3 65 46 2 2 0 0 63 45 2 2 65 46 66 47 63 45 65 46 64 3 63 45 66 47 67 27 32 23 30 25 68 21 32 23 67 27 23 23 68 21 67 27 71 38 70 49 69 48 40 33 70 49 71 38 38 31 40 33 71 38 72 30 49 31 47 32 73 29 49 31 72 30 74 28 73 29 72 30 77 49 76 51 75 50 78 48 76 51 77 49 50 38 78 48 77 49 76 51 80 53 79 52 78 48 80 53 76 51 82 51 70 49 81 50 69 48 70 49 82 51 84 53 82 51 83 52 69 48 82 51 84 53 67 27 25 25 23 23 39 32 85 37 41 34 77 49 48 33 50 38 20 20 18 18 43 36</p>
                </polylist>
            </mesh>
        </geometry>
        <geometry id="mesh2">
            <mesh>
                <source id="points2">
                    <float_array id="pointarray2" count="1044">13.2421875 23.96875 22.81640625 15.78125 29.48828125 13.8359375 26.43359375 33.96875 22.48828125 17.09375 33.265625 0 37.4140625 38.73828125 0 26.43359375 33.96875 -22.48828125 40.54296875 37.8125 -21.62109375 30.11328125 30.8359375 -34.9375 50.7734375 38.5859375 -20.15625 53.5 32.140625 -33.10546875 61.35546875 37.77734375 -19.078125 68.65625 31.0546875 -30.140625 73.1328125 35.1484375 -16.53515625 82.671875 29.5078125 -19.48828125 80.8125 33.33203125 -7.296875 86.28515625 28.5703125 -7.7578125 81.21484375 33.33984375 0.265625 87.04296875 28.7578125 0.46875 86.41796875 28.9453125 8.41015625 90.7421875 22.1015625 8.9296875 87.3515625 22.59765625 18.37109375 94.08203125 15.265625 9.203125 90.859375 15.296875 18.16015625 94.78515625 6.5078125 9.3984375 92.1953125 6.4375 17.9453125 93.8046875 -6.08203125 8.98828125 91.12890625 -5.66015625 17 99.19921875 -11.03125 10.09765625 95.22265625 -10.41015625 20.3046875 97.26953125 -14.8359375 10.3203125 93.171875 -14.546875 20.28125 90.93359375 -16.00390625 10.01171875 87.66015625 -15.9609375 19.24609375 13.2421875 23.96875 -22.81640625 21.40625 17.8828125 -43.8984375 37.50390625 26.05859375 -42.8828125 32.1953125 17.5703125 -49.32421875 45.48046875 19.36328125 -47.28125 46.9921875 9.5859375 -48.34375 56.43359375 4.89453125 -45.921875 50.06640625 1.68359375 -46.8125 63.609375 -2.09375 -42.109375 51.80859375 -6.734375 -43.3984375 67.02734375 -10.93359375 -37.39453125 50.95703125 -14.34765625 -37.8984375 70.6796875 -17.5625 -29.59765625 59.1953125 -18.5234375 -31.44921875 64.0078125 -20.9375 -25.5546875 53.26171875 -23.66015625 -24.4609375 56.1953125 -25.37109375 -20.19140625 56.47265625 24.890625 -41.6171875 72.62890625 24.69140625 -35.234375 81.28515625 23.4609375 -28 74.46484375 18.65625 -36.921875 84.0390625 17.49609375 -27.79296875 75.55859375 10.40234375 -37.5546875 85.44140625 8.49609375 -27.61328125 78.56640625 1.78515625 -34.64453125 85.96875 0.1328125 -24.9921875 87.984375 -2.1484375 -26.2421875 94.09765625 -5.53125 -18.1953125 92.4921875 -8.95703125 -18.171875 96.45703125 -11.95703125 -9.93359375 90.41796875 -13.3515625 -9.62890625 92.34375 -15.43359375 0.19140625 49.828125 -21.62109375 28.36328125 49.06640625 -19.875 31.03515625 59.1953125 -19.40625 31.44921875 45.74609375 -18.20703125 34.08984375 50.95703125 -14.34765625 37.8984375 42.8984375 -11.203125 40.9453125 64.4765625 -12.21875 39.23046875 37.66796875 -0.8125 47.9375 50.06640625 -1.9609375 46.0625 46.96875 6.9921875 46.734375 59.9453125 -3.42578125 43.5859375 59.21875 3.2109375 42.5 73.19140625 -5.48046875 38.5703125 71.75390625 -1.66015625 36.69140625 87.30078125 -8.55078125 29.8203125 83.79296875 -4.0390625 27.9765625 29.38671875 9.08203125 49.00390625 32.1953125 17.5703125 47.640625 57.84765625 12.01171875 43.8984375 56.47265625 23.89453125 40.84765625 71.32421875 17 38.078125 69.27734375 23.90234375 35.1875 82.04296875 16.39453125 30.85546875 79.95703125 23.25 28.3203125 78.796875 31.375 19.41015625 81.3671875 33.34765625 7.83203125 70.734375 37.91796875 0.046875 49.828125 -21.62109375 -28.36328125 49.06640625 -19.875 -31.03515625 47.04296875 -27.453125 -30.2265625 47.34765625 -27.953125 -32.15234375 45.65234375 -32.90234375 -30.16015625 46.03125 -33.76171875 -32.109375 46.56640625 -38.7578125 -26.9296875 46.91796875 -40.375 -28.8203125 47.7421875 -45.4140625 -22.69140625 48.171875 -46.54296875 -25.16015625 48.87890625 -52.2265625 -22.203125 45.89453125 -52.21484375 -24.5546875 42.52734375 -53.02734375 -23.90625 40.625 -46.7734375 -28.10546875 88.7265625 -17.046875 0.19140625 87.50390625 -19.6875 0.19140625 87.26953125 -16.98046875 11.05078125 86.26953125 -19.8203125 10.48828125 83.8359375 -16.3203125 20.48828125 82.8203125 -19.14453125 19.84375 74.578125 -16.24609375 31.59375 76.203125 -21.1875 19.00390625 69.22265625 -18.10546875 29.69140625 64.0078125 -21.44140625 25.5546875 53.26171875 -23.66015625 24.4609375 58.453125 -26.3984375 -15.1796875 67.99609375 -23.11328125 -18.40234375 77.40625 -21.3125 -18.59375 71.8984375 -24.4375 -8.11328125 80.98828125 -22.80078125 0.0234375 73.8125 -24.78515625 0 71.8984375 -24.4375 8.11328125 68.7265625 -26.0625 8.296875 63.30078125 -26.08984375 12.51171875 60.265625 -27.55078125 9.1015625 58.453125 -26.3984375 15.1796875 55.34765625 -44.4375 0 64.62890625 -42.984375 0 55.65625 -44.6875 -5.640625 63.890625 -43.37890625 -6.94921875 54.3046875 -45.6484375 -10.0859375 61.9375 -44.6796875 -12.0546875 52.91796875 -47.52734375 -13.328125 58.734375 -46.27734375 -16.08984375 56.078125 -48.98046875 -17.75 53.390625 -45.578125 -20.953125 98.11328125 -13.93359375 0.19140625 98.34765625 -8.51953125 -9.71484375 91.453125 -2.71484375 -15.5 91.9375 7.30859375 -17.15234375 45.74609375 -18.20703125 -34.08984375 42.8984375 -11.203125 -40.9453125 37.66796875 -0.8125 -47.8125 29.38671875 9.08203125 -49.796875 59.359375 13.45703125 -44.84765625 67.05078125 6.0546875 -41.16015625 72.5703125 1.15234375 -36.9375 78.25 -0.171875 -34.0390625 73.18359375 -0.59765625 -35.25390625 76.8359375 -2.390625 -32.4296875 12.0078125 16.0078125 -30.65625 14.42578125 4.97265625 -37.46484375 20.79296875 7.3515625 -46.24609375 19.18359375 -1.86328125 -39.6484375 26.46484375 -0.84765625 -45.86328125 25.890625 -8.6875 -40.6328125 36.1875 -9.68359375 -42.69921875 29.5 -11.0546875 -39.7421875 36.5234375 -14.70703125 -37.37890625 100.19921875 -10.45703125 0.19140625 94.78515625 -5.81640625 0.2109375 93.59765625 -4.27734375 -8.328125 95.5078125 6.55078125 0.11328125 94.66796875 6.58984375 -8.7890625 94.73046875 15.1953125 0.140625 93.81640625 15.125 -8.6796875 91.0859375 22.1015625 0.1640625 90.5234375 22.09765625 -8.34375 12.0078125 16.00390625 30.31640625 21.40625 17.8828125 43.8984375 30.11328125 30.8359375 34.9375 37.50390625 26.05859375 42.8828125 54.609375 32.046875 32.7578125 65.94921875 31.80859375 28.94140625 40.54296875 37.8125 21.62109375 50.7734375 38.06640625 20.23828125 50.6875 40.76953125 0.0390625 61.35546875 37.125 19.16015625 58.69140625 40.2578125 0.0390625 72.26953125 35.40234375 16.6328125 86.84765625 22.23046875 -18.0390625 85.55859375 -12.81640625 30.32421875 72.60546875 -9.73046875 38.53125 59.5390625 -6.37109375 42.328125 58.12890625 -6.28125 41.9140625 52.0625 -41.03125 19.34375 55.06640625 -39.37109375 16.61328125 58.5 -42.98046875 17.31640625 62.125 -41.9375 13.06640625 61.9375 -44.6796875 12.05859375 64.12109375 -40.98046875 7.4296875 63.890625 -43.37890625 6.94921875 54.96484375 -44.6875 5.640625 73.20703125 -16.0546875 27.08203125 69.84375 -12.42578125 25.3203125 71.05078125 -12.5546875 29.1953125 69.59375 -13.51171875 28.484375 64.13671875 -10.3359375 35.19921875 64.0703125 -11.703125 33.8515625 55.6484375 -8.80078125 37.66796875 63.23828125 -8.66796875 28.265625 55.484375 -8.203125 30.3359375 76.9375 -14.40234375 20.1953125 80.0078125 -15.14453125 22.3125 79.33203125 -16.4375 21.09765625 84.89453125 -16.703125 11.6328125 77.2734375 -16.3359375 19.62890625 82.3828125 -16.6328125 10.5546875 83.90625 -1.30859375 -19.25390625 79.515625 -13.06640625 -20.12890625 90.95703125 -4.03515625 -9.90234375 85.6484375 -14.62890625 -9.515625 86.9375 -15.17578125 1.19140625 85.8046875 -16.62890625 1.125 86.0078125 -15.3515625 12.11328125 78.06640625 0.23046875 -28.70703125 68.53125 2.00390625 -33.5625 74.72265625 -10.27734375 -26.61328125 67.26953125 -5.3515625 -31.578125 73.3203125 -11.3125 -25.96875 67.328125 -6.85546875 -30.51171875 64.421875 -8.953125 -25.22265625 58.43359375 -3.44140625 -35.7265625 58.59765625 -3.7109375 -27.84765625 36.1875 -9.68359375 42.69921875 26.46484375 -0.84765625 45.86328125 20.79296875 7.3515625 46.24609375 14.42578125 4.97265625 37.46484375 83.421875 7.33203125 30.796875 72.46484375 8.54296875 38.24609375 78.38671875 -14.765625 -27.06640625 72.59375 -8.67578125 -35.0078125 71.1484375 -2.4140625 -37.12890625 47.04296875 -27.453125 30.2265625 47.34765625 -27.953125 32.15234375 42.89453125 -26.83984375 36.12109375 42.83984375 -17.734375 34.296875 40.12109375 -25.63671875 36.1171875 45.65234375 -32.90234375 30.16015625 46.03125 -33.76171875 32.109375 41.86328125 -31.21484375 36.16796875 41.44140625 -34.46484375 35.65625 38.73828125 -30.40234375 35.96484375 38.12109375 -34.04296875 35.57421875 46.56640625 -38.7578125 26.9296875 46.91796875 -40.375 28.8203125 43.16796875 -41.1953125 31.8046875 44.35546875 -47.140625 28.1953125 39.3046875 -40.80859375 31.47265625 40.625 -46.7734375 28.10546875 63.30078125 -26.08984375 -12.51171875 68.7265625 -26.0625 -8.296875 70.3671875 -26.45703125 0 61.0859375 -28.3671875 0 47.7421875 -45.4140625 22.69140625 48.171875 -46.54296875 25.16015625 45.89453125 -52.21484375 24.5546875 42.52734375 -53.02734375 23.90625 83.296875 -16.51953125 1.2421875 82.1484375 -16.09765625 -7.9140625 84.56640625 -16.03125 -9.203125 77.2890625 -14.5859375 -17.75390625 78.9296875 -14.4921875 -19.11328125 77.10546875 -12.59765625 -17.64453125 91.34765625 -4.03125 12.85546875 86.20703125 -5.02734375 23.03515625 78.27734375 -9.5546875 27.63671875 81.42578125 -5.5390625 29.02734375 76.2265625 -5.14453125 33.0625 48.87890625 -52.2265625 22.203125 53.390625 -45.578125 20.953125 49.4140625 -42.90234375 21.3515625 66.33203125 -10.22265625 38.484375 67.99609375 -22.81640625 18.40234375 56.1953125 -25.37109375 20.19140625 90.73046875 15.80078125 -17.59765625 58.734375 -46.27734375 16.08984375 56.078125 -48.98046875 17.75 52.91796875 -47.52734375 13.328125 51.14453125 -49.8203125 14.80859375 36.5234375 -14.70703125 37.37890625 29.5 -11.0546875 39.7421875 25.890625 -8.6875 40.6328125 41.86328125 -31.21484375 -36.16796875 41.44140625 -34.46484375 -35.65625 43.16796875 -41.1953125 -31.8046875 38.12109375 -34.04296875 -35.57421875 39.3046875 -40.80859375 -31.47265625 70.5703125 -10.2265625 -23.23046875 76.99609375 -12.38671875 -24.8359375 80.07421875 -4.58984375 -24.5625 82.15234375 -0.58203125 -24.79296875 60.265625 -27.55078125 -9.1015625 60.94140625 -28.38671875 -2.4296875 57.60546875 -38.4140625 13.08203125 59.30078125 -37.484375 8.66015625 60.546875 -36.8984375 2.21484375 64.9140625 -40.546875 0 60.3984375 -36.69921875 0 60.546875 -36.8984375 -2.21484375 42.83984375 -17.734375 -34.296875 84.25 -18.62890625 -17.48828125 85.2578125 -15.76953125 -17.22265625 80.35546875 -12.05859375 -25.69921875 42.89453125 -26.83984375 -36.12109375 40.12109375 -25.63671875 -36.1171875 38.73828125 -30.40234375 -35.96484375 56.33984375 -4.8671875 -37.0078125 60.08203125 5.796875 -33.125 52.0625 -41.03125 -19.34375 58.5 -42.98046875 -17.31640625 55.06640625 -39.37109375 -16.61328125 62.125 -41.9375 -13.06640625 57.60546875 -38.4140625 -13.08203125 64.12109375 -40.98046875 -7.4296875 71.72265625 -11.36328125 -24.44140625 19.18359375 -1.86328125 39.6484375 88.37890625 -11.390625 -15.90234375 86.27734375 -4.97265625 -26.53125 82.96875 -7.23828125 -24.44140625 86.7265625 -19.578125 -8.69921875 87.7265625 -16.734375 -9.26171875 71.390625 -12.2265625 26.29296875 66.26171875 -6.29296875 38.9609375 55.51953125 -7.46875 39.15234375 59.89453125 -6.25390625 41.2578125 57.28515625 -4.7265625 37.34375 44.35546875 -47.140625 -28.1953125 51.14453125 -49.8203125 -14.80859375 52.76171875 -52.44921875 -17.5546875 49.10546875 -52.99609375 -15.1640625 52.76171875 -52.44921875 17.5546875 49.10546875 -52.99609375 15.1640625 80.22265625 -14.15234375 29.1796875 67.84375 -10.80078125 37.13671875 54.3046875 -45.6484375 10.0859375 59.30078125 -37.484375 -8.66015625 49.4140625 -42.90234375 -21.3515625 15.78125 29.48828125 -13.8359375 59.5078125 5.32421875 -38.390625 94.20703125 -3.95703125 1.34765625 71.9765625 -2.2578125 -35.66796875 60.94140625 -28.38671875 2.4296875 73.96484375 -6.46875 -33.52734375 56.76953125 -5.41015625 41.73828125 75.578125 -13.64453125 30.86328125</float_array>
                    <technique_common>
                        <accessor count="348" source="#pointarray2" stride="3">
                            <param name="X" type="float"/>
                            <param name="Y" type="float"/>
                            <param name="Z" type="float"/>
                        </accessor>
                    </technique_common>
                </source>
                <source id="uvs2">
                    <float_array id="uvarray2" count="418">0.24530029296875 0.58251953125 0.14154052734375 0.58349609375 0.29876708984375 0.6060791015625 0.00885009765625 0.583251953125 0.00714111328125 0.60150146484375 0.18341064453125 0.6080322265625 0.3211669921875 0.67681884765625 0.17266845703125 0.6168212890625 0.23565673828125 0.66217041015625 0.16632080078125 0.63104248046875 0.1605224609375 0.64404296875 0.09429931640625 0.62176513671875 0.09088134765625 0.63531494140625 0.05364990234375 0.62518310546875 0.05303955078125 0.63751220703125 0.0086669921875 0.62603759765625 0.0089111328125 0.6365966796875 0.05194091796875 0.64984130859375 0.08837890625 0.64923095703125 0.05169677734375 0.6602783203125 0.08709716796875 0.6602783203125 0.05157470703125 0.66796875 0.0865478515625 0.66845703125 0.0511474609375 0.7060546875 0.0772705078125 0.70587158203125 0.05224609375 0.72027587890625 0.08746337890625 0.72119140625 0.0517578125 0.73638916015625 0.0875244140625 0.73626708984375 0.05413818359375 0.763427734375 0.08843994140625 0.76422119140625 0.4090576171875 0.70050048828125 0.34832763671875 0.7322998046875 0.2919921875 0.7117919921875 0.33795166015625 0.73272705078125 0.29791259765625 0.72137451171875 0.2926025390625 0.7706298828125 0.269287109375 0.78497314453125 0.26611328125 0.80035400390625 0.23809814453125 0.81695556640625 0.2486572265625 0.8358154296875 0.20623779296875 0.83551025390625 0.239013671875 0.89971923828125 0.136474609375 0.88836669921875 0.1959228515625 0.92108154296875 0.15277099609375 0.9376220703125 0.19873046875 0.96142578125 0.14532470703125 0.97509765625 0.22796630859375 0.67535400390625 0.15771484375 0.65576171875 0.12371826171875 0.6478271484375 0.15606689453125 0.6663818359375 0.12457275390625 0.65850830078125 0.2164306640625 0.7088623046875 0.18280029296875 0.6817626953125 0.22613525390625 0.73321533203125 0.10919189453125 0.70489501953125 0.1234130859375 0.720458984375 0.009033203125 0.76416015625 0.23297119140625 0.943603515625 0.24053955078125 0.92803955078125 0.26104736328125 0.92095947265625 0.27117919921875 0.88140869140625 0.1943359375 0.82183837890625 0.29736328125 0.80987548828125 0.27764892578125 0.767578125 0.28131103515625 0.73211669921875 0.20892333984375 0.7332763671875 0.2069091796875 0.73101806640625 0.17193603515625 0.73016357421875 0.1673583984375 0.7183837890625 0.3074951171875 0.7342529296875 0.224365234375 0.71502685546875 0.009033203125 0.6156005859375 0.7437744140625 0.71478271484375 0.7203369140625 0.69952392578125 0.72747802734375 0.7657470703125 0.7105712890625 0.77008056640625 0.72802734375 0.81329345703125 0.7109375 0.82080078125 0.75628662109375 0.86444091796875 0.73974609375 0.8785400390625 0.79339599609375 0.92254638671875 0.77178955078125 0.932373046875 0.79766845703125 0.98199462890625 0.777099609375 0.98187255859375 0.76483154296875 0.9949951171875 0.72119140625 0.93438720703125 0.009033203125 0.870361328125 0.009765625 0.881103515625 0.0550537109375 0.8597412109375 0.0513916015625 0.87255859375 0.0946044921875 0.84765625 0.09515380859375 0.86077880859375 0.14691162109375 0.84130859375 0.0892333984375 0.90020751953125 0.1090087890625 0.9820556640625 0.1104736328125 0.94842529296875 0.05126953125 0.952880859375 0.0081787109375 0.91522216796875 0.006591796875 0.94927978515625 0.05279541015625 0.96710205078125 0.06671142578125 0.974609375 0.05517578125 0.99029541015625 0.99212646484375 0.8685302734375 0.99212646484375 0.8558349609375 0.9427490234375 0.873046875 0.9312744140625 0.86163330078125 0.90380859375 0.8890380859375 0.88653564453125 0.87652587890625 0.87542724609375 0.9150390625 0.85125732421875 0.90411376953125 0.83673095703125 0.93951416015625 0.80377197265625 0.9239501953125 0.00970458984375 0.73614501953125 0.31982421875 0.778564453125 0.2513427734375 0.70709228515625 0.27825927734375 0.7645263671875 0.2786865234375 0.7469482421875 0.1737060546875 0.74591064453125 0.25811767578125 0.76153564453125 0.1734619140625 0.762451171875 0.407470703125 0.741943359375 0.3824462890625 0.7984619140625 0.3450927734375 0.78631591796875 0.364501953125 0.83349609375 0.33221435546875 0.82342529296875 0.342041015625 0.8685302734375 0.30108642578125 0.87359619140625 0.3319091796875 0.880615234375 0.310302734375 0.90155029296875 0.00994873046875 0.7208251953125 0.0091552734375 0.70648193359375 0.00848388671875 0.66778564453125 0.0089111328125 0.6597900390625 0.008544921875 0.64794921875 0.00860595703125 0.612548828125 0.0084228515625 0.61444091796875 0.1246337890625 0.7364501953125 0.20806884765625 0.75079345703125 0.2069091796875 0.763916015625 0.8092041015625 0.8558349609375 0.83282470703125 0.83465576171875 0.837646484375 0.8687744140625 0.87774658203125 0.8392333984375 0.92706298828125 0.82489013671875 0.490966796875 0.77374267578125 0.478271484375 0.80072021484375 0.4779052734375 0.8006591796875 0.48321533203125 0.80078125 0.47900390625 0.84576416015625 0.4842529296875 0.84588623046875 0.4852294921875 0.89056396484375 0.5054931640625 0.84375 0.5079345703125 0.8897705078125 0.47674560546875 0.75616455078125 0.4815673828125 0.7562255859375 0.480224609375 0.7154541015625 0.492431640625 0.7559814453125 0.49090576171875 0.71484375 0.43865966796875 0.75738525390625 0.4390869140625 0.7152099609375 0.47540283203125 0.71527099609375 0.47454833984375 0.670654296875 0.47918701171875 0.6708984375 0.43829345703125 0.804931640625 0.4383544921875 0.8486328125 0.124755859375 0.667724609375 0.15740966796875 0.66680908203125 0.24163818359375 0.79608154296875 0.693603515625 0.68499755859375 0.67584228515625 0.7603759765625 0.67132568359375 0.680908203125 0.65399169921875 0.7498779296875 0.6754150390625 0.798583984375 0.67987060546875 0.826904296875 0.652099609375 0.79150390625 0.6556396484375 0.8232421875 0.713623046875 0.88568115234375 0.7452392578125 0.93756103515625 0.6890869140625 0.88232421875 0.006591796875 0.9637451171875 0.006591796875 0.99114990234375 0.48828125 0.67132568359375 0.465087890625 0.7763671875 0.4384765625 0.7818603515625 0.7952880859375 0.89697265625 0.18377685546875 0.8118896484375 0.8624267578125 0.94683837890625 0.27862548828125 0.9215087890625 0.025634765625 0.99169921875 0.8775634765625 0.804931640625 0.93267822265625 0.7900390625 0.97271728515625 0.78546142578125 0.99212646484375 0.81878662109375 0.99212646484375 0.78369140625 0.142578125 0.82965087890625 0.4798583984375 0.89093017578125 0.48431396484375 0.90765380859375 0.43804931640625 0.91021728515625 0.50384521484375 0.7978515625 0.124755859375 0.76422119140625 0.438232421875 0.89447021484375 0.83837890625 0.98394775390625 0.85931396484375 0.99468994140625 0.43975830078125 0.6689453125 0.22991943359375 0.7872314453125 0.21917724609375 0.7872314453125 0.23089599609375 0.79608154296875</float_array>
                    <technique_common>
                        <accessor count="209" source="#uvarray2" stride="2">
                            <param name="S" type="float"/>
                            <param name="T" type="float"/>
                        </accessor>
                    </technique_common>
                </source>
                <vertices id="vertices2">
                    <input semantic="POSITION" source="#points2"/>
                </vertices>
                <polylist count="572" material="Material1">
                    <input offset="0" semantic="VERTEX" source="#vertices2"/>
                    <input offset="1" semantic="TEXCOORD" source="#uvs2" set="0"/>
                    <vcount>3 3 3 3 3 3 3 3 3 3 3 3 3 3 3 3 3 3 3 3 3 3 3 3 3 3 3 3 3 3 3 3 3 3 3 3 3 3 3 3 3 3 3 3 3 3 3 3 3 3 3 3 3 3 3 3 3 3 3 3 3 3 3 3 3 3 3 3 3 3 3 3 3 3 3 3 3 3 3 3 3 3 3 3 3 3 3 3 3 3 3 3 3 3 3 3 3 3 3 3 3 3 3 3 3 3 3 3 3 3 3 3 3 3 3 3 3 3 3 3 3 3 3 3 3 3 3 3 3 3 3 3 3 3 3 3 3 3 3 3 3 3 3 3 3 3 3 3 3 3 3 3 3 3 3 3 3 3 3 3 3 3 3 3 3 3 3 3 3 3 3 3 3 3 3 3 3 3 3 3 3 3 3 3 3 3 3 3 3 3 3 3 3 3 3 3 3 3 3 3 3 3 3 3 3 3 3 3 3 3 3 3 3 3 3 3 3 3 3 3 3 3 3 3 3 3 3 3 3 3 3 3 3 3 3 3 3 3 3 3 3 3 3 3 3 3 3 3 3 3 3 3 3 3 3 3 3 3 3 3 3 3 3 3 3 3 3 3 3 3 3 3 3 3 3 3 3 3 3 3 3 3 3 3 3 3 3 3 3 3 3 3 3 3 3 3 3 3 3 3 3 3 3 3 3 3 3 3 3 3 3 3 3 3 3 3 3 3 3 3 3 3 3 3 3 3 3 3 3 3 3 3 3 3 3 3 3 3 3 3 3 3 3 3 3 3 3 3 3 3 3 3 3 3 3 3 3 3 3 3 3 3 3 3 3 3 3 3 3 3 3 3 3 3 3 3 3 3 3 3 3 3 3 3 3 3 3 3 3 3 3 3 3 3 3 3 3 3 3 3 3 3 3 3 3 3 3 3 3 3 3 3 3 3 3 3 3 3 3 3 3 3 3 3 3 3 3 3 3 3 3 3 3 3 3 3 3 3 3 3 3 3 3 3 3 3 3 3 3 3 3 3 3 3 3 3 3 3 3 3 3 3 3 3 3 3 3 3 3 3 3 3 3 3 3 3 3 3 3 3 3 3 3 3 3 3 3 3 3 3 3 3 3 3 3 3 3 3 3 3 3 3 3 3 3 3 3 3 3 3 3 3 3 3 3 3 3 3 3 3 3 3 3 3 3 3 3 3 3 3 3 3 3 3 3 3 3 3 3 3 3 3 3 3 3 3 3 3 3 3 3 3 3 3 3 3 3 3 3 3 3 3 3 3 3 3 3 3 3 3 3 3</vcount>
                    <p>2 2 1 1 0 0 3 3 1 1 2 2 4 4 3 3 2 2 5 2 3 3 4 4 6 5 5 2 4 4 7 6 5 2 6 5 8 7 7 6 6 5 9 8 7 6 8 7 10 9 9 8 8 7 11 10 9 8 10 9 12 11 11 10 10 9 13 12 11 10 12 11 14 13 13 12 12 11 15 14 13 12 14 13 16 15 15 14 14 13 17 16 15 14 16 15 18 14 17 16 16 15 19 17 17 16 18 14 20 18 19 17 18 14 21 19 19 17 20 18 22 20 21 19 20 18 23 21 21 19 22 20 24 22 23 21 22 20 25 23 23 21 24 22 26 24 25 23 24 22 27 25 25 23 26 24 28 26 27 25 26 24 29 27 27 25 28 26 30 28 29 27 28 26 31 29 29 27 30 28 32 30 31 29 30 28 7 6 33 31 5 2 34 32 33 31 7 6 35 33 34 32 7 6 36 34 34 32 35 33 37 35 36 34 35 33 38 36 36 34 37 35 39 37 38 36 37 35 40 38 38 36 39 37 41 39 40 38 39 37 42 40 40 38 41 39 43 41 42 40 41 39 44 42 42 40 43 41 45 43 44 42 43 41 46 44 44 42 45 43 47 45 46 44 45 43 48 46 46 44 47 45 49 47 48 46 47 45 9 8 35 33 7 6 50 48 35 33 9 8 11 10 50 48 9 8 51 49 50 48 11 10 52 50 51 49 11 10 53 51 51 49 52 50 54 52 53 51 52 50 55 53 53 51 54 52 56 54 55 53 54 52 57 55 55 53 56 54 58 56 57 55 56 54 59 57 57 55 58 56 60 26 59 57 58 56 61 28 59 57 60 26 62 27 61 28 60 26 63 29 61 28 62 27 64 58 63 29 62 27 67 44 66 60 65 59 68 61 66 60 67 44 69 42 68 61 67 44 70 62 68 61 69 42 71 63 70 62 69 42 72 64 70 62 71 63 73 65 72 64 71 63 74 66 72 64 73 65 75 67 74 66 73 65 76 68 74 66 75 67 77 69 76 68 75 67 78 70 76 68 77 69 79 57 78 70 77 69 80 56 78 70 79 57 28 26 80 56 79 57 26 24 80 56 28 26 74 66 81 36 72 64 82 71 81 36 74 66 83 72 82 71 74 66 84 48 82 71 83 72 85 51 84 48 83 72 86 49 84 48 85 51 87 52 86 49 85 51 88 50 86 49 87 52 20 18 88 50 87 52 89 12 88 50 20 18 18 14 89 12 20 18 90 13 89 12 18 14 16 15 90 13 18 14 91 73 90 13 16 15 14 13 91 73 16 15 12 11 91 73 14 13 94 76 93 75 92 74 95 77 93 75 94 76 96 78 95 77 94 76 97 79 95 77 96 78 98 80 97 79 96 78 99 81 97 79 98 80 100 82 99 81 98 80 101 83 99 81 100 82 102 84 101 83 100 82 103 85 101 83 102 84 104 86 103 85 102 84 105 87 103 85 104 86 108 90 107 89 106 88 109 91 107 89 108 90 110 92 109 91 108 90 111 93 109 91 110 92 112 94 111 93 110 92 113 95 111 93 112 94 114 43 113 95 112 94 115 45 113 95 114 43 67 44 115 45 114 43 116 46 115 45 67 44 65 59 116 46 67 44 47 45 117 96 49 47 118 97 117 96 47 45 119 95 118 97 47 45 120 98 118 97 119 95 121 99 120 98 119 95 122 100 120 98 121 99 123 98 122 100 121 99 124 101 122 100 123 98 125 102 124 101 123 98 126 103 124 101 125 102 127 96 126 103 125 102 130 106 129 105 128 104 131 107 129 105 130 106 132 108 131 107 130 106 133 109 131 107 132 108 134 110 133 109 132 108 135 111 133 109 134 110 136 112 135 111 134 110 137 113 135 111 136 112 102 84 137 113 136 112 100 82 137 113 102 84 64 58 29 27 31 29 138 114 29 27 64 58 62 27 138 114 64 58 139 25 138 114 62 27 60 26 139 25 62 27 140 24 139 25 60 26 58 56 140 24 60 26 141 22 140 24 58 56 56 54 141 22 58 56 54 52 141 22 56 54 142 61 46 44 93 60 44 42 46 44 142 61 143 62 44 42 142 61 42 40 44 42 143 62 144 64 42 40 143 62 40 38 42 40 144 64 145 115 40 38 144 64 38 36 40 38 145 115 36 34 38 36 145 115 53 51 50 48 51 49 146 116 50 48 53 51 55 53 146 116 53 51 147 117 146 116 55 53 57 55 147 117 55 53 148 118 147 117 57 55 149 119 148 118 57 55 150 120 148 118 149 119 151 121 150 120 149 119 34 32 152 122 33 31 153 123 152 122 34 32 154 124 153 123 34 32 155 125 153 123 154 124 156 126 155 125 154 124 157 127 155 125 156 126 158 128 157 127 156 126 159 129 157 127 158 128 160 130 159 129 158 128 161 131 25 23 27 25 162 132 25 23 161 131 163 23 162 132 161 131 164 133 162 132 163 23 165 21 164 133 163 23 166 134 164 133 165 21 167 19 166 134 165 21 168 135 166 134 167 19 169 17 168 135 167 19 171 32 0 31 170 122 172 6 0 31 171 32 173 33 172 6 171 32 174 8 172 6 173 33 84 48 174 8 173 33 175 10 174 8 84 48 86 49 175 10 84 48 88 50 175 10 86 49 172 6 2 2 0 31 176 5 2 2 172 6 177 7 176 5 172 6 178 136 176 5 177 7 179 9 178 136 177 7 180 137 178 136 179 9 181 11 180 137 179 9 91 73 180 137 181 11 13 12 52 50 11 10 182 18 52 50 13 12 15 14 182 18 13 12 169 17 182 18 15 14 17 16 169 17 15 14 168 135 169 17 17 16 19 17 168 135 17 16 21 19 168 135 19 17 79 57 30 28 28 26 183 138 30 28 79 57 77 69 183 138 79 57 184 119 183 138 77 69 75 67 184 119 77 69 185 139 184 119 75 67 73 65 185 139 75 67 186 140 185 139 73 65 189 143 188 142 187 141 190 144 188 142 189 143 191 109 190 144 189 143 192 145 190 144 191 109 193 107 192 145 191 109 129 105 192 145 193 107 194 106 129 105 193 107 128 104 129 105 194 106 197 148 196 147 195 146 198 149 196 147 197 148 199 150 198 149 197 148 200 151 198 149 199 150 201 152 200 151 199 150 202 153 200 151 201 152 203 154 202 153 201 152 204 155 195 146 196 148 205 155 195 146 204 155 206 156 205 155 204 155 207 157 205 155 206 156 208 158 207 157 206 156 209 159 207 157 208 158 204 155 209 159 208 158 212 161 211 155 210 160 213 162 211 155 212 161 214 163 213 162 212 161 215 164 213 162 214 163 216 162 215 164 214 163 207 157 215 164 216 162 205 155 207 157 216 162 219 148 218 166 217 165 220 150 218 166 219 148 221 149 220 150 219 148 222 151 220 150 221 149 223 153 222 151 221 149 224 152 222 151 223 153 225 154 224 152 223 153 72 64 226 128 70 62 227 126 226 128 72 64 81 36 227 126 72 64 228 124 227 126 81 36 171 32 228 124 81 36 229 123 228 124 171 32 170 122 229 123 171 32 87 52 22 20 20 18 230 167 22 20 87 52 85 51 230 167 87 52 231 168 230 167 85 51 83 72 231 168 85 51 76 68 231 168 83 72 74 66 76 68 83 72 43 41 232 94 45 43 233 63 232 94 43 41 41 39 233 63 43 41 234 169 233 63 41 39 147 117 234 169 41 39 148 118 234 169 147 117 138 114 27 25 29 27 161 131 27 25 138 114 139 25 161 131 138 114 163 23 161 131 139 25 140 24 163 23 139 25 141 22 163 23 140 24 66 75 235 76 65 74 236 77 235 76 66 75 68 170 236 77 66 75 237 171 236 77 68 170 238 172 237 171 68 170 239 173 237 171 238 172 236 77 240 78 235 76 241 79 240 78 236 77 242 174 241 79 236 77 243 175 241 79 242 174 244 176 243 175 242 174 245 177 243 175 244 176 241 79 246 80 240 78 247 81 246 80 241 79 248 178 247 81 241 79 249 179 247 81 248 178 250 180 249 179 248 178 251 87 249 179 250 180 120 98 252 102 118 97 253 101 252 102 120 98 122 100 253 101 120 98 254 181 253 101 122 100 124 101 254 181 122 100 255 182 254 181 124 101 247 81 256 82 246 80 257 83 256 82 247 81 249 179 257 83 247 81 258 85 257 83 249 179 251 87 258 85 249 179 259 86 258 85 251 87 261 159 215 164 260 183 262 157 215 164 261 159 263 158 262 157 261 159 264 156 262 157 263 158 265 155 264 156 263 158 211 155 264 156 265 155 266 161 216 162 214 163 205 155 216 162 266 161 267 160 205 155 266 161 268 184 205 155 267 160 269 185 268 184 267 160 270 165 268 184 269 185 271 84 257 83 258 85 256 82 257 83 271 84 272 113 256 82 271 84 273 186 256 82 272 113 187 141 273 186 272 113 71 63 274 187 73 65 112 94 274 187 71 63 69 42 112 94 71 63 114 43 112 94 69 42 67 44 114 43 69 42 113 95 123 98 121 99 275 97 123 98 113 95 115 45 275 97 113 95 127 96 275 97 115 45 276 47 127 96 115 45 167 19 182 18 169 17 277 20 182 18 167 19 165 21 277 20 167 19 141 22 277 20 165 21 163 23 141 22 165 21 272 113 189 143 187 141 278 111 189 143 272 113 279 112 278 111 272 113 280 110 278 111 279 112 281 188 280 110 279 112 70 62 238 189 68 61 282 130 238 189 70 62 226 128 282 130 70 62 283 129 282 130 226 128 284 127 283 129 226 128 97 79 285 174 95 77 286 175 285 174 97 79 287 178 286 175 97 79 288 177 286 175 287 178 289 180 288 177 287 178 291 146 265 155 290 148 211 155 265 155 291 146 292 184 211 155 291 146 210 160 211 155 292 184 293 185 210 160 292 184 252 102 117 96 118 97 294 103 117 96 252 102 253 101 294 103 252 102 295 190 294 103 253 101 255 182 295 190 253 101 192 145 297 192 296 191 298 193 297 192 192 145 299 194 298 193 192 145 300 195 298 193 299 194 301 193 300 195 299 194 144 64 156 126 145 115 158 128 156 126 144 64 143 62 158 128 144 64 160 130 158 128 143 62 302 189 160 130 143 62 45 43 119 95 47 45 303 93 119 95 45 43 232 94 303 93 45 43 304 92 303 93 232 94 305 196 304 92 232 94 95 77 142 170 93 75 306 171 142 170 95 77 285 174 306 171 95 77 307 173 306 171 285 174 308 176 307 173 285 174 292 184 217 165 293 185 219 148 217 165 292 184 291 146 219 148 292 184 290 147 219 148 291 146 224 152 220 150 222 151 309 197 220 150 224 152 225 198 309 197 224 152 310 199 309 197 225 198 313 142 312 143 311 141 314 144 312 143 313 142 315 191 314 144 313 142 316 145 314 144 315 191 290 147 221 149 219 148 317 200 221 149 290 147 223 153 317 200 290 147 221 149 317 200 223 153 227 126 284 127 226 128 318 125 284 127 227 126 228 124 318 125 227 126 229 123 318 125 228 124 319 30 61 28 63 29 320 138 61 28 319 30 321 201 320 138 319 30 151 121 320 138 321 201 322 91 121 99 119 95 107 89 121 99 322 91 323 90 107 89 322 91 106 88 107 89 323 90 89 12 175 10 88 50 181 11 175 10 89 12 90 13 181 11 89 12 91 73 181 11 90 13 202 153 198 149 200 151 324 200 198 149 202 153 196 147 324 200 202 153 198 149 324 200 196 147 325 166 199 150 197 148 326 197 199 150 325 166 327 202 326 197 325 166 328 199 326 197 327 202 268 184 195 146 205 155 197 148 195 146 268 184 270 165 197 148 268 184 325 166 197 148 270 165 129 105 299 194 192 145 316 145 299 194 129 105 131 107 316 145 129 105 133 109 316 145 131 107 99 81 287 178 97 79 329 179 287 178 99 81 101 83 329 179 99 81 103 85 329 179 101 83 330 188 136 112 134 110 331 203 136 112 330 188 332 204 331 203 330 188 104 86 331 203 332 204 259 86 271 84 258 85 333 203 271 84 259 86 334 204 333 203 259 86 281 188 333 203 334 204 174 8 177 7 172 6 179 9 177 7 174 8 175 10 179 9 174 8 181 11 179 9 175 10 183 138 32 30 30 28 335 201 32 30 183 138 336 121 335 201 183 138 336 121 185 139 186 140 184 119 185 139 336 121 183 138 184 119 336 121 80 56 230 167 231 168 24 22 230 167 80 56 26 24 24 22 80 56 337 108 191 109 280 110 193 107 191 109 337 108 194 106 193 107 337 108 316 145 301 193 299 194 338 192 301 193 316 145 315 191 338 192 316 145 277 20 52 50 182 18 54 52 52 50 277 20 141 22 54 52 277 20 320 138 59 57 61 28 57 55 59 57 320 138 149 119 57 55 320 138 145 115 34 32 36 34 154 124 34 32 145 115 156 126 154 124 145 115 329 179 289 180 287 178 105 87 289 180 329 179 103 85 105 87 329 179 312 143 137 113 311 141 135 111 137 113 312 143 133 109 135 111 312 143 109 91 121 99 107 89 113 95 121 99 109 91 111 93 113 95 109 91 271 84 279 112 272 113 333 203 279 112 271 84 102 84 331 203 104 86 136 112 331 203 102 84 133 109 314 144 316 145 312 143 314 144 133 109 339 186 137 113 100 82 311 141 137 113 339 186 190 144 296 191 188 142 192 145 296 191 190 144 278 111 191 109 189 143 280 110 191 109 278 111 178 136 6 5 4 4 8 7 6 5 178 136 10 9 178 136 180 137 8 7 178 136 10 9 12 11 180 137 91 73 10 9 180 137 12 11 173 33 82 71 84 48 171 32 82 71 173 33 78 70 231 168 76 68 80 56 231 168 78 70 176 5 4 4 2 2 178 136 4 4 176 5 340 1 5 2 33 0 3 3 5 2 340 1 50 48 37 35 35 33 146 116 37 35 50 48 341 202 309 197 310 199 218 166 309 197 341 202 342 205 214 163 212 161 266 161 214 163 342 205 21 19 166 134 168 135 23 21 166 134 21 19 23 21 164 133 166 134 25 23 164 133 23 21 92 59 46 44 48 46 93 60 46 44 92 59 150 120 234 169 148 118 343 206 234 169 150 120 344 190 124 101 126 103 255 182 124 101 344 190 146 116 39 37 37 35 147 117 39 37 146 116 306 171 302 172 142 170 307 173 302 172 306 171 286 175 308 176 285 174 288 177 308 176 286 175 343 206 233 63 234 169 345 187 233 63 343 206 232 94 345 187 305 196 233 63 345 187 232 94 186 208 274 187 346 207 73 65 274 187 186 208 243 175 248 178 241 79 245 177 248 178 243 175 237 171 242 174 236 77 239 173 242 174 237 171 347 196 112 94 110 92 274 187 112 94 347 196 275 97 125 102 123 98 127 96 125 102 275 97 209 159 215 164 207 157 260 183 215 164 209 159 303 93 322 91 119 95 304 92 322 91 303 93 211 155 262 157 264 156 213 162 262 157 211 155 203 198 326 197 328 199 201 152 326 197 203 198 255 182 253 101 254 181 115 45 116 46 276 47 218 166 220 150 309 197 304 92 323 90 322 91 151 121 149 119 320 138 199 150 326 197 201 152 25 23 162 132 164 133 143 62 142 61 302 189 215 164 262 157 213 162 82 71 171 32 81 36 263 158 261 159 265 155 333 203 281 188 279 112 39 37 147 117 41 39 204 155 208 158 206 156 245 177 250 180 248 178 239 173 244 176 242 174 230 167 24 22 22 20</p>
                </polylist>
            </mesh>
        </geometry>
    </library_geometries>
    <library_visual_scenes>
        <visual_scene id="VisualSceneNode">
            <node id="node0" name="m0" type="NODE">
                <instance_geometry url="#mesh0">
                    <bind_material>
                        <technique_common>
                            <instance_material symbol="Material1" target="#mat0">
                                <bind_vertex_input semantic="UVSET0" input_semantic="TEXCOORD" input_set="0"></bind_vertex_input>
                            </instance_material>
                        </technique_common>
                    </bind_material>
                </instance_geometry>
            </node>
            <node id="node1" name="m1" type="NODE">
                <instance_geometry url="#mesh1">
                    <bind_material>
                        <technique_common>
                            <instance_material symbol="Material1" target="#mat2">
                                <bind_vertex_input semantic="UVSET0" input_semantic="TEXCOORD" input_set="0"></bind_vertex_input>
                            </instance_material>
                        </technique_common>
                    </bind_material>
                </instance_geometry>
            </node>
            <node id="node2" name="m2" type="NODE">
                <instance_geometry url="#mesh2">
                    <bind_material>
                        <technique_common>
                            <instance_material symbol="Material1" target="#mat1">
                                <bind_vertex_input semantic="UVSET0" input_semantic="TEXCOORD" input_set="0"></bind_vertex_input>
                            </instance_material>
                        </technique_common>
                    </bind_material>
                </instance_geometry>
            </node>
        </visual_scene>
    </library_visual_scenes>
    <scene>
        <instance_visual_scene url="#VisualSceneNode"></instance_visual_scene>
    </scene>
</COLLADA>
