<?xml version="1.0"?>
<COLLADA xmlns="http://www.collada.org/2005/11/COLLADASchema" version="1.4.1">
    <asset>
        <contributor>
            <authoring_tool>J3D Ripoff Exporter</authoring_tool>
        </contributor>
        <created>2024-08-18T22:45:28.687Z</created>
        <modified>2024-08-18T22:45:28.687Z</modified>
		<unit meter="0.01" name="centimeter" ></unit>
        <up_axis>Y_UP</up_axis>
    </asset>
    <library_images>
        <image id="tex0">
            <init_from>wilddonkey_fur.png</init_from>
        </image>
        <image id="tex1">
            <init_from>wilddonkey_fur.png</init_from>
        </image>
    </library_images>
    <library_effects>
        <effect id="effect0">
            <profile_COMMON>
                <newparam sid="surface0">
                    <surface type="2D">
                        <init_from>tex1</init_from>
                    </surface>
                </newparam>
                <newparam sid="sampler0">
                    <sampler2D>
                        <source>surface0</source>
                    </sampler2D>
                </newparam>
                <technique sid="COMMON">
                    <blinn>
                        <diffuse>
                            <texture texture="sampler0" texcoord="UVSET0"></texture>
                        </diffuse>
                    </blinn>
                </technique>
            </profile_COMMON>
        </effect>
    </library_effects>
    <library_materials>
        <material id="mat0" name="Fur_body">
            <instance_effect url="#effect0"></instance_effect>
        </material>
    </library_materials>
    <library_geometries>
        <geometry id="mesh0">
            <mesh>
                <source id="points0">
                    <float_array id="pointarray0" count="243">5.357185922215837 -0.0263671875 4.922131820376814 -0.0003628147557461748 -0.01953125 7.5683593663036275 5.79149383160135 6.609375 -9.975308314230965 0.00043631400303927086 8.6904296875 -9.10156248954191 6.558737866559179 7.6357421875 -23.377342548353266 0.001121248371851503 10.7529296875 -23.389375659770103 8.663339111445726 10.0224609375 -46.0234533073826 0.0022078537863801455 13.5712890625 -46.05609507037057 10.659516137073293 12.3876953125 -68.131756076828 0.0032661025029791495 17.19140625 -68.13129035750521 13.237558065946896 15.1708984375 -86.77003163528099 0.004137921582106056 20.3779296875 -86.31754102325394 14.260059384754591 16.4326171875 -107.98357707926284 0.005152619452786167 22.2802734375 -107.48426043557797 13.915449840972618 15.4248046875 -130.79582087463788 0.006255610049832379 21.275390625 -130.49277672078568 11.50424356011457 12.8984375 -149.63453092221079 0.007161229419752671 17.736328125 -149.38410551072425 7.482645457872698 8.0166015625 -167.63347441836578 0.008027524351630797 11.4677734375 -167.45512180160537 0.008953474423102228 0.5400390625 -186.77055146691112 -7.466573274950003 8.0166015625 -167.63419105943427 -14.615932977243865 0.5546875 -168.76832285183497 -20.51038208860292 0.5615234375 -150.11067502648962 -12.499633824382672 -13.990234375 -150.23724412948036 -13.902856882219595 -16.009765625 -131.8948106899743 0.0063373018883842586 -21.83984375 -132.1968782813276 0.005197983000956237 -20.6962890625 -108.43054949699064 13.295241945784882 -14.8681640625 -108.53245145666172 11.559868073311904 -12.25390625 -87.695893312056 22.123343453303832 0.552734375 -87.67097285381465 17.815754940111535 0.5478515625 -67.89801458068906 -5.3576578154723435 -0.0263671875 4.921618168312291 -5.790537405090395 6.609375 -9.975863537844276 -6.556496493370849 7.6357421875 -23.37797127121387 -8.658926493650242 10.0224609375 -46.0242837084326 -10.65298383843772 12.3876953125 -68.13277776318017 -13.229238778641609 15.1708984375 -86.77130041018555 -14.249706207486454 16.4326171875 -107.98494379074403 -13.902909502062881 15.4248046875 -130.79715444123556 -11.489897038464168 12.8984375 -149.63563322366093 -24.816940576786525 0.568359375 -131.4529510802678 -13.284836148673458 -14.8681640625 -108.53372566208391 0.0041946611284240385 -16.9931640625 -87.50113477189393 9.308919152830677 -9.615234375 -67.90135207197116 14.479745167503195 0.5546875 -46.01926822839545 -25.434255908619733 0.5595703125 -108.41516746023709 -11.55146002513218 -12.25390625 -87.69700123128302 0.0032551478380959745 -13.4111328125 -67.90277473276778 8.114505429189526 -8.19140625 -45.90754143079195 10.963032863906163 0.5458984375 -23.33806891361771 -22.114937745864466 0.552734375 -87.67309356458048 -9.3024089507841 -9.615234375 -67.90224426856665 0.002199206122278783 -10.736328125 -45.87570375893234 6.142718496852623 -5.3857421875 -23.2992374915509 9.681219134545385 1.869140625 -11.578637474011405 -17.8092450189538 0.5478515625 -67.89972238485548 -8.110103927167694 -8.19140625 -45.90831921199866 0.0011163796319034252 -7.498046875 -23.287813159886802 5.424469434811525 -2.0986328125 -13.377669662689028 8.95507656982159 -0.068359375 0.0326558542449306 25.444650282918204 0.5595703125 -108.41272840878233 13.915502460815905 -16.009765625 -131.8934771233766 0.007214036522266437 -18.806640625 -150.4856680094585 -5.286752261624444 -5.5107421875 -170.41924281558437 -14.475333626448275 0.552734375 -46.006007849945554 -6.1404846140334435 -5.3857421875 -23.299826328195774 0.0006672046321154172 -3.5107421875 -13.917968734007651 5.01783887771065 -0.107421875 -5.439212584270474 24.829543741167516 0.568359375 -131.45057110909974 12.514038021875537 -13.990234375 -150.23604501500893 0.008178174401178047 -8.94140625 -170.59769992299442 -10.960795235902408 0.5458984375 -23.339119906039194 -5.423186802724049 -2.0986328125 -13.37818968156733 0.00033950098176403347 -0.119140625 -7.082031241862439 20.52477411424591 0.5615234375 -150.1087078682914 5.303091476207368 -5.5107421875 -170.41873515581517 -9.68010896820761 1.869140625 -11.579565624378816 -5.01731736075852 -0.107421875 -5.439693653229191 14.632113864148863 0.5546875 -168.76692074835955 -8.955079659598864 -0.068359375 0.03179727068100997</float_array>
                    <technique_common>
                        <accessor count="81" source="#pointarray0" stride="3">
                            <param name="X" type="float"/>
                            <param name="Y" type="float"/>
                            <param name="Z" type="float"/>
                        </accessor>
                    </technique_common>
                </source>
                <source id="uvs0">
                    <float_array id="uvarray0" count="182">0.41510009765625 -0.77734375 0.41510009765625 -0.78961181640625 0.37884521484375 -0.7618408203125 0.37884521484375 -0.7767333984375 0.3607177734375 -0.75408935546875 0.3607177734375 -0.770263671875 0.3135986328125 -0.73382568359375 0.3135986328125 -0.75341796875 0.2730712890625 -0.72332763671875 0.2730712890625 -0.74462890625 0.2325439453125 -0.71331787109375 0.2325439453125 -0.73626708984375 0.1920166015625 -0.70855712890625 0.1920166015625 -0.7322998046875 0.1514892578125 -0.70904541015625 0.1514892578125 -0.732666015625 0.1109619140625 -0.72662353515625 0.1109619140625 -0.74737548828125 0.07037353515625 -0.76922607421875 0.07037353515625 -0.78289794921875 0.01141357421875 -0.85107421875 0.07037353515625 -0.7965087890625 0.07037353515625 -0.82379150390625 0.1109619140625 -0.8095703125 0.1109619140625 -0.85107421875 0.1514892578125 -0.85107421875 0.1514892578125 -0.874755859375 0.1920166015625 -0.87481689453125 0.1920166015625 -0.8985595703125 0.2325439453125 -0.89697265625 0.2325439453125 -0.94293212890625 0.2730712890625 -0.93621826171875 0.2730712890625 -0.97882080078125 0.3135986328125 -0.96832275390625 0.41510009765625 -0.80194091796875 0.37884521484375 -0.79156494140625 0.3607177734375 -0.78643798828125 0.3135986328125 -0.77294921875 0.2730712890625 -0.76593017578125 0.2325439453125 -0.75921630859375 0.1920166015625 -0.75604248046875 0.1514892578125 -0.75634765625 0.1109619140625 -0.76812744140625 0.1514892578125 -0.8037109375 0.1920166015625 -0.85107421875 0.2325439453125 -0.8740234375 0.2730712890625 -0.8936767578125 0.3135986328125 -0.92919921875 0.3607177734375 -0.94805908203125 0.1920166015625 -0.8035888671875 0.2325439453125 -0.85107421875 0.2730712890625 -0.87237548828125 0.3135986328125 -0.89013671875 0.3607177734375 -0.91571044921875 0.37884521484375 -0.9403076171875 0.2325439453125 -0.80517578125 0.2730712890625 -0.85107421875 0.3135986328125 -0.87060546875 0.3607177734375 -0.8834228515625 0.37884521484375 -0.91058349609375 0.41510009765625 -0.9248046875 0.2730712890625 -0.8084716796875 0.3135986328125 -0.85107421875 0.3607177734375 -0.86724853515625 0.37884521484375 -0.88079833984375 0.41510009765625 -0.90020751953125 0.2325439453125 -0.98883056640625 0.1920166015625 -0.94610595703125 0.1514892578125 -0.8984375 0.1109619140625 -0.871826171875 0.07037353515625 -0.85107421875 0.3135986328125 -0.81201171875 0.3607177734375 -0.85107421875 0.37884521484375 -0.865966796875 0.41510009765625 -0.87567138671875 0.1920166015625 -0.99359130859375 0.1514892578125 -0.94580078125 0.1109619140625 -0.892578125 0.07037353515625 -0.86474609375 0.3607177734375 -0.8187255859375 0.37884521484375 -0.85107421875 0.41510009765625 -0.86334228515625 0.1514892578125 -0.9931640625 0.1109619140625 -0.93402099609375 0.07037353515625 -0.87835693359375 0.37884521484375 -0.82135009765625 0.41510009765625 -0.85107421875 0.1109619140625 -0.97552490234375 0.07037353515625 -0.9056396484375 0.41510009765625 -0.82647705078125 0.07037353515625 -0.93292236328125</float_array>
                    <technique_common>
                        <accessor count="91" source="#uvarray0" stride="2">
                            <param name="S" type="float"/>
                            <param name="T" type="float"/>
                        </accessor>
                    </technique_common>
                </source>
                <vertices id="vertices0">
                    <input semantic="POSITION" source="#points0"/>
                </vertices>
                <polylist count="152" material="Material1">
                    <input offset="0" semantic="VERTEX" source="#vertices0"/>
                    <input offset="1" semantic="TEXCOORD" source="#uvs0" set="0"/>
                    <vcount>3 3 3 3 3 3 3 3 3 3 3 3 3 3 3 3 3 3 3 3 3 3 3 3 3 3 3 3 3 3 3 3 3 3 3 3 3 3 3 3 3 3 3 3 3 3 3 3 3 3 3 3 3 3 3 3 3 3 3 3 3 3 3 3 3 3 3 3 3 3 3 3 3 3 3 3 3 3 3 3 3 3 3 3 3 3 3 3 3 3 3 3 3 3 3 3 3 3 3 3 3 3 3 3 3 3 3 3 3 3 3 3 3 3 3 3 3 3 3 3 3 3 3 3 3 3 3 3 3 3 3 3 3 3 3 3 3 3 3 3 3 3 3 3 3 3 3 3 3 3 3 3</vcount>
                    <p>2 2 1 1 0 0 3 3 1 1 2 2 4 4 3 3 2 2 5 5 3 3 4 4 6 6 5 5 4 4 7 7 5 5 6 6 8 8 7 7 6 6 9 9 7 7 8 8 10 10 9 9 8 8 11 11 9 9 10 10 12 12 11 11 10 10 13 13 11 11 12 12 14 14 13 13 12 12 15 15 13 13 14 14 16 16 15 15 14 14 17 17 15 15 16 16 18 18 17 17 16 16 19 19 17 17 18 18 20 20 19 19 18 18 21 21 19 19 20 20 22 22 21 21 20 20 23 23 21 21 22 22 24 24 23 23 22 22 25 25 23 23 24 24 26 26 25 25 24 24 27 27 25 25 26 26 28 28 27 27 26 26 29 29 27 27 28 28 30 30 29 29 28 28 31 31 29 29 30 30 8 32 31 31 30 30 6 33 31 31 8 32 3 3 32 34 1 1 33 35 32 34 3 3 5 5 33 35 3 3 34 36 33 35 5 5 7 7 34 36 5 5 35 37 34 36 7 7 9 9 35 37 7 7 36 38 35 37 9 9 11 11 36 38 9 9 37 39 36 38 11 11 13 13 37 39 11 11 38 40 37 39 13 13 15 15 38 40 13 13 39 41 38 40 15 15 17 17 39 41 15 15 40 42 39 41 17 17 19 19 40 42 17 17 21 21 40 42 19 19 23 23 40 42 21 21 41 43 40 42 23 23 25 25 41 43 23 23 42 44 41 43 25 25 27 27 42 44 25 25 43 45 42 44 27 27 29 29 43 45 27 27 44 46 43 45 29 29 31 31 44 46 29 29 45 47 44 46 31 31 6 33 45 47 31 31 4 48 45 47 6 33 41 43 39 41 40 42 46 49 39 41 41 43 42 44 46 49 41 43 47 50 46 49 42 44 43 45 47 50 42 44 48 51 47 50 43 45 44 46 48 51 43 45 49 52 48 51 44 46 45 47 49 52 44 46 50 53 49 52 45 47 4 48 50 53 45 47 2 54 50 53 4 48 46 49 38 40 39 41 51 55 38 40 46 49 47 50 51 55 46 49 52 56 51 55 47 50 48 51 52 56 47 50 53 57 52 56 48 51 49 52 53 57 48 51 54 58 53 57 49 52 50 53 54 58 49 52 55 59 54 58 50 53 2 54 55 59 50 53 0 60 55 59 2 54 51 55 37 39 38 40 56 61 37 39 51 55 52 56 56 61 51 55 57 62 56 61 52 56 53 57 57 62 52 56 58 63 57 62 53 57 54 58 58 63 53 57 59 64 58 63 54 58 55 59 59 64 54 58 60 65 59 64 55 59 0 60 60 65 55 59 30 30 10 66 8 32 61 67 10 66 30 30 28 28 61 67 30 30 62 68 61 67 28 28 26 26 62 68 28 28 63 69 62 68 26 26 24 24 63 69 26 26 64 70 63 69 24 24 22 22 64 70 24 24 20 20 64 70 22 22 56 61 36 38 37 39 65 71 36 38 56 61 57 62 65 71 56 61 66 72 65 71 57 62 58 63 66 72 57 62 67 73 66 72 58 63 59 64 67 73 58 63 68 74 67 73 59 64 60 65 68 74 59 64 61 67 12 75 10 66 69 76 12 75 61 67 62 68 69 76 61 67 70 77 69 76 62 68 63 69 70 77 62 68 71 78 70 77 63 69 64 70 71 78 63 69 20 20 71 78 64 70 65 71 35 37 36 38 72 79 35 37 65 71 66 72 72 79 65 71 73 80 72 79 66 72 67 73 73 80 66 72 74 81 73 80 67 73 68 74 74 81 67 73 69 76 14 82 12 75 75 83 14 82 69 76 70 77 75 83 69 76 76 84 75 83 70 77 71 78 76 84 70 77 20 20 76 84 71 78 72 79 34 36 35 37 77 85 34 36 72 79 73 80 77 85 72 79 78 86 77 85 73 80 74 81 78 86 73 80 75 83 16 87 14 82 79 88 16 87 75 83 76 84 79 88 75 83 20 20 79 88 76 84 77 85 33 35 34 36 80 89 33 35 77 85 78 86 80 89 77 85 18 90 79 88 20 20 16 87 79 88 18 90 33 35 80 89 32 34</p>
                </polylist>
            </mesh>
        </geometry>
    </library_geometries>
    <library_controllers>
        <controller id="controller0">
            <skin source="#mesh0">
                <bind_shape_matrix>1 0 0 0 0 1 0 0 0 0 1 0 0 0 0 1</bind_shape_matrix>
                <source id="joints0">
                    <Name_array id="JointArr0" count="10">jointnode-1 jointnode0 jointnode1 jointnode2 jointnode3 jointnode4 jointnode5 jointnode6 jointnode7 jointnode8</Name_array>
                    <technique_common>
                        <accessor source="#JointArr0" count="10">
                            <param name="JOINT" type="Name" />
                        </accessor>
                    </technique_common>
                </source>
                <source id="matrices0">
                    <float_array id="MatArr0" count="160">1 0 0 0 0 1 0 0 0 0 1 0 0 0 0 1 0.00004793836256600237 0 -0.9999999988509567 0 0 1 0 0 0.9999999988509567 0 0.00004793836256600237 0 0 0 0 1 0.00004793836256600237 0 -0.9999999988509567 0 0 1 0 0 0.9999999988509567 0 0.00004793836256600237 0 0 0 0 1 0.00004793836256600237 0 -0.9999999988509567 -22.970430374145508 0 1 0 0 0.9999999988509567 0 0.00004793836256600237 0 0 0 0 1 0.00004793836256600237 0 -0.9999999988509567 -45.940860748291016 0 1 0 0 0.9999999988509567 0 0.00004793836256600237 0 0 0 0 1 0.00004793836256600237 0 -0.9999999988509567 -68.91129112243652 0 1 0 0 0.9999999988509567 0 0.00004793836256600237 0 0 0 0 1 0.00004793836256600237 0 -0.9999999988509567 -91.88172149658203 0 1 0 0 0.9999999988509567 0 0.00004793836256600237 0 0 0 0 1 0.00004793836256600237 0 -0.9999999988509567 -114.85215187072754 0 1 0 0 0.9999999988509567 0 0.00004793836256600237 0 0 0 0 1 0.00004793836256600237 0 -0.9999999988509567 -137.82258224487305 0 1 0 0 0.9999999988509567 0 0.00004793836256600237 0 0 0 0 1 0.00004793836256600237 0 -0.9999999988509567 -160.79301261901855 0 1 0 0 0.9999999988509567 0 0.00004793836256600237 0 0 0 0 1</float_array>
                    <technique_common>
                        <accessor source="#MatArr0" count="10" stride="16">
                            <param type="float4x4" />
                        </accessor>
                    </technique_common>
                </source>
                <source id="weights0">
                    <float_array id="WeightArr0" count="1">1</float_array>
                    <technique_common>
                        <accessor source="#WeightArr0" count="1">
                            <param type="float" />
                        </accessor>
                    </technique_common>
                </source>
                <joints>
                    <input semantic="JOINT" source="#joints0" />
                    <input semantic="INV_BIND_MATRIX" source="#matrices0" />
                </joints>
                <vertex_weights count="81">
                    <input semantic="JOINT" offset="0" source="#joints0" />
                    <input semantic="WEIGHT" offset="1" source="#weights0" />
                    <vcount>1 1 1 1 1 1 1 1 1 1 1 1 1 1 1 1 1 1 1 1 1 1 1 1 1 1 1 1 1 1 1 1 1 1 1 1 1 1 1 1 1 1 1 1 1 1 1 1 1 1 1 1 1 1 1 1 1 1 1 1 1 1 1 1 1 1 1 1 1 1 1 1 1 1 1 1 1 1 1 1 1</vcount>
                    <v>1 0 1 0 2 0 2 0 3 0 3 0 4 0 4 0 4 0 4 0 5 0 5 0 6 0 6 0 7 0 7 0 8 0 8 0 9 0 9 0 9 0 9 0 9 0 8 0 8 0 7 0 7 0 6 0 6 0 5 0 5 0 4 0 1 0 2 0 3 0 4 0 4 0 5 0 6 0 7 0 8 0 7 0 6 0 5 0 4 0 4 0 6 0 5 0 4 0 3 0 3 0 5 0 4 0 3 0 3 0 2 0 4 0 3 0 3 0 2 0 1 0 6 0 7 0 8 0 9 0 4 0 3 0 2 0 1 0 7 0 8 0 9 0 3 0 2 0 1 0 8 0 9 0 2 0 1 0 9 0 1 0</v>
                </vertex_weights>
            </skin>
        </controller>
    </library_controllers>
    <library_visual_scenes>
        <visual_scene id="VisualSceneNode">
            <node id="node0" name="m0" type="NODE">
                <instance_controller url="#controller0">
                    <skeleton>#jointnode-1</skeleton>
                    <bind_material>
                        <technique_common>
                            <instance_material symbol="Material1" target="#mat0">
                                <bind_vertex_input semantic="UVSET0" input_semantic="TEXCOORD" input_set="0"></bind_vertex_input>
                            </instance_material>
                        </technique_common>
                    </bind_material>
                </instance_controller>
            </node>
            <node id="jointnode-1" name="root" sid="jointnode-1" type="JOINT">
                <node id="jointnode0" name="HairA0" sid="jointnode0" type="JOINT">
                    <rotate>0 1 0 89.99725333414716</rotate>
                    <node id="jointnode1" name="HairA1" sid="jointnode1" type="JOINT">
                        <node id="jointnode2" name="HairA2" sid="jointnode2" type="JOINT">
                            <translate>22.970430374145508 0 0</translate>
                            <node id="jointnode3" name="HairA3" sid="jointnode3" type="JOINT">
                                <translate>22.970430374145508 0 0</translate>
                                <node id="jointnode4" name="HairA4" sid="jointnode4" type="JOINT">
                                    <translate>22.970430374145508 0 0</translate>
                                    <node id="jointnode5" name="HairA5" sid="jointnode5" type="JOINT">
                                        <translate>22.970430374145508 0 0</translate>
                                        <node id="jointnode6" name="HairA6" sid="jointnode6" type="JOINT">
                                            <translate>22.970430374145508 0 0</translate>
                                            <node id="jointnode7" name="HairA7" sid="jointnode7" type="JOINT">
                                                <translate>22.970430374145508 0 0</translate>
                                                <node id="jointnode8" name="HairA8" sid="jointnode8" type="JOINT">
                                                    <translate>22.970430374145508 0 0</translate>
                                                </node>
                                            </node>
                                        </node>
                                    </node>
                                </node>
                            </node>
                        </node>
                    </node>
                </node>
            </node>
        </visual_scene>
    </library_visual_scenes>
    <scene>
        <instance_visual_scene url="#VisualSceneNode"></instance_visual_scene>
    </scene>
</COLLADA>
