# Blender v2.79 (sub 0) OBJ File: ''
# www.blender.org
mtllib face 13.mtl
o n0b0_n0b0.011
v 0.466016 1.200391 0.000000
v 3.298438 1.922266 -2.500781
v 3.298438 1.922266 -2.500781
v 4.045703 -0.587891 0.000000
v 4.680860 1.801563 -2.143750
v 4.680860 1.801563 -2.143750
v 4.478125 -0.705469 0.000000
v 4.478125 -0.705469 0.000000
v 5.677734 1.646094 -1.323047
v 5.677734 1.646094 -1.323047
v 5.174610 -0.278516 0.000000
v 6.142188 1.573438 0.000000
v 6.142188 1.573438 0.000000
v 6.487891 0.853906 0.000000
v 5.677734 1.646094 1.323047
v 5.677734 1.646094 1.323047
v 6.056641 0.636719 0.000000
v 6.056641 0.636719 0.000000
v 4.680860 1.801563 2.143750
v 4.680860 1.801563 2.143750
v 6.787891 0.939063 0.000000
v 3.298438 1.922266 2.500781
v 3.298438 1.922266 2.500781
v 6.856250 1.180469 0.000000
v 6.856250 1.180469 0.000000
v 2.596484 1.919531 2.626953
v 5.560547 0.664844 0.000000
v 6.133203 2.150000 0.000000
v 2.480469 0.056250 -1.897266
v 5.678906 2.282422 -1.382031
v 5.678906 2.282422 -1.382031
v 3.221484 -0.007031 -1.472266
v 4.712891 2.576172 -2.244922
v 4.712891 2.576172 -2.244922
v 1.506250 0.423828 -2.112109
v 2.717578 3.098047 -2.744531
v 1.006641 0.696094 -1.982813
v 3.426563 2.940234 -2.608594
v 3.426563 2.940234 -2.608594
v 3.427344 0.021875 -2.102344
v 2.534766 1.979297 -2.724219
v 3.776562 0.928125 -2.873047
v 3.254688 1.860547 -2.588672
v 3.254688 1.860547 -2.588672
v 3.195703 1.083594 -2.863672
v 4.597266 1.672266 -2.224609
v 4.597266 1.672266 -2.224609
v 4.560547 0.569531 -1.255859
v 5.611719 1.574219 -1.382031
v 5.611719 1.574219 -1.382031
v 1.839063 0.829688 -3.097266
v 6.088672 1.495313 0.000000
v 2.433203 0.928906 -3.057812
v 5.710156 1.439844 0.000000
v 6.403125 1.021094 -1.308203
v 5.288281 1.509766 -1.144922
v 5.288281 1.509766 -1.144922
v 6.139062 0.926953 -1.230469
v 4.377344 1.660156 -1.901172
v 4.377344 1.660156 -1.901172
v 5.734766 0.667969 -1.158203
v 5.734766 0.667969 -1.158203
v 3.176953 1.858594 -2.236719
v 3.176953 1.858594 -2.236719
v 5.059375 0.001172 -1.169141
v 5.059375 0.001172 -1.169141
v 2.535156 1.964844 -2.334766
v 5.148438 -0.192578 -0.587891
v 5.516407 1.471875 -1.323047
v 5.516407 1.471875 -1.323047
v 4.421094 -0.364844 -1.234375
v 4.421094 -0.364844 -1.234375
v 5.980078 1.395313 0.000000
v 4.469532 -0.619531 -0.560156
v 4.469532 -0.619531 -0.560156
v 5.611719 1.574219 1.382031
v 5.611719 1.574219 1.382031
v 4.514844 0.321875 -1.970703
v 5.678906 2.282422 1.382812
v 5.678906 2.282422 1.382812
v 5.012891 0.808203 -2.020703
v 4.597266 1.672266 2.224609
v 4.597266 1.672266 2.224609
v 0.655859 1.053125 -0.931250
v 0.655859 1.053125 -0.931250
v 4.712891 2.576172 2.244922
v 4.712891 2.576172 2.244922
v 3.373828 0.519141 -2.528125
v 2.534766 1.979297 2.724219
v 2.960156 0.797266 -2.839844
v 2.717578 3.098047 2.744531
v 2.741406 0.337891 -2.657031
v 3.426563 2.940234 2.608594
v 3.426563 2.940234 2.608594
v 2.576172 0.147266 -2.329688
v 3.254688 1.860547 2.588672
v 3.254688 1.860547 2.588672
v 1.358203 0.655469 -2.607422
v 5.288281 1.509766 1.144922
v 5.288281 1.509766 1.144922
v 3.684375 0.865625 -2.622266
v 4.377344 1.660156 1.901172
v 4.377344 1.660156 1.901172
v 2.994531 1.364453 -3.020703
v 2.994531 1.364453 -3.020703
v 2.994531 1.364453 -3.020703
v 2.994531 1.364453 -3.020703
v 2.994531 1.364453 -3.020703
v 2.994531 1.364453 -3.020703
v 3.176953 1.858594 2.236719
v 3.176953 1.858594 2.236719
v 3.841406 1.084766 -2.866016
v 3.841406 1.084766 -2.866016
v 2.535156 1.964844 2.334766
v 5.417188 0.992578 -1.994531
v 5.516407 1.471875 1.323047
v 5.516407 1.471875 1.323047
v 5.583203 1.095312 -2.081641
v 4.482031 -1.785156 0.000000
v 5.631250 1.303516 -2.144531
v 5.631250 1.303516 -2.144531
v 4.075781 -1.212109 0.000000
v 6.469141 1.256250 -1.323047
v 6.469141 1.256250 -1.323047
v 4.350391 -1.323828 0.000000
v 3.051172 1.409375 -2.854687
v 3.921484 -2.321484 0.000000
v 0.516797 3.176563 0.000000
v 3.156250 -0.679688 -1.876953
v 1.328906 4.122266 0.000000
v 3.626953 -0.107422 -1.538281
v 6.391016 1.661328 0.000000
v 3.142578 -0.570312 -2.025000
v 5.635938 2.364844 0.000000
v 3.496094 -0.014844 -1.689844
v 6.530859 1.708203 0.000000
v 6.530859 1.708203 0.000000
v 3.221484 -0.007031 -1.472266
v 4.366797 4.340625 0.000000
v 2.956641 -0.447266 -2.083203
v 5.486719 3.598828 -0.001563
v 2.777344 -0.432031 -1.946875
v 6.054688 2.760937 0.000000
v 2.782422 -1.543359 -1.927734
v 2.196484 4.629297 0.000000
v 3.101953 -1.804688 -1.652344
v 3.267188 4.764453 0.000000
v 3.064063 -0.681250 -1.757812
v 1.160547 1.405859 -3.132031
v 1.160547 1.405859 -3.132031
v 3.408203 -1.632031 -1.446875
v 1.767187 1.296875 -3.269531
v 1.767187 1.296875 -3.269531
v 2.794922 -1.551953 -2.106641
v 1.395313 2.408594 -3.233594
v 1.872266 -2.528906 -2.118750
v 0.533984 1.112500 -1.945312
v 0.533984 1.112500 -1.945312
v 2.060156 -2.851172 -1.738672
v 0.630859 3.175391 -1.751172
v 4.170312 -2.033984 -1.226953
v 1.408984 4.008594 -1.550391
v 3.936719 -2.467578 -1.039062
v 2.408203 4.497266 -1.482422
v 4.417188 -1.863281 -0.683594
v 1.589063 3.773047 -2.397656
v 3.492578 -2.510547 -0.731641
v 2.060156 2.284375 -1.643359
v 2.060156 2.284375 -1.643359
v 3.507422 -0.119922 -1.294141
v 4.935156 2.512110 -1.256250
v 3.974219 -1.278125 -0.562891
v 3.742188 2.635156 -2.809375
v 2.583984 -2.734766 -1.398828
v 3.728125 2.302734 -2.651172
v 3.761328 -1.414062 -1.071094
v 4.743750 2.109375 -2.202734
v 2.492969 -0.830078 -2.167969
v 3.289844 2.186328 -2.825391
v 2.241797 -1.384766 -2.290625
v 2.788281 1.279688 -3.087109
v 2.788281 1.279688 -3.087109
v 2.628516 -0.859375 -2.297656
v 3.235156 2.225000 -3.021875
v 3.235156 2.225000 -3.021875
v 3.235156 2.225000 -3.021875
v 2.353125 -1.460938 -2.417969
v 3.789062 2.358203 -2.834375
v 3.789062 2.358203 -2.834375
v 2.878906 -1.008594 -2.204688
v 4.824609 2.150781 -2.367188
v 4.824609 2.150781 -2.367188
v 2.700781 -1.591406 -2.329688
v 2.598438 3.023438 -3.097656
v 2.078125 -2.075000 -2.327734
v 3.457813 3.358203 -2.699610
v 2.413281 -2.436719 -2.319141
v 4.585547 3.769141 -1.991016
v 2.408984 -2.878516 -2.084375
v 4.783985 3.176563 -2.165234
v 2.775391 -2.034766 -2.108984
v 4.265234 4.260156 -1.142187
v 2.721484 -1.972656 -1.883984
v 3.254688 4.632031 -1.339063
v 2.778516 -2.942578 -1.882031
v 0.746875 1.182813 -2.594922
v 0.746875 1.182813 -2.594922
v 3.241797 -2.835938 -1.641797
v 3.676563 2.880469 -2.679688
v 3.039062 -2.549219 -2.110938
v 4.900391 2.701563 -2.197266
v 3.390234 -2.406641 -1.913672
v 6.279687 2.261328 0.000000
v 4.044531 -1.561328 -1.219141
v 2.480078 0.115625 1.897266
v 4.294922 -1.397266 -0.660547
v 3.221484 -0.007031 1.472266
v 2.094531 -1.826563 -2.282031
v 1.506250 0.436328 2.112109
v 3.256250 -1.920703 -1.950781
v 1.006641 0.696094 1.982813
v 3.659375 -1.745703 -1.633594
v 0.655859 1.053125 0.931250
v 0.655859 1.053125 0.931250
v 4.341406 -2.162500 0.000000
v 3.608984 -0.003125 2.008594
v 4.253516 -2.253125 -0.578906
v 3.946484 1.079687 2.922656
v 3.564844 -2.672266 -1.371094
v 3.411719 0.992578 2.850391
v 3.781250 -2.245703 -1.633984
v 4.569922 0.578906 1.263281
v 3.993750 -2.305078 0.000000
v 2.060156 2.284375 1.643359
v 2.060156 2.284375 1.643359
v 3.948437 -2.381250 -0.477734
v 1.182031 1.424219 3.174219
v 1.182031 1.424219 3.174219
v 3.637110 -2.486328 -0.783984
v 2.007812 0.748828 3.158594
v 3.199610 -2.631641 -1.107813
v 1.948438 1.283984 3.337109
v 1.948438 1.283984 3.337109
v 3.835547 -2.403516 -0.427734
v 2.750391 0.808203 3.080469
v 3.167578 -2.614063 -1.026563
v 6.125000 0.917578 1.242188
v 3.156250 -0.679688 1.876953
v 6.389844 1.009375 1.321094
v 3.626953 -0.107422 1.538281
v 5.723047 0.664062 1.166406
v 5.723047 0.664062 1.166406
v 3.142578 -0.570312 2.025000
v 5.148438 -0.192578 0.587891
v 3.496094 -0.014844 1.689844
v 5.059375 0.001172 1.169141
v 5.059375 0.001172 1.169141
v 3.221484 -0.007031 1.472266
v 4.469532 -0.619531 0.560156
v 4.469532 -0.619531 0.560156
v 2.956641 -0.447266 2.083203
v 4.421094 -0.364844 1.234375
v 4.421094 -0.364844 1.234375
v 2.777344 -0.432031 1.946875
v 5.021094 0.821875 2.025391
v 2.782422 -1.543359 1.927734
v 4.581250 0.458594 2.064063
v 3.101953 -1.804688 1.652344
v 0.533984 1.112500 1.945703
v 0.533984 1.112500 1.945703
v 3.064063 -0.681250 1.757812
v 2.942188 0.266406 2.655078
v 3.408203 -1.632031 1.446875
v 3.537891 0.612891 2.597266
v 2.794922 -1.551953 2.106641
v 3.180469 0.719922 2.833203
v 1.872266 -2.528906 2.118750
v 2.748828 0.123828 2.334766
v 2.060156 -2.851172 1.738672
v 0.746875 1.178125 2.594531
v 0.746875 1.178125 2.594531
v 4.170312 -2.033984 1.226953
v 1.387109 0.711328 2.716016
v 3.936719 -2.467578 1.039062
v 3.894922 0.938281 2.701563
v 4.417188 -1.863281 0.683594
v 4.010938 1.236719 2.902735
v 4.010938 1.236719 2.902735
v 3.492578 -2.510547 0.731641
v 3.198828 1.354688 3.032422
v 3.198828 1.354688 3.032422
v 3.198828 1.354688 3.032422
v 3.198828 1.354688 3.032422
v 3.198828 1.354688 3.032422
v 3.198828 1.354688 3.032422
v 3.507422 -0.119922 1.294141
v 5.606250 1.170313 2.092578
v 3.974219 -1.278125 0.562891
v 5.442969 1.051172 2.016406
v 2.583984 -2.734766 1.398828
v 5.646094 1.386328 2.137500
v 5.646094 1.386328 2.137500
v 3.761328 -1.414062 1.071094
v 6.457813 1.243750 1.335156
v 6.457813 1.243750 1.335156
v 2.492969 -0.830078 2.167969
v 2.999609 1.321094 3.121094
v 2.999609 1.321094 3.121094
v 2.241797 -1.384766 2.290625
v 3.129688 2.261328 3.011328
v 3.129688 2.261328 3.011328
v 2.628516 -0.859375 2.297656
v 3.191016 2.220703 2.817969
v 2.353125 -1.460938 2.417969
v 3.236719 1.400781 2.860938
v 2.878906 -1.008594 2.204688
v 1.362109 2.514844 3.215625
v 2.700781 -1.591406 2.329688
v 0.652344 3.120703 1.680469
v 2.078125 -2.075000 2.327734
v 1.408984 4.008594 1.550000
v 2.413281 -2.436719 2.319141
v 1.606641 3.787500 2.401172
v 2.408984 -2.878516 2.084375
v 2.408203 4.497266 1.482422
v 2.775391 -2.034766 2.108984
v 4.937500 2.508203 1.256250
v 2.721484 -1.972656 1.883984
v 4.788672 2.801953 2.213672
v 2.778516 -2.942578 1.882031
v 3.616406 2.827734 2.789844
v 3.241797 -2.835938 1.641797
v 3.447656 3.065625 2.642578
v 3.039062 -2.549219 2.110938
v 3.624609 2.515625 2.576953
v 3.390234 -2.406641 1.913672
v 4.495313 2.298828 2.225781
v 4.044531 -1.561328 1.219141
v 4.674219 2.341797 2.380469
v 4.674219 2.341797 2.380469
v 4.294922 -1.397266 0.660547
v 3.678125 2.587109 2.755469
v 3.678125 2.587109 2.755469
v 2.094531 -1.826563 2.282031
v 2.452344 3.010547 3.076172
v 3.256250 -1.920703 1.950781
v 3.361328 3.487109 2.655469
v 3.659375 -1.745703 1.633594
v 4.586328 3.768359 1.986328
v 4.253516 -2.253125 0.578906
v 4.783594 3.173828 2.162109
v 3.564844 -2.672266 1.371094
v 4.265234 4.260156 1.142187
v 3.781250 -2.245703 1.633984
v 3.254688 4.632422 1.339063
v 3.948437 -2.381250 0.477734
v 3.880859 -0.279687 -0.939063
v 3.637110 -2.486328 0.783984
v 3.880859 -0.279687 0.939063
v 3.199610 -2.631641 1.107813
v 1.015234 2.945703 -2.725781
v 3.835547 -2.403516 0.427734
v 0.933203 2.946484 2.680078
v 3.167578 -2.614063 1.026563
v 2.149219 3.410156 -2.977344
v 3.168750 4.119922 -2.325391
v 2.075391 3.449219 2.913281
v 3.168360 4.119922 2.321875
v 5.233594 3.676172 1.028125
v 5.732031 2.875000 1.130859
v 5.971485 2.305859 1.080859
v 6.194141 1.781250 1.231250
v 6.194141 1.781250 1.231250
v 6.069922 1.748047 1.168359
v 5.232812 3.676563 -1.031250
v 5.731641 2.875000 -1.130859
v 5.930860 2.340235 -1.056641
v 6.190625 1.844922 -1.224219
v 6.190625 1.844922 -1.224219
v 6.069922 1.800391 -1.164062
v 4.971875 2.460547 -2.343750
v 6.233203 2.191016 -1.149219
v 6.642188 2.062500 0.000000
v 6.266016 2.157031 1.207813
v 4.792578 2.657422 2.389063
v 3.335156 0.653516 -1.502734
v 3.335156 0.653516 1.502734
v 4.632812 1.114844 -2.664062
v 4.632812 1.114844 -2.664062
v 4.573828 0.935156 -2.637110
v 4.706641 1.435938 2.715625
v 4.706641 1.435938 2.715625
v 4.659766 1.249609 2.706250
v 2.451172 0.981641 -1.621094
v 2.451172 0.981641 1.621094
v 5.394922 1.913281 -1.789062
v 5.498047 1.982031 -1.909766
v 5.498047 1.982031 -1.909766
v 5.601562 2.329688 -1.858203
v 5.457813 2.464062 -1.646875
v 5.390625 1.917578 1.781641
v 5.490234 1.996094 1.896875
v 5.490234 1.996094 1.896875
v 5.586328 2.358203 1.882422
v 5.457422 2.477734 1.639063
v 2.957813 2.403906 3.084766
v 3.120312 2.385937 -3.100781
v 3.082422 1.795313 2.851172
v 3.043360 1.785938 3.039062
v 3.043360 1.785938 3.039062
v 2.972266 1.789453 -2.850391
v 2.925391 1.780469 -3.036719
v 2.925391 1.780469 -3.036719
v 2.746094 1.833594 -3.132031
v 1.933203 2.139063 -3.298047
v 2.867578 1.840234 3.141797
v 2.021875 2.183203 3.341016
v 2.560156 1.242188 3.201953
v 2.560156 1.242188 3.201953
v 2.469141 1.991406 3.199219
v 2.677734 2.682812 3.059375
v 2.232422 1.288672 -3.144141
v 2.232422 1.288672 -3.144141
v 2.345313 1.986328 -3.171484
v 2.880859 2.646484 -3.085547
v 6.740625 1.217188 -0.662500
v 6.740625 1.217188 -0.662500
v 6.676172 0.983984 -0.649219
v 6.394531 0.891016 -0.606250
v 6.383594 0.875781 0.619531
v 6.665625 0.966406 0.663672
v 6.732812 1.198828 0.676172
v 6.732812 1.198828 0.676172
v 6.198438 2.258594 -0.491797
v 6.539062 2.103516 -0.540234
v 6.467969 1.761328 -0.614844
v 6.467969 1.761328 -0.614844
v 6.331641 1.725000 -0.598047
v 6.326953 1.674219 0.598047
v 6.465625 1.700000 0.617188
v 6.465625 1.700000 0.617188
v 6.563282 2.095313 0.592188
v 6.233203 2.247656 0.482031
v 3.725000 1.111328 -2.634766
v 4.599609 1.143359 -2.376563
v 5.366797 1.314844 -1.948438
v 6.058203 1.272266 -1.324219
v 6.447266 1.203516 -0.635938
v 6.544531 1.176172 0.000000
v 6.438672 1.188281 0.647656
v 5.991797 1.250000 1.333203
v 5.338281 1.342969 1.913281
v 4.663281 1.411328 2.381250
v 3.880469 1.250391 2.676563
v 4.394922 0.933594 2.358984
v 4.280469 0.771484 -2.374609
v 2.553516 0.406250 2.906641
v 2.219531 0.307031 2.567578
v 2.072266 0.364063 -2.467969
v 2.255469 0.595703 -2.879297
v 3.433985 3.027735 -1.515234
v 3.433985 3.027735 1.515234
v 6.040625 0.780078 0.000000
v 6.040625 0.780078 0.000000
v 5.550781 0.839844 1.382031
v 5.550781 0.839844 1.382031
v 4.554297 0.887500 2.204297
v 4.554297 0.887500 2.204297
v 2.537891 0.931641 2.703906
v 3.276562 0.900781 2.568359
v 3.276562 0.900781 2.568359
v 5.550781 0.839844 -1.382031
v 5.550781 0.839844 -1.382031
v 4.554297 0.887500 -2.204297
v 4.554297 0.887500 -2.204297
v 2.537891 0.931641 -2.703906
v 3.276562 0.900781 -2.568359
v 3.276562 0.900781 -2.568359
v 2.580859 1.821875 -2.724219
v 3.302344 1.821875 -2.588672
v 3.302344 1.821875 -2.588672
v 4.721485 1.695312 -2.224609
v 4.721485 1.695312 -2.224609
v 5.745703 1.535547 -1.382031
v 5.745703 1.535547 -1.382031
v 6.224219 1.460938 0.000000
v 6.224219 1.460938 0.000000
v 5.745703 1.535547 1.382031
v 5.745703 1.535547 1.382031
v 4.721485 1.695312 2.224609
v 4.721485 1.695312 2.224609
v 3.302344 1.821875 2.588672
v 3.302344 1.821875 2.588672
v 2.580859 1.821875 2.724219
v 2.618359 1.916016 2.334766
v 3.262110 1.927734 2.236719
v 3.262110 1.927734 2.236719
v 4.535156 1.824219 1.901172
v 4.535156 1.824219 1.901172
v 5.448828 1.681641 1.144922
v 5.448828 1.681641 1.144922
v 5.880859 1.615234 0.000000
v 5.880859 1.615234 0.000000
v 5.448828 1.681641 -1.144922
v 5.448828 1.681641 -1.144922
v 4.535156 1.824219 -1.901172
v 4.535156 1.824219 -1.901172
v 3.262110 1.927734 -2.236719
v 3.262110 1.927734 -2.236719
v 2.618359 1.916016 -2.334766
v 2.596484 1.919531 -2.626953
vt 0.392151 0.475342
vt 0.337524 0.494995
vt 0.393738 0.497559
vt 0.321838 0.478455
vt 0.372192 0.461792
vt 0.315613 0.461792
vt 0.313171 0.440002
vt 0.254150 0.447876
vt 0.311768 0.426392
vt 0.254150 0.427002
vt 0.312500 0.411804
vt 0.254150 0.408264
vt 0.310425 0.392029
vt 0.254150 0.389648
vt 0.317139 0.377441
vt 0.254150 0.374939
vt 0.288757 0.360657
vt 0.254150 0.359436
vt 0.254150 0.350037
vt 0.288757 0.360657
vt 0.290222 0.351318
vt 0.323303 0.361938
vt 0.326233 0.352539
vt 0.376404 0.364502
vt 0.384583 0.355957
vt 0.439636 0.370789
vt 0.966370 0.589783
vt 0.960144 0.596008
vt 0.991821 0.590759
vt 0.935120 0.587708
vt 0.949219 0.579895
vt 0.924194 0.563354
vt 0.941406 0.555420
vt 0.899231 0.546814
vt 0.903870 0.539795
vt 0.832031 0.527405
vt 0.835144 0.518982
vt 0.796936 0.513733
vt 0.841370 0.510620
vt 0.800110 0.506470
vt 0.803223 0.500183
vt 0.758789 0.496033
vt 0.759094 0.520508
vt 0.758789 0.508545
vt 0.758789 0.502258
vt 0.800110 0.506470
vt 0.803223 0.500183
vt 0.841370 0.510620
vt 0.847656 0.504395
vt 0.916382 0.535645
vt 0.929504 0.532227
vt 0.941406 0.555420
vt 0.954224 0.552673
vt 0.966370 0.575195
vt 0.978882 0.573120
vt 0.992798 0.588928
vt 0.498352 0.451172
vt 0.487915 0.462036
vt 0.497925 0.465820
vt 0.483398 0.448120
vt 0.498352 0.437134
vt 0.479004 0.435486
vt 0.457764 0.408691
vt 0.463989 0.437134
vt 0.424988 0.418030
vt 0.456238 0.440979
vt 0.419006 0.444092
vt 0.434631 0.461792
vt 0.440613 0.488892
vt 0.966370 0.589783
vt 0.992126 0.589722
vt 0.949219 0.579895
vt 0.935120 0.587708
vt 0.924194 0.563354
vt 0.891418 0.558533
vt 0.899231 0.546814
vt 0.832031 0.527405
vt 0.903870 0.539795
vt 0.835144 0.518982
vt 0.796936 0.513733
vt 0.040955 0.203796
vt 0.070190 0.222595
vt 0.079285 0.210083
vt 0.036621 0.216003
vt 0.007019 0.202698
vt 0.007019 0.213379
vt 0.040955 0.203796
vt 0.036682 0.216003
vt 0.070129 0.221191
vt 0.071167 0.260498
vt 0.104492 0.232849
vt 0.121338 0.241943
vt 0.134644 0.233826
vt 0.150574 0.243896
vt 0.372192 0.429504
vt 0.365601 0.407654
vt 0.384338 0.397217
vt 0.367859 0.372253
vt 0.323303 0.361938
vt 0.326233 0.352539
vt 0.290222 0.351318
vt 0.291870 0.339844
vt 0.254150 0.338623
vt 0.293640 0.496460
vt 0.254150 0.481201
vt 0.254150 0.464539
vt 0.321838 0.478455
vt 0.315613 0.461792
vt 0.372192 0.461792
vt 0.313171 0.440002
vt 0.372192 0.429504
vt 0.311768 0.426392
vt 0.312500 0.411804
vt 0.662476 0.870850
vt 0.729248 0.879211
vt 0.662476 0.829224
vt 0.657532 0.912537
vt 0.591431 0.862549
vt 0.587463 0.904175
vt 0.506226 0.854187
vt 0.506226 0.896179
vt 0.587463 0.904175
vt 0.585571 0.920288
vt 0.654541 0.933533
vt 0.651978 0.946228
vt 0.718384 0.961365
vt 0.881226 0.887512
vt 0.862488 0.875000
vt 0.856201 0.837524
vt 0.799988 0.862549
vt 0.802612 0.888123
vt 0.756226 0.850037
vt 0.729248 0.879211
vt 0.662476 0.829224
vt 0.662476 0.870850
vt 0.593750 0.820862
vt 0.591431 0.862549
vt 0.470337 0.405579
vt 0.426514 0.376404
vt 0.481018 0.402954
vt 0.412476 0.382629
vt 0.457764 0.408691
vt 0.424988 0.418030
vt 0.463867 0.436890
vt 0.456238 0.440979
vt 0.462708 0.451416
vt 0.434631 0.461792
vt 0.469177 0.461792
vt 0.440613 0.488892
vt 0.812500 0.758362
vt 0.799988 0.762512
vt 0.716980 0.710449
vt 0.868713 0.837524
vt 0.912476 0.837524
vt 0.947083 0.916687
vt 0.977051 0.894836
vt 1.000000 0.950012
vt 0.993713 0.875000
vt 0.498352 0.437134
vt 0.478699 0.434937
vt 0.483398 0.448120
vt 0.471558 0.447937
vt 0.487915 0.462036
vt 0.477539 0.459412
vt 0.392151 0.475342
vt 0.419006 0.444092
vt 0.365601 0.407654
vt 0.384338 0.397217
vt 0.317139 0.377441
vt 0.367859 0.372253
vt 0.856201 0.837524
vt 0.812500 0.758362
vt 0.799988 0.762512
vt 0.868713 0.837524
vt 0.881226 0.887512
vt 0.912476 0.837524
vt 0.947083 0.916687
vt 0.977051 0.894836
vt 1.000000 0.950012
vt 0.993713 0.875000
vt 0.862488 0.929199
vt 0.806580 0.930298
vt 0.724609 0.921448
vt 0.657532 0.912537
vt 0.891418 0.589783
vt 0.872620 0.608521
vt 0.844543 0.593933
vt 0.910156 0.612732
vt 0.935120 0.604370
vt 0.941406 0.613770
vt 0.972656 0.610596
vt 0.947632 0.623108
vt 0.985168 0.621033
vt 0.960144 0.633545
vt 0.994080 0.602295
vt 0.993225 0.591431
vt 0.972656 0.610596
vt 0.935120 0.604370
vt 0.941406 0.613770
vt 0.910156 0.612732
vt 0.916382 0.623108
vt 0.872620 0.608521
vt 0.878906 0.629395
vt 0.862488 0.929199
vt 0.931213 0.966675
vt 0.888245 0.975220
vt 0.962463 1.000000
vt 0.814331 0.970642
vt 0.856201 1.000000
vt 0.718384 0.961365
vt 0.254150 0.491577
vt 0.293640 0.496460
vt 0.337524 0.494995
vt 0.393738 0.497559
vt 0.162598 0.279419
vt 0.162720 0.256836
vt 0.150940 0.264038
vt 0.173706 0.273865
vt 0.157532 0.271667
vt 0.167480 0.265625
vt 0.151794 0.263550
vt 0.162109 0.255981
vt 0.990662 0.611633
vt 0.985168 0.621033
vt 0.947632 0.623108
vt 0.960144 0.633545
vt 0.922668 0.633545
vt 0.928894 0.646057
vt 0.872620 0.647461
vt 0.716980 0.710449
vt 0.731201 0.700012
vt 0.831238 0.750000
vt 0.743713 0.691711
vt 0.849976 0.737549
vt 0.756226 0.683350
vt 0.868713 0.725037
vt 0.469177 0.461792
vt 0.462708 0.451416
vt 0.477539 0.459412
vt 0.471680 0.448059
vt 0.960144 0.596008
vt 0.833984 0.561584
vt 0.834106 0.546509
vt 0.504822 0.185913
vt 0.623291 0.219299
vt 0.504822 0.220215
vt 0.623291 0.185913
vt 0.504822 0.178894
vt 0.623291 0.178894
vt 0.504822 0.168457
vt 0.623291 0.168457
vt 0.623291 0.178894
vt 0.561401 0.168457
vt 0.623291 0.168457
vt 0.561401 0.178894
vt 0.623291 0.185913
vt 0.561401 0.185913
vt 0.623291 0.220215
vt 0.561401 0.214417
vt 0.937500 0.770874
vt 0.849976 0.737549
vt 0.868713 0.725037
vt 0.913818 0.779480
vt 0.956238 0.837524
vt 0.877930 0.793335
vt 0.503723 0.171204
vt 0.623291 0.168457
vt 0.503723 0.168457
vt 0.623291 0.171204
vt 0.623291 0.172302
vt 0.503723 0.172302
vt 0.623291 0.251770
vt 0.503723 0.247925
vt 0.731201 0.700012
vt 0.831238 0.750000
vt 0.743713 0.691711
vt 0.756226 0.683350
vt 0.806580 0.930298
vt 0.802612 0.888123
vt 0.756226 0.850037
vt 0.329529 0.341125
vt 0.376404 0.364502
vt 0.412476 0.382629
vt 0.006653 0.213501
vt 0.040710 0.203857
vt 0.006653 0.202637
vt 0.035828 0.215637
vt 0.006653 0.238953
vt 0.070312 0.221069
vt 0.069519 0.259521
vt 0.102234 0.234192
vt 0.937500 0.770874
vt 0.913818 0.779480
vt 0.877930 0.793335
vt 0.956238 0.837524
vt 0.931213 0.966675
vt 0.888245 0.975220
vt 0.814331 0.970642
vt 0.962463 1.000000
vt 0.856201 1.000000
vt 0.077454 0.280640
vt 0.119385 0.242676
vt 0.071167 0.260498
vt 0.138611 0.252075
vt 0.151794 0.263550
vt 0.150574 0.243896
vt 0.162109 0.255981
vt 0.275391 0.180908
vt 0.356812 0.256897
vt 0.449585 0.202881
vt 0.276733 0.256897
vt 0.356812 0.256897
vt 0.278564 0.319885
vt 0.357422 0.320007
vt 0.891418 0.589783
vt 0.891418 0.558533
vt 0.833984 0.561584
vt 0.834106 0.546509
vt 0.504822 0.185913
vt 0.623901 0.231384
vt 0.504822 0.227539
vt 0.623291 0.185913
vt 0.504822 0.178894
vt 0.623291 0.178894
vt 0.623291 0.168457
vt 0.623291 0.172302
vt 0.503723 0.223816
vt 0.623291 0.247925
vt 0.503723 0.172302
vt 0.623291 0.171204
vt 0.503723 0.168457
vt 0.623291 0.168457
vt 0.584045 0.929199
vt 0.506226 0.910522
vt 0.506226 0.920166
vt 0.584045 0.929199
vt 0.581909 0.937988
vt 0.007019 0.223633
vt 0.102783 0.234009
vt 0.118103 0.223999
vt 0.439636 0.370789
vt 0.470337 0.405579
vt 0.481018 0.402954
vt 0.426514 0.376404
vt 0.384583 0.355957
vt 0.069519 0.259521
vt 0.121399 0.242371
vt 0.079102 0.287170
vt 0.102234 0.234192
vt 0.070312 0.221069
vt 0.117920 0.223938
vt 0.079529 0.209229
vt 0.504822 0.185913
vt 0.623901 0.227539
vt 0.504700 0.231384
vt 0.623291 0.185913
vt 0.504822 0.178894
vt 0.623291 0.178894
vt 0.623291 0.168457
vt 0.035828 0.215637
vt 0.040710 0.203857
vt 0.872620 0.647461
vt 0.875977 0.662720
vt 0.847412 0.663269
vt 0.928894 0.646057
vt 0.922668 0.633545
vt 0.654541 0.933533
vt 0.724609 0.921448
vt 0.721069 0.948486
vt 0.504822 0.185913
vt 0.623291 0.219299
vt 0.504822 0.227539
vt 0.623291 0.185913
vt 0.504822 0.178894
vt 0.623291 0.178894
vt 0.623291 0.168457
vt 0.504822 0.185913
vt 0.623291 0.220215
vt 0.504822 0.219299
vt 0.623291 0.185913
vt 0.504822 0.178894
vt 0.623291 0.178894
vt 0.623291 0.168457
vt 0.079529 0.287292
vt 0.157532 0.271667
vt 0.083801 0.300720
vt 0.162598 0.279419
vt 0.878906 0.629395
vt 0.916382 0.623108
vt 0.847656 0.504395
vt 0.916382 0.535645
vt 0.791077 0.559631
vt 0.810120 0.579346
vt 0.760620 0.568970
vt 0.760437 0.559082
vt 0.791077 0.559631
vt 0.623291 0.172302
vt 0.503723 0.217529
vt 0.623291 0.223816
vt 0.503723 0.172302
vt 0.623291 0.168457
vt 0.503723 0.168457
vt 0.150940 0.264038
vt 0.084351 0.300415
vt 0.162720 0.256836
vt 0.173706 0.273865
vt 0.990662 0.611633
vt 0.994080 0.602295
vt 0.993225 0.591431
vt 0.585571 0.920288
vt 0.651978 0.946228
vt 0.310425 0.392029
vt 0.503723 0.172302
vt 0.623291 0.223816
vt 0.503723 0.217529
vt 0.623291 0.172302
vt 0.503723 0.168457
vt 0.623291 0.168457
vt 0.721069 0.948486
vt 0.121399 0.242371
vt 0.079102 0.287170
vt 0.117920 0.223938
vt 0.079529 0.209229
vt 0.077454 0.280640
vt 0.140564 0.251160
vt 0.623291 0.185913
vt 0.504822 0.178894
vt 0.623291 0.178894
vt 0.504822 0.185913
vt 0.623901 0.227539
vt 0.504822 0.219299
vt 0.134644 0.233826
vt 0.291870 0.339844
vt 0.135254 0.232727
vt 0.561401 0.172302
vt 0.623291 0.172302
vt 0.561401 0.168457
vt 0.623291 0.217529
vt 0.561401 0.211731
vt 0.135254 0.232727
vt 0.844543 0.593933
vt 0.454163 0.272156
vt 0.454590 0.328064
vt 0.357422 0.320007
vt 0.966370 0.575195
vt 0.992126 0.589722
vt 0.981201 0.837524
vt 0.506226 0.932434
vt 0.581909 0.937988
vt 0.503723 0.172302
vt 0.623291 0.247925
vt 0.503723 0.223816
vt 0.623291 0.172302
vt 0.623291 0.171204
vt 0.503723 0.247925
vt 0.503723 0.172302
vt 0.593750 0.820862
vt 0.449585 0.202881
vt 0.454163 0.272156
vt 0.079285 0.210083
vt 0.118103 0.223999
vt 0.810120 0.579346
vt 0.497925 0.465820
vt 0.498352 0.451172
vt 0.504822 0.168457
vt 0.561401 0.178894
vt 0.504822 0.178894
vt 0.561401 0.168457
vt 0.454590 0.328064
vt 0.862488 0.875000
vt 0.799988 0.862549
vt 0.497925 0.436768
vt 0.981201 0.837524
vt 0.506226 0.816711
vt 0.503723 0.171204
vt 0.503723 0.168457
vt 0.503723 0.168457
vt 0.623291 0.168457
vt 0.623291 0.168457
vt 0.504822 0.168457
vt 0.504822 0.185913
vt 0.561401 0.185913
vt 0.504822 0.220215
vt 0.561401 0.214417
vt 0.991821 0.590759
vt 0.084351 0.300415
vt 0.623291 0.172302
vt 0.561401 0.172302
vt 0.561401 0.168457
vt 0.623291 0.217529
vt 0.649292 0.954956
vt 0.978882 0.573120
vt 0.992798 0.588928
vt 0.954224 0.552673
vt 0.875977 0.662720
vt 0.847412 0.663269
vt 0.649292 0.954956
vt 0.929504 0.532227
vt 0.167480 0.265625
vt 0.329529 0.341125
vt 0.079651 0.287537
vt 0.083801 0.300720
vt 0.623291 0.168457
vt 0.623291 0.168457
vt 0.718079 0.971802
vt 0.718079 0.971802
vt 0.504822 0.168457
vt 0.504822 0.168457
vt 0.561401 0.211731
vt 0.504822 0.168457
vt 0.504822 0.168457
vn -0.7469 0.3890 0.5393
vn -0.9931 0.0674 0.0958
vn -0.9049 0.0751 0.4190
vn -0.9101 0.3715 0.1835
vn -0.4276 0.7392 0.5204
vn -0.5926 0.7769 0.2128
vn -0.2363 0.9254 0.2964
vn -0.3203 0.9473 -0.0000
vn 0.1424 0.9484 0.2832
vn 0.1210 0.9926 -0.0001
vn 0.4257 0.8752 0.2297
vn 0.4539 0.8910 0.0000
vn 0.6847 0.6851 0.2485
vn 0.7257 0.6880 -0.0002
vn 0.8114 0.4195 0.4070
vn 0.8675 0.4974 -0.0072
vn 0.6667 0.7341 0.1291
vn 0.7234 0.6902 -0.0167
vn 0.9352 0.3541 -0.0042
vn 0.6770 0.7229 -0.1383
vn 0.8587 0.4634 -0.2186
vn 0.6854 0.6554 -0.3171
vn 0.7425 0.5206 -0.4216
vn 0.6590 0.4470 -0.6049
vn 0.6371 -0.0569 -0.7687
vn 0.4678 -0.1365 -0.8732
vn 0.0954 -0.5013 -0.8600
vn 0.3083 -0.4032 -0.8616
vn 0.2812 -0.3070 -0.9092
vn 0.2925 -0.5235 -0.8002
vn 0.1083 -0.7524 -0.6496
vn 0.2303 -0.7342 -0.6387
vn 0.3067 -0.6379 -0.7064
vn 0.4341 -0.7291 -0.5290
vn 0.3658 -0.8332 -0.4147
vn 0.4753 -0.7741 -0.4181
vn 0.3548 -0.8856 -0.2998
vn 0.3601 -0.9207 -0.1507
vn 0.6103 -0.6420 -0.4640
vn 0.7011 -0.6706 -0.2422
vn 0.9196 -0.2710 -0.2843
vn 0.9620 -0.2728 -0.0022
vn 0.4346 -0.9006 -0.0054
vn 0.3570 -0.9340 -0.0073
vn 0.7252 -0.6885 -0.0037
vn 0.6911 -0.6825 0.2376
vn 0.9161 -0.2789 0.2879
vn 0.5999 -0.6477 0.4696
vn 0.7851 -0.2636 0.5604
vn 0.4871 -0.5377 0.6881
vn 0.5805 -0.2619 0.7710
vn 0.3742 -0.4637 0.8030
vn 0.4344 -0.1467 0.8887
vn 0.2164 -0.4907 0.8440
vn 0.2221 0.0324 0.9745
vn 0.1655 0.0569 0.9846
vn 0.4963 0.0461 0.8669
vn 0.3034 0.0715 0.9502
vn 0.3858 0.1250 0.9141
vn 0.3003 0.0389 0.9530
vn 0.4220 0.1076 0.9002
vn 0.2728 0.1740 0.9462
vn 0.3168 0.2474 0.9156
vn 0.2635 0.1836 0.9470
vn 0.3028 0.3316 0.8935
vn 0.1676 0.2968 0.9401
vn -0.1138 0.5619 0.8193
vn -0.4053 0.2432 0.8812
vn -0.5728 0.0385 0.8188
vn 0.1859 -0.4540 0.8714
vn -0.0428 -0.4687 0.8823
vn 0.2875 -0.7438 0.6034
vn 0.3482 -0.5453 0.7624
vn 0.3296 -0.6358 0.6979
vn 0.4100 -0.5612 0.7189
vn 0.4310 -0.6511 0.6247
vn 0.4710 -0.7703 0.4298
vn 0.3585 -0.7674 0.5315
vn 0.3399 -0.8870 0.3126
vn 0.3533 -0.9245 0.1428
vn -0.0235 0.9980 -0.0582
vn -0.1739 0.9512 -0.2547
vn 0.0114 0.9959 -0.0898
vn -0.2009 0.9705 -0.1330
vn -0.0164 0.9997 0.0168
vn -0.2250 0.9742 0.0138
vn -0.0243 0.9972 0.0705
vn -0.2116 0.9666 0.1444
vn -0.1603 0.9697 0.1844
vn -0.2561 0.8795 0.4011
vn -0.2069 0.9659 0.1552
vn -0.1602 0.9776 0.1365
vn -0.0649 0.9915 -0.1130
vn 0.1590 0.9855 -0.0595
vn 0.1361 0.7472 0.6505
vn 0.5047 0.6329 0.5871
vn 0.5684 0.2749 0.7754
vn 0.6618 0.6244 0.4149
vn 0.6594 0.6974 0.2805
vn 0.7745 0.4424 0.4520
vn 0.8836 0.4154 0.2162
vn 0.9382 -0.2057 0.2781
vn 0.9579 -0.2870 0.0056
vn -0.9989 0.0177 0.0421
vn -0.9413 0.3372 0.0113
vn -0.6354 0.7721 0.0052
vn -0.8978 0.3808 -0.2211
vn -0.5690 0.7945 -0.2120
vn -0.4220 0.7375 -0.5272
vn -0.2372 0.9246 -0.2979
vn 0.1368 0.7493 -0.6479
vn 0.1423 0.9486 -0.2825
vn 0.4254 0.8755 -0.2289
vn 0.5680 0.5910 -0.5727
vn 0.3869 0.5654 -0.7285
vn 0.2001 0.8765 -0.4379
vn 0.8485 -0.1699 -0.5011
vn 0.6887 0.6598 -0.3005
vn 0.9626 -0.0787 -0.2592
vn 0.7341 0.6791 0.0000
vn 0.9996 -0.0263 0.0000
vn 0.9626 -0.0787 0.2592
vn 0.7153 -0.6921 0.0965
vn 0.5686 -0.8193 0.0733
vn 0.2289 -0.9624 -0.1461
vn 0.0952 -0.9537 -0.2851
vn 0.6381 0.2024 0.7428
vn 0.5947 0.8001 0.0783
vn 0.9618 -0.2415 -0.1289
vn -0.1645 0.8954 0.4137
vn 0.2528 0.5579 0.7904
vn -0.0248 0.8679 0.4960
vn 0.3869 0.5654 0.7285
vn 0.2001 0.8765 0.4379
vn 0.5680 0.5910 0.5727
vn 0.2876 0.9246 0.2495
vn 0.6887 0.6598 0.3005
vn 0.2390 0.3670 -0.8990
vn 0.5586 0.2325 -0.7961
vn 0.3334 0.1212 -0.9349
vn 0.5840 0.3798 -0.7174
vn 0.3554 0.2790 -0.8921
vn 0.3254 0.3526 -0.8774
vn 0.2388 0.1581 -0.9581
vn 0.1660 0.2953 -0.9408
vn 0.0699 0.0360 -0.9969
vn -0.3948 0.1972 -0.8973
vn 0.0192 -0.0574 -0.9981
vn -0.5918 0.0329 -0.8054
vn 0.8513 -0.5245 -0.0086
vn 0.6527 -0.5712 -0.4976
vn 0.6373 -0.7105 -0.2984
vn 0.9681 -0.1744 0.1797
vn 0.5901 -0.0870 0.8026
vn 0.0637 -0.2537 0.9651
vn -0.4924 -0.0045 0.8703
vn -0.4033 -0.4874 0.7744
vn -0.6803 0.1798 0.7105
vn 0.4651 0.1112 -0.8782
vn 0.3172 0.0794 -0.9450
vn 0.2110 -0.0578 -0.9757
vn 0.1952 -0.0568 -0.9791
vn 0.2019 -0.0576 -0.9777
vn 0.1869 -0.0686 -0.9800
vn -0.7078 0.3756 -0.5983
vn -0.1039 0.5441 -0.8326
vn 0.5059 0.6355 -0.5832
vn 0.5760 0.3000 -0.7603
vn 0.8218 0.3994 -0.4063
vn 0.6574 0.5952 -0.4621
vn 0.9618 -0.2415 0.1289
vn 0.8513 -0.5245 0.0086
vn 0.6527 -0.5712 0.4976
vn 0.9681 -0.1744 -0.1797
vn 0.6381 0.2024 -0.7428
vn 0.5901 -0.0870 -0.8026
vn 0.0637 -0.2537 -0.9651
vn -0.4924 -0.0045 -0.8703
vn -0.4033 -0.4874 -0.7744
vn -0.6803 0.1798 -0.7105
vn 0.4231 -0.2979 0.8557
vn 0.6071 -0.2605 0.7507
vn 0.6956 -0.2462 0.6749
vn 0.8485 -0.1699 0.5011
vn 0.0857 -0.8818 0.4638
vn -0.1970 -0.9714 0.1327
vn -0.1785 -0.9745 0.1361
vn -0.1116 -0.9571 0.2672
vn 0.1951 -0.7538 0.6275
vn 0.0301 -0.7230 0.6901
vn 0.2751 -0.3511 0.8950
vn -0.1657 -0.5713 0.8038
vn -0.0820 -0.3077 0.9479
vn -0.4475 -0.5194 0.7280
vn 0.2925 -0.2941 -0.9099
vn 0.4019 -0.3002 -0.8650
vn 0.1754 -0.3606 -0.9160
vn 0.0893 -0.6956 -0.7128
vn -0.0309 -0.6951 -0.7182
vn -0.1556 -0.9077 -0.3896
vn -0.2507 -0.8703 -0.4238
vn -0.1748 -0.9611 -0.2139
vn -0.3798 -0.8797 -0.2861
vn 0.4231 -0.2979 -0.8557
vn -0.0966 -0.8035 -0.5874
vn 0.1828 -0.9648 -0.1887
vn -0.2944 -0.9489 -0.1131
vn 0.3924 -0.9106 -0.1300
vn -0.0123 -0.9387 0.3446
vn 0.0952 -0.9537 0.2851
vn -0.9997 0.0257 0.0000
vn -0.9991 0.0126 -0.0398
vn -0.9916 0.0735 -0.1063
vn -0.9044 0.1070 -0.4131
vn 0.4647 -0.8846 0.0378
vn 0.1400 -0.9569 -0.2543
vn 0.0580 -0.9929 0.1040
vn 0.6077 -0.7385 -0.2921
vn 0.9563 -0.1913 0.2213
vn 0.9519 -0.1786 -0.2489
vn 0.7518 0.6565 0.0624
vn 0.7467 0.5323 -0.3988
vn 0.2061 -0.1181 -0.9714
vn -0.0850 -0.3251 -0.9418
vn -0.1498 -0.5863 -0.7961
vn -0.4423 -0.5376 -0.7179
vn -0.4515 -0.7629 -0.4627
vn -0.5932 -0.6673 -0.4504
vn -0.6220 -0.7578 -0.1969
vn 0.6373 -0.7105 0.2984
vn 0.8287 -0.5447 -0.1281
vn 0.6827 -0.0896 -0.7252
vn 0.4009 0.4164 -0.8160
vn 0.0136 0.5616 -0.8273
vn -0.3263 0.8283 -0.4554
vn -0.3633 0.7439 -0.5609
vn 0.0138 -0.0104 0.9998
vn 0.0742 0.1151 0.9906
vn 0.2099 0.0119 0.9776
vn 0.2613 0.0801 0.9619
vn 0.3798 -0.4153 0.8266
vn 0.0258 -0.8906 0.4541
vn 0.5156 -0.6193 0.5920
vn 0.2716 0.3211 -0.9073
vn 0.2528 -0.0585 -0.9657
vn 0.2736 -0.0288 -0.9614
vn 0.2620 0.2945 -0.9190
vn 0.1870 0.8857 -0.4248
vn 0.1949 0.8594 -0.4727
vn 0.0893 0.9959 -0.0117
vn 0.0910 0.9951 -0.0383
vn 0.0616 0.9154 -0.3977
vn -0.0080 0.9999 0.0048
vn -0.0147 0.9996 -0.0227
vn 0.0815 0.8914 -0.4459
vn 0.1686 0.3532 -0.9202
vn 0.1736 0.3193 -0.9316
vn 0.1815 -0.0292 -0.9829
vn 0.1791 -0.0311 -0.9833
vn -0.5121 0.5410 0.6671
vn 0.0136 0.5616 0.8273
vn -0.3633 0.7439 0.5609
vn -0.0985 0.3767 0.9211
vn -0.2114 0.1267 0.9691
vn 0.6417 -0.0617 0.7644
vn 0.3323 -0.9281 -0.1678
vn -0.1628 -0.9866 0.0001
vn -0.1638 -0.9865 0.0001
vn 0.3613 -0.9324 -0.0013
vn 0.9090 -0.4168 0.0016
vn 0.8554 -0.4109 0.3153
vn 0.9974 -0.0717 0.0046
vn 0.9436 -0.0898 0.3186
vn 0.8287 -0.5447 0.1281
vn 0.6827 -0.0896 0.7252
vn 0.4009 0.4164 0.8160
vn -0.3263 0.8283 0.4554
vn 0.6071 -0.2605 -0.7507
vn 0.2528 0.5579 -0.7904
vn -0.0248 0.8679 -0.4960
vn 0.8050 -0.1256 0.5799
vn 0.6620 0.4171 0.6227
vn 0.5329 0.4409 0.7222
vn -0.1837 -0.9819 -0.0463
vn 0.2396 -0.9551 -0.1742
vn 0.3175 -0.9471 -0.0472
vn -0.1772 -0.9821 -0.0636
vn -0.6049 -0.7961 -0.0152
vn -0.1512 -0.9867 -0.0602
vn -0.4640 -0.8058 0.3678
vn -0.2126 -0.9768 -0.0263
vn -0.5121 0.5410 -0.6671
vn -0.0985 0.3767 -0.9211
vn 0.6417 -0.0617 -0.7644
vn -0.2114 0.1267 -0.9691
vn -0.0966 -0.8035 0.5874
vn 0.1828 -0.9648 0.1887
vn 0.3924 -0.9106 0.1300
vn -0.2944 -0.9489 0.1131
vn -0.0123 -0.9387 -0.3446
vn 0.0450 0.8721 -0.4871
vn -0.1690 0.9509 -0.2592
vn -0.2413 0.8351 -0.4943
vn -0.0396 0.9807 -0.1911
vn 0.6023 0.7846 -0.1468
vn -0.0247 0.9976 0.0649
vn 0.6418 0.6931 0.3281
vn 0.7410 -0.6715 0.0007
vn 0.6120 -0.7551 -0.2351
vn 0.7129 -0.6538 -0.2537
vn 0.6229 -0.7823 0.0000
vn 0.6126 -0.7545 0.2355
vn 0.5260 -0.8505 0.0000
vn 0.5113 -0.8280 0.2303
vn 0.0822 -0.8694 -0.4872
vn 0.3935 -0.6151 -0.6832
vn 0.0328 -0.8938 -0.4472
vn 0.5189 -0.6115 -0.5972
vn 0.9356 0.1539 -0.3176
vn 0.9107 -0.2483 -0.3301
vn 0.9080 -0.2544 -0.3328
vn 0.9364 0.1486 -0.3177
vn 0.5538 0.8194 -0.1479
vn 0.5755 0.8024 -0.1579
vn 0.1574 0.9875 -0.0011
vn 0.5701 -0.3987 -0.7183
vn 0.6381 -0.0865 -0.7651
vn 0.6543 -0.0621 -0.7537
vn 0.3800 -0.6930 -0.6127
vn 0.1628 -0.9226 -0.3496
vn -0.1150 -0.9888 -0.0954
vn -0.1634 -0.9865 0.0006
vn 0.3270 -0.9437 -0.0497
vn 0.7592 -0.6508 0.0000
vn 0.3106 -0.9505 0.0000
vn 0.3270 -0.9437 0.0497
vn 0.2359 -0.9660 0.1056
vn -0.4040 0.9147 0.0047
vn -0.1686 0.9186 -0.3572
vn -0.0081 0.9861 -0.1659
vn 0.3731 -0.1590 0.9140
vn 0.2272 0.3766 0.8981
vn 0.3837 -0.0334 0.9228
vn 0.4605 0.3190 0.8283
vn 0.5809 -0.1333 0.8029
vn -0.4914 -0.8024 -0.3386
vn -0.2752 -0.9611 0.0194
vn 0.0184 -0.8994 -0.4366
vn -0.2495 -0.9614 0.1162
vn -0.2107 -0.9757 0.0601
vn 0.0482 -0.8589 0.5099
vn 0.1144 -0.9541 0.2768
vn 0.9366 0.1465 0.3184
vn 0.9097 -0.2521 0.3300
vn 0.9103 -0.2455 0.3333
vn 0.9361 0.1517 0.3174
vn 0.5747 0.8033 0.1561
vn 0.5522 0.8203 0.1488
vn 0.1541 0.9880 -0.0000
vn -0.2226 -0.9749 0.0093
vn 0.1785 -0.9777 0.1108
vn -0.6105 -0.7638 0.2095
vn -0.6616 -0.7406 0.1169
vn -0.6591 -0.7512 -0.0352
vn -0.5950 -0.6727 0.4398
vn -0.4704 -0.7357 0.4873
vn 0.5686 -0.8193 -0.0733
vn 0.6956 -0.2462 -0.6749
vn 0.4852 -0.8728 -0.0533
vn 0.6431 0.2397 0.7273
vn 0.6170 -0.1554 0.7714
vn 0.6218 -0.1742 0.7636
vn 0.6379 0.2535 0.7272
vn 0.4096 0.8476 0.3372
vn 0.3944 0.8630 0.3156
vn 0.1539 0.9881 -0.0002
vn 0.2726 0.3016 0.9136
vn 0.2546 -0.0451 0.9660
vn 0.2723 -0.0805 0.9588
vn 0.2621 0.3291 0.9072
vn 0.1949 0.8594 0.4727
vn 0.1870 0.8857 0.4248
vn 0.0893 0.9959 0.0117
vn 0.5844 0.5860 -0.5612
vn 0.9662 0.0868 -0.2426
vn 0.7842 0.1559 -0.6006
vn 0.7597 -0.6442 -0.0885
vn -0.4028 -0.8742 0.2709
vn -0.2634 -0.8998 0.3478
vn 0.7904 -0.2651 -0.5522
vn 0.4886 -0.6203 -0.6135
vn -0.3307 -0.9140 -0.2350
vn -0.2927 -0.9320 -0.2138
vn -0.3204 -0.9473 0.0000
vn -0.2624 -0.9649 0.0000
vn -0.3307 -0.9140 0.2350
vn 0.1237 -0.6223 -0.7729
vn 0.2550 -0.0569 -0.9652
vn 0.2573 -0.0546 -0.9648
vn 0.0777 -0.7076 -0.7023
vn -0.1149 -0.9883 -0.1004
vn -0.1523 -0.9875 -0.0391
vn 0.1787 -0.9800 -0.0870
vn 0.3808 -0.8152 -0.4363
vn 0.2950 -0.9073 0.2995
vn 0.8337 -0.4407 0.3327
vn 0.2036 -0.1801 0.9623
vn 0.3639 -0.2500 0.8972
vn 0.4294 -0.2817 0.8580
vn 0.7153 -0.6921 -0.0965
vn 0.2289 -0.9624 0.1461
vn 0.6849 0.6849 -0.2486
vn 0.0895 -0.7137 0.6947
vn 0.2550 -0.0560 0.9653
vn 0.2562 -0.0586 0.9648
vn 0.1114 -0.6230 0.7742
vn -0.1295 -0.9904 0.0486
vn -0.1280 -0.9840 0.1239
vn 0.4852 -0.8728 0.0533
vn -0.2427 -0.9680 0.0642
vn 0.0125 -0.8426 0.5383
vn 0.0987 -0.9077 -0.4078
vn 0.2026 -0.9359 -0.2880
vn 0.1017 0.8997 0.4246
vn 0.1386 0.9690 0.2046
vn 0.6391 0.2362 -0.7319
vn 0.3943 0.8631 -0.3156
vn 0.4096 0.8477 -0.3370
vn 0.6421 0.2488 -0.7251
vn 0.6152 -0.1633 -0.7713
vn 0.6251 -0.1486 -0.7662
vn -0.1675 0.9846 -0.0507
vn 0.9385 -0.1498 -0.3110
vn -0.1181 -0.9120 0.3927
vn 0.0301 -0.6678 -0.7437
vn 0.0157 -0.7065 -0.7075
vn -0.1563 -0.9870 -0.0375
vn 0.1778 -0.0467 -0.9829
vn 0.1780 -0.0469 -0.9829
vn -0.0595 -0.9601 -0.2733
vn -0.1876 -0.9765 -0.1061
vn 0.5851 -0.7382 -0.3357
vn 0.4920 -0.8014 -0.3400
vn 0.5113 -0.8280 -0.2303
vn 0.0625 -0.6515 -0.7560
vn -0.1652 -0.5688 -0.8057
vn -0.6064 0.3262 0.7252
vn 0.2214 -0.9752 0.0000
vn 0.2359 -0.9660 -0.1056
vn 0.3900 -0.6896 0.6102
vn 0.6386 -0.0754 0.7658
vn 0.6455 -0.0996 0.7572
vn 0.5653 -0.3913 0.7261
vn 0.1628 -0.9226 0.3496
vn 0.9417 -0.0824 -0.3262
vn 0.8525 -0.4150 -0.3179
vn 0.2876 0.9246 -0.2495
vn 0.7137 -0.6518 0.2563
vn 0.5865 -0.7371 0.3356
vn 0.0388 0.9986 0.0360
vn -0.0066 0.9979 -0.0640
vn -0.2923 -0.9282 0.2301
vn 0.3576 -0.0321 -0.9333
vn 0.4446 -0.0970 -0.8904
vn -0.0050 0.9999 0.0124
vn 0.0773 0.8902 0.4490
vn 0.0685 0.9135 0.4010
vn -0.0202 0.9997 -0.0135
vn 0.4920 -0.8014 0.3400
vn 0.5947 0.8001 -0.0783
vn -0.1645 0.8954 -0.4137
vn 0.3656 -0.2011 -0.9087
vn -0.6064 0.3262 -0.7252
vn 0.3768 0.9263 0.0000
vn 0.3300 -0.9286 0.1694
vn -0.1635 -0.9865 -0.0002
vn -0.1150 -0.9888 0.0954
vn -0.1634 -0.9865 -0.0006
vn 0.1538 0.9881 0.0004
vn 0.1540 0.9881 0.0002
vn 0.1686 0.3532 0.9202
vn 0.1736 0.3193 0.9316
vn 0.1815 -0.0292 0.9829
vn 0.1791 -0.0311 0.9833
vn 0.2797 -0.2948 0.9137
vn 0.3114 -0.8076 0.5007
vn 0.0157 -0.7065 0.7075
vn 0.0301 -0.6678 0.7437
vn -0.1563 -0.9870 0.0375
vn 0.1778 -0.0467 0.9829
vn 0.2065 -0.9684 -0.1397
vn 0.2159 -0.0456 -0.9753
vn 0.1711 -0.0266 -0.9849
vn 0.4044 -0.2554 -0.8782
vn -0.6616 -0.7403 -0.1193
vn -0.6590 -0.7512 0.0352
vn 0.2065 -0.9684 0.1397
vn 0.5749 -0.3518 -0.7387
vn 0.9701 0.1058 0.2183
vn 0.8073 0.0173 -0.5898
vn 0.6015 0.6095 0.5165
vn 0.8128 0.0976 0.5742
vn -0.1572 -0.9867 0.0402
vn -0.1572 -0.9867 -0.0402
vn 0.0733 -0.9684 -0.2384
vn 0.0733 -0.9684 0.2384
vn 0.1579 0.9874 0.0023
vn 0.1538 0.9881 -0.0005
vn 0.1780 -0.0469 0.9829
vn 0.0910 0.9951 0.0383
vn 0.1531 0.9882 -0.0004
usemtl m0
s 1
f 363/1/1 270/2/2 281/3/3
f 270/2/2 363/1/1 319/4/4
f 323/5/5 319/4/4 363/1/1
f 319/4/4 323/5/5 321/6/6
f 325/7/7 321/6/6 323/5/5
f 321/6/6 325/7/7 145/8/8
f 355/9/9 145/8/8 325/7/7
f 145/8/8 355/9/9 147/10/10
f 353/11/11 147/10/10 355/9/9
f 147/10/10 353/11/11 139/12/12
f 369/13/13 139/12/12 353/11/11
f 139/12/12 369/13/13 141/14/14
f 370/15/15 141/14/14 369/13/13
f 141/14/14 370/15/15 143/16/16
f 443/17/17 143/16/16 370/15/15
f 143/16/16 443/17/17 213/18/18
f 383/19/19 213/18/18 443/17/17
f 213/18/18 383/19/19 434/20/20
f 435/21/21 434/20/20 383/19/19
f 434/20/20 435/21/21 377/22/22
f 382/23/23 377/22/22 435/21/21
f 377/22/22 382/23/23 399/24/24
f 397/25/25 399/24/24 382/23/23
f 399/24/24 397/25/25 192/26/26
f 45/27/27 90/28/28 107/29/29
f 90/28/28 45/27/27 88/30/30
f 101/31/31 88/30/30 45/27/27
f 88/30/30 101/31/31 456/32/32
f 390/33/33 456/32/32 101/31/31
f 456/32/32 390/33/33 81/34/34
f 115/35/35 81/34/34 390/33/33
f 81/34/34 115/35/35 61/36/36
f 58/37/37 61/36/36 115/35/35
f 61/36/36 58/37/37 429/38/38
f 55/39/39 429/38/38 58/37/37
f 429/38/38 55/39/39 428/40/40
f 426/41/41 428/40/40 55/39/39
f 428/40/40 426/41/41 25/42/42
f 429/38/38 17/43/43 61/36/36
f 17/43/43 429/38/38 14/44/44
f 21/45/45 14/44/44 429/38/38
f 14/44/44 21/45/45 431/46/46
f 432/47/47 431/46/46 21/45/45
f 431/46/46 432/47/47 249/48/48
f 304/49/49 249/48/48 432/47/47
f 249/48/48 304/49/49 297/50/50
f 301/51/51 297/50/50 304/49/49
f 297/50/50 301/51/51 393/52/52
f 391/53/53 393/52/52 301/51/51
f 393/52/52 391/53/53 228/54/54
f 287/55/55 228/54/54 391/53/53
f 228/54/54 287/55/55 290/56/56
f 410/57/57 308/58/58 295/59/59
f 308/58/58 410/57/57 416/60/60
f 310/61/61 416/60/60 410/57/57
f 416/60/60 310/61/61 406/62/62
f 333/63/63 406/62/62 310/61/61
f 406/62/62 333/63/63 421/64/64
f 347/65/65 421/64/64 333/63/63
f 421/64/64 347/65/65 345/66/66
f 367/67/67 345/66/66 347/65/65
f 345/66/66 367/67/67 317/68/68
f 363/1/1 317/68/68 367/67/67
f 317/68/68 363/1/1 238/69/69
f 281/3/3 238/69/69 363/1/1
f 230/70/70 228/54/54 294/71/71
f 228/54/54 230/70/70 285/72/72
f 274/73/73 285/72/72 230/70/70
f 285/72/72 274/73/73 455/74/74
f 267/75/75 455/74/74 274/73/73
f 455/74/74 267/75/75 265/76/76
f 251/77/77 265/76/76 267/75/75
f 265/76/76 251/77/77 299/78/78
f 247/79/79 299/78/78 251/77/77
f 299/78/78 247/79/79 249/48/48
f 430/80/80 249/48/48 247/79/79
f 249/48/48 430/80/80 431/46/46
f 14/44/44 431/46/46 430/80/80
f 433/81/81 451/82/82 305/83/83
f 451/82/82 433/81/81 450/84/84
f 24/85/85 450/84/84 433/81/81
f 450/84/84 24/85/85 449/86/86
f 427/87/87 449/86/86 24/85/85
f 449/86/86 427/87/87 448/88/88
f 447/89/89 448/88/88 427/87/87
f 448/88/88 447/89/89 48/90/90
f 446/91/91 48/90/90 447/89/89
f 48/90/90 446/91/91 445/92/92
f 389/93/93 445/92/92 446/91/91
f 445/92/92 389/93/93 113/94/94
f 367/67/67 323/5/5 363/1/1
f 323/5/5 367/67/67 368/95/95
f 347/65/65 368/95/95 367/67/67
f 368/95/95 347/65/65 349/96/96
f 351/97/97 349/96/96 347/65/65
f 349/96/96 351/97/97 370/15/15
f 405/98/98 370/15/15 351/97/97
f 370/15/15 405/98/98 371/99/99
f 384/100/100 371/99/99 405/98/98
f 371/99/99 384/100/100 442/101/101
f 441/102/102 442/101/101 384/100/100
f 442/101/101 441/102/102 136/103/103
f 319/4/4 224/104/104 270/2/2
f 224/104/104 319/4/4 128/105/105
f 130/106/106 128/105/105 319/4/4
f 128/105/105 130/106/106 160/107/107
f 162/108/108 160/107/107 130/106/106
f 160/107/107 162/108/108 166/109/109
f 164/110/110 166/109/109 162/108/108
f 166/109/109 164/110/110 366/111/111
f 204/112/112 366/111/111 164/110/110
f 366/111/111 204/112/112 202/113/113
f 147/10/10 202/113/113 204/112/112
f 202/113/113 147/10/10 139/12/12
f 214/114/114 222/115/115 176/116/116
f 222/115/115 214/114/114 161/117/117
f 216/118/118 161/117/117 214/114/114
f 161/117/117 216/118/118 165/119/119
f 125/120/120 165/119/119 216/118/118
f 165/119/119 125/120/120 119/121/121
f 286/122/122 119/121/121 125/120/120
f 119/121/121 286/122/122 350/123/123
f 284/124/124 350/123/123 286/122/122
f 350/123/123 284/124/124 358/125/125
f 360/126/126 358/125/125 284/124/124
f 326/127/127 328/128/128 266/129/129
f 328/128/128 326/127/127 268/130/130
f 346/131/131 268/130/130 326/127/127
f 268/130/130 346/131/131 273/132/132
f 348/133/133 273/132/132 346/131/131
f 273/132/132 348/133/133 303/134/134
f 338/135/135 303/134/134 348/133/133
f 303/134/134 338/135/135 298/136/136
f 341/137/137 298/136/136 338/135/135
f 298/136/136 341/137/137 125/120/120
f 286/122/122 125/120/120 341/137/137
f 173/138/138 381/139/139 189/140/140
f 381/139/139 173/138/138 211/141/141
f 209/142/142 211/141/141 173/138/138
f 211/141/141 209/142/142 196/143/143
f 425/144/144 196/143/143 209/142/142
f 196/143/143 425/144/144 194/145/145
f 415/146/146 194/145/145 425/144/144
f 194/145/145 415/146/146 155/147/147
f 153/148/148 155/147/147 415/146/146
f 155/147/147 153/148/148 150/149/149
f 248/150/150 271/151/151 296/152/152
f 271/151/151 248/150/150 266/129/129
f 275/153/153 266/129/129 248/150/150
f 266/129/129 275/153/153 326/127/127
f 318/154/154 326/127/127 275/153/153
f 326/127/127 318/154/154 322/155/155
f 320/156/156 322/155/155 318/154/154
f 322/155/155 320/156/156 277/157/157
f 344/158/158 277/157/157 320/156/156
f 184/159/159 173/138/138 189/140/140
f 173/138/138 184/159/159 209/142/142
f 407/160/160 209/142/142 184/159/159
f 209/142/142 407/160/160 425/144/144
f 414/161/161 425/144/144 407/160/160
f 425/144/144 414/161/161 424/162/162
f 182/163/163 424/162/162 414/161/161
f 424/162/162 182/163/163 423/164/164
f 166/109/109 361/165/165 160/107/107
f 361/165/165 166/109/109 365/166/166
f 366/111/111 365/166/166 166/109/109
f 365/166/166 366/111/111 196/143/143
f 198/167/167 196/143/143 366/111/111
f 196/143/143 198/167/167 200/168/168
f 376/169/169 200/168/168 198/167/167
f 200/168/168 376/169/169 400/170/170
f 144/171/171 129/172/172 148/173/173
f 129/172/172 144/171/171 154/174/174
f 201/175/175 154/174/174 144/171/171
f 154/174/174 201/175/175 193/176/176
f 197/177/177 193/176/176 201/175/175
f 193/176/176 197/177/177 195/178/178
f 156/179/179 195/178/178 197/177/177
f 195/178/178 156/179/179 218/180/180
f 334/181/181 326/127/127 322/155/155
f 326/127/127 334/181/181 346/131/131
f 336/182/182 346/131/131 334/181/181
f 346/131/131 336/182/182 348/133/133
f 354/183/183 348/133/133 336/182/182
f 348/133/133 354/183/183 282/184/184
f 284/124/124 282/184/184 354/183/183
f 282/184/184 284/124/124 286/122/122
f 434/20/20 143/16/16 213/18/18
f 143/16/16 434/20/20 376/169/169
f 377/22/22 376/169/169 434/20/20
f 376/169/169 377/22/22 400/170/170
f 399/24/24 400/170/170 377/22/22
f 400/170/170 399/24/24 381/139/139
f 192/26/26 381/139/139 399/24/24
f 381/139/139 192/26/26 189/140/140
f 226/185/185 215/186/186 217/187/187
f 215/186/186 226/185/185 278/188/188
f 272/189/189 278/188/188 226/185/185
f 278/188/188 272/189/189 457/190/190
f 245/191/191 457/190/190 272/189/189
f 457/190/190 245/191/191 240/192/192
f 242/193/193 240/192/192 245/191/191
f 240/192/192 242/193/193 237/194/194
f 90/28/28 181/195/195 105/196/196
f 181/195/195 90/28/28 53/197/197
f 92/198/198 53/197/197 90/28/28
f 53/197/197 92/198/198 460/199/199
f 95/200/200 460/199/199 92/198/198
f 460/199/199 95/200/200 459/201/201
f 29/202/202 459/201/201 95/200/200
f 459/201/201 29/202/202 35/203/203
f 210/204/204 197/177/177 201/175/175
f 197/177/177 210/204/204 199/205/205
f 205/206/206 199/205/205 210/204/204
f 199/205/205 205/206/206 159/207/207
f 208/208/208 159/207/207 205/206/206
f 159/207/207 208/208/208 174/209/209
f 241/210/210 174/209/209 208/208/208
f 128/105/105 1/211/211 224/104/104
f 1/211/211 128/105/105 85/212/212
f 160/107/107 85/212/212 128/105/105
f 85/212/212 160/107/107 158/213/213
f 361/165/165 158/213/213 160/107/107
f 158/213/213 361/165/165 207/214/214
f 150/149/149 207/214/214 361/165/165
f 179/215/215 188/216/216 175/217/217
f 188/216/216 179/215/215 185/218/218
f 411/219/219 185/218/218 179/215/215
f 185/218/218 411/219/219 412/220/220
f 126/221/221 412/220/220 411/219/219
f 412/220/220 126/221/221 106/222/222
f 113/94/94 106/222/222 126/221/221
f 53/197/197 422/223/223 181/195/195
f 422/223/223 53/197/197 152/224/224
f 51/225/225 152/224/224 53/197/197
f 152/224/224 51/225/225 149/226/226
f 98/227/227 149/226/226 51/225/225
f 149/226/226 98/227/227 206/228/228
f 37/229/229 206/228/228 98/227/227
f 129/172/172 170/230/230 148/173/173
f 170/230/230 129/172/172 131/231/231
f 133/232/232 131/231/231 129/172/172
f 131/231/231 133/232/232 135/233/233
f 140/234/234 135/233/233 133/232/232
f 135/233/233 140/234/234 138/235/235
f 142/236/236 138/235/235 140/234/234
f 243/237/237 317/68/68 238/69/69
f 317/68/68 243/237/237 417/238/238
f 419/239/239 417/238/238 243/237/237
f 417/238/238 419/239/239 420/240/240
f 308/58/58 420/240/240 419/239/239
f 420/240/240 308/58/58 416/60/60
f 272/189/189 276/241/241 245/191/191
f 276/241/241 272/189/189 274/73/73
f 226/185/185 274/73/73 272/189/189
f 274/73/73 226/185/185 267/75/75
f 263/242/242 267/75/75 226/185/185
f 267/75/75 263/242/242 257/243/243
f 481/244/244 475/245/245 478/246/246
f 475/245/245 481/244/244 482/247/247
f 2/248/248 482/247/247 481/244/244
f 482/247/247 2/248/248 6/249/249
f 509/250/250 6/249/249 2/248/248
f 6/249/249 509/250/250 506/251/251
f 3/252/252 510/253/253 508/254/254
f 510/253/253 3/252/252 511/255/255
f 480/256/256 511/255/255 3/252/252
f 511/255/255 480/256/256 479/257/257
f 477/258/258 479/257/257 480/256/256
f 479/257/257 477/258/258 476/259/259
f 306/260/260 261/261/261 264/262/262
f 261/261/261 306/260/260 312/263/263
f 314/264/264 312/263/263 306/260/260
f 312/263/263 314/264/264 316/265/265
f 318/154/154 316/265/265 314/264/264
f 316/265/265 318/154/154 275/153/153
f 69/266/266 54/267/267 57/268/268
f 54/267/267 69/266/266 73/269/269
f 52/270/270 73/269/269 69/266/266
f 73/269/269 52/270/270 77/271/271
f 28/272/272 77/271/271 52/270/270
f 77/271/271 28/272/272 79/273/273
f 250/274/274 248/150/150 296/152/152
f 248/150/150 250/274/274 253/275/275
f 255/276/276 253/275/275 250/274/274
f 253/275/275 255/276/276 261/261/261
f 258/277/277 261/261/261 255/276/276
f 261/261/261 258/277/277 264/262/262
f 210/204/204 208/208/208 205/206/206
f 208/208/208 210/204/204 212/278/278
f 220/279/279 212/278/278 210/204/204
f 212/278/278 220/279/279 222/115/115
f 151/280/280 222/115/115 220/279/279
f 222/115/115 151/280/280 176/116/116
f 384/100/100 373/281/281 441/102/102
f 373/281/281 384/100/100 404/282/282
f 405/98/98 404/282/282 384/100/100
f 404/282/282 405/98/98 329/283/283
f 351/97/97 329/283/283 405/98/98
f 329/283/283 351/97/97 347/65/65
f 132/284/284 436/285/285 137/286/286
f 436/285/285 132/284/284 438/287/287
f 134/288/288 438/287/287 132/284/284
f 438/287/287 134/288/288 380/289/289
f 171/290/290 380/289/289 134/288/288
f 380/289/289 171/290/290 396/291/291
f 140/234/234 178/292/292 142/236/236
f 178/292/292 140/234/234 183/293/293
f 190/294/294 183/293/293 140/234/234
f 183/293/293 190/294/294 187/295/295
f 193/176/176 187/295/295 190/294/294
f 187/295/295 193/176/176 195/178/178
f 324/296/296 322/155/155 277/157/157
f 322/155/155 324/296/296 334/181/181
f 330/297/297 334/181/181 324/296/296
f 334/181/181 330/297/297 332/298/298
f 279/299/299 332/298/298 330/297/297
f 332/298/298 279/299/299 300/300/300
f 387/301/301 453/302/302 232/303/303
f 453/302/302 387/301/301 454/304/304
f 315/305/305 454/304/304 387/301/301
f 454/304/304 315/305/305 288/306/306
f 292/307/307 288/306/306 315/305/305
f 18/308/308 68/309/309 62/310/310
f 68/309/309 18/308/308 11/311/311
f 254/312/312 11/311/311 18/308/308
f 11/311/311 254/312/312 8/313/313
f 259/314/314 8/313/313 254/312/312
f 88/30/30 92/198/198 90/28/28
f 92/198/198 88/30/30 40/315/315
f 78/316/316 40/315/315 88/30/30
f 40/315/315 78/316/316 72/317/317
f 66/318/318 72/317/317 78/316/316
f 485/319/319 463/320/320 472/321/321
f 463/320/320 485/319/319 486/322/322
f 9/323/323 486/322/322 485/319/319
f 486/322/322 9/323/323 13/324/324
f 502/325/325 13/324/324 9/323/323
f 49/326/326 33/327/327 31/328/328
f 33/327/327 49/326/326 47/329/329
f 70/330/330 47/329/329 49/326/326
f 47/329/329 70/330/330 60/331/331
f 56/332/332 60/331/331 70/330/330
f 356/333/333 350/123/123 358/125/125
f 350/123/123 356/333/333 225/334/334
f 233/335/335 225/334/334 356/333/333
f 225/334/334 233/335/335 236/336/336
f 244/337/337 236/336/336 233/335/335
f 232/303/303 450/84/84 27/338/338
f 450/84/84 232/303/303 451/82/82
f 452/339/339 451/82/82 232/303/303
f 451/82/82 452/339/339 305/83/83
f 302/340/340 305/83/83 452/339/339
f 340/341/341 331/342/342 343/343/343
f 331/342/342 340/341/341 385/344/344
f 402/345/345 385/344/344 340/341/341
f 385/344/344 402/345/345 404/282/282
f 373/281/281 404/282/282 402/345/345
f 327/346/346 337/347/347 462/348/348
f 337/347/347 327/346/346 401/349/349
f 374/350/350 401/349/349 327/346/346
f 401/349/349 374/350/350 403/351/351
f 372/352/352 403/351/351 374/350/350
f 487/353/353 466/354/354 464/355/355
f 466/354/354 487/353/353 488/356/356
f 12/357/357 488/356/356 487/353/353
f 488/356/356 12/357/357 16/358/358
f 500/359/359 16/358/358 12/357/357
f 134/288/288 374/350/350 327/346/346
f 374/350/350 134/288/288 439/360/360
f 132/284/284 439/360/360 134/288/288
f 439/360/360 132/284/284 440/361/361
f 137/286/286 440/361/361 132/284/284
f 221/362/362 269/363/363 223/364/364
f 269/363/363 221/362/362 280/365/365
f 283/366/366 280/365/365 221/362/362
f 280/365/365 283/366/366 237/194/194
f 240/192/192 237/194/194 283/366/366
f 98/227/227 35/203/203 37/229/229
f 35/203/203 98/227/227 459/201/201
f 51/225/225 459/201/201 98/227/227
f 459/201/201 51/225/225 460/199/199
f 53/197/197 460/199/199 51/225/225
f 163/367/367 161/117/117 165/119/119
f 161/117/117 163/367/367 231/368/368
f 229/369/369 231/368/368 163/367/367
f 231/368/368 229/369/369 212/278/278
f 208/208/208 212/278/278 229/369/369
f 489/370/370 468/371/371 465/372/372
f 468/371/371 489/370/370 490/373/373
f 15/374/374 490/373/373 489/370/370
f 490/373/373 15/374/374 20/375/375
f 498/376/376 20/375/375 15/374/374
f 491/377/377 470/378/378 467/379/379
f 470/378/378 491/377/377 492/380/380
f 19/381/381 492/380/380 491/377/377
f 492/380/380 19/381/381 23/382/382
f 496/383/383 23/382/382 19/381/381
f 395/384/384 315/305/305 387/301/301
f 315/305/305 395/384/384 408/385/385
f 234/386/386 408/385/385 395/384/384
f 408/385/385 234/386/386 313/387/387
f 219/388/388 283/366/366 221/362/362
f 283/366/366 219/388/388 458/389/389
f 215/186/186 458/389/389 219/388/388
f 458/389/389 215/186/186 278/188/188
f 55/39/39 123/390/390 426/41/41
f 123/390/390 55/39/39 118/391/391
f 58/37/37 118/391/391 55/39/39
f 118/391/391 58/37/37 115/35/35
f 75/392/392 357/393/393 72/317/317
f 357/393/393 75/392/392 4/394/394
f 7/395/395 4/394/394 75/392/392
f 4/394/394 7/395/395 260/396/396
f 46/397/397 39/398/398 34/399/399
f 39/398/398 46/397/397 44/400/400
f 59/401/401 44/400/400 46/397/397
f 44/400/400 59/401/401 64/402/402
f 335/403/403 235/404/404 462/348/348
f 235/404/404 335/403/403 313/387/387
f 342/405/405 313/387/387 335/403/403
f 313/387/387 342/405/405 311/406/406
f 245/191/191 418/407/407 242/193/193
f 418/407/407 245/191/191 307/408/408
f 276/241/241 307/408/408 245/191/191
f 307/408/408 276/241/241 291/409/409
f 227/410/410 165/119/119 119/121/121
f 165/119/119 227/410/410 163/367/367
f 239/411/411 163/367/367 227/410/410
f 163/367/367 239/411/411 241/210/210
f 202/113/113 198/167/167 366/111/111
f 198/167/167 202/113/113 375/412/412
f 139/12/12 375/412/412 202/113/113
f 375/412/412 139/12/12 141/14/14
f 97/413/413 87/414/414 94/415/415
f 87/414/414 97/413/413 82/416/416
f 111/417/417 82/416/416 97/413/413
f 82/416/416 111/417/417 102/418/418
f 332/298/298 336/182/182 334/181/181
f 336/182/182 332/298/298 352/419/419
f 360/126/126 352/419/419 332/298/298
f 352/419/419 360/126/126 284/124/124
f 333/63/63 329/283/283 347/65/65
f 329/283/283 333/63/63 331/342/342
f 310/61/61 331/342/342 333/63/63
f 331/342/342 310/61/61 343/343/343
f 177/420/420 171/290/290 461/421/421
f 171/290/290 177/420/420 396/291/291
f 398/422/422 396/291/291 177/420/420
f 396/291/291 398/422/422 378/423/423
f 445/92/92 386/424/424 48/90/90
f 386/424/424 445/92/92 444/425/425
f 113/94/94 444/425/425 445/92/92
f 444/425/425 113/94/94 126/221/221
f 484/426/426 5/427/427 10/428/428
f 5/427/427 484/426/426 483/429/429
f 473/430/430 483/429/429 484/426/426
f 483/429/429 473/430/430 474/431/431
f 225/334/334 119/121/121 350/123/123
f 119/121/121 225/334/334 227/410/410
f 236/336/336 227/410/410 225/334/334
f 227/410/410 236/336/336 239/411/411
f 453/302/302 452/339/339 232/303/303
f 452/339/339 453/302/302 302/340/340
f 392/432/432 302/340/340 453/302/302
f 368/95/95 325/7/7 323/5/5
f 325/7/7 368/95/95 355/9/9
f 353/11/11 355/9/9 368/95/95
f 349/96/96 353/11/11 368/95/95
f 353/11/11 349/96/96 369/13/13
f 370/15/15 369/13/13 349/96/96
f 383/19/19 136/103/103 437/433/433
f 136/103/103 383/19/19 442/101/101
f 443/17/17 442/101/101 383/19/19
f 145/8/8 162/108/108 130/106/106
f 162/108/108 145/8/8 164/110/110
f 204/112/112 164/110/110 145/8/8
f 190/294/294 154/174/174 193/176/176
f 154/174/174 190/294/294 129/172/172
f 133/232/232 129/172/172 190/294/294
f 337/347/347 335/403/403 462/348/348
f 335/403/403 337/347/347 339/434/434
f 403/351/351 339/434/434 337/347/347
f 41/435/435 43/436/436 67/437/437
f 43/436/436 41/435/435 38/438/438
f 36/439/439 38/438/438 41/435/435
f 175/217/217 177/420/420 461/421/421
f 177/420/420 175/217/217 191/440/440
f 188/216/216 191/440/440 175/217/217
f 40/315/315 95/200/200 92/198/198
f 95/200/200 40/315/315 29/202/202
f 32/441/441 29/202/202 40/315/315
f 68/309/309 65/442/442 62/310/310
f 65/442/442 68/309/309 71/443/443
f 74/444/444 71/443/443 68/309/309
f 458/389/389 240/192/192 283/366/366
f 240/192/192 458/389/389 457/190/190
f 278/188/188 457/190/190 458/389/389
f 42/445/445 45/27/27 108/446/446
f 45/27/27 42/445/445 101/31/31
f 390/33/33 101/31/31 42/445/445
f 314/264/264 320/156/156 318/154/154
f 320/156/156 314/264/264 344/158/158
f 309/447/447 344/158/158 314/264/264
f 233/335/335 127/448/448 244/337/337
f 127/448/448 233/335/335 362/449/449
f 356/333/333 362/449/449 233/335/335
f 282/184/184 338/135/135 348/133/133
f 338/135/135 282/184/184 341/137/137
f 286/122/122 341/137/137 282/184/184
f 83/450/450 80/451/451 86/452/452
f 80/451/451 83/450/450 76/453/453
f 117/454/454 76/453/453 83/450/450
f 52/270/270 30/455/455 28/272/272
f 30/455/455 52/270/270 50/456/456
f 69/266/266 50/456/456 52/270/270
f 172/457/457 214/114/114 176/116/116
f 214/114/114 172/457/457 216/118/118
f 125/120/120 216/118/118 172/457/457
f 8/313/313 68/309/309 11/311/311
f 68/309/309 8/313/313 74/444/444
f 252/458/458 254/312/312 18/308/308
f 254/312/312 252/458/458 256/459/459
f 124/460/460 447/89/89 427/87/87
f 447/89/89 124/460/460 121/461/461
f 359/462/462 226/185/185 217/187/187
f 226/185/185 359/462/462 263/242/242
f 109/463/463 414/161/161 413/464/464
f 414/161/161 109/463/463 182/163/163
f 446/91/91 121/461/461 389/93/93
f 121/461/461 446/91/91 447/89/89
f 497/465/465 26/466/466 22/467/467
f 26/466/466 497/465/465 495/468/468
f 428/40/40 21/45/45 429/38/38
f 21/45/45 428/40/40 25/42/42
f 262/469/469 254/312/312 256/459/459
f 254/312/312 262/469/469 259/314/314
f 153/148/148 424/162/162 423/164/164
f 424/162/162 153/148/148 415/146/146
f 203/470/470 201/175/175 144/171/171
f 201/175/175 203/470/470 146/471/471
f 186/472/472 414/161/161 407/160/160
f 414/161/161 186/472/472 413/464/464
f 200/168/168 211/141/141 196/143/143
f 211/141/141 200/168/168 400/170/170
f 218/180/180 187/295/295 195/178/178
f 187/295/295 218/180/180 180/473/473
f 178/292/292 187/295/295 180/473/473
f 187/295/295 178/292/292 183/293/293
f 365/166/166 194/145/145 155/147/147
f 194/145/145 365/166/166 196/143/143
f 361/165/165 155/147/147 150/149/149
f 155/147/147 361/165/165 365/166/166
f 241/210/210 229/369/369 163/367/367
f 229/369/369 241/210/210 208/208/208
f 222/115/115 231/368/368 212/278/278
f 231/368/368 222/115/115 161/117/117
f 199/205/205 156/179/179 197/177/177
f 156/179/179 199/205/205 159/207/207
f 122/474/474 125/120/120 172/457/457
f 125/120/120 122/474/474 298/136/136
f 449/86/86 27/338/338 450/84/84
f 27/338/338 449/86/86 448/88/88
f 201/175/175 220/279/279 210/204/204
f 220/279/279 201/175/175 146/471/471
f 116/475/475 73/269/269 77/271/271
f 73/269/269 116/475/475 100/476/476
f 103/477/477 117/454/454 83/450/450
f 117/454/454 103/477/477 99/478/478
f 248/150/150 316/265/265 275/153/153
f 316/265/265 248/150/150 253/275/275
f 504/479/479 5/427/427 507/480/480
f 5/427/427 504/479/479 10/428/428
f 493/481/481 26/466/466 494/482/482
f 26/466/466 493/481/481 22/467/467
f 471/483/483 494/482/482 469/484/484
f 494/482/482 471/483/483 493/481/481
f 299/78/78 297/50/50 393/52/52
f 297/50/50 299/78/78 249/48/48
f 265/76/76 393/52/52 455/74/74
f 393/52/52 265/76/76 299/78/78
f 285/72/72 393/52/52 228/54/54
f 393/52/52 285/72/72 455/74/74
f 251/77/77 430/80/80 247/79/79
f 430/80/80 251/77/77 17/43/43
f 276/241/241 230/70/70 293/485/485
f 230/70/70 276/241/241 274/73/73
f 169/486/486 175/217/217 461/421/421
f 175/217/217 169/486/486 179/215/215
f 261/261/261 316/265/265 253/275/275
f 316/265/265 261/261/261 312/263/263
f 324/296/296 279/299/299 330/297/297
f 279/299/299 324/296/296 277/157/157
f 96/487/487 89/488/488 114/489/489
f 89/488/488 96/487/487 93/490/490
f 356/333/333 289/491/491 362/449/449
f 289/491/491 356/333/333 358/125/125
f 456/32/32 78/316/316 88/30/30
f 78/316/316 456/32/32 81/34/34
f 112/492/492 42/445/445 104/493/493
f 42/445/445 112/492/492 388/494/494
f 157/495/495 37/229/229 84/496/496
f 37/229/229 157/495/495 206/228/228
f 167/497/497 236/336/336 244/337/337
f 236/336/336 167/497/497 239/411/411
f 354/183/183 352/419/419 284/124/124
f 352/419/419 354/183/183 336/182/182
f 372/352/352 439/360/360 440/361/361
f 439/360/360 372/352/352 374/350/350
f 385/344/344 329/283/283 331/342/342
f 329/283/283 385/344/344 404/282/282
f 390/33/33 118/391/391 115/35/35
f 118/391/391 390/33/33 120/498/498
f 311/406/406 408/385/385 313/387/387
f 408/385/385 311/406/406 409/499/499
f 438/287/287 378/423/423 436/285/285
f 378/423/423 438/287/287 380/289/289
f 61/36/36 78/316/316 81/34/34
f 78/316/316 61/36/36 66/318/318
f 420/240/240 421/64/64 345/66/66
f 421/64/64 420/240/240 416/60/60
f 435/21/21 437/433/433 379/500/500
f 437/433/433 435/21/21 383/19/19
f 382/23/23 379/500/500 397/25/25
f 379/500/500 382/23/23 435/21/21
f 315/305/305 409/499/499 292/307/307
f 409/499/499 315/305/305 408/385/385
f 288/306/306 453/302/302 454/304/304
f 453/302/302 288/306/306 392/432/432
f 375/412/412 376/169/169 198/167/167
f 376/169/169 375/412/412 141/14/14
f 417/238/238 345/66/66 317/68/68
f 345/66/66 417/238/238 420/240/240
f 321/6/6 130/106/106 319/4/4
f 130/106/106 321/6/6 145/8/8
f 371/99/99 443/17/17 370/15/15
f 443/17/17 371/99/99 442/101/101
f 260/396/396 359/462/462 4/394/394
f 359/462/462 260/396/396 263/242/242
f 40/315/315 357/393/393 32/441/441
f 357/393/393 40/315/315 72/317/317
f 388/494/494 390/33/33 42/445/445
f 390/33/33 388/494/494 120/498/498
f 394/501/501 126/221/221 411/219/219
f 126/221/221 394/501/501 386/424/424
f 168/502/502 411/219/219 179/215/215
f 411/219/219 168/502/502 394/501/501
f 314/264/264 306/260/260 309/447/447
f 448/88/88 48/90/90 27/338/338
f 126/221/221 386/424/424 444/425/425
f 332/298/298 300/300/300 360/126/126
f 241/210/210 239/411/411 167/497/497
f 96/487/487 114/489/489 110/503/503
f 43/436/436 63/504/504 67/437/437
f 364/505/505 289/491/491 360/126/126
f 300/300/300 364/505/505 360/126/126
f 246/506/506 241/210/210 167/497/497
f 174/209/209 241/210/210 246/506/506
f 360/126/126 289/491/491 358/125/125
f 430/80/80 17/43/43 14/44/44
f 500/359/359 12/357/357 503/507/507
f 15/374/374 501/508/508 498/376/376
f 89/488/488 93/490/490 91/509/509
f 337/347/347 401/349/349 403/351/351
f 177/420/420 191/440/440 398/422/422
f 73/269/269 100/476/476 54/267/267
f 145/8/8 147/10/10 204/112/112
f 141/14/14 143/16/16 376/169/169
f 396/291/291 378/423/423 380/289/289
f 123/390/390 118/391/391 120/498/498
f 416/60/60 406/62/62 421/64/64
f 335/403/403 339/434/434 342/405/405
f 432/47/47 21/45/45 25/42/42
f 496/383/383 19/381/381 499/510/510
f 502/325/325 9/323/323 505/511/511
f 267/75/75 257/243/243 251/77/77
f 190/294/294 140/234/234 133/232/232
f 220/279/279 146/471/471 151/280/280
f 381/139/139 211/141/141 400/170/170
f 425/144/144 424/162/162 415/146/146
