<?xml version="1.0"?>
<COLLADA xmlns="http://www.collada.org/2005/11/COLLADASchema" version="1.4.1">
    <asset>
        <contributor>
            <authoring_tool>J3D Ripoff Exporter</authoring_tool>
        </contributor>
        <created>2024-08-02T13:56:48.737Z</created>
        <modified>2024-08-02T13:56:48.737Z</modified>
		<unit meter="0.01" name="centimeter" ></unit>
        <up_axis>Y_UP</up_axis>
    </asset>
    <library_images>
        <image id="tex0">
            <init_from>donkey_all.png</init_from>
        </image>
    </library_images>
    <library_effects>
        <effect id="effect0">
            <profile_COMMON>
                <newparam sid="surface0">
                    <surface type="2D">
                        <init_from>tex0</init_from>
                    </surface>
                </newparam>
                <newparam sid="sampler0">
                    <sampler2D>
                        <source>surface0</source>
                    </sampler2D>
                </newparam>
                <technique sid="COMMON">
                    <blinn>
                        <diffuse>
                            <texture texture="sampler0" texcoord="UVSET0"></texture>
                        </diffuse>
                    </blinn>
                </technique>
            </profile_COMMON>
        </effect>
    </library_effects>
    <library_materials>
        <material id="mat0" name="Dummy">
            <instance_effect url="#effect0"></instance_effect>
        </material>
    </library_materials>
    <library_geometries>
        <geometry id="mesh0">
            <mesh>
                <source id="points0">
                    <float_array id="pointarray0" count="1401">23.48828125 20.0703125 -14.88671875 23.078125 22.62890625 -10.22265625 21.4921875 19.08203125 0 23.78515625 26.765625 0 23.078125 22.62890625 10.22265625 25.19140625 25.83984375 12.09765625 23.48828125 20.0703125 14.88671875 26.65625 24.875 17.67578125 27.79296875 24.125 18.42578125 33.93359375 33.4453125 17.47265625 29.84765625 22.7734375 15.4921875 35.98828125 32.08984375 14.22265625 35.8984375 30.01171875 5.046875 41.4296875 40.34765625 9.14453125 42.76953125 43.140625 0 41.4765625 44.8984375 10.9453125 42.86328125 49.046875 0 38.3671875 44.21875 10.484375 39.58984375 48.1171875 0 31.33203125 35.16015625 11.08203125 29.41015625 34.28515625 0 30.3515625 33.66796875 -11.08203125 25.19140625 25.83984375 -12.09765625 26.65625 24.875 -17.67578125 27.79296875 24.125 -18.42578125 24.5390625 19.1875 -15.4921875 26.9375 18.35546875 -13.12109375 25.96875 17.16796875 -5.59375 30.15234375 21.01171875 -5.78515625 25.1015625 17.60546875 0 27.4609375 22.08984375 0 30.15234375 21.01171875 5.78515625 34.9609375 30.62890625 0 7.2421875 11.74609375 25.87890625 5.34375 11.10546875 19.43359375 5.20703125 18.8046875 27.37890625 1.375 18.6328125 17.47265625 4.453125 24.97265625 23.953125 1.49609375 25.1171875 15.484375 5.18359375 33.3828125 14.7734375 2.9140625 32.19140625 0 8.66796875 41.515625 13.39453125 7.5703125 42.30859375 0 15.80859375 48.44921875 11.4140625 15.62890625 49.765625 0 25.77734375 52.53515625 10.53125 28.28515625 54.15234375 0 37.28125 54.0234375 11.38671875 40.01171875 56.33203125 0 46.5234375 55.28125 5.265625 46.875 55.7421875 0 51.12109375 56.546875 0 46.51953125 55.28515625 -5.265625 50.39453125 55.875 -5.77734375 44.83984375 53.35546875 -11.7734375 48.35546875 53.7578125 -12.2890625 43.359375 48.8984375 -19.25 45.0703125 45.7109375 -19.3671875 39.8984375 40.8125 -24.1328125 30.81640625 16.83984375 31.11328125 40.5625 10.90234375 30.453125 34.06640625 11.29296875 29.84765625 38.56640625 8.7265625 27.93359375 35.09765625 6.01953125 27.46875 44.50390625 5.3125 24.4453125 44.45703125 -1.5703125 20.77734375 50.4453125 1.8984375 20.953125 56.92578125 -2.21484375 11.96875 55.41015625 3.578125 20.70703125 61.72265625 -0.2109375 12.61328125 64.50390625 0.12890625 13.3359375 64.0703125 -1.40234375 6.3046875 67 -1.12890625 6.66796875 65.0703125 -1.8515625 0 68.1484375 -1.6484375 0 64.0703125 -1.40234375 -6.3046875 67 -1.12890625 -6.66796875 64.50390625 0.12890625 -13.3359375 68.10546875 0.8671875 -6.68359375 65.6328125 2.16015625 -13.3671875 30.0546875 25.8984375 -29.828125 30.6171875 26.38671875 -27.91015625 32.671875 31.484375 -28.32421875 32.66015625 30.90234375 -26.44921875 39.640625 40.00390625 -22.4375 44.42578125 44.796875 -17.99609375 50.078125 50.515625 -12.24609375 49.21484375 49.58984375 -11.578125 50.91015625 51.45703125 -5.703125 37.62109375 49.54296875 0 51.50390625 52.12109375 0 50.91015625 51.45703125 5.703125 51.875 52.48046875 5.91015625 50.078125 50.515625 12.2578125 36.37109375 -27.62890625 -7.83984375 39.484375 -26.57421875 -4.77734375 42.53515625 -25.296875 -5.7890625 43.4140625 -24.390625 0 44.8203125 -20.6171875 0 42.53515625 -25.296875 5.7890625 44.171875 -21.3984375 6.8359375 39.3671875 -27.44140625 10.390625 41.703125 -23.10546875 12.26953125 37.8125 -25.21875 16.33984375 36.59375 -20.22265625 16.3359375 33.90234375 -26.1015625 19.13671875 32.5625 -21.2421875 19.5078125 30.390625 -26.2421875 21.109375 27.75390625 -20.25 21.08984375 24.1328125 -24.26953125 23.19140625 28.65234375 16.54296875 31.87109375 29.3828125 19.9609375 30.98046875 27.37890625 19.69921875 31.9375 30.06640625 25.89453125 29.828125 28.0703125 25.609375 30.859375 28.77734375 34.6015625 27.66796875 23.47265625 25.52734375 31.51171875 21.6640625 37.234375 28.3515625 19.75390625 25.421875 32.47265625 11.3046875 25.06640625 30.9453125 11.45703125 19.3203125 32.7265625 11.390625 13.4375 31.7265625 38.3671875 44.21875 -10.484375 42.0703125 44.5078125 -10.9453125 41.4296875 40.34765625 -9.14453125 35.8984375 30.01171875 -5.046875 35.98828125 32.08984375 -14.22265625 29.84765625 22.7734375 -15.4921875 33.93359375 33.4453125 -17.47265625 13.26953125 37.296875 23.6953125 22.09765625 47.1875 20.37109375 28.83984375 46.66015625 22.2578125 40.59375 49.46875 17.29296875 44.83984375 53.35546875 11.78515625 48.35546875 53.7578125 12.3046875 50.390625 55.87890625 5.77734375 52.41796875 53.15625 0 29.8984375 20.15234375 -29.0859375 22.73046875 29.4453125 -16.4296875 21.7265625 18.28125 -15.4921875 19.96484375 29.05859375 0 19.61328125 17.56640625 0 21.7265625 18.28125 15.4921875 27.7109375 10.1015625 15.0234375 31.40625 16.96875 29.39453125 40.34765625 12.25390625 27.703125 41.6328125 12.1484375 30.0234375 48.62109375 8.9921875 24.234375 49.22265625 9.4375 27.5859375 58.19140625 6.3203125 21.58984375 34.08203125 -19.0859375 14.46875 37.61328125 -16.90625 10.7109375 40.4453125 -18.375 12.19140625 42.94921875 -16.73828125 6.60546875 43.50390625 -16 0 44.171875 -21.3984375 -6.8359375 39.3671875 -27.44140625 -10.390625 31.99609375 -29.078125 -11.078125 6.55859375 10.53125 9.3125 0.8125 18.82421875 0 0.0546875 25.296875 0 1.375 18.6328125 -17.47265625 1.49609375 25.1171875 -15.484375 4.453125 24.97265625 -23.953125 5.18359375 33.3828125 -14.7734375 13.26953125 37.296875 -23.6953125 8.66796875 41.515625 -13.39453125 15.80859375 48.44921875 -11.4140625 30.53125 10.63671875 29.88671875 27.53125 6.4296875 28.55078125 34.203125 0.38671875 22.43359375 25.92578125 4.36328125 25.4921875 24.78515625 2.875 18.97265625 20.90234375 6.01953125 26.30859375 15.05859375 4.87109375 21.12109375 14.03125 8.1953125 27.12890625 10.06640625 6.9609375 19.828125 26.9375 18.35546875 13.12109375 24.5390625 19.1875 15.4921875 23.42578125 17.5 6.640625 22.48828125 18.1171875 0 23.42578125 17.5 -6.640625 11.390625 13.4375 -31.7265625 17.5859375 14.96484375 -33.3984375 11.45703125 19.3203125 -32.7265625 18.23046875 19.28515625 -33.359375 19.75390625 25.421875 -32.47265625 23.47265625 25.52734375 -31.51171875 21.6640625 37.234375 -28.3515625 28.77734375 34.6015625 -27.66796875 35.51171875 44.68359375 -22.92578125 30.84765625 32.8515625 -28.55859375 38.03515625 43.8515625 -24.1875 5.20703125 18.8046875 -27.37890625 11.3046875 25.06640625 -30.9453125 22.09765625 47.1875 -20.37109375 28.81640625 46.67578125 -22.2578125 37.28125 54.0234375 -11.38671875 40.7109375 49.38671875 -17.3046875 48.2421875 7.84765625 27.65625 57.29296875 4.38671875 21.34375 65.6328125 2.16015625 13.3671875 68.10546875 0.8671875 6.68359375 27.21484375 -19.62890625 -18.83984375 27.75390625 -20.25 -21.08984375 31.01953125 -20.078125 -16.5234375 32.5625 -21.2421875 -19.5078125 34.08203125 -19.0859375 -14.46875 36.59375 -20.22265625 -16.3359375 37.61328125 -16.90625 -10.7109375 40.4453125 -18.375 -12.19140625 39.7421875 -15.54296875 -5.62890625 42.94921875 -16.73828125 -6.60546875 35.07421875 -1.19921875 -12.94140625 36.26953125 -1.07421875 -15.3828125 31.5625 -6.796875 -18.76953125 31.42578125 -5.703125 -20.25 28.7890625 -10.0859375 -22.046875 29.56640625 -4.47265625 -20.83203125 26.28515625 -8.59375 -22.9765625 24.9296875 -8.30078125 -21.6796875 23.53125 -14.609375 -24.1796875 22.41796875 -13.84765625 -22.90625 20.9453125 -18.265625 -22.8203125 30.81640625 16.83984375 -31.11328125 41.6328125 12.1484375 -30.0234375 31.40625 16.96875 -29.39453125 40.34765625 12.25390625 -27.703125 27.7109375 10.1015625 -15.0234375 48.75390625 9.2421875 -24.66015625 45.25390625 3.2578125 -13.6171875 55.46484375 6.55078125 -19.7109375 61.6328125 3.14453125 -13.421875 58.19140625 6.3203125 -21.58984375 27.0078125 -15.9140625 -23.296875 24.1328125 -24.26953125 -23.19140625 30.390625 -26.2421875 -21.109375 33.90234375 -26.1015625 -19.13671875 37.8125 -25.21875 -16.33984375 41.703125 -23.10546875 -12.26953125 32.41796875 -30.390625 16.41796875 35.6484375 -29.48828125 13.7109375 31.99609375 -29.078125 11.078125 36.37109375 -27.62890625 7.83984375 39.484375 -26.57421875 4.77734375 39.9375 -25.8125 0 38.35546875 -24.03515625 -4.27734375 59.26171875 -4.1640625 0 56.92578125 -2.21484375 -11.96875 61.72265625 -0.2109375 -12.61328125 55.41015625 3.578125 -20.70703125 57.29296875 4.38671875 -21.34375 48.2421875 7.84765625 -27.65234375 49.22265625 9.4375 -27.5859375 28.0703125 25.609375 -30.859375 27.37890625 19.69921875 -31.9375 22.72265625 19.33984375 -32.25 28.65234375 16.54296875 -31.87109375 22.3828125 15.859375 -32.30078125 26.296875 7.59765625 0 44.015625 0.8671875 0 45.25390625 3.2578125 13.6171875 56.12109375 0.61328125 0 65.2109375 1.28515625 6.44921875 66.1640625 0.80859375 0 69.23046875 0.31640625 0 18.72265625 -25.2890625 21.1875 20.9453125 -18.265625 22.8203125 20.78125 -20.75 23.27734375 23.53125 -14.609375 24.1796875 27.0078125 -15.9140625 23.296875 28.7890625 -10.0859375 22.046875 27.94921875 -15.51953125 21.06640625 31.5625 -6.796875 18.76953125 27.82421875 -15.43359375 19.27734375 30.640625 -6.8125 17.578125 22.41796875 -13.84765625 22.90625 24.9296875 -8.30078125 21.6796875 26.28515625 -8.59375 22.9765625 29.56640625 -4.47265625 20.83203125 31.42578125 -5.703125 20.25 36.26953125 -1.07421875 15.3828125 30.53125 10.63671875 -29.88671875 25.4375 12.46484375 -31.7265625 27.53125 6.4296875 -28.55078125 22.59375 8.70703125 -30.23828125 25.92578125 4.36328125 -25.4921875 20.90234375 6.01953125 -26.30859375 24.78515625 2.875 -18.97265625 15.05859375 4.87109375 -21.12109375 34.06640625 11.29296875 -29.84765625 40.5625 10.90234375 -30.453125 38.56640625 8.7265625 -27.9296875 44.50390625 5.3125 -24.44140625 50.4453125 1.8984375 -20.953125 44.45703125 -1.57421875 -20.77734375 48.06640625 -5.37109375 -11.7265625 32.671875 31.484375 28.32421875 30.6171875 26.38671875 27.91015625 32.66015625 30.90234375 26.44921875 22.73046875 29.4453125 16.4296875 29.30859375 42.1875 13.86328125 27.4609375 43.5078125 0 29.30859375 42.1875 -13.86328125 39.8984375 40.8125 24.1328125 39.63671875 40.0078125 22.4375 44.42578125 44.796875 17.99609375 49.21484375 49.58984375 11.59375 45.0703125 45.7109375 19.3671875 4.66015625 12.00390625 0 6.55859375 10.53125 -9.3125 5.34375 11.10546875 -19.43359375 7.2421875 11.74609375 -25.87890625 18.3125 10.203125 -31.92578125 14.03125 8.1953125 -27.12890625 10.06640625 6.9609375 -19.828125 54.99609375 6.37109375 19.4296875 61.046875 3.12109375 13.42578125 41.046875 50.10546875 13.8203125 44.5625 53.44140625 0 46.89453125 45.65234375 13.8203125 50.65234375 48.78125 0 50.6953125 47.2890625 0 47.046875 44.25 -13.23046875 48.5703125 45.51953125 0 45.25 42.75 -11.44921875 27.94921875 -15.51953125 -21.06640625 27.82421875 -15.43359375 -19.27734375 17.5859375 14.96484375 33.3984375 18.23046875 19.28515625 33.359375 22.3828125 15.859375 32.30078125 22.72265625 19.33984375 32.25 47.3359375 11.6328125 -19.01171875 35.79296875 15.8984375 -22.3671875 48.765625 11.21484375 -21.4375 36.15234375 15.79296875 -25.0078125 48.91015625 9.9453125 -22.24609375 35.9375 14.6328125 -25.88671875 45.6953125 2.8828125 -22.04296875 33.71875 7.41015625 -25.68359375 29.484375 17.7578125 -23.34765625 29.265625 17.82421875 -26.26953125 28.64453125 16.6875 -27.2421875 26.9609375 9.96875 -27.04296875 43.359375 48.8984375 19.25 35.51171875 44.68359375 22.92578125 25.83984375 31.3046875 -22.56640625 31.66796875 26.7890625 -22.3671875 22.2109375 25.5546875 -23.55078125 27.6796875 21.03125 -23.34765625 22.00390625 25.33203125 -27.4453125 27.5859375 21.14453125 -27.2421875 26.17578125 31.671875 -26.08984375 32.16796875 27.39453125 -25.88671875 25.4375 12.46484375 31.7265625 22.59375 8.70703125 30.23828125 18.3125 10.203125 31.92578125 30.84765625 32.8515625 28.55859375 38.03515625 43.8515625 24.1875 43.1875 -6.2734375 12.37109375 38.80859375 -2.796875 9.390625 43.41796875 -8.87109375 5.59765625 40.45703125 -5.87890625 0 48.3828125 -7.5 -5.875 48.39453125 -8.390625 0 48.3828125 -7.5 5.875 43.4140625 -9.73828125 0 24.08984375 -28.74609375 20.84375 20.6015625 -28.51171875 17.38671875 28.24609375 -30.4375 18.8203125 41.046875 50.10546875 -13.8203125 34.84375 42.44140625 -22.44921875 46.89453125 45.65234375 -13.8203125 40.33203125 37.42578125 -22.24609375 38.96875 35.66796875 -19.01171875 33.26171875 7.61328125 22.1640625 35.79296875 15.8984375 22.3671875 27.23828125 9.84375 23.14453125 29.484375 17.7578125 23.34765625 28.64453125 16.6875 27.2421875 29.265625 17.82421875 26.26953125 35.9375 14.6328125 25.88671875 29.8984375 20.15234375 29.0859375 32.79296875 34.1953125 16.7890625 24.08984375 -28.74609375 -20.84375 28.24609375 -30.4375 -18.8203125 32.41796875 -30.390625 -16.41796875 20.6015625 -28.51171875 -17.38671875 25.83984375 -27.34765625 -13.98828125 31.66796875 26.7890625 22.3671875 27.6796875 21.03125 23.34765625 32.16796875 27.39453125 25.88671875 27.5859375 21.14453125 27.2421875 26.17578125 31.671875 26.08984375 22.00390625 25.33203125 27.4453125 36.15234375 15.79296875 25.0078125 48.765625 11.21484375 21.4375 48.91015625 9.9453125 22.24609375 33.71875 7.41015625 25.68359375 45.6953125 2.8828125 22.04296875 38.96875 35.66796875 19.01171875 40.33203125 37.42578125 22.24609375 34.84375 42.44140625 22.44921875 43.1875 -6.2734375 -12.37109375 38.80859375 -2.796875 -9.390625 43.41796875 -8.87109375 -5.59765625 29.37890625 19.96484375 -30.9765625 34.9609375 -0.1484375 16.8984375 32.21484375 -0.0703125 14.72265625 27.7734375 -4.3203125 19.46875 35.6484375 -29.48828125 -13.7109375 34.203125 0.38671875 -22.43359375 32.21484375 -0.0703125 -14.72265625 35.09765625 6.01953125 -27.46875 54.9296875 -1 -13.8203125 59.44140625 -3 0 58.5546875 6.1015625 -13.8203125 63.07421875 4.28125 0 58.140625 7.44921875 -13.23046875 62.51953125 5.66796875 0 58.140625 7.44921875 13.23046875 58.5546875 6.1015625 13.8203125 54.9296875 -1 13.8203125 65.21484375 1.28515625 -6.453125 51.875 52.48046875 -5.91015625 25.96875 17.16796875 5.59375 25.77734375 52.53515625 -10.53125 18.72265625 -25.2890625 -21.1875 20.78125 -20.75 -23.27734375 27.21484375 -19.62890625 18.83984375 31.01953125 -20.078125 16.5234375 34.9609375 -0.1484375 -16.8984375 27.7734375 -4.3203125 -19.46875 47.046875 44.25 13.23046875 32.79296875 34.1953125 -16.7890625 39.7421875 -15.54296875 5.62890625 40.7578125 -14.88671875 0 45.25 42.75 11.44921875 26.9609375 9.96875 27.04296875 48.06640625 -5.37109375 11.7265625 30.640625 -6.8125 -17.578125 34.92578125 -25.10546875 -7.31640625 25.83984375 -27.34765625 13.98828125 38.35546875 -24.03515625 4.27734375 39.21484375 -23.21484375 0 35.07421875 -1.19921875 12.94140625 34.92578125 -25.10546875 7.31640625 33.484375 40.96875 -19.2109375 55.984375 8.37109375 -11.44921875 59.95703125 6.7109375 0 52.0546875 0.26953125 -11.32421875 56.04296875 -1.49609375 0 43.86328125 3.6953125 -18.80859375 33.26171875 7.61328125 -22.1640625 27.23828125 9.84375 -23.14453125 55.984375 8.37109375 11.44921875 52.0546875 0.26953125 11.32421875 47.3359375 11.6328125 19.01171875 43.86328125 3.6953125 18.80859375 38.37890625 48.69140625 11.44921875 41.87109375 50.99609375 0 38.37890625 48.69140625 -11.44921875 33.484375 40.96875 19.2109375 22.2109375 25.5546875 23.55078125 25.83984375 31.3046875 22.56640625 31.67578125 -26.140625 10.265625 31.67578125 -26.140625 -10.265625</float_array>
                    <technique_common>
                        <accessor count="467" source="#pointarray0" stride="3">
                            <param name="X" type="float"/>
                            <param name="Y" type="float"/>
                            <param name="Z" type="float"/>
                        </accessor>
                    </technique_common>
                </source>
                <source id="uvs0">
                    <float_array id="uvarray0" count="656">0.51092529296875 0.3302001953125 0.5267333984375 0.325927734375 0.5614013671875 0.33453369140625 0.5614013671875 0.3172607421875 0.5960693359375 0.325927734375 0.60247802734375 0.3172607421875 0.6119384765625 0.3302001953125 0.62139892578125 0.3172607421875 0.6239013671875 0.3172607421875 0.62066650390625 0.29620361328125 0.61395263671875 0.3172607421875 0.60968017578125 0.29620361328125 0.57855224609375 0.29620361328125 0.5972900390625 0.27777099609375 0.5614013671875 0.26544189453125 0.6043701171875 0.2667236328125 0.5614013671875 0.25177001953125 0.6025390625 0.26953125 0.5614013671875 0.25531005859375 0.5989990234375 0.29620361328125 0.5614013671875 0.29620361328125 0.52386474609375 0.29620361328125 0.5203857421875 0.3172607421875 0.50146484375 0.3172607421875 0.4989013671875 0.3172607421875 0.50885009765625 0.33056640625 0.51690673828125 0.32916259765625 0.5467529296875 0.33282470703125 0.54620361328125 0.32183837890625 0.5614013671875 0.33282470703125 0.5614013671875 0.32464599609375 0.57659912109375 0.32183837890625 0.39373779296875 0.49755859375 0.3375244140625 0.4949951171875 0.39215087890625 0.475341796875 0.32183837890625 0.47845458984375 0.3721923828125 0.4617919921875 0.31561279296875 0.4617919921875 0.31317138671875 0.44000244140625 0.254150390625 0.4478759765625 0.311767578125 0.4263916015625 0.254150390625 0.427001953125 0.3125 0.41180419921875 0.254150390625 0.40826416015625 0.3104248046875 0.39202880859375 0.254150390625 0.3896484375 0.317138671875 0.37744140625 0.254150390625 0.37493896484375 0.28875732421875 0.36065673828125 0.254150390625 0.35943603515625 0.254150390625 0.35003662109375 0.29022216796875 0.351318359375 0.32330322265625 0.3619384765625 0.32623291015625 0.3525390625 0.37640380859375 0.364501953125 0.38458251953125 0.35595703125 0.43963623046875 0.37078857421875 0.99212646484375 0.5897216796875 0.96636962890625 0.5751953125 0.96636962890625 0.58978271484375 0.94921875 0.57989501953125 0.93511962890625 0.58770751953125 0.9241943359375 0.5633544921875 0.89141845703125 0.55853271484375 0.89923095703125 0.54681396484375 0.83203125 0.52740478515625 0.90386962890625 0.539794921875 0.83514404296875 0.51898193359375 0.84136962890625 0.5106201171875 0.79693603515625 0.51373291015625 0.80010986328125 0.5064697265625 0.7587890625 0.508544921875 0.7587890625 0.50225830078125 0.80322265625 0.50018310546875 0.84765625 0.50439453125 0.17425537109375 0.27301025390625 0.1607666015625 0.27801513671875 0.17169189453125 0.26263427734375 0.1534423828125 0.26849365234375 0.1492919921875 0.23284912109375 0.13165283203125 0.24609375 0.11968994140625 0.218505859375 0.10223388671875 0.23419189453125 0.08526611328125 0.205322265625 0.07275390625 0.2222900390625 0.03973388671875 0.2178955078125 0.00665283203125 0.23895263671875 0.00665283203125 0.2135009765625 0.0445556640625 0.19622802734375 0.6519775390625 0.94622802734375 0.58404541015625 0.92919921875 0.5855712890625 0.9202880859375 0.5062255859375 0.9105224609375 0.5062255859375 0.89617919921875 0.58746337890625 0.9041748046875 0.654541015625 0.93353271484375 0.65753173828125 0.91253662109375 0.724609375 0.92144775390625 0.729248046875 0.87921142578125 0.80657958984375 0.9302978515625 0.8026123046875 0.88812255859375 0.86248779296875 0.92919921875 0.8812255859375 0.88751220703125 0.94708251953125 0.91668701171875 0.4979248046875 0.4658203125 0.4879150390625 0.4620361328125 0.49835205078125 0.451171875 0.4833984375 0.4481201171875 0.49835205078125 0.4371337890625 0.47900390625 0.43548583984375 0.457763671875 0.40869140625 0.4639892578125 0.4371337890625 0.42498779296875 0.41802978515625 0.45623779296875 0.44097900390625 0.41900634765625 0.444091796875 0.43463134765625 0.4617919921875 0.44061279296875 0.4888916015625 0.520263671875 0.26953125 0.51849365234375 0.2667236328125 0.52557373046875 0.27777099609375 0.5443115234375 0.29620361328125 0.51318359375 0.29620361328125 0.50885009765625 0.3172607421875 0.50213623046875 0.29620361328125 0.3721923828125 0.42950439453125 0.3656005859375 0.40765380859375 0.38433837890625 0.397216796875 0.36785888671875 0.37225341796875 0.2918701171875 0.33984375 0.254150390625 0.338623046875 0.166259765625 0.28619384765625 0.16351318359375 0.2796630859375 0.08380126953125 0.30072021484375 0.07965087890625 0.28753662109375 0.00567626953125 0.3070068359375 0.00604248046875 0.29595947265625 0.07952880859375 0.28729248046875 0.07745361328125 0.2806396484375 0.15631103515625 0.26763916015625 0.13861083984375 0.2520751953125 0.16070556640625 0.242919921875 0.119384765625 0.24267578125 0.14556884765625 0.23016357421875 0.12310791015625 0.2181396484375 0.7562255859375 0.85003662109375 0.6624755859375 0.8292236328125 0.6624755859375 0.870849609375 0.5914306640625 0.862548828125 0.5062255859375 0.85418701171875 0.7183837890625 0.96136474609375 0.29364013671875 0.4964599609375 0.254150390625 0.481201171875 0.254150390625 0.46453857421875 0.9918212890625 0.59075927734375 0.96014404296875 0.59600830078125 0.93511962890625 0.6043701171875 0.89141845703125 0.58978271484375 0.91015625 0.61273193359375 0.87261962890625 0.6085205078125 0.9163818359375 0.62310791015625 0.87890625 0.62939453125 0.92266845703125 0.633544921875 0.87261962890625 0.6474609375 0.92889404296875 0.64605712890625 0.8759765625 0.6627197265625 0.60589599609375 0.32916259765625 0.61395263671875 0.33056640625 0.58392333984375 0.33514404296875 0.5614013671875 0.33514404296875 0.53887939453125 0.33514404296875 0.46917724609375 0.4617919921875 0.46270751953125 0.451416015625 0.4638671875 0.4368896484375 0.4124755859375 0.38262939453125 0.4703369140625 0.40557861328125 0.426513671875 0.37640380859375 0.48101806640625 0.4029541015625 0.9927978515625 0.58892822265625 0.9788818359375 0.5731201171875 0.9542236328125 0.55267333984375 0.94140625 0.555419921875 0.92950439453125 0.5322265625 0.9163818359375 0.53564453125 0.86248779296875 0.875 0.79998779296875 0.862548828125 0.59375 0.82086181640625 0.71697998046875 0.71044921875 0.731201171875 0.70001220703125 0.8125 0.75836181640625 0.83123779296875 0.75 0.8779296875 0.7933349609375 0.8499755859375 0.737548828125 0.913818359375 0.77947998046875 0.9375 0.7708740234375 0.95623779296875 0.8375244140625 0.981201171875 0.8375244140625 0.99371337890625 0.875 0.17303466796875 0.2662353515625 0.14056396484375 0.25115966796875 0.121337890625 0.241943359375 0.0711669921875 0.260498046875 0.10809326171875 0.23504638671875 0.07012939453125 0.22119140625 0.07757568359375 0.20068359375 0.9124755859375 0.8375244140625 0.8143310546875 0.97064208984375 0.7210693359375 0.948486328125 0.5062255859375 0.920166015625 0.5819091796875 0.93798828125 0.75909423828125 0.5205078125 0.47869873046875 0.4349365234375 0.4715576171875 0.44793701171875 0.4775390625 0.45941162109375 0.00634765625 0.284912109375 0.00701904296875 0.26275634765625 0.00701904296875 0.2236328125 0.03387451171875 0.21502685546875 0.00701904296875 0.21337890625 0.00701904296875 0.19293212890625 0.0384521484375 0.19427490234375 1 0.95001220703125 0.97705078125 0.89483642578125 0.86871337890625 0.8375244140625 0.856201171875 0.8375244140625 0.79998779296875 0.76251220703125 0.99322509765625 0.5914306640625 0.99407958984375 0.602294921875 0.97265625 0.610595703125 0.94140625 0.61376953125 0.8341064453125 0.5465087890625 0.08929443359375 0.29278564453125 0.08184814453125 0.2701416015625 0.00665283203125 0.27996826171875 0.254150390625 0.4915771484375 0.99066162109375 0.61163330078125 0.98516845703125 0.62103271484375 0.9476318359375 0.62310791015625 0.96014404296875 0.633544921875 0.10638427734375 0.2362060546875 0.0701904296875 0.22259521484375 0.50372314453125 0.2479248046875 0.623291015625 0.25177001953125 0.50372314453125 0.17230224609375 0.623291015625 0.17230224609375 0.623291015625 0.17120361328125 0.50372314453125 0.17120361328125 0.623291015625 0.16845703125 0.50372314453125 0.16845703125 0.4716796875 0.44805908203125 0.50482177734375 0.16845703125 0.623291015625 0.17889404296875 0.50482177734375 0.17889404296875 0.623291015625 0.1859130859375 0.50482177734375 0.1859130859375 0.623291015625 0.20648193359375 0.50482177734375 0.2073974609375 0.5614013671875 0.16845703125 0.5614013671875 0.17889404296875 0.5614013671875 0.1859130859375 0.623291015625 0.2073974609375 0.5614013671875 0.20159912109375 0.32952880859375 0.34112548828125 0.623291015625 0.20428466796875 0.5614013671875 0.1990966796875 0.5614013671875 0.17120361328125 0.5614013671875 0.19891357421875 0.5614013671875 0.17230224609375 0.623291015625 0.2047119140625 0.833984375 0.56158447265625 0.81011962890625 0.579345703125 0.79107666015625 0.55963134765625 0.7606201171875 0.5689697265625 0.4495849609375 0.202880859375 0.3568115234375 0.25689697265625 0.275390625 0.180908203125 0.2767333984375 0.25689697265625 0.278564453125 0.31988525390625 0.357421875 0.32000732421875 0.93121337890625 0.9666748046875 0.96246337890625 1 0.88824462890625 0.9752197265625 0.623291015625 0.2479248046875 0.50372314453125 0.21099853515625 0.50482177734375 0.20703125 0.5614013671875 0.20184326171875 0.17572021484375 0.27435302734375 0.176513671875 0.28204345703125 0.61834716796875 0.29620361328125 0.856201171875 1 0.50482177734375 0.20648193359375 0.623291015625 0.21099853515625 0.50372314453125 0.2047119140625 0.76043701171875 0.55908203125 0.74371337890625 0.69171142578125 0.7562255859375 0.683349609375 0.86871337890625 0.72503662109375 0.84454345703125 0.59393310546875 0.50384521484375 0.2147216796875 0.6239013671875 0.21856689453125 0.6239013671875 0.2147216796875 0.50433349609375 0.21856689453125 0.03387451171875 0.2149658203125 0.00665283203125 0.19287109375 0.57611083984375 0.33282470703125 0.7587890625 0.49603271484375 0.00665283203125 0.30303955078125 0.45416259765625 0.27215576171875 0.45458984375 0.32806396484375 0.50445556640625 0.29620361328125 0.5062255859375 0.81671142578125 0.4979248046875 0.436767578125 0.847412109375 0.66326904296875 0.6492919921875 0.9549560546875 0.5062255859375 0.93243408203125 0.623291015625 0.20947265625 0.50372314453125 0.20428466796875 0.50384521484375 0.2122802734375 0.6239013671875 0.2156982421875 0.50482177734375 0.2049560546875 0.623291015625 0.2122802734375 0.623291015625 0.20703125 0.623291015625 0.2049560546875 0.50433349609375 0.2156982421875 0.50372314453125 0.2454833984375 0.623291015625 0.2489013671875 0.50372314453125 0.20947265625 0.623291015625 0.2454833984375 0.71807861328125 0.9718017578125</float_array>
                    <technique_common>
                        <accessor count="328" source="#uvarray0" stride="2">
                            <param name="S" type="float"/>
                            <param name="T" type="float"/>
                        </accessor>
                    </technique_common>
                </source>
                <vertices id="vertices0">
                    <input semantic="POSITION" source="#points0"/>
                </vertices>
                <polylist count="832" material="Material1">
                    <input offset="0" semantic="VERTEX" source="#vertices0"/>
                    <input offset="1" semantic="TEXCOORD" source="#uvs0" set="0"/>
                    <vcount>3 3 3 3 3 3 3 3 3 3 3 3 3 3 3 3 3 3 3 3 3 3 3 3 3 3 3 3 3 3 3 3 3 3 3 3 3 3 3 3 3 3 3 3 3 3 3 3 3 3 3 3 3 3 3 3 3 3 3 3 3 3 3 3 3 3 3 3 3 3 3 3 3 3 3 3 3 3 3 3 3 3 3 3 3 3 3 3 3 3 3 3 3 3 3 3 3 3 3 3 3 3 3 3 3 3 3 3 3 3 3 3 3 3 3 3 3 3 3 3 3 3 3 3 3 3 3 3 3 3 3 3 3 3 3 3 3 3 3 3 3 3 3 3 3 3 3 3 3 3 3 3 3 3 3 3 3 3 3 3 3 3 3 3 3 3 3 3 3 3 3 3 3 3 3 3 3 3 3 3 3 3 3 3 3 3 3 3 3 3 3 3 3 3 3 3 3 3 3 3 3 3 3 3 3 3 3 3 3 3 3 3 3 3 3 3 3 3 3 3 3 3 3 3 3 3 3 3 3 3 3 3 3 3 3 3 3 3 3 3 3 3 3 3 3 3 3 3 3 3 3 3 3 3 3 3 3 3 3 3 3 3 3 3 3 3 3 3 3 3 3 3 3 3 3 3 3 3 3 3 3 3 3 3 3 3 3 3 3 3 3 3 3 3 3 3 3 3 3 3 3 3 3 3 3 3 3 3 3 3 3 3 3 3 3 3 3 3 3 3 3 3 3 3 3 3 3 3 3 3 3 3 3 3 3 3 3 3 3 3 3 3 3 3 3 3 3 3 3 3 3 3 3 3 3 3 3 3 3 3 3 3 3 3 3 3 3 3 3 3 3 3 3 3 3 3 3 3 3 3 3 3 3 3 3 3 3 3 3 3 3 3 3 3 3 3 3 3 3 3 3 3 3 3 3 3 3 3 3 3 3 3 3 3 3 3 3 3 3 3 3 3 3 3 3 3 3 3 3 3 3 3 3 3 3 3 3 3 3 3 3 3 3 3 3 3 3 3 3 3 3 3 3 3 3 3 3 3 3 3 3 3 3 3 3 3 3 3 3 3 3 3 3 3 3 3 3 3 3 3 3 3 3 3 3 3 3 3 3 3 3 3 3 3 3 3 3 3 3 3 3 3 3 3 3 3 3 3 3 3 3 3 3 3 3 3 3 3 3 3 3 3 3 3 3 3 3 3 3 3 3 3 3 3 3 3 3 3 3 3 3 3 3 3 3 3 3 3 3 3 3 3 3 3 3 3 3 3 3 3 3 3 3 3 3 3 3 3 3 3 3 3 3 3 3 3 3 3 3 3 3 3 3 3 3 3 3 3 3 3 3 3 3 3 3 3 3 3 3 3 3 3 3 3 3 3 3 3 3 3 3 3 3 3 3 3 3 3 3 3 3 3 3 3 3 3 3 3 3 3 3 3 3 3 3 3 3 3 3 3 3 3 3 3 3 3 3 3 3 3 3 3 3 3 3 3 3 3 3 3 3 3 3 3 3 3 3 3 3 3 3 3 3 3 3 3 3 3 3 3 3 3 3 3 3 3 3 3 3 3 3 3 3 3 3 3 3 3 3 3 3 3 3 3 3 3 3 3 3 3 3 3 3 3 3 3 3 3 3 3 3 3 3 3 3 3 3 3 3 3 3 3 3 3 3 3 3 3 3 3 3 3 3 3 3 3 3 3 3 3 3 3 3 3 3 3 3 3 3 3 3 3 3 3 3 3 3 3 3 3 3 3 3 3 3 3 3 3 3 3 3 3 3 3 3 3 3 3 3 3 3 3 3 3 3 3 3 3 3 3 3 3 3 3 3 3 3 3 3 3 3 3 3 3 3 3 3 3 3 3 3 3 3 3 3 3 3 3 3 3 3 3</vcount>
                    <p>2 2 1 1 0 0 3 3 1 1 2 2 4 4 3 3 2 2 5 5 3 3 4 4 6 6 5 5 4 4 7 7 5 5 6 6 8 8 7 7 6 6 9 9 7 7 8 8 10 10 9 9 8 8 11 11 9 9 10 10 12 12 11 11 10 10 13 13 11 11 12 12 14 14 13 13 12 12 15 15 13 13 14 14 16 16 15 15 14 14 17 17 15 15 16 16 18 18 17 17 16 16 19 19 17 17 18 18 20 20 19 19 18 18 3 3 19 19 20 20 21 21 3 3 20 20 22 22 3 3 21 21 23 23 22 22 21 21 0 0 22 22 23 23 24 24 0 0 23 23 25 25 0 0 24 24 26 26 25 25 24 24 27 27 25 25 26 26 28 28 27 27 26 26 29 29 27 27 28 28 30 30 29 29 28 28 31 31 29 29 30 30 32 20 31 31 30 30 12 12 31 31 32 20 14 14 12 12 32 20 35 34 34 33 33 32 36 35 34 33 35 34 37 36 36 35 35 34 38 37 36 35 37 36 39 38 38 37 37 36 40 39 38 37 39 38 41 40 40 39 39 38 42 41 40 39 41 40 43 42 42 41 41 40 44 43 42 41 43 42 45 44 44 43 43 42 46 45 44 43 45 44 47 46 46 45 45 44 48 47 46 45 47 46 49 48 48 47 47 46 50 49 48 47 49 48 51 50 50 49 49 48 52 48 50 49 51 50 53 51 52 48 51 50 54 52 52 48 53 51 55 53 54 52 53 51 56 54 54 52 55 53 57 55 56 54 55 53 58 56 56 54 57 55 61 59 60 58 59 57 62 60 60 58 61 59 63 61 62 60 61 59 64 62 62 60 63 61 65 63 64 62 63 61 66 64 64 62 65 63 67 65 66 64 65 63 68 66 66 64 67 65 69 67 68 66 67 65 70 68 68 66 69 67 71 69 70 68 69 67 72 70 70 68 71 69 73 71 72 70 71 69 74 72 72 70 73 71 75 69 74 72 73 71 76 70 74 72 75 69 77 68 76 70 75 69 78 73 76 70 77 68 79 74 78 73 77 68 82 77 81 76 80 75 83 78 81 76 82 77 58 79 83 78 82 77 84 80 83 78 58 79 57 81 84 80 58 79 85 82 84 80 57 81 86 83 85 82 57 81 87 84 85 82 86 83 88 85 87 84 86 83 89 86 87 84 88 85 90 87 89 86 88 85 91 85 89 86 90 87 92 88 91 85 90 87 93 83 91 85 92 88 96 91 95 90 94 89 97 92 95 90 96 91 98 93 97 92 96 91 99 91 97 92 98 93 100 94 99 91 98 93 101 95 99 91 100 94 102 96 101 95 100 94 103 97 101 95 102 96 104 98 103 97 102 96 105 99 103 97 104 98 106 100 105 99 104 98 107 101 105 99 106 100 108 102 107 101 106 100 109 103 107 101 108 102 111 106 110 105 59 104 112 107 110 105 111 106 113 108 112 107 111 106 114 109 112 107 113 108 115 110 114 109 113 108 116 111 114 109 115 110 117 112 116 111 115 110 118 113 116 111 117 112 119 114 118 113 117 112 120 115 118 113 119 114 35 34 120 115 119 114 121 116 120 115 35 34 33 32 121 116 35 34 18 18 21 21 20 20 122 117 21 21 18 18 16 16 122 117 18 18 123 118 122 117 16 16 14 14 123 118 16 16 124 119 123 118 14 14 125 120 124 119 14 14 126 121 124 119 125 120 127 122 126 121 125 120 128 123 126 121 127 122 24 24 128 123 127 122 23 23 128 123 24 24 119 114 37 36 35 34 129 124 37 36 119 114 117 112 129 124 119 114 130 125 129 124 117 112 131 126 130 125 117 112 47 46 130 125 131 126 132 127 47 46 131 126 133 52 47 46 132 127 134 53 133 52 132 127 135 51 133 52 134 53 92 128 135 51 134 53 136 129 135 51 92 128 138 132 137 131 81 130 139 133 137 131 138 132 140 134 139 133 138 132 141 135 139 133 140 134 142 136 141 135 140 134 143 137 141 135 142 136 144 138 143 137 142 136 145 139 143 137 144 138 146 140 145 139 144 138 147 141 145 139 146 140 148 142 147 141 146 140 149 143 147 141 148 142 104 98 151 145 150 144 152 146 151 145 104 98 102 96 152 146 104 98 153 147 152 146 102 96 100 94 153 147 102 96 154 148 153 147 100 94 98 93 154 148 100 94 155 94 154 148 98 93 96 91 155 94 98 93 156 95 155 94 96 91 94 89 156 95 96 91 157 149 156 95 94 89 36 35 158 150 34 33 159 151 158 150 36 35 160 152 159 151 36 35 161 35 159 151 160 152 162 37 161 35 160 152 163 36 161 35 162 37 164 38 163 36 162 37 165 124 163 36 164 38 166 40 165 124 164 38 167 42 165 124 166 40 42 41 167 42 166 40 44 43 167 42 42 41 168 154 61 59 59 153 63 61 61 59 168 154 169 155 63 61 168 154 170 156 63 61 169 155 171 157 170 156 169 155 172 158 170 156 171 157 173 159 172 158 171 157 174 160 172 158 173 159 175 161 174 160 173 159 176 162 174 160 175 161 33 163 176 162 175 161 34 164 176 162 33 163 10 10 31 31 12 12 177 165 31 31 10 10 8 8 177 165 10 10 178 166 177 165 8 8 6 6 178 166 8 8 179 167 178 166 6 6 2 2 179 167 6 6 180 168 179 167 2 2 181 169 180 168 2 2 29 29 180 168 181 169 27 27 29 29 181 169 184 115 183 170 182 116 185 171 183 170 184 115 186 113 185 171 184 115 187 172 185 171 186 113 188 112 187 172 186 113 189 110 187 172 188 112 190 173 189 110 188 112 191 174 189 110 190 173 192 175 191 174 190 173 82 176 191 174 192 175 58 56 82 176 192 175 163 36 193 34 161 35 194 114 193 34 163 36 165 124 194 114 163 36 188 112 194 114 165 124 195 125 188 112 165 124 196 126 188 112 195 125 197 46 196 126 195 125 198 127 196 126 197 46 54 52 198 127 197 46 56 54 198 127 54 52 60 58 146 178 59 177 148 179 146 178 60 58 199 180 148 179 60 58 149 181 148 179 199 180 200 182 149 181 199 180 201 74 149 181 200 182 70 68 201 74 200 182 202 73 201 74 70 68 72 70 202 73 70 68 74 72 202 73 72 70 205 184 204 102 203 183 206 100 204 102 205 184 207 144 206 100 205 184 208 98 206 100 207 144 209 145 208 98 207 144 210 146 208 98 209 145 211 185 210 146 209 145 212 147 210 146 211 185 154 148 212 147 211 185 155 94 212 147 154 148 215 188 214 187 213 186 216 189 214 187 215 188 217 190 216 189 215 188 218 191 216 189 217 190 219 192 218 191 217 190 220 193 218 191 219 192 221 194 220 193 219 192 222 195 220 193 221 194 223 196 222 195 221 194 226 138 225 140 224 197 227 198 225 140 226 138 228 137 227 198 226 138 229 199 227 198 228 137 230 200 229 199 228 137 231 201 229 199 230 200 232 202 231 201 230 200 233 143 231 201 232 202 79 203 233 143 232 202 204 102 235 103 234 204 236 101 235 103 204 102 206 100 236 101 204 102 237 99 236 101 206 100 208 98 237 99 206 100 238 97 237 99 208 98 239 96 238 97 208 98 156 95 238 97 239 96 155 94 156 95 239 96 242 149 241 206 240 205 101 95 241 206 242 149 243 89 101 95 242 149 99 91 101 95 243 89 244 90 99 91 243 89 97 92 99 91 244 90 245 207 97 92 244 90 95 90 97 92 245 207 246 208 95 90 245 207 247 209 73 71 71 69 75 69 73 71 247 209 248 65 75 69 247 209 249 67 75 69 248 65 250 66 249 67 248 65 251 182 249 67 250 66 252 180 251 182 250 66 233 181 251 182 252 180 253 179 233 181 252 180 80 108 191 174 82 176 189 110 191 174 80 108 254 210 189 110 80 108 187 172 189 110 254 210 255 107 187 172 254 210 256 211 187 172 255 107 257 105 256 211 255 107 258 212 256 211 257 105 259 213 230 200 228 137 260 214 230 200 259 213 261 200 260 214 259 213 262 215 260 214 261 200 263 216 262 215 261 200 264 217 262 215 263 216 265 218 264 217 263 216 78 219 264 217 265 218 268 221 267 196 266 220 269 194 267 196 268 221 270 204 269 194 268 221 271 190 269 194 270 204 272 222 271 190 270 204 273 188 271 190 272 222 274 223 273 188 272 222 275 224 273 188 274 223 269 194 276 195 267 196 277 193 276 195 269 194 278 192 277 193 269 194 279 191 277 193 278 192 271 190 279 191 278 192 280 189 279 191 271 190 273 188 280 189 271 190 281 187 280 189 273 188 282 154 257 226 224 225 283 227 257 226 282 154 284 155 283 227 282 154 285 228 283 227 284 155 286 157 285 228 284 155 287 159 285 228 286 157 288 158 287 159 286 157 289 160 287 159 288 158 291 58 290 59 224 57 292 60 290 59 291 58 252 180 292 60 291 58 293 62 292 60 252 180 294 64 293 62 252 180 295 63 293 62 294 64 248 65 295 63 294 64 296 229 295 63 248 65 298 76 297 77 113 75 299 78 297 77 298 76 300 230 299 78 298 76 301 231 299 78 300 230 302 232 301 231 300 230 89 86 301 231 302 232 303 231 89 86 302 232 299 78 304 79 297 77 305 80 304 79 299 78 301 231 305 80 299 78 306 82 305 80 301 231 307 84 306 82 301 231 308 81 306 82 307 84 93 83 308 81 307 84 159 151 309 233 158 150 310 150 309 233 159 151 161 35 310 150 159 151 311 33 310 150 161 35 193 34 311 33 161 35 312 32 311 33 193 34 182 116 312 32 193 34 283 227 258 234 257 226 183 235 258 234 283 227 313 236 183 235 283 227 182 237 183 235 313 236 314 161 182 237 313 236 312 163 182 237 314 161 315 162 312 163 314 161 147 141 143 137 145 139 261 200 143 137 147 141 316 238 261 200 147 141 317 239 261 200 316 238 201 203 317 239 316 238 202 219 317 239 201 203 320 242 319 241 318 240 321 243 319 241 320 242 322 244 321 243 320 242 323 245 321 243 322 244 324 246 323 245 322 244 325 247 323 245 324 246 217 190 221 194 219 192 234 204 221 194 217 190 326 222 234 204 217 190 204 102 234 204 326 222 327 223 204 102 326 222 203 183 204 102 327 223 139 133 226 138 137 131 228 137 226 138 139 133 141 135 228 137 139 133 259 213 228 137 141 135 143 137 259 213 141 135 261 200 259 213 143 137 328 170 120 115 121 116 329 171 120 115 328 170 330 212 329 171 328 170 331 248 329 171 330 212 110 105 331 248 330 212 112 107 331 248 110 105 334 250 333 249 332 246 335 251 333 249 334 250 336 252 335 251 334 250 337 253 335 251 336 252 338 254 337 253 336 252 339 255 337 253 338 254 335 250 340 256 333 246 341 257 340 256 335 250 337 252 341 257 335 250 342 258 341 257 337 252 339 259 342 258 337 252 343 260 342 258 339 259 134 53 93 261 92 128 344 54 93 261 134 53 132 127 344 54 134 53 345 173 344 54 132 127 131 126 345 173 132 127 117 112 345 173 131 126 348 263 347 244 346 262 349 264 347 244 348 263 350 265 349 264 348 263 351 266 349 264 350 265 352 267 351 266 350 265 353 243 351 266 352 267 354 227 169 155 168 154 355 228 169 155 354 227 356 236 355 228 354 227 173 159 355 228 356 236 175 161 173 159 356 236 304 56 357 174 297 176 358 175 357 174 304 56 308 55 358 175 304 56 344 54 358 175 308 55 93 261 344 54 308 55 170 156 65 63 63 61 359 268 65 63 170 156 360 269 359 268 170 156 361 270 359 268 360 269 362 271 361 270 360 269 247 274 363 273 248 272 364 275 363 273 247 274 365 273 364 275 247 274 366 276 364 275 365 273 361 277 366 276 365 273 368 279 367 278 266 220 369 280 367 278 368 279 240 205 369 280 368 279 107 101 369 280 240 205 105 99 107 101 240 205 372 243 371 282 370 281 373 242 371 282 372 243 323 244 373 242 372 243 374 247 373 242 323 244 325 246 374 247 323 244 377 284 376 251 375 283 378 257 376 251 377 284 379 258 378 257 377 284 380 257 378 257 379 258 381 253 380 257 379 258 144 138 59 197 146 140 111 285 59 197 144 138 382 131 111 285 144 138 113 286 111 285 382 131 298 130 113 286 382 131 15 15 11 11 13 13 9 9 11 11 15 15 383 287 9 9 15 15 7 7 9 9 383 287 19 19 7 7 383 287 314 161 289 160 315 162 287 159 289 160 314 161 313 236 287 159 314 161 285 228 287 159 313 236 283 227 285 228 313 236 236 101 384 278 235 103 385 280 384 278 236 101 386 205 385 280 236 101 387 279 385 280 386 205 388 288 387 279 386 205 391 243 390 256 389 246 392 266 390 256 391 243 393 267 392 266 391 243 394 265 392 266 393 267 229 199 225 140 227 198 253 142 225 140 229 199 231 201 253 142 229 199 233 143 253 142 231 201 381 252 396 251 395 250 397 253 396 251 381 252 398 259 397 253 381 252 399 289 397 253 398 259 270 204 108 102 272 222 109 103 108 102 270 204 268 221 109 103 270 204 266 220 109 103 268 221 401 243 389 247 400 246 391 242 389 247 401 243 402 290 391 242 401 243 393 291 391 242 402 290 405 270 404 269 403 268 362 271 404 269 405 270 366 292 362 271 405 270 361 270 362 271 366 292 406 285 226 138 224 197 137 131 226 138 406 285 80 286 137 131 406 285 81 130 137 131 80 286 407 293 280 189 281 187 279 191 280 189 407 293 408 294 279 191 407 293 409 295 279 191 408 294 237 99 386 205 236 101 410 206 386 205 237 99 238 97 410 206 237 99 156 95 410 206 238 97 403 268 295 63 296 229 411 156 295 63 403 268 404 269 411 156 403 268 412 296 411 156 404 269 110 226 168 154 59 225 354 227 168 154 110 226 330 234 354 227 110 226 328 235 354 227 330 234 83 78 138 230 81 76 303 231 138 230 83 78 84 80 303 231 83 78 85 82 303 231 84 80 290 59 282 154 224 153 413 61 282 154 290 59 292 60 413 61 290 59 293 62 413 61 292 60 416 253 415 298 414 297 417 252 415 298 416 253 418 251 417 252 416 253 419 250 417 252 418 251 336 253 414 299 338 289 416 252 414 299 336 253 334 251 416 252 336 253 418 250 416 252 334 251 421 252 419 251 420 250 417 253 419 251 421 252 422 299 417 253 421 252 415 300 417 253 422 299 397 252 420 251 396 250 421 253 420 251 397 252 399 254 421 253 397 252 422 297 421 253 399 254 373 243 352 291 371 290 353 242 352 291 373 243 374 246 353 242 373 243 347 247 353 242 374 246 262 215 230 200 260 214 423 301 230 200 262 215 264 217 423 301 262 215 78 219 423 301 264 217 115 110 345 173 117 112 357 174 345 173 115 110 113 108 357 174 115 110 297 176 357 174 113 108 424 88 88 85 86 83 90 87 88 85 424 88 136 302 90 87 424 88 92 88 90 87 136 302 29 29 179 167 180 168 425 303 179 167 29 29 31 31 425 303 29 29 177 165 425 303 31 31 167 42 195 125 165 124 426 44 195 125 167 42 44 43 426 44 167 42 46 45 426 44 44 43 427 220 235 103 384 278 428 221 235 103 427 220 223 196 428 221 427 220 221 194 428 221 223 196 382 131 300 132 298 130 142 136 300 132 382 131 144 138 142 136 382 131 32 20 125 120 14 14 28 28 125 120 32 20 30 30 28 28 32 20 265 304 76 70 78 73 74 72 76 70 265 304 202 73 74 72 265 304 108 102 274 223 272 222 429 183 274 223 108 102 430 184 429 183 108 102 302 232 138 230 303 231 140 305 138 230 302 232 300 230 140 305 302 232 218 191 412 294 431 293 432 295 412 294 218 191 220 193 432 295 218 191 380 257 376 249 378 256 395 251 376 249 380 257 381 253 395 251 380 257 363 273 296 306 248 272 403 307 296 306 363 273 405 277 403 307 363 273 401 242 318 281 402 282 320 243 318 281 401 242 433 244 320 243 401 242 434 308 21 21 122 117 23 23 21 21 434 308 128 123 23 23 434 308 192 175 56 54 58 56 198 127 56 54 192 175 190 173 198 127 192 175 239 96 212 147 155 94 210 146 212 147 239 96 208 98 210 146 239 96 52 48 48 47 50 49 197 46 48 47 52 48 54 52 197 46 52 48 129 124 39 38 37 36 41 40 39 38 129 124 43 42 41 40 129 124 130 125 43 42 129 124 45 44 43 42 130 125 47 46 45 44 130 125 241 206 105 99 240 205 103 97 105 99 241 206 101 95 103 97 241 206 40 39 162 37 160 152 164 38 162 37 40 39 166 40 164 38 40 39 154 148 435 185 153 147 436 309 435 185 154 148 211 185 436 309 154 148 321 243 370 240 319 241 372 242 370 240 321 243 323 245 372 242 321 243 322 244 437 247 324 246 433 245 437 247 322 244 320 242 433 245 322 244 51 50 136 129 424 128 135 51 136 129 51 50 49 48 135 51 51 50 379 258 398 255 381 253 438 260 398 255 379 258 377 284 438 260 379 258 183 170 256 211 258 212 185 171 256 211 183 170 22 22 1 1 3 3 0 0 1 1 22 22 80 310 255 107 254 210 406 106 255 107 80 310 224 104 255 107 406 106 257 105 255 107 224 104 67 272 365 273 247 274 439 306 365 273 67 272 359 307 365 273 439 306 361 277 365 273 359 307 366 276 363 273 364 275 405 277 363 273 366 276 28 28 127 122 125 120 26 26 127 122 28 28 349 256 353 243 347 246 351 266 353 243 349 256 386 205 157 149 388 288 410 206 157 149 386 205 234 204 428 221 221 194 235 103 428 221 234 204 387 279 384 278 385 280 427 220 384 278 387 279 311 164 315 162 310 311 312 163 315 162 311 164 295 63 413 61 293 62 411 156 413 61 295 63 215 188 326 222 217 190 327 223 326 222 215 188 216 189 431 293 214 187 218 191 431 293 216 189 440 224 215 188 213 186 327 223 215 188 440 224 441 312 95 90 246 208 94 89 95 90 441 312 442 288 240 205 368 279 242 149 240 205 442 288 107 101 367 278 369 280 109 103 367 278 107 101 288 158 411 156 412 296 286 157 411 156 288 158 150 144 106 100 104 98 430 184 106 100 150 144 443 208 245 207 244 90 444 313 245 207 443 208 152 146 435 185 151 145 153 147 435 185 152 146 445 186 273 188 275 224 281 187 273 188 445 186 0 0 181 169 2 2 25 25 181 169 0 0 317 239 263 216 261 200 202 219 263 216 317 239 423 301 232 202 230 200 78 219 232 202 423 301 244 90 446 312 443 208 243 89 446 312 244 90 149 143 316 238 147 141 201 203 316 238 149 143 346 315 374 244 447 314 347 245 374 244 346 315 450 316 449 250 448 251 451 317 449 250 450 316 452 318 448 250 332 251 450 319 448 250 452 318 333 250 454 284 453 320 340 257 454 284 333 250 453 283 332 250 333 251 452 321 332 250 453 283 451 322 455 250 449 251 456 319 455 250 451 322 456 316 457 250 455 251 458 321 457 250 456 316 458 318 376 250 457 251 375 320 376 250 458 318 331 248 116 111 118 113 112 107 116 111 331 248 38 37 160 152 36 35 40 39 160 152 38 37 329 171 118 113 120 115 331 248 118 113 329 171 133 52 49 48 47 46 135 51 49 48 133 52 328 235 356 236 354 227 121 237 356 236 328 235 121 237 175 161 356 236 33 163 175 161 121 237 439 229 65 63 359 268 67 65 65 63 439 229 62 60 199 180 60 58 64 62 199 180 62 60 459 323 324 244 437 245 460 324 324 244 459 323 449 246 418 251 448 249 419 250 418 251 449 246 376 246 396 251 457 249 395 250 396 251 376 246 457 246 420 251 455 249 396 250 420 251 457 246 455 246 419 251 449 249 420 250 419 251 455 246 448 246 334 251 332 249 418 250 334 251 448 246 250 66 294 64 252 180 248 65 294 64 250 66 66 64 199 180 64 62 68 66 199 180 66 64 67 65 71 69 69 67 247 209 71 69 67 65 68 66 200 182 199 180 70 68 200 182 68 66 225 178 291 58 224 177 253 179 291 58 225 178 123 118 434 308 122 117 128 123 434 308 123 118 196 126 190 173 188 112 198 127 190 173 196 126 184 115 193 34 194 114 182 116 193 34 184 115 186 113 194 114 188 112 184 115 194 114 186 113 5 5 19 19 3 3 7 7 19 19 5 5 408 296 170 156 172 158 360 269 170 156 408 296 342 258 340 257 341 257 343 260 340 257 342 258 251 182 79 74 77 68 233 181 79 74 251 182 461 323 324 244 460 324 325 245 324 244 461 323 462 325 437 244 400 245 459 326 437 244 462 325 463 263 389 244 390 264 464 262 389 244 463 263 394 265 390 264 392 266 463 263 390 264 394 265 464 315 400 244 389 245 462 314 400 244 464 315 400 247 433 244 401 242 437 246 433 244 400 247 308 81 305 80 306 82 304 79 305 80 308 81 447 325 325 244 461 326 374 245 325 244 447 325 355 228 171 157 169 155 173 159 171 157 355 228 87 84 303 231 85 82 89 86 303 231 87 84 345 173 358 175 344 54 357 174 358 175 345 173 426 44 197 46 195 125 46 45 197 46 426 44 126 121 123 118 124 119 128 123 123 118 126 121 425 303 178 166 179 167 177 165 178 166 425 303 55 53 86 261 57 55 53 51 86 261 55 53 53 51 424 128 86 261 51 50 424 128 53 51 249 67 77 68 75 69 251 182 77 68 249 67 413 61 284 155 282 154 411 156 284 155 413 61 383 287 17 17 19 19 15 15 17 17 383 287 89 86 307 84 301 231 91 85 307 84 89 86 24 24 127 122 26 26 25 25 27 27 181 169 4 4 2 2 6 6 245 207 444 313 246 208 411 156 286 157 284 155 34 164 158 311 176 162 112 107 114 109 116 111 46 45 48 47 197 46 40 39 42 41 166 40 291 58 253 179 252 180 242 149 446 312 243 89 91 85 93 83 307 84 340 257 343 260 454 284 157 149 94 89 441 312 465 327 446 312 242 149 187 172 256 211 185 171 442 288 465 327 242 149 142 136 140 134 300 132 263 216 202 219 265 218 78 219 79 203 232 202 466 327 157 149 441 312 279 191 409 295 277 193 269 194 271 190 278 192 388 288 157 149 466 327 108 102 106 100 430 184 266 220 367 278 109 103 156 95 157 149 410 206</p>
                </polylist>
            </mesh>
        </geometry>
    </library_geometries>
    <library_visual_scenes>
        <visual_scene id="VisualSceneNode">
            <node id="node0" name="m0" type="NODE">
                <instance_geometry url="#mesh0">
                    <bind_material>
                        <technique_common>
                            <instance_material symbol="Material1" target="#mat0">
                                <bind_vertex_input semantic="UVSET0" input_semantic="TEXCOORD" input_set="0"></bind_vertex_input>
                            </instance_material>
                        </technique_common>
                    </bind_material>
                </instance_geometry>
            </node>
        </visual_scene>
    </library_visual_scenes>
    <scene>
        <instance_visual_scene url="#VisualSceneNode"></instance_visual_scene>
    </scene>
</COLLADA>
