<?xml version="1.0"?>
<COLLADA xmlns="http://www.collada.org/2005/11/COLLADASchema" version="1.4.1">
    <asset>
        <contributor>
            <authoring_tool>J3D Ripoff Exporter</authoring_tool>
        </contributor>
        <created>2024-08-02T13:57:14.553Z</created>
        <modified>2024-08-02T13:57:14.553Z</modified>
		<unit meter="0.01" name="centimeter" ></unit>
        <up_axis>Y_UP</up_axis>
    </asset>
    <library_images>
        <image id="tex0">
            <init_from>donkey_all.png</init_from>
        </image>
    </library_images>
    <library_effects>
        <effect id="effect0">
            <profile_COMMON>
                <newparam sid="surface0">
                    <surface type="2D">
                        <init_from>tex0</init_from>
                    </surface>
                </newparam>
                <newparam sid="sampler0">
                    <sampler2D>
                        <source>surface0</source>
                    </sampler2D>
                </newparam>
                <technique sid="COMMON">
                    <blinn>
                        <diffuse>
                            <texture texture="sampler0" texcoord="UVSET0"></texture>
                        </diffuse>
                    </blinn>
                </technique>
            </profile_COMMON>
        </effect>
    </library_effects>
    <library_materials>
        <material id="mat0" name="Dummy">
            <instance_effect url="#effect0"></instance_effect>
        </material>
    </library_materials>
    <library_geometries>
        <geometry id="mesh0">
            <mesh>
                <source id="points0">
                    <float_array id="pointarray0" count="2226">42.30859375 30.33984375 -10.26953125 49.3984375 34.7109375 0 40.84375 30.3046875 0 42.34375 30.33203125 10.26953125 36.1484375 28.53125 0 36.609375 28.08984375 12.19921875 31.6875 28.578125 0 32.00390625 27.85546875 12.734375 27.09375 28.234375 10.76171875 25.09765625 27.96484375 15.671875 23.6640625 28.7421875 0 22.8828125 26.4375 6.9921875 23.13671875 27.51171875 0 23.05078125 23.9765625 0 22.8828125 26.4375 -6.9921875 22.9296875 23.01953125 -6.6875 24.65234375 26.70703125 -16.3125 24.234375 23.28125 -13.8125 32.3515625 25.9921875 -19.3984375 31.37890625 21.8046875 -16.3125 37.45703125 26.2421875 -18.8984375 36.796875 21.78515625 -15.640625 45.13671875 27.30859375 -16.19921875 45.0703125 23.96484375 -13.18359375 50.1640625 30.93359375 -10.14453125 50.8125 27.09375 -8.4765625 52.8359375 29.1640625 0 43.9140625 21.48828125 -5.31640625 43.546875 22.53515625 0 35.546875 19.703125 -6.4765625 35.51171875 21.02734375 0 30.296875 21.76171875 0 29.95703125 20.1484375 6.91796875 22.9296875 23.01953125 6.6875 24.65234375 26.70703125 16.3125 32.3515625 25.9921875 19.3984375 32.3984375 28.3046875 18.60546875 37.45703125 26.2421875 18.8984375 37.2265625 28.8125 18.140625 45.13671875 27.30859375 16.19921875 43.37890625 30.23828125 15.5625 50.12890625 30.8984375 10.14453125 47.23046875 32.55078125 9.71875 52.92578125 33.64453125 0 47.23046875 32.55078125 -9.71875 43.37890625 30.23828125 -15.5625 37.2265625 28.8125 -18.140625 35.921875 18.28125 -30.58203125 34.890625 22.1796875 -30.66796875 33.36328125 17.39453125 -31.83984375 32.45703125 21.6171875 -32.03515625 25.69140625 20.64453125 -33.19140625 25.9453125 26.3671875 -32.5390625 20.1171875 27.68359375 -32.375 22.06640625 34.92578125 -29.9296875 14.0703125 29.5078125 -30.859375 18.17578125 37.453125 -28.0625 15.08203125 39.8671875 -21.89453125 25.8515625 42.34375 -24.59375 22.80078125 45.7265625 -18.28515625 32.58203125 47.05859375 -19.70703125 32.09375 49.859375 -11.4140625 43.17578125 48.5390625 -11.140625 31.09765625 50.78125 0 44.42578125 48.64453125 0 43.17578125 48.5390625 11.140625 50.66015625 44.83984375 10.83984375 44.16015625 44.546875 16.9921875 55.015625 39.578125 10.54296875 46.97265625 39.86328125 18.03515625 53.94921875 33.9140625 17.93359375 46.875 34.171875 22.3046875 56.04296875 32.3671875 19.91796875 49.6171875 31.98828125 23.96484375 54.80078125 30.36328125 19.13671875 48.6484375 30.0625 23.421875 35.921875 18.28125 30.58203125 41.5390625 12.59765625 29.94921875 37.359375 13.21875 29.12109375 40.19921875 10.18359375 26.8828125 38.921875 7.48828125 26.20703125 44.9609375 8.7578125 23.53515625 45.5859375 3.28125 19.734375 49.7265625 8.3046875 20.1875 56.59765625 5.71484375 11.640625 54.02734375 10.5078125 20.2734375 59.9765625 8.328125 14.1640625 62.4765625 9.47265625 14.80859375 63.94921875 9.53515625 6.74609375 66.671875 10.30078125 7.41015625 65.15234375 8.37890625 0 68 9.23828125 0 66.671875 10.30078125 -7.41015625 67.15234375 12.53125 -7.4453125 62.4765625 9.47265625 -14.80859375 63.05859375 11.71875 -14.8828125 55.6640625 11.2734375 -21.1171875 56.1015625 13.30078125 -21.6640625 48.16015625 10.71875 -26.45703125 48.69921875 12.50390625 -26.61328125 41.5390625 12.59765625 -29.94921875 42.16015625 14.140625 -29.60546875 36.25 18.59375 -27.59375 35.19140625 22.3203125 -27.515625 34.4765625 26.09375 -30.4921875 34.87890625 26.08984375 -27.22265625 35.76953125 30.109375 -29.0546875 35.984375 29.703125 -26.01953125 41.921875 32.09375 -26.453125 40.6171875 31.72265625 -23.38671875 48.6484375 30.0625 -23.421875 47.48046875 29.91015625 -20.703125 54.80078125 31.12109375 -19.13671875 52.79296875 31.6015625 -16.59375 57.296875 28.85546875 -12.3984375 39.87890625 36.4921875 -13.8515625 51.046875 38.4140625 0 38.96875 38.5390625 0 39.87890625 36.4921875 13.8515625 25.328125 32.0234375 16.4296875 35.984375 29.703125 26.01953125 34.87890625 26.08984375 27.22265625 35.76953125 30.109375 29.0546875 34.4765625 26.09375 30.4921875 33.36328125 17.39453125 31.83984375 34.890625 22.1796875 30.66796875 32.45703125 21.6171875 32.03515625 31.984375 25.81640625 31.5625 31.91796875 28.51171875 31.0546875 25.9453125 26.3671875 32.5390625 26.859375 31.953125 30.78125 22.06640625 34.92578125 29.9296875 25.8515625 42.34375 24.59375 18.17578125 37.453125 28.0625 15.08203125 39.8671875 21.89453125 14.0703125 29.5078125 30.859375 7.74609375 31.41796875 24.10546875 5.91796875 20.015625 27.3515625 2.12890625 20.15234375 17.453125 5.33984375 11.16796875 19.44140625 6.55859375 10.53125 9.3125 18.72265625 -25.2890625 -21.1875 20.6015625 -28.51171875 -17.38671875 24.08984375 -28.92578125 -20.84375 27.78515625 -30.328125 -18.8203125 30.12109375 -26.0390625 -21.109375 32.41796875 -29.7109375 -16.41796875 33.90234375 -25.13671875 -19.13671875 35.6484375 -28.55078125 -13.7109375 37.8125 -23.52734375 -16.33984375 39.3671875 -26.50390625 -10.390625 41.703125 -22.16796875 -12.26953125 44.171875 -20.4609375 -6.8359375 42.94921875 -15.80078125 -6.60546875 43.50390625 -15.0625 0 39.7421875 -14.60546875 -5.62890625 40.7578125 -13.94921875 0 39.48828125 -6.98046875 0.43359375 39.5859375 -7.58203125 -0.4453125 41.36328125 -6.234375 2.6640625 42.1796875 -7.01953125 1.796875 43.84765625 -6.41015625 5.3203125 42.51171875 -8.1328125 1.0859375 44.57421875 -7.80078125 5.203125 42.51953125 -9.80859375 0.8203125 44.56640625 -10.11328125 5.15234375 42.0625 -11.21484375 0.90625 43.5234375 -12.42578125 5.1015625 40.72265625 -12.6796875 1.578125 41.05859375 -14.140625 5.23046875 38.65625 -12.77734375 2.421875 38.40625 -14.1640625 5.5390625 50.8125 27.09375 8.4765625 45.0703125 23.96484375 13.18359375 43.9140625 21.48828125 5.31640625 36.796875 21.78515625 15.640625 35.546875 19.703125 6.4765625 31.37890625 21.8046875 16.3125 24.234375 23.28125 13.8125 35.10546875 10.48828125 29.73828125 31.984375 5.515625 28.3828125 35.65625 1.140625 21.8125 26.8359375 3.5546875 25.4296875 24.78515625 2.875 18.97265625 21.359375 5.66015625 26.2890625 15.05859375 4.87109375 21.12109375 14.03125 8.28125 27.14453125 10.06640625 6.9609375 19.828125 7.2421875 11.87109375 25.890625 25.328125 32.0234375 -16.4296875 22.015625 19.19921875 -15.4921875 21.7109375 34.41015625 0 17.6328125 18.921875 0 22.015625 19.19921875 15.4921875 26.82421875 7.73828125 15.01953125 36.25 18.59375 27.59375 40.66796875 14.09765625 26.28515625 42.16015625 14.140625 29.60546875 47.7109375 12.51171875 23.24609375 48.69921875 12.50390625 26.61328125 56.1015625 13.30078125 21.6640625 32.58203125 47.05859375 19.70703125 32.09375 49.859375 11.4140625 18.18359375 49.36328125 0 20.421875 47.76953125 -12.37109375 12.6015625 42.08203125 -13.76953125 7.74609375 31.41796875 -24.10546875 5.91796875 20.015625 -27.3515625 39.48828125 -7.51953125 -0.12890625 41.36328125 -9.46875 -2.58984375 39.5859375 -8.1640625 0.51953125 42.3359375 -9.95703125 -1.98828125 39.5390625 -9.39453125 0.96875 42.1328125 -11.81640625 -1.66796875 41.390625 -13.35546875 -1.6796875 43.20703125 -13.09375 -5.859375 41.9765625 -15.09765625 -5.63671875 41.52734375 -15.49609375 -9.71484375 40.046875 -15.92578125 -5.4921875 39.21484375 -16.265625 -8.81640625 38.59765625 -15.9765625 -5.328125 37.6953125 -16.34765625 -8.09765625 22.80078125 45.7265625 18.28515625 12.6015625 42.08203125 13.76953125 4.83203125 32.6796875 15.4296875 3.53125 33.28125 0 1.6171875 20.55859375 0 2.12890625 20.31640625 -17.453125 6.55859375 10.53125 -9.3125 5.33984375 11.16796875 -19.44140625 25.83984375 -27.34765625 13.98828125 20.6015625 -28.51171875 17.38671875 32.41796875 -29.7109375 16.41796875 27.78515625 -30.328125 18.8203125 30.12109375 -26.0390625 21.109375 24.08984375 -28.92578125 20.84375 24.1328125 -24.73046875 23.19140625 18.72265625 -25.2890625 21.1875 20.78125 -20.75 23.27734375 20.9453125 -18.265625 22.8203125 23.53125 -14.609375 24.1796875 22.41796875 -13.84765625 22.90625 24.9296875 -8.30078125 21.6796875 39.7421875 -14.60546875 5.62890625 42.94921875 -15.80078125 6.60546875 40.4453125 -17.4375 12.19140625 41.703125 -22.16796875 12.26953125 36.59375 -19.28515625 16.3359375 37.8125 -23.52734375 16.33984375 33.90234375 -25.13671875 19.13671875 35.6484375 -28.55078125 13.7109375 31.99609375 -27.66796875 11.078125 41.921875 32.09375 26.453125 40.6171875 31.72265625 23.38671875 47.48046875 29.91015625 20.703125 52.79296875 30.84375 16.59375 57.296875 28.85546875 12.3984375 59.61328125 28.64453125 13.7890625 59.84375 30.21875 6.6015625 62.26953125 29.66015625 6.80078125 60.97265625 28.4609375 0 33.890625 -0.609375 14.76171875 35.07421875 -0.58203125 13.11328125 35.9296875 -0.46875 15.00390625 38.27734375 -0.5 12.94140625 39.74609375 -1.1484375 14.203125 39.80078125 -0.71875 9.390625 42.11328125 -1.25 10.13671875 40.6328125 -1.26953125 5.9140625 43.0703125 -1.98828125 5.8984375 40.87890625 -2.9296875 2.2265625 41.89453125 -3.48046875 2.08203125 38.52734375 -5.49609375 -0.4296875 39.03515625 -6.13671875 -0.71484375 33.75390625 -13.72265625 13.11328125 32.48046875 -12.7890625 14.76171875 35.9296875 -13.35546875 15.00390625 34.33203125 -11.171875 17.171875 37.58984375 -11.69921875 16.765625 34.4296875 -8.95703125 17.9921875 38.30078125 -9.140625 17.57421875 34.65234375 -6.4609375 17.7265625 38.3515625 -6.37109375 17.421875 34.94921875 -5.14453125 16.02734375 38.1796875 -4.9296875 15.7265625 34.77734375 -5.23046875 14.61328125 37.453125 -4.96875 14.3515625 39.48828125 -7.4296875 -0.12890625 39.5859375 -7.171875 0.37890625 41.36328125 -6.07421875 -2.58984375 42.1796875 -5.58203125 -1.98046875 43.7265625 -4.54296875 -5.8984375 42.33984375 -3.796875 -1.61328125 43.79296875 -2.76953125 -5.859375 41.89453125 -2.78125 -1.796875 42.5625 -1.17578125 -5.8984375 40.87890625 -2.48046875 -2.2265625 40.6328125 -1.26953125 -5.9140625 39.0625 -2.59765625 -2.81640625 38.8046875 -1.6328125 -5.953125 29.74609375 37.73046875 -26.86328125 37.9921875 43.6484375 -20.8984375 44.16015625 44.546875 -16.9921875 46.97265625 39.86328125 -18.03515625 55.015625 39.578125 -10.54296875 53.94921875 34.66796875 -17.93359375 58.0078125 32.40234375 -13.09375 61.24609375 30.62890625 -14.07421875 64.77734375 31.46875 -6.97265625 62.67578125 29.71875 -7 63.36328125 28.10546875 0 61.24609375 30.62890625 14.07421875 58.0078125 32.40234375 13.09375 64.375 31.4140625 6.77734375 61.73046875 32.984375 6.34765625 65.453125 30.00390625 0 62.9140625 31.7421875 0 62.1328125 33.04296875 -6.54296875 58.90625 39.328125 0 53.2265625 44.76953125 0 32.3046875 -11.265625 -15.96875 33.53125 -13.75 -13.6953125 34.484375 -12.40625 -16.171875 35.9296875 -14.83984375 -13.9375 36.99609375 -13.57421875 -15.3671875 39.30078125 -14.515625 -13.44921875 38.12890625 -11.06640625 -16.03125 41.125 -12.328125 -14.15625 38.40625 -9.0390625 -15.55859375 41.1015625 -10.09375 -13.65625 37.8046875 -8.5703125 -14.38671875 40.1328125 -9.72265625 -12.43359375 48.16015625 10.71875 26.45703125 55.6640625 11.2734375 21.1171875 63.05859375 11.71875 14.8828125 67.15234375 12.53125 7.4453125 26.82421875 7.73828125 -15.01953125 45.21875 6.8671875 -13.609375 24.671875 5.1640625 0 44.703125 4.234375 0 45.21875 6.8671875 13.609375 55.28515625 6.28515625 0 64.26171875 12.43359375 6.91796875 65.3203125 11.25390625 0 68.37890625 11.44921875 0 64.26171875 12.43359375 -6.91796875 59.6953125 11.8359375 -14.09765625 40.66796875 14.09765625 -26.28515625 47.7109375 12.51171875 -23.24609375 53.03125 13.296875 -19.3515625 24.1328125 -24.73046875 -23.19140625 27.75390625 -20.48828125 -21.08984375 27.0078125 -15.9140625 -23.296875 27.94921875 -15.51953125 -21.06640625 28.7890625 -10.0859375 -22.046875 31.5625 -6.796875 -18.76953125 31.42578125 -5.703125 -20.25 36.26953125 -1.07421875 -15.3828125 34.9609375 -0.1484375 -16.8984375 26.859375 31.953125 -30.78125 33.72265625 33 -29.30078125 41.015625 35.31640625 -24.83984375 34.671875 31.703125 -30.0078125 42.29296875 34.07421875 -25.7734375 34.07421875 -1.75 -14.76171875 34.92578125 -2.5390625 -16.61328125 35.9296875 -1.03125 -15.00390625 36.921875 -1.94921875 -16.1640625 39.9296875 -0.9609375 -14.12109375 37.8984375 -3.46484375 -16.65234375 41.60546875 -2.5546875 -14.6484375 38.1796875 -5.05078125 -16.0703125 41.39453125 -4.4609375 -14.015625 37.453125 -5.33984375 -14.00390625 39.98046875 -5 -12.2578125 31.234375 -10.546875 16.046875 30.9921875 -9.01171875 16.85546875 30.95703125 -6.83203125 16.578125 31.1796875 -5.52734375 15.3359375 31.625 -5.62890625 14.08984375 41.59375 -5.08203125 9.375 43.546875 -5.7734375 10.34375 44.19140625 -7.23828125 10.56640625 44.19921875 -10.1875 10.62890625 41.578125 -9.66015625 15.19921875 40.3671875 -12.3203125 14.5 26.59375 16.09375 -33.18359375 19.3515625 19.96484375 -33.78125 19.8125 14.921875 -33.91796875 11.796875 20.01953125 -32.6953125 11.9765625 13.29296875 -31.73828125 7.2421875 11.87109375 -25.890625 34.671875 31.703125 30.0078125 33.72265625 33 29.30078125 41.015625 35.31640625 24.83984375 29.74609375 37.73046875 26.86328125 40.0234375 39.71484375 22.6875 37.9921875 43.6484375 20.8984375 35.19140625 22.3203125 27.515625 39.48828125 -7.4296875 0.12890625 41.36328125 -6.07421875 2.58984375 39.5859375 -7.171875 -0.37890625 42.1796875 -5.58203125 1.98046875 39.5390625 -6.6875 -0.68359375 42.33984375 -4.56640625 1.87109375 43.79296875 -3.21484375 5.859375 36.37109375 -26.69140625 -7.83984375 39.484375 -25.63671875 -4.77734375 42.53515625 -24.359375 -5.7890625 43.4140625 -23.453125 0 44.8203125 -19.67578125 0 42.53515625 -24.359375 5.7890625 44.171875 -20.4609375 6.8359375 39.3671875 -26.50390625 10.390625 35.10546875 10.48828125 -29.73828125 37.359375 13.21875 -29.12109375 38.921875 7.48828125 -26.20703125 40.19921875 10.18359375 -26.8828125 44.9609375 8.7578125 -23.53515625 49.7265625 7.3359375 -20.1875 54.02734375 10.5078125 -20.2734375 56.59765625 5.71484375 -11.640625 31.99609375 -27.66796875 -11.078125 28.57421875 11.9375 -32.0234375 31.984375 5.515625 -28.3828125 25.88671875 8.13671875 -30.3828125 26.8359375 3.5546875 -25.4296875 21.359375 5.66015625 -26.2890625 24.78515625 2.875 -18.97265625 15.05859375 4.87109375 -21.12109375 34.92578125 -1.56640625 16.3046875 36.921875 -1.3203125 15.85546875 35.0625 -3.1953125 16.8984375 37.8984375 -2.765625 16.48828125 35.18359375 -5.01953125 15.97265625 38.1796875 -4.265625 15.671875 34.77734375 -5.4921875 14.23046875 37.453125 -4.7421875 14.00390625 42.89453125 -12.91796875 10.29296875 39.80078125 -14.48046875 9.390625 38.27734375 -14.06640625 12.94140625 37.5 -14.53515625 8.67578125 35.7734375 -14.3203125 11.05078125 36.66796875 -0.70703125 11.05078125 37.90234375 -1.125 8.67578125 38.8046875 -1.70703125 5.953125 39.0625 -3.29296875 2.81640625 29.95703125 20.1484375 -6.91796875 20.45703125 10.1640625 -32.37890625 14.03125 8.28125 -27.14453125 10.06640625 6.9609375 -19.828125 39.80078125 -0.9296875 -9.390625 42.0625 -0.83203125 -10.13671875 43.4375 -2.4140625 -10.45703125 43.38671875 -4.16796875 -10.34375 41.59375 -5.17578125 -9.375 41.96484375 -5.41015625 -5.71484375 59.3046875 4.66015625 0 63.94921875 9.53515625 -6.74609375 59.9765625 8.328125 -14.1640625 43.69140625 -2.43359375 12.3828125 38.80859375 -2.796875 9.390625 44.68359375 -6.20703125 5.59765625 40.45703125 -5.87890625 0 44.76953125 -7.0703125 0 44.68359375 -6.20703125 -5.59765625 41.41796875 -6.73046875 15.02734375 41.39453125 -5.30859375 13.94921875 39.98046875 -4.91015625 12.2578125 36.37109375 -26.69140625 7.83984375 39.484375 -25.63671875 4.77734375 39.9375 -24.875 0 38.35546875 -24.03515625 -4.27734375 33.078125 -2.78125 -16.08203125 32.5234375 -4.41796875 -16.40234375 35.0625 -4.12109375 -16.953125 32.53125 -5.8828125 -16.1171875 35.18359375 -5.44921875 -16.37109375 32.57421875 -6.109375 -14.296875 34.77734375 -5.69140625 -14.23046875 34.9296875 -7.29296875 -14.40625 34.89453125 -7.60546875 -16.34375 34.7734375 -9.6875 -16.8203125 50.66015625 44.83984375 -10.83984375 27.7734375 -4.3203125 19.46875 29.56640625 -4.47265625 20.83203125 26.28515625 -8.59375 22.9765625 28.7890625 -10.0859375 22.046875 27.0078125 -15.9140625 23.296875 27.94921875 -15.51953125 21.06640625 59.04296875 7.73046875 6.91015625 60.0234375 12.1328125 5.578125 60.5625 7.4375 0 62.08203125 16.55859375 0 59.04296875 7.73046875 -6.91015625 60.56640625 16.53515625 -6.91015625 55.66015625 8.0234375 -13.8203125 57.19140625 16.51171875 -13.8203125 35.07421875 -1.19921875 12.94140625 31.5625 -6.796875 18.76953125 36.26953125 -1.07421875 15.3828125 31.42578125 -5.703125 20.25 34.9609375 -0.1484375 16.8984375 32.21484375 -0.0703125 14.72265625 53.03125 13.296875 19.3515625 59.6953125 11.8359375 14.09765625 29.91015625 33.3671875 -22.56640625 30.63671875 26.29296875 -22.3671875 23.62109375 31.24609375 -23.55078125 24.07421875 25.7734375 -23.34765625 23.33203125 31.1484375 -27.4453125 24.0390625 25.91796875 -27.2421875 30.3828125 33.52734375 -26.08984375 31.39453125 26.5 -25.88671875 59.61328125 28.64453125 -13.7890625 56.04296875 33.125 -19.91796875 49.6171875 31.98828125 -23.96484375 51.29296875 -1.91015625 5.75 51.85546875 -2.64453125 0 51.29296875 -1.91015625 -5.75 43.69140625 -2.43359375 -12.3828125 41.59375 -4.43359375 9.375 39.98046875 -4.28515625 12.2578125 43.38671875 -3.7421875 10.34375 41.39453125 -3.8203125 13.94921875 43.48828125 -2.43359375 10.45703125 41.125 -2.484375 14.71875 23.53125 -14.609375 -24.1796875 26.28515625 -8.59375 -22.9765625 24.9296875 -8.30078125 -21.6796875 29.56640625 -4.47265625 -20.83203125 27.7734375 -4.3203125 -19.46875 32.21484375 -0.0703125 -14.72265625 41.96484375 -5.01171875 5.71484375 43.7265625 -4.54296875 5.8984375 60.24609375 30.27734375 -6.80078125 11.9765625 13.29296875 31.73828125 20.45703125 10.1640625 32.37890625 25.88671875 8.13671875 30.3828125 25.09765625 27.96484375 -15.671875 27.09375 28.234375 -10.76171875 32.00390625 27.85546875 -12.734375 20.421875 47.76953125 12.37109375 10.109375 43.984375 0 20.78125 -20.75 -23.27734375 20.9453125 -18.265625 -22.8203125 22.41796875 -13.84765625 -22.90625 31.75 -8.421875 -16.41015625 31.7578125 -5.7890625 -16.234375 31.8046875 -5.890625 -14.296875 54.7890625 35.46484375 13.8203125 58.16796875 35.36328125 6.91015625 54.984375 26.09375 13.8203125 58.40234375 25.94921875 6.91015625 57.484375 24.82421875 6.61328125 58.41015625 24.7421875 0.87890625 53.69921875 25.4765625 5.72265625 54.6796875 25.84765625 0.95703125 20.1171875 27.68359375 32.375 11.796875 20.01953125 32.6953125 19.3515625 19.96484375 33.78125 19.8125 14.921875 33.91796875 26.59375 16.09375 33.18359375 30.640625 -6.8125 17.578125 27.82421875 -15.43359375 19.27734375 27.75390625 -20.48828125 21.08984375 4.83203125 32.6796875 -15.4296875 39.3359375 -8.1640625 -0.7734375 39.10546875 -8.921875 -0.84765625 38.875 -9.58984375 -0.8046875 38.32421875 -10.23046875 -0.4296875 30.9453125 9.8828125 21.50390625 30.95703125 17.41015625 21.703125 24.53125 10.2421875 22.484375 24.3828125 17.34765625 22.6875 25.57421875 16.19921875 27.2421875 25.62890625 17.34375 26.26953125 32.9453125 16.26953125 25.88671875 55.66015625 8.0234375 13.8203125 58.1171875 11.31640625 10.3671875 55.484375 12.36328125 14.74609375 57.265625 12.125 9.90234375 55.66015625 13.1328125 13.2109375 51.82421875 13.01171875 10.7265625 45.69140625 9.0234375 22.04296875 32.9140625 9.82421875 25.68359375 46.73046875 16.40625 22.24609375 46.2109375 17.546875 21.4375 32.80078125 17.4140625 25.0078125 46.875 34.171875 -22.3046875 35.07421875 -15.328125 -12.05078125 37.87109375 -15.71875 -11.953125 32.5625 -20.4765625 -19.5078125 36.59375 -19.28515625 -16.3359375 32.5625 -20.4765625 19.5078125 34.08203125 -17.67578125 14.46875 37.61328125 -15.96484375 10.7109375 60.765625 16.1015625 5.3203125 59.859375 17.8046875 4.95703125 61.13671875 17.6953125 0 56.45703125 17.59375 4.609375 56.90234375 17.66796875 0 43.140625 -10.96875 -5.8984375 42.80078125 -10.84765625 -10.34375 42.90234375 -13.01171875 -10.45703125 41.96484375 -10.27734375 -5.71484375 41.59375 -10.33203125 -9.375 35.65625 1.140625 -21.8125 45.5859375 3.28125 -19.734375 50.66796875 0.15234375 -11.7265625 32.3984375 28.3046875 -18.60546875 32.57421875 -6.11328125 14.296875 32.53125 -5.65625 15.71875 32.5234375 -3.79296875 16.27734375 30.3828125 33.52734375 26.08984375 44.51171875 35.34375 22.44921875 31.39453125 26.5 25.88671875 44.67578125 26.00390625 22.24609375 30.63671875 26.29296875 22.3671875 42.48046875 25.6484375 19.01171875 55.734375 16.390625 15.16796875 55.46875 17.91015625 14.1953125 36.55859375 28.2578125 -12.19921875 58.87109375 12.88671875 6.59765625 58.8359375 16.12109375 6.609375 31.01953125 -19.31640625 16.5234375 27.21484375 -19.8671875 18.83984375 24.07421875 25.7734375 23.34765625 24.0390625 25.91796875 27.2421875 23.33203125 31.1484375 27.4453125 38.27734375 -0.8828125 -12.94140625 37.90234375 -1.33203125 -8.67578125 59.6953125 17.671875 -6.61328125 56.390625 17.6484375 -13.23046875 53.734375 30.5 -5.72265625 57.52734375 29.87890625 -6.53125 54.30078125 26.6640625 -6.02734375 57.41796875 26.1171875 -6.87890625 53.69921875 25.4765625 -6.9609375 57.35546875 24.82421875 -7.92578125 54.1640625 8.13671875 5.328125 55.3984375 7.87890625 0 54.91796875 12.890625 5.36328125 55.3125 15.99609375 4.93359375 54.79296875 30.76953125 0 58.48046875 29.92578125 -0.51171875 54.26171875 31.3125 -2.859375 58.1796875 30.44921875 -3.3046875 32.80078125 17.4140625 -25.0078125 25.62890625 17.34375 -26.26953125 32.9453125 16.26953125 -25.88671875 25.57421875 16.19921875 -27.2421875 32.9140625 9.82421875 -25.68359375 25.69921875 10.27734375 -27.04296875 55.50390625 26.92578125 -0.1875 58.59765625 26.08203125 -0.5078125 53.37109375 12.06640625 8.04296875 55.67578125 17.64453125 -5.39453125 54.1640625 8.13671875 -5.328125 52.58203125 17.625 -10.7890625 51.06640625 8.39453125 -10.66015625 42.29296875 34.07421875 25.7734375 25.69140625 20.64453125 33.19140625 31.91796875 28.51171875 -31.0546875 31.984375 25.81640625 -31.5625 38.39453125 -13.51171875 -2.29296875 39.7734375 -13.875 -1.94921875 28.57421875 11.9375 32.0234375 40.0234375 39.71484375 -22.6875 35.07421875 -1.1796875 -13.11328125 36.66796875 -1.08984375 -11.05078125 58.40234375 25.94921875 -8.43359375 58.28515625 30.65625 -7.54296875 39.21484375 -23.21484375 0 38.35546875 -24.03515625 4.27734375 30.640625 -6.8125 -17.578125 27.82421875 -15.43359375 -19.27734375 37.61328125 -15.96484375 -10.7109375 40.4453125 -17.4375 -12.19140625 38.52734375 -5.49609375 0.4296875 37.8125 -5.40234375 -0.01171875 39.5390625 -6.6875 0.68359375 39.03515625 -6.13671875 0.71484375 59.734375 30.53515625 0.51953125 59.7109375 25.8046875 0.79296875 25.83984375 -27.34765625 -13.98828125 43.25 17.53125 18.34765625 52.30078125 17.625 12.12890625 54.13671875 24.96484375 13.23046875 51.80078125 25.1015625 -11.44921875 51.71875 35.36328125 -11.44921875 25.69921875 10.27734375 27.04296875 54.13671875 24.96484375 -13.23046875 54.984375 26.09375 -13.8203125 44.67578125 26.00390625 -22.24609375 54.7890625 35.46484375 -13.8203125 44.51171875 35.34375 -22.44921875 38.80859375 -2.796875 -9.390625 55.80078125 16.30859375 13.41015625 51.2109375 16.0546875 10.54296875 27.21484375 -19.8671875 -18.83984375 31.01953125 -19.31640625 -16.5234375 35.07421875 -1.19921875 -12.94140625 51.06640625 8.39453125 10.66015625 4.66015625 12.00390625 0 36.66796875 -16.171875 -10.47265625 34.08203125 -17.67578125 -14.46875 30.9453125 9.8828125 -21.50390625 24.53125 10.2421875 -22.484375 30.95703125 17.41015625 -21.703125 24.3828125 17.34765625 -22.6875 42.23046875 9.2578125 -18.14453125 43.25 17.53125 -18.34765625 37.8125 -5.40234375 0.01171875 39.03515625 -10.35546875 0.92578125 38.52734375 -11.1875 0.640625 42.23046875 9.2578125 18.14453125 51.80078125 25.1015625 11.44921875 51.71875 35.36328125 11.44921875 53.76953125 35.52734375 5.72265625 42.48046875 25.6484375 -19.01171875 42.54296875 34.96875 -19.2109375 42.54296875 34.96875 19.2109375 29.91015625 33.3671875 22.56640625 23.62109375 31.24609375 23.55078125 34.92578125 -25.10546875 -7.31640625 34.92578125 -25.10546875 7.31640625 53.76953125 35.52734375 -5.72265625 54.90625 35.69140625 0 33.078125 -1.7890625 15.7734375 50.66796875 0.15234375 11.7265625 45.69140625 9.0234375 -22.04296875 46.73046875 16.40625 -22.24609375 46.2109375 17.546875 -21.4375 58.16796875 35.36328125 -6.91015625 59.0078125 31.26953125 -3.453125 59.59765625 35.26171875 0 37.8125 -11.49609375 -0.0859375 37.8125 -10.5859375 0.01171875 41.96484375 -5.54296875 5.71484375 31.67578125 -26.140625 -10.265625 31.67578125 -26.140625 10.265625</float_array>
                    <technique_common>
                        <accessor count="742" source="#pointarray0" stride="3">
                            <param name="X" type="float"/>
                            <param name="Y" type="float"/>
                            <param name="Z" type="float"/>
                        </accessor>
                    </technique_common>
                </source>
                <source id="uvs0">
                    <float_array id="uvarray0" count="942">0.52386474609375 0.29620361328125 0.5614013671875 0.25531005859375 0.5614013671875 0.29620361328125 0.5989990234375 0.29620361328125 0.5614013671875 0.30670166015625 0.6007080078125 0.30670166015625 0.5614013671875 0.3172607421875 0.60247802734375 0.3172607421875 0.5960693359375 0.325927734375 0.6119384765625 0.3302001953125 0.5614013671875 0.33453369140625 0.58392333984375 0.33514404296875 0.5614013671875 0.33514404296875 0.5614013671875 0.33282470703125 0.53887939453125 0.33514404296875 0.5467529296875 0.33282470703125 0.50885009765625 0.33056640625 0.51690673828125 0.32916259765625 0.4989013671875 0.3172607421875 0.50885009765625 0.3172607421875 0.50054931640625 0.30670166015625 0.51104736328125 0.30670166015625 0.50213623046875 0.29620361328125 0.51318359375 0.29620361328125 0.51849365234375 0.2667236328125 0.52557373046875 0.27777099609375 0.5614013671875 0.26544189453125 0.5443115234375 0.29620361328125 0.5452880859375 0.30902099609375 0.5614013671875 0.3104248046875 0.5614013671875 0.32464599609375 0.57659912109375 0.32183837890625 0.57611083984375 0.33282470703125 0.61395263671875 0.33056640625 0.6239013671875 0.3172607421875 0.62139892578125 0.3172607421875 0.622314453125 0.30670166015625 0.619873046875 0.30670166015625 0.62066650390625 0.29620361328125 0.61834716796875 0.29620361328125 0.6043701171875 0.2667236328125 0.6025390625 0.26953125 0.5614013671875 0.25177001953125 0.520263671875 0.26953125 0.50445556640625 0.29620361328125 0.50299072265625 0.30670166015625 0.4979248046875 0.4658203125 0.49835205078125 0.451171875 0.48956298828125 0.47021484375 0.48504638671875 0.4530029296875 0.4696044921875 0.45892333984375 0.4639892578125 0.44036865234375 0.437744140625 0.447998046875 0.4185791015625 0.43634033203125 0.4130859375 0.45709228515625 0.397216796875 0.44384765625 0.3721923828125 0.4456787109375 0.3721923828125 0.42950439453125 0.34197998046875 0.427978515625 0.3656005859375 0.40765380859375 0.3125 0.41180419921875 0.3104248046875 0.39202880859375 0.254150390625 0.40826416015625 0.254150390625 0.3896484375 0.31378173828125 0.38470458984375 0.33062744140625 0.3896484375 0.317138671875 0.37744140625 0.35076904296875 0.3873291015625 0.36785888671875 0.37225341796875 0.39019775390625 0.37744140625 0.37640380859375 0.364501953125 0.4014892578125 0.37042236328125 0.38458251953125 0.35595703125 0.412109375 0.36334228515625 0.99212646484375 0.5897216796875 0.96636962890625 0.5751953125 0.96636962890625 0.58978271484375 0.94921875 0.57989501953125 0.93511962890625 0.58770751953125 0.9241943359375 0.5633544921875 0.89141845703125 0.55853271484375 0.89923095703125 0.54681396484375 0.83203125 0.52740478515625 0.90386962890625 0.539794921875 0.83514404296875 0.51898193359375 0.84136962890625 0.5106201171875 0.79693603515625 0.51373291015625 0.80010986328125 0.5064697265625 0.7587890625 0.508544921875 0.7587890625 0.50225830078125 0.80322265625 0.50018310546875 0.84765625 0.50439453125 0.9163818359375 0.53564453125 0.92950439453125 0.5322265625 0.94140625 0.555419921875 0.9542236328125 0.55267333984375 0.9788818359375 0.5731201171875 0.9927978515625 0.58892822265625 0.161376953125 0.24981689453125 0.1531982421875 0.25762939453125 0.16754150390625 0.2623291015625 0.15985107421875 0.26751708984375 0.17523193359375 0.27679443359375 0.1673583984375 0.27874755859375 0.16131591796875 0.25018310546875 0.15325927734375 0.257568359375 0.1458740234375 0.23577880859375 0.13720703125 0.24420166015625 0.128662109375 0.22479248046875 0.12005615234375 0.2342529296875 0.10919189453125 0.2154541015625 0.10382080078125 0.2254638671875 0.07403564453125 0.21575927734375 0.071533203125 0.26007080078125 0.00897216796875 0.23785400390625 0.00872802734375 0.2821044921875 0.082763671875 0.298583984375 0.49395751953125 0.42840576171875 0.47900390625 0.43548583984375 0.4683837890625 0.42205810546875 0.4444580078125 0.4276123046875 0.3721923828125 0.4617919921875 0.39215087890625 0.475341796875 0.32183837890625 0.47845458984375 0.3375244140625 0.4949951171875 0.29364013671875 0.4964599609375 1 0.95001220703125 0.96246337890625 1 0.93121337890625 0.9666748046875 0.88824462890625 0.9752197265625 0.86248779296875 0.92919921875 0.8143310546875 0.97064208984375 0.80657958984375 0.9302978515625 0.7210693359375 0.948486328125 0.724609375 0.92144775390625 0.654541015625 0.93353271484375 0.65753173828125 0.91253662109375 0.58746337890625 0.9041748046875 0.5914306640625 0.862548828125 0.5062255859375 0.85418701171875 0.59375 0.82086181640625 0.5062255859375 0.81671142578125 0.52435302734375 0.01605224609375 0.5244140625 0.031005859375 0.5345458984375 0.00994873046875 0.5340576171875 0.02801513671875 0.54766845703125 0.02496337890625 0.53448486328125 0.044189453125 0.54827880859375 0.04571533203125 0.534912109375 0.0521240234375 0.54864501953125 0.05462646484375 0.53533935546875 0.05999755859375 0.54901123046875 0.0634765625 0.53607177734375 0.068603515625 0.54937744140625 0.07415771484375 0.537109375 0.07733154296875 0.5494384765625 0.081298828125 0.5972900390625 0.27777099609375 0.60968017578125 0.29620361328125 0.57855224609375 0.29620361328125 0.61181640625 0.30670166015625 0.57757568359375 0.30902099609375 0.61395263671875 0.3172607421875 0.60589599609375 0.32916259765625 0.9918212890625 0.59075927734375 0.96014404296875 0.59600830078125 0.93511962890625 0.6043701171875 0.89141845703125 0.58978271484375 0.91015625 0.61273193359375 0.87261962890625 0.6085205078125 0.9163818359375 0.62310791015625 0.87890625 0.62939453125 0.92266845703125 0.633544921875 0.87261962890625 0.6474609375 0.92889404296875 0.64605712890625 0.8759765625 0.6627197265625 0.07952880859375 0.28729248046875 0.0084228515625 0.30670166015625 0.00860595703125 0.296875 0.07745361328125 0.2806396484375 0.1373291015625 0.24371337890625 0.1458740234375 0.23583984375 0.1212158203125 0.2344970703125 0.128662109375 0.22503662109375 0.109619140625 0.21588134765625 0.254150390625 0.427001953125 0.311767578125 0.4263916015625 0.31317138671875 0.44000244140625 0.52435302734375 0.04290771484375 0.5633544921875 0.063232421875 0.56402587890625 0.0748291015625 0.56439208984375 0.08135986328125 0.31561279296875 0.4617919921875 0.254150390625 0.46453857421875 0.254150390625 0.481201171875 0.856201171875 1 0.94708251953125 0.91668701171875 0.97705078125 0.89483642578125 0.99371337890625 0.875 0.95623779296875 0.8375244140625 0.981201171875 0.8375244140625 0.9375 0.7708740234375 0.6624755859375 0.870849609375 0.729248046875 0.87921142578125 0.7183837890625 0.96136474609375 0.0770263671875 0.20550537109375 0.0418701171875 0.20947265625 0.04132080078125 0.20068359375 0.00897216796875 0.2095947265625 0.5919189453125 0.06256103515625 0.58758544921875 0.07098388671875 0.58551025390625 0.06402587890625 0.575439453125 0.0714111328125 0.57440185546875 0.05987548828125 0.5264892578125 0.0633544921875 0.52484130859375 0.053466796875 0.59112548828125 0.052001953125 0.5845947265625 0.05523681640625 0.59222412109375 0.04486083984375 0.58465576171875 0.0474853515625 0.59332275390625 0.03765869140625 0.58477783203125 0.03973388671875 0.59326171875 0.02166748046875 0.58453369140625 0.02203369140625 0.5928955078125 0.0064697265625 0.5836181640625 0.006591796875 0.42498779296875 0.41802978515625 0.37652587890625 0.40155029296875 0.32330322265625 0.3619384765625 0.32623291015625 0.3525390625 0.29022216796875 0.351318359375 0.2918701171875 0.33984375 0.254150390625 0.338623046875 0.28875732421875 0.36065673828125 0.254150390625 0.35003662109375 0.254150390625 0.35943603515625 0.254150390625 0.37493896484375 0.254150390625 0.38226318359375 0.32952880859375 0.34112548828125 0.5963134765625 0.05413818359375 0.57391357421875 0.04278564453125 0.57354736328125 0.02301025390625 0.57318115234375 0.00677490234375 0.0711669921875 0.260498046875 0.0086669921875 0.28704833984375 0.00885009765625 0.262451171875 0.00897216796875 0.22314453125 0.0418701171875 0.20941162109375 0.00897216796875 0.19854736328125 0.04144287109375 0.20068359375 0.073974609375 0.21575927734375 0.10284423828125 0.22479248046875 0.077392578125 0.205078125 0.8812255859375 0.88751220703125 0.9124755859375 0.8375244140625 0.86871337890625 0.8375244140625 0.8779296875 0.7933349609375 0.8125 0.75836181640625 0.83123779296875 0.75 0.731201171875 0.70001220703125 0.74371337890625 0.69171142578125 0.457763671875 0.40869140625 0.4124755859375 0.38262939453125 0.4703369140625 0.40557861328125 0.426513671875 0.37640380859375 0.43963623046875 0.37078857421875 0.59814453125 0.045654296875 0.59991455078125 0.0372314453125 0.599853515625 0.02130126953125 0.59979248046875 0.00640869140625 0.56097412109375 0.00567626953125 0.56158447265625 0.02374267578125 0.5625 0.045654296875 0.56292724609375 0.054443359375 0.57415771484375 0.05133056640625 0.47698974609375 0.47515869140625 0.46063232421875 0.4622802734375 0.4686279296875 0.47918701171875 0.4342041015625 0.4710693359375 0.44061279296875 0.4888916015625 0.39373779296875 0.49755859375 0.38433837890625 0.397216796875 0.6519775390625 0.94622802734375 0.58404541015625 0.92919921875 0.5855712890625 0.9202880859375 0.5062255859375 0.9105224609375 0.5062255859375 0.89617919921875 0.99322509765625 0.5914306640625 0.99407958984375 0.602294921875 0.97265625 0.610595703125 0.94140625 0.61376953125 0.57684326171875 0.0777587890625 0.54620361328125 0.32183837890625 0.99066162109375 0.61163330078125 0.98516845703125 0.62103271484375 0.9476318359375 0.62310791015625 0.96014404296875 0.633544921875 0.5474853515625 0.00634765625 0.75909423828125 0.5205078125 0.833984375 0.56158447265625 0.81011962890625 0.579345703125 0.79107666015625 0.55963134765625 0.7606201171875 0.5689697265625 0.76043701171875 0.55908203125 0.5062255859375 0.920166015625 0.5819091796875 0.93798828125 0.86871337890625 0.72503662109375 0.8499755859375 0.737548828125 0.913818359375 0.77947998046875 0.5614013671875 0.2294921875 0.5577392578125 0.20770263671875 0.50469970703125 0.23138427734375 0.50482177734375 0.1859130859375 0.56402587890625 0.1859130859375 0.6239013671875 0.2275390625 0.623291015625 0.1859130859375 0.71697998046875 0.71044921875 0.7562255859375 0.683349609375 0.623291015625 0.21710205078125 0.623291015625 0.17120361328125 0.5614013671875 0.2119140625 0.5614013671875 0.17120361328125 0.5614013671875 0.21173095703125 0.5614013671875 0.17230224609375 0.623291015625 0.217529296875 0.623291015625 0.17230224609375 0.4495849609375 0.202880859375 0.275390625 0.180908203125 0.3568115234375 0.25689697265625 0.2767333984375 0.25689697265625 0.278564453125 0.31988525390625 0.357421875 0.32000732421875 0.45458984375 0.32806396484375 0.51092529296875 0.3302001953125 0.5267333984375 0.325927734375 0.5203857421875 0.3172607421875 0.254150390625 0.4478759765625 0.50372314453125 0.2454833984375 0.5634765625 0.24737548828125 0.50372314453125 0.17230224609375 0.5634765625 0.17230224609375 0.5634765625 0.17120361328125 0.5634765625 0.16845703125 0.623291015625 0.16845703125 0.79998779296875 0.76251220703125 0.856201171875 0.8375244140625 0.52459716796875 0.0482177734375 0.50482177734375 0.2198486328125 0.50482177734375 0.17889404296875 0.5614013671875 0.21466064453125 0.5614013671875 0.17889404296875 0.5614013671875 0.1859130859375 0.50653076171875 0.23284912109375 0.54705810546875 0.2325439453125 0.5264892578125 0.23052978515625 0.546875 0.22930908203125 0.52642822265625 0.22613525390625 0.54608154296875 0.224853515625 0.54241943359375 0.216552734375 0.50482177734375 0.21929931640625 0.623291015625 0.22021484375 0.623291015625 0.17889404296875 0.8026123046875 0.88812255859375 0.7562255859375 0.85003662109375 0.6624755859375 0.8292236328125 0.55377197265625 0.1859130859375 0.55487060546875 0.17889404296875 0.56402587890625 0.16845703125 0.50482177734375 0.16845703125 0.8341064453125 0.5465087890625 0.50146484375 0.3172607421875 0.50372314453125 0.217529296875 0.623291015625 0.22381591796875 0.50372314453125 0.16845703125 0.50482177734375 0.2275390625 0.623291015625 0.21929931640625 0.5111083984375 0.20672607421875 0.50738525390625 0.1859130859375 0.5220947265625 0.30670166015625 0.50799560546875 0.2091064453125 0.5130615234375 0.20928955078125 0.51519775390625 0.17633056640625 0.514404296875 0.17962646484375 0.51580810546875 0.168701171875 0.55517578125 0.1705322265625 0.79998779296875 0.862548828125 0.86248779296875 0.875 0.5614013671875 0.16845703125 0.56402587890625 0.17889404296875 0.5054931640625 0.21124267578125 0.55072021484375 0.2080078125 0.5068359375 0.182373046875 0.551513671875 0.17901611328125 0.50726318359375 0.17254638671875 0.55267333984375 0.16912841796875 0.56109619140625 0.226806640625 0.50469970703125 0.228515625 0.56256103515625 0.20782470703125 0.563720703125 0.18505859375 0.59283447265625 0.2298583984375 0.59234619140625 0.21588134765625 0.5762939453125 0.230224609375 0.5762939453125 0.21539306640625 0.5599365234375 0.2320556640625 0.5577392578125 0.21728515625 0.50482177734375 0.22021484375 0.5614013671875 0.21441650390625 0.5618896484375 0.1778564453125 0.51727294921875 0.1761474609375 0.561279296875 0.1861572265625 0.51885986328125 0.184326171875 0.560791015625 0.21026611328125 0.518798828125 0.2103271484375 0.50738525390625 0.22503662109375 0.52587890625 0.218505859375 0.510009765625 0.2181396484375 0.5096435546875 0.23272705078125 0.623291015625 0.22509765625 0.5633544921875 0.17816162109375 0.55999755859375 0.20892333984375 0.5062255859375 0.93243408203125 0.52764892578125 0.0712890625 0.623291015625 0.2120361328125 0.45416259765625 0.27215576171875 0.84454345703125 0.59393310546875 0.50372314453125 0.22381591796875 0.623291015625 0.2479248046875 0.5634765625 0.18084716796875 0.5634765625 0.20916748046875 0.50372314453125 0.17120361328125 0.56207275390625 0.211181640625 0.56396484375 0.18133544921875 0.62139892578125 0.1817626953125 0.61395263671875 0.171142578125 0.61175537109375 0.18157958984375 0.57904052734375 0.1695556640625 0.57244873046875 0.17938232421875 0.57080078125 0.20843505859375 0.6104736328125 0.208984375 0.6207275390625 0.20556640625 0.5634765625 0.21112060546875 0.50701904296875 0.22943115234375 0.5419921875 0.23095703125 0.254150390625 0.4915771484375 0.48101806640625 0.4029541015625 0.623291015625 0.2198486328125 0.50482177734375 0.2177734375 0.623291015625 0.2177734375 0.50482177734375 0.22509765625 0.7587890625 0.49603271484375 0.5634765625 0.2471923828125 0.623291015625 0.2222900390625 0.50372314453125 0.21710205078125 0.50372314453125 0.2222900390625 0.623291015625 0.2454833984375 0.6492919921875 0.9549560546875 0.847412109375 0.66326904296875 0.50482177734375 0.20196533203125 0.50482177734375 0.18414306640625 0.623291015625 0.1796875 0.623291015625 0.21002197265625 0.5933837890625 0.2095947265625 0.623291015625 0.2489013671875 0.5933837890625 0.2115478515625 0.623291015625 0.24932861328125 0.5560302734375 0.2132568359375 0.57586669921875 0.21112060546875 0.59588623046875 0.21044921875 0.50592041015625 0.18255615234375 0.71807861328125 0.9718017578125 0.50592041015625 0.2100830078125</float_array>
                    <technique_common>
                        <accessor count="471" source="#uvarray0" stride="2">
                            <param name="S" type="float"/>
                            <param name="T" type="float"/>
                        </accessor>
                    </technique_common>
                </source>
                <vertices id="vertices0">
                    <input semantic="POSITION" source="#points0"/>
                </vertices>
                <polylist count="1276" material="Material1">
                    <input offset="0" semantic="VERTEX" source="#vertices0"/>
                    <input offset="1" semantic="TEXCOORD" source="#uvs0" set="0"/>
                    <vcount>3 3 3 3 3 3 3 3 3 3 3 3 3 3 3 3 3 3 3 3 3 3 3 3 3 3 3 3 3 3 3 3 3 3 3 3 3 3 3 3 3 3 3 3 3 3 3 3 3 3 3 3 3 3 3 3 3 3 3 3 3 3 3 3 3 3 3 3 3 3 3 3 3 3 3 3 3 3 3 3 3 3 3 3 3 3 3 3 3 3 3 3 3 3 3 3 3 3 3 3 3 3 3 3 3 3 3 3 3 3 3 3 3 3 3 3 3 3 3 3 3 3 3 3 3 3 3 3 3 3 3 3 3 3 3 3 3 3 3 3 3 3 3 3 3 3 3 3 3 3 3 3 3 3 3 3 3 3 3 3 3 3 3 3 3 3 3 3 3 3 3 3 3 3 3 3 3 3 3 3 3 3 3 3 3 3 3 3 3 3 3 3 3 3 3 3 3 3 3 3 3 3 3 3 3 3 3 3 3 3 3 3 3 3 3 3 3 3 3 3 3 3 3 3 3 3 3 3 3 3 3 3 3 3 3 3 3 3 3 3 3 3 3 3 3 3 3 3 3 3 3 3 3 3 3 3 3 3 3 3 3 3 3 3 3 3 3 3 3 3 3 3 3 3 3 3 3 3 3 3 3 3 3 3 3 3 3 3 3 3 3 3 3 3 3 3 3 3 3 3 3 3 3 3 3 3 3 3 3 3 3 3 3 3 3 3 3 3 3 3 3 3 3 3 3 3 3 3 3 3 3 3 3 3 3 3 3 3 3 3 3 3 3 3 3 3 3 3 3 3 3 3 3 3 3 3 3 3 3 3 3 3 3 3 3 3 3 3 3 3 3 3 3 3 3 3 3 3 3 3 3 3 3 3 3 3 3 3 3 3 3 3 3 3 3 3 3 3 3 3 3 3 3 3 3 3 3 3 3 3 3 3 3 3 3 3 3 3 3 3 3 3 3 3 3 3 3 3 3 3 3 3 3 3 3 3 3 3 3 3 3 3 3 3 3 3 3 3 3 3 3 3 3 3 3 3 3 3 3 3 3 3 3 3 3 3 3 3 3 3 3 3 3 3 3 3 3 3 3 3 3 3 3 3 3 3 3 3 3 3 3 3 3 3 3 3 3 3 3 3 3 3 3 3 3 3 3 3 3 3 3 3 3 3 3 3 3 3 3 3 3 3 3 3 3 3 3 3 3 3 3 3 3 3 3 3 3 3 3 3 3 3 3 3 3 3 3 3 3 3 3 3 3 3 3 3 3 3 3 3 3 3 3 3 3 3 3 3 3 3 3 3 3 3 3 3 3 3 3 3 3 3 3 3 3 3 3 3 3 3 3 3 3 3 3 3 3 3 3 3 3 3 3 3 3 3 3 3 3 3 3 3 3 3 3 3 3 3 3 3 3 3 3 3 3 3 3 3 3 3 3 3 3 3 3 3 3 3 3 3 3 3 3 3 3 3 3 3 3 3 3 3 3 3 3 3 3 3 3 3 3 3 3 3 3 3 3 3 3 3 3 3 3 3 3 3 3 3 3 3 3 3 3 3 3 3 3 3 3 3 3 3 3 3 3 3 3 3 3 3 3 3 3 3 3 3 3 3 3 3 3 3 3 3 3 3 3 3 3 3 3 3 3 3 3 3 3 3 3 3 3 3 3 3 3 3 3 3 3 3 3 3 3 3 3 3 3 3 3 3 3 3 3 3 3 3 3 3 3 3 3 3 3 3 3 3 3 3 3 3 3 3 3 3 3 3 3 3 3 3 3 3 3 3 3 3 3 3 3 3 3 3 3 3 3 3 3 3 3 3 3 3 3 3 3 3 3 3 3 3 3 3 3 3 3 3 3 3 3 3 3 3 3 3 3 3 3 3 3 3 3 3 3 3 3 3 3 3 3 3 3 3 3 3 3 3 3 3 3 3 3 3 3 3 3 3 3 3 3 3 3 3 3 3 3 3 3 3 3 3 3 3 3 3 3 3 3 3 3 3 3 3 3 3 3 3 3 3 3 3 3 3 3 3 3 3 3 3 3 3 3 3 3 3 3 3 3 3 3 3 3 3 3 3 3 3 3 3 3 3 3 3 3 3 3 3 3 3 3 3 3 3 3 3 3 3 3 3 3 3 3 3 3 3 3 3 3 3 3 3 3 3 3 3 3 3 3 3 3 3 3 3 3 3 3 3 3 3 3 3 3 3 3 3 3 3 3 3 3 3 3 3 3 3 3 3 3 3 3 3 3 3 3 3 3 3 3 3 3 3 3 3 3 3 3 3 3 3 3 3 3 3 3 3 3 3 3 3 3 3 3 3 3 3 3 3 3 3 3 3 3 3 3 3 3 3 3 3 3 3 3 3 3 3 3 3 3 3 3 3 3 3 3 3 3 3 3 3 3 3 3 3 3 3 3 3 3 3 3 3 3 3 3 3 3 3 3 3 3 3 3 3 3 3 3 3 3 3 3 3 3 3 3 3 3 3 3 3 3 3 3 3 3 3 3 3 3 3 3 3 3 3 3 3 3 3 3 3 3 3 3 3 3 3 3 3 3 3 3 3 3 3 3 3 3 3 3 3 3 3 3 3 3 3 3 3 3 3 3 3 3 3 3 3 3 3 3 3 3 3 3 3 3 3 3 3 3 3 3 3 3 3 3 3 3 3 3 3 3 3 3 3 3 3 3 3 3 3 3 3 3 3 3 3 3 3 3 3 3 3 3 3 3 3 3 3 3 3 3 3 3 3 3 3 3 3 3 3 3 3 3 3 3 3 3 3 3 3 3 3 3 3 3 3 3 3 3 3 3 3 3 3 3 3 3 3 3 3 3 3 3 3 3 3 3 3 3 3 3 3 3 3 3 3 3 3 3 3 3 3 3 3 3 3 3 3</vcount>
                    <p>2 2 1 1 0 0 3 3 1 1 2 2 4 4 3 3 2 2 5 5 3 3 4 4 6 6 5 5 4 4 7 7 5 5 6 6 8 8 7 7 6 6 9 9 7 7 8 8 10 10 9 9 8 8 11 11 9 9 10 10 12 12 11 11 10 10 13 13 11 11 12 12 14 14 13 13 12 12 15 15 13 13 14 14 16 16 15 15 14 14 17 17 15 15 16 16 18 18 17 17 16 16 19 19 17 17 18 18 20 20 19 19 18 18 21 21 19 19 20 20 22 22 21 21 20 20 23 23 21 21 22 22 24 24 23 23 22 22 25 25 23 23 24 24 26 26 25 25 24 24 27 27 25 25 26 26 28 2 27 27 26 26 29 28 27 27 28 2 30 29 29 28 28 2 31 30 29 28 30 29 32 31 31 30 30 29 13 13 31 30 32 31 33 32 13 13 32 31 11 11 13 13 33 32 34 33 11 11 33 32 9 9 11 11 34 33 35 34 9 9 34 33 36 35 9 9 35 34 37 36 36 35 35 34 38 37 36 35 37 36 39 38 38 37 37 36 40 39 38 37 39 38 41 40 40 39 39 38 42 41 40 39 41 40 43 42 42 41 41 40 1 1 42 41 43 42 44 43 1 1 43 42 0 0 1 1 44 43 45 44 0 0 44 43 46 45 0 0 45 44 22 22 46 45 45 44 20 20 46 45 22 22 49 48 48 47 47 46 50 49 48 47 49 48 51 50 50 49 49 48 52 51 50 49 51 50 53 52 52 51 51 50 54 53 52 51 53 52 55 54 54 53 53 52 56 55 54 53 55 54 57 56 56 55 55 54 58 57 56 55 57 56 59 58 58 57 57 56 60 59 58 57 59 58 61 60 60 59 59 58 62 61 60 59 61 60 63 62 62 61 61 60 64 63 62 61 63 62 65 61 64 63 63 62 66 64 64 63 65 61 67 65 66 64 65 61 68 66 66 64 67 65 69 67 68 66 67 65 70 68 68 66 69 67 71 69 70 68 69 67 72 70 70 68 71 69 73 71 72 70 71 69 74 72 72 70 73 71 75 73 74 72 73 71 78 76 77 75 76 74 79 77 77 75 78 76 80 78 79 77 78 76 81 79 79 77 80 78 82 80 81 79 80 78 83 81 81 79 82 80 84 82 83 81 82 80 85 83 83 81 84 82 86 84 85 83 84 82 87 85 85 83 86 84 88 86 87 85 86 84 89 87 87 85 88 86 90 88 89 87 88 86 91 89 89 87 90 88 92 87 91 89 90 88 93 90 91 89 92 87 94 85 93 90 92 87 95 91 93 90 94 85 96 92 95 91 94 85 97 93 95 91 96 92 98 94 97 93 96 92 99 95 97 93 98 94 100 75 99 95 98 94 101 96 99 95 100 75 47 97 101 96 100 75 48 100 102 99 47 98 103 101 102 99 48 100 104 102 103 101 48 100 105 103 103 101 104 102 106 104 105 103 104 102 107 105 105 103 106 104 108 106 107 105 106 104 109 107 107 105 108 106 110 108 109 107 108 106 111 109 109 107 110 108 112 110 111 109 110 108 113 111 111 109 112 110 114 112 113 111 112 110 115 113 113 111 114 112 116 114 115 113 114 112 117 115 115 113 116 114 118 113 117 115 116 114 119 116 117 115 118 113 120 105 119 116 118 113 121 103 119 116 120 105 122 104 121 103 120 105 123 102 121 103 122 104 125 47 124 48 76 46 126 49 124 48 125 47 123 117 126 49 125 47 127 118 126 49 123 117 128 119 127 118 123 117 129 51 127 118 128 119 130 120 129 51 128 119 131 53 129 51 130 120 132 57 131 53 130 120 133 55 131 53 132 57 134 56 133 55 132 57 135 54 133 55 134 56 136 121 135 54 134 56 137 122 135 54 136 121 138 123 137 122 136 121 139 124 137 122 138 123 140 125 139 124 138 123 143 128 142 127 141 126 144 129 142 127 143 128 145 130 144 129 143 128 146 131 144 129 145 130 147 132 146 131 145 130 148 133 146 131 147 132 149 134 148 133 147 132 150 135 148 133 149 134 151 136 150 135 149 134 152 137 150 135 151 136 153 138 152 137 151 136 154 139 152 137 153 138 155 140 154 139 153 138 156 141 154 139 155 140 159 144 158 143 157 142 160 145 158 143 159 144 161 146 160 145 159 144 162 147 160 145 161 146 163 148 162 147 161 146 164 149 162 147 163 148 165 150 164 149 163 148 166 151 164 149 165 150 167 152 166 151 165 150 168 153 166 151 167 152 169 154 168 153 167 152 170 155 168 153 169 154 171 156 170 155 169 154 43 42 24 24 44 43 26 26 24 24 43 42 41 40 26 26 43 42 172 157 26 26 41 40 173 158 172 157 41 40 174 159 172 157 173 158 175 160 174 159 173 158 176 161 174 159 175 160 177 162 176 161 175 160 32 31 176 161 177 162 178 163 32 31 177 162 33 32 32 31 178 163 34 33 33 32 178 163 179 165 78 76 76 164 80 78 78 76 179 165 180 166 80 78 179 165 181 167 80 78 180 166 182 168 181 167 180 166 183 169 181 167 182 168 184 170 183 169 182 168 185 171 183 169 184 170 186 172 185 171 184 170 187 173 185 171 186 172 188 174 187 173 186 172 139 175 187 173 188 174 189 116 103 101 105 103 190 176 103 101 189 116 191 177 190 176 189 116 192 178 190 176 191 177 193 176 192 178 191 177 194 179 192 178 193 176 195 99 194 179 193 176 196 180 194 179 195 99 197 181 196 180 195 99 198 182 196 180 197 181 199 183 198 182 197 181 200 184 198 182 199 183 65 61 201 59 67 65 202 60 201 59 65 61 63 62 202 60 65 61 203 185 202 60 63 62 61 60 203 185 63 62 204 186 203 185 61 60 59 58 204 186 61 60 205 187 204 186 59 58 57 56 205 187 59 58 206 121 205 187 57 56 55 54 206 121 57 56 207 122 206 121 55 54 210 143 209 144 208 142 211 145 209 144 210 143 212 188 211 145 210 143 213 147 211 145 212 188 214 151 213 147 212 188 215 148 213 147 214 151 216 152 215 148 214 151 217 189 215 148 216 152 218 154 217 189 216 152 219 190 217 189 218 154 220 156 219 190 218 154 221 191 219 190 220 156 222 58 132 57 201 59 134 56 132 57 222 58 223 187 134 56 222 58 136 121 134 56 223 187 224 192 136 121 223 187 138 123 136 121 224 192 225 193 138 123 224 192 226 194 138 123 225 193 227 123 226 194 225 193 228 125 226 194 227 123 229 124 228 125 227 123 232 131 231 127 230 195 233 129 231 127 232 131 234 130 233 129 232 131 235 128 233 129 234 130 236 196 235 128 234 130 237 126 235 128 236 196 238 197 237 126 236 196 239 198 237 126 238 197 240 199 239 198 238 197 241 200 239 198 240 199 242 201 241 200 240 199 243 140 154 139 156 141 244 138 154 139 243 140 245 202 244 138 243 140 246 136 244 138 245 202 247 203 246 136 245 202 248 134 246 136 247 203 249 132 248 134 247 203 250 133 248 134 249 132 232 131 250 133 249 132 251 204 250 133 232 131 230 195 251 204 232 131 120 105 252 106 122 104 253 107 252 106 120 105 118 113 253 107 120 105 254 109 253 107 118 113 255 111 254 109 118 113 74 110 254 109 255 111 256 112 74 110 255 111 257 205 74 110 256 112 258 206 257 205 256 112 259 207 257 205 258 206 260 208 259 207 258 206 263 211 262 210 261 209 264 212 262 210 263 211 265 213 264 212 263 211 266 190 264 212 265 213 267 189 266 190 265 213 268 154 266 190 267 189 269 152 268 154 267 189 270 153 268 154 269 152 271 151 270 153 269 152 272 214 270 153 271 151 273 215 272 214 271 151 276 211 275 209 274 210 277 216 275 209 276 211 278 217 277 216 276 211 279 218 277 216 278 217 280 219 279 218 278 217 281 220 279 218 280 219 282 221 281 220 280 219 283 222 281 220 282 221 284 223 283 222 282 221 285 224 283 222 284 223 286 225 285 224 284 223 289 144 288 143 287 142 290 145 288 143 289 144 291 146 290 145 289 144 292 147 290 145 291 146 293 148 292 147 291 146 294 151 292 147 293 148 295 152 294 151 293 148 296 153 294 151 295 152 297 154 296 153 295 152 298 155 296 153 297 154 299 156 298 155 297 154 60 59 300 226 58 57 301 227 300 226 60 59 302 65 301 227 60 59 303 67 301 227 302 65 304 66 303 67 302 65 305 68 303 67 304 66 306 228 305 68 304 66 307 229 305 68 306 228 308 230 307 229 306 228 309 231 307 229 308 230 310 232 309 231 308 230 311 229 70 68 72 70 312 228 70 68 311 229 313 230 312 228 311 229 314 233 312 228 313 230 315 234 314 233 313 230 316 235 314 233 315 234 317 233 316 235 315 234 318 236 316 235 317 233 304 66 318 236 317 233 319 237 318 236 304 66 257 238 72 70 74 72 311 229 72 70 257 238 259 231 311 229 257 238 313 230 311 229 259 231 310 232 313 230 259 231 315 234 313 230 310 232 308 230 315 234 310 232 317 233 315 234 308 230 306 228 317 233 308 230 304 66 317 233 306 228 322 216 321 209 320 239 323 211 321 209 322 216 324 217 323 211 322 216 325 213 323 211 324 217 326 221 325 213 324 217 327 240 325 213 326 221 328 223 327 240 326 221 329 241 327 240 328 223 330 225 329 241 328 223 331 242 329 241 330 225 77 75 197 96 76 97 199 95 197 96 77 75 332 94 199 95 77 75 200 93 199 95 332 94 333 92 200 93 332 94 334 91 200 93 333 92 87 85 334 91 333 92 335 90 334 91 87 85 89 87 335 90 87 85 91 89 335 90 89 87 338 244 337 243 336 179 339 245 337 243 338 244 340 243 339 245 338 244 341 246 339 245 340 243 342 247 341 246 340 243 343 208 341 246 342 247 344 248 343 208 342 247 345 247 343 208 344 248 93 249 345 247 344 248 346 250 345 247 93 249 102 99 101 181 47 98 347 180 101 181 102 99 336 179 347 180 102 99 348 182 347 180 336 179 337 243 348 182 336 179 349 251 348 182 337 243 346 250 349 251 337 243 95 252 349 251 346 250 93 249 95 252 346 250 350 196 145 130 143 128 351 253 145 130 350 196 352 254 351 253 350 196 353 255 351 253 352 254 354 256 353 255 352 254 355 257 353 255 354 256 356 258 355 257 354 256 357 259 355 257 356 258 358 260 357 259 356 258 58 57 54 53 56 55 359 120 54 53 58 57 300 226 359 120 58 57 360 261 359 120 300 226 361 262 360 261 300 226 362 263 360 261 361 262 363 264 362 263 361 262 108 265 362 263 363 264 110 73 108 265 363 264 366 211 365 216 364 209 367 217 365 216 366 211 368 213 367 217 366 211 369 221 367 217 368 213 370 240 369 221 368 213 371 223 369 221 370 240 372 241 371 223 370 240 373 225 371 223 372 241 374 242 373 225 372 241 277 216 375 239 275 209 376 266 375 239 277 216 279 218 376 266 277 216 377 267 376 266 279 218 281 220 377 267 279 218 378 268 377 267 281 220 283 222 378 268 281 220 379 269 378 268 283 222 285 224 379 269 283 222 381 271 161 146 380 270 163 148 161 146 381 271 382 272 163 148 381 271 383 273 163 148 382 272 384 274 383 273 382 272 385 213 383 273 384 274 280 219 385 213 384 274 278 217 385 213 280 219 386 275 51 50 49 48 387 276 51 50 386 275 388 277 387 276 386 275 389 278 387 276 388 277 390 279 389 278 388 277 207 122 389 278 390 279 391 280 207 122 390 279 229 124 207 122 391 280 392 263 128 119 123 117 393 261 128 119 392 263 394 262 393 261 392 263 395 226 393 261 394 262 396 281 395 226 394 262 397 227 395 226 396 281 69 67 397 227 396 281 67 65 397 227 69 67 117 115 189 116 115 113 191 177 189 116 117 115 119 116 191 177 117 115 193 176 191 177 119 116 398 101 193 176 119 116 195 99 193 176 398 101 125 100 195 99 398 101 76 98 195 99 125 100 401 143 400 144 399 142 402 145 400 144 401 143 403 188 402 145 401 143 404 147 402 145 403 188 271 151 404 147 403 188 405 148 404 147 271 151 269 152 405 148 271 151 267 189 405 148 269 152 408 284 407 283 406 282 409 285 407 283 408 284 410 286 409 285 408 284 411 284 409 285 410 286 412 137 411 284 410 286 413 135 411 284 412 137 246 136 413 135 412 137 248 134 413 135 246 136 415 76 414 165 47 164 416 78 414 165 415 76 417 77 416 78 415 76 418 79 416 78 417 77 98 94 418 79 417 77 419 81 418 79 98 94 420 83 419 81 98 94 421 82 419 81 420 83 150 135 406 282 422 204 408 284 406 282 150 135 152 137 408 284 150 135 410 286 408 284 152 137 154 139 410 286 152 137 412 137 410 286 154 139 244 138 412 137 154 139 246 136 412 137 244 138 414 165 49 288 47 287 423 289 49 288 414 165 424 166 423 289 414 165 425 290 423 289 424 166 426 168 425 290 424 166 427 170 425 290 426 168 428 169 427 170 426 168 429 171 427 170 428 169 430 216 263 211 261 209 431 217 263 211 430 216 432 220 431 217 430 216 433 221 431 217 432 220 434 222 433 221 432 220 435 223 433 221 434 222 436 224 435 223 434 222 437 225 435 223 436 224 383 273 165 150 163 148 438 189 165 150 383 273 385 213 438 189 383 273 439 190 438 189 385 213 440 212 439 190 385 213 441 191 439 190 440 212 442 291 441 191 440 212 264 212 443 291 262 210 444 191 443 291 264 212 266 190 444 191 264 212 445 156 444 191 266 190 268 154 445 156 266 190 446 155 445 156 268 154 270 153 446 155 268 154 27 27 23 23 25 25 21 21 23 23 27 27 29 28 21 21 27 27 19 19 21 21 29 28 447 292 19 19 29 28 17 17 19 19 447 292 15 15 17 17 447 292 423 289 386 293 49 288 388 294 386 293 423 289 448 295 388 294 423 289 390 296 388 294 448 295 449 172 390 296 448 295 391 174 390 296 449 172 450 173 391 174 449 172 452 189 368 213 451 190 453 272 368 213 452 189 293 148 453 272 452 189 454 271 453 272 293 148 291 146 454 271 293 148 455 270 454 271 291 146 456 297 455 270 291 146 457 298 90 88 88 86 458 86 90 88 457 298 421 82 458 86 457 298 459 84 458 86 421 82 420 83 459 84 421 82 94 85 459 84 420 83 96 92 94 85 420 83 181 167 82 80 80 78 460 299 82 80 181 167 461 300 460 299 181 167 462 301 460 299 461 300 463 302 462 301 461 300 464 303 462 301 463 302 465 301 464 303 463 302 384 274 282 221 280 219 466 240 282 221 384 274 382 272 466 240 384 274 467 241 466 240 382 272 381 271 467 241 382 272 468 242 467 241 381 271 380 270 468 242 381 271 469 282 413 135 251 204 411 284 413 135 469 282 470 283 411 284 469 282 409 285 411 284 470 283 471 304 409 285 470 283 407 283 409 285 471 304 472 305 407 283 471 304 365 216 473 239 364 209 474 267 473 239 365 216 475 220 474 267 365 216 476 268 474 267 475 220 477 222 476 268 475 220 478 269 476 268 477 222 479 224 478 269 477 222 328 223 480 224 330 225 481 222 480 224 328 223 326 221 481 222 328 223 482 220 481 222 326 221 324 217 482 220 326 221 322 216 482 220 324 217 62 61 302 65 60 59 483 64 302 65 62 61 64 63 483 64 62 61 319 237 483 64 64 63 66 64 319 237 64 63 68 66 319 237 66 64 242 201 485 307 484 306 486 308 485 307 242 201 240 199 486 308 242 201 487 256 486 308 240 199 488 254 487 256 240 199 489 255 487 256 488 254 492 311 491 310 490 309 493 312 491 310 492 311 494 309 493 312 492 311 495 313 493 312 494 309 496 314 495 313 494 309 497 315 495 313 496 314 500 259 499 257 498 316 501 258 499 257 500 259 502 260 501 258 500 259 485 307 501 258 502 260 503 317 485 307 502 260 484 306 485 307 503 317 198 182 194 179 196 180 340 243 194 179 198 182 504 251 340 243 198 182 505 250 340 243 504 251 334 252 505 250 504 251 335 249 505 250 334 252 190 176 102 99 103 101 336 179 102 99 190 176 192 178 336 179 190 176 338 244 336 179 192 178 194 179 338 244 192 178 340 243 338 244 194 179 508 320 507 319 506 318 509 321 507 319 508 320 510 322 509 321 508 320 511 323 509 321 510 322 512 324 511 323 510 322 513 325 511 323 512 324 514 238 307 229 309 231 515 70 307 229 514 238 112 72 515 70 514 238 516 71 515 70 112 72 110 73 516 71 112 72 363 264 516 71 110 73 517 328 457 327 84 326 518 329 457 327 517 328 464 330 518 329 517 328 519 328 518 329 464 330 465 331 519 328 464 330 520 332 519 328 465 331 523 271 522 242 521 270 524 241 522 242 523 271 525 272 524 241 523 271 526 240 524 241 525 272 265 213 526 240 525 272 433 221 526 240 265 213 527 199 354 256 352 254 528 308 354 256 527 199 529 201 528 308 527 199 530 307 528 308 529 201 531 306 530 307 529 201 532 317 530 307 531 306 534 146 521 270 533 297 523 271 521 270 534 146 405 148 523 271 534 146 525 272 523 271 405 148 267 189 525 272 405 148 265 213 525 272 267 189 514 205 114 112 112 110 535 206 114 112 514 205 309 207 535 206 514 205 260 208 535 206 309 207 310 248 260 208 309 207 259 207 260 208 310 248 186 172 536 296 188 174 537 295 536 296 186 172 184 170 537 295 186 172 538 290 537 295 184 170 182 168 538 290 184 170 180 166 538 290 182 168 10 10 14 14 12 12 539 333 14 14 10 10 540 334 539 333 10 10 541 335 539 333 540 334 6 6 541 335 540 334 4 4 541 335 6 6 202 60 222 58 201 59 542 186 222 58 202 60 203 185 542 186 202 60 543 336 542 186 203 185 204 186 543 336 203 185 205 187 543 336 204 186 141 126 350 196 143 128 544 197 350 196 141 126 545 198 544 197 141 126 527 199 544 197 545 198 546 200 527 199 545 198 529 201 527 199 546 200 547 267 322 216 320 239 482 220 322 216 547 267 548 268 482 220 547 267 481 222 482 220 548 268 549 269 481 222 548 268 480 224 481 222 549 269 552 339 551 338 550 337 553 340 551 338 552 339 554 341 553 340 552 339 555 319 553 340 554 341 556 342 555 319 554 341 557 343 555 319 556 342 135 54 131 53 133 55 558 52 131 53 135 54 559 278 558 52 135 54 560 276 558 52 559 278 561 277 560 276 559 278 562 275 560 276 561 277 499 257 563 344 498 316 564 345 563 344 499 257 489 255 564 345 499 257 565 253 564 345 489 255 488 254 565 253 489 255 227 123 207 122 229 124 206 121 207 122 227 123 566 192 206 121 227 123 205 187 206 121 566 192 543 336 205 187 566 192 164 149 567 188 162 147 568 346 567 188 164 149 166 151 568 346 164 149 569 215 568 346 166 151 570 214 569 215 166 151 573 349 572 348 571 347 574 350 572 348 573 349 575 351 574 350 573 349 576 350 574 350 575 351 577 312 576 350 575 351 579 354 578 353 490 352 580 355 578 353 579 354 581 356 580 355 579 354 582 357 580 355 581 356 583 358 582 357 581 356 586 312 585 360 584 359 577 315 585 360 586 312 587 348 577 315 586 312 588 361 577 315 587 348 572 343 588 361 587 348 515 70 305 68 307 229 589 69 305 68 515 70 516 71 589 69 515 70 361 262 589 69 516 71 363 264 361 262 516 71 323 211 590 210 321 209 591 212 590 210 323 211 325 213 591 212 323 211 219 190 591 212 325 213 217 189 219 190 325 213 592 362 145 130 351 253 147 132 145 130 592 362 593 203 147 132 592 362 149 134 147 132 593 203 151 136 149 134 593 203 249 132 234 130 232 131 594 362 234 130 249 132 247 203 594 362 249 132 595 363 594 362 247 203 596 364 595 363 247 203 565 253 234 130 594 362 236 196 234 130 565 253 488 254 236 196 565 253 238 197 236 196 488 254 240 199 238 197 488 254 493 312 597 365 491 310 598 366 597 365 493 312 599 348 598 366 493 312 600 367 598 366 599 348 601 368 600 367 599 348 215 148 602 146 213 147 603 271 602 146 215 148 604 272 603 271 215 148 329 241 603 271 604 272 327 240 329 241 604 272 602 146 605 297 209 144 606 270 605 297 602 146 603 271 606 270 602 146 331 242 606 270 603 271 329 241 331 242 603 271 453 272 370 240 368 213 372 241 370 240 453 272 454 271 372 241 453 272 374 242 372 241 454 271 455 270 374 242 454 271 174 159 26 26 172 157 28 2 26 26 174 159 176 161 28 2 174 159 30 29 28 2 176 161 32 31 30 29 176 161 416 78 424 166 414 165 607 167 424 166 416 78 608 80 607 167 416 78 520 299 607 167 608 80 609 369 520 299 608 80 539 333 16 16 14 14 18 18 16 16 539 333 610 370 18 18 539 333 20 20 18 18 610 370 46 45 20 20 610 370 434 222 611 269 436 224 612 268 611 269 434 222 432 220 612 268 434 222 613 267 612 268 432 220 430 216 613 267 432 220 616 339 615 372 614 371 617 325 615 372 616 339 618 373 617 325 616 339 619 343 617 325 618 373 580 376 584 375 578 374 586 315 584 375 580 376 620 377 586 315 580 376 621 348 586 315 620 377 0 0 4 4 2 2 622 378 4 4 0 0 46 45 622 378 0 0 610 370 622 378 46 45 597 381 623 380 491 379 624 382 623 380 597 381 598 383 624 382 597 381 600 384 624 382 598 383 625 385 594 362 595 363 565 253 594 362 625 385 626 386 565 253 625 385 564 345 565 253 626 386 616 325 627 387 618 343 628 323 627 387 616 325 614 324 628 323 616 325 629 322 628 323 614 324 630 212 368 213 366 211 451 190 368 213 630 212 631 191 451 190 630 212 299 156 451 190 631 191 495 313 599 348 493 312 632 388 599 348 495 313 497 315 632 388 495 313 633 361 632 388 497 315 636 391 635 390 634 389 637 392 635 390 636 391 638 393 637 392 636 391 639 394 637 392 638 393 642 397 641 396 640 395 601 348 641 396 642 397 643 398 601 348 642 397 600 388 601 348 643 398 646 401 645 400 644 399 647 402 645 400 646 401 634 403 647 402 646 401 635 404 647 402 634 403 650 312 649 350 648 348 651 351 649 350 650 312 652 405 651 351 650 312 653 406 651 351 652 405 654 409 555 408 557 407 655 410 555 408 654 409 644 411 655 410 654 409 645 412 655 410 644 411 623 413 581 356 579 354 656 414 581 356 623 413 642 415 656 414 623 413 640 416 656 414 642 415 225 193 566 192 227 123 543 336 566 192 225 193 224 192 543 336 225 193 223 187 543 336 224 192 297 154 451 190 299 156 452 189 451 190 297 154 295 152 452 189 297 154 293 148 452 189 295 152 657 388 641 396 601 348 658 395 641 396 657 388 659 361 658 395 657 388 660 417 658 395 659 361 394 262 73 71 71 69 661 264 73 71 394 262 392 263 661 264 394 262 252 265 661 264 392 263 558 52 129 51 131 53 662 50 129 51 558 52 560 276 662 50 558 52 562 275 662 50 560 276 395 226 132 57 130 120 201 59 132 57 395 226 397 227 201 59 395 226 67 65 201 59 397 227 440 212 274 210 442 291 276 211 274 210 440 212 385 213 276 211 440 212 278 217 276 211 385 213 359 120 52 51 54 53 663 119 52 51 359 120 360 261 663 119 359 120 362 263 663 119 360 261 104 117 663 119 362 263 664 118 663 119 104 117 50 49 664 118 104 117 52 51 664 118 50 49 218 154 665 155 220 156 666 153 665 155 218 154 216 152 666 153 218 154 214 151 666 153 216 152 537 295 561 294 536 296 667 289 561 294 537 295 538 290 667 289 537 295 180 166 667 289 538 290 589 69 303 67 305 68 668 281 303 67 589 69 361 262 668 281 589 69 300 226 668 281 361 262 435 223 526 240 433 221 524 241 526 240 435 223 437 225 524 241 435 223 522 242 524 241 437 225 669 210 366 211 364 209 630 212 366 211 669 210 670 291 630 212 669 210 631 191 630 212 670 291 671 418 637 392 639 394 635 390 637 392 671 418 672 419 635 390 671 418 318 236 314 233 316 235 68 66 314 233 318 236 319 237 68 66 318 236 471 304 673 420 472 305 674 305 673 420 471 304 470 283 674 305 471 304 676 345 355 257 675 344 353 255 355 257 676 345 351 253 353 255 676 345 678 202 593 203 677 364 151 136 593 203 678 202 153 138 151 136 678 202 296 153 679 214 294 151 680 421 679 214 296 153 298 155 680 421 296 153 294 151 681 188 292 147 682 215 681 188 294 151 679 214 682 215 294 151 553 340 683 422 551 338 684 325 683 422 553 340 555 319 684 325 553 340 519 328 457 327 518 329 421 326 457 327 519 328 609 423 421 326 519 328 146 131 142 127 144 129 685 195 142 127 146 131 422 204 685 195 146 131 458 86 92 87 90 88 94 85 92 87 458 86 459 84 94 85 458 86 607 167 426 168 424 166 428 169 426 168 607 167 532 424 428 169 607 167 621 348 587 361 586 315 686 343 587 361 621 348 687 368 686 343 621 348 3 3 42 41 1 1 40 39 42 41 3 3 38 37 40 39 3 3 341 246 337 243 339 245 345 247 337 243 341 246 343 208 345 247 341 246 617 339 550 426 615 425 552 325 550 426 617 339 688 319 552 325 617 339 634 428 638 341 636 427 689 429 638 341 634 428 690 337 689 429 634 428 576 350 572 368 574 387 588 348 572 368 576 350 577 312 588 348 576 350 449 172 429 171 450 173 427 170 429 171 449 172 448 295 427 170 449 172 575 351 585 405 577 312 691 406 585 405 575 351 573 349 691 406 575 351 115 113 111 109 113 111 109 107 111 109 115 113 107 105 109 107 115 113 694 339 693 325 692 319 695 426 693 325 694 339 696 425 695 426 694 339 697 300 465 301 463 302 520 299 465 301 697 300 607 167 520 299 697 300 348 182 101 181 347 180 99 183 101 181 348 182 97 184 99 183 348 182 624 382 642 430 623 380 643 431 642 430 624 382 600 384 643 431 624 382 698 434 621 433 620 432 687 435 621 433 698 434 699 436 687 435 698 434 698 434 582 438 583 437 580 439 582 438 698 434 620 432 580 439 698 434 179 165 667 289 180 166 124 288 667 289 179 165 76 287 124 288 179 165 175 160 35 34 177 162 37 36 35 34 175 160 39 38 37 36 175 160 693 339 639 341 692 429 671 340 639 341 693 339 672 440 671 340 693 339 438 189 167 152 165 150 169 154 167 152 438 189 439 190 169 154 438 189 358 260 530 307 532 317 356 258 530 307 358 260 467 241 286 225 284 223 468 242 286 225 467 241 530 307 354 256 528 308 356 258 354 256 530 307 544 197 352 254 350 196 527 199 352 254 544 197 700 386 351 253 676 345 701 385 351 253 700 386 400 144 534 146 533 297 402 145 534 146 400 144 404 147 534 146 402 145 405 148 534 146 404 147 702 316 355 257 357 259 675 344 355 257 702 316 6 6 10 10 8 8 540 334 10 10 6 6 31 30 447 292 29 28 13 13 447 292 31 30 622 378 541 335 4 4 610 370 541 335 622 378 45 44 24 24 22 22 44 43 24 24 45 44 36 35 7 7 9 9 38 37 7 7 36 35 38 37 5 5 7 7 3 3 5 5 38 37 178 163 35 34 34 33 177 162 35 34 178 163 250 133 413 135 248 134 251 204 413 135 250 133 173 158 39 38 175 160 41 40 39 38 173 158 491 441 579 354 490 352 623 413 579 354 491 441 703 442 656 414 640 416 583 358 656 414 703 442 499 257 487 256 489 255 501 258 487 256 499 257 485 307 487 256 501 258 486 308 487 256 485 307 704 443 226 194 228 125 140 125 226 194 704 443 542 186 223 187 222 58 543 336 223 187 542 186 221 191 591 212 219 190 705 291 591 212 221 191 349 251 97 184 348 182 95 252 97 184 349 251 535 206 116 114 114 112 260 208 116 114 535 206 393 261 130 120 128 119 395 226 130 120 393 261 75 73 661 264 252 265 73 71 661 264 75 73 118 113 256 112 255 111 116 114 256 112 118 113 396 281 71 69 69 67 394 262 71 69 396 281 116 114 258 206 256 112 260 208 258 206 116 114 122 444 392 263 123 117 252 265 392 263 122 444 253 107 75 108 252 106 254 109 75 108 253 107 107 105 189 116 105 103 115 113 189 116 107 105 121 103 398 101 119 116 123 102 398 101 121 103 504 251 200 184 334 252 198 182 200 184 504 251 505 250 342 247 340 243 335 249 342 247 505 250 155 140 678 202 677 364 153 138 678 202 155 140 211 145 602 146 209 144 213 147 602 146 211 145 217 189 604 272 215 148 325 213 604 272 217 189 171 156 439 190 441 191 169 154 439 190 171 156 706 363 593 203 592 362 677 364 593 203 706 363 701 385 592 362 351 253 706 363 592 362 701 385 466 240 284 223 282 221 467 241 284 223 466 240 709 348 708 349 707 347 710 350 708 349 709 348 711 446 709 361 707 445 712 348 709 361 711 446 660 448 712 361 711 447 659 348 712 361 660 448 106 444 362 263 108 265 104 117 362 263 106 444 387 276 53 52 51 50 389 278 53 52 387 276 389 278 55 54 53 52 207 122 55 54 389 278 344 449 91 89 93 90 335 90 91 89 344 449 713 421 270 153 272 214 446 155 270 153 713 421 714 215 214 151 212 188 715 214 214 151 714 215 431 217 265 213 263 211 433 221 265 213 431 217 479 224 371 223 373 225 477 222 371 223 479 224 716 446 572 361 686 348 571 445 572 361 716 446 718 337 556 341 717 429 719 450 556 341 718 337 507 373 694 325 720 343 513 339 694 325 507 373 720 373 692 319 689 343 694 339 692 319 720 373 506 452 720 319 721 451 507 429 720 319 506 452 513 339 696 372 694 325 512 371 696 372 513 339 722 453 717 319 619 429 718 454 717 319 722 453 618 319 724 320 723 318 627 321 724 320 618 319 629 322 627 321 628 323 724 320 627 321 629 322 723 452 619 319 618 429 722 451 619 319 723 452 688 429 554 341 552 339 717 373 554 341 688 429 619 373 688 319 617 339 717 343 688 319 619 373 725 455 407 283 472 305 406 282 407 283 725 455 84 82 88 86 86 84 457 298 88 86 84 82 229 175 450 173 228 456 391 174 450 173 229 175 726 455 470 283 469 282 674 305 470 283 726 455 509 387 513 325 507 343 511 323 513 325 509 387 716 447 583 457 703 448 686 361 583 457 716 447 686 361 699 458 583 457 687 348 699 458 686 361 557 319 644 460 654 459 556 341 644 460 557 319 634 428 727 450 690 337 646 461 727 450 634 428 646 461 728 462 727 450 644 460 728 462 646 461 644 460 719 450 728 462 556 341 719 450 644 460 729 239 430 216 261 209 613 267 430 216 729 239 417 77 100 75 98 94 415 76 100 75 417 77 425 290 448 295 423 289 427 170 448 295 425 290 562 293 667 289 124 288 561 294 667 289 562 293 79 77 332 94 77 75 81 79 332 94 79 77 83 81 332 94 81 79 85 83 332 94 83 81 85 83 333 92 332 94 87 85 333 92 85 83 730 369 82 80 460 299 84 82 82 80 730 369 418 79 608 80 416 78 419 81 608 80 418 79 731 375 497 312 496 374 732 315 497 312 731 375 652 360 732 312 731 359 650 315 732 312 652 360 732 315 633 348 497 312 733 361 633 348 732 315 650 315 733 348 732 312 648 361 733 348 650 315 695 337 672 440 693 339 734 338 672 440 695 337 662 50 124 48 126 49 562 275 124 48 662 50 734 338 735 463 672 440 736 464 735 463 734 338 290 145 681 188 288 143 292 147 681 188 290 145 736 464 683 422 735 463 551 338 683 422 736 464 312 228 68 66 70 68 314 233 68 66 312 228 672 465 647 402 635 404 735 466 647 402 672 465 647 402 683 467 645 400 735 466 683 467 647 402 517 328 462 331 464 330 460 332 462 331 517 328 421 82 608 80 419 81 609 369 608 80 421 82 730 423 517 328 84 326 460 332 517 328 730 423 503 424 181 167 183 169 461 300 181 167 503 424 708 349 651 351 653 406 710 350 651 351 708 349 160 145 567 188 158 143 162 147 567 188 160 145 301 227 668 281 300 226 303 67 668 281 301 227 715 214 666 153 214 151 737 421 666 153 715 214 738 421 168 153 170 155 570 214 168 153 738 421 739 297 161 146 159 144 380 270 161 146 739 297 477 222 369 221 371 223 475 220 369 221 477 222 148 133 422 204 146 131 150 135 422 204 148 133 367 217 475 220 365 216 369 221 475 220 367 217 245 202 596 364 247 203 243 140 596 364 245 202 599 348 657 367 601 368 632 388 657 367 599 348 712 343 633 348 733 361 659 368 633 348 712 343 733 348 709 343 712 368 648 361 709 343 733 348 709 368 649 350 710 387 648 348 649 350 709 368 721 453 689 319 690 454 720 429 689 319 721 453 483 64 304 66 302 65 319 237 304 66 483 64 632 388 659 343 657 367 633 361 659 343 632 388 235 128 231 127 233 129 237 126 231 127 235 128 129 51 126 49 127 118 662 50 126 49 129 51 137 122 559 278 135 54 536 279 559 278 137 122 655 410 684 468 555 408 645 412 684 468 655 410 689 373 639 341 638 342 692 429 639 341 689 373 188 280 137 122 139 124 536 279 137 122 188 280 98 94 96 92 420 83 651 351 710 350 649 350 607 167 697 300 532 424 422 204 406 282 725 455 740 469 422 204 725 455 541 335 610 370 539 333 251 204 726 455 469 282 230 195 741 469 251 204 741 469 726 455 251 204 447 292 13 13 15 15 519 328 520 332 609 423 685 195 422 204 740 469 554 341 717 373 556 342 591 212 705 291 590 210 699 436 698 434 583 437 663 119 664 118 52 51 572 343 587 348 686 368 583 358 581 356 656 414 254 109 74 110 75 108 271 151 403 188 273 215 226 194 140 125 138 123 76 98 197 181 195 99 104 117 48 47 50 49 684 468 645 412 683 470 337 243 345 247 346 250 123 102 125 100 398 101 342 247 335 249 344 248 666 153 737 421 665 155 325 213 327 240 604 272 166 151 168 153 570 214 139 175 140 456 187 173 291 146 289 144 456 297 47 74 100 75 415 76 536 279 561 277 559 278</p>
                </polylist>
            </mesh>
        </geometry>
    </library_geometries>
    <library_visual_scenes>
        <visual_scene id="VisualSceneNode">
            <node id="node0" name="m0" type="NODE">
                <instance_geometry url="#mesh0">
                    <bind_material>
                        <technique_common>
                            <instance_material symbol="Material1" target="#mat0">
                                <bind_vertex_input semantic="UVSET0" input_semantic="TEXCOORD" input_set="0"></bind_vertex_input>
                            </instance_material>
                        </technique_common>
                    </bind_material>
                </instance_geometry>
            </node>
        </visual_scene>
    </library_visual_scenes>
    <scene>
        <instance_visual_scene url="#VisualSceneNode"></instance_visual_scene>
    </scene>
</COLLADA>
