<?xml version="1.0"?>
<COLLADA xmlns="http://www.collada.org/2005/11/COLLADASchema" version="1.4.1">
    <asset>
        <contributor>
            <authoring_tool>J3D Ripoff Exporter</authoring_tool>
        </contributor>
        <created>2024-08-02T13:56:54.006Z</created>
        <modified>2024-08-02T13:56:54.006Z</modified>
		<unit meter="0.01" name="centimeter" ></unit>
        <up_axis>Y_UP</up_axis>
    </asset>
    <library_images>
        <image id="tex0">
            <init_from>donkey_all.png</init_from>
        </image>
    </library_images>
    <library_effects>
        <effect id="effect0">
            <profile_COMMON>
                <newparam sid="surface0">
                    <surface type="2D">
                        <init_from>tex0</init_from>
                    </surface>
                </newparam>
                <newparam sid="sampler0">
                    <sampler2D>
                        <source>surface0</source>
                    </sampler2D>
                </newparam>
                <technique sid="COMMON">
                    <blinn>
                        <diffuse>
                            <texture texture="sampler0" texcoord="UVSET0"></texture>
                        </diffuse>
                    </blinn>
                </technique>
            </profile_COMMON>
        </effect>
    </library_effects>
    <library_materials>
        <material id="mat0" name="Dummy">
            <instance_effect url="#effect0"></instance_effect>
        </material>
    </library_materials>
    <library_geometries>
        <geometry id="mesh0">
            <mesh>
                <source id="points0">
                    <float_array id="pointarray0" count="1266">39.390625 20.0234375 26.16796875 37.82421875 21.984375 27.3828125 44.8515625 22.86328125 21.88671875 41.23046875 25.4453125 25.66015625 44.6015625 28.05078125 23.34765625 36.734375 30.57421875 26.890625 39.86328125 37.71484375 23.25 27.4296875 31.79296875 28.69921875 29.1328125 39.375 24.91015625 16.10546875 30.7890625 27.640625 20.796875 41.36328125 23.23046875 10.734375 34.26171875 21.7890625 16.7265625 45.07421875 13.484375 8.25 35.953125 14.02734375 14.5703125 45.95703125 -0.00390625 7.390625 36.8203125 -0.00390625 8.25 35.953125 -14.0390625 2.57421875 24.05859375 -16.4921875 10.734375 34.26171875 -21.8046875 6.8203125 22.7421875 -25.40234375 16.10546875 30.7890625 -27.65234375 13.26171875 20.84765625 -29.8359375 26.0859375 24.8984375 -31.46875 25.25 15.765625 -31.19921875 33.70703125 23.4609375 -29.4609375 33.59765625 18.79296875 -29.265625 37.82421875 21.984375 -27.39453125 40.390625 20.1640625 23.0859375 39.78125 20.1171875 24.4296875 46.59765625 21.2421875 21.1953125 45.90234375 22.04296875 21.87890625 50.82421875 23.9609375 19.15234375 49.88671875 24.89453125 20.0078125 54.453125 27.515625 16.8203125 53.47265625 28.63671875 17.46484375 57.359375 31.7109375 13.5546875 56.578125 33.2265625 13.99609375 59.15234375 34.9296875 8.89453125 58.421875 36.62890625 9.5390625 59.84765625 36.546875 4.546875 59.421875 38.34765625 4.9140625 60.2734375 37.265625 -0.00390625 59.9609375 39.23828125 -0.00390625 59.421875 38.34765625 -4.92578125 56.8515625 39.796875 -4.48046875 55.9765625 38.16015625 -8.9453125 53.87109375 37.4140625 -7.9453125 54.2578125 34.75 -13.4453125 50.7578125 35.82421875 -15.0546875 52.8359375 0.2265625 11.6171875 57.68359375 8.8828125 14.0625 60.57421875 4.42578125 8.60546875 58.88671875 9.16015625 14.8828125 62.17578125 4.78515625 11.7734375 63.4921875 6.3515625 11.96484375 64.4921875 0.5859375 5.27734375 66.18359375 2.24609375 6.0390625 65 -0.3828125 -0.00390625 66.8125 1.2421875 -0.00390625 66.18359375 2.24609375 -6.05078125 66.1328125 5.140625 -5.9296875 63.4921875 6.3515625 -11.98046875 63.58984375 8.6796875 -11.19921875 60.1171875 10.6328125 -15.03515625 60.83984375 12.21484375 -14.51953125 56.07421875 14.50390625 -17.35546875 57.0625 15.66796875 -16.8203125 50.96484375 17.26171875 -19.74609375 51.67578125 18.53125 -19.32421875 46.6640625 19.9453125 -21.359375 37.61328125 -15.96484375 -10.7109375 34.08203125 -17.67578125 -14.46875 36.59375 -19.28515625 -16.3359375 32.5625 -20.4765625 -19.5078125 33.90234375 -25.13671875 -19.13671875 30.12109375 -26.0390625 -21.109375 32.41796875 -29.7109375 -16.41796875 27.78515625 -30.328125 -18.8203125 20.6015625 -28.51171875 -17.38671875 24.08984375 -28.92578125 -20.84375 18.72265625 -25.2890625 -21.1875 24.1328125 -24.73046875 -23.19140625 20.78125 -20.75 -23.27734375 27.0078125 -15.9140625 -23.296875 23.53125 -14.609375 -24.1796875 28.7890625 -10.0859375 -22.046875 26.28515625 -8.59375 -22.9765625 29.56640625 -4.47265625 -20.83203125 24.9296875 -8.30078125 -21.6796875 27.7734375 -4.3203125 -19.46875 40.390625 20.1640625 -23.09765625 40.37109375 20.171875 -19.51171875 46.59765625 21.2421875 -21.203125 46.57421875 21.31640625 -17.97265625 50.82421875 23.9609375 -19.16015625 50.796875 24.06640625 -16.30078125 54.453125 27.515625 -16.83203125 54.03125 27.109375 -14.3359375 57.359375 31.7109375 -13.56640625 56.5078125 30.453125 -11.953125 58.2890625 33.5859375 -7.79296875 48.12109375 37.5859375 -12.58984375 54.23828125 37.61328125 -0.00390625 44.80078125 41.39453125 -0.00390625 48.12109375 37.5859375 12.578125 33.7265625 35.1328125 17.4765625 54.03125 27.109375 14.32421875 50.796875 24.06640625 16.2890625 27.82421875 -15.43359375 19.27734375 27.21484375 -19.8671875 18.83984375 27.75390625 -20.48828125 21.08984375 31.01953125 -19.31640625 16.5234375 32.5625 -20.4765625 19.5078125 34.08203125 -17.67578125 14.46875 36.59375 -19.28515625 16.3359375 37.61328125 -15.96484375 10.7109375 40.4453125 -17.4375 12.19140625 39.7421875 -14.60546875 5.62890625 42.94921875 -15.80078125 6.60546875 43.50390625 -15.0625 0 44.171875 -20.4609375 6.8359375 44.8203125 -19.67578125 0 42.53515625 -24.359375 5.7890625 43.4140625 -23.453125 0 39.484375 -25.63671875 4.77734375 39.9375 -24.875 0 38.35546875 -24.03515625 4.27734375 39.21484375 -23.21484375 0 39.78125 20.1171875 -24.44140625 45.90234375 22.04296875 -21.88671875 39.390625 20.0234375 -26.1796875 44.88671875 22.875 -22.078125 41.23046875 25.4453125 -25.67578125 36.734375 30.57421875 -26.90234375 44.6015625 28.05078125 -23.359375 39.86328125 37.71484375 -23.26171875 47.8203125 31.78125 -19.9609375 51.56640625 29.90625 -17.2109375 56.578125 33.2265625 -14.0078125 58.421875 36.62890625 -9.55078125 59.15234375 34.9296875 -8.90625 59.84765625 36.546875 -4.5625 50.7578125 35.82421875 15.04296875 42.92578125 43.17578125 16.3203125 29.9765625 45.6328125 19.1640625 35.50390625 49.734375 10.31640625 26.7578125 49.68359375 11.4921875 26.01953125 50.86328125 -0.00390625 26.7578125 49.68359375 -11.5078125 16.7265625 45.07421875 -13.49609375 29.9765625 45.6328125 -19.17578125 20.796875 41.36328125 -23.2421875 29.1328125 39.375 -24.921875 27.4296875 31.79296875 -28.7109375 45.98828125 -5.12890625 5.609375 46.07421875 -5.98828125 -0.00390625 40.4609375 -5.87890625 -0.00390625 45.98828125 -5.12890625 -5.62109375 38.80859375 -2.796875 -9.40234375 45.53515625 -2.6171875 -12.296875 35.81640625 1.3828125 -19.390625 44.08984375 2.7265625 -19.80859375 40.72265625 8.5546875 -24.4375 46.75 12.71875 -21.66796875 43.16796875 14.984375 -23.6171875 50.20703125 16.23046875 -19.8203125 45.984375 18 -21.54296875 46.5859375 19.203125 -22.015625 48.8359375 38.08984375 0 42.60546875 32.828125 -9.26953125 47.16015625 35.81640625 -8.76953125 43.82421875 32.46875 -14.04296875 50.3203125 34.8671875 -9.15625 45.7109375 30.94921875 -14.6171875 47.44140625 27.96484375 -11.15625 40.02734375 22.95703125 -13.078125 48.12890625 26.56640625 -4.85546875 39.5234375 20.59765625 -5.48046875 47.0859375 26.99609375 0 38.0703125 22.01171875 0 39.5234375 20.59765625 5.48046875 29.5 18.8125 5.85546875 30.50390625 20.65625 13.63671875 28.03515625 28.62109375 9.7109375 31.9921875 28.78515625 11.48828125 25.96484375 28.09375 14.140625 32.05859375 27.578125 16.7890625 31.70703125 24.421875 17.50390625 39.71484375 26.48828125 17.05078125 40.02734375 22.95703125 13.078125 45.7109375 30.94921875 14.6171875 47.44140625 27.96484375 11.15625 50.29296875 34.828125 9.15625 51.6328125 31.3828125 8.234375 52.83203125 33.87109375 0 48.12890625 26.56640625 4.85546875 10.06640625 6.9609375 19.828125 14.43359375 7.84375 24.51171875 15.05859375 4.68359375 21.12109375 22.80859375 4.40625 23.453125 24.7890625 2.24609375 18.97265625 28.21484375 2.921875 22.0703125 35.81640625 1.3828125 19.375 30.26953125 4.078125 24.6875 40.72265625 8.5546875 24.42578125 36.4296875 12.77734375 27.91015625 43.16796875 14.984375 23.60546875 38.375 17.5859375 27.08203125 45.9765625 18.00390625 21.90234375 26.86328125 25.3671875 -15.97265625 27.953125 16.01953125 -14.39453125 33.921875 10.234375 -13.94140625 24.203125 14.6875 -0.00390625 31.7734375 7.65234375 -0.00390625 33.921875 10.234375 13.92578125 48.65234375 6.37109375 12.92578125 51.2421875 18.23046875 16.32421875 55.91015625 15.57421875 14.21484375 57.0625 15.66796875 16.80859375 60.83984375 12.21484375 14.5078125 40.7578125 -13.94921875 0 39.7421875 -14.60546875 -5.62890625 42.94921875 -15.80078125 -6.60546875 40.4453125 -17.4375 -12.19140625 41.703125 -22.16796875 -12.26953125 37.8125 -23.52734375 -16.33984375 35.6484375 -28.55078125 -13.7109375 31.99609375 -27.66796875 -11.078125 25.83984375 -27.34765625 -13.98828125 21.10546875 21.48046875 5.66015625 21.140625 24.328125 0 29.73828125 20.546875 0 29.5 18.8125 -5.85546875 30.50390625 20.65625 -13.63671875 39.71484375 26.48828125 -17.05078125 38.87890625 29.3828125 -16.3671875 42.92578125 43.17578125 -16.33203125 35.50390625 49.734375 -10.328125 44.86328125 45.47265625 -9.3125 36.140625 50.734375 -0.00390625 45.9765625 46.44140625 -0.00390625 44.86328125 45.47265625 9.30078125 52.19140625 38.10546875 8 33.7265625 35.1328125 -17.48828125 29.7109375 39.015625 -0.00390625 26.86328125 25.3671875 15.9609375 46.57421875 21.31640625 17.96484375 46.6640625 19.9453125 21.34765625 46.5859375 19.203125 22.00390625 50.20703125 16.23046875 19.63671875 46.75 12.71875 21.65625 49.80859375 7.95703125 18.80859375 44.08984375 2.7265625 19.79296875 51.59765625 3.765625 15.55078125 45.53515625 -2.6171875 12.28515625 38.203125 30.390625 -11.0078125 32.05859375 27.578125 -16.7890625 31.70703125 24.421875 -17.50390625 23.953125 22.1171875 -11.546875 21.10546875 21.48046875 -5.66015625 23.3984375 26.15234375 -6.30859375 48.53125 25.63671875 19.8984375 47.8203125 31.78125 19.9453125 51.56640625 29.90625 17.19921875 54.2578125 34.75 13.43359375 53.87109375 37.4140625 7.93359375 55.9765625 38.16015625 8.9296875 56.8515625 39.796875 4.46875 23.953125 22.1171875 11.546875 24.77734375 24.26171875 13.63671875 23.3984375 26.15234375 6.30859375 22.625 26.359375 0 33.70703125 23.4609375 29.44921875 26.0859375 24.8984375 31.45703125 25.25 15.765625 31.1875 13.26171875 20.84765625 29.82421875 13.22265625 12.83203125 28.67578125 6.8203125 22.7421875 25.390625 7.8125 11.9296875 23.55078125 5.0859375 11.6015625 17.6015625 35.07421875 -1.19921875 12.94140625 30.640625 -6.8125 17.578125 31.5625 -6.796875 18.76953125 27.94921875 -15.51953125 21.06640625 27.0078125 -15.9140625 23.296875 24.1328125 -24.73046875 23.19140625 20.78125 -20.75 23.27734375 18.72265625 -25.2890625 21.1875 20.9453125 -18.265625 22.8203125 51.2421875 18.23046875 -16.33984375 55.91015625 15.57421875 -14.2265625 58.88671875 12.44140625 -12.328125 62.00390625 8.13671875 -9.8203125 63.6953125 5.296875 -5.4921875 54.35546875 12.52734375 -17.20703125 49.80859375 7.95703125 -18.8203125 51.59765625 3.765625 -15.56640625 52.8359375 0.2265625 -11.62890625 21.9453125 28.2265625 -0.00390625 27.953125 16.01953125 14.3828125 40.37109375 20.171875 19.5 46.31640625 19.859375 18.0390625 55.74609375 3.6484375 -0.00390625 46.421875 4.375 -0.00390625 48.65234375 6.37109375 -12.9375 46.31640625 19.859375 -18.05078125 2.57421875 24.05859375 16.48046875 51.67578125 18.53125 19.3125 50.96484375 17.26171875 19.734375 54.35546875 12.52734375 17.1953125 56.5078125 30.453125 11.94140625 58.2890625 33.5859375 7.78125 59.15234375 35.2734375 3.62890625 59.5078125 35.71484375 -0.00390625 53.47265625 28.63671875 -17.4765625 49.88671875 24.89453125 -20.015625 62.67578125 0.99609375 -0.00390625 64.4921875 0.5859375 -5.2890625 60.57421875 4.42578125 -8.6171875 62.17578125 4.78515625 -11.78515625 58.88671875 9.16015625 -14.7578125 4.28515625 11.5546875 9.3125 27.046875 7.125 28.6640625 33.59765625 18.79296875 29.25390625 27.75390625 -20.48828125 -21.08984375 27.94921875 -15.51953125 -21.06640625 31.5625 -6.796875 -18.76953125 31.42578125 -5.703125 -20.25 36.26953125 -1.07421875 -15.3828125 34.9609375 -0.1484375 -16.8984375 27.7734375 -4.3203125 19.46875 29.56640625 -4.47265625 20.83203125 24.9296875 -8.30078125 21.6796875 26.28515625 -8.59375 22.9765625 23.53125 -14.609375 24.1796875 28.7890625 -10.0859375 22.046875 53.58984375 -2.59765625 5.88671875 53.84375 -3.4609375 -0.00390625 53.58984375 -2.59765625 -5.90234375 59.15234375 35.2734375 -3.640625 36.37109375 -26.69140625 7.83984375 31.99609375 -27.66796875 11.078125 39.3671875 -26.50390625 10.390625 35.6484375 -28.55078125 13.7109375 37.8125 -23.52734375 16.33984375 33.90234375 -25.13671875 19.13671875 36.4296875 12.77734375 -27.921875 30.26953125 4.078125 -24.69921875 28.21484375 2.921875 -22.08203125 24.7890625 2.24609375 -18.984375 22.80859375 4.40625 -23.46484375 41.703125 -22.16796875 12.26953125 62.00390625 8.13671875 9.80859375 63.6953125 5.296875 5.48046875 64.45703125 4.0625 -0.00390625 66.75 3.96484375 -0.00390625 56.07421875 14.50390625 17.34375 55.22265625 13.44140625 17.26953125 60.1171875 10.6328125 15.0234375 39.484375 -25.63671875 -4.77734375 42.53515625 -24.359375 -5.7890625 36.37109375 -26.69140625 -7.83984375 39.3671875 -26.50390625 -10.390625 36.26953125 -1.07421875 15.3828125 31.42578125 -5.703125 20.25 34.9609375 -0.1484375 16.8984375 32.21484375 -0.0703125 14.72265625 25.83984375 -27.34765625 13.98828125 32.41796875 -29.7109375 16.41796875 20.6015625 -28.51171875 17.38671875 27.78515625 -30.328125 18.8203125 24.08984375 -28.92578125 20.84375 30.12109375 -26.0390625 21.109375 13.22265625 12.83203125 -28.6875 27.046875 7.125 -28.67578125 14.43359375 7.84375 -24.5234375 15.05859375 4.68359375 -21.1328125 38.375 17.5859375 -27.09375 1.171875 24.59375 -0.00390625 4.7734375 11.60546875 -0.00390625 4.28515625 11.5546875 -9.328125 52.9453125 39.55859375 -0.00390625 55.0390625 39.453125 -0.00390625 47.16015625 35.81640625 8.76953125 43.82421875 32.46875 14.04296875 38.87890625 29.3828125 16.3671875 44.171875 -20.4609375 -6.8359375 57.36328125 40.578125 -0.00390625 31.01953125 -19.31640625 -16.5234375 42.640625 32.83984375 9.26953125 38.265625 30.25 11.0078125 52.19140625 38.10546875 -8.015625 51.6328125 31.3828125 -8.234375 20.9453125 -18.265625 -22.8203125 22.41796875 -13.84765625 -22.90625 52.24609375 37.79296875 0 25.96484375 28.09375 -14.140625 24.90234375 25.29296875 -14.71875 7.8125 11.9296875 -23.5625 5.0859375 11.6015625 -17.61328125 58.88671875 12.44140625 12.3125 63.58984375 8.6796875 11.1875 66.1328125 5.140625 5.91796875 22.41796875 -13.84765625 22.90625 30.640625 -6.8125 -17.578125 27.82421875 -15.43359375 -19.27734375 28.03515625 28.62109375 -9.7109375 31.9921875 28.78515625 -11.48828125 48.53125 25.63671875 -19.90625 55.22265625 13.44140625 -17.01171875 57.68359375 8.8828125 -14.05078125 38.80859375 -2.796875 9.390625 38.35546875 -24.03515625 -4.27734375 27.21484375 -19.8671875 -18.83984375 10.06640625 6.9609375 -19.83984375 34.92578125 -25.10546875 7.31640625 34.92578125 -25.10546875 -7.31640625 35.07421875 -1.19921875 -12.94140625 32.21484375 -0.0703125 -14.72265625 32.21484375 -0.0703125 -14.734375 31.67578125 -26.140625 10.265625 31.67578125 -26.140625 -10.265625</float_array>
                    <technique_common>
                        <accessor count="422" source="#pointarray0" stride="3">
                            <param name="X" type="float"/>
                            <param name="Y" type="float"/>
                            <param name="Z" type="float"/>
                        </accessor>
                    </technique_common>
                </source>
                <source id="uvs0">
                    <float_array id="uvarray0" count="590">0.4879150390625 0.4620361328125 0.4775390625 0.45941162109375 0.47283935546875 0.43536376953125 0.47076416015625 0.4482421875 0.4639892578125 0.4371337890625 0.4600830078125 0.43902587890625 0.42498779296875 0.41802978515625 0.45623779296875 0.44097900390625 0.4102783203125 0.42742919921875 0.41900634765625 0.444091796875 0.3956298828125 0.43682861328125 0.3721923828125 0.4617919921875 0.31317138671875 0.44000244140625 0.31561279296875 0.4617919921875 0.254150390625 0.4478759765625 0.254150390625 0.46453857421875 0.32183837890625 0.47845458984375 0.39215087890625 0.475341796875 0.43463134765625 0.4617919921875 0.46270751953125 0.451416015625 0.46917724609375 0.4617919921875 0.4700927734375 0.45538330078125 0.47332763671875 0.46063232421875 0.4979248046875 0.4658203125 0.492919921875 0.46392822265625 0.489501953125 0.43438720703125 0.48162841796875 0.43475341796875 0.48101806640625 0.4029541015625 0.4703369140625 0.40557861328125 0.43963623046875 0.37078857421875 0.426513671875 0.37640380859375 0.38458251953125 0.35595703125 0.37640380859375 0.364501953125 0.32952880859375 0.34112548828125 0.32623291015625 0.3525390625 0.2918701171875 0.33984375 0.29022216796875 0.351318359375 0.254150390625 0.338623046875 0.254150390625 0.35003662109375 0.28875732421875 0.36065673828125 0.32330322265625 0.3619384765625 0.317138671875 0.37744140625 0.36785888671875 0.37225341796875 0.38433837890625 0.397216796875 0.8341064453125 0.5465087890625 0.8656005859375 0.537109375 0.83203125 0.52740478515625 0.8695068359375 0.52935791015625 0.83514404296875 0.51898193359375 0.84136962890625 0.5106201171875 0.79693603515625 0.51373291015625 0.80010986328125 0.5064697265625 0.7587890625 0.508544921875 0.7587890625 0.50225830078125 0.80322265625 0.50018310546875 0.84765625 0.50439453125 0.87890625 0.52313232421875 0.88861083984375 0.518310546875 0.9163818359375 0.53564453125 0.92950439453125 0.5322265625 0.94140625 0.555419921875 0.9542236328125 0.55267333984375 0.9735107421875 0.57080078125 0.6624755859375 0.8292236328125 0.7562255859375 0.85003662109375 0.729248046875 0.87921142578125 0.8026123046875 0.88812255859375 0.80657958984375 0.9302978515625 0.86248779296875 0.92919921875 0.8143310546875 0.97064208984375 0.88824462890625 0.9752197265625 0.96246337890625 1 0.93121337890625 0.9666748046875 1 0.95001220703125 0.94708251953125 0.91668701171875 0.97705078125 0.89483642578125 0.9124755859375 0.8375244140625 0.95623779296875 0.8375244140625 0.8779296875 0.7933349609375 0.913818359375 0.77947998046875 0.8499755859375 0.737548828125 0.9375 0.7708740234375 0.86871337890625 0.72503662109375 0.17559814453125 0.255615234375 0.15606689453125 0.27587890625 0.17315673828125 0.2520751953125 0.1533203125 0.27215576171875 0.17071533203125 0.24853515625 0.150634765625 0.26849365234375 0.1533203125 0.2283935546875 0.133544921875 0.24932861328125 0.1282958984375 0.21136474609375 0.111083984375 0.23486328125 0.0740966796875 0.2237548828125 0.08184814453125 0.2701416015625 0.00665283203125 0.23895263671875 0.00714111328125 0.27996826171875 0.0855712890625 0.28143310546875 0.856201171875 0.8375244140625 0.86248779296875 0.875 0.8812255859375 0.88751220703125 0.79998779296875 0.862548828125 0.6624755859375 0.870849609375 0.59375 0.82086181640625 0.5914306640625 0.862548828125 0.5062255859375 0.85418701171875 0.58746337890625 0.9041748046875 0.5062255859375 0.89617919921875 0.5855712890625 0.9202880859375 0.5062255859375 0.9105224609375 0.58404541015625 0.92919921875 0.5062255859375 0.920166015625 0.5819091796875 0.93798828125 0.5062255859375 0.93243408203125 0.418701171875 0.40032958984375 0.4124755859375 0.38262939453125 0.3656005859375 0.40765380859375 0.3721923828125 0.42950439453125 0.3125 0.41180419921875 0.311767578125 0.4263916015625 0.254150390625 0.427001953125 0.79107666015625 0.55963134765625 0.76043701171875 0.55908203125 0.7606201171875 0.5689697265625 0.81011962890625 0.579345703125 0.833984375 0.56158447265625 0.89141845703125 0.58978271484375 0.89141845703125 0.57415771484375 0.93511962890625 0.59600830078125 0.93511962890625 0.58770751953125 0.9476318359375 0.59185791015625 0.94921875 0.57989501953125 0.97161865234375 0.59112548828125 0.9674072265625 0.57550048828125 0.99407958984375 0.602294921875 0.993408203125 0.59564208984375 0.5614013671875 0.25531005859375 0.52386474609375 0.29620361328125 0.520263671875 0.26953125 0.50445556640625 0.29620361328125 0.51849365234375 0.2667236328125 0.50213623046875 0.29620361328125 0.51318359375 0.29620361328125 0.51104736328125 0.30670166015625 0.5443115234375 0.29620361328125 0.5452880859375 0.30902099609375 0.5614013671875 0.29620361328125 0.5614013671875 0.3104248046875 0.57757568359375 0.30902099609375 0.57659912109375 0.32183837890625 0.61395263671875 0.3172607421875 0.5960693359375 0.325927734375 0.60247802734375 0.3172607421875 0.6119384765625 0.3302001953125 0.62139892578125 0.3172607421875 0.6239013671875 0.3172607421875 0.622314453125 0.30670166015625 0.61181640625 0.30670166015625 0.62066650390625 0.29620361328125 0.60968017578125 0.29620361328125 0.6043701171875 0.2667236328125 0.5972900390625 0.27777099609375 0.5614013671875 0.26544189453125 0.57855224609375 0.29620361328125 0.87261962890625 0.6474609375 0.92266845703125 0.633544921875 0.87890625 0.62939453125 0.9163818359375 0.62310791015625 0.87261962890625 0.6085205078125 0.91015625 0.61273193359375 0.93511962890625 0.6043701171875 0.95391845703125 0.60955810546875 0.96014404296875 0.59600830078125 0.99365234375 0.59686279296875 0.08380126953125 0.30072021484375 0.07952880859375 0.28729248046875 0.07745361328125 0.2806396484375 0.00726318359375 0.29595947265625 0.0068359375 0.284912109375 0.0711669921875 0.260498046875 0.1336669921875 0.2493896484375 0.1103515625 0.23553466796875 0.12841796875 0.2108154296875 0.10540771484375 0.2047119140625 0.5062255859375 0.81671142578125 0.65753173828125 0.91253662109375 0.724609375 0.92144775390625 0.7210693359375 0.948486328125 0.7183837890625 0.96136474609375 0.856201171875 1 0.57611083984375 0.33282470703125 0.5614013671875 0.33282470703125 0.5614013671875 0.32464599609375 0.54620361328125 0.32183837890625 0.50885009765625 0.3172607421875 0.50054931640625 0.30670166015625 0.50299072265625 0.30670166015625 0.3104248046875 0.39202880859375 0.254150390625 0.40826416015625 0.254150390625 0.3896484375 0.31378173828125 0.38470458984375 0.00714111328125 0.29150390625 0.08929443359375 0.29278564453125 0.99322509765625 0.5914306640625 0.97369384765625 0.572021484375 0.967529296875 0.57611083984375 0.89141845703125 0.55853271484375 0.86273193359375 0.55255126953125 0.5220947265625 0.30670166015625 0.50146484375 0.3172607421875 0.4989013671875 0.3172607421875 0.51690673828125 0.32916259765625 0.5467529296875 0.33282470703125 0.53887939453125 0.33514404296875 0.457763671875 0.40869140625 0.60589599609375 0.32916259765625 0.61395263671875 0.33056640625 0.58392333984375 0.33514404296875 0.5614013671875 0.33514404296875 0.44061279296875 0.4888916015625 0.39373779296875 0.49755859375 0.3375244140625 0.4949951171875 0.71697998046875 0.71044921875 0.79998779296875 0.76251220703125 0.8125 0.75836181640625 0.86871337890625 0.8375244140625 0.99371337890625 0.875 0.1649169921875 0.24163818359375 0.15399169921875 0.22796630859375 0.09234619140625 0.22991943359375 0.08245849609375 0.1986083984375 0.07427978515625 0.22430419921875 0.04132080078125 0.1943359375 0.03582763671875 0.2164306640625 0.89923095703125 0.54681396484375 0.0072021484375 0.3070068359375 0.14483642578125 0.26263427734375 0.17584228515625 0.25531005859375 0.00701904296875 0.2236328125 0.00701904296875 0.26275634765625 0.035400390625 0.21600341796875 0.00665283203125 0.214111328125 0.0418701171875 0.19451904296875 0.75909423828125 0.5205078125 0.847412109375 0.66326904296875 0.8759765625 0.6627197265625 0.92889404296875 0.64605712890625 0.96014404296875 0.633544921875 0.9476318359375 0.62310791015625 0.98516845703125 0.62103271484375 0.9879150390625 0.6163330078125 0.83123779296875 0.75 0.731201171875 0.70001220703125 0.74371337890625 0.69171142578125 0.4495849609375 0.202880859375 0.275390625 0.180908203125 0.3568115234375 0.25689697265625 0.2767333984375 0.25689697265625 0.278564453125 0.31988525390625 0.357421875 0.32000732421875 0.45458984375 0.32806396484375 0.0823974609375 0.19891357421875 0.01007080078125 0.19342041015625 0.6519775390625 0.94622802734375 0.654541015625 0.93353271484375 0.00701904296875 0.2139892578125 0.01043701171875 0.1934814453125 0.90386962890625 0.539794921875 0.7562255859375 0.683349609375 0.29364013671875 0.4964599609375 0.254150390625 0.481201171875 0.254150390625 0.4915771484375 0.254150390625 0.38226318359375 0.254150390625 0.37493896484375 0.00714111328125 0.30303955078125 0.6025390625 0.26953125 0.61834716796875 0.29620361328125 0.619873046875 0.30670166015625 0.254150390625 0.35943603515625 0.5989990234375 0.29620361328125 0.6007080078125 0.30670166015625 0.52557373046875 0.27777099609375 0.981201171875 0.8375244140625 0.5614013671875 0.25177001953125 0.51092529296875 0.3302001953125 0.50885009765625 0.33056640625 0.45416259765625 0.27215576171875 0.5267333984375 0.325927734375 0.5203857421875 0.3172607421875 0.84454345703125 0.59393310546875 0.99066162109375 0.61163330078125 0.6492919921875 0.9549560546875 0.9927978515625 0.58892822265625 0.7587890625 0.49603271484375 0.71807861328125 0.9718017578125</float_array>
                    <technique_common>
                        <accessor count="295" source="#uvarray0" stride="2">
                            <param name="S" type="float"/>
                            <param name="T" type="float"/>
                        </accessor>
                    </technique_common>
                </source>
                <vertices id="vertices0">
                    <input semantic="POSITION" source="#points0"/>
                </vertices>
                <polylist count="764" material="Material1">
                    <input offset="0" semantic="VERTEX" source="#vertices0"/>
                    <input offset="1" semantic="TEXCOORD" source="#uvs0" set="0"/>
                    <vcount>3 3 3 3 3 3 3 3 3 3 3 3 3 3 3 3 3 3 3 3 3 3 3 3 3 3 3 3 3 3 3 3 3 3 3 3 3 3 3 3 3 3 3 3 3 3 3 3 3 3 3 3 3 3 3 3 3 3 3 3 3 3 3 3 3 3 3 3 3 3 3 3 3 3 3 3 3 3 3 3 3 3 3 3 3 3 3 3 3 3 3 3 3 3 3 3 3 3 3 3 3 3 3 3 3 3 3 3 3 3 3 3 3 3 3 3 3 3 3 3 3 3 3 3 3 3 3 3 3 3 3 3 3 3 3 3 3 3 3 3 3 3 3 3 3 3 3 3 3 3 3 3 3 3 3 3 3 3 3 3 3 3 3 3 3 3 3 3 3 3 3 3 3 3 3 3 3 3 3 3 3 3 3 3 3 3 3 3 3 3 3 3 3 3 3 3 3 3 3 3 3 3 3 3 3 3 3 3 3 3 3 3 3 3 3 3 3 3 3 3 3 3 3 3 3 3 3 3 3 3 3 3 3 3 3 3 3 3 3 3 3 3 3 3 3 3 3 3 3 3 3 3 3 3 3 3 3 3 3 3 3 3 3 3 3 3 3 3 3 3 3 3 3 3 3 3 3 3 3 3 3 3 3 3 3 3 3 3 3 3 3 3 3 3 3 3 3 3 3 3 3 3 3 3 3 3 3 3 3 3 3 3 3 3 3 3 3 3 3 3 3 3 3 3 3 3 3 3 3 3 3 3 3 3 3 3 3 3 3 3 3 3 3 3 3 3 3 3 3 3 3 3 3 3 3 3 3 3 3 3 3 3 3 3 3 3 3 3 3 3 3 3 3 3 3 3 3 3 3 3 3 3 3 3 3 3 3 3 3 3 3 3 3 3 3 3 3 3 3 3 3 3 3 3 3 3 3 3 3 3 3 3 3 3 3 3 3 3 3 3 3 3 3 3 3 3 3 3 3 3 3 3 3 3 3 3 3 3 3 3 3 3 3 3 3 3 3 3 3 3 3 3 3 3 3 3 3 3 3 3 3 3 3 3 3 3 3 3 3 3 3 3 3 3 3 3 3 3 3 3 3 3 3 3 3 3 3 3 3 3 3 3 3 3 3 3 3 3 3 3 3 3 3 3 3 3 3 3 3 3 3 3 3 3 3 3 3 3 3 3 3 3 3 3 3 3 3 3 3 3 3 3 3 3 3 3 3 3 3 3 3 3 3 3 3 3 3 3 3 3 3 3 3 3 3 3 3 3 3 3 3 3 3 3 3 3 3 3 3 3 3 3 3 3 3 3 3 3 3 3 3 3 3 3 3 3 3 3 3 3 3 3 3 3 3 3 3 3 3 3 3 3 3 3 3 3 3 3 3 3 3 3 3 3 3 3 3 3 3 3 3 3 3 3 3 3 3 3 3 3 3 3 3 3 3 3 3 3 3 3 3 3 3 3 3 3 3 3 3 3 3 3 3 3 3 3 3 3 3 3 3 3 3 3 3 3 3 3 3 3 3 3 3 3 3 3 3 3 3 3 3 3 3 3 3 3 3 3 3 3 3 3 3 3 3 3 3 3 3 3 3 3 3 3 3 3 3 3 3 3 3 3 3 3 3 3 3 3 3 3 3 3 3 3 3 3 3 3 3 3 3 3 3 3 3 3 3 3 3 3 3 3 3 3 3 3 3 3 3 3 3 3 3 3 3 3 3 3 3 3 3 3 3 3</vcount>
                    <p>2 2 1 1 0 0 3 3 1 1 2 2 4 4 3 3 2 2 5 5 3 3 4 4 6 6 5 5 4 4 7 7 5 5 6 6 8 8 7 7 6 6 9 9 7 7 8 8 10 10 9 9 8 8 11 11 9 9 10 10 12 12 11 11 10 10 13 13 11 11 12 12 14 14 13 13 12 12 15 15 13 13 14 14 16 13 15 15 14 14 17 16 15 15 16 13 18 11 17 16 16 13 19 17 17 16 18 11 20 9 19 17 18 11 21 18 19 17 20 9 22 19 21 18 20 9 23 20 21 18 22 19 24 21 23 20 22 19 25 22 23 20 24 21 26 1 25 22 24 21 29 25 28 24 27 23 30 26 28 24 29 25 31 27 30 26 29 25 32 28 30 26 31 27 33 29 32 28 31 27 34 30 32 28 33 29 35 31 34 30 33 29 36 32 34 30 35 31 37 33 36 32 35 31 38 34 36 32 37 33 39 35 38 34 37 33 40 36 38 34 39 35 41 37 40 36 39 35 42 38 40 36 41 37 43 36 42 38 41 37 44 39 42 38 43 36 45 40 44 39 43 36 46 41 44 39 45 40 47 42 46 41 45 40 48 43 46 41 47 42 51 46 50 45 49 44 52 47 50 45 51 46 53 48 52 47 51 46 54 49 52 47 53 48 55 50 54 49 53 48 56 51 54 49 55 50 57 52 56 51 55 50 58 53 56 51 57 52 59 51 58 53 57 52 60 54 58 53 59 51 61 49 60 54 59 51 62 55 60 54 61 49 63 56 62 55 61 49 64 57 62 55 63 56 65 58 64 57 63 56 66 59 64 57 65 58 67 60 66 59 65 58 68 61 66 59 67 60 69 62 68 61 67 60 72 65 71 64 70 63 73 66 71 64 72 65 74 67 73 66 72 65 75 68 73 66 74 67 76 69 75 68 74 67 77 70 75 68 76 69 78 71 77 70 76 69 79 72 77 70 78 71 80 73 79 72 78 71 81 74 79 72 80 73 82 75 81 74 80 73 83 76 81 74 82 75 84 77 83 76 82 75 85 78 83 76 84 77 86 79 85 78 84 77 87 80 85 78 86 79 88 81 87 80 86 79 89 82 87 80 88 81 92 85 91 84 90 83 93 86 91 84 92 85 94 87 93 86 92 85 95 88 93 86 94 87 96 89 95 88 94 87 97 90 95 88 96 89 98 91 97 90 96 89 99 92 97 90 98 91 100 93 99 92 98 91 101 94 99 92 100 93 102 95 101 94 100 93 103 96 101 94 102 95 104 94 103 96 102 95 105 97 103 96 104 94 106 90 105 97 104 94 107 88 105 97 106 90 33 89 107 88 106 90 31 87 107 88 33 89 110 100 109 99 108 98 111 101 109 99 110 100 112 66 111 101 110 100 113 64 111 101 112 66 114 65 113 64 112 66 115 63 113 64 114 65 116 102 115 63 114 65 117 103 115 63 116 102 118 104 117 103 116 102 119 105 117 103 118 104 120 106 119 105 118 104 121 107 119 105 120 106 122 108 121 107 120 106 123 109 121 107 122 108 124 110 123 109 122 108 125 111 123 109 124 110 126 112 125 111 124 110 127 113 125 111 126 112 128 24 92 25 90 23 129 26 92 25 128 24 130 0 129 26 128 24 131 2 129 26 130 0 26 1 131 2 130 0 132 3 131 2 26 1 133 5 132 3 26 1 134 4 132 3 133 5 135 6 134 4 133 5 136 114 134 4 135 6 48 43 136 114 135 6 137 115 136 114 48 43 47 42 137 115 48 43 138 32 137 115 47 42 139 34 138 32 47 42 140 33 138 32 139 34 141 35 140 33 139 34 143 116 6 6 142 43 144 117 6 6 143 116 145 118 144 117 143 116 146 119 144 117 145 118 147 120 146 119 145 118 14 14 146 119 147 120 148 119 14 14 147 120 149 12 14 14 148 119 150 117 149 12 148 119 151 10 149 12 150 117 152 8 151 10 150 117 153 7 151 10 152 8 135 6 153 7 152 8 133 5 153 7 135 6 156 123 155 122 154 121 157 121 155 122 156 123 158 124 157 121 156 123 159 125 157 121 158 124 160 126 159 125 158 124 161 127 159 125 160 126 162 128 161 127 160 126 163 129 161 127 162 128 164 130 163 129 162 128 165 131 163 129 164 130 166 132 165 131 164 130 167 133 165 131 166 132 130 134 167 133 166 132 128 135 167 133 130 134 170 138 169 137 168 136 171 139 169 137 170 138 172 140 171 139 170 138 173 141 171 139 172 140 174 142 173 141 172 140 175 143 173 141 174 142 176 144 175 143 174 142 177 145 175 143 176 144 178 146 177 145 176 144 179 147 177 145 178 146 180 148 179 147 178 146 181 149 179 147 180 148 182 150 181 149 180 148 185 153 184 152 183 151 186 154 184 152 185 153 187 155 186 154 185 153 188 156 186 154 187 155 189 157 188 156 187 155 190 158 188 156 189 157 191 159 190 158 189 157 192 160 190 158 191 159 193 161 192 160 191 159 194 162 192 160 193 161 195 163 194 162 193 161 178 146 194 162 195 163 180 148 178 146 195 163 198 166 197 165 196 164 199 167 197 165 198 166 200 168 199 167 198 166 201 169 199 167 200 168 202 126 201 169 200 168 203 170 201 169 202 126 204 128 203 170 202 126 205 171 203 170 204 128 206 130 205 171 204 128 207 172 205 171 206 130 208 132 207 172 206 130 0 134 207 172 208 132 28 173 0 134 208 132 209 174 93 86 95 88 91 84 93 86 209 174 210 175 91 84 209 174 211 176 91 84 210 175 212 177 211 176 210 175 213 178 211 176 212 177 214 176 213 178 212 177 215 179 213 178 214 176 216 180 215 179 214 176 217 181 215 179 216 180 218 182 217 181 216 180 219 183 217 181 218 182 119 105 220 184 117 103 221 103 220 184 119 105 222 104 221 103 119 105 223 102 221 103 222 104 224 185 223 102 222 104 72 65 223 102 224 185 225 186 72 65 224 185 74 67 72 65 225 186 226 187 74 67 225 186 76 69 74 67 226 187 227 188 76 69 226 187 228 189 76 69 227 188 230 191 181 149 229 190 231 192 181 149 230 191 232 193 231 192 230 191 177 145 231 192 232 193 233 194 177 145 232 193 175 143 177 145 233 194 234 195 175 143 233 194 173 141 175 143 234 195 235 196 173 141 234 195 171 139 173 141 235 196 169 137 171 139 235 196 150 117 135 6 152 8 236 116 135 6 150 117 237 118 236 116 150 117 238 197 236 116 237 118 239 198 238 197 237 118 240 199 238 197 239 198 241 197 240 199 239 198 242 200 240 199 241 197 143 116 242 200 241 197 142 43 242 200 143 116 101 94 97 90 99 92 243 97 97 90 101 94 103 96 243 97 101 94 244 201 243 97 103 96 105 97 244 201 103 96 245 202 244 201 105 97 107 88 245 202 105 97 246 86 245 202 107 88 29 85 246 86 107 88 27 83 246 86 29 85 28 173 247 204 27 203 248 205 247 204 28 173 208 132 248 205 28 173 249 131 248 205 208 132 250 129 249 131 208 132 251 206 249 131 250 129 252 127 251 206 250 129 253 207 251 206 252 127 254 125 253 207 252 127 49 44 253 207 254 125 235 196 255 208 169 137 256 209 255 208 235 196 234 195 256 209 235 196 257 210 256 209 234 195 233 194 257 210 234 195 258 211 257 210 233 194 232 193 258 211 233 194 259 212 258 211 232 193 230 191 259 212 232 193 260 213 259 212 230 191 261 214 4 4 2 2 262 114 4 4 261 214 263 115 262 114 261 214 142 43 262 114 263 115 264 42 142 43 263 115 265 41 142 43 264 42 266 40 265 41 264 42 267 39 265 41 266 40 40 36 267 39 266 40 42 38 267 39 40 36 189 157 180 148 195 163 182 150 180 148 189 157 187 155 182 150 189 157 268 215 182 150 187 155 269 216 268 215 187 155 229 190 268 215 269 216 270 217 229 190 269 216 230 191 229 190 270 217 271 218 230 191 270 217 260 213 230 191 271 218 5 5 1 1 3 3 272 21 1 1 5 5 273 19 272 21 5 5 274 20 272 21 273 19 275 18 274 20 273 19 276 219 274 20 275 18 277 17 276 219 275 18 278 220 276 219 277 17 279 221 278 220 277 17 282 224 281 223 280 222 108 98 281 223 282 224 283 225 108 98 282 224 110 100 108 98 283 225 284 76 110 100 283 225 285 74 110 100 284 76 286 75 285 74 284 76 287 73 285 74 286 75 288 226 287 73 286 75 289 180 68 228 69 227 66 182 68 228 289 180 290 181 66 182 289 180 64 183 66 182 290 181 291 229 64 183 290 181 62 230 64 183 291 229 292 231 62 230 291 229 60 232 62 230 292 231 293 233 60 232 292 231 67 60 167 133 69 62 165 131 167 133 67 60 294 234 165 131 67 60 163 129 165 131 294 234 295 206 163 129 294 234 161 127 163 129 295 206 296 207 161 127 295 206 159 125 161 127 296 207 297 44 159 125 296 207 298 235 210 175 209 174 212 177 210 175 298 235 299 175 212 177 298 235 214 176 212 177 299 175 300 84 214 176 299 175 301 236 214 176 300 84 27 237 301 236 300 84 247 227 301 236 27 237 303 239 215 179 302 238 213 178 215 179 303 239 304 179 213 178 303 239 211 176 213 178 304 179 289 180 211 176 304 179 305 236 211 176 289 180 69 227 305 236 289 180 90 237 305 236 69 227 7 7 273 19 5 5 275 18 273 19 7 7 9 9 275 18 7 7 277 17 275 18 9 9 11 11 277 17 9 9 306 16 277 17 11 11 13 13 306 16 11 11 15 15 306 16 13 13 248 205 307 61 247 204 308 60 307 61 248 205 249 131 308 60 248 205 309 234 308 60 249 131 251 206 309 234 249 131 50 45 309 234 251 206 253 207 50 45 251 206 49 44 50 45 253 207 106 90 35 91 33 89 310 92 35 91 106 90 104 94 310 92 106 90 311 93 310 92 104 94 102 95 311 93 104 94 312 240 311 93 102 95 313 241 312 240 102 95 39 242 312 240 313 241 98 31 138 32 140 33 314 30 138 32 98 31 96 29 314 30 98 31 315 28 314 30 96 29 94 27 315 28 96 29 129 26 315 28 94 27 92 25 129 26 94 27 316 243 57 52 55 50 317 50 57 52 316 243 318 46 317 50 316 243 319 48 317 50 318 46 320 47 319 48 318 46 61 49 319 48 320 47 63 56 61 49 320 47 149 12 16 13 14 14 18 11 16 13 149 12 151 10 18 11 149 12 20 9 18 11 151 10 153 7 20 9 151 10 22 19 20 9 153 7 133 5 22 19 153 7 196 164 279 245 321 244 278 246 279 245 196 164 197 165 278 246 196 164 276 247 278 246 197 165 322 248 276 247 197 165 274 249 276 247 322 248 323 250 274 249 322 248 83 76 324 100 81 74 325 225 324 100 83 76 85 78 325 225 83 76 326 224 325 225 85 78 327 251 326 224 85 78 328 252 326 224 327 251 329 253 328 252 327 251 332 81 331 80 330 82 333 79 331 80 332 81 334 77 333 79 332 81 335 78 333 79 334 77 284 76 335 78 334 77 283 225 335 78 284 76 336 256 316 255 51 254 337 257 316 255 336 256 155 258 337 257 336 256 338 256 337 257 155 258 157 259 338 256 155 258 159 260 338 256 157 259 140 261 100 93 98 91 339 240 100 93 140 261 141 242 339 240 140 261 313 241 339 240 141 242 41 262 313 241 141 242 39 242 313 241 41 262 342 264 341 188 340 263 343 187 341 188 342 264 344 186 343 187 342 264 345 67 343 187 344 186 114 65 345 67 344 186 112 66 345 67 114 65 162 128 346 171 164 130 347 170 346 171 162 128 160 126 347 170 162 128 348 169 347 170 160 126 349 168 348 169 160 126 350 167 348 169 349 168 122 108 340 263 124 110 342 264 340 263 122 108 120 106 342 264 122 108 351 185 342 264 120 106 118 104 351 185 120 106 116 102 351 185 118 104 353 233 215 179 352 231 302 238 215 179 353 233 354 265 302 238 353 233 293 233 302 238 354 265 355 266 293 233 354 265 60 232 293 233 355 266 308 60 218 59 307 61 356 58 218 59 308 60 357 267 356 58 308 60 358 56 356 58 357 267 52 47 358 56 357 267 54 49 358 56 52 47 359 110 123 109 125 111 360 108 123 109 359 110 361 263 360 108 359 110 362 264 360 108 361 263 227 188 362 264 361 263 226 187 362 264 227 188 363 252 282 224 280 222 364 251 282 224 363 252 365 253 364 251 363 252 331 80 364 251 365 253 366 268 331 80 365 253 330 82 331 80 366 268 368 69 367 189 341 188 369 71 367 189 368 69 370 70 369 71 368 69 371 72 369 71 370 70 372 68 371 72 370 70 372 68 112 66 110 100 345 67 112 66 372 68 368 69 345 67 372 68 343 187 345 67 368 69 341 188 343 187 368 69 374 248 373 247 23 249 375 165 373 247 374 248 350 167 375 165 374 248 376 166 375 165 350 167 349 168 376 166 350 167 25 250 374 248 23 249 346 171 374 248 25 250 377 172 346 171 25 250 164 130 346 171 377 172 166 132 164 130 377 172 306 16 279 221 277 17 321 269 279 221 306 16 378 270 321 269 306 16 379 271 321 269 378 270 380 269 379 271 378 270 265 41 242 200 142 43 381 272 242 200 265 41 382 273 381 272 265 41 46 41 381 272 382 273 44 39 46 41 382 273 243 97 95 88 97 90 209 202 95 88 243 97 244 201 209 202 243 97 298 274 209 202 244 201 245 202 298 274 244 201 384 276 192 160 383 275 190 158 192 160 384 276 385 277 190 158 384 276 188 156 190 158 385 277 186 154 188 156 385 277 360 108 121 107 123 109 386 106 121 107 360 108 362 264 386 106 360 108 224 185 386 106 362 264 225 186 224 185 362 264 267 39 382 273 265 41 387 278 382 273 267 39 42 38 387 278 267 39 44 39 387 278 42 38 37 261 312 240 39 242 311 93 312 240 37 261 35 91 311 93 37 261 310 92 311 93 35 91 285 74 372 68 110 100 371 72 372 68 285 74 287 73 371 72 285 74 369 71 371 72 287 73 73 66 388 101 71 64 324 100 388 101 73 66 75 68 324 100 73 66 81 74 324 100 75 68 389 279 384 276 383 275 385 277 384 276 389 279 390 280 385 277 389 279 184 152 385 277 390 280 236 116 48 43 135 6 391 200 48 43 236 116 238 197 391 200 236 116 240 199 391 200 238 197 176 144 194 162 178 146 392 281 194 162 176 144 174 142 392 281 176 144 172 140 392 281 174 142 393 226 82 75 80 73 84 77 82 75 393 226 394 282 84 77 393 226 88 81 84 77 394 282 395 283 192 160 194 162 383 275 192 160 395 283 168 136 383 275 395 283 389 279 383 275 168 136 257 210 396 284 256 209 397 285 396 284 257 210 258 211 397 285 257 210 259 212 397 285 258 211 373 219 21 18 23 20 19 17 21 18 373 219 398 220 19 17 373 219 399 221 19 17 398 220 400 229 215 179 217 181 352 231 215 179 400 229 401 230 352 231 400 229 402 232 352 231 401 230 334 77 286 75 284 76 288 226 286 75 334 77 403 282 288 226 334 77 405 98 326 224 404 223 325 225 326 224 405 98 324 100 325 225 405 98 386 106 119 105 121 107 222 104 119 105 386 106 224 185 222 104 386 106 378 270 17 16 380 269 15 15 17 16 378 270 306 16 15 15 378 270 338 256 316 255 337 257 318 254 316 255 338 256 297 286 318 254 338 256 407 288 396 284 406 287 256 209 396 284 407 288 255 208 256 209 407 288 408 214 136 114 137 115 134 4 136 114 408 214 132 3 134 4 408 214 408 214 129 26 131 2 315 28 129 26 408 214 137 115 315 28 408 214 317 50 59 51 57 52 61 49 59 51 317 50 319 48 61 49 317 50 263 115 34 30 36 32 32 28 34 30 263 115 261 214 32 28 263 115 199 167 322 248 197 165 203 170 322 248 199 167 201 169 203 170 199 167 54 49 219 57 358 56 401 55 219 57 54 49 402 54 401 55 54 49 409 267 67 60 65 58 294 234 67 60 409 267 410 45 294 234 409 267 304 179 290 181 289 180 291 229 290 181 304 179 292 231 291 229 304 179 202 126 254 125 252 127 411 124 254 125 202 126 366 289 411 124 202 126 410 45 297 44 296 207 318 46 297 44 410 45 320 47 318 46 410 45 144 117 8 8 6 6 10 10 8 8 144 117 12 12 10 10 144 117 412 112 125 111 127 113 359 110 125 111 412 112 413 99 324 100 405 98 388 101 324 100 413 99 302 238 304 179 303 239 293 233 304 179 302 238 30 26 261 214 2 2 32 28 261 214 30 26 305 236 91 84 211 176 90 237 91 84 305 236 154 259 336 256 254 260 155 258 336 256 154 259 262 114 6 6 4 4 142 43 6 6 262 114 49 286 336 256 51 254 254 260 336 256 49 286 148 119 237 118 150 117 147 120 237 118 148 119 266 40 38 34 40 36 264 42 38 34 266 40 402 232 353 233 352 231 355 266 353 233 402 232 400 229 219 183 401 230 217 181 219 183 400 229 264 42 36 32 38 34 263 115 36 32 264 42 350 167 347 170 348 169 374 248 347 170 350 167 282 224 335 78 283 225 364 251 335 78 282 224 26 290 377 172 25 250 130 134 377 172 26 290 414 164 375 165 376 166 398 246 375 165 414 164 295 206 410 45 296 207 294 234 410 45 295 206 331 80 335 78 364 251 333 79 335 78 331 80 56 51 402 54 54 49 58 53 402 54 56 51 356 58 219 57 218 59 358 56 219 57 356 58 147 120 239 198 237 118 145 118 239 198 147 120 309 234 357 267 308 60 50 45 357 267 309 234 51 46 55 50 53 48 316 243 55 50 51 46 179 147 231 192 177 145 181 149 231 192 179 147 206 130 250 129 208 132 204 128 250 129 206 130 314 30 137 115 138 32 315 28 137 115 314 30 339 240 102 95 100 93 313 241 102 95 339 240 301 236 216 180 214 176 247 227 216 180 301 236 245 202 300 84 299 175 246 86 300 84 245 202 397 285 260 213 396 284 259 212 260 213 397 285 269 216 185 153 270 217 187 155 185 153 269 216 172 140 194 162 392 281 395 283 194 162 172 140 191 159 195 163 193 161 189 157 195 163 191 159 323 250 205 171 207 172 322 248 205 171 323 250 1 290 207 172 0 134 323 250 207 172 1 290 124 110 415 291 126 112 340 263 415 291 124 110 63 56 409 267 65 58 320 47 409 267 63 56 416 291 359 110 412 112 361 263 359 110 416 291 399 245 414 164 380 244 398 246 414 164 399 245 327 251 87 80 329 253 85 78 87 80 327 251 417 222 326 224 328 252 404 223 326 224 417 222 418 268 87 80 89 82 329 253 87 80 418 268 79 72 75 68 77 70 81 74 75 68 79 72 223 102 70 63 221 103 72 65 70 63 223 102 146 119 12 12 144 117 14 14 12 12 146 119 114 65 351 185 116 102 344 186 351 185 114 65 28 24 2 2 0 0 30 26 2 2 28 24 399 221 17 16 19 17 380 269 17 16 399 221 272 21 323 22 1 1 274 20 323 22 272 21 24 21 133 5 26 1 22 19 133 5 24 21 419 289 160 126 158 124 349 168 160 126 419 289 241 197 145 118 143 116 239 198 145 118 241 197 381 272 240 199 242 200 391 200 240 199 381 272 307 228 216 180 247 227 218 182 216 180 307 228 90 292 167 133 128 135 69 62 167 133 90 292 411 124 154 121 254 125 156 123 154 121 411 124 204 128 252 127 250 129 202 126 252 127 204 128 43 36 141 35 139 34 41 37 141 35 43 36 45 40 139 34 47 42 43 36 139 34 45 40 391 200 46 41 48 43 381 272 46 41 391 200 58 53 355 293 402 54 60 54 355 293 58 53 408 214 131 2 132 3 385 277 184 152 186 154 409 267 320 47 410 45 341 188 415 291 340 263 227 188 361 263 416 291 420 294 415 291 341 188 367 189 420 294 341 188 228 189 227 188 421 294 421 294 227 188 416 291 107 88 31 87 29 85 203 170 205 171 322 248 299 175 298 235 245 174 357 267 50 45 52 47 246 86 27 83 300 84 200 168 366 289 202 126 344 186 342 264 351 185 84 77 88 81 86 79 76 69 228 189 78 71 225 186 362 264 226 187 334 77 332 81 403 282 368 69 372 68 370 70 398 246 373 247 375 165 347 170 374 248 346 171 377 172 130 134 166 132 353 233 355 266 354 265 338 256 159 260 297 286 304 179 293 233 292 231 382 273 387 278 44 39</p>
                </polylist>
            </mesh>
        </geometry>
    </library_geometries>
    <library_visual_scenes>
        <visual_scene id="VisualSceneNode">
            <node id="node0" name="m0" type="NODE">
                <instance_geometry url="#mesh0">
                    <bind_material>
                        <technique_common>
                            <instance_material symbol="Material1" target="#mat0">
                                <bind_vertex_input semantic="UVSET0" input_semantic="TEXCOORD" input_set="0"></bind_vertex_input>
                            </instance_material>
                        </technique_common>
                    </bind_material>
                </instance_geometry>
            </node>
        </visual_scene>
    </library_visual_scenes>
    <scene>
        <instance_visual_scene url="#VisualSceneNode"></instance_visual_scene>
    </scene>
</COLLADA>
