<?xml version="1.0"?>
<COLLADA xmlns="http://www.collada.org/2005/11/COLLADASchema" version="1.4.1">
    <asset>
        <contributor>
            <authoring_tool>J3D Ripoff Exporter</authoring_tool>
        </contributor>
        <created>2024-08-02T13:56:43.863Z</created>
        <modified>2024-08-02T13:56:43.863Z</modified>
		<unit meter="0.01" name="centimeter" ></unit>
        <up_axis>Y_UP</up_axis>
    </asset>
    <library_images>
        <image id="tex0">
            <init_from>donkey_all.png</init_from>
        </image>
    </library_images>
    <library_effects>
        <effect id="effect0">
            <profile_COMMON>
                <newparam sid="surface0">
                    <surface type="2D">
                        <init_from>tex0</init_from>
                    </surface>
                </newparam>
                <newparam sid="sampler0">
                    <sampler2D>
                        <source>surface0</source>
                    </sampler2D>
                </newparam>
                <technique sid="COMMON">
                    <blinn>
                        <diffuse>
                            <texture texture="sampler0" texcoord="UVSET0"></texture>
                        </diffuse>
                    </blinn>
                </technique>
            </profile_COMMON>
        </effect>
    </library_effects>
    <library_materials>
        <material id="mat0" name="Dummy">
            <instance_effect url="#effect0"></instance_effect>
        </material>
    </library_materials>
    <library_geometries>
        <geometry id="mesh0">
            <mesh>
                <source id="points0">
                    <float_array id="pointarray0" count="1149">21.46875 22.08984375 -14.88671875 19.29296875 22.55859375 0 19.8203125 20.1171875 -6.640625 19.47265625 21.18359375 0 21.19921875 19.15625 0 19.8203125 20.1171875 6.640625 21.60546875 18.2734375 5.59375 21.7421875 20.74609375 15.4921875 23.1015625 18.59765625 13.12109375 27.36328125 22.58203125 18.42578125 28.12890625 20.2421875 15.4921875 37.97265625 26.05078125 17.47265625 38.73828125 23.7109375 14.22265625 51.0078125 30.31640625 10.9453125 48.13671875 26.78515625 9.14453125 50.921875 28.1328125 0 37.37109375 22.140625 5.046875 37.0234375 23.2109375 0 27.26953125 18.67578125 5.78515625 25.984375 20.5078125 0 27.2734375 18.67578125 -5.78515625 21.60546875 18.2734375 -5.59375 23.1015625 18.59765625 -13.12109375 21.7421875 20.74609375 -15.4921875 27.36328125 22.58203125 -18.42578125 26.94140625 23.87890625 -17.67578125 26.3984375 25.54296875 -12.09765625 35.3046875 28.45703125 -11.08203125 25.87109375 27.14453125 0 34.95703125 29.5234375 0 37.00390625 29.01171875 11.08203125 51.53515625 34.0078125 0 48.1484375 31.71875 10.484375 54.67578125 32.6953125 0 7.2421875 11.74609375 25.87890625 5.34375 11.10546875 19.43359375 5.62890625 19.64453125 27.37890625 1.83984375 20.24609375 17.47265625 8.89453125 30.41796875 23.953125 6.21875 31.6875 15.484375 13.09765625 40.7578125 14.7734375 10.546875 40.984375 0 20.1796875 45.87109375 13.39453125 19.6875 47.1328125 0 31.0625 47.1171875 11.4140625 31.625 48.31640625 0 41.65625 45.15625 10.53125 44.63671875 45.15625 0 50.765625 40.1328125 11.38671875 54.24609375 40.96875 0 59.5859375 37.10546875 5.265625 60.109375 37.35546875 0 64.26171875 36.1640625 0 59.58203125 37.109375 -5.265625 63.3125 35.89453125 -5.77734375 57.21875 36.140625 -11.7734375 60.5390625 34.9140625 -12.2890625 53.890625 32.82421875 -19.25 53.984375 29.20703125 -19.3671875 47.1640625 27.15625 -24.1328125 36.37109375 -25.9609375 -7.83984375 39.484375 -24.90625 -4.77734375 42.53515625 -23.62890625 -5.7890625 43.4140625 -22.72265625 0 44.8203125 -18.9453125 0 42.53515625 -23.62890625 5.7890625 44.171875 -19.73046875 6.8359375 39.3671875 -25.7734375 10.390625 41.703125 -21.4375 12.26953125 37.8125 -23.55078125 16.33984375 36.59375 -18.5546875 16.3359375 33.90234375 -25.078125 19.13671875 32.5625 -19.8671875 19.5078125 30.390625 -25.59765625 21.109375 27.75390625 -20.34765625 21.08984375 24.1328125 -24.94921875 23.19140625 27.0078125 -15.9140625 23.296875 20.78125 -20.75 23.27734375 23.53125 -14.609375 24.1796875 20.9453125 -18.265625 22.8203125 22.41796875 -13.84765625 22.90625 27.7734375 -4.3203125 -19.46875 24.9296875 -8.30078125 -21.6796875 29.56640625 -4.47265625 -20.83203125 26.28515625 -8.59375 -22.9765625 28.7890625 -10.0859375 -22.046875 23.53125 -14.609375 -24.1796875 27.0078125 -15.9140625 -23.296875 20.78125 -20.75 -23.27734375 24.1328125 -24.94921875 -23.19140625 18.72265625 -25.2890625 -21.1875 24.08984375 -29.17578125 -20.84375 20.6015625 -28.51171875 -17.38671875 27.78515625 -29.80859375 -18.8203125 32.41796875 -29.2890625 -16.41796875 30.390625 -25.59765625 -21.109375 33.90234375 -25.078125 -19.13671875 32.5625 -19.8671875 -19.5078125 36.59375 -18.5546875 -16.3359375 34.08203125 -17.41796875 -14.46875 37.61328125 -15.234375 -10.7109375 28.83203125 19.5390625 -30.7578125 29.55859375 19.68359375 -28.78125 35.79296875 22.89453125 -28.32421875 35.46484375 22.41015625 -26.44921875 46.5703125 26.5546875 -22.4375 53 28.6796875 -17.99609375 60.62109375 31.24609375 -12.24609375 59.43359375 30.80859375 -11.578125 61.78515625 31.71484375 -5.703125 49.05859375 35.98046875 0 62.61328125 32.0390625 0 61.78515625 31.71484375 5.703125 63.109375 32.1953125 5.91015625 60.62109375 31.24609375 12.2578125 28.87109375 17.45703125 31.11328125 39.05859375 16.98828125 30.0234375 38.38671875 15.48828125 30.453125 47.109375 16.53125 27.5859375 46.6171875 14.73046875 27.65625 56.58984375 16.078125 21.58984375 56.27734375 13.96875 21.34375 64.90234375 14.19140625 13.3671875 64.3984375 11.921875 13.3359375 67.64453125 13.6484375 6.68359375 67.1484375 11.41796875 6.66796875 68.3984375 11.2421875 0 65.5 10.1796875 0 64.41796875 10.328125 -6.3046875 60.5859375 6.31640625 0 57.79296875 7.52734375 -11.96875 26.796875 16.76953125 31.87109375 28.52734375 18.7109375 30.98046875 26.5234375 18.796875 31.9375 28.83984375 19.52734375 30.7578125 26.97265625 19.78515625 31.59765625 34.46875 28.44921875 27.66796875 24.3203125 22.18359375 31.51171875 29.9140625 34.515625 28.3515625 20.85546875 24.71484375 32.47265625 15.2578125 27.87890625 30.9453125 12.27734375 20.00390625 32.7265625 11.390625 13.4375 31.7265625 32.04296875 14.02734375 29.84765625 37.08984375 12.83984375 27.93359375 34.5234375 9.26171875 27.46875 43.75 11.2421875 24.4453125 45.6484375 4.62109375 20.77734375 50.41015625 9.64453125 20.953125 57.79296875 7.52734375 11.96875 54.69921875 12.66015625 20.70703125 61.828125 10.8046875 12.61328125 64.41796875 10.328125 6.3046875 29.42578125 17.69140625 29.39453125 37.80078125 16.7265625 27.703125 46.65625 15.93359375 24.234375 27.6953125 12.90234375 15.0234375 45.21875 10.3125 13.6171875 25.546875 10.3203125 0 44.703125 7.66796875 0 45.21875 10.3125 -13.6171875 56.38671875 9.27734375 0 64.75 13.23046875 -6.453125 65.796875 13.04296875 0 67.64453125 13.6484375 -6.68359375 68.87890625 13.4375 0 31.99609375 -27.41015625 -11.078125 39.3671875 -25.7734375 -10.390625 44.171875 -19.73046875 -6.8359375 43.50390625 -14.33203125 0 42.94921875 -15.0703125 6.60546875 40.4453125 -16.70703125 12.19140625 37.61328125 -15.234375 10.7109375 34.08203125 -17.41796875 14.46875 6.55859375 10.53125 9.3125 1.328125 20.54296875 0 4.953125 32.40625 0 1.83984375 20.24609375 -17.47265625 6.21875 31.6875 -15.484375 8.89453125 30.41796875 -23.953125 13.09765625 40.7578125 -14.7734375 22.140625 39.59375 -23.6953125 20.1796875 45.87109375 -13.39453125 31.0625 47.1171875 -11.4140625 22.140625 39.59375 23.6953125 35.6640625 42.6484375 20.37109375 41.046875 38.55859375 22.2578125 51.67578125 34.578125 17.29296875 57.21875 36.140625 11.78515625 60.5390625 34.9140625 12.3046875 63.30859375 35.89453125 5.77734375 63.8984375 32.5546875 0 48.1484375 31.71875 -10.484375 51.2265625 29.640625 -10.9453125 48.13671875 26.78515625 -9.14453125 37.37109375 22.140625 -5.046875 38.73828125 23.7109375 -14.22265625 28.12890625 20.2421875 -15.4921875 37.97265625 26.05078125 -17.47265625 32.41796875 -29.2890625 16.41796875 35.6484375 -27.8203125 13.7109375 31.99609375 -27.41015625 11.078125 36.37109375 -25.9609375 7.83984375 39.484375 -24.90625 4.77734375 39.9375 -24.14453125 0 38.35546875 -24.03515625 -4.27734375 25.83984375 -27.34765625 -13.98828125 35.6484375 -27.8203125 -13.7109375 37.8125 -23.55078125 -16.33984375 41.703125 -21.4375 -12.26953125 40.4453125 -16.70703125 -12.19140625 39.7421875 -13.96875 -5.62890625 29.72265625 11.3046875 29.88671875 27.54296875 6.62109375 28.55078125 34.56640625 2.05859375 22.43359375 25.92578125 4.36328125 25.4921875 24.78515625 2.875 18.97265625 20.90234375 6.01953125 26.30859375 15.05859375 4.87109375 21.12109375 14.03125 8.1953125 27.12890625 10.06640625 6.9609375 19.828125 67.1484375 11.41796875 -6.66796875 64.3984375 11.921875 -13.3359375 61.828125 10.8046875 -12.61328125 56.27734375 13.96875 -21.34375 54.69921875 12.66015625 -20.70703125 46.6171875 14.73046875 -27.65234375 50.41015625 9.64453125 -20.953125 18.3125 10.203125 31.92578125 17.5859375 14.96484375 33.3984375 24.37890625 12.171875 31.7265625 22.3828125 15.859375 32.30078125 28.87109375 17.45703125 -31.11328125 39.05859375 16.98828125 -30.0234375 29.42578125 17.69140625 -29.39453125 37.80078125 16.7265625 -27.703125 27.6953125 12.90234375 -15.0234375 46.71484375 16.2109375 -24.66015625 53.91015625 15.52734375 -19.7109375 60.7890625 14.00390625 -13.421875 56.58984375 16.078125 -21.58984375 64.90234375 14.19140625 -13.3671875 23.484375 18.35546875 15.4921875 20.67578125 17.98828125 0 23.97265625 29.93359375 0 23.484375 18.35546875 -15.4921875 26.59375 27.38671875 -16.4296875 29.04296875 18.90234375 -29.0859375 5.62890625 19.64453125 -27.37890625 15.2578125 27.87890625 -30.9453125 29.9140625 34.515625 -28.3515625 35.6640625 42.6484375 -20.37109375 41.0390625 38.5859375 -22.2578125 50.765625 40.1328125 -11.38671875 51.7421875 34.453125 -17.3046875 18.72265625 -25.2890625 21.1875 24.08984375 -29.17578125 20.84375 27.78515625 -29.80859375 18.8203125 20.6015625 -28.51171875 17.38671875 25.83984375 -27.34765625 13.98828125 26.796875 16.76953125 -31.87109375 29.72265625 11.3046875 -29.88671875 24.37890625 12.171875 -31.7265625 27.54296875 6.62109375 -28.55078125 22.59375 8.70703125 -30.23828125 25.92578125 4.36328125 -25.4921875 20.90234375 6.01953125 -26.30859375 24.78515625 2.875 -18.97265625 15.05859375 4.87109375 -21.12109375 46.86328125 30.7109375 -24.1875 32.04296875 14.02734375 -29.84765625 38.38671875 15.48828125 -30.453125 37.08984375 12.83984375 -27.9296875 43.75 11.2421875 -24.44140625 45.6484375 4.62109375 -20.77734375 50.5546875 0.00390625 -11.7265625 22.7421875 24.34765625 -10.22265625 22.7421875 24.34765625 10.22265625 26.3984375 25.54296875 12.09765625 21.46875 22.08984375 14.88671875 26.94140625 23.87890625 17.67578125 35.79296875 22.89453125 28.32421875 29.55859375 19.68359375 28.78125 35.46484375 22.41015625 26.44921875 26.59375 27.38671875 16.4296875 39.0234375 34.54296875 13.86328125 38.18359375 36.65234375 0 39.0234375 34.54296875 -13.86328125 30.640625 -6.8125 -17.578125 35.07421875 -1.19921875 -12.94140625 31.5625 -6.796875 -18.76953125 36.26953125 -1.07421875 -15.3828125 31.42578125 -5.703125 -20.25 34.9609375 -0.1484375 -16.8984375 32.21484375 -0.0703125 -14.72265625 24.9296875 -8.30078125 21.6796875 26.28515625 -8.59375 22.9765625 28.7890625 -10.0859375 22.046875 29.56640625 -4.47265625 20.83203125 31.42578125 -5.703125 20.25 34.9609375 -0.1484375 16.8984375 36.26953125 -1.07421875 15.3828125 20.85546875 24.71484375 -32.47265625 12.27734375 20.00390625 -32.7265625 17.71484375 19.6640625 -33.359375 17.5859375 14.96484375 -33.3984375 22.0703125 19.3046875 -32.25 22.3828125 15.859375 -32.30078125 35.26171875 25.859375 -28.55859375 34.46875 28.44921875 -27.66796875 26.97265625 19.78515625 -31.59765625 24.3203125 22.18359375 -31.51171875 26.5234375 18.796875 -31.9375 45.58984375 33.28125 -22.92578125 4.66015625 12.00390625 0 6.55859375 10.53125 -9.3125 5.34375 11.10546875 -19.43359375 7.2421875 11.74609375 -25.87890625 11.390625 13.4375 -31.7265625 44.1875 -3.6484375 12.37109375 38.80859375 -2.796875 9.390625 44.68359375 -6.20703125 5.59765625 40.45703125 -5.87890625 0 44.76953125 -7.0703125 0 44.68359375 -6.20703125 -5.59765625 18.3125 10.203125 -31.92578125 14.03125 8.1953125 -27.12890625 10.06640625 6.9609375 -19.828125 47.1640625 27.15625 24.1328125 46.5703125 26.5546875 22.4375 53 28.6796875 17.99609375 59.43359375 30.80859375 11.59375 53.984375 29.20703125 19.3671875 17.71484375 19.6640625 33.359375 22.0703125 19.3046875 32.25 53.890625 32.82421875 19.25 45.58984375 33.28125 22.92578125 51.45703125 -1.9453125 5.875 51.72265625 -2.796875 0 51.45703125 -1.9453125 -5.875 44.1875 -3.6484375 -12.37109375 27.94921875 -15.51953125 21.06640625 27.82421875 -15.43359375 19.27734375 27.21484375 -19.7265625 18.83984375 34.5234375 9.26171875 -27.46875 34.56640625 2.05859375 -22.43359375 35.26171875 25.859375 28.55859375 46.86328125 30.7109375 24.1875 64.74609375 13.23046875 6.44921875 60.23828125 13.8125 13.42578125 27.82421875 -15.43359375 -19.27734375 27.94921875 -15.51953125 -21.06640625 27.75390625 -20.34765625 -21.08984375 41.65625 45.15625 -10.53125 31.01953125 -18.703125 -16.5234375 20.9453125 -18.265625 -22.8203125 22.41796875 -13.84765625 -22.90625 22.59375 8.70703125 30.23828125 29.04296875 18.90234375 29.0859375 42.94921875 -15.0703125 -6.60546875 47.109375 16.53125 -27.5859375 63.109375 32.1953125 -5.91015625 39.7421875 -13.96875 5.62890625 39.21484375 -23.21484375 0 38.35546875 -24.03515625 4.27734375 37.546875 27.34765625 -16.7890625 38.80859375 -2.796875 -9.390625 53.51171875 15.22265625 19.4296875 35.07421875 -1.19921875 12.94140625 31.5625 -6.796875 18.76953125 30.640625 -6.8125 17.578125 37.546875 27.34765625 16.7890625 40.7578125 -13.21875 0 32.21484375 -0.0703125 14.72265625 27.7734375 -4.3203125 19.46875 50.5546875 0.00390625 11.7265625 28.5234375 18.71484375 -30.9765625 31.01953125 -18.703125 16.5234375 34.92578125 -25.10546875 -7.31640625 34.92578125 -25.10546875 7.31640625 27.21484375 -19.7265625 -18.83984375 31.67578125 -26.140625 10.265625 31.67578125 -26.140625 -10.265625</float_array>
                    <technique_common>
                        <accessor count="383" source="#pointarray0" stride="3">
                            <param name="X" type="float"/>
                            <param name="Y" type="float"/>
                            <param name="Z" type="float"/>
                        </accessor>
                    </technique_common>
                </source>
                <source id="uvs0">
                    <float_array id="uvarray0" count="560">0.51092529296875 0.3302001953125 0.5614013671875 0.33453369140625 0.53887939453125 0.33514404296875 0.5614013671875 0.33514404296875 0.5614013671875 0.33282470703125 0.58392333984375 0.33514404296875 0.57611083984375 0.33282470703125 0.61395263671875 0.33056640625 0.60589599609375 0.32916259765625 0.6239013671875 0.3172607421875 0.61395263671875 0.3172607421875 0.62066650390625 0.29620361328125 0.60968017578125 0.29620361328125 0.6043701171875 0.2667236328125 0.5972900390625 0.27777099609375 0.5614013671875 0.26544189453125 0.57855224609375 0.29620361328125 0.5614013671875 0.29620361328125 0.57659912109375 0.32183837890625 0.5614013671875 0.32464599609375 0.54620361328125 0.32183837890625 0.5467529296875 0.33282470703125 0.51690673828125 0.32916259765625 0.50885009765625 0.33056640625 0.4989013671875 0.3172607421875 0.50146484375 0.3172607421875 0.5203857421875 0.3172607421875 0.52386474609375 0.29620361328125 0.5614013671875 0.3172607421875 0.5989990234375 0.29620361328125 0.5614013671875 0.25531005859375 0.6025390625 0.26953125 0.5614013671875 0.25177001953125 0.39373779296875 0.49755859375 0.3375244140625 0.4949951171875 0.39215087890625 0.475341796875 0.32183837890625 0.47845458984375 0.3721923828125 0.4617919921875 0.31561279296875 0.4617919921875 0.31317138671875 0.44000244140625 0.254150390625 0.4478759765625 0.311767578125 0.4263916015625 0.254150390625 0.427001953125 0.3125 0.41180419921875 0.254150390625 0.40826416015625 0.3104248046875 0.39202880859375 0.254150390625 0.3896484375 0.317138671875 0.37744140625 0.254150390625 0.37493896484375 0.28875732421875 0.36065673828125 0.254150390625 0.35943603515625 0.254150390625 0.35003662109375 0.29022216796875 0.351318359375 0.32330322265625 0.3619384765625 0.32623291015625 0.3525390625 0.37640380859375 0.364501953125 0.38458251953125 0.35595703125 0.43963623046875 0.37078857421875 0.6519775390625 0.94622802734375 0.58404541015625 0.92919921875 0.5855712890625 0.9202880859375 0.5062255859375 0.9105224609375 0.5062255859375 0.89617919921875 0.58746337890625 0.9041748046875 0.654541015625 0.93353271484375 0.65753173828125 0.91253662109375 0.724609375 0.92144775390625 0.729248046875 0.87921142578125 0.80657958984375 0.9302978515625 0.8026123046875 0.88812255859375 0.86248779296875 0.92919921875 0.8812255859375 0.88751220703125 0.94708251953125 0.91668701171875 0.9124755859375 0.8375244140625 0.97705078125 0.89483642578125 0.95623779296875 0.8375244140625 0.99371337890625 0.875 0.981201171875 0.8375244140625 0.86871337890625 0.72503662109375 0.9375 0.7708740234375 0.8499755859375 0.737548828125 0.913818359375 0.77947998046875 0.8779296875 0.7933349609375 1 0.95001220703125 0.93121337890625 0.9666748046875 0.96246337890625 1 0.88824462890625 0.9752197265625 0.8143310546875 0.97064208984375 0.7562255859375 0.85003662109375 0.6624755859375 0.8292236328125 0.17462158203125 0.2779541015625 0.1607666015625 0.27801513671875 0.1636962890625 0.2657470703125 0.1534423828125 0.26849365234375 0.1400146484375 0.24188232421875 0.13165283203125 0.24609375 0.1087646484375 0.2286376953125 0.10223388671875 0.23419189453125 0.07757568359375 0.2154541015625 0.07275390625 0.2222900390625 0.03973388671875 0.2178955078125 0.00665283203125 0.23895263671875 0.00665283203125 0.2135009765625 0.0421142578125 0.21173095703125 0.9927978515625 0.58892822265625 0.9788818359375 0.5731201171875 0.96636962890625 0.5751953125 0.9542236328125 0.55267333984375 0.94140625 0.555419921875 0.92950439453125 0.5322265625 0.9163818359375 0.53564453125 0.84765625 0.50439453125 0.84136962890625 0.5106201171875 0.80322265625 0.50018310546875 0.80010986328125 0.5064697265625 0.7587890625 0.50225830078125 0.7587890625 0.508544921875 0.79693603515625 0.51373291015625 0.75909423828125 0.5205078125 0.83203125 0.52740478515625 0.4979248046875 0.4658203125 0.4879150390625 0.4620361328125 0.49835205078125 0.451171875 0.4833984375 0.4481201171875 0.49835205078125 0.4371337890625 0.47900390625 0.43548583984375 0.457763671875 0.40869140625 0.4639892578125 0.4371337890625 0.42498779296875 0.41802978515625 0.45623779296875 0.44097900390625 0.41900634765625 0.444091796875 0.43463134765625 0.4617919921875 0.44061279296875 0.4888916015625 0.99212646484375 0.5897216796875 0.96636962890625 0.58978271484375 0.94921875 0.57989501953125 0.93511962890625 0.58770751953125 0.9241943359375 0.5633544921875 0.89141845703125 0.55853271484375 0.89923095703125 0.54681396484375 0.90386962890625 0.539794921875 0.83514404296875 0.51898193359375 0.1641845703125 0.2679443359375 0.1607666015625 0.2730712890625 0.1497802734375 0.24688720703125 0.13861083984375 0.2520751953125 0.119384765625 0.24267578125 0.07745361328125 0.2806396484375 0.0711669921875 0.260498046875 0.00634765625 0.284912109375 0.00701904296875 0.26275634765625 0.00701904296875 0.2236328125 0.02783203125 0.21429443359375 0.00701904296875 0.21337890625 0.0384521484375 0.20947265625 0.00701904296875 0.2081298828125 0.7183837890625 0.96136474609375 0.5062255859375 0.85418701171875 0.5914306640625 0.862548828125 0.6624755859375 0.870849609375 0.29364013671875 0.4964599609375 0.254150390625 0.481201171875 0.254150390625 0.46453857421875 0.3721923828125 0.42950439453125 0.3656005859375 0.40765380859375 0.38433837890625 0.397216796875 0.36785888671875 0.37225341796875 0.2918701171875 0.33984375 0.254150390625 0.338623046875 0.520263671875 0.26953125 0.51849365234375 0.2667236328125 0.52557373046875 0.27777099609375 0.5443115234375 0.29620361328125 0.51318359375 0.29620361328125 0.50885009765625 0.3172607421875 0.50213623046875 0.29620361328125 0.7210693359375 0.948486328125 0.5062255859375 0.920166015625 0.5819091796875 0.93798828125 0.856201171875 1 0.59375 0.82086181640625 0.9918212890625 0.59075927734375 0.96014404296875 0.59600830078125 0.93511962890625 0.6043701171875 0.89141845703125 0.58978271484375 0.91015625 0.61273193359375 0.87261962890625 0.6085205078125 0.9163818359375 0.62310791015625 0.87890625 0.62939453125 0.92266845703125 0.633544921875 0.87261962890625 0.6474609375 0.7587890625 0.49603271484375 0.847412109375 0.66326904296875 0.8759765625 0.6627197265625 0.92889404296875 0.64605712890625 0.96014404296875 0.633544921875 0.9476318359375 0.62310791015625 0.98516845703125 0.62103271484375 0.97265625 0.610595703125 0.99066162109375 0.61163330078125 0.99407958984375 0.602294921875 0.14056396484375 0.25115966796875 0.121337890625 0.241943359375 0.10809326171875 0.23504638671875 0.07012939453125 0.22119140625 0.11944580078125 0.22723388671875 0.06988525390625 0.2108154296875 0.07952880859375 0.28729248046875 0.00604248046875 0.29595947265625 0.00567626953125 0.3070068359375 0.07965087890625 0.28753662109375 0.08380126953125 0.30072021484375 0.16351318359375 0.2796630859375 0.166259765625 0.28619384765625 0.1717529296875 0.282958984375 0.99322509765625 0.5914306640625 0.94140625 0.61376953125 0.426513671875 0.37640380859375 0.48101806640625 0.4029541015625 0.8341064453125 0.5465087890625 0.5267333984375 0.325927734375 0.5960693359375 0.325927734375 0.60247802734375 0.3172607421875 0.6119384765625 0.3302001953125 0.62139892578125 0.3172607421875 0.08929443359375 0.29278564453125 0.08184814453125 0.2701416015625 0.00665283203125 0.27996826171875 0.79998779296875 0.76251220703125 0.71697998046875 0.71044921875 0.8125 0.75836181640625 0.731201171875 0.70001220703125 0.83123779296875 0.75 0.74371337890625 0.69171142578125 0.7562255859375 0.683349609375 0.46270751953125 0.451416015625 0.46917724609375 0.4617919921875 0.4715576171875 0.44793701171875 0.4775390625 0.45941162109375 0.4703369140625 0.40557861328125 0.47869873046875 0.4349365234375 0.4638671875 0.4368896484375 0.4124755859375 0.38262939453125 0.254150390625 0.4915771484375 0.833984375 0.56158447265625 0.81011962890625 0.579345703125 0.79107666015625 0.55963134765625 0.7606201171875 0.5689697265625 0.76043701171875 0.55908203125 0.4716796875 0.44805908203125 0.32952880859375 0.34112548828125 0.4495849609375 0.202880859375 0.275390625 0.180908203125 0.3568115234375 0.25689697265625 0.2767333984375 0.25689697265625 0.278564453125 0.31988525390625 0.357421875 0.32000732421875 0.45458984375 0.32806396484375 0.86871337890625 0.8375244140625 0.856201171875 0.8375244140625 0.86248779296875 0.875 0.02777099609375 0.21429443359375 0.0701904296875 0.22259521484375 0.79998779296875 0.862548828125 0.1346435546875 0.237060546875 0.00665283203125 0.20806884765625 0.5062255859375 0.93243408203125 0.00665283203125 0.30303955078125 0.50445556640625 0.29620361328125 0.84454345703125 0.59393310546875 0.45416259765625 0.27215576171875 0.10638427734375 0.2362060546875 0.61834716796875 0.29620361328125 0.5062255859375 0.81671142578125 0.4979248046875 0.436767578125 0.166015625 0.270751953125 0.1685791015625 0.2762451171875 0.6492919921875 0.9549560546875 0.71807861328125 0.9718017578125 0.16888427734375 0.27685546875</float_array>
                    <technique_common>
                        <accessor count="280" source="#uvarray0" stride="2">
                            <param name="S" type="float"/>
                            <param name="T" type="float"/>
                        </accessor>
                    </technique_common>
                </source>
                <vertices id="vertices0">
                    <input semantic="POSITION" source="#points0"/>
                </vertices>
                <polylist count="704" material="Material1">
                    <input offset="0" semantic="VERTEX" source="#vertices0"/>
                    <input offset="1" semantic="TEXCOORD" source="#uvs0" set="0"/>
                    <vcount>3 3 3 3 3 3 3 3 3 3 3 3 3 3 3 3 3 3 3 3 3 3 3 3 3 3 3 3 3 3 3 3 3 3 3 3 3 3 3 3 3 3 3 3 3 3 3 3 3 3 3 3 3 3 3 3 3 3 3 3 3 3 3 3 3 3 3 3 3 3 3 3 3 3 3 3 3 3 3 3 3 3 3 3 3 3 3 3 3 3 3 3 3 3 3 3 3 3 3 3 3 3 3 3 3 3 3 3 3 3 3 3 3 3 3 3 3 3 3 3 3 3 3 3 3 3 3 3 3 3 3 3 3 3 3 3 3 3 3 3 3 3 3 3 3 3 3 3 3 3 3 3 3 3 3 3 3 3 3 3 3 3 3 3 3 3 3 3 3 3 3 3 3 3 3 3 3 3 3 3 3 3 3 3 3 3 3 3 3 3 3 3 3 3 3 3 3 3 3 3 3 3 3 3 3 3 3 3 3 3 3 3 3 3 3 3 3 3 3 3 3 3 3 3 3 3 3 3 3 3 3 3 3 3 3 3 3 3 3 3 3 3 3 3 3 3 3 3 3 3 3 3 3 3 3 3 3 3 3 3 3 3 3 3 3 3 3 3 3 3 3 3 3 3 3 3 3 3 3 3 3 3 3 3 3 3 3 3 3 3 3 3 3 3 3 3 3 3 3 3 3 3 3 3 3 3 3 3 3 3 3 3 3 3 3 3 3 3 3 3 3 3 3 3 3 3 3 3 3 3 3 3 3 3 3 3 3 3 3 3 3 3 3 3 3 3 3 3 3 3 3 3 3 3 3 3 3 3 3 3 3 3 3 3 3 3 3 3 3 3 3 3 3 3 3 3 3 3 3 3 3 3 3 3 3 3 3 3 3 3 3 3 3 3 3 3 3 3 3 3 3 3 3 3 3 3 3 3 3 3 3 3 3 3 3 3 3 3 3 3 3 3 3 3 3 3 3 3 3 3 3 3 3 3 3 3 3 3 3 3 3 3 3 3 3 3 3 3 3 3 3 3 3 3 3 3 3 3 3 3 3 3 3 3 3 3 3 3 3 3 3 3 3 3 3 3 3 3 3 3 3 3 3 3 3 3 3 3 3 3 3 3 3 3 3 3 3 3 3 3 3 3 3 3 3 3 3 3 3 3 3 3 3 3 3 3 3 3 3 3 3 3 3 3 3 3 3 3 3 3 3 3 3 3 3 3 3 3 3 3 3 3 3 3 3 3 3 3 3 3 3 3 3 3 3 3 3 3 3 3 3 3 3 3 3 3 3 3 3 3 3 3 3 3 3 3 3 3 3 3 3 3 3 3 3 3 3 3 3 3 3 3 3 3 3 3 3 3 3 3 3 3 3 3 3 3 3 3 3 3 3 3 3 3 3 3 3 3 3 3 3 3 3 3 3 3 3 3 3 3 3 3 3 3 3 3 3 3 3 3 3 3 3 3 3 3 3 3 3 3 3 3 3 3 3 3 3 3 3 3 3 3 3 3 3 3 3 3 3 3 3 3 3 3 3 3 3 3 3 3 3 3 3 3 3 3 3 3 3 3 3 3 3 3 3 3 3 3 3 3 3 3 3 3</vcount>
                    <p>2 2 1 1 0 0 3 3 1 1 2 2 4 4 3 3 2 2 5 5 3 3 4 4 6 6 5 5 4 4 7 7 5 5 6 6 8 8 7 7 6 6 9 9 7 7 8 8 10 10 9 9 8 8 11 11 9 9 10 10 12 12 11 11 10 10 13 13 11 11 12 12 14 14 13 13 12 12 15 15 13 13 14 14 16 16 15 15 14 14 17 17 15 15 16 16 18 18 17 17 16 16 19 19 17 17 18 18 4 4 19 19 18 18 20 20 19 19 4 4 21 21 20 20 4 4 22 22 20 20 21 21 23 23 22 22 21 21 24 24 22 22 23 23 0 0 24 24 23 23 25 25 24 24 0 0 26 26 25 25 0 0 27 27 25 25 26 26 28 28 27 27 26 26 29 17 27 27 28 28 30 29 29 17 28 28 31 30 29 17 30 29 32 31 31 30 30 29 33 32 31 30 32 31 13 13 33 32 32 31 15 15 33 32 13 13 36 35 35 34 34 33 37 36 35 34 36 35 38 37 37 36 36 35 39 38 37 36 38 37 40 39 39 38 38 37 41 40 39 38 40 39 42 41 41 40 40 39 43 42 41 40 42 41 44 43 43 42 42 41 45 44 43 42 44 43 46 45 45 44 44 43 47 46 45 44 46 45 48 47 47 46 46 45 49 48 47 46 48 47 50 49 49 48 48 47 51 50 49 48 50 49 52 51 51 50 50 49 53 49 51 50 52 51 54 52 53 49 52 51 55 53 53 49 54 52 56 54 55 53 54 52 57 55 55 53 56 54 58 56 57 55 56 54 59 57 57 55 58 56 62 60 61 59 60 58 63 61 61 59 62 60 64 62 63 61 62 60 65 60 63 61 64 62 66 63 65 60 64 62 67 64 65 60 66 63 68 65 67 64 66 63 69 66 67 64 68 65 70 67 69 66 68 65 71 68 69 66 70 67 72 69 71 68 70 67 73 70 71 68 72 69 74 71 73 70 72 69 75 72 73 70 74 71 76 73 75 72 74 71 77 74 75 72 76 73 78 75 77 74 76 73 79 76 77 74 78 75 80 77 79 76 78 75 83 80 82 79 81 78 84 81 82 79 83 80 85 82 84 81 83 80 86 75 84 81 85 82 87 73 86 75 85 82 88 74 86 75 87 73 89 72 88 74 87 73 90 83 88 74 89 72 91 84 90 83 89 72 92 85 90 83 91 84 93 86 92 85 91 84 94 87 92 85 93 86 95 70 94 87 93 86 96 68 94 87 95 70 97 69 96 68 95 70 98 67 96 68 97 69 99 88 98 67 97 69 100 89 98 67 99 88 103 92 102 91 101 90 104 93 102 91 103 92 59 94 104 93 103 92 105 95 104 93 59 94 58 96 105 95 59 94 106 97 105 95 58 96 107 98 106 97 58 96 108 99 106 97 107 98 109 100 108 99 107 98 110 101 108 99 109 100 111 102 110 101 109 100 112 100 110 101 111 102 113 103 112 100 111 102 114 98 112 100 113 103 117 106 116 105 115 104 118 107 116 105 117 106 119 108 118 107 117 106 120 109 118 107 119 108 121 110 120 109 119 108 122 111 120 109 121 110 123 112 122 111 121 110 124 113 122 111 123 112 125 114 124 113 123 112 126 115 124 113 125 114 127 116 126 115 125 114 128 117 126 115 127 116 129 118 128 117 127 116 130 119 128 117 129 118 132 122 131 121 115 120 133 123 131 121 132 122 134 124 133 123 132 122 135 125 133 123 134 124 136 126 135 125 134 124 137 127 135 125 136 126 138 128 137 127 136 126 139 129 137 127 138 128 140 130 139 129 138 128 141 131 139 129 140 130 36 35 141 131 140 130 142 132 141 131 36 35 34 33 142 132 36 35 143 134 117 106 115 133 144 135 117 106 143 134 145 136 144 135 143 134 146 137 144 135 145 136 147 138 146 137 145 136 148 139 146 137 147 138 149 119 148 139 147 138 150 140 148 139 149 119 151 141 150 140 149 119 123 112 150 140 151 141 152 117 123 112 151 141 125 114 123 112 152 117 127 116 125 114 152 117 116 144 153 143 115 142 154 145 153 143 116 144 155 146 154 145 116 144 156 147 154 145 155 146 157 148 156 147 155 146 158 149 156 147 157 148 159 150 158 149 157 148 160 148 158 149 159 150 161 151 160 148 159 150 162 152 160 148 161 151 163 153 162 152 161 151 164 154 162 152 163 153 165 155 164 154 163 153 167 64 60 58 166 156 62 60 60 58 167 64 168 63 62 60 167 64 64 62 62 60 168 63 169 157 64 62 168 63 66 63 64 62 169 157 170 158 66 63 169 157 68 65 66 63 170 158 171 159 68 65 170 158 70 67 68 65 171 159 172 89 70 67 171 159 173 88 70 67 172 89 37 36 174 160 35 34 175 161 174 160 37 36 176 162 175 161 37 36 177 36 175 161 176 162 178 38 177 36 176 162 179 37 177 36 178 38 180 39 179 37 178 38 181 163 179 37 180 39 182 41 181 163 180 39 183 43 181 163 182 41 43 42 183 43 182 41 45 44 183 43 43 42 140 130 38 37 36 35 184 163 38 37 140 130 138 128 184 163 140 130 185 164 184 163 138 128 186 165 185 164 138 128 48 47 185 164 186 165 187 166 48 47 186 165 188 53 48 47 187 166 189 54 188 53 187 166 190 52 188 53 189 54 113 167 190 52 189 54 191 168 190 52 113 167 31 30 27 27 29 17 192 169 27 27 31 30 33 32 192 169 31 30 193 170 192 169 33 32 15 15 193 170 33 32 194 171 193 170 15 15 195 172 194 171 15 15 196 173 194 171 195 172 197 174 196 173 195 172 198 175 196 173 197 174 24 24 198 175 197 174 25 25 198 175 24 24 199 87 71 68 73 70 200 176 71 68 199 87 201 156 200 176 199 87 67 64 200 176 201 156 202 58 67 64 201 156 65 60 67 64 202 58 203 59 65 60 202 58 63 61 65 60 203 59 204 177 63 61 203 59 61 59 63 61 204 177 205 178 61 59 204 177 94 87 206 179 92 85 166 156 206 179 94 87 207 176 166 156 94 87 167 64 166 156 207 176 208 66 167 64 207 176 209 65 167 64 208 66 98 67 209 65 208 66 210 159 209 65 98 67 100 89 210 159 98 67 211 180 210 159 100 89 212 182 143 134 115 181 145 136 143 134 212 182 213 183 145 136 212 182 214 184 145 136 213 183 215 185 214 184 213 183 216 186 214 184 215 185 217 187 216 186 215 185 218 188 216 186 217 187 219 189 218 188 217 187 220 190 218 188 219 189 126 115 165 191 124 113 221 114 165 191 126 115 128 117 221 114 126 115 222 112 221 114 128 117 223 141 222 112 128 117 224 110 222 112 223 141 225 140 224 110 223 141 226 108 224 110 225 140 227 139 226 108 225 140 220 190 35 193 174 192 34 194 35 193 220 190 219 189 34 194 220 190 142 195 34 194 219 189 228 196 142 195 219 189 229 197 142 195 228 196 230 198 229 197 228 196 231 199 229 197 230 198 131 200 231 199 230 198 234 143 233 144 232 142 235 201 233 144 234 143 236 147 235 201 234 143 237 202 235 201 236 147 160 148 237 202 236 147 238 203 237 202 160 148 239 204 238 203 160 148 240 205 238 203 239 204 241 206 240 205 239 204 156 147 153 143 154 145 242 207 153 143 156 147 243 208 242 207 156 147 244 209 242 207 243 208 245 210 244 209 243 208 246 211 244 209 245 210 247 212 246 211 245 210 102 213 246 211 247 212 101 214 102 213 247 212 179 37 248 35 177 36 249 130 248 35 179 37 181 163 249 130 179 37 250 128 249 130 181 163 251 164 250 128 181 163 252 165 250 128 251 164 253 47 252 165 251 164 254 166 252 165 253 47 255 83 77 74 79 76 75 72 77 74 255 83 256 84 75 72 255 83 73 70 75 72 256 84 257 86 73 70 256 84 199 87 73 70 257 86 258 85 199 87 257 86 259 179 199 87 258 85 261 182 260 200 232 215 262 198 260 200 261 182 263 183 262 198 261 182 264 216 262 198 263 183 265 185 264 216 263 183 266 187 264 216 265 185 267 186 266 187 265 185 268 188 266 187 267 186 53 49 49 48 51 50 253 47 49 48 53 49 55 53 253 47 53 49 254 166 253 47 55 53 57 55 254 166 55 53 269 217 254 166 57 55 59 57 269 217 57 55 103 218 269 217 59 57 271 106 270 134 232 133 272 135 270 134 271 106 226 108 272 135 271 106 273 137 272 135 226 108 227 139 273 137 226 108 274 138 273 137 227 139 130 119 274 138 227 139 275 219 274 138 130 119 1 1 276 220 0 0 28 28 276 220 1 1 277 221 28 28 1 1 278 222 28 28 277 221 279 223 278 222 277 221 280 224 278 222 279 223 9 9 280 224 279 223 11 11 280 224 9 9 282 91 281 92 134 90 283 93 281 92 282 91 284 225 283 93 282 91 285 226 283 93 284 225 286 227 285 226 284 225 110 101 285 226 286 227 287 226 110 101 286 227 290 230 289 229 288 228 291 231 289 229 290 230 292 232 291 231 290 230 293 233 291 231 292 232 83 80 293 233 292 232 294 234 293 233 83 80 81 78 294 234 83 80 78 75 295 79 80 77 296 81 295 79 78 75 297 82 296 81 78 75 298 80 296 81 297 82 299 232 298 80 297 82 300 233 298 80 299 232 301 231 300 233 299 232 302 129 249 130 250 128 303 131 249 130 302 129 304 235 303 131 302 129 305 236 303 131 304 235 306 237 305 236 304 235 307 238 305 236 306 237 260 121 307 238 306 237 101 124 308 239 103 218 309 126 308 239 101 124 310 240 309 126 101 124 311 241 309 126 310 240 312 123 311 241 310 240 306 237 311 241 312 123 260 121 306 237 312 123 308 239 269 217 103 218 313 242 269 217 308 239 309 126 313 242 308 239 250 128 313 242 309 126 311 241 250 128 309 126 302 129 250 128 311 241 304 235 302 129 311 241 175 161 314 243 174 160 315 160 314 243 175 161 177 36 315 160 175 161 316 34 315 160 177 36 248 35 316 34 177 36 317 33 316 34 248 35 318 132 317 33 248 35 214 184 147 138 145 136 319 244 147 138 214 184 320 245 319 244 214 184 321 246 319 244 320 245 322 247 321 246 320 245 323 248 321 246 322 247 324 246 323 248 322 247 262 198 307 199 260 200 305 197 307 199 262 198 325 196 305 197 262 198 318 195 305 197 325 196 326 189 318 195 325 196 317 194 318 195 326 189 327 190 317 194 326 189 283 93 328 94 281 92 329 95 328 94 283 93 285 226 329 95 283 93 330 97 329 95 285 226 331 99 330 97 285 226 332 96 330 97 331 99 114 98 332 96 331 99 229 236 141 131 142 132 333 235 141 131 229 236 231 238 333 235 229 236 334 249 333 235 231 238 131 121 334 249 231 238 133 123 334 249 131 121 189 54 114 250 113 167 335 55 114 250 189 54 187 166 335 55 189 54 336 242 335 55 187 166 186 165 336 242 187 166 138 128 336 242 186 165 337 253 129 252 149 251 338 254 129 252 337 253 323 255 338 254 337 253 339 253 338 254 323 255 324 256 339 253 323 255 340 257 339 253 324 256 76 73 297 82 78 75 341 258 297 82 76 73 74 71 341 258 76 73 342 259 341 258 74 71 343 260 342 259 74 71 326 189 268 188 327 190 266 187 268 188 326 189 325 196 266 187 326 189 264 216 266 187 325 196 262 198 264 216 325 196 344 136 263 183 261 182 345 184 263 183 344 136 274 138 345 184 344 136 340 244 345 184 274 138 275 219 340 244 274 138 328 57 346 239 281 218 347 217 346 239 328 57 332 56 347 217 328 57 335 55 347 217 332 56 114 250 335 55 332 56 157 148 161 151 159 150 348 261 161 151 157 148 349 262 348 261 157 148 124 154 348 261 349 262 122 206 124 154 349 262 350 259 290 230 288 228 351 258 290 230 350 259 352 71 351 258 350 259 87 73 351 258 352 71 89 72 87 73 352 71 183 43 251 164 181 163 353 45 251 164 183 43 45 44 353 45 183 43 47 46 353 45 45 44 352 71 95 70 89 72 97 69 95 70 352 71 354 263 97 69 352 71 99 88 97 69 354 263 270 134 261 182 232 181 344 136 261 182 270 134 272 135 344 136 270 134 273 137 344 136 272 135 355 76 88 74 90 83 86 75 88 74 355 76 356 77 86 75 355 76 82 79 86 75 356 77 217 187 228 196 219 189 357 216 228 196 217 187 215 185 357 216 217 187 213 183 357 216 215 185 284 211 242 207 244 209 358 212 242 207 284 211 282 213 358 212 284 211 134 214 358 212 282 213 209 65 168 63 167 64 359 158 168 63 209 65 210 159 359 158 209 65 211 180 359 158 210 159 5 5 1 1 3 3 279 223 1 1 5 5 7 7 279 223 5 5 9 9 279 223 7 7 104 93 246 225 102 91 287 226 246 225 104 93 105 95 287 226 104 93 106 97 287 226 105 95 360 264 238 203 240 205 237 202 238 203 360 264 233 144 237 202 360 264 235 201 237 202 233 144 136 126 336 242 138 128 346 239 336 242 136 126 134 124 346 239 136 126 281 218 346 239 134 124 361 103 109 100 107 98 111 102 109 100 361 103 191 265 111 102 361 103 113 103 111 102 191 265 130 119 223 141 128 117 225 140 223 141 130 119 227 139 225 140 130 119 362 180 170 158 169 157 171 159 170 158 362 180 172 89 171 159 362 180 253 47 47 46 49 48 353 45 47 46 253 47 251 164 353 45 253 47 303 131 248 35 249 130 318 132 248 35 303 131 305 236 318 132 303 131 204 177 363 266 205 178 364 178 363 266 204 177 203 59 364 178 204 177 286 227 246 225 287 226 244 267 246 225 286 227 284 225 244 267 286 227 41 40 178 38 176 162 180 39 178 38 41 40 182 41 180 39 41 40 212 182 230 198 213 183 131 200 230 198 212 182 115 215 131 200 212 182 365 268 27 27 192 169 25 25 27 27 365 268 198 175 25 25 365 268 85 82 351 258 87 73 290 230 351 258 85 82 292 232 290 230 85 82 348 261 163 153 161 151 165 155 163 153 348 261 124 154 165 155 348 261 345 184 265 185 263 183 267 186 265 185 345 184 294 269 267 186 345 184 339 253 129 252 338 254 130 251 129 252 339 253 275 270 130 251 339 253 366 245 324 246 322 247 340 244 324 246 366 245 345 184 340 244 366 245 17 17 195 172 15 15 20 20 195 172 17 17 19 19 20 20 17 17 96 68 207 176 94 87 208 66 207 176 96 68 98 67 208 66 96 68 367 271 157 148 155 146 349 262 157 148 367 271 122 206 349 262 367 271 158 149 243 208 156 147 236 147 243 208 158 149 160 148 236 147 158 149 369 230 368 229 301 231 370 228 368 229 369 230 342 259 370 228 369 230 245 210 234 143 247 212 236 147 234 143 245 210 243 208 236 147 245 210 369 230 297 82 341 258 299 232 297 82 369 230 301 231 299 232 369 230 371 272 32 31 30 29 13 13 32 31 371 272 11 11 13 13 371 272 184 163 40 39 38 37 42 41 40 39 184 163 44 43 42 41 184 163 185 164 44 43 184 163 46 45 44 43 185 164 48 47 46 45 185 164 52 51 191 168 361 167 190 52 191 168 52 51 50 49 190 52 52 51 280 224 371 272 30 29 11 11 371 272 280 224 359 158 169 157 168 63 211 180 169 157 359 158 372 273 169 157 211 180 362 180 169 157 372 273 373 234 298 80 300 233 374 78 298 80 373 234 258 85 256 84 255 83 257 86 256 84 258 85 196 173 193 170 194 171 198 175 193 170 196 173 20 20 197 174 195 172 22 22 197 174 20 20 6 6 18 18 8 8 4 4 18 18 6 6 10 10 18 18 16 16 8 8 18 18 10 10 193 170 365 268 192 169 198 175 365 268 193 170 12 12 16 16 14 14 10 10 16 16 12 12 23 23 2 2 0 0 21 21 2 2 23 23 26 26 276 220 28 28 0 0 276 220 26 26 337 253 321 256 323 255 319 257 321 256 337 253 375 270 337 253 149 251 319 257 337 253 375 270 278 222 30 29 28 28 280 224 30 29 278 222 120 205 367 271 155 146 122 206 367 271 120 205 232 120 312 123 376 122 260 121 312 123 232 120 101 274 312 123 310 240 376 122 312 123 101 274 252 165 313 242 250 128 254 166 313 242 252 165 377 263 74 71 72 69 343 260 74 71 377 263 173 88 72 69 70 67 377 263 72 69 173 88 295 79 298 80 374 78 296 81 298 80 295 79 200 176 69 66 71 68 67 64 69 66 200 176 118 264 155 146 116 144 120 205 155 146 118 264 108 99 287 226 106 97 110 101 287 226 108 99 376 276 234 143 232 275 247 212 234 143 376 276 360 107 226 108 271 106 240 109 226 108 360 107 61 59 378 277 60 58 205 178 378 277 61 59 358 212 153 143 242 207 132 276 153 143 358 212 188 53 50 49 48 47 190 52 50 49 188 53 150 140 121 110 119 108 123 112 121 110 150 140 39 38 176 162 37 36 41 40 176 162 39 38 333 235 139 129 141 131 334 249 139 129 333 235 357 216 230 198 228 196 213 183 230 198 357 216 56 54 107 250 58 56 54 52 107 250 56 54 54 52 361 167 107 250 52 51 361 167 54 52 148 139 119 108 146 137 150 140 119 108 148 139 334 249 137 127 139 129 133 123 137 127 334 249 379 277 203 59 202 58 364 178 203 59 379 277 144 135 119 108 117 106 146 137 119 108 144 135 233 105 271 106 232 104 360 107 271 106 233 105 336 242 347 217 335 55 346 239 347 217 336 242 110 101 331 99 285 226 112 100 331 99 110 101 332 96 329 95 330 97 328 94 329 95 332 96 375 219 147 138 319 244 149 119 147 138 375 219 240 109 224 110 226 108 241 111 224 110 240 109 241 111 222 112 224 110 164 113 222 112 241 111 164 113 221 114 222 112 165 191 221 114 164 113 162 152 239 204 160 148 164 154 239 204 162 152 373 269 214 184 216 186 320 245 214 184 373 269 91 84 95 70 93 86 89 72 95 70 91 84 316 193 327 190 315 192 317 194 327 190 316 193 380 260 352 71 350 259 354 263 352 71 380 260 149 119 152 117 151 141 129 118 152 117 149 119 381 278 379 277 201 156 259 179 381 278 201 156 382 278 166 156 378 277 24 24 197 174 22 22 2 2 21 21 4 4 206 179 166 156 382 278 201 156 379 277 202 58 344 136 273 137 274 138 277 221 1 1 279 223 166 156 60 58 378 277 152 117 129 118 127 116 339 253 340 257 275 270 134 214 132 279 358 212 342 259 369 230 341 258 311 241 306 237 304 235 101 214 247 212 376 279 269 217 313 242 254 166 41 40 43 42 182 41 199 87 259 179 201 156 133 123 135 125 137 127 164 154 241 206 239 204 366 245 294 269 345 184 112 100 114 98 331 99 132 276 115 275 153 143 86 75 82 79 84 81 85 82 83 80 292 232</p>
                </polylist>
            </mesh>
        </geometry>
    </library_geometries>
    <library_visual_scenes>
        <visual_scene id="VisualSceneNode">
            <node id="node0" name="m0" type="NODE">
                <instance_geometry url="#mesh0">
                    <bind_material>
                        <technique_common>
                            <instance_material symbol="Material1" target="#mat0">
                                <bind_vertex_input semantic="UVSET0" input_semantic="TEXCOORD" input_set="0"></bind_vertex_input>
                            </instance_material>
                        </technique_common>
                    </bind_material>
                </instance_geometry>
            </node>
        </visual_scene>
    </library_visual_scenes>
    <scene>
        <instance_visual_scene url="#VisualSceneNode"></instance_visual_scene>
    </scene>
</COLLADA>
