<?xml version="1.0"?>
<COLLADA xmlns="http://www.collada.org/2005/11/COLLADASchema" version="1.4.1">
    <asset>
        <contributor>
            <authoring_tool>J3D Ripoff Exporter</authoring_tool>
        </contributor>
        <created>2024-08-02T13:57:09.736Z</created>
        <modified>2024-08-02T13:57:09.736Z</modified>
		<unit meter="0.01" name="centimeter" ></unit>
        <up_axis>Y_UP</up_axis>
    </asset>
    <library_images>
        <image id="tex0">
            <init_from>donkey_all.png</init_from>
        </image>
    </library_images>
    <library_effects>
        <effect id="effect0">
            <profile_COMMON>
                <newparam sid="surface0">
                    <surface type="2D">
                        <init_from>tex0</init_from>
                    </surface>
                </newparam>
                <newparam sid="sampler0">
                    <sampler2D>
                        <source>surface0</source>
                    </sampler2D>
                </newparam>
                <technique sid="COMMON">
                    <blinn>
                        <diffuse>
                            <texture texture="sampler0" texcoord="UVSET0"></texture>
                        </diffuse>
                    </blinn>
                </technique>
            </profile_COMMON>
        </effect>
    </library_effects>
    <library_materials>
        <material id="mat0" name="Dummy">
            <instance_effect url="#effect0"></instance_effect>
        </material>
    </library_materials>
    <library_geometries>
        <geometry id="mesh0">
            <mesh>
                <source id="points0">
                    <float_array id="pointarray0" count="1194">7.46875 11.78125 25.9453125 5.33984375 11.125 19.45703125 9.33203125 29.46484375 26.80078125 6.5234375 31.20703125 16.8046875 16.06640625 37.875 24.01171875 14.08984375 40.0859375 15.5 24.08203125 44.97265625 14.82421875 21.96484375 46.29296875 0 32.546875 46.32421875 13.390625 32.671875 47.64453125 0 42.65234375 42.6015625 11.421875 43.66796875 43.40625 0 52.3359375 36.76171875 10.28125 54.8671875 35.98828125 -0.015625 57.3203125 28.75 11.30859375 60.546875 27.609375 0 62.33203125 22.4765625 4.8203125 62.796875 22.61328125 0 66.421875 20.625 0 61.984375 22.5859375 -4.91796875 65.390625 21.03515625 -5.40234375 59.30859375 23.40234375 -10.56640625 62.33203125 21.91015625 -11.4921875 56.015625 23.296875 -18.58203125 54.98046875 19.8203125 -19.09765625 48.24609375 21.5078125 -23.671875 29.9453125 13.64453125 -30.20703125 29.6015625 7.97265625 -28.3984375 31.95703125 10.8359375 -28.63671875 33.73828125 5.19140625 -25.28125 36.84375 8.65625 -26.22265625 42.8046875 7.71484375 -23.74609375 45.73828125 9.3515625 -26.37109375 50.12890625 8.08203125 -20.20703125 54.171875 9.92578125 -19.9453125 57.34765625 6.6796875 -11.58203125 61.390625 9.26953125 -12.3046875 63.9453125 8.91015625 -6.0625 64.03125 10.2109375 -13.08203125 66.76171875 9.83984375 -6.4921875 67.40625 12.171875 -6.625 68.5625 11.8046875 0 60.56640625 6.3671875 0 64.87890625 8.5390625 0 67.87890625 9.390625 0 66.65625 9.6640625 6.63671875 67.328125 11.98828125 6.76171875 63.8984375 10.09375 13.2109375 64.578125 12.4375 13.3515625 56.0625 11.703125 20.92578125 56.4609375 13.86328125 21.375 46.59765625 12.49609375 27.0625 47.06640625 14.359375 27.15625 39.46484375 10.796875 29.2265625 40.109375 12.3671875 29.02734375 31.98828125 13.546875 30.32421875 29.99609375 13.2109375 31.2109375 30.43359375 17.859375 30.390625 28.67578125 18.40234375 31.41796875 31.296875 22.61328125 30.11328125 29.578125 24.0390625 30.84765625 34.4765625 30.65625 26.42578125 26.77734375 26.828125 30.59375 33.61328125 34.87109375 26.5546875 24.5234375 30.10546875 30.76171875 20.75390625 34.4921875 29.1328125 13.62109375 25.1484375 32.15625 11.8203125 14.2421875 31.7421875 34.1171875 9.92578125 28.50390625 38.94921875 9.3828125 27.015625 35.37890625 6.12890625 25.97265625 43.94921875 9.3359375 23.58984375 45.8125 4.5859375 20.640625 50.2109375 8.21875 20.25390625 57.23046875 6.640625 11.6640625 54.4296875 10.51171875 20.1640625 61.25 9.17578125 12.421875 63.8359375 8.7578125 6.1953125 59.91796875 12.5 13.33203125 64.38671875 11.8828125 6.4765625 65.4453125 11.76171875 0 64.47265625 12.03515625 -6.359375 60.58203125 12.72265625 -13.2421875 45.60546875 5.6953125 -12.55859375 53.66796875 13.1484375 -19.484375 45.99609375 11.43359375 -23.765625 46.328125 11.1484375 -26.640625 38.4140625 10.84765625 -28.66015625 31.68359375 41.19921875 23.21875 45.86328125 37.68359375 19.86328125 47.8359375 31.73828125 21.62109375 54.57421875 24.77734375 16.390625 59.71484375 23.05859375 10.80859375 62.66015625 21.5703125 12.078125 65.6328125 20.953125 5.921875 64.65625 17 6.171875 65.30859375 17.08203125 0 6.55859375 10.53125 9.3125 5.16796875 31.765625 0 13.2890625 41.22265625 0 6.30859375 31.75390625 -17.51171875 14.08984375 40.0859375 -15.50390625 15.890625 37.73046875 -23.9765625 24.08203125 44.97265625 -14.82421875 31.6875 41.19921875 -23.25390625 32.546875 46.3203125 -13.390625 42.65234375 42.6015625 -11.421875 37.61328125 -14.140625 -10.7109375 36.59375 -17.45703125 -16.3359375 40.4453125 -15.61328125 -12.19140625 41.703125 -20.33984375 -12.26953125 42.94921875 -13.97265625 -6.60546875 44.171875 -18.6328125 -6.8359375 43.50390625 -13.23828125 0 44.8203125 -17.8515625 0 44.171875 -18.6328125 6.8359375 42.53515625 -22.53125 5.7890625 39.3671875 -24.67578125 10.390625 36.37109375 -24.86328125 7.83984375 31.99609375 -26.31640625 11.078125 27.82421875 -15.43359375 19.27734375 27.21484375 -19.7265625 18.83984375 27.75390625 -20.34765625 21.08984375 31.01953125 -18.046875 16.5234375 32.5625 -19.20703125 19.5078125 34.08203125 -16.3203125 14.46875 36.59375 -17.45703125 16.3359375 37.61328125 -14.140625 10.7109375 40.4453125 -15.61328125 12.19140625 39.7421875 -12.78125 5.62890625 42.94921875 -13.97265625 6.60546875 37.890625 23.58203125 -28.34375 49.71875 24.60546875 -23.4375 37.421875 26.3515625 -28.09375 49.00390625 27.015625 -21.97265625 36.765625 28.8046875 -26.796875 34.578125 33.58203125 -26.99609375 28.80859375 26.46484375 -30.85546875 25.984375 30.234375 -30.9765625 19.33203125 21.390625 -32.98046875 13.953125 24.0859375 -32.3359375 17.671875 12.96875 -32.6953125 11.60546875 14.05859375 -31.3203125 35.07421875 -1.19921875 12.94140625 30.640625 -6.8125 17.578125 31.5625 -6.796875 18.76953125 27.94921875 -15.51953125 21.06640625 27.0078125 -15.9140625 23.296875 24.1328125 -24.3671875 23.19140625 20.78125 -20.75 23.27734375 18.72265625 -25.2890625 21.1875 20.9453125 -18.265625 22.8203125 32.3515625 22.25 -30.21875 31.203125 23.859375 -31.0078125 27.4609375 18.3359375 -31.3203125 23.453125 19.86328125 -31.71484375 27.8828125 12.796875 -30.87109375 22.32421875 12.88671875 -31.44140625 10.15234375 29.45703125 -27.2578125 21.4921875 34.1015625 -29.7734375 45.85546875 37.69140625 -19.91015625 47.83984375 31.765625 -21.65234375 57.31640625 28.75 -11.30859375 54.578125 24.640625 -16.46875 30.640625 -6.8125 -17.578125 31.5625 -6.796875 -18.76953125 27.82421875 -15.43359375 -19.27734375 27.94921875 -15.51953125 -21.06640625 27.75390625 -20.34765625 -21.08984375 27.0078125 -15.9140625 -23.296875 24.1328125 -24.3671875 -23.19140625 20.78125 -20.75 -23.27734375 18.72265625 -25.2890625 -21.1875 20.9453125 -18.265625 -22.8203125 30.390625 -25.4921875 21.109375 33.90234375 -24.06640625 19.13671875 37.8125 -22.45703125 16.33984375 41.703125 -20.33984375 12.26953125 32.21484375 -0.0703125 14.72265625 24.80078125 1.15625 18.97265625 36.08984375 -0.03125 20.0859375 27.48828125 1.23828125 23.34765625 29.421875 2.6640625 26.55078125 25.53515625 4.0625 29.06640625 27.50390625 8.08203125 30.8046875 20.078125 7.48828125 31.5859375 19.484375 12.83984375 33.37109375 24.33203125 9.2890625 -30.578125 27.4140625 3.37890625 -26.5703125 22.5546875 5.95703125 -28.79296875 25.76171875 1.47265625 -23.296875 20.72265625 3.640625 -24.6796875 24.8046875 0.5625 -18.97265625 15.0625 4.23828125 -21.12109375 30.390625 -25.4921875 -21.109375 24.08984375 -28.78515625 -20.84375 27.78515625 -29.42578125 -18.8203125 20.6015625 -28.51171875 -17.38671875 32.41796875 -28.359375 -16.41796875 25.83984375 -27.34765625 -13.98828125 31.99609375 -26.31640625 -11.078125 4.66015625 12.00390625 0 6.55859375 10.53125 -9.3125 5.33984375 11.125 -19.453125 7.46875 11.828125 -25.94921875 37.28125 23.02734375 -26.51171875 32.8984375 21.86328125 -28.25390625 29.72265625 17.89453125 -28.50390625 29.25390625 17.8046875 -30.3671875 30.51171875 14.09375 -28.546875 18.390625 8.296875 -30.97265625 13.58203125 6.5546875 -26.07421875 10.06640625 6.9609375 -19.828125 35.07421875 -1.19921875 -12.94140625 36.26953125 -1.07421875 -15.3828125 31.42578125 -5.703125 -20.25 34.9609375 -0.1484375 -16.8984375 29.56640625 -4.47265625 -20.83203125 32.21484375 -0.0703125 -14.72265625 27.7734375 -4.3203125 -19.46875 20.21875 21.83203125 33.41015625 25.6015625 12.421875 32.01953125 24.69140625 19.9140625 31.9921875 31.8046875 7.19921875 28.33203125 44.2109375 -3.6484375 12.34375 50.59375 0.01171875 11.69140625 32.765625 9.0078125 -25.68359375 45.54296875 8.875 -22.04296875 33.0234375 18.21875 -25.88671875 47.21484375 16.953125 -22.24609375 32.984375 19.22265625 -25.0078125 46.80859375 18.015625 -21.4375 32.62109375 19.27734375 -22.3671875 45.3515625 18.2421875 -19.01171875 26.18359375 19.16015625 -23.34765625 25.96484375 19.1953125 -26.26953125 25.80859375 18.21875 -27.2421875 25.37890625 9.31640625 -27.0390625 27.7734375 -4.3203125 19.46875 29.56640625 -4.47265625 20.83203125 24.9296875 -8.30078125 21.6796875 26.28515625 -8.59375 22.9765625 23.53125 -14.609375 24.1796875 28.7890625 -10.0859375 22.046875 52.8828125 15.09765625 -11.44921875 57.1015625 14.3984375 0 55.1640625 14.71875 -13.23046875 59.80078125 13.953125 0 60.88671875 14.953125 0 56.1171875 15.7421875 13.8203125 61.33203125 21.5 0 56.7890625 22.82421875 13.828125 36.26953125 -1.07421875 15.3828125 31.42578125 -5.703125 20.25 34.9609375 -0.1484375 16.8984375 33.90234375 -24.06640625 -19.13671875 32.5625 -19.20703125 -19.5078125 34.08203125 -16.3203125 -14.46875 61.94140625 17.8125 12.3125 55.86328125 23.58203125 18.82421875 47.88671875 28.01953125 22.13671875 64.6796875 17.61328125 -6.1484375 63.91015625 16.61328125 0 63.31640625 17.25 -5.98046875 56.359375 23.6484375 0 60.69921875 18.00390625 -11.640625 49.3515625 25.12109375 -12.5625 53.94921875 19.1328125 -17.890625 24.9296875 -8.30078125 -21.6796875 26.28515625 -8.59375 -22.9765625 28.7890625 -10.0859375 -22.046875 23.53125 -14.609375 -24.1796875 24.08984375 -28.78515625 20.84375 27.78515625 -29.42578125 18.8203125 32.41796875 -28.359375 16.41796875 20.6015625 -28.51171875 17.38671875 25.83984375 -27.34765625 13.98828125 45.69921875 5.7890625 12.6328125 46.6328125 14.11328125 23.8125 33.3515625 6.53515625 15.02734375 38.8046875 12.50390625 26.765625 32.3671875 14.0078125 28.609375 51.484375 -1.92578125 -5.87890625 51.74609375 -2.78515625 0 51.484375 -1.92578125 5.87890625 44.78125 -7.0546875 0 44.6953125 -6.1953125 5.6015625 34.2734375 0.21875 -21.0234375 45.1484375 3.21875 -19.70703125 44.2109375 -3.6484375 -12.34375 50.59375 0.01171875 -11.69140625 55.5078125 8.3984375 -13.8203125 60.40625 7.80078125 0 57.45703125 15.35546875 -13.8203125 62.2421875 14.609375 0 56.77734375 16.4609375 -13.23046875 61.421875 15.734375 0 58.80859375 16.15234375 0 56.7890625 22.82421875 -13.8203125 47.12890625 25.76171875 -22.44921875 56.1171875 15.7421875 -13.8203125 45.97265625 16.72265625 -22.24609375 43.7734375 16.6015625 -19.01171875 39.484375 -23.8125 4.77734375 43.4140625 -21.625 0 39.9375 -23.05078125 0 39.484375 -23.8125 -4.77734375 38.35546875 -24.03515625 -4.27734375 55.60546875 6.6484375 0 53.3828125 13.4296875 19.1328125 36.78125 25.87109375 27.5546875 36.1640625 28.27734375 27.8984375 46.7421875 23.41796875 23.8046875 47.92578125 26.57421875 23.890625 54.90234375 19.9609375 18.96875 34.33984375 30.27734375 15.15234375 44.953125 22.98828125 22.2578125 49.375 25.08203125 12.5625 53.90625 19.17578125 17.81640625 60.69921875 17.48046875 11.68359375 55.5078125 8.3984375 13.8203125 57.45703125 15.35546875 13.8203125 56.77734375 16.4609375 13.23046875 54.48828125 16.81640625 11.44921875 63.26953125 16.7421875 5.98046875 10.06640625 6.9609375 19.828125 13.87109375 7.11328125 27.16015625 39.3671875 -24.67578125 -10.390625 37.8125 -22.45703125 -16.33984375 35.6484375 -26.72265625 -13.7109375 45.54296875 8.875 22.04296875 47.21484375 16.953125 22.24609375 46.80859375 18.015625 21.4375 45.3515625 18.2421875 19.01171875 32.765625 9.0078125 25.68359375 33.0234375 18.21875 25.88671875 32.984375 19.22265625 25.0078125 32.62109375 19.27734375 22.3671875 24.51171875 9.81640625 16.2109375 30.82421875 17.953125 28.51171875 20.6015625 22.84375 16.43359375 31.91015625 22.20703125 28.1796875 15.0625 4.36328125 21.12109375 22.1953125 3.0703125 25.67578125 64.69140625 12.5625 -13.23046875 55.83203125 10.953125 -20.81640625 38.80859375 -2.796875 -9.390625 44.6953125 -6.1953125 -5.6015625 40.45703125 -5.87890625 0 34.265625 29.40234375 -26.0859375 32.546875 18.60546875 -25.88671875 31.76953125 18.5859375 -22.3671875 36.24609375 25.15625 25.76953125 42.53515625 -22.53125 -5.7890625 36.37109375 -24.86328125 -7.83984375 52.328125 36.765625 -10.3125 34.265625 29.40234375 26.0859375 47.12890625 25.76171875 22.44921875 32.546875 18.60546875 25.88671875 45.97265625 16.72265625 22.24609375 31.76953125 18.5859375 22.3671875 43.7734375 16.6015625 19.01171875 35.6484375 -26.72265625 13.7109375 34.33984375 30.27734375 -15.15234375 47.4375 21.09375 -22.02734375 61.90625 18.44921875 -12.2421875 33.3515625 6.53515625 -15.02734375 37.25 11.11328125 -26.34765625 25.3515625 19.6484375 -23.34765625 25.34765625 19.79296875 -27.2421875 27.17578125 30.98046875 -27.4453125 37.765625 9.28125 -28.73046875 22.41796875 -13.84765625 22.90625 39.21484375 -23.21484375 0 38.35546875 -24.03515625 4.27734375 55.1640625 14.71875 13.23046875 39.7421875 -12.78125 -5.62890625 56.3125 13.03515625 -21.4453125 38.80859375 -2.796875 9.390625 25.96484375 19.1953125 26.26953125 26.18359375 19.16015625 23.34765625 27.21484375 -19.7265625 -18.83984375 31.01953125 -18.046875 -16.5234375 22.41796875 -13.84765625 -22.90625 40.7578125 -12.12109375 0 52.8828125 15.09765625 11.44921875 54.48828125 16.81640625 -11.44921875 25.80859375 18.21875 27.2421875 25.37890625 9.31640625 27.0390625 20.6015625 22.84375 -16.43359375 25.3515625 19.6484375 23.34765625 25.34765625 19.79296875 27.2421875 34.92578125 -25.10546875 7.31640625 34.92578125 -25.10546875 -7.31640625 24.51171875 9.81640625 -16.2109375 31.67578125 -26.140625 10.265625 31.67578125 -26.140625 -10.265625 27.17578125 30.98046875 27.4453125</float_array>
                    <technique_common>
                        <accessor count="398" source="#pointarray0" stride="3">
                            <param name="X" type="float"/>
                            <param name="Y" type="float"/>
                            <param name="Z" type="float"/>
                        </accessor>
                    </technique_common>
                </source>
                <source id="uvs0">
                    <float_array id="uvarray0" count="512">0.39373779296875 0.49755859375 0.3375244140625 0.4949951171875 0.39215087890625 0.475341796875 0.32183837890625 0.47845458984375 0.3721923828125 0.4617919921875 0.31561279296875 0.4617919921875 0.31317138671875 0.44000244140625 0.254150390625 0.4478759765625 0.311767578125 0.4263916015625 0.254150390625 0.427001953125 0.3125 0.41180419921875 0.254150390625 0.40826416015625 0.3104248046875 0.39202880859375 0.254150390625 0.3896484375 0.317138671875 0.37744140625 0.254150390625 0.37493896484375 0.28875732421875 0.36065673828125 0.254150390625 0.35943603515625 0.254150390625 0.35003662109375 0.29022216796875 0.351318359375 0.32330322265625 0.3619384765625 0.32623291015625 0.3525390625 0.37640380859375 0.364501953125 0.38458251953125 0.35595703125 0.43963623046875 0.37078857421875 0.9918212890625 0.59075927734375 0.96014404296875 0.59600830078125 0.96636962890625 0.58978271484375 0.93511962890625 0.58770751953125 0.94921875 0.57989501953125 0.9241943359375 0.5633544921875 0.94140625 0.555419921875 0.89923095703125 0.54681396484375 0.90386962890625 0.539794921875 0.83203125 0.52740478515625 0.83514404296875 0.51898193359375 0.79693603515625 0.51373291015625 0.84136962890625 0.5106201171875 0.80010986328125 0.5064697265625 0.80322265625 0.50018310546875 0.7587890625 0.49603271484375 0.75909423828125 0.5205078125 0.7587890625 0.508544921875 0.7587890625 0.50225830078125 0.84765625 0.50439453125 0.9163818359375 0.53564453125 0.92950439453125 0.5322265625 0.9542236328125 0.55267333984375 0.96636962890625 0.5751953125 0.9788818359375 0.5731201171875 0.9927978515625 0.58892822265625 0.4979248046875 0.4658203125 0.4879150390625 0.4620361328125 0.49835205078125 0.451171875 0.4833984375 0.4481201171875 0.49835205078125 0.4371337890625 0.47900390625 0.43548583984375 0.457763671875 0.40869140625 0.4639892578125 0.4371337890625 0.42498779296875 0.41802978515625 0.45623779296875 0.44097900390625 0.41900634765625 0.444091796875 0.43463134765625 0.4617919921875 0.44061279296875 0.4888916015625 0.99212646484375 0.5897216796875 0.89141845703125 0.55853271484375 0.07928466796875 0.2100830078125 0.0701904296875 0.22259521484375 0.04095458984375 0.20379638671875 0.03662109375 0.21600341796875 0.00701904296875 0.20269775390625 0.00701904296875 0.21337890625 0.03668212890625 0.21600341796875 0.07012939453125 0.22119140625 0.0711669921875 0.260498046875 0.1044921875 0.23284912109375 0.121337890625 0.241943359375 0.1346435546875 0.23382568359375 0.15057373046875 0.243896484375 0.3721923828125 0.42950439453125 0.3656005859375 0.40765380859375 0.38433837890625 0.397216796875 0.36785888671875 0.37225341796875 0.2918701171875 0.33984375 0.254150390625 0.338623046875 0.29364013671875 0.4964599609375 0.254150390625 0.481201171875 0.254150390625 0.46453857421875 0.6624755859375 0.8292236328125 0.729248046875 0.87921142578125 0.6624755859375 0.870849609375 0.65753173828125 0.91253662109375 0.5914306640625 0.862548828125 0.58746337890625 0.9041748046875 0.5062255859375 0.85418701171875 0.5062255859375 0.89617919921875 0.5855712890625 0.9202880859375 0.654541015625 0.93353271484375 0.6519775390625 0.94622802734375 0.7183837890625 0.96136474609375 0.856201171875 0.8375244140625 0.86248779296875 0.875 0.8812255859375 0.88751220703125 0.79998779296875 0.862548828125 0.8026123046875 0.88812255859375 0.7562255859375 0.85003662109375 0.59375 0.82086181640625 0.48101806640625 0.4029541015625 0.426513671875 0.37640380859375 0.4703369140625 0.40557861328125 0.4124755859375 0.38262939453125 0.4638671875 0.4368896484375 0.46270751953125 0.451416015625 0.46917724609375 0.4617919921875 0.71697998046875 0.71044921875 0.79998779296875 0.76251220703125 0.8125 0.75836181640625 0.86871337890625 0.8375244140625 0.9124755859375 0.8375244140625 0.94708251953125 0.91668701171875 0.97705078125 0.89483642578125 1 0.95001220703125 0.99371337890625 0.875 0.47869873046875 0.4349365234375 0.4715576171875 0.44793701171875 0.4775390625 0.45941162109375 0.86248779296875 0.92919921875 0.80657958984375 0.9302978515625 0.724609375 0.92144775390625 0.84454345703125 0.59393310546875 0.87261962890625 0.6085205078125 0.89141845703125 0.58978271484375 0.91015625 0.61273193359375 0.93511962890625 0.6043701171875 0.94140625 0.61376953125 0.97265625 0.610595703125 0.9476318359375 0.62310791015625 0.98516845703125 0.62103271484375 0.96014404296875 0.633544921875 0.99322509765625 0.5914306640625 0.99407958984375 0.602294921875 0.9163818359375 0.62310791015625 0.87890625 0.62939453125 0.93121337890625 0.9666748046875 0.88824462890625 0.9752197265625 0.96246337890625 1 0.8143310546875 0.97064208984375 0.856201171875 1 0.254150390625 0.4915771484375 0.15093994140625 0.2640380859375 0.1627197265625 0.2568359375 0.16259765625 0.2794189453125 0.1737060546875 0.27386474609375 0.15753173828125 0.27166748046875 0.16748046875 0.265625 0.15179443359375 0.2635498046875 0.162109375 0.2559814453125 0.99066162109375 0.61163330078125 0.92266845703125 0.633544921875 0.92889404296875 0.64605712890625 0.87261962890625 0.6474609375 0.731201171875 0.70001220703125 0.83123779296875 0.75 0.74371337890625 0.69171142578125 0.8499755859375 0.737548828125 0.7562255859375 0.683349609375 0.86871337890625 0.72503662109375 0.4716796875 0.44805908203125 0.833984375 0.56158447265625 0.8341064453125 0.5465087890625 0.50482177734375 0.22021484375 0.623291015625 0.21929931640625 0.50482177734375 0.1859130859375 0.623291015625 0.1859130859375 0.50482177734375 0.17889404296875 0.623291015625 0.17889404296875 0.50482177734375 0.16845703125 0.623291015625 0.16845703125 0.5614013671875 0.16845703125 0.5614013671875 0.17889404296875 0.5614013671875 0.1859130859375 0.623291015625 0.22021484375 0.5614013671875 0.21441650390625 0.9375 0.7708740234375 0.913818359375 0.77947998046875 0.95623779296875 0.8375244140625 0.8779296875 0.7933349609375 0.50372314453125 0.16845703125 0.50372314453125 0.17120361328125 0.623291015625 0.17120361328125 0.623291015625 0.17230224609375 0.50372314453125 0.17230224609375 0.623291015625 0.25177001953125 0.50372314453125 0.2479248046875 0.32952880859375 0.34112548828125 0.00665283203125 0.20263671875 0.04071044921875 0.203857421875 0.00665283203125 0.2135009765625 0.03582763671875 0.21563720703125 0.00665283203125 0.23895263671875 0.0703125 0.2210693359375 0.06951904296875 0.259521484375 0.10223388671875 0.23419189453125 0.119384765625 0.24267578125 0.07745361328125 0.2806396484375 0.13861083984375 0.2520751953125 0.4495849609375 0.202880859375 0.3568115234375 0.25689697265625 0.275390625 0.180908203125 0.2767333984375 0.25689697265625 0.278564453125 0.31988525390625 0.357421875 0.32000732421875 0.50482177734375 0.2275390625 0.6239013671875 0.23138427734375 0.623291015625 0.2479248046875 0.50372314453125 0.22381591796875 0.58404541015625 0.92919921875 0.5062255859375 0.9105224609375 0.5062255859375 0.920166015625 0.5819091796875 0.93798828125 0.00701904296875 0.2236328125 0.102783203125 0.2340087890625 0.11810302734375 0.2239990234375 0.0791015625 0.28717041015625 0.12139892578125 0.24237060546875 0.117919921875 0.22393798828125 0.07952880859375 0.209228515625 0.50469970703125 0.23138427734375 0.6239013671875 0.2275390625 0.847412109375 0.66326904296875 0.8759765625 0.6627197265625 0.7210693359375 0.948486328125 0.50482177734375 0.21929931640625 0.07952880859375 0.28729248046875 0.08380126953125 0.30072021484375 0.81011962890625 0.579345703125 0.79107666015625 0.55963134765625 0.7606201171875 0.5689697265625 0.76043701171875 0.55908203125 0.623291015625 0.22381591796875 0.50372314453125 0.217529296875 0.0843505859375 0.3004150390625 0.14056396484375 0.25115966796875 0.13525390625 0.23272705078125 0.5614013671875 0.17230224609375 0.623291015625 0.217529296875 0.5614013671875 0.21173095703125 0.45416259765625 0.27215576171875 0.45458984375 0.32806396484375 0.981201171875 0.8375244140625 0.5062255859375 0.93243408203125 0.4979248046875 0.436767578125 0.5062255859375 0.81671142578125 0.6492919921875 0.9549560546875 0.07965087890625 0.28753662109375 0.71807861328125 0.9718017578125</float_array>
                    <technique_common>
                        <accessor count="256" source="#uvarray0" stride="2">
                            <param name="S" type="float"/>
                            <param name="T" type="float"/>
                        </accessor>
                    </technique_common>
                </source>
                <vertices id="vertices0">
                    <input semantic="POSITION" source="#points0"/>
                </vertices>
                <polylist count="680" material="Material1">
                    <input offset="0" semantic="VERTEX" source="#vertices0"/>
                    <input offset="1" semantic="TEXCOORD" source="#uvs0" set="0"/>
                    <vcount>3 3 3 3 3 3 3 3 3 3 3 3 3 3 3 3 3 3 3 3 3 3 3 3 3 3 3 3 3 3 3 3 3 3 3 3 3 3 3 3 3 3 3 3 3 3 3 3 3 3 3 3 3 3 3 3 3 3 3 3 3 3 3 3 3 3 3 3 3 3 3 3 3 3 3 3 3 3 3 3 3 3 3 3 3 3 3 3 3 3 3 3 3 3 3 3 3 3 3 3 3 3 3 3 3 3 3 3 3 3 3 3 3 3 3 3 3 3 3 3 3 3 3 3 3 3 3 3 3 3 3 3 3 3 3 3 3 3 3 3 3 3 3 3 3 3 3 3 3 3 3 3 3 3 3 3 3 3 3 3 3 3 3 3 3 3 3 3 3 3 3 3 3 3 3 3 3 3 3 3 3 3 3 3 3 3 3 3 3 3 3 3 3 3 3 3 3 3 3 3 3 3 3 3 3 3 3 3 3 3 3 3 3 3 3 3 3 3 3 3 3 3 3 3 3 3 3 3 3 3 3 3 3 3 3 3 3 3 3 3 3 3 3 3 3 3 3 3 3 3 3 3 3 3 3 3 3 3 3 3 3 3 3 3 3 3 3 3 3 3 3 3 3 3 3 3 3 3 3 3 3 3 3 3 3 3 3 3 3 3 3 3 3 3 3 3 3 3 3 3 3 3 3 3 3 3 3 3 3 3 3 3 3 3 3 3 3 3 3 3 3 3 3 3 3 3 3 3 3 3 3 3 3 3 3 3 3 3 3 3 3 3 3 3 3 3 3 3 3 3 3 3 3 3 3 3 3 3 3 3 3 3 3 3 3 3 3 3 3 3 3 3 3 3 3 3 3 3 3 3 3 3 3 3 3 3 3 3 3 3 3 3 3 3 3 3 3 3 3 3 3 3 3 3 3 3 3 3 3 3 3 3 3 3 3 3 3 3 3 3 3 3 3 3 3 3 3 3 3 3 3 3 3 3 3 3 3 3 3 3 3 3 3 3 3 3 3 3 3 3 3 3 3 3 3 3 3 3 3 3 3 3 3 3 3 3 3 3 3 3 3 3 3 3 3 3 3 3 3 3 3 3 3 3 3 3 3 3 3 3 3 3 3 3 3 3 3 3 3 3 3 3 3 3 3 3 3 3 3 3 3 3 3 3 3 3 3 3 3 3 3 3 3 3 3 3 3 3 3 3 3 3 3 3 3 3 3 3 3 3 3 3 3 3 3 3 3 3 3 3 3 3 3 3 3 3 3 3 3 3 3 3 3 3 3 3 3 3 3 3 3 3 3 3 3 3 3 3 3 3 3 3 3 3 3 3 3 3 3 3 3 3 3 3 3 3 3 3 3 3 3 3 3 3 3 3 3 3 3 3 3 3 3 3 3 3 3 3 3 3 3 3 3 3 3 3 3 3 3 3 3 3 3 3 3 3 3 3 3 3 3 3 3 3 3 3 3 3 3 3 3 3 3 3 3 3 3 3 3 3 3 3 3 3 3 3 3 3 3 3 3 3 3 3 3 3 3 3 3 3</vcount>
                    <p>2 2 1 1 0 0 3 3 1 1 2 2 4 4 3 3 2 2 5 5 3 3 4 4 6 6 5 5 4 4 7 7 5 5 6 6 8 8 7 7 6 6 9 9 7 7 8 8 10 10 9 9 8 8 11 11 9 9 10 10 12 12 11 11 10 10 13 13 11 11 12 12 14 14 13 13 12 12 15 15 13 13 14 14 16 16 15 15 14 14 17 17 15 15 16 16 18 18 17 17 16 16 19 16 17 17 18 18 20 19 19 16 18 18 21 20 19 16 20 19 22 21 21 20 20 19 23 22 21 20 22 21 24 23 23 22 22 21 25 24 23 22 24 23 28 27 27 26 26 25 29 28 27 26 28 27 30 29 29 28 28 27 31 30 29 28 30 29 32 31 31 30 30 29 33 32 31 30 32 31 34 33 33 32 32 31 35 34 33 32 34 33 36 35 35 34 34 33 37 36 35 34 36 35 38 37 37 36 36 35 39 38 37 36 38 37 40 39 39 38 38 37 41 40 39 38 40 39 37 36 42 41 35 34 43 42 42 41 37 36 44 43 43 42 37 36 45 38 43 42 44 43 46 39 45 38 44 43 47 37 45 38 46 39 48 44 47 37 46 39 49 45 47 37 48 44 50 46 49 45 48 44 51 31 49 45 50 46 52 47 51 31 50 46 53 48 51 31 52 47 54 49 53 48 52 47 55 50 53 48 54 49 57 53 56 52 55 51 58 54 56 52 57 53 59 55 58 54 57 53 60 56 58 54 59 55 61 57 60 56 59 55 62 58 60 56 61 57 63 59 62 58 61 57 64 60 62 58 63 59 65 61 64 60 63 59 66 62 64 60 65 61 2 2 66 62 65 61 67 63 66 62 2 2 0 0 67 63 2 2 68 27 53 48 55 64 69 29 53 48 68 27 70 28 69 29 68 27 71 30 69 29 70 28 72 65 71 30 70 28 73 32 71 30 72 65 74 34 73 32 72 65 75 33 73 32 74 34 76 35 75 33 74 34 47 37 75 33 76 35 77 36 47 37 76 35 45 38 47 37 77 36 43 42 45 38 77 36 46 68 78 67 48 66 79 69 78 67 46 68 41 70 79 69 46 68 80 71 79 69 41 70 40 68 80 71 41 70 81 72 80 71 40 68 82 73 81 72 40 68 83 74 81 72 82 73 84 75 83 74 82 73 85 76 83 74 84 75 86 77 85 76 84 75 87 78 85 76 86 77 65 61 4 4 2 2 88 79 4 4 65 61 63 59 88 79 65 61 89 80 88 79 63 59 90 81 89 80 63 59 14 14 89 80 90 81 91 82 14 14 90 81 92 20 14 14 91 82 93 21 92 20 91 82 94 19 92 20 93 21 95 83 94 19 93 21 96 84 94 19 95 83 3 3 97 85 1 1 98 86 97 85 3 3 99 87 98 86 3 3 100 3 98 86 99 87 101 5 100 3 99 87 102 4 100 3 101 5 103 6 102 4 101 5 104 79 102 4 103 6 105 8 104 79 103 6 106 10 104 79 105 8 9 9 106 10 105 8 11 11 106 10 9 9 109 90 108 89 107 88 110 91 108 89 109 90 111 92 110 91 109 90 112 93 110 91 111 92 113 94 112 93 111 92 114 95 112 93 113 94 115 93 114 95 113 94 116 96 114 95 115 93 117 97 116 96 115 93 118 98 116 96 117 97 119 99 118 98 117 97 122 102 121 101 120 100 123 103 121 101 122 102 124 104 123 103 122 102 125 105 123 103 124 104 126 89 125 105 124 104 127 88 125 105 126 89 128 90 127 88 126 89 129 106 127 88 128 90 130 92 129 106 128 90 113 94 129 106 130 92 115 93 113 94 130 92 133 109 132 108 131 107 134 110 132 108 133 109 135 57 134 110 133 109 136 59 134 110 135 57 137 111 136 59 135 57 138 60 136 59 137 111 139 112 138 60 137 111 140 62 138 60 139 112 141 113 140 62 139 112 142 63 140 62 141 113 145 116 144 115 143 114 120 100 144 115 145 116 146 117 120 100 145 116 122 102 120 100 146 117 147 118 122 102 146 117 148 119 122 102 147 118 149 120 148 119 147 118 150 121 148 119 149 120 151 122 150 121 149 120 152 55 133 109 131 107 135 57 133 109 152 55 153 123 135 57 152 55 137 111 135 57 153 123 154 54 137 111 153 123 155 124 137 111 154 54 156 52 155 124 154 54 157 125 155 124 156 52 102 4 158 2 100 3 159 61 158 2 102 4 104 79 159 61 102 4 136 59 159 61 104 79 160 80 136 59 104 79 161 81 136 59 160 80 162 14 161 81 160 80 163 82 161 81 162 14 166 100 165 116 164 115 167 117 165 116 166 100 168 102 167 117 166 100 169 118 167 117 168 102 170 119 169 118 168 102 171 120 169 118 170 119 172 121 171 120 170 119 173 122 171 120 172 121 174 126 122 102 148 119 124 104 122 102 174 126 175 127 124 104 174 126 126 89 124 104 175 127 176 128 126 89 175 127 177 91 126 89 176 128 117 97 177 91 176 128 115 93 177 91 117 97 19 16 15 15 17 17 162 14 15 15 19 16 21 20 162 14 19 16 163 82 162 14 21 20 23 22 163 82 21 20 132 108 163 82 23 22 25 24 132 108 23 22 131 107 132 108 25 24 180 131 179 130 178 129 181 132 179 130 180 131 182 133 181 132 180 131 183 134 181 132 182 133 184 135 183 134 182 133 185 136 183 134 184 135 186 137 185 136 184 135 67 138 185 136 186 137 27 26 156 140 26 139 187 135 156 140 27 26 188 133 187 135 27 26 189 134 187 135 188 133 190 132 189 134 188 133 191 141 189 134 190 132 192 130 191 141 190 132 193 142 191 141 192 130 194 126 170 119 168 102 195 143 170 119 194 126 196 144 195 143 194 126 197 145 195 143 196 144 198 146 197 145 196 144 199 147 197 145 198 146 200 99 199 147 198 146 98 86 201 148 97 85 202 85 201 148 98 86 100 3 202 85 98 86 203 1 202 85 100 3 158 2 203 1 100 3 204 0 203 1 158 2 142 63 204 0 158 2 206 151 131 150 205 149 152 152 131 150 206 151 207 153 152 152 206 151 208 154 152 152 207 153 209 155 208 154 207 153 26 156 208 154 209 155 87 78 26 156 209 155 187 135 157 157 156 140 141 137 157 157 187 135 210 136 141 137 187 135 142 138 141 137 210 136 211 158 142 138 210 136 204 159 142 138 211 158 212 160 204 159 211 158 165 116 213 114 164 115 214 161 213 114 165 116 215 162 214 161 165 116 216 163 214 161 215 162 217 164 216 163 215 162 218 165 216 163 217 164 219 166 218 165 217 164 186 113 66 62 67 63 220 112 66 62 186 113 221 125 220 112 186 113 222 167 220 112 221 125 56 52 222 167 221 125 58 54 222 167 56 52 182 133 223 26 184 135 70 28 223 26 182 133 180 131 70 28 182 133 72 65 70 28 180 131 224 168 72 65 180 131 225 169 72 65 224 168 228 172 227 171 226 170 229 173 227 171 228 172 230 174 229 173 228 172 231 175 229 173 230 174 232 176 231 175 230 174 233 177 231 175 232 176 230 175 234 178 232 177 235 179 234 178 230 175 228 173 235 179 230 175 236 180 235 179 228 173 226 181 236 180 228 173 237 182 236 180 226 181 240 183 239 164 238 166 241 184 239 164 240 183 242 185 241 184 240 183 243 186 241 184 242 185 147 118 243 186 242 185 146 117 243 186 147 118 246 188 245 177 244 187 247 189 245 177 246 188 248 190 247 189 246 188 249 191 247 189 248 190 250 192 249 191 248 190 251 193 249 191 250 192 252 161 145 116 143 114 253 162 145 116 252 161 254 163 253 162 252 161 239 164 253 162 254 163 178 165 239 164 254 163 238 166 239 164 178 165 194 126 198 146 196 144 255 127 198 146 194 126 256 104 255 127 194 126 108 89 255 127 256 104 257 105 108 89 256 104 107 88 108 89 257 105 93 21 258 194 95 83 259 22 258 194 93 21 91 82 259 22 93 21 260 110 259 22 91 82 90 81 260 110 91 82 63 59 260 110 90 81 262 197 261 196 96 195 263 198 261 196 262 197 264 199 263 198 262 197 265 200 263 198 264 199 266 201 265 200 264 199 267 202 265 200 266 201 217 164 268 183 219 166 269 184 268 183 217 164 270 186 269 184 217 164 271 185 269 184 270 186 169 118 271 185 270 186 171 120 271 185 169 118 272 143 148 119 150 121 174 126 148 119 272 143 273 144 174 126 272 143 274 146 174 126 273 144 275 145 274 146 273 144 276 147 274 146 275 145 279 204 278 203 277 74 280 205 278 203 279 204 281 155 280 205 279 204 54 78 280 205 281 155 55 156 54 78 281 155 42 208 282 207 35 206 283 209 282 207 42 208 284 207 283 209 42 208 285 210 283 209 284 207 286 211 285 210 284 207 29 28 188 133 27 26 287 131 188 133 29 28 288 65 287 131 29 28 289 168 287 131 288 65 290 169 289 168 288 65 293 172 292 213 291 212 294 173 292 213 293 172 295 174 294 173 293 172 296 175 294 173 295 174 297 177 296 175 295 174 300 190 299 215 298 214 301 191 299 215 300 190 246 189 301 191 300 190 302 187 301 191 246 189 244 177 302 187 246 189 303 216 116 96 118 98 304 217 116 96 303 216 305 218 304 217 303 216 306 216 304 217 305 218 307 219 306 216 305 218 277 74 79 69 308 220 78 67 79 69 277 74 309 221 78 67 277 74 48 66 78 67 309 221 50 222 48 66 309 221 312 24 311 109 310 107 313 108 311 109 312 24 314 23 313 108 312 24 259 22 313 108 314 23 258 194 259 22 314 23 317 201 316 224 315 223 318 202 316 224 317 201 319 200 318 202 317 201 314 225 318 202 319 200 258 226 314 225 319 200 294 172 320 228 292 227 321 173 320 228 294 172 296 174 321 173 294 172 322 175 321 173 296 174 323 177 322 175 296 174 264 199 319 200 317 201 324 198 319 200 264 199 262 197 324 198 264 199 95 196 324 198 262 197 96 195 95 196 262 197 325 160 1 230 97 229 0 159 1 230 325 160 326 158 0 159 325 160 67 138 0 159 326 158 185 136 67 138 326 158 211 158 193 142 212 160 191 141 193 142 211 158 210 136 191 141 211 158 189 134 191 141 210 136 187 135 189 134 210 136 327 97 110 91 112 93 328 128 110 91 327 97 329 231 328 128 327 97 255 127 328 128 329 231 198 146 255 127 329 231 321 172 330 171 320 212 331 173 330 171 321 172 322 174 331 173 321 172 332 175 331 173 322 174 333 177 332 175 322 174 331 172 334 181 330 232 335 173 334 181 331 172 332 174 335 173 331 172 336 175 335 173 332 174 337 177 336 175 332 174 338 233 281 155 279 204 339 153 281 155 338 233 340 234 339 153 338 233 341 151 339 153 340 234 342 142 326 158 325 160 343 141 326 158 342 142 179 130 343 141 342 142 181 132 343 141 179 130 38 37 344 44 40 39 345 45 344 44 38 37 36 35 345 45 38 37 34 33 345 45 36 35 347 236 346 235 289 168 348 237 346 235 347 236 285 238 348 237 347 236 286 236 348 237 285 238 301 190 349 240 299 239 350 191 349 240 301 190 302 177 350 191 301 190 351 187 350 191 302 177 352 149 340 241 315 223 341 151 340 241 352 149 310 150 341 151 352 149 59 152 341 151 310 150 184 135 221 157 186 137 56 140 221 157 184 135 223 26 56 140 184 135 55 139 56 140 223 26 353 96 112 93 114 95 327 97 112 93 353 96 354 98 327 97 353 96 200 99 327 97 354 98 106 10 160 80 104 79 355 12 160 80 106 10 11 11 355 12 106 10 13 13 355 12 11 11 358 191 357 239 356 240 359 190 357 239 358 191 360 187 359 190 358 191 361 177 359 190 360 187 274 146 175 127 174 126 362 231 175 127 274 146 119 99 362 231 274 146 117 97 362 231 119 99 61 57 260 110 63 59 311 109 260 110 61 57 59 55 311 109 61 57 310 107 311 109 59 55 364 224 266 201 363 223 267 202 266 201 364 224 24 225 267 202 364 224 365 226 267 202 24 225 85 76 366 204 83 74 367 242 366 204 85 76 87 78 367 242 85 76 209 155 367 242 87 78 293 173 231 174 295 175 229 172 231 174 293 173 291 228 229 172 293 173 227 232 229 172 291 228 304 217 114 95 116 96 353 96 114 95 304 217 306 216 353 96 304 217 354 98 353 96 306 216 278 203 309 221 277 74 50 222 309 221 278 203 52 77 50 222 278 203 88 79 6 6 4 4 8 8 6 6 88 79 10 10 8 8 88 79 89 80 10 10 88 79 12 12 10 10 89 80 14 14 12 12 89 80 18 18 96 84 261 83 94 19 96 84 18 18 16 16 94 19 18 18 7 7 101 5 99 87 103 6 101 5 7 7 105 8 103 6 7 7 270 186 167 117 169 118 165 116 167 117 270 186 215 162 165 116 270 186 316 224 352 149 315 223 312 243 352 149 316 224 314 225 312 243 316 224 369 244 350 190 368 178 349 245 350 190 369 244 370 246 349 245 369 244 205 149 364 224 363 223 25 243 364 224 205 149 131 150 25 243 205 149 287 131 190 132 188 133 192 130 190 132 287 131 218 129 192 130 287 131 282 207 290 247 35 206 289 248 290 247 282 207 347 211 289 248 282 207 343 141 185 136 326 158 183 134 185 136 343 141 181 132 183 134 343 141 371 48 28 27 26 64 30 29 28 27 371 48 32 31 30 29 371 48 242 185 149 120 147 118 151 122 149 120 242 185 372 249 151 122 242 185 305 218 373 250 307 219 374 219 373 250 305 218 303 216 374 219 305 218 177 91 128 90 126 89 130 92 128 90 177 91 115 93 130 92 177 91 359 191 251 214 357 215 249 190 251 214 359 191 375 189 249 190 359 191 248 190 298 193 250 192 300 191 298 193 248 190 246 188 300 191 248 190 376 106 109 90 107 88 111 92 109 90 376 106 113 94 111 92 376 106 285 210 282 207 283 209 347 211 282 207 285 210 74 206 284 207 42 208 225 247 284 207 74 206 344 66 82 73 40 68 377 222 82 73 344 66 378 235 180 131 178 129 224 168 180 131 378 235 26 51 154 54 208 53 156 52 154 54 26 51 84 75 377 222 86 77 82 73 377 222 84 75 337 176 379 179 336 174 380 178 379 179 337 176 39 38 44 43 37 36 41 40 44 43 39 38 224 248 284 207 225 247 286 211 284 207 224 248 141 113 155 124 157 125 139 112 155 124 141 113 381 101 168 102 166 100 382 103 168 102 381 101 152 251 154 54 153 123 208 53 154 54 152 251 161 81 134 110 136 59 163 82 134 110 161 81 173 122 271 185 171 120 383 249 271 185 173 122 268 183 271 185 383 249 269 184 271 185 268 183 159 61 138 60 140 62 136 59 138 60 159 61 158 2 140 62 142 63 159 61 140 62 158 2 200 99 329 231 327 97 198 146 329 231 200 99 108 89 328 128 255 127 110 91 328 128 108 89 195 143 172 121 170 119 197 145 172 121 195 143 384 252 113 94 376 106 129 106 113 94 384 252 80 71 308 220 79 69 81 72 308 220 80 71 168 102 256 104 194 126 382 103 256 104 168 102 375 188 247 189 249 191 385 187 247 189 375 188 361 187 375 189 359 191 385 177 375 189 361 187 145 116 243 186 146 117 253 162 243 186 145 116 386 177 231 174 233 176 295 175 231 174 386 177 335 172 379 179 387 180 336 174 379 179 335 172 334 170 387 180 388 182 335 172 387 180 334 170 75 33 49 45 51 31 47 37 49 45 75 33 73 32 51 31 71 30 75 33 51 31 73 32 69 29 51 31 53 48 71 30 51 31 69 29 74 34 77 36 76 35 42 41 77 36 74 34 223 26 68 27 55 25 70 28 68 27 223 26 389 241 205 149 363 223 206 151 205 149 389 241 239 164 243 186 253 162 241 184 243 186 239 164 272 143 275 145 273 144 150 121 275 145 272 143 358 190 391 244 390 178 356 245 391 244 358 190 303 216 392 253 374 219 118 98 392 253 303 216 31 30 288 65 29 28 33 32 288 65 31 30 87 49 371 48 26 50 86 47 371 48 87 49 203 230 212 160 202 229 204 159 212 160 203 230 393 253 306 216 307 219 354 98 306 216 393 253 176 128 362 231 117 97 175 127 362 231 176 128 258 226 324 198 95 196 319 200 324 198 258 226 313 108 260 110 311 109 259 22 260 110 313 108 32 31 345 45 34 33 377 46 345 45 32 31 59 152 339 153 341 151 57 154 339 153 59 152 263 198 365 226 261 196 265 200 365 226 263 198 35 34 288 65 33 32 290 169 288 65 35 34 222 167 62 58 64 60 58 54 62 58 222 167 20 19 261 83 365 194 18 18 261 83 20 19 22 21 365 194 24 23 20 19 365 194 22 21 281 155 57 154 55 156 339 153 57 154 281 155 54 78 278 203 280 205 52 77 278 203 54 78 355 12 162 14 160 80 13 13 162 14 355 12 220 112 64 60 66 62 222 167 64 60 220 112 5 5 99 87 3 3 7 7 99 87 5 5 92 20 16 16 14 14 94 19 16 16 92 20 286 236 378 235 348 237 224 168 378 235 286 236 287 131 346 235 218 129 289 168 346 235 287 131 86 47 32 31 371 48 377 46 32 31 86 47 394 254 209 155 207 153 366 204 209 155 394 254 389 234 207 153 206 151 394 254 207 153 389 234 242 185 240 183 372 249 81 72 83 74 308 220 209 155 366 204 367 242 274 146 276 147 119 99 200 99 354 98 393 253 358 190 390 178 360 177 350 190 351 177 368 178 395 255 392 253 119 99 276 147 395 255 119 99 396 255 200 99 393 253 199 147 200 99 396 255 119 99 392 253 118 98 77 36 42 41 43 42 323 177 296 174 297 176 322 174 323 176 333 177 391 244 356 245 397 246 316 224 318 202 314 225 364 224 25 243 24 225 247 189 385 187 245 177 7 7 9 9 105 8 13 13 15 15 162 14 267 202 365 226 265 200 344 44 345 45 377 46 58 54 60 56 62 58 352 149 312 243 310 150 46 39 44 43 41 40 337 177 332 174 333 176 297 177 295 174 386 176 72 65 225 169 74 34 270 186 217 164 215 162 256 104 382 103 257 105 132 108 134 110 163 82 137 111 155 124 139 112</p>
                </polylist>
            </mesh>
        </geometry>
    </library_geometries>
    <library_visual_scenes>
        <visual_scene id="VisualSceneNode">
            <node id="node0" name="m0" type="NODE">
                <instance_geometry url="#mesh0">
                    <bind_material>
                        <technique_common>
                            <instance_material symbol="Material1" target="#mat0">
                                <bind_vertex_input semantic="UVSET0" input_semantic="TEXCOORD" input_set="0"></bind_vertex_input>
                            </instance_material>
                        </technique_common>
                    </bind_material>
                </instance_geometry>
            </node>
        </visual_scene>
    </library_visual_scenes>
    <scene>
        <instance_visual_scene url="#VisualSceneNode"></instance_visual_scene>
    </scene>
</COLLADA>
