<?xml version="1.0"?>
<COLLADA xmlns="http://www.collada.org/2005/11/COLLADASchema" version="1.4.1">
    <asset>
        <contributor>
            <authoring_tool>J3D Ripoff Exporter</authoring_tool>
        </contributor>
        <created>2024-08-02T13:57:12.226Z</created>
        <modified>2024-08-02T13:57:12.226Z</modified>
		<unit meter="0.01" name="centimeter" ></unit>
        <up_axis>Y_UP</up_axis>
    </asset>
    <library_images>
        <image id="tex0">
            <init_from>donkey_all.png</init_from>
        </image>
    </library_images>
    <library_effects>
        <effect id="effect0">
            <profile_COMMON>
                <newparam sid="surface0">
                    <surface type="2D">
                        <init_from>tex0</init_from>
                    </surface>
                </newparam>
                <newparam sid="sampler0">
                    <sampler2D>
                        <source>surface0</source>
                    </sampler2D>
                </newparam>
                <technique sid="COMMON">
                    <blinn>
                        <diffuse>
                            <texture texture="sampler0" texcoord="UVSET0"></texture>
                        </diffuse>
                    </blinn>
                </technique>
            </profile_COMMON>
        </effect>
    </library_effects>
    <library_materials>
        <material id="mat0" name="Dummy">
            <instance_effect url="#effect0"></instance_effect>
        </material>
    </library_materials>
    <library_geometries>
        <geometry id="mesh0">
            <mesh>
                <source id="points0">
                    <float_array id="pointarray0" count="2052">42.30859375 30.33984375 -10.26953125 49.3984375 34.7109375 0 40.84375 30.3046875 0 42.34375 30.33203125 10.26953125 36.1484375 28.53125 0 36.609375 28.08984375 12.19921875 31.6875 28.578125 0 32.00390625 27.85546875 12.734375 27.09375 28.234375 10.76171875 25.09765625 27.96484375 15.671875 23.6640625 28.7421875 0 22.8828125 26.4375 6.9921875 23.13671875 27.51171875 0 23.05078125 23.9765625 0 22.8828125 26.4375 -6.9921875 22.9296875 23.01953125 -6.6875 24.65234375 26.70703125 -16.3125 24.234375 23.28125 -13.8125 32.3515625 25.9921875 -19.3984375 31.37890625 21.8046875 -16.3125 37.45703125 26.2421875 -18.8984375 36.796875 21.78515625 -15.640625 45.13671875 27.30859375 -16.19921875 45.0703125 23.96484375 -13.18359375 50.1640625 30.93359375 -10.14453125 50.8125 27.09375 -8.4765625 52.8359375 29.1640625 0 43.9140625 21.48828125 -5.31640625 43.546875 22.53515625 0 35.546875 19.703125 -6.4765625 35.51171875 21.02734375 0 30.296875 21.76171875 0 29.95703125 20.1484375 6.91796875 22.9296875 23.01953125 6.6875 24.65234375 26.70703125 16.3125 32.3515625 25.9921875 19.3984375 32.3984375 28.3046875 18.60546875 37.45703125 26.2421875 18.8984375 37.2265625 28.8125 18.140625 45.13671875 27.30859375 16.19921875 43.37890625 30.23828125 15.5625 50.12890625 30.8984375 10.14453125 47.23046875 32.55078125 9.71875 52.92578125 33.64453125 0 47.23046875 32.55078125 -9.71875 43.37890625 30.23828125 -15.5625 37.2265625 28.8125 -18.140625 7.46875 11.78125 25.9453125 5.33984375 11.125 19.45703125 9.33203125 29.46484375 26.80078125 6.5234375 31.20703125 16.8046875 16.06640625 37.375 24.01171875 14.08984375 39.58203125 15.5 24.08203125 44.46875 14.82421875 21.96484375 45.7890625 0 32.546875 46.32421875 13.390625 32.671875 47.64453125 0 42.5546875 44.33984375 11.421875 43.57421875 45.1484375 0 50.50390625 40.1328125 10.28125 53.13671875 39.83984375 -0.015625 56.88671875 33.18359375 11.30859375 60.26953125 32.66015625 0 62.99609375 27.3125 4.83984375 63.6171875 26.53125 0.01953125 67.0390625 25.1484375 0.01953125 62.6328125 27.35546875 -4.89453125 65.7578125 26.3671875 -5.37890625 60.04296875 26.65625 -10.54296875 62.78125 25.65625 -11.46875 56.12890625 26.8515625 -18.55859375 56.05078125 24.98046875 -19.09765625 49.5078125 23.3515625 -23.671875 31.98828125 13.546875 30.32421875 39.46484375 10.796875 29.2265625 34.1171875 9.92578125 28.50390625 38.94921875 9.3828125 27.015625 35.37890625 6.12890625 25.97265625 43.94921875 9.3359375 23.58984375 45.8125 4.5859375 20.640625 50.2109375 8.21875 20.25390625 57.23046875 6.640625 11.6640625 54.4296875 11.76953125 20.1640625 61.25 9.17578125 13.2421875 63.5234375 10.09375 13.8671875 63.8359375 10.015625 6.625 66.65625 10.921875 7.09375 64.87890625 8.5390625 0 67.87890625 9.390625 0 63.9453125 9.70703125 -6.4921875 66.76171875 10.640625 -6.94921875 63.65625 9.75390625 -13.73828125 67.40625 12.97265625 -7.08984375 64.31640625 12.10546875 -13.89453125 36.37109375 -25.9609375 -7.83984375 39.484375 -24.90625 -4.77734375 42.53515625 -23.62890625 -5.7890625 43.4140625 -22.72265625 0 44.8203125 -18.9453125 0 42.53515625 -23.62890625 5.7890625 44.171875 -19.73046875 6.8359375 39.3671875 -25.7734375 10.390625 41.703125 -21.4375 12.26953125 37.8125 -23.55078125 16.33984375 36.59375 -18.5546875 16.3359375 33.90234375 -25.078125 19.13671875 32.5625 -19.8671875 19.5078125 30.390625 -25.59765625 21.109375 27.75390625 -20.34765625 21.08984375 24.1328125 -24.94921875 23.19140625 29.99609375 13.2109375 31.2109375 29.7421875 18.3203125 30.390625 27.984375 18.86328125 31.41796875 31.421875 24.4765625 30.11328125 29.46875 25.5625 30.84765625 35.046875 31.953125 26.42578125 27.08203125 27.1953125 30.59375 33.41796875 35.93359375 26.5546875 24.0859375 29.64453125 30.76171875 20.75390625 33.98828125 29.1328125 13.62109375 25.1484375 32.15625 11.8203125 14.2421875 31.7421875 39.48828125 -6.98046875 0.43359375 39.5859375 -7.58203125 -0.4453125 41.36328125 -6.234375 2.6640625 42.1796875 -7.01953125 1.796875 43.84765625 -6.41015625 5.3203125 42.51171875 -8.1328125 1.0859375 44.57421875 -7.80078125 5.203125 42.51953125 -9.80859375 0.8203125 44.56640625 -10.11328125 5.15234375 42.0625 -11.21484375 0.90625 43.5234375 -12.42578125 5.1015625 40.72265625 -12.6796875 1.578125 41.05859375 -14.140625 5.23046875 38.65625 -12.77734375 2.421875 38.40625 -14.1640625 5.5390625 50.8125 27.09375 8.4765625 45.0703125 23.96484375 13.18359375 43.9140625 21.48828125 5.31640625 36.796875 21.78515625 15.640625 35.546875 19.703125 6.4765625 31.37890625 21.8046875 16.3125 24.234375 23.28125 13.8125 39.48828125 -7.51953125 -0.12890625 41.36328125 -9.46875 -2.58984375 39.5859375 -8.1640625 0.51953125 42.3359375 -9.95703125 -1.98828125 39.5390625 -9.39453125 0.96875 42.1328125 -11.81640625 -1.66796875 41.390625 -13.35546875 -1.6796875 43.20703125 -13.09375 -5.859375 41.9765625 -15.09765625 -5.63671875 41.52734375 -15.49609375 -9.71484375 40.046875 -15.92578125 -5.4921875 39.21484375 -16.265625 -8.81640625 38.59765625 -15.9765625 -5.328125 37.6953125 -16.34765625 -8.09765625 34.08203125 -17.41796875 14.46875 37.61328125 -15.234375 10.7109375 40.4453125 -16.70703125 12.19140625 42.94921875 -15.0703125 6.60546875 43.50390625 -14.33203125 0 44.171875 -19.73046875 -6.8359375 39.3671875 -25.7734375 -10.390625 31.99609375 -27.41015625 -11.078125 31.8046875 7.19921875 28.33203125 29.421875 2.6640625 26.55078125 36.08984375 -0.03125 20.0859375 27.48828125 1.23828125 23.34765625 24.80078125 1.15625 18.97265625 22.1953125 3.0703125 25.67578125 15.0625 4.36328125 21.12109375 13.87109375 7.11328125 27.16015625 10.06640625 6.9609375 19.828125 6.55859375 10.53125 9.3125 5.16796875 31.765625 0 13.2890625 40.71875 0 6.30859375 31.75390625 -17.51171875 14.08984375 39.58203125 -15.50390625 15.890625 37.23046875 -23.9765625 24.08203125 44.46875 -14.82421875 31.6875 41.19921875 -23.25390625 32.546875 46.3203125 -13.390625 42.5546875 44.33984375 -11.421875 31.68359375 41.19921875 23.21875 43.97265625 39.84375 19.86328125 47.01171875 34.3671875 21.62109375 54.9453125 28.140625 16.4140625 60.50390625 26.39453125 10.828125 63.1640625 25.3828125 12.09765625 66.01171875 26.33203125 5.9453125 66.08203125 24 6.171875 66.8984375 23.1953125 0 32.48046875 -12.7890625 14.76171875 34.33203125 -11.171875 17.171875 35.9296875 -13.35546875 15.00390625 37.58984375 -11.69921875 16.765625 40.3671875 -12.3203125 14.5 38.30078125 -9.140625 17.57421875 41.578125 -9.66015625 15.19921875 38.3515625 -6.37109375 17.421875 41.41796875 -6.73046875 15.02734375 38.1796875 -4.9296875 15.7265625 41.39453125 -5.30859375 13.94921875 37.453125 -4.96875 14.3515625 39.98046875 -4.91015625 12.2578125 39.48828125 -7.4296875 -0.12890625 39.5859375 -7.171875 0.37890625 41.36328125 -6.07421875 -2.58984375 42.1796875 -5.58203125 -1.98046875 43.7265625 -4.54296875 -5.8984375 42.33984375 -3.796875 -1.61328125 43.79296875 -2.76953125 -5.859375 41.89453125 -2.78125 -1.796875 42.5625 -1.17578125 -5.8984375 40.87890625 -2.48046875 -2.2265625 40.6328125 -1.26953125 -5.9140625 39.0625 -2.59765625 -2.81640625 38.8046875 -1.6328125 -5.953125 33.890625 -0.609375 14.76171875 35.07421875 -0.58203125 13.11328125 35.9296875 -0.46875 15.00390625 38.27734375 -0.5 12.94140625 39.74609375 -1.1484375 14.203125 39.80078125 -0.71875 9.390625 42.11328125 -1.25 10.13671875 40.6328125 -1.26953125 5.9140625 43.0703125 -1.98828125 5.8984375 40.87890625 -2.9296875 2.2265625 41.89453125 -3.48046875 2.08203125 38.52734375 -5.49609375 -0.4296875 39.03515625 -6.13671875 -0.71484375 40.109375 12.3671875 29.02734375 47.06640625 14.359375 27.15625 46.59765625 12.49609375 27.0625 56.4609375 15.1171875 21.375 56.0625 12.9609375 20.92578125 64.20703125 12.4375 14.015625 67.328125 13.24609375 7.2265625 32.3046875 -11.265625 -15.96875 33.53125 -13.75 -13.6953125 34.484375 -12.40625 -16.171875 35.9296875 -14.83984375 -13.9375 36.99609375 -13.57421875 -15.3671875 39.30078125 -14.515625 -13.44921875 38.12890625 -11.06640625 -16.03125 41.125 -12.328125 -14.15625 38.40625 -9.0390625 -15.55859375 41.1015625 -10.09375 -13.65625 37.8046875 -8.5703125 -14.38671875 40.1328125 -9.72265625 -12.43359375 24.1328125 -24.94921875 -23.19140625 18.72265625 -25.2890625 -21.1875 24.08984375 -29.17578125 -20.84375 20.6015625 -28.51171875 -17.38671875 27.78515625 -29.80859375 -18.8203125 32.41796875 -29.2890625 -16.41796875 30.390625 -25.59765625 -21.109375 33.90234375 -25.078125 -19.13671875 32.5625 -19.8671875 -19.5078125 36.59375 -18.5546875 -16.3359375 34.08203125 -17.41796875 -14.46875 37.61328125 -15.234375 -10.7109375 25.83984375 -27.34765625 -13.98828125 35.6484375 -27.8203125 -13.7109375 37.8125 -23.55078125 -16.33984375 41.703125 -21.4375 -12.26953125 40.4453125 -16.70703125 -12.19140625 39.7421875 -13.96875 -5.62890625 11.60546875 14.05859375 -31.3203125 17.671875 12.96875 -32.6953125 13.953125 24.0859375 -32.3359375 19.33203125 21.8515625 -32.98046875 25.49609375 30.04296875 -30.9765625 28.96875 26.859375 -30.85546875 34.60546875 34.84375 -26.99609375 37.640625 30.55078125 -26.796875 49.23046875 27.61328125 -21.97265625 38.73828125 28.265625 -28.09375 50.37890625 25.37890625 -23.4375 39.7109375 25.62890625 -28.34375 35.07421875 -1.19921875 -12.94140625 36.26953125 -1.07421875 -15.3828125 31.5625 -6.796875 -18.76953125 31.42578125 -5.703125 -20.25 28.7890625 -10.0859375 -22.046875 29.56640625 -4.47265625 -20.83203125 26.28515625 -8.59375 -22.9765625 24.9296875 -8.30078125 -21.6796875 23.53125 -14.609375 -24.1796875 22.41796875 -13.84765625 -22.90625 20.9453125 -18.265625 -22.8203125 20.78125 -20.75 -23.27734375 27.0078125 -15.9140625 -23.296875 27.75390625 -20.34765625 -21.08984375 27.94921875 -15.51953125 -21.06640625 27.82421875 -15.43359375 -19.27734375 30.640625 -6.8125 -17.578125 32.41796875 -29.2890625 16.41796875 35.6484375 -27.8203125 13.7109375 31.99609375 -27.41015625 11.078125 36.37109375 -25.9609375 7.83984375 39.484375 -24.90625 4.77734375 39.9375 -24.14453125 0 38.35546875 -24.03515625 -4.27734375 60.56640625 6.3671875 0 57.34765625 6.22265625 -11.58203125 61.390625 8.8125 -13.125 54.171875 10.72265625 -19.9453125 55.83203125 11.75390625 -20.81640625 45.73828125 9.3515625 -26.37109375 56.3125 13.83203125 -21.4453125 46.328125 11.1484375 -26.640625 31.234375 -10.546875 16.046875 30.9921875 -9.01171875 16.85546875 34.4296875 -8.95703125 17.9921875 30.95703125 -6.83203125 16.578125 34.65234375 -6.4609375 17.7265625 31.1796875 -5.52734375 15.3359375 34.94921875 -5.14453125 16.02734375 31.625 -5.62890625 14.08984375 34.77734375 -5.23046875 14.61328125 34.07421875 -1.75 -14.76171875 34.92578125 -2.5390625 -16.61328125 35.9296875 -1.03125 -15.00390625 36.921875 -1.94921875 -16.1640625 39.9296875 -0.9609375 -14.12109375 37.8984375 -3.46484375 -16.65234375 41.60546875 -2.5546875 -14.6484375 38.1796875 -5.05078125 -16.0703125 41.39453125 -4.4609375 -14.015625 37.453125 -5.33984375 -14.00390625 39.98046875 -5 -12.2578125 34.92578125 -1.56640625 16.3046875 36.921875 -1.3203125 15.85546875 35.0625 -3.1953125 16.8984375 37.8984375 -2.765625 16.48828125 35.18359375 -5.01953125 15.97265625 38.1796875 -4.265625 15.671875 34.77734375 -5.4921875 14.23046875 37.453125 -4.7421875 14.00390625 29.9453125 13.64453125 -30.20703125 31.95703125 10.8359375 -28.63671875 37.765625 9.28125 -28.73046875 36.84375 8.65625 -26.22265625 42.8046875 7.71484375 -23.74609375 50.12890625 8.8828125 -20.20703125 45.1484375 3.21875 -19.70703125 50.59375 0.01171875 -11.69140625 32.21484375 -0.0703125 -14.72265625 34.2734375 0.21875 -21.0234375 24.8046875 0.5625 -18.97265625 25.76171875 1.47265625 -23.296875 20.72265625 3.640625 -24.6796875 22.5546875 5.95703125 -28.79296875 18.390625 8.296875 -30.97265625 24.33203125 9.2890625 -30.578125 22.32421875 12.88671875 -31.44140625 10.15234375 29.45703125 -27.2578125 21.4921875 33.6015625 -29.7734375 43.96484375 39.8515625 -19.91015625 47.015625 34.390625 -21.65234375 56.8828125 33.18359375 -11.30859375 54.9765625 28.00390625 -16.4453125 18.72265625 -25.2890625 21.1875 20.9453125 -18.265625 22.8203125 20.78125 -20.75 23.27734375 23.53125 -14.609375 24.1796875 27.0078125 -15.9140625 23.296875 28.7890625 -10.0859375 22.046875 27.94921875 -15.51953125 21.06640625 31.5625 -6.796875 18.76953125 27.82421875 -15.43359375 19.27734375 30.640625 -6.8125 17.578125 22.41796875 -13.84765625 22.90625 24.9296875 -8.30078125 21.6796875 26.28515625 -8.59375 22.9765625 29.56640625 -4.47265625 20.83203125 31.42578125 -5.703125 20.25 36.26953125 -1.07421875 15.3828125 32.5234375 24.31640625 -30.21875 31.09765625 25.68359375 -31.0078125 26.76953125 18.80078125 -31.3203125 22.76171875 20.32421875 -31.71484375 27.8828125 12.796875 -30.87109375 32.09765625 24.19140625 28.1796875 20.6015625 22.84375 16.43359375 30.1328125 18.4140625 28.51171875 24.51171875 9.81640625 16.2109375 32.3671875 14.0078125 28.609375 33.3515625 6.53515625 15.02734375 38.8046875 12.50390625 26.765625 46.6328125 14.11328125 23.8125 39.48828125 -7.4296875 0.12890625 41.36328125 -6.07421875 2.58984375 39.5859375 -7.171875 -0.37890625 42.1796875 -5.58203125 1.98046875 39.5390625 -6.6875 -0.68359375 42.33984375 -4.56640625 1.87109375 43.79296875 -3.21484375 5.859375 4.66015625 12.00390625 0 6.55859375 10.53125 -9.3125 5.33984375 11.125 -19.453125 7.46875 11.828125 -25.94921875 39.21484375 24.97265625 -26.51171875 33.1328125 24.03515625 -28.25390625 29.03125 18.35546875 -28.50390625 28.5625 18.265625 -30.3671875 30.51171875 14.09375 -28.546875 38.4140625 10.84765625 -28.66015625 39.80078125 -0.9296875 -9.390625 42.0625 -0.83203125 -10.13671875 43.4375 -2.4140625 -10.45703125 43.38671875 -4.16796875 -10.34375 41.59375 -5.17578125 -9.375 41.96484375 -5.41015625 -5.71484375 36.66796875 -0.70703125 11.05078125 37.90234375 -1.125 8.67578125 38.8046875 -1.70703125 5.953125 39.0625 -3.29296875 2.81640625 44.2109375 -2.79296875 12.34375 38.80859375 -2.796875 9.390625 44.6953125 -5.02734375 5.6015625 40.45703125 -5.87890625 0 44.78125 -5.88671875 0 44.6953125 -5.02734375 -5.6015625 27.09375 28.234375 -10.76171875 32.00390625 27.85546875 -12.734375 25.09765625 27.96484375 -15.671875 32.3984375 28.3046875 -18.60546875 33.078125 -2.78125 -16.08203125 32.5234375 -4.41796875 -16.40234375 35.0625 -4.12109375 -16.953125 32.53125 -5.8828125 -16.1171875 35.18359375 -5.44921875 -16.37109375 32.57421875 -6.109375 -14.296875 34.77734375 -5.69140625 -14.23046875 29.95703125 20.1484375 -6.91796875 65.4453125 11.76171875 0 55.60546875 6.6484375 0 64.47265625 12.8359375 -6.80859375 45.60546875 5.6953125 -12.55859375 60.58203125 12.265625 -13.2421875 53.66796875 13.94921875 -19.484375 63.453125 23.2890625 12.3125 55.92578125 27.10546875 18.84765625 47.9453125 28.39453125 22.13671875 53.95703125 20.3046875 -11.44921875 58.23046875 20.46875 0 56.26953125 20.39453125 -13.23046875 60.9609375 20.578125 0 61.828125 21.7734375 0 56.99609375 21.5859375 13.8203125 61.05078125 27.76171875 0 56.3359375 28.1484375 13.828125 31.75 -8.421875 -16.41015625 34.7734375 -9.6875 -16.8203125 31.7578125 -5.7890625 -16.234375 34.89453125 -7.60546875 -16.34375 31.8046875 -5.890625 -14.296875 34.9296875 -7.29296875 -14.40625 41.59375 -4.43359375 9.375 39.98046875 -4.28515625 12.2578125 43.38671875 -3.7421875 10.34375 41.39453125 -3.8203125 13.94921875 43.48828125 -2.43359375 10.45703125 41.125 -2.484375 14.71875 58.6015625 6.62109375 6.91015625 59.92578125 10.9296875 5.578125 60.08984375 6.2109375 0 62.328125 15.1796875 0 58.6015625 6.62109375 -6.91015625 60.81640625 15.27734375 -6.91015625 55.25390625 7.1796875 -13.8203125 57.44921875 15.51953125 -13.8203125 19.484375 12.83984375 33.37109375 20.21875 22.29296875 33.41015625 25.6015625 12.421875 32.01953125 24 20.375 31.9921875 65.98828125 24.60546875 -6.1484375 65.609375 22.4765625 0 64.71875 23.99609375 -5.98046875 56.88671875 27.9921875 0 62.1953125 23.25 -11.640625 49.734375 28.11328125 -12.5625 55.1640625 24.11328125 -17.890625 20.078125 7.48828125 31.5859375 25.53515625 4.0625 29.06640625 44.19921875 -10.1875 10.62890625 44.19140625 -7.23828125 10.56640625 43.546875 -5.7734375 10.34375 41.59375 -5.08203125 9.375 41.96484375 -5.01171875 5.71484375 43.7265625 -4.54296875 5.8984375 35.07421875 -15.328125 -12.05078125 37.87109375 -15.71875 -11.953125 49.953125 27.0703125 12.5625 62.29296875 22.734375 11.68359375 64.765625 23.48828125 5.98046875 51.484375 -1.92578125 -5.87890625 51.74609375 -2.78515625 0 51.484375 -1.92578125 5.87890625 38.39453125 -13.51171875 -2.29296875 37.8125 -11.49609375 -0.0859375 39.7734375 -13.875 -1.94921875 38.52734375 -11.1875 0.640625 39.03515625 -10.35546875 0.92578125 34.984375 31.5546875 15.15234375 45.99609375 24.1953125 22.2578125 55.1171875 24.1484375 17.81640625 55.94921875 25.1015625 18.96875 32.57421875 -6.11328125 14.296875 32.53125 -5.65625 15.71875 32.5234375 -3.79296875 16.27734375 30.76171875 10.546875 21.50390625 31.3671875 18.4921875 21.703125 24.39453125 11.41015625 22.484375 24.80859375 18.9453125 22.6875 25.90625 17.70703125 27.2421875 26.05078125 18.84765625 26.26953125 33.2578125 17.19921875 25.88671875 36.55859375 28.2578125 -12.19921875 43.140625 -10.96875 -5.8984375 42.80078125 -10.84765625 -10.34375 42.90234375 -13.01171875 -10.45703125 45.39453125 8.8515625 22.04296875 32.71875 10.33203125 25.68359375 47.01171875 16.2421875 22.24609375 46.5859375 17.421875 21.4375 33.203125 18.3515625 25.0078125 29.6015625 7.97265625 -28.3984375 27.4140625 3.37890625 -26.5703125 33.73828125 5.19140625 -25.28125 38.19921875 27.67578125 27.5546875 37.1484375 29.921875 27.8984375 47.67578125 24.94921875 23.8046875 48.25 26.98046875 23.890625 60.98046875 14.828125 5.3203125 60.20703125 16.59765625 4.95703125 61.4765625 16.38671875 0 56.8046875 16.65625 4.609375 57.25390625 16.6953125 0 63.296875 23.91015625 -12.2421875 45.99609375 11.43359375 -23.765625 33.3515625 6.53515625 -15.02734375 37.25 11.11328125 -26.34765625 57.9609375 10.26953125 10.3671875 58.8359375 11.7734375 6.59765625 57.17578125 11.140625 9.90234375 53.2890625 11.390625 8.04296875 51.8203125 12.453125 10.7265625 50.703125 7.9140625 10.66015625 24.08984375 -29.17578125 20.84375 20.6015625 -28.51171875 17.38671875 27.78515625 -29.80859375 18.8203125 33.75390625 -13.72265625 13.11328125 38.27734375 -14.06640625 12.94140625 35.7734375 -14.3203125 11.05078125 37.5 -14.53515625 8.67578125 38.27734375 -0.8828125 -12.94140625 37.90234375 -1.33203125 -8.67578125 38.875 -9.58984375 -0.8046875 39.10546875 -8.921875 -0.84765625 39.3359375 -8.1640625 -0.7734375 39.80078125 -14.48046875 9.390625 32.578125 19.71875 -22.3671875 44.73828125 20.19140625 -19.01171875 33.3359375 19.89453125 -25.88671875 46.87890625 21.24609375 -22.24609375 32.80859375 29.171875 -26.0859375 46.15234375 28.6875 -22.44921875 50.49609375 40.13671875 -10.3125 33.5859375 1.5625 0 45.51171875 1.65625 0 45.69921875 5.7890625 12.6328125 53.3828125 14.6875 19.1328125 59.0546875 15 6.609375 27.50390625 8.08203125 30.8046875 20.6015625 22.84375 -16.43359375 20.21875 31.6640625 0 34.984375 31.5546875 -15.15234375 38.96875 35.77734375 0 44.2109375 -2.79296875 -12.34375 38.80859375 -2.796875 -9.390625 15.0625 4.23828125 -21.12109375 13.58203125 6.5546875 -26.07421875 10.06640625 6.9609375 -19.828125 55.25390625 7.1796875 13.8203125 55.41796875 11.51953125 14.74609375 55.984375 15.515625 15.16796875 55.83984375 17.0546875 14.1953125 35.07421875 -1.1796875 -13.11328125 36.66796875 -1.08984375 -11.05078125 37.8046875 26.875 25.76953125 34.9609375 -0.1484375 16.8984375 32.21484375 -0.0703125 14.72265625 27.7734375 -4.3203125 19.46875 32.80859375 29.171875 26.0859375 46.15234375 28.6875 22.44921875 33.3359375 19.89453125 25.88671875 46.87890625 21.24609375 22.24609375 32.578125 19.71875 22.3671875 44.73828125 20.19140625 19.01171875 48.78515625 22.796875 -22.02734375 64.38671875 13.13671875 6.92578125 68.5625 11.8046875 0 59.91796875 12.5 13.33203125 31.01953125 -18.703125 -16.5234375 42.89453125 -12.91796875 10.29296875 56.02734375 16.7734375 -5.39453125 60.0390625 16.48046875 -6.61328125 55.53515625 15.15625 4.93359375 54.8984375 12.08984375 5.36328125 54.9765625 7.0546875 0 53.76953125 7.41015625 5.328125 33.203125 18.3515625 -25.0078125 26.05078125 18.84765625 -26.26953125 33.2578125 17.19921875 -25.88671875 25.90625 17.70703125 -27.2421875 32.71875 10.33203125 -25.68359375 25.5625 11.3515625 -27.04296875 42.94921875 -15.0703125 -6.60546875 50.703125 7.9140625 -10.66015625 52.94140625 16.99609375 -10.7890625 53.76953125 7.41015625 -5.328125 55.65625 12.2734375 13.2109375 56.046875 15.42578125 13.41015625 27.21484375 -19.7265625 18.83984375 31.01953125 -18.703125 16.5234375 15.9375 15.21484375 0 22.46484375 4.18359375 0 24.51171875 9.81640625 -16.2109375 39.7421875 -13.96875 5.62890625 40.7578125 -13.21875 0 52.6640625 17.015625 12.12890625 51.453125 15.5390625 10.54296875 25.5625 11.3515625 27.04296875 34.9609375 -0.1484375 -16.8984375 27.7734375 -4.3203125 -19.46875 39.5390625 -6.6875 0.68359375 39.03515625 -6.13671875 0.71484375 38.52734375 -5.49609375 0.4296875 56.26953125 20.39453125 13.23046875 43.6328125 17.640625 -18.34765625 56.7421875 16.71484375 -13.23046875 46.5859375 17.421875 -21.4375 47.01171875 16.2421875 -22.24609375 31.3671875 18.4921875 -21.703125 45.39453125 8.8515625 -22.04296875 43.6328125 17.640625 18.34765625 41.96484375 -10.27734375 -5.71484375 26.078125 19.46875 -23.34765625 26.046875 19.609375 -27.2421875 25.546875 29.2890625 -27.4453125 41.59375 -10.33203125 -9.375 38.35546875 -24.03515625 4.27734375 39.21484375 -23.21484375 0 25.83984375 -27.34765625 13.98828125 50.59375 0.01171875 11.69140625 36.66796875 -16.171875 -10.47265625 27.21484375 -19.7265625 -18.83984375 33.078125 -1.7890625 15.7734375 56.99609375 21.5859375 -13.8203125 56.3359375 28.1484375 -13.8203125 26.078125 19.46875 23.34765625 26.046875 19.609375 27.2421875 37.8125 -10.5859375 0.01171875 38.32421875 -10.23046875 -0.4296875 41.96484375 -5.54296875 5.71484375 24.80859375 18.9453125 -22.6875 37.8125 -5.40234375 0.01171875 41.9609375 9.36328125 18.14453125 35.07421875 -1.19921875 12.94140625 34.92578125 -25.10546875 7.31640625 34.92578125 -25.10546875 -7.31640625 24.39453125 11.41015625 -22.484375 53.95703125 20.3046875 11.44921875 30.76171875 10.546875 -21.50390625 41.9609375 9.36328125 -18.14453125 37.8125 -5.40234375 -0.01171875 31.67578125 -26.140625 10.265625 31.67578125 -26.140625 -10.265625 25.546875 29.2890625 27.4453125</float_array>
                    <technique_common>
                        <accessor count="684" source="#pointarray0" stride="3">
                            <param name="X" type="float"/>
                            <param name="Y" type="float"/>
                            <param name="Z" type="float"/>
                        </accessor>
                    </technique_common>
                </source>
                <source id="uvs0">
                    <float_array id="uvarray0" count="858">0.52386474609375 0.29620361328125 0.5614013671875 0.25531005859375 0.5614013671875 0.29620361328125 0.5989990234375 0.29620361328125 0.5614013671875 0.30670166015625 0.6007080078125 0.30670166015625 0.5614013671875 0.3172607421875 0.60247802734375 0.3172607421875 0.5960693359375 0.325927734375 0.6119384765625 0.3302001953125 0.5614013671875 0.33453369140625 0.58392333984375 0.33514404296875 0.5614013671875 0.33514404296875 0.5614013671875 0.33282470703125 0.53887939453125 0.33514404296875 0.5467529296875 0.33282470703125 0.50885009765625 0.33056640625 0.51690673828125 0.32916259765625 0.4989013671875 0.3172607421875 0.50885009765625 0.3172607421875 0.50054931640625 0.30670166015625 0.51104736328125 0.30670166015625 0.50213623046875 0.29620361328125 0.51318359375 0.29620361328125 0.51849365234375 0.2667236328125 0.52557373046875 0.27777099609375 0.5614013671875 0.26544189453125 0.5443115234375 0.29620361328125 0.5452880859375 0.30902099609375 0.5614013671875 0.3104248046875 0.5614013671875 0.32464599609375 0.57659912109375 0.32183837890625 0.57611083984375 0.33282470703125 0.61395263671875 0.33056640625 0.6239013671875 0.3172607421875 0.62139892578125 0.3172607421875 0.622314453125 0.30670166015625 0.619873046875 0.30670166015625 0.62066650390625 0.29620361328125 0.61834716796875 0.29620361328125 0.6043701171875 0.2667236328125 0.6025390625 0.26953125 0.5614013671875 0.25177001953125 0.520263671875 0.26953125 0.50445556640625 0.29620361328125 0.50299072265625 0.30670166015625 0.39373779296875 0.49755859375 0.3375244140625 0.4949951171875 0.39215087890625 0.475341796875 0.32183837890625 0.47845458984375 0.3721923828125 0.4617919921875 0.31561279296875 0.4617919921875 0.31317138671875 0.44000244140625 0.254150390625 0.4478759765625 0.311767578125 0.4263916015625 0.254150390625 0.427001953125 0.3125 0.41180419921875 0.254150390625 0.40826416015625 0.3104248046875 0.39202880859375 0.254150390625 0.3896484375 0.317138671875 0.37744140625 0.254150390625 0.37493896484375 0.28875732421875 0.36065673828125 0.254150390625 0.35943603515625 0.254150390625 0.35003662109375 0.29022216796875 0.351318359375 0.32330322265625 0.3619384765625 0.32623291015625 0.3525390625 0.37640380859375 0.364501953125 0.38458251953125 0.35595703125 0.43963623046875 0.37078857421875 0.99212646484375 0.5897216796875 0.96636962890625 0.5751953125 0.96636962890625 0.58978271484375 0.94921875 0.57989501953125 0.93511962890625 0.58770751953125 0.9241943359375 0.5633544921875 0.89141845703125 0.55853271484375 0.89923095703125 0.54681396484375 0.83203125 0.52740478515625 0.90386962890625 0.539794921875 0.83514404296875 0.51898193359375 0.84136962890625 0.5106201171875 0.79693603515625 0.51373291015625 0.80010986328125 0.5064697265625 0.7587890625 0.508544921875 0.7587890625 0.50225830078125 0.80322265625 0.50018310546875 0.84765625 0.50439453125 0.6519775390625 0.94622802734375 0.58404541015625 0.92919921875 0.5855712890625 0.9202880859375 0.5062255859375 0.9105224609375 0.5062255859375 0.89617919921875 0.58746337890625 0.9041748046875 0.654541015625 0.93353271484375 0.65753173828125 0.91253662109375 0.724609375 0.92144775390625 0.729248046875 0.87921142578125 0.80657958984375 0.9302978515625 0.8026123046875 0.88812255859375 0.86248779296875 0.92919921875 0.8812255859375 0.88751220703125 0.94708251953125 0.91668701171875 0.4979248046875 0.4658203125 0.4879150390625 0.4620361328125 0.49835205078125 0.451171875 0.4833984375 0.4481201171875 0.49835205078125 0.4371337890625 0.47900390625 0.43548583984375 0.457763671875 0.40869140625 0.4639892578125 0.4371337890625 0.42498779296875 0.41802978515625 0.45623779296875 0.44097900390625 0.41900634765625 0.444091796875 0.43463134765625 0.4617919921875 0.44061279296875 0.4888916015625 0.52435302734375 0.01605224609375 0.5244140625 0.031005859375 0.5345458984375 0.00994873046875 0.5340576171875 0.02801513671875 0.54766845703125 0.02496337890625 0.53448486328125 0.044189453125 0.54827880859375 0.04571533203125 0.534912109375 0.0521240234375 0.54864501953125 0.05462646484375 0.53533935546875 0.05999755859375 0.54901123046875 0.0634765625 0.53607177734375 0.068603515625 0.54937744140625 0.07415771484375 0.537109375 0.07733154296875 0.5494384765625 0.081298828125 0.5972900390625 0.27777099609375 0.60968017578125 0.29620361328125 0.57855224609375 0.29620361328125 0.61181640625 0.30670166015625 0.57757568359375 0.30902099609375 0.61395263671875 0.3172607421875 0.60589599609375 0.32916259765625 0.52435302734375 0.04290771484375 0.5633544921875 0.063232421875 0.56402587890625 0.0748291015625 0.56439208984375 0.08135986328125 0.7562255859375 0.85003662109375 0.6624755859375 0.8292236328125 0.6624755859375 0.870849609375 0.5914306640625 0.862548828125 0.5062255859375 0.85418701171875 0.7183837890625 0.96136474609375 0.9918212890625 0.59075927734375 0.96014404296875 0.59600830078125 0.93511962890625 0.6043701171875 0.89141845703125 0.58978271484375 0.91015625 0.61273193359375 0.87261962890625 0.6085205078125 0.9163818359375 0.62310791015625 0.87890625 0.62939453125 0.92266845703125 0.633544921875 0.87261962890625 0.6474609375 0.92889404296875 0.64605712890625 0.8759765625 0.6627197265625 0.29364013671875 0.4964599609375 0.254150390625 0.481201171875 0.254150390625 0.46453857421875 0.3721923828125 0.42950439453125 0.3656005859375 0.40765380859375 0.38433837890625 0.397216796875 0.36785888671875 0.37225341796875 0.2918701171875 0.33984375 0.254150390625 0.338623046875 0.5919189453125 0.06256103515625 0.59112548828125 0.052001953125 0.58551025390625 0.06402587890625 0.5845947265625 0.05523681640625 0.57440185546875 0.05987548828125 0.58465576171875 0.0474853515625 0.57415771484375 0.05133056640625 0.58477783203125 0.03973388671875 0.57391357421875 0.04278564453125 0.58453369140625 0.02203369140625 0.57354736328125 0.02301025390625 0.5836181640625 0.006591796875 0.57318115234375 0.00677490234375 0.58758544921875 0.07098388671875 0.575439453125 0.0714111328125 0.5264892578125 0.0633544921875 0.52484130859375 0.053466796875 0.9927978515625 0.58892822265625 0.9788818359375 0.5731201171875 0.9542236328125 0.55267333984375 0.94140625 0.555419921875 0.92950439453125 0.5322265625 0.9163818359375 0.53564453125 0.5963134765625 0.05413818359375 1 0.95001220703125 0.93121337890625 0.9666748046875 0.96246337890625 1 0.88824462890625 0.9752197265625 0.8143310546875 0.97064208984375 0.856201171875 1 0.7210693359375 0.948486328125 0.59375 0.82086181640625 0.46917724609375 0.4617919921875 0.46270751953125 0.451416015625 0.4638671875 0.4368896484375 0.4124755859375 0.38262939453125 0.4703369140625 0.40557861328125 0.426513671875 0.37640380859375 0.48101806640625 0.4029541015625 0.71697998046875 0.71044921875 0.731201171875 0.70001220703125 0.8125 0.75836181640625 0.83123779296875 0.75 0.8779296875 0.7933349609375 0.8499755859375 0.737548828125 0.913818359375 0.77947998046875 0.9375 0.7708740234375 0.95623779296875 0.8375244140625 0.981201171875 0.8375244140625 0.99371337890625 0.875 0.97705078125 0.89483642578125 0.9124755859375 0.8375244140625 0.86871337890625 0.8375244140625 0.856201171875 0.8375244140625 0.79998779296875 0.76251220703125 0.5062255859375 0.920166015625 0.5819091796875 0.93798828125 0.75909423828125 0.5205078125 0.59814453125 0.045654296875 0.59222412109375 0.04486083984375 0.59991455078125 0.0372314453125 0.59332275390625 0.03765869140625 0.599853515625 0.02130126953125 0.59326171875 0.02166748046875 0.59979248046875 0.00640869140625 0.5928955078125 0.0064697265625 0.8341064453125 0.5465087890625 0.84454345703125 0.59393310546875 0.94140625 0.61376953125 0.9476318359375 0.62310791015625 0.97265625 0.610595703125 0.98516845703125 0.62103271484375 0.99066162109375 0.61163330078125 0.47869873046875 0.4349365234375 0.4715576171875 0.44793701171875 0.4775390625 0.45941162109375 0.16259765625 0.2794189453125 0.08380126953125 0.30072021484375 0.15753173828125 0.27166748046875 0.07952880859375 0.28729248046875 0.15179443359375 0.2635498046875 0.07745361328125 0.2806396484375 0.13861083984375 0.2520751953125 0.119384765625 0.24267578125 0.15057373046875 0.243896484375 0.1346435546875 0.23382568359375 0.254150390625 0.4915771484375 0.15093994140625 0.2640380859375 0.1627197265625 0.2568359375 0.1737060546875 0.27386474609375 0.16748046875 0.265625 0.162109375 0.2559814453125 0.5625 0.045654296875 0.56158447265625 0.02374267578125 0.56097412109375 0.00567626953125 0.5474853515625 0.00634765625 0.57684326171875 0.0777587890625 0.833984375 0.56158447265625 0.81011962890625 0.579345703125 0.79107666015625 0.55963134765625 0.7606201171875 0.5689697265625 0.76043701171875 0.55908203125 0.5267333984375 0.325927734375 0.5203857421875 0.3172607421875 0.51092529296875 0.3302001953125 0.50146484375 0.3172607421875 0.54620361328125 0.32183837890625 0.00701904296875 0.21337890625 0.00701904296875 0.2236328125 0.03668212890625 0.21600341796875 0.0711669921875 0.260498046875 0.07012939453125 0.22119140625 0.1044921875 0.23284912109375 0.11810302734375 0.2239990234375 0.32952880859375 0.34112548828125 0.50372314453125 0.16845703125 0.623291015625 0.16845703125 0.50372314453125 0.17120361328125 0.623291015625 0.17120361328125 0.623291015625 0.17230224609375 0.50372314453125 0.17230224609375 0.623291015625 0.23590087890625 0.50372314453125 0.2320556640625 0.5614013671875 0.2294921875 0.5577392578125 0.20770263671875 0.50469970703125 0.23138427734375 0.50482177734375 0.1859130859375 0.56402587890625 0.1859130859375 0.6239013671875 0.2275390625 0.623291015625 0.1859130859375 0.4716796875 0.44805908203125 0.00665283203125 0.20263671875 0.04071044921875 0.203857421875 0.00665283203125 0.2135009765625 0.03582763671875 0.21563720703125 0.00665283203125 0.23895263671875 0.0703125 0.2210693359375 0.06951904296875 0.259521484375 0.10223388671875 0.23419189453125 0.96014404296875 0.633544921875 0.56292724609375 0.054443359375 0.4495849609375 0.202880859375 0.3568115234375 0.25689697265625 0.275390625 0.180908203125 0.2767333984375 0.25689697265625 0.278564453125 0.31988525390625 0.357421875 0.32000732421875 0.52764892578125 0.0712890625 0.0791015625 0.28717041015625 0.12139892578125 0.24237060546875 0.117919921875 0.22393798828125 0.07952880859375 0.209228515625 0.50482177734375 0.2198486328125 0.50482177734375 0.17889404296875 0.5614013671875 0.21466064453125 0.5614013671875 0.17889404296875 0.5614013671875 0.1859130859375 0.5220947265625 0.30670166015625 0.50482177734375 0.21929931640625 0.623291015625 0.22021484375 0.623291015625 0.17889404296875 0.99322509765625 0.5914306640625 0.99407958984375 0.602294921875 0.55377197265625 0.1859130859375 0.55487060546875 0.17889404296875 0.56402587890625 0.16845703125 0.50482177734375 0.16845703125 0.121337890625 0.241943359375 0.14056396484375 0.25115966796875 0.50701904296875 0.22943115234375 0.5264892578125 0.23052978515625 0.50738525390625 0.22503662109375 0.52642822265625 0.22613525390625 0.52587890625 0.218505859375 0.54241943359375 0.216552734375 0.5419921875 0.23095703125 0.52459716796875 0.0482177734375 0.50372314453125 0.217529296875 0.623291015625 0.22381591796875 0.07427978515625 0.27056884765625 0.00701904296875 0.27471923828125 0.00701904296875 0.262451171875 0.00701904296875 0.22314453125 0.102783203125 0.2340087890625 0.07928466796875 0.2100830078125 0.50799560546875 0.2091064453125 0.5130615234375 0.20928955078125 0.51519775390625 0.17633056640625 0.514404296875 0.17962646484375 0.51580810546875 0.168701171875 0.55517578125 0.1705322265625 0.00701904296875 0.30670166015625 0.082763671875 0.298583984375 0.006591796875 0.2821044921875 0.08184814453125 0.2701416015625 0.00701904296875 0.23785400390625 0.50482177734375 0.2275390625 0.623291015625 0.21929931640625 0.5111083984375 0.20672607421875 0.50738525390625 0.1859130859375 0.0843505859375 0.3004150390625 0.74371337890625 0.69171142578125 0.7562255859375 0.683349609375 0.86871337890625 0.72503662109375 0.04095458984375 0.20379638671875 0.03662109375 0.21600341796875 0.00701904296875 0.20269775390625 0.0701904296875 0.22259521484375 0.79998779296875 0.862548828125 0.56402587890625 0.17889404296875 0.563720703125 0.18505859375 0.56256103515625 0.20782470703125 0.50469970703125 0.228515625 0.56109619140625 0.226806640625 0.50482177734375 0.22021484375 0.5614013671875 0.21441650390625 0.623291015625 0.22509765625 0.6104736328125 0.208984375 0.6207275390625 0.20556640625 0.61175537109375 0.18157958984375 0.62139892578125 0.1817626953125 0.61395263671875 0.171142578125 0.86248779296875 0.875 0.00701904296875 0.296875 0.00701904296875 0.28704833984375 0.5062255859375 0.81671142578125 0.45416259765625 0.27215576171875 0.45458984375 0.32806396484375 0.57904052734375 0.1695556640625 0.57244873046875 0.17938232421875 0.57080078125 0.20843505859375 0.5096435546875 0.23272705078125 0.510009765625 0.2181396484375 0.50653076171875 0.23284912109375 0.54705810546875 0.2325439453125 0.546875 0.22930908203125 0.50372314453125 0.22381591796875 0.623291015625 0.2320556640625 0.5614013671875 0.16845703125 0.13525390625 0.23272705078125 0.5614013671875 0.17230224609375 0.623291015625 0.217529296875 0.5614013671875 0.21173095703125 0.5062255859375 0.93243408203125 0.54608154296875 0.224853515625 0.4979248046875 0.436767578125 0.07965087890625 0.28753662109375 0.7587890625 0.49603271484375 0.50482177734375 0.22509765625 0.50482177734375 0.20196533203125 0.623291015625 0.2177734375 0.50482177734375 0.18414306640625 0.6492919921875 0.9549560546875 0.50482177734375 0.2177734375 0.623291015625 0.2198486328125 0.847412109375 0.66326904296875 0.56396484375 0.18133544921875 0.56207275390625 0.211181640625 0.71807861328125 0.9718017578125</float_array>
                    <technique_common>
                        <accessor count="429" source="#uvarray0" stride="2">
                            <param name="S" type="float"/>
                            <param name="T" type="float"/>
                        </accessor>
                    </technique_common>
                </source>
                <vertices id="vertices0">
                    <input semantic="POSITION" source="#points0"/>
                </vertices>
                <polylist count="1162" material="Material1">
                    <input offset="0" semantic="VERTEX" source="#vertices0"/>
                    <input offset="1" semantic="TEXCOORD" source="#uvs0" set="0"/>
                    <vcount>3 3 3 3 3 3 3 3 3 3 3 3 3 3 3 3 3 3 3 3 3 3 3 3 3 3 3 3 3 3 3 3 3 3 3 3 3 3 3 3 3 3 3 3 3 3 3 3 3 3 3 3 3 3 3 3 3 3 3 3 3 3 3 3 3 3 3 3 3 3 3 3 3 3 3 3 3 3 3 3 3 3 3 3 3 3 3 3 3 3 3 3 3 3 3 3 3 3 3 3 3 3 3 3 3 3 3 3 3 3 3 3 3 3 3 3 3 3 3 3 3 3 3 3 3 3 3 3 3 3 3 3 3 3 3 3 3 3 3 3 3 3 3 3 3 3 3 3 3 3 3 3 3 3 3 3 3 3 3 3 3 3 3 3 3 3 3 3 3 3 3 3 3 3 3 3 3 3 3 3 3 3 3 3 3 3 3 3 3 3 3 3 3 3 3 3 3 3 3 3 3 3 3 3 3 3 3 3 3 3 3 3 3 3 3 3 3 3 3 3 3 3 3 3 3 3 3 3 3 3 3 3 3 3 3 3 3 3 3 3 3 3 3 3 3 3 3 3 3 3 3 3 3 3 3 3 3 3 3 3 3 3 3 3 3 3 3 3 3 3 3 3 3 3 3 3 3 3 3 3 3 3 3 3 3 3 3 3 3 3 3 3 3 3 3 3 3 3 3 3 3 3 3 3 3 3 3 3 3 3 3 3 3 3 3 3 3 3 3 3 3 3 3 3 3 3 3 3 3 3 3 3 3 3 3 3 3 3 3 3 3 3 3 3 3 3 3 3 3 3 3 3 3 3 3 3 3 3 3 3 3 3 3 3 3 3 3 3 3 3 3 3 3 3 3 3 3 3 3 3 3 3 3 3 3 3 3 3 3 3 3 3 3 3 3 3 3 3 3 3 3 3 3 3 3 3 3 3 3 3 3 3 3 3 3 3 3 3 3 3 3 3 3 3 3 3 3 3 3 3 3 3 3 3 3 3 3 3 3 3 3 3 3 3 3 3 3 3 3 3 3 3 3 3 3 3 3 3 3 3 3 3 3 3 3 3 3 3 3 3 3 3 3 3 3 3 3 3 3 3 3 3 3 3 3 3 3 3 3 3 3 3 3 3 3 3 3 3 3 3 3 3 3 3 3 3 3 3 3 3 3 3 3 3 3 3 3 3 3 3 3 3 3 3 3 3 3 3 3 3 3 3 3 3 3 3 3 3 3 3 3 3 3 3 3 3 3 3 3 3 3 3 3 3 3 3 3 3 3 3 3 3 3 3 3 3 3 3 3 3 3 3 3 3 3 3 3 3 3 3 3 3 3 3 3 3 3 3 3 3 3 3 3 3 3 3 3 3 3 3 3 3 3 3 3 3 3 3 3 3 3 3 3 3 3 3 3 3 3 3 3 3 3 3 3 3 3 3 3 3 3 3 3 3 3 3 3 3 3 3 3 3 3 3 3 3 3 3 3 3 3 3 3 3 3 3 3 3 3 3 3 3 3 3 3 3 3 3 3 3 3 3 3 3 3 3 3 3 3 3 3 3 3 3 3 3 3 3 3 3 3 3 3 3 3 3 3 3 3 3 3 3 3 3 3 3 3 3 3 3 3 3 3 3 3 3 3 3 3 3 3 3 3 3 3 3 3 3 3 3 3 3 3 3 3 3 3 3 3 3 3 3 3 3 3 3 3 3 3 3 3 3 3 3 3 3 3 3 3 3 3 3 3 3 3 3 3 3 3 3 3 3 3 3 3 3 3 3 3 3 3 3 3 3 3 3 3 3 3 3 3 3 3 3 3 3 3 3 3 3 3 3 3 3 3 3 3 3 3 3 3 3 3 3 3 3 3 3 3 3 3 3 3 3 3 3 3 3 3 3 3 3 3 3 3 3 3 3 3 3 3 3 3 3 3 3 3 3 3 3 3 3 3 3 3 3 3 3 3 3 3 3 3 3 3 3 3 3 3 3 3 3 3 3 3 3 3 3 3 3 3 3 3 3 3 3 3 3 3 3 3 3 3 3 3 3 3 3 3 3 3 3 3 3 3 3 3 3 3 3 3 3 3 3 3 3 3 3 3 3 3 3 3 3 3 3 3 3 3 3 3 3 3 3 3 3 3 3 3 3 3 3 3 3 3 3 3 3 3 3 3 3 3 3 3 3 3 3 3 3 3 3 3 3 3 3 3 3 3 3 3 3 3 3 3 3 3 3 3 3 3 3 3 3 3 3 3 3 3 3 3 3 3 3 3 3 3 3 3 3 3 3 3 3 3 3 3 3 3 3 3 3 3 3 3 3 3 3 3 3 3 3 3 3 3 3 3 3 3 3 3 3 3 3 3 3 3 3 3 3 3 3 3 3 3 3 3 3 3 3 3 3 3 3 3 3 3 3 3 3 3 3 3 3 3 3 3 3 3 3 3 3 3 3 3 3 3 3 3 3 3 3 3 3 3 3 3 3 3 3 3 3 3 3 3 3 3 3 3 3 3 3 3 3 3 3 3 3 3 3 3 3 3 3 3 3 3 3 3 3 3 3 3 3 3 3 3 3 3 3 3 3 3 3 3 3 3 3 3 3 3 3 3 3 3 3 3 3 3 3 3 3 3 3 3 3 3 3 3 3 3 3</vcount>
                    <p>2 2 1 1 0 0 3 3 1 1 2 2 4 4 3 3 2 2 5 5 3 3 4 4 6 6 5 5 4 4 7 7 5 5 6 6 8 8 7 7 6 6 9 9 7 7 8 8 10 10 9 9 8 8 11 11 9 9 10 10 12 12 11 11 10 10 13 13 11 11 12 12 14 14 13 13 12 12 15 15 13 13 14 14 16 16 15 15 14 14 17 17 15 15 16 16 18 18 17 17 16 16 19 19 17 17 18 18 20 20 19 19 18 18 21 21 19 19 20 20 22 22 21 21 20 20 23 23 21 21 22 22 24 24 23 23 22 22 25 25 23 23 24 24 26 26 25 25 24 24 27 27 25 25 26 26 28 2 27 27 26 26 29 28 27 27 28 2 30 29 29 28 28 2 31 30 29 28 30 29 32 31 31 30 30 29 13 13 31 30 32 31 33 32 13 13 32 31 11 11 13 13 33 32 34 33 11 11 33 32 9 9 11 11 34 33 35 34 9 9 34 33 36 35 9 9 35 34 37 36 36 35 35 34 38 37 36 35 37 36 39 38 38 37 37 36 40 39 38 37 39 38 41 40 40 39 39 38 42 41 40 39 41 40 43 42 42 41 41 40 1 1 42 41 43 42 44 43 1 1 43 42 0 0 1 1 44 43 45 44 0 0 44 43 46 45 0 0 45 44 22 22 46 45 45 44 20 20 46 45 22 22 49 48 48 47 47 46 50 49 48 47 49 48 51 50 50 49 49 48 52 51 50 49 51 50 53 52 52 51 51 50 54 53 52 51 53 52 55 54 54 53 53 52 56 55 54 53 55 54 57 56 56 55 55 54 58 57 56 55 57 56 59 58 58 57 57 56 60 59 58 57 59 58 61 60 60 59 59 58 62 61 60 59 61 60 63 62 62 61 61 60 64 63 62 61 63 62 65 64 64 63 63 62 66 62 64 63 65 64 67 65 66 62 65 64 68 66 66 62 67 65 69 67 68 66 67 65 70 68 68 66 69 67 71 69 70 68 69 67 72 70 70 68 71 69 75 73 74 72 73 71 76 74 74 72 75 73 77 75 76 74 75 73 78 76 76 74 77 75 79 77 78 76 77 75 80 78 78 76 79 77 81 79 80 78 79 77 82 80 80 78 81 79 83 81 82 80 81 79 84 82 82 80 83 81 85 83 84 82 83 81 86 84 84 82 85 83 87 85 86 84 85 83 88 86 86 84 87 85 89 83 88 86 87 85 90 84 88 86 89 83 91 82 90 84 89 83 92 87 90 84 91 82 93 88 92 87 91 82 96 91 95 90 94 89 97 92 95 90 96 91 98 93 97 92 96 91 99 91 97 92 98 93 100 94 99 91 98 93 101 95 99 91 100 94 102 96 101 95 100 94 103 97 101 95 102 96 104 98 103 97 102 96 105 99 103 97 104 98 106 100 105 99 104 98 107 101 105 99 106 100 108 102 107 101 106 100 109 103 107 101 108 102 111 106 110 105 73 104 112 107 110 105 111 106 113 108 112 107 111 106 114 109 112 107 113 108 115 110 114 109 113 108 116 111 114 109 115 110 117 112 116 111 115 110 118 113 116 111 117 112 119 114 118 113 117 112 120 115 118 113 119 114 49 48 120 115 119 114 121 116 120 115 49 48 47 46 121 116 49 48 124 119 123 118 122 117 125 120 123 118 124 119 126 121 125 120 124 119 127 122 125 120 126 121 128 123 127 122 126 121 129 124 127 122 128 123 130 125 129 124 128 123 131 126 129 124 130 125 132 127 131 126 130 125 133 128 131 126 132 127 134 129 133 128 132 127 135 130 133 128 134 129 136 131 135 130 134 129 43 42 24 24 44 43 26 26 24 24 43 42 41 40 26 26 43 42 137 132 26 26 41 40 138 133 137 132 41 40 139 134 137 132 138 133 140 135 139 134 138 133 141 136 139 134 140 135 142 137 141 136 140 135 32 31 141 136 142 137 143 138 32 31 142 137 33 32 32 31 143 138 34 33 33 32 143 138 146 118 145 119 144 117 147 120 145 119 146 118 148 139 147 120 146 118 149 122 147 120 148 139 150 126 149 122 148 139 151 123 149 122 150 126 152 127 151 123 150 126 153 140 151 123 152 127 154 129 153 140 152 127 155 141 153 140 154 129 156 131 155 141 154 129 157 142 155 141 156 131 104 98 159 144 158 143 160 145 159 144 104 98 102 96 160 145 104 98 161 146 160 145 102 96 100 94 161 146 102 96 162 147 161 146 100 94 98 93 162 147 100 94 163 94 162 147 98 93 96 91 163 94 98 93 164 95 163 94 96 91 94 89 164 95 96 91 165 148 164 95 94 89 166 150 75 73 73 149 77 75 75 73 166 150 167 151 77 75 166 150 168 152 77 75 167 151 169 153 168 152 167 151 170 154 168 152 169 153 171 155 170 154 169 153 172 156 170 154 171 155 173 157 172 156 171 155 174 158 172 156 173 157 47 159 174 158 173 157 48 160 174 158 47 159 50 49 175 161 48 47 176 162 175 161 50 49 177 163 176 162 50 49 178 49 176 162 177 163 179 51 178 49 177 163 180 50 178 49 179 51 181 52 180 50 179 51 182 164 180 50 181 52 183 54 182 164 181 52 184 56 182 164 183 54 56 55 184 56 183 54 58 57 184 56 56 55 119 114 51 50 49 48 185 164 51 50 119 114 117 112 185 164 119 114 186 165 185 164 117 112 187 166 186 165 117 112 61 60 186 165 187 166 188 167 61 60 187 166 189 66 61 60 188 167 190 67 189 66 188 167 191 65 189 66 190 67 192 168 191 65 190 67 193 169 191 65 192 168 196 172 195 171 194 170 197 173 195 171 196 172 198 174 197 173 196 172 199 175 197 173 198 174 200 176 199 175 198 174 201 177 199 175 200 176 202 178 201 177 200 176 203 179 201 177 202 178 204 180 203 179 202 178 205 181 203 179 204 180 206 182 205 181 204 180 209 119 208 118 207 117 210 120 208 118 209 119 211 121 210 120 209 119 212 122 210 120 211 121 213 123 212 122 211 121 214 126 212 122 213 123 215 127 214 126 213 123 216 128 214 126 215 127 217 129 216 128 215 127 218 130 216 128 217 129 219 131 218 130 217 129 222 172 221 183 220 170 223 184 221 183 222 172 224 174 223 184 222 172 225 141 223 184 224 174 226 140 225 141 224 174 227 129 225 141 226 140 228 127 227 129 226 140 229 128 227 129 228 127 230 126 229 128 228 127 231 185 229 128 230 126 232 186 231 185 230 126 74 72 233 188 73 187 234 189 233 188 74 72 235 190 234 189 74 72 236 191 234 189 235 190 237 192 236 191 235 190 238 88 236 191 237 192 84 82 238 88 237 192 239 87 238 88 84 82 86 84 239 87 84 82 88 86 239 87 86 84 242 171 241 170 240 193 243 172 241 170 242 171 244 173 243 172 242 171 245 174 243 172 244 173 246 177 245 174 244 173 247 178 245 174 246 177 248 179 247 178 246 177 249 180 247 178 248 179 250 181 249 180 248 179 251 182 249 180 250 181 254 195 253 194 252 103 255 196 253 194 254 195 256 197 255 196 254 195 257 198 255 196 256 197 258 101 257 198 256 197 259 99 257 198 258 101 260 100 259 99 258 101 261 98 259 99 260 100 262 143 261 98 260 100 263 144 261 98 262 143 257 198 264 199 255 196 165 148 264 199 257 198 265 200 165 148 257 198 164 95 165 148 265 200 266 97 164 95 265 200 267 96 164 95 266 97 261 98 267 96 266 97 268 145 267 96 261 98 263 144 268 145 261 98 269 201 268 145 263 144 272 115 271 202 270 116 273 203 271 202 272 115 274 113 273 203 272 115 275 204 273 203 274 113 276 112 275 204 274 113 277 110 275 204 276 112 278 205 277 110 276 112 279 206 277 110 278 205 280 207 279 206 278 205 281 208 279 206 280 207 284 211 283 210 282 209 285 212 283 210 284 211 286 213 285 212 284 211 287 214 285 212 286 213 288 215 287 214 286 213 289 216 287 214 288 215 290 217 289 216 288 215 291 218 289 216 290 217 292 219 291 218 290 217 293 220 253 194 292 219 252 103 253 194 293 220 294 221 252 103 293 220 295 102 252 103 294 221 296 222 295 102 294 221 297 223 295 102 296 222 284 211 297 223 296 222 298 224 297 223 284 211 282 209 298 224 284 211 301 148 300 200 299 198 101 95 300 200 301 148 302 89 101 95 301 148 99 91 101 95 302 89 303 90 99 91 302 89 97 92 99 91 303 90 304 225 97 92 303 90 95 90 97 92 304 225 305 226 95 90 304 225 306 227 87 85 85 83 89 83 87 85 306 227 307 79 89 83 306 227 308 81 89 83 307 79 309 80 308 81 307 79 310 192 308 81 309 80 311 190 310 192 309 80 312 191 310 192 311 190 313 189 312 191 311 190 195 171 314 193 194 170 315 228 314 193 195 171 316 229 315 228 195 171 317 230 315 228 316 229 318 231 317 230 316 229 319 232 317 230 318 231 320 233 319 232 318 231 321 234 319 232 320 233 322 235 321 234 320 233 325 172 324 171 323 170 326 173 324 171 325 172 327 174 326 173 325 172 328 177 326 173 327 174 329 178 328 177 327 174 330 179 328 177 329 178 331 180 330 179 329 178 332 181 330 179 331 180 333 182 332 181 331 180 334 171 222 172 220 170 335 173 222 172 334 171 336 231 335 173 334 171 337 177 335 173 336 231 338 233 337 177 336 231 339 179 337 177 338 233 340 235 339 179 338 233 341 181 339 179 340 235 344 72 343 73 342 71 345 74 343 73 344 72 311 190 345 74 344 72 346 76 345 74 311 190 347 78 346 76 311 190 348 77 346 76 347 78 307 79 348 77 347 78 349 236 348 77 307 79 352 154 351 152 350 237 353 153 351 152 352 154 354 155 353 153 352 154 355 238 353 153 354 155 356 239 355 238 354 155 357 240 355 238 356 239 271 241 357 240 356 239 358 242 357 240 271 241 180 50 359 48 178 49 360 114 359 48 180 50 182 164 360 114 180 50 276 112 360 114 182 164 361 165 276 112 182 164 362 166 276 112 361 165 363 60 362 166 361 165 364 167 362 166 363 60 66 62 62 61 64 63 363 60 62 61 66 62 68 66 363 60 66 62 364 167 363 60 68 66 70 68 364 167 68 66 280 207 364 167 70 68 72 70 280 207 70 68 281 208 280 207 72 70 367 220 366 219 365 194 368 217 366 219 367 220 369 221 368 217 367 220 370 213 368 217 369 221 371 222 370 213 369 221 372 211 370 213 371 222 373 223 372 211 371 222 374 224 372 211 373 223 368 217 375 218 366 219 376 216 375 218 368 217 377 215 376 216 368 217 378 214 376 216 377 215 370 213 378 214 377 215 379 212 378 214 370 213 372 211 379 212 370 213 380 210 379 212 372 211 381 108 279 206 281 208 277 110 279 206 381 108 382 243 277 110 381 108 275 204 277 110 382 243 383 107 275 204 382 243 384 244 275 204 383 107 385 105 384 244 383 107 358 245 384 244 385 105 388 248 387 247 386 246 389 249 387 247 388 248 390 250 389 249 388 248 391 251 389 249 390 250 392 252 391 251 390 250 393 253 391 251 392 252 233 254 393 253 392 252 234 255 393 253 233 254 396 118 395 119 394 117 397 120 395 119 396 118 398 139 397 120 396 118 399 122 397 120 398 139 230 126 399 122 398 139 400 123 399 122 230 126 228 127 400 123 230 126 226 140 400 123 228 127 176 162 401 256 175 161 402 161 401 256 176 162 178 49 402 161 176 162 403 47 402 161 178 49 359 48 403 47 178 49 404 46 403 47 359 48 270 116 404 46 359 48 406 246 281 258 405 257 381 259 281 258 406 246 407 248 381 259 406 246 408 260 381 259 407 248 409 250 408 260 407 248 342 261 408 260 409 250 410 254 342 261 409 250 412 140 327 174 411 141 413 262 327 174 412 140 213 123 413 262 412 140 414 263 413 262 213 123 211 121 414 263 213 123 415 264 414 263 211 121 416 265 415 264 211 121 223 184 417 266 221 183 418 142 417 266 223 184 225 141 418 142 223 184 419 131 418 142 225 141 227 129 419 131 225 141 420 130 419 131 227 129 229 128 420 130 227 129 168 152 79 77 77 75 421 267 79 77 168 152 422 268 421 267 168 152 423 269 421 267 422 268 424 270 423 269 422 268 425 271 423 269 424 270 426 269 425 271 424 270 6 6 10 10 8 8 427 272 10 10 6 6 428 273 427 272 6 6 429 274 427 272 428 273 430 275 429 274 428 273 18 18 429 274 430 275 20 20 18 18 430 275 324 171 431 193 323 170 432 230 431 193 324 171 433 231 432 230 324 171 434 232 432 230 433 231 435 233 434 232 433 231 436 234 434 232 435 233 437 235 436 234 435 233 27 27 23 23 25 25 21 21 23 23 27 27 29 28 21 21 27 27 19 19 21 21 29 28 438 276 19 19 29 28 17 17 19 19 438 276 15 15 17 17 438 276 441 279 440 278 439 277 442 280 440 278 441 279 443 281 442 280 441 279 444 282 442 280 443 281 312 283 444 282 443 281 313 255 444 282 312 283 190 67 445 284 192 168 446 68 445 284 190 67 188 167 446 68 190 67 447 205 446 68 188 167 187 166 447 205 188 167 117 112 447 205 187 166 450 287 449 286 448 285 451 288 449 286 450 287 452 289 451 288 450 287 453 290 451 288 452 289 454 291 453 290 452 289 455 292 453 290 454 291 456 230 242 171 240 193 457 231 242 171 456 230 458 232 457 231 456 230 459 233 457 231 458 232 460 234 459 233 458 232 461 235 459 233 460 234 464 263 463 182 462 264 465 180 463 182 464 263 466 262 465 180 464 263 467 178 465 180 466 262 224 174 467 178 466 262 337 177 467 178 224 174 470 295 469 294 468 293 471 296 469 294 470 295 472 293 471 296 470 295 473 297 471 296 472 293 474 298 473 297 472 293 475 299 473 297 474 298 476 202 120 115 121 116 477 203 120 115 476 202 478 245 477 203 476 202 479 300 477 203 478 245 110 105 479 300 478 245 112 107 479 300 110 105 481 303 480 302 193 301 482 304 480 302 481 303 483 305 482 304 481 303 484 306 482 304 483 305 485 307 484 306 483 305 486 308 484 306 485 307 173 157 121 309 47 159 487 239 121 309 173 157 171 155 487 239 173 157 488 238 487 239 171 155 169 153 488 238 171 155 167 151 488 238 169 153 489 310 200 176 198 174 490 262 200 176 489 310 128 123 490 262 489 310 491 263 490 262 128 123 126 121 491 263 128 123 492 264 491 263 126 121 494 121 462 264 493 265 464 263 462 264 494 121 400 123 464 263 494 121 466 262 464 263 400 123 226 140 466 262 400 123 224 174 466 262 226 140 457 231 244 173 242 171 246 177 244 173 457 231 459 233 246 177 457 231 248 179 246 177 459 233 461 235 248 179 459 233 250 181 248 179 461 235 243 172 495 183 241 170 496 184 495 183 243 172 245 174 496 184 243 172 155 141 496 184 245 174 153 140 155 141 245 174 139 134 26 26 137 132 28 2 26 26 139 134 141 136 28 2 139 134 30 29 28 2 141 136 32 31 30 29 141 136 483 305 498 306 497 307 499 304 498 306 483 305 481 303 499 304 483 305 192 302 499 304 481 303 193 301 192 302 481 303 306 313 500 312 307 311 501 314 500 312 306 313 502 312 501 314 306 313 425 315 501 314 502 312 423 316 425 315 502 312 505 128 504 317 503 130 506 185 504 317 505 128 150 126 506 185 505 128 507 186 506 185 150 126 148 139 507 186 150 126 497 307 509 319 508 318 510 308 509 319 497 307 498 306 510 308 497 307 511 320 510 308 498 306 445 321 511 320 498 306 338 233 512 234 340 235 513 232 512 234 338 233 336 231 513 232 338 233 514 230 513 232 336 231 334 171 514 230 336 231 517 324 516 323 515 322 518 325 516 323 517 324 519 326 518 325 517 324 520 325 518 325 519 326 521 296 520 325 519 326 430 275 46 45 20 20 522 327 46 45 430 275 428 273 522 327 430 275 4 4 522 327 428 273 6 6 4 4 428 273 151 123 523 121 149 122 524 263 523 121 151 123 525 262 524 263 151 123 249 180 524 263 525 262 247 178 249 180 525 262 528 296 527 329 526 328 521 299 527 329 528 296 529 323 521 299 528 296 530 330 521 299 529 323 516 286 530 330 529 323 531 150 385 332 342 331 357 240 385 332 531 150 532 151 357 240 531 150 355 238 357 240 532 151 353 153 355 238 532 151 532 151 351 152 353 153 533 75 351 152 532 151 531 150 533 75 532 151 343 73 533 75 531 150 342 149 343 73 531 150 536 70 535 206 534 208 537 207 535 206 536 70 511 69 537 207 536 70 446 68 537 207 511 69 445 284 446 68 511 69 471 296 538 333 469 294 539 334 538 333 471 296 540 323 539 334 471 296 541 335 539 334 540 323 542 336 541 335 540 323 480 168 65 64 193 169 67 65 65 64 480 168 543 284 67 65 480 168 69 67 67 65 543 284 71 69 69 67 543 284 544 337 442 280 444 282 545 251 442 280 544 337 546 338 545 251 544 337 409 250 545 251 546 338 410 254 409 250 546 338 548 341 547 340 469 339 549 342 547 340 548 341 550 343 549 342 548 341 551 344 549 342 550 343 552 345 551 344 550 343 554 196 553 195 365 194 555 197 553 195 554 196 299 198 555 197 554 196 107 101 555 197 299 198 105 99 107 101 299 198 556 183 196 172 194 170 557 184 196 172 556 183 558 266 557 184 556 183 559 142 557 184 558 266 115 110 447 205 117 112 535 206 447 205 115 110 113 108 535 206 115 110 534 208 535 206 113 108 560 184 327 174 325 172 411 141 327 174 560 184 561 142 411 141 560 184 219 131 411 141 561 142 563 346 131 126 562 186 129 124 131 126 563 346 564 139 129 124 563 346 127 122 129 124 564 139 557 184 198 174 196 172 565 141 198 174 557 184 559 142 565 141 557 184 136 131 565 141 559 142 568 290 567 286 566 285 569 289 567 286 568 290 570 347 569 289 568 290 571 348 569 289 570 347 154 129 503 130 156 131 505 128 503 130 154 129 152 127 505 128 154 129 150 126 505 128 152 127 184 56 361 165 182 164 572 58 361 165 184 56 58 57 572 58 184 56 60 59 572 58 58 57 573 350 442 280 545 349 574 351 442 280 573 350 575 280 574 351 573 350 440 352 574 351 575 280 393 253 575 280 391 251 576 353 575 280 393 253 236 283 576 353 393 253 238 354 576 353 236 283 538 357 548 356 469 355 577 358 548 356 538 357 539 359 577 358 538 357 541 360 577 358 539 359 487 239 476 241 121 309 578 240 476 241 487 239 488 238 578 240 487 239 167 151 578 240 488 238 339 179 467 178 337 177 465 180 467 178 339 179 341 181 465 180 339 179 463 182 465 180 341 181 581 362 580 361 579 249 582 363 580 361 581 362 485 364 582 363 581 362 483 365 582 363 485 364 583 267 348 77 349 236 351 152 348 77 583 267 584 268 351 152 583 267 350 237 351 152 584 268 585 156 354 155 352 154 586 157 354 155 585 156 587 158 586 157 585 156 404 159 586 157 587 158 589 368 526 367 588 366 528 299 526 367 589 368 590 369 528 299 589 368 591 323 528 299 590 369 592 183 325 172 323 170 560 184 325 172 592 183 593 266 560 184 592 183 561 142 560 184 593 266 594 257 387 370 508 318 386 246 387 370 594 257 534 258 386 246 594 257 113 259 386 246 534 258 217 129 411 141 219 131 412 140 411 141 217 129 215 127 412 140 217 129 213 123 412 140 215 127 595 371 379 212 380 210 378 214 379 212 595 371 596 372 378 214 595 371 597 373 378 214 596 372 92 374 441 279 439 277 443 281 441 279 92 374 93 354 443 281 92 374 312 283 443 281 93 354 600 290 599 348 598 347 601 289 599 348 600 290 602 285 601 289 600 290 603 286 601 289 602 285 110 332 166 150 73 331 578 240 166 150 110 332 478 242 578 240 110 332 476 241 578 240 478 242 604 319 485 307 581 318 486 308 485 307 604 319 71 320 486 308 604 319 543 321 486 308 71 320 605 375 440 278 575 280 439 277 440 278 605 375 606 376 439 277 605 375 92 374 439 277 606 376 607 377 575 280 576 353 605 375 575 280 607 377 239 374 605 375 607 377 606 376 605 375 239 374 369 221 108 102 371 222 109 103 108 102 369 221 367 220 109 103 369 221 365 194 109 103 367 220 295 102 258 101 252 103 260 100 258 101 295 102 608 378 260 100 295 102 262 143 260 100 608 378 134 129 565 141 136 131 609 140 565 141 134 129 132 127 609 140 134 129 130 125 609 140 132 127 540 323 610 335 542 336 611 379 610 335 540 323 473 297 611 379 540 323 475 299 611 379 473 297 542 323 612 380 541 379 613 381 612 380 542 323 614 382 613 381 542 323 615 383 613 381 614 382 618 296 617 325 616 323 619 326 617 325 618 296 620 384 619 326 618 296 621 385 619 326 620 384 267 96 163 94 164 95 622 146 163 94 267 96 268 145 622 146 267 96 269 201 622 146 268 145 609 140 198 174 565 141 489 310 198 174 609 140 130 125 489 310 609 140 128 123 489 310 130 125 625 383 624 330 623 386 610 379 624 330 625 383 614 382 610 379 625 383 542 323 610 379 614 382 627 389 589 388 626 387 590 390 589 388 627 389 591 391 590 390 627 389 108 102 373 223 371 222 628 392 373 223 108 102 629 378 628 392 108 102 631 394 630 393 389 251 632 251 630 393 631 394 545 349 632 251 631 394 631 394 573 350 545 349 391 349 573 350 631 394 389 251 391 349 631 394 162 147 633 201 161 146 634 395 633 201 162 147 269 201 634 395 162 147 500 312 349 396 307 311 583 397 349 396 500 312 426 316 583 397 500 312 627 389 636 399 635 398 551 400 636 399 627 389 626 387 551 400 627 389 550 343 615 401 552 345 613 402 615 401 550 343 548 341 613 402 550 343 553 195 109 103 365 194 107 101 109 103 553 195 555 197 107 101 553 195 519 326 527 384 521 296 637 385 527 384 519 326 517 324 637 385 519 326 547 340 468 403 469 339 588 404 468 403 547 340 589 405 588 404 547 340 413 262 329 178 327 174 331 180 329 178 413 262 414 263 331 180 413 262 287 214 350 372 638 371 639 373 350 372 287 214 289 216 639 373 287 214 214 126 640 139 212 122 641 186 640 139 214 126 642 185 641 186 214 126 601 290 455 407 599 406 453 289 455 407 601 290 643 288 453 289 601 290 390 250 233 254 392 252 73 261 233 254 390 250 111 260 73 261 390 250 259 99 265 200 257 198 266 97 265 200 259 99 261 98 266 97 259 99 520 325 516 336 518 408 530 323 516 336 520 325 521 296 530 323 520 325 645 323 644 286 624 336 646 330 644 286 645 323 647 299 646 330 645 323 646 323 648 286 644 336 616 330 648 286 646 323 618 299 616 330 646 323 509 319 594 257 508 318 536 409 594 257 509 319 511 320 536 409 509 319 647 296 618 299 646 323 620 329 618 299 647 296 649 328 620 329 647 296 475 296 647 299 645 323 649 367 647 299 475 296 474 366 649 367 475 296 405 257 604 319 581 318 72 409 604 319 405 257 281 258 72 409 405 257 270 309 586 157 404 159 356 239 586 157 270 309 271 241 356 239 270 309 3 3 42 41 1 1 40 39 42 41 3 3 38 37 40 39 3 3 54 53 179 51 177 163 181 52 179 51 54 53 183 54 181 52 54 53 429 274 10 10 427 272 14 14 10 10 429 274 16 16 14 14 429 274 185 164 53 52 51 50 55 54 53 52 185 164 57 56 55 54 185 164 186 165 57 56 185 164 59 58 57 56 186 165 61 60 59 58 186 165 438 276 13 13 15 15 31 30 13 13 438 276 29 28 31 30 438 276 363 60 60 59 62 61 572 58 60 59 363 60 361 165 572 58 363 60 533 75 348 77 351 152 346 76 348 77 533 75 345 74 346 76 533 75 591 323 529 330 528 299 650 286 529 330 591 323 635 336 650 286 591 323 523 121 147 120 149 122 145 119 147 120 523 121 651 265 145 119 523 121 0 0 4 4 2 2 522 327 4 4 0 0 46 45 522 327 0 0 653 410 568 289 652 408 570 411 568 289 653 410 654 412 570 411 653 410 544 337 410 254 546 338 313 255 410 254 544 337 444 282 313 255 544 337 140 135 35 34 142 137 37 36 35 34 140 135 39 38 37 36 140 135 300 200 105 99 299 198 103 97 105 99 300 200 101 95 103 97 300 200 296 222 286 213 284 211 294 221 286 213 296 222 523 121 655 264 651 265 524 263 655 264 523 121 656 226 304 225 303 90 657 413 304 225 656 226 524 263 251 182 655 264 249 180 251 182 524 263 153 140 525 262 151 123 245 174 525 262 153 140 658 199 299 198 554 196 301 148 299 198 658 199 395 119 494 121 493 265 397 120 494 121 395 119 399 122 494 121 397 120 400 123 494 121 399 122 158 143 106 100 104 98 629 378 106 100 158 143 36 35 7 7 9 9 38 37 7 7 36 35 38 37 5 5 7 7 3 3 5 5 38 37 45 44 24 24 22 22 44 43 24 24 45 44 160 145 633 201 159 144 161 146 633 201 160 145 143 138 35 34 34 33 142 137 35 34 143 138 138 133 39 38 140 135 41 40 39 38 138 133 274 113 360 114 276 112 272 115 360 114 274 113 425 315 500 312 501 314 426 316 500 312 425 315 421 397 502 312 659 396 423 316 502 312 421 397 81 311 502 312 306 313 659 396 502 312 81 311 272 115 359 48 360 114 270 116 359 48 272 115 362 166 278 205 276 112 364 167 278 205 362 166 626 414 549 342 551 344 589 405 549 342 626 414 381 415 383 107 382 243 408 106 383 107 381 415 271 202 384 244 358 245 273 203 384 244 271 202 342 104 383 107 408 106 385 105 383 107 342 104 157 142 496 184 155 141 660 266 496 184 157 142 113 259 388 248 386 246 111 260 388 248 113 259 197 173 316 229 195 171 199 175 316 229 197 173 322 235 203 179 205 181 320 233 203 179 322 235 320 233 201 177 203 179 318 231 201 177 320 233 622 146 162 147 163 94 269 201 162 147 622 146 206 182 491 263 492 264 204 180 491 263 206 182 204 180 490 262 491 263 202 178 490 262 204 180 199 175 318 231 316 229 201 177 318 231 199 175 254 195 258 101 256 197 252 103 258 101 254 195 607 377 238 354 239 374 576 353 238 354 607 377 290 217 293 220 292 219 294 221 293 220 290 217 661 392 295 102 297 223 608 378 295 102 661 392 286 213 290 217 288 215 294 221 290 217 286 213 285 212 638 371 283 210 287 214 638 371 285 212 479 300 116 111 118 113 112 107 116 111 479 300 426 269 584 268 583 267 424 270 584 268 426 269 659 236 79 77 421 267 81 79 79 77 659 236 482 304 543 321 480 302 484 306 543 321 482 304 662 193 334 171 220 170 514 230 334 171 662 193 387 249 630 393 580 361 389 251 630 393 387 249 567 285 450 288 448 286 569 290 450 288 567 285 569 290 663 289 450 288 571 406 663 289 569 290 663 290 452 289 450 287 664 292 452 289 663 290 579 247 407 248 406 246 632 416 407 248 579 247 632 416 409 250 407 248 545 251 409 250 632 416 308 81 91 82 89 83 310 192 91 82 308 81 579 249 630 393 632 251 580 361 630 393 579 249 310 192 93 88 91 82 312 191 93 88 310 192 508 362 580 361 582 363 387 249 580 361 508 362 497 364 582 363 483 365 508 362 582 363 497 364 600 289 666 410 665 408 598 411 666 410 600 289 81 79 85 83 83 81 306 227 85 83 81 79 309 80 347 78 311 190 307 79 347 78 309 80 82 80 237 192 235 190 84 82 237 192 82 80 125 120 564 139 123 118 127 122 564 139 125 120 667 317 133 128 135 130 668 185 133 128 667 317 669 265 126 121 124 119 492 264 126 121 669 265 80 78 235 190 78 76 82 80 235 190 80 78 648 336 617 325 670 408 616 323 617 325 648 336 645 330 611 379 475 299 624 286 611 379 645 330 76 74 235 190 74 72 78 76 235 190 76 74 671 317 229 128 231 185 420 130 229 128 671 317 668 185 131 126 133 128 562 186 131 126 668 185 88 86 606 417 239 87 90 84 606 417 88 86 52 51 177 163 50 49 54 53 177 163 52 51 189 66 63 62 61 60 191 65 63 62 189 66 477 203 118 113 120 115 479 300 118 113 477 203 191 65 65 64 63 62 193 169 65 64 191 65 579 370 405 257 581 318 406 246 405 257 579 370 672 420 551 419 552 418 650 330 551 419 672 420 650 330 636 421 551 419 635 323 636 421 650 330 673 209 372 211 374 224 380 210 372 211 673 209 303 90 674 422 656 226 302 89 674 422 303 90 675 422 95 90 305 226 94 89 95 90 675 422 676 324 619 326 621 385 670 325 619 326 676 324 596 237 168 152 170 154 422 268 168 152 596 237 672 423 516 330 650 323 515 424 516 330 672 423 333 182 414 263 415 264 331 180 414 263 333 182 335 173 224 174 222 172 337 177 224 174 335 173 410 188 344 72 342 187 313 189 344 72 410 188 603 285 643 288 601 290 677 286 643 288 603 285 643 287 451 288 453 290 677 285 451 288 643 287 403 160 587 158 402 425 404 159 587 158 403 160 330 179 437 235 435 233 332 181 437 235 330 179 328 177 435 233 433 231 330 179 435 233 328 177 326 173 433 231 324 171 328 177 433 231 326 173 648 323 676 324 678 322 670 325 676 324 648 323 679 423 648 330 678 424 644 323 648 330 679 423 623 418 644 330 679 420 624 323 644 330 623 418 612 426 577 358 541 360 613 427 577 358 612 426 210 120 640 139 208 118 212 122 640 139 210 120 445 321 499 304 192 302 498 306 499 304 445 321 680 317 216 128 218 130 642 185 216 128 680 317 537 207 447 205 535 206 446 68 447 205 537 207 658 199 681 428 301 148 681 428 674 422 301 148 682 428 165 148 675 422 165 148 94 89 675 422 264 199 165 148 682 428 301 148 674 422 302 89 48 160 175 425 174 158 613 427 548 356 577 358 167 151 166 150 578 240 429 274 18 18 16 16 14 14 12 12 10 10 304 225 657 413 305 226 600 289 665 408 602 286 568 289 566 286 652 408 245 174 247 178 525 262 549 342 589 405 547 340 606 417 90 84 92 87 344 72 313 189 311 190 111 260 390 250 388 248 393 253 234 255 236 283 214 126 216 128 642 185 666 410 598 411 683 412 451 288 677 285 449 286 664 292 454 291 452 289 571 406 664 407 663 289 211 121 209 119 416 265 516 286 529 323 650 336 108 102 106 100 629 378 619 326 670 325 617 325 635 398 591 391 627 389 378 214 597 373 376 216 368 217 370 213 377 215 357 240 358 242 385 332 354 155 586 157 356 239 200 176 490 262 202 178 624 286 610 335 611 379 540 323 471 296 473 297 230 126 398 139 232 186 496 184 660 266 495 183 54 53 56 55 183 54 112 107 114 109 116 111 509 319 510 308 511 320 280 207 278 205 364 167 275 204 384 244 273 203 486 308 543 321 484 306 442 280 574 351 440 352 575 280 573 350 391 349 533 75 343 73 345 74 604 319 72 409 71 320 594 257 536 409 534 258</p>
                </polylist>
            </mesh>
        </geometry>
    </library_geometries>
    <library_visual_scenes>
        <visual_scene id="VisualSceneNode">
            <node id="node0" name="m0" type="NODE">
                <instance_geometry url="#mesh0">
                    <bind_material>
                        <technique_common>
                            <instance_material symbol="Material1" target="#mat0">
                                <bind_vertex_input semantic="UVSET0" input_semantic="TEXCOORD" input_set="0"></bind_vertex_input>
                            </instance_material>
                        </technique_common>
                    </bind_material>
                </instance_geometry>
            </node>
        </visual_scene>
    </library_visual_scenes>
    <scene>
        <instance_visual_scene url="#VisualSceneNode"></instance_visual_scene>
    </scene>
</COLLADA>
