# Blender v2.79 (sub 0) OBJ File: ''
# www.blender.org
mtllib face 10.mtl
o n0b0_n0b0.008
v 0.466016 1.200391 0.000000
v 5.328125 1.656641 -1.551563
v 4.341406 -2.345313 0.000000
v 4.046484 -0.587891 0.000000
v 4.524219 0.687109 -1.012109
v 4.253516 -2.435938 -0.578906
v 4.669141 -0.667578 0.000000
v 4.669141 -0.667578 0.000000
v 2.542578 2.791016 -1.887109
v 3.564844 -2.855078 -1.371094
v 5.558984 -0.280078 0.000000
v 2.531250 0.859375 -4.405469
v 2.531250 0.859375 -4.405469
v 3.781250 -2.352734 -1.633984
v 6.283594 0.325000 0.000000
v 4.266407 0.289062 -3.541406
v 3.993750 -2.487500 0.000000
v 6.032032 0.382812 0.000000
v 6.032032 0.382812 0.000000
v 4.513281 0.898438 -4.016797
v 4.513281 0.898438 -4.016797
v 3.948437 -2.563672 -0.477734
v 6.520703 0.495703 0.000000
v 5.126563 0.923438 -1.830078
v 3.637110 -2.669141 -0.783984
v 6.577344 0.845703 0.000000
v 6.577344 0.845703 0.000000
v 6.186328 0.494922 -0.775000
v 3.199610 -2.766797 -1.107813
v 5.678125 0.609375 0.000000
v 6.377735 0.659375 -0.759375
v 3.835547 -2.403516 -0.427734
v 4.470313 0.423438 0.000000
v 5.939844 0.597266 -0.777344
v 5.939844 0.597266 -0.777344
v 3.167578 -2.614063 -1.026563
v 0.212500 2.779688 0.000000
v 5.532032 -0.180469 -0.563672
v 3.156250 -0.679688 1.876953
v 0.432813 3.787500 0.000000
v 5.483203 -0.039453 -1.162500
v 5.483203 -0.039453 -1.162500
v 3.626953 -0.107422 1.538281
v 3.946484 3.778125 0.000000
v 4.660547 -0.581250 -0.559766
v 4.660547 -0.581250 -0.559766
v 3.142578 -0.570312 2.025000
v 6.112891 2.953516 0.000000
v 4.588672 -0.410938 -1.156250
v 4.588672 -0.410938 -1.156250
v 3.496094 -0.014844 1.689844
v 4.967969 3.358594 0.000000
v 5.851562 0.766797 -1.054688
v 3.221484 -0.007031 1.472266
v 6.291406 3.127734 0.000000
v 6.291406 3.127734 0.000000
v 5.371484 0.241016 -1.619531
v 2.956641 -0.447266 2.083203
v 4.796875 4.739453 0.000000
v 0.968750 0.953516 -2.202734
v 0.968750 0.953516 -2.202734
v 2.777344 -0.432031 1.946875
v 5.758203 3.810547 0.000000
v 4.910156 0.612109 -1.842188
v 2.782422 -1.543359 1.927734
v 5.833984 3.706641 0.000000
v 5.590625 0.789453 -1.566406
v 3.101953 -1.931641 1.652344
v 1.341016 4.548047 0.000000
v 5.341797 1.484766 -1.636328
v 3.064063 -0.681250 1.757812
v 2.630469 4.947656 0.000000
v 4.019531 -0.052734 -2.177344
v 3.408203 -1.767578 1.446875
v 2.178125 3.029688 0.000000
v 1.722656 0.893750 -4.259766
v 1.722656 0.893750 -4.259766
v 2.794922 -1.551953 2.106641
v 6.143750 3.657813 0.000000
v 1.689844 0.117969 -2.731250
v 1.872266 -2.528906 2.118750
v 2.481250 0.224609 2.030859
v 5.557813 1.314844 -1.421094
v 2.060156 -2.851172 1.738672
v 3.221484 -0.007031 1.520703
v 5.657813 1.628125 -1.495313
v 5.657813 1.628125 -1.495313
v 4.170312 -2.216797 1.226953
v 1.544141 0.333594 2.262891
v 5.312891 1.822656 -1.557813
v 5.312891 1.822656 -1.557813
v 5.312891 1.822656 -1.557813
v 5.312891 1.822656 -1.557813
v 5.312891 1.822656 -1.557813
v 3.936719 -2.650391 1.039062
v 1.056641 0.622266 2.154297
v 6.211328 0.858203 -1.100781
v 4.417188 -2.046094 0.683594
v 0.655859 1.053125 1.059375
v 0.655859 1.053125 1.059375
v 6.076562 0.717188 -1.104688
v 3.492578 -2.510547 0.731641
v 4.454297 0.010937 1.720312
v 6.249609 1.080078 -1.085156
v 6.249609 1.080078 -1.085156
v 3.507422 -0.119922 1.294141
v 5.653125 1.530469 1.522266
v 6.427344 0.927344 -0.742969
v 6.427344 0.927344 -0.742969
v 3.974219 -1.460547 0.562891
v 5.328125 1.656641 1.551563
v 5.202734 1.842188 -1.600391
v 5.202734 1.842188 -1.600391
v 2.583984 -2.734766 1.398828
v 4.524219 0.687109 1.012109
v 5.307422 1.949609 -1.562109
v 5.307422 1.949609 -1.562109
v 3.761328 -1.596484 1.071094
v 2.542578 2.791016 1.887109
v 5.291797 1.951172 -1.360937
v 2.492969 -0.830078 2.167969
v 2.531250 0.859375 4.405469
v 2.531250 0.859375 4.405469
v 5.282032 1.841016 -1.355859
v 2.241797 -1.384766 2.290625
v 4.266407 0.289062 3.541406
v 2.605469 2.660547 -4.623047
v 2.628516 -0.859375 2.297656
v 4.513281 0.898438 4.016797
v 4.513281 0.898438 4.016797
v 0.751172 2.735547 -2.214453
v 2.353125 -1.460938 2.417969
v 5.126563 0.923438 1.830078
v 1.157422 3.488281 -2.155859
v 2.878906 -1.008594 2.204688
v 6.186328 0.494922 0.775000
v 1.715625 3.979687 -3.780859
v 2.700781 -1.591406 2.329688
v 6.377735 0.659375 0.759375
v 1.660938 4.105469 -2.975781
v 2.078125 -2.075000 2.327734
v 5.939844 0.597266 0.777344
v 5.939844 0.597266 0.777344
v 3.749219 3.570703 -1.064062
v 2.413281 -2.473047 2.319141
v 5.532032 -0.180469 0.563672
v 5.618750 2.823047 -1.411719
v 2.408984 -2.892578 2.084375
v 5.483203 -0.039453 1.162500
v 5.483203 -0.039453 1.162500
v 5.522266 2.364844 -1.496875
v 2.775391 -2.048828 2.108984
v 4.660547 -0.581250 0.559766
v 4.660547 -0.581250 0.559766
v 5.441016 2.486719 -1.519141
v 2.721484 -1.986719 1.883984
v 4.588672 -0.410938 1.156250
v 4.588672 -0.410938 1.156250
v 5.523438 2.159766 -1.291016
v 2.778516 -3.032813 1.882031
v 5.851562 0.766797 1.054688
v 5.750000 2.476562 -1.139063
v 3.241797 -2.971094 1.641797
v 5.371484 0.241016 1.619531
v 5.819922 2.592969 -1.266406
v 5.819922 2.592969 -1.266406
v 3.012110 -2.603906 2.110938
v 0.968750 0.953516 2.202734
v 0.968750 0.953516 2.202734
v 5.562500 2.247656 -1.411719
v 5.562500 2.247656 -1.411719
v 3.390234 -2.513672 1.913672
v 4.910156 0.612109 1.842188
v 4.462891 3.893359 -3.135547
v 4.044531 -1.743750 1.219141
v 5.590625 0.789453 1.566406
v 5.232812 3.169922 -1.473828
v 4.294922 -1.580078 0.660547
v 5.341797 1.484766 1.636328
v 4.679297 4.532422 -1.044922
v 2.094531 -1.826563 2.282031
v 4.019531 -0.052734 2.177344
v 2.672656 4.746875 -1.033594
v 3.256250 -2.047656 1.950781
v 1.722656 0.893750 4.259766
v 1.722656 0.893750 4.259766
v 3.880859 -0.279687 -0.939063
v 3.659375 -1.928516 1.633594
v 1.689844 0.117969 2.731250
v 1.677734 2.634766 -4.529297
v 4.253516 -2.435938 0.578906
v 5.557813 1.314844 1.421094
v 2.628906 4.202734 -3.539062
v 3.564844 -2.855078 1.371094
v 5.657813 1.628125 1.495313
v 5.657813 1.628125 1.495313
v 2.643750 4.352344 -2.739453
v 3.781250 -2.352734 1.633984
v 5.312891 1.822656 1.557813
v 5.312891 1.822656 1.557813
v 5.312891 1.822656 1.557813
v 5.312891 1.822656 1.557813
v 5.312891 1.822656 1.557813
v 5.559375 3.660938 -0.941016
v 3.948437 -2.563672 0.477734
v 6.211328 0.858203 1.100781
v 5.744531 3.499219 -0.803516
v 3.637110 -2.669141 0.783984
v 6.076562 0.717188 1.104688
v 6.026563 3.466797 -0.886719
v 3.199610 -2.766797 1.107813
v 6.249609 1.080078 1.085156
v 6.249609 1.080078 1.085156
v 6.168750 3.027735 -0.795703
v 6.168750 3.027735 -0.795703
v 3.835547 -2.403516 0.427734
v 6.427344 0.927344 0.742969
v 6.427344 0.927344 0.742969
v 5.991797 2.839062 -0.728906
v 3.167578 -2.614063 1.026563
v 5.202734 1.819922 1.600391
v 5.202734 1.819922 1.600391
v 6.135547 3.284375 -0.866797
v 5.307422 1.949609 1.562109
v 5.307422 1.949609 1.562109
v 5.736328 2.723047 -1.369141
v 5.291797 1.951172 1.360937
v 2.685938 0.773828 -1.677344
v 5.282032 1.841016 1.355859
v 5.961328 1.373828 -1.351953
v 5.961328 1.373828 -1.351953
v 2.605469 2.660547 4.623047
v 5.880859 1.278906 -1.405859
v 0.751172 2.735547 2.214453
v 2.175000 1.828516 -1.778516
v 1.157422 3.488281 2.155859
v 5.867969 2.688281 -0.936719
v 1.715625 3.979687 3.780859
v 5.987891 2.821484 -1.044531
v 5.987891 2.821484 -1.044531
v 1.660938 4.105469 2.975781
v 5.956250 3.044141 -1.144141
v 3.749219 3.570703 1.064062
v 5.838281 3.176953 -1.193359
v 5.618750 2.823047 1.411719
v 5.279687 2.108594 -1.610937
v 5.522266 2.364844 1.496875
v 5.204297 1.887500 -1.376953
v 5.441016 2.486719 1.519141
v 5.198438 1.881250 -1.593359
v 5.198438 1.881250 -1.593359
v 5.523438 2.159766 1.291016
v 5.173047 1.926563 -1.593750
v 5.750000 2.476562 1.139063
v 4.589844 2.580859 -4.118750
v 5.819922 2.592969 1.266406
v 5.819922 2.592969 1.266406
v 5.371875 1.609766 -1.766016
v 5.371875 1.609766 -1.766016
v 5.562500 2.247656 1.411719
v 5.562500 2.247656 1.411719
v 5.372266 2.019531 -1.705469
v 4.462891 3.893359 3.135547
v 5.176563 2.737109 -1.599219
v 5.232812 3.169922 1.473828
v 6.266797 0.359375 -0.345703
v 4.679297 4.532422 1.044922
v 6.478516 0.529688 -0.364844
v 2.672656 4.746875 1.033594
v 6.535547 0.864062 -0.359375
v 6.535547 0.864062 -0.359375
v 3.880859 -0.279687 0.939063
v 6.066406 2.921094 -0.413281
v 1.677734 2.634766 4.529297
v 6.245313 3.106250 -0.443359
v 6.245313 3.106250 -0.443359
v 2.628906 4.202734 3.539062
v 6.251563 3.410547 -0.460156
v 2.643750 4.352344 2.739453
v 6.112500 3.599609 -0.443750
v 5.559375 3.660938 0.941016
v 6.277734 1.073047 -0.322266
v 5.744531 3.499219 0.803516
v 6.171484 1.176953 -0.657813
v 6.026563 3.466797 0.886719
v 6.025391 1.324609 -0.958984
v 6.168750 3.027735 0.795703
v 6.168750 3.027735 0.795703
v 5.821875 1.498438 -1.167578
v 5.991797 2.839062 0.728906
v 5.494141 1.694922 -1.300391
v 6.310156 3.453125 0.000000
v 5.684766 1.119922 -1.337891
v 6.135547 3.284375 0.866797
v 3.972656 -0.080859 -2.909766
v 5.736328 2.723047 1.369141
v 2.435156 -0.086719 -2.654688
v 2.467188 0.516406 0.000000
v 5.375782 1.875000 -1.732422
v 2.685938 0.773828 1.677344
v 4.577734 1.666406 -4.180078
v 5.961328 1.373828 1.351953
v 5.961328 1.373828 1.351953
v 2.570703 1.581641 -4.657032
v 5.880859 1.278906 1.405859
v 1.681641 1.618359 -4.547266
v 1.734375 1.800000 0.000000
v 0.786719 1.733984 -2.208594
v 2.175000 1.828516 1.778516
v 0.239844 2.803906 -1.072656
v 5.867969 2.688281 0.936719
v 0.499219 3.745312 -1.064453
v 5.987891 2.821484 1.044531
v 5.987891 2.821484 1.044531
v 1.410547 4.401172 -1.085547
v 5.956250 3.044141 1.144141
v 0.335547 1.732813 -1.064062
v 5.838281 3.176953 1.193359
v 2.473438 0.232031 -3.894922
v 5.279687 2.079688 1.610937
v 4.381641 4.006250 -2.435547
v 5.204297 1.887500 1.376953
v 4.293359 3.887891 -1.718750
v 5.198438 1.881250 1.593359
v 5.198438 1.881250 1.593359
v 2.647266 4.146875 -1.773828
v 5.173047 1.926563 1.593750
v 1.594141 3.848047 -1.926953
v 4.589844 2.580859 4.118750
v 5.264062 2.365625 -1.665234
v 5.371875 1.609766 1.766016
v 5.371875 1.609766 1.766016
v 4.554688 3.350000 -3.768750
v 5.372266 2.067969 1.705469
v 2.639453 3.529297 -4.380078
v 5.176563 2.737109 1.599219
v 1.713281 3.460547 -4.262891
v 6.266797 0.359375 0.345703
v 3.745312 0.033203 -1.758984
v 6.478516 0.529688 0.364844
v 2.447656 -0.066797 -3.273438
v 6.535547 0.864062 0.359375
v 6.535547 0.864062 0.359375
v 1.733594 0.390625 -3.886719
v 6.066406 2.921094 0.413281
v 1.315625 3.653125 -3.545313
v 6.245313 3.106250 0.443359
v 6.245313 3.106250 0.443359
v 1.001953 2.630859 -4.097656
v 6.251563 3.410547 0.460156
v 0.993750 1.665234 -4.060937
v 6.112500 3.599609 0.443750
v 1.183984 0.928125 -3.914453
v 1.183984 0.928125 -3.914453
v 6.319141 1.058594 0.000000
v 3.060156 -0.209375 -2.505078
v 6.277734 1.073047 0.322266
v 3.211719 -0.150000 -3.184766
v 6.171484 1.176953 0.657813
v 3.401953 0.185156 -3.851172
v 6.025391 1.324609 0.958984
v 3.589844 0.831641 -4.369531
v 3.589844 0.831641 -4.369531
v 5.821875 1.498438 1.167578
v 3.669141 1.623828 -4.559375
v 5.494141 1.694922 1.300391
v 3.682422 2.620703 -4.512109
v 5.684766 1.119922 1.337891
v 3.663281 3.499609 -4.203125
v 3.972656 -0.080859 2.909766
v 3.641406 4.109375 -3.371094
v 2.435156 -0.086719 2.654688
v 3.586719 4.273828 -2.576563
v 5.375782 1.875000 1.732422
v 3.568750 4.105859 -1.731641
v 4.577734 1.666406 4.180078
v 3.111328 -0.007031 -1.894531
v 2.570703 1.581641 4.657032
v 3.773438 4.750000 -1.028125
v 1.681641 1.618359 4.547266
v 1.699219 0.137109 -3.255859
v 0.786719 1.733984 2.208594
v 0.857422 0.964453 -2.751563
v 0.857422 0.964453 -2.751563
v 0.239844 2.803906 1.072656
v 0.577734 1.741797 -2.751953
v 0.499219 3.745312 1.064453
v 0.609375 2.711328 -2.751953
v 1.410547 4.401172 1.085547
v 1.086328 3.733203 -2.390234
v 0.335547 1.732813 1.064062
v 4.167969 0.199609 -1.819922
v 0.339453 1.787500 0.000000
v 4.400781 0.060156 -2.570703
v 2.473438 0.232031 3.894922
v 4.785938 0.479297 -3.089062
v 4.381641 4.006250 2.435547
v 5.087891 1.085156 -3.356641
v 5.087891 1.085156 -3.356641
v 4.293359 3.887891 1.718750
v 5.205860 1.728125 -3.452734
v 2.647266 4.146875 1.773828
v 5.214453 2.472266 -3.439453
v 1.626953 3.807031 1.882422
v 5.105078 3.146875 -3.211328
v 5.264062 2.365625 1.665234
v 4.902734 3.644141 -2.847656
v 4.554688 3.350000 3.768750
v 4.719141 3.741016 -2.177734
v 2.639453 3.529297 4.380078
v 4.683203 3.616797 -1.665625
v 1.713281 3.460547 4.262891
v 5.239453 4.166016 -1.016797
v 3.745312 0.033203 1.758984
v 5.816016 0.253125 -1.019141
v 5.816016 0.253125 -1.019141
v 2.447656 -0.066797 3.273438
v 5.712891 0.494922 -1.406250
v 1.733594 0.390625 3.886719
v 5.876563 0.161719 -0.486328
v 1.315625 3.653125 3.545313
v 6.027734 0.403906 -0.358203
v 6.027734 0.403906 -0.358203
v 1.001953 2.630859 4.097656
v 5.250391 0.583594 -1.786719
v 0.993750 1.665234 4.060937
v 5.819141 3.665234 -0.428906
v 1.183984 0.928125 3.914453
v 1.183984 0.928125 3.914453
v 5.724609 3.790234 -0.451172
v 3.060156 -0.209375 2.505078
v 5.366406 4.310547 -0.520312
v 3.211719 -0.150000 3.184766
v 4.765234 4.680860 -0.535156
v 3.401953 0.185156 3.851172
v 3.819531 4.883594 -0.523438
v 3.589844 0.831641 4.369531
v 3.589844 0.831641 4.369531
v 2.651562 4.883203 -0.526172
v 3.669141 1.623828 4.559375
v 1.375781 4.510547 -0.552344
v 3.682422 2.620703 4.512109
v 5.453907 2.852734 -1.331250
v 3.663281 3.499609 4.203125
v 5.604688 3.225391 -1.087500
v 3.641406 4.109375 3.371094
v 5.366406 3.448437 -1.310938
v 3.586719 4.273828 2.576563
v 4.990234 3.880469 -1.392578
v 3.568750 4.105859 1.731641
v 4.512109 4.137109 -1.431641
v 3.111328 -0.007031 1.894531
v 3.666016 4.363672 -1.428516
v 3.773438 4.750000 1.028125
v 2.660156 4.428125 -1.441797
v 3.825000 4.944922 0.000000
v 1.505859 4.163281 -1.578125
v 1.699219 0.137109 3.255859
v 5.162500 3.325781 -2.388281
v 0.857422 0.964453 2.751563
v 0.857422 0.964453 2.751563
v 5.371484 2.923438 -2.631641
v 0.577734 1.741797 2.751953
v 5.466016 2.346875 -2.713672
v 0.609375 2.711328 2.751953
v 5.468359 1.771094 -2.754297
v 1.086328 3.733203 2.390234
v 5.375782 1.232813 -2.697656
v 5.375782 1.232813 -2.697656
v 4.167969 0.199609 1.819922
v 5.114844 0.714844 -2.544531
v 4.400781 0.060156 2.570703
v 4.719532 0.301563 -2.199610
v 4.785938 0.479297 3.089062
v 4.880078 0.086328 -1.669922
v 5.087891 1.085156 3.356641
v 5.087891 1.085156 3.356641
v 5.003125 -0.264453 -1.187500
v 5.003125 -0.264453 -1.187500
v 5.205860 1.728125 3.452734
v 5.063672 -0.409766 -0.580469
v 5.214453 2.472266 3.439453
v 5.344922 2.534375 -1.473438
v 5.105078 3.146875 3.211328
v 5.227735 2.196094 -1.591797
v 4.902734 3.644141 2.847656
v 0.751172 3.619141 -1.616406
v 4.719141 3.741016 2.177734
v 0.391016 2.774609 -1.830469
v 4.683203 3.616797 1.665625
v 0.457422 1.728906 -1.844922
v 5.239453 4.166016 1.016797
v 0.762500 0.975391 -1.833594
v 0.762500 0.975391 -1.833594
v 5.406250 4.348438 0.000000
v 0.870703 0.969922 -3.376563
v 0.870703 0.969922 -3.376563
v 5.900781 0.120313 0.000000
v 0.635938 1.745703 -3.450000
v 5.816016 0.253125 1.019141
v 5.816016 0.253125 1.019141
v 0.655469 2.679297 -3.447656
v 5.712891 0.494922 1.406250
v 1.135156 3.800391 -3.025000
v 5.876563 0.161719 0.486328
v 4.934766 3.430859 -2.073828
v 6.027734 0.403906 0.358203
v 6.027734 0.403906 0.358203
v 5.770313 1.178906 -1.389844
v 5.250391 0.583594 1.786719
v 5.607812 1.404297 -1.477734
v 5.819141 3.665234 0.428906
v 1.626172 4.066016 -2.308985
v 5.724609 3.790234 0.451172
v 2.650000 4.302344 -2.089453
v 5.366406 4.310547 0.520312
v 3.571094 4.243360 -2.023828
v 4.765234 4.680860 0.535156
v 4.311328 3.984766 -2.002344
v 3.819531 4.883594 0.523438
v 5.271094 1.196484 -1.815234
v 2.651562 4.883203 0.526172
v 5.460938 1.108203 -1.642187
v 1.375781 4.510547 0.552344
v 1.113281 3.274219 -3.978125
v 5.453907 2.852734 1.331250
v 0.800000 3.308985 -3.403125
v 5.604688 3.225391 1.087500
v 0.787109 3.335547 -2.704297
v 5.366406 3.448437 1.310938
v 5.307813 1.605078 -1.532422
v 4.990234 3.880469 1.392578
v 5.128906 0.878125 -2.096875
v 4.512109 4.137109 1.431641
v 5.360157 1.425000 -2.101562
v 5.360157 1.425000 -2.101562
v 3.666016 4.363672 1.428516
v 5.454297 1.816797 -2.099219
v 2.660156 4.428125 1.441797
v 5.451562 2.208984 -2.081250
v 1.505859 4.163281 1.578125
v 5.329297 2.631250 -2.016797
v 5.162500 3.325781 2.388281
v 5.165235 3.020313 -1.914453
v 5.371484 2.923438 2.631641
v 4.970313 3.268359 -1.641016
v 5.466016 2.346875 2.713672
v 5.006250 3.400000 -1.583984
v 5.468359 1.771094 2.754297
v 4.633203 0.374219 -1.857813
v 5.375782 1.232813 2.697656
v 5.375782 1.232813 2.697656
v 5.234375 1.228516 -1.753516
v 5.114844 0.714844 2.544531
v 3.552734 -0.168359 -2.341016
v 4.719532 0.301563 2.199610
v 4.482031 -1.967578 0.000000
v 4.880078 0.086328 1.669922
v 4.075781 -1.394922 0.000000
v 5.003125 -0.264453 1.187500
v 5.003125 -0.264453 1.187500
v 4.350391 -1.506250 0.000000
v 5.063672 -0.409766 0.580469
v 3.921484 -2.321484 0.000000
v 5.081250 -0.495313 0.000000
v 3.156250 -0.679688 -1.876953
v 5.344922 2.534375 1.473438
v 3.626953 -0.107422 -1.538281
v 5.227735 2.151953 1.591797
v 3.142578 -0.570312 -2.025000
v 0.751172 3.619141 1.616406
v 3.496094 -0.014844 -1.689844
v 0.391016 2.774609 1.830469
v 3.221484 -0.007031 -1.472266
v 0.457422 1.728906 1.844922
v 2.956641 -0.447266 -2.083203
v 0.762500 0.975391 1.833594
v 0.762500 0.975391 1.833594
v 2.777344 -0.432031 -1.946875
v 0.870703 0.969922 3.376563
v 0.870703 0.969922 3.376563
v 2.782422 -1.543359 -1.927734
v 0.635938 1.745703 3.450000
v 3.101953 -1.931641 -1.652344
v 0.655469 2.679297 3.447656
v 3.064063 -0.681250 -1.757812
v 1.135156 3.800391 3.025000
v 3.408203 -1.767578 -1.446875
v 4.934766 3.430859 2.073828
v 2.794922 -1.551953 -2.106641
v 5.770313 1.178906 1.389844
v 1.872266 -2.528906 -2.118750
v 5.607812 1.404297 1.477734
v 2.060156 -2.851172 -1.738672
v 1.626172 4.066016 2.308985
v 4.170312 -2.216797 -1.226953
v 2.650000 4.302344 2.089453
v 3.936719 -2.650391 -1.039062
v 3.571094 4.243360 2.023828
v 4.417188 -2.046094 -0.683594
v 4.311328 3.984766 2.002344
v 3.492578 -2.510547 -0.731641
v 5.271094 1.196484 1.815234
v 3.507422 -0.119922 -1.294141
v 5.460938 1.108203 1.642187
v 3.974219 -1.460547 -0.562891
v 1.113281 3.274219 3.978125
v 2.583984 -2.734766 -1.398828
v 0.800000 3.308985 3.403125
v 3.761328 -1.596484 -1.071094
v 0.787109 3.335547 2.704297
v 2.492969 -0.830078 -2.167969
v 5.307813 1.605078 1.532422
v 2.241797 -1.384766 -2.290625
v 5.128906 0.878125 2.096875
v 2.628516 -0.859375 -2.297656
v 5.360157 1.425000 2.101562
v 5.360157 1.425000 2.101562
v 2.353125 -1.460938 -2.417969
v 5.454297 1.816797 2.099219
v 2.878906 -1.008594 -2.204688
v 5.451562 2.208984 2.081250
v 2.700781 -1.591406 -2.329688
v 5.329297 2.631250 2.016797
v 2.078125 -2.075000 -2.327734
v 5.165235 3.020313 1.914453
v 2.413281 -2.473047 -2.319141
v 4.970313 3.268359 1.641016
v 2.408984 -2.892578 -2.084375
v 5.006250 3.400000 1.583984
v 2.775391 -2.048828 -2.108984
v 4.633203 0.374219 1.857813
v 2.721484 -1.986719 -1.883984
v 5.234375 1.228516 1.753516
v 2.778516 -3.032813 -1.882031
v 3.552734 -0.168359 2.341016
v 3.241797 -2.971094 -1.641797
v 2.481250 0.224609 -2.030859
v 3.012110 -2.603906 -2.110938
v 3.221484 -0.007031 -1.520703
v 3.390234 -2.513672 -1.913672
v 1.509375 0.292578 -2.316016
v 4.044531 -1.743750 -1.219141
v 1.010156 0.587891 -2.205078
v 4.294922 -1.580078 -0.660547
v 0.655859 1.053125 -1.059375
v 0.655859 1.053125 -1.059375
v 2.094531 -1.826563 -2.282031
v 4.454297 0.010937 -1.720312
v 3.256250 -2.047656 -1.950781
v 5.653125 1.530469 -1.522266
v 3.659375 -1.928516 -1.633594
vt 0.487915 0.462036
vt 0.498352 0.451172
vt 0.497925 0.465820
vt 0.483398 0.448120
vt 0.474609 0.453735
vt 0.471680 0.448059
vt 0.470520 0.448486
vt 0.466797 0.443054
vt 0.465759 0.443481
vt 0.462036 0.438110
vt 0.460083 0.439026
vt 0.421326 0.418823
vt 0.417725 0.419617
vt 0.372803 0.412964
vt 0.395264 0.419739
vt 0.380066 0.418274
vt 0.364136 0.423279
vt 0.338135 0.421204
vt 0.348267 0.428284
vt 0.330017 0.427307
vt 0.302612 0.441406
vt 0.293152 0.442627
vt 0.315613 0.461792
vt 0.302246 0.462402
vt 0.321838 0.478455
vt 0.306885 0.479065
vt 0.313232 0.487305
vt 0.290833 0.488159
vt 0.293640 0.496460
vt 0.254150 0.486389
vt 0.254150 0.491577
vt 0.293640 0.496460
vt 0.168091 0.270203
vt 0.151062 0.266724
vt 0.163147 0.262146
vt 0.158997 0.277039
vt 0.175171 0.280762
vt 0.164795 0.284241
vt 0.150269 0.245178
vt 0.138550 0.252686
vt 0.136780 0.231445
vt 0.119263 0.242920
vt 0.114075 0.221375
vt 0.102234 0.234192
vt 0.070312 0.221008
vt 0.072510 0.264099
vt 0.006653 0.238953
vt 0.006653 0.279968
vt 0.072510 0.264099
vt 0.083191 0.299194
vt 0.158997 0.277039
vt 0.079529 0.287292
vt 0.077454 0.280640
vt 0.006042 0.295959
vt 0.006348 0.284912
vt 0.077454 0.280640
vt 0.071167 0.260498
vt 0.457764 0.408691
vt 0.458496 0.412048
vt 0.479004 0.435486
vt 0.414917 0.389587
vt 0.412476 0.382629
vt 0.350769 0.387329
vt 0.367859 0.372253
vt 0.317139 0.377441
vt 0.323303 0.361938
vt 0.288757 0.360657
vt 0.290222 0.351318
vt 0.254150 0.350037
vt 0.254150 0.338623
vt 0.290222 0.351318
vt 0.291870 0.339844
vt 0.326233 0.352539
vt 0.329529 0.341125
vt 0.376404 0.364502
vt 0.384583 0.355957
vt 0.426514 0.376404
vt 0.439636 0.370789
vt 0.470337 0.405579
vt 0.481018 0.402954
vt 0.498352 0.437134
vt 0.254150 0.389648
vt 0.285645 0.376160
vt 0.254150 0.374939
vt 0.282288 0.390808
vt 0.282837 0.400452
vt 0.310425 0.392029
vt 0.311462 0.401917
vt 0.338013 0.399841
vt 0.342163 0.407410
vt 0.369202 0.410278
vt 0.372803 0.412964
vt 0.442688 0.427979
vt 0.421326 0.418823
vt 0.463013 0.437622
vt 0.462036 0.438110
vt 0.466797 0.443054
vt 0.465759 0.443481
vt 0.470520 0.448486
vt 0.469421 0.448914
vt 0.473511 0.454102
vt 0.472412 0.454468
vt 0.476440 0.459717
vt 0.475403 0.460022
vt 0.469421 0.448914
vt 0.463623 0.444397
vt 0.467163 0.449707
vt 0.459473 0.446167
vt 0.462708 0.451416
vt 0.443176 0.449585
vt 0.448669 0.456604
vt 0.434631 0.461792
vt 0.437622 0.475342
vt 0.392151 0.475342
vt 0.392944 0.486450
vt 0.361328 0.486572
vt 0.365601 0.496277
vt 0.353394 0.486633
vt 0.358582 0.495972
vt 0.345520 0.486633
vt 0.351562 0.495605
vt 0.329651 0.486694
vt 0.337524 0.494995
vt 0.320679 0.495544
vt 0.339417 0.477661
vt 0.348206 0.477295
vt 0.356995 0.476929
vt 0.382202 0.468567
vt 0.426819 0.452942
vt 0.419006 0.444092
vt 0.437622 0.442505
vt 0.391296 0.425354
vt 0.456238 0.440979
vt 0.410461 0.421204
vt 0.585571 0.920288
vt 0.584045 0.929199
vt 0.651978 0.946228
vt 0.506226 0.910522
vt 0.506226 0.896179
vt 0.585571 0.920288
vt 0.587463 0.904175
vt 0.654541 0.933533
vt 0.657532 0.912537
vt 0.724609 0.921448
vt 0.729248 0.879211
vt 0.806580 0.930298
vt 0.802612 0.888123
vt 0.862488 0.929199
vt 0.881226 0.887512
vt 0.947083 0.916687
vt 0.912476 0.837524
vt 0.977051 0.894836
vt 0.956238 0.837524
vt 0.993713 0.875000
vt 0.981201 0.837524
vt 0.966370 0.575195
vt 0.978882 0.573120
vt 0.992798 0.588928
vt 0.954224 0.552673
vt 0.941406 0.555420
vt 0.929504 0.532227
vt 0.916382 0.535645
vt 0.847656 0.504395
vt 0.841370 0.510620
vt 0.803223 0.500183
vt 0.800110 0.506470
vt 0.758789 0.502258
vt 0.758789 0.508545
vt 0.800110 0.506470
vt 0.796936 0.513733
vt 0.841370 0.510620
vt 0.835144 0.518982
vt 0.903870 0.539795
vt 0.832031 0.527405
vt 0.899231 0.546814
vt 0.417725 0.419617
vt 0.395264 0.419739
vt 0.380066 0.418274
vt 0.364136 0.423279
vt 0.338135 0.421204
vt 0.348267 0.428284
vt 0.330017 0.427307
vt 0.302612 0.441406
vt 0.293152 0.442627
vt 0.315613 0.461792
vt 0.302246 0.462402
vt 0.321838 0.478455
vt 0.306885 0.479065
vt 0.313232 0.487305
vt 0.290833 0.488159
vt 0.410461 0.421204
vt 0.391296 0.425354
vt 0.377747 0.424316
vt 0.372192 0.429504
vt 0.360229 0.428894
vt 0.313171 0.440002
vt 0.307922 0.440674
vt 0.332214 0.463501
vt 0.335815 0.470581
vt 0.339417 0.477661
vt 0.345520 0.486633
vt 0.353394 0.486633
vt 0.358582 0.495972
vt 0.365601 0.496277
vt 0.477539 0.459412
vt 0.473511 0.454102
vt 0.476440 0.459717
vt 0.472412 0.454468
vt 0.475403 0.460022
vt 0.470276 0.455139
vt 0.473328 0.460632
vt 0.465942 0.456604
vt 0.469177 0.461792
vt 0.451782 0.465942
vt 0.454895 0.475342
vt 0.440613 0.488892
vt 0.393738 0.497559
vt 0.891418 0.574158
vt 0.935120 0.604370
vt 0.935120 0.596008
vt 0.915771 0.602600
vt 0.891418 0.589783
vt 0.900757 0.601257
vt 0.882019 0.599182
vt 0.910156 0.612732
vt 0.877319 0.603821
vt 0.911682 0.615295
vt 0.913269 0.617920
vt 0.941406 0.613770
vt 0.933594 0.619751
vt 0.947632 0.623108
vt 0.941406 0.625732
vt 0.972656 0.627258
vt 0.960144 0.633545
vt 0.346252 0.415039
vt 0.342163 0.407410
vt 0.312500 0.411804
vt 0.312134 0.419067
vt 0.283142 0.418396
vt 0.282959 0.426697
vt 0.254150 0.427002
vt 0.268921 0.445862
vt 0.254150 0.447876
vt 0.254150 0.464539
vt 0.268921 0.445862
vt 0.284912 0.463135
vt 0.283691 0.443909
vt 0.760620 0.568970
vt 0.760437 0.559082
vt 0.791077 0.559631
vt 0.791077 0.559631
vt 0.810120 0.579346
vt 0.833984 0.561584
vt 0.834045 0.554077
vt 0.891418 0.558533
vt 0.935120 0.587708
vt 0.947632 0.591858
vt 0.949219 0.579895
vt 0.964172 0.591980
vt 0.288025 0.479858
vt 0.284912 0.463135
vt 0.283691 0.443909
vt 0.311768 0.426392
vt 0.654541 0.933533
vt 0.718384 0.961365
vt 0.587463 0.904175
vt 0.506226 0.854187
vt 0.591431 0.862549
vt 0.662476 0.870850
vt 0.662476 0.829224
vt 0.756226 0.850037
vt 0.891418 0.589783
vt 0.900757 0.601257
vt 0.882019 0.599182
vt 0.915771 0.602600
vt 0.891418 0.574158
vt 0.935120 0.604370
vt 0.935120 0.596008
vt 0.972656 0.610596
vt 0.966370 0.603333
vt 0.981628 0.611145
vt 0.960144 0.596008
vt 0.994080 0.602295
vt 0.964172 0.591980
vt 0.814331 0.970642
vt 0.721069 0.948486
vt 0.718384 0.961365
vt 0.651978 0.946228
vt 0.584045 0.929199
vt 0.506226 0.920166
vt 0.581909 0.937988
vt 0.311462 0.401917
vt 0.283325 0.410034
vt 0.254150 0.417664
vt 0.283142 0.418396
vt 0.282959 0.426697
vt 0.312134 0.419067
vt 0.311768 0.426392
vt 0.377747 0.424316
vt 0.372192 0.429504
vt 0.360229 0.428894
vt 0.313171 0.440002
vt 0.307922 0.440674
vt 0.332214 0.463501
vt 0.335815 0.470581
vt 0.442688 0.427979
vt 0.369202 0.410278
vt 0.338013 0.399841
vt 0.310425 0.392029
vt 0.282837 0.400452
vt 0.282288 0.390808
vt 0.285645 0.376160
vt 0.960144 0.616882
vt 0.938293 0.609070
vt 0.936707 0.606689
vt 0.941406 0.613770
vt 0.947632 0.623108
vt 0.933594 0.619751
vt 0.941406 0.625732
vt 0.925781 0.625732
vt 0.935120 0.628357
vt 0.924194 0.636658
vt 0.925781 0.639771
vt 0.902466 0.654358
vt 0.928894 0.646057
vt 0.372192 0.461792
vt 0.348877 0.465210
vt 0.419006 0.444092
vt 0.437622 0.442505
vt 0.456238 0.440979
vt 0.459473 0.446167
vt 0.460083 0.439026
vt 0.463623 0.444397
vt 0.437622 0.475342
vt 0.392151 0.475342
vt 0.392944 0.486450
vt 0.434631 0.461792
vt 0.448669 0.456604
vt 0.443176 0.449585
vt 0.462708 0.451416
vt 0.467163 0.449707
vt 0.440613 0.488892
vt 0.393738 0.497559
vt 0.454895 0.475342
vt 0.451782 0.465942
vt 0.469177 0.461792
vt 0.465942 0.456604
vt 0.473328 0.460632
vt 0.470276 0.455139
vt 0.878906 0.629395
vt 0.922668 0.633545
vt 0.872620 0.647461
vt 0.916382 0.623108
vt 0.872620 0.608521
vt 0.877319 0.603821
vt 0.844543 0.593933
vt 0.810120 0.579346
vt 0.833984 0.561584
vt 0.834045 0.554077
vt 0.931213 0.966675
vt 1.000000 0.950012
vt 0.947083 0.916687
vt 0.962463 1.000000
vt 0.888245 0.975220
vt 0.814331 0.970642
vt 0.862488 0.929199
vt 0.806580 0.930298
vt 0.802612 0.888123
vt 0.729248 0.879211
vt 0.756226 0.850037
vt 0.662476 0.829224
vt 0.340576 0.464355
vt 0.352966 0.471069
vt 0.382202 0.468567
vt 0.356995 0.476929
vt 0.361328 0.486572
vt 0.856201 1.000000
vt 0.721069 0.948486
vt 0.724609 0.921448
vt 0.657532 0.912537
vt 0.662476 0.870850
vt 0.593750 0.820862
vt 0.916382 0.623108
vt 0.925781 0.625732
vt 0.935120 0.628357
vt 0.925781 0.639771
vt 0.928894 0.646057
vt 0.902466 0.654358
vt 0.254150 0.398926
vt 0.283325 0.410034
vt 0.312500 0.411804
vt 0.346252 0.415039
vt 0.966370 0.603333
vt 0.972656 0.610596
vt 0.969543 0.612183
vt 0.936707 0.606689
vt 0.966370 0.613770
vt 0.960144 0.616882
vt 0.987915 0.616333
vt 0.985168 0.621033
vt 0.910156 0.612732
vt 0.911682 0.615295
vt 0.913269 0.617920
vt 0.372192 0.461792
vt 0.348877 0.465210
vt 0.352966 0.471069
vt 0.340576 0.464355
vt 0.344360 0.470825
vt 0.149780 0.246887
vt 0.138611 0.252075
vt 0.119385 0.242676
vt 0.007019 0.223633
vt 0.103210 0.233398
vt 0.067688 0.221313
vt 0.070557 0.208313
vt 0.038452 0.202820
vt 0.856201 0.837524
vt 0.812500 0.758362
vt 0.799988 0.762512
vt 0.868713 0.837524
vt 0.881226 0.887512
vt 0.912476 0.837524
vt 0.977051 0.894836
vt 0.993713 0.875000
vt 1.000000 0.950012
vt 0.931213 0.966675
vt 0.888245 0.975220
vt 0.962463 1.000000
vt 0.856201 1.000000
vt 0.847656 0.504395
vt 0.803223 0.500183
vt 0.916382 0.535645
vt 0.941406 0.555420
vt 0.932800 0.559387
vt 0.957825 0.577576
vt 0.966370 0.589783
vt 0.471680 0.448059
vt 0.467834 0.442627
vt 0.477600 0.436340
vt 0.463989 0.437134
vt 0.365601 0.407654
vt 0.498352 0.437134
vt 0.498352 0.451172
vt 0.470337 0.405579
vt 0.426514 0.376404
vt 0.376404 0.364502
vt 0.384583 0.355957
vt 0.329529 0.341125
vt 0.036987 0.216797
vt 0.038452 0.202820
vt 0.007019 0.201477
vt 0.067688 0.221313
vt 0.103210 0.233398
vt 0.119385 0.242676
vt 0.115234 0.221497
vt 0.135315 0.231995
vt 0.865051 0.662964
vt 0.847412 0.663269
vt 0.875977 0.662720
vt 0.889221 0.658569
vt 0.895813 0.656494
vt 0.937500 0.770874
vt 0.913818 0.779480
vt 0.877930 0.793335
vt 0.849976 0.737549
vt 0.831238 0.750000
vt 0.743713 0.691711
vt 0.731201 0.700012
vt 0.949219 0.579895
vt 0.966370 0.589783
vt 0.957825 0.577576
vt 0.932800 0.559387
vt 0.903870 0.539795
vt 0.463013 0.437622
vt 0.463989 0.437134
vt 0.365601 0.407654
vt 0.350769 0.387329
vt 0.317139 0.377441
vt 0.716980 0.710449
vt 0.731201 0.700012
vt 0.831238 0.750000
vt 0.743713 0.691711
vt 0.849976 0.737549
vt 0.756226 0.683350
vt 0.868713 0.725037
vt 0.149780 0.246887
vt 0.138611 0.252075
vt 0.071167 0.260498
vt 0.151062 0.266724
vt 0.168091 0.270203
vt 0.175171 0.280762
vt 0.937500 0.770874
vt 0.913818 0.779480
vt 0.877930 0.793335
vt 0.956238 0.837524
vt 0.969543 0.612183
vt 0.966370 0.613770
vt 0.987915 0.616333
vt 0.985168 0.621033
vt 0.288025 0.479858
vt 0.254150 0.481201
vt 0.348206 0.477295
vt 0.344360 0.470825
vt 0.254150 0.408264
vt 0.073303 0.209412
vt 0.037598 0.216919
vt 0.039307 0.203186
vt 0.006653 0.213501
vt 0.006653 0.201416
vt 0.039307 0.203186
vt 0.412476 0.382629
vt 0.457764 0.408691
vt 0.479004 0.435486
vt 0.083191 0.299194
vt 0.006165 0.304993
vt 0.288757 0.360657
vt 0.323303 0.361938
vt 0.367859 0.372253
vt 0.254150 0.359436
vt 0.477600 0.436340
vt 0.467834 0.442627
vt 0.426819 0.452942
vt 0.363953 0.228210
vt 0.356812 0.256897
vt 0.451904 0.237488
vt 0.276733 0.256897
vt 0.276062 0.218872
vt 0.363953 0.228210
vt 0.362488 0.191895
vt 0.449585 0.202881
vt 0.164795 0.284241
vt 0.138550 0.252686
vt 0.119263 0.242920
vt 0.136780 0.231445
vt 0.114075 0.221375
vt 0.981628 0.611145
vt 0.960144 0.596008
vt 0.922668 0.633545
vt 0.872620 0.647461
vt 0.875977 0.662720
vt 0.878906 0.629395
vt 0.872620 0.608521
vt 0.960144 0.633545
vt 0.972656 0.627258
vt 0.868713 0.837524
vt 0.856201 0.837524
vt 0.862488 0.875000
vt 0.356812 0.256897
vt 0.277649 0.288391
vt 0.357117 0.288452
vt 0.357422 0.320007
vt 0.454590 0.328064
vt 0.454163 0.272156
vt 0.454407 0.300110
vt 0.357117 0.288452
vt 0.454590 0.328064
vt 0.357422 0.320007
vt 0.834106 0.546509
vt 0.833069 0.536987
vt 0.895325 0.552673
vt 0.487915 0.462036
vt 0.497925 0.465820
vt 0.483398 0.448120
vt 0.796936 0.513733
vt 0.795532 0.523926
vt 0.759094 0.520508
vt 0.832031 0.527405
vt 0.835144 0.518982
vt 0.891418 0.558533
vt 0.935120 0.587708
vt 0.895325 0.552673
vt 0.899231 0.546814
vt 0.834106 0.546509
vt 0.833069 0.536987
vt 0.079529 0.287292
vt 0.591431 0.862549
vt 0.329651 0.486694
vt 0.351562 0.495605
vt 0.799988 0.862549
vt 0.320679 0.495544
vt 0.337524 0.494995
vt 0.474609 0.453735
vt 0.477539 0.459412
vt 0.889221 0.658569
vt 0.924194 0.636658
vt 0.895813 0.656494
vt 0.758789 0.496033
vt 0.954224 0.552673
vt 0.929504 0.532227
vt 0.966370 0.575195
vt 0.326233 0.352539
vt 0.291870 0.339844
vt 0.451904 0.237488
vt 0.454163 0.272156
vt 0.454407 0.300110
vt 0.938293 0.609070
vt 0.070312 0.221008
vt 0.102234 0.234192
vt 0.007019 0.262756
vt 0.037598 0.216919
vt 0.073303 0.209412
vt 0.150269 0.245178
vt 0.989929 0.612854
vt 0.990662 0.611633
vt 0.994080 0.602295
vt 0.947632 0.591858
vt 0.993225 0.591431
vt 0.506226 0.932434
vt 0.581909 0.937988
vt 0.135315 0.231995
vt 0.115234 0.221497
vt 0.036987 0.216797
vt 0.989258 0.614014
vt 0.989929 0.612854
vt 0.812500 0.758362
vt 0.716980 0.710449
vt 0.799988 0.762512
vt 0.795532 0.523926
vt 0.458496 0.412048
vt 0.163147 0.262146
vt 0.981201 0.837524
vt 0.070557 0.208313
vt 0.924194 0.563354
vt 0.449585 0.202881
vt 0.362488 0.191895
vt 0.275391 0.180908
vt 0.007019 0.213379
vt 0.278564 0.319885
vt 0.844543 0.593933
vt 0.414917 0.389587
vt 0.439636 0.370789
vt 0.924194 0.563354
vt 0.992126 0.589722
vt 0.481018 0.402954
vt 0.993225 0.591431
vt 0.978882 0.573120
vt 0.992798 0.588928
vt 0.865051 0.662964
vt 0.847412 0.663269
vt 0.649292 0.954956
vt 0.649292 0.954956
vt 0.990662 0.611633
vt 0.799988 0.862549
vt 0.868713 0.725037
vt 0.593750 0.820862
vt 0.756226 0.683350
vt 0.506226 0.816711
vt 0.989258 0.614014
vt 0.862488 0.875000
vt 0.718079 0.971802
vt 0.718079 0.971802
vt 0.992126 0.589722
vn 0.9658 0.2285 0.1224
vn 0.3171 0.1103 -0.9420
vn 0.3842 0.2043 -0.9003
vn 0.9528 -0.0722 -0.2947
vn 0.8405 -0.0608 0.5384
vn 0.8242 0.0057 0.5663
vn 0.9791 0.1163 0.1670
vn 0.9218 0.2740 0.2744
vn 0.9449 0.3190 -0.0724
vn 0.8090 0.5714 0.1376
vn 0.6925 0.7050 -0.1529
vn 0.7625 0.6127 0.2075
vn 0.6718 0.7286 0.1337
vn 0.6415 0.6634 -0.3851
vn 0.4175 0.8822 0.2178
vn 0.4213 0.8726 -0.2470
vn 0.1795 0.9700 -0.1639
vn 0.1281 0.7113 -0.6910
vn -0.1037 0.9836 -0.1473
vn -0.0363 0.7695 -0.6376
vn -0.3957 0.8881 -0.2338
vn -0.2947 0.7700 -0.5658
vn -0.7856 0.6187 0.0045
vn -0.6331 0.5824 -0.5098
vn -0.9512 0.2264 -0.2096
vn -0.8650 0.1682 -0.4726
vn -0.8885 -0.2055 -0.4102
vn -0.9637 -0.2577 -0.0691
vn -0.9215 -0.3806 -0.0768
vn -0.9797 -0.2004 0.0000
vn -0.9775 -0.2107 0.0000
vn -0.9215 -0.3806 0.0768
vn 0.9995 0.0281 -0.0083
vn 0.2875 0.7457 0.6010
vn 0.4747 0.8801 -0.0074
vn 0.2548 0.0698 0.9644
vn 0.6326 -0.7734 0.0396
vn 0.4208 -0.6469 0.6359
vn 0.7819 -0.6072 -0.1414
vn 0.5041 -0.7003 0.5054
vn 0.8273 -0.5581 -0.0641
vn 0.4660 -0.7130 0.5239
vn 0.7724 -0.6333 0.0480
vn 0.3017 -0.7966 0.5238
vn 0.3176 -0.9138 0.2529
vn 0.0221 -0.8677 0.4965
vn -0.3412 -0.9399 0.0000
vn -0.0161 -0.9998 0.0000
vn 0.0221 -0.8677 -0.4965
vn 0.3890 -0.4641 -0.7957
vn 0.2548 0.0698 -0.9644
vn 0.6600 0.0847 -0.7465
vn 0.3031 0.6467 -0.6999
vn 0.9970 0.0765 0.0000
vn 0.5150 0.8572 0.0000
vn 0.3031 0.6467 0.6999
vn -0.1959 0.7921 0.5780
vn 0.0538 0.2368 0.9701
vn 0.2522 0.2629 0.9313
vn 0.2527 -0.0040 0.9675
vn 0.2347 0.3838 0.8931
vn 0.0908 0.3813 0.9200
vn 0.3426 0.5004 0.7951
vn 0.2382 0.5206 0.8199
vn 0.4176 0.7235 0.5497
vn 0.4008 0.7248 0.5603
vn 0.4981 0.8294 0.2529
vn 0.9272 0.2960 0.2295
vn 0.9500 0.3123 0.0000
vn 0.9989 -0.0460 0.0000
vn 0.9272 0.2960 -0.2295
vn 0.9834 -0.0127 -0.1808
vn 0.8498 0.2112 -0.4830
vn 0.9213 -0.0028 -0.3888
vn 0.7284 0.0833 -0.6801
vn 0.8212 -0.1083 -0.5602
vn 0.6053 0.0439 -0.7947
vn 0.7384 -0.0720 -0.6705
vn 0.5189 -0.0954 -0.8495
vn 0.6976 -0.2487 -0.6719
vn 0.4723 -0.1797 -0.8629
vn 0.8200 0.5723 0.0000
vn 0.5355 0.8002 0.2698
vn 0.5355 0.8445 0.0000
vn 0.8032 0.5442 0.2423
vn 0.6841 0.6894 0.2380
vn 0.7567 0.4194 0.5014
vn 0.6232 0.5817 0.5228
vn 0.6720 0.2469 0.6981
vn 0.4624 0.4494 0.7644
vn 0.5004 0.2642 0.8245
vn 0.6415 0.6634 0.3851
vn 0.8144 0.4310 0.3885
vn 0.7625 0.6127 -0.2075
vn 0.8874 0.3880 -0.2488
vn 0.8090 0.5714 -0.1376
vn 0.9213 0.2768 -0.2730
vn 0.9449 0.3190 0.0724
vn 0.9808 0.1140 -0.1583
vn 0.9840 0.1043 0.1440
vn 0.9900 -0.0983 -0.1011
vn 0.9828 -0.0934 0.1589
vn 0.9744 -0.2138 -0.0691
vn 0.9685 -0.1902 0.1603
vn 0.9840 0.1043 -0.1440
vn 0.8108 0.4198 -0.4077
vn 0.8546 0.1520 -0.4965
vn 0.5651 0.5316 -0.6309
vn 0.5814 0.1955 -0.7897
vn 0.2739 0.5756 -0.7704
vn 0.2494 0.1838 -0.9508
vn 0.0099 0.1604 -0.9870
vn -0.0232 -0.1430 -0.9894
vn -0.3356 0.1489 -0.9301
vn -0.3586 -0.1617 -0.9194
vn -0.7380 -0.1560 -0.6565
vn -0.6992 -0.3175 -0.6405
vn -0.9471 -0.1331 -0.2918
vn -0.9113 -0.3153 -0.2646
vn -0.9792 -0.1540 0.1315
vn -0.9461 -0.3017 0.1177
vn -0.9653 -0.1835 -0.1854
vn -0.9644 -0.2259 -0.1377
vn -0.8877 -0.3065 -0.3435
vn -0.9855 0.1482 0.0822
vn -0.9521 0.1283 -0.2775
vn -0.7206 0.1143 -0.6839
vn -0.3313 0.5237 -0.7848
vn 0.0190 0.5529 -0.8330
vn 0.0009 0.9108 -0.4128
vn 0.2421 0.8862 -0.3949
vn 0.2046 0.9775 -0.0517
vn 0.4793 0.8160 -0.3231
vn 0.4687 0.8833 0.0050
vn 0.7151 -0.6923 -0.0963
vn -0.0403 -0.9678 0.2484
vn -0.0976 -0.8927 0.4398
vn 0.7591 -0.6510 0.0000
vn 0.9996 -0.0261 0.0000
vn 0.7151 -0.6923 0.0963
vn 0.9626 -0.0787 0.2592
vn 0.5563 -0.8255 0.0955
vn 0.8416 -0.1820 0.5085
vn 0.6881 -0.1938 0.6992
vn 0.4426 0.5393 0.7164
vn 0.5776 -0.2532 0.7760
vn 0.3271 0.5478 0.7699
vn 0.3872 -0.2721 0.8809
vn 0.6937 0.2084 0.6894
vn 0.0544 -0.2625 0.9634
vn 0.5900 -0.0849 0.8029
vn -0.4935 0.0001 0.8697
vn -0.2114 0.1267 0.9691
vn -0.6803 0.1798 0.7105
vn -0.6064 0.3262 0.7252
vn 0.2655 -0.0495 0.9628
vn 0.3941 0.2269 0.8906
vn 0.3025 0.2401 0.9224
vn 0.5782 -0.0116 0.8158
vn 0.3907 -0.1814 0.9025
vn 0.7362 -0.0825 0.6717
vn 0.6524 -0.2868 0.7014
vn 0.9037 -0.1400 0.4047
vn 0.7867 -0.4252 0.4475
vn 0.9641 -0.1595 0.2123
vn 0.8233 -0.5098 0.2492
vn 0.8476 -0.5306 0.0000
vn 0.2133 -0.9770 0.0000
vn 0.8233 -0.5098 -0.2492
vn 0.2278 -0.9462 -0.2297
vn 0.7867 -0.4252 -0.4475
vn 0.1442 -0.8849 -0.4427
vn 0.1252 -0.6875 -0.7153
vn 0.0964 -0.8617 -0.4982
vn 0.4809 -0.5149 -0.7096
vn 0.6718 0.7286 -0.1337
vn 0.4175 0.8822 -0.2178
vn 0.4213 0.8726 0.2470
vn 0.1795 0.9700 0.1639
vn 0.1281 0.7113 0.6910
vn -0.1285 0.9823 0.1362
vn -0.0436 0.7644 0.6432
vn -0.3178 0.9065 0.2779
vn -0.2688 0.7505 0.6037
vn -0.7768 0.6296 -0.0101
vn -0.6331 0.5824 0.5098
vn -0.9512 0.2264 0.2096
vn -0.8650 0.1682 0.4726
vn -0.8885 -0.2055 0.4102
vn -0.9637 -0.2577 0.0691
vn 0.4687 0.8833 -0.0050
vn 0.2046 0.9775 0.0517
vn 0.1792 0.9527 -0.2455
vn -0.0711 0.9962 0.0509
vn -0.1157 0.9583 -0.2611
vn -0.3859 0.9178 0.0931
vn -0.4305 0.8634 -0.2629
vn -0.6990 0.6120 -0.3700
vn -0.8933 0.4267 -0.1410
vn -0.9855 0.1482 -0.0822
vn -0.9792 -0.1540 -0.1315
vn -0.9471 -0.1331 0.2918
vn -0.9113 -0.3153 0.2646
vn -0.6992 -0.3175 0.6405
vn 0.9352 -0.1352 0.3273
vn 0.9900 -0.0983 0.1011
vn 0.9744 -0.2138 0.0691
vn 0.9828 -0.0934 -0.1589
vn 0.9685 -0.1902 -0.1603
vn 0.8549 -0.1106 -0.5068
vn 0.8347 -0.2195 -0.5049
vn 0.5841 -0.0928 -0.8063
vn 0.5768 -0.2227 -0.7859
vn 0.2395 -0.0996 -0.9657
vn 0.2103 -0.2671 -0.9404
vn -0.0671 -0.3383 -0.9386
vn -0.3617 -0.3614 -0.8594
vn 0.2365 -0.5834 -0.7770
vn 0.6128 -0.5600 -0.5576
vn 0.3643 -0.1625 -0.9170
vn 0.4615 -0.7866 -0.4100
vn 0.0562 -0.6656 -0.7442
vn 0.3212 -0.8669 -0.3811
vn 0.0580 -0.9946 -0.0862
vn 0.3289 -0.9128 0.2421
vn -0.1783 -0.9604 0.2141
vn 0.1025 -0.9798 0.1718
vn -0.0940 -0.9895 0.1093
vn 0.2968 -0.9342 -0.1978
vn 0.0447 -0.9630 -0.2658
vn 0.4361 -0.7646 -0.4745
vn 0.1390 -0.7867 -0.6015
vn 0.1776 -0.6495 -0.7393
vn -0.0682 -0.6200 -0.7816
vn 0.2806 0.5955 -0.7527
vn 0.4624 0.4494 -0.7644
vn 0.3311 0.7790 -0.5325
vn 0.1109 0.8652 -0.4889
vn 0.1083 0.9752 -0.1931
vn -0.1364 0.9717 -0.1928
vn -0.1444 0.9895 0.0000
vn -0.4498 0.8814 -0.1443
vn -0.4808 0.8768 0.0000
vn -0.8468 0.5319 0.0000
vn -0.4498 0.8814 0.1443
vn -0.7929 0.5618 0.2358
vn -0.4003 0.8541 0.3320
vn -0.1927 -0.9812 0.0000
vn -0.1269 -0.9919 0.0000
vn -0.2074 -0.9521 0.2249
vn -0.2074 -0.9521 -0.2249
vn -0.1840 -0.9191 -0.3484
vn -0.1164 -0.8676 -0.4834
vn 0.2760 -0.7519 -0.5987
vn 0.4756 -0.4832 -0.7350
vn 0.7295 0.0229 -0.6836
vn 0.6561 0.1647 -0.7365
vn 0.3381 -0.1197 -0.9334
vn 0.6432 0.0454 -0.7644
vn -0.9903 0.0805 -0.1130
vn -0.7929 0.5618 -0.2358
vn -0.4003 0.8541 -0.3320
vn -0.1027 0.8989 -0.4258
vn 0.5563 -0.8255 -0.0955
vn -0.2212 -0.7969 0.5622
vn 0.9626 -0.0787 -0.2592
vn 0.7338 0.6793 0.0000
vn 0.6891 0.6594 0.3005
vn 0.5680 0.5909 0.5728
vn 0.2205 0.8706 0.4398
vn 0.0909 0.8561 0.5087
vn 0.0562 -0.6656 0.7442
vn 0.3212 -0.8669 0.3811
vn 0.0580 -0.9946 0.0862
vn 0.4615 -0.7866 0.4100
vn 0.2365 -0.5834 0.7770
vn 0.6128 -0.5600 0.5576
vn 0.3643 -0.1625 0.9170
vn 0.7997 -0.3220 0.5066
vn 0.9314 -0.3239 0.1660
vn 0.8706 -0.3886 -0.3016
vn 0.8410 0.3123 0.4417
vn 0.7880 0.0496 0.6136
vn 0.6295 0.0487 0.7754
vn 0.2997 -0.9386 0.1709
vn 0.4490 -0.8913 0.0631
vn -0.2212 -0.7969 -0.5622
vn -0.0976 -0.8927 -0.4398
vn -0.0403 -0.9678 -0.2484
vn -0.3283 -0.9445 0.0000
vn -0.6763 -0.5801 0.4539
vn 0.6232 0.5817 -0.5228
vn 0.3717 0.9015 -0.2215
vn 0.1054 0.9944 0.0000
vn 0.1083 0.9752 0.1931
vn -0.1364 0.9717 0.1928
vn 0.1109 0.8652 0.4889
vn -0.1027 0.8989 0.4258
vn 0.1792 0.9527 0.2455
vn -0.0711 0.9962 -0.0509
vn -0.1157 0.9583 0.2611
vn -0.3859 0.9178 -0.0931
vn -0.4287 0.8701 0.2433
vn -0.6990 0.6120 0.3700
vn -0.8933 0.4267 0.1410
vn 0.8144 0.4310 -0.3885
vn 0.5004 0.2642 -0.8245
vn 0.6720 0.2469 -0.6981
vn 0.7567 0.4194 -0.5014
vn 0.6841 0.6894 -0.2380
vn 0.8032 0.5442 -0.2423
vn 0.5355 0.8002 -0.2698
vn 0.6777 -0.6760 0.2892
vn 0.4949 -0.8686 0.0243
vn 0.5999 -0.7867 -0.1454
vn 0.2968 -0.9342 0.1978
vn 0.4361 -0.7646 0.4745
vn 0.0447 -0.9630 0.2658
vn 0.1390 -0.7867 0.6015
vn -0.1631 -0.9546 0.2491
vn -0.1001 -0.7846 0.6119
vn -0.4765 -0.8567 0.1974
vn -0.3892 -0.7356 0.5543
vn -0.6099 -0.6528 0.4493
vn -0.3117 -0.5703 0.7600
vn -0.3831 0.7861 0.4850
vn -0.5750 0.7229 0.3831
vn 0.0009 0.9108 0.4128
vn 0.2421 0.8862 0.3949
vn 0.4793 0.8160 0.3231
vn 0.5651 0.5316 0.6309
vn 0.6925 0.7050 0.1529
vn 0.8108 0.4198 0.4077
vn -0.0232 -0.1430 0.9894
vn -0.3356 0.1489 0.9301
vn -0.3586 -0.1617 0.9194
vn 0.0099 0.1604 0.9870
vn 0.2494 0.1838 0.9508
vn 0.2739 0.5756 0.7704
vn 0.5814 0.1955 0.7897
vn 0.8546 0.1520 0.4965
vn -0.0671 -0.3383 0.9386
vn -0.3617 -0.3614 0.8594
vn 0.2103 -0.2671 0.9404
vn 0.2395 -0.0996 0.9657
vn 0.5768 -0.2227 0.7859
vn 0.5841 -0.0928 0.8063
vn 0.8347 -0.2195 0.5049
vn 0.8549 -0.1106 0.5068
vn -0.3725 -0.8751 -0.3089
vn -0.4726 -0.8766 -0.0903
vn -0.8014 -0.4201 0.4257
vn -0.2398 -0.9566 -0.1654
vn -0.3207 -0.8553 -0.4068
vn -0.1783 -0.9604 -0.2141
vn -0.0818 -0.9904 0.1114
vn -0.1840 -0.9191 0.3484
vn -0.1164 -0.8676 0.4834
vn 0.2760 -0.7519 0.5987
vn -0.1531 -0.7668 -0.6233
vn -0.4230 -0.4821 -0.7672
vn 0.0544 -0.2625 -0.9634
vn -0.3700 -0.9247 -0.0888
vn 0.0917 -0.9673 -0.2364
vn 0.2997 -0.9386 -0.1709
vn 0.3872 -0.2721 -0.8809
vn 0.5776 -0.2532 -0.7760
vn 0.3271 0.5478 -0.7699
vn 0.4426 0.5393 -0.7164
vn 0.0909 0.8561 -0.5087
vn 0.2205 0.8706 -0.4398
vn -0.6314 0.7606 0.1509
vn -0.6344 0.4731 0.6112
vn -0.3313 0.5237 0.7848
vn -0.7206 0.1143 0.6839
vn -0.7380 -0.1560 0.6565
vn -0.1718 -0.8598 0.4808
vn 0.4490 -0.8913 -0.0631
vn 0.6881 -0.1938 -0.6992
vn 0.8416 -0.1820 -0.5085
vn 0.5680 0.5909 -0.5728
vn 0.2881 0.9245 -0.2496
vn -0.2352 -0.9583 0.1625
vn -0.1631 -0.9546 -0.2491
vn -0.1001 -0.7846 -0.6119
vn -0.3892 -0.7356 -0.5543
vn -0.3117 -0.5703 -0.7600
vn -0.6099 -0.6528 -0.4493
vn 0.7009 0.7132 0.0000
vn 0.3717 0.9015 0.2215
vn 0.3311 0.7790 0.5325
vn 0.2806 0.5955 0.7527
vn 0.9314 -0.3239 -0.1660
vn 0.7997 -0.3220 -0.5066
vn 0.8640 -0.4927 0.1038
vn 0.5999 -0.7867 0.1454
vn 0.8231 -0.5672 -0.0290
vn 0.6777 -0.6760 -0.2892
vn 0.7696 -0.5317 -0.3536
vn 0.5029 -0.6367 -0.5846
vn 0.3289 -0.9128 -0.2421
vn 0.1025 -0.9798 -0.1718
vn -0.0940 -0.9895 -0.1093
vn -0.3831 0.7861 -0.4850
vn -0.5750 0.7229 -0.3831
vn -0.6344 0.4731 -0.6112
vn -0.6314 0.7606 -0.1509
vn -0.8504 0.4569 -0.2608
vn 0.5315 0.8442 0.0692
vn 0.2592 0.7254 0.6377
vn 0.3177 0.8597 0.3999
vn -0.3276 0.9448 0.0000
vn 0.4307 0.8626 0.2651
vn 0.2545 0.9269 0.2757
vn 0.6952 0.7168 -0.0537
vn 0.6424 0.7659 -0.0263
vn 0.9621 -0.2406 0.1281
vn 0.8513 -0.5245 0.0086
vn 0.6527 -0.5712 0.4976
vn 0.9682 -0.1738 -0.1798
vn 0.6937 0.2084 -0.6894
vn 0.5900 -0.0849 -0.8029
vn -0.4935 0.0001 -0.8697
vn -0.6803 0.1798 -0.7105
vn -0.4230 -0.4821 0.7672
vn -0.1531 -0.7668 0.6233
vn 0.0917 -0.9673 0.2364
vn -0.3700 -0.9247 0.0888
vn -0.1718 -0.8598 -0.4808
vn 0.9037 -0.1400 -0.4047
vn 0.9641 -0.1595 -0.2123
vn 0.6524 -0.2868 -0.7014
vn 0.3907 -0.1814 -0.9025
vn 0.0206 -0.4571 -0.8891
vn -0.0564 -0.3941 -0.9173
vn 0.0138 -0.2123 -0.9771
vn 0.8325 0.0334 -0.5529
vn 0.8487 0.1792 -0.4975
vn 0.8983 0.3069 0.3144
vn 0.9228 0.2009 0.3286
vn 0.6243 0.1508 0.7664
vn 0.4955 -0.2020 0.8448
vn 0.2365 0.0504 0.9703
vn 0.5189 -0.0954 0.8495
vn 0.6053 0.0439 0.7947
vn 0.7284 0.0833 0.6801
vn 0.8212 -0.1083 0.5602
vn 0.9213 -0.0028 0.3888
vn 0.3057 0.9376 -0.1657
vn 0.6424 0.7659 0.0263
vn 0.6314 0.7754 0.0000
vn 0.2545 0.9269 -0.2757
vn 0.4307 0.8626 -0.2651
vn 0.3177 0.8597 -0.3999
vn 0.7132 0.6987 0.0551
vn 0.6775 0.7353 -0.0154
vn -0.8196 -0.5554 0.1401
vn -0.7880 -0.6138 0.0469
vn -0.8360 -0.4626 0.2952
vn -0.7107 -0.7019 -0.0475
vn -0.6878 -0.7077 0.1618
vn -0.5121 0.5410 0.6671
vn -0.0985 0.3767 0.9211
vn 0.6417 -0.0617 0.7644
vn 0.0136 0.5616 0.8273
vn 0.6827 -0.0896 0.7252
vn 0.4009 0.4164 0.8160
vn 0.8287 -0.5447 0.1281
vn 0.3381 -0.1197 0.9334
vn 0.0310 -0.2142 0.9763
vn -0.0564 -0.3941 0.9173
vn 0.0206 -0.4571 0.8891
vn 0.1252 -0.6875 0.7153
vn 0.8874 0.3880 0.2488
vn 0.9227 0.2016 -0.3287
vn 0.6243 0.1508 -0.7664
vn 0.3426 0.5004 -0.7951
vn 0.4176 0.7235 -0.5497
vn 0.6373 -0.7105 0.2984
vn 0.8287 -0.5447 -0.1281
vn 0.6827 -0.0896 -0.7252
vn 0.4009 0.4164 -0.8160
vn 0.0136 0.5616 -0.8273
vn -0.3263 0.8283 -0.4554
vn -0.3633 0.7439 -0.5609
vn 0.5315 0.8442 -0.0692
vn 0.2592 0.7254 -0.6377
vn -0.1959 0.7921 -0.5780
vn 0.2875 0.7457 -0.6010
vn 0.9995 0.0281 0.0083
vn 0.6326 -0.7734 -0.0396
vn -0.5121 0.5410 -0.6671
vn -0.0985 0.3767 -0.9211
vn 0.6417 -0.0617 -0.7644
vn -0.2114 0.1267 -0.9691
vn 0.8640 -0.4927 -0.1038
vn 0.8231 -0.5672 0.0290
vn 0.7696 -0.5317 0.3536
vn 0.5029 -0.6367 0.5846
vn -0.9903 0.0805 0.1130
vn -0.9991 0.0414 0.0000
vn -0.9521 0.1283 0.2775
vn -0.8504 0.4569 0.2608
vn 0.3810 0.9246 0.0000
vn 0.7289 -0.6845 0.0123
vn 0.2805 -0.9527 0.1172
vn 0.7145 -0.6994 -0.0165
vn 0.2615 -0.9652 0.0000
vn 0.6984 -0.7157 0.0000
vn 0.7145 -0.6994 0.0165
vn 0.0908 0.3813 -0.9200
vn 0.0601 0.2406 -0.9687
vn 0.2376 0.0035 -0.9713
vn 0.3890 -0.4641 0.7957
vn 0.7329 -0.6803 0.0000
vn 0.4981 0.8294 -0.2529
vn 0.4008 0.7248 -0.5603
vn 0.2382 0.5206 -0.8199
vn 0.4980 0.8672 0.0000
vn 0.9026 0.3102 -0.2983
vn 0.8632 0.1734 0.4741
vn 0.0190 0.5529 0.8330
vn 0.8247 -0.5362 -0.1795
vn 0.5763 -0.7936 -0.1952
vn 0.8252 -0.5309 -0.1928
vn 0.5822 -0.8130 0.0000
vn 0.8252 -0.5648 0.0000
vn 0.8247 -0.5362 0.1795
vn 0.8817 -0.4323 0.1887
vn 0.9337 -0.2825 0.2198
vn 0.4208 -0.6469 -0.6359
vn 0.5041 -0.7003 -0.5054
vn 0.4660 -0.7130 -0.5239
vn 0.8273 -0.5581 0.0641
vn 0.7724 -0.6333 -0.0480
vn 0.8706 -0.3887 0.3015
vn 0.8487 0.3038 -0.4328
vn -0.4710 -0.8803 0.0566
vn -0.7740 -0.2241 -0.5922
vn -0.8676 -0.3348 -0.3676
vn -0.3901 -0.8900 0.2358
vn -0.3154 -0.8574 0.4066
vn -0.0682 -0.6200 0.7816
vn 0.1776 -0.6495 0.7393
vn 0.9682 -0.1738 0.1798
vn 0.9621 -0.2406 -0.1281
vn 0.7110 0.7028 0.0237
vn 0.5763 -0.7936 0.1952
vn 0.4056 -0.9140 0.0000
vn 0.3992 -0.8932 0.2067
vn 0.3726 -0.9019 0.2185
vn 0.3273 -0.9060 0.2682
vn 0.5558 -0.7979 -0.2332
vn 0.3676 -0.8963 -0.2481
vn 0.3992 -0.8932 -0.2067
vn 0.3273 -0.9060 -0.2682
vn 0.3726 -0.9019 -0.2185
vn 0.5448 -0.6488 -0.5313
vn 0.8513 -0.3162 -0.4187
vn 0.8104 -0.1920 -0.5535
vn 0.9754 0.1383 -0.1716
vn 0.3546 0.1310 0.9258
vn 0.9486 -0.0917 0.3029
vn 0.2278 -0.9462 0.2297
vn -0.1652 -0.9555 0.2444
vn -0.2071 -0.9783 0.0000
vn 0.0964 -0.8617 0.4982
vn 0.1442 -0.8849 0.4427
vn 0.4756 -0.4832 0.7350
vn 0.7295 0.0229 0.6836
vn 0.8104 -0.1920 0.5535
vn 0.4809 -0.5149 0.7096
vn 0.5448 -0.6488 0.5313
vn 0.8513 -0.3162 0.4187
vn 0.6600 0.0847 0.7465
vn 0.6891 0.6594 -0.3005
vn -0.9653 -0.1835 0.1854
vn -0.9461 -0.3017 -0.1177
vn -0.0647 0.9230 -0.3793
vn -0.8877 -0.3065 0.3435
vn -0.9644 -0.2259 0.1377
vn 0.8394 -0.0512 -0.5411
vn 0.9330 -0.1347 -0.3338
vn -0.7107 -0.7019 0.0475
vn -0.4765 -0.8567 -0.1974
vn -0.6878 -0.7077 -0.1618
vn 0.9872 -0.1597 0.0000
vn 0.5782 -0.0116 -0.8158
vn 0.7362 -0.0825 -0.6717
vn 0.2655 -0.0495 -0.9628
vn 0.8498 0.2112 0.4830
vn 0.9834 -0.0127 0.1808
vn 0.8252 -0.5309 0.1928
vn 0.5558 -0.7979 0.2332
vn 0.3676 -0.8963 0.2481
vn 0.4949 -0.8686 -0.0243
vn 0.3176 -0.9138 -0.2529
vn 0.3017 -0.7966 -0.5238
vn -0.0491 0.9988 0.0000
vn 0.2805 -0.9527 -0.1172
vn 0.7289 -0.6845 -0.0123
vn 0.7819 -0.6072 0.1414
vn 0.9352 -0.3440 0.0840
vn 0.7022 -0.2506 0.6664
vn 0.8104 0.0494 -0.5838
vn 0.6561 0.1647 0.7365
vn 0.3602 -0.0020 -0.9329
vn -0.9169 -0.3991 0.0000
vn -0.6763 -0.5801 -0.4539
vn 0.6775 0.7353 0.0154
vn 0.7132 0.6987 -0.0551
vn 0.3057 0.9376 0.1657
vn 0.8873 -0.4592 0.0413
vn 0.9352 -0.3440 -0.0840
vn 0.8513 -0.5245 -0.0086
vn 0.6372 -0.7105 -0.2984
vn 0.6527 -0.5712 -0.4976
vn -0.1652 -0.9555 -0.2444
vn 0.2534 0.2696 -0.9290
vn 0.4747 0.8801 0.0074
vn -0.6064 0.3262 -0.7252
vn 0.6952 0.7168 0.0537
vn 0.4423 -0.2686 -0.8557
vn 0.9337 -0.2825 -0.2198
vn 0.8817 -0.4323 -0.1887
vn 0.8944 -0.4472 0.0000
vn 0.6361 0.7715 0.0000
vn 0.3857 -0.9226 0.0000
vn -0.0818 -0.9904 -0.1114
vn 0.2347 0.3838 -0.8931
vn 0.7384 -0.0720 0.6705
vn 0.4423 -0.2686 0.8557
vn 0.0780 -0.0303 0.9965
vn 0.6976 -0.2487 0.6719
vn 0.3605 -0.0020 0.9327
vn 0.3941 0.2269 -0.8906
vn 0.3025 0.2401 -0.9224
vn -0.8951 -0.4144 -0.1644
vn -0.8699 -0.4881 -0.0708
vn -0.4253 -0.5828 -0.6924
vn -0.4253 -0.5828 0.6924
vn 0.7143 -0.2519 -0.6529
vn -0.0647 0.9230 0.3793
vn -0.3633 0.7439 0.5609
vn 0.2881 0.9245 0.2496
vn -0.3263 0.8283 0.4554
vn 0.3757 0.9267 0.0000
vn 0.8873 -0.4592 -0.0413
vn 0.7110 0.7028 -0.0237
vn -0.4554 -0.4907 -0.7428
vn -0.4554 -0.4907 0.7428
vn 0.0780 -0.0303 -0.9965
usemtl m0
s 1
f 113/1/1 251/2/2 94/3/3
f 251/2/2 113/1/1 253/4/4
f 299/5/5 253/4/4 113/1/1
f 253/4/4 299/5/5 262/6/6
f 540/7/7 262/6/6 299/5/5
f 262/6/6 540/7/7 542/8/8
f 462/9/9 542/8/8 540/7/7
f 542/8/8 462/9/9 459/10/10
f 407/11/11 459/10/10 462/9/9
f 459/10/10 407/11/11 506/12/12
f 409/13/13 506/12/12 407/11/11
f 506/12/12 409/13/13 411/14/14
f 519/15/15 411/14/14 409/13/13
f 411/14/14 519/15/15 323/16/16
f 375/17/17 323/16/16 519/15/15
f 323/16/16 375/17/17 453/18/18
f 326/19/19 453/18/18 375/17/17
f 453/18/18 326/19/19 455/20/20
f 328/21/21 455/20/20 326/19/19
f 455/20/20 328/21/21 457/22/22
f 134/23/23 457/22/22 328/21/21
f 457/22/22 134/23/23 487/24/24
f 131/25/25 487/24/24 134/23/23
f 487/24/24 131/25/25 489/26/26
f 491/27/27 489/26/26 131/25/25
f 489/26/26 491/27/27 317/28/28
f 647/29/29 317/28/28 491/27/27
f 317/28/28 647/29/29 393/30/30
f 1/31/31 393/30/30 647/29/29
f 393/30/30 1/31/31 100/32/32
f 250/33/33 124/34/34 93/35/35
f 124/34/34 250/33/33 248/36/36
f 116/37/37 248/36/36 250/33/33
f 248/36/36 116/37/37 120/38/38
f 170/39/39 120/38/38 116/37/37
f 120/38/38 170/39/39 159/40/40
f 165/41/41 159/40/40 170/39/39
f 159/40/40 165/41/41 162/42/42
f 240/43/43 162/42/42 165/41/41
f 162/42/42 240/43/43 237/44/44
f 219/45/45 237/44/44 240/43/43
f 237/44/44 219/45/45 144/46/46
f 52/47/47 144/46/46 219/45/45
f 144/46/46 52/47/47 44/48/48
f 243/49/49 44/48/48 52/47/47
f 44/48/48 243/49/49 119/50/50
f 322/51/51 119/50/50 243/49/49
f 119/50/50 322/51/51 309/52/52
f 300/53/53 309/52/52 322/51/51
f 309/52/52 300/53/53 307/54/54
f 298/55/55 307/54/54 300/53/53
f 307/54/54 298/55/55 228/56/56
f 5/57/57 228/56/56 298/55/55
f 228/56/56 5/57/57 248/36/36
f 124/34/34 248/36/36 5/57/57
f 249/58/58 567/59/59 320/60/60
f 567/59/59 249/58/58 526/61/61
f 245/62/62 526/61/61 249/58/58
f 526/61/61 245/62/62 528/63/63
f 318/64/64 528/63/63 245/62/62
f 528/63/63 318/64/64 283/65/65
f 285/66/66 283/65/65 318/64/64
f 283/65/65 285/66/66 352/67/67
f 350/68/68 352/67/67 285/66/66
f 352/67/67 350/68/68 292/69/69
f 56/70/70 292/69/69 350/68/68
f 292/69/69 56/70/70 278/71/71
f 276/72/72 278/71/71 56/70/70
f 278/71/71 276/72/72 223/73/73
f 215/74/74 223/73/73 276/72/72
f 223/73/73 215/74/74 242/75/75
f 239/76/76 242/75/75 215/74/74
f 242/75/75 239/76/76 226/77/77
f 166/78/78 226/77/77 239/76/76
f 226/77/77 166/78/78 151/79/79
f 171/80/80 151/79/79 166/78/78
f 151/79/79 171/80/80 117/81/81
f 63/82/82 512/83/83 66/84/84
f 512/83/83 63/82/82 514/85/85
f 516/86/86 514/85/85 63/82/82
f 514/85/85 516/86/86 281/87/87
f 492/88/88 281/87/87 516/86/86
f 281/87/87 492/88/88 530/89/89
f 532/90/90 530/89/89 492/88/88
f 530/89/89 532/90/90 630/91/91
f 490/92/92 630/91/91 532/90/90
f 630/91/91 490/92/92 628/93/93
f 589/94/94 628/93/93 490/92/92
f 628/93/93 589/94/94 626/95/95
f 543/96/96 626/95/95 589/94/94
f 626/95/95 543/96/96 624/97/97
f 545/98/98 624/97/97 543/96/96
f 624/97/97 545/98/98 622/99/99
f 547/100/100 622/99/99 545/98/98
f 622/99/99 547/100/100 620/101/101
f 549/102/102 620/101/101 547/100/100
f 620/101/101 549/102/102 617/103/103
f 551/104/104 617/103/103 549/102/102
f 464/105/105 462/9/9 540/7/7
f 462/9/9 464/105/105 405/106/106
f 403/107/107 405/106/106 464/105/105
f 405/106/106 403/107/107 333/108/108
f 255/109/109 333/108/108 403/107/107
f 333/108/108 255/109/109 369/110/110
f 367/111/111 369/110/110 255/109/109
f 369/110/110 367/111/111 127/112/112
f 304/113/113 127/112/112 367/111/111
f 127/112/112 304/113/113 190/114/114
f 306/115/115 190/114/114 304/113/113
f 190/114/114 306/115/115 351/116/116
f 354/117/117 351/116/116 306/115/115
f 351/116/116 354/117/117 499/118/118
f 497/119/119 499/118/118 354/117/117
f 499/118/118 497/119/119 386/120/120
f 383/121/121 386/120/120 497/119/119
f 386/120/120 383/121/121 308/122/122
f 60/123/123 308/122/122 383/121/121
f 308/122/122 60/123/123 494/124/124
f 491/27/27 494/124/124 647/29/29
f 494/124/124 491/27/27 308/122/122
f 131/25/25 308/122/122 491/27/27
f 308/122/122 131/25/25 386/120/120
f 388/125/125 386/120/120 131/25/25
f 386/120/120 388/125/125 499/118/118
f 502/126/126 499/118/118 388/125/125
f 499/118/118 502/126/126 351/116/116
f 349/127/127 351/116/116 502/126/126
f 351/116/116 349/127/127 190/114/114
f 337/128/128 190/114/114 349/127/127
f 190/114/114 337/128/128 335/129/129
f 193/130/130 335/129/129 337/128/128
f 335/129/129 193/130/130 371/131/131
f 373/132/132 371/131/131 193/130/130
f 371/131/131 373/132/132 174/133/133
f 321/134/134 174/133/133 373/132/132
f 174/133/133 321/134/134 409/13/13
f 519/15/15 409/13/13 321/134/134
f 6/135/135 22/136/136 25/137/137
f 22/136/136 6/135/135 3/138/138
f 557/139/139 3/138/138 6/135/135
f 3/138/138 557/139/139 191/140/140
f 98/141/141 191/140/140 557/139/139
f 191/140/140 98/141/141 95/142/142
f 88/143/143 95/142/142 98/141/141
f 95/142/142 88/143/143 198/144/144
f 188/145/145 198/144/144 88/143/143
f 198/144/144 188/145/145 172/146/146
f 184/147/147 172/146/146 188/145/145
f 172/146/146 184/147/147 167/148/148
f 152/149/149 167/148/148 184/147/147
f 167/148/148 152/149/149 145/150/150
f 138/151/151 145/150/150 152/149/149
f 145/150/150 138/151/151 141/152/152
f 132/153/153 141/152/152 138/151/151
f 141/152/152 132/153/153 181/154/154
f 125/155/155 181/154/154 132/153/153
f 107/156/156 195/157/157 201/158/158
f 195/157/157 107/156/156 302/159/159
f 305/160/160 302/159/159 107/156/156
f 302/159/159 305/160/160 212/161/161
f 206/162/162 212/161/161 305/160/160
f 212/161/161 206/162/162 217/163/163
f 139/164/164 217/163/163 206/162/162
f 217/163/163 139/164/164 342/165/165
f 340/166/166 342/165/165 139/164/164
f 342/165/165 340/166/166 23/167/167
f 15/168/168 23/167/167 340/166/166
f 23/167/167 15/168/168 268/169/169
f 266/170/170 268/169/169 15/168/168
f 268/169/169 266/170/170 31/171/171
f 28/172/172 31/171/171 266/170/170
f 31/171/171 28/172/172 101/173/173
f 34/174/174 101/173/173 28/172/172
f 101/173/173 34/174/174 53/175/175
f 490/92/92 488/176/176 589/94/94
f 488/176/176 490/92/92 601/177/177
f 400/178/178 601/177/177 490/92/92
f 601/177/177 400/178/178 450/179/179
f 537/180/180 450/179/179 400/178/178
f 450/179/179 537/180/180 402/181/181
f 539/182/182 402/181/181 537/180/180
f 402/181/181 539/182/182 404/183/183
f 541/184/184 404/183/183 539/182/182
f 404/183/183 541/184/184 236/185/185
f 571/186/186 236/185/185 541/184/184
f 236/185/185 571/186/186 234/187/187
f 573/188/188 234/187/187 571/186/186
f 234/187/187 573/188/188 575/189/189
f 391/190/190 575/189/189 573/188/188
f 575/189/189 391/190/190 100/32/32
f 393/30/30 100/32/32 391/190/190
f 601/177/177 397/191/191 488/176/176
f 397/191/191 601/177/177 448/192/192
f 599/193/193 448/192/192 601/177/177
f 448/192/192 599/193/193 279/194/194
f 597/195/195 279/194/194 599/193/193
f 279/194/194 597/195/195 241/196/196
f 595/197/197 241/196/196 597/195/195
f 241/196/196 595/197/197 467/198/198
f 236/185/185 467/198/198 595/197/197
f 467/198/198 236/185/185 611/199/199
f 234/187/187 611/199/199 236/185/185
f 611/199/199 234/187/187 465/200/200
f 463/201/201 465/200/200 234/187/187
f 465/200/200 463/201/201 583/202/202
f 581/203/203 583/202/202 463/201/201
f 583/202/202 581/203/203 429/204/204
f 259/205/205 299/5/5 113/1/1
f 299/5/5 259/205/205 538/206/206
f 535/207/207 538/206/206 259/205/205
f 538/206/206 535/207/207 466/208/208
f 468/209/209 466/208/208 535/207/207
f 466/208/208 468/209/209 401/210/210
f 399/211/211 401/210/210 468/209/209
f 401/210/210 399/211/211 301/212/212
f 21/213/213 301/212/212 399/211/211
f 301/212/212 21/213/213 365/214/214
f 362/215/215 365/214/214 21/213/213
f 365/214/214 362/215/215 304/113/113
f 12/216/216 304/113/113 362/215/215
f 304/113/113 12/216/216 306/115/115
f 77/217/217 306/115/115 12/216/216
f 306/115/115 77/217/217 354/117/117
f 475/218/218 64/219/219 425/220/220
f 64/219/219 475/218/218 550/221/221
f 649/222/222 550/221/221 475/218/218
f 550/221/221 649/222/222 392/223/223
f 339/224/224 392/223/223 649/222/222
f 392/223/223 339/224/224 73/225/225
f 377/226/226 73/225/225 339/224/224
f 73/225/225 377/226/226 555/227/227
f 356/228/228 555/227/227 377/226/226
f 555/227/227 356/228/228 295/229/229
f 358/230/230 295/229/229 356/228/228
f 295/229/229 358/230/230 16/231/231
f 360/232/232 16/231/231 358/230/230
f 16/231/231 360/232/232 363/233/233
f 13/234/234 363/233/233 360/232/232
f 451/235/235 449/236/236 411/14/14
f 449/236/236 451/235/235 180/237/237
f 379/238/238 180/237/237 451/235/235
f 180/237/237 379/238/238 436/239/239
f 439/240/240 436/239/239 379/238/238
f 436/239/239 439/240/240 72/241/241
f 441/242/242 72/241/241 439/240/240
f 72/241/241 441/242/242 69/243/243
f 40/244/244 69/243/243 441/242/242
f 69/243/243 40/244/244 524/245/245
f 387/246/246 524/245/245 40/244/244
f 524/245/245 387/246/246 389/247/247
f 571/186/186 389/247/247 387/246/246
f 389/247/247 571/186/186 541/184/184
f 4/248/248 8/249/249 154/250/250
f 8/249/249 4/248/248 46/251/251
f 187/252/252 46/251/251 4/248/248
f 46/251/251 187/252/252 50/253/253
f 649/222/222 50/253/253 187/252/252
f 50/253/253 649/222/222 479/254/254
f 475/218/218 479/254/254 649/222/222
f 479/254/254 475/218/218 57/255/255
f 425/220/220 57/255/255 475/218/218
f 57/255/255 425/220/220 67/256/256
f 523/257/257 67/256/256 425/220/220
f 67/256/256 523/257/257 83/258/258
f 531/259/259 83/258/258 523/257/257
f 310/260/260 317/28/28 393/30/30
f 317/28/28 310/260/260 489/26/26
f 312/261/261 489/26/26 310/260/260
f 489/26/26 312/261/261 487/24/24
f 315/262/262 487/24/24 312/261/261
f 487/24/24 315/262/262 457/22/22
f 183/263/263 457/22/22 315/262/262
f 457/22/22 183/263/263 455/20/20
f 379/238/238 455/20/20 183/263/263
f 455/20/20 379/238/238 453/18/18
f 451/235/235 453/18/18 379/238/238
f 453/18/18 451/235/235 323/16/16
f 411/14/14 323/16/16 451/235/235
f 598/264/264 25/137/137 29/265/265
f 25/137/137 598/264/264 6/135/135
f 600/266/266 6/135/135 598/264/264
f 6/135/135 600/266/266 557/139/139
f 562/267/267 557/139/139 600/266/266
f 557/139/139 562/267/267 98/141/141
f 178/268/268 98/141/141 562/267/267
f 98/141/141 178/268/268 88/143/143
f 175/269/269 88/143/143 178/268/268
f 88/143/143 175/269/269 188/145/145
f 118/270/270 188/145/145 175/269/269
f 188/145/145 118/270/270 74/271/271
f 103/272/272 470/273/273 414/274/274
f 470/273/273 103/272/272 632/275/275
f 558/276/276 632/275/275 103/272/272
f 632/275/275 558/276/276 173/277/277
f 510/278/278 173/277/277 558/276/276
f 173/277/277 510/278/278 133/279/279
f 634/280/280 133/279/279 510/278/278
f 133/279/279 634/280/280 603/281/281
f 179/282/282 603/281/281 634/280/280
f 603/281/281 179/282/282 221/283/283
f 613/284/284 221/283/283 179/282/282
f 163/285/285 172/146/146 167/148/148
f 172/146/146 163/285/285 194/286/286
f 211/287/287 194/286/286 163/285/285
f 194/286/286 211/287/287 95/142/142
f 208/288/288 95/142/142 211/287/287
f 95/142/142 208/288/288 191/140/140
f 205/289/289 191/140/140 208/288/288
f 191/140/140 205/289/289 3/138/138
f 17/290/290 3/138/138 205/289/289
f 3/138/138 17/290/290 22/136/136
f 32/291/291 22/136/136 17/290/290
f 180/237/237 413/292/292 449/236/236
f 413/292/292 180/237/237 434/293/293
f 436/239/239 434/293/293 180/237/237
f 434/293/293 436/239/239 456/294/294
f 72/241/241 456/294/294 436/239/239
f 456/294/294 72/241/241 520/295/295
f 522/296/296 520/295/295 72/241/241
f 520/295/295 522/296/296 454/297/297
f 269/298/298 454/297/297 522/296/296
f 454/297/297 269/298/298 539/182/182
f 541/184/184 539/182/182 269/298/298
f 373/132/132 519/15/15 321/134/134
f 519/15/15 373/132/132 517/299/299
f 197/300/300 517/299/299 373/132/132
f 517/299/299 197/300/300 515/301/301
f 140/302/302 515/301/301 197/300/300
f 515/301/301 140/302/302 513/303/303
f 390/304/304 513/303/303 140/302/302
f 513/303/303 390/304/304 134/23/23
f 529/305/305 134/23/23 390/304/304
f 134/23/23 529/305/305 131/25/25
f 388/125/125 131/25/25 529/305/305
f 411/14/14 546/306/306 506/12/12
f 546/306/306 411/14/14 548/307/307
f 449/236/236 548/307/307 411/14/14
f 548/307/307 449/236/236 447/308/308
f 413/292/292 447/308/308 449/236/236
f 447/308/308 413/292/292 204/309/309
f 432/310/310 204/309/309 413/292/292
f 204/309/309 432/310/310 430/311/311
f 63/82/82 430/311/311 432/310/310
f 430/311/311 63/82/82 427/312/312
f 66/84/84 427/312/312 63/82/82
f 474/313/313 472/314/314 556/315/315
f 472/314/314 474/313/313 370/316/316
f 126/317/317 370/316/316 474/313/313
f 370/316/316 126/317/317 433/318/318
f 435/319/319 433/318/318 126/317/317
f 433/318/318 435/319/319 417/320/320
f 395/321/321 417/320/320 435/319/319
f 417/320/320 395/321/321 458/322/322
f 419/323/323 458/322/322 395/321/321
f 458/322/322 419/323/323 428/324/324
f 185/325/325 428/324/324 419/323/323
f 238/326/326 241/196/196 421/327/327
f 241/196/196 238/326/326 279/194/194
f 277/328/328 279/194/194 238/326/326
f 279/194/194 277/328/328 448/192/192
f 446/329/329 448/192/192 277/328/328
f 448/192/192 446/329/329 263/330/330
f 408/331/331 263/330/330 446/329/329
f 263/330/330 408/331/331 486/332/332
f 484/333/333 486/332/332 408/331/331
f 486/332/332 484/333/333 545/98/98
f 378/334/334 274/335/335 380/336/336
f 274/335/335 378/334/334 232/337/337
f 442/338/338 232/337/337 378/334/334
f 232/337/337 442/338/338 444/339/339
f 329/340/340 444/339/339 442/338/338
f 444/339/339 329/340/340 408/331/331
f 482/341/341 408/331/331 329/340/340
f 408/331/331 482/341/341 484/333/333
f 547/100/100 484/333/333 482/341/341
f 484/333/333 547/100/100 545/98/98
f 122/342/342 380/336/336 186/343/343
f 380/336/336 122/342/342 378/334/334
f 437/344/344 378/334/334 122/342/342
f 378/334/334 437/344/344 440/345/345
f 130/346/346 440/345/345 437/344/344
f 440/345/345 130/346/346 376/347/347
f 477/348/348 376/347/347 130/346/346
f 376/347/347 477/348/348 480/349/349
f 551/104/104 480/349/349 477/348/348
f 480/349/349 551/104/104 549/102/102
f 89/350/350 189/351/351 96/352/352
f 189/351/351 89/350/350 372/353/353
f 82/354/354 372/353/353 89/350/350
f 372/353/353 82/354/354 452/355/355
f 85/356/356 452/355/355 82/354/354
f 452/355/355 85/356/356 414/274/274
f 272/357/357 414/274/274 85/356/356
f 414/274/274 272/357/357 103/272/272
f 158/358/358 103/272/272 272/357/357
f 103/272/272 158/358/358 561/359/359
f 629/360/360 592/361/361 627/362/362
f 592/361/361 629/360/360 594/363/363
f 635/364/364 594/363/363 629/360/360
f 594/363/363 635/364/364 637/365/365
f 639/366/366 637/365/365 635/364/364
f 637/365/365 639/366/366 641/367/367
f 650/368/368 641/367/367 639/366/366
f 641/367/367 650/368/368 652/369/369
f 588/370/370 652/369/369 650/368/368
f 652/369/369 588/370/370 610/371/371
f 587/372/372 241/196/196 467/198/198
f 241/196/196 587/372/372 421/327/327
f 607/373/373 421/327/327 587/372/372
f 421/327/327 607/373/373 412/374/374
f 424/375/375 412/374/374 607/373/373
f 412/374/374 424/375/375 274/335/335
f 426/376/376 274/335/335 424/375/375
f 274/335/335 426/376/376 380/336/336
f 429/204/204 380/336/336 426/376/376
f 380/336/336 429/204/204 186/343/343
f 637/365/365 608/377/377 594/363/363
f 608/377/377 637/365/365 29/265/265
f 10/378/378 29/265/265 637/365/365
f 29/265/265 10/378/378 598/264/264
f 14/379/379 598/264/264 10/378/378
f 598/264/264 14/379/379 596/380/380
f 652/369/369 596/380/380 14/379/379
f 596/380/380 652/369/369 643/381/381
f 610/371/371 643/381/381 652/369/369
f 643/381/381 610/371/371 606/382/382
f 297/383/383 356/228/228 377/226/226
f 356/228/228 297/383/383 358/230/230
f 341/384/384 358/230/230 297/383/383
f 358/230/230 341/384/384 360/232/232
f 319/385/385 360/232/232 341/384/384
f 360/232/232 319/385/385 13/234/234
f 344/386/386 13/234/234 319/385/385
f 13/234/234 344/386/386 76/387/387
f 353/388/388 76/387/387 344/386/386
f 495/389/389 63/82/82 432/310/310
f 63/82/82 495/389/389 516/86/86
f 518/390/390 516/86/86 495/389/389
f 516/86/86 518/390/390 492/88/88
f 267/391/391 492/88/88 518/390/390
f 492/88/88 267/391/391 532/90/90
f 534/392/392 532/90/90 267/391/391
f 532/90/90 534/392/392 490/92/92
f 400/178/178 490/92/92 534/392/392
f 425/220/220 553/393/393 523/257/257
f 553/393/393 425/220/220 24/394/394
f 64/219/219 24/394/394 425/220/220
f 24/394/394 64/219/219 533/395/395
f 473/396/396 533/395/395 64/219/219
f 533/395/395 473/396/396 471/397/397
f 396/398/398 471/397/397 473/396/396
f 471/397/397 396/398/398 398/399/399
f 20/400/400 398/399/399 396/398/398
f 556/315/315 632/275/275 173/277/277
f 632/275/275 556/315/315 470/273/273
f 472/314/314 470/273/273 556/315/315
f 470/273/273 472/314/314 182/401/401
f 370/316/316 182/401/401 472/314/314
f 182/401/401 370/316/316 636/402/402
f 431/403/403 636/402/402 370/316/316
f 636/402/402 431/403/403 452/355/355
f 372/353/353 452/355/355 431/403/403
f 193/130/130 197/300/300 373/132/132
f 197/300/300 193/130/130 137/404/404
f 337/128/128 137/404/404 193/130/130
f 137/404/404 337/128/128 346/405/405
f 525/406/406 346/405/405 337/128/128
f 346/405/405 525/406/406 504/407/407
f 527/408/408 504/407/407 525/406/406
f 504/407/407 527/408/408 390/304/304
f 529/305/305 390/304/304 527/408/408
f 124/34/34 87/409/409 93/35/35
f 87/409/409 124/34/34 291/410/410
f 5/57/57 291/410/410 124/34/34
f 291/410/410 5/57/57 289/411/411
f 30/412/412 289/411/411 5/57/57
f 289/411/411 30/412/412 286/413/413
f 284/414/414 286/413/413 30/412/412
f 286/413/413 284/414/414 109/415/415
f 271/416/416 109/415/415 284/414/414
f 582/417/417 566/418/418 586/419/419
f 566/418/418 582/417/417 590/420/420
f 631/421/421 590/420/420 582/417/417
f 590/420/420 631/421/421 623/422/422
f 627/362/362 623/422/422 631/421/421
f 623/422/422 627/362/362 625/423/423
f 592/361/361 625/423/423 627/362/362
f 625/423/423 592/361/361 648/424/424
f 81/425/425 141/152/152 181/154/154
f 141/152/152 81/425/425 145/150/150
f 148/426/426 145/150/150 81/425/425
f 145/150/150 148/426/426 167/148/148
f 160/427/427 167/148/148 148/426/426
f 167/148/148 160/427/427 163/285/285
f 84/428/428 163/285/285 160/427/427
f 163/285/285 84/428/428 114/429/429
f 31/171/171 108/430/430 270/431/431
f 108/430/430 31/171/171 97/432/432
f 101/173/173 97/432/432 31/171/171
f 97/432/432 101/173/173 233/433/433
f 509/434/434 233/433/433 101/173/173
f 233/433/433 509/434/434 511/435/435
f 83/258/258 511/435/435 509/434/434
f 511/435/435 83/258/258 2/436/436
f 334/437/437 624/97/97 622/99/99
f 624/97/97 334/437/437 406/438/438
f 569/439/439 406/438/438 334/437/437
f 406/438/438 569/439/439 336/440/440
f 567/59/59 336/440/440 569/439/439
f 336/440/440 567/59/59 265/441/441
f 526/61/61 265/441/441 567/59/59
f 265/441/441 526/61/61 528/63/63
f 225/442/442 320/60/60 325/443/443
f 320/60/60 225/442/442 249/58/58
f 247/444/444 249/58/58 225/442/442
f 249/58/58 247/444/444 245/62/62
f 296/445/445 245/62/62 247/444/444
f 245/62/62 296/445/445 316/446/446
f 313/447/447 316/446/446 296/445/445
f 316/446/446 313/447/447 288/448/448
f 357/449/449 343/450/450 27/451/451
f 343/450/450 357/449/449 359/452/452
f 30/412/412 359/452/452 357/449/449
f 359/452/452 30/412/412 361/453/453
f 364/454/454 361/453/453 30/412/412
f 361/453/453 364/454/454 213/455/455
f 303/456/456 213/455/455 364/454/454
f 96/352/352 577/457/457 99/458/458
f 577/457/457 96/352/352 169/459/459
f 189/351/351 169/459/459 96/352/352
f 169/459/459 189/351/351 461/460/460
f 458/322/322 461/460/460 189/351/351
f 461/460/460 458/322/322 580/461/461
f 428/324/324 580/461/461 458/322/322
f 132/153/153 121/462/462 125/155/155
f 121/462/462 132/153/153 128/463/463
f 135/464/464 128/463/463 132/153/153
f 128/463/463 135/464/464 58/465/465
f 47/466/466 58/465/465 135/464/464
f 58/465/465 47/466/466 51/467/467
f 43/468/468 51/467/467 47/466/466
f 192/469/469 111/470/470 613/284/284
f 111/470/470 192/469/469 593/471/471
f 591/472/472 593/471/471 192/469/469
f 593/471/471 591/472/472 305/160/160
f 209/473/473 305/160/160 591/472/472
f 305/160/160 209/473/473 206/162/162
f 139/164/164 206/162/162 209/473/473
f 546/306/306 544/474/474 506/12/12
f 544/474/474 546/306/306 264/475/475
f 548/307/307 264/475/475 546/306/306
f 264/475/475 548/307/307 177/476/476
f 447/308/308 177/476/476 548/307/307
f 177/476/476 447/308/308 445/477/477
f 207/478/478 445/477/477 447/308/308
f 566/418/418 604/479/479 586/419/419
f 604/479/479 566/418/418 568/480/480
f 570/481/481 568/480/480 566/418/418
f 568/480/480 570/481/481 572/482/482
f 576/483/483 572/482/482 570/481/481
f 572/482/482 576/483/483 574/484/484
f 579/485/485 574/484/484 576/483/483
f 364/454/454 196/486/486 303/456/456
f 196/486/486 364/454/454 366/487/487
f 115/488/488 366/487/487 364/454/454
f 366/487/487 115/488/488 229/489/489
f 322/51/51 229/489/489 115/488/488
f 229/489/489 322/51/51 324/490/490
f 224/491/491 324/490/490 322/51/51
f 576/483/483 612/492/492 579/485/485
f 612/492/492 576/483/483 616/493/493
f 621/494/494 616/493/493 576/483/483
f 616/493/493 621/494/494 619/495/495
f 623/422/422 619/495/495 621/494/494
f 619/495/495 623/422/422 625/423/423
f 615/496/496 173/277/277 133/279/279
f 173/277/277 615/496/496 556/315/315
f 554/497/497 556/315/315 615/496/496
f 556/315/315 554/497/497 474/313/313
f 476/498/498 474/313/313 554/497/497
f 474/313/313 476/498/498 129/499/499
f 450/179/179 599/193/193 601/177/177
f 599/193/193 450/179/179 597/195/195
f 402/181/181 597/195/195 450/179/179
f 597/195/195 402/181/181 595/197/197
f 404/183/183 595/197/197 402/181/181
f 595/197/197 404/183/183 236/185/185
f 387/246/246 573/188/188 571/186/186
f 573/188/188 387/246/246 385/500/500
f 40/244/244 385/500/500 387/246/246
f 385/500/500 40/244/244 37/501/501
f 310/260/260 37/501/501 40/244/244
f 37/501/501 310/260/260 393/30/30
f 426/376/376 583/202/202 429/204/204
f 583/202/202 426/376/376 585/502/502
f 424/375/375 585/502/502 426/376/376
f 585/502/502 424/375/375 609/503/503
f 607/373/373 609/503/503 424/375/375
f 609/503/503 607/373/373 587/372/372
f 434/293/293 432/310/310 413/292/292
f 432/310/310 434/293/293 495/389/389
f 59/504/504 495/389/389 434/293/293
f 495/389/389 59/504/504 518/390/390
f 456/294/294 518/390/390 59/504/504
f 518/390/390 456/294/294 520/295/295
f 538/206/206 540/7/7 299/5/5
f 540/7/7 538/206/206 464/105/105
f 466/208/208 464/105/105 538/206/206
f 464/105/105 466/208/208 403/107/107
f 401/210/210 403/107/107 466/208/208
f 403/107/107 401/210/210 301/212/212
f 336/440/440 628/93/93 626/95/95
f 628/93/93 336/440/440 630/91/91
f 265/441/441 630/91/91 336/440/440
f 630/91/91 265/441/441 530/89/89
f 528/63/63 530/89/89 265/441/441
f 530/89/89 528/63/63 283/65/65
f 214/505/505 219/45/45 240/43/43
f 219/45/45 214/505/505 273/506/506
f 275/507/507 273/506/506 214/505/505
f 273/506/506 275/507/507 48/508/508
f 55/509/509 48/508/508 275/507/507
f 48/508/508 55/509/509 347/510/510
f 151/79/79 147/511/511 226/77/77
f 147/511/511 151/79/79 155/512/512
f 117/81/81 155/512/512 151/79/79
f 155/512/512 117/81/81 246/513/513
f 251/2/2 246/513/513 117/81/81
f 246/513/513 251/2/2 253/4/4
f 144/46/46 248/36/36 120/38/38
f 248/36/36 144/46/46 9/514/514
f 44/48/48 9/514/514 144/46/46
f 9/514/514 44/48/48 75/515/515
f 119/50/50 75/515/515 44/48/48
f 75/515/515 119/50/50 309/52/52
f 280/516/516 427/312/312 66/84/84
f 427/312/312 280/516/516 207/478/478
f 210/517/517 207/478/478 280/516/516
f 207/478/478 210/517/517 244/518/518
f 223/73/73 244/518/518 210/517/517
f 244/518/518 223/73/73 242/75/75
f 352/67/67 512/83/83 283/65/65
f 512/83/83 352/67/67 66/84/84
f 79/519/519 66/84/84 352/67/67
f 66/84/84 79/519/519 280/516/516
f 292/69/69 280/516/516 79/519/519
f 280/516/516 292/69/69 278/71/71
f 262/6/6 485/520/520 253/4/4
f 485/520/520 262/6/6 330/521/521
f 542/8/8 330/521/521 262/6/6
f 330/521/521 542/8/8 544/474/474
f 459/10/10 544/474/474 542/8/8
f 544/474/474 459/10/10 506/12/12
f 412/374/374 238/326/326 421/327/327
f 238/326/326 412/374/374 277/328/328
f 410/522/522 277/328/328 412/374/374
f 277/328/328 410/522/522 446/329/329
f 444/339/339 446/329/329 410/522/522
f 446/329/329 444/339/339 408/331/331
f 420/523/523 38/524/524 416/525/525
f 38/524/524 420/523/523 11/526/526
f 498/527/527 11/526/526 420/523/523
f 11/526/526 498/527/527 505/528/528
f 508/529/529 505/528/528 498/527/527
f 505/528/528 508/529/529 143/530/530
f 243/49/49 227/531/531 322/51/51
f 227/531/531 243/49/49 252/532/532
f 254/533/533 252/532/532 243/49/49
f 252/532/532 254/533/533 256/534/534
f 314/535/535 256/534/534 254/533/533
f 433/318/318 431/403/403 370/316/316
f 431/403/403 433/318/318 372/353/353
f 417/320/320 372/353/353 433/318/318
f 372/353/353 417/320/320 189/351/351
f 458/322/322 189/351/351 417/320/320
f 521/536/536 24/394/394 533/395/395
f 24/394/394 521/536/536 553/393/393
f 70/537/537 553/393/393 521/536/536
f 553/393/393 70/537/537 523/257/257
f 531/259/259 523/257/257 70/537/537
f 80/538/538 644/539/539 61/540/540
f 644/539/539 80/538/538 642/541/541
f 297/383/383 642/541/541 80/538/538
f 642/541/541 297/383/383 638/542/542
f 377/226/226 638/542/542 297/383/383
f 263/330/330 397/191/191 448/192/192
f 397/191/191 263/330/330 488/176/176
f 486/332/332 488/176/176 263/330/330
f 488/176/176 486/332/332 589/94/94
f 543/96/96 589/94/94 486/332/332
f 435/319/319 123/543/543 395/321/321
f 123/543/543 435/319/319 438/544/544
f 126/317/317 438/544/544 435/319/319
f 438/544/544 126/317/317 129/499/499
f 474/313/313 129/499/499 126/317/317
f 138/151/151 135/464/464 132/153/153
f 135/464/464 138/151/151 78/545/545
f 152/149/149 78/545/545 138/151/151
f 78/545/545 152/149/149 65/546/546
f 156/547/547 65/546/546 152/149/149
f 146/548/548 11/526/526 505/528/528
f 11/526/526 146/548/548 565/549/549
f 563/550/550 565/549/549 146/548/548
f 565/549/549 563/550/550 153/551/551
f 157/552/552 153/551/551 563/550/550
f 38/524/524 41/553/553 416/525/525
f 41/553/553 38/524/524 478/554/554
f 481/555/555 478/554/554 38/524/524
f 478/554/554 481/555/555 49/556/556
f 45/557/557 49/556/556 481/555/555
f 57/255/255 42/558/558 479/254/254
f 42/558/558 57/255/255 415/559/559
f 418/560/560 415/559/559 57/255/255
f 415/559/559 418/560/560 34/174/174
f 53/175/175 34/174/174 418/560/560
f 335/129/129 127/112/112 190/114/114
f 127/112/112 335/129/129 369/110/110
f 371/131/131 369/110/110 335/129/129
f 369/110/110 371/131/131 333/108/108
f 174/133/133 333/108/108 371/131/131
f 325/443/443 222/561/561 203/562/562
f 222/561/561 325/443/443 327/563/563
f 320/60/60 327/563/563 325/443/443
f 327/563/563 320/60/60 569/439/439
f 567/59/59 569/439/439 320/60/60
f 338/564/564 507/565/565 19/566/566
f 507/565/565 338/564/564 142/567/567
f 136/568/568 142/567/567 338/564/564
f 142/567/567 136/568/568 209/473/473
f 139/164/164 209/473/473 136/568/568
f 349/127/127 525/406/406 337/128/128
f 525/406/406 349/127/127 527/408/408
f 502/126/126 527/408/408 349/127/127
f 527/408/408 502/126/126 529/305/305
f 388/125/125 529/305/305 502/126/126
f 164/569/569 510/278/278 558/276/276
f 510/278/278 164/569/569 176/570/570
f 503/571/571 176/570/570 164/569/569
f 176/570/570 503/571/571 161/572/572
f 142/567/567 161/572/572 503/571/571
f 561/359/359 558/276/276 103/272/272
f 558/276/276 561/359/359 164/569/569
f 150/573/573 164/569/569 561/359/359
f 164/569/569 150/573/573 500/574/574
f 307/54/54 75/515/515 309/52/52
f 75/515/515 307/54/54 235/575/575
f 228/56/56 235/575/575 307/54/54
f 235/575/575 228/56/56 248/36/36
f 596/380/380 600/266/266 598/264/264
f 600/266/266 596/380/380 645/576/576
f 643/381/381 645/576/576 596/380/380
f 645/576/576 643/381/381 606/382/382
f 382/577/577 234/187/187 575/189/189
f 234/187/187 382/577/577 463/201/201
f 460/578/578 463/201/201 382/577/577
f 463/201/201 460/578/578 581/203/203
f 631/421/421 639/366/366 627/362/362
f 639/366/366 631/421/421 650/368/368
f 584/579/579 650/368/368 631/421/421
f 650/368/368 584/579/579 588/370/370
f 578/580/580 575/189/189 100/32/32
f 575/189/189 578/580/580 382/577/577
f 168/581/581 382/577/577 578/580/580
f 382/577/577 168/581/581 460/578/578
f 374/582/582 622/99/99 620/101/101
f 622/99/99 374/582/582 334/437/437
f 327/563/563 334/437/437 374/582/582
f 334/437/437 327/563/563 569/439/439
f 332/583/583 620/101/101 617/103/103
f 620/101/101 332/583/583 374/582/582
f 222/561/561 374/582/582 332/583/583
f 374/582/582 222/561/561 327/563/563
f 384/584/584 80/538/538 61/540/540
f 80/538/538 384/584/584 381/585/585
f 496/586/586 381/585/585 384/584/584
f 381/585/585 496/586/586 353/388/388
f 23/167/167 26/587/587 342/165/165
f 26/587/587 23/167/167 270/431/431
f 268/169/169 270/431/431 23/167/167
f 270/431/431 268/169/169 31/171/171
f 233/433/433 230/588/588 104/589/589
f 230/588/588 233/433/433 651/590/590
f 511/435/435 651/590/590 233/433/433
f 651/590/590 511/435/435 2/436/436
f 316/446/446 318/64/64 245/62/62
f 318/64/64 316/446/446 294/591/591
f 288/448/448 294/591/591 316/446/446
f 294/591/591 288/448/448 348/592/592
f 244/518/518 445/477/477 207/478/478
f 445/477/477 244/518/518 147/511/511
f 242/75/75 147/511/511 244/518/518
f 147/511/511 242/75/75 226/77/77
f 269/298/298 389/247/247 541/184/184
f 389/247/247 269/298/298 524/245/245
f 522/296/296 524/245/245 269/298/298
f 524/245/245 522/296/296 72/241/241
f 350/68/68 348/592/592 56/70/70
f 348/592/592 350/68/68 294/591/591
f 285/66/66 294/591/591 350/68/68
f 294/591/591 285/66/66 318/64/64
f 501/593/593 505/528/528 143/530/530
f 505/528/528 501/593/593 146/548/548
f 149/594/594 146/548/548 501/593/593
f 146/548/548 149/594/594 560/595/595
f 183/263/263 439/240/240 379/238/238
f 439/240/240 183/263/263 441/242/242
f 315/262/262 441/242/242 183/263/263
f 441/242/242 315/262/262 312/261/261
f 367/111/111 365/214/214 304/113/113
f 365/214/214 367/111/111 301/212/212
f 255/109/109 301/212/212 367/111/111
f 301/212/212 255/109/109 403/107/107
f 15/168/168 19/566/566 266/170/170
f 19/566/566 15/168/168 338/564/564
f 340/166/166 338/564/564 15/168/168
f 338/564/564 340/166/166 139/164/164
f 295/229/229 73/225/225 555/227/227
f 73/225/225 295/229/229 394/596/596
f 396/398/398 394/596/596 295/229/229
f 394/596/596 396/398/398 473/396/396
f 290/597/597 243/49/49 52/47/47
f 243/49/49 290/597/597 311/598/598
f 314/535/535 311/598/598 290/597/597
f 311/598/598 314/535/535 254/533/533
f 30/412/412 115/488/488 364/454/454
f 115/488/488 30/412/412 33/599/599
f 5/57/57 33/599/599 30/412/412
f 33/599/599 5/57/57 298/55/55
f 345/600/600 52/47/47 48/508/508
f 52/47/47 345/600/600 290/597/597
f 287/601/601 290/597/597 345/600/600
f 290/597/597 287/601/601 314/535/535
f 227/531/531 224/491/491 322/51/51
f 224/491/491 227/531/531 260/602/602
f 252/532/532 260/602/602 227/531/531
f 260/602/602 252/532/532 256/534/534
f 536/603/603 533/395/395 471/397/397
f 533/395/395 536/603/603 521/536/536
f 258/604/604 521/536/536 536/603/603
f 521/536/536 258/604/604 112/605/605
f 410/522/522 232/337/337 444/339/339
f 232/337/337 410/522/522 274/335/335
f 412/374/374 274/335/335 410/522/522
f 605/606/606 510/278/278 176/570/570
f 510/278/278 605/606/606 634/280/280
f 179/282/282 634/280/280 605/606/606
f 2/436/436 112/605/605 91/607/607
f 112/605/605 2/436/436 531/259/259
f 83/258/258 531/259/259 2/436/436
f 17/290/290 564/608/608 32/291/291
f 564/608/608 17/290/290 216/609/609
f 205/289/289 216/609/609 17/290/290
f 289/411/411 87/409/409 291/410/410
f 87/409/409 289/411/411 231/610/610
f 105/611/611 231/610/610 289/411/411
f 282/612/612 284/414/414 30/412/412
f 284/414/414 282/612/612 271/416/416
f 27/451/451 271/416/416 282/612/612
f 554/497/497 552/613/613 476/498/498
f 552/613/613 554/497/497 618/614/614
f 615/496/496 618/614/614 554/497/497
f 39/615/615 135/464/464 78/545/545
f 135/464/464 39/615/615 47/466/466
f 43/468/468 47/466/466 39/615/615
f 565/549/549 38/524/524 11/526/526
f 38/524/524 565/549/549 481/555/555
f 45/557/557 481/555/555 565/549/549
f 39/615/615 106/616/616 43/468/468
f 106/616/616 39/615/615 71/617/617
f 65/546/546 71/617/617 39/615/615
f 266/170/170 34/174/174 28/172/172
f 34/174/174 266/170/170 422/618/618
f 19/566/566 422/618/618 266/170/170
f 482/341/341 549/102/102 547/100/100
f 549/102/102 482/341/341 480/349/349
f 376/347/347 480/349/349 482/341/341
f 207/478/478 430/311/311 427/312/312
f 430/311/311 207/478/478 204/309/309
f 447/308/308 204/309/309 207/478/478
f 264/475/475 330/521/521 544/474/474
f 330/521/521 264/475/475 485/520/520
f 483/619/619 485/520/520 264/475/475
f 115/488/488 300/53/53 322/51/51
f 300/53/53 115/488/488 298/55/55
f 33/599/599 298/55/55 115/488/488
f 229/489/489 196/486/486 366/487/487
f 196/486/486 229/489/489 202/620/620
f 324/490/490 202/620/620 229/489/489
f 283/65/65 281/87/87 530/89/89
f 281/87/87 283/65/65 514/85/85
f 512/83/83 514/85/85 283/65/65
f 621/494/494 590/420/420 623/422/422
f 590/420/420 621/494/494 566/418/418
f 570/481/481 566/418/418 621/494/494
f 619/495/495 612/492/492 616/493/493
f 612/492/492 619/495/495 614/621/621
f 648/424/424 614/621/621 619/495/495
f 218/622/622 361/453/453 213/455/455
f 361/453/453 218/622/622 359/452/452
f 343/450/450 359/452/452 218/622/622
f 385/500/500 391/190/190 573/188/188
f 391/190/190 385/500/500 393/30/30
f 37/501/501 393/30/30 385/500/500
f 509/434/434 293/623/623 83/258/258
f 293/623/623 509/434/434 53/175/175
f 101/173/173 53/175/175 509/434/434
f 144/46/46 162/42/42 237/44/44
f 162/42/42 144/46/46 159/40/40
f 120/38/38 159/40/40 144/46/46
f 267/391/391 454/297/297 534/392/392
f 454/297/297 267/391/391 520/295/295
f 518/390/390 520/295/295 267/391/391
f 537/180/180 454/297/297 539/182/182
f 454/297/297 537/180/180 534/392/392
f 400/178/178 534/392/392 537/180/180
f 641/367/367 10/378/378 637/365/365
f 10/378/378 641/367/367 14/379/379
f 652/369/369 14/379/379 641/367/367
f 80/538/538 341/384/384 297/383/383
f 341/384/384 80/538/538 381/585/585
f 35/624/624 420/523/523 416/525/525
f 420/523/523 35/624/624 423/625/625
f 376/347/347 329/340/340 442/338/338
f 329/340/340 376/347/347 482/341/341
f 286/413/413 105/611/611 289/411/411
f 105/611/611 286/413/413 109/415/415
f 192/469/469 605/606/606 176/570/570
f 605/606/606 192/469/469 613/284/284
f 423/625/625 498/527/527 420/523/523
f 498/527/527 423/625/625 18/626/626
f 9/514/514 235/575/575 248/36/36
f 235/575/575 9/514/514 75/515/515
f 440/345/345 442/338/338 378/334/334
f 442/338/338 440/345/345 376/347/347
f 344/386/386 381/585/585 353/388/388
f 381/585/585 344/386/386 319/385/385
f 611/199/199 585/502/502 609/503/503
f 585/502/502 611/199/199 465/200/200
f 467/198/198 609/503/503 587/372/372
f 609/503/503 467/198/198 611/199/199
f 312/261/261 40/244/244 441/242/242
f 40/244/244 312/261/261 310/260/260
f 355/627/627 27/451/451 282/612/612
f 27/451/451 355/627/627 357/449/449
f 563/550/550 560/595/595 157/552/552
f 560/595/595 563/550/550 146/548/548
f 7/628/628 565/549/549 153/551/551
f 565/549/549 7/628/628 45/557/557
f 347/510/510 345/600/600 48/508/508
f 345/600/600 347/510/510 287/601/601
f 273/506/506 52/47/47 219/45/45
f 52/47/47 273/506/506 48/508/508
f 640/629/629 377/226/226 339/224/224
f 377/226/226 640/629/629 638/542/542
f 20/400/400 16/231/231 363/233/233
f 16/231/231 20/400/400 396/398/398
f 187/252/252 339/224/224 649/222/222
f 339/224/224 187/252/252 640/629/629
f 392/223/223 394/596/596 473/396/396
f 394/596/596 392/223/223 73/225/225
f 550/221/221 473/396/396 64/219/219
f 473/396/396 550/221/221 392/223/223
f 161/572/572 209/473/473 591/472/472
f 209/473/473 161/572/572 142/567/567
f 140/302/302 504/407/407 390/304/304
f 504/407/407 140/302/302 346/405/405
f 137/404/404 140/302/302 197/300/300
f 140/302/302 137/404/404 346/405/405
f 375/17/17 517/299/299 515/301/301
f 517/299/299 375/17/17 519/15/15
f 326/19/19 515/301/301 513/303/303
f 515/301/301 326/19/19 375/17/17
f 328/21/21 513/303/303 134/23/23
f 513/303/303 328/21/21 326/19/19
f 407/11/11 174/133/133 409/13/13
f 174/133/133 407/11/11 333/108/108
f 147/511/511 443/630/630 445/477/477
f 443/630/630 147/511/511 155/512/512
f 278/71/71 210/517/517 280/516/516
f 210/517/517 278/71/71 223/73/73
f 483/619/619 155/512/512 246/513/513
f 155/512/512 483/619/619 443/630/630
f 485/520/520 246/513/513 253/4/4
f 246/513/513 485/520/520 483/619/619
f 97/432/432 104/589/589 108/430/430
f 104/589/589 97/432/432 233/433/433
f 296/445/445 257/631/631 313/447/447
f 257/631/631 296/445/445 247/444/444
f 368/632/632 591/472/472 192/469/469
f 591/472/472 368/632/632 161/572/572
f 405/106/106 407/11/11 462/9/9
f 407/11/11 405/106/106 333/108/108
f 111/470/470 107/156/156 199/633/633
f 107/156/156 111/470/470 593/471/471
f 67/256/256 418/560/560 57/255/255
f 418/560/560 67/256/256 53/175/175
f 293/623/623 67/256/256 83/258/258
f 67/256/256 293/623/623 53/175/175
f 272/357/357 154/250/250 158/358/358
f 154/250/250 272/357/357 4/248/248
f 261/634/634 247/444/444 225/442/442
f 247/444/444 261/634/634 257/631/631
f 221/283/283 111/470/470 200/635/635
f 111/470/470 221/283/283 613/284/284
f 86/636/636 651/590/590 92/637/637
f 651/590/590 86/636/636 230/588/588
f 493/638/638 644/539/539 646/639/639
f 644/539/539 493/638/638 61/540/540
f 102/640/640 205/289/289 208/288/288
f 205/289/289 102/640/640 216/609/609
f 602/641/641 22/136/136 32/291/291
f 22/136/136 602/641/641 25/137/137
f 368/632/632 176/570/570 161/572/572
f 176/570/570 368/632/632 192/469/469
f 331/642/642 603/281/281 221/283/283
f 603/281/281 331/642/642 618/614/614
f 503/571/571 500/574/574 142/567/567
f 500/574/574 503/571/571 164/569/569
f 452/355/355 182/401/401 636/402/402
f 182/401/401 452/355/355 414/274/274
f 68/643/643 152/149/149 184/147/147
f 152/149/149 68/643/643 156/547/547
f 603/281/281 615/496/496 133/279/279
f 615/496/496 603/281/281 618/614/614
f 74/271/271 184/147/147 188/145/145
f 184/147/147 74/271/271 68/643/643
f 121/462/462 58/465/465 62/644/644
f 58/465/465 121/462/462 128/463/463
f 194/286/286 198/144/144 172/146/146
f 198/144/144 194/286/286 95/142/142
f 175/269/269 110/645/645 118/270/270
f 110/645/645 175/269/269 178/268/268
f 54/646/646 58/465/465 51/467/467
f 58/465/465 54/646/646 62/644/644
f 148/426/426 84/428/428 160/427/427
f 84/428/428 148/426/426 81/425/425
f 559/647/647 562/267/267 606/382/382
f 562/267/267 559/647/647 110/645/645
f 645/576/576 562/267/267 600/266/266
f 562/267/267 645/576/576 606/382/382
f 629/360/360 639/366/366 635/364/364
f 639/366/366 629/360/360 627/362/362
f 469/648/648 471/397/397 398/399/399
f 471/397/397 469/648/648 536/603/603
f 70/537/537 112/605/605 531/259/259
f 112/605/605 70/537/537 521/536/536
f 443/630/630 177/476/476 445/477/477
f 177/476/476 443/630/630 483/619/619
f 633/649/649 631/421/421 582/417/417
f 631/421/421 633/649/649 584/579/579
f 406/438/438 626/95/95 624/97/97
f 626/95/95 406/438/438 336/440/440
f 419/323/323 123/543/543 185/325/325
f 123/543/543 419/323/323 395/321/321
f 29/265/265 25/137/137 602/641/641
f 65/546/546 39/615/615 78/545/545
f 486/332/332 545/98/98 543/96/96
f 114/429/429 220/650/650 211/287/287
f 583/202/202 585/502/502 465/200/200
f 605/606/606 613/284/284 179/282/282
f 470/273/273 182/401/401 414/274/274
f 220/650/650 102/640/640 211/287/287
f 211/287/287 102/640/640 208/288/288
f 608/377/377 29/265/265 36/651/651
f 36/651/651 29/265/265 602/641/641
f 163/285/285 114/429/429 211/287/287
f 593/471/471 305/160/160 107/156/156
f 508/529/529 498/527/527 18/626/626
f 319/385/385 341/384/384 381/585/585
f 2/436/436 90/652/652 651/590/590
f 524/245/245 72/241/241 69/243/243
f 562/267/267 110/645/645 178/268/268
f 456/294/294 59/504/504 434/293/293
f 352/67/67 292/69/69 79/519/519
f 648/424/424 619/495/495 625/423/423
f 621/494/494 576/483/483 570/481/481
f 139/164/164 136/568/568 338/564/564
f 243/49/49 311/598/598 254/533/533
f 177/476/476 483/619/619 264/475/475
f 396/398/398 295/229/229 16/231/231
