<?xml version="1.0"?>
<COLLADA xmlns="http://www.collada.org/2005/11/COLLADASchema" version="1.4.1">
    <asset>
        <contributor>
            <authoring_tool>J3D Ripoff Exporter</authoring_tool>
        </contributor>
        <created>2024-08-02T13:56:51.255Z</created>
        <modified>2024-08-02T13:56:51.255Z</modified>
		<unit meter="0.01" name="centimeter" ></unit>
        <up_axis>Y_UP</up_axis>
    </asset>
    <library_images>
        <image id="tex0">
            <init_from>donkey_all.png</init_from>
        </image>
    </library_images>
    <library_effects>
        <effect id="effect0">
            <profile_COMMON>
                <newparam sid="surface0">
                    <surface type="2D">
                        <init_from>tex0</init_from>
                    </surface>
                </newparam>
                <newparam sid="sampler0">
                    <sampler2D>
                        <source>surface0</source>
                    </sampler2D>
                </newparam>
                <technique sid="COMMON">
                    <blinn>
                        <diffuse>
                            <texture texture="sampler0" texcoord="UVSET0"></texture>
                        </diffuse>
                    </blinn>
                </technique>
            </profile_COMMON>
        </effect>
    </library_effects>
    <library_materials>
        <material id="mat0" name="Dummy">
            <instance_effect url="#effect0"></instance_effect>
        </material>
    </library_materials>
    <library_geometries>
        <geometry id="mesh0">
            <mesh>
                <source id="points0">
                    <float_array id="pointarray0" count="1188">49.82421875 29.6171875 10.484375 39.7109375 24.21484375 16.7890625 39.00390625 25.81640625 11.08203125 29.5 19.7109375 17.67578125 28.79296875 21.3125 12.09765625 24.234375 17.38671875 14.88671875 25.2734375 19.76171875 10.22265625 22.01953125 17.640625 0 28.11328125 22.8515625 0 25.2734375 19.76171875 -10.22265625 28.79296875 21.3125 -12.09765625 24.234375 17.38671875 -14.88671875 29.5 19.7109375 -17.67578125 30.046875 18.46484375 -18.42578125 40.2578125 22.96875 -17.47265625 31.04296875 16.2109375 -15.4921875 41.25390625 20.71484375 -14.22265625 40.05078125 19.015625 -5.046875 50.30078125 24.70703125 -9.14453125 52.9375 26.32421875 0 53.09375 27.85546875 -10.9453125 56.21875 31.23828125 0 49.82421875 29.6171875 -10.484375 52.96484375 32.23046875 0 37.3671875 25.09375 -11.08203125 36.9140625 26.12109375 0 37.00390625 17.02734375 -29.6875 36.00390625 16.59765625 -29.72265625 35.35546875 14.97265625 -30.33984375 34.17578125 16.45703125 -30.97265625 26.90625 18.3203125 -32.203125 30.90625 23.640625 -31.06640625 27.3515625 28.05078125 -31.81640625 36.41796875 33.5625 -27.26171875 21.125 31.64453125 -30.64453125 30.82421875 40.75390625 -23.46875 14.71875 36.23046875 -24.16015625 22.4140625 44.703125 -14.95703125 12.11328125 38.14453125 -15.5546875 20.23046875 45.88671875 -0.00390625 11.2109375 39.12890625 -0.00390625 12.11328125 38.14453125 15.54296875 4.03515625 25.71484375 18.265625 14.71875 36.23046875 24.1484375 8.046875 23.79296875 28.13671875 21.125 31.64453125 30.6328125 14.88671875 21.35546875 33.05078125 27.3515625 28.05078125 31.8046875 21.61328125 19.359375 32.37890625 26.90625 18.3203125 32.19140625 27.4765625 13.44921875 32.08203125 35.35546875 14.97265625 30.328125 37.00390625 17.02734375 29.67578125 36.984375 17.03515625 26.79296875 42.01171875 18.06640625 27.24609375 41.15625 17.99609375 24.51171875 49.02734375 17.9375 20.5703125 33.453125 10.12109375 15.0234375 46.45703125 7.921875 12.92578125 31.30859375 7.54296875 -0.00390625 44.2265625 5.92578125 -0.00390625 46.45703125 7.921875 -12.9375 56.015625 8.703125 -0.00390625 63.734375 11.46484375 -5.07421875 64.6953125 10.75 -0.00390625 67.4453125 9.33203125 -0.00390625 63.734375 11.46484375 5.0625 66.63671875 10.48828125 5.88671875 60.0390625 13.5703125 8.60546875 62.5390625 13.75390625 10.54296875 53.828125 18.078125 12.05859375 56.578125 17.79296875 13.79296875 49.73046875 18.2890625 23.515625 36.859375 17.34375 29.42578125 41.96875 18.421875 26.92578125 36.87109375 17.36328125 26.3359375 41.171875 18.2421875 25.3125 25.5859375 21.9453125 16.4296875 33.61328125 30.7109375 15.1484375 32.20703125 32.71875 -0.00390625 45.34375 31.90625 -0.00390625 33.61328125 30.7109375 -15.16015625 48.9453125 26.47265625 -12.58984375 48.765625 18.34375 -20.6953125 53.859375 18.51953125 -12.296875 56.140625 19.61328125 -14.26953125 59.421875 20.9921875 -8.22265625 60.92578125 21.34765625 -9.2734375 60.84375 22.29296875 -4.5703125 62.76171875 23.06640625 -5.02734375 61.64453125 22.55859375 -0.00390625 63.53125 23.375 -0.00390625 62.76171875 23.06640625 5.015625 65.05859375 25.4375 -0.00390625 64.3203125 25.08984375 5.46875 36.37109375 -25.9609375 -7.83984375 39.484375 -24.90625 -4.77734375 42.53515625 -23.62890625 -5.7890625 43.4140625 -22.72265625 0 44.8203125 -18.9453125 0 42.53515625 -23.62890625 5.7890625 44.171875 -19.73046875 6.8359375 39.3671875 -25.7734375 10.390625 41.703125 -21.4375 12.26953125 37.8125 -23.55078125 16.33984375 36.59375 -18.5546875 16.3359375 33.90234375 -25.078125 19.13671875 32.5625 -19.8671875 19.5078125 30.390625 -25.59765625 21.109375 27.75390625 -20.34765625 21.08984375 24.1328125 -24.94921875 23.19140625 27.0078125 -15.9140625 23.296875 20.78125 -20.75 23.27734375 23.53125 -14.609375 24.1796875 20.9453125 -18.265625 22.8203125 22.41796875 -13.84765625 22.90625 36.859375 17.34375 -29.4375 36.30078125 18.4296875 -30.65234375 41.51171875 19.9453125 -27.42578125 37.6953125 25.96484375 -28.20703125 43.15234375 27.8359375 -25.69140625 50.66796875 30.08203125 -20.1875 45.21875 37.09765625 -19.8671875 55.16015625 33.0390625 -11.14453125 49.57421875 39.06640625 -10.3203125 50.828125 40.0390625 -0.00390625 42.3125 44.40234375 -0.00390625 49.57421875 39.06640625 10.3046875 41.34765625 43.51953125 11.43359375 45.21875 37.09765625 19.85546875 30.82421875 40.75390625 23.45703125 36.41796875 33.5625 27.25 41.87890625 16.5 27.62890625 49.51953125 15.81640625 23.53125 56.81640625 15.2578125 14.75 62.58984375 11.0625 11.64453125 66.08984375 7.77734375 6.86328125 66.8984375 6.703125 -0.00390625 64.6328125 5.62890625 -0.00390625 66.08984375 7.77734375 -6.87890625 63.84765625 6.3984375 -6.46484375 62.58984375 11.0625 -11.66015625 60.9296875 9.6015625 -10.28125 56.4296875 14.16796875 -14.84765625 59.5234375 7.57421875 -8.55859375 52.80859375 28.50390625 10.9453125 40.2578125 22.96875 17.47265625 30.046875 18.46484375 18.42578125 24.63671875 16.07421875 15.4921875 22.7890625 15.26171875 6.640625 24.74609375 13.6015625 5.59375 24.25390625 14.44140625 0 30.34375 14.5625 5.78515625 28.87890625 16.26171875 0 39.59765625 20.04296875 0 30.34375 14.5625 -5.78515625 36.00390625 16.59765625 29.70703125 34.17578125 16.45703125 30.9609375 36.30078125 18.4296875 30.640625 41.51171875 19.9453125 27.4140625 30.90625 23.640625 31.0546875 37.6953125 25.96484375 28.1953125 43.15234375 27.8359375 25.6796875 50.66796875 30.08203125 20.17578125 48.59375 22.1640625 22.07421875 54.28515625 23.4609375 14.1328125 55.78515625 22.4453125 14.59765625 61.18359375 25.859375 10.32421875 62.0703125 22.95703125 10.30859375 37.72265625 15.22265625 -29.01953125 33.28125 9.8359375 -29.27734375 36.38671875 8.58203125 -26.79296875 30.26953125 4.71484375 -27.37109375 35.81640625 1.3828125 -21.484375 28.21484375 2.921875 -24.47265625 24.7890625 2.24609375 -18.984375 22.80859375 4.40625 -26.00390625 15.05859375 4.68359375 -21.1328125 14.43359375 7.84375 -27.17578125 10.06640625 6.9609375 -19.83984375 7.9921875 11.859375 -26.109375 5.3359375 11.171875 -19.51953125 31.99609375 -27.41015625 -11.078125 39.3671875 -25.7734375 -10.390625 44.171875 -19.73046875 -6.8359375 43.50390625 -14.33203125 0 42.94921875 -15.0703125 6.60546875 40.4453125 -16.70703125 12.19140625 37.61328125 -15.234375 10.7109375 34.08203125 -17.41796875 14.46875 20.6015625 -28.51171875 -17.38671875 25.83984375 -27.34765625 -13.98828125 32.41796875 -29.2890625 -16.41796875 35.6484375 -27.8203125 -13.7109375 37.8125 -23.55078125 -16.33984375 41.703125 -21.4375 -12.26953125 36.59375 -18.5546875 -16.3359375 40.4453125 -16.70703125 -12.19140625 37.61328125 -15.234375 -10.7109375 39.7421875 -13.96875 -5.62890625 24.1328125 -24.94921875 -23.19140625 18.72265625 -25.2890625 -21.1875 24.08984375 -29.17578125 -20.84375 27.78515625 -29.80859375 -18.8203125 30.390625 -25.59765625 -21.109375 33.90234375 -25.078125 -19.13671875 32.5625 -19.8671875 -19.5078125 34.08203125 -17.41796875 -14.46875 55.16015625 33.0390625 11.1328125 56.87109375 34.59765625 -0.00390625 60.41015625 28.5 -4.44921875 57.83203125 26.296875 -9.6953125 63.453125 27.72265625 -5.33984375 61.18359375 25.859375 -10.3359375 64.3203125 25.08984375 -5.48046875 62.0703125 22.95703125 -10.3203125 25.8828125 13.40625 16.2109375 22.65625 12.06640625 -0.00390625 22.43359375 22.88671875 -0.00390625 25.8828125 13.40625 -16.22265625 25.5859375 21.9453125 -16.44140625 36.03125 16.58984375 -26.68359375 36.87109375 17.36328125 -26.34765625 42.01171875 18.06640625 -27.2578125 36.984375 17.03515625 -26.8046875 41.15625 17.99609375 -24.5234375 33.453125 10.12109375 -15.03515625 49.02734375 17.9375 -20.58203125 53.828125 18.078125 -12.0703125 60.0390625 13.5703125 -8.6171875 62.5390625 13.75390625 -10.5546875 66.63671875 10.48828125 -5.8984375 37.72265625 15.22265625 29.0078125 33.28125 9.8359375 29.265625 27.5546875 10.44921875 30.96484375 30.26953125 4.71484375 27.359375 26.9765625 5.7734375 29.49609375 28.21484375 2.921875 24.4609375 22.80859375 4.40625 25.9921875 24.7890625 2.24609375 18.97265625 15.05859375 4.68359375 21.12109375 56.32421875 24.7421875 -0.00390625 48.9453125 26.47265625 12.578125 59.421875 20.9921875 8.2109375 53.859375 18.51953125 12.28125 56.140625 19.61328125 14.2578125 48.765625 18.34375 20.68359375 49.73828125 19.3671875 23.06640625 48.27734375 14.34765625 -22.68359375 46.203125 4.5078125 -20.3359375 44.26953125 -3.65234375 -12.296875 38.80859375 -2.796875 -9.40234375 44.72265625 -6.16015625 -5.62109375 40.4609375 -5.87890625 -0.00390625 44.80859375 -7.0234375 -0.00390625 44.72265625 -6.16015625 5.609375 27.4765625 13.44921875 -32.09375 21.61328125 19.359375 -32.390625 20.296875 13.8515625 -33.46875 14.88671875 21.35546875 -33.0625 13.234375 13.484375 -31.7890625 8.046875 23.79296875 -28.15234375 30.640625 -6.8125 -17.578125 31.5625 -6.796875 -18.76953125 27.82421875 -15.43359375 -19.27734375 27.94921875 -15.51953125 -21.06640625 27.75390625 -20.34765625 -21.08984375 27.0078125 -15.9140625 -23.296875 20.78125 -20.75 -23.27734375 20.9453125 -18.265625 -22.8203125 64.1875 28.23828125 -0.00390625 61.19921875 29.00390625 -0.00390625 60.41015625 28.5 4.4375 57.83203125 26.296875 9.68359375 41.06640625 15.0078125 27.203125 36.38671875 8.58203125 26.78125 48.27734375 14.34765625 22.671875 46.203125 4.5078125 20.32421875 55.21484375 13.234375 14.72265625 50.68359375 0.01953125 11.6171875 59.5234375 7.57421875 8.546875 41.34765625 43.51953125 -11.4453125 30.86328125 46.62109375 -13.40234375 30.90625 47.9609375 -0.00390625 30.86328125 46.62109375 13.390625 22.4140625 44.703125 14.9453125 63.453125 27.72265625 5.328125 22.7890625 15.26171875 -6.640625 24.63671875 16.07421875 -15.4921875 24.74609375 13.6015625 -5.59375 26.203125 14.07421875 -13.12109375 18.72265625 -25.2890625 21.1875 24.08984375 -29.17578125 20.84375 27.78515625 -29.80859375 18.8203125 32.41796875 -29.2890625 16.41796875 20.6015625 -28.51171875 17.38671875 25.83984375 -27.34765625 13.98828125 41.87890625 16.5 -27.640625 41.06640625 15.0078125 -27.21484375 49.51953125 15.81640625 -23.546875 55.21484375 13.234375 -14.734375 50.68359375 0.01953125 -11.62890625 39.7109375 24.21484375 -16.7890625 31.99609375 -27.41015625 11.078125 36.37109375 -25.9609375 7.83984375 39.484375 -24.90625 4.77734375 39.9375 -24.14453125 0 38.35546875 -24.03515625 -4.27734375 6.55859375 10.53125 9.3125 5.3359375 11.171875 19.5078125 10.06640625 6.9609375 19.828125 7.9921875 11.859375 26.09765625 14.43359375 7.84375 27.1640625 13.234375 13.484375 31.77734375 20.7265625 9.046875 31.76953125 20.296875 13.8515625 33.45703125 35.07421875 -1.19921875 -12.94140625 36.26953125 -1.07421875 -15.3828125 31.42578125 -5.703125 -20.25 34.9609375 -0.1484375 -16.8984375 29.56640625 -4.47265625 -20.83203125 32.21484375 -0.0703125 -14.72265625 27.7734375 -4.3203125 -19.46875 41.94921875 19.171875 -27.2890625 48.59375 22.1640625 -22.0859375 49.11328125 21.34375 -23.28515625 55.78515625 22.4453125 -14.609375 24.9296875 -8.30078125 21.6796875 26.28515625 -8.59375 22.9765625 28.7890625 -10.0859375 22.046875 29.56640625 -4.47265625 20.83203125 31.42578125 -5.703125 20.25 34.9609375 -0.1484375 16.8984375 36.26953125 -1.07421875 15.3828125 49.11328125 21.34375 23.2734375 41.94921875 19.171875 27.27734375 4.03515625 25.71484375 -18.27734375 2.7265625 26.4453125 -0.00390625 56.4296875 14.16796875 14.8359375 60.9296875 9.6015625 10.26953125 63.84765625 6.3984375 6.453125 60.9375 6.43359375 -0.00390625 24.9296875 -8.30078125 -21.6796875 26.28515625 -8.59375 -22.9765625 28.7890625 -10.0859375 -22.046875 23.53125 -14.609375 -24.1796875 40.05078125 19.015625 5.046875 50.30078125 24.70703125 9.14453125 41.25390625 20.71484375 14.22265625 22.33203125 16.2890625 0 20.7265625 9.046875 -31.78125 27.5546875 10.44921875 -30.9765625 56.81640625 15.2578125 -14.76171875 56.578125 17.79296875 -13.8046875 54.28515625 23.4609375 -14.14453125 26.9765625 5.7734375 -29.51171875 51.55078125 -1.88671875 -5.90234375 51.80859375 -2.75 -0.00390625 51.55078125 -1.88671875 5.88671875 27.94921875 -15.51953125 21.06640625 27.82421875 -15.43359375 19.27734375 27.21484375 -19.7265625 18.83984375 44.26953125 -3.65234375 12.28515625 35.81640625 1.3828125 21.47265625 41.171875 18.2421875 -25.32421875 41.96875 18.421875 -26.9375 49.73046875 18.2890625 -23.53125 36.03125 16.58984375 26.671875 35.6484375 -27.8203125 13.7109375 31.01953125 -18.703125 -16.5234375 60.92578125 21.34765625 9.2578125 60.84375 22.29296875 4.55859375 6.55859375 10.53125 -9.328125 31.04296875 16.2109375 15.4921875 49.73828125 19.3671875 -23.078125 26.203125 14.07421875 13.12109375 42.94921875 -15.0703125 -6.60546875 39.7421875 -13.96875 5.62890625 35.07421875 -1.19921875 12.94140625 31.5625 -6.796875 18.76953125 30.640625 -6.8125 17.578125 22.41796875 -13.84765625 -22.90625 39.21484375 -23.21484375 0 38.35546875 -24.03515625 4.27734375 27.21484375 -19.7265625 -18.83984375 40.7578125 -13.21875 0 32.21484375 -0.0703125 14.72265625 27.7734375 -4.3203125 19.46875 31.01953125 -18.703125 16.5234375 38.80859375 -2.796875 9.390625 4.66015625 12.00390625 -0.00390625 34.92578125 -25.10546875 -7.31640625 34.92578125 -25.10546875 7.31640625 32.21484375 -0.0703125 -14.734375 31.67578125 -26.140625 10.265625 31.67578125 -26.140625 -10.265625</float_array>
                    <technique_common>
                        <accessor count="396" source="#pointarray0" stride="3">
                            <param name="X" type="float"/>
                            <param name="Y" type="float"/>
                            <param name="Z" type="float"/>
                        </accessor>
                    </technique_common>
                </source>
                <source id="uvs0">
                    <float_array id="uvarray0" count="552">0.6025390625 0.26953125 0.61834716796875 0.29620361328125 0.5989990234375 0.29620361328125 0.62139892578125 0.3172607421875 0.60247802734375 0.3172607421875 0.6119384765625 0.3302001953125 0.5960693359375 0.325927734375 0.5614013671875 0.33453369140625 0.5614013671875 0.3172607421875 0.5267333984375 0.325927734375 0.5203857421875 0.3172607421875 0.51092529296875 0.3302001953125 0.50146484375 0.3172607421875 0.4989013671875 0.3172607421875 0.50213623046875 0.29620361328125 0.50885009765625 0.3172607421875 0.51318359375 0.29620361328125 0.5443115234375 0.29620361328125 0.52557373046875 0.27777099609375 0.5614013671875 0.26544189453125 0.51849365234375 0.2667236328125 0.5614013671875 0.25177001953125 0.520263671875 0.26953125 0.5614013671875 0.25531005859375 0.52386474609375 0.29620361328125 0.5614013671875 0.29620361328125 0.4979248046875 0.4658203125 0.49835205078125 0.451171875 0.4879150390625 0.4620361328125 0.4833984375 0.4481201171875 0.4716796875 0.44805908203125 0.4639892578125 0.4371337890625 0.45623779296875 0.44097900390625 0.42498779296875 0.41802978515625 0.41900634765625 0.444091796875 0.3721923828125 0.42950439453125 0.3721923828125 0.4617919921875 0.31317138671875 0.44000244140625 0.31561279296875 0.4617919921875 0.254150390625 0.4478759765625 0.254150390625 0.46453857421875 0.32183837890625 0.47845458984375 0.39215087890625 0.475341796875 0.43463134765625 0.4617919921875 0.46270751953125 0.451416015625 0.4775390625 0.45941162109375 0.17181396484375 0.2611083984375 0.16497802734375 0.27099609375 0.1561279296875 0.2388916015625 0.1419677734375 0.25115966796875 0.12652587890625 0.23968505859375 0.07745361328125 0.2806396484375 0.0711669921875 0.260498046875 0.0068359375 0.284912109375 0.00701904296875 0.26275634765625 0.00701904296875 0.2236328125 0.037109375 0.21240234375 0.00701904296875 0.2095947265625 0.0089111328125 0.1943359375 0.03961181640625 0.1942138671875 0.07427978515625 0.22186279296875 0.08453369140625 0.20159912109375 0.11187744140625 0.2318115234375 0.12310791015625 0.21539306640625 0.13665771484375 0.22454833984375 0.17413330078125 0.26776123046875 0.1708984375 0.25555419921875 0.16497802734375 0.27593994140625 0.1571044921875 0.2642822265625 0.08929443359375 0.29278564453125 0.0855712890625 0.28143310546875 0.00714111328125 0.29150390625 0.00714111328125 0.27996826171875 0.08184814453125 0.2701416015625 0.13507080078125 0.24517822265625 0.112548828125 0.23114013671875 0.123046875 0.2159423828125 0.0740966796875 0.2213134765625 0.0804443359375 0.21044921875 0.03668212890625 0.2120361328125 0.0382080078125 0.20257568359375 0.00665283203125 0.209716796875 0.0074462890625 0.20135498046875 0.008544921875 0.19427490234375 0.0401611328125 0.1944580078125 0.6519775390625 0.94622802734375 0.58404541015625 0.92919921875 0.5855712890625 0.9202880859375 0.5062255859375 0.9105224609375 0.5062255859375 0.89617919921875 0.58746337890625 0.9041748046875 0.654541015625 0.93353271484375 0.65753173828125 0.91253662109375 0.724609375 0.92144775390625 0.729248046875 0.87921142578125 0.80657958984375 0.9302978515625 0.8026123046875 0.88812255859375 0.86248779296875 0.92919921875 0.8812255859375 0.88751220703125 0.94708251953125 0.91668701171875 0.9124755859375 0.8375244140625 0.97705078125 0.89483642578125 0.95623779296875 0.8375244140625 0.99371337890625 0.875 0.981201171875 0.8375244140625 0.49835205078125 0.4371337890625 0.47900390625 0.43548583984375 0.457763671875 0.40869140625 0.44134521484375 0.41339111328125 0.418701171875 0.40032958984375 0.38433837890625 0.397216796875 0.3656005859375 0.40765380859375 0.317138671875 0.37744140625 0.3104248046875 0.39202880859375 0.254150390625 0.3896484375 0.254150390625 0.40826416015625 0.3125 0.41180419921875 0.9927978515625 0.58892822265625 0.9788818359375 0.5731201171875 0.96636962890625 0.5751953125 0.9542236328125 0.55267333984375 0.94140625 0.555419921875 0.92950439453125 0.5322265625 0.9163818359375 0.53564453125 0.84765625 0.50439453125 0.84136962890625 0.5106201171875 0.80322265625 0.50018310546875 0.80010986328125 0.5064697265625 0.7587890625 0.50225830078125 0.7587890625 0.508544921875 0.79693603515625 0.51373291015625 0.83514404296875 0.51898193359375 0.90386962890625 0.539794921875 0.83203125 0.52740478515625 0.6043701171875 0.2667236328125 0.62066650390625 0.29620361328125 0.6239013671875 0.3172607421875 0.61395263671875 0.33056640625 0.58392333984375 0.33514404296875 0.57611083984375 0.33282470703125 0.5614013671875 0.33282470703125 0.57659912109375 0.32183837890625 0.5614013671875 0.32464599609375 0.54620361328125 0.32183837890625 0.4124755859375 0.38262939453125 0.36785888671875 0.37225341796875 0.37640380859375 0.364501953125 0.32623291015625 0.3525390625 0.32952880859375 0.34112548828125 0.2918701171875 0.33984375 0.99322509765625 0.5914306640625 0.99407958984375 0.602294921875 0.96636962890625 0.58978271484375 0.96014404296875 0.59600830078125 0.93511962890625 0.58770751953125 0.93511962890625 0.6043701171875 0.89141845703125 0.58978271484375 0.91015625 0.61273193359375 0.87261962890625 0.6085205078125 0.9163818359375 0.62310791015625 0.87890625 0.62939453125 0.92266845703125 0.633544921875 0.87261962890625 0.6474609375 0.92889404296875 0.64605712890625 0.8759765625 0.6627197265625 0.7183837890625 0.96136474609375 0.5062255859375 0.85418701171875 0.5914306640625 0.862548828125 0.6624755859375 0.870849609375 0.6624755859375 0.8292236328125 0.7562255859375 0.85003662109375 0.96246337890625 1 0.856201171875 1 0.8143310546875 0.97064208984375 0.7210693359375 0.948486328125 0.59375 0.82086181640625 1 0.95001220703125 0.93121337890625 0.9666748046875 0.88824462890625 0.9752197265625 0.254150390625 0.37493896484375 0.28875732421875 0.36065673828125 0.32330322265625 0.3619384765625 0.29022216796875 0.351318359375 0.07952880859375 0.28729248046875 0.00726318359375 0.29595947265625 0.0072021484375 0.3070068359375 0.08380126953125 0.30072021484375 0.167724609375 0.27752685546875 0.17047119140625 0.28411865234375 0.1766357421875 0.28082275390625 0.97265625 0.610595703125 0.94140625 0.61376953125 0.00665283203125 0.23895263671875 0.145263671875 0.23016357421875 0.9241943359375 0.5633544921875 0.89141845703125 0.55853271484375 0.833984375 0.56158447265625 0.81011962890625 0.579345703125 0.79107666015625 0.55963134765625 0.7606201171875 0.5689697265625 0.76043701171875 0.55908203125 0.46917724609375 0.4617919921875 0.44061279296875 0.4888916015625 0.39373779296875 0.49755859375 0.3375244140625 0.4949951171875 0.79998779296875 0.76251220703125 0.8125 0.75836181640625 0.856201171875 0.8375244140625 0.86871337890625 0.8375244140625 0.254150390625 0.338623046875 0.254150390625 0.35003662109375 0.254150390625 0.35943603515625 0.99212646484375 0.5897216796875 0.94921875 0.57989501953125 0.89923095703125 0.54681396484375 0.8341064453125 0.5465087890625 0.311767578125 0.4263916015625 0.254150390625 0.427001953125 0.53887939453125 0.33514404296875 0.50885009765625 0.33056640625 0.5467529296875 0.33282470703125 0.51690673828125 0.32916259765625 0.50445556640625 0.29620361328125 0.5062255859375 0.920166015625 0.5819091796875 0.93798828125 0.847412109375 0.66326904296875 0.96014404296875 0.633544921875 0.9476318359375 0.62310791015625 0.98516845703125 0.62103271484375 0.71697998046875 0.71044921875 0.731201171875 0.70001220703125 0.83123779296875 0.75 0.74371337890625 0.69171142578125 0.8499755859375 0.737548828125 0.7562255859375 0.683349609375 0.86871337890625 0.72503662109375 0.4703369140625 0.40557861328125 0.426513671875 0.37640380859375 0.38458251953125 0.35595703125 0.9375 0.7708740234375 0.913818359375 0.77947998046875 0.8779296875 0.7933349609375 0.254150390625 0.481201171875 0.29364013671875 0.4964599609375 0.75909423828125 0.5205078125 0.57855224609375 0.29620361328125 0.5972900390625 0.27777099609375 0.60968017578125 0.29620361328125 0.5614013671875 0.33514404296875 0.99066162109375 0.61163330078125 0.08453369140625 0.201904296875 0.4495849609375 0.202880859375 0.3568115234375 0.25689697265625 0.275390625 0.180908203125 0.2767333984375 0.25689697265625 0.278564453125 0.31988525390625 0.357421875 0.32000732421875 0.86248779296875 0.875 0.79998779296875 0.862548828125 0.7587890625 0.49603271484375 0.61395263671875 0.3172607421875 0.48101806640625 0.4029541015625 0.43963623046875 0.37078857421875 0.60589599609375 0.32916259765625 0.1756591796875 0.2686767578125 0.45416259765625 0.27215576171875 0.45458984375 0.32806396484375 0.5062255859375 0.93243408203125 0.5062255859375 0.81671142578125 0.254150390625 0.4915771484375 0.6492919921875 0.9549560546875 0.00714111328125 0.30303955078125 0.84454345703125 0.59393310546875 0.71807861328125 0.9718017578125 0.173583984375 0.263916015625 0.17596435546875 0.269287109375</float_array>
                    <technique_common>
                        <accessor count="276" source="#uvarray0" stride="2">
                            <param name="S" type="float"/>
                            <param name="T" type="float"/>
                        </accessor>
                    </technique_common>
                </source>
                <vertices id="vertices0">
                    <input semantic="POSITION" source="#points0"/>
                </vertices>
                <polylist count="728" material="Material1">
                    <input offset="0" semantic="VERTEX" source="#vertices0"/>
                    <input offset="1" semantic="TEXCOORD" source="#uvs0" set="0"/>
                    <vcount>3 3 3 3 3 3 3 3 3 3 3 3 3 3 3 3 3 3 3 3 3 3 3 3 3 3 3 3 3 3 3 3 3 3 3 3 3 3 3 3 3 3 3 3 3 3 3 3 3 3 3 3 3 3 3 3 3 3 3 3 3 3 3 3 3 3 3 3 3 3 3 3 3 3 3 3 3 3 3 3 3 3 3 3 3 3 3 3 3 3 3 3 3 3 3 3 3 3 3 3 3 3 3 3 3 3 3 3 3 3 3 3 3 3 3 3 3 3 3 3 3 3 3 3 3 3 3 3 3 3 3 3 3 3 3 3 3 3 3 3 3 3 3 3 3 3 3 3 3 3 3 3 3 3 3 3 3 3 3 3 3 3 3 3 3 3 3 3 3 3 3 3 3 3 3 3 3 3 3 3 3 3 3 3 3 3 3 3 3 3 3 3 3 3 3 3 3 3 3 3 3 3 3 3 3 3 3 3 3 3 3 3 3 3 3 3 3 3 3 3 3 3 3 3 3 3 3 3 3 3 3 3 3 3 3 3 3 3 3 3 3 3 3 3 3 3 3 3 3 3 3 3 3 3 3 3 3 3 3 3 3 3 3 3 3 3 3 3 3 3 3 3 3 3 3 3 3 3 3 3 3 3 3 3 3 3 3 3 3 3 3 3 3 3 3 3 3 3 3 3 3 3 3 3 3 3 3 3 3 3 3 3 3 3 3 3 3 3 3 3 3 3 3 3 3 3 3 3 3 3 3 3 3 3 3 3 3 3 3 3 3 3 3 3 3 3 3 3 3 3 3 3 3 3 3 3 3 3 3 3 3 3 3 3 3 3 3 3 3 3 3 3 3 3 3 3 3 3 3 3 3 3 3 3 3 3 3 3 3 3 3 3 3 3 3 3 3 3 3 3 3 3 3 3 3 3 3 3 3 3 3 3 3 3 3 3 3 3 3 3 3 3 3 3 3 3 3 3 3 3 3 3 3 3 3 3 3 3 3 3 3 3 3 3 3 3 3 3 3 3 3 3 3 3 3 3 3 3 3 3 3 3 3 3 3 3 3 3 3 3 3 3 3 3 3 3 3 3 3 3 3 3 3 3 3 3 3 3 3 3 3 3 3 3 3 3 3 3 3 3 3 3 3 3 3 3 3 3 3 3 3 3 3 3 3 3 3 3 3 3 3 3 3 3 3 3 3 3 3 3 3 3 3 3 3 3 3 3 3 3 3 3 3 3 3 3 3 3 3 3 3 3 3 3 3 3 3 3 3 3 3 3 3 3 3 3 3 3 3 3 3 3 3 3 3 3 3 3 3 3 3 3 3 3 3 3 3 3 3 3 3 3 3 3 3 3 3 3 3 3 3 3 3 3 3 3 3 3 3 3 3 3 3 3 3 3 3 3 3 3 3 3 3 3 3 3 3 3 3 3 3 3 3 3 3 3 3 3 3 3 3 3 3 3 3 3 3 3 3 3 3 3 3 3 3 3 3 3 3 3 3 3 3 3 3 3 3 3 3 3 3 3 3 3 3 3 3 3 3 3 3 3 3 3 3 3 3 3 3 3 3 3 3 3 3 3 3 3 3 3 3 3 3 3 3 3 3 3 3 3 3 3 3 3 3 3 3 3 3 3 3 3 3 3 3 3 3 3</vcount>
                    <p>2 2 1 1 0 0 3 3 1 1 2 2 4 4 3 3 2 2 5 5 3 3 4 4 6 6 5 5 4 4 7 7 5 5 6 6 8 8 7 7 6 6 9 9 7 7 8 8 10 10 9 9 8 8 11 11 9 9 10 10 12 12 11 11 10 10 13 13 11 11 12 12 14 14 13 13 12 12 15 15 13 13 14 14 16 16 15 15 14 14 17 17 15 15 16 16 18 18 17 17 16 16 19 19 17 17 18 18 20 20 19 19 18 18 21 21 19 19 20 20 22 22 21 21 20 20 23 23 21 21 22 22 24 24 23 23 22 22 25 25 23 23 24 24 8 8 25 25 24 24 2 2 25 25 8 8 4 4 2 2 8 8 28 28 27 27 26 26 29 29 27 27 28 28 30 30 29 29 28 28 31 31 29 29 30 30 32 32 31 31 30 30 33 33 31 31 32 32 34 34 33 33 32 32 35 35 33 33 34 34 36 36 35 35 34 34 37 37 35 35 36 36 38 38 37 37 36 36 39 39 37 37 38 38 40 40 39 39 38 38 41 38 39 39 40 40 42 41 41 38 40 40 43 36 41 38 42 41 44 42 43 36 42 41 45 34 43 36 44 42 46 43 45 34 44 42 47 32 45 34 46 43 48 44 47 32 46 43 49 30 47 32 48 44 50 45 49 30 48 44 51 28 49 30 50 45 54 48 53 47 52 46 55 49 53 47 54 48 56 50 55 49 54 48 57 51 55 49 56 50 58 52 57 51 56 50 59 53 57 51 58 52 60 54 59 53 58 52 61 52 59 53 60 54 62 55 61 52 60 54 63 56 61 52 62 55 64 57 63 56 62 55 65 58 63 56 64 57 66 56 65 58 64 57 67 59 65 58 66 56 68 60 67 59 66 56 69 61 67 59 68 60 70 62 69 61 68 60 71 63 69 61 70 62 56 50 71 63 70 62 72 64 71 63 56 50 54 48 72 64 56 50 75 67 74 66 73 65 76 68 74 66 75 67 77 69 76 68 75 67 78 70 76 68 77 69 79 71 78 70 77 69 80 72 78 70 79 71 81 70 80 72 79 71 82 73 80 72 81 70 83 74 82 73 81 70 84 75 82 73 83 74 85 76 84 75 83 74 86 77 84 75 85 76 87 78 86 77 85 76 88 79 86 77 87 78 89 80 88 79 87 78 90 81 88 79 89 80 91 82 90 81 89 80 92 80 90 81 91 82 93 83 92 80 91 82 94 84 92 80 93 83 97 87 96 86 95 85 98 88 96 86 97 87 99 89 98 88 97 87 100 87 98 88 99 89 101 90 100 87 99 89 102 91 100 87 101 90 103 92 102 91 101 90 104 93 102 91 103 92 105 94 104 93 103 92 106 95 104 93 105 94 107 96 106 95 105 94 108 97 106 95 107 96 109 98 108 97 107 96 110 99 108 97 109 98 111 100 110 99 109 98 112 101 110 99 111 100 113 102 112 101 111 100 114 103 112 101 113 102 115 104 114 103 113 102 29 29 116 105 27 27 117 106 116 105 29 29 31 31 117 106 29 29 118 107 117 106 31 31 119 108 118 107 31 31 120 109 118 107 119 108 33 33 120 109 119 108 121 110 120 109 33 33 122 111 121 110 33 33 123 112 121 110 122 111 124 113 123 112 122 111 125 114 123 112 124 113 126 115 125 114 124 113 127 113 125 114 126 115 128 116 127 113 126 115 129 111 127 113 128 116 130 35 129 111 128 116 131 33 129 111 130 35 132 119 54 118 52 117 72 120 54 118 132 119 133 121 72 120 132 119 71 122 72 120 133 121 134 123 71 122 133 121 69 124 71 122 134 123 135 125 69 124 134 123 67 126 69 124 135 125 136 127 67 126 135 125 137 128 67 126 136 127 138 129 137 128 136 127 139 127 137 128 138 129 140 130 139 127 138 129 141 125 139 127 140 130 142 131 141 125 140 130 143 132 141 125 142 131 144 133 143 132 142 131 0 0 21 21 23 23 145 134 21 21 0 0 1 1 145 134 0 0 146 135 145 134 1 1 3 3 146 135 1 1 147 136 146 135 3 3 5 5 147 136 3 3 148 137 147 136 5 5 149 138 148 137 5 5 150 139 148 137 149 138 151 140 150 139 149 138 152 141 150 139 151 140 153 142 152 141 151 140 154 25 152 141 153 142 155 143 154 25 153 142 17 17 154 25 155 143 156 27 51 28 52 26 157 29 51 28 156 27 73 105 157 29 156 27 158 106 157 29 73 105 159 107 158 106 73 105 160 31 158 106 159 107 161 108 160 31 159 107 131 33 160 31 161 108 162 109 131 33 161 108 163 110 131 33 162 109 164 144 163 110 162 109 165 145 163 110 164 144 166 146 165 145 164 144 167 147 165 145 166 146 168 148 167 147 166 146 94 149 167 147 168 148 169 152 28 151 26 150 170 153 28 151 169 152 171 154 170 153 169 152 172 155 170 153 171 154 173 156 172 155 171 154 174 157 172 155 173 156 175 158 174 157 173 156 176 159 174 157 175 158 177 160 176 159 175 158 178 161 176 159 177 160 179 162 178 161 177 160 180 163 178 161 179 162 181 164 180 163 179 162 183 91 95 85 182 165 97 87 95 85 183 91 184 90 97 87 183 91 99 89 97 87 184 90 185 166 99 89 184 90 101 90 99 89 185 166 186 167 101 90 185 166 103 92 101 90 186 167 187 168 103 92 186 167 105 94 103 92 187 168 188 169 105 94 187 168 189 170 105 94 188 169 192 173 191 172 190 171 182 165 191 172 192 173 193 174 182 165 192 173 183 91 182 165 193 174 194 93 183 91 193 174 195 92 183 91 194 93 196 94 195 92 194 93 197 168 195 92 196 94 198 169 197 168 196 94 199 175 197 168 198 169 202 177 201 176 200 99 190 171 201 176 202 177 203 178 190 171 202 177 192 173 190 171 203 178 204 97 192 173 203 178 205 95 192 173 204 97 206 96 205 95 204 97 196 94 205 95 206 96 207 170 196 94 206 96 198 169 196 94 207 170 208 112 127 113 129 111 125 114 127 113 208 112 209 179 125 114 208 112 123 112 125 114 209 179 210 180 123 112 209 179 211 181 123 112 210 180 212 182 211 181 210 180 213 147 211 181 212 182 214 149 213 147 212 182 215 148 213 147 214 149 57 51 53 47 55 49 216 183 53 47 57 51 217 184 216 183 57 51 218 185 216 183 217 184 219 183 218 185 217 184 220 186 218 185 219 183 221 187 220 186 219 183 222 188 220 186 221 187 116 189 222 188 221 187 224 47 223 48 26 46 225 49 223 48 224 47 226 51 225 49 224 47 227 50 225 49 226 51 61 52 227 50 226 51 228 62 227 50 61 52 229 60 228 62 61 52 230 61 228 62 229 60 231 59 230 61 229 60 51 151 232 152 52 150 233 153 232 152 51 151 234 190 233 153 51 151 235 155 233 153 234 190 236 191 235 155 234 190 237 157 235 155 236 191 238 159 237 157 236 191 239 158 237 157 238 159 240 160 239 158 238 159 241 192 80 72 82 73 242 73 80 72 241 192 243 77 242 73 241 192 244 75 242 73 243 77 245 76 244 75 243 77 246 74 244 75 245 76 247 193 246 74 245 76 76 68 246 74 247 193 74 66 76 68 247 193 249 195 171 154 248 194 173 156 171 154 249 195 250 196 173 156 249 195 251 197 173 156 250 196 252 198 251 197 250 196 253 199 251 197 252 198 254 200 253 199 252 198 255 198 253 199 254 200 256 45 30 30 28 28 257 44 30 30 256 45 258 201 257 44 256 45 259 43 257 44 258 201 260 202 259 43 258 201 261 42 259 43 260 202 180 203 261 42 260 202 181 204 261 42 180 203 264 207 263 206 262 205 265 208 263 206 264 207 266 98 265 208 264 207 267 100 265 208 266 98 200 99 267 100 266 98 268 101 267 100 200 99 201 176 268 101 200 99 269 103 268 101 201 176 212 182 93 209 214 149 270 210 93 209 212 182 210 180 270 210 212 182 271 211 270 210 210 180 209 179 271 211 210 180 272 180 271 211 209 179 208 112 272 180 209 179 273 181 272 180 208 112 232 152 132 119 52 212 274 213 132 119 232 152 275 154 274 213 232 152 276 194 274 213 275 154 277 195 276 194 275 154 278 214 276 194 277 195 279 215 278 214 277 195 280 133 278 214 279 215 35 35 122 111 33 33 281 116 122 111 35 35 282 216 281 116 35 35 283 217 281 116 282 216 39 39 283 217 282 216 284 216 283 217 39 39 285 37 284 216 39 39 130 35 284 216 285 37 163 110 129 111 131 33 208 112 129 111 163 110 165 145 208 112 163 110 273 181 208 112 165 145 167 147 273 181 165 145 286 182 273 181 167 147 94 149 286 182 167 147 93 209 286 182 94 149 11 11 7 7 9 9 287 218 7 7 11 11 288 219 287 218 11 11 289 220 287 218 288 219 290 221 289 220 288 219 155 143 289 220 290 221 15 15 155 143 290 221 17 17 155 143 15 15 291 176 112 101 114 103 110 99 112 101 291 176 292 177 110 99 291 176 108 97 110 99 292 177 293 178 108 97 292 177 294 173 108 97 293 178 295 171 294 173 293 178 296 172 294 173 295 171 297 119 169 152 26 212 298 213 169 152 297 119 299 121 298 213 297 119 248 194 298 213 299 121 300 214 248 194 299 121 249 195 248 194 300 214 301 215 249 195 300 214 250 196 249 195 301 215 24 24 10 10 8 8 12 12 10 10 24 24 302 222 12 12 24 24 14 14 12 12 302 222 20 20 14 14 302 222 16 16 14 14 20 20 18 18 16 16 20 20 304 85 102 91 303 165 100 87 102 91 304 85 305 86 100 87 304 85 98 88 100 87 305 86 306 223 98 88 305 86 96 86 98 88 306 223 307 224 96 86 306 223 131 33 47 32 160 31 45 34 47 32 131 33 130 35 45 34 131 33 43 36 45 34 130 35 285 37 43 36 130 35 41 38 43 36 285 37 39 39 41 38 285 37 310 162 309 164 308 225 311 163 309 164 310 162 312 161 311 163 310 162 313 226 311 163 312 161 314 227 313 226 312 161 315 228 313 226 314 227 234 190 315 228 314 227 263 206 316 229 262 205 317 230 316 229 263 206 318 231 317 230 263 206 319 232 317 230 318 231 320 233 319 232 318 231 321 234 319 232 320 233 322 235 321 234 320 233 118 107 116 105 117 106 323 236 116 105 118 107 324 144 323 236 118 107 325 237 323 236 324 144 326 146 325 237 324 144 85 238 325 237 326 146 215 148 85 238 326 146 113 102 327 239 115 104 328 240 327 239 113 102 329 241 328 240 113 102 330 233 328 240 329 241 331 231 330 233 329 241 332 232 330 233 331 231 333 230 332 232 331 231 166 146 245 238 168 148 334 237 245 238 166 146 164 144 334 237 166 146 335 236 334 237 164 144 159 107 335 236 164 144 73 105 335 236 159 107 128 116 284 216 130 35 283 217 284 216 128 116 126 115 283 217 128 116 281 116 283 217 126 115 124 113 281 116 126 115 122 111 281 116 124 113 336 41 38 38 36 36 40 40 38 38 336 41 337 242 40 40 336 41 42 41 40 40 337 242 308 243 42 41 337 242 309 204 42 41 308 243 278 214 133 121 276 194 338 132 133 121 278 214 280 133 338 132 278 214 339 131 338 132 280 133 340 130 339 131 280 133 135 125 339 131 340 130 140 130 144 133 142 131 341 244 144 133 140 130 138 129 341 244 140 130 340 130 341 244 138 129 136 127 340 130 138 129 135 125 340 130 136 127 320 233 342 239 322 235 343 240 342 239 320 233 344 241 343 240 320 233 345 102 343 240 344 241 267 100 345 102 344 241 268 101 345 102 267 100 19 19 154 25 17 17 346 245 154 25 19 19 347 246 346 245 19 19 348 247 346 245 347 246 145 134 348 247 347 246 146 135 348 247 145 134 7 7 149 138 5 5 349 248 149 138 7 7 287 218 349 248 7 7 151 140 349 248 287 218 289 220 151 140 287 218 155 143 151 140 289 220 260 226 178 161 180 163 350 227 178 161 260 226 258 228 350 227 260 226 351 190 350 227 258 228 256 249 351 190 258 228 28 151 351 190 256 249 300 214 144 133 301 215 143 132 144 133 300 214 299 121 143 132 300 214 352 123 143 132 299 121 353 122 352 123 299 121 230 124 352 123 353 122 326 146 213 147 215 148 354 145 213 147 326 146 324 144 354 145 326 146 121 110 354 145 324 144 120 109 121 110 324 144 350 227 176 159 178 161 355 191 176 159 350 227 351 190 355 191 350 227 172 155 355 191 351 190 170 153 172 155 351 190 314 227 236 191 234 190 238 159 236 191 314 227 312 161 238 159 314 227 240 160 238 159 312 161 310 162 240 160 312 161 313 202 44 42 311 203 46 43 44 42 313 202 315 201 46 43 313 202 48 44 46 43 315 201 50 45 48 44 315 201 215 250 87 78 85 76 89 80 87 78 215 250 214 84 89 80 215 250 91 82 89 80 214 84 93 83 91 82 214 84 341 253 356 252 144 251 357 254 356 252 341 253 358 252 357 254 341 253 254 255 357 254 358 252 255 256 254 255 358 252 111 100 329 241 113 102 359 208 329 241 111 100 109 98 359 208 111 100 360 207 359 208 109 98 361 257 360 207 109 98 277 195 362 196 279 215 363 156 362 196 277 195 275 154 363 156 277 195 235 155 363 156 275 154 233 153 235 155 275 154 220 69 81 70 79 71 364 68 81 70 220 69 222 67 364 68 220 69 365 66 364 68 222 67 116 65 365 66 222 67 353 63 228 62 230 61 227 50 228 62 353 63 366 64 227 50 353 63 223 48 227 50 366 64 86 77 82 73 84 75 241 192 82 73 86 77 88 79 241 192 86 77 90 81 241 192 88 79 77 186 216 183 218 185 367 187 216 183 77 186 75 188 367 187 77 186 73 189 367 187 75 188 303 165 294 173 296 172 368 174 294 173 303 165 102 91 368 174 303 165 104 93 368 174 102 91 266 98 204 97 200 99 206 96 204 97 266 98 369 258 206 96 266 98 207 170 206 96 369 258 137 128 65 259 67 126 231 126 65 259 137 128 139 127 231 126 137 128 141 125 231 126 139 127 243 77 370 78 245 76 371 79 370 78 243 77 241 192 371 79 243 77 90 81 371 79 241 192 261 42 36 36 34 34 336 41 36 36 261 42 181 204 336 41 261 42 372 243 336 41 181 204 346 245 152 141 154 25 373 260 152 141 346 245 348 247 373 260 346 245 146 135 373 260 348 247 323 236 365 261 116 105 374 262 365 261 323 236 325 237 374 262 323 236 85 238 374 262 325 237 147 136 373 260 146 135 375 263 373 260 147 136 148 137 375 263 147 136 150 139 375 263 148 137 195 92 184 90 183 91 376 167 184 90 195 92 197 168 376 167 195 92 199 175 376 167 197 168 364 68 83 74 81 70 374 193 83 74 364 68 365 66 374 193 364 68 377 175 186 167 185 166 187 168 186 167 377 175 188 169 187 168 377 175 13 13 288 219 11 11 290 221 288 219 13 13 15 15 290 221 13 13 58 52 62 55 60 54 66 56 62 55 58 52 68 60 66 56 58 52 272 180 270 210 271 211 286 182 270 210 272 180 273 181 286 182 272 180 224 47 219 183 226 51 221 187 219 183 224 47 27 264 221 187 224 47 226 51 59 53 61 52 217 184 59 53 226 51 219 183 217 184 226 51 356 252 301 265 144 251 250 266 301 265 356 252 252 256 250 266 356 252 379 206 378 229 333 230 380 205 378 229 379 206 360 207 380 205 379 206 379 206 329 241 359 208 331 231 329 241 379 206 333 230 331 231 379 206 63 56 229 60 61 52 231 59 229 60 63 56 65 58 231 59 63 56 370 78 168 250 245 76 94 84 168 250 370 78 92 80 94 84 370 78 338 132 134 123 133 121 135 125 134 123 338 132 339 131 135 125 338 132 160 31 157 29 158 106 49 30 157 29 160 31 47 32 49 30 160 31 345 102 342 239 343 240 381 104 342 239 345 102 269 103 381 104 345 102 306 223 382 267 307 224 383 224 382 267 306 223 305 86 383 224 306 223 344 241 265 208 267 100 263 206 265 208 344 241 318 231 263 206 344 241 246 74 242 73 244 75 78 70 242 73 246 74 76 68 78 70 246 74 141 125 230 124 231 126 352 123 230 124 141 125 143 132 352 123 141 125 384 257 266 98 264 207 369 258 266 98 384 257 202 177 204 97 203 178 200 99 204 97 202 177 376 167 185 166 184 90 199 175 185 166 376 167 194 93 205 95 196 94 193 174 205 95 194 93 385 268 185 166 199 175 377 175 185 166 385 268 295 171 292 177 291 176 293 178 292 177 295 171 386 234 330 233 332 232 387 235 330 233 386 234 109 98 388 258 361 257 107 96 388 258 109 98 294 173 106 95 108 97 368 174 106 95 294 173 327 239 330 233 387 235 328 240 330 233 327 239 189 170 107 96 105 94 388 258 107 96 189 170 92 80 371 79 90 81 370 78 371 79 92 80 280 251 358 252 341 253 279 265 358 252 280 251 254 255 356 252 357 254 252 256 356 252 254 255 362 266 358 252 279 265 255 256 358 252 362 266 2 2 23 23 25 25 0 0 23 23 2 2 22 22 302 222 24 24 20 20 302 222 22 22 145 134 19 19 21 21 347 246 19 19 145 134 375 263 152 141 373 260 150 139 152 141 375 263 355 191 174 157 176 159 172 155 174 157 355 191 366 120 299 121 297 119 353 122 299 121 366 120 367 187 53 47 216 183 156 264 53 47 367 187 247 262 334 237 335 236 245 238 334 237 247 262 74 261 335 236 73 105 247 262 335 236 74 261 255 198 389 197 253 199 362 196 389 197 255 198 298 213 171 154 169 152 248 194 171 154 298 213 372 243 337 242 336 41 390 269 337 242 372 243 309 204 44 42 42 41 311 203 44 42 309 204 259 43 34 34 32 32 261 42 34 34 259 43 257 44 32 32 30 30 259 43 32 32 257 44 237 157 363 156 235 155 239 158 363 156 237 157 274 213 133 121 132 119 276 194 133 121 274 213 223 118 297 119 26 117 366 120 297 119 223 118 50 249 234 190 51 151 315 228 234 190 50 249 70 62 58 52 56 50 68 60 58 52 70 62 96 86 391 270 95 85 307 224 391 270 96 86 305 86 392 270 383 224 304 85 392 270 305 86 162 109 159 107 164 144 161 108 159 107 162 109 218 271 79 71 77 69 220 69 79 71 218 271 393 272 173 156 251 197 175 158 173 156 393 272 37 37 282 216 35 35 39 39 282 216 37 37 123 112 354 145 121 110 211 181 354 145 123 112 386 272 363 156 239 158 389 197 363 156 386 272 269 103 345 102 268 101 351 190 28 151 170 153 344 241 320 233 318 231 181 164 179 162 372 225 4 4 8 8 6 6 83 74 374 193 85 76 62 55 66 56 64 57 394 273 392 270 303 165 296 172 394 273 303 165 363 156 389 197 362 196 395 273 182 165 391 270 155 143 153 142 151 140 149 138 349 248 151 140 191 172 182 165 395 273 303 165 392 270 304 85 182 165 95 85 391 270 27 264 224 47 26 274 78 70 80 72 242 73 31 31 33 33 119 108 57 51 59 53 217 184 286 182 93 209 270 210 51 28 157 29 49 30 106 95 368 174 104 93 354 145 211 181 213 147 205 95 193 174 192 173 308 243 337 242 390 269 156 264 52 274 53 47 227 50 223 48 225 49 118 107 120 109 324 144 275 154 232 152 233 153 360 207 379 206 359 208 116 189 221 187 27 275 340 130 280 133 341 244 73 189 156 275 367 187</p>
                </polylist>
            </mesh>
        </geometry>
    </library_geometries>
    <library_visual_scenes>
        <visual_scene id="VisualSceneNode">
            <node id="node0" name="m0" type="NODE">
                <instance_geometry url="#mesh0">
                    <bind_material>
                        <technique_common>
                            <instance_material symbol="Material1" target="#mat0">
                                <bind_vertex_input semantic="UVSET0" input_semantic="TEXCOORD" input_set="0"></bind_vertex_input>
                            </instance_material>
                        </technique_common>
                    </bind_material>
                </instance_geometry>
            </node>
        </visual_scene>
    </library_visual_scenes>
    <scene>
        <instance_visual_scene url="#VisualSceneNode"></instance_visual_scene>
    </scene>
</COLLADA>
