<?xml version="1.0"?>
<COLLADA xmlns="http://www.collada.org/2005/11/COLLADASchema" version="1.4.1">
    <asset>
        <contributor>
            <authoring_tool>J3D Ripoff Exporter</authoring_tool>
        </contributor>
        <created>2024-08-02T13:57:28.048Z</created>
        <modified>2024-08-02T13:57:28.048Z</modified>
		<unit meter="0.01" name="centimeter" ></unit>
        <up_axis>Y_UP</up_axis>
    </asset>
    <library_images>
        <image id="tex0">
            <init_from>donkey_all.png</init_from>
        </image>
        <image id="tex1">
            <init_from>donkey_all.png</init_from>
        </image>
    </library_images>
    <library_effects>
        <effect id="effect0">
            <profile_COMMON>
                <newparam sid="surface0">
                    <surface type="2D">
                        <init_from>tex1</init_from>
                    </surface>
                </newparam>
                <newparam sid="sampler0">
                    <sampler2D>
                        <source>surface0</source>
                    </sampler2D>
                </newparam>
                <technique sid="COMMON">
                    <blinn>
                        <diffuse>
                            <texture texture="sampler0" texcoord="UVSET0"></texture>
                        </diffuse>
                    </blinn>
                </technique>
            </profile_COMMON>
        </effect>
    </library_effects>
    <library_materials>
        <material id="mat0" name="Dummy">
            <instance_effect url="#effect0"></instance_effect>
        </material>
    </library_materials>
    <library_geometries>
        <geometry id="mesh0">
            <mesh>
                <source id="points0">
                    <float_array id="pointarray0" count="1890">49.77734375 35.890625 -14.4609375 52.31640625 40.66796875 -9.03125 48.31640625 36.21875 -9.54296875 53.56640625 43.69921875 0 46.85546875 36.19921875 0 48.35546875 36.23046875 9.54296875 42.94921875 33.078125 0 43.55859375 32.38671875 11.84375 34.23828125 31.76953125 0 34.625 31.07421875 12.734375 25.92578125 32.9453125 10.76171875 23.6953125 30.953125 15.671875 22.0859375 32.796875 0 21.20703125 27.4765625 6.9921875 21.47265625 31.55078125 0 21.31640625 22.98828125 0 21.20703125 27.4765625 -6.9921875 21.16796875 22.0234375 -5.88671875 23.15625 26.9375 -16.3125 22.7265625 20.26171875 -13.8125 35.25 24.9453125 -19.3984375 34.5546875 20.62890625 -16.3125 45.6875 28.09375 -18.34765625 46.01953125 24.2578125 -15.18359375 52.8203125 34.12890625 -15.05078125 54.20703125 31.078125 -12.25 55.97265625 40.67578125 -9.42578125 58.296875 37.53515625 -7.875 59.4375 40.4140625 0 53.77734375 29.04296875 -6.99609375 52.953125 29.8046875 0 44.85546875 21.62890625 -7.1484375 44.64453125 23.921875 0 33.33984375 21.3359375 0 32.640625 18.7265625 7.09375 21.16796875 22.0234375 5.88671875 23.15625 26.9375 16.3125 35.25 24.9453125 19.3984375 35.2109375 28.68359375 18.60546875 45.6875 28.09375 18.34765625 44.609375 30.8984375 17.609375 52.8203125 34.12890625 15.05078125 49.77734375 35.890625 14.4609375 55.95703125 40.625 9.42578125 52.31640625 40.66796875 9.03125 57.58203125 44.49609375 0 32.953125 9.5859375 29.16015625 31.26171875 10.15234375 30.86328125 30.10546875 15.77734375 29.77734375 28.796875 15.77734375 31.13671875 29.2421875 23.0625 29.0390625 27.328125 24.5 30.4609375 31.07421875 31.7890625 28.28125 28.640625 32.62109375 27.6171875 32.6015625 38.19921875 23.7734375 20.69140625 34.140625 25.96484375 26.84375 40.8671875 21.453125 20.75 42.46484375 19.671875 31.81640625 46.828125 11.65234375 25.3515625 47.40234375 10.98046875 26.6640625 49.29296875 0 17.40625 46.80078125 0 25.3515625 47.40234375 -10.98046875 17.5859375 45.140625 -10.9609375 20.75 42.46484375 -19.671875 12.17578125 34.84375 -21.984375 20.69140625 34.140625 -25.96484375 11.16796875 23.6875 -27.1015625 17.37109375 24.5390625 -29.3125 13.41796875 15.90234375 -29.54296875 19.33203125 16.53515625 -31.35546875 21.26171875 11.4296875 -31.0078125 28.09375 11.140625 -31.8359375 34.71484375 -11.9921875 15.6953125 38.9140625 -15.4609375 12.359375 34.734375 -15.47265625 12.359375 38.921875 -16.69140625 7.9609375 34.7421875 -16.74609375 7.8046875 38.9140625 -15.4609375 3.5625 34.734375 -15.47265625 3.25 38.89453125 -12.1015625 0.34375 34.71484375 -11.9921875 -0.078125 38.8671875 -7.5078125 -0.828125 34.6875 -7.234375 -1.30078125 38.83984375 -2.9140625 0.34375 34.66015625 -2.4765625 -0.078125 38.8203125 0.44140625 3.5625 34.640625 1 3.25 38.8125 1.671875 7.9609375 34.6328125 2.27734375 7.8046875 38.8203125 0.44140625 12.359375 34.640625 1 12.359375 38.83984375 -2.9140625 15.578125 34.66015625 -2.4765625 15.6953125 38.8671875 -7.5078125 16.75390625 34.6875 -7.234375 16.9140625 38.89453125 -12.1015625 15.578125 31.125 -11.63671875 15.16796875 31.14453125 -14.89453125 12.05859375 31.1484375 -16.0859375 7.8046875 31.14453125 -14.89453125 3.5546875 31.125 -11.63671875 0.44140625 31.09765625 -7.18359375 -0.69140625 31.0703125 -2.734375 0.44140625 31.05078125 0.51953125 3.5546875 31.04296875 1.71484375 7.8046875 31.05078125 0.51953125 12.05859375 31.0703125 -2.734375 15.16796875 31.09765625 -7.18359375 16.30859375 42.51171875 -14.16015625 11.37109375 42.515625 -15.1484375 7.90234375 42.51171875 -14.16015625 4.43359375 42.49609375 -11.46484375 1.89453125 42.47265625 -7.78125 0.96484375 42.453125 -4.09765625 1.89453125 42.4375 -1.3984375 4.43359375 42.4296875 -0.4140625 7.90234375 42.4375 -1.3984375 11.37109375 42.453125 -4.09765625 13.91015625 42.47265625 -7.78125 14.83984375 42.49609375 -11.46484375 13.91015625 44.9375 -3.8203125 5.51171875 44.93359375 -3.13671875 7.90234375 44.9375 -3.8203125 10.29296875 44.94921875 -5.67578125 12.04296875 44.96484375 -8.21484375 12.68359375 44.98046875 -10.75390625 12.04296875 44.98828125 -12.61328125 10.29296875 44.9921875 -13.29296875 7.90234375 44.98828125 -12.61328125 5.51171875 44.98046875 -10.75390625 3.76171875 44.96484375 -8.21484375 3.12109375 44.94921875 -5.67578125 3.76171875 45.890625 -10.71484375 9.0546875 45.89453125 -11.05859375 7.83203125 45.890625 -10.71484375 6.609375 45.88671875 -9.78125 5.71484375 45.87890625 -8.50390625 5.38671875 45.87109375 -7.2265625 5.71484375 45.86328125 -6.29296875 6.609375 45.86328125 -5.94921875 7.83203125 45.86328125 -6.29296875 9.0546875 45.87109375 -7.2265625 9.94921875 45.87890625 -8.50390625 10.27734375 45.88671875 -9.78125 9.94921875 35.22265625 -15.515625 -12.3828125 39.42578125 -15.4140625 -12.3828125 35.203125 -12.015625 -15.734375 39.40625 -12.03515625 -15.6171875 35.17578125 -7.234375 -16.9609375 39.37890625 -7.41796875 -16.80078125 35.1484375 -2.453125 -15.734375 39.3515625 -2.80078125 -15.6171875 35.12890625 1.046875 -12.3828125 39.33203125 0.57421875 -12.3828125 35.12109375 2.328125 -7.8046875 39.32421875 1.8125 -7.9609375 35.12890625 1.046875 -3.2265625 39.33203125 0.57421875 -3.5390625 35.1484375 -2.453125 0.12109375 39.3515625 -2.80078125 -0.3046875 35.17578125 -7.234375 1.34765625 39.37890625 -7.41796875 0.875 35.203125 -12.015625 0.12109375 39.40625 -12.03515625 -0.3046875 35.22265625 -15.515625 -3.2265625 39.42578125 -15.4140625 -3.5390625 35.23046875 -16.796875 -7.8046875 39.43359375 -16.6484375 -7.9609375 31.19921875 1.4375 -7.8046875 31.20703125 0.28125 -3.6875 31.2265625 -2.87109375 -0.66796875 31.25390625 -7.1875 0.4296875 31.28125 -11.5 -0.66796875 31.296875 -14.65625 -3.6875 31.3046875 -15.8125 -7.8046875 31.296875 -14.65625 -11.92578125 31.28125 -11.5 -14.94140625 31.25390625 -7.1875 -16.046875 31.2265625 -2.87109375 -14.94140625 31.20703125 0.28125 -11.92578125 42.96484375 -1.04296875 -11.390625 42.9609375 -0.05078125 -7.90234375 42.96484375 -1.04296875 -4.4140625 42.98046875 -3.75390625 -1.86328125 43.00390625 -7.45703125 -0.9296875 43.0234375 -11.16015625 -1.86328125 43.04296875 -13.87109375 -4.4140625 43.046875 -14.86328125 -7.90234375 43.0390625 -13.87109375 -11.390625 43.0234375 -11.16015625 -13.9453125 43.00390625 -7.45703125 -14.87890625 42.98046875 -3.75390625 -13.9453125 45.53125 -12.04296875 -10.3046875 45.5234375 -10.17578125 -12.06640625 45.5078125 -7.62109375 -12.7109375 45.4921875 -5.0703125 -12.06640625 45.48046875 -3.203125 -10.3046875 45.4765625 -2.51953125 -7.90234375 45.48046875 -3.203125 -5.5 45.4921875 -5.0703125 -3.73828125 45.5078125 -7.62109375 -3.09765625 45.5234375 -10.17578125 -3.73828125 45.53125 -12.04296875 -5.5 45.53515625 -12.7265625 -7.90234375 46.4375 -10.13671875 -9.0625 46.43359375 -9.1953125 -9.9609375 46.42578125 -7.91015625 -10.2890625 46.41796875 -6.62890625 -9.9609375 46.4140625 -5.6875 -9.0625 46.41015625 -5.34375 -7.83203125 46.4140625 -5.6875 -6.6015625 46.41796875 -6.62890625 -5.703125 46.42578125 -7.91015625 -5.375 46.43359375 -9.1953125 -5.703125 46.4375 -10.13671875 -6.6015625 46.44140625 -10.48046875 -7.83203125 40.25390625 11.5546875 27.75 32.98046875 9.97265625 25.50390625 30.23046875 15.91015625 26.296875 29.6015625 22.46484375 25.79296875 32.53125 30.6953125 27.15625 32.43359375 29.66015625 24.3359375 36.26953125 35.5703125 24.2265625 35.62109375 34.265625 20.80859375 40.87890625 40.328125 19.33203125 39.98046875 38.49609375 15.61328125 43.18359375 41.3515625 10.515625 32.62109375 41 12.81640625 36.33984375 44.796875 0 26.51171875 41.08984375 0 32.62109375 41 -12.81640625 18.19140625 29.0546875 -23.01171875 35.62109375 34.265625 -20.80859375 32.43359375 29.66015625 -24.3359375 36.26953125 35.5703125 -24.2265625 32.53125 30.6953125 -27.15625 40.41796875 9.9765625 27.87109375 47.53125 11.4765625 25.78515625 47.4921875 9.65234375 25.3359375 55.5546875 10.4921875 21.078125 55.30078125 8.5859375 20.7265625 61.25390625 9.7421875 14.85546875 60.9765625 7.6171875 14.39453125 64.4375 9.29296875 7.3515625 64.1015625 7.234375 7.16015625 65.4296875 7.15625 0 62.9609375 6.27734375 0 64.1015625 7.234375 -7.16015625 61.5625 6.3359375 -6.26171875 60.9765625 7.6171875 -14.39453125 58.66796875 6.796875 -13.42578125 53.2890625 7.43359375 -19.73828125 57.13671875 5.87109375 -11.546875 51.2578125 7.15625 -19.08984375 44.33984375 1.90625 -20.39453125 46.375 8.17578125 -23.015625 39.91015625 3.44140625 -25.42578125 34.7578125 37.48828125 24.42578125 39.30078125 42.23046875 19.578125 44.44140625 43.83203125 13.0859375 42.66015625 45.62890625 13.2578125 46.28125 45.75 6.4453125 44.609375 47.703125 6.515625 46.8828125 46.41796875 0 45.1328125 48.23046875 0 44.609375 47.703125 -6.515625 41.953125 47.01171875 -5.2578125 40.49609375 45.59765625 -11.5546875 31.81640625 46.828125 -11.65234375 37.0859375 42.37890625 -17.484375 26.84375 40.8671875 -21.453125 32.6015625 38.19921875 -23.7734375 28.640625 32.62109375 -27.6171875 22.7734375 26.01953125 -30.3203125 27.328125 24.5 -30.4609375 27.21484375 -19.62890625 -18.83984375 27.75390625 -20.25 -21.08984375 31.01953125 -20.078125 -16.5234375 32.5625 -21.2421875 -19.5078125 34.08203125 -19.0859375 -14.46875 36.59375 -20.22265625 -16.3359375 37.61328125 -16.90625 -10.7109375 40.4453125 -18.375 -12.19140625 39.7421875 -15.54296875 -5.62890625 42.94921875 -16.73828125 -6.60546875 43.50390625 -16 0 44.171875 -21.3984375 -6.8359375 44.8203125 -20.6171875 0 42.53515625 -25.296875 -5.7890625 43.4140625 -24.390625 0 39.484375 -26.57421875 -4.77734375 39.9375 -25.8125 0 38.35546875 -24.03515625 -4.27734375 39.21484375 -23.21484375 0 8.37109375 15.62890625 -25.32421875 5.23046875 23.58203125 -22.8515625 4.7578125 15.50390625 -17.58203125 2.33984375 23.80859375 -15.1484375 0.8515625 24.17578125 0 2.83203125 33.83203125 0 2.33984375 23.80859375 15.1484375 5.3984375 33.02734375 13.32421875 5.23046875 23.58203125 22.8515625 12.17578125 34.84375 21.984375 11.16796875 23.6875 27.1015625 17.37109375 24.5390625 29.3125 22.7734375 26.01953125 30.3203125 24.72265625 16.19140625 31.75 37.0859375 42.37890625 17.484375 40.49609375 45.59765625 11.5546875 41.953125 47.01171875 5.2578125 42.58984375 47.6796875 0 34.18359375 49.2265625 0 29.6015625 22.46484375 -25.79296875 30.23046875 15.91015625 -26.296875 16.5859375 18.765625 -25.19921875 23.86328125 9.80859375 -23.22265625 11.71484375 16.47265625 0 17.640625 6.859375 0 23.86328125 9.80859375 23.22265625 33.3515625 7.0078125 24.09765625 39.47265625 12.12890625 24.4765625 45.78515625 12.5 22.56640625 38.35546875 -24.03515625 4.27734375 39.484375 -26.57421875 4.77734375 42.53515625 -25.296875 5.7890625 44.171875 -21.3984375 6.8359375 42.94921875 -16.73828125 6.60546875 39.7421875 -15.54296875 5.62890625 40.4453125 -18.375 12.19140625 37.61328125 -16.90625 10.7109375 36.59375 -20.22265625 16.3359375 20.78125 -20.75 23.27734375 24.1328125 -24.26953125 23.19140625 18.72265625 -25.2890625 21.1875 24.08984375 -28.74609375 20.84375 20.6015625 -28.51171875 17.38671875 28.24609375 -30.4375 18.8203125 32.41796875 -30.390625 16.41796875 30.390625 -26.2421875 21.109375 33.90234375 -26.1015625 19.13671875 32.5625 -21.2421875 19.5078125 34.08203125 -19.0859375 14.46875 46.28125 45.75 -6.4453125 42.66015625 45.62890625 -13.2578125 44.44140625 43.83203125 -13.0859375 39.30078125 42.23046875 -19.578125 40.87890625 40.328125 -19.33203125 34.7578125 37.48828125 -24.42578125 31.07421875 31.7890625 -28.28125 29.2421875 23.0625 -29.0390625 23.6953125 30.953125 -15.671875 35.2109375 28.68359375 -18.60546875 44.609375 30.8984375 -17.609375 10.06640625 6.63671875 18.99609375 15.703125 5.453125 25.60546875 15.05859375 4.62890625 20.38671875 24.6484375 0.890625 24.9140625 25.1875 1.20703125 18.46875 30.96875 -0.9765625 23.16015625 36.87890625 -1.5078125 19.765625 32.953125 0.4296875 26.4296875 39.91015625 3.44140625 25.42578125 35.48046875 4.78515625 28.765625 36.33984375 7.9609375 28.5625 32.953125 9.5859375 -29.16015625 35.48046875 4.78515625 -28.765625 36.33984375 7.9609375 -28.5625 40.0234375 8.7734375 -25.984375 47.4921875 9.65234375 -25.3359375 55.30078125 8.5859375 -20.7265625 61.25390625 9.7421875 -14.85546875 64.4375 9.29296875 -7.3515625 40.0234375 8.7734375 25.984375 46.375 8.17578125 23.015625 44.33984375 1.90625 20.39453125 51.2578125 7.15625 19.08984375 57.13671875 5.87109375 11.546875 53.2890625 7.43359375 19.73828125 58.66796875 6.796875 13.42578125 36.37109375 -27.62890625 -7.83984375 39.3671875 -27.44140625 -10.390625 31.99609375 -29.078125 -11.078125 35.6484375 -29.48828125 -13.7109375 32.41796875 -30.390625 -16.41796875 33.90234375 -26.1015625 -19.13671875 30.390625 -26.2421875 -21.109375 6.55859375 10.53125 8.8828125 7.2578125 10.8984375 18.578125 11.38671875 10.51953125 24.46484375 15.07421875 10.65625 29.35546875 22.453125 4.625 30.30078125 21.26171875 11.4296875 31.0078125 30.65234375 6.51953125 30.39453125 28.09375 11.140625 31.8359375 35.07421875 -1.19921875 -12.94140625 36.26953125 -1.07421875 -15.3828125 31.5625 -6.796875 -18.76953125 31.42578125 -5.703125 -20.25 28.7890625 -10.0859375 -22.046875 29.56640625 -4.47265625 -20.83203125 26.28515625 -8.59375 -22.9765625 24.9296875 -8.30078125 -21.6796875 23.53125 -14.609375 -24.1796875 22.41796875 -13.84765625 -22.90625 20.9453125 -18.265625 -22.8203125 53.77734375 29.04296875 6.99609375 44.85546875 21.62890625 7.1484375 46.01953125 24.2578125 15.18359375 34.5546875 20.62890625 16.3125 22.7265625 20.26171875 13.8125 20.9453125 -18.265625 22.8203125 23.53125 -14.609375 24.1796875 27.0078125 -15.9140625 23.296875 28.7890625 -10.0859375 22.046875 27.94921875 -15.51953125 21.06640625 31.5625 -6.796875 18.76953125 27.82421875 -15.43359375 19.27734375 30.640625 -6.8125 17.578125 53.3984375 4.609375 0 44.19921875 4.65625 17.6484375 43.46875 2.0703125 0 31.21875 3.34765625 0 44.19921875 4.65625 -17.6484375 33.3515625 7.0078125 -24.09765625 45.78515625 12.5 -22.56640625 39.47265625 12.12890625 -24.4765625 40.25390625 11.5546875 -27.75 32.98046875 9.97265625 -25.50390625 31.26171875 10.15234375 -30.86328125 30.65234375 6.51953125 -30.39453125 32.953125 0.4296875 -26.4296875 27.81640625 1.8359375 -29.08984375 30.96875 -0.9765625 -23.16015625 24.6484375 0.890625 -24.9140625 25.1875 1.20703125 -18.46875 15.05859375 4.62890625 -20.38671875 22.41796875 -13.84765625 22.90625 24.9296875 -8.30078125 21.6796875 26.28515625 -8.59375 22.9765625 29.56640625 -4.47265625 20.83203125 31.42578125 -5.703125 20.25 36.26953125 -1.07421875 15.3828125 30.10546875 15.77734375 -29.77734375 47.53125 11.4765625 -25.78515625 55.5546875 10.4921875 -21.078125 52.40625 11.86328125 -18.125 56.83984375 11.27734375 -13.4453125 59.5078125 10.7890625 -6.625 44.2734375 42.89453125 5.1328125 44.875 43.4140625 0 44.2734375 42.89453125 -5.1328125 32.640625 18.7265625 -7.09375 43.890625 -3.84765625 12.3984375 38.80859375 -2.46484375 9.390625 44.48828125 -6.375 5.61328125 40.40234375 -5.93359375 0 44.6015625 -7.21484375 0 44.48828125 -6.375 -5.61328125 22.453125 4.625 -30.30078125 15.07421875 10.65625 -29.35546875 15.703125 5.453125 -25.60546875 11.38671875 10.51953125 -24.46484375 10.06640625 6.63671875 -18.99609375 54.20703125 31.078125 12.25 58.296875 37.53515625 7.875 56.83984375 11.27734375 13.4453125 59.5078125 10.7890625 6.625 60.59375 10.69921875 0 65.77734375 9.11328125 0 52.40625 11.86328125 18.125 8.58984375 38.73046875 11.7265625 7.5234375 40.1640625 0 8.58984375 38.73046875 -11.7265625 37.8125 -25.21875 -16.33984375 41.703125 -23.10546875 -12.26953125 41.703125 -23.10546875 12.26953125 37.8125 -25.21875 16.33984375 35.6484375 -29.48828125 13.7109375 31.99609375 -29.078125 11.078125 36.37109375 -27.62890625 7.83984375 39.3671875 -27.44140625 10.390625 27.0078125 -15.9140625 -23.296875 27.94921875 -15.51953125 -21.06640625 27.82421875 -15.43359375 -19.27734375 50.27734375 -0.5390625 12.11328125 51.1796875 -2.40625 5.89453125 60.77734375 5.3984375 0 51.45703125 -3.24609375 0 51.1796875 -2.40625 -5.89453125 28.796875 15.77734375 -31.13671875 24.72265625 16.19140625 -31.75 61.5625 6.3359375 6.26171875 25.92578125 32.9453125 -10.76171875 34.625 31.07421875 -12.734375 35.97265625 43.3203125 14.10546875 39.09765625 46.5 0 42.15234375 37.59375 13.7265625 45.94921875 40.4921875 0 46.3515625 38.859375 0 42.15234375 37.59375 -13.7265625 42.60546875 36.03125 -13.09765625 24.1328125 -24.26953125 -23.19140625 24.08984375 -28.74609375 -20.84375 28.24609375 -30.4375 -18.8203125 20.6015625 -28.51171875 -17.38671875 27.81640625 1.8359375 29.08984375 36.87890625 -1.5078125 -19.765625 43.890625 -3.84765625 -12.3984375 50.27734375 -0.5390625 -12.11328125 18.19140625 29.0546875 23.01171875 16.5859375 18.765625 25.19921875 39.98046875 38.49609375 -15.61328125 43.18359375 41.3515625 -10.515625 27.75390625 -20.25 21.08984375 27.77734375 3.2890625 -25.4921875 35.57421875 5.85546875 -25.40625 27.59765625 10.68359375 -25.66796875 35.7578125 12.99609375 -25.92578125 27.63671875 11.765625 -24.8125 35.5625 14.0234375 -25.09375 35.19921875 14.14453125 -20.921875 43.4609375 32.53515625 -11.84375 8.37109375 15.62890625 25.32421875 4.7578125 15.50390625 17.58203125 3.265625 15.4765625 0 4.66015625 12.00390625 0 6.55859375 10.53125 -8.8828125 34.9609375 -0.1484375 16.8984375 32.21484375 -0.0703125 14.72265625 27.7734375 -4.3203125 19.46875 33.078125 28.15234375 18.5234375 24.87890625 20.92578125 20.5546875 34.94921875 29.625 22.12109375 24.33984375 20.89453125 24.7109375 28.39453125 36.140625 22.66796875 19.1015625 25.90625 24.546875 7.2578125 10.8984375 -18.578125 18.0703125 16.51171875 19.0859375 17.96875 16.4765625 22.94140625 15.01171875 20.59375 23.37890625 19.76953125 26.2890625 -20.609375 24.87890625 20.92578125 -20.5546875 15.16015625 20.9765625 -19.515625 18.0703125 16.51171875 -19.0859375 15.01171875 20.59375 -23.37890625 17.96875 16.4765625 -22.94140625 13.41796875 15.90234375 29.54296875 19.33203125 16.53515625 31.35546875 35.10546875 6.0546875 21.8984375 35.19921875 14.14453125 20.921875 28.109375 3.44140625 21.84765625 27.8671875 11.875 20.8515625 27.59765625 10.68359375 25.66796875 27.63671875 11.765625 24.8125 54.3125 14.8828125 13.46484375 59.015625 14.20703125 0 54.890625 13.6796875 14.01171875 59.71875 13.0390625 0 53.8125 6.984375 13.609375 58.37109375 5.92578125 0 13.23046875 28.609375 0 35.5625 14.0234375 25.09375 45.296875 15.26953125 21.59765625 35.7578125 12.99609375 25.92578125 45.640625 14.1484375 22.359375 35.57421875 5.85546875 25.40625 45.01953125 7.453125 21.796875 5.3984375 33.02734375 -13.32421875 17.5859375 45.140625 10.9609375 18.72265625 -25.2890625 -21.1875 20.78125 -20.75 -23.27734375 50.2421875 15.55859375 11.68359375 54.42578125 14.93359375 0 50.2421875 15.55859375 -11.68359375 46.76953125 -7.9765625 -7.83203125 31.01953125 -20.078125 16.5234375 34.9609375 -0.1484375 -16.8984375 32.21484375 -0.0703125 -14.72265625 27.7734375 -4.3203125 -19.46875 46.21875 -8.5703125 7.83203125 32.21484375 0.55078125 -14.72265625 40.41796875 9.9765625 -27.87109375 38.80859375 -2.46484375 -9.390625 49.1328125 8.04296875 -11.12109375 53.21875 7.1171875 0 42.60546875 36.03125 13.09765625 27.77734375 3.2890625 25.4921875 39.57421875 33.3515625 -11.328125 42.96484375 35.6953125 0 39.57421875 33.3515625 11.328125 34.94921875 29.625 -22.12109375 33.078125 28.15234375 -18.5234375 54.890625 13.6796875 -14.01171875 54.3125 14.8828125 -13.46484375 53.8125 6.984375 -13.609375 35.10546875 6.0546875 -21.8984375 28.109375 3.44140625 -21.84765625 27.8671875 11.875 -20.8515625 43.31640625 7.66015625 -18.57421875 43.81640625 15.66796875 -18.1171875 32.50390625 40.16015625 11.328125 34.4765625 43.02734375 0 43.81640625 15.66796875 18.1171875 43.31640625 7.66015625 18.57421875 24.33984375 20.89453125 -24.7109375 45.01953125 7.453125 -21.796875 45.640625 14.1484375 -22.359375 34.92578125 -25.10546875 -7.31640625 34.92578125 -25.10546875 7.31640625 32.50390625 40.16015625 -11.328125 26.55078125 34.09375 -19.0703125 28.39453125 36.140625 -22.66796875 19.1015625 25.90625 -24.546875 40.7578125 -14.88671875 0 30.640625 -6.8125 -17.578125 25.83984375 -27.34765625 13.98828125 27.21484375 -19.62890625 18.83984375 19.76953125 26.2890625 20.609375 26.55078125 34.09375 19.0703125 15.16015625 20.9765625 19.515625 49.1328125 8.04296875 11.12109375 35.07421875 -1.19921875 12.94140625 32.21484375 0.55078125 14.72265625 45.296875 15.26953125 -21.59765625 35.97265625 43.3203125 -14.10546875 25.83984375 -27.34765625 -13.98828125 31.67578125 -26.140625 -10.265625 31.67578125 -26.140625 10.265625</float_array>
                    <technique_common>
                        <accessor count="630" source="#pointarray0" stride="3">
                            <param name="X" type="float"/>
                            <param name="Y" type="float"/>
                            <param name="Z" type="float"/>
                        </accessor>
                    </technique_common>
                </source>
                <source id="uvs0">
                    <float_array id="uvarray0" count="754">0.50445556640625 0.29620361328125 0.520263671875 0.26953125 0.52386474609375 0.29620361328125 0.5614013671875 0.25531005859375 0.5614013671875 0.29620361328125 0.5989990234375 0.29620361328125 0.5614013671875 0.30670166015625 0.6007080078125 0.30670166015625 0.5614013671875 0.3172607421875 0.60247802734375 0.3172607421875 0.5960693359375 0.325927734375 0.6119384765625 0.3302001953125 0.5614013671875 0.33453369140625 0.58392333984375 0.33514404296875 0.5614013671875 0.33514404296875 0.5614013671875 0.33282470703125 0.53887939453125 0.33514404296875 0.5467529296875 0.33282470703125 0.50885009765625 0.33056640625 0.51690673828125 0.32916259765625 0.4989013671875 0.3172607421875 0.50885009765625 0.3172607421875 0.50054931640625 0.30670166015625 0.51104736328125 0.30670166015625 0.50213623046875 0.29620361328125 0.51318359375 0.29620361328125 0.51849365234375 0.2667236328125 0.52557373046875 0.27777099609375 0.5614013671875 0.26544189453125 0.5443115234375 0.29620361328125 0.5452880859375 0.30902099609375 0.5614013671875 0.3104248046875 0.5614013671875 0.32464599609375 0.57659912109375 0.32183837890625 0.57611083984375 0.33282470703125 0.61395263671875 0.33056640625 0.6239013671875 0.3172607421875 0.62139892578125 0.3172607421875 0.622314453125 0.30670166015625 0.619873046875 0.30670166015625 0.62066650390625 0.29620361328125 0.61834716796875 0.29620361328125 0.6043701171875 0.2667236328125 0.6025390625 0.26953125 0.5614013671875 0.25177001953125 0.4979248046875 0.4658203125 0.4879150390625 0.4620361328125 0.49835205078125 0.451171875 0.4833984375 0.4481201171875 0.49835205078125 0.4371337890625 0.47900390625 0.43548583984375 0.4703369140625 0.40557861328125 0.457763671875 0.40869140625 0.4124755859375 0.38262939453125 0.42498779296875 0.41802978515625 0.38433837890625 0.397216796875 0.3656005859375 0.40765380859375 0.317138671875 0.37744140625 0.3104248046875 0.39202880859375 0.254150390625 0.3896484375 0.254150390625 0.40826416015625 0.3125 0.41180419921875 0.3721923828125 0.42950439453125 0.41900634765625 0.444091796875 0.45623779296875 0.44097900390625 0.43463134765625 0.4617919921875 0.46270751953125 0.451416015625 0.46917724609375 0.4617919921875 0.4775390625 0.45941162109375 0.21429443359375 0.1187744140625 0.181396484375 0.1490478515625 0.17718505859375 0.14410400390625 0.13250732421875 0.16168212890625 0.1265869140625 0.15338134765625 0.07177734375 0.1490478515625 0.075927734375 0.14410400390625 0.03167724609375 0.12164306640625 0.03887939453125 0.1187744140625 0.0169677734375 0.0841064453125 0.02532958984375 0.0841064453125 0.03167724609375 0.046630859375 0.03887939453125 0.04949951171875 0.07177734375 0.0191650390625 0.075927734375 0.02410888671875 0.1265869140625 0.0091552734375 0.1265869140625 0.01483154296875 0.181396484375 0.0191650390625 0.17718505859375 0.02410888671875 0.22149658203125 0.046630859375 0.21429443359375 0.04949951171875 0.2362060546875 0.0841064453125 0.22784423828125 0.0841064453125 0.22149658203125 0.12164306640625 0.18731689453125 0.108154296875 0.16168212890625 0.12567138671875 0.1265869140625 0.13214111328125 0.09149169921875 0.12567138671875 0.06585693359375 0.108154296875 0.05645751953125 0.0841064453125 0.06585693359375 0.06011962890625 0.09149169921875 0.04254150390625 0.1265869140625 0.0361328125 0.16168212890625 0.04254150390625 0.18731689453125 0.06011962890625 0.19671630859375 0.0841064453125 0.1505126953125 0.1124267578125 0.1265869140625 0.1168212890625 0.1026611328125 0.1124267578125 0.085205078125 0.1004638671875 0.07879638671875 0.0841064453125 0.085205078125 0.0677490234375 0.1026611328125 0.0557861328125 0.1265869140625 0.0513916015625 0.1505126953125 0.0557861328125 0.16796875 0.0677490234375 0.17437744140625 0.0841064453125 0.16796875 0.1004638671875 0.1600341796875 0.2354736328125 0.16851806640625 0.25091552734375 0.154296875 0.26202392578125 0.173583984375 0.26593017578125 0.1617431640625 0.2716064453125 0.17547607421875 0.2762451171875 0.16876220703125 0.280029296875 0.16961669921875 0.25213623046875 0.1534423828125 0.26275634765625 0.1485595703125 0.22332763671875 0.128173828125 0.238525390625 0.1192626953125 0.20916748046875 0.105224609375 0.2283935546875 0.07275390625 0.2196044921875 0.0718994140625 0.25909423828125 0.0084228515625 0.23895263671875 0.0093994140625 0.26214599609375 0.07891845703125 0.2818603515625 0.9927978515625 0.58892822265625 0.9788818359375 0.5731201171875 0.96636962890625 0.5751953125 0.9542236328125 0.55267333984375 0.94140625 0.555419921875 0.92950439453125 0.5322265625 0.9163818359375 0.53564453125 0.84765625 0.50439453125 0.84136962890625 0.5106201171875 0.80322265625 0.50018310546875 0.80010986328125 0.5064697265625 0.759033203125 0.50225830078125 0.759033203125 0.508544921875 0.79693603515625 0.51373291015625 0.83514404296875 0.51898193359375 0.90386962890625 0.539794921875 0.83203125 0.52740478515625 0.89923095703125 0.54681396484375 0.89141845703125 0.55853271484375 0.9241943359375 0.5633544921875 0.93511962890625 0.58770751953125 0.43963623046875 0.37078857421875 0.426513671875 0.37640380859375 0.38458251953125 0.35595703125 0.37640380859375 0.364501953125 0.32952880859375 0.34112548828125 0.32623291015625 0.3525390625 0.2918701171875 0.33984375 0.29022216796875 0.351318359375 0.254150390625 0.338623046875 0.254150390625 0.35003662109375 0.28875732421875 0.36065673828125 0.32330322265625 0.3619384765625 0.36785888671875 0.37225341796875 0.4639892578125 0.4371337890625 0.86248779296875 0.875 0.8812255859375 0.88751220703125 0.79998779296875 0.862548828125 0.8026123046875 0.88812255859375 0.7562255859375 0.85003662109375 0.729248046875 0.87921142578125 0.6624755859375 0.8292236328125 0.6624755859375 0.870849609375 0.59375 0.82086181640625 0.5914306640625 0.862548828125 0.5062255859375 0.85418701171875 0.58746337890625 0.9041748046875 0.5062255859375 0.89617919921875 0.5855712890625 0.9202880859375 0.5062255859375 0.9105224609375 0.58404541015625 0.92919921875 0.5062255859375 0.920166015625 0.5819091796875 0.93798828125 0.5062255859375 0.93243408203125 0.39215087890625 0.475341796875 0.3721923828125 0.4617919921875 0.32183837890625 0.47845458984375 0.31561279296875 0.4617919921875 0.254150390625 0.46453857421875 0.254150390625 0.4478759765625 0.31317138671875 0.44000244140625 0.4716796875 0.44805908203125 0.254150390625 0.35943603515625 0.254150390625 0.37493896484375 0.08380126953125 0.30072021484375 0.07952880859375 0.28729248046875 0.00897216796875 0.3070068359375 0.009033203125 0.29595947265625 0.07745361328125 0.2806396484375 0.14154052734375 0.25030517578125 0.1282958984375 0.23736572265625 0.14813232421875 0.22381591796875 0.1187744140625 0.20947265625 0.97705078125 0.89483642578125 0.94708251953125 0.91668701171875 1 0.95001220703125 0.93121337890625 0.9666748046875 0.96246337890625 1 0.88824462890625 0.9752197265625 0.8143310546875 0.97064208984375 0.86248779296875 0.92919921875 0.80657958984375 0.9302978515625 0.48101806640625 0.4029541015625 0.51092529296875 0.3302001953125 0.50146484375 0.3172607421875 0.50299072265625 0.30670166015625 0.87261962890625 0.6474609375 0.92266845703125 0.633544921875 0.87890625 0.62939453125 0.9163818359375 0.62310791015625 0.87261962890625 0.6085205078125 0.91015625 0.61273193359375 0.89141845703125 0.58978271484375 0.93511962890625 0.6043701171875 0.96014404296875 0.59600830078125 0.96636962890625 0.58978271484375 0.9918212890625 0.59075927734375 0.94921875 0.57989501953125 0.99212646484375 0.5897216796875 0.6519775390625 0.94622802734375 0.654541015625 0.93353271484375 0.7183837890625 0.96136474609375 0.7210693359375 0.948486328125 0.847412109375 0.66326904296875 0.8759765625 0.6627197265625 0.92889404296875 0.64605712890625 0.96014404296875 0.633544921875 0.9476318359375 0.62310791015625 0.98516845703125 0.62103271484375 0.97265625 0.610595703125 0.99066162109375 0.61163330078125 0.99407958984375 0.602294921875 0.71697998046875 0.71044921875 0.731201171875 0.70001220703125 0.8125 0.75836181640625 0.83123779296875 0.75 0.8779296875 0.7933349609375 0.8499755859375 0.737548828125 0.913818359375 0.77947998046875 0.9375 0.7708740234375 0.95623779296875 0.8375244140625 0.981201171875 0.8375244140625 0.99371337890625 0.875 0.57855224609375 0.29620361328125 0.57757568359375 0.30902099609375 0.61181640625 0.30670166015625 0.61395263671875 0.3172607421875 0.60589599609375 0.32916259765625 0.9124755859375 0.8375244140625 0.86871337890625 0.8375244140625 0.856201171875 0.8375244140625 0.79998779296875 0.76251220703125 0.0087890625 0.2236328125 0.0711669921875 0.260498046875 0.0087890625 0.26275634765625 0.00860595703125 0.284912109375 0.99322509765625 0.5914306640625 0.94140625 0.61376953125 0.10589599609375 0.22955322265625 0.0765380859375 0.1998291015625 0.0726318359375 0.21990966796875 0.03802490234375 0.19891357421875 0.03619384765625 0.21337890625 0.0758056640625 0.2012939453125 0.0357666015625 0.21343994140625 0.0084228515625 0.2135009765625 0.0377197265625 0.19940185546875 0.54620361328125 0.32183837890625 0.833984375 0.56158447265625 0.81011962890625 0.579345703125 0.79107666015625 0.55963134765625 0.7606201171875 0.5689697265625 0.76043701171875 0.55908203125 0.60968017578125 0.29620361328125 0.5972900390625 0.27777099609375 0.0087890625 0.21337890625 0.00836181640625 0.19757080078125 0.311767578125 0.4263916015625 0.254150390625 0.427001953125 0.724609375 0.92144775390625 0.65753173828125 0.91253662109375 0.45416259765625 0.27215576171875 0.4495849609375 0.202880859375 0.3568115234375 0.25689697265625 0.275390625 0.180908203125 0.2767333984375 0.25689697265625 0.278564453125 0.31988525390625 0.357421875 0.32000732421875 0.75909423828125 0.5205078125 0.5267333984375 0.325927734375 0.5203857421875 0.3172607421875 0.50372314453125 0.2479248046875 0.623291015625 0.25177001953125 0.50372314453125 0.17230224609375 0.623291015625 0.17230224609375 0.623291015625 0.17120361328125 0.50372314453125 0.17120361328125 0.8341064453125 0.5465087890625 0.0836181640625 0.30084228515625 0.5614013671875 0.21441650390625 0.50482177734375 0.22021484375 0.5614013671875 0.1859130859375 0.50482177734375 0.1859130859375 0.5614013671875 0.17889404296875 0.50482177734375 0.17889404296875 0.50482177734375 0.16845703125 0.5220947265625 0.30670166015625 0.3375244140625 0.4949951171875 0.29364013671875 0.4964599609375 0.254150390625 0.481201171875 0.254150390625 0.4915771484375 0.74371337890625 0.69171142578125 0.7562255859375 0.683349609375 0.86871337890625 0.72503662109375 0.623291015625 0.16845703125 0.50372314453125 0.16845703125 0.623291015625 0.22381591796875 0.50372314453125 0.217529296875 0.759033203125 0.49603271484375 0.44061279296875 0.4888916015625 0.39373779296875 0.49755859375 0.5614013671875 0.16845703125 0.5614013671875 0.17230224609375 0.623291015625 0.217529296875 0.5614013671875 0.21173095703125 0.623291015625 0.21710205078125 0.5614013671875 0.2119140625 0.5614013671875 0.17120361328125 0.50482177734375 0.2198486328125 0.5614013671875 0.21466064453125 0.623291015625 0.17889404296875 0.623291015625 0.1859130859375 0.6229248046875 0.2275390625 0.504150390625 0.23138427734375 0.00897216796875 0.29150390625 0.00897216796875 0.306396484375 0.623291015625 0.22021484375 0.50482177734375 0.21929931640625 0.623291015625 0.21929931640625 0.50482177734375 0.2275390625 0.45458984375 0.32806396484375 0.1265869140625 0.0841064453125 0.84454345703125 0.59393310546875 0.623291015625 0.22509765625 0.504150390625 0.228515625 0.50372314453125 0.22381591796875 0.623291015625 0.2479248046875 0.623291015625 0.2198486328125 0.50482177734375 0.2177734375 0.623291015625 0.2177734375 0.50482177734375 0.22509765625 0.50372314453125 0.2454833984375 0.623291015625 0.2489013671875 0.00799560546875 0.197509765625 0.6492919921875 0.9549560546875 0.623291015625 0.2454833984375 0.50372314453125 0.2222900390625 0.5062255859375 0.81671142578125 0.623291015625 0.2222900390625 0.50372314453125 0.21710205078125 0.856201171875 1 0.71807861328125 0.9718017578125</float_array>
                    <technique_common>
                        <accessor count="377" source="#uvarray0" stride="2">
                            <param name="S" type="float"/>
                            <param name="T" type="float"/>
                        </accessor>
                    </technique_common>
                </source>
                <vertices id="vertices0">
                    <input semantic="POSITION" source="#points0"/>
                </vertices>
                <polylist count="1126" material="Material1">
                    <input offset="0" semantic="VERTEX" source="#vertices0"/>
                    <input offset="1" semantic="TEXCOORD" source="#uvs0" set="0"/>
                    <vcount>3 3 3 3 3 3 3 3 3 3 3 3 3 3 3 3 3 3 3 3 3 3 3 3 3 3 3 3 3 3 3 3 3 3 3 3 3 3 3 3 3 3 3 3 3 3 3 3 3 3 3 3 3 3 3 3 3 3 3 3 3 3 3 3 3 3 3 3 3 3 3 3 3 3 3 3 3 3 3 3 3 3 3 3 3 3 3 3 3 3 3 3 3 3 3 3 3 3 3 3 3 3 3 3 3 3 3 3 3 3 3 3 3 3 3 3 3 3 3 3 3 3 3 3 3 3 3 3 3 3 3 3 3 3 3 3 3 3 3 3 3 3 3 3 3 3 3 3 3 3 3 3 3 3 3 3 3 3 3 3 3 3 3 3 3 3 3 3 3 3 3 3 3 3 3 3 3 3 3 3 3 3 3 3 3 3 3 3 3 3 3 3 3 3 3 3 3 3 3 3 3 3 3 3 3 3 3 3 3 3 3 3 3 3 3 3 3 3 3 3 3 3 3 3 3 3 3 3 3 3 3 3 3 3 3 3 3 3 3 3 3 3 3 3 3 3 3 3 3 3 3 3 3 3 3 3 3 3 3 3 3 3 3 3 3 3 3 3 3 3 3 3 3 3 3 3 3 3 3 3 3 3 3 3 3 3 3 3 3 3 3 3 3 3 3 3 3 3 3 3 3 3 3 3 3 3 3 3 3 3 3 3 3 3 3 3 3 3 3 3 3 3 3 3 3 3 3 3 3 3 3 3 3 3 3 3 3 3 3 3 3 3 3 3 3 3 3 3 3 3 3 3 3 3 3 3 3 3 3 3 3 3 3 3 3 3 3 3 3 3 3 3 3 3 3 3 3 3 3 3 3 3 3 3 3 3 3 3 3 3 3 3 3 3 3 3 3 3 3 3 3 3 3 3 3 3 3 3 3 3 3 3 3 3 3 3 3 3 3 3 3 3 3 3 3 3 3 3 3 3 3 3 3 3 3 3 3 3 3 3 3 3 3 3 3 3 3 3 3 3 3 3 3 3 3 3 3 3 3 3 3 3 3 3 3 3 3 3 3 3 3 3 3 3 3 3 3 3 3 3 3 3 3 3 3 3 3 3 3 3 3 3 3 3 3 3 3 3 3 3 3 3 3 3 3 3 3 3 3 3 3 3 3 3 3 3 3 3 3 3 3 3 3 3 3 3 3 3 3 3 3 3 3 3 3 3 3 3 3 3 3 3 3 3 3 3 3 3 3 3 3 3 3 3 3 3 3 3 3 3 3 3 3 3 3 3 3 3 3 3 3 3 3 3 3 3 3 3 3 3 3 3 3 3 3 3 3 3 3 3 3 3 3 3 3 3 3 3 3 3 3 3 3 3 3 3 3 3 3 3 3 3 3 3 3 3 3 3 3 3 3 3 3 3 3 3 3 3 3 3 3 3 3 3 3 3 3 3 3 3 3 3 3 3 3 3 3 3 3 3 3 3 3 3 3 3 3 3 3 3 3 3 3 3 3 3 3 3 3 3 3 3 3 3 3 3 3 3 3 3 3 3 3 3 3 3 3 3 3 3 3 3 3 3 3 3 3 3 3 3 3 3 3 3 3 3 3 3 3 3 3 3 3 3 3 3 3 3 3 3 3 3 3 3 3 3 3 3 3 3 3 3 3 3 3 3 3 3 3 3 3 3 3 3 3 3 3 3 3 3 3 3 3 3 3 3 3 3 3 3 3 3 3 3 3 3 3 3 3 3 3 3 3 3 3 3 3 3 3 3 3 3 3 3 3 3 3 3 3 3 3 3 3 3 3 3 3 3 3 3 3 3 3 3 3 3 3 3 3 3 3 3 3 3 3 3 3 3 3 3 3 3 3 3 3 3 3 3 3 3 3 3 3 3 3 3 3 3 3 3 3 3 3 3 3 3 3 3 3 3 3 3 3 3 3 3 3 3 3 3 3 3 3 3 3 3 3 3 3 3 3 3 3 3 3 3 3 3 3 3 3 3 3 3 3 3 3 3 3 3 3 3 3 3 3 3 3 3 3 3 3 3 3 3 3 3 3 3 3 3 3 3 3 3 3 3 3 3 3 3 3 3 3 3 3 3 3 3 3 3 3 3 3 3 3 3 3 3 3 3 3 3 3 3 3 3 3 3 3 3 3 3 3 3 3 3 3 3 3 3 3 3 3 3 3 3 3 3 3 3 3 3 3 3 3 3 3 3 3 3 3 3 3 3 3 3 3 3 3 3 3 3 3 3 3 3 3 3 3 3 3 3 3 3 3 3 3 3 3 3 3 3 3 3 3 3 3 3 3 3 3 3 3 3 3 3 3 3 3 3 3 3 3 3 3 3 3 3 3 3 3 3 3 3 3 3 3 3 3 3 3 3 3 3 3 3 3 3 3 3 3 3 3 3 3 3 3 3 3 3 3 3 3 3 3 3 3 3 3 3 3 3 3 3 3 3 3 3 3 3 3 3 3 3 3 3 3 3 3 3 3 3 3 3 3 3 3 3 3 3 3 3 3 3 3 3 3 3 3 3 3 3 3 3 3 3</vcount>
                    <p>2 2 1 1 0 0 3 3 1 1 2 2 4 4 3 3 2 2 5 5 3 3 4 4 6 6 5 5 4 4 7 7 5 5 6 6 8 8 7 7 6 6 9 9 7 7 8 8 10 10 9 9 8 8 11 11 9 9 10 10 12 12 11 11 10 10 13 13 11 11 12 12 14 14 13 13 12 12 15 15 13 13 14 14 16 16 15 15 14 14 17 17 15 15 16 16 18 18 17 17 16 16 19 19 17 17 18 18 20 20 19 19 18 18 21 21 19 19 20 20 22 22 21 21 20 20 23 23 21 21 22 22 24 24 23 23 22 22 25 25 23 23 24 24 26 26 25 25 24 24 27 27 25 25 26 26 28 28 27 27 26 26 29 29 27 27 28 28 30 4 29 29 28 28 31 30 29 29 30 4 32 31 31 30 30 4 33 32 31 30 32 31 34 33 33 32 32 31 15 15 33 32 34 33 35 34 15 15 34 33 13 13 15 15 35 34 36 35 13 13 35 34 11 11 13 13 36 35 37 36 11 11 36 35 38 37 11 11 37 36 39 38 38 37 37 36 40 39 38 37 39 38 41 40 40 39 39 38 42 41 40 39 41 40 43 42 42 41 41 40 44 43 42 41 43 42 45 44 44 43 43 42 3 3 44 43 45 44 1 1 3 3 45 44 48 47 47 46 46 45 49 48 47 46 48 47 50 49 49 48 48 47 51 50 49 48 50 49 52 51 51 50 50 49 53 52 51 50 52 51 54 53 53 52 52 51 55 54 53 52 54 53 56 55 55 54 54 53 57 56 55 54 56 55 58 57 57 56 56 55 59 58 57 56 58 57 60 59 59 58 58 57 61 60 59 58 60 59 62 58 61 60 60 59 63 61 61 60 62 58 64 56 63 61 62 58 65 62 63 61 64 56 66 54 65 62 64 56 67 63 65 62 66 54 68 64 67 63 66 54 69 65 67 63 68 64 70 66 69 65 68 64 71 67 69 65 70 66 72 68 71 67 70 66 75 71 74 70 73 69 76 72 74 70 75 71 77 73 76 72 75 71 78 74 76 72 77 73 79 75 78 74 77 73 80 76 78 74 79 75 81 77 80 76 79 75 82 78 80 76 81 77 83 79 82 78 81 77 84 80 82 78 83 79 85 81 84 80 83 79 86 82 84 80 85 81 87 83 86 82 85 81 88 84 86 82 87 83 89 85 88 84 87 83 90 86 88 84 89 85 91 87 90 86 89 85 92 88 90 86 91 87 93 89 92 88 91 87 94 90 92 88 93 89 95 91 94 90 93 89 96 92 94 90 95 91 73 69 96 92 95 91 74 70 96 92 73 69 98 94 75 71 97 93 77 73 75 71 98 94 99 95 77 73 98 94 79 75 77 73 99 95 100 96 79 75 99 95 81 77 79 75 100 96 101 97 81 77 100 96 83 79 81 77 101 97 102 98 83 79 101 97 85 81 83 79 102 98 103 99 85 81 102 98 87 83 85 81 103 99 104 100 87 83 103 99 89 85 87 83 104 100 105 101 89 85 104 100 91 87 89 85 105 101 106 102 91 87 105 101 93 89 91 87 106 102 107 103 93 89 106 102 95 91 93 89 107 103 108 104 95 91 107 103 73 69 95 91 108 104 97 93 73 69 108 104 75 71 73 69 97 93 74 70 109 71 96 92 110 73 109 71 74 70 76 72 110 73 74 70 111 75 110 73 76 72 78 74 111 75 76 72 112 77 111 75 78 74 80 76 112 77 78 74 113 79 112 77 80 76 82 78 113 79 80 76 114 81 113 79 82 78 84 80 114 81 82 78 115 83 114 81 84 80 86 82 115 83 84 80 116 85 115 83 86 82 88 84 116 85 86 82 117 87 116 85 88 84 90 86 117 87 88 84 118 89 117 87 90 86 92 88 118 89 90 86 119 91 118 89 92 88 94 90 119 91 92 88 120 69 119 91 94 90 96 92 120 69 94 90 109 71 120 69 96 92 115 83 121 100 114 81 122 101 121 100 115 83 116 85 122 101 115 83 123 102 122 101 116 85 117 87 123 102 116 85 124 103 123 102 117 87 118 89 124 103 117 87 125 104 124 103 118 89 119 91 125 104 118 89 126 93 125 104 119 91 120 69 126 93 119 91 127 94 126 93 120 69 109 71 127 94 120 69 128 95 127 94 109 71 110 73 128 95 109 71 129 96 128 95 110 73 111 75 129 96 110 73 130 97 129 96 111 75 112 77 130 97 111 75 131 98 130 97 112 77 113 79 131 98 112 77 132 99 131 98 113 79 114 81 132 99 113 79 121 100 132 99 114 81 127 94 133 105 126 93 134 106 133 105 127 94 128 95 134 106 127 94 135 107 134 106 128 95 129 96 135 107 128 95 136 108 135 107 129 96 130 97 136 108 129 96 137 109 136 108 130 97 131 98 137 109 130 97 138 110 137 109 131 98 132 99 138 110 131 98 139 111 138 110 132 99 121 100 139 111 132 99 140 112 139 111 121 100 122 101 140 112 121 100 141 113 140 112 122 101 123 102 141 113 122 101 142 114 141 113 123 102 124 103 142 114 123 102 143 115 142 114 124 103 125 104 143 115 124 103 144 116 143 115 125 104 126 93 144 116 125 104 133 105 144 116 126 93 147 69 146 70 145 71 148 92 146 70 147 69 149 91 148 92 147 69 150 90 148 92 149 91 151 89 150 90 149 91 152 88 150 90 151 89 153 87 152 88 151 89 154 86 152 88 153 87 155 85 154 86 153 87 156 84 154 86 155 85 157 83 156 84 155 85 158 82 156 84 157 83 159 81 158 82 157 83 160 80 158 82 159 81 161 79 160 80 159 81 162 78 160 80 161 79 163 77 162 78 161 79 164 76 162 78 163 77 165 75 164 76 163 77 166 74 164 76 165 75 167 73 166 74 165 75 168 72 166 74 167 73 145 71 168 72 167 73 146 70 168 72 145 71 170 100 155 85 169 101 157 83 155 85 170 100 171 99 157 83 170 100 159 81 157 83 171 99 172 98 159 81 171 99 161 79 159 81 172 98 173 97 161 79 172 98 163 77 161 79 173 97 174 96 163 77 173 97 165 75 163 77 174 96 175 95 165 75 174 96 167 73 165 75 175 95 176 94 167 73 175 95 145 71 167 73 176 94 177 93 145 71 176 94 147 69 145 71 177 93 178 104 147 69 177 93 149 91 147 69 178 104 179 103 149 91 178 104 151 89 149 91 179 103 180 102 151 89 179 103 153 87 151 89 180 102 169 101 153 87 180 102 155 85 153 87 169 101 156 84 181 87 154 86 182 85 181 87 156 84 158 82 182 85 156 84 183 83 182 85 158 82 160 80 183 83 158 82 184 81 183 83 160 80 162 78 184 81 160 80 185 79 184 81 162 78 164 76 185 79 162 78 186 77 185 79 164 76 166 74 186 77 164 76 187 75 186 77 166 74 168 72 187 75 166 74 188 73 187 75 168 72 146 70 188 73 168 72 189 71 188 73 146 70 148 92 189 71 146 70 190 69 189 71 148 92 150 90 190 69 148 92 191 91 190 69 150 90 152 88 191 91 150 90 192 89 191 91 152 88 154 86 192 89 152 88 181 87 192 89 154 86 190 69 193 94 189 71 194 93 193 94 190 69 191 91 194 93 190 69 195 104 194 93 191 91 192 89 195 104 191 91 196 103 195 104 192 89 181 87 196 103 192 89 197 102 196 103 181 87 182 85 197 102 181 87 198 101 197 102 182 85 183 83 198 101 182 85 199 100 198 101 183 83 184 81 199 100 183 83 200 99 199 100 184 81 185 79 200 99 184 81 201 98 200 99 185 79 186 77 201 98 185 79 202 97 201 98 186 77 187 75 202 97 186 77 203 96 202 97 187 75 188 73 203 96 187 75 204 95 203 96 188 73 189 71 204 95 188 73 193 94 204 95 189 71 194 93 205 105 193 94 206 116 205 105 194 93 195 104 206 116 194 93 207 115 206 116 195 104 196 103 207 115 195 104 208 114 207 115 196 103 197 102 208 114 196 103 209 113 208 114 197 102 198 101 209 113 197 102 210 112 209 113 198 101 199 100 210 112 198 101 211 111 210 112 199 100 200 99 211 111 199 100 212 110 211 111 200 99 201 98 212 110 200 99 213 109 212 110 201 98 202 97 213 109 201 98 214 108 213 109 202 97 203 96 214 108 202 97 215 107 214 108 203 96 204 95 215 107 203 96 216 106 215 107 204 95 193 94 216 106 204 95 205 105 216 106 193 94 218 119 46 118 217 117 48 120 46 118 218 119 219 121 48 120 218 119 50 122 48 120 219 121 220 123 50 122 219 121 221 124 50 122 220 123 222 125 221 124 220 123 223 126 221 124 222 125 224 127 223 126 222 125 225 128 223 126 224 127 226 129 225 128 224 127 227 130 225 128 226 129 228 131 227 130 226 129 229 132 227 130 228 131 230 133 229 132 228 131 231 131 229 132 230 133 232 134 231 131 230 133 233 127 231 131 232 134 234 125 233 127 232 134 235 126 233 127 234 125 236 124 235 126 234 125 237 137 217 136 46 135 238 138 217 136 237 137 239 139 238 138 237 137 240 140 238 138 239 139 241 141 240 140 239 139 242 142 240 140 241 141 243 143 242 142 241 141 244 144 242 142 243 143 245 145 244 144 243 143 246 146 244 144 245 145 247 147 246 146 245 145 248 145 246 146 247 147 249 148 248 145 247 147 250 143 248 145 249 148 251 149 250 143 249 148 252 150 250 143 251 149 253 151 252 150 251 149 254 152 252 150 253 151 255 153 254 152 253 151 256 154 254 152 255 153 257 155 256 154 255 153 225 158 258 157 223 156 259 159 258 157 225 158 260 160 259 159 225 158 261 161 259 159 260 160 262 162 261 161 260 160 263 163 261 161 262 162 264 164 263 163 262 162 265 165 263 163 264 164 266 163 265 165 264 164 267 166 265 165 266 163 268 167 267 166 266 163 269 57 267 166 268 167 270 168 269 57 268 167 271 55 269 57 270 168 272 53 271 55 270 168 66 54 271 55 272 53 273 52 66 54 272 53 274 169 66 54 273 52 275 50 274 169 273 52 278 172 277 171 276 170 279 173 277 171 278 172 280 174 279 173 278 172 281 175 279 173 280 174 282 176 281 175 280 174 283 177 281 175 282 176 284 178 283 177 282 176 285 179 283 177 284 178 286 180 285 179 284 178 287 181 285 179 286 180 288 182 287 181 286 180 289 183 287 181 288 182 290 184 289 183 288 182 291 185 289 183 290 184 292 186 291 185 290 184 293 187 291 185 292 186 294 188 293 187 292 186 295 189 67 63 69 65 296 190 67 63 295 189 297 191 296 190 295 189 298 192 296 190 297 191 299 193 298 192 297 191 300 194 298 192 299 193 301 192 300 194 299 193 302 195 300 194 301 192 303 190 302 195 301 192 304 62 302 195 303 190 305 63 304 62 303 190 55 54 304 62 305 63 306 64 55 54 305 63 307 169 55 54 306 64 308 196 307 169 306 64 258 157 52 51 223 156 54 53 52 51 258 157 259 159 54 53 258 157 309 168 54 53 259 159 261 161 309 168 259 159 310 167 309 168 261 161 263 163 310 167 261 161 311 166 310 167 263 163 265 165 311 166 263 163 312 197 311 166 265 165 267 166 312 197 265 165 313 198 312 197 267 166 269 57 313 198 267 166 60 59 313 198 269 57 62 58 60 59 269 57 316 199 315 121 314 123 317 200 315 121 316 199 318 201 317 200 316 199 319 202 317 200 318 201 320 200 319 202 318 201 321 203 319 202 320 200 218 119 321 203 320 200 322 204 321 203 218 119 217 117 322 204 218 119 323 205 322 204 217 117 238 206 323 205 217 117 240 207 323 205 238 206 292 186 324 187 294 188 325 185 324 187 292 186 290 184 325 185 292 186 326 183 325 185 290 184 288 182 326 183 290 184 327 181 326 183 288 182 286 180 327 181 288 182 328 179 327 181 286 180 329 178 328 179 286 180 330 177 328 179 329 178 331 176 330 177 329 178 332 175 330 177 331 176 335 210 334 209 333 208 336 211 334 209 335 210 337 212 336 211 335 210 338 213 336 211 337 212 339 214 338 213 337 212 340 215 338 213 339 214 341 216 340 215 339 214 342 173 340 215 341 216 332 175 342 173 341 216 343 174 342 173 332 175 331 176 343 174 332 175 344 162 266 163 264 164 345 161 266 163 344 162 346 160 345 161 344 162 347 159 345 161 346 160 348 158 347 159 346 160 349 157 347 159 348 158 235 156 349 157 348 158 350 51 349 157 235 156 236 217 350 51 235 156 351 49 350 51 236 217 352 218 18 18 16 16 20 20 18 18 352 218 353 219 20 20 352 218 22 22 20 20 353 219 354 220 22 22 353 219 24 24 22 22 354 220 0 0 24 24 354 220 26 26 24 24 0 0 1 1 26 26 0 0 45 44 26 26 1 1 357 223 356 222 355 221 358 224 356 222 357 223 359 225 358 224 357 223 360 226 358 224 359 225 361 227 360 226 359 225 362 228 360 226 361 227 363 155 362 228 361 227 364 229 362 228 363 155 365 230 364 229 363 155 46 231 364 229 365 230 368 230 367 229 366 231 257 155 367 229 368 230 369 232 257 155 368 230 256 154 257 155 369 232 370 139 256 154 369 232 252 150 256 154 370 139 371 141 252 150 370 139 250 143 252 150 371 141 372 142 250 143 371 141 373 144 250 143 372 142 365 230 237 137 46 233 374 232 237 137 365 230 363 155 374 232 365 230 375 154 374 232 363 155 376 153 375 154 363 155 377 152 375 154 376 153 378 151 377 152 376 153 379 150 377 152 378 151 380 149 379 150 378 151 381 234 289 183 291 185 382 235 289 183 381 234 383 236 382 235 381 234 384 237 382 235 383 236 385 214 384 237 383 236 386 216 384 237 385 214 387 215 386 216 385 214 279 173 386 216 387 215 277 171 279 173 387 215 355 221 389 239 388 238 390 240 389 239 355 221 356 222 390 240 355 221 391 241 390 240 356 222 392 242 391 241 356 222 393 243 391 241 392 242 394 244 393 243 392 242 395 245 393 243 394 244 47 246 395 245 394 244 398 249 397 248 396 247 399 250 397 248 398 249 400 251 399 250 398 249 401 252 399 250 400 251 402 253 401 252 400 251 403 254 401 252 402 253 404 255 403 254 402 253 405 256 403 254 404 255 406 257 405 256 404 255 407 258 30 4 28 28 408 259 30 4 407 258 409 260 408 259 407 258 410 261 408 259 409 260 37 36 410 261 409 260 411 262 410 261 37 36 36 35 411 262 37 36 35 34 411 262 36 35 333 208 412 257 335 210 413 255 412 257 333 208 414 263 413 255 333 208 415 251 413 255 414 263 416 264 415 251 414 263 417 249 415 251 416 264 418 265 417 249 416 264 419 266 417 249 418 265 422 269 421 268 420 267 423 270 421 268 422 269 424 268 423 270 422 269 425 203 423 270 424 268 426 205 425 203 424 268 427 204 425 203 426 205 428 117 427 204 426 205 429 119 427 204 428 117 367 229 430 246 366 271 431 244 430 246 367 229 432 228 431 244 367 229 433 272 431 244 432 228 434 226 433 272 432 228 435 224 433 272 434 226 436 225 435 224 434 226 437 223 435 224 436 225 413 255 438 256 412 257 439 254 438 256 413 255 440 253 439 254 413 255 441 252 439 254 440 253 415 251 441 252 440 253 442 250 441 252 415 251 417 249 442 250 415 251 443 248 442 250 417 249 314 123 236 124 234 125 351 122 236 124 314 123 315 121 351 122 314 123 444 120 351 122 315 121 429 119 444 120 315 121 366 118 444 120 429 119 428 117 366 118 429 119 426 205 445 206 428 117 446 207 445 206 426 205 447 273 446 207 426 205 372 274 446 207 447 273 448 275 372 274 447 273 373 276 372 274 448 275 449 277 373 276 448 275 227 130 260 278 225 128 450 279 260 278 227 130 229 132 450 279 227 130 451 280 450 279 229 132 452 279 451 280 229 132 344 281 451 280 452 279 346 278 344 281 452 279 29 29 25 25 27 27 23 23 25 25 29 29 31 30 23 23 29 29 21 21 23 23 31 30 453 282 21 21 31 30 19 19 21 21 453 282 17 17 19 19 453 282 361 227 376 153 363 155 454 283 376 153 361 227 455 284 454 283 361 227 456 285 454 283 455 284 457 286 456 285 455 284 458 287 456 285 457 286 459 285 458 287 457 286 431 244 72 245 430 246 71 243 72 245 431 244 460 242 71 243 431 244 461 241 71 243 460 242 462 222 461 241 460 242 463 240 461 241 462 222 464 221 463 240 462 222 409 260 39 38 37 36 41 40 39 38 409 260 465 288 41 40 409 260 43 42 41 40 465 288 466 289 43 42 465 288 28 28 43 42 466 289 407 258 28 28 466 289 317 200 429 119 315 121 425 203 429 119 317 200 319 202 425 203 317 200 423 270 425 203 319 202 321 203 423 270 319 202 421 268 423 270 321 203 468 277 421 268 467 275 420 267 421 268 468 277 469 290 420 267 468 277 449 277 420 267 469 290 470 291 449 277 469 290 373 276 449 277 470 291 323 205 321 203 322 204 421 268 321 203 323 205 471 273 421 268 323 205 467 275 421 268 471 273 242 274 467 275 471 273 244 276 467 275 242 274 472 292 302 195 304 62 300 194 302 195 472 292 473 293 300 194 472 292 474 292 300 194 473 293 63 61 474 292 473 293 65 62 474 292 63 61 281 175 386 216 279 173 475 294 386 216 281 175 476 295 475 294 281 175 382 235 475 294 476 295 287 181 382 235 476 295 289 183 382 235 287 181 332 175 477 295 330 177 478 294 477 295 332 175 341 216 478 294 332 175 479 237 478 294 341 216 339 214 479 237 341 216 480 236 479 237 339 214 326 183 481 234 325 185 482 235 481 234 326 183 327 181 482 235 326 183 477 295 482 235 327 181 328 179 477 295 327 181 330 177 477 295 328 179 400 251 404 255 402 253 483 263 404 255 400 251 484 264 483 263 400 251 277 171 483 263 484 264 485 265 277 171 484 264 276 170 277 171 485 265 345 161 268 167 266 163 270 168 268 167 345 161 347 159 270 168 345 161 272 53 270 168 347 159 349 157 272 53 347 159 350 51 272 53 349 157 487 298 378 297 486 296 488 299 378 297 487 298 489 300 488 299 487 298 490 298 488 299 489 300 458 301 490 298 489 300 459 302 490 298 458 301 491 48 351 49 444 47 275 50 351 49 491 48 492 196 275 50 491 48 274 169 275 50 492 196 68 64 274 169 492 196 66 54 274 169 68 64 249 148 253 151 251 149 488 303 253 151 249 148 247 147 488 303 249 148 493 148 488 303 247 147 245 145 493 148 247 147 243 143 493 148 245 145 493 148 378 151 488 303 380 149 378 151 493 148 243 143 380 149 493 148 379 150 380 149 243 143 241 141 379 150 243 143 239 139 379 150 241 141 430 46 444 47 366 45 491 48 444 47 430 46 72 68 491 48 430 46 492 196 491 48 72 68 70 66 492 196 72 68 68 64 492 196 70 66 12 12 16 16 14 14 352 218 16 16 12 12 494 304 352 218 12 12 495 305 352 218 494 304 8 8 495 305 494 304 6 6 495 305 8 8 49 48 395 68 47 46 308 196 395 68 49 48 51 50 308 196 49 48 307 169 308 196 51 50 53 52 307 169 51 50 55 54 307 169 53 52 498 308 497 307 496 306 499 309 497 307 498 308 500 310 499 309 498 308 501 308 499 309 500 310 502 311 501 308 500 310 387 215 503 209 277 171 504 211 503 209 387 215 505 213 504 211 387 215 506 212 504 211 505 213 385 214 506 212 505 213 394 244 362 228 364 229 507 272 362 228 394 244 392 242 507 272 394 244 358 224 507 272 392 242 356 222 358 224 392 242 257 155 432 228 367 229 508 227 432 228 257 155 255 153 508 227 257 155 509 283 508 227 255 153 510 312 509 283 255 153 224 127 228 131 226 129 511 134 228 131 224 127 222 125 511 134 224 127 512 313 511 134 222 125 220 123 512 313 222 125 348 128 233 127 235 126 513 129 233 127 348 128 514 130 513 129 348 128 231 131 513 129 514 130 229 132 231 131 514 130 340 215 336 211 338 213 334 209 336 211 340 215 515 171 334 209 340 215 414 263 334 209 515 171 416 264 414 263 515 171 518 316 517 315 516 314 519 317 517 315 518 316 520 318 519 317 518 316 521 319 519 317 520 318 522 320 521 319 520 318 354 220 2 2 0 0 523 321 2 2 354 220 353 219 523 321 354 220 495 305 523 321 353 219 352 218 495 305 353 219 525 191 389 322 524 189 388 323 389 322 525 191 526 324 388 323 525 191 527 325 388 323 526 324 528 323 527 325 526 324 529 326 442 250 443 248 441 252 442 250 529 326 530 327 441 252 529 326 531 328 441 252 530 327 534 309 533 330 532 329 535 308 533 330 534 309 536 331 535 308 534 309 537 332 535 308 536 331 373 144 248 145 250 143 246 146 248 145 373 144 470 333 246 146 373 144 244 144 246 146 470 333 461 334 69 65 71 67 295 189 69 65 461 334 463 335 295 189 461 334 538 322 295 189 463 335 309 168 56 55 54 53 58 57 56 55 309 168 310 167 58 57 309 168 311 166 58 57 310 167 535 309 539 336 533 329 540 337 539 336 535 309 537 338 540 337 535 309 541 339 540 337 537 338 544 341 543 310 542 340 545 342 543 310 544 341 546 339 545 342 544 341 547 337 545 342 546 339 303 190 524 189 305 63 525 191 524 189 303 190 301 192 525 191 303 190 299 193 525 191 301 192 393 67 548 65 391 334 549 66 548 65 393 67 395 68 549 66 393 67 308 196 549 66 395 68 552 344 551 319 550 343 553 318 551 319 552 344 554 316 553 318 552 344 555 318 553 318 554 316 558 346 557 319 556 345 559 317 557 319 558 346 560 347 559 317 558 346 561 348 559 317 560 347 511 134 230 133 228 131 562 349 230 133 511 134 512 313 562 349 511 134 318 350 562 349 512 313 565 346 564 319 563 345 566 317 564 319 565 346 567 351 566 317 565 346 568 352 566 317 567 351 566 346 556 319 564 345 558 317 556 319 566 346 568 353 558 317 566 346 560 354 558 317 568 353 296 190 65 62 67 63 569 195 65 62 296 190 298 192 569 195 296 190 300 194 569 195 298 192 57 56 304 62 55 54 570 61 304 62 57 56 59 58 570 61 57 56 61 60 570 61 59 58 570 61 472 292 304 62 473 293 472 292 570 61 61 60 473 293 570 61 63 61 473 293 61 60 572 208 571 210 406 257 503 209 571 210 572 208 483 263 503 209 572 208 277 171 503 209 483 263 34 33 411 262 35 34 410 261 411 262 34 33 408 259 410 261 34 33 490 298 253 297 488 299 510 296 253 297 490 298 509 355 510 296 490 298 514 130 452 279 229 132 346 278 452 279 514 130 348 128 346 278 514 130 313 198 311 166 312 197 58 57 311 166 313 198 60 59 58 57 313 198 557 319 573 329 556 345 574 320 573 329 557 319 575 329 574 320 557 319 453 282 15 15 17 17 33 32 15 15 453 282 31 30 33 32 453 282 64 56 271 55 66 54 269 57 271 55 64 56 62 58 269 57 64 56 468 277 470 291 469 290 244 276 470 291 468 277 467 275 244 276 468 277 5 5 44 43 3 3 42 41 44 43 5 5 40 39 42 41 5 5 576 356 211 111 212 110 210 112 211 111 576 356 209 113 210 112 576 356 562 349 232 134 230 133 316 313 232 134 562 349 318 350 316 313 562 349 576 356 214 108 215 107 213 109 214 108 576 356 212 110 213 109 576 356 342 173 515 171 340 215 577 172 515 171 342 173 343 174 577 172 342 173 320 200 219 121 218 119 512 199 219 121 320 200 318 201 512 199 320 200 401 252 579 327 578 326 580 328 579 327 401 252 403 254 580 328 401 252 576 356 205 105 206 116 216 106 205 105 576 356 215 107 216 106 576 356 581 356 140 112 141 113 139 111 140 112 581 356 138 110 139 111 581 356 476 295 285 179 287 181 283 177 285 179 476 295 281 175 283 177 476 295 508 227 434 226 432 228 436 225 434 226 508 227 582 357 436 225 508 227 462 222 437 223 464 221 435 224 437 223 462 222 460 242 435 224 462 222 583 137 368 230 366 233 369 232 368 230 583 137 370 139 369 232 583 137 584 284 459 285 457 286 509 283 459 285 584 284 508 227 509 283 584 284 586 359 575 345 585 358 574 319 575 345 586 359 573 345 574 319 586 359 534 308 496 361 536 360 498 309 496 361 534 308 587 310 498 309 534 308 555 318 551 320 553 336 563 319 551 320 555 318 565 317 563 319 555 318 554 316 565 317 555 318 567 315 565 317 554 316 588 314 567 315 554 316 500 310 589 330 502 311 590 329 589 330 500 310 591 330 590 329 500 310 502 310 592 308 501 309 593 330 592 308 502 310 589 329 593 330 502 310 548 65 524 189 391 334 305 63 524 189 548 65 306 64 305 63 548 65 390 335 524 189 389 322 391 334 524 189 390 335 538 322 297 191 295 189 528 323 297 191 538 322 594 346 557 319 559 317 595 345 557 319 594 346 596 347 559 317 561 348 594 346 559 317 596 347 445 138 370 139 583 137 446 140 370 139 445 138 522 319 598 344 597 343 599 318 598 344 522 319 600 363 522 345 597 362 601 319 522 345 600 363 448 275 424 268 449 277 447 273 424 268 448 275 585 365 601 345 600 364 575 319 601 345 585 365 420 267 424 268 422 269 449 277 424 268 420 267 602 366 590 310 591 311 603 367 590 310 602 366 454 355 487 298 486 296 456 302 487 298 454 355 458 301 487 298 456 302 489 300 487 298 458 301 551 329 564 319 604 320 563 345 564 319 551 329 240 207 471 273 323 205 242 274 471 273 240 207 262 281 450 279 451 280 260 278 450 279 262 281 264 368 451 280 344 281 262 281 451 280 264 368 604 329 556 319 573 320 564 345 556 319 604 329 299 193 526 324 525 191 297 191 526 324 299 193 605 363 551 345 604 319 550 362 551 345 605 363 316 313 234 125 232 134 314 123 234 125 316 313 543 330 592 309 593 329 606 308 592 309 543 330 517 351 608 317 607 352 519 346 608 317 517 351 465 288 407 258 466 289 409 260 407 258 465 288 221 217 52 51 50 49 223 156 52 51 221 217 408 259 32 31 30 4 34 33 32 31 408 259 545 336 606 309 543 329 547 337 606 309 545 336 609 369 291 185 293 187 381 234 291 185 609 369 45 44 28 28 26 26 43 42 28 28 45 44 38 37 9 9 11 11 40 39 9 9 38 37 7 7 40 39 5 5 9 9 40 39 7 7 2 2 6 6 4 4 523 321 6 6 2 2 610 369 325 185 481 234 324 187 325 185 610 369 12 12 8 8 494 304 10 10 8 8 12 12 207 115 576 356 206 116 208 114 576 356 207 115 428 136 583 137 366 135 445 138 583 137 428 136 538 239 464 221 528 238 463 240 464 221 538 239 433 272 460 242 431 244 435 224 460 242 433 272 549 66 306 64 548 65 308 196 306 64 549 66 136 108 581 356 135 107 137 109 581 356 136 108 134 106 581 356 133 105 135 107 581 356 134 106 144 116 581 356 143 115 133 105 581 356 144 116 142 114 581 356 141 113 143 115 581 356 142 114 47 246 364 229 46 271 394 244 364 229 47 246 374 232 239 139 237 137 375 154 239 139 374 232 375 154 379 150 239 139 377 152 379 150 375 154 486 312 376 153 454 283 378 151 376 153 486 312 478 294 482 235 477 295 479 237 482 235 478 294 612 371 589 310 611 370 593 311 589 310 612 371 606 308 613 331 592 309 614 332 613 331 606 308 615 372 286 180 284 178 329 178 286 180 615 372 542 374 593 310 612 373 543 311 593 310 542 374 371 141 446 140 372 142 370 139 446 140 371 141 398 249 484 264 400 251 485 265 484 264 398 249 500 310 587 311 591 330 498 308 587 311 500 310 616 266 398 249 396 247 485 265 398 249 616 266 399 250 578 326 397 248 401 252 578 326 399 250 532 330 587 310 534 308 591 329 587 310 532 330 617 375 339 214 337 212 480 236 339 214 617 375 618 170 515 171 577 172 418 265 515 171 618 170 619 374 532 310 533 311 620 373 532 310 619 374 541 339 539 342 540 337 621 341 539 342 541 339 621 341 533 310 539 342 619 340 533 310 621 341 620 371 591 310 532 311 602 370 591 310 620 371 622 365 604 345 573 319 605 364 604 345 622 365 623 247 417 249 419 266 443 248 417 249 623 247 507 272 360 226 362 228 358 224 360 226 507 272 275 50 350 51 351 49 273 52 350 51 275 50 624 357 361 227 359 225 455 284 361 227 624 357 598 344 518 316 516 314 599 318 518 316 598 344 607 353 594 317 596 354 608 346 594 317 607 353 519 346 625 319 608 317 521 345 625 319 519 346 608 346 595 319 594 317 625 345 595 319 608 346 601 329 595 319 625 345 575 320 595 319 601 329 569 195 474 292 65 62 300 194 474 292 569 195 625 319 522 329 601 320 521 345 522 329 625 319 572 208 404 255 483 263 406 257 404 255 572 208 571 210 504 211 506 212 503 209 504 211 571 210 501 308 497 307 499 309 626 306 497 307 501 308 626 361 592 308 613 360 501 309 592 308 626 361 480 236 482 235 479 237 481 234 482 235 480 236 611 366 590 310 603 367 589 311 590 310 611 366 614 338 547 337 546 339 606 309 547 337 614 338 475 294 384 237 386 216 382 235 384 237 475 294 627 375 385 214 383 236 506 212 385 214 627 375 424 268 447 273 426 205 508 227 584 284 582 357 219 121 512 199 220 123 231 131 233 127 513 129 6 6 523 321 495 305 627 375 383 236 628 376 350 51 273 52 272 53 573 345 586 359 622 358 554 316 552 344 588 314 255 153 253 151 510 312 628 376 383 236 609 369 617 375 629 376 480 236 629 376 610 369 480 236 425 203 427 204 429 119 441 252 531 328 439 254 383 236 381 234 609 369 480 236 610 369 481 234 209 113 576 356 208 114 413 255 415 251 440 253 575 329 557 319 595 345 520 318 599 336 522 320 385 214 505 213 387 215 333 208 334 209 414 263 518 316 599 318 520 318 526 324 297 191 528 323 252 150 254 152 256 154 137 109 138 110 581 356 418 265 416 264 515 171 490 298 459 302 509 355</p>
                </polylist>
            </mesh>
        </geometry>
    </library_geometries>
    <library_visual_scenes>
        <visual_scene id="VisualSceneNode">
            <node id="node0" name="m0" type="NODE">
                <instance_geometry url="#mesh0">
                    <bind_material>
                        <technique_common>
                            <instance_material symbol="Material1" target="#mat0">
                                <bind_vertex_input semantic="UVSET0" input_semantic="TEXCOORD" input_set="0"></bind_vertex_input>
                            </instance_material>
                        </technique_common>
                    </bind_material>
                </instance_geometry>
            </node>
        </visual_scene>
    </library_visual_scenes>
    <scene>
        <instance_visual_scene url="#VisualSceneNode"></instance_visual_scene>
    </scene>
</COLLADA>
