<?xml version="1.0"?>
<COLLADA xmlns="http://www.collada.org/2005/11/COLLADASchema" version="1.4.1">
    <asset>
        <contributor>
            <authoring_tool>J3D Ripoff Exporter</authoring_tool>
        </contributor>
        <created>2024-08-02T13:57:02.109Z</created>
        <modified>2024-08-02T13:57:02.109Z</modified>
		<unit meter="0.01" name="centimeter" ></unit>
        <up_axis>Y_UP</up_axis>
    </asset>
    <library_images>
        <image id="tex0">
            <init_from>donkey_all.png</init_from>
        </image>
    </library_images>
    <library_effects>
        <effect id="effect0">
            <profile_COMMON>
                <newparam sid="surface0">
                    <surface type="2D">
                        <init_from>tex0</init_from>
                    </surface>
                </newparam>
                <newparam sid="sampler0">
                    <sampler2D>
                        <source>surface0</source>
                    </sampler2D>
                </newparam>
                <technique sid="COMMON">
                    <blinn>
                        <diffuse>
                            <texture texture="sampler0" texcoord="UVSET0"></texture>
                        </diffuse>
                    </blinn>
                </technique>
            </profile_COMMON>
        </effect>
    </library_effects>
    <library_materials>
        <material id="mat0" name="Dummy">
            <instance_effect url="#effect0"></instance_effect>
        </material>
    </library_materials>
    <library_geometries>
        <geometry id="mesh0">
            <mesh>
                <source id="points0">
                    <float_array id="pointarray0" count="1716">53.12890625 18.2265625 -15.578125 51.984375 18.8125 -15.93359375 52.02734375 18.421875 -16.00390625 51.73046875 19.265625 -15.9375 53.7578125 18.75 -17.32421875 53.72265625 20.1953125 -17.0546875 54.515625 22.08984375 -20.8125 53.29296875 26.3125 -20.16796875 53.71484375 29.234375 -26.31640625 51.625 33.2578125 -23.8828125 49.02734375 36.44140625 -28.4765625 49.34765625 34.30859375 -20.73828125 47.19140625 37.41015625 -21.77734375 46.83203125 36.16796875 -16.65625 43.11328125 39.84765625 -20.0234375 42.93359375 38.87890625 -17.1875 35.6875 41.05859375 -17.31640625 36.66015625 43.63671875 -14.28515625 26.47265625 41.46875 -17.73828125 26.6015625 44.28125 -14.41796875 15.94140625 38.48046875 -19.26953125 15.05859375 41.6328125 -15.78125 11.57421875 34.8828125 -21.55859375 7.51171875 36.19140625 -16.1640625 7.51171875 27.35546875 -22.14453125 3.91015625 27.74609375 -18.3046875 4.57421875 17.2890625 -18.44921875 3.35546875 17.328125 -10.640625 6.55859375 10.53125 -10.59375 3.39453125 17.875 0 4.66015625 12.00390625 0 6.55859375 10.53125 10.59375 52.8203125 18.41015625 -13.55859375 52.04296875 18.875 -13.76953125 53.07421875 19.49609375 -15.62109375 52.91796875 19.51171875 -13.609375 55.625 22.4765625 -14.1171875 55.234375 21.59765625 -12.91015625 58.19921875 25.9296875 -12.6640625 57.5 24.765625 -11.390625 59.87890625 28.21484375 -10.4453125 58.6796875 26.8828125 -9.3671875 59.91796875 28.390625 -7.2890625 37.4921875 35.70703125 -10.640625 49.6796875 33.5859375 0 39.46484375 37.78125 0 37.4921875 35.70703125 10.640625 25.42578125 27.91015625 18.87109375 52.04296875 18.875 13.76953125 21.75 18.28515625 17.78515625 26.859375 7.73828125 16.7734375 17.34375 18 0 24.671875 5.1640625 0 26.859375 7.73828125 -16.7734375 45.2421875 6.87109375 -10.12109375 52.796875 20.796875 16.109375 53.44921875 25.34375 14.734375 54.41015625 24.8671875 15.19140625 54.5390625 28.52734375 13.3125 56.1875 28.23046875 14.1171875 56.046875 32.25390625 10.875 58.3828125 31.76953125 11.93359375 57.4453125 34.9921875 8.03515625 60.265625 34.66796875 8.8671875 61.125 35.99609375 4.4375 62.515625 34.10546875 4.6015625 63.1015625 34.53125 0 62.9140625 31.27734375 0 62.515625 34.10546875 -4.6015625 62.453125 31.0625 -4.43359375 61.35546875 32.84375 -8.66796875 61.6875 30.27734375 -7.95703125 59.5625 30.44140625 -11.44140625 57.36328125 27.23046875 -13.69140625 55.22265625 23.6484375 -14.96875 58.33984375 37.06640625 0 58.19140625 36.65234375 4.2890625 57.58203125 38.10546875 0 57.24609375 37.90234375 4.51171875 53.6640625 43.10546875 5.203125 55.59375 36.609375 9.41015625 52.39453125 41.66015625 10.16796875 53.6640625 34.484375 13.109375 49.90234375 38.8046875 13.92578125 50.0625 34 15.83984375 46.83203125 36.16796875 16.65625 49.703125 32.68359375 16.41015625 49.34765625 34.30859375 20.73828125 51.65234375 30.203125 19.14453125 51.625 33.2578125 23.8828125 53.29296875 26.3125 20.16796875 53.71484375 29.234375 26.31640625 54.515625 22.08984375 20.8125 54.66015625 23.46875 27.13671875 54.54296875 18.16796875 20.9921875 54.68359375 17.7109375 27.54296875 53.6015625 14.25 21.015625 53.7578125 12.328125 26.9765625 54.66015625 23.46875 -27.13671875 51.05078125 31.46875 -32.11328125 52.14453125 24.72265625 -34.39453125 45.546875 33.5 -37.6875 45.8984375 25.80859375 -41.1875 36.6328125 34.99609375 -42.03125 36.82421875 26.20703125 -45.12109375 26.0546875 26.60546875 -46.23046875 25.70703125 15.81640625 -46.5703125 16.77734375 26.34765625 -45.29296875 16.81640625 16.18359375 -45.47265625 9.9375 16.65234375 -40.609375 11.83984375 9.28125 -39.14453125 6.359375 17.45703125 -34.5 8.70703125 9.69921875 -33.765625 5.77734375 17.41796875 -27.51953125 8.57421875 9.64453125 -27.515625 7.8671875 17.33984375 -22.0859375 9.6875 9.53515625 -22.02734375 7.625 9.75390625 -18.3359375 6.09375 27.11328125 -27.51953125 6.5546875 26.79296875 -34.4765625 10.01953125 26.30859375 -40.9765625 17.1328125 34.60546875 -42.62890625 26.39453125 35.29296875 -43.80078125 26.2890625 42.02734375 -35.390625 36.4140625 41.09375 -33.7109375 35.8671875 42.73828125 -25.765625 44.62890625 38.93359375 -31.35546875 43.81640625 40.0625 -24.35546875 36.37109375 -26.69140625 -7.83984375 39.484375 -25.63671875 -4.77734375 42.53515625 -24.359375 -5.7890625 43.4140625 -23.453125 0 44.8203125 -19.67578125 0 42.53515625 -24.359375 5.7890625 44.171875 -20.4609375 6.8359375 39.3671875 -26.50390625 10.390625 41.703125 -22.16796875 12.26953125 37.8125 -23.52734375 16.33984375 36.59375 -19.28515625 16.3359375 33.90234375 -25.13671875 19.13671875 32.5625 -20.4765625 19.5078125 30.12109375 -26.0390625 21.109375 27.75390625 -20.48828125 21.08984375 24.1328125 -24.73046875 23.19140625 27.0078125 -15.9140625 23.296875 20.78125 -20.75 23.27734375 23.53125 -14.609375 24.1796875 20.9453125 -18.265625 22.8203125 22.41796875 -13.84765625 22.90625 53.12890625 18.2265625 15.578125 56.578125 16.28125 14.953125 56.53125 15.3046875 15.22265625 59.61328125 13.73828125 13.51953125 58.80859375 12.7890625 14.05859375 62.49609375 10.80078125 10.8515625 62.11328125 8.58203125 11.0078125 64.2734375 9.2734375 7.4296875 63.77734375 6.59375 7.59375 65.35546875 8.640625 3.59375 64.78515625 5.296875 3.6484375 65.20703125 4.95703125 0 62.8359375 3.25 0 64.78515625 5.296875 -3.6484375 62.66796875 3.59375 -3.45703125 63.77734375 6.59375 -7.59375 61.86328125 4.94921875 -7.75 60.765625 7.171875 -11.046875 59.3984375 5.97265625 -7.7734375 58.515625 7.66796875 -10.546875 47.19140625 37.41015625 21.77734375 43.11328125 39.84765625 20.0234375 42.93359375 38.87890625 17.1875 35.6875 41.05859375 17.31640625 36.66015625 43.63671875 14.28515625 26.47265625 41.46875 17.73828125 26.6015625 44.28125 14.41796875 16.26953125 38.0703125 18.82421875 15.05859375 41.6328125 15.78125 11.57421875 34.8828125 21.55859375 7.51171875 36.19140625 16.1640625 7.51171875 27.35546875 22.14453125 3.91015625 27.74609375 18.3046875 4.57421875 17.2890625 18.44921875 3.35546875 17.328125 10.640625 43.81640625 40.0625 24.35546875 35.8671875 42.73828125 25.765625 35.7109375 42.43359375 20.23828125 26.4375 43.5234375 27.39453125 26.5 43.0234375 20.89453125 16.609375 41.0546875 29.7578125 16.26171875 40.66015625 23.08984375 10.86328125 37.33203125 23.90234375 7.87109375 33.35546875 27.04296875 6.09375 27.11328125 27.51953125 5.77734375 17.41796875 27.51953125 6.359375 17.45703125 34.5 8.70703125 9.69921875 33.765625 11.83984375 9.28125 39.14453125 53.71875 16.09765625 -17.66015625 54.54296875 18.16796875 -20.9921875 53.6015625 14.25 -21.015625 54.68359375 17.7109375 -27.54296875 53.7578125 12.328125 -26.9765625 52.05859375 17.28125 -34.52734375 50.87890625 10.8515625 -33.56640625 45.77734375 16.6640625 -41.80078125 45.1328125 8.984375 -40.16796875 36.69140625 16.23828125 -45.59375 35.8984375 8.31640625 -43.6953125 25.3125 8.59375 -44.0546875 17.2265625 8.9375 -42.59765625 52.50390625 5.8359375 -17.8671875 49.1015625 6.12109375 -18.421875 48.80078125 0.86328125 -16.69921875 46.33203125 3.7421875 -18.578125 44.54296875 0.109375 -17.203125 41.6796875 1.99609375 -18.19921875 37.453125 0.33203125 -17.58984375 40.1953125 -0.52734375 -21.7734375 31.11328125 -0.0703125 -18.9453125 35.52734375 -1.68359375 -23.41015625 30.6015625 -2.09375 -25.05078125 39.7265625 -0.80859375 -29.09765625 32.1171875 -1.5 -31.84765625 42.6640625 2.890625 -35.4140625 34.01953125 1.8515625 -38.51171875 49.90234375 38.8046875 -13.92578125 45.12109375 41.37109375 -14.31640625 46.79296875 45.32421875 -10.44921875 37.734375 47.5 -10.28125 38.1953125 48.8359375 -5.234375 26.515625 48.83203125 -5.26171875 26.3046875 49.4765625 0 13.7578125 45.10546875 -5.5234375 13.41015625 45.48046875 0 4.328125 37.875 0 13.7578125 45.10546875 5.5234375 4.9921875 37.453125 10.64453125 14.10546875 44.01171875 10.85546875 46.60546875 -5.8125 5.59765625 46.69140625 -6.67578125 0 40.46484375 -5.87890625 0 46.60546875 -5.8125 -5.59765625 38.80859375 -2.796875 -9.390625 45.88671875 -4.109375 -11.5625 50.03125 -2.64453125 -11.875 53.71484375 2.41015625 -16.1953125 55.90625 7.89453125 -15.6640625 54.609375 11.08203125 -16.421875 55.578125 13.1484375 -14.2109375 53.078125 16.05078125 -15.32421875 2.3984375 28.0390625 -10.7265625 4.9921875 37.453125 -10.64453125 14.10546875 44.01171875 -10.85546875 26.7265625 47.46875 -10.3359375 31.99609375 -27.66796875 -11.078125 39.3671875 -26.50390625 -10.390625 44.171875 -20.4609375 -6.8359375 43.50390625 -15.0625 0 42.94921875 -15.80078125 6.60546875 40.4453125 -17.4375 12.19140625 37.61328125 -15.96484375 10.7109375 34.08203125 -17.67578125 14.46875 37.453125 0.33203125 17.58984375 41.6796875 1.99609375 18.19921875 44.54296875 0.109375 17.203125 46.33203125 3.7421875 18.578125 48.80078125 0.86328125 16.69921875 49.1015625 6.12109375 18.421875 52.50390625 5.8359375 17.8671875 51.265625 9.234375 18.30078125 52.34375 12.28515625 17.53515625 52.7109375 11.96484375 18.15234375 53.41796875 14.84765625 16.36328125 52.02734375 18.19921875 16.00390625 53.078125 16.05078125 15.32421875 32.41796875 -29.7109375 16.41796875 35.6484375 -28.55078125 13.7109375 31.99609375 -27.66796875 11.078125 36.37109375 -26.69140625 7.83984375 39.484375 -25.63671875 4.77734375 39.9375 -24.875 0 38.35546875 -24.03515625 -4.27734375 52.39453125 41.66015625 -10.16796875 47.65234375 46.80859375 -5.3515625 38.25 49.44921875 0 38.1953125 48.8359375 5.234375 26.515625 48.83203125 5.26171875 37.734375 47.5 10.28125 26.7265625 47.46875 10.3359375 35.7109375 42.43359375 -20.23828125 26.4375 43.5234375 -27.39453125 26.5 43.0234375 -20.89453125 16.609375 41.0546875 -29.7578125 16.26171875 40.66015625 -23.08984375 10.86328125 37.33203125 -23.90234375 7.87109375 33.35546875 -27.04296875 49.703125 32.68359375 -16.41015625 50.0625 34 -15.83984375 53.6640625 34.484375 -13.109375 55.59375 36.609375 -9.41015625 53.6640625 43.10546875 -5.203125 57.24609375 37.90234375 -4.51171875 58.19140625 36.65234375 -4.2890625 47.1953125 3.015625 21.99609375 44.0078125 0.6015625 25.70703125 47.859375 4.79296875 30.890625 39.7265625 -0.80859375 29.09765625 42.6640625 2.890625 35.4140625 32.1171875 -1.5 31.84765625 34.01953125 1.8515625 38.51171875 24.4765625 -0.66796875 32.734375 24.734375 2.3203125 38.94921875 16.9921875 1.37109375 32.55859375 17.3359375 3.90625 38.8671875 17.2265625 8.9375 42.59765625 13.15625 36.53125 35.453125 17.15625 39.796875 37.80859375 26.2890625 42.02734375 35.390625 36.4140625 41.09375 33.7109375 44.62890625 38.93359375 31.35546875 45.546875 33.5 37.6875 49.02734375 36.44140625 28.4765625 51.05078125 31.46875 32.11328125 16.81640625 16.18359375 45.47265625 16.77734375 26.34765625 45.29296875 25.70703125 15.81640625 46.5703125 26.0546875 26.60546875 46.23046875 36.82421875 26.20703125 45.12109375 36.6328125 34.99609375 42.03125 45.8984375 25.80859375 41.1875 52.14453125 24.72265625 34.39453125 25.3125 8.59375 44.0546875 35.8984375 8.31640625 43.6953125 36.69140625 16.23828125 45.59375 45.1328125 8.984375 40.16796875 45.77734375 16.6640625 41.80078125 50.87890625 10.8515625 33.56640625 52.05859375 17.28125 34.52734375 10.56640625 6.22265625 21.54296875 16.8984375 1.1796875 27.3125 15.44140625 3.3359375 22.62890625 24.3515625 -0.8671875 26.546875 24.8125 2.24609375 20.30859375 31.11328125 -0.0703125 18.9453125 32.21484375 -0.0703125 15.20703125 38.80859375 -2.796875 9.390625 45.88671875 -4.109375 11.5625 50.03125 -2.64453125 11.875 24.1328125 -24.73046875 -23.19140625 18.72265625 -25.2890625 -21.1875 24.08984375 -28.92578125 -20.84375 20.6015625 -28.51171875 -17.38671875 27.78515625 -30.328125 -18.8203125 32.41796875 -29.7109375 -16.41796875 30.12109375 -26.0390625 -21.109375 33.90234375 -25.13671875 -19.13671875 32.5625 -20.4765625 -19.5078125 36.59375 -19.28515625 -16.3359375 34.08203125 -17.67578125 -14.46875 37.61328125 -15.96484375 -10.7109375 11.3515625 38.00390625 30.25 11.1328125 32.7421875 39.78125 17.1328125 34.60546875 42.62890625 10.01953125 26.30859375 40.9765625 9.9375 16.65234375 40.609375 25.83984375 -27.34765625 -13.98828125 35.6484375 -28.55078125 -13.7109375 37.8125 -23.52734375 -16.33984375 41.703125 -22.16796875 -12.26953125 40.4453125 -17.4375 -12.19140625 39.7421875 -14.60546875 -5.62890625 24.3515625 -0.8671875 -26.546875 24.4765625 -0.66796875 -32.734375 24.734375 2.3203125 -38.94921875 17.3359375 3.90625 -38.8671875 54.0625 43.484375 0 47.65234375 46.80859375 5.3515625 46.79296875 45.32421875 10.44921875 45.12109375 41.37109375 14.31640625 52.34375 12.28515625 -17.53515625 51.265625 9.234375 -18.30078125 51.2890625 8.78125 -20.96875 47.1953125 3.015625 -21.99609375 51.1484375 7.1484375 -25.4453125 47.859375 4.79296875 -30.890625 40.1953125 -0.52734375 21.7734375 35.52734375 -1.68359375 23.41015625 30.6015625 -2.09375 25.05078125 17.15625 39.796875 -37.80859375 13.15625 36.53125 -35.453125 11.1328125 32.7421875 -39.78125 11.3515625 38.00390625 -30.25 8 33.08984375 -34.03125 56.578125 16.28125 -14.953125 54.94140625 16.94921875 -13.00390625 58.21875 14.984375 -11.67578125 56.78125 6.09375 0 60.25390625 13.24609375 -9.58984375 61.71484375 11.76953125 -6.578125 64.2734375 9.2734375 -7.4296875 65.35546875 8.640625 -3.59375 30.640625 -6.8125 -17.578125 31.5625 -6.796875 -18.76953125 27.82421875 -15.43359375 -19.27734375 27.94921875 -15.51953125 -21.06640625 27.75390625 -20.48828125 -21.08984375 27.0078125 -15.9140625 -23.296875 20.78125 -20.75 -23.27734375 20.9453125 -18.265625 -22.8203125 18.72265625 -25.2890625 21.1875 24.08984375 -28.92578125 20.84375 27.78515625 -30.328125 18.8203125 20.6015625 -28.51171875 17.38671875 25.83984375 -27.34765625 13.98828125 62.11328125 8.58203125 -11.0078125 58.80859375 12.7890625 -14.05859375 57.703125 11.7890625 -13.8984375 56.078125 14.04296875 -14.77734375 53.28125 16.56640625 -15.515625 53.72265625 20.6796875 17.0546875 52.640625 23.65625 16.65234375 52.27734375 21.51953125 15.91796875 51.765625 27.37109375 15.9921875 52.328125 31.69921875 14.73828125 51.984375 18.8125 15.93359375 53.07421875 19.49609375 15.62109375 55.22265625 23.6484375 14.96875 57.36328125 27.23046875 13.69140625 59.5625 30.44140625 11.44140625 59.87890625 28.21484375 10.4453125 61.6875 30.27734375 7.95703125 65.7734375 8.45703125 0 62.77734375 10.73046875 3.22265625 61.71484375 11.76953125 6.578125 60.25390625 13.24609375 9.58984375 58.21875 14.984375 11.67578125 7.625 9.75390625 18.3359375 9.6875 9.53515625 22.02734375 8.57421875 9.64453125 27.515625 24.9296875 -8.30078125 21.6796875 26.28515625 -8.59375 22.9765625 28.7890625 -10.0859375 22.046875 29.56640625 -4.47265625 20.83203125 31.42578125 -5.703125 20.25 34.9609375 -0.1484375 16.8984375 36.26953125 -1.07421875 15.3828125 53.28125 16.56640625 15.515625 55.578125 13.1484375 14.2109375 56.078125 14.04296875 14.77734375 57.703125 11.7890625 13.8984375 60.765625 7.171875 11.046875 51.65234375 30.203125 -19.14453125 51.765625 27.37109375 -15.9921875 52.328125 31.69921875 -14.73828125 56.046875 32.25390625 -10.875 57.4453125 34.9921875 -8.03515625 35.07421875 -1.19921875 -12.94140625 36.26953125 -1.07421875 -15.3828125 31.42578125 -5.703125 -20.25 34.9609375 -0.1484375 -16.8984375 29.56640625 -4.47265625 -20.83203125 32.21484375 -0.0703125 -14.72265625 27.7734375 -4.3203125 -19.46875 54.94140625 16.94921875 13.00390625 45.2421875 6.87109375 10.12109375 52.8203125 18.41015625 13.55859375 24.9296875 -8.30078125 -21.6796875 26.28515625 -8.59375 -22.9765625 28.7890625 -10.0859375 -22.046875 23.53125 -14.609375 -24.1796875 51.2890625 8.78125 20.96875 51.1484375 7.1484375 25.4453125 2.3984375 28.0390625 10.7265625 2.125 27.796875 0 6.5546875 26.79296875 34.4765625 8 33.08984375 34.03125 47.96875 47.39453125 0 60.6640625 29.2109375 -4.1328125 61.12890625 29.53515625 0 62.453125 31.0625 4.43359375 56.1875 28.23046875 -14.1171875 54.41015625 24.8671875 -15.19140625 52.796875 21.0859375 -16.109375 25.42578125 27.91015625 -18.87109375 21.78125 30.296875 0 61.125 35.99609375 -4.4375 60.265625 34.66796875 -8.8671875 58.3828125 31.76953125 -11.93359375 61.4375 36.578125 0 52.27734375 21.9609375 -15.91796875 52.640625 23.65625 -16.65234375 26.39453125 35.29296875 43.80078125 58.16015625 2.53125 -10.19140625 55.3203125 -1.8046875 -5.63671875 58.765625 1.6171875 -4.86328125 55.58984375 -2.80078125 0 59.0078125 1.203125 0 58.765625 1.6171875 4.86328125 60.27734375 4.0390625 3.58203125 59.3984375 5.97265625 7.7734375 52.91796875 19.51171875 13.609375 55.234375 21.59765625 12.91015625 57.5 24.765625 11.390625 58.19921875 25.9296875 12.6640625 52.7109375 11.96484375 -18.15234375 53.41796875 14.84765625 -16.36328125 10.1015625 5.87890625 -22.05078125 16.8984375 1.1796875 -27.3125 15.09375 2.92578125 -23.16015625 24.8125 2.24609375 -20.30859375 27.94921875 -15.51953125 21.06640625 27.82421875 -15.43359375 19.27734375 27.21484375 -19.8671875 18.83984375 55.3203125 -1.8046875 5.63671875 50.8125 -4.953125 0 50.63671875 -4.09765625 5.8046875 54.83203125 -0.39453125 -11.625 50.63671875 -4.09765625 -5.8046875 57.12890625 4.94921875 -14.0625 51.73046875 19.265625 15.9375 60.3203125 3.828125 0 62.66796875 3.59375 3.45703125 61.86328125 4.94921875 7.75 53.71484375 2.41015625 16.1953125 55.90625 7.89453125 15.6640625 57.12890625 4.94921875 14.0625 58.515625 7.66796875 10.546875 54.83203125 -0.39453125 11.625 58.16015625 2.53125 10.19140625 21.75 18.28515625 -17.78515625 42.94921875 -15.80078125 -6.60546875 7.8671875 17.33984375 22.0859375 31.01953125 -19.31640625 -16.5234375 53.7578125 18.75 17.32421875 53.71875 16.09765625 17.66015625 16.9921875 1.37109375 -32.55859375 62.49609375 10.80078125 -10.8515625 59.61328125 13.73828125 -13.51953125 56.53125 15.3046875 -15.22265625 61.35546875 32.84375 8.66796875 44.0078125 0.6015625 -25.70703125 59.91796875 28.390625 7.2890625 58.6796875 26.8828125 9.3671875 44.703125 4.234375 0 60.6640625 29.2109375 4.1328125 55.625 22.4765625 14.1171875 54.609375 11.08203125 16.421875 39.21484375 -23.21484375 0 38.35546875 -24.03515625 4.27734375 62.77734375 10.73046875 -3.22265625 31.5625 -6.796875 18.76953125 35.07421875 -1.19921875 12.94140625 30.640625 -6.8125 17.578125 60.27734375 4.0390625 -3.58203125 53.44921875 25.34375 -14.734375 22.41796875 -13.84765625 -22.90625 56.84765625 11.19921875 -13.37890625 63.19140625 10.5859375 0 32.21484375 -0.0703125 -15.20703125 54.5390625 28.52734375 -13.3125 56.84765625 11.19921875 13.37890625 34.92578125 -25.10546875 7.31640625 34.92578125 -25.10546875 -7.31640625 31.01953125 -19.31640625 16.5234375 27.7734375 -4.3203125 19.46875 39.7421875 -14.60546875 5.62890625 32.21484375 -0.0703125 14.72265625 40.7578125 -13.94921875 0 27.21484375 -19.8671875 -18.83984375 31.67578125 -26.140625 10.265625 31.67578125 -26.140625 -10.265625</float_array>
                    <technique_common>
                        <accessor count="572" source="#pointarray0" stride="3">
                            <param name="X" type="float"/>
                            <param name="Y" type="float"/>
                            <param name="Z" type="float"/>
                        </accessor>
                    </technique_common>
                </source>
                <source id="uvs0">
                    <float_array id="uvarray0" count="694">0.4979248046875 0.4658203125 0.49835205078125 0.451171875 0.4879150390625 0.4620361328125 0.4833984375 0.4481201171875 0.474609375 0.4537353515625 0.4716796875 0.44805908203125 0.47052001953125 0.448486328125 0.466796875 0.44305419921875 0.46575927734375 0.4434814453125 0.4620361328125 0.4381103515625 0.4600830078125 0.43902587890625 0.42132568359375 0.4188232421875 0.417724609375 0.41961669921875 0.372802734375 0.4129638671875 0.395263671875 0.41973876953125 0.38006591796875 0.41827392578125 0.3641357421875 0.42327880859375 0.338134765625 0.42120361328125 0.3482666015625 0.42828369140625 0.33001708984375 0.42730712890625 0.3026123046875 0.44140625 0.29315185546875 0.442626953125 0.31561279296875 0.4617919921875 0.30224609375 0.46240234375 0.32183837890625 0.47845458984375 0.306884765625 0.47906494140625 0.313232421875 0.4873046875 0.29083251953125 0.4881591796875 0.29364013671875 0.4964599609375 0.254150390625 0.48638916015625 0.254150390625 0.4915771484375 0.16314697265625 0.26214599609375 0.15106201171875 0.2667236328125 0.1680908203125 0.27020263671875 0.15899658203125 0.27703857421875 0.1751708984375 0.28076171875 0.164794921875 0.28424072265625 0.1502685546875 0.24517822265625 0.1385498046875 0.252685546875 0.13677978515625 0.2314453125 0.1192626953125 0.242919921875 0.11407470703125 0.22137451171875 0.10223388671875 0.23419189453125 0.0703125 0.22100830078125 0.072509765625 0.26409912109375 0.00665283203125 0.23895263671875 0.00665283203125 0.27996826171875 0.08319091796875 0.2991943359375 0.07952880859375 0.28729248046875 0.07745361328125 0.2806396484375 0.00604248046875 0.29595947265625 0.00634765625 0.284912109375 0.0711669921875 0.260498046875 0.47900390625 0.43548583984375 0.45849609375 0.41204833984375 0.457763671875 0.40869140625 0.4149169921875 0.38958740234375 0.4124755859375 0.38262939453125 0.35076904296875 0.3873291015625 0.36785888671875 0.37225341796875 0.317138671875 0.37744140625 0.32330322265625 0.3619384765625 0.28875732421875 0.36065673828125 0.29022216796875 0.351318359375 0.254150390625 0.35003662109375 0.254150390625 0.338623046875 0.2918701171875 0.33984375 0.32623291015625 0.3525390625 0.32952880859375 0.34112548828125 0.37640380859375 0.364501953125 0.38458251953125 0.35595703125 0.426513671875 0.37640380859375 0.43963623046875 0.37078857421875 0.4703369140625 0.40557861328125 0.48101806640625 0.4029541015625 0.49835205078125 0.4371337890625 0.254150390625 0.37493896484375 0.28564453125 0.37615966796875 0.254150390625 0.3896484375 0.28228759765625 0.39080810546875 0.2828369140625 0.40045166015625 0.3104248046875 0.39202880859375 0.31146240234375 0.40191650390625 0.3380126953125 0.39984130859375 0.3421630859375 0.40740966796875 0.36920166015625 0.4102783203125 0.44268798828125 0.427978515625 0.4630126953125 0.4376220703125 0.46942138671875 0.44891357421875 0.4735107421875 0.4541015625 0.472412109375 0.4544677734375 0.4764404296875 0.459716796875 0.47540283203125 0.46002197265625 0.463623046875 0.44439697265625 0.4671630859375 0.44970703125 0.45947265625 0.4461669921875 0.46270751953125 0.451416015625 0.44317626953125 0.4495849609375 0.44866943359375 0.45660400390625 0.43463134765625 0.4617919921875 0.4376220703125 0.475341796875 0.39215087890625 0.475341796875 0.3929443359375 0.4864501953125 0.361328125 0.486572265625 0.3656005859375 0.49627685546875 0.3533935546875 0.48663330078125 0.35858154296875 0.4959716796875 0.34552001953125 0.48663330078125 0.3515625 0.49560546875 0.32965087890625 0.4866943359375 0.3375244140625 0.4949951171875 0.3206787109375 0.49554443359375 0.33941650390625 0.4776611328125 0.34820556640625 0.477294921875 0.35699462890625 0.4769287109375 0.3822021484375 0.46856689453125 0.42681884765625 0.45294189453125 0.41900634765625 0.444091796875 0.4376220703125 0.4425048828125 0.39129638671875 0.42535400390625 0.45623779296875 0.44097900390625 0.41046142578125 0.42120361328125 0.6519775390625 0.94622802734375 0.58404541015625 0.92919921875 0.5855712890625 0.9202880859375 0.5062255859375 0.9105224609375 0.5062255859375 0.89617919921875 0.58746337890625 0.9041748046875 0.654541015625 0.93353271484375 0.65753173828125 0.91253662109375 0.724609375 0.92144775390625 0.729248046875 0.87921142578125 0.80657958984375 0.9302978515625 0.8026123046875 0.88812255859375 0.86248779296875 0.92919921875 0.8812255859375 0.88751220703125 0.94708251953125 0.91668701171875 0.9124755859375 0.8375244140625 0.97705078125 0.89483642578125 0.95623779296875 0.8375244140625 0.99371337890625 0.875 0.981201171875 0.8375244140625 0.9927978515625 0.58892822265625 0.9788818359375 0.5731201171875 0.96636962890625 0.5751953125 0.9542236328125 0.55267333984375 0.94140625 0.555419921875 0.92950439453125 0.5322265625 0.9163818359375 0.53564453125 0.84765625 0.50439453125 0.84136962890625 0.5106201171875 0.80322265625 0.50018310546875 0.80010986328125 0.5064697265625 0.7587890625 0.50225830078125 0.7587890625 0.508544921875 0.79693603515625 0.51373291015625 0.83514404296875 0.51898193359375 0.90386962890625 0.539794921875 0.83203125 0.52740478515625 0.89923095703125 0.54681396484375 0.37774658203125 0.42431640625 0.3721923828125 0.42950439453125 0.3602294921875 0.42889404296875 0.31317138671875 0.44000244140625 0.30792236328125 0.440673828125 0.33221435546875 0.4635009765625 0.3358154296875 0.4705810546875 0.4775390625 0.45941162109375 0.47027587890625 0.45513916015625 0.47332763671875 0.46063232421875 0.4659423828125 0.45660400390625 0.46917724609375 0.4617919921875 0.4517822265625 0.4659423828125 0.45489501953125 0.475341796875 0.44061279296875 0.4888916015625 0.39373779296875 0.49755859375 0.93511962890625 0.59600830078125 0.93511962890625 0.6043701171875 0.89141845703125 0.57415771484375 0.915771484375 0.60260009765625 0.89141845703125 0.58978271484375 0.9007568359375 0.60125732421875 0.88201904296875 0.59918212890625 0.91015625 0.61273193359375 0.8773193359375 0.60382080078125 0.91168212890625 0.61529541015625 0.91326904296875 0.617919921875 0.94140625 0.61376953125 0.93359375 0.6197509765625 0.9476318359375 0.62310791015625 0.94140625 0.625732421875 0.97265625 0.62725830078125 0.96014404296875 0.633544921875 0.34625244140625 0.4150390625 0.3125 0.41180419921875 0.3121337890625 0.4190673828125 0.28314208984375 0.41839599609375 0.282958984375 0.42669677734375 0.254150390625 0.427001953125 0.2689208984375 0.44586181640625 0.254150390625 0.4478759765625 0.254150390625 0.46453857421875 0.284912109375 0.463134765625 0.28369140625 0.44390869140625 0.79107666015625 0.55963134765625 0.76043701171875 0.55908203125 0.7606201171875 0.5689697265625 0.81011962890625 0.579345703125 0.833984375 0.56158447265625 0.83404541015625 0.5540771484375 0.89141845703125 0.55853271484375 0.93511962890625 0.58770751953125 0.9476318359375 0.59185791015625 0.94921875 0.57989501953125 0.96417236328125 0.59197998046875 0.28802490234375 0.4798583984375 0.311767578125 0.4263916015625 0.7183837890625 0.96136474609375 0.5062255859375 0.85418701171875 0.5914306640625 0.862548828125 0.6624755859375 0.870849609375 0.6624755859375 0.8292236328125 0.7562255859375 0.85003662109375 0.97265625 0.610595703125 0.96636962890625 0.60333251953125 0.98162841796875 0.61114501953125 0.96014404296875 0.59600830078125 0.99407958984375 0.602294921875 0.8143310546875 0.97064208984375 0.7210693359375 0.948486328125 0.5062255859375 0.920166015625 0.5819091796875 0.93798828125 0.2833251953125 0.4100341796875 0.254150390625 0.41766357421875 0.93670654296875 0.606689453125 0.93829345703125 0.60906982421875 0.96014404296875 0.61688232421875 0.92578125 0.625732421875 0.93511962890625 0.62835693359375 0.9241943359375 0.63665771484375 0.92578125 0.6397705078125 0.9024658203125 0.65435791015625 0.92889404296875 0.64605712890625 0.348876953125 0.4652099609375 0.3721923828125 0.4617919921875 0.87261962890625 0.6474609375 0.92266845703125 0.633544921875 0.87890625 0.62939453125 0.9163818359375 0.62310791015625 0.87261962890625 0.6085205078125 0.84454345703125 0.59393310546875 1 0.95001220703125 0.93121337890625 0.9666748046875 0.96246337890625 1 0.88824462890625 0.9752197265625 0.340576171875 0.46435546875 0.35296630859375 0.4710693359375 0.856201171875 1 0.59375 0.82086181640625 0.254150390625 0.39892578125 0.96954345703125 0.6121826171875 0.96636962890625 0.61376953125 0.9879150390625 0.6163330078125 0.98516845703125 0.62103271484375 0.3443603515625 0.4708251953125 0.1497802734375 0.24688720703125 0.13861083984375 0.2520751953125 0.119384765625 0.24267578125 0.00701904296875 0.2236328125 0.10321044921875 0.2333984375 0.06768798828125 0.2213134765625 0.070556640625 0.20831298828125 0.0384521484375 0.20281982421875 0.79998779296875 0.76251220703125 0.8125 0.75836181640625 0.856201171875 0.8375244140625 0.86871337890625 0.8375244140625 0.93280029296875 0.55938720703125 0.95782470703125 0.57757568359375 0.96636962890625 0.58978271484375 0.46783447265625 0.442626953125 0.47760009765625 0.43634033203125 0.4639892578125 0.4371337890625 0.3656005859375 0.40765380859375 0.00701904296875 0.20147705078125 0.0369873046875 0.216796875 0.115234375 0.22149658203125 0.13531494140625 0.23199462890625 0.847412109375 0.66326904296875 0.86505126953125 0.6629638671875 0.8759765625 0.6627197265625 0.88922119140625 0.6585693359375 0.89581298828125 0.656494140625 0.9375 0.7708740234375 0.913818359375 0.77947998046875 0.8779296875 0.7933349609375 0.8499755859375 0.737548828125 0.83123779296875 0.75 0.74371337890625 0.69171142578125 0.731201171875 0.70001220703125 0.71697998046875 0.71044921875 0.7562255859375 0.683349609375 0.86871337890625 0.72503662109375 0.254150390625 0.481201171875 0.254150390625 0.40826416015625 0.07330322265625 0.20941162109375 0.03759765625 0.2169189453125 0.039306640625 0.20318603515625 0.00665283203125 0.2135009765625 0.00665283203125 0.201416015625 0.00616455078125 0.30499267578125 0.254150390625 0.35943603515625 0.451904296875 0.23748779296875 0.3568115234375 0.25689697265625 0.36395263671875 0.22821044921875 0.2767333984375 0.25689697265625 0.27606201171875 0.2188720703125 0.36248779296875 0.19189453125 0.4495849609375 0.202880859375 0.86248779296875 0.875 0.27764892578125 0.28839111328125 0.35711669921875 0.2884521484375 0.357421875 0.32000732421875 0.45458984375 0.32806396484375 0.45416259765625 0.27215576171875 0.45440673828125 0.30010986328125 0.8341064453125 0.5465087890625 0.83306884765625 0.5369873046875 0.89532470703125 0.55267333984375 0.75909423828125 0.5205078125 0.7955322265625 0.52392578125 0.79998779296875 0.862548828125 0.7587890625 0.49603271484375 0.00701904296875 0.26275634765625 0.98992919921875 0.61285400390625 0.99066162109375 0.61163330078125 0.99322509765625 0.5914306640625 0.5062255859375 0.93243408203125 0.9892578125 0.614013671875 0.9241943359375 0.5633544921875 0.275390625 0.180908203125 0.00701904296875 0.21337890625 0.278564453125 0.31988525390625 0.99212646484375 0.5897216796875 0.6492919921875 0.9549560546875 0.5062255859375 0.81671142578125 0.71807861328125 0.9718017578125</float_array>
                    <technique_common>
                        <accessor count="347" source="#uvarray0" stride="2">
                            <param name="S" type="float"/>
                            <param name="T" type="float"/>
                        </accessor>
                    </technique_common>
                </source>
                <vertices id="vertices0">
                    <input semantic="POSITION" source="#points0"/>
                </vertices>
                <polylist count="1080" material="Material1">
                    <input offset="0" semantic="VERTEX" source="#vertices0"/>
                    <input offset="1" semantic="TEXCOORD" source="#uvs0" set="0"/>
                    <vcount>3 3 3 3 3 3 3 3 3 3 3 3 3 3 3 3 3 3 3 3 3 3 3 3 3 3 3 3 3 3 3 3 3 3 3 3 3 3 3 3 3 3 3 3 3 3 3 3 3 3 3 3 3 3 3 3 3 3 3 3 3 3 3 3 3 3 3 3 3 3 3 3 3 3 3 3 3 3 3 3 3 3 3 3 3 3 3 3 3 3 3 3 3 3 3 3 3 3 3 3 3 3 3 3 3 3 3 3 3 3 3 3 3 3 3 3 3 3 3 3 3 3 3 3 3 3 3 3 3 3 3 3 3 3 3 3 3 3 3 3 3 3 3 3 3 3 3 3 3 3 3 3 3 3 3 3 3 3 3 3 3 3 3 3 3 3 3 3 3 3 3 3 3 3 3 3 3 3 3 3 3 3 3 3 3 3 3 3 3 3 3 3 3 3 3 3 3 3 3 3 3 3 3 3 3 3 3 3 3 3 3 3 3 3 3 3 3 3 3 3 3 3 3 3 3 3 3 3 3 3 3 3 3 3 3 3 3 3 3 3 3 3 3 3 3 3 3 3 3 3 3 3 3 3 3 3 3 3 3 3 3 3 3 3 3 3 3 3 3 3 3 3 3 3 3 3 3 3 3 3 3 3 3 3 3 3 3 3 3 3 3 3 3 3 3 3 3 3 3 3 3 3 3 3 3 3 3 3 3 3 3 3 3 3 3 3 3 3 3 3 3 3 3 3 3 3 3 3 3 3 3 3 3 3 3 3 3 3 3 3 3 3 3 3 3 3 3 3 3 3 3 3 3 3 3 3 3 3 3 3 3 3 3 3 3 3 3 3 3 3 3 3 3 3 3 3 3 3 3 3 3 3 3 3 3 3 3 3 3 3 3 3 3 3 3 3 3 3 3 3 3 3 3 3 3 3 3 3 3 3 3 3 3 3 3 3 3 3 3 3 3 3 3 3 3 3 3 3 3 3 3 3 3 3 3 3 3 3 3 3 3 3 3 3 3 3 3 3 3 3 3 3 3 3 3 3 3 3 3 3 3 3 3 3 3 3 3 3 3 3 3 3 3 3 3 3 3 3 3 3 3 3 3 3 3 3 3 3 3 3 3 3 3 3 3 3 3 3 3 3 3 3 3 3 3 3 3 3 3 3 3 3 3 3 3 3 3 3 3 3 3 3 3 3 3 3 3 3 3 3 3 3 3 3 3 3 3 3 3 3 3 3 3 3 3 3 3 3 3 3 3 3 3 3 3 3 3 3 3 3 3 3 3 3 3 3 3 3 3 3 3 3 3 3 3 3 3 3 3 3 3 3 3 3 3 3 3 3 3 3 3 3 3 3 3 3 3 3 3 3 3 3 3 3 3 3 3 3 3 3 3 3 3 3 3 3 3 3 3 3 3 3 3 3 3 3 3 3 3 3 3 3 3 3 3 3 3 3 3 3 3 3 3 3 3 3 3 3 3 3 3 3 3 3 3 3 3 3 3 3 3 3 3 3 3 3 3 3 3 3 3 3 3 3 3 3 3 3 3 3 3 3 3 3 3 3 3 3 3 3 3 3 3 3 3 3 3 3 3 3 3 3 3 3 3 3 3 3 3 3 3 3 3 3 3 3 3 3 3 3 3 3 3 3 3 3 3 3 3 3 3 3 3 3 3 3 3 3 3 3 3 3 3 3 3 3 3 3 3 3 3 3 3 3 3 3 3 3 3 3 3 3 3 3 3 3 3 3 3 3 3 3 3 3 3 3 3 3 3 3 3 3 3 3 3 3 3 3 3 3 3 3 3 3 3 3 3 3 3 3 3 3 3 3 3 3 3 3 3 3 3 3 3 3 3 3 3 3 3 3 3 3 3 3 3 3 3 3 3 3 3 3 3 3 3 3 3 3 3 3 3 3 3 3 3 3 3 3 3 3 3 3 3 3 3 3 3 3 3 3 3 3 3 3 3 3 3 3 3 3 3 3 3 3 3 3 3 3 3 3 3 3 3 3 3 3 3 3 3 3 3 3 3 3 3 3 3 3 3 3 3 3 3 3 3 3 3 3 3 3 3 3 3 3 3 3 3 3 3 3 3 3 3 3 3 3 3 3 3 3 3 3 3 3 3 3 3 3 3 3 3 3 3 3 3 3 3 3 3 3 3 3 3 3 3 3 3 3 3 3 3 3 3 3 3 3 3 3 3 3 3 3 3 3 3 3 3 3 3 3 3 3 3 3 3 3 3 3 3 3 3 3 3 3 3 3 3 3 3 3 3 3 3 3 3 3 3 3 3 3 3 3 3 3 3 3 3 3 3 3 3 3 3 3 3 3 3 3 3 3 3 3 3 3 3 3 3 3 3 3 3 3 3 3 3 3 3 3 3 3 3 3 3 3 3 3 3 3 3 3 3 3 3 3 3 3 3 3 3 3 3 3 3 3 3 3 3 3 3 3</vcount>
                    <p>2 2 1 1 0 0 3 3 1 1 2 2 4 4 3 3 2 2 5 5 3 3 4 4 6 6 5 5 4 4 7 7 5 5 6 6 8 8 7 7 6 6 9 9 7 7 8 8 10 10 9 9 8 8 11 11 9 9 10 10 12 12 11 11 10 10 13 13 11 11 12 12 14 14 13 13 12 12 15 15 13 13 14 14 16 16 15 15 14 14 17 17 15 15 16 16 18 18 17 17 16 16 19 19 17 17 18 18 20 20 19 19 18 18 21 21 19 19 20 20 22 22 21 21 20 20 23 23 21 21 22 22 24 24 23 23 22 22 25 25 23 23 24 24 26 26 25 25 24 24 27 27 25 25 26 26 28 28 27 27 26 26 29 29 27 27 28 28 30 30 29 29 28 28 31 28 29 29 30 30 1 33 32 32 0 31 33 34 32 32 1 33 34 35 33 34 1 33 35 36 33 34 34 35 36 37 35 36 34 35 37 38 35 36 36 37 38 39 37 38 36 37 39 40 37 38 38 39 40 41 39 40 38 39 41 42 39 40 40 41 42 43 41 42 40 41 43 44 41 42 42 43 44 45 43 44 42 43 45 46 43 44 44 45 46 44 45 46 44 45 47 47 45 46 46 44 48 34 47 47 46 44 49 48 47 47 48 34 50 49 49 48 48 34 51 50 49 48 50 49 52 51 51 50 50 49 53 49 51 50 52 51 54 52 53 49 52 51 33 34 53 49 54 52 32 32 33 34 54 52 57 55 56 54 55 53 58 56 56 54 57 55 59 57 58 56 57 55 60 58 58 56 59 57 61 59 60 58 59 57 62 60 60 58 61 59 63 61 62 60 61 59 64 62 62 60 63 61 65 63 64 62 63 61 66 64 64 62 65 63 67 65 66 64 65 63 68 63 66 64 67 65 69 66 68 63 67 65 70 67 68 63 69 66 71 68 70 67 69 66 72 69 70 67 71 68 40 70 72 69 71 68 73 71 72 69 40 70 38 72 73 71 40 70 74 73 73 71 38 72 36 74 74 73 38 72 34 75 74 73 36 74 77 78 76 77 75 76 78 79 76 77 77 78 79 80 78 79 77 78 80 81 78 79 79 80 81 82 80 81 79 80 82 83 80 81 81 82 83 84 82 83 81 82 84 85 82 83 83 84 85 13 84 85 83 84 86 86 84 85 85 13 87 11 86 86 85 13 88 87 86 86 87 11 89 9 88 87 87 11 90 7 88 87 89 9 91 8 90 7 89 9 92 6 90 7 91 8 93 88 92 6 91 8 94 89 92 6 93 88 95 90 94 89 93 88 96 91 94 89 95 90 97 92 96 91 95 90 98 88 8 8 6 6 99 93 8 8 98 88 100 94 99 93 98 88 101 95 99 93 100 94 102 96 101 95 100 94 103 97 101 95 102 96 104 98 103 97 102 96 105 99 103 97 104 98 106 100 105 99 104 98 107 101 105 99 106 100 108 102 107 101 106 100 109 103 107 101 108 102 110 104 109 103 108 102 111 105 109 103 110 104 112 106 111 105 110 104 113 107 111 105 112 106 114 108 113 107 112 106 115 109 113 107 114 108 116 110 115 109 114 108 117 111 115 109 116 110 26 26 117 111 28 28 115 109 117 111 26 26 24 24 115 109 26 26 113 107 115 109 24 24 118 112 113 107 24 24 111 105 113 107 118 112 119 113 111 105 118 112 109 103 111 105 119 113 120 114 109 103 119 113 107 101 109 103 120 114 121 115 107 101 120 114 122 116 107 101 121 115 123 117 122 116 121 115 124 118 122 116 123 117 125 119 124 118 123 117 126 120 124 118 125 119 127 121 126 120 125 119 12 12 126 120 127 121 14 14 12 12 127 121 130 124 129 123 128 122 131 125 129 123 130 124 132 126 131 125 130 124 133 124 131 125 132 126 134 127 133 124 132 126 135 128 133 124 134 127 136 129 135 128 134 127 137 130 135 128 136 129 138 131 137 130 136 129 139 132 137 130 138 131 140 133 139 132 138 131 141 134 139 132 140 133 142 135 141 134 140 133 143 136 141 134 142 135 144 137 143 136 142 135 145 138 143 136 144 137 146 139 145 138 144 137 147 140 145 138 146 139 148 141 147 140 146 139 151 144 150 143 149 142 152 145 150 143 151 144 153 146 152 145 151 144 154 147 152 145 153 146 155 148 154 147 153 146 156 149 154 147 155 148 157 150 156 149 155 148 158 151 156 149 157 150 159 152 158 151 157 150 160 153 158 151 159 152 161 154 160 153 159 152 162 152 160 153 161 154 163 155 162 152 161 154 164 150 162 152 163 155 165 156 164 150 163 155 166 157 164 150 165 156 167 158 166 157 165 156 168 159 166 157 167 158 85 13 169 12 87 11 170 14 169 12 85 13 171 15 170 14 85 13 172 16 170 14 171 15 173 17 172 16 171 15 174 18 172 16 173 17 175 19 174 18 173 17 176 20 174 18 175 19 177 21 176 20 175 19 178 22 176 20 177 21 179 23 178 22 177 21 180 24 178 22 179 23 181 25 180 24 179 23 182 26 180 24 181 25 183 27 182 26 181 25 31 28 182 26 183 27 29 29 31 28 183 27 170 14 184 121 169 12 185 119 184 121 170 14 186 160 185 119 170 14 187 161 185 119 186 160 188 162 187 161 186 160 189 163 187 161 188 162 190 164 189 163 188 162 191 165 189 163 190 164 178 22 191 165 190 164 192 166 191 165 178 22 180 24 192 166 178 22 193 112 192 166 180 24 194 107 193 112 180 24 195 105 193 112 194 107 196 106 195 105 194 107 197 104 195 105 196 106 198 167 4 4 2 2 199 89 4 4 198 167 200 91 199 89 198 167 201 90 199 89 200 91 202 92 201 90 200 91 203 168 201 90 202 92 204 169 203 168 202 92 205 170 203 168 204 169 206 171 205 170 204 169 207 172 205 170 206 171 208 173 207 172 206 171 106 100 207 172 208 173 209 174 106 100 208 173 108 102 106 100 209 174 210 175 108 102 209 174 110 104 108 102 210 175 213 178 212 177 211 176 214 179 212 177 213 178 215 180 214 179 213 178 216 181 214 179 215 180 217 182 216 181 215 180 218 183 216 181 217 182 219 184 218 183 217 182 220 185 218 183 219 184 221 186 220 185 219 184 222 187 220 185 221 186 223 188 222 187 221 186 224 189 222 187 223 188 225 190 224 189 223 188 208 191 224 189 225 190 209 192 208 191 225 190 227 193 226 84 13 13 228 194 226 84 227 193 229 195 228 194 227 193 230 196 228 194 229 195 231 197 230 196 229 195 232 198 230 196 231 197 233 199 232 198 231 197 234 200 232 198 233 199 235 201 234 200 233 199 236 199 234 200 235 201 237 202 236 199 235 201 238 203 236 199 237 202 179 23 238 203 237 202 177 21 238 203 179 23 241 206 240 205 239 204 242 204 240 205 241 206 243 207 242 204 241 206 244 208 242 204 243 207 215 180 244 208 243 207 245 209 244 208 215 180 213 178 245 209 215 180 246 210 245 209 213 178 211 176 246 210 213 178 247 211 246 210 211 176 248 212 247 211 211 176 249 213 247 211 248 212 250 214 249 213 248 212 251 215 27 27 29 29 25 25 27 27 251 215 252 202 25 25 251 215 23 23 25 25 252 202 253 203 23 23 252 202 21 21 23 23 253 203 254 216 21 21 253 203 19 19 21 21 254 216 229 195 19 19 254 216 17 17 19 19 229 195 227 193 17 17 229 195 15 15 17 17 227 193 13 13 15 15 227 193 256 128 128 122 255 217 130 124 128 122 256 128 257 127 130 124 256 128 132 126 130 124 257 127 258 218 132 126 257 127 134 127 132 126 258 218 259 219 134 127 258 218 136 129 134 127 259 219 260 220 136 129 259 219 138 131 136 129 260 220 261 221 138 131 260 220 262 222 138 131 261 221 265 180 264 181 263 182 266 179 264 181 265 180 267 178 266 179 265 180 268 177 266 179 267 178 269 176 268 177 267 178 270 223 268 177 269 176 271 224 270 223 269 176 272 225 270 223 271 224 273 226 272 225 271 224 274 227 272 225 273 226 275 214 274 227 273 226 276 228 139 132 141 134 277 229 139 132 276 228 278 217 277 229 276 228 135 128 277 229 278 217 279 122 135 128 278 217 133 124 135 128 279 122 280 123 133 124 279 122 131 125 133 124 280 123 281 230 131 125 280 123 129 123 131 125 281 230 282 231 129 123 281 230 228 194 283 82 226 84 284 232 283 82 228 194 230 196 284 232 228 194 285 233 284 232 230 196 232 198 285 233 230 196 286 196 285 233 232 198 287 197 286 196 232 198 288 195 286 196 287 197 289 216 288 195 287 197 175 19 288 195 289 216 177 21 175 19 289 216 125 119 14 14 127 121 290 160 14 14 125 119 291 161 290 160 125 119 292 162 290 160 291 161 293 163 292 162 291 161 294 164 292 162 293 163 295 165 294 164 293 163 22 22 294 164 295 165 296 166 22 22 295 165 24 24 22 22 296 166 118 112 24 24 296 166 13 13 297 86 11 11 298 85 297 86 13 13 226 84 298 85 13 13 299 83 298 85 226 84 283 82 299 83 226 84 300 81 299 83 283 82 301 80 300 81 283 82 302 79 300 81 301 80 77 78 302 79 301 80 303 77 302 79 77 78 75 76 303 77 77 78 306 236 305 235 304 234 307 187 305 235 306 236 308 189 307 187 306 236 309 188 307 187 308 189 310 190 309 188 308 189 311 237 309 188 310 190 312 238 311 237 310 190 313 239 311 237 312 238 314 240 313 239 312 238 197 241 313 239 314 240 315 242 197 241 314 240 317 244 189 163 316 243 187 161 189 163 317 244 318 117 187 161 317 244 185 119 187 161 318 117 319 118 185 119 318 117 320 120 185 119 319 118 321 95 320 120 319 118 322 10 320 120 321 95 323 93 322 10 321 95 91 8 322 10 323 93 326 100 325 101 324 102 327 99 325 101 326 100 328 98 327 99 326 100 329 97 327 99 328 98 330 96 329 97 328 98 321 95 329 97 330 96 331 94 321 95 330 96 323 93 321 95 331 94 93 88 323 93 331 94 91 8 323 93 93 88 332 174 324 102 315 175 326 100 324 102 332 174 333 173 326 100 332 174 334 172 326 100 333 173 335 171 334 172 333 173 336 170 334 172 335 171 337 169 336 170 335 171 338 168 336 170 337 169 97 92 338 168 337 169 95 90 338 168 97 92 341 247 340 246 339 245 342 248 340 246 341 247 343 249 342 248 341 247 344 184 342 248 343 249 345 250 344 184 343 249 263 182 344 184 345 250 346 207 263 182 345 250 265 180 263 182 346 207 347 208 265 180 346 207 348 209 265 180 347 208 351 252 350 251 349 136 352 253 350 251 351 252 353 254 352 253 351 252 354 228 352 253 353 254 355 134 354 228 353 254 356 132 354 228 355 134 357 133 356 132 355 134 358 131 356 132 357 133 359 222 358 131 357 133 360 221 358 131 359 222 361 255 189 163 191 165 316 243 189 163 361 255 362 256 316 243 361 255 363 115 316 243 362 256 364 114 363 115 362 256 325 101 363 115 364 114 365 103 325 101 364 114 324 102 325 101 365 103 197 104 324 102 365 103 315 175 324 102 197 104 354 228 366 257 352 253 255 217 366 257 354 228 367 229 255 217 354 228 256 128 255 217 367 229 368 130 256 128 367 229 369 129 256 128 368 130 358 131 369 129 368 130 370 220 369 129 358 131 360 221 370 220 358 131 371 258 370 220 360 221 372 248 221 186 219 184 223 188 221 186 372 248 373 237 223 188 372 248 225 190 223 188 373 237 374 238 225 190 373 237 209 192 225 190 374 238 375 240 209 192 374 238 210 242 209 192 375 240 110 241 210 242 375 240 376 259 77 78 301 80 79 80 77 78 376 259 377 232 79 80 376 259 81 82 79 80 377 232 378 194 81 82 377 232 83 84 81 82 378 194 379 193 83 84 378 194 85 13 83 84 379 193 171 15 85 13 379 193 211 176 380 224 248 212 381 223 380 224 211 176 212 177 381 223 211 176 382 260 381 223 212 177 383 234 382 260 212 177 384 261 382 260 383 234 385 236 384 261 383 234 204 262 384 261 385 236 206 263 204 262 385 236 304 234 266 179 268 177 264 181 266 179 304 234 305 235 264 181 304 234 386 183 264 181 305 235 307 187 386 183 305 235 387 185 386 183 307 187 388 186 387 185 307 187 344 184 387 185 388 186 342 248 344 184 388 186 123 117 291 161 125 119 389 244 291 161 123 117 121 115 389 244 123 117 390 243 389 244 121 115 391 256 390 243 121 115 392 255 390 243 391 256 393 264 392 255 391 256 295 165 392 255 393 264 296 166 295 165 393 264 32 32 394 265 0 31 395 266 394 265 32 32 54 52 395 266 32 32 396 267 395 266 54 52 397 268 396 267 54 52 398 269 396 267 397 268 399 270 398 269 397 268 400 271 398 269 399 270 401 272 400 271 399 270 404 275 403 274 402 273 405 276 403 274 404 275 406 135 405 276 404 275 407 137 405 276 406 135 349 136 407 137 406 135 408 138 407 137 349 136 350 251 408 138 349 136 409 140 408 138 350 251 410 251 145 138 147 140 143 136 145 138 410 251 411 252 143 136 410 251 141 134 143 136 411 252 412 254 141 134 411 252 276 228 141 134 412 254 413 253 276 228 412 254 414 257 276 228 413 253 164 150 400 149 401 151 415 148 400 149 164 150 166 157 415 148 164 150 416 146 415 148 166 157 417 277 416 146 166 157 418 278 416 146 417 277 249 213 418 278 417 277 419 279 418 278 249 213 420 5 90 7 92 6 421 280 90 7 420 5 422 281 421 280 420 5 423 282 421 280 422 281 56 54 423 282 422 281 424 283 423 282 56 54 58 56 424 283 56 54 60 58 424 283 58 56 426 75 55 53 425 1 57 55 55 53 426 75 427 73 57 55 426 75 59 57 57 55 427 73 428 71 59 57 427 73 429 69 59 57 428 71 430 70 429 69 428 71 431 68 429 69 430 70 433 285 158 272 432 284 434 270 158 272 433 285 397 268 434 270 433 285 435 269 434 270 397 268 436 267 435 269 397 268 154 286 435 269 436 267 152 287 154 286 436 267 339 245 437 289 31 288 438 290 437 289 339 245 340 246 438 290 339 245 439 291 438 290 340 246 313 239 439 291 340 246 196 292 439 291 313 239 197 241 196 292 313 239 146 139 440 293 148 141 441 294 440 293 146 139 442 295 441 294 146 139 443 296 441 294 442 295 444 297 443 296 442 295 445 298 443 296 444 297 446 299 445 298 444 297 448 213 447 279 275 214 449 278 447 279 448 213 450 277 449 278 448 213 153 146 449 278 450 277 451 157 153 146 450 277 155 148 153 146 451 157 157 150 155 148 451 157 297 86 452 87 11 11 453 282 452 87 297 86 298 85 453 282 297 86 454 283 453 282 298 85 299 83 454 283 298 85 455 58 454 283 299 83 456 60 455 58 299 83 403 274 457 300 402 273 458 299 457 300 403 274 459 297 458 299 403 274 460 298 458 299 459 297 461 296 460 298 459 297 462 301 460 298 461 296 463 302 462 301 461 296 436 267 150 265 152 287 464 266 150 265 436 267 465 52 464 266 436 267 466 32 464 266 465 52 48 34 466 32 465 52 425 33 466 32 48 34 426 35 425 33 48 34 461 296 467 293 463 302 468 294 467 293 461 296 469 295 468 294 461 296 470 139 468 294 469 295 407 137 470 139 469 295 408 138 470 139 407 137 471 260 268 177 270 223 304 234 268 177 471 260 472 261 304 234 471 260 306 236 304 234 472 261 337 262 306 236 472 261 335 263 306 236 337 262 172 16 186 160 170 14 188 162 186 160 172 16 174 18 188 162 172 16 190 164 188 162 174 18 176 20 190 164 174 18 178 22 190 164 176 20 237 202 181 25 179 23 473 215 181 25 237 202 235 201 473 215 237 202 474 303 473 215 235 201 251 215 474 303 235 201 29 29 474 303 251 215 365 103 195 105 197 104 475 113 195 105 365 103 364 114 475 113 365 103 476 264 475 113 364 114 362 256 476 264 364 114 361 255 476 264 362 256 284 232 301 80 283 82 376 259 301 80 284 232 477 304 376 259 284 232 377 232 376 259 477 304 285 233 377 232 477 304 286 196 377 232 285 233 199 89 6 6 4 4 98 88 6 6 199 89 201 90 98 88 199 89 100 94 98 88 201 90 203 168 100 94 201 90 205 170 100 94 203 168 423 282 86 86 88 87 84 85 86 86 423 282 424 283 84 85 423 282 82 83 84 85 424 283 60 58 82 83 424 283 62 60 82 83 60 58 71 305 42 43 40 41 478 306 42 43 71 305 69 307 478 306 71 305 479 308 478 306 69 307 67 309 479 308 69 307 480 307 479 308 67 309 74 73 481 57 73 71 482 55 481 57 74 73 34 75 482 55 74 73 483 53 482 55 34 75 1 1 483 53 34 75 3 3 483 53 1 1 43 44 33 34 35 36 484 47 33 34 43 44 45 46 484 47 43 44 485 310 484 47 45 46 47 47 485 310 45 46 49 48 485 310 47 47 486 62 303 77 75 76 456 60 303 77 486 62 487 61 456 60 486 62 488 59 456 60 487 61 70 67 488 59 487 61 72 69 488 59 70 67 64 62 76 77 62 60 75 76 76 77 64 62 489 311 75 76 64 62 486 62 75 76 489 311 66 64 486 62 489 311 68 63 486 62 66 64 5 5 490 281 3 3 491 280 490 281 5 5 7 7 491 280 5 5 452 87 491 280 7 7 9 9 452 87 7 7 11 11 452 87 9 9 363 115 317 244 316 243 318 117 317 244 363 115 492 116 318 117 363 115 319 118 318 117 492 116 329 97 319 118 492 116 321 95 319 118 329 97 495 314 494 313 493 312 496 315 494 313 495 314 497 316 496 315 495 314 498 314 496 315 497 316 499 317 498 314 497 316 500 318 498 314 499 317 46 44 501 36 48 34 502 38 501 36 46 44 503 40 502 38 46 44 504 39 502 38 503 40 430 41 504 39 503 40 309 188 388 186 307 187 342 248 388 186 309 188 311 237 342 248 309 188 340 246 342 248 311 237 313 239 340 246 311 237 505 225 381 223 382 260 380 224 381 223 505 225 506 226 380 224 505 225 248 212 380 224 506 226 250 214 248 212 506 226 508 246 507 245 116 290 509 247 507 245 508 246 372 248 509 247 508 246 510 249 509 247 372 248 219 184 510 249 372 248 320 120 184 121 185 119 169 12 184 121 320 120 322 10 169 12 320 120 87 11 169 12 322 10 89 9 87 11 322 10 310 190 332 192 312 238 333 191 332 192 310 190 308 189 333 191 310 190 335 263 333 191 308 189 306 236 335 263 308 189 144 137 442 295 146 139 511 276 442 295 144 137 142 135 511 276 144 137 512 275 511 276 142 135 513 319 512 275 142 135 514 313 496 315 498 314 515 320 496 315 514 313 516 321 515 320 514 313 239 322 515 320 516 321 347 323 239 322 516 321 494 313 517 324 493 312 245 325 517 324 494 313 518 321 245 325 494 313 244 323 245 325 518 321 242 322 244 323 518 321 246 210 517 326 245 209 493 327 517 326 246 210 519 328 493 327 246 210 167 158 493 327 519 328 168 159 167 158 519 328 122 116 105 99 107 101 103 97 105 99 122 116 124 118 103 97 122 116 101 95 103 97 124 118 126 120 101 95 124 118 425 1 274 2 149 0 520 3 274 2 425 1 55 53 520 3 425 1 422 281 520 3 55 53 56 54 422 281 55 53 522 155 499 330 521 329 500 158 499 330 522 155 523 156 500 158 522 155 451 157 500 158 523 156 157 150 451 157 523 156 120 114 391 256 121 115 393 264 391 256 120 114 119 113 393 264 120 114 296 166 393 264 119 113 118 112 296 166 119 113 524 210 269 176 267 178 525 211 269 176 524 210 526 328 525 211 524 210 527 159 525 211 526 328 500 158 527 159 526 328 348 209 267 178 265 180 524 210 267 178 348 209 528 326 524 210 348 209 529 327 524 210 528 326 51 50 485 310 49 48 530 48 485 310 51 50 53 49 530 48 51 50 33 34 530 48 53 49 369 129 257 127 256 128 531 219 257 127 369 129 370 220 531 219 369 129 371 258 531 219 370 220 532 109 180 24 182 26 194 107 180 24 532 109 439 108 194 107 532 109 196 106 194 107 439 108 406 135 355 134 349 136 357 133 355 134 406 135 533 331 357 133 406 135 359 222 357 133 533 331 437 111 182 26 31 28 532 109 182 26 437 111 438 110 532 109 437 111 439 108 532 109 438 110 534 4 92 6 94 89 420 5 92 6 534 4 520 3 420 5 534 4 422 281 420 5 520 3 535 167 94 89 96 91 534 4 94 89 535 167 274 2 534 4 535 167 520 3 534 4 274 2 114 291 508 246 116 290 536 239 508 246 114 291 112 292 536 239 114 291 110 241 536 239 112 292 160 153 432 332 158 151 401 151 432 332 160 153 162 152 401 151 160 153 164 150 401 151 162 152 416 146 538 145 537 147 539 144 538 145 416 146 418 278 539 144 416 146 419 279 539 144 418 278 429 69 61 59 59 57 540 67 61 59 429 69 431 68 540 67 429 69 480 66 540 67 431 68 488 59 455 58 456 60 481 57 455 58 488 59 72 69 481 57 488 59 73 71 481 57 72 69 289 216 238 203 177 21 236 199 238 203 289 216 287 197 236 199 289 216 232 198 236 199 287 197 65 63 480 66 67 65 540 67 480 66 65 63 63 61 540 67 65 63 61 59 540 67 63 61 529 312 498 314 500 318 514 313 498 314 529 312 528 324 514 313 529 312 348 325 514 313 528 324 254 216 231 197 229 195 233 199 231 197 254 216 253 203 233 199 254 216 252 202 233 199 253 203 104 98 207 172 106 100 205 170 207 172 104 98 102 96 205 170 104 98 100 94 205 170 102 96 161 154 521 329 163 155 522 155 521 329 161 154 159 152 522 155 161 154 157 150 522 155 159 152 222 187 218 183 220 185 541 235 218 183 222 187 385 236 541 235 222 187 383 234 541 235 385 236 542 43 46 44 44 45 543 42 46 44 542 43 430 41 543 42 542 43 503 40 543 42 430 41 397 268 465 52 436 267 544 333 465 52 397 268 54 52 544 333 397 268 52 51 544 333 54 52 545 306 44 45 479 308 542 43 44 45 545 306 431 305 542 43 545 306 430 41 542 43 431 305 501 36 426 35 48 34 546 37 426 35 501 36 502 38 546 37 501 36 504 39 546 37 502 38 200 334 382 260 384 261 505 225 382 260 200 334 198 335 505 225 200 334 2 227 505 225 198 335 492 116 327 99 329 97 325 101 327 99 492 116 363 115 325 101 492 116 547 212 269 176 525 211 271 224 269 176 547 212 273 226 271 224 547 212 419 279 2 227 0 336 250 214 2 227 419 279 249 213 250 214 419 279 281 230 548 337 282 231 549 231 548 337 281 230 280 123 549 231 281 230 396 267 394 265 395 266 538 287 394 265 396 267 537 286 538 287 396 267 550 285 399 270 397 268 401 272 399 270 550 285 432 284 401 272 550 285 472 261 97 338 337 262 96 334 97 338 472 261 471 260 96 334 472 261 551 274 442 295 511 276 444 297 442 295 551 274 446 299 444 297 551 274 515 320 494 313 496 315 518 321 494 313 515 320 242 322 518 321 515 320 551 274 552 300 446 299 553 273 552 300 551 274 512 275 553 273 551 274 163 155 167 158 165 156 554 330 167 158 163 155 521 329 554 330 163 155 331 94 95 90 93 88 338 168 95 90 331 94 336 170 338 168 331 94 456 60 302 79 303 77 300 81 302 79 456 60 299 83 300 81 456 60 453 282 491 280 452 87 490 281 491 280 453 282 555 54 490 281 453 282 465 52 50 49 48 34 52 51 50 49 465 52 544 333 52 51 465 52 466 32 150 265 464 266 149 31 150 265 466 32 425 33 149 31 466 32 62 60 80 81 82 83 78 79 80 81 62 60 76 77 78 79 62 60 469 295 405 276 407 137 403 274 405 276 469 295 459 297 403 274 469 295 470 139 467 293 468 294 556 141 467 293 470 139 409 140 556 141 470 139 156 271 435 269 154 286 434 270 435 269 156 271 158 272 434 270 156 271 473 215 183 27 181 25 29 29 183 27 473 215 474 303 29 29 473 215 417 277 557 339 249 213 168 159 557 339 417 277 166 157 168 159 417 277 43 44 39 40 41 42 37 38 39 40 43 44 35 36 37 38 43 44 378 194 288 195 379 193 286 196 288 195 378 194 377 232 286 196 378 194 173 17 288 195 175 19 379 193 288 195 173 17 171 15 379 193 173 17 356 132 367 229 354 228 368 130 367 229 356 132 358 131 368 130 356 132 508 246 373 237 372 248 536 239 373 237 508 246 167 318 495 314 493 312 554 317 495 314 167 318 336 170 330 96 328 98 331 94 330 96 336 170 398 269 537 286 396 267 400 271 537 286 398 269 448 213 547 212 525 211 275 214 547 212 448 213 554 317 497 316 495 314 521 340 497 316 554 317 484 47 530 48 33 34 485 310 530 48 484 47 334 172 328 98 326 100 336 170 328 98 334 172 375 240 536 239 110 241 374 238 536 239 375 240 192 166 475 113 476 264 193 112 475 113 192 166 191 165 476 264 361 255 192 166 476 264 191 165 252 202 235 201 233 199 251 215 235 201 252 202 558 341 432 284 550 285 433 285 432 284 558 341 516 321 348 325 347 323 514 313 348 325 516 321 240 342 515 320 239 322 242 322 515 320 240 342 480 307 545 306 479 308 431 305 545 306 480 307 478 306 44 45 42 43 479 308 44 45 478 306 559 250 219 184 217 182 510 249 219 184 559 250 206 263 224 189 208 191 385 236 224 189 206 263 243 207 217 182 215 180 559 250 217 182 243 207 216 181 541 235 383 234 218 183 541 235 216 181 214 179 383 234 212 177 216 181 383 234 214 179 527 159 451 157 450 277 500 158 451 157 527 159 293 163 392 255 295 165 390 243 392 255 293 163 389 244 293 163 291 161 390 243 293 163 389 244 16 16 290 160 292 162 14 14 290 160 16 16 18 18 292 162 294 164 16 16 292 162 18 18 20 20 294 164 22 22 18 18 294 164 20 20 10 10 126 120 12 12 101 95 126 120 10 10 481 57 560 56 455 58 482 55 560 56 481 57 68 63 487 61 486 62 70 67 487 61 68 63 555 54 482 55 483 53 560 56 482 55 555 54 490 281 483 53 3 3 555 54 483 53 490 281 415 148 537 147 400 149 416 146 537 147 415 148 428 71 504 72 430 70 427 73 504 72 428 71 561 339 450 277 448 213 527 159 450 277 561 339 99 93 10 10 8 8 101 95 10 10 99 93 447 279 151 144 149 343 449 278 151 144 447 279 247 211 519 328 246 210 168 159 519 328 247 211 557 339 247 211 249 213 168 159 247 211 557 339 346 207 239 204 347 208 241 206 239 204 346 207 546 74 427 73 426 75 504 72 427 73 546 74 274 227 447 279 149 336 275 214 447 279 274 227 394 143 539 144 0 142 538 145 539 144 394 143 117 289 507 245 28 288 116 290 507 245 117 289 562 344 280 123 279 122 549 231 280 123 562 344 563 344 129 123 282 231 128 122 129 123 563 344 561 339 525 211 527 159 448 213 525 211 561 339 535 335 272 225 274 227 96 334 272 225 535 335 526 328 529 327 500 158 524 210 529 327 526 328 344 184 386 183 387 185 263 182 386 183 344 184 564 331 142 135 140 133 513 319 142 135 564 331 272 225 471 260 270 223 96 334 471 260 272 225 262 222 140 133 138 131 564 331 140 133 262 222 440 293 443 296 565 302 441 294 443 296 440 293 277 229 137 130 139 132 135 128 137 130 277 229 260 220 566 258 261 221 259 219 566 258 260 220 567 301 443 296 445 298 565 302 443 296 567 301 411 252 413 253 412 254 410 251 413 253 411 252 568 345 258 218 371 258 566 258 258 218 568 345 531 219 258 218 257 127 371 258 258 218 531 219 351 252 355 134 353 254 349 136 355 134 351 252 202 338 384 261 204 262 200 334 384 261 202 338 506 226 2 227 250 214 505 225 2 227 506 226 560 56 454 283 455 58 555 54 454 283 560 56 569 319 406 135 404 275 533 331 406 135 569 319 421 280 88 87 90 7 423 282 88 87 421 280 314 240 332 192 315 242 312 238 332 192 314 240 255 217 128 122 563 344 512 275 551 274 511 276 322 10 91 8 89 9 414 257 570 346 278 217 195 105 475 113 193 112 547 212 275 214 273 226 264 181 386 183 263 182 570 346 562 344 278 217 278 217 562 344 279 122 366 257 255 217 571 346 571 346 255 217 563 344 276 228 414 257 278 217 449 278 153 146 151 144 499 317 497 316 521 340 374 238 373 237 536 239 419 279 0 343 539 144 236 199 232 198 234 200 258 218 566 258 259 219 285 233 477 304 284 232 64 62 66 64 489 311 409 140 470 139 408 138 469 295 461 296 459 297 157 150 523 156 522 155 46 44 543 42 503 40 454 283 555 54 453 282 385 236 222 187 224 189</p>
                </polylist>
            </mesh>
        </geometry>
    </library_geometries>
    <library_visual_scenes>
        <visual_scene id="VisualSceneNode">
            <node id="node0" name="m0" type="NODE">
                <instance_geometry url="#mesh0">
                    <bind_material>
                        <technique_common>
                            <instance_material symbol="Material1" target="#mat0">
                                <bind_vertex_input semantic="UVSET0" input_semantic="TEXCOORD" input_set="0"></bind_vertex_input>
                            </instance_material>
                        </technique_common>
                    </bind_material>
                </instance_geometry>
            </node>
        </visual_scene>
    </library_visual_scenes>
    <scene>
        <instance_visual_scene url="#VisualSceneNode"></instance_visual_scene>
    </scene>
</COLLADA>
