<?xml version="1.0"?>
<COLLADA xmlns="http://www.collada.org/2005/11/COLLADASchema" version="1.4.1">
    <asset>
        <contributor>
            <authoring_tool>J3D Ripoff Exporter</authoring_tool>
        </contributor>
        <created>2024-08-02T13:57:17.443Z</created>
        <modified>2024-08-02T13:57:17.443Z</modified>
		<unit meter="0.01" name="centimeter" ></unit>
        <up_axis>Y_UP</up_axis>
    </asset>
    <library_images>
        <image id="tex0">
            <init_from>donkey_all.png</init_from>
        </image>
    </library_images>
    <library_effects>
        <effect id="effect0">
            <profile_COMMON>
                <newparam sid="surface0">
                    <surface type="2D">
                        <init_from>tex0</init_from>
                    </surface>
                </newparam>
                <newparam sid="sampler0">
                    <sampler2D>
                        <source>surface0</source>
                    </sampler2D>
                </newparam>
                <technique sid="COMMON">
                    <blinn>
                        <diffuse>
                            <texture texture="sampler0" texcoord="UVSET0"></texture>
                        </diffuse>
                    </blinn>
                </technique>
            </profile_COMMON>
        </effect>
    </library_effects>
    <library_materials>
        <material id="mat0" name="Dummy">
            <instance_effect url="#effect0"></instance_effect>
        </material>
    </library_materials>
    <library_geometries>
        <geometry id="mesh0">
            <mesh>
                <source id="points0">
                    <float_array id="pointarray0" count="2448">23.6640625 28.55078125 0 27.09375 28.04296875 10.76171875 25.09765625 27.7734375 15.671875 32.00390625 27.6640625 12.734375 32.3984375 28.11328125 18.60546875 37.2265625 28.62109375 18.140625 37.45703125 26.05078125 18.8984375 45.13671875 27.68359375 16.19921875 36.796875 22.06640625 15.640625 45.0703125 24.24609375 13.18359375 43.9140625 21.76953125 5.31640625 50.8125 27.37109375 8.4765625 52.8359375 29.4453125 0 50.12890625 31.2734375 10.14453125 52.92578125 34.01953125 0 47.23046875 32.359375 9.71875 49.3984375 34.51953125 0 42.34375 30.140625 10.26953125 40.84375 30.11328125 0 36.1484375 28.33984375 0 42.30859375 30.1484375 -10.26953125 36.55859375 28.06640625 -12.19921875 37.2265625 28.62109375 -18.140625 32.3984375 28.11328125 -18.60546875 37.45703125 26.05078125 -18.8984375 32.3515625 25.80078125 -19.3984375 31.37890625 22.08203125 -16.3125 24.234375 23.5625 -13.8125 29.95703125 20.4296875 -6.91796875 22.9296875 23.30078125 -6.6875 23.05078125 24.2578125 0 22.8828125 26.24609375 -6.9921875 23.13671875 27.3203125 0 22.8828125 26.24609375 6.9921875 24.65234375 26.515625 16.3125 32.3515625 25.80078125 19.3984375 24.234375 23.5625 13.8125 31.37890625 22.08203125 16.3125 29.95703125 20.4296875 6.91796875 35.546875 19.984375 6.4765625 35.51171875 21.30859375 0 43.546875 22.81640625 0 35.546875 19.984375 -6.4765625 43.9140625 21.76953125 -5.31640625 36.796875 22.06640625 -15.640625 45.0703125 24.24609375 -13.18359375 45.13671875 27.68359375 -16.19921875 50.1640625 31.30859375 -10.14453125 43.37890625 30.046875 -15.5625 47.23046875 32.359375 -9.71875 35.828125 9.3828125 -30.58203125 33.74609375 12.95703125 -30.66796875 33.04296875 8.79296875 -31.83984375 31.4765625 12.671875 -32.03515625 25.5859375 14.234375 -33.80859375 25.12109375 21.1328125 -33.28515625 19.25 22.828125 -33.11328125 21.92578125 31.0390625 -30.61328125 13.203125 24.65234375 -31.5625 16.5859375 34.18359375 -28.0625 13.49609375 36.59765625 -21.89453125 26.58984375 39.67578125 -25.64453125 22.80078125 43.75390625 -18.28515625 32.58203125 45.08984375 -19.70703125 32.09375 47.890625 -11.4140625 43.17578125 47.28515625 -11.140625 31.09765625 48.80859375 0 44.42578125 47.390625 0 43.17578125 47.28515625 11.140625 50.66015625 43.5859375 10.83984375 44.16015625 43.2890625 16.9921875 55.015625 38.32421875 10.54296875 46.97265625 38.609375 18.03515625 53.94921875 32.66015625 17.93359375 46.875 32.1953125 22.3046875 56.04296875 31.11328125 19.91796875 49.6171875 30.01171875 23.96484375 54.80078125 29.109375 19.13671875 48.6484375 28.08984375 23.421875 35.828125 9.3828125 30.58203125 41.5390625 10.04296875 29.94921875 37.04296875 7.0078125 29.12109375 40.19921875 7.5078125 26.8828125 38.8203125 3.57421875 26.20703125 44.9609375 8.3515625 23.53515625 45.5859375 3.28125 19.734375 49.7265625 8.3046875 20.1875 56.59765625 5.71484375 11.640625 54.02734375 10.5078125 20.2734375 59.9765625 8.328125 14.1640625 62.4765625 9.8046875 14.80859375 63.94921875 9.53515625 6.34375 66.671875 10.63671875 6.7265625 65.15234375 8.37890625 0 68 9.57421875 0 66.671875 10.63671875 -6.7265625 67.15234375 12.8671875 -6.76171875 62.4765625 9.8046875 -14.80859375 63.05859375 12.0546875 -14.8828125 55.6640625 11.609375 -21.1171875 56.1015625 13.63671875 -21.6640625 48.16015625 10.71875 -26.45703125 48.69921875 12.50390625 -26.61328125 41.5390625 10.04296875 -29.94921875 42.16015625 11.5859375 29.60546875 35.93359375 9.65625 27.59375 33.74609375 12.95703125 30.66796875 33.8671875 13.09765625 27.515625 33.6171875 20.11328125 30.4921875 34.01953125 20.109375 27.22265625 35.76953125 25.08984375 29.0546875 35.984375 24.68359375 26.01953125 41.921875 28.46875 26.453125 40.6171875 28.1015625 23.38671875 47.48046875 27.93359375 20.703125 52.79296875 29.58984375 16.59375 57.296875 27.6015625 12.3984375 39.87890625 32.87109375 13.8515625 51.046875 37.16015625 0 38.96875 36.5703125 0 39.87890625 32.87109375 -13.8515625 25.328125 30.05078125 -16.4296875 35.984375 24.68359375 -26.01953125 34.01953125 20.109375 -27.22265625 35.76953125 25.08984375 -29.0546875 33.6171875 20.11328125 -30.4921875 39.21484375 -23.21484375 0 38.35546875 -24.03515625 4.27734375 39.9375 -25.8125 0 39.484375 -26.57421875 4.77734375 43.4140625 -24.390625 0 42.53515625 -25.296875 5.7890625 44.8203125 -20.6171875 0 44.171875 -21.3984375 6.8359375 43.50390625 -16 0 42.94921875 -16.73828125 6.60546875 39.7421875 -15.54296875 5.62890625 40.4453125 -18.375 12.19140625 37.61328125 -16.90625 10.7109375 36.59375 -20.22265625 16.3359375 34.08203125 -19.0859375 14.46875 32.5625 -21.2421875 19.5078125 31.01953125 -20.078125 16.5234375 27.75390625 -20.25 21.08984375 27.21484375 -19.62890625 18.83984375 27.82421875 -15.43359375 19.27734375 33.04296875 8.79296875 31.83984375 31.4765625 12.671875 32.03515625 31.47265625 19.82421875 31.5625 31.91796875 23.4921875 31.0546875 25.12109375 21.1328125 33.28515625 27.49609375 27.44140625 31.50390625 21.92578125 31.0390625 30.61328125 26.58984375 39.67578125 25.64453125 16.5859375 34.18359375 28.0625 13.49609375 36.59765625 21.89453125 13.203125 24.65234375 31.5625 6.87890625 26.5625 24.43359375 5.91796875 18.9375 26.09765625 2.12890625 20.15234375 17.453125 5.33984375 11.16796875 19.44140625 6.55859375 10.53125 9.3125 59.61328125 27.390625 13.0390625 61.24609375 29.37109375 13.30859375 62.26953125 28.40625 6.80078125 64.375 30.15625 6.77734375 63.36328125 26.8515625 0 65.453125 28.75 0 64.77734375 30.21484375 -6.97265625 62.1328125 31.7890625 -6.54296875 58.0078125 31.1484375 -12.3828125 55.015625 38.32421875 -10.54296875 53.94921875 33.4140625 -17.93359375 46.97265625 38.609375 -18.03515625 46.875 32.1953125 -22.3046875 39.3515625 37.07421875 -23.65625 41.015625 31.6953125 -24.83984375 31.65625 33.84765625 -27.82421875 25.328125 30.05078125 16.4296875 21.7109375 32.44140625 0 22.015625 19.19921875 15.4921875 17.6328125 18.921875 0 26.82421875 7.73828125 15.01953125 24.671875 5.1640625 0 45.21875 6.8671875 13.609375 44.703125 4.234375 0 55.28515625 6.28515625 0 45.21875 6.8671875 -13.609375 64.26171875 12.43359375 -6.5078125 59.6953125 11.8359375 -13.5 39.48828125 -6.3671875 -0.12890625 41.8125 -7.34765625 -2.45703125 40.046875 -7.16796875 0.515625 42.78515625 -8.38671875 -2.0546875 40.41796875 -9.0078125 0.87890625 43.16796875 -10.5 -1.58984375 39.8515625 -10.26953125 1 42.83984375 -13.25390625 -1.43359375 41.78515625 -15.2890625 -1.6015625 44.3125 -15.51953125 -6.3515625 42.6328125 -17.53515625 -6.109375 41.71484375 -17.75390625 -10.50390625 40.046875 -18.65625 -5.95703125 39.21484375 -19.07421875 -9.53515625 38.59765625 -18.71875 -5.77734375 37.6953125 -19.1796875 -8.76171875 43.37890625 30.046875 15.5625 36.609375 27.8984375 12.19921875 31.6875 28.38671875 0 32.00390625 27.6640625 -12.734375 27.09375 28.04296875 -10.76171875 25.09765625 27.7734375 -15.671875 39.48828125 -6.71875 0.43359375 39.5859375 -7.17578125 -0.4453125 41.36328125 -5.9765625 2.6640625 42.1796875 -7.3515625 1.88671875 43.84765625 -6.91796875 5.68359375 42.51171875 -8.85546875 1.125 44.57421875 -8.6328125 5.5546875 42.51953125 -11.109375 0.83984375 44.56640625 -11.484375 5.5 42.0625 -12.84375 0.9296875 43.5234375 -14.3359375 5.4453125 40.72265625 -14.921875 1.65234375 41.05859375 -16.72265625 5.58203125 38.65625 -16.1796875 2.5625 38.40625 -17.89453125 5.91796875 58.0078125 31.1484375 12.3828125 61.73046875 31.73046875 6.34765625 62.9140625 30.48828125 0 58.90625 38.07421875 0 53.2265625 43.51171875 0 50.66015625 43.5859375 -10.83984375 34.08203125 -19.0859375 -14.46875 36.59375 -20.22265625 -16.3359375 37.61328125 -16.90625 -10.7109375 40.4453125 -18.375 -12.19140625 39.7421875 -15.54296875 -5.62890625 42.94921875 -16.73828125 -6.60546875 44.171875 -21.3984375 -6.8359375 42.53515625 -25.296875 -5.7890625 39.484375 -26.57421875 -4.77734375 38.35546875 -24.03515625 -4.27734375 34.7890625 5.5625 -29.73828125 37.04296875 7.0078125 -29.12109375 38.8203125 3.57421875 -26.20703125 40.19921875 7.5078125 -26.8828125 44.9609375 8.3515625 -23.53515625 49.7265625 7.3359375 -20.1875 54.02734375 10.5078125 -20.2734375 56.59765625 5.71484375 -11.640625 59.9765625 8.328125 -14.1640625 63.94921875 9.53515625 -6.34375 29.45703125 -12.90625 -17.23046875 31 -15.97265625 -14.78515625 33.6328125 -14.3125 -17.41015625 35.9296875 -17.31640625 -15.046875 37.31640625 -15.62109375 -16.5859375 40.0703125 -16.79296875 -14.51953125 38.40625 -12.9453125 -17.30078125 41.5546875 -14.45703125 -15.28125 38.64453125 -10.01953125 -17.47265625 41.91015625 -11.44140625 -15.29296875 38.40625 -7.43359375 -16.7890625 41.453125 -8.90234375 -14.7421875 37.8046875 -6.58984375 -14.38671875 40.484375 -7.828125 -12.43359375 32.48046875 -15.578125 15.84375 34.33203125 -13.58203125 18.4375 35.9296875 -16.26171875 16.1015625 37.58984375 -14.06640625 18 40.3671875 -14.6875 15.5625 38.30078125 -10.2890625 18.87109375 41.578125 -10.92578125 16.31640625 38.3515625 -6.87109375 18.70703125 41.41796875 -7.3125 16.12890625 38.1796875 -5.08984375 16.87890625 41.39453125 -5.55859375 14.96875 37.453125 -4.96875 14.3515625 39.98046875 -4.91015625 12.2578125 39.48828125 -7.23046875 -0.12890625 39.5859375 -6.97265625 0.37890625 41.22265625 -7.40625 -2.58984375 42.1796875 -6.91796875 -1.98046875 43.7265625 -6.75 -5.8984375 42.98828125 -5.2890625 -1.61328125 44.546875 -4.296875 -5.859375 41.91796875 -3.1796875 -1.734375 43.3359375 -1.7421875 -5.8984375 40.87890625 -2.48046875 -2.2265625 40.6328125 -1.26953125 -5.9140625 39.0625 -2.9140625 -2.81640625 38.8046875 -1.6328125 -5.953125 33.890625 -0.609375 14.76171875 35.07421875 -0.58203125 13.11328125 35.9296875 -0.46875 15.00390625 38.27734375 -0.5 12.94140625 39.74609375 -1.1484375 14.203125 39.80078125 -0.71875 9.390625 42.11328125 -1.25 10.13671875 40.6328125 -1.26953125 5.9140625 43.0703125 -1.98828125 5.8984375 40.87890625 -2.9296875 2.2265625 41.89453125 -3.48046875 2.08203125 38.52734375 -5.49609375 -0.4296875 39.03515625 -6.13671875 -0.71484375 36.37109375 -27.62890625 -7.83984375 39.3671875 -27.44140625 -10.390625 31.99609375 -29.078125 -11.078125 35.6484375 -29.48828125 -13.7109375 32.41796875 -30.390625 -16.41796875 33.90234375 -26.1015625 -19.13671875 30.390625 -26.2421875 -21.109375 32.5625 -21.2421875 -19.5078125 27.75390625 -20.25 -21.08984375 31.01953125 -20.078125 -16.5234375 32.58203125 45.08984375 19.70703125 36.828125 41.67578125 21.921875 31.65625 33.84765625 27.82421875 33.72265625 27.984375 29.30078125 34.671875 26.68359375 30.0078125 10.06640625 6.9609375 19.828125 14.03125 6.7265625 27.14453125 15.05859375 4.87109375 21.12109375 21.359375 3.99609375 26.2890625 24.78515625 2.875 18.97265625 26.8359375 1.671875 25.4296875 35.65625 -0.265625 21.8125 32.08984375 1.44921875 28.3828125 34.7890625 5.5625 29.73828125 48.69921875 12.50390625 26.61328125 48.16015625 10.71875 26.45703125 56.1015625 13.63671875 21.6640625 55.6640625 11.609375 21.1171875 63.05859375 12.0546875 14.8828125 67.15234375 12.8671875 6.76171875 33.01953125 -1.75 -14.76171875 33.8671875 -2.23046875 -16.61328125 35.9296875 -1.03125 -15.00390625 37.5390625 -1.7265625 -16.1640625 40.5078125 -1.578125 -14.12109375 38.20703125 -3.625 -16.65234375 41.53515625 -3.375 -14.83203125 38.1796875 -5.66015625 -16.0703125 41.39453125 -5.96484375 -14.015625 37.453125 -6.19921875 -14.00390625 39.98046875 -6.50390625 -12.2578125 20.9453125 -18.265625 -22.8203125 18.72265625 -25.2890625 -21.1875 20.78125 -20.75 -23.27734375 24.1328125 -24.26953125 -23.19140625 27.0078125 -15.9140625 -23.296875 27.94921875 -15.51953125 -21.06640625 27.82421875 -15.43359375 -19.27734375 31.5625 -6.796875 -18.76953125 30.640625 -6.8125 -17.578125 35.07421875 -1.19921875 -12.94140625 36.26953125 -1.07421875 -15.3828125 31.42578125 -5.703125 -20.25 28.7890625 -10.0859375 -22.046875 29.56640625 -4.47265625 -20.83203125 26.28515625 -8.59375 -22.9765625 24.9296875 -8.30078125 -21.6796875 23.53125 -14.609375 -24.1796875 22.41796875 -13.84765625 -22.90625 41.921875 28.46875 -26.453125 40.6171875 28.1015625 -23.38671875 48.6484375 28.08984375 -23.421875 47.48046875 27.93359375 -20.703125 54.80078125 29.86328125 -19.13671875 52.79296875 30.34765625 -16.59375 57.296875 27.6015625 -12.3984375 36.66796875 -0.70703125 11.05078125 37.90234375 -1.125 8.67578125 38.8046875 -1.70703125 5.953125 39.0625 -3.29296875 2.81640625 37.8125 -5.40234375 0.01171875 31.234375 -12.984375 17.2265625 30.9921875 -10.28515625 18.09765625 34.4296875 -10.0625 19.3203125 30.95703125 -7.4375 17.796875 34.65234375 -6.98046875 19.03125 31.1796875 -5.828125 16.4609375 34.94921875 -5.35546875 17.203125 31.625 -5.62890625 14.08984375 34.77734375 -5.23046875 14.61328125 11.015625 38.8125 13.76953125 3.96875 27.82421875 15.4296875 8.5234375 40.71484375 0 2.6640625 28.421875 0 3.96875 27.82421875 -15.4296875 2.12890625 20.31640625 -17.453125 6.87890625 26.5625 -24.43359375 5.91796875 18.9375 -26.09765625 27.49609375 27.44140625 -31.50390625 33.72265625 27.984375 -29.30078125 34.671875 26.68359375 -30.0078125 42.29296875 30.453125 -25.7734375 7.2421875 11.87109375 26.63671875 12.48828125 11.703125 31.73828125 20.45703125 6.66796875 32.37890625 19.30078125 11.0390625 33.91796875 28.6796875 6.109375 32.0234375 26.6953125 9.52734375 33.18359375 42.5703125 8.07421875 -18.14453125 42.671875 12.515625 -18.24609375 43.6796875 8.07421875 -17.2109375 43.86328125 12.4140625 -17.8671875 44.7890625 8.07421875 -16.2734375 45.12109375 12.03515625 -16.609375 45.8984375 8.07421875 -15.33984375 47.0703125 12.66015625 -15.28125 47.0078125 8.078125 -14.40234375 47.4765625 12.64453125 -14.26953125 46.19140625 12.17578125 -22.14453125 46.03515625 8.17578125 -22.04296875 46.91796875 11.65234375 -21.19140625 47.2890625 8.17578125 -21.015625 48.70703125 11.2734375 -19.890625 48.54296875 8.171875 -19.98828125 50.2578125 11.796875 -18.58984375 49.79296875 8.16796875 -18.9609375 51.296875 12.31640625 -17.984375 51.046875 8.16796875 -17.93359375 34.2109375 -11.5234375 -18.1328125 34.3046875 -9.01953125 -18.56640625 34.34765625 -6.73046875 -17.6328125 34.9296875 -5.9453125 -14.40625 29.59375 -10.5390625 -17.70703125 29.8203125 -8.28125 -17.859375 30.4609375 -6.15234375 -17.515625 31.8046875 -5.890625 -14.296875 39.48828125 -7.5546875 0.12890625 41.36328125 -6.19921875 2.58984375 39.5859375 -7.296875 -0.37890625 42.1796875 -5.70703125 1.98046875 39.5390625 -6.6875 -0.68359375 42.33984375 -4.56640625 1.87109375 43.79296875 -3.21484375 5.859375 62.67578125 28.46484375 -7 61.24609375 29.37109375 -13.30859375 59.61328125 27.390625 -13.0390625 56.04296875 31.8671875 -19.91796875 49.6171875 30.01171875 -23.96484375 26.6953125 9.52734375 -33.18359375 18.71875 16.04296875 -33.78125 19.30078125 11.0390625 -33.91796875 11.69140625 17.51953125 -32.6953125 12.48828125 11.703125 -31.73828125 7.2421875 11.87109375 -26.63671875 5.33984375 11.16796875 -19.44140625 34.92578125 -1.56640625 16.3046875 36.921875 -1.3203125 15.85546875 35.0625 -3.1953125 16.8984375 37.8984375 -2.765625 16.48828125 35.18359375 -5.01953125 15.97265625 38.1796875 -4.265625 15.671875 34.77734375 -5.4921875 14.23046875 37.453125 -4.7421875 14.00390625 27.0078125 -15.9140625 23.296875 24.1328125 -24.26953125 23.19140625 30.390625 -26.2421875 21.109375 24.08984375 -28.74609375 20.84375 28.24609375 -30.4375 18.8203125 20.6015625 -28.51171875 17.38671875 32.41796875 -30.390625 16.41796875 25.83984375 -27.34765625 13.98828125 31.99609375 -29.078125 11.078125 18.72265625 -25.2890625 21.1875 20.9453125 -18.265625 22.8203125 20.78125 -20.75 23.27734375 23.53125 -14.609375 24.1796875 28.7890625 -10.0859375 22.046875 27.94921875 -15.51953125 21.06640625 31.5625 -6.796875 18.76953125 30.640625 -6.8125 17.578125 28.6796875 6.109375 -32.0234375 32.08984375 1.44921875 -28.3828125 25.88671875 3.890625 -30.3828125 26.8359375 1.671875 -25.4296875 21.359375 3.99609375 -26.2890625 24.78515625 2.875 -18.97265625 15.05859375 4.87109375 -21.12109375 22.41796875 -13.84765625 22.90625 24.9296875 -8.30078125 21.6796875 26.28515625 -8.59375 22.9765625 29.56640625 -4.47265625 20.83203125 31.42578125 -5.703125 20.25 36.26953125 -1.07421875 15.3828125 20.421875 45.80078125 -12.37109375 18.18359375 47.390625 0 20.421875 45.80078125 12.37109375 22.80078125 43.75390625 18.28515625 33.8671875 13.09765625 -27.515625 22.015625 19.19921875 -15.4921875 35.93359375 9.65625 -27.59375 26.82421875 7.73828125 -15.01953125 40.66796875 11.54296875 -26.28515625 48.03515625 12.40234375 -23.24609375 42.16015625 11.5859375 -29.60546875 43.69140625 -2.43359375 12.3828125 38.80859375 -2.796875 9.390625 44.68359375 -6.20703125 5.59765625 40.45703125 -5.87890625 0 44.76953125 -7.0703125 0 44.68359375 -6.20703125 -5.59765625 24.08984375 -28.74609375 -20.84375 28.24609375 -30.4375 -18.8203125 20.6015625 -28.51171875 -17.38671875 25.83984375 -27.34765625 -13.98828125 43.7265625 -4.54296875 5.8984375 43.38671875 -3.7421875 10.34375 43.48828125 -2.43359375 10.45703125 41.39453125 -3.8203125 13.94921875 41.125 -2.484375 14.71875 20.45703125 6.66796875 -32.37890625 14.03125 6.7265625 -27.14453125 10.06640625 6.9609375 -19.828125 58.765625 25.63671875 6.91015625 57.515625 34.96875 6.91015625 59.59375 30.3359375 0.51953125 58.9453125 35.0234375 0 58.79296875 30.9921875 -3.453125 57.515625 34.96875 -6.91015625 58.140625 30.30078125 -7.54296875 54.14453125 34.70703125 -13.8203125 55.3515625 25.41015625 -13.8203125 25.5859375 14.234375 33.80859375 19.25 22.828125 33.11328125 18.71875 16.04296875 33.78125 11.69140625 17.51953125 32.6953125 51.1015625 34.2734375 11.44921875 46.5625 33.58203125 15.33203125 52.29296875 24.078125 11.44921875 47.046875 29.15234375 15.28125 48.5859375 23.84375 15.38671875 47.390625 24.9765625 15.34375 49.20703125 25.07421875 17.19140625 48.2265625 29.21484375 17.62109375 49.046875 29.265625 18.12890625 31.05078125 -2.78125 -16.08203125 30.49609375 -4.41796875 -16.40234375 34.0078125 -4.02734375 -16.953125 30.50390625 -5.8828125 -16.1171875 34.125 -5.703125 -16.37109375 30.55078125 -6.109375 -14.296875 33.71875 -5.9453125 -14.23046875 44.19921875 -11.57421875 11.39453125 44.19140625 -7.94140625 11.328125 43.546875 -6.1328125 11.08984375 41.59375 -5.08203125 9.375 55.07421875 25.1328125 0.95703125 54.140625 24.65625 5.72265625 58.90234375 24.4375 0.87890625 57.97265625 24.41796875 6.61328125 55.3515625 25.41015625 13.8203125 54.14453125 34.70703125 13.8203125 30.953125 30.2578125 -22.56640625 31.125 22.64453125 -22.3671875 24.6015625 28.67578125 -23.55078125 24.66015625 21.75 -23.34765625 24.32421875 28.546875 -27.4453125 24.60546875 21.88671875 -27.2421875 31.40625 30.46875 -26.08984375 31.85546875 22.93359375 -25.88671875 39.80078125 -0.9296875 -9.390625 42.63671875 -1.44921875 -10.13671875 44.01171875 -3.62109375 -10.8671875 43.38671875 -6.28515625 -10.34375 41.59375 -7.06640625 -9.375 37.8125 -25.21875 -16.33984375 41.703125 -23.10546875 -12.26953125 40.66796875 11.54296875 26.28515625 48.03515625 12.40234375 23.24609375 53.03125 13.296875 19.3515625 59.6953125 11.8359375 13.5 68.37890625 11.78515625 0 65.3203125 11.25390625 0 64.26171875 12.43359375 6.5078125 61.3203125 12.22265625 -0.8203125 61.30078125 12.66796875 0 60.2890625 13.265625 -0.74609375 61.6640625 16.75 0.8671875 60.49609375 17.08984375 -0.51171875 60.5625 18.31640625 0.6640625 56.30078125 16.71875 -0.1015625 56.3515625 17.875 0.6640625 60.24609375 29.0234375 -6.80078125 60.97265625 27.20703125 0 46.2578125 12.734375 -20.41015625 46.34765625 16.17578125 -22.24609375 46.04296875 16.20703125 -20.69140625 45.72265625 17.26171875 -21.4375 43.11328125 15.83203125 -17.58203125 42.77734375 16.95703125 -18.34765625 50.8125 27.37109375 -8.4765625 43.94921875 29.2578125 22.47265625 44.6328125 28.71484375 21.69921875 44.31640625 24.86328125 22.61328125 44.31640625 25.05078125 20.875 43.48828125 24.09765625 21.2421875 42.96484375 25.0859375 18.9375 42.203125 23.74609375 19.3046875 42.4453125 28.69140625 19.109375 36.37109375 -27.62890625 7.83984375 39.3671875 -27.44140625 10.390625 35.6484375 -29.48828125 13.7109375 37.8125 -25.21875 16.33984375 33.90234375 -26.1015625 19.13671875 56.05859375 8.15625 -13.8203125 56.75 16.75390625 -13.8203125 51.55078125 16.46484375 -18.03515625 55.84375 17.80859375 -13.23046875 50.78125 17.53515625 -17.33203125 47.94921875 17.2109375 -14.1328125 41.703125 -23.10546875 12.26953125 39.3515625 37.07421875 23.65625 41.015625 31.6953125 24.83984375 38.39453125 -16.84375 -2.26171875 37.8125 -13.19140625 -0.13671875 39.7734375 -16.41015625 -1.890625 38.52734375 -12.8125 0.64453125 39.03515625 -11.78515625 0.94921875 58.4140625 29.59765625 -0.51171875 60.08203125 25.6328125 0.79296875 58.9453125 25.7890625 -0.5078125 55.77734375 26.29296875 -0.1875 51.29296875 -1.91015625 -5.75 59.3046875 4.66015625 0 51.85546875 -2.64453125 0 51.29296875 -1.91015625 5.75 49.5234375 12.87109375 -17.859375 49.7890625 16.6015625 -17.4375 47.42578125 16.3984375 -15.58984375 54.6328125 24.1953125 13.23046875 50.3984375 24.078125 17.24609375 50.85546875 24.875 17.5625 35.65625 -0.265625 -21.8125 45.5859375 3.28125 -19.734375 43.69140625 -2.43359375 -12.3828125 50.66796875 0.15234375 -11.7265625 33.7734375 -17.91796875 -13.01171875 37.87109375 -18.40234375 -12.91015625 44.765625 -12.61328125 -6.3125 44.08203125 -12.59375 -11.14453125 43.703125 -15.4140625 -11.03125 44.2265625 -10.05859375 -6.39453125 43.52734375 -9.859375 -10.91015625 41.9453125 -8.6484375 -10.16015625 36.828125 41.67578125 -21.921875 44.16015625 43.2890625 -16.9921875 31.27734375 7.59375 21.50390625 30.9921875 15.85546875 21.703125 24.859375 7.32421875 22.484375 24.45703125 15.1484375 22.6875 25.75390625 14.12109375 27.2421875 25.6953125 15.265625 26.26953125 33.08203125 14.9140625 25.88671875 32.57421875 -6.11328125 14.296875 32.53125 -5.65625 15.71875 32.5234375 -3.79296875 16.27734375 43.9375 33.47265625 22.44921875 47.04296875 30.296875 20.140625 46.23828125 29.6015625 19.015625 46.546875 28.94921875 15.74609375 59.99609375 12.671875 5.578125 58.1796875 11.671875 10.3671875 58.7734375 13.30859375 6.59765625 57.25390625 12.39453125 9.90234375 53.3828125 11.95703125 8.04296875 51.75 12.74609375 10.7265625 51.4453125 8.078125 10.66015625 39.80078125 -17.14453125 10.0625 42.89453125 -14.9453125 11.03515625 34.9609375 -0.1484375 16.8984375 32.21484375 -0.0703125 14.72265625 27.7734375 -4.3203125 19.46875 38.27734375 -17.05859375 13.8828125 37.5 -18.3515625 9.29296875 33.75390625 -17.25 14.0703125 35.7734375 -18.2734375 11.84765625 38.875 -10.83984375 -0.91015625 39.10546875 -10.015625 -0.95703125 39.3359375 -8.1640625 -0.7734375 32.82421875 16.0390625 25.0078125 45.72265625 17.26171875 21.4375 46.34765625 16.17578125 22.24609375 33.2421875 7.7265625 25.68359375 46.03515625 8.17578125 22.04296875 31.91796875 23.4921875 -31.0546875 31.47265625 19.82421875 -31.5625 32.82421875 16.0390625 -25.0078125 25.6953125 15.265625 -26.26953125 33.08203125 14.9140625 -25.88671875 25.75390625 14.12109375 -27.2421875 33.2421875 7.7265625 -25.68359375 26.01953125 7.47265625 -27.04296875 25.88671875 3.890625 30.3828125 56.12890625 12.828125 -0.44140625 55.74609375 12.02734375 -2.6953125 59.8515625 12.45703125 -3.3046875 60.86328125 11.4140625 -3.453125 60.171875 12.296875 -6.5546875 59.84375 28.96484375 6.6015625 31.125 22.64453125 22.3671875 24.66015625 21.75 23.34765625 31.85546875 22.93359375 25.88671875 24.60546875 21.88671875 27.2421875 31.40625 30.46875 26.08984375 24.32421875 28.546875 27.4453125 56.05859375 8.15625 13.8203125 55.45703125 12.45703125 14.74609375 55.3125 16.4921875 15.16796875 54.8984375 17.98046875 14.1953125 48.0078125 12.3515625 -19.13671875 35.07421875 -1.1796875 -13.11328125 38.27734375 -0.8828125 -12.94140625 36.66796875 -1.08984375 -11.05078125 37.90234375 -1.33203125 -8.67578125 49.58984375 29.88671875 18.0859375 49.04296875 34.08984375 18.13671875 30.9921875 15.85546875 -21.703125 30.296875 22.04296875 0 11.015625 38.8125 -13.76953125 22.9296875 23.30078125 6.6875 32.09375 47.890625 11.4140625 42.29296875 30.453125 25.7734375 54.65234375 30.0390625 0 54.0703125 30.51953125 -2.859375 58.05859375 30.0859375 -3.3046875 53.6328125 29.65625 -5.72265625 57.47265625 29.44921875 -6.53125 54.609375 25.90625 -6.02734375 57.765625 25.69921875 -6.87890625 54.140625 24.65625 -6.9609375 57.84765625 24.40625 -7.92578125 59.7578125 12.6484375 -7.64453125 59.80078125 16.91796875 -7.90625 59.1484375 17.953125 -7.48046875 52.0546875 17.41015625 -10.7890625 54.5546875 8.125 -5.328125 51.4453125 8.078125 -10.66015625 55.13671875 12.7578125 -4.84375 55.1328125 16.5703125 -5.265625 55.1484375 17.53515625 -6.2578125 60.34765625 16.6953125 5.3203125 58.421875 16.52734375 6.609375 59.27734375 18.30078125 4.95703125 55.9140625 17.7578125 4.609375 59.14453125 16.91796875 -6.40234375 44.28515625 28.58203125 20.7421875 42.8203125 28.69921875 18.828125 54.9296875 16.05859375 4.93359375 54.83984375 12.9296875 5.36328125 55.80859375 7.98828125 0 44.69140625 29.30859375 17.12109375 53.03125 13.296875 -19.3515625 39.03515625 -5.4453125 0.71484375 39.5390625 -6.16796875 0.68359375 1.6171875 20.55859375 0 58.765625 25.63671875 -8.43359375 42.77734375 16.95703125 18.34765625 51.7734375 17.3828125 12.12890625 59.44921875 8.1953125 6.91015625 54.5546875 8.125 5.328125 52.29296875 24.078125 -11.44921875 51.1015625 34.2734375 -11.44921875 59.19140625 13.18359375 -5.7578125 55.38671875 16.4140625 13.41015625 50.84375 15.71484375 10.54296875 55.55859375 13.2421875 13.2109375 38.80859375 -2.796875 -9.390625 41.96484375 -5.01171875 6.04296875 24.65234375 26.515625 -16.3125 26.01953125 7.47265625 27.04296875 32.21484375 -0.0703125 -14.72265625 54.6328125 24.1953125 -13.23046875 45.11328125 24.203125 -22.24609375 43.9375 33.47265625 -22.44921875 41.59375 -4.43359375 9.375 39.98046875 -4.28515625 12.2578125 6.55859375 10.53125 -9.3125 4.66015625 12.00390625 0 35.07421875 -1.19921875 12.94140625 36.66796875 -18.9609375 -11.31640625 40.7578125 -14.88671875 0 27.21484375 -19.62890625 -18.83984375 27.7734375 -4.3203125 -19.46875 50.66796875 0.15234375 11.7265625 34.9609375 -0.1484375 -16.8984375 42.98046875 -8.9765625 -6.4375 59.44921875 8.1953125 -6.91015625 60.98828125 8.0546875 0 53.125 34.65625 -5.72265625 54.234375 34.94140625 0 53.125 34.65625 5.72265625 42.5703125 8.07421875 18.14453125 42.01953125 32.88671875 -19.2109375 42.96875 23.61328125 -19.01171875 24.45703125 15.1484375 -22.6875 31.27734375 7.59375 -21.50390625 24.859375 7.32421875 -22.484375 37.8125 -13.1875 -0.02734375 38.32421875 -12.1875 -0.5078125 34.92578125 -25.10546875 -7.31640625 34.92578125 -25.10546875 7.31640625 33.078125 -1.7890625 15.7734375 42.01953125 32.88671875 19.2109375 24.6015625 28.67578125 23.55078125 30.953125 30.2578125 22.56640625 41.96484375 -5.54296875 5.71484375 41.96484375 -7.6171875 -5.71484375 37.8125 -5.40234375 -0.01171875 38.52734375 -4.8046875 0.4296875 31.67578125 -26.140625 10.265625 31.67578125 -26.140625 -10.265625</float_array>
                    <technique_common>
                        <accessor count="816" source="#pointarray0" stride="3">
                            <param name="X" type="float"/>
                            <param name="Y" type="float"/>
                            <param name="Z" type="float"/>
                        </accessor>
                    </technique_common>
                </source>
                <source id="uvs0">
                    <float_array id="uvarray0" count="1262">0.5614013671875 0.33453369140625 0.5960693359375 0.325927734375 0.6119384765625 0.3302001953125 0.60247802734375 0.3172607421875 0.62139892578125 0.3172607421875 0.619873046875 0.30670166015625 0.622314453125 0.30670166015625 0.62066650390625 0.29620361328125 0.61181640625 0.30670166015625 0.60968017578125 0.29620361328125 0.57855224609375 0.29620361328125 0.5972900390625 0.27777099609375 0.5614013671875 0.26544189453125 0.6043701171875 0.2667236328125 0.5614013671875 0.25177001953125 0.6025390625 0.26953125 0.5614013671875 0.25531005859375 0.5989990234375 0.29620361328125 0.5614013671875 0.29620361328125 0.5614013671875 0.30670166015625 0.52386474609375 0.29620361328125 0.5220947265625 0.30670166015625 0.50299072265625 0.30670166015625 0.50146484375 0.3172607421875 0.50054931640625 0.30670166015625 0.4989013671875 0.3172607421875 0.50885009765625 0.3172607421875 0.51690673828125 0.32916259765625 0.54620361328125 0.32183837890625 0.5467529296875 0.33282470703125 0.5614013671875 0.33282470703125 0.53887939453125 0.33514404296875 0.5614013671875 0.33514404296875 0.58392333984375 0.33514404296875 0.61395263671875 0.33056640625 0.6239013671875 0.3172607421875 0.60589599609375 0.32916259765625 0.61395263671875 0.3172607421875 0.57659912109375 0.32183837890625 0.57757568359375 0.30902099609375 0.5614013671875 0.3104248046875 0.5452880859375 0.30902099609375 0.5443115234375 0.29620361328125 0.51104736328125 0.30670166015625 0.51318359375 0.29620361328125 0.50213623046875 0.29620361328125 0.51849365234375 0.2667236328125 0.50445556640625 0.29620361328125 0.520263671875 0.26953125 0.4979248046875 0.4658203125 0.49835205078125 0.451171875 0.4879150390625 0.4620361328125 0.4833984375 0.4481201171875 0.4716796875 0.44805908203125 0.4639892578125 0.4371337890625 0.45623779296875 0.44097900390625 0.4141845703125 0.43524169921875 0.41900634765625 0.444091796875 0.3956298828125 0.43682861328125 0.3721923828125 0.4456787109375 0.3721923828125 0.42950439453125 0.34197998046875 0.427978515625 0.3656005859375 0.40765380859375 0.3125 0.41180419921875 0.3104248046875 0.39202880859375 0.254150390625 0.40826416015625 0.254150390625 0.3896484375 0.31378173828125 0.38470458984375 0.33062744140625 0.3896484375 0.317138671875 0.37744140625 0.35076904296875 0.3873291015625 0.36785888671875 0.37225341796875 0.39019775390625 0.37744140625 0.37640380859375 0.364501953125 0.4014892578125 0.37042236328125 0.38458251953125 0.35595703125 0.412109375 0.36334228515625 0.99212646484375 0.5897216796875 0.96636962890625 0.5751953125 0.96636962890625 0.58978271484375 0.94921875 0.57989501953125 0.93511962890625 0.58770751953125 0.9241943359375 0.5633544921875 0.89141845703125 0.55853271484375 0.89923095703125 0.54681396484375 0.83203125 0.52740478515625 0.90386962890625 0.539794921875 0.83514404296875 0.51898193359375 0.84136962890625 0.5106201171875 0.79693603515625 0.51373291015625 0.80010986328125 0.5064697265625 0.7587890625 0.508544921875 0.7587890625 0.50225830078125 0.80322265625 0.50018310546875 0.84765625 0.50439453125 0.9163818359375 0.53564453125 0.92950439453125 0.5322265625 0.94140625 0.555419921875 0.9542236328125 0.55267333984375 0.14703369140625 0.23583984375 0.161376953125 0.24981689453125 0.1531982421875 0.25762939453125 0.16845703125 0.26141357421875 0.16058349609375 0.26739501953125 0.17523193359375 0.27679443359375 0.1673583984375 0.27874755859375 0.16131591796875 0.25018310546875 0.15399169921875 0.25762939453125 0.14703369140625 0.23577880859375 0.13720703125 0.24420166015625 0.13250732421875 0.22650146484375 0.1212158203125 0.2359619140625 0.11431884765625 0.21795654296875 0.10650634765625 0.22882080078125 0.07110595703125 0.2161865234375 0.08184814453125 0.2701416015625 0.00701904296875 0.23785400390625 0.006591796875 0.2821044921875 0.082763671875 0.298583984375 0.5062255859375 0.93243408203125 0.5819091796875 0.93798828125 0.5062255859375 0.920166015625 0.58404541015625 0.92919921875 0.5062255859375 0.9105224609375 0.5855712890625 0.9202880859375 0.5062255859375 0.89617919921875 0.58746337890625 0.9041748046875 0.5062255859375 0.85418701171875 0.5914306640625 0.862548828125 0.59375 0.82086181640625 0.6624755859375 0.870849609375 0.6624755859375 0.8292236328125 0.729248046875 0.87921142578125 0.7562255859375 0.85003662109375 0.8026123046875 0.88812255859375 0.79998779296875 0.862548828125 0.8812255859375 0.88751220703125 0.86248779296875 0.875 0.856201171875 0.8375244140625 0.49835205078125 0.4371337890625 0.47900390625 0.43548583984375 0.4683837890625 0.42205810546875 0.4444580078125 0.4276123046875 0.3721923828125 0.4617919921875 0.39215087890625 0.475341796875 0.32183837890625 0.47845458984375 0.3375244140625 0.4949951171875 0.29364013671875 0.4964599609375 0.32952880859375 0.34112548828125 0.32623291015625 0.3525390625 0.2918701171875 0.33984375 0.29022216796875 0.351318359375 0.254150390625 0.338623046875 0.254150390625 0.35003662109375 0.28875732421875 0.36065673828125 0.32330322265625 0.3619384765625 0.38433837890625 0.397216796875 0.4124755859375 0.38262939453125 0.42498779296875 0.41802978515625 0.00701904296875 0.30670166015625 0.07952880859375 0.28729248046875 0.00701904296875 0.296875 0.07745361328125 0.2806396484375 0.00701904296875 0.28704833984375 0.0711669921875 0.260498046875 0.00701904296875 0.262451171875 0.00701904296875 0.22314453125 0.0418701171875 0.21160888671875 0.071044921875 0.21685791015625 0.04144287109375 0.20068359375 0.0745849609375 0.2047119140625 0.52435302734375 0.01605224609375 0.5345458984375 0.00994873046875 0.5244140625 0.031005859375 0.5340576171875 0.02801513671875 0.5244140625 0.038330078125 0.53424072265625 0.03607177734375 0.52435302734375 0.04290771484375 0.53448486328125 0.044189453125 0.53533935546875 0.05999755859375 0.54827880859375 0.04571533203125 0.54901123046875 0.0634765625 0.5633544921875 0.063232421875 0.54937744140625 0.07415771484375 0.56402587890625 0.0748291015625 0.5494384765625 0.081298828125 0.56439208984375 0.08135986328125 0.61834716796875 0.29620361328125 0.6007080078125 0.30670166015625 0.5614013671875 0.3172607421875 0.5203857421875 0.3172607421875 0.5267333984375 0.325927734375 0.51092529296875 0.3302001953125 0.54766845703125 0.02496337890625 0.534912109375 0.0521240234375 0.54864501953125 0.05462646484375 0.53607177734375 0.068603515625 0.537109375 0.07733154296875 0.254150390625 0.35943603515625 0.254150390625 0.37493896484375 0.254150390625 0.38226318359375 0.9918212890625 0.59075927734375 0.96014404296875 0.59600830078125 0.5963134765625 0.05413818359375 0.5919189453125 0.06256103515625 0.59112548828125 0.052001953125 0.58551025390625 0.06402587890625 0.5845947265625 0.05523681640625 0.57440185546875 0.05987548828125 0.58477783203125 0.03973388671875 0.57391357421875 0.04278564453125 0.58465576171875 0.0308837890625 0.57373046875 0.03289794921875 0.58453369140625 0.02203369140625 0.57354736328125 0.02301025390625 0.5836181640625 0.006591796875 0.57318115234375 0.00677490234375 0.58465576171875 0.0474853515625 0.57415771484375 0.05133056640625 0.58758544921875 0.07098388671875 0.575439453125 0.0714111328125 0.5264892578125 0.0633544921875 0.52484130859375 0.053466796875 0.6519775390625 0.94622802734375 0.654541015625 0.93353271484375 0.7183837890625 0.96136474609375 0.7210693359375 0.948486328125 0.8143310546875 0.97064208984375 0.80657958984375 0.9302978515625 0.86248779296875 0.92919921875 0.37652587890625 0.40155029296875 0.457763671875 0.40869140625 0.4703369140625 0.40557861328125 0.48101806640625 0.4029541015625 0.87261962890625 0.6474609375 0.92266845703125 0.633544921875 0.87890625 0.62939453125 0.9163818359375 0.62310791015625 0.87261962890625 0.6085205078125 0.91015625 0.61273193359375 0.89141845703125 0.58978271484375 0.93511962890625 0.6043701171875 0.9927978515625 0.58892822265625 0.9788818359375 0.5731201171875 0.99371337890625 0.875 1 0.95001220703125 0.97705078125 0.89483642578125 0.94708251953125 0.91668701171875 0.9124755859375 0.8375244140625 0.86871337890625 0.8375244140625 0.8125 0.75836181640625 0.79998779296875 0.76251220703125 0.71697998046875 0.71044921875 0.731201171875 0.70001220703125 0.83123779296875 0.75 0.8779296875 0.7933349609375 0.8499755859375 0.737548828125 0.913818359375 0.77947998046875 0.9375 0.7708740234375 0.95623779296875 0.8375244140625 0.981201171875 0.8375244140625 0.57684326171875 0.0777587890625 0.52764892578125 0.0712890625 0.59814453125 0.045654296875 0.59222412109375 0.04486083984375 0.59991455078125 0.0372314453125 0.59332275390625 0.03765869140625 0.599853515625 0.02130126953125 0.59326171875 0.02166748046875 0.59979248046875 0.00640869140625 0.5928955078125 0.0064697265625 0.31317138671875 0.44000244140625 0.31561279296875 0.4617919921875 0.254150390625 0.4478759765625 0.254150390625 0.46453857421875 0.426513671875 0.37640380859375 0.43963623046875 0.37078857421875 0.847412109375 0.66326904296875 0.8759765625 0.6627197265625 0.92889404296875 0.64605712890625 0.96014404296875 0.633544921875 0.9476318359375 0.62310791015625 0.98516845703125 0.62103271484375 0.97265625 0.610595703125 0.99066162109375 0.61163330078125 0.99407958984375 0.602294921875 0.560302734375 0.2166748046875 0.56103515625 0.2086181640625 0.55780029296875 0.2164306640625 0.55908203125 0.2086181640625 0.5552978515625 0.2161865234375 0.55523681640625 0.20892333984375 0.5528564453125 0.21588134765625 0.5518798828125 0.2076416015625 0.55035400390625 0.21563720703125 0.55035400390625 0.207275390625 0.5966796875 0.2298583984375 0.596435546875 0.22296142578125 0.5933837890625 0.22900390625 0.5919189453125 0.22308349609375 0.5872802734375 0.228515625 0.58746337890625 0.22314453125 0.58172607421875 0.22955322265625 0.5830078125 0.2232666015625 0.5784912109375 0.23052978515625 0.5784912109375 0.223388671875 0.59332275390625 0.0296630859375 0.59991455078125 0.029296875 0.4775390625 0.45941162109375 0.46270751953125 0.451416015625 0.46917724609375 0.4617919921875 0.43463134765625 0.4617919921875 0.44061279296875 0.4888916015625 0.39373779296875 0.49755859375 0.93121337890625 0.9666748046875 0.88824462890625 0.9752197265625 0.96246337890625 1 0.856201171875 1 0.99322509765625 0.5914306640625 0.94140625 0.61376953125 0.311767578125 0.4263916015625 0.254150390625 0.427001953125 0.1373291015625 0.24371337890625 0.12237548828125 0.2362060546875 0.13250732421875 0.22674560546875 0.833984375 0.56158447265625 0.81011962890625 0.579345703125 0.79107666015625 0.55963134765625 0.7606201171875 0.5689697265625 0.76043701171875 0.55908203125 0.56158447265625 0.02374267578125 0.5625 0.045654296875 0.5634765625 0.17230224609375 0.5634765625 0.2498779296875 0.623291015625 0.2120361328125 0.623291015625 0.25177001953125 0.5933837890625 0.2115478515625 0.5634765625 0.21112060546875 0.50372314453125 0.2479248046875 0.50372314453125 0.17230224609375 0.5740966796875 0.23846435546875 0.62152099609375 0.23638916015625 0.57208251953125 0.16845703125 0.62054443359375 0.20599365234375 0.61456298828125 0.16900634765625 0.62091064453125 0.1773681640625 0.61944580078125 0.17706298828125 0.62274169921875 0.205810546875 0.623046875 0.2056884765625 0.56292724609375 0.054443359375 0.56097412109375 0.00567626953125 0.623291015625 0.16845703125 0.5634765625 0.16845703125 0.623291015625 0.17120361328125 0.5634765625 0.17120361328125 0.623291015625 0.21710205078125 0.5614013671875 0.2119140625 0.5614013671875 0.17120361328125 0.5614013671875 0.21173095703125 0.5614013671875 0.17230224609375 0.623291015625 0.217529296875 0.623291015625 0.17230224609375 0.724609375 0.92144775390625 0.65753173828125 0.91253662109375 0.11474609375 0.21844482421875 0.10552978515625 0.22821044921875 0.00701904296875 0.19854736328125 0.00701904296875 0.2132568359375 0.5843505859375 0.2135009765625 0.57708740234375 0.21148681640625 0.59161376953125 0.21185302734375 0.5736083984375 0.18505859375 0.5860595703125 0.18218994140625 0.580322265625 0.1710205078125 0.61199951171875 0.17626953125 0.60748291015625 0.166259765625 0.07415771484375 0.20513916015625 0.04229736328125 0.2117919921875 0.04168701171875 0.20147705078125 0.60638427734375 0.2081298828125 0.6031494140625 0.2071533203125 0.6065673828125 0.18951416015625 0.60296630859375 0.1905517578125 0.60369873046875 0.18475341796875 0.5894775390625 0.19317626953125 0.5877685546875 0.18701171875 0.5877685546875 0.20770263671875 0.52557373046875 0.27777099609375 0.61468505859375 0.21185302734375 0.6092529296875 0.20989990234375 0.61669921875 0.182373046875 0.59869384765625 0.18499755859375 0.5989990234375 0.17681884765625 0.57318115234375 0.1844482421875 0.57366943359375 0.1737060546875 0.57366943359375 0.20806884765625 0.56402587890625 0.22344970703125 0.50482177734375 0.2275390625 0.56463623046875 0.20465087890625 0.50726318359375 0.1859130859375 0.56524658203125 0.1859130859375 0.50726318359375 0.17889404296875 0.56524658203125 0.17889404296875 0.5572509765625 0.16845703125 0.50592041015625 0.2100830078125 0.518798828125 0.2103271484375 0.50592041015625 0.18255615234375 0.51885986328125 0.184326171875 0.51727294921875 0.1761474609375 0.561279296875 0.1861572265625 0.5618896484375 0.1778564453125 0.4495849609375 0.202880859375 0.3568115234375 0.25689697265625 0.275390625 0.180908203125 0.2767333984375 0.25689697265625 0.278564453125 0.31988525390625 0.357421875 0.32000732421875 0.56927490234375 0.20831298828125 0.56939697265625 0.19268798828125 0.560791015625 0.20794677734375 0.5587158203125 0.19354248046875 0.53924560546875 0.1954345703125 0.53399658203125 0.19097900390625 0.53399658203125 0.20849609375 0.56707763671875 0.16796875 0.613037109375 0.16961669921875 0.61151123046875 0.1748046875 0.8341064453125 0.5465087890625 0.5479736328125 0.03533935546875 0.56207275390625 0.03472900390625 0.50482177734375 0.2198486328125 0.5614013671875 0.21466064453125 0.5614013671875 0.17889404296875 0.5614013671875 0.1859130859375 0.59539794921875 0.2120361328125 0.5946044921875 0.22625732421875 0.59246826171875 0.21197509765625 0.58453369140625 0.21124267578125 0.58428955078125 0.2105712890625 0.5751953125 0.21087646484375 0.5748291015625 0.21185302734375 0.50701904296875 0.22943115234375 0.5264892578125 0.23052978515625 0.50738525390625 0.22503662109375 0.52642822265625 0.22613525390625 0.52587890625 0.218505859375 0.54241943359375 0.216552734375 0.5419921875 0.23095703125 0.74371337890625 0.69171142578125 0.7562255859375 0.683349609375 0.86871337890625 0.72503662109375 0.52459716796875 0.0482177734375 0.623291015625 0.17889404296875 0.623291015625 0.1859130859375 0.623291015625 0.22021484375 0.50482177734375 0.21929931640625 0.50482177734375 0.22021484375 0.5614013671875 0.21441650390625 0.54913330078125 0.21600341796875 0.5498046875 0.22186279296875 0.57086181640625 0.215576171875 0.57135009765625 0.22222900390625 0.5789794921875 0.222412109375 0.57501220703125 0.23028564453125 0.5614013671875 0.16845703125 0.623291015625 0.2095947265625 0.623291015625 0.1707763671875 0.50372314453125 0.16845703125 0.623291015625 0.21929931640625 0.5111083984375 0.20672607421875 0.50738525390625 0.1859130859375 0.53753662109375 0.21795654296875 0.54193115234375 0.2181396484375 0.54229736328125 0.21588134765625 0.5504150390625 0.21661376953125 0.55029296875 0.21099853515625 0.55804443359375 0.2108154296875 0.56512451171875 0.17584228515625 0.6192626953125 0.2095947265625 0.56768798828125 0.23974609375 0.62066650390625 0.238525390625 0.50604248046875 0.20263671875 0.5614013671875 0.32464599609375 0.57611083984375 0.33282470703125 0.59283447265625 0.2298583984375 0.59234619140625 0.21588134765625 0.5762939453125 0.230224609375 0.5762939453125 0.21539306640625 0.5599365234375 0.2320556640625 0.5577392578125 0.21728515625 0.5054931640625 0.21124267578125 0.55072021484375 0.2080078125 0.5068359375 0.182373046875 0.551513671875 0.17901611328125 0.50726318359375 0.17254638671875 0.55267333984375 0.16912841796875 0.56719970703125 0.205810546875 0.57525634765625 0.1859130859375 0.56402587890625 0.17889404296875 0.56109619140625 0.226806640625 0.623291015625 0.22509765625 0.56256103515625 0.20281982421875 0.563720703125 0.18450927734375 0.50799560546875 0.2091064453125 0.5130615234375 0.20928955078125 0.51519775390625 0.17633056640625 0.514404296875 0.17962646484375 0.51580810546875 0.168701171875 0.55517578125 0.1705322265625 0.5570068359375 0.2099609375 0.55224609375 0.216064453125 0.55230712890625 0.17681884765625 0.54095458984375 0.18011474609375 0.54693603515625 0.16937255859375 0.51580810546875 0.1712646484375 0.597900390625 0.20916748046875 0.57220458984375 0.208984375 0.563720703125 0.18505859375 0.5670166015625 0.2059326171875 0.5047607421875 0.20367431640625 0.50469970703125 0.228515625 0.59234619140625 0.21112060546875 0.58416748046875 0.21142578125 0.59539794921875 0.21209716796875 0.5721435546875 0.21337890625 0.57330322265625 0.22601318359375 0.254150390625 0.481201171875 0.5633544921875 0.17816162109375 0.55999755859375 0.20892333984375 0.50482177734375 0.16845703125 0.58953857421875 0.2093505859375 0.45416259765625 0.27215576171875 0.45458984375 0.32806396484375 0.5098876953125 0.1859130859375 0.55487060546875 0.17889404296875 0.5098876953125 0.17889404296875 0.56402587890625 0.16845703125 0.50653076171875 0.23284912109375 0.54705810546875 0.2325439453125 0.546875 0.22930908203125 0.54644775390625 0.2103271484375 0.552001953125 0.22515869140625 0.53546142578125 0.21331787109375 0.52435302734375 0.22625732421875 0.5238037109375 0.2117919921875 0.5096435546875 0.23272705078125 0.510009765625 0.2181396484375 0.5634765625 0.18084716796875 0.5634765625 0.20916748046875 0.50372314453125 0.17120361328125 0.50372314453125 0.2454833984375 0.54266357421875 0.2103271484375 0.51025390625 0.18121337890625 0.5047607421875 0.20867919921875 0.5577392578125 0.20770263671875 0.55377197265625 0.1859130859375 0.6207275390625 0.20556640625 0.62139892578125 0.1817626953125 0.61175537109375 0.18157958984375 0.61395263671875 0.171142578125 0.57904052734375 0.1695556640625 0.57244873046875 0.17938232421875 0.57080078125 0.20843505859375 0.6104736328125 0.208984375 0.5732421875 0.22625732421875 0.57489013671875 0.2120361328125 0.75909423828125 0.5205078125 0.5474853515625 0.00634765625 0.50885009765625 0.33056640625 0.84454345703125 0.59393310546875 0.623291015625 0.2479248046875 0.50372314453125 0.22381591796875 0.59588623046875 0.21044921875 0.57586669921875 0.21112060546875 0.5560302734375 0.2132568359375 0.254150390625 0.4915771484375 0.5062255859375 0.81671142578125 0.54608154296875 0.224853515625 0.5125732421875 0.21002197265625 0.519287109375 0.2236328125 0.5185546875 0.210693359375 0.53515625 0.2125244140625 0.55499267578125 0.22210693359375 0.54803466796875 0.20941162109375 0.5634765625 0.2471923828125 0.623291015625 0.2489013671875 0.5933837890625 0.2095947265625 0.623291015625 0.21002197265625 0.56396484375 0.18133544921875 0.56207275390625 0.211181640625 0.5614013671875 0.2294921875 0.6239013671875 0.2275390625 0.50482177734375 0.22509765625 0.50482177734375 0.20196533203125 0.623291015625 0.2177734375 0.560791015625 0.21026611328125 0.623291015625 0.2454833984375 0.50372314453125 0.2222900390625 0.50372314453125 0.217529296875 0.623291015625 0.22381591796875 0.623291015625 0.2222900390625 0.50372314453125 0.21710205078125 0.6177978515625 0.20672607421875 0.50482177734375 0.2177734375 0.623291015625 0.2198486328125 0.7587890625 0.49603271484375 0.6492919921875 0.9549560546875 0.56402587890625 0.221435546875 0.56134033203125 0.20013427734375 0.50604248046875 0.19830322265625 0.5626220703125 0.2186279296875 0.55804443359375 0.21636962890625 0.55804443359375 0.2186279296875 0.55023193359375 0.21881103515625 0.53729248046875 0.20947265625 0.56219482421875 0.18902587890625 0.623291015625 0.1796875 0.50469970703125 0.23138427734375 0.50726318359375 0.18414306640625 0.59454345703125 0.22607421875 0.56756591796875 0.228515625 0.546142578125 0.22735595703125 0.62335205078125 0.20489501953125 0.513427734375 0.21136474609375 0.5784912109375 0.215576171875 0.5419921875 0.21026611328125 0.623291015625 0.19671630859375 0.50726318359375 0.1845703125 0.71807861328125 0.9718017578125 0.55181884765625 0.2078857421875 0.55859375 0.17889404296875</float_array>
                    <technique_common>
                        <accessor count="631" source="#uvarray0" stride="2">
                            <param name="S" type="float"/>
                            <param name="T" type="float"/>
                        </accessor>
                    </technique_common>
                </source>
                <vertices id="vertices0">
                    <input semantic="POSITION" source="#points0"/>
                </vertices>
                <polylist count="1412" material="Material1">
                    <input offset="0" semantic="VERTEX" source="#vertices0"/>
                    <input offset="1" semantic="TEXCOORD" source="#uvs0" set="0"/>
                    <vcount>3 3 3 3 3 3 3 3 3 3 3 3 3 3 3 3 3 3 3 3 3 3 3 3 3 3 3 3 3 3 3 3 3 3 3 3 3 3 3 3 3 3 3 3 3 3 3 3 3 3 3 3 3 3 3 3 3 3 3 3 3 3 3 3 3 3 3 3 3 3 3 3 3 3 3 3 3 3 3 3 3 3 3 3 3 3 3 3 3 3 3 3 3 3 3 3 3 3 3 3 3 3 3 3 3 3 3 3 3 3 3 3 3 3 3 3 3 3 3 3 3 3 3 3 3 3 3 3 3 3 3 3 3 3 3 3 3 3 3 3 3 3 3 3 3 3 3 3 3 3 3 3 3 3 3 3 3 3 3 3 3 3 3 3 3 3 3 3 3 3 3 3 3 3 3 3 3 3 3 3 3 3 3 3 3 3 3 3 3 3 3 3 3 3 3 3 3 3 3 3 3 3 3 3 3 3 3 3 3 3 3 3 3 3 3 3 3 3 3 3 3 3 3 3 3 3 3 3 3 3 3 3 3 3 3 3 3 3 3 3 3 3 3 3 3 3 3 3 3 3 3 3 3 3 3 3 3 3 3 3 3 3 3 3 3 3 3 3 3 3 3 3 3 3 3 3 3 3 3 3 3 3 3 3 3 3 3 3 3 3 3 3 3 3 3 3 3 3 3 3 3 3 3 3 3 3 3 3 3 3 3 3 3 3 3 3 3 3 3 3 3 3 3 3 3 3 3 3 3 3 3 3 3 3 3 3 3 3 3 3 3 3 3 3 3 3 3 3 3 3 3 3 3 3 3 3 3 3 3 3 3 3 3 3 3 3 3 3 3 3 3 3 3 3 3 3 3 3 3 3 3 3 3 3 3 3 3 3 3 3 3 3 3 3 3 3 3 3 3 3 3 3 3 3 3 3 3 3 3 3 3 3 3 3 3 3 3 3 3 3 3 3 3 3 3 3 3 3 3 3 3 3 3 3 3 3 3 3 3 3 3 3 3 3 3 3 3 3 3 3 3 3 3 3 3 3 3 3 3 3 3 3 3 3 3 3 3 3 3 3 3 3 3 3 3 3 3 3 3 3 3 3 3 3 3 3 3 3 3 3 3 3 3 3 3 3 3 3 3 3 3 3 3 3 3 3 3 3 3 3 3 3 3 3 3 3 3 3 3 3 3 3 3 3 3 3 3 3 3 3 3 3 3 3 3 3 3 3 3 3 3 3 3 3 3 3 3 3 3 3 3 3 3 3 3 3 3 3 3 3 3 3 3 3 3 3 3 3 3 3 3 3 3 3 3 3 3 3 3 3 3 3 3 3 3 3 3 3 3 3 3 3 3 3 3 3 3 3 3 3 3 3 3 3 3 3 3 3 3 3 3 3 3 3 3 3 3 3 3 3 3 3 3 3 3 3 3 3 3 3 3 3 3 3 3 3 3 3 3 3 3 3 3 3 3 3 3 3 3 3 3 3 3 3 3 3 3 3 3 3 3 3 3 3 3 3 3 3 3 3 3 3 3 3 3 3 3 3 3 3 3 3 3 3 3 3 3 3 3 3 3 3 3 3 3 3 3 3 3 3 3 3 3 3 3 3 3 3 3 3 3 3 3 3 3 3 3 3 3 3 3 3 3 3 3 3 3 3 3 3 3 3 3 3 3 3 3 3 3 3 3 3 3 3 3 3 3 3 3 3 3 3 3 3 3 3 3 3 3 3 3 3 3 3 3 3 3 3 3 3 3 3 3 3 3 3 3 3 3 3 3 3 3 3 3 3 3 3 3 3 3 3 3 3 3 3 3 3 3 3 3 3 3 3 3 3 3 3 3 3 3 3 3 3 3 3 3 3 3 3 3 3 3 3 3 3 3 3 3 3 3 3 3 3 3 3 3 3 3 3 3 3 3 3 3 3 3 3 3 3 3 3 3 3 3 3 3 3 3 3 3 3 3 3 3 3 3 3 3 3 3 3 3 3 3 3 3 3 3 3 3 3 3 3 3 3 3 3 3 3 3 3 3 3 3 3 3 3 3 3 3 3 3 3 3 3 3 3 3 3 3 3 3 3 3 3 3 3 3 3 3 3 3 3 3 3 3 3 3 3 3 3 3 3 3 3 3 3 3 3 3 3 3 3 3 3 3 3 3 3 3 3 3 3 3 3 3 3 3 3 3 3 3 3 3 3 3 3 3 3 3 3 3 3 3 3 3 3 3 3 3 3 3 3 3 3 3 3 3 3 3 3 3 3 3 3 3 3 3 3 3 3 3 3 3 3 3 3 3 3 3 3 3 3 3 3 3 3 3 3 3 3 3 3 3 3 3 3 3 3 3 3 3 3 3 3 3 3 3 3 3 3 3 3 3 3 3 3 3 3 3 3 3 3 3 3 3 3 3 3 3 3 3 3 3 3 3 3 3 3 3 3 3 3 3 3 3 3 3 3 3 3 3 3 3 3 3 3 3 3 3 3 3 3 3 3 3 3 3 3 3 3 3 3 3 3 3 3 3 3 3 3 3 3 3 3 3 3 3 3 3 3 3 3 3 3 3 3 3 3 3 3 3 3 3 3 3 3 3 3 3 3 3 3 3 3 3 3 3 3 3 3 3 3 3 3 3 3 3 3 3 3 3 3 3 3 3 3 3 3 3 3 3 3 3 3 3 3 3 3 3 3 3 3 3 3 3 3 3 3 3 3 3 3 3 3 3 3 3 3 3 3 3 3 3 3 3 3 3 3 3 3 3 3 3 3 3 3 3 3 3 3 3 3 3 3 3 3 3 3 3 3 3 3 3 3 3 3 3 3 3 3 3 3 3 3 3 3 3 3 3 3 3 3 3 3 3 3 3 3 3 3 3 3 3 3 3 3 3 3 3 3 3 3 3 3 3 3 3 3 3 3 3 3 3 3 3 3 3 3 3 3 3 3 3 3 3 3 3 3 3 3 3 3 3 3 3 3 3 3 3 3 3 3 3 3 3 3 3 3 3 3 3 3 3 3 3 3 3 3 3 3 3 3 3 3 3 3 3 3 3 3 3 3 3 3 3 3 3 3 3 3 3 3 3 3 3 3 3 3 3 3 3 3 3 3 3 3 3 3 3 3 3 3 3 3 3 3 3 3 3 3 3 3 3 3 3 3 3 3 3 3 3 3 3 3 3 3 3 3 3 3 3 3 3 3 3 3 3 3 3 3</vcount>
                    <p>2 2 1 1 0 0 3 3 1 1 2 2 4 4 3 3 2 2 5 5 3 3 4 4 6 6 5 5 4 4 7 7 5 5 6 6 8 8 7 7 6 6 9 9 7 7 8 8 10 10 9 9 8 8 11 11 9 9 10 10 12 12 11 11 10 10 13 13 11 11 12 12 14 14 13 13 12 12 15 15 13 13 14 14 16 16 15 15 14 14 17 17 15 15 16 16 18 18 17 17 16 16 19 19 17 17 18 18 20 20 19 19 18 18 21 21 19 19 20 20 22 22 21 21 20 20 23 23 21 21 22 22 24 24 23 23 22 22 25 25 23 23 24 24 26 26 25 25 24 24 27 27 25 25 26 26 28 28 27 27 26 26 29 29 27 27 28 28 30 30 29 29 28 28 31 31 29 29 30 30 32 32 31 31 30 30 0 0 31 31 32 32 33 33 0 0 32 32 2 2 0 0 33 33 34 34 2 2 33 33 35 35 2 2 34 34 36 36 35 35 34 34 37 37 35 35 36 36 38 38 37 37 36 36 39 39 37 37 38 38 40 40 39 39 38 38 41 18 39 39 40 40 42 41 41 18 40 40 43 42 41 18 42 41 44 43 43 42 42 41 45 44 43 42 44 43 46 45 45 44 44 43 47 46 45 44 46 45 48 47 47 46 46 45 49 48 47 46 48 47 20 20 49 48 48 47 16 16 49 48 20 20 18 18 16 16 20 20 52 51 51 50 50 49 53 52 51 50 52 51 54 53 53 52 52 51 55 54 53 52 54 53 56 55 55 54 54 53 57 56 55 54 56 55 58 57 57 56 56 55 59 58 57 56 58 57 60 59 59 58 58 57 61 60 59 58 60 59 62 61 61 60 60 59 63 62 61 60 62 61 64 63 63 62 62 61 65 64 63 62 64 63 66 65 65 64 64 63 67 66 65 64 66 65 68 64 67 66 66 65 69 67 67 66 68 64 70 68 69 67 68 64 71 69 69 67 70 68 72 70 71 69 70 68 73 71 71 69 72 70 74 72 73 71 72 70 75 73 73 71 74 72 76 74 75 73 74 72 77 75 75 73 76 74 78 76 77 75 76 74 81 79 80 78 79 77 82 80 80 78 81 79 83 81 82 80 81 79 84 82 82 80 83 81 85 83 84 82 83 81 86 84 84 82 85 83 87 85 86 84 85 83 88 86 86 84 87 85 89 87 88 86 87 85 90 88 88 86 89 87 91 89 90 88 89 87 92 90 90 88 91 89 93 91 92 90 91 89 94 92 92 90 93 91 95 90 94 92 93 91 96 93 94 92 95 90 97 88 96 93 95 90 98 94 96 93 97 88 99 95 98 94 97 88 100 96 98 94 99 95 101 97 100 96 99 95 102 98 100 96 101 97 103 78 102 98 101 97 105 101 79 100 104 99 106 102 79 100 105 101 107 103 106 102 105 101 108 104 106 102 107 103 109 105 108 104 107 103 110 106 108 104 109 105 111 107 110 106 109 105 112 108 110 106 111 107 113 109 112 108 111 107 78 110 112 108 113 109 114 111 78 110 113 109 77 112 78 110 114 111 115 113 77 112 114 111 116 114 77 112 115 113 117 115 116 114 115 113 118 116 116 114 117 115 119 117 118 116 117 115 120 115 118 116 119 117 121 118 120 115 119 117 122 107 120 115 121 118 123 105 122 107 121 118 124 106 122 107 123 105 125 104 124 106 123 105 128 121 127 120 126 119 129 122 127 120 128 121 130 123 129 122 128 121 131 124 129 122 130 123 132 125 131 124 130 123 133 126 131 124 132 125 134 127 133 126 132 125 135 128 133 126 134 127 136 129 135 128 134 127 137 130 135 128 136 129 138 131 137 130 136 129 139 132 137 130 138 131 140 133 139 132 138 131 141 134 139 132 140 133 142 135 141 134 140 133 143 136 141 134 142 135 144 137 143 136 142 135 145 138 143 136 144 137 106 50 146 51 79 49 147 52 146 51 106 50 108 139 147 52 106 50 148 140 147 52 108 139 149 141 148 140 108 139 150 54 148 140 149 141 151 142 150 54 149 141 152 56 150 54 151 142 153 60 152 56 151 142 154 58 152 56 153 60 155 59 154 58 153 60 156 57 154 58 155 59 157 143 156 57 155 59 158 144 156 57 157 143 159 145 158 144 157 143 160 146 158 144 159 145 161 147 160 146 159 145 162 148 75 73 77 75 163 149 75 73 162 148 164 150 163 149 162 148 165 151 163 149 164 150 166 152 165 151 164 150 167 153 165 151 166 152 168 151 167 153 166 152 169 154 167 153 168 151 170 155 169 154 168 151 171 69 169 154 170 155 172 71 171 69 170 155 173 70 171 69 172 71 174 72 173 70 172 71 175 156 173 70 174 72 176 157 175 156 174 72 177 158 175 156 176 157 178 118 119 117 117 115 179 159 119 117 178 118 180 160 179 159 178 118 181 161 179 159 180 160 182 162 181 161 180 160 183 163 181 161 182 162 184 164 183 163 182 162 185 165 183 163 184 164 186 166 185 165 184 164 187 164 185 165 186 166 188 167 187 164 186 166 189 168 187 164 188 167 96 169 189 168 188 167 98 170 189 168 96 169 192 173 191 172 190 171 193 174 191 172 192 173 194 175 193 174 192 173 195 176 193 174 194 175 196 177 195 176 194 175 197 178 195 176 196 177 198 179 197 178 196 177 199 180 197 178 198 179 200 181 199 180 198 179 201 182 199 180 200 181 202 183 201 182 200 181 203 184 201 182 202 183 204 185 203 184 202 183 205 186 203 184 204 185 13 13 9 9 11 11 7 7 9 9 13 13 206 187 7 7 13 13 5 5 7 7 206 187 17 17 5 5 206 187 207 188 5 5 17 17 19 19 207 188 17 17 208 189 207 188 19 19 209 190 208 189 19 19 210 191 208 189 209 190 211 192 210 191 209 190 0 0 210 191 211 192 31 31 0 0 211 192 214 172 213 173 212 171 215 174 213 173 214 172 216 193 215 174 214 172 217 178 215 174 216 193 218 180 217 178 216 193 219 194 217 178 218 180 220 195 219 194 218 180 221 179 219 194 220 195 222 181 221 179 220 195 223 196 221 179 222 181 224 183 223 196 222 181 225 197 223 196 224 183 226 185 225 197 224 183 163 149 73 71 75 73 227 155 73 71 163 149 165 151 227 155 163 149 228 154 227 155 165 151 167 153 228 154 165 151 229 198 228 154 167 153 169 154 229 198 167 153 230 199 229 198 169 154 171 69 230 199 169 154 231 200 230 199 171 69 232 67 231 200 171 69 67 66 231 200 232 67 65 64 67 66 232 67 235 131 234 132 233 133 236 130 234 132 235 131 237 129 236 130 235 131 238 128 236 130 237 129 134 127 238 128 237 129 239 126 238 128 134 127 132 125 239 126 134 127 240 124 239 126 132 125 130 123 240 124 132 125 241 122 240 124 130 123 128 121 241 122 130 123 242 120 241 122 128 121 126 119 242 120 128 121 244 79 243 202 50 201 245 81 243 202 244 79 246 80 245 81 244 79 247 82 245 81 246 80 101 97 247 82 246 80 248 84 247 82 101 97 249 86 248 84 101 97 250 85 248 84 249 86 251 87 250 85 249 86 252 89 250 85 251 87 97 88 252 89 251 87 95 90 252 89 97 88 255 205 254 204 253 203 256 206 254 204 255 205 257 207 256 206 255 205 258 208 256 206 257 207 259 209 258 208 257 207 260 210 258 208 259 209 261 211 260 210 259 209 262 212 260 210 261 211 263 213 262 212 261 211 264 214 262 212 263 213 265 215 264 214 263 213 266 216 264 214 265 215 269 206 268 205 267 204 270 207 268 205 269 206 271 208 270 207 269 206 272 217 270 207 271 208 273 218 272 217 271 208 274 209 272 217 273 218 275 210 274 209 273 218 276 213 274 209 275 210 277 214 276 213 275 210 278 215 276 213 277 214 279 216 278 215 277 214 282 172 281 173 280 171 283 174 281 173 282 172 284 193 283 174 282 172 285 178 283 174 284 193 286 180 285 178 284 193 287 179 285 178 286 180 288 181 287 179 286 180 289 196 287 179 288 181 290 183 289 196 288 181 291 197 289 196 290 183 292 185 291 197 290 183 295 206 294 219 293 204 296 220 294 219 295 206 297 208 296 220 295 206 298 184 296 220 297 208 299 182 298 184 297 208 300 183 298 184 299 182 301 181 300 183 299 182 302 196 300 183 301 181 303 179 302 196 301 181 304 221 302 196 303 179 305 222 304 221 303 179 306 223 240 124 241 122 307 224 240 124 306 223 308 225 307 224 306 223 309 226 307 224 308 225 310 227 309 226 308 225 311 228 309 226 310 227 312 229 311 228 310 227 313 134 311 228 312 229 314 136 313 134 312 229 315 135 313 134 314 136 316 62 70 68 68 64 317 230 70 68 316 62 153 60 317 230 316 62 318 158 317 230 153 60 151 142 318 158 153 60 319 231 318 158 151 142 149 141 319 231 151 142 320 232 319 231 149 141 108 139 320 232 149 141 110 233 320 232 108 139 323 236 322 235 321 234 324 237 322 235 323 236 325 238 324 237 323 236 326 239 324 237 325 238 327 240 326 239 325 238 328 241 326 239 327 240 83 81 328 241 327 240 329 202 328 241 83 81 81 79 329 202 83 81 79 201 329 202 81 79 80 78 104 243 79 242 330 98 104 243 80 78 331 97 330 98 80 78 332 96 330 98 331 97 333 95 332 96 331 97 334 94 332 96 333 95 90 88 334 94 333 95 335 93 334 94 90 88 92 90 335 93 90 88 94 92 335 93 92 90 338 206 337 205 336 204 339 207 337 205 338 206 340 208 339 207 338 206 341 209 339 207 340 208 342 210 341 209 340 208 343 213 341 209 342 210 344 214 343 213 342 210 345 215 343 213 344 214 346 216 345 215 344 214 349 246 348 245 347 244 350 247 348 245 349 246 351 248 350 247 349 246 314 136 350 247 351 248 352 249 314 136 351 248 353 138 314 136 352 249 354 250 353 138 352 249 355 251 353 138 354 250 356 252 355 251 354 250 354 250 357 253 356 252 358 254 357 253 354 250 359 255 358 254 354 250 360 256 358 254 359 255 361 257 360 256 359 255 362 258 360 256 361 257 363 259 362 258 361 257 364 260 362 258 363 259 347 244 364 260 363 259 365 108 122 107 124 106 366 109 122 107 365 108 367 110 366 109 365 108 368 111 366 109 367 110 369 112 368 111 367 110 370 113 368 111 369 112 371 114 370 113 369 112 120 115 370 113 371 114 118 116 120 115 371 114 296 220 372 261 294 219 373 186 372 261 296 220 298 184 373 186 296 220 374 185 373 186 298 184 300 183 374 185 298 184 375 197 374 185 300 183 302 196 375 197 300 183 376 262 375 197 302 196 304 221 376 262 302 196 268 205 377 203 267 204 378 263 377 203 268 205 379 264 378 263 268 205 380 265 378 263 379 264 381 266 380 265 379 264 382 267 380 265 381 266 383 268 382 267 381 266 384 269 382 267 383 268 385 270 384 269 383 268 386 271 157 143 155 59 387 272 157 143 386 271 388 273 387 272 386 271 389 274 387 272 388 273 390 272 389 274 388 273 391 145 389 274 390 272 392 143 391 145 390 272 393 144 391 145 392 143 58 57 393 144 392 143 61 60 57 56 59 58 394 142 57 56 61 60 177 158 394 142 61 60 395 231 394 142 177 158 176 157 395 231 177 158 396 232 395 231 176 157 397 275 396 232 176 157 365 276 396 232 397 275 367 76 365 276 397 275 321 234 160 278 161 277 398 279 160 278 321 234 322 235 398 279 321 234 399 280 398 279 322 235 400 281 399 280 322 235 401 282 399 280 400 281 402 283 401 282 400 281 403 284 401 282 402 283 146 285 403 284 402 283 406 288 405 287 404 286 407 289 405 287 406 288 408 290 407 289 406 288 409 291 407 289 408 290 410 292 409 291 408 290 411 293 409 291 410 292 412 294 411 293 410 292 413 295 411 293 412 294 416 298 415 297 414 296 417 299 415 297 416 298 418 300 417 299 416 298 419 301 417 299 418 300 420 302 419 301 418 300 421 303 419 301 420 302 422 304 421 303 420 302 423 305 421 303 422 304 424 266 257 207 255 205 259 209 257 207 424 266 425 306 259 209 424 266 261 211 259 209 425 306 426 268 261 211 425 306 263 213 261 211 426 268 427 270 263 213 426 268 265 215 263 213 427 270 428 265 255 205 253 203 424 266 255 205 428 265 429 307 424 266 428 265 425 306 424 266 429 307 430 267 425 306 429 307 426 268 425 306 430 267 431 269 426 268 430 267 427 270 426 268 431 269 434 173 433 172 432 171 435 174 433 172 434 173 436 177 435 174 434 173 437 178 435 174 436 177 303 179 437 178 436 177 438 180 437 178 303 179 301 181 438 180 303 179 299 182 438 180 301 181 439 150 168 151 166 152 440 149 168 151 439 150 441 148 440 149 439 150 442 73 440 149 441 148 369 75 442 73 441 148 443 74 442 73 369 75 367 76 443 74 369 75 397 275 443 74 367 76 444 308 54 53 52 51 445 309 54 53 444 308 446 310 445 309 444 308 447 311 445 309 446 310 448 312 447 311 446 310 393 144 447 311 448 312 449 313 393 144 448 312 450 146 393 144 449 313 451 205 295 206 293 204 452 207 295 206 451 205 453 266 452 207 451 205 454 209 452 207 453 266 455 268 454 209 453 266 456 213 454 209 455 268 457 270 456 213 455 268 458 215 456 213 457 270 460 247 143 136 459 248 461 229 143 136 460 247 462 314 461 229 460 247 463 315 461 229 462 314 464 316 463 315 462 314 465 227 463 315 464 316 466 317 465 227 464 316 467 225 465 227 466 317 470 246 469 244 468 245 471 259 469 244 470 246 459 248 471 259 470 246 472 255 471 259 459 248 473 249 472 255 459 248 474 250 472 255 473 249 145 138 474 250 473 249 475 251 474 250 145 138 243 202 52 285 50 318 476 283 52 285 243 202 477 241 476 283 243 202 478 319 476 283 477 241 479 239 478 319 477 241 480 237 478 319 479 239 481 238 480 237 479 239 482 236 480 237 481 238 471 259 483 260 469 244 484 258 483 260 471 259 485 257 484 258 471 259 486 256 484 258 485 257 472 255 486 256 485 257 487 254 486 256 472 255 474 250 487 254 472 255 488 253 487 254 474 250 489 320 64 63 62 61 490 321 64 63 489 320 388 273 490 321 489 320 491 320 490 321 388 273 386 271 491 320 388 273 492 61 491 320 386 271 155 59 492 61 386 271 153 60 492 61 155 59 494 160 493 103 121 118 495 101 493 103 494 160 496 162 495 101 494 160 497 322 495 101 496 162 498 323 497 322 496 162 499 99 497 322 498 323 102 324 499 99 498 323 327 240 85 83 83 81 500 325 85 83 327 240 501 326 500 325 327 240 502 327 500 325 501 326 503 328 502 327 501 326 504 329 502 327 503 328 505 327 504 329 503 328 312 229 350 247 314 136 506 314 350 247 312 229 507 315 506 314 312 229 508 316 506 314 507 315 310 227 508 316 507 315 509 317 508 316 310 227 308 225 509 317 310 227 438 180 510 193 437 178 511 330 510 193 438 180 512 331 511 330 438 180 513 214 511 330 512 331 514 210 513 214 512 331 456 213 513 214 514 210 454 209 456 213 514 210 476 283 444 284 52 285 446 282 444 284 476 283 515 281 446 282 476 283 448 280 446 282 515 281 516 235 448 280 515 281 449 279 448 280 516 235 517 234 449 279 516 235 520 334 519 333 518 332 521 335 519 333 520 334 522 336 521 335 520 334 523 333 521 335 522 336 524 337 523 333 522 336 525 338 523 333 524 337 526 339 525 338 524 337 150 54 147 52 148 140 527 53 147 52 150 54 528 55 527 53 150 54 529 309 527 53 528 55 530 311 529 309 528 55 401 310 529 309 530 311 399 312 401 310 530 311 533 342 532 341 531 340 534 343 532 341 533 342 535 344 534 343 533 342 536 345 534 343 535 344 537 346 536 345 535 344 538 347 536 345 537 346 539 348 538 347 537 346 337 205 540 203 336 204 541 265 540 203 337 205 542 266 541 265 337 205 543 267 541 265 542 266 544 268 543 267 542 266 545 269 543 267 544 268 546 270 545 269 544 268 179 159 121 118 119 117 494 160 121 118 179 159 181 161 494 160 179 159 496 162 494 160 181 161 183 163 496 162 181 161 187 164 496 162 183 163 185 165 187 164 183 163 547 349 273 218 271 208 548 331 273 218 547 349 218 180 548 331 547 349 549 330 548 331 218 180 216 193 549 330 218 180 550 350 549 330 216 193 553 353 552 352 551 351 554 354 552 352 553 353 518 332 554 354 553 353 555 339 554 354 518 332 519 333 555 339 518 332 556 338 555 339 519 333 559 356 558 353 557 355 560 357 558 353 559 356 561 358 560 357 559 356 562 359 560 357 561 358 563 360 562 359 561 358 564 361 562 359 563 360 566 182 340 208 565 184 567 331 340 208 566 182 286 180 567 331 566 182 568 330 567 331 286 180 284 193 568 330 286 180 569 350 568 330 284 193 234 132 311 228 313 134 570 362 311 228 234 132 571 363 570 362 234 132 307 224 570 362 571 363 239 126 307 224 571 363 240 124 307 224 239 126 105 101 182 162 180 160 572 322 182 162 105 101 104 99 572 322 105 101 573 323 572 322 104 99 330 324 573 323 104 99 332 364 573 323 330 324 573 323 182 162 572 322 184 164 182 162 573 323 574 365 184 164 573 323 575 168 184 164 574 365 334 170 575 168 574 365 335 169 575 168 334 170 188 167 576 366 96 169 577 367 576 366 188 167 186 166 577 367 188 167 578 167 577 367 186 166 184 164 578 167 186 166 575 168 578 167 184 164 581 370 580 369 579 368 582 371 580 369 581 370 583 372 582 371 581 370 584 373 582 371 583 372 585 374 584 373 583 372 586 375 584 373 585 374 441 376 371 114 369 112 587 377 371 114 441 376 439 378 587 377 441 376 588 367 587 377 439 378 166 366 588 367 439 378 164 378 588 367 166 366 590 381 589 380 414 379 591 382 589 380 590 381 592 383 591 382 590 381 593 384 591 382 592 383 594 385 593 384 592 383 405 386 593 384 594 385 14 14 49 48 16 16 47 46 49 48 14 14 12 12 47 46 14 14 595 387 47 46 12 12 43 42 595 387 12 12 45 44 595 387 43 42 598 390 597 389 596 388 599 391 597 389 598 390 600 392 599 391 598 390 601 393 599 391 600 392 602 394 601 393 600 392 603 395 601 393 602 394 605 224 467 225 604 223 606 226 467 225 605 224 607 362 606 226 605 224 608 228 606 226 607 362 139 132 608 228 607 362 141 134 608 228 139 132 422 398 609 397 423 396 610 399 609 397 422 398 611 400 610 399 422 398 612 401 610 399 611 400 613 402 612 401 611 400 614 403 612 401 613 402 131 124 604 223 129 122 605 224 604 223 131 124 133 126 605 224 131 124 615 363 605 224 133 126 135 128 615 363 133 126 137 130 615 363 135 128 317 230 72 70 70 68 616 156 72 70 317 230 318 158 616 156 317 230 617 157 616 156 318 158 319 231 617 157 318 158 320 232 617 157 319 231 620 196 619 262 618 197 621 221 619 262 620 196 198 179 621 221 620 196 622 222 621 221 198 179 196 177 622 222 198 179 624 406 623 405 520 404 625 407 623 405 624 406 553 408 625 407 624 406 626 409 625 407 553 408 551 410 626 409 553 408 628 413 627 412 250 411 629 414 627 412 628 413 630 412 629 414 628 413 504 415 629 414 630 412 502 416 504 415 630 412 631 419 611 418 422 417 632 420 611 418 631 419 633 421 632 420 631 419 614 422 632 420 633 421 413 423 614 422 633 421 530 311 158 144 399 312 156 57 158 144 530 311 528 55 156 57 530 311 152 56 156 57 528 55 150 54 152 56 528 55 634 424 535 344 533 342 635 425 535 344 634 424 636 426 635 425 634 424 537 346 635 425 636 426 539 348 537 346 636 426 245 81 477 241 243 202 637 240 477 241 245 81 638 83 637 240 245 81 639 325 637 240 638 83 640 427 639 325 638 83 461 229 141 134 143 136 608 228 141 134 461 229 465 227 608 228 461 229 606 226 608 228 465 227 467 225 606 226 465 227 256 206 641 219 254 204 642 220 641 219 256 206 258 208 642 220 256 206 203 184 642 220 258 208 201 182 203 184 258 208 199 180 643 428 197 178 644 429 643 428 199 180 645 331 644 429 199 180 262 212 644 429 645 331 260 210 262 212 645 331 643 428 195 176 197 178 646 193 195 176 643 428 647 330 646 193 643 428 648 350 646 193 647 330 266 216 648 350 647 330 649 230 175 156 177 158 173 70 175 156 649 230 650 68 173 70 649 230 171 69 173 70 650 68 232 67 171 69 650 68 230 199 228 154 229 198 71 69 228 154 230 199 231 200 71 69 230 199 69 67 71 69 231 200 67 66 69 67 231 200 653 431 652 401 651 430 654 432 652 401 653 431 655 433 654 432 653 431 656 432 654 432 655 433 657 399 656 432 655 433 455 268 658 269 457 270 659 267 658 269 455 268 453 266 659 267 455 268 660 265 659 267 453 266 451 205 660 265 453 266 597 436 661 435 596 434 662 437 661 435 597 436 663 438 662 437 597 436 538 439 662 437 663 438 664 440 538 439 663 438 667 443 666 442 665 441 668 444 666 442 667 443 669 445 668 444 667 443 670 446 668 444 669 445 671 447 670 446 669 445 224 183 672 184 226 185 673 182 672 184 224 183 222 181 673 182 224 183 220 195 673 182 222 181 674 448 487 254 488 253 486 256 487 254 674 448 675 449 486 256 674 448 676 450 486 256 675 449 673 182 271 208 672 184 547 349 271 208 673 182 220 195 547 349 673 182 218 180 547 349 220 195 202 183 618 197 204 185 620 196 618 197 202 183 200 181 620 196 202 183 198 179 620 196 200 181 677 220 271 208 269 206 672 184 271 208 677 220 678 186 672 184 677 220 226 185 672 184 678 186 679 219 269 206 267 204 677 220 269 206 679 219 680 261 677 220 679 219 678 186 677 220 680 261 682 451 221 179 681 222 219 194 221 179 682 451 683 177 219 194 682 451 217 178 219 194 683 177 657 453 685 401 684 452 686 399 685 401 657 453 687 454 686 399 657 453 688 455 686 399 687 454 394 142 55 54 57 56 689 141 55 54 394 142 395 231 689 141 394 142 396 232 689 141 395 231 125 139 689 141 396 232 690 140 689 141 125 139 53 52 690 140 125 139 55 54 690 140 53 52 693 399 692 432 691 401 694 433 692 432 693 399 695 456 694 433 693 399 696 457 694 433 695 456 324 237 400 281 322 235 697 319 400 281 324 237 326 239 697 319 324 237 328 241 697 319 326 239 581 460 699 459 698 458 700 461 699 459 581 460 701 462 700 461 581 460 702 463 700 461 701 462 116 114 162 376 77 112 703 377 162 376 116 114 118 116 703 377 116 114 588 367 703 377 118 116 706 361 705 464 704 351 707 359 705 464 706 361 708 360 707 359 706 361 709 358 707 359 708 360 706 339 598 361 596 465 600 466 598 361 706 339 704 467 600 466 706 339 602 351 600 466 704 467 711 469 688 468 710 397 686 453 688 468 711 469 712 470 686 453 711 469 713 401 686 453 712 470 589 473 416 472 414 471 714 474 416 472 589 473 409 475 714 474 589 473 411 476 714 474 409 475 715 219 338 206 336 204 716 220 338 206 715 219 717 261 716 220 715 219 718 186 716 220 717 261 555 477 636 426 634 424 719 478 636 426 555 477 556 479 719 478 555 477 720 480 719 478 556 479 111 107 117 115 113 109 178 118 117 115 111 107 109 105 178 118 111 107 107 103 178 118 109 105 693 453 590 399 414 481 592 401 590 399 693 453 691 452 592 401 693 453 721 351 592 401 691 452 42 41 28 28 26 26 722 482 28 28 42 41 40 40 722 482 42 41 38 38 722 482 40 40 392 143 60 59 58 57 723 271 60 59 392 143 390 272 723 271 392 143 388 273 723 271 390 272 8 8 37 37 39 39 35 35 37 37 8 8 6 6 35 35 8 8 4 4 35 35 6 6 30 30 33 33 32 32 724 483 33 33 30 30 38 38 724 483 30 30 36 36 724 483 38 38 490 321 66 65 64 63 725 63 66 65 490 321 491 320 725 63 490 321 492 61 725 63 491 320 725 63 68 64 66 65 316 62 68 64 725 63 492 61 316 62 725 63 153 60 316 62 492 61 112 276 320 232 110 233 726 275 320 232 112 276 78 76 726 275 112 276 76 74 726 275 78 76 728 486 623 485 727 484 729 487 623 485 728 486 730 488 729 487 728 486 731 489 729 487 730 488 716 220 340 208 338 206 565 184 340 208 716 220 718 186 565 184 716 220 292 185 565 184 718 186 732 492 731 491 730 490 733 493 731 491 732 492 734 494 733 493 732 492 735 495 733 493 734 494 290 183 565 184 292 185 566 182 565 184 290 183 288 181 566 182 290 183 286 180 566 182 288 181 610 453 737 497 736 496 738 498 737 497 610 453 612 452 738 498 610 453 739 351 738 498 612 452 742 501 741 500 740 499 739 452 741 500 742 501 743 502 739 452 742 501 744 498 739 452 743 502 745 505 667 504 665 503 746 506 667 504 745 505 747 507 746 506 745 505 748 508 746 506 747 507 527 53 146 51 147 52 403 308 146 51 527 53 529 309 403 308 527 53 401 310 403 308 529 309 737 511 702 510 736 509 749 512 702 510 737 511 738 513 749 512 737 511 744 514 749 512 738 513 599 391 750 515 597 389 751 516 750 515 599 391 601 393 751 516 599 391 603 395 751 516 601 393 586 401 752 517 748 498 753 518 752 517 586 401 698 519 753 518 586 401 754 520 753 518 698 519 750 521 663 438 597 436 755 522 663 438 750 521 751 436 755 522 750 521 603 523 755 522 751 436 187 164 498 323 496 162 756 365 498 323 187 164 189 168 756 365 187 164 98 170 756 365 189 168 120 115 368 111 370 113 366 109 368 111 120 115 122 107 366 109 120 115 650 68 65 64 232 67 63 62 65 64 650 68 649 230 63 62 650 68 578 167 576 366 577 367 335 169 576 366 578 167 575 168 335 169 578 167 363 259 349 246 347 244 351 248 349 246 363 259 359 255 351 248 363 259 723 271 62 61 60 59 489 320 62 61 723 271 388 273 489 320 723 271 571 363 238 128 239 126 236 130 238 128 571 363 234 132 236 130 571 363 493 103 123 105 121 118 125 104 123 105 493 103 51 102 125 104 493 103 755 522 664 440 663 438 534 524 664 440 755 522 532 525 534 524 755 522 758 177 287 179 757 222 285 178 287 179 758 177 283 174 285 178 758 177 759 526 389 274 391 145 159 145 389 274 759 526 161 147 159 145 759 526 617 157 76 74 74 72 726 275 76 74 617 157 320 232 726 275 617 157 760 527 733 493 735 495 731 491 733 493 760 527 524 528 731 491 760 527 713 401 685 452 686 453 761 351 685 452 713 401 762 529 761 351 713 401 407 530 593 384 405 386 591 382 593 384 407 530 589 380 591 382 407 530 627 412 640 531 250 411 639 532 640 531 627 412 505 416 639 532 627 412 3 3 208 189 1 1 207 188 208 189 3 3 5 5 207 188 3 3 584 535 747 534 582 533 748 536 747 534 584 535 586 529 748 536 584 535 666 442 763 537 665 441 710 538 763 537 666 442 711 539 710 538 666 442 699 542 754 541 698 540 740 543 754 541 699 542 742 544 740 543 699 542 669 445 764 545 671 447 753 546 764 545 669 445 667 443 753 546 669 445 730 548 734 354 732 547 765 549 734 354 730 548 766 550 765 549 730 548 749 512 767 551 702 510 743 552 767 551 749 512 744 514 743 552 749 512 582 533 665 554 580 553 745 555 665 554 582 533 747 534 745 555 582 533 768 558 712 557 711 556 713 559 712 557 768 558 762 560 713 559 768 558 768 558 769 561 762 560 670 562 769 561 768 558 770 563 670 562 768 558 662 437 720 564 661 435 539 565 720 564 662 437 538 439 539 565 662 437 771 326 505 327 503 328 639 325 505 327 771 326 637 240 639 325 771 326 647 330 264 214 266 216 644 429 264 214 647 330 643 428 644 429 647 330 91 89 628 566 93 91 87 85 628 566 91 89 89 87 87 85 91 89 510 193 435 174 437 178 433 172 435 174 510 193 772 567 433 172 510 193 615 363 607 362 605 224 139 132 607 362 615 363 137 130 139 132 615 363 773 568 31 31 211 192 29 29 31 31 773 568 27 27 29 29 773 568 655 433 687 456 657 399 774 457 687 456 655 433 653 431 774 457 655 433 252 89 628 566 250 85 93 91 628 566 252 89 95 90 93 91 252 89 637 240 479 239 477 241 481 238 479 239 637 240 775 569 481 238 637 240 656 432 652 529 654 464 684 401 652 529 656 432 657 399 684 401 656 432 554 354 533 467 552 352 634 549 533 467 554 354 555 339 634 549 554 354 777 339 526 361 776 353 525 570 526 361 777 339 778 571 525 570 777 339 516 235 482 236 517 234 480 237 482 236 516 235 515 281 480 237 516 235 103 78 244 79 50 77 246 80 244 79 103 78 101 97 246 80 103 78 729 487 520 572 623 485 522 573 520 572 729 487 524 574 522 573 729 487 114 111 117 115 115 113 113 109 117 115 114 111 510 193 779 350 772 567 511 330 779 350 510 193 25 25 773 568 211 192 27 27 773 568 25 25 21 21 209 190 19 19 23 23 209 190 21 21 511 330 780 216 779 350 513 214 780 216 511 330 44 43 26 26 24 24 42 41 26 26 44 43 587 377 118 116 371 114 588 367 118 116 587 377 299 182 512 331 438 180 297 208 512 331 299 182 297 208 514 210 512 331 454 209 514 210 297 208 23 23 211 192 209 190 25 25 211 192 23 23 722 482 30 30 28 28 38 38 30 30 722 482 781 147 759 526 391 145 782 575 759 526 781 147 107 103 180 160 178 118 105 101 180 160 107 103 513 214 458 215 780 216 456 213 458 215 513 214 724 483 34 34 33 33 36 36 34 34 724 483 12 12 41 18 43 42 10 10 41 18 12 12 0 0 208 189 210 191 1 1 208 189 0 0 206 187 15 15 17 17 13 13 15 15 206 187 46 45 24 24 22 22 44 43 24 24 46 45 10 10 39 39 41 18 8 8 39 39 10 10 48 47 22 22 20 20 46 45 22 22 48 47 783 252 474 250 475 251 488 253 474 250 783 252 473 249 143 136 145 138 459 248 143 136 473 249 462 314 468 245 464 316 460 247 468 245 462 314 460 247 470 246 468 245 459 248 470 246 460 247 205 186 642 220 203 184 784 261 642 220 205 186 570 362 309 226 311 228 307 224 309 226 570 362 279 216 549 330 550 350 277 214 549 330 279 216 233 133 313 134 315 135 234 132 313 134 233 133 348 245 506 314 508 316 350 247 506 314 348 245 277 214 548 331 549 330 275 210 548 331 277 214 270 207 379 264 268 205 272 217 379 264 270 207 385 270 276 213 278 215 383 268 276 213 385 270 383 268 274 209 276 213 381 266 274 209 383 268 785 576 134 127 237 129 136 129 134 127 785 576 786 137 314 136 353 138 315 135 314 136 786 137 272 217 381 266 379 264 274 209 381 266 272 217 787 450 360 256 362 258 775 449 360 256 787 450 352 249 359 255 354 250 351 248 359 255 352 249 87 411 630 412 628 413 788 531 630 412 87 411 358 254 789 448 357 253 360 256 789 448 358 254 504 415 627 412 629 414 505 416 627 412 504 415 500 532 630 412 788 531 502 416 630 412 500 532 770 577 668 444 670 446 711 539 668 444 770 577 61 60 649 230 177 158 63 62 649 230 61 60 790 567 646 193 648 350 191 172 646 193 790 567 193 174 646 193 191 172 195 176 646 193 193 174 495 101 51 102 493 103 50 100 51 102 495 101 498 323 100 364 102 324 756 365 100 364 498 323 499 99 495 101 497 322 50 100 495 101 499 99 201 182 645 331 199 180 258 208 645 331 201 182 574 365 332 364 334 170 573 323 332 364 574 365 164 378 703 377 588 367 162 376 703 377 164 378 702 580 791 579 736 578 701 581 791 579 702 580 701 581 792 582 791 579 579 583 792 582 701 581 728 586 794 585 793 584 727 587 794 585 728 586 752 588 746 506 748 508 753 589 746 506 752 588 727 587 795 584 794 585 552 354 795 584 727 587 609 591 736 496 791 590 610 453 736 496 609 591 796 594 670 593 671 592 761 452 670 593 796 594 727 595 625 407 626 409 623 405 625 407 727 595 797 597 765 353 766 596 798 549 765 353 797 597 778 599 564 339 563 598 777 361 564 339 778 599 557 601 798 353 797 600 558 549 798 353 557 601 624 361 518 332 553 353 520 334 518 332 624 361 760 332 526 339 524 337 735 354 526 339 760 332 765 467 735 354 734 352 776 549 735 354 765 467 777 361 558 467 564 339 798 351 558 467 777 361 798 467 776 353 765 351 777 339 776 353 798 467 721 529 692 432 799 464 691 401 692 432 721 529 583 372 698 602 585 374 581 370 698 602 583 372 721 401 801 431 800 430 799 432 801 431 721 401 652 351 685 401 761 529 684 452 685 401 652 351 796 603 652 452 761 401 651 604 652 452 796 603 802 262 223 196 225 197 803 221 223 196 802 262 215 174 683 177 213 173 217 178 683 177 215 174 803 221 221 179 223 196 681 222 221 179 803 221 576 605 94 92 96 93 335 93 94 92 576 605 124 233 396 232 365 276 125 139 396 232 124 233 499 243 103 78 50 242 102 98 103 78 499 243 450 278 517 234 781 277 449 279 517 234 450 278 478 319 515 281 476 283 480 237 515 281 478 319 241 122 804 606 306 223 242 120 804 606 241 122 805 606 129 122 604 223 127 120 129 122 805 606 741 592 413 608 412 607 739 401 413 608 741 592 721 452 405 609 594 401 800 604 405 609 721 452 695 454 414 481 415 455 693 453 414 481 695 454 420 612 631 611 422 610 418 613 631 611 420 612 633 421 411 614 413 423 631 419 411 614 633 421 632 420 613 615 611 418 614 422 613 615 632 420 806 203 451 205 293 204 660 265 451 205 806 203 99 95 249 86 101 97 97 88 249 86 99 95 551 353 727 587 626 616 552 354 727 587 551 353 730 548 793 584 766 550 728 586 793 584 730 548 708 598 596 465 661 599 706 339 596 465 708 598 560 464 564 361 558 351 562 359 564 361 560 464 792 617 665 554 763 590 580 553 665 554 792 617 247 82 638 83 245 81 248 84 638 83 247 82 769 618 761 452 762 401 670 593 761 452 769 618 146 285 329 202 79 318 402 283 329 202 146 285 788 427 85 83 500 325 87 85 85 83 788 427 697 319 402 283 400 281 328 241 402 283 697 319 82 80 331 97 80 78 84 82 331 97 82 80 86 84 331 97 84 82 88 86 331 97 86 84 88 86 333 95 331 97 90 88 333 95 88 86 339 207 542 266 337 205 341 209 542 266 339 207 346 216 568 330 569 350 344 214 568 330 346 216 344 214 567 331 568 330 342 210 567 331 344 214 398 313 158 144 160 146 399 312 158 144 398 313 176 157 443 74 397 275 174 72 443 74 176 157 174 72 442 73 443 74 172 71 442 73 174 72 172 71 440 149 442 73 170 155 440 149 172 71 71 69 227 155 228 154 73 71 227 155 71 69 755 522 807 619 532 525 603 523 807 619 755 522 709 358 705 357 707 359 808 356 705 357 709 358 808 356 704 353 705 357 809 355 704 353 808 356 531 550 552 354 533 549 795 584 552 354 531 550 810 567 216 193 214 172 550 350 216 193 810 567 767 620 700 461 702 463 742 621 700 461 767 620 631 611 714 474 411 476 418 613 714 474 631 611 801 431 694 433 696 457 799 432 694 433 801 431 809 601 602 353 704 549 807 600 602 353 809 601 719 478 539 348 636 426 720 480 539 348 719 478 664 622 536 345 538 347 534 343 536 345 664 622 675 569 327 240 325 238 501 326 327 240 675 569 450 146 391 145 393 144 781 147 391 145 450 146 387 272 159 145 157 143 389 274 159 145 387 272 616 156 74 72 72 70 617 157 74 72 616 156 445 309 56 55 54 53 447 311 56 55 445 309 447 311 58 57 56 55 393 144 58 57 447 311 452 207 297 208 295 206 454 209 297 208 452 207 811 567 284 193 282 172 569 350 284 193 811 567 812 262 289 196 291 197 813 221 289 196 812 262 813 221 287 179 289 196 757 222 287 179 813 221 250 85 638 83 248 84 640 427 638 83 250 85 544 268 341 209 343 213 542 266 341 209 544 268 546 270 343 213 345 215 544 268 343 213 546 270 743 552 742 623 767 551 581 460 579 624 701 462 97 88 251 87 249 86 409 475 589 473 407 625 714 474 418 613 416 472 486 256 676 450 484 258 467 225 805 606 604 223 694 433 799 432 692 432 308 225 306 223 804 606 637 240 771 326 775 569 471 259 472 255 485 257 602 353 807 600 603 626 698 519 586 401 585 627 535 344 635 425 537 346 303 179 436 177 305 222 125 139 51 50 53 52 814 628 805 606 467 225 466 317 814 628 467 225 47 46 595 387 45 44 363 259 361 257 359 255 815 628 308 225 804 606 509 317 308 225 815 628 161 147 759 526 782 575 2 2 35 35 4 4 689 141 690 140 55 54 340 208 567 331 342 210 273 218 548 331 275 210 764 499 753 518 754 520 735 354 776 549 526 339 642 220 784 261 641 219 753 589 667 504 746 506 283 174 758 177 281 173 170 155 168 151 440 149 792 582 579 583 580 629 721 351 594 529 592 401 612 401 614 403 739 529 668 444 711 539 666 442 756 365 98 170 100 364 739 351 744 536 738 498 770 563 768 558 711 556 465 227 461 229 463 315 328 241 329 202 402 283 310 227 507 315 312 229 775 449 789 448 360 256 729 487 731 489 524 574 405 609 800 604 404 603 258 208 260 210 645 331 264 214 644 429 262 212 614 630 413 608 739 401 742 621 699 459 700 461 156 57 152 56 154 58</p>
                </polylist>
            </mesh>
        </geometry>
    </library_geometries>
    <library_visual_scenes>
        <visual_scene id="VisualSceneNode">
            <node id="node0" name="m0" type="NODE">
                <instance_geometry url="#mesh0">
                    <bind_material>
                        <technique_common>
                            <instance_material symbol="Material1" target="#mat0">
                                <bind_vertex_input semantic="UVSET0" input_semantic="TEXCOORD" input_set="0"></bind_vertex_input>
                            </instance_material>
                        </technique_common>
                    </bind_material>
                </instance_geometry>
            </node>
        </visual_scene>
    </library_visual_scenes>
    <scene>
        <instance_visual_scene url="#VisualSceneNode"></instance_visual_scene>
    </scene>
</COLLADA>
