# Blender v2.79 (sub 0) OBJ File: ''
# www.blender.org
mtllib face 17.mtl
o n0b0_n0b0.015
v 0.466016 1.200391 0.000000
v 1.897266 1.483594 0.000000
v 4.040235 -0.593359 0.000000
v 2.618750 1.476172 0.000000
v 4.460156 -0.721484 0.000000
v 4.460156 -0.721484 0.000000
v 1.714063 2.313281 0.000000
v 5.145703 -0.324609 0.000000
v 1.759375 2.444141 0.000000
v 6.296094 0.627734 0.000000
v 4.330860 3.315234 -0.971875
v 6.077734 0.539844 0.000000
v 6.077734 0.539844 0.000000
v 4.695312 3.242969 -1.014453
v 6.542969 0.715625 0.000000
v 4.943359 2.879688 -0.847656
v 6.577734 0.911328 0.000000
v 6.577734 0.911328 0.000000
v 2.146094 2.448047 1.076172
v 5.339844 0.460938 0.000000
v 2.623828 2.512500 1.273438
v 4.346875 0.207031 0.000000
v 3.955469 2.976562 1.026953
v 0.456250 2.019141 0.000000
v 1.933203 2.305078 1.567188
v 0.849609 3.178516 0.000000
v 2.675781 2.385547 1.860547
v 3.970703 3.385156 0.000000
v 4.095703 2.935938 1.556250
v 5.716406 2.777735 0.000000
v 1.757812 1.908984 0.699219
v 5.005859 3.167187 0.000000
v 1.957813 1.879688 1.631250
v 5.995313 2.891406 0.000000
v 5.995313 2.891406 0.000000
v 2.756250 1.861328 1.939844
v 3.387891 4.436328 0.000000
v 4.403516 2.668360 1.619922
v 4.400000 4.181641 0.000000
v 4.330860 3.315234 0.971875
v 5.044531 3.838281 0.000000
v 4.692969 3.237891 1.014453
v 1.442578 3.921875 0.000000
v 1.894531 1.386328 0.677344
v 2.137500 4.292969 0.000000
v 2.018359 1.466797 1.381250
v 2.053906 2.012891 0.000000
v 2.053906 2.012891 0.000000
v 2.713672 1.563672 1.631250
v 5.700391 3.228125 0.000000
v 4.549219 2.360938 1.318359
v 2.518750 0.120703 1.846875
v 4.943359 2.879688 0.847656
v 3.221484 0.055078 1.472266
v 2.598438 1.309766 0.700391
v 1.505859 0.462891 2.038672
v 4.562109 2.170313 0.538281
v 1.006641 0.663672 1.899609
v 3.622266 1.573047 -0.655859
v 0.655859 1.053125 0.888281
v 0.655859 1.053125 0.888281
v 3.678516 1.891016 -1.564062
v 3.687891 -0.150781 1.834375
v 3.604297 2.196875 -1.889844
v 4.041797 0.967969 2.787109
v 3.464062 2.582813 -1.814062
v 3.566406 0.766406 2.856250
v 3.360156 2.674219 -1.219922
v 4.419922 0.465625 1.470312
v 3.307812 2.683203 0.000000
v 2.494141 1.967188 2.210547
v 2.494141 1.967188 2.210547
v 3.370703 2.660156 1.219922
v 1.507422 0.972266 2.935547
v 1.507422 0.972266 2.935547
v 3.464062 2.582813 1.814062
v 2.245312 0.369531 3.030078
v 3.604297 2.196875 1.889844
v 2.094922 0.976953 3.100781
v 2.094922 0.976953 3.100781
v 3.678516 1.891016 1.564062
v 3.052734 0.512500 3.039453
v 3.622266 1.573047 0.655859
v 5.894922 0.679297 1.342578
v 3.574610 1.696875 0.000000
v 6.097656 0.777344 1.439453
v 3.839453 0.047656 2.326953
v 5.752735 0.608594 1.154688
v 5.752735 0.608594 1.154688
v 3.839453 0.047656 -2.326953
v 5.117969 -0.240625 0.589453
v 4.482031 -2.061719 0.000000
v 5.027734 -0.053906 1.211328
v 5.027734 -0.053906 1.211328
v 4.075781 -1.488672 0.000000
v 4.448828 -0.637500 0.561328
v 4.448828 -0.637500 0.561328
v 4.350391 -1.600000 0.000000
v 4.389062 -0.384766 1.239844
v 4.389062 -0.384766 1.239844
v 3.921484 -2.321484 0.000000
v 5.198438 0.750781 1.908984
v 3.156250 -0.679688 -1.876953
v 4.433984 0.190625 2.039453
v 3.626953 -0.107422 -1.538281
v 0.725781 1.089844 1.857813
v 0.725781 1.089844 1.857813
v 3.142578 -0.570312 -2.025000
v 3.295313 0.014844 2.642969
v 3.496094 -0.014844 -1.689844
v 3.950391 0.344141 2.542578
v 3.221484 -0.007031 -1.472266
v 3.480078 0.472656 2.876563
v 2.956641 -0.447266 -2.083203
v 3.089844 -0.147266 2.193750
v 2.777344 -0.432031 -1.946875
v 1.138672 0.958984 2.446484
v 1.138672 0.958984 2.446484
v 2.782422 -1.543359 -1.927734
v 1.570312 0.451953 2.560547
v 3.101953 -2.007812 -1.652344
v 4.002344 0.847656 2.673438
v 3.064063 -0.681250 -1.757812
v 4.025391 1.125391 2.775000
v 4.025391 1.125391 2.775000
v 3.408203 -1.908594 -1.446875
v 3.295313 0.928906 2.916016
v 3.295313 0.928906 2.916016
v 3.295313 0.928906 2.916016
v 3.295313 0.928906 2.916016
v 3.295313 0.928906 2.916016
v 3.295313 0.928906 2.916016
v 2.794922 -1.551953 -2.106641
v 5.530078 0.882422 2.072656
v 1.872266 -2.528906 -2.118750
v 5.401563 0.778516 1.973828
v 2.060156 -2.851172 -1.738672
v 5.555469 1.073047 2.107813
v 5.555469 1.073047 2.107813
v 4.170312 -2.310547 -1.226953
v 6.119922 1.006641 1.485547
v 6.119922 1.006641 1.485547
v 3.936719 -2.744141 -1.039062
v 3.126172 1.015234 3.086328
v 3.126172 1.015234 3.086328
v 4.417188 -2.139844 -0.683594
v 3.503516 1.683203 2.903906
v 3.503516 1.683203 2.903906
v 3.492578 -2.510547 -0.731641
v 3.522656 1.637109 2.687891
v 3.507422 -0.119922 -1.294141
v 3.321875 0.911328 2.657813
v 3.974219 -1.554297 -0.562891
v 1.511328 1.860547 2.954297
v 2.583984 -2.734766 -1.398828
v 0.598437 1.974219 1.758203
v 3.761328 -1.690625 -1.071094
v 0.967969 3.081641 1.514844
v 2.492969 -0.830078 -2.167969
v 1.219531 2.937500 2.285156
v 2.241797 -1.384766 -2.290625
v 1.639844 3.739063 1.332422
v 2.628516 -0.859375 -2.297656
v 4.492969 3.028516 1.281641
v 2.353125 -1.460938 -2.417969
v 4.448828 2.732031 2.377344
v 2.878906 -1.008594 -2.204688
v 4.018360 2.278125 2.757422
v 2.700781 -1.591406 -2.329688
v 3.923438 2.389844 2.761719
v 2.078125 -2.075000 -2.327734
v 3.989063 2.075000 2.535938
v 2.413281 -2.426953 -2.319141
v 4.490625 2.333594 2.258203
v 2.408984 -2.874609 -2.084375
v 4.561719 2.392578 2.422656
v 4.561719 2.392578 2.422656
v 2.775391 -2.025000 -2.108984
v 4.096875 2.113281 2.715625
v 4.096875 2.113281 2.715625
v 2.721484 -1.962891 -1.883984
v 2.357422 2.532422 2.931250
v 2.824610 -3.043750 -1.882031
v 3.069141 3.257031 2.596484
v 3.241797 -3.039062 -1.641797
v 3.543750 3.892969 1.967188
v 3.039062 -2.624219 -2.110938
v 3.988281 3.490234 2.145313
v 3.390234 -2.610156 -1.913672
v 3.318750 4.283985 1.096094
v 4.044531 -1.837500 -1.219141
v 2.172656 4.117578 1.172656
v 4.294922 -1.673828 -0.660547
v 3.880859 -0.246484 0.939063
v 2.094531 -1.826563 -2.282031
v 0.982422 1.908594 2.532422
v 3.256250 -2.124219 -1.950781
v 1.760547 2.692188 2.710156
v 3.659375 -2.022266 -1.633594
v 2.330078 3.612500 2.198437
v 4.341406 -2.439063 0.000000
v 4.191016 4.085156 1.098047
v 4.253516 -2.529688 -0.578906
v 4.718750 3.751953 1.165234
v 3.564844 -2.948828 -1.371094
v 5.417969 3.139844 1.155469
v 3.781250 -2.521875 -1.633984
v 5.650391 2.803906 1.308594
v 5.650391 2.803906 1.308594
v 3.993750 -2.581250 0.000000
v 5.463672 2.694141 1.191016
v 3.948437 -2.657422 -0.477734
v 5.944922 3.137891 0.000000
v 3.637110 -2.762891 -0.783984
v 5.602735 3.026953 1.325781
v 3.199610 -2.907813 -1.107813
v 4.528516 2.584375 2.442578
v 3.835547 -2.403516 -0.427734
v 3.121875 0.334766 0.000000
v 3.167578 -2.614063 -1.026563
v 3.335156 0.670703 1.903906
v 3.156250 -0.679688 1.876953
v 4.753125 1.154688 2.578516
v 4.753125 1.154688 2.578516
v 3.626953 -0.107422 1.538281
v 4.784375 0.972266 2.533594
v 3.142578 -0.570312 2.025000
v 2.360156 0.806250 0.000000
v 3.496094 -0.014844 1.689844
v 2.706641 0.980859 2.037500
v 3.221484 -0.007031 1.472266
v 5.071094 2.578906 1.772266
v 2.956641 -0.447266 2.083203
v 5.184766 2.669141 1.933203
v 5.184766 2.669141 1.933203
v 2.777344 -0.432031 1.946875
v 5.162109 2.872656 1.957813
v 2.782422 -1.543359 1.927734
v 4.978516 2.997656 1.748438
v 3.101953 -2.007812 1.652344
v 3.371094 1.863672 2.977734
v 3.064063 -0.681250 1.757812
v 3.291406 1.213281 2.740625
v 3.408203 -1.908594 1.446875
v 3.256250 1.256250 2.977734
v 3.256250 1.256250 2.977734
v 2.794922 -1.551953 2.106641
v 3.125391 1.255859 3.113672
v 1.872266 -2.528906 2.118750
v 2.208203 1.781641 3.135547
v 2.060156 -2.851172 1.738672
v 2.809375 1.114063 3.183594
v 2.809375 1.114063 3.183594
v 4.170312 -2.310547 1.226953
v 2.755859 1.692969 3.175000
v 3.936719 -2.744141 1.039062
v 2.908594 2.434375 3.032031
v 4.417188 -2.139844 0.683594
v 6.156250 0.633594 0.626172
v 3.492578 -2.510547 0.731641
v 6.410156 0.712500 0.716016
v 3.507422 -0.119922 1.294141
v 6.443750 0.929297 0.735156
v 6.443750 0.929297 0.735156
v 3.974219 -1.554297 0.562891
v 5.637891 2.765625 0.581250
v 2.583984 -2.734766 1.398828
v 5.908985 2.867188 0.644531
v 5.908985 2.867188 0.644531
v 3.761328 -1.690625 1.071094
v 5.871875 3.121485 0.651563
v 2.492969 -0.830078 2.167969
v 5.610547 3.205859 0.525781
v 2.241797 -1.384766 2.290625
v 6.345313 1.014063 0.000000
v 2.628516 -0.859375 2.297656
v 6.231250 1.023047 0.690234
v 2.353125 -1.460938 2.417969
v 5.912109 1.087500 1.401172
v 2.878906 -1.008594 2.204688
v 5.362110 1.154297 1.889063
v 2.700781 -1.591406 2.329688
v 4.666797 1.194141 2.351953
v 2.078125 -2.075000 2.327734
v 4.003906 1.126953 2.550781
v 2.413281 -2.426953 2.319141
v 4.704297 0.856641 2.367578
v 2.408984 -2.874609 2.084375
v 2.781641 0.090234 2.908984
v 2.775391 -2.025000 2.108984
v 2.471875 -0.053125 2.491406
v 2.721484 -1.962891 1.883984
v 2.793360 2.986328 0.000000
v 2.824610 -3.043750 1.882031
v 3.201563 2.711719 2.038281
v 3.241797 -3.039062 1.641797
v 4.041797 0.967969 -2.787109
v 3.039062 -2.624219 2.110938
v 3.566406 0.766406 -2.856250
v 3.390234 -2.610156 1.913672
v 4.002344 0.847656 -2.673438
v 4.044531 -1.837500 1.219141
v 4.419922 0.465625 -1.470312
v 4.294922 -1.673828 0.660547
v 3.335156 0.670703 -1.903906
v 2.094531 -1.826563 2.282031
v 2.245312 0.369531 -3.030078
v 3.256250 -2.124219 1.950781
v 2.094922 0.976953 -3.100781
v 2.094922 0.976953 -3.100781
v 3.659375 -2.022266 1.633594
v 1.507422 0.972266 -2.935547
v 1.507422 0.972266 -2.935547
v 4.253516 -2.529688 0.578906
v 6.097656 0.777344 -1.439453
v 3.564844 -2.948828 1.371094
v 5.894922 0.679297 -1.342578
v 3.781250 -2.521875 1.633984
v 6.156250 0.633594 -0.626172
v 3.948437 -2.657422 0.477734
v 6.410156 0.712500 -0.716016
v 3.637110 -2.762891 0.783984
v 5.752735 0.608594 -1.154688
v 5.752735 0.608594 -1.154688
v 3.199610 -2.907813 1.107813
v 5.117969 -0.240625 -0.589453
v 3.835547 -2.403516 0.427734
v 5.027734 -0.053906 -1.211328
v 5.027734 -0.053906 -1.211328
v 3.167578 -2.614063 1.026563
v 4.389062 -0.384766 -1.239844
v 4.389062 -0.384766 -1.239844
v 4.448828 -0.637500 -0.561328
v 4.448828 -0.637500 -0.561328
v 4.433984 0.190625 -2.039453
v 5.198438 0.750781 -1.908984
v 3.950391 0.344141 -2.542578
v 3.480078 0.472656 -2.876563
v 3.295313 0.014844 -2.642969
v 3.687891 -0.150781 -1.834375
v 3.089844 -0.147266 -2.193750
v 1.138672 0.958984 -2.446484
v 1.138672 0.958984 -2.446484
v 1.570312 0.451953 -2.560547
v 3.295313 0.928906 -2.916016
v 3.295313 0.928906 -2.916016
v 3.295313 0.928906 -2.916016
v 3.295313 0.928906 -2.916016
v 3.295313 0.928906 -2.916016
v 3.295313 0.928906 -2.916016
v 4.025391 1.125391 -2.775000
v 4.025391 1.125391 -2.775000
v 4.784375 0.972266 -2.533594
v 5.530078 0.882422 -2.072656
v 5.555469 1.073047 -2.107813
v 5.555469 1.073047 -2.107813
v 4.753125 1.154688 -2.578516
v 4.753125 1.154688 -2.578516
v 4.704297 0.856641 -2.367578
v 5.401563 0.778516 -1.973828
v 6.119922 1.006641 -1.485547
v 6.119922 1.006641 -1.485547
v 6.443750 0.929297 -0.735156
v 6.443750 0.929297 -0.735156
v 3.291406 1.213281 -2.740625
v 2.494141 1.967188 -2.210547
v 2.494141 1.967188 -2.210547
v 3.522656 1.637109 -2.687891
v 4.003906 1.126953 -2.550781
v 3.321875 0.911328 -2.657813
v 0.725781 1.089844 -1.857813
v 0.725781 1.089844 -1.857813
v 0.655859 1.053125 -0.888281
v 0.655859 1.053125 -0.888281
v 1.006641 0.663672 -1.899609
v 2.518750 0.120703 -1.846875
v 2.471875 -0.053125 -2.491406
v 1.505859 0.462891 -2.038672
v 3.126172 1.015234 -3.086328
v 3.126172 1.015234 -3.086328
v 3.052734 0.512500 -3.039453
v 2.781641 0.090234 -2.908984
v 3.256250 1.256250 -2.977734
v 3.256250 1.256250 -2.977734
v 3.221484 0.055078 -1.472266
v 3.880859 -0.246484 -0.939063
v 5.362110 1.154297 -1.889063
v 5.912109 1.087500 -1.401172
v 2.809375 1.114063 -3.183594
v 2.809375 1.114063 -3.183594
v 6.231250 1.023047 -0.690234
v 1.511328 1.860547 -2.954297
v 0.598437 1.974219 -1.758203
v 0.967969 3.081641 -1.514844
v 1.639844 3.739063 -1.332422
v 3.201563 2.711719 -2.038281
v 3.989063 2.075000 -2.535938
v 3.503516 1.683203 -2.903906
v 3.503516 1.683203 -2.903906
v 3.125391 1.255859 -3.113672
v 4.490625 2.333594 -2.258203
v 4.561719 2.392578 -2.422656
v 4.561719 2.392578 -2.422656
v 4.096875 2.113281 -2.715625
v 4.096875 2.113281 -2.715625
v 5.637891 2.765625 -0.581250
v 5.908985 2.867188 -0.644531
v 5.908985 2.867188 -0.644531
v 5.650391 2.803906 -1.308594
v 5.650391 2.803906 -1.308594
v 5.463672 2.694141 -1.191016
v 5.602735 3.026953 -1.325781
v 5.871875 3.121485 -0.651563
v 2.908594 2.434375 -3.032031
v 3.069141 3.257031 -2.596484
v 2.357422 2.532422 -2.931250
v 3.543750 3.892969 -1.967188
v 3.988281 3.490234 -2.145313
v 3.923438 2.389844 -2.761719
v 4.448828 2.732031 -2.377344
v 3.318750 4.283985 -1.096094
v 4.191016 4.085156 -1.098047
v 4.718750 3.751953 -1.165234
v 4.978516 2.997656 -1.748438
v 5.417969 3.139844 -1.155469
v 5.610547 3.205859 -0.525781
v 2.172656 4.117578 -1.172656
v 1.760547 2.692188 -2.710156
v 2.330078 3.612500 -2.198437
v 1.219531 2.937500 -2.285156
v 4.492969 3.028516 -1.281641
v 4.528516 2.584375 -2.442578
v 5.184766 2.669141 -1.933203
v 5.184766 2.669141 -1.933203
v 5.162109 2.872656 -1.957813
v 4.018360 2.278125 -2.757422
v 2.208203 1.781641 -3.135547
v 0.982422 1.908594 -2.532422
v 5.071094 2.578906 -1.772266
v 4.666797 1.194141 -2.351953
v 2.755859 1.692969 -3.175000
v 2.706641 0.980859 -2.037500
v 3.371094 1.863672 -2.977734
v 2.146094 2.448047 -1.076172
v 2.623828 2.512500 -1.273438
v 3.951563 2.975781 -1.026953
v 1.933203 2.305078 -1.567188
v 2.675781 2.385547 -1.860547
v 4.095703 2.935938 -1.556250
v 1.757812 1.908984 -0.699219
v 1.957813 1.879688 -1.631250
v 2.756250 1.861328 -1.939844
v 4.403516 2.668360 -1.619922
v 1.894531 1.386328 -0.677344
v 2.018359 1.466797 -1.381250
v 2.713672 1.563672 -1.631250
v 4.549219 2.360938 -1.318359
v 2.598438 1.309766 -0.700391
v 4.562109 2.170313 -0.538281
v 2.580859 2.579297 0.000000
v 4.395703 2.235938 0.000000
v 5.037500 3.182812 0.000000
v 4.892578 3.607422 0.000000
v 4.485157 3.567188 0.000000
v 3.801563 2.906641 0.000000
vt 0.517273 0.326355
vt 0.541748 0.330750
vt 0.561401 0.330261
vt 0.515503 0.326660
vt 0.506775 0.314758
vt 0.522522 0.325439
vt 0.515503 0.314758
vt 0.548157 0.318848
vt 0.547302 0.307373
vt 0.561401 0.321350
vt 0.561401 0.308655
vt 0.574707 0.318848
vt 0.575562 0.307373
vt 0.607361 0.314758
vt 0.605469 0.305359
vt 0.616028 0.314758
vt 0.614624 0.305359
vt 0.613831 0.314758
vt 0.612488 0.305359
vt 0.597290 0.314758
vt 0.595764 0.305359
vt 0.561401 0.314758
vt 0.561401 0.305359
vt 0.525574 0.314758
vt 0.527039 0.305359
vt 0.509033 0.314758
vt 0.510315 0.305359
vt 0.508240 0.305359
vt 0.509644 0.295898
vt 0.517395 0.305359
vt 0.519287 0.295898
vt 0.546448 0.295898
vt 0.530090 0.279419
vt 0.561401 0.268372
vt 0.523865 0.269531
vt 0.561401 0.256165
vt 0.525452 0.272034
vt 0.561401 0.259277
vt 0.528564 0.295898
vt 0.561401 0.295898
vt 0.594238 0.295898
vt 0.498352 0.451172
vt 0.487915 0.462036
vt 0.497925 0.465820
vt 0.483398 0.448120
vt 0.498352 0.437134
vt 0.479004 0.435486
vt 0.470337 0.405579
vt 0.457764 0.408691
vt 0.412476 0.382629
vt 0.424988 0.418030
vt 0.384338 0.397217
vt 0.365601 0.407654
vt 0.317139 0.377441
vt 0.310425 0.392029
vt 0.254150 0.389648
vt 0.254150 0.408264
vt 0.310425 0.392029
vt 0.312500 0.411804
vt 0.365601 0.407654
vt 0.372192 0.429504
vt 0.424988 0.418030
vt 0.419006 0.444092
vt 0.456238 0.440979
vt 0.434631 0.461792
vt 0.462708 0.451416
vt 0.469177 0.461792
vt 0.477539 0.459412
vt 0.585571 0.920288
vt 0.584045 0.929199
vt 0.651978 0.946228
vt 0.506226 0.910522
vt 0.506226 0.896179
vt 0.585571 0.920288
vt 0.587463 0.904175
vt 0.654541 0.933533
vt 0.657532 0.912537
vt 0.724609 0.921448
vt 0.729248 0.879211
vt 0.806580 0.930298
vt 0.802612 0.888123
vt 0.862488 0.929199
vt 0.881226 0.887512
vt 0.947083 0.916687
vt 0.912476 0.837524
vt 0.977051 0.894836
vt 0.956238 0.837524
vt 0.993713 0.875000
vt 0.981201 0.837524
vt 0.966370 0.575195
vt 0.978882 0.573120
vt 0.992798 0.588928
vt 0.954224 0.552673
vt 0.941406 0.555420
vt 0.929504 0.532227
vt 0.916382 0.535645
vt 0.847656 0.504395
vt 0.841370 0.510620
vt 0.803223 0.500183
vt 0.800110 0.506470
vt 0.759033 0.502258
vt 0.759033 0.508545
vt 0.800110 0.506470
vt 0.796936 0.513733
vt 0.841370 0.510620
vt 0.835144 0.518982
vt 0.903870 0.539795
vt 0.832031 0.527405
vt 0.426514 0.376404
vt 0.439636 0.370789
vt 0.376404 0.364502
vt 0.367859 0.372253
vt 0.326233 0.352539
vt 0.323303 0.361938
vt 0.290222 0.351318
vt 0.288757 0.360657
vt 0.254150 0.350037
vt 0.254150 0.359436
vt 0.288757 0.360657
vt 0.254150 0.374939
vt 0.317139 0.377441
vt 0.392151 0.475342
vt 0.372192 0.461792
vt 0.321838 0.478455
vt 0.315613 0.461792
vt 0.254150 0.464539
vt 0.254150 0.447876
vt 0.315613 0.461792
vt 0.313171 0.440002
vt 0.372192 0.461792
vt 0.372192 0.429504
vt 0.419006 0.444092
vt 0.456238 0.440979
vt 0.463989 0.437134
vt 0.471680 0.448059
vt 0.931213 0.966675
vt 0.962463 1.000000
vt 1.000000 0.950012
vt 0.888245 0.975220
vt 0.862488 0.929199
vt 0.814331 0.970642
vt 0.806580 0.930298
vt 0.721069 0.948486
vt 0.724609 0.921448
vt 0.654541 0.933533
vt 0.657532 0.912537
vt 0.587463 0.904175
vt 0.591431 0.862549
vt 0.506226 0.854187
vt 0.593750 0.820862
vt 0.506226 0.816711
vt 0.891418 0.558533
vt 0.924194 0.563354
vt 0.899231 0.546814
vt 0.935120 0.587708
vt 0.913269 0.588745
vt 0.935120 0.604370
vt 0.891418 0.589783
vt 0.910156 0.612732
vt 0.872620 0.608521
vt 0.916382 0.623108
vt 0.878906 0.629395
vt 0.922668 0.633545
vt 0.872620 0.647461
vt 0.928894 0.646057
vt 0.875977 0.662720
vt 0.718384 0.961365
vt 0.591431 0.862549
vt 0.662476 0.870850
vt 0.662476 0.829224
vt 0.756226 0.850037
vt 0.597351 0.272034
vt 0.611206 0.295898
vt 0.598938 0.269531
vt 0.613220 0.295898
vt 0.603577 0.295898
vt 0.576416 0.295898
vt 0.561401 0.295898
vt 0.119263 0.209167
vt 0.103699 0.228394
vt 0.072754 0.219604
vt 0.126953 0.240723
vt 0.148560 0.223328
vt 0.153442 0.262756
vt 0.169617 0.252136
vt 0.168762 0.280029
vt 0.175476 0.276245
vt 0.161743 0.271606
vt 0.173584 0.265930
vt 0.153137 0.262573
vt 0.168518 0.250916
vt 0.160034 0.235474
vt 0.966370 0.575195
vt 0.966370 0.589783
vt 0.992126 0.589722
vt 0.949219 0.579895
vt 0.941406 0.555420
vt 0.834106 0.546509
vt 0.833984 0.561584
vt 0.127136 0.239502
vt 0.148132 0.223816
vt 0.160034 0.235474
vt 0.118774 0.209473
vt 0.104370 0.229553
vt 0.076538 0.199829
vt 0.072632 0.219910
vt 0.038025 0.196838
vt 0.036194 0.213379
vt 0.010681 0.196228
vt 0.008789 0.213379
vt 0.036194 0.213379
vt 0.966370 0.589783
vt 0.992126 0.589722
vt 0.949219 0.579895
vt 0.935120 0.587708
vt 0.924194 0.563354
vt 0.891418 0.558533
vt 0.899231 0.546814
vt 0.832031 0.527405
vt 0.903870 0.539795
vt 0.835144 0.518982
vt 0.947083 0.916687
vt 0.881226 0.887512
vt 0.912476 0.837524
vt 0.868713 0.837524
vt 0.877930 0.793335
vt 0.812500 0.758362
vt 0.831238 0.750000
vt 0.731201 0.700012
vt 0.743713 0.691711
vt 0.531128 0.322510
vt 0.591736 0.322510
vt 0.605530 0.326355
vt 0.119263 0.209167
vt 0.103699 0.228394
vt 0.126953 0.240723
vt 0.072754 0.219604
vt 0.075806 0.201294
vt 0.035767 0.213440
vt 0.037720 0.197388
vt 0.008423 0.213501
vt 0.010315 0.196167
vt 0.037720 0.197388
vt 0.384338 0.397217
vt 0.367859 0.372253
vt 0.412476 0.382629
vt 0.376404 0.364502
vt 0.426514 0.376404
vt 0.384583 0.355957
vt 0.439636 0.370789
vt 0.581116 0.330750
vt 0.561401 0.330750
vt 0.561401 0.328735
vt 0.548584 0.328735
vt 0.960144 0.596008
vt 0.991821 0.590759
vt 0.935120 0.604370
vt 0.913269 0.588745
vt 0.891418 0.589783
vt 0.833984 0.561584
vt 0.834106 0.546509
vt 0.254150 0.338623
vt 0.291870 0.339844
vt 0.329529 0.341125
vt 0.384583 0.355957
vt 1.000000 0.950012
vt 0.931213 0.966675
vt 0.888245 0.975220
vt 0.814331 0.970642
vt 0.962463 1.000000
vt 0.856201 1.000000
vt 0.083801 0.300720
vt 0.161743 0.271606
vt 0.168762 0.280029
vt 0.079529 0.287292
vt 0.008972 0.307007
vt 0.009033 0.295959
vt 0.079529 0.287292
vt 0.077454 0.280640
vt 0.141541 0.250305
vt 0.972656 0.610596
vt 0.941406 0.613770
vt 0.947632 0.623108
vt 0.916382 0.623108
vt 0.922668 0.633545
vt 0.878906 0.629395
vt 0.872620 0.647461
vt 0.511658 0.295898
vt 0.651978 0.946228
vt 0.718384 0.961365
vt 0.584045 0.929199
vt 0.506226 0.920166
vt 0.581909 0.937988
vt 0.937500 0.770874
vt 0.913818 0.779480
vt 0.877930 0.793335
vt 0.849976 0.737549
vt 0.831238 0.750000
vt 0.743713 0.691711
vt 0.731201 0.700012
vt 0.083618 0.300842
vt 0.078918 0.281860
vt 0.008972 0.291504
vt 0.009399 0.262146
vt 0.078918 0.281860
vt 0.071899 0.259094
vt 0.071899 0.259094
vt 0.008423 0.238953
vt 0.796936 0.513733
vt 0.759094 0.520508
vt 0.477539 0.459412
vt 0.956238 0.837524
vt 0.913818 0.779480
vt 0.937500 0.770874
vt 0.849976 0.737549
vt 0.868713 0.725037
vt 0.756226 0.683350
vt 0.356812 0.256897
vt 0.275391 0.180908
vt 0.449585 0.202881
vt 0.276733 0.256897
vt 0.278564 0.319885
vt 0.356812 0.256897
vt 0.357422 0.320007
vt 0.454590 0.328064
vt 0.487915 0.462036
vt 0.498352 0.451172
vt 0.497925 0.465820
vt 0.483398 0.448120
vt 0.471680 0.448059
vt 0.153137 0.262573
vt 0.077454 0.280640
vt 0.008606 0.284912
vt 0.071167 0.260498
vt 0.153442 0.262756
vt 0.083618 0.300842
vt 0.329529 0.341125
vt 0.326233 0.352539
vt 0.323303 0.361938
vt 0.498352 0.437134
vt 0.479004 0.435486
vt 0.463989 0.437134
vt 0.311768 0.426392
vt 0.254150 0.427002
vt 0.311768 0.426392
vt 0.960144 0.633545
vt 0.947632 0.623108
vt 0.985168 0.621033
vt 0.972656 0.610596
vt 0.990662 0.611633
vt 0.994080 0.602295
vt 0.941406 0.613770
vt 0.960144 0.596008
vt 0.977051 0.894836
vt 0.993713 0.875000
vt 0.981201 0.837524
vt 0.457764 0.408691
vt 0.470337 0.405579
vt 0.481018 0.402954
vt 0.035767 0.213440
vt 0.600342 0.325439
vt 0.574280 0.328735
vt 0.607361 0.326660
vt 0.729248 0.879211
vt 0.662476 0.870850
vt 0.868713 0.837524
vt 0.856201 0.837524
vt 0.862488 0.875000
vt 0.141541 0.250305
vt 0.071167 0.260498
vt 0.008789 0.223633
vt 0.008789 0.262756
vt 0.847656 0.504395
vt 0.803223 0.500183
vt 0.916382 0.535645
vt 0.721069 0.948486
vt 0.291870 0.339844
vt 0.290222 0.351318
vt 0.844543 0.593933
vt 0.810120 0.579346
vt 0.791077 0.559631
vt 0.791077 0.559631
vt 0.760620 0.568970
vt 0.760437 0.559082
vt 0.810120 0.579346
vt 0.802612 0.888123
vt 0.756226 0.850037
vt 0.662476 0.829224
vt 0.312500 0.411804
vt 0.127136 0.239502
vt 0.104370 0.229553
vt 0.072632 0.219910
vt 0.440613 0.488892
vt 0.393738 0.497559
vt 0.337524 0.494995
vt 0.313171 0.440002
vt 0.991821 0.590759
vt 0.592773 0.279419
vt 0.392151 0.475342
vt 0.337524 0.494995
vt 0.393738 0.497559
vt 0.321838 0.478455
vt 0.994080 0.602295
vt 0.993225 0.591431
vt 0.990662 0.611633
vt 0.985168 0.621033
vt 0.872620 0.608521
vt 0.910156 0.612732
vt 0.434631 0.461792
vt 0.440613 0.488892
vt 0.469177 0.461792
vt 0.148132 0.223816
vt 0.118774 0.209473
vt 0.462708 0.451416
vt 0.293640 0.496460
vt 0.254150 0.481201
vt 0.759033 0.496033
vt 0.812500 0.758362
vt 0.799988 0.762512
vt 0.716980 0.710449
vt 0.254150 0.491577
vt 0.293640 0.496460
vt 0.856201 1.000000
vt 0.856201 0.837524
vt 0.799988 0.762512
vt 0.449585 0.202881
vt 0.454163 0.272156
vt 0.083801 0.300720
vt 0.008972 0.306396
vt 0.799988 0.862549
vt 0.076538 0.199829
vt 0.038025 0.196838
vt 0.075806 0.201294
vt 0.148560 0.223328
vt 0.169617 0.252136
vt 0.175476 0.276245
vt 0.173584 0.265930
vt 0.168518 0.250916
vt 0.454163 0.272156
vt 0.454590 0.328064
vt 0.844543 0.593933
vt 0.929504 0.532227
vt 0.954224 0.552673
vt 0.928894 0.646057
vt 0.875977 0.662720
vt 0.960144 0.633545
vt 0.481018 0.402954
vt 0.993225 0.591431
vt 0.978882 0.573120
vt 0.992798 0.588928
vt 0.649292 0.954956
vt 0.649292 0.954956
vt 0.581909 0.937988
vt 0.862488 0.875000
vt 0.716980 0.710449
vt 0.799988 0.862549
vt 0.868713 0.725037
vt 0.593750 0.820862
vt 0.756226 0.683350
vt 0.506226 0.932434
vt 0.357422 0.320007
vt 0.718079 0.971802
vt 0.718079 0.971802
vt 0.847412 0.663269
vt 0.847412 0.663269
vn -0.6797 0.5193 -0.5179
vn -0.9922 -0.0821 -0.0942
vn -0.6836 0.7298 0.0000
vn -0.7089 -0.1950 -0.6778
vn -0.0353 -0.3544 -0.9344
vn -0.5347 -0.7353 -0.4164
vn 0.1074 -0.8516 -0.5130
vn 0.0927 -0.9956 -0.0074
vn 0.4032 -0.9147 -0.0275
vn 0.1147 -0.9934 -0.0024
vn 0.3962 -0.9181 -0.0023
vn 0.0907 -0.9958 0.0092
vn 0.4055 -0.9136 0.0298
vn 0.1032 -0.8538 0.5102
vn 0.4353 -0.7552 0.4899
vn -0.0450 -0.3495 0.9359
vn 0.2918 -0.2333 0.9275
vn -0.2391 0.5985 0.7646
vn -0.1035 0.6654 0.7393
vn -0.1911 0.9712 0.1420
vn -0.3096 0.9441 0.1127
vn -0.1556 0.9878 -0.0047
vn -0.2907 0.9568 -0.0029
vn -0.1877 0.9718 -0.1424
vn -0.3150 0.9414 -0.1205
vn -0.2352 0.6031 -0.7621
vn -0.1071 0.6621 -0.7417
vn 0.2880 -0.2392 -0.9272
vn 0.5751 0.0708 -0.8150
vn 0.4301 -0.7553 -0.4945
vn 0.7361 -0.4951 -0.4616
vn 0.7083 -0.7041 0.0497
vn 0.9449 -0.0436 -0.3243
vn 0.9998 0.0172 0.0011
vn 0.5510 0.6336 -0.5430
vn 0.5527 0.8333 0.0012
vn -0.2755 0.9002 -0.3372
vn -0.3703 0.9289 0.0002
vn -0.5458 0.8285 -0.1252
vn -0.5474 0.8368 0.0007
vn -0.5535 0.8234 0.1249
vn 0.7032 -0.1837 0.6868
vn 0.5506 -0.0814 0.8307
vn 0.6952 -0.0522 0.7169
vn 0.4487 -0.0534 0.8921
vn 0.4542 -0.0675 0.8883
vn 0.3335 0.0489 0.9415
vn 0.3836 0.1219 0.9154
vn 0.3034 0.3097 0.9011
vn 0.3496 0.5242 0.7765
vn 0.0687 0.5609 0.8250
vn 0.3955 0.5936 0.7009
vn 0.1569 0.8036 0.5741
vn 0.5370 0.7512 0.3838
vn 0.3638 0.8837 0.2944
vn 0.3780 0.9258 0.0000
vn 0.0671 0.9977 0.0000
vn 0.3638 0.8837 -0.2944
vn 0.0329 0.9612 -0.2738
vn 0.1569 0.8036 -0.5741
vn -0.2296 0.7492 -0.6213
vn 0.0687 0.5609 -0.8250
vn -0.3270 0.4555 -0.8280
vn -0.1503 0.3985 -0.9048
vn -0.4393 0.1730 -0.8815
vn -0.1472 0.1394 -0.9792
vn -0.1994 -0.0194 -0.9797
vn 0.0778 -0.0162 -0.9968
vn 0.7150 -0.6924 -0.0963
vn -0.1153 -0.9510 0.2869
vn -0.1354 -0.8368 0.5304
vn 0.7590 -0.6511 0.0000
vn 0.9996 -0.0264 0.0000
vn 0.7150 -0.6924 0.0963
vn 0.9626 -0.0787 0.2592
vn 0.5685 -0.8194 0.0735
vn 0.8485 -0.1700 0.5011
vn 0.6846 -0.2628 0.6799
vn 0.4202 0.5643 0.7106
vn 0.5563 -0.2790 0.7827
vn 0.3972 0.5470 0.7369
vn 0.3681 -0.2578 0.8933
vn 0.7413 0.2102 0.6374
vn 0.0607 -0.2427 0.9682
vn 0.5902 -0.0880 0.8024
vn -0.4921 -0.0059 0.8705
vn -0.2114 0.1267 0.9691
vn -0.6803 0.1798 0.7105
vn -0.6064 0.3262 0.7252
vn 0.2752 -0.3016 0.9128
vn 0.2123 0.0969 0.9724
vn 0.1647 0.0927 0.9820
vn 0.3882 -0.1372 0.9113
vn 0.3531 -0.5182 0.7790
vn 0.6016 -0.2156 0.7691
vn 0.4970 -0.5448 0.6754
vn 0.8038 -0.1923 0.5629
vn 0.6533 -0.6026 0.4583
vn 0.9381 -0.1718 0.3006
vn 0.7153 -0.6537 0.2469
vn 0.7867 -0.6173 0.0000
vn 0.3445 -0.9388 0.0000
vn 0.7153 -0.6537 -0.2469
vn 0.2528 -0.9597 -0.1228
vn 0.6533 -0.6026 -0.4583
vn 0.2529 -0.9348 -0.2493
vn 0.1839 -0.9049 -0.3838
vn 0.3120 -0.9035 -0.2939
vn 0.4425 0.2794 0.8521
vn 0.5626 0.0142 0.8266
vn 0.5241 0.5222 0.6727
vn 0.3636 0.7754 0.5163
vn 0.6513 0.5967 0.4688
vn 0.4335 0.8311 0.3483
vn 0.7336 0.6381 0.2339
vn 0.4638 0.8707 0.1639
vn 0.7626 0.6469 0.0000
vn 0.5105 0.8598 0.0000
vn 0.4638 0.8707 -0.1639
vn 0.5758 0.8175 0.0000
vn 0.5370 0.7512 -0.3838
vn -0.7655 0.1147 -0.6330
vn -0.6173 0.5293 -0.5820
vn -0.9589 0.1134 -0.2601
vn -0.8080 0.5401 -0.2350
vn -0.8752 0.4837 0.0000
vn -0.6300 0.7765 0.0000
vn -0.8080 0.5401 0.2350
vn -0.5416 0.7789 0.3160
vn -0.6173 0.5293 0.5820
vn -0.2296 0.7492 0.6213
vn -0.3270 0.4555 0.8280
vn -0.1503 0.3985 0.9048
vn 0.0786 0.3045 0.9492
vn 0.0793 0.1113 0.9906
vn -0.1638 -0.7443 -0.6473
vn -0.3729 -0.9211 -0.1112
vn -0.3979 -0.4888 -0.7763
vn 0.0544 -0.9421 -0.3309
vn 0.3681 -0.2578 -0.8933
vn 0.2303 -0.9468 -0.2246
vn 0.5563 -0.2790 -0.7827
vn 0.4361 -0.8946 -0.0971
vn 0.6846 -0.2628 -0.6799
vn 0.5685 -0.8194 -0.0735
vn 0.8485 -0.1700 -0.5011
vn 0.9626 -0.0787 -0.2592
vn 0.6891 0.6594 -0.3005
vn 0.7338 0.6793 0.0000
vn 0.2879 0.9245 -0.2496
vn 0.3757 0.9267 0.0000
vn 0.4464 -0.6842 -0.5766
vn 0.3385 -0.7180 -0.6081
vn 0.3046 -0.8476 -0.4345
vn 0.4527 -0.4711 -0.7570
vn 0.3664 -0.8043 -0.4678
vn 0.2402 -0.7897 -0.5645
vn -0.0196 -0.9869 -0.1603
vn -0.0703 -0.9975 0.0050
vn -0.2891 -0.9157 0.2791
vn -0.2834 -0.9489 -0.1391
vn -0.4098 -0.9120 0.0169
vn -0.5712 -0.7254 -0.3841
vn -0.7499 -0.5916 -0.2961
vn -0.7283 -0.4913 -0.4776
vn -0.8243 -0.5217 -0.2198
vn -0.2832 -0.7759 0.5637
vn 0.6891 0.6594 0.3005
vn 0.5678 0.5912 0.5728
vn 0.1991 0.8766 0.4380
vn 0.0300 0.8899 0.4551
vn -0.2720 0.9005 0.3393
vn -0.0739 0.7581 0.6479
vn 0.5532 0.6306 0.5443
vn 0.5759 0.0720 0.8144
vn 0.7364 -0.4945 0.4617
vn 0.7083 -0.7041 -0.0497
vn 0.6779 -0.7351 0.0000
vn 0.4752 -0.8684 0.1415
vn 0.1724 -0.9702 -0.1701
vn 0.1090 -0.9897 -0.0928
vn 0.2256 -0.9330 -0.2802
vn 0.4836 -0.8715 0.0811
vn 0.3564 -0.7727 -0.5253
vn 0.5455 -0.8313 -0.1068
vn 0.6274 -0.6443 -0.4372
vn 0.7670 -0.6084 0.2037
vn 0.9330 -0.0744 -0.3519
vn 0.9566 -0.2317 0.1766
vn 0.3367 0.8739 -0.3506
vn 0.7125 0.7011 0.0255
vn -0.1932 0.9807 0.0283
vn 0.2752 -0.3016 -0.9128
vn 0.3078 -0.1207 -0.9437
vn 0.1734 -0.0720 -0.9822
vn 0.3655 -0.5211 -0.7713
vn 0.3531 -0.5182 -0.7790
vn 0.5163 -0.6469 -0.5612
vn -0.0299 -0.9268 -0.3744
vn -0.0633 0.9804 0.1866
vn 0.0835 0.9866 -0.1400
vn -0.1932 0.9807 -0.0283
vn 0.2201 0.9634 -0.1529
vn -0.0541 0.9818 0.1820
vn 0.3162 0.9428 -0.1050
vn 0.0126 0.9971 0.0745
vn 0.3865 0.9200 -0.0647
vn 0.0173 0.9984 0.0531
vn 0.4022 0.9155 0.0000
vn 0.0030 1.0000 0.0000
vn 0.0173 0.9984 -0.0531
vn 0.3078 -0.1207 0.9437
vn 0.1734 -0.0720 0.9822
vn 0.3655 -0.5210 0.7713
vn 0.4527 -0.4711 0.7570
vn 0.3385 -0.7180 0.6081
vn 0.4464 -0.6842 0.5766
vn 0.3046 -0.8476 0.4345
vn 0.3120 -0.9035 0.2939
vn 0.1839 -0.9049 0.3838
vn 0.2529 -0.9348 0.2493
vn 0.0607 -0.2427 -0.9682
vn 0.7413 0.2102 -0.6374
vn 0.5902 -0.0880 -0.8024
vn 0.9681 -0.1747 -0.1796
vn 0.6417 -0.0617 -0.7644
vn 0.8513 -0.5245 0.0086
vn 0.6827 -0.0896 -0.7252
vn 0.8287 -0.5447 -0.1281
vn 0.4009 0.4164 -0.8160
vn -0.2426 0.9632 -0.1155
vn -0.2426 0.9632 0.1155
vn -0.6797 0.5193 0.5179
vn 0.4752 -0.8684 -0.1415
vn 0.1724 -0.9702 0.1701
vn 0.2256 -0.9330 0.2802
vn 0.1090 -0.9897 0.0928
vn 0.4434 -0.8921 -0.0868
vn -0.0116 -0.9975 0.0694
vn 0.3485 -0.9367 -0.0333
vn -0.0254 -0.9997 0.0000
vn 0.3774 -0.9260 0.0000
vn 0.3485 -0.9367 0.0333
vn 0.3955 0.5936 -0.7009
vn 0.3636 0.7754 -0.5163
vn 0.3496 0.5242 -0.7765
vn 0.5241 0.5222 -0.6727
vn 0.4425 0.2794 -0.8521
vn 0.7084 -0.0028 -0.7057
vn 0.5626 0.0142 -0.8266
vn -0.9922 -0.0821 0.0942
vn -0.9895 0.1447 0.0000
vn -0.6701 -0.7423 0.0000
vn -0.6464 -0.7621 -0.0373
vn 0.4091 -0.2904 0.8650
vn 0.2174 0.0036 0.9761
vn 0.2402 -0.7897 0.5645
vn 0.3664 -0.8043 0.4678
vn -0.0196 -0.9869 0.1603
vn -0.0299 -0.9268 0.3744
vn 0.5163 -0.6469 0.5612
vn 0.9825 0.1862 0.0000
vn 0.9557 0.1364 0.2607
vn 0.8650 0.1389 0.4822
vn 0.7084 -0.0028 0.7057
vn -0.3979 -0.4888 0.7763
vn -0.1638 -0.7443 0.6473
vn 0.0544 -0.9421 0.3309
vn 0.2303 -0.9468 0.2246
vn -0.3729 -0.9211 0.1112
vn -0.2687 -0.8047 -0.5293
vn 0.8546 0.1846 0.4854
vn 0.9330 -0.0744 0.3519
vn 0.6274 -0.6443 0.4372
vn 0.7250 0.5842 0.3646
vn 0.9695 0.2448 0.0000
vn 0.8029 0.5960 0.0000
vn 0.7250 0.5842 -0.3646
vn 0.1574 0.9409 -0.3000
vn -0.2216 0.9606 -0.1676
vn 0.2066 -0.2912 0.9341
vn 0.0289 -0.7081 0.7055
vn -0.2521 -0.5055 0.8251
vn -0.2834 -0.9489 0.1391
vn -0.5712 -0.7254 0.3841
vn -0.4098 -0.9120 -0.0169
vn -0.7499 -0.5916 0.2961
vn -0.0747 0.7571 -0.6490
vn -0.1354 -0.8368 -0.5304
vn -0.2832 -0.7759 -0.5637
vn -0.1153 -0.9510 -0.2869
vn -0.3997 -0.9166 0.0000
vn -0.7867 -0.4047 0.4660
vn -0.5121 0.5410 0.6671
vn -0.0985 0.3767 0.9211
vn 0.6417 -0.0617 0.7644
vn 0.0136 0.5616 0.8273
vn 0.6827 -0.0896 0.7252
vn 0.4009 0.4164 0.8160
vn 0.8287 -0.5447 0.1281
vn 0.5455 -0.6277 -0.5553
vn 0.3023 -0.7702 -0.5616
vn 0.5798 -0.8147 0.0000
vn 0.0605 -0.9981 0.0000
vn 0.3023 -0.7702 0.5616
vn -0.1535 -0.9168 0.3686
vn -0.1535 -0.9168 -0.3686
vn -0.3274 -0.9449 0.0000
vn 0.2528 -0.9597 0.1228
vn 0.3389 -0.9408 0.0000
vn 0.0778 -0.0162 0.9968
vn -0.2114 0.1267 -0.9691
vn -0.0985 0.3767 -0.9211
vn -0.5121 0.5410 -0.6671
vn 0.0136 0.5616 -0.8273
vn -0.3633 0.7439 -0.5609
vn -0.3263 0.8283 -0.4554
vn 0.5822 -0.7793 0.2319
vn 0.7050 -0.7092 0.0000
vn 0.6836 -0.6827 0.2579
vn 0.5916 -0.8062 0.0000
vn 0.5038 -0.8638 0.0000
vn 0.5822 -0.7793 -0.2319
vn 0.4886 -0.8404 -0.2346
vn 0.4590 -0.8241 -0.3318
vn 0.5506 -0.0814 -0.8307
vn 0.7032 -0.1837 -0.6868
vn 0.6952 -0.0522 -0.7169
vn 0.4487 -0.0534 -0.8921
vn 0.0793 0.1113 -0.9906
vn 0.3367 0.8739 0.3506
vn 0.1574 0.9409 0.3000
vn 0.3310 0.9436 0.0000
vn -0.1463 0.9175 -0.3697
vn 0.3564 -0.7727 0.5253
vn 0.5455 -0.6277 0.5553
vn 0.8650 0.1389 -0.4822
vn 0.6513 0.5967 -0.4688
vn 0.4335 0.8311 -0.3483
vn 0.4542 -0.0675 -0.8883
vn 0.3335 0.0489 -0.9415
vn 0.0786 0.3045 -0.9492
vn -0.3047 0.9029 0.3031
vn -0.3008 0.9537 0.0000
vn -0.3047 0.9029 -0.3031
vn -0.5505 -0.4400 -0.7095
vn -0.2521 -0.5055 -0.8251
vn -0.1534 -0.1772 -0.9721
vn 0.2066 -0.2912 -0.9341
vn 0.0429 -0.2163 -0.9754
vn 0.3876 -0.0572 -0.9200
vn 0.0289 -0.7081 -0.7055
vn 0.4091 -0.2904 -0.8650
vn -0.4921 -0.0059 -0.8705
vn -0.6803 0.1798 -0.7105
vn -0.6064 0.3262 -0.7252
vn 0.3034 0.3097 -0.9011
vn 0.3836 0.1219 -0.9154
vn 0.4339 -0.0217 -0.9007
vn -0.0116 -0.9975 -0.0694
vn -0.5347 -0.7353 0.4164
vn -0.6464 -0.7621 0.0373
vn -0.7089 -0.1950 0.6778
vn 0.4202 0.5643 -0.7106
vn 0.5678 0.5912 -0.5728
vn 0.9681 -0.1747 0.1796
vn 0.9615 -0.2421 -0.1295
vn 0.7977 0.6025 -0.0248
vn -0.2216 0.9606 0.1676
vn -0.1463 0.9175 0.3697
vn -0.3612 0.9325 0.0000
vn -0.0664 0.9978 0.0000
vn 0.8038 -0.1923 -0.5629
vn 0.9381 -0.1718 -0.3006
vn 0.4970 -0.5448 -0.6754
vn 0.4361 -0.8946 0.0971
vn 0.9557 0.1364 -0.2607
vn 0.7336 0.6381 -0.2339
vn -0.2978 -0.9424 0.1522
vn -0.3750 -0.9153 -0.1466
vn -0.3944 -0.8887 -0.2336
vn -0.3944 -0.8887 0.2336
vn -0.3668 -0.9303 0.0000
vn -0.2918 -0.9565 0.0000
vn -0.3750 -0.9153 0.1466
vn 0.3972 0.5470 -0.7369
vn 0.0300 0.8899 -0.4551
vn 0.1991 0.8766 -0.4380
vn 0.0329 0.9612 0.2738
vn -0.0633 0.9804 -0.1866
vn -0.0541 0.9818 -0.1820
vn 0.0126 0.9971 -0.0745
vn -0.5247 -0.0726 -0.8482
vn -0.8021 -0.1834 -0.5682
vn -0.9375 -0.1388 -0.3190
vn -0.5416 0.7789 -0.3160
vn 0.2174 0.0036 -0.9761
vn 0.9447 -0.0398 0.3254
vn -0.7655 0.1147 0.6330
vn -0.9375 -0.1388 0.3190
vn -0.8021 -0.1834 0.5682
vn -0.9589 0.1134 0.2601
vn 0.3876 -0.0572 0.9200
vn 0.7474 0.2494 0.6158
vn 0.0429 -0.2163 0.9754
vn -0.1534 -0.1772 0.9721
vn -0.2891 -0.9157 -0.2791
vn -0.0703 -0.9975 -0.0050
vn -0.4393 0.1730 0.8815
vn -0.5247 -0.0726 0.8482
vn -0.1994 -0.0194 0.9797
vn 0.0835 0.9866 0.1400
vn 0.2201 0.9634 0.1529
vn -0.1472 0.1394 0.9792
vn -0.9886 -0.1068 0.1059
vn -0.9918 0.1275 0.0000
vn 0.9846 -0.1749 0.0000
vn 0.8513 -0.5245 -0.0086
vn 0.6527 -0.5712 -0.4976
vn 0.6373 -0.7105 -0.2984
vn -0.9999 -0.0119 0.0000
vn -0.9886 -0.1068 -0.1059
vn -0.2687 -0.8047 0.5293
vn 0.9615 -0.2421 0.1295
vn 0.6527 -0.5712 0.4976
vn 0.6836 -0.6827 -0.2579
vn 0.5563 -0.7702 -0.3120
vn 0.8546 0.1846 -0.4854
vn 0.7963 -0.6049 0.0000
vn 0.0996 0.9450 -0.3115
vn 0.3162 0.9428 0.1050
vn 0.3865 0.9200 0.0647
vn 0.4434 -0.8921 0.0868
vn 0.4836 -0.8715 -0.0811
vn 0.5455 -0.8313 0.1068
vn 0.7670 -0.6084 -0.2037
vn 0.9566 -0.2317 -0.1766
vn 0.7125 0.7011 -0.0255
vn 0.5563 -0.7702 0.3120
vn 0.4590 -0.8241 0.3318
vn -0.2978 -0.9424 -0.1522
vn 0.6016 -0.2156 -0.7691
vn 0.3882 -0.1372 -0.9113
vn -0.7283 -0.4913 0.4776
vn -0.8243 -0.5217 0.2198
vn -0.5505 -0.4400 0.7095
vn 0.4339 -0.0217 0.9007
vn 0.7474 0.2494 -0.6158
vn 0.2123 0.0969 -0.9724
vn 0.1647 0.0927 -0.9820
vn -0.5174 -0.4043 0.7542
vn -0.5174 -0.4043 -0.7542
vn -0.7867 -0.4047 -0.4660
vn 0.7977 0.6025 0.0248
vn 0.6373 -0.7105 0.2984
vn 0.0996 0.9450 0.3115
vn -0.3633 0.7439 0.5609
vn 0.2879 0.9245 0.2496
vn -0.3263 0.8283 0.4554
vn -0.9634 -0.2680 0.0000
vn 0.4886 -0.8404 0.2346
vn -0.5472 -0.2780 0.7895
vn -0.5472 -0.2780 -0.7895
vn -0.8359 -0.5429 -0.0808
vn -0.8359 -0.5429 0.0808
usemtl m0
s 1
f 447/1/1 450/2/2 9/3/3
f 450/2/2 447/1/1 451/4/4
f 452/5/5 451/4/4 447/1/1
f 451/4/4 452/5/5 455/6/6
f 456/7/7 455/6/6 452/5/5
f 455/6/6 456/7/7 458/8/8
f 59/9/9 458/8/8 456/7/7
f 458/8/8 59/9/9 4/10/10
f 85/11/11 4/10/10 59/9/9
f 4/10/10 85/11/11 55/12/12
f 83/13/13 55/12/12 85/11/11
f 55/12/12 83/13/13 49/14/14
f 81/15/15 49/14/14 83/13/13
f 49/14/14 81/15/15 36/16/16
f 78/17/17 36/16/16 81/15/15
f 36/16/16 78/17/17 27/18/18
f 76/19/19 27/18/18 78/17/17
f 27/18/18 76/19/19 21/20/20
f 73/21/21 21/20/20 76/19/19
f 21/20/20 73/21/21 460/22/22
f 70/23/23 460/22/22 73/21/21
f 460/22/22 70/23/23 445/24/24
f 68/25/25 445/24/24 70/23/23
f 445/24/24 68/25/25 448/26/26
f 66/27/27 448/26/26 68/25/25
f 448/26/26 66/27/27 64/28/28
f 453/29/29 64/28/28 66/27/27
f 64/28/28 453/29/29 62/30/30
f 457/31/31 62/30/30 453/29/29
f 62/30/30 457/31/31 459/32/32
f 16/33/33 459/32/32 457/31/31
f 459/32/32 16/33/33 462/34/34
f 14/35/35 462/34/34 16/33/33
f 462/34/34 14/35/35 463/36/36
f 11/37/37 463/36/36 14/35/35
f 463/36/36 11/37/37 464/38/38
f 446/39/39 464/38/38 11/37/37
f 464/38/38 446/39/39 465/40/40
f 70/23/23 465/40/40 446/39/39
f 465/40/40 70/23/23 23/41/41
f 73/21/21 23/41/41 70/23/23
f 23/41/41 73/21/21 76/19/19
f 246/42/42 145/43/43 132/44/44
f 145/43/43 246/42/42 248/45/45
f 147/46/46 248/45/45 246/42/42
f 248/45/45 147/46/46 241/47/47
f 168/48/48 241/47/47 147/46/46
f 241/47/47 168/48/48 170/49/49
f 166/50/50 170/49/49 168/48/48
f 170/49/49 166/50/50 184/51/51
f 188/52/52 184/51/51 166/50/50
f 184/51/51 188/52/52 186/53/53
f 204/54/54 186/53/53 188/52/52
f 186/53/53 204/54/54 202/55/55
f 39/56/56 202/55/55 204/54/54
f 202/55/55 39/56/56 37/57/57
f 422/58/58 37/57/57 39/56/56
f 37/57/57 422/58/58 421/59/59
f 417/60/60 421/59/59 422/58/58
f 421/59/59 417/60/60 429/61/61
f 415/62/62 429/61/61 417/60/60
f 429/61/61 415/62/62 428/63/63
f 416/64/64 428/63/63 415/62/62
f 428/63/63 416/64/64 392/65/65
f 437/66/66 392/65/65 416/64/64
f 392/65/65 437/66/66 310/67/67
f 390/68/68 310/67/67 437/66/66
f 203/69/69 212/70/70 214/71/71
f 212/70/70 203/69/69 201/72/72
f 92/73/73 201/72/72 203/69/69
f 201/72/72 92/73/73 314/74/74
f 258/75/75 314/74/74 92/73/73
f 314/74/74 258/75/75 256/76/76
f 254/77/77 256/76/76 258/75/75
f 256/76/76 254/77/77 318/78/78
f 311/79/79 318/78/78 254/77/77
f 318/78/78 311/79/79 300/80/80
f 308/81/81 300/80/80 311/79/79
f 300/80/80 308/81/81 298/82/82
f 290/83/83 298/82/82 308/81/81
f 298/82/82 290/83/83 286/84/84
f 282/85/85 286/84/84 290/83/83
f 286/84/84 282/85/85 284/86/86
f 278/87/87 284/86/86 282/85/85
f 284/86/86 278/87/87 306/88/88
f 274/89/89 306/88/88 278/87/87
f 65/90/90 124/91/91 127/92/92
f 124/91/91 65/90/90 223/93/93
f 226/94/94 223/93/93 65/90/90
f 223/93/93 226/94/94 138/95/95
f 134/96/96 138/95/95 226/94/94
f 138/95/95 134/96/96 141/97/97
f 86/98/98 141/97/97 134/96/96
f 141/97/97 86/98/98 263/99/99
f 261/100/100 263/99/99 86/98/98
f 263/99/99 261/100/100 15/101/101
f 10/102/102 15/101/101 261/100/100
f 15/101/101 10/102/102 321/103/103
f 319/104/104 321/103/103 10/102/102
f 321/103/103 319/104/104 315/105/105
f 317/106/106 315/105/105 319/104/104
f 315/105/105 317/106/106 360/107/107
f 323/108/108 360/107/107 317/106/106
f 217/109/109 168/48/48 177/110/110
f 168/48/48 217/109/109 166/50/50
f 237/111/111 166/50/50 217/109/109
f 166/50/50 237/111/111 239/112/112
f 215/113/113 239/112/112 237/111/111
f 239/112/112 215/113/113 206/114/114
f 271/115/115 206/114/114 215/113/113
f 206/114/114 271/115/115 273/116/116
f 213/117/117 273/116/116 271/115/115
f 273/116/116 213/117/117 50/118/118
f 426/119/119 50/118/118 213/117/117
f 50/118/118 426/119/119 41/120/120
f 423/121/121 41/120/120 426/119/119
f 41/120/120 423/121/121 39/56/56
f 422/58/58 39/56/56 423/121/121
f 438/122/122 428/63/63 392/65/65
f 428/63/63 438/122/122 430/123/123
f 393/124/124 430/123/123 438/122/122
f 430/123/123 393/124/124 394/125/125
f 26/126/126 394/125/125 393/124/124
f 394/125/125 26/126/126 43/127/127
f 158/128/128 43/127/127 26/126/126
f 43/127/127 158/128/128 162/129/129
f 160/130/130 162/129/129 158/128/128
f 162/129/129 160/130/130 200/131/131
f 198/132/132 200/131/131 160/130/130
f 200/131/131 198/132/132 184/51/51
f 182/133/133 184/51/51 198/132/132
f 184/51/51 182/133/133 257/134/134
f 255/135/135 257/134/134 182/133/133
f 175/136/136 137/137/137 135/138/138
f 137/137/137 175/136/136 183/139/139
f 187/140/140 183/139/139 175/136/136
f 183/139/139 187/140/140 185/141/141
f 189/142/142 185/141/141 187/140/140
f 185/141/141 189/142/142 205/143/143
f 207/144/144 205/143/143 189/142/142
f 205/143/143 207/144/144 143/145/145
f 140/146/146 143/145/145 207/144/144
f 143/145/145 140/146/146 146/147/147
f 193/148/148 146/147/147 140/146/146
f 146/147/147 193/148/148 98/149/149
f 153/150/150 98/149/149 193/148/148
f 98/149/149 153/150/150 95/151/151
f 335/152/152 359/153/153 336/154/154
f 359/153/153 335/152/152 337/155/155
f 90/156/156 337/155/155 335/152/152
f 337/155/155 90/156/156 339/157/157
f 340/158/158 339/157/157 90/156/156
f 339/157/157 340/158/158 341/159/159
f 376/160/160 341/159/159 340/158/158
f 341/159/159 376/160/160 377/161/161
f 378/162/162 377/161/161 376/160/160
f 377/161/161 378/162/162 344/163/163
f 375/164/164 344/163/163 378/162/162
f 344/163/163 375/164/164 342/165/165
f 371/166/166 342/165/165 375/164/164
f 143/145/145 214/71/71 216/167/167
f 214/71/71 143/145/145 203/69/69
f 146/147/147 203/69/69 143/145/145
f 203/69/69 146/147/147 92/73/73
f 98/149/149 92/73/73 146/147/147
f 92/73/73 98/149/149 258/75/75
f 304/168/168 258/75/75 98/149/149
f 258/75/75 304/168/168 254/77/77
f 302/169/169 254/77/77 304/168/168
f 254/77/77 302/169/169 311/79/79
f 270/170/170 311/79/79 302/169/169
f 311/79/79 270/170/170 244/171/171
f 23/41/41 464/38/38 465/40/40
f 464/38/38 23/41/41 40/172/172
f 29/173/173 40/172/172 23/41/41
f 40/172/172 29/173/173 42/174/174
f 38/175/175 42/174/174 29/173/173
f 42/174/174 38/175/175 51/176/176
f 81/15/15 51/176/176 38/175/175
f 51/176/176 81/15/15 57/177/177
f 83/13/13 57/177/177 81/15/15
f 57/177/177 83/13/13 461/178/178
f 85/11/11 461/178/178 83/13/13
f 461/178/178 85/11/11 59/9/9
f 235/179/179 232/180/180 211/181/181
f 232/180/180 235/179/179 174/182/182
f 176/183/183 174/182/182 235/179/179
f 174/182/182 176/183/183 172/184/184
f 179/185/185 172/184/184 176/183/183
f 172/184/184 179/185/185 150/186/186
f 148/187/187 150/186/186 179/185/185
f 150/186/186 148/187/187 243/188/188
f 245/189/189 243/188/188 148/187/187
f 243/188/188 245/189/189 152/190/190
f 129/191/191 152/190/190 245/189/189
f 152/190/190 129/191/191 125/192/192
f 297/193/193 299/194/194 349/195/195
f 299/194/194 297/193/193 301/196/196
f 353/197/197 301/196/196 297/193/193
f 301/196/196 353/197/197 359/153/153
f 360/107/107 359/153/153 353/197/197
f 359/153/153 360/107/107 336/154/154
f 323/108/108 336/154/154 360/107/107
f 336/154/154 323/108/108 335/152/152
f 329/198/198 335/152/152 323/108/108
f 335/152/152 329/198/198 332/199/199
f 440/200/200 358/201/201 352/202/202
f 358/201/201 440/200/200 356/203/203
f 387/204/204 356/203/203 440/200/200
f 356/203/203 387/204/204 362/205/205
f 388/206/206 362/205/205 387/204/204
f 362/205/205 388/206/206 364/207/207
f 391/208/208 364/207/207 388/206/206
f 364/207/207 391/208/208 18/209/209
f 275/210/210 18/209/209 391/208/208
f 18/209/209 275/210/210 277/211/211
f 67/212/212 65/90/90 131/213/213
f 65/90/90 67/212/212 122/214/214
f 111/215/215 122/214/214 67/212/212
f 122/214/214 111/215/215 287/216/216
f 104/217/217 287/216/216 111/215/215
f 287/216/216 104/217/217 102/218/218
f 88/219/219 102/218/218 104/217/217
f 102/218/218 88/219/219 136/220/220
f 84/221/221 136/220/220 88/219/219
f 173/222/222 187/140/140 175/136/136
f 187/140/140 173/222/222 178/223/223
f 169/224/224 178/223/223 173/222/222
f 178/223/223 169/224/224 133/225/225
f 167/226/226 133/225/225 169/224/224
f 133/225/225 167/226/226 103/227/227
f 108/228/228 103/227/227 167/226/226
f 103/227/227 108/228/228 105/229/229
f 110/230/230 105/229/229 108/228/228
f 447/1/1 445/24/24 448/26/26
f 445/24/24 447/1/1 444/231/231
f 9/3/3 444/231/231 447/1/1
f 444/231/231 9/3/3 460/22/22
f 19/232/232 460/22/22 9/3/3
f 460/22/22 19/232/232 21/20/20
f 25/233/233 21/20/20 19/232/232
f 21/20/20 25/233/233 27/18/18
f 36/16/16 27/18/18 25/233/233
f 434/234/234 439/235/235 401/236/236
f 439/235/235 434/234/234 411/237/237
f 409/238/238 411/237/237 434/234/234
f 411/237/237 409/238/238 406/239/239
f 407/240/240 406/239/239 409/238/238
f 406/239/239 407/240/240 30/241/241
f 34/242/242 30/241/241 407/240/240
f 30/241/241 34/242/242 268/243/243
f 423/121/121 417/60/60 422/58/58
f 417/60/60 423/121/121 418/244/244
f 424/245/245 418/244/244 423/121/121
f 418/244/244 424/245/245 420/246/246
f 435/247/247 420/246/246 424/245/245
f 420/246/246 435/247/247 432/248/248
f 433/249/249 432/248/248 435/247/247
f 432/248/248 433/249/249 403/250/250
f 9/3/3 25/233/233 19/232/232
f 25/233/233 9/3/3 31/251/251
f 7/252/252 31/251/251 9/3/3
f 31/251/251 7/252/252 2/253/253
f 450/2/2 2/253/253 7/252/252
f 2/253/253 450/2/2 454/254/254
f 451/4/4 454/254/254 450/2/2
f 454/254/254 451/4/4 455/6/6
f 113/255/255 67/212/212 130/256/256
f 67/212/212 113/255/255 111/215/215
f 109/257/257 111/215/215 113/255/255
f 111/215/215 109/257/257 87/258/258
f 63/259/259 87/258/258 109/257/257
f 87/258/258 63/259/259 104/217/217
f 100/260/260 104/217/217 63/259/259
f 104/217/217 100/260/260 94/261/261
f 271/115/115 35/262/262 213/117/117
f 35/262/262 271/115/115 269/263/263
f 215/113/113 269/263/263 271/115/115
f 269/263/263 215/113/113 209/264/264
f 237/111/111 209/264/264 215/113/113
f 209/264/264 237/111/111 234/265/265
f 217/109/109 234/265/265 237/111/111
f 234/265/265 217/109/109 177/110/110
f 249/266/266 284/86/86 306/88/88
f 284/86/86 249/266/266 286/84/84
f 288/267/267 286/84/84 249/266/266
f 286/84/84 288/267/267 298/82/82
f 294/268/268 298/82/82 288/267/267
f 298/82/82 294/268/268 296/269/269
f 251/270/270 296/269/269 294/268/268
f 296/269/269 251/270/270 267/271/271
f 366/272/272 365/273/273 368/274/274
f 365/273/273 366/272/272 442/275/275
f 48/276/276 442/275/275 366/272/272
f 442/275/275 48/276/276 228/277/277
f 230/278/278 228/277/277 48/276/276
f 228/277/277 230/278/278 221/279/279
f 152/190/190 221/279/279 230/278/278
f 221/279/279 152/190/190 285/280/280
f 82/281/281 109/257/257 113/255/255
f 109/257/257 82/281/281 289/282/282
f 77/283/283 289/282/282 82/281/281
f 289/282/282 77/283/283 291/284/284
f 120/285/285 291/284/284 77/283/283
f 291/284/284 120/285/285 56/286/286
f 58/287/287 56/286/286 120/285/285
f 446/39/39 68/25/25 70/23/23
f 68/25/25 446/39/39 66/27/27
f 449/288/288 66/27/27 446/39/39
f 66/27/27 449/288/288 453/29/29
f 14/35/35 453/29/29 449/288/288
f 453/29/29 14/35/35 457/31/31
f 16/33/33 457/31/31 14/35/35
f 322/289/289 256/76/76 325/290/290
f 256/76/76 322/289/289 314/74/74
f 320/291/291 314/74/74 322/289/289
f 314/74/74 320/291/291 201/72/72
f 210/292/292 201/72/72 320/291/291
f 201/72/72 210/292/292 212/70/70
f 218/293/293 212/70/70 210/292/292
f 278/87/87 272/294/294 274/89/89
f 272/294/294 278/87/87 276/295/295
f 280/296/296 276/295/295 278/87/87
f 276/295/295 280/296/296 233/297/297
f 227/298/298 233/297/297 280/296/296
f 233/297/297 227/298/298 229/299/299
f 225/300/300 229/299/299 227/298/298
f 72/301/301 172/184/184 150/186/186
f 172/184/184 72/301/301 295/302/302
f 293/303/303 295/302/302 72/301/301
f 295/302/302 293/303/303 28/304/304
f 396/305/305 28/304/304 293/303/303
f 28/304/304 396/305/305 431/306/306
f 295/302/302 174/182/182 172/184/184
f 174/182/182 295/302/302 164/307/307
f 28/304/304 164/307/307 295/302/302
f 164/307/307 28/304/304 32/308/308
f 431/306/306 32/308/308 28/304/304
f 32/308/308 431/306/306 411/237/237
f 259/309/309 88/219/219 12/310/310
f 88/219/219 259/309/309 84/221/221
f 86/98/98 84/221/221 259/309/309
f 84/221/221 86/98/98 136/220/220
f 134/96/96 136/220/220 86/98/98
f 136/220/220 134/96/96 226/94/94
f 319/104/104 323/108/108 317/106/106
f 323/108/108 319/104/104 12/310/310
f 10/102/102 12/310/310 319/104/104
f 12/310/310 10/102/102 259/309/309
f 261/100/100 259/309/309 10/102/102
f 259/309/309 261/100/100 86/98/98
f 248/45/45 253/311/311 145/43/43
f 253/311/311 248/45/45 255/135/135
f 241/47/47 255/135/135 248/45/45
f 255/135/135 241/47/47 257/134/134
f 170/49/49 257/134/134 241/47/47
f 257/134/134 170/49/49 184/51/51
f 165/312/312 167/226/226 169/224/224
f 167/226/226 165/312/312 163/313/313
f 159/314/314 163/313/313 165/312/312
f 163/313/313 159/314/314 114/315/315
f 116/316/316 114/315/315 159/314/314
f 114/315/315 116/316/316 112/317/317
f 91/318/318 13/319/319 89/320/320
f 13/319/319 91/318/318 8/321/321
f 6/322/322 8/321/321 91/318/318
f 8/321/321 6/322/322 326/323/323
f 333/324/324 326/323/323 6/322/322
f 326/323/323 333/324/324 331/325/325
f 380/326/326 384/327/327 350/328/328
f 384/327/327 380/326/326 400/329/329
f 390/68/68 400/329/329 380/326/326
f 400/329/329 390/68/68 441/330/330
f 437/66/66 441/330/330 390/68/68
f 441/330/330 437/66/66 416/64/64
f 442/275/275 370/331/331 365/273/273
f 370/331/331 442/275/275 305/332/332
f 228/277/277 305/332/332 442/275/275
f 305/332/332 228/277/277 219/333/333
f 221/279/279 219/333/333 228/277/277
f 219/333/333 221/279/279 69/334/334
f 397/335/335 367/336/336 368/274/274
f 367/336/336 397/335/335 396/305/305
f 401/236/236 396/305/305 397/335/335
f 396/305/305 401/236/236 431/306/306
f 439/235/235 431/306/306 401/236/236
f 431/306/306 439/235/235 411/237/237
f 435/247/247 410/337/337 433/249/249
f 410/337/337 435/247/247 412/338/338
f 424/245/245 412/338/338 435/247/247
f 412/338/338 424/245/245 425/339/339
f 423/121/121 425/339/339 424/245/245
f 425/339/339 423/121/121 426/119/119
f 400/329/329 398/340/340 384/327/327
f 398/340/340 400/329/329 443/341/341
f 441/330/330 443/341/341 400/329/329
f 443/341/341 441/330/330 414/342/342
f 416/64/64 414/342/342 441/330/330
f 414/342/342 416/64/64 415/62/62
f 192/343/343 162/129/129 200/131/131
f 162/129/129 192/343/343 43/127/127
f 45/344/344 43/127/127 192/343/343
f 43/127/127 45/344/344 427/345/345
f 421/59/59 427/345/345 45/344/344
f 427/345/345 421/59/59 429/61/61
f 312/346/346 344/163/163 342/165/165
f 344/163/163 312/346/346 307/347/347
f 309/348/348 307/347/347 312/346/346
f 307/347/347 309/348/348 381/349/349
f 389/350/350 381/349/349 309/348/348
f 381/349/349 389/350/350 379/351/351
f 307/347/347 377/161/161 344/163/163
f 377/161/161 307/347/347 382/352/352
f 381/349/349 382/352/352 307/347/347
f 382/352/352 381/349/349 339/157/157
f 338/353/353 339/157/157 381/349/349
f 339/157/157 338/353/353 337/155/155
f 135/138/138 173/222/222 175/136/136
f 173/222/222 135/138/138 171/354/354
f 195/355/355 171/354/354 135/138/138
f 171/354/354 195/355/355 165/312/312
f 161/356/356 165/312/312 195/355/355
f 165/312/312 161/356/356 159/314/314
f 419/357/357 414/342/342 415/62/62
f 414/342/342 419/357/357 443/341/341
f 436/358/358 443/341/341 419/357/357
f 443/341/341 436/358/358 398/340/340
f 405/359/359 398/340/340 436/358/358
f 164/307/307 232/180/180 174/182/182
f 232/180/180 164/307/307 211/181/181
f 32/308/308 211/181/181 164/307/307
f 211/181/181 32/308/308 266/360/360
f 30/241/241 266/360/360 32/308/308
f 46/361/361 55/12/12 49/14/14
f 55/12/12 46/361/361 44/362/362
f 33/363/363 44/362/362 46/361/361
f 44/362/362 33/363/363 31/251/251
f 25/233/233 31/251/251 33/363/363
f 199/364/364 207/144/144 189/142/142
f 207/144/144 199/364/364 140/146/146
f 191/365/365 140/146/146 199/364/364
f 140/146/146 191/365/365 193/148/148
f 153/150/150 193/148/148 191/365/365
f 282/85/85 280/296/296 278/87/87
f 280/296/296 282/85/85 247/366/366
f 290/83/83 247/366/366 282/85/85
f 247/366/366 290/83/83 238/367/367
f 292/368/368 238/367/367 290/83/83
f 305/332/332 369/369/369 370/331/331
f 369/369/369 305/332/332 440/200/200
f 303/370/370 440/200/200 305/332/332
f 440/200/200 303/370/370 387/204/204
f 388/206/206 387/204/204 303/370/370
f 303/370/370 391/208/208 388/206/206
f 391/208/208 303/370/370 20/371/371
f 22/372/372 20/371/371 303/370/370
f 20/371/371 22/372/372 69/334/334
f 219/333/333 69/334/334 22/372/372
f 315/105/105 361/373/373 363/374/374
f 361/373/373 315/105/105 354/375/375
f 360/107/107 354/375/375 315/105/105
f 354/375/375 360/107/107 353/197/197
f 325/290/290 296/269/269 267/271/271
f 296/269/269 325/290/290 316/376/376
f 256/76/76 316/376/376 325/290/290
f 316/376/376 256/76/76 318/78/78
f 412/338/338 408/377/377 410/337/337
f 408/377/377 412/338/338 413/378/378
f 425/339/339 413/378/378 412/338/338
f 413/378/378 425/339/339 426/119/119
f 420/246/246 419/357/357 415/62/62
f 419/357/357 420/246/246 436/358/358
f 432/248/248 436/358/358 420/246/246
f 436/358/358 432/248/248 403/250/250
f 340/158/158 385/379/379 376/160/160
f 385/379/379 340/158/158 386/380/380
f 332/199/199 386/380/380 340/158/158
f 386/380/380 332/199/199 334/381/381
f 204/54/54 206/114/114 273/116/116
f 206/114/114 204/54/54 239/112/112
f 188/52/52 239/112/112 204/54/54
f 239/112/112 188/52/52 166/50/50
f 97/382/382 3/383/383 5/384/384
f 3/383/383 97/382/382 194/385/385
f 100/260/260 194/385/385 97/382/382
f 194/385/385 100/260/260 63/259/259
f 197/386/386 189/142/142 187/140/140
f 189/142/142 197/386/386 199/364/364
f 126/387/387 199/364/364 197/386/386
f 199/364/364 126/387/387 157/388/388
f 458/8/8 454/254/254 455/6/6
f 454/254/254 458/8/8 2/253/253
f 4/10/10 2/253/253 458/8/8
f 2/253/253 4/10/10 55/12/12
f 190/389/389 192/343/343 200/131/131
f 192/343/343 190/389/389 45/344/344
f 37/57/57 45/344/344 190/389/389
f 45/344/344 37/57/57 421/59/59
f 283/390/390 221/279/279 285/280/280
f 221/279/279 283/390/390 69/334/334
f 281/391/391 69/334/334 283/390/390
f 69/334/334 281/391/391 279/392/392
f 277/211/211 69/334/334 279/392/392
f 69/334/334 277/211/211 20/371/371
f 275/210/210 20/371/371 277/211/211
f 20/371/371 275/210/210 391/208/208
f 313/393/393 392/65/65 310/67/67
f 392/65/65 313/393/393 438/122/122
f 343/394/394 438/122/122 313/393/393
f 438/122/122 343/394/394 372/395/395
f 186/53/53 200/131/131 184/51/51
f 200/131/131 186/53/53 190/389/389
f 202/55/55 190/389/389 186/53/53
f 190/389/389 202/55/55 37/57/57
f 430/123/123 429/61/61 428/63/63
f 429/61/61 430/123/123 395/396/396
f 394/125/125 395/396/396 430/123/123
f 395/396/396 394/125/125 43/127/127
f 337/155/155 301/196/196 359/153/153
f 301/196/196 337/155/155 299/194/194
f 338/353/353 299/194/194 337/155/155
f 299/194/194 338/353/353 348/397/397
f 42/174/174 462/34/34 463/36/36
f 462/34/34 42/174/174 53/398/398
f 51/176/176 53/398/398 42/174/174
f 53/398/398 51/176/176 57/177/177
f 196/399/399 107/400/400 118/401/401
f 107/400/400 196/399/399 156/402/402
f 160/130/130 156/402/402 196/399/399
f 156/402/402 160/130/130 158/128/128
f 38/175/175 78/17/17 81/15/15
f 78/17/17 38/175/175 76/19/19
f 29/173/173 76/19/19 38/175/175
f 76/19/19 29/173/173 23/41/41
f 144/403/403 113/255/255 128/404/404
f 113/255/255 144/403/403 82/281/281
f 252/405/405 82/281/281 144/403/403
f 82/281/281 252/405/405 79/406/406
f 52/407/407 291/284/284 56/286/286
f 291/284/284 52/407/407 115/408/408
f 63/259/259 115/408/408 52/407/407
f 115/408/408 63/259/259 109/257/257
f 196/399/399 198/132/132 160/130/130
f 198/132/132 196/399/399 154/409/409
f 75/410/410 154/409/409 196/399/399
f 154/409/409 75/410/410 80/411/411
f 125/192/192 285/280/280 152/190/190
f 285/280/280 125/192/192 283/390/390
f 224/412/412 283/390/390 125/192/192
f 283/390/390 224/412/412 139/413/413
f 154/409/409 182/133/133 198/132/132
f 182/133/133 154/409/409 250/414/414
f 80/411/411 250/414/414 154/409/409
f 250/414/414 80/411/411 253/311/311
f 156/402/402 61/415/415 107/400/400
f 61/415/415 156/402/402 24/416/416
f 26/126/126 24/416/416 156/402/402
f 24/416/416 26/126/126 393/124/124
f 15/101/101 17/417/417 263/99/99
f 17/417/417 15/101/101 363/374/374
f 321/103/103 363/374/374 15/101/101
f 363/374/374 321/103/103 315/105/105
f 222/418/418 242/419/419 262/420/420
f 242/419/419 222/418/418 238/367/367
f 247/366/366 238/367/367 222/418/418
f 300/80/80 316/376/376 318/78/78
f 316/376/376 300/80/80 296/269/269
f 298/82/82 296/269/269 300/80/80
f 222/418/418 280/296/296 247/366/366
f 280/296/296 222/418/418 227/298/298
f 225/300/300 227/298/298 222/418/418
f 24/416/416 1/421/421 61/415/415
f 1/421/421 24/416/416 374/422/422
f 393/124/124 374/422/422 24/416/416
f 185/141/141 137/137/137 183/139/139
f 137/137/137 185/141/141 155/423/423
f 216/167/167 155/423/423 185/141/141
f 119/424/424 103/227/227 123/425/425
f 103/227/227 119/424/424 133/225/225
f 178/223/223 133/225/225 119/424/424
f 326/323/323 13/319/319 8/321/321
f 13/319/319 326/323/323 324/426/426
f 328/427/427 324/426/426 326/323/323
f 413/378/378 35/262/262 408/377/377
f 35/262/262 413/378/378 213/117/117
f 426/119/119 213/117/117 413/378/378
f 41/120/120 273/116/116 50/118/118
f 273/116/116 41/120/120 204/54/54
f 39/56/56 204/54/54 41/120/120
f 36/16/16 46/361/361 49/14/14
f 46/361/361 36/16/16 33/363/363
f 25/233/233 33/363/363 36/16/16
f 230/278/278 243/188/188 152/190/190
f 243/188/188 230/278/278 71/428/428
f 48/276/276 71/428/428 230/278/278
f 293/303/303 367/336/336 396/305/305
f 367/336/336 293/303/303 47/429/429
f 72/301/301 47/429/429 293/303/303
f 2/253/253 44/362/362 31/251/251
f 44/362/362 2/253/253 55/12/12
f 178/223/223 197/386/386 187/140/140
f 197/386/386 178/223/223 121/430/430
f 452/5/5 448/26/26 64/28/28
f 448/26/26 452/5/5 447/1/1
f 157/388/388 191/365/365 199/364/364
f 191/365/365 157/388/388 153/150/150
f 456/7/7 64/28/28 62/30/30
f 64/28/28 456/7/7 452/5/5
f 59/9/9 62/30/30 459/32/32
f 62/30/30 59/9/9 456/7/7
f 461/178/178 459/32/32 462/34/34
f 459/32/32 461/178/178 59/9/9
f 57/177/177 462/34/34 53/398/398
f 462/34/34 57/177/177 461/178/178
f 395/396/396 427/345/345 429/61/61
f 427/345/345 395/396/396 43/127/127
f 40/172/172 463/36/36 464/38/38
f 463/36/36 40/172/172 42/174/174
f 11/37/37 449/288/288 446/39/39
f 449/288/288 11/37/37 14/35/35
f 279/392/392 142/431/431 264/432/432
f 142/431/431 279/392/392 281/391/391
f 139/413/413 281/391/391 283/390/390
f 281/391/391 139/413/413 142/431/431
f 208/433/433 211/181/181 266/360/360
f 211/181/181 208/433/433 235/179/179
f 268/243/243 266/360/360 30/241/241
f 266/360/360 268/243/243 208/433/433
f 402/434/434 401/236/236 397/335/335
f 401/236/236 402/434/434 434/234/234
f 404/435/435 397/335/335 368/274/274
f 397/335/335 404/435/435 402/434/434
f 399/436/436 368/274/274 365/273/273
f 368/274/274 399/436/436 404/435/435
f 250/414/414 255/135/135 182/133/133
f 255/135/135 250/414/414 253/311/311
f 277/211/211 264/432/432 18/209/209
f 264/432/432 277/211/211 279/392/392
f 383/437/437 365/273/273 370/331/331
f 365/273/273 383/437/437 399/436/436
f 347/438/438 370/331/331 352/202/202
f 370/331/331 347/438/438 383/437/437
f 369/369/369 352/202/202 370/331/331
f 352/202/202 369/369/369 440/200/200
f 93/439/439 91/318/318 89/320/320
f 91/318/318 93/439/439 99/440/440
f 418/244/244 415/62/62 417/60/60
f 415/62/62 418/244/244 420/246/246
f 54/441/441 63/259/259 52/407/407
f 63/259/259 54/441/441 194/385/385
f 334/381/381 3/383/383 386/380/380
f 3/383/383 334/381/381 5/384/384
f 355/442/442 354/375/375 353/197/197
f 354/375/375 355/442/442 361/373/373
f 289/282/282 115/408/408 109/257/257
f 115/408/408 289/282/282 291/284/284
f 382/352/352 341/159/159 377/161/161
f 341/159/159 382/352/352 339/157/157
f 357/443/443 353/197/197 297/193/193
f 353/197/197 357/443/443 355/442/442
f 219/333/333 303/370/370 305/332/332
f 303/370/370 219/333/333 22/372/372
f 406/239/239 32/308/308 411/237/237
f 32/308/308 406/239/239 30/241/241
f 335/152/152 340/158/158 90/156/156
f 340/158/158 335/152/152 332/199/199
f 372/395/395 393/124/124 438/122/122
f 393/124/124 372/395/395 374/422/422
f 117/444/444 58/287/287 120/285/285
f 58/287/287 117/444/444 106/445/445
f 74/446/446 120/285/285 77/283/283
f 120/285/285 74/446/446 117/444/444
f 79/406/406 77/283/283 82/281/281
f 77/283/283 79/406/406 74/446/446
f 287/216/216 136/220/220 226/94/94
f 136/220/220 287/216/216 102/218/218
f 122/214/214 226/94/94 65/90/90
f 226/94/94 122/214/214 287/216/216
f 180/447/447 168/48/48 147/46/46
f 168/48/48 180/447/447 177/110/110
f 379/351/351 338/353/353 381/349/349
f 338/353/353 379/351/351 346/448/448
f 351/449/449 297/193/193 345/450/450
f 297/193/193 351/449/449 357/443/443
f 212/70/70 149/451/451 214/71/71
f 149/451/451 212/70/70 218/293/293
f 320/291/291 260/452/452 327/453/453
f 260/452/452 320/291/291 322/289/289
f 181/454/454 178/223/223 119/424/424
f 178/223/223 181/454/454 121/430/430
f 171/354/354 169/224/224 173/222/222
f 169/224/224 171/354/354 165/312/312
f 151/455/455 103/227/227 105/229/229
f 103/227/227 151/455/455 123/425/425
f 240/456/456 290/83/83 308/81/81
f 290/83/83 240/456/456 292/368/368
f 244/171/171 308/81/81 311/79/79
f 308/81/81 244/171/171 240/456/456
f 272/294/294 233/297/297 236/457/457
f 233/297/297 272/294/294 276/295/295
f 265/458/458 98/149/149 95/151/151
f 98/149/149 265/458/458 304/168/168
f 110/230/230 114/315/315 112/317/317
f 114/315/315 110/230/230 108/228/228
f 231/459/459 233/297/297 229/299/299
f 233/297/297 231/459/459 236/457/457
f 327/453/453 210/292/292 320/291/291
f 210/292/292 327/453/453 101/460/460
f 251/270/270 288/267/267 249/266/266
f 288/267/267 251/270/270 294/268/268
f 302/169/169 265/458/458 270/170/170
f 265/458/458 302/169/169 304/168/168
f 205/143/143 216/167/167 185/141/141
f 216/167/167 205/143/143 143/145/145
f 114/315/315 167/226/226 163/313/313
f 167/226/226 114/315/315 108/228/228
f 96/461/461 91/318/318 99/440/440
f 91/318/318 96/461/461 6/322/322
f 220/462/462 216/167/167 149/451/451
f 450/2/2 7/252/252 9/3/3
f 445/24/24 444/231/231 460/22/22
f 155/423/423 216/167/167 220/462/462
f 267/271/271 330/463/463 325/290/290
f 330/463/463 260/452/452 325/290/290
f 325/290/290 260/452/452 322/289/289
f 216/167/167 214/71/71 149/451/451
f 371/166/166 375/164/164 373/464/464
f 197/386/386 121/430/430 126/387/387
f 104/217/217 111/215/215 87/258/258
f 106/445/445 60/465/465 58/287/287
f 243/188/188 71/428/428 150/186/186
f 75/410/410 196/399/399 118/401/401
f 210/292/292 101/460/460 218/293/293
f 104/217/217 94/261/261 88/219/219
f 156/402/402 158/128/128 26/126/126
f 225/300/300 222/418/418 262/420/420
f 326/323/323 331/325/325 328/427/427
f 403/250/250 405/359/359 436/358/358
