<?xml version="1.0"?>
<COLLADA xmlns="http://www.collada.org/2005/11/COLLADASchema" version="1.4.1">
    <asset>
        <contributor>
            <authoring_tool>J3D Ripoff Exporter</authoring_tool>
        </contributor>
        <created>2024-08-02T13:56:41.422Z</created>
        <modified>2024-08-02T13:56:41.422Z</modified>
		<unit meter="0.01" name="centimeter" ></unit>
        <up_axis>Y_UP</up_axis>
    </asset>
    <library_images>
        <image id="tex0">
            <init_from>donkey_all.png</init_from>
        </image>
    </library_images>
    <library_effects>
        <effect id="effect0">
            <profile_COMMON>
                <newparam sid="surface0">
                    <surface type="2D">
                        <init_from>tex0</init_from>
                    </surface>
                </newparam>
                <newparam sid="sampler0">
                    <sampler2D>
                        <source>surface0</source>
                    </sampler2D>
                </newparam>
                <technique sid="COMMON">
                    <blinn>
                        <diffuse>
                            <texture texture="sampler0" texcoord="UVSET0"></texture>
                        </diffuse>
                    </blinn>
                </technique>
            </profile_COMMON>
        </effect>
    </library_effects>
    <library_materials>
        <material id="mat0" name="Dummy">
            <instance_effect url="#effect0"></instance_effect>
        </material>
    </library_materials>
    <library_geometries>
        <geometry id="mesh0">
            <mesh>
                <source id="points0">
                    <float_array id="pointarray0" count="1257">7.2421875 11.74609375 25.87890625 5.34375 11.10546875 19.43359375 5.62890625 19.64453125 27.37890625 1.83984375 20.24609375 17.47265625 10.515625 30.72265625 23.953125 7.98828125 32.26171875 15.484375 15.7734375 40.56640625 14.7734375 13.2578125 41.05859375 0 23.3515625 44.9140625 13.39453125 22.98828125 46.21875 0 34.30078125 45.01953125 11.4140625 34.984375 46.15625 0 44.6328125 41.96484375 10.53125 47.6015625 41.65625 0 54.53515625 35.92578125 11.38671875 58.11328125 36.01953125 0 62.53125 31.125 5.265625 63.09375 31.265625 0 66.90625 29.234375 0 62.53125 31.1328125 -5.265625 65.921875 29.1640625 -5.77734375 60.015625 30.67578125 -11.7734375 63.0078125 28.7890625 -12.2890625 56.0703125 28.125 -19.25 55.41015625 24.56640625 -19.3671875 48.30859375 23.984375 -24.1328125 36.37109375 -25.9609375 -7.83984375 39.484375 -24.90625 -4.77734375 42.53515625 -23.62890625 -5.7890625 43.4140625 -22.72265625 0 44.8203125 -18.9453125 0 42.53515625 -23.62890625 5.7890625 44.171875 -19.73046875 6.8359375 39.3671875 -25.7734375 10.390625 41.703125 -21.4375 12.26953125 37.8125 -23.55078125 16.33984375 36.59375 -18.5546875 16.3359375 33.90234375 -25.078125 19.13671875 32.5625 -19.8671875 19.5078125 30.390625 -25.59765625 21.109375 27.75390625 -20.34765625 21.08984375 24.1328125 -24.94921875 23.19140625 27.0078125 -15.9140625 23.296875 20.78125 -20.75 23.27734375 23.53125 -14.609375 24.1796875 20.9453125 -18.265625 22.8203125 22.41796875 -13.84765625 22.90625 28.87109375 17.45703125 -31.11328125 29.72265625 11.3046875 -29.88671875 32.04296875 14.02734375 -29.84765625 34.5234375 9.26171875 -27.46875 37.08984375 12.83984375 -27.9296875 43.75 11.2421875 -24.44140625 46.6171875 14.73046875 -27.65234375 50.41015625 9.64453125 -20.953125 54.69921875 12.66015625 -20.70703125 57.79296875 7.52734375 -11.96875 61.828125 10.8046875 -12.61328125 64.41796875 10.328125 -6.3046875 64.3984375 11.921875 -13.3359375 67.1484375 11.41796875 -6.66796875 67.64453125 13.6484375 -6.68359375 68.87890625 13.4375 0 18.72265625 -25.2890625 -21.1875 20.6015625 -28.51171875 -17.38671875 24.08984375 -29.17578125 -20.84375 27.78515625 -29.80859375 -18.8203125 30.390625 -25.59765625 -21.109375 32.41796875 -29.2890625 -16.41796875 33.90234375 -25.078125 -19.13671875 35.6484375 -27.8203125 -13.7109375 37.8125 -23.55078125 -16.33984375 39.3671875 -25.7734375 -10.390625 41.703125 -21.4375 -12.26953125 44.171875 -19.73046875 -6.8359375 42.94921875 -15.0703125 -6.60546875 43.50390625 -14.33203125 0 39.7421875 -13.96875 -5.62890625 40.7578125 -13.21875 0 60.5859375 6.31640625 0 65.5 10.1796875 0 68.3984375 11.2421875 0 67.1484375 11.41796875 6.66796875 67.64453125 13.6484375 6.68359375 64.3984375 11.921875 13.3359375 64.90234375 14.19140625 13.3671875 56.27734375 13.96875 21.34375 56.58984375 16.078125 21.58984375 46.6171875 14.73046875 27.65625 47.109375 16.53125 27.5859375 38.38671875 15.48828125 30.453125 39.05859375 16.98828125 30.0234375 28.87109375 17.45703125 31.11328125 28.83203125 19.5390625 -30.7578125 29.55859375 19.68359375 -28.78125 36.484375 21.5078125 -28.32421875 36.109375 21.0625 -26.44921875 47.6015625 23.51953125 -22.4375 54.3359375 24.2578125 -17.99609375 62.3203125 25.1796875 -12.24609375 61.0703125 25 -11.578125 63.55859375 25.39453125 -5.703125 52 32.21875 0 64.4375 25.54296875 0 63.55859375 25.39453125 5.703125 64.953125 25.58984375 5.91015625 62.3203125 25.1796875 12.2578125 26.796875 16.76953125 31.87109375 28.52734375 18.7109375 30.98046875 26.5234375 18.796875 31.9375 28.83984375 19.52734375 30.7578125 26.9921875 20.24609375 31.59765625 35.75 26.1015625 27.66796875 25 20.921875 31.51171875 31.84765625 32.60546875 28.3515625 21.8203125 23.80078125 32.47265625 16.578125 27.53125 30.9453125 11.4921875 19.7890625 32.7265625 11.390625 13.4375 31.7265625 32.04296875 14.02734375 29.84765625 37.08984375 12.83984375 27.93359375 34.5234375 9.26171875 27.46875 43.75 11.2421875 24.4453125 45.6484375 4.62109375 20.77734375 50.41015625 9.64453125 20.953125 57.79296875 7.52734375 11.96875 54.69921875 12.66015625 20.70703125 61.828125 10.8046875 12.61328125 64.41796875 10.328125 6.3046875 64.90234375 14.19140625 -13.3671875 60.7890625 14.00390625 -13.421875 64.75 13.23046875 -6.453125 45.21875 6.875 -13.6171875 56.38671875 7.41015625 0 44.703125 4.234375 0 45.21875 6.875 13.6171875 24.671875 5.1640625 0 26.81640625 7.74609375 15.0234375 17.34375 18 0 21.7265625 18.28125 15.4921875 24.57421875 28.7578125 0 27.8046875 25.86328125 16.4296875 31.99609375 -27.41015625 -11.078125 42.94921875 -15.0703125 6.60546875 40.4453125 -16.70703125 12.19140625 37.61328125 -15.234375 10.7109375 34.08203125 -17.41796875 14.46875 6.55859375 10.53125 9.3125 1.328125 20.54296875 0 6.8046875 33.10546875 0 1.83984375 20.24609375 -17.47265625 7.98828125 32.26171875 -15.484375 10.515625 30.72265625 -23.953125 15.7734375 40.56640625 -14.7734375 24.6484375 38.46484375 -23.6953125 23.3515625 44.9140625 -13.39453125 34.30078125 45.01953125 -11.4140625 24.6484375 38.46484375 23.6953125 38.4140625 40.09765625 20.37109375 43.34375 35.46875 22.2578125 54.26953125 30.30078125 17.29296875 60.015625 30.67578125 11.78515625 63.0078125 28.7890625 12.3046875 65.921875 29.16796875 5.77734375 65.80078125 25.77734375 0 29.72265625 11.3046875 29.88671875 27.54296875 6.62109375 28.55078125 34.56640625 2.05859375 22.43359375 25.92578125 4.36328125 25.4921875 24.78515625 2.875 18.97265625 20.90234375 6.01953125 26.30859375 15.05859375 4.87109375 21.12109375 14.03125 8.1953125 27.12890625 10.06640625 6.9609375 19.828125 48.7578125 27.5234375 -24.1875 36.265625 23.44140625 -28.55859375 47.3125 29.75 -22.92578125 35.75 26.1015625 -27.66796875 31.84765625 32.60546875 -28.3515625 25 20.921875 -31.51171875 21.8203125 23.80078125 -32.47265625 17.71484375 19.6640625 -33.359375 11.4921875 19.7890625 -32.7265625 17.5859375 14.96484375 -33.3984375 11.390625 13.4375 -31.7265625 46.65625 15.93359375 24.234375 53.51171875 15.22265625 19.4296875 60.23828125 13.8125 13.42578125 64.74609375 13.23046875 6.44921875 65.796875 13.04296875 0 39.05859375 16.98828125 -30.0234375 29.42578125 17.69140625 -29.39453125 37.80078125 16.7265625 -27.703125 26.81640625 7.74609375 -15.0234375 46.71484375 16.2109375 -24.66015625 53.91015625 15.52734375 -19.7109375 56.58984375 16.078125 -21.58984375 24.1328125 -24.94921875 -23.19140625 27.75390625 -20.34765625 -21.08984375 27.0078125 -15.9140625 -23.296875 27.94921875 -15.51953125 -21.06640625 28.7890625 -10.0859375 -22.046875 31.5625 -6.796875 -18.76953125 31.42578125 -5.703125 -20.25 36.26953125 -1.07421875 -15.3828125 34.9609375 -0.1484375 -16.8984375 5.62890625 19.64453125 -27.37890625 16.578125 27.53125 -30.9453125 38.4140625 40.09765625 -20.37109375 43.3359375 35.49609375 -22.2578125 54.53515625 35.92578125 -11.38671875 54.30859375 30.16796875 -17.3046875 26.9921875 20.24609375 -31.59765625 26.5234375 18.796875 -31.9375 22.0703125 19.3046875 -32.25 26.796875 16.76953125 -31.87109375 22.3828125 15.859375 -32.30078125 24.37890625 12.171875 -31.7265625 27.54296875 6.62109375 -28.55078125 22.59375 8.70703125 -30.23828125 25.92578125 4.36328125 -25.4921875 20.90234375 6.01953125 -26.30859375 24.78515625 2.875 -18.97265625 15.05859375 4.87109375 -21.12109375 18.72265625 -25.2890625 21.1875 24.08984375 -29.17578125 20.84375 27.78515625 -29.80859375 18.8203125 32.41796875 -29.2890625 16.41796875 20.6015625 -28.51171875 17.38671875 25.83984375 -27.34765625 13.98828125 36.484375 21.5078125 28.32421875 48.30859375 23.984375 24.1328125 36.109375 21.0625 26.44921875 47.6015625 23.51953125 22.4375 40.91015625 31.68359375 13.86328125 54.3359375 24.2578125 17.99609375 61.0703125 25 11.59375 55.41015625 24.56640625 19.3671875 24.9296875 -8.30078125 21.6796875 26.28515625 -8.59375 22.9765625 28.7890625 -10.0859375 22.046875 29.56640625 -4.47265625 20.83203125 31.42578125 -5.703125 20.25 34.9609375 -0.1484375 16.8984375 36.26953125 -1.07421875 15.3828125 44.1875 -3.6484375 12.37109375 38.80859375 -2.796875 9.390625 44.68359375 -6.20703125 5.59765625 40.45703125 -5.87890625 0 44.76953125 -7.0703125 0 44.68359375 -6.20703125 -5.59765625 29.55859375 19.68359375 28.78125 40.296875 33.87109375 0 40.91015625 31.68359375 -13.86328125 31.99609375 -27.41015625 11.078125 36.37109375 -25.9609375 7.83984375 39.484375 -24.90625 4.77734375 39.9375 -24.14453125 0 38.35546875 -24.03515625 -4.27734375 4.66015625 12.00390625 0 6.55859375 10.53125 -9.3125 5.34375 11.10546875 -19.43359375 7.2421875 11.74609375 -25.87890625 18.3125 10.203125 -31.92578125 14.03125 8.1953125 -27.12890625 10.06640625 6.9609375 -19.828125 17.5859375 14.96484375 33.3984375 17.71484375 19.6640625 33.359375 22.3828125 15.859375 32.30078125 22.0703125 19.3046875 32.25 23.53125 -14.609375 -24.1796875 26.28515625 -8.59375 -22.9765625 24.9296875 -8.30078125 -21.6796875 29.56640625 -4.47265625 -20.83203125 27.7734375 -4.3203125 -19.46875 32.21484375 -0.0703125 -14.72265625 32.80859375 10.20703125 -25.68359375 45.578125 9.25 -22.04296875 32.984375 18.5 -25.88671875 46.78125 18.5 -22.24609375 32.859375 19.67578125 -25.0078125 46.28515625 19.67578125 -21.4375 32.48828125 19.67578125 -22.3671875 44.79296875 19.67578125 -19.01171875 56.0703125 28.125 19.25 47.3125 29.75 22.92578125 32.3125 10.2734375 22.1640625 32.48828125 19.67578125 22.3671875 25.90625 10.7109375 23.14453125 25.91015625 19.67578125 23.34765625 25.609375 18.5 27.2421875 25.68359375 19.67578125 26.26953125 32.984375 18.5 25.88671875 32.859375 19.67578125 25.0078125 21.7265625 18.28125 -15.4921875 29.04296875 18.90234375 -29.0859375 28.5234375 18.71484375 -30.9765625 25.91015625 19.67578125 -23.34765625 25.68359375 19.67578125 -26.26953125 25.609375 18.5 -27.2421875 25.6015625 10.75 -27.04296875 33.02734375 19.23046875 -25.88671875 31.1953125 29.390625 -26.08984375 25.65234375 19.09765625 -27.2421875 23.8359375 28.2890625 -27.4453125 25.6796875 18.953125 -23.34765625 24.13671875 28.33203125 -23.55078125 30.859375 21.89453125 -22.3671875 30.69921875 29.31640625 -22.56640625 20.78125 -20.75 -23.27734375 20.9453125 -18.265625 -22.8203125 22.41796875 -13.84765625 -22.90625 55.14453125 31.3828125 13.8203125 59.96875 31.7890625 0 56.99609375 20.69140625 13.8203125 61.88671875 20.78125 0 60.98828125 19.58984375 0 56.23828125 19.50390625 -13.23046875 58.22265625 19.5390625 0 53.8984375 19.4609375 -11.44921875 36.265625 23.44140625 28.55859375 48.7578125 27.5234375 24.1875 27.94921875 -15.51953125 21.06640625 27.82421875 -15.43359375 19.27734375 27.21484375 -19.7265625 18.83984375 27.8046875 25.86328125 -16.4296875 55.53515625 8.12890625 -13.8203125 57.25390625 18.5 -13.8203125 56.47265625 19.67578125 -13.23046875 54.1328125 19.67578125 -11.44921875 32.5625 -19.8671875 -19.5078125 36.59375 -18.5546875 -16.3359375 55.14453125 31.3828125 -13.8203125 44.828125 30.63671875 -22.44921875 56.99609375 20.69140625 -13.8203125 46.7265625 19.8125 -22.24609375 44.5625 19.29296875 -19.01171875 60.42578125 7.484375 0 55.53515625 8.12890625 13.8203125 62.14453125 18.5 0 57.25390625 18.5 13.8203125 61.22265625 19.67578125 0 56.47265625 19.67578125 13.23046875 54.1328125 19.67578125 11.44921875 45.578125 9.25 22.04296875 46.78125 18.5 22.24609375 46.28515625 19.67578125 21.4375 44.79296875 19.67578125 19.01171875 32.80859375 10.20703125 25.68359375 51.45703125 -1.9453125 -5.875 51.72265625 -2.796875 0 51.45703125 -1.9453125 5.875 37.80078125 16.7265625 27.703125 29.42578125 17.69140625 29.39453125 24.37890625 12.171875 31.7265625 22.59375 8.70703125 30.23828125 18.3125 10.203125 31.92578125 34.56640625 2.05859375 -22.43359375 45.6484375 4.62109375 -20.77734375 44.1875 -3.6484375 -12.37109375 50.5546875 0.00390625 -11.7265625 64.953125 25.58984375 -5.91015625 56.27734375 13.96875 -21.34375 35.6484375 -27.8203125 13.7109375 44.6328125 41.96484375 -10.53125 29.04296875 18.90234375 29.0859375 47.109375 16.53125 -27.5859375 30.859375 21.89453125 22.3671875 25.6796875 18.953125 23.34765625 33.02734375 19.23046875 25.88671875 25.65234375 19.09765625 27.2421875 31.1953125 29.390625 26.08984375 23.8359375 28.2890625 27.4453125 44.828125 30.63671875 22.44921875 46.7265625 19.8125 22.24609375 44.5625 19.29296875 19.01171875 31.5625 -6.796875 18.76953125 35.07421875 -1.19921875 12.94140625 30.640625 -6.8125 17.578125 38.38671875 15.48828125 -30.453125 25.83984375 -27.34765625 -13.98828125 39.21484375 -23.21484375 0 38.35546875 -24.03515625 4.27734375 39.7421875 -13.96875 5.62890625 30.640625 -6.8125 -17.578125 27.82421875 -15.43359375 -19.27734375 38.80859375 -2.796875 -9.390625 25.6015625 10.75 27.04296875 56.23828125 19.50390625 13.23046875 53.8984375 19.4609375 11.44921875 37.61328125 -15.234375 -10.7109375 40.4453125 -16.70703125 -12.19140625 27.7734375 -4.3203125 19.46875 34.92578125 -25.10546875 -7.31640625 31.01953125 -18.703125 16.5234375 32.21484375 -0.0703125 14.72265625 50.5546875 0.00390625 11.7265625 34.08203125 -17.41796875 -14.46875 31.01953125 -18.703125 -16.5234375 27.21484375 -19.7265625 -18.83984375 35.07421875 -1.19921875 -12.94140625 56.34375 31.56640625 0 52.05859375 31.08203125 -11.44921875 30.69921875 29.31640625 22.56640625 42.84375 30.33984375 19.2109375 24.13671875 28.33203125 23.55078125 52.05859375 31.08203125 11.44921875 58.45703125 19.67578125 0 43.58984375 9.51171875 18.80859375 52.4140625 8.5390625 11.32421875 56.73828125 7.96875 0 52.4140625 8.5390625 -11.32421875 43.58984375 9.51171875 -18.80859375 32.3125 10.2734375 -22.1640625 25.90625 10.7109375 -23.14453125 34.92578125 -25.10546875 7.31640625 42.84375 30.33984375 -19.2109375 31.67578125 -26.140625 -10.265625 31.67578125 -26.140625 10.265625</float_array>
                    <technique_common>
                        <accessor count="419" source="#pointarray0" stride="3">
                            <param name="X" type="float"/>
                            <param name="Y" type="float"/>
                            <param name="Z" type="float"/>
                        </accessor>
                    </technique_common>
                </source>
                <source id="uvs0">
                    <float_array id="uvarray0" count="562">0.39373779296875 0.49755859375 0.3375244140625 0.4949951171875 0.39215087890625 0.475341796875 0.32183837890625 0.47845458984375 0.3721923828125 0.4617919921875 0.31561279296875 0.4617919921875 0.31317138671875 0.44000244140625 0.254150390625 0.4478759765625 0.311767578125 0.4263916015625 0.254150390625 0.427001953125 0.3125 0.41180419921875 0.254150390625 0.40826416015625 0.3104248046875 0.39202880859375 0.254150390625 0.3896484375 0.317138671875 0.37744140625 0.254150390625 0.37493896484375 0.28875732421875 0.36065673828125 0.254150390625 0.35943603515625 0.254150390625 0.35003662109375 0.29022216796875 0.351318359375 0.32330322265625 0.3619384765625 0.32623291015625 0.3525390625 0.37640380859375 0.364501953125 0.38458251953125 0.35595703125 0.43963623046875 0.37078857421875 0.6519775390625 0.94622802734375 0.58404541015625 0.92919921875 0.5855712890625 0.9202880859375 0.5062255859375 0.9105224609375 0.5062255859375 0.89617919921875 0.58746337890625 0.9041748046875 0.654541015625 0.93353271484375 0.65753173828125 0.91253662109375 0.724609375 0.92144775390625 0.729248046875 0.87921142578125 0.80657958984375 0.9302978515625 0.8026123046875 0.88812255859375 0.86248779296875 0.92919921875 0.8812255859375 0.88751220703125 0.94708251953125 0.91668701171875 0.9124755859375 0.8375244140625 0.97705078125 0.89483642578125 0.95623779296875 0.8375244140625 0.99371337890625 0.875 0.981201171875 0.8375244140625 0.9918212890625 0.59075927734375 0.96014404296875 0.59600830078125 0.96636962890625 0.58978271484375 0.93511962890625 0.58770751953125 0.94921875 0.57989501953125 0.9241943359375 0.5633544921875 0.94140625 0.555419921875 0.89923095703125 0.54681396484375 0.90386962890625 0.539794921875 0.83203125 0.52740478515625 0.83514404296875 0.51898193359375 0.79693603515625 0.51373291015625 0.84136962890625 0.5106201171875 0.80010986328125 0.5064697265625 0.80322265625 0.50018310546875 0.7587890625 0.49603271484375 1 0.95001220703125 0.96246337890625 1 0.93121337890625 0.9666748046875 0.88824462890625 0.9752197265625 0.8143310546875 0.97064208984375 0.7210693359375 0.948486328125 0.5914306640625 0.862548828125 0.5062255859375 0.85418701171875 0.59375 0.82086181640625 0.5062255859375 0.81671142578125 0.75909423828125 0.5205078125 0.7587890625 0.508544921875 0.7587890625 0.50225830078125 0.84765625 0.50439453125 0.9163818359375 0.53564453125 0.92950439453125 0.5322265625 0.9542236328125 0.55267333984375 0.96636962890625 0.5751953125 0.9788818359375 0.5731201171875 0.9927978515625 0.58892822265625 0.17547607421875 0.27532958984375 0.1607666015625 0.27801513671875 0.1690673828125 0.26495361328125 0.1534423828125 0.26849365234375 0.1436767578125 0.236328125 0.13165283203125 0.24609375 0.11578369140625 0.2220458984375 0.10223388671875 0.23419189453125 0.07696533203125 0.208740234375 0.07275390625 0.2222900390625 0.03973388671875 0.2178955078125 0.00665283203125 0.23895263671875 0.00665283203125 0.2135009765625 0.0421142578125 0.20318603515625 0.4979248046875 0.4658203125 0.4879150390625 0.4620361328125 0.49835205078125 0.451171875 0.4833984375 0.4481201171875 0.49835205078125 0.4371337890625 0.47900390625 0.43548583984375 0.457763671875 0.40869140625 0.4639892578125 0.4371337890625 0.42498779296875 0.41802978515625 0.45623779296875 0.44097900390625 0.41900634765625 0.444091796875 0.43463134765625 0.4617919921875 0.44061279296875 0.4888916015625 0.99212646484375 0.5897216796875 0.89141845703125 0.55853271484375 0.07275390625 0.20782470703125 0.03155517578125 0.20111083984375 0.07012939453125 0.22119140625 0.02783203125 0.21429443359375 0.0711669921875 0.260498046875 0.00701904296875 0.2236328125 0.00701904296875 0.26275634765625 0.00634765625 0.284912109375 0.07745361328125 0.2806396484375 0.00604248046875 0.29595947265625 0.07952880859375 0.28729248046875 0.00567626953125 0.3070068359375 0.08380126953125 0.30072021484375 0.7183837890625 0.96136474609375 0.6624755859375 0.870849609375 0.6624755859375 0.8292236328125 0.7562255859375 0.85003662109375 0.29364013671875 0.4964599609375 0.254150390625 0.481201171875 0.254150390625 0.46453857421875 0.3721923828125 0.42950439453125 0.3656005859375 0.40765380859375 0.38433837890625 0.397216796875 0.36785888671875 0.37225341796875 0.2918701171875 0.33984375 0.254150390625 0.338623046875 0.93511962890625 0.6043701171875 0.89141845703125 0.58978271484375 0.91015625 0.61273193359375 0.87261962890625 0.6085205078125 0.9163818359375 0.62310791015625 0.87890625 0.62939453125 0.92266845703125 0.633544921875 0.87261962890625 0.6474609375 0.92889404296875 0.64605712890625 0.8759765625 0.6627197265625 0.48101806640625 0.4029541015625 0.426513671875 0.37640380859375 0.4703369140625 0.40557861328125 0.4124755859375 0.38262939453125 0.4638671875 0.4368896484375 0.46270751953125 0.451416015625 0.46917724609375 0.4617919921875 0.13323974609375 0.22967529296875 0.119384765625 0.24267578125 0.11688232421875 0.22198486328125 0.10638427734375 0.2362060546875 0.0701904296875 0.22259521484375 0.02777099609375 0.21429443359375 0.00701904296875 0.20050048828125 0.00701904296875 0.21337890625 0.16986083984375 0.2681884765625 0.15380859375 0.24420166015625 0.1607666015625 0.2730712890625 0.14056396484375 0.25115966796875 0.121337890625 0.241943359375 0.10809326171875 0.23504638671875 0.86871337890625 0.8375244140625 0.8779296875 0.7933349609375 0.8125 0.75836181640625 0.83123779296875 0.75 0.731201171875 0.70001220703125 0.74371337890625 0.69171142578125 0.47869873046875 0.4349365234375 0.4715576171875 0.44793701171875 0.4775390625 0.45941162109375 0.99322509765625 0.5914306640625 0.99407958984375 0.602294921875 0.97265625 0.610595703125 0.94140625 0.61376953125 0.856201171875 1 0.08184814453125 0.2701416015625 0.9375 0.7708740234375 0.913818359375 0.77947998046875 0.8499755859375 0.737548828125 0.833984375 0.56158447265625 0.81011962890625 0.579345703125 0.79107666015625 0.55963134765625 0.7606201171875 0.5689697265625 0.76043701171875 0.55908203125 0.08929443359375 0.29278564453125 0.00665283203125 0.27996826171875 0.5062255859375 0.920166015625 0.5819091796875 0.93798828125 0.254150390625 0.4915771484375 0.99066162109375 0.61163330078125 0.98516845703125 0.62103271484375 0.9476318359375 0.62310791015625 0.96014404296875 0.633544921875 0.4716796875 0.44805908203125 0.86871337890625 0.72503662109375 0.7562255859375 0.683349609375 0.50384521484375 0.19720458984375 0.6239013671875 0.1962890625 0.50384521484375 0.1859130859375 0.6239013671875 0.1859130859375 0.50384521484375 0.17889404296875 0.6239013671875 0.17889404296875 0.50384521484375 0.16845703125 0.6239013671875 0.16845703125 0.32952880859375 0.34112548828125 0.50384521484375 0.19683837890625 0.564697265625 0.191650390625 0.564697265625 0.17889404296875 0.564697265625 0.1859130859375 0.07965087890625 0.28753662109375 0.16351318359375 0.2796630859375 0.17303466796875 0.27520751953125 0.176025390625 0.281982421875 0.564697265625 0.16845703125 0.6239013671875 0.19720458984375 0.564697265625 0.19140625 0.6239013671875 0.17230224609375 0.6239013671875 0.19451904296875 0.564697265625 0.17230224609375 0.564697265625 0.188720703125 0.564697265625 0.17120361328125 0.564697265625 0.18896484375 0.6239013671875 0.17120361328125 0.6239013671875 0.194091796875 0.5040283203125 0.22491455078125 0.6239013671875 0.22882080078125 0.5040283203125 0.17230224609375 0.5040283203125 0.17120361328125 0.5040283203125 0.16845703125 0.856201171875 0.8375244140625 0.86248779296875 0.875 0.166259765625 0.28619384765625 0.50384521484375 0.1962890625 0.62457275390625 0.20452880859375 0.6239013671875 0.22491455078125 0.5040283203125 0.20086669921875 0.50372314453125 0.20843505859375 0.50384521484375 0.20452880859375 0.4495849609375 0.202880859375 0.3568115234375 0.25689697265625 0.275390625 0.180908203125 0.2767333984375 0.25689697265625 0.278564453125 0.31988525390625 0.357421875 0.32000732421875 0.13861083984375 0.2520751953125 0.8341064453125 0.5465087890625 0.62457275390625 0.20843505859375 0.00665283203125 0.200439453125 0.6239013671875 0.20086669921875 0.5040283203125 0.19451904296875 0.71697998046875 0.71044921875 0.79998779296875 0.76251220703125 0.5062255859375 0.93243408203125 0.45416259765625 0.27215576171875 0.45458984375 0.32806396484375 0.84454345703125 0.59393310546875 0.4979248046875 0.436767578125 0.6492919921875 0.9549560546875 0.847412109375 0.66326904296875 0.79998779296875 0.862548828125 0.6239013671875 0.22589111328125 0.5040283203125 0.22247314453125 0.5040283203125 0.194091796875 0.6239013671875 0.19927978515625 0.5040283203125 0.19927978515625 0.6239013671875 0.22247314453125 0.50384521484375 0.19476318359375 0.6239013671875 0.19683837890625 0.50384521484375 0.20208740234375 0.6239013671875 0.19476318359375 0.50372314453125 0.20550537109375 0.6239013671875 0.20208740234375 0.62457275390625 0.20550537109375 0.00665283203125 0.30303955078125 0.71807861328125 0.9718017578125</float_array>
                    <technique_common>
                        <accessor count="281" source="#uvarray0" stride="2">
                            <param name="S" type="float"/>
                            <param name="T" type="float"/>
                        </accessor>
                    </technique_common>
                </source>
                <vertices id="vertices0">
                    <input semantic="POSITION" source="#points0"/>
                </vertices>
                <polylist count="740" material="Material1">
                    <input offset="0" semantic="VERTEX" source="#vertices0"/>
                    <input offset="1" semantic="TEXCOORD" source="#uvs0" set="0"/>
                    <vcount>3 3 3 3 3 3 3 3 3 3 3 3 3 3 3 3 3 3 3 3 3 3 3 3 3 3 3 3 3 3 3 3 3 3 3 3 3 3 3 3 3 3 3 3 3 3 3 3 3 3 3 3 3 3 3 3 3 3 3 3 3 3 3 3 3 3 3 3 3 3 3 3 3 3 3 3 3 3 3 3 3 3 3 3 3 3 3 3 3 3 3 3 3 3 3 3 3 3 3 3 3 3 3 3 3 3 3 3 3 3 3 3 3 3 3 3 3 3 3 3 3 3 3 3 3 3 3 3 3 3 3 3 3 3 3 3 3 3 3 3 3 3 3 3 3 3 3 3 3 3 3 3 3 3 3 3 3 3 3 3 3 3 3 3 3 3 3 3 3 3 3 3 3 3 3 3 3 3 3 3 3 3 3 3 3 3 3 3 3 3 3 3 3 3 3 3 3 3 3 3 3 3 3 3 3 3 3 3 3 3 3 3 3 3 3 3 3 3 3 3 3 3 3 3 3 3 3 3 3 3 3 3 3 3 3 3 3 3 3 3 3 3 3 3 3 3 3 3 3 3 3 3 3 3 3 3 3 3 3 3 3 3 3 3 3 3 3 3 3 3 3 3 3 3 3 3 3 3 3 3 3 3 3 3 3 3 3 3 3 3 3 3 3 3 3 3 3 3 3 3 3 3 3 3 3 3 3 3 3 3 3 3 3 3 3 3 3 3 3 3 3 3 3 3 3 3 3 3 3 3 3 3 3 3 3 3 3 3 3 3 3 3 3 3 3 3 3 3 3 3 3 3 3 3 3 3 3 3 3 3 3 3 3 3 3 3 3 3 3 3 3 3 3 3 3 3 3 3 3 3 3 3 3 3 3 3 3 3 3 3 3 3 3 3 3 3 3 3 3 3 3 3 3 3 3 3 3 3 3 3 3 3 3 3 3 3 3 3 3 3 3 3 3 3 3 3 3 3 3 3 3 3 3 3 3 3 3 3 3 3 3 3 3 3 3 3 3 3 3 3 3 3 3 3 3 3 3 3 3 3 3 3 3 3 3 3 3 3 3 3 3 3 3 3 3 3 3 3 3 3 3 3 3 3 3 3 3 3 3 3 3 3 3 3 3 3 3 3 3 3 3 3 3 3 3 3 3 3 3 3 3 3 3 3 3 3 3 3 3 3 3 3 3 3 3 3 3 3 3 3 3 3 3 3 3 3 3 3 3 3 3 3 3 3 3 3 3 3 3 3 3 3 3 3 3 3 3 3 3 3 3 3 3 3 3 3 3 3 3 3 3 3 3 3 3 3 3 3 3 3 3 3 3 3 3 3 3 3 3 3 3 3 3 3 3 3 3 3 3 3 3 3 3 3 3 3 3 3 3 3 3 3 3 3 3 3 3 3 3 3 3 3 3 3 3 3 3 3 3 3 3 3 3 3 3 3 3 3 3 3 3 3 3 3 3 3 3 3 3 3 3 3 3 3 3 3 3 3 3 3 3 3 3 3 3 3 3 3 3 3 3 3 3 3 3 3 3 3 3 3 3 3 3 3 3 3 3 3 3 3 3 3 3 3 3 3 3 3 3 3 3 3 3 3 3 3 3 3 3 3 3 3 3 3 3 3 3 3 3 3 3 3 3 3 3 3 3 3 3 3 3 3 3 3 3 3 3 3 3 3</vcount>
                    <p>2 2 1 1 0 0 3 3 1 1 2 2 4 4 3 3 2 2 5 5 3 3 4 4 6 6 5 5 4 4 7 7 5 5 6 6 8 8 7 7 6 6 9 9 7 7 8 8 10 10 9 9 8 8 11 11 9 9 10 10 12 12 11 11 10 10 13 13 11 11 12 12 14 14 13 13 12 12 15 15 13 13 14 14 16 16 15 15 14 14 17 17 15 15 16 16 18 18 17 17 16 16 19 16 17 17 18 18 20 19 19 16 18 18 21 20 19 16 20 19 22 21 21 20 20 19 23 22 21 20 22 21 24 23 23 22 22 21 25 24 23 22 24 23 28 27 27 26 26 25 29 28 27 26 28 27 30 29 29 28 28 27 31 27 29 28 30 29 32 30 31 27 30 29 33 31 31 27 32 30 34 32 33 31 32 30 35 33 33 31 34 32 36 34 35 33 34 32 37 35 35 33 36 34 38 36 37 35 36 34 39 37 37 35 38 36 40 38 39 37 38 36 41 39 39 37 40 38 42 40 41 39 40 38 43 41 41 39 42 40 44 42 43 41 42 40 45 43 43 41 44 42 46 44 45 43 44 42 49 47 48 46 47 45 50 48 48 46 49 47 51 49 50 48 49 47 52 50 50 48 51 49 53 51 52 50 51 49 54 52 52 50 53 51 55 53 54 52 53 51 56 54 54 52 55 53 57 55 56 54 55 53 58 56 56 54 57 55 59 57 58 56 57 55 60 58 58 56 59 57 61 59 60 58 59 57 62 60 60 58 61 59 65 63 64 62 63 61 66 64 64 62 65 63 67 37 66 64 65 63 68 65 66 64 67 37 69 35 68 65 67 37 70 66 68 65 69 35 71 33 70 66 69 35 72 31 70 66 71 33 73 32 72 31 71 33 74 30 72 31 73 32 75 67 74 30 73 32 76 68 74 30 75 67 77 69 76 68 75 67 78 70 76 68 77 69 58 56 79 71 56 54 80 72 79 71 58 56 81 73 80 72 58 56 82 58 80 72 81 73 83 59 82 58 81 73 84 57 82 58 83 59 85 74 84 57 83 59 86 75 84 57 85 74 87 76 86 75 85 74 88 51 86 75 87 76 89 77 88 51 87 76 90 78 88 51 89 77 91 79 90 78 89 77 92 80 90 78 91 79 95 83 94 82 93 81 96 84 94 82 95 83 25 85 96 84 95 83 97 86 96 84 25 85 24 87 97 86 25 85 98 88 97 86 24 87 99 89 98 88 24 87 100 90 98 88 99 89 101 91 100 90 99 89 102 92 100 90 101 91 103 93 102 92 101 91 104 91 102 92 103 93 105 94 104 91 103 93 106 89 104 91 105 94 108 97 107 96 92 95 109 98 107 96 108 97 110 99 109 98 108 97 111 100 109 98 110 99 112 101 111 100 110 99 113 102 111 100 112 101 114 103 113 102 112 101 115 104 113 102 114 103 116 105 115 104 114 103 117 106 115 104 116 105 2 2 117 106 116 105 118 107 117 106 2 2 0 0 118 107 2 2 119 47 90 78 92 108 120 49 90 78 119 47 121 48 120 49 119 47 122 50 120 49 121 48 123 109 122 50 121 48 124 52 122 50 123 109 125 54 124 52 123 109 126 53 124 52 125 54 127 55 126 53 125 54 84 57 126 53 127 55 128 56 84 57 127 55 82 58 84 57 128 56 80 72 82 58 128 56 130 112 61 111 129 110 131 113 61 111 130 112 132 114 131 113 130 112 133 115 131 113 132 114 134 116 133 115 132 114 135 114 133 115 134 116 136 117 135 114 134 116 137 118 135 114 136 117 138 119 137 118 136 117 139 120 137 118 138 119 140 121 139 120 138 119 141 122 139 120 140 121 72 31 26 25 142 123 28 27 26 25 72 31 74 30 28 27 72 31 30 29 28 27 74 30 76 68 30 29 74 30 32 30 30 29 76 68 143 67 32 30 76 68 34 32 32 30 143 67 144 124 34 32 143 67 36 34 34 32 144 124 145 125 36 34 144 124 146 126 36 34 145 125 3 3 147 127 1 1 148 128 147 127 3 3 149 129 148 128 3 3 150 3 148 128 149 129 151 5 150 3 149 129 152 4 150 3 151 5 153 6 152 4 151 5 154 130 152 4 153 6 155 8 154 130 153 6 156 10 154 130 155 8 9 9 156 10 155 8 11 11 156 10 9 9 116 105 4 4 2 2 157 130 4 4 116 105 114 103 157 130 116 105 158 131 157 130 114 103 159 132 158 131 114 103 14 14 158 131 159 132 160 133 14 14 159 132 161 20 14 14 160 133 162 21 161 20 160 133 163 19 161 20 162 21 105 134 163 19 162 21 164 135 163 19 105 134 165 46 119 47 92 45 121 48 119 47 165 46 166 136 121 48 165 46 167 137 121 48 166 136 168 138 167 137 166 136 169 139 167 137 168 138 170 140 169 139 168 138 171 141 169 139 170 140 172 142 171 141 170 140 173 143 171 141 172 142 0 144 173 143 172 142 1 145 173 143 0 144 175 148 174 147 95 146 176 149 174 147 175 148 177 101 176 149 175 148 178 103 176 149 177 101 179 150 178 103 177 101 180 104 178 103 179 150 181 151 180 104 179 150 182 106 180 104 181 151 183 152 182 106 181 151 184 107 182 106 183 152 87 155 185 154 89 153 186 156 185 154 87 155 85 110 186 156 87 155 187 157 186 156 85 110 83 111 187 157 85 110 188 158 187 157 83 111 62 159 188 158 83 111 189 160 188 158 62 159 61 111 189 160 62 159 131 113 189 160 61 111 191 163 190 162 47 161 192 164 190 162 191 163 193 118 192 164 191 163 194 165 192 164 193 118 132 114 194 165 193 118 195 166 194 165 132 114 130 112 195 166 132 114 196 155 195 166 130 112 129 110 196 155 130 112 197 39 67 37 65 63 198 38 67 37 197 39 199 40 198 38 197 39 200 167 198 38 199 40 201 168 200 167 199 40 202 169 200 167 201 168 203 170 202 169 201 168 204 171 202 169 203 170 205 172 204 171 203 170 152 4 206 2 150 3 207 105 206 2 152 4 154 130 207 105 152 4 178 103 207 105 154 130 208 131 178 103 154 130 209 132 178 103 208 131 210 14 209 132 208 131 211 133 209 132 210 14 93 99 175 148 95 146 177 101 175 148 93 99 212 173 177 101 93 99 179 150 177 101 212 173 213 98 179 150 212 173 214 174 179 150 213 98 215 96 214 174 213 98 216 175 214 174 215 96 19 16 15 15 17 17 210 14 15 15 19 16 21 20 210 14 19 16 211 133 210 14 21 20 23 22 211 133 21 20 174 147 211 133 23 22 25 24 174 147 23 22 95 146 174 147 25 24 48 46 215 177 47 176 217 178 215 177 48 46 218 136 217 178 48 46 219 179 217 178 218 136 220 138 219 179 218 136 221 140 219 179 220 138 222 139 221 140 220 138 223 141 221 140 222 139 224 61 43 41 45 43 41 39 43 41 224 61 225 63 41 39 224 61 39 37 41 39 225 63 226 64 39 37 225 63 227 65 39 37 226 64 228 62 227 65 226 64 229 180 227 65 228 62 232 84 231 85 230 83 233 86 231 85 232 84 234 181 233 86 232 84 235 88 233 86 234 181 236 90 235 88 234 181 237 87 235 88 236 90 106 89 237 87 236 90 44 42 238 182 46 44 239 183 238 182 44 42 240 168 239 183 44 42 241 184 239 183 240 168 242 170 241 184 240 168 243 172 241 184 242 170 244 171 243 172 242 170 167 137 123 109 121 48 245 185 123 109 167 137 246 186 245 185 167 137 247 187 245 185 246 186 248 188 247 187 246 186 249 189 247 187 248 188 250 187 249 189 248 188 251 82 230 83 110 81 232 84 230 83 251 82 141 190 232 84 251 82 234 181 232 84 141 190 252 191 234 181 141 190 102 92 234 181 252 191 253 181 102 92 252 191 255 25 33 31 254 123 31 27 33 31 255 25 256 26 31 27 255 25 29 28 31 27 256 26 257 192 29 28 256 26 27 26 29 28 257 192 258 193 27 26 257 192 148 128 259 194 147 127 260 127 259 194 148 128 150 3 260 127 148 128 261 1 260 127 150 3 206 2 261 1 150 3 262 0 261 1 206 2 184 107 262 0 206 2 217 178 216 195 215 177 183 196 216 195 217 178 263 197 183 196 217 178 184 198 183 196 263 197 264 142 184 198 263 197 262 144 184 198 264 142 265 143 262 144 264 142 266 152 117 106 118 107 267 151 117 106 266 152 268 175 267 151 266 152 269 199 267 151 268 175 107 96 269 199 268 175 109 98 269 199 107 96 270 42 201 168 199 40 271 183 201 168 270 42 272 182 271 183 270 42 273 184 271 183 272 182 274 200 273 184 272 182 275 201 273 184 274 200 278 204 277 203 276 202 279 205 277 203 278 204 280 206 279 205 278 204 281 207 279 205 280 206 282 208 281 207 280 206 283 209 281 207 282 208 162 21 106 210 105 134 284 22 106 210 162 21 160 133 284 22 162 21 285 149 284 22 160 133 159 132 285 149 160 133 114 103 285 149 159 132 288 212 287 206 286 211 289 213 287 206 288 212 290 214 289 213 288 212 291 213 289 213 290 214 292 204 291 213 290 214 293 206 291 213 292 204 193 118 138 119 136 117 294 215 138 119 193 118 191 163 294 215 193 118 295 216 294 215 191 163 296 217 295 216 191 163 93 218 295 216 296 217 280 207 297 219 282 209 298 213 297 219 280 207 278 205 298 213 280 207 299 214 298 213 278 205 276 220 299 214 278 205 300 221 299 214 276 220 303 224 302 223 301 222 304 225 302 223 303 224 305 226 304 225 303 224 306 227 304 225 305 226 307 228 306 227 305 226 308 229 306 227 307 228 63 61 197 39 65 63 309 41 197 39 63 61 310 43 309 41 63 61 270 42 309 41 310 43 311 44 270 42 310 43 272 182 270 42 311 44 314 232 313 231 312 230 315 222 313 231 314 232 316 228 315 222 314 232 317 233 315 222 316 228 318 209 317 233 316 228 319 234 317 233 318 209 231 24 320 148 230 146 321 147 320 148 231 24 237 23 321 147 231 24 284 22 321 147 237 23 106 210 284 22 237 23 42 40 240 168 44 42 322 167 240 168 42 40 40 38 322 167 42 40 323 235 322 167 40 38 324 236 323 235 40 38 294 215 140 121 138 119 325 122 140 121 294 215 295 216 325 122 294 215 94 237 325 122 295 216 93 218 94 237 295 216 279 204 326 239 277 238 327 205 326 239 279 204 281 206 327 205 279 204 328 207 327 205 281 206 329 209 328 207 281 206 330 36 67 37 198 38 69 35 67 37 330 36 331 34 69 35 330 36 71 33 69 35 331 34 73 32 71 33 331 34 334 222 333 241 332 240 335 232 333 241 334 222 317 228 335 232 334 222 336 234 335 232 317 228 319 209 336 234 317 228 339 204 338 239 337 242 340 205 338 239 339 204 341 206 340 205 339 204 342 207 340 205 341 206 343 209 342 207 341 206 340 204 344 203 338 243 345 205 344 203 340 204 342 206 345 205 340 204 346 207 345 205 342 206 347 209 346 207 342 206 345 204 348 220 344 238 292 205 348 220 345 204 346 206 292 205 345 204 293 207 292 205 346 206 287 209 293 207 346 206 79 246 349 245 56 244 350 247 349 245 79 246 351 245 350 247 79 246 249 248 350 247 351 245 247 249 249 248 351 245 137 118 185 154 135 114 352 250 185 154 137 118 353 163 352 250 137 118 91 162 352 250 353 163 92 161 91 162 353 163 354 178 166 136 165 46 355 179 166 136 354 178 356 197 355 179 354 178 170 140 355 179 356 197 172 142 170 140 356 197 50 48 218 136 48 46 357 137 218 136 50 48 358 109 357 137 50 48 359 185 357 137 358 109 360 251 359 185 358 109 264 142 223 141 265 143 221 140 223 141 264 142 263 197 221 140 264 142 219 179 221 140 263 197 217 178 219 179 263 197 327 204 337 252 326 243 339 205 337 252 327 204 328 206 339 205 327 204 341 207 339 205 328 206 96 84 325 190 94 82 253 181 325 190 96 84 97 86 253 181 96 84 98 88 253 181 97 86 361 94 101 91 99 89 103 93 101 91 361 94 164 253 103 93 361 94 105 94 103 93 164 253 59 57 129 74 61 59 362 75 129 74 59 57 57 55 362 75 59 57 55 53 362 75 57 55 335 222 302 255 333 254 301 232 302 255 335 222 336 209 301 232 335 222 307 234 301 232 336 209 254 123 227 65 229 180 363 66 227 65 254 123 33 31 363 66 254 123 35 33 363 66 33 31 156 10 208 131 154 130 364 12 208 131 156 10 11 11 364 12 156 10 13 13 364 12 11 11 139 120 353 163 137 118 365 216 353 163 139 120 141 122 365 216 139 120 251 237 365 216 141 122 107 177 165 46 92 176 354 178 165 46 107 177 268 195 354 178 107 177 266 196 354 178 268 195 194 165 190 162 192 164 366 153 190 162 194 165 195 166 366 153 194 165 196 155 366 153 195 166 188 158 135 114 187 157 133 115 135 114 188 158 189 160 133 115 188 158 131 113 133 115 189 160 112 101 285 149 114 103 320 148 285 149 112 101 110 99 320 148 112 101 230 146 320 148 110 99 369 222 368 219 367 209 370 224 368 219 369 222 371 223 370 224 369 222 372 225 370 224 371 223 369 232 373 254 371 255 374 222 373 254 369 232 367 234 374 222 369 232 375 209 374 222 367 234 376 169 244 171 242 170 377 256 244 171 376 169 378 257 377 256 376 169 157 130 6 6 4 4 8 8 6 6 157 130 10 10 8 8 157 130 158 131 10 10 157 130 12 12 10 10 158 131 14 14 12 12 158 131 379 78 49 47 47 108 51 49 49 47 379 78 53 51 51 49 379 78 37 35 363 66 35 33 227 65 363 66 37 35 39 37 227 65 37 35 68 65 64 62 66 64 380 180 64 62 68 65 142 123 380 180 68 65 257 192 381 258 258 193 382 193 381 258 257 192 256 26 382 193 257 192 81 73 62 60 83 59 60 58 62 60 81 73 58 56 60 58 81 73 383 69 76 68 78 70 143 67 76 68 383 69 144 124 143 67 383 69 385 235 202 169 384 257 200 167 202 169 385 235 198 38 200 167 385 235 53 51 362 75 55 53 196 76 362 75 53 51 366 77 196 76 53 51 386 186 250 187 248 188 359 185 250 187 386 186 357 137 359 185 386 186 349 245 360 259 56 244 359 260 360 259 349 245 250 249 359 260 349 245 210 14 13 13 15 15 364 12 13 13 210 14 208 131 364 12 210 14 214 174 181 151 179 150 183 152 181 151 214 174 216 175 183 152 214 174 357 137 220 138 218 136 222 139 220 138 357 137 275 261 222 139 357 137 213 98 47 95 215 96 296 97 47 95 213 98 93 262 296 97 213 98 7 7 151 5 149 129 153 6 151 5 7 7 155 8 153 6 7 7 290 214 348 202 292 204 387 221 348 202 290 214 288 212 387 221 290 214 374 232 312 240 373 241 314 222 312 240 374 232 388 228 314 222 374 232 315 222 332 230 313 231 334 232 332 230 315 222 317 233 334 232 315 222 316 228 389 234 318 209 388 233 389 234 316 228 314 232 388 233 316 228 113 102 109 98 111 100 269 199 109 98 113 102 115 104 269 199 113 102 391 124 331 34 390 125 73 32 331 34 391 124 75 67 73 32 391 124 18 18 164 135 361 134 163 19 164 135 18 18 16 16 163 19 18 18 238 182 241 184 392 200 239 183 241 184 238 182 393 263 27 26 258 193 26 25 27 26 393 263 70 66 142 123 68 65 72 31 142 123 70 66 190 79 379 78 47 80 366 77 379 78 190 79 261 145 265 143 260 264 262 144 265 143 261 145 225 63 228 62 226 64 224 61 228 62 225 63 40 38 394 265 324 236 38 36 394 265 40 38 395 201 241 184 243 172 392 200 241 184 395 201 376 169 323 235 378 257 322 167 323 235 376 169 240 168 376 169 242 170 322 167 376 169 240 168 353 163 108 217 92 161 365 216 108 217 353 163 110 218 365 216 251 237 108 217 365 216 110 218 186 156 135 114 185 154 187 157 135 114 186 156 91 162 185 154 352 250 89 153 185 154 91 162 245 260 351 245 396 259 247 249 351 245 245 260 249 248 349 245 350 247 250 249 349 245 249 248 125 244 351 245 79 246 396 259 351 245 125 244 209 132 176 149 178 103 211 133 176 149 209 132 182 106 206 2 207 105 184 107 206 2 182 106 180 104 207 105 178 103 182 106 207 105 180 104 132 114 136 117 134 116 193 118 136 117 132 114 77 69 391 124 390 125 75 67 391 124 77 69 397 126 331 34 330 36 390 125 331 34 397 126 398 265 330 36 198 38 397 126 330 36 398 265 273 184 201 168 271 183 203 170 201 168 273 184 205 172 273 184 275 201 203 170 273 184 205 172 309 41 199 40 197 39 270 42 199 40 309 41 399 236 198 38 385 235 398 265 198 38 399 236 400 256 202 169 204 171 384 257 202 169 400 256 146 126 38 36 36 34 394 265 38 36 146 126 402 267 318 228 401 266 319 233 318 228 402 267 375 234 388 228 374 232 389 209 388 228 375 234 403 268 375 228 367 233 404 269 375 228 403 268 372 225 368 226 370 224 405 227 368 226 372 225 367 228 405 227 403 229 368 226 405 227 367 228 404 270 389 228 375 233 406 271 389 228 404 270 406 267 318 228 389 233 401 266 318 228 406 267 407 209 328 206 329 208 341 207 328 206 407 209 287 208 291 213 293 206 289 219 291 213 287 208 408 272 287 207 347 206 286 273 287 207 408 272 409 274 347 207 343 206 408 275 347 207 409 274 410 276 343 207 407 206 409 277 343 207 410 276 411 274 407 207 329 206 410 278 407 207 411 274 412 272 329 207 283 206 411 277 329 207 412 272 282 207 414 212 413 273 297 213 414 212 282 207 413 211 283 207 282 206 412 275 283 207 413 211 126 53 86 75 88 51 84 57 86 75 126 53 124 52 88 51 122 50 126 53 88 51 124 52 120 49 88 51 90 78 122 50 88 51 120 49 396 251 123 109 245 185 125 54 123 109 396 251 125 54 128 56 127 55 79 71 128 56 125 54 118 198 172 142 356 197 0 144 172 142 118 198 266 196 356 197 354 178 118 198 356 197 266 196 305 219 301 222 307 209 303 224 301 222 305 219 415 263 256 26 255 25 382 193 256 26 415 263 237 87 233 86 235 88 231 85 233 86 237 87 102 92 236 90 234 181 104 91 236 90 102 92 355 179 168 138 166 136 170 140 168 138 355 179 321 147 285 149 320 148 284 22 285 149 321 147 20 19 361 134 99 210 18 18 361 134 20 19 22 21 99 210 24 23 20 19 99 210 22 21 267 151 115 104 117 106 269 199 115 104 267 151 5 5 149 129 3 3 7 7 149 129 5 5 299 214 297 213 298 213 300 221 297 213 299 214 161 20 16 16 14 14 163 19 16 16 161 20 416 270 319 228 402 271 336 233 319 228 416 270 308 268 336 228 416 269 307 233 336 228 308 268 52 50 358 109 50 48 54 52 358 109 52 50 100 90 253 181 98 88 102 92 253 181 100 90 56 54 358 109 54 52 360 251 358 109 56 54 140 279 252 191 141 190 325 190 252 191 140 279 395 261 167 137 169 139 246 186 167 137 395 261 128 56 79 71 80 72 380 180 142 123 417 280 417 280 142 123 393 263 1 145 147 264 173 143 329 209 281 206 283 208 418 280 415 263 254 123 229 180 418 280 254 123 254 123 415 263 255 25 142 123 26 25 393 263 297 213 300 221 414 212 104 91 106 89 236 90 93 262 213 98 212 173 174 147 176 149 211 133 7 7 9 9 155 8 144 124 383 69 145 125 296 217 191 163 47 161 343 209 341 206 407 208 342 206 343 208 347 209 287 209 346 206 347 208 379 78 366 77 53 51 325 190 253 181 252 191 386 186 275 261 357 137 129 74 362 75 196 76</p>
                </polylist>
            </mesh>
        </geometry>
    </library_geometries>
    <library_visual_scenes>
        <visual_scene id="VisualSceneNode">
            <node id="node0" name="m0" type="NODE">
                <instance_geometry url="#mesh0">
                    <bind_material>
                        <technique_common>
                            <instance_material symbol="Material1" target="#mat0">
                                <bind_vertex_input semantic="UVSET0" input_semantic="TEXCOORD" input_set="0"></bind_vertex_input>
                            </instance_material>
                        </technique_common>
                    </bind_material>
                </instance_geometry>
            </node>
        </visual_scene>
    </library_visual_scenes>
    <scene>
        <instance_visual_scene url="#VisualSceneNode"></instance_visual_scene>
    </scene>
</COLLADA>
