<?xml version="1.0"?>
<COLLADA xmlns="http://www.collada.org/2005/11/COLLADASchema" version="1.4.1">
    <asset>
        <contributor>
            <authoring_tool>J3D Ripoff Exporter</authoring_tool>
        </contributor>
        <created>2024-08-02T13:57:07.055Z</created>
        <modified>2024-08-02T13:57:07.055Z</modified>
		<unit meter="0.01" name="centimeter" ></unit>
        <up_axis>Y_UP</up_axis>
    </asset>
    <library_images>
        <image id="tex0">
            <init_from>donkey_all.png</init_from>
        </image>
    </library_images>
    <library_effects>
        <effect id="effect0">
            <profile_COMMON>
                <newparam sid="surface0">
                    <surface type="2D">
                        <init_from>tex0</init_from>
                    </surface>
                </newparam>
                <newparam sid="sampler0">
                    <sampler2D>
                        <source>surface0</source>
                    </sampler2D>
                </newparam>
                <technique sid="COMMON">
                    <blinn>
                        <diffuse>
                            <texture texture="sampler0" texcoord="UVSET0"></texture>
                        </diffuse>
                    </blinn>
                </technique>
            </profile_COMMON>
        </effect>
    </library_effects>
    <library_materials>
        <material id="mat0" name="Dummy">
            <instance_effect url="#effect0"></instance_effect>
        </material>
    </library_materials>
    <library_geometries>
        <geometry id="mesh0">
            <mesh>
                <source id="points0">
                    <float_array id="pointarray0" count="981">7.30859375 6.50390625 24.73046875 5.3828125 8.47265625 18.69921875 5.609375 13.87109375 27.76171875 1.81640625 17.6796875 17.984375 8.44140625 24.6328125 27.09765625 4.7265625 28.6640625 17.48046875 13.47265625 38.33984375 18.0390625 12.53515625 41.47265625 0 24.6796875 42.9609375 17.421875 24.43359375 45.78515625 0 37.25390625 43.546875 14.41796875 37.671875 45.33984375 0 46.1484375 40.50390625 11.4140625 47.23046875 41.26953125 0 53.65234375 34.2578125 10.5234375 55.37109375 34.08203125 0 58.984375 25.91796875 11.37890625 61.26171875 25.4609375 0 63.86328125 18.87109375 5.24609375 64.29296875 18.99609375 0 67.484375 16.26171875 0 63.86328125 18.87109375 -5.24609375 66.5859375 16.33203125 -5.76953125 61.71484375 19.2421875 -11.67578125 63.83203125 16.88671875 -12.2421875 56.38671875 20.1796875 -17.43359375 57.2421875 17.6015625 -19.27734375 45.0625 20.38671875 -24.74609375 45.95703125 17.4453125 -25.75 35.43359375 14.6171875 -30.41796875 43.30078125 15.32421875 -24.671875 35.765625 13.27734375 -27.9453125 39.21484375 -23.21484375 0 38.35546875 -24.03515625 4.27734375 39.9375 -24.14453125 0 39.484375 -24.90625 4.77734375 43.4140625 -22.72265625 0 42.53515625 -23.62890625 5.7890625 44.8203125 -18.9453125 0 44.171875 -19.73046875 6.8359375 43.50390625 -14.33203125 0 42.94921875 -15.0703125 6.60546875 39.7421875 -13.96875 5.62890625 40.4453125 -16.70703125 12.19140625 37.61328125 -15.234375 10.7109375 36.59375 -18.5546875 16.3359375 34.08203125 -17.41796875 14.46875 32.5625 -19.8671875 19.5078125 31.01953125 -18.703125 16.5234375 27.75390625 -20.34765625 21.08984375 27.21484375 -19.7265625 18.83984375 27.82421875 -15.43359375 19.27734375 31.16015625 8.25 -29.71484375 29.9375 3.4921875 -27.828125 32.25390625 7.35546875 -28.34375 34.765625 3.94140625 -24.71484375 36.4375 11.1328125 -28.3359375 43.78125 9.78515625 -24.4921875 44.62890625 13.70703125 -27.484375 50.51171875 8.97265625 -20.66015625 54.76953125 12.48046875 -20.52734375 57.8984375 7.84765625 -11.9609375 61.90234375 11.15625 -12.61328125 64.5 10.7109375 -6.3046875 64.4609375 12.29296875 -13.33984375 67.22265625 11.82421875 -6.66796875 67.69921875 14.05859375 -6.6875 68.47265625 11.35546875 0 68.93359375 13.55078125 0 67.69921875 14.05859375 6.6875 34.08203125 -17.41796875 -14.46875 36.59375 -18.5546875 -16.3359375 37.61328125 -15.234375 -10.7109375 40.4453125 -16.70703125 -12.19140625 39.7421875 -13.96875 -5.62890625 42.94921875 -15.0703125 -6.60546875 44.171875 -19.73046875 -6.8359375 42.53515625 -23.62890625 -5.7890625 39.484375 -24.90625 -4.77734375 38.35546875 -24.03515625 -4.27734375 31.16015625 8.25 29.71484375 29.11328125 7.50390625 30.41796875 30.0546875 8.66796875 29.52734375 28.234375 9.25 30.7890625 30.10546875 8.515625 29.89453125 28.73828125 9.9375 30.5546875 34.34375 17.6015625 29.07421875 25.19921875 13.609375 32.23046875 31.70703125 24.9453125 31.578125 21.13671875 16.0703125 34.1875 13.9375 18.96484375 33.5234375 11.48046875 10.7265625 33.09375 11.46484375 4.86328125 30.43359375 23.546875 35.3671875 27.37109375 37.57421875 35.48828125 23.9296875 42.19140625 26.359375 27.3203125 50.4921875 26.62109375 23.05859375 45.0625 20.38671875 24.74609375 56.38671875 20.1796875 17.43359375 57.2421875 17.6015625 19.27734375 63.83203125 16.88671875 12.2421875 62.09765625 13.65625 12.39453125 64.81640625 12.80078125 5.99609375 6.5625 10.53125 9.3125 1.328125 20.54296875 0 3.52734375 31.7890625 0 1.81640625 17.6796875 -17.984375 4.7265625 28.6640625 -17.48046875 8.44140625 24.6328125 -27.09765625 13.47265625 38.33984375 -18.0390625 23.546875 35.3671875 -27.37109375 24.6796875 42.9609375 -17.421875 37.25390625 43.546875 -14.41796875 35.84375 13.3046875 29.6953125 36.26171875 12.0234375 29.828125 45.70703125 15.23046875 27.33984375 44.62890625 13.70703125 27.484375 56.625 15.86328125 21.59375 56.33203125 13.76953125 21.234375 64.94921875 14.56640625 13.375 64.4609375 12.29296875 13.33984375 67.22265625 11.82421875 6.66796875 65.58203125 10.26953125 0 36.37109375 -25.9609375 -7.83984375 39.3671875 -25.7734375 -10.390625 31.99609375 -27.41015625 -11.078125 35.6484375 -27.8203125 -13.7109375 32.41796875 -29.2890625 -16.41796875 33.90234375 -25.078125 -19.13671875 30.390625 -25.59765625 -21.109375 32.5625 -19.8671875 -19.5078125 27.75390625 -20.34765625 -21.08984375 31.01953125 -18.703125 -16.5234375 10.0703125 6.94140625 19.81640625 14.1015625 4.64453125 25.87109375 15.0625 4.84765625 21.109375 20.734375 3.03515625 24.87890625 24.78515625 2.859375 18.95703125 25.515625 1.9453125 23.88671875 34.109375 0.546875 21.109375 28.11328125 0.26171875 25.4140625 34.765625 3.94140625 24.71484375 29.9375 3.4921875 27.828125 32.25390625 7.35546875 28.34375 44.76953125 -7.0703125 0 40.4609375 -5.87890625 0 44.6875 -6.20703125 5.59765625 38.80859375 -2.796875 9.390625 41.59765625 -4.85546875 12.02734375 44.69921875 4.0390625 20.671875 43.78125 9.78515625 24.4921875 36.4375 11.1328125 28.3359375 50.4921875 26.62109375 -23.05859375 42.19140625 26.359375 -27.3203125 34.34375 17.6015625 -29.07421875 31.70703125 24.9453125 -31.578125 25.19921875 13.609375 -32.23046875 21.13671875 16.0703125 -34.1875 23.1875 10.421875 -32.12890625 18.3984375 10.72265625 -33.6328125 23.609375 6.6796875 -31.29296875 18.25390625 5.6953125 -32.3671875 5.609375 13.87109375 -27.76171875 13.9375 18.96484375 -33.5234375 37.57421875 35.48828125 -23.9296875 48.54296875 34.7265625 -20.48828125 58.984375 25.91796875 -11.37890625 19.0234375 1.5703125 29.42578125 18.25390625 5.6953125 32.3671875 25.6328125 3.15625 29.88671875 23.609375 6.6796875 31.29296875 35.07421875 -1.19921875 -12.94140625 36.26953125 -1.07421875 -15.3828125 31.5625 -6.796875 -18.76953125 31.42578125 -5.703125 -20.25 28.7890625 -10.0859375 -22.046875 29.56640625 -4.47265625 -20.83203125 26.28515625 -8.59375 -22.9765625 24.9296875 -8.30078125 -21.6796875 23.53125 -14.609375 -24.1796875 22.41796875 -13.84765625 -22.90625 20.9453125 -18.265625 -22.8203125 18.72265625 -25.2890625 -21.1875 20.78125 -20.75 -23.27734375 24.1328125 -24.94921875 -23.19140625 27.0078125 -15.9140625 -23.296875 27.94921875 -15.51953125 -21.06640625 27.82421875 -15.43359375 -19.27734375 30.640625 -6.8125 -17.578125 44.9609375 15.3828125 -24.0234375 56.625 15.86328125 -21.59375 53.5546875 15.09765625 -19.390625 64.94921875 14.56640625 -13.375 60.28515625 14.1484375 -13.4296875 64.8046875 13.6171875 -6.453125 65.859375 13.1328125 0 64.8046875 13.6171875 6.453125 27.0078125 -15.9140625 23.296875 24.1328125 -24.94921875 23.19140625 30.390625 -25.59765625 21.109375 24.08984375 -29.17578125 20.84375 27.78515625 -29.80859375 18.8203125 20.6015625 -28.51171875 17.38671875 32.41796875 -29.2890625 16.41796875 25.83984375 -27.34765625 13.98828125 31.99609375 -27.41015625 11.078125 20.9453125 -18.265625 22.8203125 22.41796875 -13.84765625 22.90625 23.53125 -14.609375 24.1796875 24.9296875 -8.30078125 21.6796875 26.28515625 -8.59375 22.9765625 29.56640625 -4.47265625 20.83203125 28.7890625 -10.0859375 22.046875 31.42578125 -5.703125 20.25 31.5625 -6.796875 18.76953125 36.26953125 -1.07421875 15.3828125 18.72265625 -25.2890625 21.1875 20.78125 -20.75 23.27734375 27.94921875 -15.51953125 21.06640625 30.640625 -6.8125 17.578125 29.11328125 7.50390625 -30.41796875 25.6328125 3.15625 -29.88671875 28.11328125 0.26171875 -25.4140625 23.234375 1.2109375 -27.41796875 25.515625 1.9453125 -23.88671875 20.734375 3.03515625 -24.87890625 24.78515625 2.859375 -18.95703125 15.0625 4.84765625 -21.109375 30.10546875 8.515625 -29.89453125 28.73828125 9.9375 -30.5546875 28.234375 9.25 -30.7890625 48.54296875 34.7265625 20.48828125 61.71484375 19.2421875 11.67578125 66.5859375 16.33203125 5.76953125 65.77734375 13.0625 0 30.51953125 8.7734375 -27.16015625 35.56640625 13.578125 -26.0546875 42.671875 15.1640625 -23.01171875 55.2421875 14.5859375 -19.2421875 54.1328125 14.79296875 -17.8828125 60.84765625 13.81640625 -11.71875 53.65234375 34.2578125 -10.5234375 46.1484375 40.50390625 -11.4140625 19.0234375 1.5703125 -29.42578125 11.46484375 4.86328125 -30.43359375 14.1015625 4.64453125 -25.87109375 7.30859375 6.50390625 -24.73046875 10.0703125 6.94140625 -19.81640625 4.6640625 12.00390625 0 6.5625 10.53125 -9.3125 5.3828125 8.47265625 -18.69921875 54.1328125 14.79296875 17.8828125 55.2421875 14.5859375 19.2421875 60.84765625 13.81640625 11.71875 63.41796875 13.24609375 5.78125 64.39453125 13.37890625 0 64.81640625 12.80078125 -5.99609375 24.08984375 -29.17578125 -20.84375 27.78515625 -29.80859375 -18.8203125 20.6015625 -28.51171875 -17.38671875 25.83984375 -27.34765625 -13.98828125 37.8125 -23.55078125 -16.33984375 41.703125 -21.4375 -12.26953125 36.37109375 -25.9609375 7.83984375 39.3671875 -25.7734375 10.390625 41.703125 -21.4375 12.26953125 18.3984375 10.72265625 33.6328125 23.1875 10.421875 32.12890625 35.6484375 -27.8203125 13.7109375 37.8125 -23.55078125 16.33984375 33.90234375 -25.078125 19.13671875 57.8984375 7.84765625 11.9609375 60.69921875 6.671875 0 51.578125 -1.796875 5.875 51.85546875 -2.64453125 0 51.578125 -1.796875 -5.875 44.6875 -6.20703125 -5.59765625 41.59765625 -4.85546875 -12.02734375 54.76953125 12.48046875 20.52734375 61.90234375 11.15625 12.61328125 64.5 10.7109375 6.3046875 45.95703125 17.4453125 25.75 35.43359375 14.6171875 30.41796875 34.109375 0.546875 -21.109375 44.69921875 4.0390625 -20.671875 50.671875 0.15234375 -11.7265625 23.234375 1.2109375 27.41796875 38.80859375 -2.796875 -9.390625 32.21875 -0.0703125 -14.72265625 50.51171875 8.97265625 20.66015625 63.41796875 13.24609375 -5.78125 62.09765625 13.65625 -12.39453125 11.48046875 10.7265625 -33.09375 56.33203125 13.76953125 -21.234375 34.9609375 -0.1484375 16.8984375 32.21484375 -0.0703125 14.72265625 27.7734375 -4.3203125 19.46875 34.9609375 -0.1484375 -16.8984375 32.21484375 -0.0703125 -14.72265625 27.7734375 -4.3203125 -19.46875 35.51171875 13.57421875 -27.28515625 35.84375 13.3046875 -29.6953125 45.70703125 15.23046875 -27.33984375 36.26171875 12.0234375 -29.828125 31.5859375 9.01171875 28.0234375 35.51171875 13.57421875 27.28515625 44.9609375 15.3828125 24.0234375 43.30078125 15.32421875 24.671875 42.671875 15.1640625 23.01171875 35.07421875 -1.19921875 12.94140625 30.484375 8.98046875 27.6640625 30.484375 8.98046875 -27.6640625 30.0546875 8.66796875 -29.52734375 32.21875 -0.0703125 14.72265625 50.671875 0.15234375 11.7265625 27.21484375 -19.7265625 -18.83984375 40.7578125 -13.21875 0 31.5859375 9.01171875 -28.0234375 34.92578125 -25.10546875 7.31640625 34.92578125 -25.10546875 -7.31640625 60.28515625 14.1484375 13.4296875 53.5546875 15.09765625 19.390625 35.765625 13.27734375 27.9453125 30.51953125 8.7734375 27.16015625 35.56640625 13.578125 26.0546875 31.67578125 -26.140625 -10.265625 31.67578125 -26.140625 10.265625</float_array>
                    <technique_common>
                        <accessor count="327" source="#pointarray0" stride="3">
                            <param name="X" type="float"/>
                            <param name="Y" type="float"/>
                            <param name="Z" type="float"/>
                        </accessor>
                    </technique_common>
                </source>
                <source id="uvs0">
                    <float_array id="uvarray0" count="426">0.39373779296875 0.49755859375 0.3375244140625 0.4949951171875 0.39215087890625 0.475341796875 0.32183837890625 0.47845458984375 0.3721923828125 0.4617919921875 0.31561279296875 0.4617919921875 0.31317138671875 0.44000244140625 0.254150390625 0.4478759765625 0.311767578125 0.4263916015625 0.254150390625 0.427001953125 0.3121337890625 0.4190673828125 0.254150390625 0.41766357421875 0.3125 0.41180419921875 0.254150390625 0.40826416015625 0.3104248046875 0.39202880859375 0.254150390625 0.3896484375 0.317138671875 0.37744140625 0.254150390625 0.37493896484375 0.28875732421875 0.36065673828125 0.254150390625 0.35943603515625 0.254150390625 0.35003662109375 0.29022216796875 0.351318359375 0.32330322265625 0.3619384765625 0.32623291015625 0.3525390625 0.36785888671875 0.37225341796875 0.37640380859375 0.364501953125 0.4124755859375 0.38262939453125 0.426513671875 0.37640380859375 0.4703369140625 0.40557861328125 0.43963623046875 0.37078857421875 0.48101806640625 0.4029541015625 0.5062255859375 0.93243408203125 0.5819091796875 0.93798828125 0.5062255859375 0.920166015625 0.58404541015625 0.92919921875 0.5062255859375 0.9105224609375 0.5855712890625 0.9202880859375 0.5062255859375 0.89617919921875 0.58746337890625 0.9041748046875 0.5062255859375 0.85418701171875 0.5914306640625 0.862548828125 0.59375 0.82086181640625 0.6624755859375 0.870849609375 0.6624755859375 0.8292236328125 0.729248046875 0.87921142578125 0.7562255859375 0.85003662109375 0.8026123046875 0.88812255859375 0.79998779296875 0.862548828125 0.8812255859375 0.88751220703125 0.86248779296875 0.875 0.856201171875 0.8375244140625 0.9918212890625 0.59075927734375 0.96014404296875 0.59600830078125 0.96636962890625 0.58978271484375 0.93511962890625 0.58770751953125 0.94921875 0.57989501953125 0.9241943359375 0.5633544921875 0.94140625 0.555419921875 0.89923095703125 0.54681396484375 0.90386962890625 0.539794921875 0.83203125 0.52740478515625 0.83514404296875 0.51898193359375 0.79693603515625 0.51373291015625 0.84136962890625 0.5106201171875 0.80010986328125 0.5064697265625 0.80322265625 0.50018310546875 0.7587890625 0.50225830078125 0.7587890625 0.49603271484375 0.4979248046875 0.4658203125 0.4879150390625 0.4620361328125 0.49835205078125 0.451171875 0.4833984375 0.4481201171875 0.49835205078125 0.4371337890625 0.47900390625 0.43548583984375 0.457763671875 0.40869140625 0.4639892578125 0.4371337890625 0.42498779296875 0.41802978515625 0.45623779296875 0.44097900390625 0.41900634765625 0.444091796875 0.43463134765625 0.4617919921875 0.44061279296875 0.4888916015625 0.3721923828125 0.42950439453125 0.368896484375 0.4185791015625 0.4046630859375 0.40765380859375 0.38433837890625 0.397216796875 0.32952880859375 0.34112548828125 0.2918701171875 0.33984375 0.29364013671875 0.4964599609375 0.254150390625 0.481201171875 0.254150390625 0.46453857421875 0.9927978515625 0.58892822265625 0.9788818359375 0.5731201171875 0.96636962890625 0.5751953125 0.9542236328125 0.55267333984375 0.92950439453125 0.5322265625 0.9163818359375 0.53564453125 0.84765625 0.50439453125 0.7587890625 0.508544921875 0.6519775390625 0.94622802734375 0.654541015625 0.93353271484375 0.7183837890625 0.96136474609375 0.7210693359375 0.948486328125 0.8143310546875 0.97064208984375 0.80657958984375 0.9302978515625 0.86248779296875 0.92919921875 0.87261962890625 0.6474609375 0.92266845703125 0.633544921875 0.87890625 0.62939453125 0.9163818359375 0.62310791015625 0.87261962890625 0.6085205078125 0.91015625 0.61273193359375 0.89141845703125 0.58978271484375 0.93511962890625 0.6043701171875 0.76043701171875 0.55908203125 0.7606201171875 0.5689697265625 0.79107666015625 0.55963134765625 0.81011962890625 0.579345703125 0.833984375 0.56158447265625 0.89141845703125 0.55853271484375 0.4716796875 0.44805908203125 0.46270751953125 0.451416015625 0.4775390625 0.45941162109375 0.46917724609375 0.4617919921875 0.3656005859375 0.40765380859375 0.847412109375 0.66326904296875 0.8759765625 0.6627197265625 0.92889404296875 0.64605712890625 0.96014404296875 0.633544921875 0.9476318359375 0.62310791015625 0.98516845703125 0.62103271484375 0.97265625 0.610595703125 0.99066162109375 0.61163330078125 0.99407958984375 0.602294921875 0.71697998046875 0.71044921875 0.731201171875 0.70001220703125 0.8125 0.75836181640625 0.83123779296875 0.75 0.8779296875 0.7933349609375 0.8499755859375 0.737548828125 0.913818359375 0.77947998046875 0.9375 0.7708740234375 0.95623779296875 0.8375244140625 0.981201171875 0.8375244140625 0.99371337890625 0.875 1 0.95001220703125 0.97705078125 0.89483642578125 0.94708251953125 0.91668701171875 0.9124755859375 0.8375244140625 0.86871337890625 0.8375244140625 0.79998779296875 0.76251220703125 0.119384765625 0.24267578125 0.11944580078125 0.22723388671875 0.10638427734375 0.2362060546875 0.06988525390625 0.2108154296875 0.0701904296875 0.22259521484375 0.0384521484375 0.20947265625 0.02777099609375 0.21429443359375 0.00701904296875 0.2081298828125 0.00701904296875 0.21337890625 0.93121337890625 0.9666748046875 0.88824462890625 0.9752197265625 0.96246337890625 1 0.856201171875 1 0.99322509765625 0.5914306640625 0.94140625 0.61376953125 0.254150390625 0.338623046875 0.17462158203125 0.2779541015625 0.1607666015625 0.27801513671875 0.1636962890625 0.2657470703125 0.1534423828125 0.26849365234375 0.1400146484375 0.24188232421875 0.13165283203125 0.24609375 0.1087646484375 0.2286376953125 0.10223388671875 0.23419189453125 0.07275390625 0.2222900390625 0.254150390625 0.4915771484375 0.07757568359375 0.2154541015625 0.03973388671875 0.2178955078125 0.0421142578125 0.21173095703125 0.00665283203125 0.2135009765625 0.00665283203125 0.20806884765625 0.724609375 0.92144775390625 0.65753173828125 0.91253662109375 0.4495849609375 0.202880859375 0.275390625 0.180908203125 0.3568115234375 0.25689697265625 0.2767333984375 0.25689697265625 0.278564453125 0.31988525390625 0.357421875 0.32000732421875 0.45458984375 0.32806396484375 0.75909423828125 0.5205078125 0.38458251953125 0.35595703125 0.8341064453125 0.5465087890625 0.84454345703125 0.59393310546875 0.74371337890625 0.69171142578125 0.7562255859375 0.683349609375 0.86871337890625 0.72503662109375 0.13861083984375 0.2520751953125 0.1497802734375 0.24688720703125 0.1346435546875 0.237060546875 0.45416259765625 0.27215576171875 0.99212646484375 0.5897216796875 0.1641845703125 0.2679443359375 0.1607666015625 0.2730712890625 0.166015625 0.270751953125 0.1685791015625 0.2762451171875 0.16351318359375 0.2796630859375 0.166259765625 0.28619384765625 0.1717529296875 0.282958984375 0.16888427734375 0.27685546875 0.5062255859375 0.81671142578125 0.6492919921875 0.9549560546875 0.71807861328125 0.9718017578125</float_array>
                    <technique_common>
                        <accessor count="213" source="#uvarray0" stride="2">
                            <param name="S" type="float"/>
                            <param name="T" type="float"/>
                        </accessor>
                    </technique_common>
                </source>
                <vertices id="vertices0">
                    <input semantic="POSITION" source="#points0"/>
                </vertices>
                <polylist count="566" material="Material1">
                    <input offset="0" semantic="VERTEX" source="#vertices0"/>
                    <input offset="1" semantic="TEXCOORD" source="#uvs0" set="0"/>
                    <vcount>3 3 3 3 3 3 3 3 3 3 3 3 3 3 3 3 3 3 3 3 3 3 3 3 3 3 3 3 3 3 3 3 3 3 3 3 3 3 3 3 3 3 3 3 3 3 3 3 3 3 3 3 3 3 3 3 3 3 3 3 3 3 3 3 3 3 3 3 3 3 3 3 3 3 3 3 3 3 3 3 3 3 3 3 3 3 3 3 3 3 3 3 3 3 3 3 3 3 3 3 3 3 3 3 3 3 3 3 3 3 3 3 3 3 3 3 3 3 3 3 3 3 3 3 3 3 3 3 3 3 3 3 3 3 3 3 3 3 3 3 3 3 3 3 3 3 3 3 3 3 3 3 3 3 3 3 3 3 3 3 3 3 3 3 3 3 3 3 3 3 3 3 3 3 3 3 3 3 3 3 3 3 3 3 3 3 3 3 3 3 3 3 3 3 3 3 3 3 3 3 3 3 3 3 3 3 3 3 3 3 3 3 3 3 3 3 3 3 3 3 3 3 3 3 3 3 3 3 3 3 3 3 3 3 3 3 3 3 3 3 3 3 3 3 3 3 3 3 3 3 3 3 3 3 3 3 3 3 3 3 3 3 3 3 3 3 3 3 3 3 3 3 3 3 3 3 3 3 3 3 3 3 3 3 3 3 3 3 3 3 3 3 3 3 3 3 3 3 3 3 3 3 3 3 3 3 3 3 3 3 3 3 3 3 3 3 3 3 3 3 3 3 3 3 3 3 3 3 3 3 3 3 3 3 3 3 3 3 3 3 3 3 3 3 3 3 3 3 3 3 3 3 3 3 3 3 3 3 3 3 3 3 3 3 3 3 3 3 3 3 3 3 3 3 3 3 3 3 3 3 3 3 3 3 3 3 3 3 3 3 3 3 3 3 3 3 3 3 3 3 3 3 3 3 3 3 3 3 3 3 3 3 3 3 3 3 3 3 3 3 3 3 3 3 3 3 3 3 3 3 3 3 3 3 3 3 3 3 3 3 3 3 3 3 3 3 3 3 3 3 3 3 3 3 3 3 3 3 3 3 3 3 3 3 3 3 3 3 3 3 3 3 3 3 3 3 3 3 3 3 3 3 3 3 3 3 3 3 3 3 3 3 3 3 3 3 3 3 3 3 3 3 3 3 3 3 3 3 3 3 3 3 3 3 3 3 3 3 3 3 3 3 3 3 3 3 3 3 3 3 3 3 3 3 3 3 3 3 3 3 3 3 3 3 3 3 3 3 3 3 3 3 3 3 3 3 3 3 3 3 3 3 3 3 3 3</vcount>
                    <p>2 2 1 1 0 0 3 3 1 1 2 2 4 4 3 3 2 2 5 5 3 3 4 4 6 6 5 5 4 4 7 7 5 5 6 6 8 8 7 7 6 6 9 9 7 7 8 8 10 10 9 9 8 8 11 11 9 9 10 10 12 12 11 11 10 10 13 13 11 11 12 12 14 14 13 13 12 12 15 15 13 13 14 14 16 16 15 15 14 14 17 17 15 15 16 16 18 18 17 17 16 16 19 19 17 17 18 18 20 20 19 19 18 18 21 18 19 19 20 20 22 21 21 18 20 20 23 22 21 18 22 21 24 23 23 22 22 21 25 24 23 22 24 23 26 25 25 24 24 23 27 26 25 24 26 25 28 27 27 26 26 25 29 28 27 26 28 27 30 29 29 28 28 27 31 30 29 28 30 29 34 33 33 32 32 31 35 34 33 32 34 33 36 35 35 34 34 33 37 36 35 34 36 35 38 37 37 36 36 35 39 38 37 36 38 37 40 39 39 38 38 37 41 40 39 38 40 39 42 41 41 40 40 39 43 42 41 40 42 41 44 43 43 42 42 41 45 44 43 42 44 43 46 45 45 44 44 43 47 46 45 44 46 45 48 47 47 46 46 45 49 48 47 46 48 47 50 49 49 48 48 47 51 50 49 48 50 49 54 53 53 52 52 51 55 54 53 52 54 53 56 55 55 54 54 53 57 56 55 54 56 55 58 57 57 56 56 55 59 58 57 56 58 57 60 59 59 58 58 57 61 60 59 58 60 59 62 61 61 60 60 59 63 62 61 60 62 61 64 63 63 62 62 61 65 64 63 62 64 63 66 65 65 64 64 63 67 66 65 64 66 65 68 67 67 66 66 65 69 65 67 66 68 67 72 43 71 44 70 45 73 42 71 44 72 43 74 41 73 42 72 43 75 40 73 42 74 41 40 39 75 40 74 41 76 38 75 40 40 39 38 37 76 38 40 39 77 36 76 38 38 37 36 35 77 36 38 37 78 34 77 36 36 35 34 33 78 34 36 35 79 32 78 34 34 33 32 31 79 32 34 33 82 70 81 69 80 68 83 71 81 69 82 70 84 72 83 71 82 70 85 73 83 71 84 72 86 74 85 73 84 72 87 75 85 73 86 74 88 76 87 75 86 74 89 77 87 75 88 76 90 78 89 77 88 76 91 79 89 77 90 78 2 2 91 79 90 78 92 80 91 79 2 2 0 0 92 80 2 2 90 78 4 4 2 2 93 81 4 4 90 78 88 76 93 81 90 78 94 82 93 81 88 76 95 83 94 82 88 76 96 84 94 82 95 83 97 26 96 84 95 83 98 24 96 84 97 26 99 25 98 24 97 26 100 23 98 24 99 25 101 85 100 23 99 25 102 86 100 23 101 85 3 3 103 87 1 1 104 88 103 87 3 3 105 89 104 88 3 3 106 3 104 88 105 89 107 5 106 3 105 89 108 4 106 3 107 5 109 6 108 4 107 5 110 81 108 4 109 6 111 8 110 81 109 6 112 10 110 81 111 8 9 9 112 10 111 8 11 11 112 10 9 9 114 92 113 91 80 90 115 93 113 91 114 92 116 57 115 93 114 92 117 94 115 93 116 57 118 95 117 94 116 57 119 96 117 94 118 95 120 63 119 96 118 95 69 65 119 96 120 63 121 64 69 65 120 63 67 66 69 65 121 64 122 97 67 66 121 64 123 98 77 36 78 34 124 99 77 36 123 98 125 100 124 99 123 98 126 101 124 99 125 100 127 102 126 101 125 100 128 103 126 101 127 102 129 104 128 103 127 102 130 46 128 103 129 104 131 48 130 46 129 104 132 47 130 46 131 48 135 107 134 106 133 105 136 108 134 106 135 107 137 109 136 108 135 107 138 110 136 108 137 109 139 111 138 110 137 109 140 112 138 110 139 111 141 54 140 112 139 111 142 52 140 112 141 54 143 53 142 52 141 54 80 51 142 52 143 53 146 115 145 114 144 113 147 116 145 114 146 115 148 117 147 116 146 115 139 111 147 116 148 117 149 118 139 111 148 117 141 54 139 111 149 118 150 56 141 54 149 118 151 55 141 54 150 56 116 57 151 55 150 56 114 92 151 55 116 57 27 26 152 84 25 24 153 83 152 84 27 26 154 74 153 83 27 26 155 76 153 83 154 74 156 75 155 76 154 74 157 77 155 76 156 75 158 119 157 77 156 75 159 120 157 77 158 119 160 121 159 120 158 119 161 122 159 120 160 121 108 4 162 2 106 3 163 78 162 2 108 4 110 81 163 78 108 4 155 76 163 78 110 81 164 82 155 76 110 81 153 83 155 76 164 82 165 123 153 83 164 82 152 84 153 83 165 123 166 16 152 84 165 123 25 24 152 84 166 16 133 105 1 125 103 124 0 126 1 125 133 105 134 106 0 126 133 105 92 127 0 126 134 106 167 128 92 127 134 106 168 129 92 127 167 128 169 130 168 129 167 128 170 131 168 129 169 130 81 132 170 131 169 130 173 135 172 134 171 133 174 136 172 134 173 135 175 137 174 136 173 135 176 138 174 136 175 137 177 139 176 138 175 137 178 140 176 138 177 139 179 141 178 140 177 139 180 142 178 140 179 141 181 143 180 142 179 141 183 145 182 144 181 143 184 146 182 144 183 145 185 147 184 146 183 145 131 48 184 146 185 147 186 148 131 48 185 147 187 50 131 48 186 148 173 135 187 50 186 148 188 149 187 50 173 135 171 133 188 149 173 135 191 152 190 151 189 150 192 153 190 151 191 152 193 154 192 153 191 152 66 155 192 153 193 154 194 156 66 155 193 154 68 157 66 155 194 156 195 158 68 157 194 156 196 156 68 157 195 158 198 146 49 48 197 147 199 104 49 48 198 146 200 159 199 104 198 146 201 160 199 104 200 159 202 161 201 160 200 159 203 102 201 160 202 161 204 162 203 102 202 161 205 100 203 102 204 162 208 141 207 142 206 143 209 140 207 142 208 141 210 139 209 140 208 141 211 138 209 140 210 139 212 137 211 138 210 139 213 136 211 138 212 137 214 135 213 136 212 137 215 134 213 136 214 135 217 145 206 143 216 144 208 141 206 143 217 145 197 147 208 141 217 145 212 137 208 141 197 147 218 148 212 137 197 147 214 135 212 137 218 148 51 50 214 135 218 148 219 149 214 135 51 50 53 52 220 132 52 163 221 130 220 132 53 52 222 112 221 130 53 52 223 164 221 130 222 112 224 110 223 164 222 112 225 108 223 164 224 110 226 109 225 108 224 110 227 107 225 108 226 109 228 72 29 28 31 30 154 74 29 28 228 72 229 73 154 74 228 72 156 75 154 74 229 73 230 71 156 75 229 73 158 119 156 75 230 71 220 69 158 119 230 71 160 121 158 119 220 69 96 84 231 123 94 82 16 16 231 123 96 84 98 24 16 16 96 84 232 22 16 16 98 24 100 23 232 22 98 24 233 21 232 22 100 23 102 86 233 21 100 23 234 165 233 21 102 86 31 168 235 167 228 166 236 169 235 167 31 168 30 170 236 169 31 168 237 171 236 169 30 170 238 172 237 171 30 170 239 173 237 171 238 172 240 174 239 173 238 172 166 16 15 15 17 17 241 14 15 15 166 16 165 123 241 14 166 16 242 12 241 14 165 123 164 82 242 12 165 123 112 10 242 12 164 82 110 81 112 10 164 82 221 130 160 131 220 132 161 129 160 131 221 130 243 128 161 129 221 130 244 127 161 129 243 128 245 106 244 127 243 128 246 126 244 127 245 106 247 105 246 126 245 106 104 88 248 175 103 87 249 87 248 175 104 88 106 3 249 87 104 88 250 1 249 87 106 3 162 2 250 1 106 3 246 0 250 1 162 2 244 80 246 0 162 2 253 174 252 172 251 173 101 176 252 172 253 174 254 177 101 176 253 174 102 178 101 176 254 177 255 179 102 178 254 177 234 180 102 178 255 179 256 178 234 180 255 179 129 104 184 146 131 48 257 159 184 146 129 104 258 160 257 159 129 104 259 161 257 159 258 160 127 102 259 161 258 160 260 162 259 161 127 102 125 100 260 162 127 102 71 44 128 103 130 46 261 181 128 103 71 44 262 182 261 181 71 44 124 99 261 181 262 182 76 38 124 99 262 182 77 36 124 99 76 38 37 36 263 98 35 34 264 99 263 98 37 36 39 38 264 99 37 36 265 182 264 99 39 38 41 40 265 182 39 38 43 42 265 182 41 40 168 122 91 79 92 80 266 120 91 79 168 122 170 121 266 120 168 122 267 119 266 120 170 121 81 69 267 119 170 121 83 71 267 119 81 69 264 99 205 100 263 98 268 101 205 100 264 99 269 181 268 101 264 99 270 103 268 101 269 181 45 44 270 103 269 181 47 46 270 103 45 44 273 185 272 184 271 183 274 186 272 184 273 185 144 187 274 186 273 185 275 185 274 186 144 187 276 188 275 185 144 187 277 189 275 185 276 188 278 59 118 95 116 57 120 63 118 95 278 59 279 61 120 63 278 59 280 62 120 63 279 61 271 60 280 62 279 61 272 190 280 62 271 60 99 25 252 191 101 85 281 27 252 191 99 25 97 26 281 27 99 25 282 28 281 27 97 26 86 74 282 28 97 26 84 72 282 28 86 74 199 104 47 46 49 48 270 103 47 46 199 104 203 102 270 103 199 104 268 101 270 103 203 102 205 100 268 101 203 102 94 82 10 10 93 81 12 12 10 10 94 82 231 123 12 12 94 82 14 14 12 12 231 123 16 16 14 14 231 123 55 54 222 112 53 52 283 111 222 112 55 54 284 118 283 111 55 54 277 117 283 111 284 118 285 192 277 117 284 118 169 130 140 112 142 52 286 164 140 112 169 130 167 128 286 164 169 130 136 108 286 164 167 128 134 106 136 108 167 128 21 18 17 17 19 19 166 16 17 17 21 18 23 22 166 16 21 18 25 24 166 16 23 22 63 62 272 190 61 60 122 97 272 190 63 62 65 64 122 97 63 62 67 66 122 97 65 64 287 116 277 117 276 115 283 111 277 117 287 116 288 193 283 111 287 116 226 109 283 111 288 193 278 59 271 60 279 61 289 58 271 60 278 59 116 57 289 58 278 59 150 56 289 58 116 57 290 177 256 178 255 179 291 176 256 178 290 177 240 174 291 176 290 177 238 172 291 176 240 174 157 77 163 78 155 76 292 79 163 78 157 77 159 120 292 79 157 77 161 122 292 79 159 120 64 63 192 96 66 65 293 95 192 96 64 63 60 59 293 95 64 63 58 57 293 95 60 59 294 194 213 136 215 134 211 138 213 136 294 194 295 195 211 138 294 194 296 196 211 138 295 195 176 138 298 195 297 194 299 196 298 195 176 138 178 140 299 196 176 138 87 75 83 71 85 73 267 119 83 71 87 75 89 77 267 119 87 75 189 150 301 198 300 197 302 199 301 198 189 150 190 151 302 199 189 150 275 185 272 184 274 186 61 183 272 184 275 185 285 200 61 183 275 185 303 92 54 53 52 201 56 55 54 53 303 92 58 57 56 55 303 92 265 182 269 181 264 99 45 44 269 181 265 182 43 42 45 44 265 182 113 198 304 203 80 202 305 197 304 203 113 198 306 150 305 197 113 198 143 53 114 92 80 201 151 55 114 92 143 53 141 54 151 55 143 53 93 81 6 6 4 4 8 8 6 6 93 81 10 10 8 8 93 81 292 79 162 2 163 78 244 80 162 2 292 79 161 122 244 80 292 79 262 182 75 40 76 38 73 42 75 40 262 182 71 44 73 42 262 182 7 7 107 5 105 89 109 6 107 5 7 7 111 8 109 6 7 7 308 171 252 172 307 170 251 173 252 172 308 171 198 146 217 145 216 144 197 147 217 145 198 146 200 159 216 144 202 161 198 146 216 144 200 159 218 148 49 48 51 50 197 147 49 48 218 148 309 133 214 135 219 149 215 134 214 135 309 133 304 203 82 205 80 204 310 206 82 205 304 203 291 85 26 25 24 23 238 191 26 25 291 85 311 206 228 208 235 207 312 209 228 208 311 206 313 193 139 111 137 109 147 116 139 111 313 193 149 118 289 58 150 56 271 60 289 58 149 118 122 97 280 62 272 190 121 64 280 62 122 97 174 136 297 194 172 134 176 138 297 194 174 136 186 148 175 137 173 135 185 147 175 137 186 148 273 185 146 188 144 187 148 189 146 188 273 185 314 200 273 185 271 183 148 189 273 185 314 200 175 137 179 141 177 139 185 147 179 141 175 137 183 145 179 141 185 147 181 143 179 141 183 145 315 49 131 48 187 50 132 47 131 48 315 49 70 45 130 46 132 47 71 44 130 46 70 45 316 210 40 39 74 41 42 41 40 39 316 210 261 181 126 101 128 103 124 99 126 101 261 181 182 144 257 159 259 161 184 146 257 159 182 144 241 14 13 13 15 15 242 12 13 13 241 14 232 22 18 18 16 16 233 21 18 18 232 22 228 72 230 71 229 73 312 70 230 71 228 72 266 120 89 77 91 79 267 119 89 77 266 120 5 5 105 89 3 3 7 7 105 89 5 5 61 60 284 118 59 58 285 192 284 118 61 60 293 95 190 94 192 96 58 57 190 94 293 95 317 203 312 205 311 206 52 204 312 205 317 203 314 192 149 118 148 117 271 60 149 118 314 192 81 132 142 52 80 163 169 130 142 52 81 132 317 203 301 198 52 202 300 197 301 198 317 203 225 108 245 106 243 128 227 107 245 106 225 108 223 164 243 128 221 130 225 108 243 128 223 164 283 111 224 110 222 112 226 109 224 110 283 111 57 56 284 118 55 54 59 58 284 118 57 56 145 114 276 115 144 113 287 116 276 115 145 114 250 125 247 105 249 124 246 126 247 105 250 125 301 91 303 92 52 90 302 93 303 92 301 91 318 211 35 34 263 98 33 32 35 34 318 211 78 34 319 211 123 98 79 32 319 211 78 34 97 26 88 76 86 74 95 83 88 76 97 26 196 156 69 155 68 157 320 154 69 155 196 156 119 153 320 154 321 152 69 155 320 154 119 153 323 167 322 168 84 166 324 169 322 168 323 167 220 69 312 70 52 68 230 71 312 70 220 69 302 93 58 57 303 92 190 94 58 57 302 93 117 151 321 152 306 150 119 153 321 152 117 151 115 199 306 150 113 198 117 151 306 150 115 199 324 169 307 170 322 168 308 171 307 170 324 169 286 164 138 110 140 112 136 108 138 110 286 164 307 29 281 27 282 28 252 191 281 27 307 29 322 30 282 28 84 72 307 29 282 28 322 30 310 206 84 208 82 209 323 207 84 208 310 206 256 86 24 23 22 21 291 85 24 23 256 86 234 165 22 21 20 20 256 86 22 21 234 165 233 21 20 20 18 18 234 165 20 20 233 21 28 27 238 191 30 29 26 25 238 191 28 27 242 12 11 11 13 13 112 10 11 11 242 12 125 100 123 98 319 211 260 162 125 100 325 212 325 212 125 100 319 211 211 138 296 196 209 140 208 141 212 137 210 139 204 162 326 212 205 100 203 102 199 104 201 160 326 212 318 211 205 100 205 100 318 211 263 98 29 28 154 74 27 26 120 63 280 62 121 64 64 63 62 61 60 59 275 185 277 189 285 200 227 107 247 105 245 106 127 102 258 160 129 104 111 8 7 7 9 9</p>
                </polylist>
            </mesh>
        </geometry>
    </library_geometries>
    <library_visual_scenes>
        <visual_scene id="VisualSceneNode">
            <node id="node0" name="m0" type="NODE">
                <instance_geometry url="#mesh0">
                    <bind_material>
                        <technique_common>
                            <instance_material symbol="Material1" target="#mat0">
                                <bind_vertex_input semantic="UVSET0" input_semantic="TEXCOORD" input_set="0"></bind_vertex_input>
                            </instance_material>
                        </technique_common>
                    </bind_material>
                </instance_geometry>
            </node>
        </visual_scene>
    </library_visual_scenes>
    <scene>
        <instance_visual_scene url="#VisualSceneNode"></instance_visual_scene>
    </scene>
</COLLADA>
