<?xml version="1.0"?>
<COLLADA xmlns="http://www.collada.org/2005/11/COLLADASchema" version="1.4.1">
    <asset>
        <contributor>
            <authoring_tool>J3D Ripoff Exporter</authoring_tool>
        </contributor>
        <created>2024-08-02T13:56:59.010Z</created>
        <modified>2024-08-02T13:56:59.010Z</modified>
		<unit meter="0.01" name="centimeter" ></unit>
        <up_axis>Y_UP</up_axis>
    </asset>
    <library_images>
        <image id="tex0">
            <init_from>donkey_all.png</init_from>
        </image>
    </library_images>
    <library_effects>
        <effect id="effect0">
            <profile_COMMON>
                <newparam sid="surface0">
                    <surface type="2D">
                        <init_from>tex0</init_from>
                    </surface>
                </newparam>
                <newparam sid="sampler0">
                    <sampler2D>
                        <source>surface0</source>
                    </sampler2D>
                </newparam>
                <technique sid="COMMON">
                    <blinn>
                        <diffuse>
                            <texture texture="sampler0" texcoord="UVSET0"></texture>
                        </diffuse>
                    </blinn>
                </technique>
            </profile_COMMON>
        </effect>
    </library_effects>
    <library_materials>
        <material id="mat0" name="Dummy">
            <instance_effect url="#effect0"></instance_effect>
        </material>
    </library_materials>
    <library_geometries>
        <geometry id="mesh0">
            <mesh>
                <source id="points0">
                    <float_array id="pointarray0" count="1716">54.30859375 18.4453125 -15.578125 53.1640625 17.31640625 -15.93359375 53.20703125 16.8125 -16.00390625 52.91015625 17.65625 -15.9375 53.9921875 17.8984375 -17.32421875 53.72265625 20.6171875 -16.88671875 55.08984375 22.12109375 -21.30078125 53.8359375 26.4453125 -20.640625 54.26953125 28.62109375 -26.9375 52.12890625 33.5546875 -24.4453125 49.46875 36.8125 -29.1484375 49.80078125 34.62890625 -21.2265625 47.58984375 37.8046875 -22.29296875 46.83203125 36.16796875 -16.65625 43.4140625 40.73046875 -20.49609375 42.93359375 38.87890625 -17.1875 35.6875 41.05859375 -17.31640625 35.87890625 44.68359375 -14.28515625 26.47265625 41.46875 -17.73828125 26.33203125 44.65234375 -14.41796875 15.94140625 38.48046875 -19.26953125 15.05859375 41.6328125 -15.78125 11.1328125 35.21875 -22.06640625 7.51171875 36.19140625 -16.1640625 8.1484375 27.3671875 -22.6640625 5.08203125 27.59765625 -18.3046875 4.57421875 17.2890625 -18.44921875 3.35546875 17.328125 -10.640625 6.55859375 10.53125 -10.59375 3.39453125 17.875 0 4.66015625 12.00390625 0 6.55859375 10.53125 10.59375 54 19.10546875 -13.55859375 52.75390625 17.33203125 -13.76953125 54.25390625 18.95703125 -15.62109375 54.09765625 18.40625 -13.609375 56.203125 21.12890625 -13.71484375 55.234375 20.07421875 -12.91015625 58.48828125 22.15234375 -12.1796875 57.49609375 20.6640625 -11.390625 60.8203125 22.6875 -10.22265625 58.72265625 21.0859375 -9.3671875 60.05859375 21.390625 -7.2890625 37.4921875 35.70703125 -10.640625 50.859375 33.6015625 0 39.46484375 37.78125 0 37.4921875 35.70703125 10.640625 25.42578125 27.91015625 18.87109375 52.75390625 17.33203125 13.76953125 21.75 18.28515625 17.78515625 26.859375 7.73828125 16.7734375 17.34375 18 0 24.671875 5.1640625 0 26.859375 7.73828125 -16.7734375 45.2421875 6.87109375 -10.12109375 53.9765625 20.796875 16.109375 53.7890625 25.21484375 14.734375 55.41796875 24.16796875 15.19140625 55.0859375 27.828125 13.3125 57.2890625 26.74609375 14.1171875 56.61328125 29.88671875 10.875 59.66015625 29.1015625 11.93359375 58.2734375 31.36328125 8.03515625 61.765625 30.50390625 8.8671875 62.9609375 31.06640625 4.4375 64.90625 26.640625 4.6015625 65.5859375 26.80859375 0 64.3125 23.3984375 0 64.90625 26.640625 -4.6015625 63.8125 23.359375 -4.43359375 63.64453125 26.34375 -8.66796875 62.82421875 23.17578125 -7.6640625 61.32421875 25.640625 -11.44140625 58.46875 24.25390625 -13.20703125 56.65625 22.20703125 -14.421875 59.71484375 32.49609375 0 59.45703125 32.21484375 4.2890625 57.58203125 38.10546875 0 57.24609375 37.90234375 4.51171875 53.6640625 42.66796875 5.203125 55.59375 36.609375 9.41015625 52.39453125 41.2265625 10.16796875 53.6640625 34.484375 13.109375 49.90234375 38.8046875 13.92578125 50.0625 34 15.83984375 46.83203125 36.16796875 16.65625 49.703125 32.68359375 16.41015625 49.80078125 34.62890625 21.2265625 51.65234375 30.203125 19.14453125 52.12890625 33.5546875 24.4453125 53.8359375 26.4453125 20.640625 54.26953125 28.62109375 26.9375 55.08984375 22.12109375 21.30078125 55.23828125 23.53515625 27.77734375 55.1171875 18.10546875 21.484375 55.26171875 17.640625 28.1953125 54.15234375 14.09765625 21.51171875 54.3125 12.1328125 27.61328125 55.23828125 23.53515625 -27.77734375 51.54296875 31.72265625 -32.87109375 52.6640625 24.8203125 -35.20703125 45.91015625 33.80078125 -38.578125 46.26953125 25.92578125 -42.16015625 36.78515625 35.33203125 -43.0234375 36.98046875 26.3359375 -46.18359375 25.95703125 26.7421875 -47.32421875 25.6015625 15.69921875 -47.66796875 16.45703125 26.484375 -46.36328125 16.5 16.07421875 -46.546875 9.4609375 16.5546875 -41.5703125 11.40625 9.01171875 -40.06640625 5.79296875 17.37890625 -35.3125 8.19921875 9.4375 -34.5625 5.19921875 17.33984375 -28.16796875 8.0625 9.3828125 -28.1640625 7.33984375 17.26171875 -22.60546875 9.19921875 9.26953125 -22.546875 7.625 9.75390625 -18.3359375 36.37109375 -26.69140625 -7.83984375 39.484375 -25.63671875 -4.77734375 42.53515625 -24.359375 -5.7890625 43.4140625 -23.453125 0 44.8203125 -19.67578125 0 42.53515625 -24.359375 5.7890625 44.171875 -20.4609375 6.8359375 39.3671875 -26.50390625 10.390625 41.703125 -22.16796875 12.26953125 37.8125 -23.52734375 16.33984375 36.59375 -19.28515625 16.3359375 33.90234375 -25.13671875 19.13671875 32.5625 -20.4765625 19.5078125 30.12109375 -26.0390625 21.109375 27.75390625 -20.48828125 21.08984375 24.1328125 -24.73046875 23.19140625 27.0078125 -15.9140625 23.296875 20.78125 -20.75 23.27734375 23.53125 -14.609375 24.1796875 20.9453125 -18.265625 22.8203125 22.41796875 -13.84765625 22.90625 5.5234375 27.265625 -28.171875 5.99609375 26.9375 -35.2890625 9.54296875 26.4375 -41.94140625 16.82421875 34.93359375 -43.6328125 26.3046875 35.63671875 -44.8359375 26.19921875 42.53125 -36.2265625 36.48046875 42.27734375 -34.5078125 35.921875 43.9609375 -26.37109375 44.96875 39.79296875 -32.09375 44.13671875 40.94921875 -24.9296875 54.30859375 18.4453125 15.578125 57.18359375 19.5 14.953125 57.53125 17.96875 15.22265625 59.94921875 20.0390625 13.23046875 60.25 17.61328125 13.5546875 63.16015625 20.81640625 10.8515625 63.33203125 16.71484375 11.0078125 65.17578125 21.25 7.4296875 65.4921875 16.1796875 7.59375 66.34375 21.4453125 3.59375 66.79296875 15.83984375 3.6484375 67.29296875 15.69140625 0 64.1328125 12.1171875 0 66.79296875 15.83984375 -3.6484375 63.87109375 12.33984375 -3.45703125 65.4921875 16.1796875 -7.59375 63.140625 13.0390625 -7.33203125 61.66796875 14.14453125 -10.80859375 59.96875 12.93359375 -7.19140625 59 14.046875 -10.546875 47.58984375 37.8046875 22.29296875 43.4140625 40.73046875 20.49609375 42.93359375 38.87890625 17.1875 35.6875 41.05859375 17.31640625 35.87890625 44.68359375 14.28515625 26.47265625 41.46875 17.73828125 26.33203125 44.65234375 14.41796875 15.94140625 38.48046875 19.26953125 15.05859375 41.6328125 15.78125 11.1328125 35.21875 22.06640625 7.51171875 36.19140625 16.1640625 8.1484375 27.3671875 22.6640625 5.08203125 27.59765625 18.3046875 4.57421875 17.2890625 18.44921875 3.35546875 17.328125 10.640625 44.13671875 40.94921875 24.9296875 35.921875 43.9609375 26.37109375 35.765625 43.0234375 20.71875 26.34765625 44.05859375 28.0390625 26.25390625 43.08203125 21.390625 16.28515625 41.53515625 30.4609375 15.9296875 41.12890625 23.63671875 10.40625 37.7265625 24.46484375 7.34375 33.65625 27.6796875 5.5234375 27.265625 28.171875 5.19921875 17.33984375 28.16796875 5.79296875 17.37890625 35.3125 8.19921875 9.4375 34.5625 11.40625 9.01171875 40.06640625 53.8125 15.52734375 -17.66015625 55.1171875 18.10546875 -21.484375 54.15234375 14.09765625 -21.51171875 55.26171875 17.640625 -28.1953125 54.3125 12.1328125 -27.61328125 52.5703125 17.19921875 -35.34375 51.36328125 10.6171875 -34.35546875 46.14453125 16.56640625 -42.78515625 45.484375 8.70703125 -41.1171875 36.84375 16.1328125 -46.66796875 36.03125 8.0234375 -44.7265625 25.1953125 8.3046875 -45.09375 16.91796875 8.66015625 -43.6015625 52.50390625 5.8359375 -17.8671875 49.1015625 6.12109375 -18.421875 48.80078125 0.86328125 -16.69921875 46.33203125 3.7421875 -18.578125 44.54296875 0.109375 -17.203125 41.6796875 1.99609375 -18.19921875 37.453125 0.33203125 -17.58984375 40.4296875 -1.03125 -22.28515625 31.1328125 -0.5625 -19.39453125 35.65234375 -2.21484375 -23.96484375 30.609375 -2.6328125 -25.64453125 39.94921875 -1.31640625 -29.78515625 32.1640625 -2.02734375 -32.59765625 42.95703125 2.47265625 -36.25 34.109375 1.40625 -39.421875 49.90234375 38.8046875 -13.92578125 44.3359375 42.15625 -14.31640625 45.74609375 45.3046875 -10.44921875 35.9921875 47.91796875 -10.28125 36.015625 49.42578125 -5.234375 25.57421875 49.40625 -5.26171875 25.3671875 50.05078125 0 13.80859375 45.44921875 -5.5234375 13.4609375 46.1171875 0 5.25 37.4140625 0 13.80859375 45.44921875 5.5234375 5.9140625 36.9921875 10.64453125 14.15234375 44.35546875 10.85546875 46.33203125 3.7421875 18.578125 41.6796875 1.99609375 18.19921875 47.59765625 2.59765625 22.515625 44.33203125 0.125 26.3125 48.27734375 4.41796875 31.6171875 39.94921875 -1.31640625 29.78515625 42.95703125 2.47265625 36.25 32.1640625 -2.02734375 32.59765625 34.109375 1.40625 39.421875 24.33984375 -1.17578125 33.5078125 24.60546875 1.88671875 39.8671875 16.6796875 0.91796875 33.32421875 17.03125 3.51171875 39.78515625 16.91796875 8.66015625 43.6015625 3.57421875 27.89453125 -10.7265625 5.9140625 36.9921875 -10.64453125 14.15234375 44.35546875 -10.85546875 25.78515625 48.0390625 -10.3359375 46.60546875 -5.8125 5.59765625 46.69140625 -6.67578125 0 40.46484375 -5.87890625 0 46.60546875 -5.8125 -5.59765625 38.80859375 -2.796875 -9.390625 45.88671875 -4.109375 -11.5625 50.03125 -2.64453125 -11.875 53.71484375 2.66015625 -16.1953125 55.90625 9.93359375 -15.6640625 54.609375 12.55859375 -16.421875 55.75390625 16.04296875 -14.2109375 54.2578125 16.65234375 -15.32421875 31.99609375 -27.66796875 -11.078125 39.3671875 -26.50390625 -10.390625 44.171875 -20.4609375 -6.8359375 43.50390625 -15.0625 0 42.94921875 -15.80078125 6.60546875 40.4453125 -17.4375 12.19140625 37.61328125 -15.96484375 10.7109375 34.08203125 -17.67578125 14.46875 49.703125 32.68359375 -16.41015625 50.0625 34 -15.83984375 53.6640625 34.484375 -13.109375 52.39453125 41.2265625 -10.16796875 55.59375 36.609375 -9.41015625 53.6640625 42.66796875 -5.203125 57.24609375 37.90234375 -4.51171875 59.45703125 32.21484375 -4.2890625 35.765625 43.0234375 -20.71875 26.34765625 44.05859375 -28.0390625 26.25390625 43.08203125 -21.390625 16.28515625 41.53515625 -30.4609375 15.9296875 41.12890625 -23.63671875 10.40625 37.7265625 -24.46484375 7.34375 33.65625 -27.6796875 37.453125 0.33203125 17.58984375 44.54296875 0.109375 17.203125 48.80078125 0.86328125 16.69921875 49.1015625 6.12109375 18.421875 52.50390625 5.8359375 17.8671875 51.265625 9.234375 18.30078125 52.34375 12.28515625 17.53515625 52.7109375 11.96484375 18.15234375 53.41796875 15.66015625 16.36328125 53.20703125 16.8125 16.00390625 54.2578125 16.65234375 15.32421875 7.4765625 33.3828125 34.8359375 10.68359375 33.02734375 40.71875 9.54296875 26.4375 41.94140625 16.82421875 34.93359375 43.6328125 16.45703125 26.484375 46.36328125 26.3046875 35.63671875 44.8359375 25.95703125 26.7421875 47.32421875 36.78515625 35.33203125 43.0234375 36.98046875 26.3359375 46.18359375 46.26953125 25.92578125 42.16015625 46.14453125 16.56640625 42.78515625 52.6640625 24.8203125 35.20703125 52.5703125 17.19921875 35.34375 32.41796875 -29.7109375 16.41796875 35.6484375 -28.55078125 13.7109375 31.99609375 -27.66796875 11.078125 36.37109375 -26.69140625 7.83984375 39.484375 -25.63671875 4.77734375 39.9375 -24.875 0 38.35546875 -24.03515625 -4.27734375 46.60546875 46.7890625 -5.3515625 36.0703125 50.0390625 0 36.015625 49.42578125 5.234375 25.57421875 49.40625 5.26171875 35.9921875 47.91796875 10.28125 25.78515625 48.0390625 10.3359375 10.1015625 5.87890625 22.05078125 16.5859375 0.71875 27.95703125 15.09375 2.92578125 23.16015625 24.2109375 -1.37890625 27.171875 24.8125 2.24609375 20.30859375 31.1328125 -0.5625 19.39453125 32.21484375 -0.0703125 15.20703125 38.80859375 -2.796875 9.390625 45.88671875 -4.109375 11.5625 50.03125 -2.64453125 11.875 20.6015625 -28.51171875 -17.38671875 25.83984375 -27.34765625 -13.98828125 32.41796875 -29.7109375 -16.41796875 35.6484375 -28.55078125 -13.7109375 37.8125 -23.52734375 -16.33984375 41.703125 -22.16796875 -12.26953125 36.59375 -19.28515625 -16.3359375 40.4453125 -17.4375 -12.19140625 37.61328125 -15.96484375 -10.7109375 39.7421875 -14.60546875 -5.62890625 24.1328125 -24.73046875 -23.19140625 18.72265625 -25.2890625 -21.1875 24.08984375 -28.92578125 -20.84375 27.78515625 -30.328125 -18.8203125 30.12109375 -26.0390625 -21.109375 33.90234375 -25.13671875 -19.13671875 32.5625 -20.4765625 -19.5078125 34.08203125 -17.67578125 -14.46875 24.2109375 -1.37890625 -27.171875 24.33984375 -1.17578125 -33.5078125 24.60546875 1.88671875 -39.8671875 17.03125 3.51171875 -39.78515625 52.34375 12.28515625 -17.53515625 51.265625 9.234375 -18.30078125 51.78515625 8.5 -21.46484375 47.59765625 2.59765625 -22.515625 51.64453125 6.828125 -26.04296875 48.27734375 4.41796875 -31.6171875 10.90234375 38.4140625 30.96484375 12.75390625 36.90625 36.2890625 16.84765625 40.24609375 38.703125 26.19921875 42.53125 36.2265625 51.36328125 10.6171875 34.35546875 45.484375 8.70703125 41.1171875 36.84375 16.1328125 46.66796875 36.03125 8.0234375 44.7265625 25.6015625 15.69921875 47.66796875 25.1953125 8.3046875 45.09375 16.5 16.07421875 46.546875 57.18359375 19.5 -14.953125 55.0625 20.6484375 -13.00390625 57.22265625 21.43359375 -11.67578125 56.78125 7.71484375 0 59.515625 21.98828125 -9.58984375 61.23046875 22.1875 -6.578125 65.17578125 21.25 -7.4296875 66.34375 21.4453125 -3.59375 54.0625 43.05078125 0 46.60546875 46.7890625 5.3515625 45.74609375 45.3046875 10.44921875 44.3359375 42.15625 14.31640625 49.46875 36.8125 29.1484375 51.54296875 31.72265625 32.87109375 16.84765625 40.24609375 -38.703125 12.75390625 36.90625 -36.2890625 10.68359375 33.02734375 -40.71875 10.90234375 38.4140625 -30.96484375 7.4765625 33.3828125 -34.8359375 30.640625 -6.8125 -17.578125 31.5625 -6.796875 -18.76953125 27.82421875 -15.43359375 -19.27734375 27.94921875 -15.51953125 -21.06640625 27.75390625 -20.48828125 -21.08984375 27.0078125 -15.9140625 -23.296875 20.78125 -20.75 -23.27734375 20.9453125 -18.265625 -22.8203125 58.48828125 22.15234375 12.1796875 55.234375 20.07421875 12.91015625 56.203125 21.12890625 13.71484375 54.09765625 18.40625 13.609375 54.25390625 18.95703125 15.62109375 53.1640625 17.31640625 15.93359375 54 19.10546875 13.55859375 18.72265625 -25.2890625 21.1875 24.08984375 -28.92578125 20.84375 27.78515625 -30.328125 18.8203125 20.6015625 -28.51171875 17.38671875 25.83984375 -27.34765625 13.98828125 56.65625 22.20703125 14.421875 58.46875 24.25390625 13.20703125 61.32421875 25.640625 11.44140625 60.8203125 22.6875 10.22265625 62.82421875 23.17578125 7.6640625 53.72265625 20.6171875 16.88671875 52.9140625 24.36328125 16.13671875 53.45703125 21.51953125 15.91796875 51.765625 28.3671875 15.9921875 52.328125 31.69921875 14.73828125 63.33203125 16.71484375 -11.0078125 60.25 17.61328125 -13.5546875 58.97265625 15.71484375 -13.3984375 56.984375 16.69921875 -14.77734375 54.4609375 17.07421875 -15.515625 51.65234375 30.203125 -19.14453125 51.765625 28.3671875 -15.9921875 52.328125 31.69921875 -14.73828125 56.61328125 29.88671875 -10.875 58.2734375 31.36328125 -8.03515625 30.609375 -2.6328125 25.64453125 35.65234375 -2.21484375 23.96484375 40.4296875 -1.03125 22.28515625 24.9296875 -8.30078125 21.6796875 26.28515625 -8.59375 22.9765625 28.7890625 -10.0859375 22.046875 29.56640625 -4.47265625 20.83203125 31.42578125 -5.703125 20.25 34.9609375 -0.1484375 16.8984375 36.26953125 -1.07421875 15.3828125 35.07421875 -1.19921875 -12.94140625 36.26953125 -1.07421875 -15.3828125 31.42578125 -5.703125 -20.25 34.9609375 -0.1484375 -16.8984375 29.56640625 -4.47265625 -20.83203125 32.21484375 -0.0703125 -14.72265625 27.7734375 -4.3203125 -19.46875 7.625 9.75390625 18.3359375 9.19921875 9.26953125 22.546875 8.0625 9.3828125 28.1640625 54.4609375 17.07421875 15.515625 55.75390625 16.04296875 14.2109375 56.984375 16.69921875 14.77734375 58.97265625 15.71484375 13.3984375 61.66796875 14.14453125 10.80859375 53.45703125 21.51953125 -15.91796875 52.9140625 24.36328125 -16.13671875 36.48046875 42.27734375 34.5078125 45.91015625 33.80078125 38.578125 9.4609375 16.5546875 41.5703125 5.99609375 26.9375 35.2890625 3.57421875 27.89453125 10.7265625 3.30078125 27.6484375 0 58.16015625 5.515625 -10.19140625 55.3203125 -0.9375 -5.63671875 58.765625 4.76171875 -4.86328125 55.58984375 -1.7890625 0 59.0078125 4.41796875 0 58.765625 4.76171875 4.86328125 60.47265625 12.38671875 3.58203125 59.96875 12.93359375 7.19140625 57.2890625 26.74609375 -14.1171875 55.41796875 24.16796875 -15.19140625 53.9765625 20.796875 -16.109375 62.9609375 31.06640625 -4.4375 61.765625 30.50390625 -8.8671875 59.66015625 29.1015625 -11.93359375 63.42578125 31.43359375 0 25.42578125 27.91015625 -18.87109375 21.78125 30.296875 0 61.00390625 21.58984375 -4.1328125 61.54296875 21.7109375 0 63.8125 23.359375 4.43359375 46.921875 47.375 0 24.9296875 -8.30078125 -21.6796875 26.28515625 -8.59375 -22.9765625 28.7890625 -10.0859375 -22.046875 23.53125 -14.609375 -24.1796875 45.2421875 6.87109375 10.12109375 55.0625 20.6484375 13.00390625 57.22265625 21.43359375 11.67578125 59.515625 21.98828125 9.58984375 61.23046875 22.1875 6.578125 55.3203125 -0.9375 5.63671875 50.8125 -4.953125 0 50.63671875 -4.09765625 5.8046875 52.7109375 11.96484375 -18.15234375 53.41796875 15.66015625 -16.36328125 10.1015625 5.87890625 -22.05078125 16.5859375 0.71875 -27.95703125 15.09375 2.92578125 -23.16015625 24.8125 2.24609375 -20.30859375 53.71484375 2.66015625 16.1953125 55.90625 9.93359375 15.6640625 57.12890625 7.5078125 14.0625 59 14.046875 10.546875 27.94921875 -15.51953125 21.06640625 27.82421875 -15.43359375 19.27734375 27.21484375 -19.8671875 18.83984375 44.703125 4.234375 0 62.484375 22.24609375 -3.22265625 62.921875 22.25 0 62.484375 22.24609375 3.22265625 66.796875 21.421875 0 57.49609375 20.6640625 11.390625 54.83203125 0.265625 -11.625 57.12890625 7.5078125 -14.0625 52.91015625 17.65625 15.9375 60.578125 12.23828125 0 63.87109375 12.33984375 3.45703125 63.140625 13.0390625 7.33203125 50.63671875 -4.09765625 -5.8046875 51.78515625 8.5 21.46484375 44.96875 39.79296875 32.09375 61.00390625 21.58984375 4.1328125 60.05859375 21.390625 7.2890625 58.72265625 21.0859375 9.3671875 54.83203125 0.265625 11.625 58.16015625 5.515625 10.19140625 42.94921875 -15.80078125 -6.60546875 7.33984375 17.26171875 22.60546875 31.01953125 -19.31640625 -16.5234375 44.33203125 0.125 -26.3125 16.6796875 0.91796875 -33.32421875 21.75 18.28515625 -17.78515625 63.64453125 26.34375 8.66796875 51.64453125 6.828125 26.04296875 53.9921875 17.8984375 17.32421875 53.8125 15.52734375 17.66015625 63.16015625 20.81640625 -10.8515625 59.94921875 20.0390625 -13.23046875 57.53125 17.96875 -15.22265625 31.5625 -6.796875 18.76953125 35.07421875 -1.19921875 12.94140625 30.640625 -6.8125 17.578125 54.609375 12.55859375 16.421875 39.21484375 -23.21484375 0 38.35546875 -24.03515625 4.27734375 53.7890625 25.21484375 -14.734375 60.47265625 12.38671875 -3.58203125 57.55859375 15.1171875 -12.8984375 22.41796875 -13.84765625 -22.90625 57.55859375 15.1171875 12.8984375 34.92578125 -25.10546875 -7.31640625 34.92578125 -25.10546875 7.31640625 27.21484375 -19.8671875 -18.83984375 31.01953125 -19.31640625 16.5234375 27.7734375 -4.3203125 19.46875 40.7578125 -13.94921875 0 39.7421875 -14.60546875 5.62890625 32.21484375 -0.0703125 14.72265625 55.0859375 27.828125 -13.3125 32.21484375 -0.0703125 -15.20703125 31.67578125 -26.140625 -10.265625 31.67578125 -26.140625 10.265625</float_array>
                    <technique_common>
                        <accessor count="572" source="#pointarray0" stride="3">
                            <param name="X" type="float"/>
                            <param name="Y" type="float"/>
                            <param name="Z" type="float"/>
                        </accessor>
                    </technique_common>
                </source>
                <source id="uvs0">
                    <float_array id="uvarray0" count="694">0.4979248046875 0.4658203125 0.49835205078125 0.451171875 0.4879150390625 0.4620361328125 0.4833984375 0.4481201171875 0.474609375 0.4537353515625 0.4716796875 0.44805908203125 0.47052001953125 0.448486328125 0.466796875 0.44305419921875 0.46575927734375 0.4434814453125 0.4620361328125 0.4381103515625 0.4600830078125 0.43902587890625 0.42132568359375 0.4188232421875 0.417724609375 0.41961669921875 0.372802734375 0.4129638671875 0.395263671875 0.41973876953125 0.38006591796875 0.41827392578125 0.3641357421875 0.42327880859375 0.338134765625 0.42120361328125 0.3482666015625 0.42828369140625 0.33001708984375 0.42730712890625 0.3026123046875 0.44140625 0.29315185546875 0.442626953125 0.31561279296875 0.4617919921875 0.30224609375 0.46240234375 0.32183837890625 0.47845458984375 0.306884765625 0.47906494140625 0.313232421875 0.4873046875 0.29083251953125 0.4881591796875 0.29364013671875 0.4964599609375 0.254150390625 0.48638916015625 0.254150390625 0.4915771484375 0.16314697265625 0.26214599609375 0.15106201171875 0.2667236328125 0.1680908203125 0.27020263671875 0.15899658203125 0.27703857421875 0.1751708984375 0.28076171875 0.164794921875 0.28424072265625 0.1502685546875 0.24517822265625 0.1385498046875 0.252685546875 0.13677978515625 0.2314453125 0.1192626953125 0.242919921875 0.11407470703125 0.22137451171875 0.10223388671875 0.23419189453125 0.0703125 0.22100830078125 0.072509765625 0.26409912109375 0.00665283203125 0.23895263671875 0.00665283203125 0.27996826171875 0.08319091796875 0.2991943359375 0.07952880859375 0.28729248046875 0.07745361328125 0.2806396484375 0.00604248046875 0.29595947265625 0.00634765625 0.284912109375 0.0711669921875 0.260498046875 0.47900390625 0.43548583984375 0.45849609375 0.41204833984375 0.457763671875 0.40869140625 0.4149169921875 0.38958740234375 0.4124755859375 0.38262939453125 0.35076904296875 0.3873291015625 0.36785888671875 0.37225341796875 0.317138671875 0.37744140625 0.32330322265625 0.3619384765625 0.28875732421875 0.36065673828125 0.29022216796875 0.351318359375 0.254150390625 0.35003662109375 0.254150390625 0.338623046875 0.2918701171875 0.33984375 0.32623291015625 0.3525390625 0.32952880859375 0.34112548828125 0.37640380859375 0.364501953125 0.38458251953125 0.35595703125 0.426513671875 0.37640380859375 0.43963623046875 0.37078857421875 0.4703369140625 0.40557861328125 0.48101806640625 0.4029541015625 0.49835205078125 0.4371337890625 0.254150390625 0.37493896484375 0.28564453125 0.37615966796875 0.254150390625 0.3896484375 0.28228759765625 0.39080810546875 0.2828369140625 0.40045166015625 0.3104248046875 0.39202880859375 0.31146240234375 0.40191650390625 0.3380126953125 0.39984130859375 0.3421630859375 0.40740966796875 0.36920166015625 0.4102783203125 0.44268798828125 0.427978515625 0.4630126953125 0.4376220703125 0.46942138671875 0.44891357421875 0.4735107421875 0.4541015625 0.472412109375 0.4544677734375 0.4764404296875 0.459716796875 0.47540283203125 0.46002197265625 0.463623046875 0.44439697265625 0.4671630859375 0.44970703125 0.45947265625 0.4461669921875 0.46270751953125 0.451416015625 0.44317626953125 0.4495849609375 0.44866943359375 0.45660400390625 0.43463134765625 0.4617919921875 0.4376220703125 0.475341796875 0.39215087890625 0.475341796875 0.3929443359375 0.4864501953125 0.361328125 0.486572265625 0.3656005859375 0.49627685546875 0.3533935546875 0.48663330078125 0.35858154296875 0.4959716796875 0.34552001953125 0.48663330078125 0.3515625 0.49560546875 0.32965087890625 0.4866943359375 0.3375244140625 0.4949951171875 0.3206787109375 0.49554443359375 0.6519775390625 0.94622802734375 0.58404541015625 0.92919921875 0.5855712890625 0.9202880859375 0.5062255859375 0.9105224609375 0.5062255859375 0.89617919921875 0.58746337890625 0.9041748046875 0.654541015625 0.93353271484375 0.65753173828125 0.91253662109375 0.724609375 0.92144775390625 0.729248046875 0.87921142578125 0.80657958984375 0.9302978515625 0.8026123046875 0.88812255859375 0.86248779296875 0.92919921875 0.8812255859375 0.88751220703125 0.94708251953125 0.91668701171875 0.9124755859375 0.8375244140625 0.97705078125 0.89483642578125 0.95623779296875 0.8375244140625 0.99371337890625 0.875 0.981201171875 0.8375244140625 0.33941650390625 0.4776611328125 0.34820556640625 0.477294921875 0.35699462890625 0.4769287109375 0.3822021484375 0.46856689453125 0.42681884765625 0.45294189453125 0.41900634765625 0.444091796875 0.4376220703125 0.4425048828125 0.39129638671875 0.42535400390625 0.45623779296875 0.44097900390625 0.41046142578125 0.42120361328125 0.9927978515625 0.58892822265625 0.9788818359375 0.5731201171875 0.96636962890625 0.5751953125 0.9542236328125 0.55267333984375 0.94140625 0.555419921875 0.92950439453125 0.5322265625 0.9163818359375 0.53564453125 0.84765625 0.50439453125 0.84136962890625 0.5106201171875 0.80322265625 0.50018310546875 0.80010986328125 0.5064697265625 0.7587890625 0.50225830078125 0.7587890625 0.508544921875 0.79693603515625 0.51373291015625 0.83514404296875 0.51898193359375 0.90386962890625 0.539794921875 0.83203125 0.52740478515625 0.89923095703125 0.54681396484375 0.37774658203125 0.42431640625 0.3721923828125 0.42950439453125 0.3602294921875 0.42889404296875 0.31317138671875 0.44000244140625 0.30792236328125 0.440673828125 0.33221435546875 0.4635009765625 0.3358154296875 0.4705810546875 0.4775390625 0.45941162109375 0.47027587890625 0.45513916015625 0.47332763671875 0.46063232421875 0.4659423828125 0.45660400390625 0.46917724609375 0.4617919921875 0.4517822265625 0.4659423828125 0.45489501953125 0.475341796875 0.44061279296875 0.4888916015625 0.39373779296875 0.49755859375 0.93511962890625 0.59600830078125 0.93511962890625 0.6043701171875 0.89141845703125 0.57415771484375 0.915771484375 0.60260009765625 0.89141845703125 0.58978271484375 0.9007568359375 0.60125732421875 0.88201904296875 0.59918212890625 0.91015625 0.61273193359375 0.8773193359375 0.60382080078125 0.91168212890625 0.61529541015625 0.91326904296875 0.617919921875 0.94140625 0.61376953125 0.93359375 0.6197509765625 0.9476318359375 0.62310791015625 0.94140625 0.625732421875 0.97265625 0.62725830078125 0.96014404296875 0.633544921875 0.34625244140625 0.4150390625 0.3125 0.41180419921875 0.3121337890625 0.4190673828125 0.28314208984375 0.41839599609375 0.282958984375 0.42669677734375 0.254150390625 0.427001953125 0.2689208984375 0.44586181640625 0.254150390625 0.4478759765625 0.254150390625 0.46453857421875 0.284912109375 0.463134765625 0.28369140625 0.44390869140625 0.93670654296875 0.606689453125 0.93829345703125 0.60906982421875 0.96014404296875 0.61688232421875 0.92578125 0.625732421875 0.93511962890625 0.62835693359375 0.9241943359375 0.63665771484375 0.92578125 0.6397705078125 0.9024658203125 0.65435791015625 0.92889404296875 0.64605712890625 0.28802490234375 0.4798583984375 0.311767578125 0.4263916015625 0.79107666015625 0.55963134765625 0.76043701171875 0.55908203125 0.7606201171875 0.5689697265625 0.81011962890625 0.579345703125 0.833984375 0.56158447265625 0.83404541015625 0.5540771484375 0.89141845703125 0.55853271484375 0.93511962890625 0.58770751953125 0.9476318359375 0.59185791015625 0.94921875 0.57989501953125 0.96417236328125 0.59197998046875 0.7183837890625 0.96136474609375 0.5062255859375 0.85418701171875 0.5914306640625 0.862548828125 0.6624755859375 0.870849609375 0.6624755859375 0.8292236328125 0.7562255859375 0.85003662109375 0.97265625 0.610595703125 0.96636962890625 0.60333251953125 0.98162841796875 0.61114501953125 0.96014404296875 0.59600830078125 0.99407958984375 0.602294921875 0.3443603515625 0.4708251953125 0.35296630859375 0.4710693359375 0.8143310546875 0.97064208984375 0.7210693359375 0.948486328125 0.5062255859375 0.920166015625 0.5819091796875 0.93798828125 0.2833251953125 0.4100341796875 0.254150390625 0.41766357421875 0.87261962890625 0.6474609375 0.92266845703125 0.633544921875 0.87890625 0.62939453125 0.9163818359375 0.62310791015625 0.87261962890625 0.6085205078125 0.84454345703125 0.59393310546875 0.96246337890625 1 0.856201171875 1 0.59375 0.82086181640625 1 0.95001220703125 0.93121337890625 0.9666748046875 0.88824462890625 0.9752197265625 0.96954345703125 0.6121826171875 0.96636962890625 0.61376953125 0.9879150390625 0.6163330078125 0.98516845703125 0.62103271484375 0.340576171875 0.46435546875 0.348876953125 0.4652099609375 0.3721923828125 0.4617919921875 0.1497802734375 0.24688720703125 0.13861083984375 0.2520751953125 0.119384765625 0.24267578125 0.00701904296875 0.2236328125 0.10321044921875 0.2333984375 0.06768798828125 0.2213134765625 0.070556640625 0.20831298828125 0.0384521484375 0.20281982421875 0.254150390625 0.39892578125 0.79998779296875 0.76251220703125 0.8125 0.75836181640625 0.856201171875 0.8375244140625 0.86871337890625 0.8375244140625 0.46783447265625 0.442626953125 0.47760009765625 0.43634033203125 0.4639892578125 0.4371337890625 0.3656005859375 0.40765380859375 0.93280029296875 0.55938720703125 0.95782470703125 0.57757568359375 0.96636962890625 0.58978271484375 0.9375 0.7708740234375 0.913818359375 0.77947998046875 0.8779296875 0.7933349609375 0.8499755859375 0.737548828125 0.83123779296875 0.75 0.74371337890625 0.69171142578125 0.731201171875 0.70001220703125 0.71697998046875 0.71044921875 0.7562255859375 0.683349609375 0.86871337890625 0.72503662109375 0.847412109375 0.66326904296875 0.86505126953125 0.6629638671875 0.8759765625 0.6627197265625 0.88922119140625 0.6585693359375 0.89581298828125 0.656494140625 0.254150390625 0.481201171875 0.451904296875 0.23748779296875 0.3568115234375 0.25689697265625 0.36395263671875 0.22821044921875 0.2767333984375 0.25689697265625 0.27606201171875 0.2188720703125 0.36248779296875 0.19189453125 0.4495849609375 0.202880859375 0.254150390625 0.35943603515625 0.00616455078125 0.30499267578125 0.07330322265625 0.20941162109375 0.03759765625 0.2169189453125 0.039306640625 0.20318603515625 0.00665283203125 0.2135009765625 0.00665283203125 0.201416015625 0.254150390625 0.40826416015625 0.13531494140625 0.23199462890625 0.115234375 0.22149658203125 0.27764892578125 0.28839111328125 0.35711669921875 0.2884521484375 0.357421875 0.32000732421875 0.45458984375 0.32806396484375 0.89532470703125 0.55267333984375 0.86248779296875 0.875 0.00701904296875 0.26275634765625 0.0369873046875 0.216796875 0.00701904296875 0.21337890625 0.00701904296875 0.20147705078125 0.8341064453125 0.5465087890625 0.83306884765625 0.5369873046875 0.75909423828125 0.5205078125 0.7955322265625 0.52392578125 0.45416259765625 0.27215576171875 0.45440673828125 0.30010986328125 0.79998779296875 0.862548828125 0.98992919921875 0.61285400390625 0.99066162109375 0.61163330078125 0.9892578125 0.614013671875 0.7587890625 0.49603271484375 0.5062255859375 0.93243408203125 0.99322509765625 0.5914306640625 0.9241943359375 0.5633544921875 0.6492919921875 0.9549560546875 0.275390625 0.180908203125 0.99212646484375 0.5897216796875 0.5062255859375 0.81671142578125 0.278564453125 0.31988525390625 0.71807861328125 0.9718017578125</float_array>
                    <technique_common>
                        <accessor count="347" source="#uvarray0" stride="2">
                            <param name="S" type="float"/>
                            <param name="T" type="float"/>
                        </accessor>
                    </technique_common>
                </source>
                <vertices id="vertices0">
                    <input semantic="POSITION" source="#points0"/>
                </vertices>
                <polylist count="1082" material="Material1">
                    <input offset="0" semantic="VERTEX" source="#vertices0"/>
                    <input offset="1" semantic="TEXCOORD" source="#uvs0" set="0"/>
                    <vcount>3 3 3 3 3 3 3 3 3 3 3 3 3 3 3 3 3 3 3 3 3 3 3 3 3 3 3 3 3 3 3 3 3 3 3 3 3 3 3 3 3 3 3 3 3 3 3 3 3 3 3 3 3 3 3 3 3 3 3 3 3 3 3 3 3 3 3 3 3 3 3 3 3 3 3 3 3 3 3 3 3 3 3 3 3 3 3 3 3 3 3 3 3 3 3 3 3 3 3 3 3 3 3 3 3 3 3 3 3 3 3 3 3 3 3 3 3 3 3 3 3 3 3 3 3 3 3 3 3 3 3 3 3 3 3 3 3 3 3 3 3 3 3 3 3 3 3 3 3 3 3 3 3 3 3 3 3 3 3 3 3 3 3 3 3 3 3 3 3 3 3 3 3 3 3 3 3 3 3 3 3 3 3 3 3 3 3 3 3 3 3 3 3 3 3 3 3 3 3 3 3 3 3 3 3 3 3 3 3 3 3 3 3 3 3 3 3 3 3 3 3 3 3 3 3 3 3 3 3 3 3 3 3 3 3 3 3 3 3 3 3 3 3 3 3 3 3 3 3 3 3 3 3 3 3 3 3 3 3 3 3 3 3 3 3 3 3 3 3 3 3 3 3 3 3 3 3 3 3 3 3 3 3 3 3 3 3 3 3 3 3 3 3 3 3 3 3 3 3 3 3 3 3 3 3 3 3 3 3 3 3 3 3 3 3 3 3 3 3 3 3 3 3 3 3 3 3 3 3 3 3 3 3 3 3 3 3 3 3 3 3 3 3 3 3 3 3 3 3 3 3 3 3 3 3 3 3 3 3 3 3 3 3 3 3 3 3 3 3 3 3 3 3 3 3 3 3 3 3 3 3 3 3 3 3 3 3 3 3 3 3 3 3 3 3 3 3 3 3 3 3 3 3 3 3 3 3 3 3 3 3 3 3 3 3 3 3 3 3 3 3 3 3 3 3 3 3 3 3 3 3 3 3 3 3 3 3 3 3 3 3 3 3 3 3 3 3 3 3 3 3 3 3 3 3 3 3 3 3 3 3 3 3 3 3 3 3 3 3 3 3 3 3 3 3 3 3 3 3 3 3 3 3 3 3 3 3 3 3 3 3 3 3 3 3 3 3 3 3 3 3 3 3 3 3 3 3 3 3 3 3 3 3 3 3 3 3 3 3 3 3 3 3 3 3 3 3 3 3 3 3 3 3 3 3 3 3 3 3 3 3 3 3 3 3 3 3 3 3 3 3 3 3 3 3 3 3 3 3 3 3 3 3 3 3 3 3 3 3 3 3 3 3 3 3 3 3 3 3 3 3 3 3 3 3 3 3 3 3 3 3 3 3 3 3 3 3 3 3 3 3 3 3 3 3 3 3 3 3 3 3 3 3 3 3 3 3 3 3 3 3 3 3 3 3 3 3 3 3 3 3 3 3 3 3 3 3 3 3 3 3 3 3 3 3 3 3 3 3 3 3 3 3 3 3 3 3 3 3 3 3 3 3 3 3 3 3 3 3 3 3 3 3 3 3 3 3 3 3 3 3 3 3 3 3 3 3 3 3 3 3 3 3 3 3 3 3 3 3 3 3 3 3 3 3 3 3 3 3 3 3 3 3 3 3 3 3 3 3 3 3 3 3 3 3 3 3 3 3 3 3 3 3 3 3 3 3 3 3 3 3 3 3 3 3 3 3 3 3 3 3 3 3 3 3 3 3 3 3 3 3 3 3 3 3 3 3 3 3 3 3 3 3 3 3 3 3 3 3 3 3 3 3 3 3 3 3 3 3 3 3 3 3 3 3 3 3 3 3 3 3 3 3 3 3 3 3 3 3 3 3 3 3 3 3 3 3 3 3 3 3 3 3 3 3 3 3 3 3 3 3 3 3 3 3 3 3 3 3 3 3 3 3 3 3 3 3 3 3 3 3 3 3 3 3 3 3 3 3 3 3 3 3 3 3 3 3 3 3 3 3 3 3 3 3 3 3 3 3 3 3 3 3 3 3 3 3 3 3 3 3 3 3 3 3 3 3 3 3 3 3 3 3 3 3 3 3 3 3 3 3 3 3 3 3 3 3 3 3 3 3 3 3 3 3 3 3 3 3 3 3 3 3 3 3 3 3 3 3 3 3 3 3 3 3 3 3 3 3 3 3 3 3 3 3 3 3 3 3 3 3 3 3 3 3 3 3 3 3 3 3 3 3 3 3 3 3 3 3 3 3 3 3 3 3 3 3 3 3 3 3 3 3 3 3 3 3 3 3 3 3 3 3 3 3 3 3 3 3 3 3 3 3 3 3 3 3 3 3 3 3 3 3 3 3 3 3 3 3 3 3 3 3 3 3 3 3 3 3 3 3 3 3 3 3 3 3 3 3 3 3 3 3 3 3 3 3 3 3 3 3 3 3 3 3 3 3 3 3 3 3 3 3 3 3 3 3 3 3 3 3 3</vcount>
                    <p>2 2 1 1 0 0 3 3 1 1 2 2 4 4 3 3 2 2 5 5 3 3 4 4 6 6 5 5 4 4 7 7 5 5 6 6 8 8 7 7 6 6 9 9 7 7 8 8 10 10 9 9 8 8 11 11 9 9 10 10 12 12 11 11 10 10 13 13 11 11 12 12 14 14 13 13 12 12 15 15 13 13 14 14 16 16 15 15 14 14 17 17 15 15 16 16 18 18 17 17 16 16 19 19 17 17 18 18 20 20 19 19 18 18 21 21 19 19 20 20 22 22 21 21 20 20 23 23 21 21 22 22 24 24 23 23 22 22 25 25 23 23 24 24 26 26 25 25 24 24 27 27 25 25 26 26 28 28 27 27 26 26 29 29 27 27 28 28 30 30 29 29 28 28 31 28 29 29 30 30 1 33 32 32 0 31 33 34 32 32 1 33 34 35 33 34 1 33 35 36 33 34 34 35 36 37 35 36 34 35 37 38 35 36 36 37 38 39 37 38 36 37 39 40 37 38 38 39 40 41 39 40 38 39 41 42 39 40 40 41 42 43 41 42 40 41 43 44 41 42 42 43 44 45 43 44 42 43 45 46 43 44 44 45 46 44 45 46 44 45 47 47 45 46 46 44 48 34 47 47 46 44 49 48 47 47 48 34 50 49 49 48 48 34 51 50 49 48 50 49 52 51 51 50 50 49 53 49 51 50 52 51 54 52 53 49 52 51 33 34 53 49 54 52 32 32 33 34 54 52 57 55 56 54 55 53 58 56 56 54 57 55 59 57 58 56 57 55 60 58 58 56 59 57 61 59 60 58 59 57 62 60 60 58 61 59 63 61 62 60 61 59 64 62 62 60 63 61 65 63 64 62 63 61 66 64 64 62 65 63 67 65 66 64 65 63 68 63 66 64 67 65 69 66 68 63 67 65 70 67 68 63 69 66 71 68 70 67 69 66 72 69 70 67 71 68 40 70 72 69 71 68 73 71 72 69 40 70 38 72 73 71 40 70 74 73 73 71 38 72 36 74 74 73 38 72 34 75 74 73 36 74 77 78 76 77 75 76 78 79 76 77 77 78 79 80 78 79 77 78 80 81 78 79 79 80 81 82 80 81 79 80 82 83 80 81 81 82 83 84 82 83 81 82 84 85 82 83 83 84 85 13 84 85 83 84 86 86 84 85 85 13 87 11 86 86 85 13 88 87 86 86 87 11 89 9 88 87 87 11 90 7 88 87 89 9 91 8 90 7 89 9 92 6 90 7 91 8 93 88 92 6 91 8 94 89 92 6 93 88 95 90 94 89 93 88 96 91 94 89 95 90 97 92 96 91 95 90 98 88 8 8 6 6 99 93 8 8 98 88 100 94 99 93 98 88 101 95 99 93 100 94 102 96 101 95 100 94 103 97 101 95 102 96 104 98 103 97 102 96 105 99 103 97 104 98 106 100 105 99 104 98 107 101 105 99 106 100 108 102 107 101 106 100 109 103 107 101 108 102 110 104 109 103 108 102 111 105 109 103 110 104 112 106 111 105 110 104 113 107 111 105 112 106 114 108 113 107 112 106 115 109 113 107 114 108 116 110 115 109 114 108 117 111 115 109 116 110 120 114 119 113 118 112 121 115 119 113 120 114 122 116 121 115 120 114 123 114 121 115 122 116 124 117 123 114 122 116 125 118 123 114 124 117 126 119 125 118 124 117 127 120 125 118 126 119 128 121 127 120 126 119 129 122 127 120 128 121 130 123 129 122 128 121 131 124 129 122 130 123 132 125 131 124 130 123 133 126 131 124 132 125 134 127 133 126 132 125 135 128 133 126 134 127 136 129 135 128 134 127 137 130 135 128 136 129 138 131 137 130 136 129 26 26 117 111 28 28 115 109 117 111 26 26 24 24 115 109 26 26 113 107 115 109 24 24 139 132 113 107 24 24 111 105 113 107 139 132 140 133 111 105 139 132 109 103 111 105 140 133 141 134 109 103 140 133 107 101 109 103 141 134 142 135 107 101 141 134 143 136 107 101 142 135 144 137 143 136 142 135 145 138 143 136 144 137 146 139 145 138 144 137 147 140 145 138 146 139 148 141 147 140 146 139 12 12 147 140 148 141 14 14 12 12 148 141 151 144 150 143 149 142 152 145 150 143 151 144 153 146 152 145 151 144 154 147 152 145 153 146 155 148 154 147 153 146 156 149 154 147 155 148 157 150 156 149 155 148 158 151 156 149 157 150 159 152 158 151 157 150 160 153 158 151 159 152 161 154 160 153 159 152 162 152 160 153 161 154 163 155 162 152 161 154 164 150 162 152 163 155 165 156 164 150 163 155 166 157 164 150 165 156 167 158 166 157 165 156 168 159 166 157 167 158 85 13 169 12 87 11 170 14 169 12 85 13 171 15 170 14 85 13 172 16 170 14 171 15 173 17 172 16 171 15 174 18 172 16 173 17 175 19 174 18 173 17 176 20 174 18 175 19 177 21 176 20 175 19 178 22 176 20 177 21 179 23 178 22 177 21 180 24 178 22 179 23 181 25 180 24 179 23 182 26 180 24 181 25 183 27 182 26 181 25 31 28 182 26 183 27 29 29 31 28 183 27 170 14 184 141 169 12 185 139 184 141 170 14 186 160 185 139 170 14 187 161 185 139 186 160 188 162 187 161 186 160 189 163 187 161 188 162 190 164 189 163 188 162 191 165 189 163 190 164 178 22 191 165 190 164 192 166 191 165 178 22 180 24 192 166 178 22 193 132 192 166 180 24 194 107 193 132 180 24 195 105 193 132 194 107 196 106 195 105 194 107 197 104 195 105 196 106 198 167 4 4 2 2 199 89 4 4 198 167 200 91 199 89 198 167 201 90 199 89 200 91 202 92 201 90 200 91 203 168 201 90 202 92 204 169 203 168 202 92 205 170 203 168 204 169 206 171 205 170 204 169 207 172 205 170 206 171 208 173 207 172 206 171 106 100 207 172 208 173 209 174 106 100 208 173 108 102 106 100 209 174 210 175 108 102 209 174 110 104 108 102 210 175 213 178 212 177 211 176 214 179 212 177 213 178 215 180 214 179 213 178 216 181 214 179 215 180 217 182 216 181 215 180 218 183 216 181 217 182 219 184 218 183 217 182 220 185 218 183 219 184 221 186 220 185 219 184 222 187 220 185 221 186 223 188 222 187 221 186 224 189 222 187 223 188 225 190 224 189 223 188 208 191 224 189 225 190 209 192 208 191 225 190 227 193 226 84 13 13 228 194 226 84 227 193 229 195 228 194 227 193 230 196 228 194 229 195 231 197 230 196 229 195 232 198 230 196 231 197 233 199 232 198 231 197 234 200 232 198 233 199 235 201 234 200 233 199 236 199 234 200 235 201 237 202 236 199 235 201 238 203 236 199 237 202 179 23 238 203 237 202 177 21 238 203 179 23 241 204 240 181 239 179 242 205 240 181 241 204 243 206 242 205 241 204 244 187 242 205 243 206 245 189 244 187 243 206 246 188 244 187 245 189 247 190 246 188 245 189 248 207 246 188 247 190 249 208 248 207 247 190 250 209 248 207 249 208 251 210 250 209 249 208 197 211 250 209 251 210 252 212 197 211 251 210 253 213 27 27 29 29 25 25 27 27 253 213 254 202 25 25 253 213 23 23 25 25 254 202 255 203 23 23 254 202 21 21 23 23 255 203 256 214 21 21 255 203 19 19 21 21 256 214 229 195 19 19 256 214 17 17 19 19 229 195 227 193 17 17 229 195 15 15 17 17 227 193 13 13 15 15 227 193 259 217 258 216 257 215 260 215 258 216 259 217 261 218 260 215 259 217 262 219 260 215 261 218 215 180 262 219 261 218 263 220 262 219 215 180 213 178 263 220 215 180 264 221 263 220 213 178 211 176 264 221 213 178 265 222 264 221 211 176 266 223 265 222 211 176 267 224 265 222 266 223 268 225 267 224 266 223 270 118 118 112 269 226 120 114 118 112 270 118 271 117 120 114 270 118 122 116 120 114 271 117 272 227 122 116 271 117 124 117 122 116 272 227 273 228 124 117 272 227 126 119 124 117 273 228 274 229 126 119 273 228 128 121 126 119 274 229 275 230 128 121 274 229 276 231 128 121 275 230 13 13 277 86 11 11 278 85 277 86 13 13 226 84 278 85 13 13 279 83 278 85 226 84 280 82 279 83 226 84 281 81 279 83 280 82 282 80 281 81 280 82 283 79 281 81 282 80 77 78 283 79 282 80 284 77 283 79 77 78 75 76 284 77 77 78 146 139 14 14 148 141 285 160 14 14 146 139 286 161 285 160 146 139 287 162 285 160 286 161 288 163 287 162 286 161 289 164 287 162 288 163 290 165 289 164 288 163 22 22 289 164 290 165 291 166 22 22 290 165 24 24 22 22 291 166 139 132 24 24 291 166 293 180 240 181 292 182 239 179 240 181 293 180 294 178 239 179 293 180 295 177 239 179 294 178 296 176 295 177 294 178 297 232 295 177 296 176 298 233 297 232 296 176 299 234 297 232 298 233 300 235 299 234 298 233 301 236 299 234 300 235 302 225 301 236 300 235 305 134 304 238 303 237 306 135 304 238 305 134 307 101 306 135 305 134 308 136 306 135 307 101 309 99 308 136 307 101 310 97 308 136 309 99 311 98 310 97 309 99 312 96 310 97 311 98 313 170 312 96 311 98 314 94 312 96 313 170 315 168 314 94 313 170 316 239 129 122 131 124 317 240 129 122 316 239 318 226 317 240 316 239 125 118 317 240 318 226 319 112 125 118 318 226 123 114 125 118 319 112 320 113 123 114 319 112 121 115 123 114 320 113 321 241 121 115 320 113 119 113 121 115 321 241 322 242 119 113 321 241 228 194 280 82 226 84 323 243 280 82 228 194 230 196 323 243 228 194 324 244 323 243 230 196 232 198 324 244 230 196 325 196 324 244 232 198 326 197 325 196 232 198 327 195 325 196 326 197 328 214 327 195 326 197 175 19 327 195 328 214 177 21 175 19 328 214 331 247 330 246 329 245 332 248 330 246 331 247 333 249 332 248 331 247 334 184 332 248 333 249 335 250 334 184 333 249 292 182 334 184 335 250 336 218 292 182 335 250 293 180 292 182 336 218 337 219 293 180 336 218 338 220 293 180 337 219 341 239 340 252 339 251 269 226 340 252 341 239 342 240 269 226 341 239 270 118 269 226 342 240 343 120 270 118 342 240 344 119 270 118 343 120 345 121 344 119 343 120 346 229 344 119 345 121 347 230 346 229 345 121 348 253 346 229 347 230 351 255 350 254 349 126 339 251 350 254 351 255 352 256 339 251 351 255 341 239 339 251 352 256 353 124 341 239 352 256 354 122 341 239 353 124 355 123 354 122 353 124 345 121 354 122 355 123 356 231 345 121 355 123 347 230 345 121 356 231 357 248 221 186 219 184 223 188 221 186 357 248 358 207 223 188 357 248 225 190 223 188 358 207 359 208 225 190 358 207 209 192 225 190 359 208 360 210 209 192 359 208 210 212 209 192 360 210 110 211 210 212 360 210 211 176 361 233 266 223 362 232 361 233 211 176 212 177 362 232 211 176 363 257 362 232 212 177 364 204 363 257 212 177 365 258 363 257 364 204 366 206 365 258 364 204 204 259 365 258 366 206 206 260 204 259 366 206 303 237 191 165 192 166 367 261 191 165 303 237 304 238 367 261 303 237 368 262 367 261 304 238 306 135 368 262 304 238 369 263 368 262 306 135 370 137 369 263 306 135 187 161 369 263 370 137 185 139 187 161 370 137 313 170 371 169 315 168 372 171 371 169 313 170 373 172 372 171 313 170 374 173 372 171 373 172 375 100 374 173 373 172 376 174 374 173 375 100 377 102 376 174 375 100 252 175 376 174 377 102 197 104 252 175 377 102 32 32 378 264 0 31 379 265 378 264 32 32 54 52 379 265 32 32 380 266 379 265 54 52 381 267 380 266 54 52 382 268 380 266 381 267 383 269 382 268 381 267 384 270 382 268 383 269 385 271 384 270 383 269 386 272 77 78 282 80 79 80 77 78 386 272 387 243 79 80 386 272 81 82 79 80 387 243 388 194 81 82 387 243 83 84 81 82 388 194 389 193 83 84 388 194 85 13 83 84 389 193 171 15 85 13 389 193 390 10 89 9 87 11 91 8 89 9 390 10 391 93 91 8 390 10 93 88 91 8 391 93 314 94 93 88 391 93 95 90 93 88 314 94 315 168 95 90 314 94 97 92 95 90 315 168 371 169 97 92 315 168 144 137 286 161 146 139 392 263 286 161 144 137 142 135 392 263 144 137 393 262 392 263 142 135 394 238 393 262 142 135 395 261 393 262 394 238 396 237 395 261 394 238 290 165 395 261 396 237 291 166 290 165 396 237 399 275 398 274 397 273 400 276 398 274 399 275 401 125 400 276 399 275 402 127 400 276 401 125 349 126 402 127 401 125 403 128 402 127 349 126 350 254 403 128 349 126 404 130 403 128 350 254 407 37 406 38 405 39 408 36 406 38 407 37 409 35 408 36 407 37 48 34 408 36 409 35 410 33 48 34 409 35 411 32 48 34 410 33 149 31 411 32 410 33 150 264 411 32 149 31 412 254 135 128 137 130 133 126 135 128 412 254 413 255 133 126 412 254 131 124 133 126 413 255 414 256 131 124 413 255 316 239 131 124 414 256 415 251 316 239 414 256 416 252 316 239 415 251 409 75 55 53 410 1 57 55 55 53 409 75 417 73 57 55 409 75 59 57 57 55 417 73 418 71 59 57 417 73 419 69 59 57 418 71 420 70 419 69 418 71 421 68 419 69 420 70 422 5 90 7 92 6 423 277 90 7 422 5 424 278 423 277 422 5 425 279 423 277 424 278 56 54 425 279 424 278 426 280 425 279 56 54 58 56 426 280 56 54 60 58 426 280 58 56 164 150 384 149 385 151 427 148 384 149 164 150 166 157 427 148 164 150 428 146 427 148 166 157 429 281 428 146 166 157 430 282 428 146 429 281 267 224 430 282 429 281 431 283 430 282 267 224 277 86 432 87 11 11 433 279 432 87 277 86 278 85 433 279 277 86 434 280 433 279 278 85 279 83 434 280 278 85 435 58 434 280 279 83 436 60 435 58 279 83 332 248 246 188 248 207 437 186 246 188 332 248 334 184 437 186 332 248 438 185 437 186 334 184 439 183 438 185 334 184 244 187 438 185 439 183 242 205 244 187 439 183 136 129 440 284 138 131 441 285 440 284 136 129 442 286 441 285 136 129 443 287 441 285 442 286 444 288 443 287 442 286 445 289 443 287 444 288 446 290 445 289 444 288 398 274 447 291 397 273 448 290 447 291 398 274 449 288 448 290 398 274 450 289 448 290 449 288 451 287 450 289 449 288 452 292 450 289 451 287 453 293 452 292 451 287 329 245 454 295 31 294 455 296 454 295 329 245 330 246 455 296 329 245 456 297 455 296 330 246 250 209 456 297 330 246 196 298 456 297 250 209 197 211 196 298 250 209 458 224 457 283 302 225 459 282 457 283 458 224 460 281 459 282 458 224 153 146 459 282 460 281 461 157 153 146 460 281 155 148 153 146 461 157 157 150 155 148 461 157 5 5 462 278 3 3 463 277 462 278 5 5 7 7 463 277 5 5 432 87 463 277 7 7 9 9 432 87 7 7 11 11 432 87 9 9 308 136 370 137 306 135 464 138 370 137 308 136 310 97 464 138 308 136 465 95 464 138 310 97 312 96 465 95 310 97 314 94 465 95 312 96 307 101 377 102 375 100 466 103 377 102 307 101 305 134 466 103 307 101 467 133 466 103 305 134 303 237 467 133 305 134 192 166 467 133 303 237 237 202 181 25 179 23 468 213 181 25 237 202 235 201 468 213 237 202 469 299 468 213 235 201 253 213 469 299 235 201 29 29 469 299 253 213 472 302 471 301 470 300 473 303 471 301 472 302 474 304 473 303 472 302 475 302 473 303 474 304 476 305 475 302 474 304 477 306 475 302 476 305 74 73 478 57 73 71 479 55 478 57 74 73 34 75 479 55 74 73 480 53 479 55 34 75 1 1 480 53 34 75 3 3 480 53 1 1 481 62 284 77 75 76 436 60 284 77 481 62 482 61 436 60 481 62 483 59 436 60 482 61 70 67 483 59 482 61 72 69 483 59 70 67 64 62 76 77 62 60 75 76 76 77 64 62 484 307 75 76 64 62 481 62 75 76 484 307 66 64 481 62 484 307 68 63 481 62 66 64 43 44 33 34 35 36 485 47 33 34 43 44 45 46 485 47 43 44 486 308 485 47 45 46 47 47 486 308 45 46 49 48 486 308 47 47 71 309 42 43 40 41 487 310 42 43 71 309 69 311 487 310 71 309 488 312 487 310 69 311 67 313 488 312 69 311 489 311 488 312 67 313 323 243 282 80 280 82 386 272 282 80 323 243 490 314 386 272 323 243 387 243 386 272 490 314 324 244 387 243 490 314 325 196 387 243 324 244 199 89 6 6 4 4 98 88 6 6 199 89 201 90 98 88 199 89 100 94 98 88 201 90 203 168 100 94 201 90 205 170 100 94 203 168 451 287 491 284 453 293 492 285 491 284 451 287 493 286 492 285 451 287 494 129 492 285 493 286 402 127 494 129 493 286 403 128 494 129 402 127 425 279 86 86 88 87 84 85 86 86 425 279 426 280 84 85 425 279 82 83 84 85 426 280 60 58 82 83 426 280 62 60 82 83 60 58 172 16 186 160 170 14 188 162 186 160 172 16 174 18 188 162 172 16 190 164 188 162 174 18 176 20 190 164 174 18 178 22 190 164 176 20 411 32 495 52 48 34 496 265 495 52 411 32 150 264 496 265 411 32 497 266 496 265 150 264 152 315 497 266 150 264 154 316 497 266 152 315 497 266 495 52 496 265 381 267 495 52 497 266 498 268 381 267 497 266 499 269 381 267 498 268 156 270 499 269 498 268 158 271 499 269 156 270 500 301 473 303 475 302 501 317 473 303 500 301 502 318 501 317 500 301 257 319 501 317 502 318 337 320 257 319 502 318 503 234 362 232 363 257 361 233 362 232 503 234 504 235 361 233 503 234 266 223 361 233 504 235 268 225 266 223 504 235 506 246 505 245 116 296 507 247 505 245 506 246 357 248 507 247 506 246 508 249 507 247 357 248 219 184 508 249 357 248 509 221 296 176 294 178 510 222 296 176 509 221 511 321 510 222 509 221 512 159 510 222 511 321 477 158 512 159 511 321 247 190 376 192 249 208 374 191 376 192 247 190 245 189 374 191 247 190 372 260 374 191 245 189 243 206 372 260 245 189 134 127 442 286 136 129 513 276 442 286 134 127 132 125 513 276 134 127 514 275 513 276 132 125 515 322 514 275 132 125 495 52 50 49 48 34 52 51 50 49 495 52 516 323 52 51 495 52 54 52 52 51 516 323 381 267 54 52 516 323 381 267 517 324 383 269 518 325 517 324 381 267 519 324 518 325 381 267 520 326 518 325 519 324 158 271 520 326 519 324 143 136 105 99 107 101 103 97 105 99 143 136 145 138 103 97 143 136 101 95 103 97 145 138 147 140 101 95 145 138 46 44 408 36 48 34 406 38 408 36 46 44 521 40 406 38 46 44 405 39 406 38 521 40 420 41 405 39 521 40 264 221 522 327 263 220 470 328 522 327 264 221 523 321 470 328 264 221 167 158 470 328 523 321 168 159 167 158 523 321 141 134 394 238 142 135 396 237 394 238 141 134 140 133 396 237 141 134 291 166 396 237 140 133 139 132 291 166 140 133 410 1 301 2 149 0 524 3 301 2 410 1 55 53 524 3 410 1 424 278 524 3 55 53 56 54 424 278 55 53 526 155 476 330 525 329 477 158 476 330 526 155 527 156 477 158 526 155 461 157 477 158 527 156 157 150 461 157 527 156 471 301 522 331 470 300 263 332 522 331 471 301 528 318 263 332 471 301 262 320 263 332 528 318 260 319 262 320 528 318 295 177 241 204 239 179 529 257 241 204 295 177 297 232 529 257 295 177 299 234 529 257 297 232 169 12 390 10 87 11 530 140 390 10 169 12 184 141 530 140 169 12 185 139 530 140 184 141 531 310 44 45 488 312 532 43 44 45 531 310 421 309 532 43 531 310 420 41 532 43 421 309 530 140 465 95 390 10 464 138 465 95 530 140 185 139 464 138 530 140 370 137 464 138 185 139 104 98 207 172 106 100 205 170 207 172 104 98 102 96 205 170 104 98 100 94 205 170 102 96 532 43 46 44 44 45 533 42 46 44 532 43 420 41 533 42 532 43 521 40 533 42 420 41 328 214 238 203 177 21 236 199 238 203 328 214 326 197 236 199 328 214 232 198 236 199 326 197 338 220 294 178 293 180 509 221 294 178 338 220 534 327 509 221 338 220 535 328 509 221 534 327 311 98 373 172 313 170 375 100 373 172 311 98 309 99 375 100 311 98 307 101 375 100 309 99 344 119 271 117 270 118 536 228 271 117 344 119 346 229 536 228 344 119 348 253 536 228 346 229 161 154 525 329 163 155 526 155 525 329 161 154 159 152 526 155 161 154 157 150 526 155 159 152 537 109 180 24 182 26 194 107 180 24 537 109 456 108 194 107 537 109 196 106 194 107 456 108 256 214 231 197 229 195 233 199 231 197 256 214 255 203 233 199 256 214 254 202 233 199 255 203 454 111 182 26 31 28 537 109 182 26 454 111 455 110 537 109 454 111 456 108 537 109 455 110 401 125 353 124 349 126 355 123 353 124 401 125 538 333 355 123 401 125 356 231 355 123 538 333 535 300 475 302 477 306 500 301 475 302 535 300 534 331 500 301 535 300 338 332 500 301 534 331 222 187 218 183 220 185 539 205 218 183 222 187 366 206 539 205 222 187 364 204 539 205 366 206 114 297 506 246 116 296 540 209 506 246 114 297 112 298 540 209 114 297 110 211 540 209 112 298 483 59 435 58 436 60 478 57 435 58 483 59 72 69 478 57 483 59 73 71 478 57 72 69 200 334 363 257 365 258 503 234 363 257 200 334 198 335 503 234 200 334 2 236 503 234 198 335 51 50 486 308 49 48 541 48 486 308 51 50 53 49 541 48 51 50 33 34 541 48 53 49 419 69 61 59 59 57 542 67 61 59 419 69 421 68 542 67 419 69 489 66 542 67 421 68 65 63 489 66 67 65 542 67 489 66 65 63 63 61 542 67 65 63 61 59 542 67 63 61 96 334 529 257 299 234 543 258 529 257 96 334 97 336 543 258 96 334 371 259 543 258 97 336 160 153 520 337 158 151 385 151 520 337 160 153 162 152 385 151 160 153 164 150 385 151 162 152 544 4 92 6 94 89 422 5 92 6 544 4 524 3 422 5 544 4 424 278 422 5 524 3 545 167 94 89 96 91 544 4 94 89 545 167 301 2 544 4 545 167 524 3 544 4 301 2 543 258 241 204 529 257 243 206 241 204 543 258 371 259 243 206 543 258 372 260 243 206 371 259 428 146 547 145 546 147 548 144 547 145 428 146 430 282 548 144 428 146 431 283 548 144 430 282 501 317 471 301 473 303 528 318 471 301 501 317 260 319 528 318 501 317 549 274 442 286 513 276 444 288 442 286 549 274 446 290 444 288 549 274 549 274 550 291 446 290 551 273 550 291 549 274 514 275 551 273 549 274 43 44 39 40 41 42 37 38 39 40 43 44 35 36 37 38 43 44 552 223 296 176 510 222 298 233 296 176 552 223 300 235 298 233 552 223 321 241 553 338 322 242 554 242 553 338 321 241 320 113 554 242 321 241 468 213 183 27 181 25 29 29 183 27 468 213 469 299 29 29 468 213 380 266 378 264 379 265 547 315 378 264 380 266 546 316 547 315 380 266 173 17 327 195 175 19 389 193 327 195 173 17 171 15 389 193 173 17 388 194 327 195 389 193 325 196 327 195 388 194 387 243 325 196 388 194 436 60 283 79 284 77 281 81 283 79 436 60 279 83 281 81 436 60 431 283 2 236 0 339 268 225 2 236 431 283 267 224 268 225 431 283 433 279 463 277 432 87 462 278 463 277 433 279 555 54 462 278 433 279 62 60 80 81 82 83 78 79 80 81 62 60 76 77 78 79 62 60 163 155 167 158 165 156 556 330 167 158 163 155 525 329 556 330 163 155 429 281 557 340 267 224 168 159 557 340 429 281 166 157 168 159 429 281 354 122 342 240 341 239 343 120 342 240 354 122 345 121 343 120 354 122 493 286 400 276 402 127 398 274 400 276 493 286 449 288 398 274 493 286 494 129 491 284 492 285 558 131 491 284 494 129 404 130 558 131 494 129 99 93 10 10 8 8 101 95 10 10 99 93 559 340 460 281 458 224 512 159 460 281 559 340 418 71 405 72 420 70 417 73 405 72 418 71 498 268 154 316 156 270 497 266 154 316 498 268 427 148 546 147 384 149 428 146 546 147 427 148 391 93 465 95 314 94 390 10 465 95 391 93 10 10 147 140 12 12 101 95 147 140 10 10 20 20 289 164 22 22 18 18 289 164 20 20 485 47 541 48 33 34 486 308 541 48 485 47 18 18 287 162 289 164 16 16 287 162 18 18 487 310 44 45 42 43 488 312 44 45 487 310 16 16 285 160 287 162 14 14 285 160 16 16 392 263 288 163 286 161 393 262 288 163 392 263 288 163 395 261 290 165 393 262 395 261 288 163 68 63 482 61 481 62 70 67 482 61 68 63 382 268 546 316 380 266 384 270 546 316 382 268 195 105 466 103 467 133 197 104 466 103 195 105 119 113 560 341 118 112 322 242 560 341 119 113 193 132 467 133 192 166 195 105 467 133 193 132 561 341 320 113 319 112 554 242 320 113 561 341 117 295 505 245 28 294 116 296 505 245 117 295 378 143 548 144 0 142 547 145 548 144 378 143 301 236 457 283 149 339 302 225 457 283 301 236 254 202 235 201 233 199 253 213 235 201 254 202 407 74 417 73 409 75 405 72 417 73 407 74 336 218 257 215 337 219 259 217 257 215 336 218 557 340 265 222 267 224 168 159 265 222 557 340 167 306 472 302 470 300 556 305 472 302 167 306 520 326 517 324 518 325 385 271 517 324 520 326 499 269 519 324 381 267 158 271 519 324 499 269 265 222 523 321 264 221 168 159 523 321 265 222 489 311 531 310 488 312 421 309 531 310 489 311 556 305 474 304 472 302 525 342 474 304 556 305 457 283 151 144 149 343 459 282 151 144 457 283 251 210 376 192 252 212 249 208 376 192 251 210 423 277 88 87 90 7 425 279 88 87 423 277 562 322 401 125 399 275 538 333 401 125 562 322 511 321 535 328 477 158 509 221 535 328 511 321 559 340 510 222 512 159 458 224 510 222 559 340 545 335 299 234 301 236 96 334 299 234 545 335 369 263 189 163 368 262 187 161 189 163 369 263 367 261 189 163 191 165 368 262 189 163 367 261 351 255 353 124 352 256 349 126 353 124 351 255 502 318 338 332 337 320 500 301 338 332 502 318 563 333 132 125 130 123 515 322 132 125 563 333 276 231 130 123 128 121 563 333 130 123 276 231 440 284 443 287 564 293 441 285 443 287 440 284 317 240 127 120 129 122 125 118 127 120 317 240 536 228 272 227 271 117 348 253 272 227 536 228 565 344 272 227 348 253 566 253 272 227 565 344 413 255 415 251 414 256 412 254 415 251 413 255 274 229 566 253 275 230 273 228 566 253 274 229 567 292 443 287 445 289 564 293 443 287 567 292 478 57 568 56 435 58 479 55 568 56 478 57 479 55 555 54 568 56 480 53 555 54 479 55 480 53 462 278 555 54 3 3 462 278 480 53 506 246 358 207 357 248 540 209 358 207 506 246 360 210 540 209 110 211 359 208 540 209 360 210 512 159 461 157 460 281 477 158 461 157 512 159 214 179 364 204 212 177 216 181 364 204 214 179 216 181 539 205 364 204 218 183 539 205 216 181 261 218 217 182 215 180 569 250 217 182 261 218 206 260 224 189 208 191 366 206 224 189 206 260 569 250 219 184 217 182 508 249 219 184 569 250 202 336 365 258 204 259 200 334 365 258 202 336 458 224 552 223 510 222 302 225 552 223 458 224 504 235 2 236 268 225 503 234 2 236 504 235 244 187 437 186 438 185 246 188 437 186 244 187 258 345 501 317 257 319 260 319 501 317 258 345 292 182 439 183 334 184 240 181 439 183 292 182 568 56 434 280 435 58 555 54 434 280 568 56 330 246 248 207 250 209 332 248 248 207 330 246 476 305 474 304 525 342 377 102 466 103 197 104 269 226 118 112 560 341 570 346 269 226 560 341 340 252 269 226 570 346 318 226 561 341 319 112 416 252 571 346 318 226 571 346 561 341 318 226 459 282 153 146 151 144 431 283 0 343 548 144 64 62 66 64 484 307 157 150 527 156 526 155 366 206 222 187 224 189 434 280 555 54 433 279 493 286 451 287 449 288 404 130 494 129 403 128 272 227 566 253 273 228 316 239 416 252 318 226 439 183 240 181 242 205 552 223 302 225 300 235 514 275 549 274 513 276 359 208 358 207 540 209 495 52 381 267 516 323 46 44 533 42 521 40 383 269 517 324 385 271 324 244 490 314 323 243 236 199 232 198 234 200</p>
                </polylist>
            </mesh>
        </geometry>
    </library_geometries>
    <library_visual_scenes>
        <visual_scene id="VisualSceneNode">
            <node id="node0" name="m0" type="NODE">
                <instance_geometry url="#mesh0">
                    <bind_material>
                        <technique_common>
                            <instance_material symbol="Material1" target="#mat0">
                                <bind_vertex_input semantic="UVSET0" input_semantic="TEXCOORD" input_set="0"></bind_vertex_input>
                            </instance_material>
                        </technique_common>
                    </bind_material>
                </instance_geometry>
            </node>
        </visual_scene>
    </library_visual_scenes>
    <scene>
        <instance_visual_scene url="#VisualSceneNode"></instance_visual_scene>
    </scene>
</COLLADA>
