<?xml version="1.0"?>
<COLLADA xmlns="http://www.collada.org/2005/11/COLLADASchema" version="1.4.1">
    <asset>
        <contributor>
            <authoring_tool>J3D Ripoff Exporter</authoring_tool>
        </contributor>
        <created>2024-08-02T13:57:04.599Z</created>
        <modified>2024-08-02T13:57:04.599Z</modified>
		<unit meter="0.01" name="centimeter" ></unit>
        <up_axis>Y_UP</up_axis>
    </asset>
    <library_images>
        <image id="tex0">
            <init_from>donkey_all.png</init_from>
        </image>
    </library_images>
    <library_effects>
        <effect id="effect0">
            <profile_COMMON>
                <newparam sid="surface0">
                    <surface type="2D">
                        <init_from>tex0</init_from>
                    </surface>
                </newparam>
                <newparam sid="sampler0">
                    <sampler2D>
                        <source>surface0</source>
                    </sampler2D>
                </newparam>
                <technique sid="COMMON">
                    <blinn>
                        <diffuse>
                            <texture texture="sampler0" texcoord="UVSET0"></texture>
                        </diffuse>
                    </blinn>
                </technique>
            </profile_COMMON>
        </effect>
    </library_effects>
    <library_materials>
        <material id="mat0" name="Dummy">
            <instance_effect url="#effect0"></instance_effect>
        </material>
    </library_materials>
    <library_geometries>
        <geometry id="mesh0">
            <mesh>
                <source id="points0">
                    <float_array id="pointarray0" count="1962">46.05078125 26.22265625 -13.18359375 45.0546875 23.67578125 -5.31640625 51.5859375 29.70703125 -8.4765625 53.4765625 31.90234375 0 50.69140625 33.5 -10.14453125 53.28125 36.37890625 0 47.6640625 34.92578125 -9.71875 49.69140625 37.22265625 0 42.890625 32.41015625 -10.26953125 41.4296875 32.28515625 0 36.859375 30.21484375 0 42.9296875 32.40234375 10.26953125 37.34765625 29.8046875 12.19921875 37.9140625 30.56640625 18.140625 32.765625 29.27734375 12.734375 33.12890625 29.75390625 18.60546875 25.8671875 28.94921875 15.671875 33.23046875 27.44140625 19.3984375 25.5 27.66796875 16.3125 25.30078125 24.22265625 13.8125 24.015625 23.87890625 6.6875 31.2109375 21.45703125 6.91796875 24.07421875 24.84375 0 31.44921875 23.08984375 0 31.2109375 21.45703125 -6.91796875 36.8203125 21.3671875 -6.4765625 32.5234375 23.19921875 -16.3125 37.93359375 23.5234375 -15.640625 38.3125 28.015625 -18.8984375 45.90625 29.56640625 -16.19921875 37.9140625 30.56640625 -18.140625 43.96875 32.375 -15.5625 36.14453125 19.41796875 -30.58203125 34.78515625 24.9765625 -30.66796875 33.36328125 18.01171875 -31.83984375 32.16796875 23.63671875 -32.03515625 25.40234375 21.99609375 -33.19140625 25.6953125 27.63671875 -32.5390625 19.828125 29.21875 -32.375 21.56640625 37.9375 -29.17578125 13.77734375 31.0390625 -30.859375 17.88671875 40.25390625 -28.0625 14.79296875 42.6640625 -21.89453125 25.5625 45.140625 -24.59375 22.51171875 48.5234375 -18.28515625 32.29296875 49.859375 -19.70703125 31.8046875 52.66015625 -11.4140625 42.88671875 51.3359375 -11.140625 30.80859375 53.578125 0 44.1328125 51.44140625 0 42.88671875 51.3359375 11.140625 50.37109375 47.63671875 10.83984375 43.87109375 47.34375 16.9921875 54.7265625 42.375 10.54296875 47.41796875 42.8828125 18.03515625 54.17578125 36.7421875 17.93359375 46.58203125 37.46875 22.3046875 55.75390625 34.28515625 19.91796875 48.8828125 35.359375 23.96484375 54.51171875 32.5 19.13671875 48.35546875 33.359375 23.421875 44.98046875 -10.75390625 12.04296875 45.890625 -10.71484375 9.0546875 44.98828125 -12.61328125 10.29296875 45.89453125 -11.05859375 7.83203125 44.9921875 -13.29296875 7.90234375 45.890625 -10.71484375 6.609375 44.98828125 -12.61328125 5.51171875 45.88671875 -9.78125 5.71484375 44.98046875 -10.75390625 3.76171875 45.87890625 -8.50390625 5.38671875 44.96484375 -8.21484375 3.12109375 45.87109375 -7.2265625 5.71484375 44.94921875 -5.67578125 3.76171875 45.86328125 -6.29296875 6.609375 44.9375 -3.8203125 5.51171875 45.86328125 -5.94921875 7.83203125 44.93359375 -3.13671875 7.90234375 45.86328125 -6.29296875 9.0546875 44.9375 -3.8203125 10.29296875 45.87109375 -7.2265625 9.94921875 44.94921875 -5.67578125 12.04296875 45.87890625 -8.50390625 10.27734375 44.96484375 -8.21484375 12.68359375 45.88671875 -9.78125 9.94921875 31.2265625 -2.87109375 -14.94140625 35.1484375 -2.453125 -15.734375 31.20703125 0.28125 -11.92578125 35.12890625 1.046875 -12.3828125 31.19921875 1.4375 -7.8046875 35.12109375 2.328125 -7.8046875 31.20703125 0.28125 -3.6875 35.12890625 1.046875 -3.2265625 31.2265625 -2.87109375 -0.66796875 35.1484375 -2.453125 0.12109375 31.25390625 -7.1875 0.4296875 35.17578125 -7.234375 1.34765625 31.28125 -11.5 -0.66796875 35.203125 -12.015625 0.12109375 31.296875 -14.65625 -3.6875 35.22265625 -15.515625 -3.2265625 31.3046875 -15.8125 -7.8046875 35.23046875 -16.796875 -7.8046875 31.296875 -14.65625 -11.92578125 35.22265625 -15.515625 -12.3828125 31.28125 -11.5 -14.94140625 35.203125 -12.015625 -15.734375 31.25390625 -7.1875 -16.046875 35.17578125 -7.234375 -16.9609375 39.42578125 -15.4140625 -12.3828125 39.40625 -12.03515625 -15.6171875 39.37890625 -7.41796875 -16.80078125 39.3515625 -2.80078125 -15.6171875 39.33203125 0.57421875 -12.3828125 39.32421875 1.8125 -7.9609375 39.33203125 0.57421875 -3.5390625 39.3515625 -2.80078125 -0.3046875 39.37890625 -7.41796875 0.875 39.40625 -12.03515625 -0.3046875 39.42578125 -15.4140625 -3.5390625 39.43359375 -16.6484375 -7.9609375 43.0390625 -13.87109375 -11.390625 43.0234375 -11.16015625 -13.9453125 43.00390625 -7.45703125 -14.87890625 42.98046875 -3.75390625 -13.9453125 42.96484375 -1.04296875 -11.390625 42.9609375 -0.05078125 -7.90234375 42.96484375 -1.04296875 -4.4140625 42.98046875 -3.75390625 -1.86328125 43.00390625 -7.45703125 -0.9296875 43.0234375 -11.16015625 -1.86328125 43.0390625 -13.87109375 -4.4140625 43.046875 -14.86328125 -7.90234375 45.53125 -12.04296875 -10.3046875 45.5234375 -10.17578125 -12.06640625 45.5078125 -7.62109375 -12.7109375 45.4921875 -5.0703125 -12.06640625 45.48046875 -3.203125 -10.3046875 45.4765625 -2.51953125 -7.90234375 45.48046875 -3.203125 -5.5 45.4921875 -5.0703125 -3.73828125 45.5078125 -7.62109375 -3.09765625 45.5234375 -10.17578125 -3.73828125 45.53125 -12.04296875 -5.5 45.53515625 -12.7265625 -7.90234375 46.43359375 -9.1953125 -9.9609375 46.42578125 -7.91015625 -10.2890625 46.41796875 -6.62890625 -9.9609375 46.4140625 -5.6875 -9.0625 46.41015625 -5.34375 -7.83203125 46.4140625 -5.6875 -6.6015625 46.41796875 -6.62890625 -5.703125 46.42578125 -7.91015625 -5.375 46.43359375 -9.1953125 -5.703125 46.4375 -10.13671875 -6.6015625 46.44140625 -10.48046875 -7.83203125 46.4375 -10.13671875 -9.0625 31.125 -11.63671875 15.16796875 34.734375 -15.47265625 12.359375 31.14453125 -14.89453125 12.05859375 34.7421875 -16.74609375 7.8046875 31.1484375 -16.0859375 7.8046875 34.734375 -15.47265625 3.25 31.14453125 -14.89453125 3.5546875 34.71484375 -11.9921875 -0.078125 31.125 -11.63671875 0.44140625 34.6875 -7.234375 -1.30078125 31.09765625 -7.18359375 -0.69140625 34.66015625 -2.4765625 -0.078125 31.0703125 -2.734375 0.44140625 34.640625 1 3.25 31.05078125 0.51953125 3.5546875 34.6328125 2.27734375 7.8046875 31.04296875 1.71484375 7.8046875 34.640625 1 12.359375 31.05078125 0.51953125 12.05859375 34.66015625 -2.4765625 15.6953125 31.0703125 -2.734375 15.16796875 34.6875 -7.234375 16.9140625 31.09765625 -7.18359375 16.30859375 34.71484375 -11.9921875 15.6953125 38.8125 1.671875 7.9609375 38.8203125 0.44140625 12.359375 38.83984375 -2.9140625 15.578125 38.8671875 -7.5078125 16.75390625 38.89453125 -12.1015625 15.578125 38.9140625 -15.4609375 12.359375 38.921875 -16.69140625 7.9609375 38.9140625 -15.4609375 3.5625 38.89453125 -12.1015625 0.34375 38.8671875 -7.5078125 -0.828125 38.83984375 -2.9140625 0.34375 38.8203125 0.44140625 3.5625 42.49609375 -11.46484375 13.91015625 42.51171875 -14.16015625 11.37109375 42.515625 -15.1484375 7.90234375 42.51171875 -14.16015625 4.43359375 42.49609375 -11.46484375 1.89453125 42.47265625 -7.78125 0.96484375 42.453125 -4.09765625 1.89453125 42.4375 -1.3984375 4.43359375 42.4296875 -0.4140625 7.90234375 42.4375 -1.3984375 11.37109375 42.453125 -4.09765625 13.91015625 42.47265625 -7.78125 14.83984375 36.25 19.69140625 -27.59375 34.90234375 25.1171875 -27.515625 34.4296875 28.13671875 -30.4921875 34.83203125 28.1328125 -27.22265625 35.1640625 32.2734375 -29.0546875 35.375 31.8671875 -26.01953125 41.9921875 35.08984375 -26.453125 40.328125 34.5234375 -23.38671875 48.35546875 33.359375 -23.421875 46.2890625 33.20703125 -20.703125 54.51171875 32.5 -19.13671875 52.578125 32.76171875 -16.59375 58.0625 31.81640625 -12.3984375 39.58984375 39.29296875 -13.8515625 50.7578125 41.21484375 0 38.6796875 41.33984375 0 39.58984375 39.29296875 13.8515625 25.0390625 34.8203125 16.4296875 35.375 31.8671875 26.01953125 34.83203125 28.1328125 27.22265625 35.1640625 32.2734375 29.0546875 34.4296875 28.13671875 30.4921875 27.7734375 -4.3203125 -19.46875 24.9296875 -8.30078125 -21.6796875 29.56640625 -4.47265625 -20.83203125 26.28515625 -8.59375 -22.9765625 28.7890625 -10.0859375 -22.046875 23.53125 -14.609375 -24.1796875 27.0078125 -15.9140625 -23.296875 20.78125 -20.75 -23.27734375 24.1328125 -24.26953125 -23.19140625 18.72265625 -25.2890625 -21.1875 24.08984375 -28.74609375 -20.84375 20.6015625 -28.51171875 -17.38671875 28.24609375 -30.4375 -18.8203125 32.41796875 -30.390625 -16.41796875 30.390625 -26.2421875 -21.109375 33.90234375 -26.1015625 -19.13671875 32.5625 -21.2421875 -19.5078125 36.59375 -20.22265625 -16.3359375 34.08203125 -19.0859375 -14.46875 37.61328125 -16.90625 -10.7109375 36.14453125 19.41796875 30.58203125 33.36328125 18.01171875 31.83984375 34.78515625 24.9765625 30.66796875 32.16796875 23.63671875 32.03515625 31.52734375 27.5703125 31.5625 31.62890625 31.30859375 31.0546875 25.6953125 27.63671875 32.5390625 26.42578125 34.89453125 30.78125 21.56640625 37.9375 29.17578125 25.5625 45.140625 24.59375 17.88671875 40.25390625 28.0625 14.79296875 42.6640625 21.89453125 13.77734375 31.0390625 30.859375 7.45703125 32.953125 24.10546875 5.62890625 19.7734375 27.3515625 1.83984375 20.30078125 17.453125 5.33984375 11.16796875 19.44140625 6.55859375 10.53125 9.3125 35.10546875 10.48828125 -29.73828125 37.359375 13.21875 -29.12109375 38.921875 7.92578125 -26.20703125 40.19921875 10.18359375 -26.8828125 44.9609375 8.7578125 -23.53515625 48.16015625 10.71875 -26.45703125 49.7265625 7.3359375 -20.1875 54.02734375 9.5390625 -20.2734375 56.59765625 5.71484375 -11.640625 61.19140625 8.328125 -12.66796875 63.94921875 8.38671875 -6.34375 63.7890625 9.8046875 -13.43359375 66.671875 9.48828125 -6.7265625 67.15234375 11.72265625 -6.76171875 68 9.57421875 0 68.37890625 11.78515625 0 67.15234375 11.72265625 6.76171875 34.3828125 34.5 30.0078125 33.43359375 35.80078125 29.30078125 29.45703125 40.52734375 26.86328125 32.29296875 49.859375 19.70703125 22.51171875 48.5234375 18.28515625 31.8046875 52.66015625 11.4140625 20.1328125 50.5703125 12.37109375 17.89453125 52.16015625 0 9.8203125 46.78125 0 20.1328125 50.5703125 -12.37109375 12.3125 44.8828125 -13.76953125 36.37109375 -27.62890625 -7.83984375 39.484375 -26.57421875 -4.77734375 42.53515625 -25.296875 -5.7890625 43.4140625 -24.390625 0 44.8203125 -20.6171875 0 42.53515625 -25.296875 5.7890625 44.171875 -21.3984375 6.8359375 39.3671875 -27.44140625 10.390625 41.703125 -23.10546875 12.26953125 37.8125 -25.21875 16.33984375 36.59375 -20.22265625 16.3359375 33.90234375 -26.1015625 19.13671875 32.5625 -21.2421875 19.5078125 30.390625 -26.2421875 21.109375 27.75390625 -20.25 21.08984375 24.1328125 -24.26953125 23.19140625 41.5390625 12.59765625 29.94921875 37.359375 13.21875 29.12109375 40.19921875 10.18359375 26.8828125 38.921875 7.92578125 26.20703125 44.9609375 8.7578125 23.53515625 45.5859375 3.28125 19.734375 49.7265625 7.3359375 20.1875 56.59765625 5.71484375 11.640625 54.02734375 9.5390625 20.2734375 61.19140625 8.328125 12.66796875 63.7890625 9.8046875 13.43359375 63.94921875 8.38671875 6.34375 66.671875 9.48828125 6.7265625 65.15234375 8.37890625 0 47.6640625 34.92578125 9.71875 43.96875 32.375 15.5625 50.66015625 33.4609375 10.14453125 45.90625 29.56640625 16.19921875 46.05078125 26.22265625 13.18359375 37.93359375 23.5234375 15.640625 45.0546875 23.67578125 5.31640625 36.8203125 21.3671875 6.4765625 44.62109375 24.69921875 0 36.6953125 22.68359375 0 25.0390625 34.8203125 -16.4296875 21.7265625 20.55078125 -15.4921875 21.41796875 37.2109375 0 17.34375 20.26953125 0 21.7265625 20.55078125 15.4921875 26.82421875 7.73828125 15.01953125 36.25 19.69140625 27.59375 40.66796875 14.09765625 26.28515625 42.16015625 14.140625 29.60546875 48.03515625 12.40234375 23.24609375 48.69921875 12.50390625 26.61328125 56.1015625 12.66796875 21.6640625 34.08203125 -19.0859375 14.46875 37.61328125 -16.90625 10.7109375 40.4453125 -18.375 12.19140625 42.94921875 -16.73828125 6.60546875 43.50390625 -16 0 44.171875 -21.3984375 -6.8359375 39.3671875 -27.44140625 -10.390625 31.99609375 -29.078125 -11.078125 48.16015625 10.71875 26.45703125 55.6640625 10.640625 21.1171875 64.37109375 12.0546875 13.49609375 29.45703125 40.52734375 -26.86328125 37.703125 46.4453125 -20.8984375 43.87109375 47.34375 -16.9921875 47.41796875 42.8828125 -18.03515625 54.7265625 42.375 -10.54296875 54.17578125 36.7421875 -17.93359375 57.71875 36.0546875 -12.3828125 60.95703125 33.58984375 -13.30859375 64.48828125 33.15625 -5.734375 62.38671875 31.1796875 -5.76171875 63.07421875 30.90234375 0 41.9921875 35.08984375 26.453125 40.328125 34.5234375 23.38671875 46.2890625 33.20703125 20.703125 52.578125 32.76171875 16.59375 58.0625 31.81640625 12.3984375 59.32421875 31.60546875 13.0390625 61.01171875 31.7421875 5.5625 62.38671875 31.1796875 5.76171875 61.73828125 31.2578125 0 26.82421875 7.73828125 -15.01953125 45.21875 6.8671875 -13.609375 24.671875 5.1640625 0 44.703125 4.234375 0 45.21875 6.8671875 13.609375 55.28515625 6.28515625 0 64.26171875 11.2890625 6.5078125 65.3203125 11.25390625 0 64.26171875 11.2890625 -6.5078125 59.6953125 11.8359375 -13.5 25.30078125 24.22265625 -13.8125 33.23046875 27.44140625 -19.3984375 25.5 27.66796875 -16.3125 25.8671875 28.953125 -15.671875 23.75390625 27.28515625 -6.9921875 24.38671875 29.63671875 0 23.9375 28.375 0 23.75390625 27.28515625 6.9921875 60.95703125 33.58984375 13.30859375 64.48828125 33.15625 5.734375 65.1640625 32.8046875 0 61.84375 35.53125 -5.30859375 57.71875 36.0546875 12.3828125 61.84375 35.53125 5.30859375 62.62109375 35.56640625 0 58.6171875 42.12890625 0 52.9375 47.56640625 0 25.83984375 -27.34765625 -13.98828125 35.6484375 -29.48828125 -13.7109375 37.8125 -25.21875 -16.33984375 41.703125 -23.10546875 -12.26953125 40.4453125 -18.375 -12.19140625 39.7421875 -15.54296875 -5.62890625 10.06640625 6.9609375 19.828125 14.03125 8.28125 27.14453125 15.05859375 4.87109375 21.12109375 21.359375 5.66015625 26.2890625 24.78515625 2.875 18.97265625 26.8359375 3.5546875 25.4296875 35.65625 1.140625 21.8125 31.984375 5.515625 28.3828125 35.10546875 10.48828125 29.73828125 33.12890625 29.75390625 -18.60546875 32.765625 29.27734375 -12.734375 27.84375 29.34375 -10.76171875 32.40234375 29.9765625 0 27.84375 29.34375 10.76171875 39.9375 -25.8125 0 39.484375 -26.57421875 4.77734375 36.37109375 -27.62890625 7.83984375 31.99609375 -29.078125 11.078125 35.6484375 -29.48828125 13.7109375 32.41796875 -30.390625 16.41796875 7.2421875 11.87109375 25.890625 11.41015625 13.63671875 31.73828125 20.45703125 10.1640625 32.37890625 19.8125 14.921875 33.91796875 28.57421875 11.9375 32.0234375 26.59375 16.37109375 33.18359375 12.3125 44.8828125 13.76953125 4.54296875 34.21484375 15.4296875 3.23828125 34.8125 0 4.54296875 34.21484375 -15.4296875 1.83984375 20.30078125 -17.453125 7.45703125 32.953125 -24.10546875 5.62890625 19.7734375 -27.3515625 26.42578125 34.89453125 -30.78125 33.43359375 35.80078125 -29.30078125 40.7265625 38.1171875 -24.83984375 34.3828125 34.5 -30.0078125 42.00390625 36.875 -25.7734375 42.16015625 14.140625 -29.60546875 40.66796875 14.09765625 -26.28515625 48.03515625 12.40234375 -23.24609375 53.03125 12.328125 -19.3515625 64.37109375 12.0546875 -13.49609375 28.57421875 11.9375 -32.0234375 31.984375 5.515625 -28.3828125 25.88671875 8.13671875 -30.3828125 26.8359375 3.5546875 -25.4296875 21.359375 5.66015625 -26.2890625 24.78515625 2.875 -18.97265625 15.05859375 4.87109375 -21.12109375 38.3125 28.015625 18.8984375 32.5234375 23.19921875 16.3125 26.59375 16.37109375 -33.18359375 19.46484375 20.74609375 -33.78125 19.8125 14.921875 -33.91796875 11.5078125 20.00390625 -32.6953125 11.41015625 13.63671875 -31.73828125 7.2421875 11.87109375 -25.890625 5.33984375 11.16796875 -19.44140625 20.9453125 -18.265625 22.8203125 22.41796875 -13.84765625 22.90625 23.53125 -14.609375 24.1796875 24.9296875 -8.30078125 21.6796875 26.28515625 -8.59375 22.9765625 29.56640625 -4.47265625 20.83203125 28.7890625 -10.0859375 22.046875 31.42578125 -5.703125 20.25 31.5625 -6.796875 18.76953125 36.26953125 -1.07421875 15.3828125 18.72265625 -25.2890625 21.1875 20.78125 -20.75 23.27734375 27.0078125 -15.9140625 23.296875 27.94921875 -15.51953125 21.06640625 27.82421875 -15.43359375 19.27734375 30.640625 -6.8125 17.578125 20.45703125 10.1640625 -32.37890625 14.03125 8.28125 -27.14453125 10.06640625 6.9609375 -19.828125 43.69140625 -2.43359375 12.3828125 38.80859375 -2.796875 9.390625 44.68359375 -6.20703125 5.59765625 40.45703125 -5.87890625 0 44.76953125 -7.0703125 0 44.68359375 -6.20703125 -5.59765625 30.640625 -6.8125 -17.578125 35.07421875 -1.19921875 -12.94140625 31.5625 -6.796875 -18.76953125 36.26953125 -1.07421875 -15.3828125 31.42578125 -5.703125 -20.25 34.9609375 -0.1484375 -16.8984375 32.21484375 -0.0703125 -14.72265625 37.703125 46.4453125 20.8984375 39.95703125 42.58984375 22.6875 40.7265625 38.1171875 24.83984375 25.40234375 21.99609375 33.19140625 19.828125 29.21875 32.375 19.46484375 20.74609375 33.78125 11.5078125 20.00390625 32.6953125 59.32421875 31.60546875 -13.0390625 61.01171875 31.7421875 -5.5625 31.39453125 27.94921875 -25.88671875 30.3828125 34.9765625 -26.08984375 24.0390625 27.3671875 -27.2421875 23.33203125 32.59765625 -27.4453125 24.07421875 27.22265625 -23.34765625 23.62109375 32.6953125 -23.55078125 30.63671875 27.7421875 -22.3671875 29.91015625 34.81640625 -22.56640625 34.90234375 25.1171875 27.515625 37.28515625 29.96875 -12.19921875 31.52734375 27.5703125 -31.5625 31.62890625 31.30859375 -31.0546875 55.75390625 34.28515625 -19.91796875 48.8828125 35.359375 -23.96484375 50.37109375 47.63671875 -10.83984375 53.03125 12.328125 19.3515625 59.6953125 11.8359375 13.5 50.66796875 0.15234375 11.7265625 51.29296875 -1.91015625 5.75 59.3046875 4.66015625 0 51.85546875 -2.64453125 0 51.29296875 -1.91015625 -5.75 54.7890625 36.9140625 13.8203125 59.59765625 36.7109375 0 54.984375 27.54296875 13.8203125 59.8671875 27.25390625 0 58.87890625 26.13671875 0 54.984375 27.54296875 -13.8203125 54.13671875 26.4140625 -13.23046875 35.65625 1.140625 -21.8125 45.5859375 3.28125 -19.734375 43.69140625 -2.43359375 -12.3828125 50.66796875 0.15234375 -11.7265625 46.58203125 37.46875 -22.3046875 27.82421875 -15.43359375 -19.27734375 27.94921875 -15.51953125 -21.06640625 27.75390625 -20.25 -21.08984375 30.9453125 9.8828125 21.50390625 30.95703125 18.6796875 21.703125 24.53125 10.2421875 22.484375 24.3828125 18.61328125 22.6875 25.57421875 17.46484375 27.2421875 25.62890625 18.61328125 26.26953125 32.9453125 17.5390625 25.88671875 24.08984375 -28.74609375 20.84375 20.6015625 -28.51171875 17.38671875 28.24609375 -30.4375 18.8203125 25.88671875 8.13671875 30.3828125 51.5859375 29.70703125 8.4765625 32.80078125 18.68359375 -25.0078125 25.62890625 18.61328125 -26.26953125 32.9453125 17.5390625 -25.88671875 25.57421875 17.46484375 -27.2421875 32.9140625 9.82421875 -25.68359375 25.69921875 10.27734375 -27.04296875 46.2109375 18.81640625 21.4375 56.390625 18.9140625 13.23046875 46.73046875 17.67578125 22.24609375 57.19140625 17.77734375 13.8203125 45.69140625 9.01953125 22.04296875 55.66015625 8.0234375 13.8203125 32.80078125 18.68359375 25.0078125 32.9140625 9.82421875 25.68359375 24.015625 23.87890625 -6.6875 20.9453125 -18.265625 -22.8203125 22.41796875 -13.84765625 -22.90625 30.63671875 27.7421875 22.3671875 24.07421875 27.22265625 23.34765625 31.39453125 27.94921875 25.88671875 24.0390625 27.3671875 27.2421875 30.3828125 34.9765625 26.08984375 23.33203125 32.59765625 27.4453125 34.9609375 -0.1484375 16.8984375 32.21484375 -0.0703125 14.72265625 27.7734375 -4.3203125 19.46875 39.95703125 42.58984375 -22.6875 42.94921875 -16.73828125 -6.60546875 55.6640625 10.640625 -21.1171875 42.00390625 36.875 25.7734375 31.01953125 -20.078125 -16.5234375 55.66015625 8.0234375 -13.8203125 62.08203125 17.828125 0 57.19140625 17.77734375 -13.8203125 61.13671875 18.9609375 0 56.390625 18.9140625 -13.23046875 52.58203125 18.890625 -10.7890625 42.48046875 27.09765625 19.01171875 44.67578125 27.453125 22.24609375 44.51171875 36.79296875 22.44921875 51.80078125 26.55078125 11.44921875 54.13671875 26.4140625 13.23046875 39.7421875 -15.54296875 5.62890625 40.7578125 -14.88671875 0 1.328125 20.54296875 0 4.66015625 12.00390625 0 48.69921875 12.50390625 -26.61328125 56.1015625 12.66796875 -21.6640625 27.21484375 -19.62890625 18.83984375 31.01953125 -20.078125 16.5234375 44.67578125 27.453125 -22.24609375 42.48046875 27.09765625 -19.01171875 51.80078125 26.55078125 -11.44921875 46.21875 -8.5703125 7.83203125 38.80859375 -2.796875 -9.390625 46.76953125 -7.9765625 -7.83203125 51.06640625 8.39453125 -10.66015625 55.3984375 7.87890625 0 56.90234375 18.93359375 0 52.58203125 18.890625 10.7890625 60.5625 7.4375 0 41.5390625 12.59765625 -29.94921875 38.35546875 -24.03515625 -4.27734375 39.21484375 -23.21484375 0 38.35546875 -24.03515625 4.27734375 25.69921875 10.27734375 27.04296875 25.83984375 -27.34765625 13.98828125 27.21484375 -19.62890625 -18.83984375 45.69140625 9.01953125 -22.04296875 46.73046875 17.67578125 -22.24609375 42.23046875 9.2578125 -18.14453125 43.25 18.80078125 -18.34765625 30.9453125 9.8828125 -21.50390625 30.95703125 18.6796875 -21.703125 24.53125 10.2421875 -22.484375 24.3828125 18.61328125 -22.6875 46.2109375 18.81640625 -21.4375 29.91015625 34.81640625 22.56640625 42.54296875 36.41796875 19.2109375 23.62109375 32.6953125 23.55078125 53.6484375 27.296875 0 51.71875 36.8125 11.44921875 53.875 37.140625 0 43.25 18.80078125 18.34765625 42.23046875 9.2578125 18.14453125 51.06640625 8.39453125 10.66015625 34.92578125 -25.10546875 7.31640625 34.92578125 -25.10546875 -7.31640625 6.55859375 10.53125 -9.3125 35.07421875 -1.19921875 12.94140625 42.54296875 36.41796875 -19.2109375 44.51171875 36.79296875 -22.44921875 51.71875 36.8125 -11.44921875 54.7890625 36.9140625 -13.8203125 31.67578125 -26.140625 10.265625 31.67578125 -26.140625 -10.265625</float_array>
                    <technique_common>
                        <accessor count="654" source="#pointarray0" stride="3">
                            <param name="X" type="float"/>
                            <param name="Y" type="float"/>
                            <param name="Z" type="float"/>
                        </accessor>
                    </technique_common>
                </source>
                <source id="uvs0">
                    <float_array id="uvarray0" count="774">0.51318359375 0.29620361328125 0.5443115234375 0.29620361328125 0.52557373046875 0.27777099609375 0.5614013671875 0.26544189453125 0.51849365234375 0.2667236328125 0.5614013671875 0.25177001953125 0.520263671875 0.26953125 0.5614013671875 0.25531005859375 0.52386474609375 0.29620361328125 0.5614013671875 0.29620361328125 0.5614013671875 0.30670166015625 0.5989990234375 0.29620361328125 0.6007080078125 0.30670166015625 0.619873046875 0.30670166015625 0.60247802734375 0.3172607421875 0.62139892578125 0.3172607421875 0.6119384765625 0.3302001953125 0.6239013671875 0.3172607421875 0.61395263671875 0.33056640625 0.60589599609375 0.32916259765625 0.57611083984375 0.33282470703125 0.57659912109375 0.32183837890625 0.5614013671875 0.33282470703125 0.5614013671875 0.32464599609375 0.54620361328125 0.32183837890625 0.5452880859375 0.30902099609375 0.50885009765625 0.3172607421875 0.51104736328125 0.30670166015625 0.50054931640625 0.30670166015625 0.50213623046875 0.29620361328125 0.50299072265625 0.30670166015625 0.50445556640625 0.29620361328125 0.4979248046875 0.4658203125 0.49835205078125 0.451171875 0.4879150390625 0.4620361328125 0.4833984375 0.4481201171875 0.4716796875 0.44805908203125 0.4639892578125 0.4371337890625 0.45623779296875 0.44097900390625 0.4141845703125 0.43524169921875 0.41900634765625 0.444091796875 0.3956298828125 0.43682861328125 0.3721923828125 0.4456787109375 0.3721923828125 0.42950439453125 0.34197998046875 0.427978515625 0.3656005859375 0.40765380859375 0.3125 0.41180419921875 0.3104248046875 0.39202880859375 0.254150390625 0.40826416015625 0.254150390625 0.3896484375 0.31378173828125 0.38470458984375 0.33062744140625 0.3896484375 0.317138671875 0.37744140625 0.35076904296875 0.3873291015625 0.36785888671875 0.37225341796875 0.39019775390625 0.37744140625 0.37640380859375 0.364501953125 0.4014892578125 0.37042236328125 0.38458251953125 0.35595703125 0.412109375 0.36334228515625 0.18731689453125 0.108154296875 0.1505126953125 0.1124267578125 0.16168212890625 0.12567138671875 0.1265869140625 0.1168212890625 0.1265869140625 0.13214111328125 0.1026611328125 0.1124267578125 0.09149169921875 0.12567138671875 0.085205078125 0.1004638671875 0.06585693359375 0.108154296875 0.07879638671875 0.0841064453125 0.05645751953125 0.0841064453125 0.085205078125 0.0677490234375 0.06585693359375 0.06011962890625 0.1026611328125 0.0557861328125 0.09149169921875 0.04254150390625 0.1265869140625 0.0513916015625 0.1265869140625 0.0361328125 0.1505126953125 0.0557861328125 0.16168212890625 0.04254150390625 0.16796875 0.0677490234375 0.18731689453125 0.06011962890625 0.17437744140625 0.0841064453125 0.19671630859375 0.0841064453125 0.16796875 0.1004638671875 0.21429443359375 0.04949951171875 0.17718505859375 0.02410888671875 0.1265869140625 0.01483154296875 0.075927734375 0.02410888671875 0.03887939453125 0.04949951171875 0.02532958984375 0.0841064453125 0.03887939453125 0.1187744140625 0.075927734375 0.14410400390625 0.1265869140625 0.15338134765625 0.17718505859375 0.14410400390625 0.21429443359375 0.1187744140625 0.22784423828125 0.0841064453125 0.181396484375 0.1490478515625 0.22149658203125 0.12164306640625 0.2362060546875 0.0841064453125 0.22149658203125 0.046630859375 0.181396484375 0.0191650390625 0.1265869140625 0.0091552734375 0.07177734375 0.0191650390625 0.03167724609375 0.046630859375 0.0169677734375 0.0841064453125 0.03167724609375 0.12164306640625 0.07177734375 0.1490478515625 0.13250732421875 0.16168212890625 0.161376953125 0.24981689453125 0.1531982421875 0.25762939453125 0.16845703125 0.26141357421875 0.16058349609375 0.26739501953125 0.17523193359375 0.27679443359375 0.1673583984375 0.27874755859375 0.16131591796875 0.25018310546875 0.15399169921875 0.25762939453125 0.14703369140625 0.23577880859375 0.13720703125 0.24420166015625 0.13250732421875 0.22650146484375 0.1212158203125 0.2359619140625 0.11431884765625 0.21795654296875 0.10650634765625 0.22882080078125 0.07110595703125 0.2161865234375 0.08184814453125 0.2701416015625 0.00701904296875 0.23785400390625 0.006591796875 0.2821044921875 0.082763671875 0.298583984375 0.86871337890625 0.72503662109375 0.9375 0.7708740234375 0.8499755859375 0.737548828125 0.913818359375 0.77947998046875 0.8779296875 0.7933349609375 0.95623779296875 0.8375244140625 0.9124755859375 0.8375244140625 0.97705078125 0.89483642578125 0.94708251953125 0.91668701171875 1 0.95001220703125 0.93121337890625 0.9666748046875 0.96246337890625 1 0.88824462890625 0.9752197265625 0.8143310546875 0.97064208984375 0.86248779296875 0.92919921875 0.80657958984375 0.9302978515625 0.8026123046875 0.88812255859375 0.729248046875 0.87921142578125 0.7562255859375 0.85003662109375 0.6624755859375 0.8292236328125 0.49835205078125 0.4371337890625 0.47900390625 0.43548583984375 0.4683837890625 0.42205810546875 0.4444580078125 0.4276123046875 0.3721923828125 0.4617919921875 0.39215087890625 0.475341796875 0.32183837890625 0.47845458984375 0.3375244140625 0.4949951171875 0.29364013671875 0.4964599609375 0.9918212890625 0.59075927734375 0.96014404296875 0.59600830078125 0.96636962890625 0.58978271484375 0.93511962890625 0.58770751953125 0.94921875 0.57989501953125 0.9241943359375 0.5633544921875 0.94140625 0.555419921875 0.89923095703125 0.54681396484375 0.90386962890625 0.539794921875 0.83203125 0.52740478515625 0.83514404296875 0.51898193359375 0.79693603515625 0.51373291015625 0.84136962890625 0.5106201171875 0.80010986328125 0.5064697265625 0.80322265625 0.50018310546875 0.7587890625 0.50225830078125 0.7587890625 0.49603271484375 0.48101806640625 0.4029541015625 0.4703369140625 0.40557861328125 0.457763671875 0.40869140625 0.42498779296875 0.41802978515625 0.311767578125 0.4263916015625 0.254150390625 0.427001953125 0.254150390625 0.4478759765625 0.31317138671875 0.44000244140625 0.6519775390625 0.94622802734375 0.58404541015625 0.92919921875 0.5855712890625 0.9202880859375 0.5062255859375 0.9105224609375 0.5062255859375 0.89617919921875 0.58746337890625 0.9041748046875 0.654541015625 0.93353271484375 0.65753173828125 0.91253662109375 0.724609375 0.92144775390625 0.8812255859375 0.88751220703125 0.99212646484375 0.5897216796875 0.96636962890625 0.5751953125 0.89141845703125 0.55853271484375 0.7587890625 0.508544921875 0.6025390625 0.26953125 0.61834716796875 0.29620361328125 0.6043701171875 0.2667236328125 0.62066650390625 0.29620361328125 0.60968017578125 0.29620361328125 0.61181640625 0.30670166015625 0.57855224609375 0.29620361328125 0.57757568359375 0.30902099609375 0.5614013671875 0.3104248046875 0.07952880859375 0.28729248046875 0.00701904296875 0.30670166015625 0.00701904296875 0.296875 0.07745361328125 0.2806396484375 0.1373291015625 0.24371337890625 0.14703369140625 0.23583984375 0.12237548828125 0.2362060546875 0.13250732421875 0.22674560546875 0.11474609375 0.21844482421875 0.6624755859375 0.870849609375 0.5914306640625 0.862548828125 0.5062255859375 0.85418701171875 0.7183837890625 0.96136474609375 0.9927978515625 0.58892822265625 0.9788818359375 0.5731201171875 0.9542236328125 0.55267333984375 0.92950439453125 0.5322265625 0.9163818359375 0.53564453125 0.84765625 0.50439453125 0.37652587890625 0.40155029296875 0.32330322265625 0.3619384765625 0.32623291015625 0.3525390625 0.29022216796875 0.351318359375 0.2918701171875 0.33984375 0.254150390625 0.338623046875 0.07415771484375 0.20513916015625 0.04229736328125 0.2117919921875 0.04168701171875 0.20147705078125 0.00701904296875 0.2132568359375 0.0711669921875 0.260498046875 0.00701904296875 0.28704833984375 0.00701904296875 0.262451171875 0.00701904296875 0.22314453125 0.0418701171875 0.21160888671875 0.00701904296875 0.19854736328125 0.04144287109375 0.20068359375 0.071044921875 0.21685791015625 0.51690673828125 0.32916259765625 0.4989013671875 0.3172607421875 0.50885009765625 0.33056640625 0.51092529296875 0.3302001953125 0.53887939453125 0.33514404296875 0.5614013671875 0.33453369140625 0.5614013671875 0.33514404296875 0.58392333984375 0.33514404296875 0.32952880859375 0.34112548828125 0.254150390625 0.35003662109375 0.28875732421875 0.36065673828125 0.254150390625 0.35943603515625 0.254150390625 0.37493896484375 0.254150390625 0.38226318359375 0.856201171875 1 0.7210693359375 0.948486328125 0.59375 0.82086181640625 0.87261962890625 0.6474609375 0.92266845703125 0.633544921875 0.87890625 0.62939453125 0.9163818359375 0.62310791015625 0.87261962890625 0.6085205078125 0.91015625 0.61273193359375 0.89141845703125 0.58978271484375 0.93511962890625 0.6043701171875 0.50146484375 0.3172607421875 0.5203857421875 0.3172607421875 0.5267333984375 0.325927734375 0.5614013671875 0.3172607421875 0.5960693359375 0.325927734375 0.5062255859375 0.920166015625 0.847412109375 0.66326904296875 0.8759765625 0.6627197265625 0.92889404296875 0.64605712890625 0.96014404296875 0.633544921875 0.9476318359375 0.62310791015625 0.98516845703125 0.62103271484375 0.97265625 0.610595703125 0.99066162109375 0.61163330078125 0.99407958984375 0.602294921875 0.31561279296875 0.4617919921875 0.254150390625 0.46453857421875 0.4124755859375 0.38262939453125 0.426513671875 0.37640380859375 0.43963623046875 0.37078857421875 0.10552978515625 0.22821044921875 0.0745849609375 0.2047119140625 0.99322509765625 0.5914306640625 0.94140625 0.61376953125 0.622314453125 0.30670166015625 0.61395263671875 0.3172607421875 0.4775390625 0.45941162109375 0.46270751953125 0.451416015625 0.46917724609375 0.4617919921875 0.43463134765625 0.4617919921875 0.44061279296875 0.4888916015625 0.39373779296875 0.49755859375 0.99371337890625 0.875 0.981201171875 0.8375244140625 0.83123779296875 0.75 0.8125 0.75836181640625 0.731201171875 0.70001220703125 0.86871337890625 0.8375244140625 0.856201171875 0.8375244140625 0.79998779296875 0.76251220703125 0.833984375 0.56158447265625 0.81011962890625 0.579345703125 0.79107666015625 0.55963134765625 0.7606201171875 0.5689697265625 0.76043701171875 0.55908203125 0.71697998046875 0.71044921875 0.74371337890625 0.69171142578125 0.7562255859375 0.683349609375 0.38433837890625 0.397216796875 0.623291015625 0.17230224609375 0.623291015625 0.217529296875 0.5614013671875 0.17230224609375 0.5614013671875 0.21173095703125 0.5614013671875 0.17120361328125 0.5614013671875 0.2119140625 0.623291015625 0.17120361328125 0.623291015625 0.21710205078125 0.5220947265625 0.30670166015625 0.45416259765625 0.27215576171875 0.4495849609375 0.202880859375 0.3568115234375 0.25689697265625 0.275390625 0.180908203125 0.2767333984375 0.25689697265625 0.278564453125 0.31988525390625 0.357421875 0.32000732421875 0.50372314453125 0.2479248046875 0.623291015625 0.25177001953125 0.50372314453125 0.17230224609375 0.50372314453125 0.17120361328125 0.8341064453125 0.5465087890625 0.50482177734375 0.2198486328125 0.50482177734375 0.17889404296875 0.5614013671875 0.21466064453125 0.5614013671875 0.17889404296875 0.5614013671875 0.1859130859375 0.50482177734375 0.1859130859375 0.5972900390625 0.27777099609375 0.50482177734375 0.22021484375 0.5614013671875 0.21441650390625 0.623291015625 0.17889404296875 0.623291015625 0.1859130859375 0.623291015625 0.21929931640625 0.50482177734375 0.2275390625 0.623291015625 0.22021484375 0.50482177734375 0.21929931640625 0.5467529296875 0.33282470703125 0.623291015625 0.16845703125 0.5614013671875 0.16845703125 0.75909423828125 0.5205078125 0.79998779296875 0.862548828125 0.6239013671875 0.2275390625 0.50372314453125 0.16845703125 0.623291015625 0.22381591796875 0.50372314453125 0.217529296875 0.623291015625 0.2479248046875 0.5062255859375 0.81671142578125 0.45458984375 0.32806396484375 0.254150390625 0.481201171875 0.254150390625 0.4915771484375 0.86248779296875 0.875 0.1265869140625 0.0841064453125 0.623291015625 0.22509765625 0.50469970703125 0.228515625 0.50469970703125 0.23138427734375 0.50482177734375 0.16845703125 0.84454345703125 0.59393310546875 0.5819091796875 0.93798828125 0.5062255859375 0.93243408203125 0.623291015625 0.2177734375 0.50482177734375 0.22509765625 0.623291015625 0.2198486328125 0.50482177734375 0.2177734375 0.50372314453125 0.21710205078125 0.623291015625 0.2222900390625 0.50372314453125 0.2454833984375 0.623291015625 0.2489013671875 0.6492919921875 0.9549560546875 0.623291015625 0.2454833984375 0.50372314453125 0.2222900390625 0.50372314453125 0.22381591796875 0.71807861328125 0.9718017578125</float_array>
                    <technique_common>
                        <accessor count="387" source="#uvarray0" stride="2">
                            <param name="S" type="float"/>
                            <param name="T" type="float"/>
                        </accessor>
                    </technique_common>
                </source>
                <vertices id="vertices0">
                    <input semantic="POSITION" source="#points0"/>
                </vertices>
                <polylist count="1178" material="Material1">
                    <input offset="0" semantic="VERTEX" source="#vertices0"/>
                    <input offset="1" semantic="TEXCOORD" source="#uvs0" set="0"/>
                    <vcount>3 3 3 3 3 3 3 3 3 3 3 3 3 3 3 3 3 3 3 3 3 3 3 3 3 3 3 3 3 3 3 3 3 3 3 3 3 3 3 3 3 3 3 3 3 3 3 3 3 3 3 3 3 3 3 3 3 3 3 3 3 3 3 3 3 3 3 3 3 3 3 3 3 3 3 3 3 3 3 3 3 3 3 3 3 3 3 3 3 3 3 3 3 3 3 3 3 3 3 3 3 3 3 3 3 3 3 3 3 3 3 3 3 3 3 3 3 3 3 3 3 3 3 3 3 3 3 3 3 3 3 3 3 3 3 3 3 3 3 3 3 3 3 3 3 3 3 3 3 3 3 3 3 3 3 3 3 3 3 3 3 3 3 3 3 3 3 3 3 3 3 3 3 3 3 3 3 3 3 3 3 3 3 3 3 3 3 3 3 3 3 3 3 3 3 3 3 3 3 3 3 3 3 3 3 3 3 3 3 3 3 3 3 3 3 3 3 3 3 3 3 3 3 3 3 3 3 3 3 3 3 3 3 3 3 3 3 3 3 3 3 3 3 3 3 3 3 3 3 3 3 3 3 3 3 3 3 3 3 3 3 3 3 3 3 3 3 3 3 3 3 3 3 3 3 3 3 3 3 3 3 3 3 3 3 3 3 3 3 3 3 3 3 3 3 3 3 3 3 3 3 3 3 3 3 3 3 3 3 3 3 3 3 3 3 3 3 3 3 3 3 3 3 3 3 3 3 3 3 3 3 3 3 3 3 3 3 3 3 3 3 3 3 3 3 3 3 3 3 3 3 3 3 3 3 3 3 3 3 3 3 3 3 3 3 3 3 3 3 3 3 3 3 3 3 3 3 3 3 3 3 3 3 3 3 3 3 3 3 3 3 3 3 3 3 3 3 3 3 3 3 3 3 3 3 3 3 3 3 3 3 3 3 3 3 3 3 3 3 3 3 3 3 3 3 3 3 3 3 3 3 3 3 3 3 3 3 3 3 3 3 3 3 3 3 3 3 3 3 3 3 3 3 3 3 3 3 3 3 3 3 3 3 3 3 3 3 3 3 3 3 3 3 3 3 3 3 3 3 3 3 3 3 3 3 3 3 3 3 3 3 3 3 3 3 3 3 3 3 3 3 3 3 3 3 3 3 3 3 3 3 3 3 3 3 3 3 3 3 3 3 3 3 3 3 3 3 3 3 3 3 3 3 3 3 3 3 3 3 3 3 3 3 3 3 3 3 3 3 3 3 3 3 3 3 3 3 3 3 3 3 3 3 3 3 3 3 3 3 3 3 3 3 3 3 3 3 3 3 3 3 3 3 3 3 3 3 3 3 3 3 3 3 3 3 3 3 3 3 3 3 3 3 3 3 3 3 3 3 3 3 3 3 3 3 3 3 3 3 3 3 3 3 3 3 3 3 3 3 3 3 3 3 3 3 3 3 3 3 3 3 3 3 3 3 3 3 3 3 3 3 3 3 3 3 3 3 3 3 3 3 3 3 3 3 3 3 3 3 3 3 3 3 3 3 3 3 3 3 3 3 3 3 3 3 3 3 3 3 3 3 3 3 3 3 3 3 3 3 3 3 3 3 3 3 3 3 3 3 3 3 3 3 3 3 3 3 3 3 3 3 3 3 3 3 3 3 3 3 3 3 3 3 3 3 3 3 3 3 3 3 3 3 3 3 3 3 3 3 3 3 3 3 3 3 3 3 3 3 3 3 3 3 3 3 3 3 3 3 3 3 3 3 3 3 3 3 3 3 3 3 3 3 3 3 3 3 3 3 3 3 3 3 3 3 3 3 3 3 3 3 3 3 3 3 3 3 3 3 3 3 3 3 3 3 3 3 3 3 3 3 3 3 3 3 3 3 3 3 3 3 3 3 3 3 3 3 3 3 3 3 3 3 3 3 3 3 3 3 3 3 3 3 3 3 3 3 3 3 3 3 3 3 3 3 3 3 3 3 3 3 3 3 3 3 3 3 3 3 3 3 3 3 3 3 3 3 3 3 3 3 3 3 3 3 3 3 3 3 3 3 3 3 3 3 3 3 3 3 3 3 3 3 3 3 3 3 3 3 3 3 3 3 3 3 3 3 3 3 3 3 3 3 3 3 3 3 3 3 3 3 3 3 3 3 3 3 3 3 3 3 3 3 3 3 3 3 3 3 3 3 3 3 3 3 3 3 3 3 3 3 3 3 3 3 3 3 3 3 3 3 3 3 3 3 3 3 3 3 3 3 3 3 3 3 3 3 3 3 3 3 3 3 3 3 3 3 3 3 3 3 3 3 3 3 3 3 3 3 3 3 3 3 3 3 3 3 3 3 3 3 3 3 3 3 3 3 3 3 3 3 3 3 3 3 3 3 3 3 3 3 3 3 3 3 3 3 3 3 3 3 3 3 3 3 3 3 3 3 3 3 3 3 3 3 3 3 3 3 3 3 3 3 3 3 3 3 3 3 3 3 3 3 3 3 3 3 3 3 3 3 3 3 3 3 3 3 3 3 3 3 3 3 3 3 3 3 3 3 3 3 3 3 3 3 3 3 3 3 3 3 3 3 3 3 3 3 3 3 3 3 3 3 3 3 3 3 3 3 3 3 3 3 3 3 3 3 3 3 3 3 3 3 3 3 3 3 3 3 3 3 3 3 3 3 3 3 3</vcount>
                    <p>2 2 1 1 0 0 3 3 1 1 2 2 4 4 3 3 2 2 5 5 3 3 4 4 6 6 5 5 4 4 7 7 5 5 6 6 8 8 7 7 6 6 9 9 7 7 8 8 10 10 9 9 8 8 11 11 9 9 10 10 12 12 11 11 10 10 13 13 11 11 12 12 14 14 13 13 12 12 15 15 13 13 14 14 16 16 15 15 14 14 17 17 15 15 16 16 18 18 17 17 16 16 19 19 17 17 18 18 20 20 19 19 18 18 21 21 19 19 20 20 22 22 21 21 20 20 23 23 21 21 22 22 24 24 23 23 22 22 25 25 23 23 24 24 26 26 25 25 24 24 27 27 25 25 26 26 28 28 27 27 26 26 29 29 27 27 28 28 30 30 29 29 28 28 31 31 29 29 30 30 8 8 31 31 30 30 6 6 31 31 8 8 34 34 33 33 32 32 35 35 33 33 34 34 36 36 35 35 34 34 37 37 35 35 36 36 38 38 37 37 36 36 39 39 37 37 38 38 40 40 39 39 38 38 41 41 39 39 40 40 42 42 41 41 40 40 43 43 41 41 42 42 44 44 43 43 42 42 45 45 43 43 44 44 46 46 45 45 44 44 47 47 45 45 46 46 48 48 47 47 46 46 49 49 47 47 48 48 50 47 49 49 48 48 51 50 49 49 50 47 52 51 51 50 50 47 53 52 51 50 52 51 54 53 53 52 52 51 55 54 53 52 54 53 56 55 55 54 54 53 57 56 55 54 56 55 58 57 57 56 56 55 59 58 57 56 58 57 60 59 59 58 58 57 63 62 62 61 61 60 64 63 62 61 63 62 65 64 64 63 63 62 66 65 64 63 65 64 67 66 66 65 65 64 68 67 66 65 67 66 69 68 68 67 67 66 70 69 68 67 69 68 71 70 70 69 69 68 72 71 70 69 71 70 73 72 72 71 71 70 74 73 72 71 73 72 75 74 74 73 73 72 76 75 74 73 75 74 77 76 76 75 75 74 78 77 76 75 77 76 79 78 78 77 77 76 80 79 78 77 79 78 81 80 80 79 79 78 82 81 80 79 81 80 83 82 82 81 81 80 84 83 82 81 83 82 61 60 84 83 83 82 62 61 84 83 61 60 87 78 86 84 85 80 88 85 86 84 87 78 89 76 88 85 87 78 90 86 88 85 89 76 91 74 90 86 89 76 92 87 90 86 91 74 93 72 92 87 91 74 94 88 92 87 93 72 95 70 94 88 93 72 96 89 94 88 95 70 97 68 96 89 95 70 98 90 96 89 97 68 99 66 98 90 97 68 100 91 98 90 99 66 101 64 100 91 99 66 102 92 100 91 101 64 103 62 102 92 101 64 104 93 102 92 103 62 105 60 104 93 103 62 106 94 104 93 105 60 107 82 106 94 105 60 108 95 106 94 107 82 85 80 108 95 107 82 86 84 108 95 85 80 106 94 109 96 104 93 110 97 109 96 106 94 108 95 110 97 106 94 111 98 110 97 108 95 86 84 111 98 108 95 112 99 111 98 86 84 88 85 112 99 86 84 113 100 112 99 88 85 90 86 113 100 88 85 114 101 113 100 90 86 92 87 114 101 90 86 115 102 114 101 92 87 94 88 115 102 92 87 116 103 115 102 94 88 96 89 116 103 94 88 117 104 116 103 96 89 98 90 117 104 96 89 118 105 117 104 98 90 100 91 118 105 98 90 119 106 118 105 100 91 102 92 119 106 100 91 120 107 119 106 102 92 104 93 120 107 102 92 109 96 120 107 104 93 110 97 121 93 109 96 122 94 121 93 110 97 111 98 122 94 110 97 123 95 122 94 111 98 112 99 123 95 111 98 124 84 123 95 112 99 113 100 124 84 112 99 125 85 124 84 113 100 114 101 125 85 113 100 126 86 125 85 114 101 115 102 126 86 114 101 127 87 126 86 115 102 116 103 127 87 115 102 128 88 127 87 116 103 117 104 128 88 116 103 129 89 128 88 117 104 118 105 129 89 117 104 130 90 129 89 118 105 119 106 130 90 118 105 131 91 130 90 119 106 120 107 131 91 119 106 132 92 131 91 120 107 109 96 132 92 120 107 121 93 132 92 109 96 122 94 133 62 121 93 134 60 133 62 122 94 123 95 134 60 122 94 135 82 134 60 123 95 124 84 135 82 123 95 136 80 135 82 124 84 125 85 136 80 124 84 137 78 136 80 125 85 126 86 137 78 125 85 138 76 137 78 126 86 127 87 138 76 126 86 139 74 138 76 127 87 128 88 139 74 127 87 140 72 139 74 128 88 129 89 140 72 128 88 141 70 140 72 129 89 130 90 141 70 129 89 142 68 141 70 130 90 131 91 142 68 130 90 143 66 142 68 131 91 132 92 143 66 131 91 144 64 143 66 132 92 121 93 144 64 132 92 133 62 144 64 121 93 135 82 145 83 134 60 146 81 145 83 135 82 136 80 146 81 135 82 147 79 146 81 136 80 137 78 147 79 136 80 148 77 147 79 137 78 138 76 148 77 137 78 149 75 148 77 138 76 139 74 149 75 138 76 150 73 149 75 139 74 140 72 150 73 139 74 151 71 150 73 140 72 141 70 151 71 140 72 152 69 151 71 141 70 142 68 152 69 141 70 153 67 152 69 142 68 143 66 153 67 142 68 154 65 153 67 143 66 144 64 154 65 143 66 155 63 154 65 144 64 133 62 155 63 144 64 156 61 155 63 133 62 134 60 156 61 133 62 145 83 156 61 134 60 159 62 158 93 157 60 160 92 158 93 159 62 161 64 160 92 159 62 162 91 160 92 161 64 163 66 162 91 161 64 164 90 162 91 163 66 165 68 164 90 163 66 166 89 164 90 165 68 167 70 166 89 165 68 168 88 166 89 167 70 169 72 168 88 167 70 170 87 168 88 169 72 171 74 170 87 169 72 172 86 170 87 171 74 173 76 172 86 171 74 174 85 172 86 173 76 175 78 174 85 173 76 176 84 174 85 175 78 177 80 176 84 175 78 178 95 176 84 177 80 179 82 178 95 177 80 180 94 178 95 179 82 157 60 180 94 179 82 158 93 180 94 157 60 172 86 181 101 170 87 182 100 181 101 172 86 174 85 182 100 172 86 183 99 182 100 174 85 176 84 183 99 174 85 184 98 183 99 176 84 178 95 184 98 176 84 185 97 184 98 178 95 180 94 185 97 178 95 186 96 185 97 180 94 158 93 186 96 180 94 187 107 186 96 158 93 160 92 187 107 158 93 188 106 187 107 160 92 162 91 188 106 160 92 189 105 188 106 162 91 164 90 189 105 162 91 190 104 189 105 164 90 166 89 190 104 164 90 191 103 190 104 166 89 168 88 191 103 166 89 192 102 191 103 168 88 170 87 192 102 168 88 181 101 192 102 170 87 194 93 63 62 193 94 65 64 63 62 194 93 195 92 65 64 194 93 67 66 65 64 195 92 196 91 67 66 195 92 69 68 67 66 196 91 197 90 69 68 196 91 71 70 69 68 197 90 198 89 71 70 197 90 73 72 71 70 198 89 199 88 73 72 198 89 75 74 73 72 199 88 200 87 75 74 199 88 77 76 75 74 200 87 201 86 77 76 200 87 79 78 77 76 201 86 202 85 79 78 201 86 81 80 79 78 202 85 203 84 81 80 202 85 83 82 81 80 203 84 204 95 83 82 203 84 61 60 83 82 204 95 193 94 61 60 204 95 63 62 61 60 193 94 186 96 194 93 185 97 195 92 194 93 186 96 187 107 195 92 186 96 196 91 195 92 187 107 188 106 196 91 187 107 197 90 196 91 188 106 189 105 197 90 188 106 198 89 197 90 189 105 190 104 198 89 189 105 199 88 198 89 190 104 191 103 199 88 190 104 200 87 199 88 191 103 192 102 200 87 191 103 201 86 200 87 192 102 181 101 201 86 192 102 202 85 201 86 181 101 182 100 202 85 181 101 203 84 202 85 182 100 183 99 203 84 182 100 204 95 203 84 183 99 184 98 204 95 183 99 193 94 204 95 184 98 185 97 193 94 184 98 194 93 193 94 185 97 33 110 205 109 32 108 206 111 205 109 33 110 207 112 206 111 33 110 208 113 206 111 207 112 209 114 208 113 207 112 210 115 208 113 209 114 211 116 210 115 209 114 212 117 210 115 211 116 213 118 212 117 211 116 214 119 212 117 213 118 215 120 214 119 213 118 216 121 214 119 215 120 217 122 216 121 215 120 218 123 216 121 217 122 219 124 218 123 217 122 220 125 218 123 219 124 221 123 220 125 219 124 222 126 220 125 221 123 223 115 222 126 221 123 224 113 222 126 223 115 225 114 224 113 223 115 226 112 224 113 225 114 229 129 228 128 227 127 230 130 228 128 229 129 231 131 230 130 229 129 232 132 230 130 231 131 233 133 232 132 231 131 234 134 232 132 233 133 235 135 234 134 233 133 236 136 234 134 235 135 237 137 236 136 235 135 238 138 236 136 237 137 239 139 238 138 237 137 240 140 238 138 239 139 241 141 240 140 239 139 242 142 240 140 241 141 243 143 242 142 241 141 244 144 242 142 243 143 245 145 244 144 243 143 246 146 244 144 245 145 249 33 248 34 247 32 250 35 248 34 249 33 226 147 250 35 249 33 251 148 250 35 226 147 252 149 251 148 226 147 253 37 251 148 252 149 254 150 253 37 252 149 255 39 253 37 254 150 256 43 255 39 254 150 257 41 255 39 256 43 258 42 257 41 256 43 259 40 257 41 258 42 260 151 259 40 258 42 261 152 259 40 260 151 262 153 261 152 260 151 263 154 261 152 262 153 264 155 263 154 262 153 266 158 265 157 32 156 267 159 265 157 266 158 268 160 267 159 266 158 269 161 267 159 268 160 270 162 269 161 268 160 271 163 269 161 270 162 272 164 271 163 270 162 273 165 271 163 272 164 274 166 273 165 272 164 275 167 273 165 274 166 276 168 275 167 274 166 277 169 275 167 276 168 278 170 277 169 276 168 279 171 277 169 278 170 280 172 279 171 278 170 281 170 279 171 280 172 282 174 226 147 225 173 252 149 226 147 282 174 283 175 252 149 282 174 254 150 252 149 283 175 284 176 254 150 283 175 256 43 254 150 284 176 285 45 256 43 284 176 286 44 256 43 285 45 287 46 286 44 285 45 288 177 286 44 287 46 289 178 288 177 287 46 290 179 288 177 289 178 291 177 290 179 289 178 292 180 290 179 291 177 44 44 292 180 291 177 42 42 292 180 44 44 295 183 294 182 293 181 296 184 294 182 295 183 297 185 296 184 295 183 298 183 296 184 297 185 299 186 298 183 297 185 300 187 298 183 299 186 301 188 300 187 299 186 302 189 300 187 301 188 303 144 302 189 301 188 304 142 302 189 303 144 305 143 304 142 303 144 306 141 304 142 305 143 307 190 306 141 305 143 308 135 306 141 307 190 310 158 309 192 247 191 311 160 309 192 310 158 312 159 311 160 310 158 313 161 311 160 312 159 314 193 313 161 312 159 315 163 313 161 314 193 316 165 315 163 314 193 317 164 315 163 316 165 318 166 317 164 316 165 319 168 317 164 318 166 320 167 319 168 318 166 321 169 319 168 320 167 322 194 321 169 320 167 11 11 7 7 9 9 323 195 7 7 11 11 324 196 323 195 11 11 325 197 323 195 324 196 326 198 325 197 324 196 327 199 325 197 326 198 328 200 327 199 326 198 329 201 327 199 328 200 330 202 329 201 328 200 331 9 329 201 330 202 332 203 331 9 330 202 25 25 331 9 332 203 23 23 25 25 332 203 333 126 206 111 208 113 334 204 206 111 333 126 335 205 334 204 333 126 336 206 334 204 335 205 337 204 336 206 335 205 338 207 336 206 337 204 339 109 338 207 337 204 340 208 338 207 339 109 341 209 340 208 339 109 342 210 340 208 341 209 343 211 342 210 341 209 344 212 342 210 343 211 303 144 346 146 345 145 347 213 346 146 303 144 301 188 347 213 303 144 348 214 347 213 301 188 299 186 348 214 301 188 349 215 348 214 299 186 297 185 349 215 299 186 350 186 349 215 297 185 295 183 350 186 297 185 351 187 350 186 295 183 293 181 351 187 295 183 352 216 351 187 293 181 309 192 341 218 247 217 343 219 341 218 309 192 353 162 343 219 309 192 344 220 343 219 353 162 354 221 344 220 353 162 355 222 344 220 354 221 319 168 355 222 354 221 281 170 355 222 319 168 321 169 281 170 319 168 279 171 281 170 321 169 322 194 279 171 321 169 45 45 356 176 43 43 357 223 356 176 45 45 358 51 357 223 45 45 359 53 357 223 358 51 360 52 359 53 358 51 361 54 359 53 360 52 362 224 361 54 360 52 363 225 361 54 362 224 364 226 363 225 362 224 365 227 363 225 364 226 366 228 365 227 364 226 223 115 367 116 225 114 368 117 367 116 223 115 221 123 368 117 223 115 369 119 368 117 221 123 370 121 369 119 221 123 59 120 369 119 370 121 371 122 59 120 370 121 372 229 59 120 371 122 373 230 372 229 371 122 374 231 372 229 373 230 375 232 374 231 373 230 378 234 377 233 376 207 379 235 377 233 378 234 380 233 379 235 378 234 381 236 379 235 380 233 382 237 381 236 380 233 383 232 381 236 382 237 280 238 383 232 382 237 384 237 383 232 280 238 278 239 384 237 280 238 385 240 384 237 278 239 386 241 26 26 24 24 387 242 26 26 386 241 388 243 387 242 386 241 389 244 387 242 388 243 390 245 389 244 388 243 391 246 389 244 390 245 392 247 391 246 390 245 393 248 391 246 392 247 22 22 393 248 392 247 20 20 393 248 22 22 372 249 57 56 59 58 394 225 57 56 372 249 374 227 394 225 372 249 395 226 394 225 374 227 366 228 395 226 374 227 396 250 395 226 366 228 364 226 396 250 366 228 397 251 396 250 364 226 362 224 397 251 364 226 360 52 397 251 362 224 394 225 55 54 57 56 398 224 55 54 394 225 395 226 398 224 394 225 399 251 398 224 395 226 396 250 399 251 395 226 400 252 399 251 396 250 397 251 400 252 396 250 401 253 400 252 397 251 360 52 401 253 397 251 402 254 401 253 360 52 240 140 403 255 238 138 352 216 403 255 240 140 404 256 352 216 240 140 351 187 352 216 404 256 405 189 351 187 404 256 406 188 351 187 405 189 244 144 406 188 405 189 407 213 406 188 244 144 246 146 407 213 244 144 408 257 407 213 246 146 411 260 410 259 409 258 412 261 410 259 411 260 413 262 412 261 411 260 414 263 412 261 413 262 415 264 414 263 413 262 416 265 414 263 415 264 312 159 416 265 415 264 417 157 416 265 312 159 310 158 417 157 312 159 247 156 417 157 310 158 387 242 28 28 26 26 418 266 28 28 387 242 389 244 418 266 387 242 419 267 418 266 389 244 420 268 419 267 389 244 421 269 419 267 420 268 391 246 421 269 420 268 422 270 421 269 391 246 16 16 422 270 391 246 14 14 422 270 16 16 296 184 423 271 294 182 424 182 423 271 296 184 298 183 424 182 296 184 425 181 424 182 298 183 300 187 425 181 298 183 426 216 425 181 300 187 427 256 426 216 300 187 428 140 426 216 427 256 304 142 428 140 427 256 409 258 263 273 264 272 429 274 263 273 409 258 410 259 429 274 409 258 430 275 429 274 410 259 431 276 430 275 410 259 432 277 430 275 431 276 433 278 432 277 431 276 434 279 432 277 433 278 248 280 434 279 433 278 435 180 260 151 258 42 436 281 260 151 435 180 290 179 436 281 435 180 437 282 436 281 290 179 438 281 437 282 290 179 439 153 437 282 438 281 440 151 439 153 438 281 441 152 439 153 440 151 40 40 441 152 440 151 43 43 39 39 41 41 442 150 39 39 43 43 356 176 442 150 43 43 443 175 442 150 356 176 444 283 443 175 356 176 445 174 443 175 444 283 446 284 445 174 444 283 211 285 445 174 446 284 213 59 211 285 446 284 205 109 447 209 32 108 448 208 447 209 205 109 376 207 448 208 205 109 449 210 448 208 376 207 377 233 449 210 376 207 450 286 449 210 377 233 385 240 450 286 377 233 451 287 450 286 385 240 278 239 451 287 385 240 265 157 34 280 32 288 452 278 34 280 265 157 453 265 452 278 265 157 454 289 452 278 453 265 455 263 454 289 453 265 456 261 454 289 455 263 457 262 456 261 455 263 458 260 456 261 457 262 13 13 324 196 11 11 326 198 324 196 13 13 459 290 326 198 13 13 328 200 326 198 459 290 17 17 328 200 459 290 460 291 328 200 17 17 19 19 460 291 17 17 21 21 460 291 19 19 461 292 36 36 34 34 462 293 36 36 461 292 463 294 462 293 461 292 464 295 462 293 463 294 465 296 464 295 463 294 441 152 464 295 465 296 466 297 441 152 465 296 467 154 441 152 466 297 470 132 469 299 468 298 471 128 469 299 470 132 472 130 471 128 470 132 473 129 471 128 472 130 474 131 473 129 472 130 475 300 473 129 474 131 476 301 475 300 474 131 477 302 475 300 476 301 479 134 468 298 478 136 470 132 468 298 479 134 480 133 470 132 479 134 474 131 470 132 480 133 481 303 474 131 480 133 476 301 474 131 481 303 482 304 476 301 481 303 483 305 476 301 482 304 452 278 461 279 34 280 463 277 461 279 452 278 484 276 463 277 452 278 465 275 463 277 484 276 485 259 465 275 484 276 466 274 465 275 485 259 486 258 466 274 485 259 415 264 314 193 312 159 487 306 314 193 415 264 488 307 487 306 415 264 489 308 487 306 488 307 490 309 489 308 488 307 491 310 489 308 490 309 492 308 491 310 490 309 495 301 494 311 493 305 496 302 494 311 495 301 497 300 496 302 495 301 498 312 496 302 497 300 229 129 498 312 497 300 499 313 498 312 229 129 227 127 499 313 229 129 285 45 52 51 50 47 500 223 52 51 285 45 284 176 500 223 285 45 501 314 500 223 284 176 502 283 501 314 284 176 56 55 501 314 502 283 58 57 56 55 502 283 253 37 250 35 251 148 503 36 250 35 253 37 504 38 503 36 253 37 505 293 503 36 504 38 506 295 505 293 504 38 432 294 505 293 506 295 430 296 432 294 506 295 507 229 217 122 215 120 508 230 217 122 507 229 365 231 508 230 507 229 375 232 508 230 365 231 366 238 375 232 365 231 374 231 375 232 366 238 511 317 510 316 509 315 512 318 510 316 511 317 513 319 512 318 511 317 514 320 512 318 513 319 515 321 514 320 513 319 516 322 514 320 515 321 337 204 517 111 339 109 222 126 517 111 337 204 335 205 222 126 337 204 220 125 222 126 335 205 333 126 220 125 335 205 218 123 220 125 333 126 10 10 421 269 12 12 419 267 421 269 10 10 518 323 419 267 10 10 418 266 419 267 518 323 30 30 418 266 518 323 28 28 418 266 30 30 35 35 207 147 33 33 519 148 207 147 35 35 37 37 519 148 35 35 520 149 519 148 37 37 442 150 520 149 37 37 443 175 520 149 442 150 507 249 363 225 365 227 521 56 363 225 507 249 215 58 521 56 507 249 522 57 521 56 215 58 213 59 522 57 215 58 446 284 522 57 213 59 47 47 358 51 45 45 523 50 358 51 47 47 49 49 523 50 47 47 402 254 523 50 49 49 51 50 402 254 49 49 53 52 402 254 51 50 342 210 338 207 340 208 380 233 338 207 342 210 524 286 380 233 342 210 525 240 380 233 524 286 355 287 525 240 524 286 281 239 525 240 355 287 527 326 316 325 526 324 528 327 316 325 527 326 529 328 528 327 527 326 530 326 528 327 529 328 491 329 530 326 529 328 492 330 530 326 491 329 334 204 205 109 206 111 376 207 205 109 334 204 336 206 376 207 334 204 378 234 376 207 336 206 338 207 378 234 336 206 380 233 378 234 338 207 533 333 532 332 531 331 534 315 532 332 533 333 535 321 534 315 533 333 536 333 534 315 535 321 537 334 536 333 535 321 267 159 453 265 265 157 538 264 453 265 267 159 539 193 538 264 267 159 540 306 538 264 539 193 541 335 540 306 539 193 339 109 247 108 341 209 249 110 247 108 339 109 517 111 249 110 339 109 226 112 249 110 517 111 224 113 226 112 517 111 521 56 361 54 363 225 542 55 361 54 521 56 522 57 542 55 521 56 444 283 542 55 522 57 446 284 444 283 522 57 543 304 495 301 493 305 544 303 495 301 543 304 545 190 544 303 543 304 233 133 544 303 545 190 235 135 233 133 545 190 548 338 547 337 546 336 549 339 547 337 548 338 550 340 549 339 548 338 551 339 549 339 550 340 552 341 551 339 550 340 506 295 261 152 430 296 259 40 261 152 506 295 504 38 259 40 506 295 255 39 259 40 504 38 253 37 255 39 504 38 554 138 553 137 478 136 555 139 553 137 554 138 428 140 555 139 554 138 306 141 555 139 428 140 304 142 306 141 428 140 433 278 416 265 417 157 556 289 416 265 433 278 431 276 556 289 433 278 412 261 556 289 431 276 410 259 412 261 431 276 3 3 331 9 1 1 329 201 331 9 3 3 557 342 329 201 3 3 327 199 329 201 557 342 325 197 327 199 557 342 560 341 559 339 558 337 561 340 559 339 560 341 562 343 561 340 560 341 563 344 561 340 562 343 566 346 565 337 564 345 567 341 565 337 566 346 568 347 567 341 566 346 569 348 567 341 568 347 503 36 248 34 250 35 434 292 248 34 503 36 505 293 434 292 503 36 432 294 434 292 505 293 552 346 564 337 570 345 566 341 564 337 552 346 571 349 566 341 552 346 568 350 566 341 571 349 390 245 22 22 392 247 572 351 22 22 390 245 388 243 572 351 390 245 386 241 572 351 388 243 573 298 234 134 236 136 232 132 234 134 573 298 574 299 232 132 573 298 228 128 232 132 574 299 577 315 576 353 575 352 578 317 576 353 577 315 579 316 578 317 577 315 580 318 578 317 579 316 581 312 475 300 477 302 473 129 475 300 581 312 582 313 473 129 581 312 583 127 473 129 582 313 542 55 359 53 361 54 584 314 359 53 542 55 444 283 584 314 542 55 356 176 584 314 444 283 275 167 528 354 273 165 322 194 528 354 275 167 277 169 322 194 275 167 279 171 322 194 277 169 406 188 350 186 351 187 585 214 350 186 406 188 407 213 585 214 406 188 408 257 585 214 407 213 276 168 451 222 278 170 586 221 451 222 276 168 272 164 586 221 276 168 270 162 586 221 272 164 292 180 438 281 290 179 440 151 438 281 292 180 42 42 440 151 292 180 40 40 440 151 42 42 367 285 282 174 225 173 587 284 282 174 367 285 60 59 587 284 367 285 58 57 587 284 60 59 545 190 241 141 235 135 243 143 241 141 545 190 588 355 243 143 545 190 245 145 243 143 588 355 591 346 590 341 589 356 592 337 590 341 591 346 593 345 592 337 591 346 594 352 592 337 593 345 480 133 307 190 481 303 308 135 307 190 480 133 479 134 308 135 480 133 478 136 308 135 479 134 596 315 575 357 595 352 577 333 575 357 596 315 597 358 577 333 596 315 579 359 577 333 597 358 599 321 595 357 598 352 596 333 595 357 599 321 533 315 596 333 599 321 531 360 596 333 533 315 286 44 258 42 256 43 435 180 258 42 286 44 288 177 435 180 286 44 290 179 435 180 288 177 349 215 600 257 348 214 601 361 600 257 349 215 408 257 601 361 349 215 527 326 491 329 529 328 489 330 491 329 527 326 487 362 489 330 527 326 530 326 273 325 528 327 541 324 273 325 530 326 540 362 541 324 530 326 602 363 262 153 437 282 264 155 262 153 602 363 603 364 264 155 602 363 242 142 404 256 240 140 405 189 404 256 242 142 244 144 405 189 242 142 54 53 501 314 56 55 500 223 501 314 54 53 52 51 500 223 54 53 502 283 587 284 58 57 282 174 587 284 502 283 283 175 282 174 502 283 449 210 447 209 448 208 604 211 447 209 449 210 605 212 604 211 449 210 307 190 482 304 481 303 606 365 482 304 307 190 607 355 606 365 307 190 537 321 608 333 536 315 609 357 608 333 537 321 610 352 609 357 537 321 218 123 214 119 216 121 212 117 214 119 218 123 210 115 212 117 218 123 611 366 70 69 72 71 68 67 70 69 611 366 66 65 68 67 611 366 611 366 76 75 78 77 74 73 76 75 611 366 72 71 74 73 611 366 611 366 82 81 84 83 80 79 82 81 611 366 78 77 80 79 611 366 611 366 64 63 66 65 62 61 64 63 611 366 84 83 62 61 611 366 612 307 492 308 490 309 540 306 492 308 612 307 538 264 540 306 612 307 0 0 4 4 2 2 29 29 4 4 0 0 27 27 29 29 0 0 1 1 27 27 0 0 25 25 27 27 1 1 331 9 25 25 1 1 613 366 151 71 152 69 150 73 151 71 613 366 149 75 150 73 613 366 615 368 594 345 614 367 616 337 594 345 615 368 617 345 616 337 615 368 590 341 618 369 589 356 569 356 618 369 590 341 567 346 569 356 590 341 619 192 266 158 32 191 268 160 266 158 619 192 270 162 268 160 619 192 485 259 458 260 486 258 456 261 458 260 485 259 484 276 456 261 485 259 551 339 547 370 549 353 570 337 547 370 551 339 552 341 570 337 551 339 538 264 455 263 453 265 457 262 455 263 538 264 499 371 457 262 538 264 423 271 620 372 294 182 621 373 620 372 423 271 622 372 621 373 423 271 393 248 16 16 391 246 18 18 16 16 393 248 20 20 18 18 393 248 384 237 381 236 383 232 377 233 381 236 384 237 385 240 377 233 384 237 401 253 399 251 400 252 53 52 399 251 401 253 402 254 53 52 401 253 550 340 571 343 552 341 623 344 571 343 550 340 548 338 623 344 550 340 518 323 8 8 30 30 10 10 8 8 518 323 24 24 572 351 386 241 22 22 572 351 24 24 14 14 421 269 422 270 12 12 421 269 14 14 332 203 21 21 23 23 330 202 21 21 332 203 497 300 231 131 229 129 495 301 231 131 497 300 459 290 15 15 17 17 13 13 15 15 459 290 345 145 305 143 303 144 607 355 305 143 345 145 237 137 241 141 239 139 235 135 241 141 237 137 4 4 31 31 6 6 29 29 31 31 4 4 323 195 5 5 7 7 325 197 5 5 323 195 460 291 330 202 328 200 21 21 330 202 460 291 325 197 3 3 5 5 557 342 3 3 325 197 368 117 60 118 367 116 369 119 60 118 368 117 371 122 221 123 219 124 370 121 221 123 371 122 210 115 333 126 208 113 218 123 333 126 210 115 373 230 219 124 375 232 371 122 219 124 373 230 525 240 382 237 380 233 281 239 382 237 525 240 508 230 219 124 217 122 375 232 219 124 508 230 344 212 524 286 342 210 355 287 524 286 344 212 450 286 605 212 449 210 451 287 605 212 450 286 427 256 302 189 304 142 300 187 302 189 427 256 624 255 428 140 554 138 426 216 428 140 624 255 306 141 553 137 555 139 308 135 553 137 306 141 545 190 625 365 588 355 543 304 625 365 545 190 616 370 592 337 594 352 617 352 592 337 616 370 565 345 592 337 617 352 567 346 592 337 565 345 153 67 613 366 152 69 154 65 613 366 153 67 155 63 613 366 154 65 156 61 613 366 155 63 544 303 231 131 495 301 233 133 231 131 544 303 145 83 613 366 156 61 146 81 613 366 145 83 349 215 585 214 408 257 350 186 585 214 349 215 147 79 613 366 146 81 148 77 613 366 147 79 626 347 591 341 589 348 627 346 591 341 626 347 562 349 627 341 626 350 560 346 627 341 562 349 586 221 605 220 451 222 270 162 605 220 586 221 614 375 629 345 628 374 594 337 629 345 614 375 628 377 631 345 630 376 629 337 631 345 628 377 631 337 632 338 630 336 633 339 632 338 631 337 273 165 539 193 271 163 541 335 539 193 273 165 560 346 634 337 627 341 558 345 634 337 560 346 627 346 593 337 591 341 634 345 593 337 627 346 635 378 595 321 575 334 636 379 595 321 635 378 580 318 576 319 578 317 637 320 576 319 580 318 639 380 638 321 598 334 640 381 638 321 639 380 599 334 535 321 533 333 598 357 535 321 599 334 638 352 535 321 598 357 610 357 535 321 638 352 547 352 564 337 641 370 570 345 564 337 547 352 641 352 565 337 617 370 564 345 565 337 641 352 642 377 547 345 641 337 546 376 547 345 642 377 643 375 641 345 617 337 642 374 641 345 643 375 637 320 575 321 576 319 635 322 575 321 637 320 644 382 424 182 425 181 622 372 424 182 644 382 294 182 645 382 293 181 620 372 645 382 294 182 447 218 619 192 32 217 604 219 619 192 447 218 467 273 486 258 646 272 466 274 486 258 467 273 513 353 509 315 515 352 511 317 509 315 513 353 454 289 484 276 452 278 456 261 484 276 454 289 248 280 417 157 247 288 433 278 417 157 248 280 316 165 320 167 318 166 528 354 320 167 316 165 311 160 353 162 309 192 313 161 353 162 311 160 526 335 314 193 487 306 316 165 314 193 526 335 315 163 353 162 313 161 317 164 353 162 315 163 317 164 354 221 353 162 319 168 354 221 317 164 269 161 539 193 267 159 271 163 539 193 269 161 604 219 270 162 619 192 605 220 270 162 604 219 209 173 445 174 211 285 207 147 445 174 209 173 462 293 38 38 36 36 464 295 38 38 462 293 464 295 40 40 38 38 441 152 40 40 464 295 523 50 360 52 358 51 402 254 360 52 523 50 357 223 584 314 356 176 359 53 584 314 357 223 445 174 520 149 443 175 207 147 520 149 445 174 287 46 50 47 48 48 285 45 50 47 287 46 289 178 48 48 46 46 287 46 48 48 289 178 467 154 439 153 441 152 646 155 439 153 467 154 291 177 46 46 44 44 289 178 46 46 291 177 436 281 262 153 260 151 437 282 262 153 436 281 582 371 415 264 413 262 488 307 415 264 582 371 632 338 561 340 563 344 633 339 561 340 632 338 439 153 602 363 437 282 646 155 602 363 439 153 647 311 476 301 483 305 477 302 476 301 647 311 608 315 515 357 509 333 609 352 515 357 608 315 516 378 609 321 648 379 515 334 609 321 516 378 649 358 509 333 510 359 608 315 509 333 649 358 648 384 610 321 650 383 609 334 610 321 648 384 650 380 638 321 640 381 610 334 638 321 650 380 651 360 608 333 649 385 536 315 608 333 651 360 536 333 532 332 534 315 651 331 532 332 536 333 631 370 559 339 633 353 558 337 559 339 631 370 636 384 598 321 595 334 639 383 598 321 636 384 634 337 631 352 629 370 558 345 631 352 634 337 347 213 600 257 346 146 348 214 600 257 347 213 429 297 261 152 263 154 430 296 261 152 429 297 629 352 593 337 634 345 594 370 593 337 629 352 398 224 53 52 55 54 399 251 53 52 398 224 556 289 414 263 416 265 412 261 414 263 556 289 652 386 644 382 426 216 284 176 283 175 502 283 352 216 293 181 645 382 624 255 652 386 426 216 320 167 528 354 322 194 646 155 603 364 602 363 530 326 492 330 540 362 527 326 526 324 487 362 420 268 389 244 391 246 470 132 474 131 472 130 426 216 644 382 425 181 403 255 352 216 653 386 653 386 352 216 645 382 473 129 583 127 471 128 307 190 305 143 607 355 517 111 222 126 224 113 617 345 615 368 643 367 377 233 379 235 381 236 382 237 281 239 280 238 259 40 255 39 257 41 423 271 424 182 622 372 369 119 59 120 60 118 531 360 597 385 596 333 276 168 274 166 272 164 592 337 567 346 590 341 535 321 610 357 537 334 39 39 442 150 37 37 149 75 613 366 148 77 538 264 612 307 499 371 207 147 519 148 520 149 478 136 553 137 308 135 561 340 633 339 559 339 232 132 228 128 230 130</p>
                </polylist>
            </mesh>
        </geometry>
    </library_geometries>
    <library_visual_scenes>
        <visual_scene id="VisualSceneNode">
            <node id="node0" name="m0" type="NODE">
                <instance_geometry url="#mesh0">
                    <bind_material>
                        <technique_common>
                            <instance_material symbol="Material1" target="#mat0">
                                <bind_vertex_input semantic="UVSET0" input_semantic="TEXCOORD" input_set="0"></bind_vertex_input>
                            </instance_material>
                        </technique_common>
                    </bind_material>
                </instance_geometry>
            </node>
        </visual_scene>
    </library_visual_scenes>
    <scene>
        <instance_visual_scene url="#VisualSceneNode"></instance_visual_scene>
    </scene>
</COLLADA>
