# Blender v2.79 (sub 0) OBJ File: ''
# www.blender.org
mtllib face 8.mtl
o n0b0_n0b0.006
v 2.994141 2.960156 -1.076172
v 5.125782 0.715625 -1.908984
v 3.760937 2.609375 -1.273438
v 3.991016 0.344141 -2.542578
v 4.591016 2.908203 -0.954297
v 3.548047 0.478516 -2.876563
v 2.740625 2.702734 -1.567188
v 3.295313 0.042969 -2.642969
v 3.787500 2.427734 -1.860547
v 3.687891 -0.150781 -1.976562
v 4.651563 2.838281 -1.446094
v 3.096875 -0.097656 -2.316016
v 2.457813 2.476562 -0.699219
v 1.083984 1.030469 -2.446484
v 1.083984 1.030469 -2.446484
v 2.644141 2.398828 -1.631250
v 1.570312 0.545313 -2.560547
v 3.819141 2.115625 -1.939844
v 3.295313 0.958594 -2.916016
v 3.295313 0.958594 -2.916016
v 3.295313 0.958594 -2.916016
v 3.295313 0.958594 -2.916016
v 3.295313 0.958594 -2.916016
v 3.295313 0.958594 -2.916016
v 4.844141 2.640234 -1.505078
v 4.025391 1.155469 -2.775000
v 4.025391 1.155469 -2.775000
v 2.403516 2.094922 -0.588672
v 4.749219 0.965234 -2.533594
v 2.536328 1.900391 -1.381250
v 5.530078 0.858594 -2.072656
v 3.714062 1.854688 -1.631250
v 5.555469 1.049219 -2.107813
v 5.555469 1.049219 -2.107813
v 4.957031 2.385156 -1.225000
v 4.753125 1.147656 -2.578516
v 4.753125 1.147656 -2.578516
v 3.500391 1.689844 -0.709375
v 4.637500 0.817578 -2.301563
v 4.875782 2.193359 -0.699609
v 5.328907 0.743359 -1.973828
v 3.731250 2.683203 0.000000
v 6.125391 0.974219 -1.485547
v 6.125391 0.974219 -1.485547
v 4.809766 2.283984 0.000000
v 6.443750 0.929297 -0.735156
v 6.443750 0.929297 -0.735156
v 5.485938 3.048828 0.000000
v 3.080469 1.476953 -2.629688
v 5.367969 3.360156 0.000000
v 2.571094 1.663281 -2.519922
v 2.571094 1.663281 -2.519922
v 5.020313 3.421094 0.000000
v 3.258984 1.898828 -2.579297
v 4.561719 2.969922 0.000000
v 3.947266 1.212891 -2.447656
v 2.430469 2.188672 0.000000
v 3.298047 0.997266 -2.550391
v 3.602344 1.940234 0.000000
v 0.725781 1.089844 -1.857813
v 0.725781 1.089844 -1.857813
v 2.527344 2.789844 0.000000
v 0.655859 1.053125 -0.888281
v 0.655859 1.053125 -0.888281
v 2.603906 2.905469 0.000000
v 1.006641 0.663672 -1.899609
v 4.889844 3.166016 -0.903125
v 2.518750 0.120703 -1.846875
v 5.198047 3.078125 -0.942578
v 2.464844 0.089063 -2.491406
v 5.318359 2.788672 -0.787500
v 1.505859 0.462891 -2.038672
v 2.994141 2.960156 1.076172
v 3.126172 1.015234 -3.086328
v 3.126172 1.015234 -3.086328
v 3.760937 2.609375 1.273438
v 2.991797 0.557813 -3.039453
v 4.594922 2.908594 0.954297
v 2.781641 0.183594 -2.908984
v 2.740625 2.702734 1.567188
v 3.067578 1.463672 -2.977734
v 3.067578 1.463672 -2.977734
v 3.787500 2.427734 1.860547
v 3.221484 0.055078 -1.472266
v 4.651563 2.838281 1.446094
v 3.880859 -0.246484 -0.939063
v 2.457422 2.476562 0.699219
v 5.240625 1.186328 -1.812500
v 2.644141 2.398828 1.631250
v 5.683984 1.127734 -1.344531
v 3.819141 2.115625 1.939844
v 2.809375 1.017578 -3.183594
v 2.809375 1.017578 -3.183594
v 4.844141 2.640234 1.505078
v 5.950781 1.078906 -0.662500
v 4.889844 3.166016 0.903125
v 1.341797 1.673828 -2.954297
v 5.195312 3.073437 0.942578
v 0.419922 1.648047 -1.758203
v 2.403516 2.094922 0.588672
v 0.611328 2.682422 -1.514844
v 2.536328 1.900391 1.381250
v 1.253906 3.496485 -1.332422
v 3.714062 1.854688 1.631250
v 2.948828 2.697656 -2.301172
v 4.957031 2.385156 1.225000
v 3.739453 2.521875 -2.433594
v 5.318359 2.788672 0.787500
v 3.233203 1.964063 -2.903906
v 3.233203 1.964063 -2.903906
v 3.500391 1.689844 0.709375
v 2.936719 1.463672 -3.113672
v 4.875782 2.193359 0.699609
v 4.129688 2.923047 -2.080859
v 4.278906 1.832422 -0.714844
v 4.215234 3.041016 -2.422656
v 4.215234 3.041016 -2.422656
v 4.427344 2.078516 -1.518359
v 3.766016 2.622266 -2.715625
v 3.766016 2.622266 -2.715625
v 4.424610 2.305078 -1.834766
v 5.125782 3.630859 -0.513281
v 4.336328 2.571875 -1.760938
v 5.371094 3.879688 -0.644531
v 5.371094 3.879688 -0.644531
v 4.258985 2.707813 -1.184375
v 5.157813 3.720703 -1.308594
v 5.157813 3.720703 -1.308594
v 4.214844 2.767969 0.000000
v 4.992969 3.496875 -1.051563
v 4.266797 2.691797 1.184375
v 5.012109 3.927734 -1.325781
v 4.336328 2.571875 1.760938
v 5.238281 4.099609 -0.651563
v 4.424610 2.305078 1.834766
v 2.641406 2.255469 -3.032031
v 4.427344 2.078516 1.518359
v 2.655469 3.157813 -2.596484
v 4.278906 1.832422 0.714844
v 2.092188 2.387110 -2.931250
v 4.286719 2.062891 0.000000
v 2.798828 3.977734 -1.967188
v 0.466016 1.200391 0.000000
v 3.373438 3.719531 -2.145313
v 4.040235 -0.593359 0.000000
v 3.414062 2.876953 -2.761719
v 4.460156 -0.721484 0.000000
v 4.460156 -0.721484 0.000000
v 3.896875 3.361328 -2.377344
v 5.145703 -0.324609 0.000000
v 2.531250 4.294141 -1.096094
v 6.296094 0.627734 0.000000
v 3.334375 4.388672 -1.098047
v 6.077734 0.539844 0.000000
v 6.077734 0.539844 0.000000
v 3.962109 4.225000 -1.165234
v 6.542969 0.715625 0.000000
v 4.408203 3.699219 -1.748438
v 6.577734 0.911328 0.000000
v 6.577734 0.911328 0.000000
v 4.798047 3.960156 -1.155469
v 5.339844 0.714063 0.000000
v 4.964844 4.075781 -0.525781
v 4.346875 0.459766 0.000000
v 1.705078 3.939063 -1.172656
v 0.270703 1.645703 0.000000
v 1.466406 2.511719 -2.710156
v 0.471094 2.743359 0.000000
v 1.994141 3.496094 -2.198437
v 3.344141 3.747266 0.000000
v 0.892969 2.612500 -2.285156
v 5.193750 3.672266 0.000000
v 3.945312 3.636719 -1.281641
v 4.374609 3.950000 0.000000
v 4.098047 3.255469 -2.442578
v 5.441406 3.935547 0.000000
v 5.441406 3.935547 0.000000
v 4.748437 3.433985 -1.933203
v 4.748437 3.433985 -1.933203
v 2.541016 4.460938 0.000000
v 4.624609 3.648047 -1.957813
v 3.494922 4.553516 0.000000
v 3.640234 2.754297 -2.828125
v 4.235547 4.422657 0.000000
v 2.010156 1.608594 -3.135547
v 1.014063 3.618359 0.000000
v 0.781250 1.660547 -2.532422
v 1.623047 4.098047 0.000000
v 4.630078 3.268359 -1.561328
v 2.056250 1.551953 0.000000
v 2.056250 1.551953 0.000000
v 4.578516 1.250000 -2.256641
v 5.039062 4.130859 0.000000
v 2.659375 1.504688 -3.175000
v 2.518750 0.120703 1.846875
v 2.760547 0.980859 -2.322266
v 3.221484 0.055078 1.472266
v 3.068359 2.137500 -3.046094
v 1.505859 0.462891 2.038672
v 5.381250 0.698438 -1.360937
v 5.381250 0.698438 -1.360937
v 1.006641 0.663672 1.899609
v 5.489063 1.367969 -1.401172
v 5.489063 1.367969 -1.401172
v 0.655859 1.053125 0.888281
v 0.655859 1.053125 0.888281
v 4.501953 0.745313 -2.179688
v 4.501953 0.745313 -2.179688
v 3.687891 -0.150781 1.976562
v 4.564063 1.414844 -2.235938
v 4.564063 1.414844 -2.235938
v 4.041797 0.997656 2.787109
v 3.557422 0.585547 -2.540625
v 3.557422 0.585547 -2.540625
v 3.633984 0.796094 2.856250
v 3.575781 1.299609 -2.592578
v 3.575781 1.299609 -2.592578
v 4.419922 0.686719 1.764844
v 2.759766 1.068359 -2.566797
v 2.571094 1.663281 2.519922
v 2.571094 1.663281 2.519922
v 2.777735 0.328906 -2.549219
v 1.441797 1.054688 2.935547
v 1.441797 1.054688 2.935547
v 5.024219 1.555859 -1.168359
v 5.024219 1.555859 -1.168359
v 5.024219 1.555859 -1.168359
v 5.024219 1.555859 -1.168359
v 2.245312 0.462500 3.030078
v 4.913281 0.804297 -1.112109
v 4.913281 0.804297 -1.112109
v 2.067188 1.019531 3.100781
v 2.067188 1.019531 3.100781
v 4.381641 1.566797 -1.811719
v 4.381641 1.566797 -1.811719
v 4.381641 1.566797 -1.811719
v 4.381641 1.566797 -1.811719
v 2.991797 0.557813 3.039453
v 4.331641 0.766016 -1.857422
v 4.331641 0.766016 -1.857422
v 5.866797 0.679688 1.342578
v 3.519922 1.414453 -2.092188
v 3.519922 1.414453 -2.092188
v 3.519922 1.414453 -2.092188
v 3.519922 1.414453 -2.092188
v 6.097656 0.761719 1.439453
v 3.510547 0.605469 -2.189844
v 3.510547 0.605469 -2.189844
v 5.713672 0.587109 1.154688
v 5.713672 0.587109 1.154688
v 2.810938 0.344141 -2.184766
v 5.117969 -0.240625 0.589453
v 2.786719 1.187500 -2.085156
v 2.786719 1.187500 -2.085156
v 5.027734 -0.053906 1.211328
v 5.027734 -0.053906 1.211328
v 2.763672 1.176563 -2.481250
v 4.448828 -0.637500 0.561328
v 4.448828 -0.637500 0.561328
v 3.556250 1.402344 -2.509375
v 3.556250 1.402344 -2.509375
v 4.389062 -0.384766 1.239844
v 4.389062 -0.384766 1.239844
v 4.529687 1.526953 -2.159766
v 4.529687 1.526953 -2.159766
v 5.125782 0.715625 1.908984
v 5.431250 1.488281 -1.346484
v 5.431250 1.488281 -1.346484
v 4.433984 0.190625 2.039453
v 4.314063 3.810547 -1.410547
v 4.314063 3.810547 -1.410547
v 0.725781 1.089844 1.857813
v 0.725781 1.089844 1.857813
v 4.682031 3.281250 -1.372656
v 4.682031 3.281250 -1.372656
v 3.295313 0.042969 2.642969
v 3.448047 3.227734 -2.266797
v 3.448047 3.227734 -2.266797
v 3.991016 0.344141 2.542578
v 3.812109 2.498047 -2.212109
v 3.812109 2.498047 -2.212109
v 3.548047 0.478516 2.876563
v 2.094141 1.460938 -2.294141
v 3.096875 -0.097656 2.316016
v 2.795703 1.791406 -2.471094
v 2.795703 1.791406 -2.471094
v 1.083984 1.030469 2.446484
v 1.083984 1.030469 2.446484
v 2.362109 2.372266 -2.454688
v 2.362109 2.372266 -2.454688
v 1.570312 0.545313 2.560547
v 1.871094 1.916016 -2.337891
v 4.002344 0.877344 2.598438
v 4.357422 2.905469 -1.132812
v 4.357422 2.905469 -1.132812
v 4.357422 2.905469 -1.132812
v 4.357422 2.905469 -1.132812
v 4.025391 1.155469 2.775000
v 4.025391 1.155469 2.775000
v 3.919922 3.556250 -1.132812
v 3.919922 3.556250 -1.132812
v 3.295313 0.958594 2.916016
v 3.295313 0.958594 2.916016
v 3.295313 0.958594 2.916016
v 3.295313 0.958594 2.916016
v 3.295313 0.958594 2.916016
v 3.295313 0.958594 2.916016
v 3.677734 2.437109 -1.852344
v 3.677734 2.437109 -1.852344
v 3.677734 2.437109 -1.852344
v 3.677734 2.437109 -1.852344
v 5.530078 0.858594 2.072656
v 3.232422 3.056641 -1.907031
v 3.232422 3.056641 -1.907031
v 5.328907 0.743359 1.973828
v 2.849609 1.785547 -2.055469
v 2.849609 1.785547 -2.055469
v 2.849609 1.785547 -2.055469
v 2.849609 1.785547 -2.055469
v 5.555469 1.049219 2.107813
v 5.555469 1.049219 2.107813
v 2.105078 1.462891 -1.908594
v 2.105078 1.462891 -1.908594
v 6.125391 0.974219 1.485547
v 6.125391 0.974219 1.485547
v 1.892187 1.951172 -1.951563
v 3.126172 1.015234 3.086328
v 3.126172 1.015234 3.086328
v 2.434375 2.399219 -2.060938
v 2.434375 2.399219 -2.060938
v 3.233203 1.964063 2.903906
v 3.233203 1.964063 2.903906
v 4.700391 3.119922 -1.309766
v 4.700391 3.119922 -1.309766
v 3.258984 1.898828 2.579297
v 4.482031 -1.967578 0.000000
v 3.298047 0.997266 2.550391
v 4.075781 -1.394922 0.000000
v 1.341797 1.673828 2.954297
v 4.350391 -1.506250 0.000000
v 0.419922 1.648047 1.758203
v 3.921484 -2.321484 0.000000
v 0.611328 2.682422 1.514844
v 3.156250 -0.679688 -1.876953
v 0.892969 2.612500 2.285156
v 3.626953 -0.107422 -1.538281
v 1.253906 3.496485 1.332422
v 3.142578 -0.570312 -2.025000
v 3.945312 3.636719 1.281641
v 3.496094 -0.014844 -1.689844
v 3.896875 3.361328 2.377344
v 3.221484 -0.007031 -1.472266
v 3.640234 2.754297 2.828125
v 2.956641 -0.447266 -2.083203
v 3.414062 2.876953 2.761719
v 2.777344 -0.432031 -1.946875
v 3.739453 2.521875 2.433594
v 2.782422 -1.543359 -1.927734
v 4.129688 2.923047 2.080859
v 3.101953 -1.931641 -1.652344
v 4.215234 3.041016 2.422656
v 4.215234 3.041016 2.422656
v 3.064063 -0.681250 -1.757812
v 3.766016 2.622266 2.715625
v 3.766016 2.622266 2.715625
v 3.408203 -1.767578 -1.446875
v 2.092188 2.387110 2.931250
v 2.794922 -1.551953 -2.106641
v 2.655469 3.157813 2.596484
v 1.872266 -2.528906 -2.118750
v 2.798828 3.977734 1.967188
v 2.060156 -2.851172 -1.738672
v 3.373438 3.719531 2.145313
v 4.170312 -2.216797 -1.226953
v 2.531250 4.294141 1.096094
v 3.936719 -2.650391 -1.039062
v 1.705078 3.939063 1.172656
v 4.417188 -2.046094 -0.683594
v 3.880859 -0.246484 0.939063
v 3.492578 -2.510547 -0.731641
v 0.781250 1.660547 2.532422
v 3.507422 -0.119922 -1.294141
v 1.466406 2.511719 2.710156
v 3.974219 -1.460547 -0.562891
v 1.994141 3.496094 2.198437
v 2.583984 -2.734766 -1.398828
v 3.334375 4.388672 1.098047
v 3.761328 -1.596484 -1.071094
v 3.962109 4.225000 1.165234
v 2.492969 -0.830078 -2.167969
v 4.798047 3.960156 1.155469
v 2.241797 -1.384766 -2.290625
v 5.157813 3.720703 1.308594
v 5.157813 3.720703 1.308594
v 2.628516 -0.859375 -2.297656
v 4.992969 3.496875 1.051563
v 2.353125 -1.460938 -2.417969
v 5.299219 4.142969 0.000000
v 2.878906 -1.008594 -2.204688
v 5.012109 3.927734 1.325781
v 2.700781 -1.591406 -2.329688
v 4.098047 3.255469 2.442578
v 2.078125 -2.075000 -2.327734
v 3.121875 0.334766 0.000000
v 2.413281 -2.473047 -2.319141
v 3.287891 0.748047 2.409766
v 2.408984 -2.892578 -2.084375
v 4.753125 1.147656 2.578516
v 4.753125 1.147656 2.578516
v 2.775391 -2.048828 -2.108984
v 4.749219 0.965234 2.533594
v 2.721484 -1.986719 -1.883984
v 2.237109 0.639844 0.000000
v 2.778516 -3.032813 -1.882031
v 2.760547 0.980859 2.322266
v 3.241797 -2.971094 -1.641797
v 4.630078 3.268359 1.561328
v 3.012110 -2.603906 -2.110938
v 4.748437 3.433985 1.933203
v 4.748437 3.433985 1.933203
v 3.390234 -2.513672 -1.913672
v 4.624609 3.648047 1.957813
v 4.044531 -1.743750 -1.219141
v 4.408203 3.699219 1.748438
v 4.294922 -1.580078 -0.660547
v 3.068359 2.137500 3.046094
v 2.094531 -1.826563 -2.282031
v 3.080469 1.476953 2.629688
v 3.256250 -2.047656 -1.950781
v 3.067578 1.463672 2.977734
v 3.067578 1.463672 2.977734
v 3.659375 -1.928516 -1.633594
v 2.936719 1.463672 3.113672
v 4.341406 -2.345313 0.000000
v 2.010156 1.608594 3.135547
v 4.253516 -2.435938 -0.578906
v 2.809375 1.017578 3.183594
v 2.809375 1.017578 3.183594
v 3.564844 -2.855078 -1.371094
v 2.659375 1.504688 3.175000
v 3.781250 -2.352734 -1.633984
v 2.641406 2.255469 3.032031
v 3.993750 -2.487500 0.000000
v 6.156250 0.633594 0.626172
v 3.948437 -2.563672 -0.477734
v 6.410156 0.723437 0.716016
v 3.637110 -2.669141 -0.783984
v 6.443750 0.929297 0.735156
v 6.443750 0.929297 0.735156
v 3.199610 -2.766797 -1.107813
v 5.125782 3.630859 0.513281
v 3.835547 -2.403516 -0.427734
v 5.371094 3.879688 0.644531
v 5.371094 3.879688 0.644531
v 3.167578 -2.614063 -1.026563
v 5.238281 4.099609 0.651563
v 3.156250 -0.679688 1.876953
v 4.964844 4.075781 0.525781
v 3.626953 -0.107422 1.538281
v 6.059375 1.069922 0.000000
v 3.142578 -0.570312 2.025000
v 5.950781 1.078906 0.662500
v 3.496094 -0.014844 1.689844
v 5.683984 1.127734 1.344531
v 3.221484 -0.007031 1.472266
v 5.240625 1.186328 1.812500
v 2.956641 -0.447266 2.083203
v 4.578516 1.250000 2.256641
v 2.777344 -0.432031 1.946875
v 3.947266 1.212891 2.447656
v 2.782422 -1.543359 1.927734
v 4.637500 0.817578 2.301563
v 3.101953 -1.931641 1.652344
v 2.781641 0.183594 2.908984
v 3.064063 -0.681250 1.757812
v 2.464844 0.089063 2.491406
v 3.408203 -1.767578 1.446875
v 2.452344 2.735938 0.000000
v 2.794922 -1.551953 2.106641
v 2.948828 2.697656 2.301172
v 1.872266 -2.528906 2.118750
v 5.837110 0.592578 0.000000
v 2.060156 -2.851172 1.738672
v 5.381250 0.698438 1.360937
v 5.381250 0.698438 1.360937
v 4.170312 -2.216797 1.226953
v 4.501953 0.745313 2.179688
v 4.501953 0.745313 2.179688
v 3.936719 -2.650391 1.039062
v 2.777735 0.328906 2.549219
v 4.417188 -2.046094 0.683594
v 5.321875 0.711719 0.000000
v 3.492578 -2.510547 0.731641
v 4.913281 0.804297 1.112109
v 4.913281 0.804297 1.112109
v 3.507422 -0.119922 1.294141
v 4.331641 0.766016 1.857422
v 4.331641 0.766016 1.857422
v 3.974219 -1.460547 0.562891
v 2.810938 0.344141 2.184766
v 2.583984 -2.734766 1.398828
v 3.510547 0.605469 2.189844
v 3.510547 0.605469 2.189844
v 3.761328 -1.596484 1.071094
v 3.557422 0.585547 2.540625
v 3.557422 0.585547 2.540625
v 2.492969 -0.830078 2.167969
v 5.971875 1.303906 0.000000
v 2.241797 -1.384766 2.290625
v 5.489063 1.367969 1.401172
v 5.489063 1.367969 1.401172
v 2.628516 -0.859375 2.297656
v 4.564063 1.414844 2.235938
v 4.564063 1.414844 2.235938
v 2.353125 -1.460938 2.417969
v 3.575781 1.299609 2.592578
v 3.575781 1.299609 2.592578
v 2.878906 -1.008594 2.204688
v 2.759766 1.068359 2.566797
v 2.700781 -1.591406 2.329688
v 2.786719 1.187500 2.085156
v 2.786719 1.187500 2.085156
v 2.078125 -2.075000 2.327734
v 3.519922 1.414453 2.092188
v 3.519922 1.414453 2.092188
v 3.519922 1.414453 2.092188
v 3.519922 1.414453 2.092188
v 2.413281 -2.473047 2.319141
v 4.381641 1.566797 1.811719
v 4.381641 1.566797 1.811719
v 4.381641 1.566797 1.811719
v 4.381641 1.566797 1.811719
v 2.408984 -2.892578 2.084375
v 5.024219 1.555859 1.168359
v 5.024219 1.555859 1.168359
v 5.024219 1.555859 1.168359
v 5.024219 1.555859 1.168359
v 2.775391 -2.048828 2.108984
v 5.442578 1.493359 0.000000
v 5.442578 1.493359 0.000000
v 2.721484 -1.986719 1.883984
v 5.901563 1.420703 0.000000
v 2.778516 -3.032813 1.882031
v 5.431250 1.488281 1.346484
v 5.431250 1.488281 1.346484
v 3.241797 -2.971094 1.641797
v 4.529687 1.526953 2.159766
v 4.529687 1.526953 2.159766
v 3.012110 -2.603906 2.110938
v 3.556250 1.402344 2.509375
v 3.556250 1.402344 2.509375
v 3.390234 -2.513672 1.913672
v 2.763672 1.176563 2.481250
v 4.044531 -1.743750 1.219141
v 4.675000 4.072266 0.000000
v 4.294922 -1.580078 0.660547
v 4.162109 3.806250 0.000000
v 2.094531 -1.826563 2.282031
v 5.054297 3.562500 0.000000
v 3.256250 -2.047656 1.950781
v 4.719141 3.020313 0.000000
v 4.719141 3.020313 0.000000
v 3.659375 -1.928516 1.633594
v 5.066797 3.394531 0.000000
v 4.253516 -2.435938 0.578906
v 4.682031 3.281250 1.372656
v 4.682031 3.281250 1.372656
v 3.564844 -2.855078 1.371094
v 4.314063 3.810547 1.410547
v 4.314063 3.810547 1.410547
v 3.781250 -2.352734 1.633984
v 3.812109 2.498047 2.212109
v 3.812109 2.498047 2.212109
v 3.948437 -2.563672 0.477734
v 3.448047 3.227734 2.266797
v 3.448047 3.227734 2.266797
v 3.637110 -2.669141 0.783984
v 2.094141 1.460938 2.294141
v 3.199610 -2.766797 1.107813
v 1.871094 1.916016 2.337891
v 3.835547 -2.403516 0.427734
v 2.362109 2.372266 2.454688
v 2.362109 2.372266 2.454688
v 3.167578 -2.614063 1.026563
v 2.795703 1.791406 2.471094
v 2.795703 1.791406 2.471094
v 3.919922 3.556250 1.132812
v 3.919922 3.556250 1.132812
v 4.357422 2.905469 1.132812
v 4.357422 2.905469 1.132812
v 4.357422 2.905469 1.132812
v 4.357422 2.905469 1.132812
v 3.232422 3.056641 1.907031
v 3.232422 3.056641 1.907031
v 3.677734 2.437109 1.852344
v 3.677734 2.437109 1.852344
v 3.677734 2.437109 1.852344
v 3.677734 2.437109 1.852344
v 2.849609 1.785547 2.055469
v 2.849609 1.785547 2.055469
v 2.849609 1.785547 2.055469
v 2.849609 1.785547 2.055469
v 2.434375 2.399219 2.060938
v 2.434375 2.399219 2.060938
v 1.892187 1.951172 1.951563
v 2.105078 1.462891 1.908594
v 2.105078 1.462891 1.908594
v 4.700391 3.119922 1.309766
v 4.700391 3.119922 1.309766
v 4.041797 0.997656 -2.787109
v 3.633984 0.796094 -2.856250
v 4.002344 0.877344 -2.598438
v 4.419922 0.686719 -1.764844
v 3.287891 0.748047 -2.409766
v 2.245312 0.462500 -3.030078
v 2.067188 1.019531 -3.100781
v 2.067188 1.019531 -3.100781
v 1.441797 1.054688 -2.935547
v 1.441797 1.054688 -2.935547
v 6.097656 0.761719 -1.439453
v 5.866797 0.679688 -1.342578
v 6.156250 0.633594 -0.626172
v 6.410156 0.723437 -0.716016
v 5.713672 0.587109 -1.154688
v 5.713672 0.587109 -1.154688
v 5.117969 -0.240625 -0.589453
v 5.027734 -0.053906 -1.211328
v 5.027734 -0.053906 -1.211328
v 4.389062 -0.384766 -1.239844
v 4.389062 -0.384766 -1.239844
v 4.448828 -0.637500 -0.561328
v 4.448828 -0.637500 -0.561328
v 4.433984 0.190625 -2.039453
vt 0.561401 0.265442
vt 0.597290 0.277771
vt 0.578552 0.296204
vt 0.604370 0.266724
vt 0.561401 0.251770
vt 0.602539 0.269531
vt 0.561401 0.255310
vt 0.598999 0.296204
vt 0.561401 0.296204
vt 0.561401 0.306702
vt 0.523865 0.296204
vt 0.522095 0.306702
vt 0.502991 0.306702
vt 0.501465 0.317261
vt 0.500549 0.306702
vt 0.498901 0.317261
vt 0.508850 0.317261
vt 0.516907 0.329163
vt 0.546204 0.321838
vt 0.546753 0.332825
vt 0.561401 0.332825
vt 0.538879 0.335144
vt 0.561401 0.335144
vt 0.561401 0.334534
vt 0.583923 0.335144
vt 0.611938 0.330200
vt 0.613953 0.330566
vt 0.623901 0.317261
vt 0.605896 0.329163
vt 0.613953 0.317261
vt 0.576599 0.321838
vt 0.577576 0.309021
vt 0.561401 0.310425
vt 0.561401 0.296204
vt 0.545288 0.309021
vt 0.544312 0.296204
vt 0.511047 0.306702
vt 0.513184 0.296204
vt 0.502136 0.296204
vt 0.518494 0.266724
vt 0.504456 0.296204
vt 0.520264 0.269531
vt 0.487915 0.462036
vt 0.498352 0.451172
vt 0.497925 0.465820
vt 0.483398 0.448120
vt 0.477539 0.459412
vt 0.471680 0.448059
vt 0.462708 0.451416
vt 0.456238 0.440979
vt 0.434631 0.461792
vt 0.419006 0.444092
vt 0.392151 0.475342
vt 0.372192 0.461792
vt 0.321838 0.478455
vt 0.315613 0.461792
vt 0.254150 0.464539
vt 0.254150 0.447876
vt 0.315613 0.461792
vt 0.313171 0.440002
vt 0.372192 0.461792
vt 0.372192 0.429504
vt 0.419006 0.444092
vt 0.424988 0.418030
vt 0.456238 0.440979
vt 0.463989 0.437134
vt 0.471680 0.448059
vt 0.479004 0.435486
vt 0.483398 0.448120
vt 0.498352 0.437134
vt 0.498352 0.451172
vt 0.966370 0.589783
vt 0.966370 0.575195
vt 0.992126 0.589722
vt 0.949219 0.579895
vt 0.935120 0.587708
vt 0.924194 0.563354
vt 0.891418 0.558533
vt 0.899231 0.546814
vt 0.832031 0.527405
vt 0.903870 0.539795
vt 0.835144 0.518982
vt 0.841370 0.510620
vt 0.796936 0.513733
vt 0.800110 0.506470
vt 0.759033 0.508545
vt 0.759033 0.502258
vt 0.800110 0.506470
vt 0.803223 0.500183
vt 0.841370 0.510620
vt 0.847656 0.504395
vt 0.916382 0.535645
vt 0.929504 0.532227
vt 0.941406 0.555420
vt 0.954224 0.552673
vt 0.966370 0.575195
vt 0.439636 0.370789
vt 0.470337 0.405579
vt 0.481018 0.402954
vt 0.426514 0.376404
vt 0.384583 0.355957
vt 0.376404 0.364502
vt 0.329529 0.341125
vt 0.326233 0.352539
vt 0.291870 0.339844
vt 0.290222 0.351318
vt 0.254150 0.338623
vt 0.254150 0.350037
vt 0.290222 0.351318
vt 0.288757 0.360657
vt 0.323303 0.361938
vt 0.317139 0.377441
vt 0.367859 0.372253
vt 0.384338 0.397217
vt 0.412476 0.382629
vt 0.424988 0.418030
vt 0.457764 0.408691
vt 0.463989 0.437134
vt 0.479004 0.435486
vt 0.083618 0.300842
vt 0.153442 0.262756
vt 0.168762 0.280029
vt 0.078918 0.281860
vt 0.008972 0.291504
vt 0.009399 0.262146
vt 0.078918 0.281860
vt 0.071899 0.259094
vt 0.128174 0.238525
vt 0.105225 0.228394
vt 0.119263 0.209167
vt 0.072754 0.219604
vt 0.075806 0.201294
vt 0.035767 0.213440
vt 0.037720 0.199402
vt 0.008423 0.213501
vt 0.007996 0.197510
vt 0.037720 0.199402
vt 0.008423 0.238953
vt 0.071899 0.259094
vt 0.072754 0.219604
vt 0.105225 0.228394
vt 0.119263 0.209167
vt 0.128174 0.238525
vt 0.148560 0.223328
vt 0.169617 0.252136
vt 0.175476 0.276245
vt 0.161743 0.271606
vt 0.173584 0.265930
vt 0.154297 0.262024
vt 0.168518 0.250916
vt 0.160034 0.235474
vt 0.931213 0.966675
vt 0.962463 1.000000
vt 1.000000 0.950012
vt 0.888245 0.975220
vt 0.862488 0.929199
vt 0.814331 0.970642
vt 0.806580 0.930298
vt 0.721069 0.948486
vt 0.724609 0.921448
vt 0.654541 0.933533
vt 0.657532 0.912537
vt 0.587463 0.904175
vt 0.591431 0.862549
vt 0.506226 0.854187
vt 0.593750 0.820862
vt 0.506226 0.816711
vt 0.498352 0.437134
vt 0.372192 0.429504
vt 0.313171 0.440002
vt 0.960144 0.596008
vt 0.991821 0.590759
vt 0.935120 0.604370
vt 0.891418 0.589783
vt 0.910156 0.612732
vt 0.872620 0.608521
vt 0.916382 0.623108
vt 0.878906 0.629395
vt 0.922668 0.633545
vt 0.872620 0.647461
vt 0.928894 0.646057
vt 0.875977 0.662720
vt 0.079529 0.287292
vt 0.008972 0.307007
vt 0.083801 0.300720
vt 0.009033 0.295959
vt 0.077454 0.280640
vt 0.008606 0.284912
vt 0.071167 0.260498
vt 0.008789 0.262756
vt 0.008789 0.223633
vt 0.071167 0.260498
vt 0.036194 0.213379
vt 0.072632 0.219910
vt 0.038025 0.198914
vt 0.076538 0.199829
vt 0.611816 0.306702
vt 0.622314 0.306702
vt 0.621399 0.317261
vt 0.619873 0.306702
vt 0.602478 0.317261
vt 0.600708 0.306702
vt 0.561401 0.317261
vt 0.520386 0.317261
vt 0.593750 0.820862
vt 0.591431 0.862549
vt 0.662476 0.870850
vt 0.657532 0.912537
vt 0.729248 0.879211
vt 0.724609 0.921448
vt 0.806580 0.930298
vt 0.721069 0.948486
vt 0.814331 0.970642
vt 0.718384 0.961365
vt 0.856201 1.000000
vt 0.962463 1.000000
vt 0.888245 0.975220
vt 0.862488 0.929199
vt 0.931213 0.966675
vt 0.947083 0.916687
vt 1.000000 0.950012
vt 0.977051 0.894836
vt 0.993713 0.875000
vt 0.956238 0.837524
vt 0.981201 0.837524
vt 0.937500 0.770874
vt 0.291870 0.339844
vt 0.326233 0.352539
vt 0.329529 0.341125
vt 0.376404 0.364502
vt 0.384583 0.355957
vt 0.426514 0.376404
vt 0.439636 0.370789
vt 0.470337 0.405579
vt 0.481018 0.402954
vt 0.311768 0.426392
vt 0.312500 0.411804
vt 0.365601 0.407654
vt 0.310425 0.392029
vt 0.317139 0.377441
vt 0.254150 0.389648
vt 0.254150 0.374939
vt 0.810120 0.579346
vt 0.791077 0.559631
vt 0.760620 0.568970
vt 0.833984 0.561584
vt 0.891418 0.589783
vt 0.891418 0.558533
vt 0.935120 0.587708
vt 0.924194 0.563354
vt 0.949219 0.579895
vt 0.972656 0.610596
vt 0.990662 0.611633
vt 0.994080 0.602295
vt 0.985168 0.621033
vt 0.947632 0.623108
vt 0.960144 0.633545
vt 0.922668 0.633545
vt 0.928894 0.646057
vt 0.872620 0.647461
vt 0.875977 0.662720
vt 0.847412 0.663269
vt 0.947083 0.916687
vt 0.881226 0.887512
vt 0.912476 0.837524
vt 0.868713 0.837524
vt 0.877930 0.793335
vt 0.812500 0.758362
vt 0.831238 0.750000
vt 0.731201 0.700012
vt 0.743713 0.691711
vt 0.960144 0.596008
vt 0.993225 0.591431
vt 0.935120 0.604370
vt 0.941406 0.613770
vt 0.910156 0.612732
vt 0.916382 0.623108
vt 0.872620 0.608521
vt 0.878906 0.629395
vt 0.609680 0.296204
vt 0.620667 0.296204
vt 0.618347 0.296204
vt 0.141541 0.250305
vt 0.128296 0.237366
vt 0.148132 0.223816
vt 0.077454 0.280640
vt 0.128296 0.237366
vt 0.141541 0.250305
vt 0.160034 0.235474
vt 0.154297 0.262024
vt 0.168518 0.250916
vt 0.173584 0.265930
vt 0.008362 0.197571
vt 0.008789 0.213379
vt 0.036194 0.213379
vt 0.072632 0.219910
vt 0.105896 0.229553
vt 0.076538 0.199829
vt 0.651978 0.946228
vt 0.718384 0.961365
vt 0.585571 0.920288
vt 0.506226 0.896179
vt 0.587463 0.904175
vt 0.584045 0.929199
vt 0.506226 0.910522
vt 0.585571 0.920288
vt 0.654541 0.933533
vt 0.833984 0.561584
vt 0.810120 0.579346
vt 0.791077 0.559631
vt 0.760437 0.559082
vt 0.759094 0.520508
vt 0.796936 0.513733
vt 0.832031 0.527405
vt 0.835144 0.518982
vt 0.903870 0.539795
vt 0.392151 0.475342
vt 0.321838 0.478455
vt 0.434631 0.461792
vt 0.462708 0.451416
vt 0.477539 0.459412
vt 0.651978 0.946228
vt 0.584045 0.929199
vt 0.506226 0.920166
vt 0.581909 0.937988
vt 0.254150 0.359436
vt 0.288757 0.360657
vt 0.323303 0.361938
vt 0.367859 0.372253
vt 0.469177 0.461792
vt 0.440613 0.488892
vt 0.393738 0.497559
vt 0.337524 0.494995
vt 0.525574 0.277771
vt 0.731201 0.700012
vt 0.812500 0.758362
vt 0.716980 0.710449
vt 0.831238 0.750000
vt 0.743713 0.691711
vt 0.849976 0.737549
vt 0.756226 0.683350
vt 0.868713 0.725037
vt 0.913818 0.779480
vt 0.877930 0.793335
vt 0.912476 0.837524
vt 0.868713 0.837524
vt 0.254150 0.427002
vt 0.254150 0.408264
vt 0.384338 0.397217
vt 0.412476 0.382629
vt 0.293640 0.496460
vt 0.254150 0.481201
vt 0.254150 0.491577
vt 0.337524 0.494995
vt 0.393738 0.497559
vt 0.440613 0.488892
vt 0.899231 0.546814
vt 0.834106 0.546509
vt 0.356812 0.256897
vt 0.275391 0.180908
vt 0.449585 0.202881
vt 0.276733 0.256897
vt 0.278564 0.319885
vt 0.356812 0.256897
vt 0.357422 0.320007
vt 0.454590 0.328064
vt 0.977051 0.894836
vt 0.993713 0.875000
vt 0.956238 0.837524
vt 0.981201 0.837524
vt 0.937500 0.770874
vt 0.913818 0.779480
vt 0.849976 0.737549
vt 0.868713 0.725037
vt 0.756226 0.683350
vt 0.457764 0.408691
vt 0.802612 0.888123
vt 0.756226 0.850037
vt 0.662476 0.829224
vt 0.079529 0.287292
vt 0.161743 0.271606
vt 0.083801 0.300720
vt 0.168762 0.280029
vt 0.729248 0.879211
vt 0.662476 0.870850
vt 0.148132 0.223816
vt 0.118774 0.209473
vt 0.105896 0.229553
vt 0.799988 0.762512
vt 0.856201 0.837524
vt 0.881226 0.887512
vt 0.510925 0.330200
vt 0.526733 0.325928
vt 0.503723 0.172302
vt 0.623291 0.251770
vt 0.503723 0.247925
vt 0.623291 0.172302
vt 0.623291 0.171204
vt 0.503723 0.172302
vt 0.503723 0.171204
vt 0.310425 0.392029
vt 0.312500 0.411804
vt 0.365601 0.407654
vt 0.941406 0.555420
vt 0.916382 0.535645
vt 0.929504 0.532227
vt 0.847656 0.504395
vt 0.504822 0.178894
vt 0.623291 0.178894
vt 0.623291 0.168457
vt 0.623291 0.185913
vt 0.504822 0.185913
vt 0.622925 0.227539
vt 0.504150 0.231384
vt 0.972656 0.610596
vt 0.941406 0.613770
vt 0.947632 0.623108
vt 0.075806 0.201294
vt 0.035767 0.213440
vt 0.038025 0.198914
vt 0.561401 0.171204
vt 0.561401 0.211731
vt 0.561401 0.172302
vt 0.561401 0.211914
vt 0.623291 0.171204
vt 0.623291 0.217102
vt 0.118774 0.209473
vt 0.803223 0.500183
vt 0.623291 0.185913
vt 0.623291 0.178894
vt 0.622925 0.227539
vt 0.994080 0.602295
vt 0.993225 0.591431
vt 0.990662 0.611633
vt 0.985168 0.621033
vt 0.954224 0.552673
vt 0.978882 0.573120
vt 0.576111 0.332825
vt 0.623291 0.172302
vt 0.561401 0.168457
vt 0.623291 0.168457
vt 0.561401 0.172302
vt 0.623291 0.217529
vt 0.561401 0.211731
vt 0.561401 0.324646
vt 0.802612 0.888123
vt 0.756226 0.850037
vt 0.662476 0.829224
vt 0.799988 0.862549
vt 0.862488 0.875000
vt 0.508850 0.330566
vt 0.503723 0.172302
vt 0.623291 0.223816
vt 0.503723 0.217529
vt 0.623291 0.172302
vt 0.503723 0.168457
vt 0.623291 0.168457
vt 0.311768 0.426392
vt 0.504822 0.185913
vt 0.561401 0.178894
vt 0.504822 0.178894
vt 0.561401 0.185913
vt 0.504822 0.220215
vt 0.561401 0.214417
vt 0.561401 0.214661
vt 0.504822 0.178894
vt 0.504822 0.219849
vt 0.561401 0.178894
vt 0.561401 0.185913
vt 0.561401 0.178894
vt 0.504822 0.185913
vt 0.623291 0.220215
vt 0.504822 0.219299
vt 0.623291 0.185913
vt 0.504822 0.178894
vt 0.623291 0.178894
vt 0.504822 0.185913
vt 0.623291 0.219299
vt 0.504822 0.227539
vt 0.623291 0.185913
vt 0.504822 0.178894
vt 0.623291 0.178894
vt 0.083618 0.300842
vt 0.153442 0.262756
vt 0.169617 0.252136
vt 0.856201 1.000000
vt 0.503723 0.172302
vt 0.623291 0.247925
vt 0.503723 0.223816
vt 0.623291 0.172302
vt 0.623291 0.171204
vt 0.449585 0.202881
vt 0.454163 0.272156
vt 0.293640 0.496460
vt 0.966370 0.589783
vt 0.991821 0.590759
vt 0.844543 0.593933
vt 0.623291 0.171204
vt 0.503723 0.172302
vt 0.623291 0.172302
vt 0.503723 0.168457
vt 0.623291 0.168457
vt 0.856201 0.837524
vt 0.799988 0.762512
vt 0.504822 0.185913
vt 0.623291 0.185913
vt 0.504822 0.178894
vt 0.623291 0.220215
vt 0.504822 0.219299
vt 0.504822 0.168457
vt 0.561401 0.168457
vt 0.504822 0.178894
vt 0.504822 0.185913
vt 0.506226 0.932434
vt 0.581909 0.937988
vt 0.504822 0.185913
vt 0.623291 0.185913
vt 0.504822 0.178894
vt 0.623291 0.219299
vt 0.504822 0.227539
vt 0.623291 0.168457
vt 0.504822 0.168457
vt 0.623291 0.178894
vt 0.623291 0.168457
vt 0.504822 0.168457
vt 0.623291 0.178894
vt 0.623291 0.168457
vt 0.504822 0.168457
vt 0.148560 0.223328
vt 0.596069 0.325928
vt 0.799988 0.862549
vt 0.175476 0.276245
vt 0.008972 0.306396
vt 0.357422 0.320007
vt 0.454590 0.328064
vt 0.454163 0.272156
vt 0.504822 0.225098
vt 0.623291 0.178894
vt 0.623291 0.217773
vt 0.504822 0.178894
vt 0.504822 0.217773
vt 0.623291 0.178894
vt 0.623291 0.219849
vt 0.504822 0.178894
vt 0.504822 0.178894
vt 0.561401 0.214661
vt 0.504822 0.219849
vt 0.561401 0.178894
vt 0.504822 0.168457
vt 0.561401 0.168457
vt 0.503723 0.247925
vt 0.623291 0.247925
vt 0.503723 0.223816
vt 0.623291 0.217529
vt 0.623291 0.172302
vt 0.504822 0.217773
vt 0.623291 0.178894
vt 0.504822 0.178894
vt 0.623291 0.219849
vt 0.504822 0.225098
vt 0.623291 0.178894
vt 0.504822 0.178894
vt 0.623291 0.217773
vt 0.623291 0.178894
vt 0.504150 0.228516
vt 0.623291 0.225098
vt 0.504822 0.178894
vt 0.504822 0.220215
vt 0.561401 0.214417
vt 0.503723 0.168457
vt 0.623291 0.168457
vt 0.503723 0.171204
vt 0.503723 0.168457
vt 0.503723 0.217102
vt 0.623291 0.171204
vt 0.503723 0.171204
vt 0.623291 0.222290
vt 0.561401 0.171204
vt 0.561401 0.211914
vt 0.623291 0.171204
vt 0.623291 0.217102
vt 0.561401 0.168457
vt 0.623291 0.168457
vt 0.649292 0.954956
vt 0.649292 0.954956
vt 0.487915 0.462036
vt 0.497925 0.465820
vt 0.978882 0.573120
vt 0.992798 0.588928
vt 0.960144 0.633545
vt 0.992126 0.589722
vt 0.834106 0.546509
vt 0.623291 0.168457
vt 0.504822 0.168457
vt 0.623291 0.168457
vt 0.504822 0.168457
vt 0.503723 0.245483
vt 0.623291 0.171204
vt 0.503723 0.171204
vt 0.623291 0.248901
vt 0.503723 0.222290
vt 0.623291 0.171204
vt 0.503723 0.171204
vt 0.623291 0.245483
vt 0.862488 0.875000
vt 0.716980 0.710449
vt 0.469177 0.461792
vt 0.844543 0.593933
vt 0.623291 0.178894
vt 0.623291 0.225098
vt 0.503723 0.217102
vt 0.623291 0.171204
vt 0.623291 0.222290
vt 0.503723 0.171204
vt 0.503723 0.172302
vt 0.623291 0.223816
vt 0.623291 0.172302
vt 0.503723 0.217529
vt 0.503723 0.168457
vt 0.623291 0.168457
vt 0.503723 0.222290
vt 0.623291 0.171204
vt 0.623291 0.245483
vt 0.503723 0.171204
vt 0.503723 0.245483
vt 0.503723 0.171204
vt 0.759033 0.496033
vt 0.623291 0.168457
vt 0.503723 0.168457
vt 0.718079 0.971802
vt 0.718079 0.971802
vt 0.847412 0.663269
vt 0.992798 0.588928
vn 0.9977 -0.0680 0.0013
vn 0.9343 -0.2116 0.2868
vn 0.6531 -0.7573 0.0045
vn 0.6428 0.5543 0.5287
vn 0.6319 0.7750 0.0013
vn -0.2095 0.9169 0.3395
vn -0.2351 0.9720 0.0003
vn -0.5730 0.8086 0.1335
vn -0.6078 0.7941 0.0011
vn -0.3414 0.9399 0.0041
vn -0.5588 0.8185 -0.1335
vn -0.2916 0.9398 -0.1783
vn 0.0295 0.6910 -0.7222
vn -0.0529 0.6129 -0.7884
vn 0.4705 -0.2404 -0.8490
vn 0.0463 -0.3502 -0.9355
vn 0.0748 -0.8943 -0.4411
vn -0.6948 -0.6121 -0.3776
vn -0.0344 -0.9942 0.1015
vn -0.8679 -0.4943 0.0482
vn -0.8724 -0.4887 -0.0001
vn -0.9499 0.2886 -0.1202
vn -0.9096 0.4155 -0.0002
vn -0.4620 0.8868 -0.0001
vn -0.9499 0.2884 0.1202
vn -0.4550 0.6623 0.5951
vn -0.6796 0.0779 0.7295
vn 0.0443 -0.3489 0.9361
vn -0.6948 -0.6121 0.3776
vn 0.0739 -0.8947 0.4405
vn -0.0350 -0.9943 -0.1010
vn 0.3402 -0.9393 -0.0444
vn 0.2922 -0.9564 -0.0006
vn 0.6120 -0.7909 0.0000
vn 0.3395 -0.9395 0.0452
vn 0.6531 -0.7573 -0.0045
vn 0.4976 -0.7771 -0.3854
vn 0.7653 -0.5068 -0.3967
vn 0.6567 0.1087 -0.7462
vn 0.6407 0.5580 -0.5274
vn -0.0819 0.8239 -0.5607
vn -0.2129 0.9169 -0.3374
vn 0.5910 0.1919 -0.7835
vn 0.7226 0.0626 -0.6883
vn 0.7273 0.2498 -0.6392
vn 0.4436 0.0702 -0.8934
vn 0.1293 0.0293 -0.9911
vn 0.0502 0.0942 -0.9943
vn -0.1581 0.1023 -0.9821
vn -0.1586 0.3712 -0.9149
vn -0.4436 0.1061 -0.8899
vn -0.3781 0.4296 -0.8200
vn -0.7863 -0.0486 -0.6159
vn -0.6907 0.4547 -0.5622
vn -0.9616 -0.1155 -0.2488
vn -0.8751 0.4259 -0.2295
vn -0.9313 0.3641 0.0000
vn -0.7365 0.6764 0.0000
vn -0.8751 0.4259 0.2295
vn -0.6462 0.6955 0.3140
vn -0.6907 0.4547 0.5622
vn -0.3454 0.6913 0.6346
vn -0.3781 0.4296 0.8200
vn -0.0801 0.5420 0.8365
vn -0.1586 0.3712 0.9149
vn -0.0442 0.2962 0.9541
vn 0.0502 0.0942 0.9943
vn 0.2822 0.1050 0.9536
vn 0.4436 0.0702 0.8934
vn 0.5894 -0.1179 0.7991
vn 0.7226 0.0626 0.6883
vn 0.3403 -0.0958 0.9354
vn 0.2918 -0.3716 0.8813
vn 0.1705 -0.0070 0.9853
vn 0.4289 -0.5343 0.7284
vn 0.4796 -0.4953 0.7243
vn 0.3296 -0.6885 0.6459
vn 0.4604 -0.6535 0.6008
vn 0.3053 -0.8344 0.4587
vn 0.3557 -0.8805 0.3134
vn 0.1624 -0.9126 0.3752
vn 0.2491 -0.9391 0.2367
vn 0.6287 -0.6436 0.4365
vn 0.2788 -0.9526 0.1213
vn 0.7287 -0.6408 0.2416
vn 0.3487 -0.9372 0.0000
vn 0.7840 -0.6207 0.0000
vn 0.7287 -0.6408 -0.2416
vn 0.9375 -0.1820 -0.2966
vn 0.6287 -0.6436 -0.4365
vn 0.8016 -0.2234 -0.5545
vn 0.4806 -0.5658 -0.6699
vn 0.5882 -0.2217 -0.7777
vn 0.3070 -0.5737 -0.7593
vn 0.3878 -0.2053 -0.8986
vn 0.2918 -0.3716 -0.8813
vn 0.5384 0.1878 0.8215
vn 0.3089 0.2053 0.9286
vn 0.5725 -0.1426 0.8074
vn 0.3193 0.4618 0.8275
vn 0.6389 0.2875 0.7136
vn 0.3188 0.6927 0.6469
vn 0.7364 0.4672 0.4893
vn 0.3835 0.8033 0.4556
vn 0.8270 0.4973 0.2621
vn 0.4364 0.8708 0.2265
vn 0.8329 0.5534 0.0000
vn 0.4509 0.8925 0.0000
vn 0.4364 0.8708 -0.2265
vn 0.0878 0.9844 -0.1522
vn 0.0841 0.9453 -0.3152
vn 0.2344 0.8947 -0.3803
vn 0.0551 0.8838 -0.4645
vn 0.1354 0.7142 -0.6867
vn 0.1041 0.6767 -0.7288
vn -0.0801 0.5420 -0.8365
vn 0.0136 0.4985 -0.8668
vn -0.0442 0.2962 -0.9541
vn 0.2822 0.1050 -0.9536
vn 0.7264 -0.3871 -0.5679
vn 0.5445 -0.7326 -0.4084
vn 0.6788 -0.5245 -0.5139
vn 0.5048 -0.5716 -0.6468
vn 0.8676 -0.4972 0.0000
vn 0.4974 -0.8675 0.0000
vn 0.5048 -0.5716 0.6468
vn 0.1057 -0.8981 0.4268
vn 0.3915 -0.8528 0.3455
vn 0.2957 -0.9202 0.2565
vn 0.6582 -0.7422 -0.1256
vn 0.3777 -0.9153 0.1401
vn 0.7266 -0.6790 -0.1044
vn 0.2935 -0.9506 0.1006
vn 0.7044 -0.7085 -0.0419
vn 0.2858 -0.9583 0.0000
vn 0.7284 -0.6851 0.0000
vn 0.7044 -0.7085 0.0419
vn -0.0661 -0.9978 0.0000
vn 0.1057 -0.8981 -0.4268
vn 0.3777 -0.9153 -0.1401
vn 0.2957 -0.9202 -0.2565
vn 0.6582 -0.7422 0.1256
vn 0.3915 -0.8528 -0.3455
vn 0.6973 -0.7112 0.0889
vn 0.7643 -0.6255 0.1567
vn 0.8724 -0.4686 0.1391
vn 0.7744 0.1076 -0.6235
vn 0.9972 0.0635 0.0394
vn 0.2398 0.7522 -0.6137
vn 0.4971 0.8625 0.0949
vn -0.1233 0.9722 0.1987
vn -0.1531 -0.7668 -0.6233
vn -0.3700 -0.9247 -0.0888
vn -0.4230 -0.4821 -0.7672
vn 0.0917 -0.9673 -0.2364
vn 0.3872 -0.2721 -0.8809
vn 0.2997 -0.9386 -0.1709
vn 0.5776 -0.2532 -0.7760
vn 0.4490 -0.8913 -0.0631
vn 0.6881 -0.1938 -0.6992
vn 0.5563 -0.8255 -0.0955
vn 0.8416 -0.1820 -0.5085
vn 0.9626 -0.0787 -0.2592
vn 0.6891 0.6594 -0.3005
vn 0.7338 0.6793 0.0000
vn 0.2881 0.9245 -0.2496
vn 0.3757 0.9267 0.0000
vn 0.5894 -0.1179 -0.7991
vn -0.3454 0.6913 -0.6346
vn -0.6462 0.6955 -0.3140
vn 0.3775 -0.3102 0.8725
vn 0.1803 0.0141 0.9835
vn 0.1988 -0.7833 0.5890
vn 0.0412 -0.9669 0.2517
vn -0.1130 -0.9856 0.1254
vn -0.2799 -0.9528 -0.1169
vn -0.3207 -0.9261 0.1988
vn -0.4076 -0.9009 0.1486
vn -0.5286 -0.7357 0.4234
vn -0.7333 -0.6019 0.3163
vn -0.6970 -0.5365 0.4756
vn -0.8238 -0.5210 0.2234
vn 0.6366 0.5688 -0.5207
vn 0.9758 0.2185 0.0000
vn 0.6415 0.2550 -0.7235
vn 0.7652 0.6438 0.0000
vn 0.0818 0.7929 -0.6038
vn 0.1316 0.9913 0.0000
vn -0.2654 0.8828 -0.3876
vn -0.1724 0.9850 0.0000
vn -0.3437 0.9391 0.0000
vn -0.2654 0.8828 0.3876
vn -0.0341 0.9978 0.0559
vn -0.0173 0.9975 0.0681
vn 0.2894 0.9563 -0.0403
vn 0.2966 0.9495 -0.1026
vn 0.4987 -0.7770 0.3840
vn 0.4714 -0.2388 0.8489
vn -0.0577 0.6078 0.7920
vn 0.0381 0.6908 0.7220
vn 0.0673 0.9750 0.2117
vn -0.2973 0.9412 0.1603
vn 0.0626 0.9980 0.0018
vn 0.0662 0.9724 -0.2235
vn 0.2881 0.9245 0.2496
vn 0.6891 0.6594 0.3005
vn 0.5680 0.5909 0.5728
vn 0.8416 -0.1820 0.5085
vn 0.4426 0.5393 0.7164
vn 0.6881 -0.1938 0.6992
vn 0.5776 -0.2532 0.7760
vn 0.4490 -0.8913 0.0631
vn 0.2997 -0.9386 0.1709
vn -0.2212 -0.7969 -0.5622
vn -0.1718 -0.8598 -0.4808
vn -0.3700 -0.9247 0.0888
vn 0.0917 -0.9673 0.2364
vn 0.3872 -0.2721 0.8809
vn -0.1531 -0.7668 0.6233
vn 0.0544 -0.2625 0.9634
vn -0.4230 -0.4821 0.7672
vn -0.4935 0.0001 0.8697
vn -0.6803 0.1798 0.7105
vn -0.2114 0.1267 0.9691
vn -0.6064 0.3262 0.7252
vn -0.5121 0.5410 0.6671
vn 0.8270 0.4973 -0.2621
vn 0.3835 0.8033 -0.4556
vn 0.7364 0.4672 -0.4893
vn 0.3188 0.6927 -0.6469
vn 0.6389 0.2875 -0.7136
vn 0.3193 0.4618 -0.8275
vn 0.5384 0.1878 -0.8215
vn 0.3089 0.2053 -0.9286
vn 0.5725 -0.1426 -0.8074
vn -0.4847 0.8207 0.3025
vn -0.2492 0.9289 0.2740
vn -0.0935 0.8019 0.5900
vn 0.0627 0.9501 0.3054
vn 0.2344 0.8947 0.3803
vn 0.0608 0.9981 0.0000
vn 0.2487 0.9686 0.0000
vn -0.3754 -0.9155 -0.1444
vn -0.3944 -0.8887 -0.2336
vn -0.3668 -0.9303 0.0000
vn -0.0201 -0.9327 -0.3601
vn 0.0412 -0.9669 -0.2517
vn 0.4604 -0.6535 -0.6008
vn 0.4796 -0.4953 -0.7243
vn 0.3296 -0.6885 -0.6459
vn 0.4289 -0.5343 -0.7284
vn 0.1562 -0.3168 -0.9355
vn 0.0420 -0.2837 -0.9580
vn 0.3964 -0.0649 -0.9157
vn -0.1720 -0.2058 -0.9633
vn -0.2483 -0.5320 -0.8095
vn -0.5419 -0.5055 -0.6713
vn -0.5286 -0.7357 -0.4234
vn -0.6970 -0.5365 -0.4756
vn -0.7333 -0.6019 -0.3163
vn -0.8238 -0.5210 -0.2234
vn -0.8359 -0.5429 -0.0808
vn 0.0544 -0.2625 -0.9634
vn 0.6937 0.2084 -0.6894
vn 0.5900 -0.0849 -0.8029
vn 0.9682 -0.1738 -0.1798
vn 0.6417 -0.0617 -0.7644
vn 0.8513 -0.5245 0.0086
vn 0.6827 -0.0896 -0.7252
vn 0.8287 -0.5447 -0.1281
vn 0.4009 0.4164 -0.8160
vn 0.3775 -0.3102 -0.8725
vn 0.7223 0.3303 -0.6075
vn 0.1988 -0.7833 -0.5890
vn -0.0255 -0.7039 -0.7098
vn -0.1130 -0.9856 -0.1254
vn -0.3207 -0.9261 -0.1988
vn -0.2799 -0.9528 0.1169
vn -0.4076 -0.9009 -0.1486
vn 0.7657 -0.5062 0.3967
vn 0.6576 0.1099 0.7453
vn -0.0820 0.8251 0.5590
vn -0.2536 0.9008 -0.3524
vn -0.0979 0.9687 -0.2280
vn 0.1588 0.9625 0.2199
vn 0.0818 0.7929 0.6038
vn -0.0979 0.9687 0.2280
vn -0.2536 0.9008 0.3524
vn -0.1233 0.9722 -0.1987
vn 0.2398 0.7522 0.6137
vn 0.4971 0.8625 -0.0949
vn 0.9972 0.0635 -0.0394
vn 0.2900 0.9570 0.0000
vn -0.0431 0.9991 0.0000
vn -0.0341 0.9978 -0.0559
vn -0.0173 0.9975 -0.0681
vn -0.0699 0.9795 -0.1889
vn 0.2966 0.9495 0.1026
vn -0.0976 -0.8927 0.4398
vn -0.2212 -0.7969 0.5622
vn 0.7151 -0.6923 -0.0963
vn 0.9996 -0.0261 0.0000
vn 0.9626 -0.0787 0.2592
vn -0.0403 -0.9678 0.2484
vn 0.7591 -0.6510 0.0000
vn 0.7151 -0.6923 0.0963
vn 0.5563 -0.8255 0.0955
vn -0.0201 -0.9327 0.3601
vn -0.3754 -0.9155 0.1444
vn -0.3944 -0.8887 0.2336
vn -0.2918 -0.9565 0.0000
vn 0.3420 -0.9397 0.0000
vn 0.2788 -0.9526 -0.1213
vn 0.3557 -0.8805 -0.3134
vn 0.2491 -0.9391 -0.2367
vn 0.1624 -0.9126 -0.3752
vn -0.7863 -0.0486 0.6159
vn -0.9616 -0.1155 0.2488
vn -0.4436 0.1061 0.8899
vn -0.1581 0.1023 0.9821
vn 0.1293 0.0293 0.9911
vn -0.0976 -0.8927 -0.4398
vn -0.0403 -0.9678 -0.2484
vn -0.3283 -0.9445 0.0000
vn -0.6763 -0.5801 0.4539
vn 0.1349 0.9908 0.0000
vn 0.0878 0.9844 0.1522
vn 0.0841 0.9453 0.3152
vn 0.0551 0.8838 0.4645
vn -0.1823 -0.0731 -0.9805
vn -0.4690 -0.1733 -0.8660
vn -0.7527 -0.4297 -0.4988
vn -0.8532 -0.4393 -0.2811
vn 0.9337 -0.2162 -0.2853
vn 0.8287 -0.5447 0.1281
vn 0.8513 -0.5245 -0.0086
vn 0.6373 -0.7105 -0.2984
vn 0.6827 -0.0896 0.7252
vn 0.4009 0.4164 0.8160
vn 0.0136 0.5616 0.8273
vn -0.3263 0.8283 0.4554
vn -0.3633 0.7439 0.5609
vn -0.0985 0.3767 0.9211
vn 0.6417 -0.0617 0.7644
vn 0.5900 -0.0849 0.8029
vn 0.9682 -0.1738 0.1798
vn -0.5010 0.8654 0.0000
vn -0.2347 0.9720 0.0000
vn 0.1354 0.7142 0.6867
vn 0.1041 0.6767 0.7288
vn -0.8872 -0.4535 0.0846
vn -0.9918 -0.1279 0.0000
vn -0.9158 -0.4017 0.0000
vn -0.8532 -0.4393 0.2811
vn -0.7527 -0.4297 0.4988
vn -0.4690 -0.1733 0.8660
vn 0.3053 -0.8344 -0.4587
vn 0.5206 -0.6420 -0.5629
vn 0.5841 -0.7774 0.2334
vn 0.7075 -0.7067 0.0000
vn 0.6874 -0.6760 0.2655
vn 0.5916 -0.8062 0.0000
vn 0.5038 -0.8638 0.0000
vn 0.5841 -0.7774 -0.2334
vn 0.4886 -0.8404 -0.2346
vn 0.4590 -0.8241 -0.3318
vn -0.4935 0.0001 -0.8697
vn -0.6803 0.1798 -0.7105
vn -0.2114 0.1267 -0.9691
vn -0.6064 0.3262 -0.7252
vn -0.5121 0.5410 -0.6671
vn -0.0985 0.3767 -0.9211
vn 0.0136 0.5616 -0.8273
vn -0.3633 0.7439 -0.5609
vn -0.3263 0.8283 -0.4554
vn 0.0136 0.4985 0.8668
vn 0.3271 0.5478 0.7699
vn 0.0909 0.8561 0.5087
vn 0.2205 0.8706 0.4398
vn 0.6366 0.5688 0.5207
vn 0.7744 0.1076 0.6235
vn 0.6415 0.2550 0.7235
vn 0.6788 -0.5245 0.5139
vn 0.4426 0.5393 -0.7164
vn 0.5680 0.5909 -0.5728
vn 0.1588 0.9625 -0.2199
vn 0.2562 0.9523 -0.1659
vn -0.0699 0.9795 0.1889
vn 0.6527 -0.5712 -0.4976
vn 0.9621 -0.2406 -0.1281
vn 0.6937 0.2084 0.6894
vn -0.4551 0.6623 -0.5951
vn -0.0327 0.9755 -0.2174
vn 0.9025 0.3072 0.3020
vn 0.8103 0.5860 0.0000
vn 0.7929 0.5297 0.3012
vn 0.9315 0.3636 0.0000
vn 0.9557 -0.2943 0.0000
vn 0.9025 0.3072 -0.3020
vn 0.8835 -0.4421 -0.1545
vn 0.0627 0.9501 -0.3054
vn -0.2492 0.9289 -0.2740
vn -0.0935 0.8019 -0.5900
vn 0.3070 -0.5737 0.7593
vn 0.4806 -0.5658 0.6699
vn 0.5882 -0.2217 0.7777
vn 0.8016 -0.2234 0.5545
vn 0.6209 0.7839 0.0000
vn 0.5693 0.8067 -0.1583
vn 0.1601 0.9871 -0.0060
vn 0.9347 0.1637 -0.3153
vn 0.9876 0.1570 0.0000
vn 0.9293 -0.1712 -0.3271
vn 0.9825 -0.1861 0.0000
vn 0.1562 -0.3168 0.9355
vn -0.0255 -0.7039 0.7098
vn -0.2483 -0.5320 0.8095
vn 0.7266 -0.6790 0.1044
vn 0.2935 -0.9506 -0.1006
vn 0.2894 0.9563 0.0403
vn -0.5676 -0.1979 0.7992
vn -0.6290 -0.3567 -0.6907
vn -0.3155 -0.8158 -0.4846
vn -0.5192 -0.1703 0.8375
vn 0.1266 0.1136 0.9854
vn 0.1232 0.0921 0.9881
vn 0.2562 0.9523 0.1659
vn 0.9375 -0.1820 0.2966
vn 0.9347 0.1637 0.3153
vn 0.5693 0.8067 0.1583
vn 0.9293 -0.1712 0.3271
vn 0.3964 -0.0649 0.9157
vn 0.7223 0.3303 0.6075
vn 0.0420 -0.2837 0.9580
vn -0.1720 -0.2058 0.9633
vn 0.3878 -0.2053 0.8986
vn 0.2141 0.0968 0.9720
vn -0.8677 -0.4947 -0.0482
vn 0.1527 -0.7201 0.6768
vn 0.4125 -0.9106 0.0253
vn 0.3863 -0.9202 0.0631
vn -0.3155 -0.8158 0.4846
vn -0.1589 -0.1258 0.9792
vn -0.6290 -0.3567 0.6907
vn 0.0019 -1.0000 -0.0009
vn 0.3271 0.5478 -0.7699
vn 0.0909 0.8561 -0.5087
vn 0.2205 0.8706 -0.4398
vn -0.0647 0.9230 0.3793
vn 0.7110 0.7028 0.0237
vn -0.6796 0.0780 -0.7294
vn 0.4479 -0.4196 0.7895
vn 0.1786 0.0586 0.9821
vn 0.0941 0.0982 0.9907
vn 0.5372 -0.4653 0.7035
vn 0.5881 -0.8068 0.0564
vn 0.6020 -0.7933 -0.0905
vn -0.4847 0.8207 -0.3025
vn -0.1237 0.3246 -0.9377
vn -0.7322 0.6088 -0.3053
vn -0.2579 0.8475 -0.4639
vn -0.6976 0.1751 -0.6947
vn 0.0023 -0.0502 -0.9987
vn -0.8018 -0.0337 -0.5967
vn -0.7665 -0.0894 -0.6360
vn 0.0484 -0.1179 -0.9918
vn 0.0521 -0.1203 -0.9914
vn -0.5698 -0.1102 -0.8144
vn -0.6976 0.1751 0.6947
vn -0.7322 0.6088 0.3053
vn 0.3014 0.2908 0.9080
vn 0.3554 -0.0896 0.9304
vn 0.3712 -0.1119 0.9218
vn 0.2958 0.2680 0.9169
vn 0.0495 0.8672 0.4954
vn 0.0631 0.8715 0.4862
vn 0.6644 0.2145 0.7159
vn 0.6639 -0.1323 0.7360
vn 0.6692 -0.1515 0.7274
vn 0.6578 0.2252 0.7187
vn 0.4201 0.7990 0.4302
vn 0.4037 0.8185 0.4086
vn 0.7264 -0.3871 0.5679
vn 0.5445 -0.7326 0.4084
vn 0.7643 -0.6255 -0.1567
vn -0.1718 -0.8598 0.4808
vn 0.7659 -0.3560 0.5353
vn 0.5393 0.2790 0.7945
vn 0.5961 0.2400 0.7662
vn 0.6457 0.0948 0.7576
vn 0.7645 -0.4910 0.4177
vn 0.6874 -0.6760 -0.2655
vn 0.5610 -0.7669 -0.3117
vn -0.8872 -0.4535 -0.0846
vn 0.3403 -0.0958 -0.9354
vn 0.1803 0.0141 -0.9835
vn -0.2947 -0.9487 0.1147
vn 0.7645 -0.4910 -0.4177
vn 0.7659 -0.3560 -0.5353
vn 0.6457 0.0948 -0.7576
vn 0.5350 -0.8432 0.0528
vn 0.5424 -0.8394 0.0340
vn 0.9621 -0.2406 0.1281
vn 0.6527 -0.5712 0.4976
vn 0.3014 0.2908 -0.9080
vn 0.2958 0.2680 -0.9169
vn 0.0495 0.8672 -0.4954
vn 0.3554 -0.0896 -0.9304
vn 0.3712 -0.1119 -0.9218
vn -0.2811 0.9588 0.0398
vn -0.2958 0.9552 0.0092
vn -0.2579 0.8475 0.4639
vn -0.1237 0.3246 0.9377
vn -0.9169 -0.3991 0.0000
vn -0.6763 -0.5801 -0.4539
vn 0.6644 0.2145 -0.7159
vn 0.6578 0.2252 -0.7187
vn 0.4201 0.7990 -0.4302
vn 0.6639 -0.1323 -0.7360
vn 0.6692 -0.1515 -0.7274
vn 0.1075 0.9913 -0.0754
vn 0.1192 0.9876 -0.1023
vn 0.4037 0.8185 -0.4086
vn -0.1148 0.9912 -0.0651
vn -0.1200 0.9792 -0.1632
vn 0.0631 0.8715 -0.4862
vn 0.1601 0.9871 0.0060
vn 0.1563 0.9877 0.0000
vn 0.6973 -0.7112 -0.0889
vn -0.0327 0.9755 0.2174
vn -0.0647 0.9230 -0.3793
vn 0.8724 -0.4686 -0.1391
vn 0.9483 -0.3172 0.0000
vn 0.4886 -0.8404 0.2346
vn 0.4590 -0.8241 0.3318
vn 0.5610 -0.7669 0.3117
vn -0.7425 0.0912 0.6636
vn -0.7526 0.0754 0.6541
vn -0.7886 0.0141 0.6147
vn -0.6976 0.1553 0.6994
vn -0.3274 -0.0687 0.9424
vn -0.3316 -0.0747 0.9404
vn -0.3548 -0.1080 0.9286
vn -0.3036 -0.0354 0.9521
vn 0.0484 -0.1179 0.9918
vn -0.7665 -0.0894 0.6360
vn 0.0521 -0.1203 0.9914
vn -0.5698 -0.1102 0.8144
vn -0.2811 0.9588 -0.0398
vn -0.2958 0.9552 -0.0092
vn 0.7929 0.5297 -0.3012
vn 0.5393 0.2790 -0.7945
vn 0.5961 0.2400 -0.7662
vn -0.1589 -0.1258 -0.9792
vn 0.1527 -0.7201 -0.6768
vn -0.3274 -0.0687 -0.9424
vn -0.3316 -0.0747 -0.9404
vn -0.3036 -0.0354 -0.9521
vn -0.3548 -0.1080 -0.9286
vn -0.7425 0.0912 -0.6636
vn -0.7526 0.0754 -0.6541
vn -0.6976 0.1553 -0.6994
vn -0.7886 0.0141 -0.6147
vn -0.9246 0.1552 -0.3477
vn -0.9871 0.1599 0.0000
vn -0.9217 0.1624 -0.3522
vn -0.9883 0.1526 0.0000
vn 0.0023 -0.0502 0.9987
vn -0.8018 -0.0337 0.5967
vn 0.5350 -0.8432 -0.0528
vn 0.5424 -0.8394 -0.0340
vn 0.8835 -0.4421 0.1545
vn 0.5825 -0.8127 0.0139
vn -0.1628 -0.0735 -0.9839
vn -0.1634 -0.0584 -0.9848
vn -0.1616 -0.1006 -0.9817
vn -0.1644 -0.0312 -0.9859
vn -0.5676 -0.1979 -0.7992
vn -0.5192 -0.1703 -0.8375
vn 0.1266 0.1136 -0.9854
vn 0.1232 0.0921 -0.9881
vn 0.4125 -0.9106 -0.0253
vn 0.3863 -0.9202 -0.0631
vn -0.4253 -0.5828 -0.6924
vn -0.4253 -0.5828 0.6924
vn 0.5910 0.1919 0.7835
vn 0.7273 0.2498 0.6392
vn 0.2141 0.0968 -0.9720
vn 0.1647 0.0925 -0.9820
vn -0.5419 -0.5055 0.6713
vn 0.1705 -0.0070 -0.9853
vn 0.5206 -0.6420 0.5629
vn 0.1075 0.9913 0.0754
vn 0.1192 0.9876 0.1023
vn -0.1148 0.9912 0.0651
vn -0.1200 0.9792 0.1632
vn -0.7862 -0.5408 -0.2988
vn -0.8212 -0.5707 0.0000
vn -0.7900 -0.5311 -0.3061
vn -0.8159 -0.5782 0.0000
vn -0.5621 -0.3536 -0.7477
vn -0.5610 -0.3621 -0.7444
vn -0.5638 -0.3388 -0.7532
vn -0.5591 -0.3758 -0.7390
vn 0.7110 0.7028 -0.0237
vn 0.6373 -0.7105 0.2984
vn -0.1823 -0.0731 0.9805
vn -0.2947 -0.9487 -0.1147
vn -0.9246 0.1552 0.3477
vn -0.9217 0.1624 0.3522
vn -0.1628 -0.0735 0.9839
vn -0.1634 -0.0584 0.9848
vn -0.1644 -0.0312 0.9859
vn -0.1616 -0.1006 0.9817
vn 0.4479 -0.4196 -0.7895
vn 0.1786 0.0586 -0.9821
vn 0.5372 -0.4653 -0.7035
vn 0.0941 0.0982 -0.9907
vn 0.5881 -0.8068 -0.0564
vn 0.6020 -0.7933 0.0905
vn -0.5621 -0.3536 0.7477
vn -0.5610 -0.3621 0.7444
vn -0.5591 -0.3758 0.7390
vn -0.5638 -0.3388 0.7532
vn -0.7862 -0.5408 0.2988
vn -0.7900 -0.5311 0.3061
vn 0.9846 -0.1749 0.0000
vn 0.7326 -0.6806 0.0000
vn 0.5825 -0.8127 -0.0139
vn -0.4554 -0.4907 0.7428
vn -0.4554 -0.4907 -0.7428
vn -0.8359 -0.5429 0.0808
vn 0.1647 0.0925 0.9820
usemtl m0
s 1
f 48/1/1 108/2/2 113/3/3
f 108/2/2 48/1/1 98/4/4
f 50/5/5 98/4/4 48/1/1
f 98/4/4 50/5/5 96/6/6
f 53/7/7 96/6/6 50/5/5
f 96/6/6 53/7/7 78/8/8
f 55/9/9 78/8/8 53/7/7
f 78/8/8 55/9/9 129/10/10
f 5/11/11 129/10/10 55/9/9
f 129/10/10 5/11/11 126/12/12
f 123/13/13 126/12/12 5/11/11
f 126/12/12 123/13/13 9/14/14
f 121/15/15 9/14/14 123/13/13
f 9/14/14 121/15/15 18/16/16
f 32/17/17 18/16/16 121/15/15
f 18/16/16 32/17/17 30/18/18
f 38/19/19 30/18/18 32/17/17
f 30/18/18 38/19/19 28/20/20
f 57/21/21 28/20/20 38/19/19
f 28/20/20 57/21/21 13/22/22
f 62/23/23 13/22/22 57/21/21
f 13/22/22 62/23/23 65/24/24
f 87/25/25 65/24/24 62/23/23
f 65/24/24 87/25/25 80/26/26
f 89/27/27 80/26/26 87/25/25
f 80/26/26 89/27/27 91/28/28
f 102/29/29 91/28/28 89/27/27
f 91/28/28 102/29/29 104/30/30
f 111/31/31 104/30/30 102/29/29
f 104/30/30 111/31/31 139/32/32
f 141/33/33 139/32/32 111/31/31
f 139/32/32 141/33/33 45/34/34
f 115/35/35 45/34/34 141/33/33
f 45/34/34 115/35/35 40/36/36
f 118/37/37 40/36/36 115/35/35
f 40/36/36 118/37/37 35/38/38
f 25/39/39 35/38/38 118/37/37
f 35/38/38 25/39/39 69/40/40
f 11/41/41 69/40/40 25/39/39
f 69/40/40 11/41/41 67/42/42
f 5/11/11 67/42/42 11/41/41
f 67/42/42 5/11/11 53/7/7
f 55/9/9 53/7/7 5/11/11
f 75/43/43 82/44/44 24/45/45
f 82/44/44 75/43/43 112/46/46
f 93/47/47 112/46/46 75/43/43
f 112/46/46 93/47/47 194/48/48
f 185/49/49 194/48/48 93/47/47
f 194/48/48 185/49/49 140/50/50
f 97/51/51 140/50/50 185/49/49
f 140/50/50 97/51/51 167/52/52
f 187/53/53 167/52/52 97/51/51
f 167/52/52 187/53/53 171/54/54
f 99/55/55 171/54/54 187/53/53
f 171/54/54 99/55/55 101/56/56
f 168/57/57 101/56/56 99/55/55
f 101/56/56 168/57/57 186/58/58
f 343/59/59 186/58/58 168/57/57
f 186/58/58 343/59/59 347/60/60
f 345/61/61 347/60/60 343/59/59
f 347/60/60 345/61/61 385/62/62
f 383/63/63 385/62/62 345/61/61
f 385/62/62 383/63/63 369/64/64
f 367/65/65 369/64/64 383/63/63
f 369/64/64 367/65/65 442/66/66
f 440/67/67 442/66/66 367/65/65
f 442/66/66 440/67/67 426/68/68
f 433/69/69 426/68/68 440/67/67
f 426/68/68 433/69/69 331/70/70
f 431/71/71 331/70/70 433/69/69
f 215/72/72 212/73/73 306/74/74
f 212/73/73 215/72/72 293/75/75
f 279/76/76 293/75/75 215/72/72
f 293/75/75 279/76/76 472/77/77
f 269/78/78 472/77/77 279/76/76
f 472/77/77 269/78/78 266/79/79
f 249/80/80 266/79/79 269/78/78
f 266/79/79 249/80/80 315/81/81
f 241/82/82 315/81/81 249/80/80
f 315/81/81 241/82/82 246/83/83
f 444/84/84 246/83/83 241/82/82
f 246/83/83 444/84/84 446/85/85
f 152/86/86 446/85/85 444/84/84
f 446/85/85 152/86/86 157/87/87
f 623/88/88 157/87/87 152/86/86
f 157/87/87 623/88/88 46/89/89
f 620/90/90 46/89/89 623/88/88
f 46/89/89 620/90/90 43/91/91
f 31/92/92 43/91/91 620/90/90
f 43/91/91 31/92/92 33/93/93
f 29/94/94 33/93/93 31/92/92
f 33/93/93 29/94/94 36/95/95
f 610/96/96 36/95/95 29/94/94
f 362/97/97 353/98/98 365/99/99
f 353/98/98 362/97/97 402/100/100
f 419/101/101 402/100/100 362/97/97
f 402/100/100 419/101/101 422/102/102
f 394/103/103 422/102/102 419/101/101
f 422/102/102 394/103/103 400/104/104
f 454/105/105 400/104/104 394/103/103
f 400/104/104 454/105/105 456/106/106
f 177/107/107 456/106/106 454/105/105
f 456/106/106 177/107/107 398/108/108
f 134/109/109 398/108/108 177/107/107
f 398/108/108 134/109/109 163/110/110
f 161/111/111 163/110/110 134/109/109
f 163/110/110 161/111/111 156/112/112
f 158/113/113 156/112/112 161/111/111
f 156/112/112 158/113/113 144/114/114
f 149/115/115 144/114/114 158/113/113
f 144/114/114 149/115/115 138/116/116
f 146/117/117 138/116/116 149/115/115
f 138/116/116 146/117/117 136/118/118
f 198/119/119 136/118/118 146/117/117
f 221/120/120 357/121/121 335/122/122
f 357/121/121 221/120/120 480/123/123
f 478/124/124 480/123/123 221/120/120
f 480/123/123 478/124/124 170/125/125
f 105/126/126 170/125/125 478/124/124
f 170/125/125 105/126/126 173/127/127
f 114/128/128 173/127/127 105/126/126
f 173/127/127 114/128/128 189/129/129
f 179/130/130 189/129/129 114/128/128
f 189/129/129 179/130/130 130/131/131
f 127/132/132 130/131/131 179/130/130
f 130/131/131 127/132/132 122/133/133
f 124/134/134 122/133/133 127/132/132
f 122/133/133 124/134/134 172/135/135
f 176/136/136 172/135/135 124/134/134
f 172/135/135 176/136/136 453/137/137
f 174/138/138 170/125/125 173/127/127
f 170/125/125 174/138/138 349/139/139
f 396/140/140 349/139/139 174/138/138
f 349/139/139 396/140/140 417/141/141
f 420/142/142 417/141/141 396/140/140
f 417/141/141 420/142/142 359/143/143
f 361/144/144 359/143/143 420/142/142
f 359/143/143 361/144/144 357/121/121
f 364/145/145 357/121/121 361/144/144
f 357/121/121 364/145/145 335/122/122
f 332/146/146 335/122/122 364/145/145
f 335/122/122 332/146/146 428/147/147
f 430/148/148 428/147/147 332/146/146
f 428/147/147 430/148/148 337/149/149
f 304/150/150 337/149/149 430/148/148
f 337/149/149 304/150/150 299/151/151
f 407/152/152 372/153/153 370/154/154
f 372/153/153 407/152/152 414/155/155
f 418/156/156 414/155/155 407/152/152
f 414/155/155 418/156/156 416/157/157
f 421/158/158 416/157/157 418/156/156
f 416/157/157 421/158/158 439/159/159
f 441/160/160 439/159/159 421/158/158
f 439/159/159 441/160/160 376/161/161
f 374/162/162 376/161/161 441/160/160
f 376/161/161 374/162/162 378/163/163
f 425/164/164 378/163/163 374/162/162
f 378/163/163 425/164/164 340/165/165
f 384/166/166 340/165/165 425/164/164
f 340/165/165 384/166/166 338/167/167
f 112/46/46 109/168/168 82/44/44
f 109/168/168 112/46/46 198/119/119
f 194/48/48 198/119/119 112/46/46
f 198/119/119 194/48/48 136/118/118
f 140/50/50 136/118/118 194/48/48
f 136/118/118 140/50/50 138/116/116
f 167/52/52 138/116/116 140/50/50
f 138/116/116 167/52/52 169/169/169
f 171/54/54 169/169/169 167/52/52
f 169/169/169 171/54/54 103/170/170
f 101/56/56 103/170/170 171/54/54
f 103/170/170 101/56/56 186/58/58
f 282/171/171 215/72/72 305/172/172
f 215/72/72 282/171/171 279/76/76
f 276/173/173 279/76/76 282/171/171
f 279/76/76 276/173/173 209/174/174
f 284/175/175 209/174/174 276/173/173
f 209/174/174 284/175/175 195/176/176
f 476/177/177 195/176/176 284/175/175
f 195/176/176 476/177/177 199/178/178
f 291/179/179 199/178/178 476/177/177
f 199/178/178 291/179/179 202/180/180
f 287/181/181 202/180/180 291/179/179
f 202/180/180 287/181/181 272/182/182
f 415/183/183 191/184/184 220/185/185
f 191/184/184 415/183/183 413/186/186
f 406/187/187 413/186/186 415/183/183
f 413/186/186 406/187/187 404/188/188
f 218/189/189 404/188/188 406/187/187
f 404/188/188 218/189/189 164/190/190
f 162/191/191 164/190/190 218/189/189
f 164/190/190 162/191/191 613/192/192
f 95/193/193 613/192/192 162/191/191
f 613/192/192 95/193/193 90/194/194
f 47/195/195 90/194/194 95/193/193
f 90/194/194 47/195/195 44/196/196
f 137/197/197 104/30/30 139/32/32
f 104/30/30 137/197/197 91/28/28
f 135/198/198 91/28/28 137/197/197
f 91/28/28 135/198/198 83/199/199
f 133/200/200 83/199/199 135/198/198
f 83/199/199 133/200/200 76/201/201
f 131/202/202 76/201/201 133/200/200
f 76/201/201 131/202/202 42/203/203
f 129/10/10 42/203/203 131/202/202
f 42/203/203 129/10/10 3/204/204
f 126/12/12 3/204/204 129/10/10
f 3/204/204 126/12/12 9/14/14
f 499/205/205 340/165/165 338/167/167
f 340/165/165 499/205/205 556/206/206
f 554/207/207 556/206/206 499/205/205
f 556/206/206 554/207/207 486/208/208
f 563/209/209 486/208/208 554/207/207
f 486/208/208 563/209/209 571/210/210
f 552/211/211 571/210/210 563/209/209
f 571/210/210 552/211/211 568/212/212
f 546/213/213 568/212/212 552/211/211
f 568/212/212 546/213/213 579/214/214
f 501/215/215 579/214/214 546/213/213
f 546/213/213 483/216/216 501/215/215
f 483/216/216 546/213/213 543/217/217
f 549/218/218 543/217/217 546/213/213
f 543/217/217 549/218/218 533/219/219
f 528/220/220 533/219/219 549/218/218
f 533/219/219 528/220/220 481/221/221
f 523/222/222 481/221/221 528/220/220
f 481/221/221 523/222/222 558/223/223
f 515/224/224 558/223/223 523/222/222
f 558/223/223 515/224/224 509/225/225
f 507/226/226 509/225/225 515/224/224
f 125/227/227 134/109/109 177/107/107
f 134/109/109 125/227/227 132/228/228
f 128/229/229 132/228/228 125/227/227
f 132/228/228 128/229/229 181/230/230
f 178/231/231 181/230/230 128/229/229
f 181/230/230 178/231/231 175/232/232
f 117/233/233 175/232/232 178/231/231
f 175/232/232 117/233/233 183/234/234
f 120/235/235 183/234/234 117/233/233
f 183/234/234 120/235/235 109/168/168
f 385/62/62 377/236/236 347/60/60
f 377/236/236 385/62/62 375/237/237
f 371/238/238 375/237/237 385/62/62
f 375/237/237 371/238/238 387/239/239
f 389/240/240 387/239/239 371/238/238
f 387/239/239 389/240/240 182/241/241
f 184/242/242 182/241/241 389/240/240
f 182/241/241 184/242/242 156/112/112
f 163/110/110 156/112/112 184/242/242
f 86/243/243 632/244/244 145/245/245
f 632/244/244 86/243/243 630/246/246
f 10/247/247 630/246/246 86/243/243
f 630/246/246 10/247/247 633/248/248
f 4/249/249 633/248/248 10/247/247
f 633/248/248 4/249/249 39/250/250
f 612/251/251 39/250/250 4/249/249
f 39/250/250 612/251/251 29/94/94
f 610/96/96 29/94/94 612/251/251
f 77/252/252 92/253/253 74/254/254
f 92/253/253 77/252/252 616/255/255
f 615/256/256 616/255/255 77/252/252
f 616/255/255 615/256/256 618/257/257
f 17/258/258 618/257/257 615/256/256
f 618/257/257 17/258/258 14/259/259
f 66/260/260 14/259/259 17/258/258
f 14/259/259 66/260/260 60/261/261
f 63/262/262 60/261/261 66/260/260
f 405/263/263 418/156/156 407/152/152
f 418/156/156 405/263/263 410/264/264
f 401/265/265 410/264/264 405/263/263
f 410/264/264 401/265/265 368/266/266
f 399/267/267 368/266/266 401/265/265
f 368/266/266 399/267/267 344/268/268
f 348/269/269 344/268/268 399/267/267
f 344/268/268 348/269/269 346/270/270
f 350/271/271 346/270/270 348/269/269
f 6/272/272 74/254/254 20/273/273
f 74/254/254 6/272/272 77/252/252
f 8/274/274 77/252/252 6/272/272
f 77/252/252 8/274/274 79/275/275
f 12/276/276 79/275/275 8/274/274
f 79/275/275 12/276/276 70/277/277
f 68/278/278 70/277/277 12/276/276
f 70/277/277 68/278/278 72/279/279
f 113/3/3 139/32/32 45/34/34
f 139/32/32 113/3/3 137/197/197
f 106/280/280 137/197/197 113/3/3
f 137/197/197 106/280/280 94/281/281
f 98/4/4 94/281/281 106/280/280
f 94/281/281 98/4/4 85/282/282
f 96/6/6 85/282/282 98/4/4
f 85/282/282 96/6/6 78/8/8
f 428/147/147 220/185/185 335/122/122
f 220/185/185 428/147/147 415/183/183
f 337/149/149 415/183/183 428/147/147
f 415/183/183 337/149/149 406/187/187
f 470/283/283 406/187/187 337/149/149
f 406/187/187 470/283/283 468/284/284
f 299/151/151 468/284/284 470/283/283
f 468/284/284 299/151/151 409/285/285
f 613/192/192 404/188/188 164/190/190
f 404/188/188 613/192/192 614/286/286
f 192/287/287 614/286/286 613/192/192
f 614/286/286 192/287/287 56/288/288
f 27/289/289 56/288/288 192/287/287
f 56/288/288 27/289/289 58/290/290
f 21/291/291 58/290/290 27/289/289
f 58/290/290 21/291/291 81/292/292
f 95/193/193 160/293/293 47/195/195
f 160/293/293 95/193/193 460/294/294
f 162/191/191 460/294/294 95/193/193
f 460/294/294 162/191/191 462/295/295
f 218/189/189 462/295/295 162/191/191
f 462/295/295 218/189/189 464/296/296
f 466/297/297 464/296/296 218/189/189
f 464/296/296 466/297/297 325/298/298
f 376/161/161 447/299/299 450/300/300
f 447/299/299 376/161/161 436/301/301
f 378/163/163 436/301/301 376/161/161
f 436/301/301 378/163/163 336/302/302
f 340/165/165 336/302/302 378/163/163
f 336/302/302 340/165/165 491/303/303
f 556/206/206 491/303/303 340/165/165
f 491/303/303 556/206/206 486/208/208
f 436/301/301 445/304/304 447/299/299
f 445/304/304 436/301/301 434/305/305
f 336/302/302 434/305/305 436/301/301
f 434/305/305 336/302/302 565/306/306
f 491/303/303 565/306/306 336/302/302
f 565/306/306 491/303/303 489/307/307
f 486/208/208 489/307/307 491/303/303
f 489/307/307 486/208/208 571/210/210
f 209/174/174 269/78/78 279/76/76
f 269/78/78 209/174/174 263/308/308
f 379/309/309 263/308/308 209/174/174
f 263/308/308 379/309/309 259/310/310
f 145/245/245 259/310/310 379/309/309
f 259/310/310 145/245/245 147/311/311
f 632/244/244 147/311/311 145/245/245
f 154/312/312 152/86/86 444/84/84
f 152/86/86 154/312/312 622/313/313
f 624/314/314 622/313/313 154/312/312
f 622/313/313 624/314/314 621/315/315
f 41/316/316 621/315/315 624/314/314
f 621/315/315 41/316/316 620/90/90
f 31/92/92 620/90/90 41/316/316
f 381/317/317 345/61/61 341/318/318
f 345/61/61 381/317/317 383/63/63
f 339/319/319 383/63/63 381/317/317
f 383/63/63 339/319/319 367/65/65
f 435/320/320 367/65/65 339/319/319
f 367/65/65 435/320/320 440/67/67
f 438/321/321 440/67/67 435/320/320
f 577/322/322 489/307/307 579/214/214
f 489/307/307 577/322/322 565/306/306
f 574/323/323 565/306/306 577/322/322
f 565/306/306 574/323/323 434/305/305
f 443/324/324 434/305/305 574/323/323
f 434/305/305 443/324/324 445/304/304
f 452/325/325 445/304/304 443/324/324
f 193/326/326 163/110/110 184/242/242
f 163/110/110 193/326/326 398/108/108
f 458/327/327 398/108/108 193/326/326
f 398/108/108 458/327/327 456/106/106
f 391/328/328 456/106/106 458/327/327
f 456/106/106 391/328/328 400/104/104
f 424/329/329 400/104/104 391/328/328
f 617/330/330 185/49/49 93/47/47
f 185/49/49 617/330/330 97/51/51
f 619/331/331 97/51/51 617/330/330
f 97/51/51 619/331/331 187/53/53
f 15/332/332 187/53/53 619/331/331
f 187/53/53 15/332/332 61/333/333
f 50/5/5 67/42/42 53/7/7
f 67/42/42 50/5/5 69/40/40
f 48/1/1 69/40/40 50/5/5
f 69/40/40 48/1/1 71/334/334
f 40/36/36 71/334/334 48/1/1
f 71/334/334 40/36/36 35/38/38
f 459/335/335 457/336/336 496/337/337
f 457/336/336 459/335/335 461/338/338
f 463/339/339 461/338/338 459/335/335
f 461/338/338 463/339/339 467/340/340
f 465/341/341 467/340/340 463/339/339
f 467/340/340 465/341/341 469/342/342
f 507/226/226 467/340/340 469/342/342
f 467/340/340 507/226/226 512/343/343
f 515/224/224 512/343/343 507/226/226
f 512/343/343 515/224/224 518/344/344
f 520/345/345 518/344/344 515/224/224
f 518/344/344 520/345/345 479/346/346
f 377/236/236 186/58/58 347/60/60
f 186/58/58 377/236/236 188/347/347
f 375/237/237 188/347/347 377/236/236
f 188/347/347 375/237/237 180/348/348
f 387/239/239 180/348/348 375/237/237
f 180/348/348 387/239/239 182/241/241
f 369/64/64 371/238/238 385/62/62
f 371/238/238 369/64/64 373/349/349
f 351/350/350 373/349/349 369/64/64
f 373/349/349 351/350/350 424/329/329
f 422/102/102 424/329/329 351/350/350
f 424/329/329 422/102/102 400/104/104
f 206/351/351 166/352/352 143/353/353
f 166/352/352 206/351/351 341/318/318
f 273/354/354 341/318/318 206/351/351
f 341/318/318 273/354/354 381/317/317
f 288/355/355 381/317/317 273/354/354
f 381/317/317 288/355/355 224/356/356
f 132/228/228 161/111/111 134/109/109
f 161/111/111 132/228/228 158/113/113
f 181/230/230 158/113/113 132/228/228
f 158/113/113 181/230/230 149/115/115
f 175/232/232 149/115/115 181/230/230
f 149/115/115 175/232/232 183/234/234
f 41/316/316 29/94/94 31/92/92
f 29/94/94 41/316/316 39/250/250
f 2/357/357 39/250/250 41/316/316
f 39/250/250 2/357/357 633/248/248
f 624/314/314 633/248/248 2/357/357
f 633/248/248 624/314/314 628/358/358
f 252/359/359 155/360/360 250/361/361
f 155/360/360 252/359/359 150/362/362
f 148/363/363 150/362/362 252/359/359
f 150/362/362 148/363/363 626/364/364
f 631/365/365 626/364/364 148/363/363
f 626/364/364 631/365/365 629/366/366
f 370/154/154 405/263/263 407/152/152
f 405/263/263 370/154/154 403/367/367
f 427/368/368 403/367/367 370/154/154
f 403/367/367 427/368/368 397/369/369
f 392/370/370 397/369/369 427/368/368
f 397/369/369 392/370/370 390/371/371
f 397/369/369 399/267/267 401/265/265
f 399/267/267 397/369/369 395/372/372
f 390/371/371 395/372/372 397/369/369
f 395/372/372 390/371/371 354/373/373
f 356/374/374 354/373/373 390/371/371
f 354/373/373 356/374/374 352/375/375
f 353/98/98 331/70/70 365/99/99
f 331/70/70 353/98/98 426/68/68
f 355/376/376 426/68/68 353/98/98
f 426/68/68 355/376/376 442/66/66
f 369/64/64 442/66/66 355/376/376
f 552/211/211 549/218/218 546/213/213
f 549/218/218 552/211/211 560/377/377
f 563/209/209 560/377/377 552/211/211
f 560/377/377 563/209/209 477/378/378
f 504/379/379 477/378/378 563/209/209
f 58/290/290 614/286/286 56/288/288
f 614/286/286 58/290/290 196/380/380
f 49/381/381 196/380/380 58/290/290
f 196/380/380 49/381/381 51/382/382
f 54/383/383 51/382/382 49/381/381
f 432/384/384 441/160/160 421/158/158
f 441/160/160 432/384/384 374/162/162
f 423/385/385 374/162/162 432/384/384
f 374/162/162 423/385/385 425/164/164
f 384/166/166 425/164/164 423/385/385
f 192/287/287 37/386/386 27/289/289
f 37/386/386 192/287/287 34/387/387
f 88/388/388 34/387/387 192/287/287
f 34/387/387 88/388/388 44/196/196
f 90/194/194 44/196/196 88/388/388
f 457/336/336 475/389/389 496/337/337
f 475/389/389 457/336/336 471/390/390
f 479/346/346 471/390/390 457/336/336
f 471/390/390 479/346/346 538/391/391
f 520/345/345 538/391/391 479/346/346
f 538/391/391 549/218/218 560/377/377
f 549/218/218 538/391/391 528/220/220
f 520/345/345 528/220/220 538/391/391
f 528/220/220 520/345/345 523/222/222
f 515/224/224 523/222/222 520/345/345
f 7/392/392 9/14/14 18/16/16
f 9/14/14 7/392/392 3/204/204
f 1/393/393 3/204/204 7/392/392
f 3/204/204 1/393/393 42/203/203
f 1/393/393 65/24/24 42/203/203
f 567/394/394 555/395/395 569/396/396
f 555/395/395 567/394/394 559/397/397
f 564/398/398 559/397/397 567/394/394
f 559/397/397 564/398/398 275/399/399
f 333/400/400 275/399/399 564/398/398
f 153/401/401 180/348/348 182/241/241
f 180/348/348 153/401/401 151/402/402
f 142/403/403 151/402/402 153/401/401
f 151/402/402 142/403/403 169/169/169
f 138/116/116 169/169/169 142/403/403
f 315/81/81 472/77/77 266/79/79
f 472/77/77 315/81/81 411/404/404
f 312/405/405 411/404/404 315/81/81
f 411/404/404 312/405/405 320/406/406
f 324/407/407 320/406/406 312/405/405
f 542/408/408 268/409/409 228/410/410
f 268/409/409 542/408/408 203/411/411
f 508/412/412 203/411/411 542/408/408
f 203/411/411 508/412/412 200/413/413
f 482/414/414 200/413/413 508/412/412
f 238/415/415 276/173/173 282/171/171
f 276/173/173 238/415/415 474/416/416
f 229/417/417 474/416/416 238/415/415
f 474/416/416 229/417/417 476/177/177
f 291/179/179 476/177/177 229/417/417
f 17/258/258 72/279/279 66/260/260
f 72/279/279 17/258/258 70/277/277
f 615/256/256 70/277/277 17/258/258
f 70/277/277 615/256/256 79/275/275
f 77/252/252 79/275/275 615/256/256
f 396/140/140 393/418/418 420/142/142
f 393/418/418 396/140/140 451/419/419
f 174/138/138 451/419/419 396/140/140
f 451/419/419 174/138/138 172/135/135
f 462/295/295 160/293/293 460/294/294
f 160/293/293 462/295/295 449/420/420
f 464/296/296 449/420/420 462/295/295
f 449/420/420 464/296/296 325/298/298
f 322/421/421 292/422/422 283/423/423
f 292/422/422 322/421/421 326/424/424
f 317/425/425 326/424/424 322/421/421
f 326/424/424 317/425/425 329/426/426
f 468/284/284 218/189/189 406/187/187
f 218/189/189 468/284/284 466/297/297
f 321/427/427 466/297/297 468/284/284
f 466/297/297 321/427/427 325/298/298
f 448/428/428 446/85/85 157/87/87
f 446/85/85 448/428/428 246/83/83
f 324/407/407 246/83/83 448/428/428
f 246/83/83 324/407/407 312/405/405
f 510/429/429 542/408/408 545/430/430
f 542/408/408 510/429/429 508/412/412
f 484/431/431 508/412/412 510/429/429
f 508/412/412 484/431/431 482/414/414
f 130/131/131 173/127/127 189/129/129
f 173/127/127 130/131/131 174/138/138
f 122/133/133 174/138/138 130/131/131
f 174/138/138 122/133/133 172/135/135
f 327/432/432 282/171/171 303/433/433
f 282/171/171 327/432/432 238/415/415
f 437/434/434 238/415/415 327/432/432
f 238/415/415 437/434/434 232/435/435
f 411/404/404 293/75/75 472/77/77
f 293/75/75 411/404/404 212/73/73
f 408/436/436 212/73/73 411/404/404
f 212/73/73 408/436/436 298/437/437
f 57/21/21 87/25/25 62/23/23
f 87/25/25 57/21/21 100/438/438
f 111/31/31 100/438/438 57/21/21
f 100/438/438 111/31/31 102/29/29
f 585/439/439 607/440/440 602/441/441
f 607/440/440 585/439/439 578/442/442
f 582/443/443 578/442/442 585/439/439
f 578/442/442 582/443/443 580/444/444
f 133/200/200 85/282/282 78/8/8
f 85/282/282 133/200/200 94/281/281
f 135/198/198 94/281/281 133/200/200
f 94/281/281 135/198/198 137/197/197
f 115/35/35 38/19/19 32/17/17
f 38/19/19 115/35/35 59/445/445
f 141/33/33 59/445/445 115/35/35
f 59/445/445 141/33/33 111/31/31
f 429/446/446 421/158/158 418/156/156
f 421/158/158 429/446/446 432/384/384
f 366/447/447 432/384/384 429/446/446
f 432/384/384 366/447/447 388/448/448
f 473/449/449 560/377/377 477/378/378
f 560/377/377 473/449/449 538/391/391
f 541/450/450 538/391/391 473/449/449
f 538/391/391 541/450/450 471/390/390
f 7/392/392 13/22/22 65/24/24
f 13/22/22 7/392/392 16/451/451
f 18/16/16 16/451/451 7/392/392
f 16/451/451 18/16/16 30/18/18
f 586/452/452 575/453/453 583/454/454
f 575/453/453 586/452/452 572/455/455
f 601/456/456 572/455/455 586/452/452
f 572/455/455 601/456/456 598/457/457
f 142/403/403 144/114/114 138/116/116
f 144/114/114 142/403/403 156/112/112
f 153/401/401 156/112/112 142/403/403
f 156/112/112 153/401/401 182/241/241
f 151/402/402 188/347/347 180/348/348
f 188/347/347 151/402/402 165/458/458
f 169/169/169 165/458/458 151/402/402
f 165/458/458 169/169/169 103/170/170
f 217/459/459 257/460/460 260/461/461
f 257/460/460 217/459/459 219/462/462
f 214/463/463 219/462/462 217/459/459
f 219/462/462 214/463/463 222/464/464
f 500/465/465 524/466/466 503/467/467
f 524/466/466 500/465/465 521/468/468
f 519/469/469 521/468/468 500/465/465
f 521/468/468 519/469/469 553/470/470
f 514/471/471 505/472/472 488/473/473
f 505/472/472 514/471/471 516/474/474
f 547/475/475 516/474/474 514/471/471
f 516/474/474 547/475/475 551/476/476
f 511/477/477 487/478/478 485/479/479
f 487/478/478 511/477/477 513/480/480
f 544/481/481 513/480/480 511/477/477
f 513/480/480 544/481/481 548/482/482
f 52/483/483 105/126/126 478/124/124
f 105/126/126 52/483/483 107/484/484
f 54/383/383 107/484/484 52/483/483
f 107/484/484 54/383/383 119/485/485
f 416/157/157 372/153/153 414/155/155
f 372/153/153 416/157/157 386/486/486
f 450/300/300 386/486/486 416/157/157
f 573/487/487 570/488/488 576/489/489
f 570/488/488 573/487/487 566/490/490
f 609/491/491 566/490/490 573/487/487
f 626/364/364 155/360/360 150/362/362
f 155/360/360 626/364/364 625/492/492
f 627/493/493 625/492/492 626/364/364
f 341/318/318 168/57/57 166/352/352
f 168/57/57 341/318/318 343/59/59
f 345/61/61 343/59/59 341/318/318
f 166/352/352 64/494/494 143/353/353
f 64/494/494 166/352/352 99/55/55
f 168/57/57 99/55/55 166/352/352
f 611/495/495 6/272/272 22/496/496
f 6/272/272 611/495/495 4/249/249
f 612/251/251 4/249/249 611/495/495
f 10/247/247 12/276/276 8/274/274
f 12/276/276 10/247/247 68/278/278
f 84/497/497 68/278/278 10/247/247
f 334/498/498 281/499/499 274/500/500
f 281/499/499 334/498/498 310/501/501
f 297/502/502 310/501/501 334/498/498
f 358/503/503 344/268/268 363/504/504
f 344/268/268 358/503/503 368/266/266
f 410/264/264 368/266/266 358/503/503
f 354/373/373 399/267/267 395/372/372
f 399/267/267 354/373/373 348/269/269
f 350/271/271 348/269/269 354/373/373
f 211/505/505 216/506/506 264/507/507
f 216/506/506 211/505/505 213/508/508
f 208/509/509 213/508/508 211/505/505
f 553/470/470 526/510/510 522/511/511
f 526/510/510 553/470/470 550/512/512
f 517/513/513 550/512/512 553/470/470
f 443/324/324 342/514/514 452/325/325
f 342/514/514 443/324/324 581/515/515
f 574/323/323 581/515/515 443/324/324
f 204/516/516 210/517/517 267/518/518
f 210/517/517 204/516/516 207/519/519
f 201/520/520 207/519/519 204/516/516
f 267/518/518 237/521/521 227/522/522
f 237/521/521 267/518/518 265/523/523
f 210/517/517 265/523/523 267/518/518
f 264/507/507 245/524/524 236/525/525
f 245/524/524 264/507/507 261/526/526
f 216/506/506 261/526/526 264/507/507
f 542/408/408 537/527/527 545/430/430
f 537/527/527 542/408/408 540/528/528
f 228/410/410 540/528/528 542/408/408
f 359/143/143 349/139/139 417/141/141
f 349/139/139 359/143/143 480/123/123
f 357/121/121 480/123/123 359/143/143
f 107/484/484 114/128/128 105/126/126
f 114/128/128 107/484/484 116/529/529
f 119/485/485 116/529/529 107/484/484
f 73/530/530 65/24/24 80/26/26
f 65/24/24 73/530/530 42/203/203
f 76/201/201 42/203/203 73/530/530
f 118/37/37 32/17/17 121/15/15
f 32/17/17 118/37/37 115/35/35
f 410/264/264 429/446/446 418/156/156
f 429/446/446 410/264/264 360/531/531
f 467/340/340 518/344/344 461/338/338
f 518/344/344 467/340/340 512/343/343
f 83/199/199 80/26/26 91/28/28
f 80/26/26 83/199/199 76/201/201
f 389/240/240 391/328/328 458/327/327
f 391/328/328 389/240/240 424/329/329
f 57/21/21 59/445/445 111/31/31
f 59/445/445 57/21/21 38/19/19
f 388/448/448 423/385/385 432/384/384
f 423/385/385 388/448/448 384/166/166
f 184/242/242 458/327/327 193/326/326
f 458/327/327 184/242/242 389/240/240
f 457/336/336 518/344/344 479/346/346
f 518/344/344 457/336/336 461/338/338
f 28/20/20 16/451/451 30/18/18
f 16/451/451 28/20/20 13/22/22
f 131/202/202 78/8/8 129/10/10
f 78/8/8 131/202/202 133/200/200
f 191/184/184 196/380/380 51/382/382
f 196/380/380 191/184/184 413/186/186
f 110/532/532 54/383/383 49/381/381
f 54/383/383 110/532/532 119/485/485
f 453/137/137 451/419/419 172/135/135
f 451/419/419 453/137/137 393/418/418
f 190/533/533 478/124/124 221/120/120
f 478/124/124 190/533/533 52/483/483
f 81/292/292 49/381/381 58/290/290
f 49/381/381 81/292/292 110/532/532
f 186/58/58 165/458/458 103/170/170
f 165/458/458 186/58/58 188/347/347
f 48/1/1 45/34/34 40/36/36
f 45/34/34 48/1/1 113/3/3
f 413/186/186 614/286/286 196/380/380
f 614/286/286 413/186/186 404/188/188
f 373/349/349 389/240/240 371/238/238
f 389/240/240 373/349/349 424/329/329
f 351/350/350 402/100/100 422/102/102
f 402/100/100 351/350/350 353/98/98
f 355/376/376 351/350/350 369/64/64
f 351/350/350 355/376/376 353/98/98
f 108/2/2 106/280/280 113/3/3
f 106/280/280 108/2/2 98/4/4
f 11/41/41 123/13/13 5/11/11
f 123/13/13 11/41/41 25/39/39
f 25/39/39 121/15/15 123/13/13
f 121/15/15 25/39/39 118/37/37
f 252/359/359 258/534/534 148/363/363
f 258/534/534 252/359/359 262/535/535
f 613/192/192 88/388/388 192/287/287
f 88/388/388 613/192/192 90/194/194
f 255/536/536 252/359/359 250/361/361
f 252/359/359 255/536/536 262/535/535
f 100/438/438 89/27/27 87/25/25
f 89/27/27 100/438/438 102/29/29
f 231/537/537 235/538/538 239/539/539
f 235/538/538 231/537/537 225/540/540
f 240/541/541 243/542/542 247/543/543
f 243/542/542 240/541/541 234/544/544
f 242/545/545 251/546/546 248/547/547
f 251/546/546 242/545/545 253/548/548
f 244/549/549 257/460/460 254/550/550
f 257/460/460 244/549/549 260/461/461
f 275/399/399 555/395/395 559/397/397
f 555/395/395 275/399/399 270/551/551
f 271/552/552 281/499/499 278/553/553
f 281/499/499 271/552/552 274/500/500
f 289/554/554 283/423/423 292/422/422
f 283/423/423 289/554/554 285/555/555
f 498/556/556 525/557/557 529/558/558
f 525/557/557 498/556/556 502/559/559
f 495/560/560 530/561/561 534/562/562
f 530/561/561 495/560/560 497/563/563
f 535/564/564 492/565/565 494/566/566
f 492/565/565 535/564/564 539/567/567
f 506/568/568 519/469/469 490/569/569
f 519/469/469 506/568/568 517/513/513
f 597/570/570 609/491/491 573/487/487
f 609/491/491 597/570/570 592/571/571
f 608/572/572 564/398/398 567/394/394
f 564/398/398 608/572/572 591/573/573
f 604/574/574 596/575/575 599/576/576
f 596/575/575 604/574/574 594/577/577
f 580/444/444 606/578/578 578/442/442
f 606/578/578 580/444/444 605/579/579
f 600/580/580 605/579/579 603/581/581
f 605/579/579 600/580/580 606/578/578
f 323/582/582 285/555/555 319/583/583
f 285/555/555 323/582/582 283/423/423
f 574/323/323 493/584/584 581/515/515
f 493/584/584 574/323/323 577/322/322
f 445/304/304 380/585/585 447/299/299
f 380/585/585 445/304/304 452/325/325
f 431/71/71 328/586/586 307/587/587
f 328/586/586 431/71/71 433/69/69
f 433/69/69 438/321/321 328/586/586
f 438/321/321 433/69/69 440/67/67
f 26/588/588 610/96/96 19/589/589
f 610/96/96 26/588/588 36/95/95
f 249/80/80 444/84/84 241/82/82
f 444/84/84 249/80/80 154/312/312
f 232/435/435 229/417/417 238/415/415
f 229/417/417 232/435/435 223/590/590
f 223/590/590 291/179/179 229/417/417
f 291/179/179 223/590/590 287/181/181
f 610/96/96 611/495/495 23/591/591
f 611/495/495 610/96/96 612/251/251
f 4/249/249 8/274/274 6/272/272
f 8/274/274 4/249/249 10/247/247
f 256/592/592 269/78/78 263/308/308
f 269/78/78 256/592/592 249/80/80
f 532/593/593 544/481/481 536/594/594
f 544/481/481 532/593/593 548/482/482
f 620/90/90 622/313/313 621/315/315
f 622/313/313 620/90/90 623/88/88
f 527/595/595 547/475/475 531/596/596
f 547/475/475 527/595/595 551/476/476
f 587/597/597 561/598/598 589/599/599
f 561/598/598 587/597/597 557/600/600
f 593/601/601 590/602/602 595/603/603
f 590/602/602 593/601/601 588/604/604
f 403/367/367 401/265/265 405/263/263
f 401/265/265 403/367/367 397/369/369
f 412/605/605 410/264/264 358/503/503
f 410/264/264 412/605/605 360/531/531
f 382/606/606 344/268/268 346/270/270
f 344/268/268 382/606/606 363/504/504
f 568/212/212 489/307/307 571/210/210
f 489/307/307 568/212/212 579/214/214
f 439/159/159 450/300/300 416/157/157
f 450/300/300 439/159/159 376/161/161
f 554/207/207 504/379/379 563/209/209
f 504/379/379 554/207/207 499/205/205
f 483/216/216 533/219/219 481/221/221
f 533/219/219 483/216/216 543/217/217
f 198/119/119 183/234/234 109/168/168
f 183/234/234 198/119/119 146/117/117
f 233/607/607 435/320/320 339/319/319
f 435/320/320 233/607/607 438/321/321
f 224/356/356 339/319/319 381/317/317
f 339/319/319 224/356/356 233/607/607
f 197/608/608 209/174/174 195/176/176
f 209/174/174 197/608/608 379/309/309
f 251/546/546 219/462/462 222/464/464
f 219/462/462 251/546/546 253/548/548
f 492/565/565 226/609/609 230/610/610
f 226/609/609 492/565/565 539/567/567
f 61/333/333 99/55/55 187/53/53
f 99/55/55 61/333/333 64/494/494
f 474/416/416 284/175/175 276/173/173
f 284/175/175 474/416/416 476/177/177
f 330/611/611 309/612/612 314/613/613
f 309/612/612 330/611/611 316/614/614
f 286/615/615 277/616/616 280/617/617
f 277/616/616 286/615/615 290/618/618
f 318/619/619 280/617/617 311/620/620
f 280/617/617 318/619/619 286/615/615
f 313/621/621 295/622/622 301/623/623
f 295/622/622 313/621/621 308/624/624
f 300/625/625 561/598/598 557/600/600
f 561/598/598 300/625/625 294/626/626
f 159/627/627 157/87/87 46/89/89
f 157/87/87 159/627/627 448/428/428
f 562/628/628 564/398/398 591/573/573
f 564/398/398 562/628/628 296/629/629
f 386/486/486 450/300/300 455/630/630
f 455/630/630 450/300/300 380/585/585
f 623/88/88 152/86/86 622/313/313
f 501/215/215 584/631/631 579/214/214
f 76/201/201 73/530/530 80/26/26
f 584/631/631 493/584/584 579/214/214
f 352/375/375 350/271/271 354/373/373
f 468/284/284 409/285/285 321/427/427
f 579/214/214 493/584/584 577/322/322
f 450/300/300 447/299/299 380/585/585
f 429/446/446 360/531/531 366/447/447
f 564/398/398 296/629/629 333/400/400
f 1/393/393 7/392/392 65/24/24
f 69/40/40 71/334/334 35/38/38
f 183/234/234 146/117/117 149/115/115
f 633/248/248 628/358/358 630/246/246
f 272/182/182 205/632/632 202/180/180
f 302/633/633 212/73/73 298/437/437
f 626/364/364 629/366/366 627/493/493
f 10/247/247 86/243/243 84/497/497
f 519/469/469 500/465/465 490/569/569
f 517/513/513 553/470/470 519/469/469
f 219/462/462 253/548/548 257/460/460
f 480/123/123 170/125/125 349/139/139
f 114/128/128 116/529/529 179/130/130
f 411/404/404 320/406/406 408/436/436
f 246/83/83 312/405/405 315/81/81
f 470/283/283 337/149/149 299/151/151
f 41/316/316 624/314/314 2/357/357
