<?xml version="1.0"?>
<COLLADA xmlns="http://www.collada.org/2005/11/COLLADASchema" version="1.4.1">
    <asset>
        <contributor>
            <authoring_tool>J3D Ripoff Exporter</authoring_tool>
        </contributor>
        <created>2024-08-02T13:57:25.409Z</created>
        <modified>2024-08-02T13:57:25.409Z</modified>
		<unit meter="0.01" name="centimeter" ></unit>
        <up_axis>Y_UP</up_axis>
    </asset>
    <library_images>
        <image id="tex0">
            <init_from>donkey_all.png</init_from>
        </image>
    </library_images>
    <library_effects>
        <effect id="effect0">
            <profile_COMMON>
                <newparam sid="surface0">
                    <surface type="2D">
                        <init_from>tex0</init_from>
                    </surface>
                </newparam>
                <newparam sid="sampler0">
                    <sampler2D>
                        <source>surface0</source>
                    </sampler2D>
                </newparam>
                <technique sid="COMMON">
                    <blinn>
                        <diffuse>
                            <texture texture="sampler0" texcoord="UVSET0"></texture>
                        </diffuse>
                    </blinn>
                </technique>
            </profile_COMMON>
        </effect>
    </library_effects>
    <library_materials>
        <material id="mat0" name="Dummy">
            <instance_effect url="#effect0"></instance_effect>
        </material>
    </library_materials>
    <library_geometries>
        <geometry id="mesh0">
            <mesh>
                <source id="points0">
                    <float_array id="pointarray0" count="1452">53.921875 29.04296875 6.99609375 58.44140625 37.53515625 7.875 59.58203125 40.4140625 0 56.09765625 40.625 9.42578125 57.13671875 44.140625 0 52.4609375 40.66796875 9.03125 53.12109375 43.34375 0 48.5 36.23046875 9.54296875 46.99609375 36.19921875 0 43.08984375 33.078125 0 48.4609375 36.21875 -9.54296875 43.60546875 32.53515625 -11.84375 44.75390625 30.8984375 -17.609375 36.23828125 28.68359375 -18.60546875 45.83203125 28.09375 -18.34765625 36.27734375 24.9453125 -19.3984375 35.58203125 20.62890625 -16.3125 23.75390625 20.26171875 -13.8125 33.66796875 18.7265625 -7.09375 22.1953125 22.0234375 -5.88671875 22.34375 22.98828125 0 22.234375 27.4765625 -6.9921875 22.5 31.55078125 0 23.11328125 32.796875 0 22.234375 27.4765625 6.9921875 24.72265625 30.953125 15.671875 24.18359375 26.9375 16.3125 36.27734375 24.9453125 19.3984375 23.75390625 20.26171875 13.8125 35.58203125 20.62890625 16.3125 33.66796875 18.7265625 7.09375 44.99609375 21.62890625 7.1484375 44.7890625 23.921875 0 53.09765625 29.8046875 0 44.99609375 21.62890625 -7.1484375 53.921875 29.04296875 -6.99609375 46.1640625 24.2578125 -15.18359375 54.34765625 31.078125 -12.25 52.96484375 34.12890625 -15.05078125 56.1171875 40.67578125 -9.42578125 49.921875 35.890625 -14.4609375 52.4609375 40.66796875 -9.03125 32.953125 9.5859375 -29.16015625 30.10546875 15.77734375 -29.77734375 31.26171875 10.15234375 -30.86328125 28.796875 15.77734375 -31.13671875 28.09375 11.140625 -31.8359375 24.72265625 16.19140625 -31.75 19.33203125 16.53515625 -31.35546875 18.3984375 24.5390625 -29.3125 13.41796875 15.90234375 -29.54296875 12.1953125 23.6875 -27.1015625 8.37109375 15.62890625 -25.32421875 6.2578125 23.58203125 -22.8515625 4.7578125 15.50390625 -17.58203125 3.36328125 23.80859375 -15.1484375 1.87890625 24.17578125 0 3.859375 33.83203125 0 3.36328125 23.80859375 15.1484375 6.42578125 33.02734375 13.32421875 6.2578125 23.58203125 22.8515625 13.203125 34.84375 21.984375 12.1953125 23.6875 27.1015625 21.71875 34.140625 25.96484375 18.3984375 24.5390625 29.3125 23.796875 26.01953125 30.3203125 24.72265625 16.19140625 31.75 28.35546875 24.5 30.4609375 28.796875 15.77734375 31.13671875 30.265625 23.0625 29.0390625 30.10546875 15.77734375 29.77734375 32.953125 9.5859375 29.16015625 40.41796875 9.9765625 27.87109375 36.33984375 7.9609375 28.5625 40.0234375 8.7734375 25.984375 39.91015625 3.44140625 25.42578125 46.375 8.17578125 23.015625 44.33984375 1.90625 20.39453125 51.2578125 7.15625 19.08984375 57.13671875 5.87109375 11.546875 53.2890625 7.43359375 19.73828125 58.66796875 6.796875 13.42578125 60.9765625 7.6171875 14.39453125 61.5625 6.3359375 6.26171875 64.1015625 7.234375 7.16015625 62.9609375 6.27734375 0 65.4296875 7.15625 0 64.1015625 7.234375 -7.16015625 64.4375 9.29296875 -7.3515625 60.9765625 7.6171875 -14.39453125 61.25390625 9.7421875 -14.85546875 55.30078125 8.5859375 -20.7265625 55.5546875 10.4921875 -21.078125 47.4921875 9.65234375 -25.3359375 47.53125 11.4765625 -25.78515625 40.41796875 9.9765625 -27.87109375 33.55859375 30.6953125 27.15625 32.1015625 31.7890625 28.28125 37.29296875 35.5703125 24.2265625 35.78515625 37.48828125 24.42578125 41.90625 40.328125 19.33203125 40.328125 42.23046875 19.578125 45.46875 43.83203125 13.0859375 43.6875 45.62890625 13.2578125 47.30859375 45.75 6.4453125 45.63671875 47.703125 6.515625 47.91015625 46.41796875 0 46.16015625 48.23046875 0 45.63671875 47.703125 -6.515625 42.9765625 47.01171875 -5.2578125 41.5234375 45.59765625 -11.5546875 32.84375 46.828125 -11.65234375 38.11328125 42.37890625 -17.484375 27.87109375 40.8671875 -21.453125 33.625 38.19921875 -23.7734375 21.71875 34.140625 -25.96484375 29.66796875 32.62109375 -27.6171875 23.796875 26.01953125 -30.3203125 28.35546875 24.5 -30.4609375 30.62890625 22.46484375 25.79296875 33.4609375 29.66015625 24.3359375 17.61328125 18.765625 25.19921875 19.21484375 29.0546875 23.01171875 14.2578125 28.609375 0 27.5390625 41.08984375 0 19.21484375 29.0546875 -23.01171875 33.6484375 41 -12.81640625 36.6484375 34.265625 -20.80859375 41.0078125 38.49609375 -15.61328125 41.90625 40.328125 -19.33203125 44.2109375 41.3515625 -10.515625 45.46875 43.83203125 -13.0859375 45.30078125 42.89453125 -5.1328125 47.30859375 45.75 -6.4453125 45.90234375 43.4140625 0 37.36328125 44.796875 0 33.6484375 41 12.81640625 44.2109375 41.3515625 10.515625 41.0078125 38.49609375 15.61328125 36.6484375 34.265625 20.80859375 30.23046875 15.91015625 26.296875 32.98046875 9.97265625 25.50390625 40.25390625 11.5546875 27.75 18.72265625 -25.2890625 -21.1875 20.6015625 -28.51171875 -17.38671875 24.08984375 -28.92578125 -20.84375 27.78515625 -30.328125 -18.8203125 30.12109375 -26.0390625 -21.109375 32.41796875 -29.7109375 -16.41796875 33.90234375 -25.13671875 -19.13671875 35.6484375 -28.55078125 -13.7109375 37.8125 -23.52734375 -16.33984375 39.3671875 -26.50390625 -10.390625 41.703125 -22.16796875 -12.26953125 44.171875 -20.4609375 -6.8359375 42.94921875 -15.80078125 -6.60546875 43.50390625 -15.0625 0 39.7421875 -14.60546875 -5.62890625 40.7578125 -13.94921875 0 30.265625 23.0625 -29.0390625 13.203125 34.84375 -21.984375 6.42578125 33.02734375 -13.32421875 35.48046875 4.78515625 28.765625 32.953125 0.4296875 26.4296875 36.87890625 -1.5078125 19.765625 30.96875 -0.9765625 23.16015625 25.1875 1.20703125 18.46875 24.6484375 0.890625 24.9140625 15.05859375 4.62890625 20.38671875 15.703125 5.453125 25.60546875 10.06640625 6.63671875 18.99609375 11.38671875 10.51953125 24.46484375 7.2578125 10.8984375 18.578125 11.71484375 16.47265625 0 23.86328125 9.80859375 23.22265625 17.640625 6.859375 0 33.3515625 7.0078125 24.09765625 31.21875 3.34765625 0 44.19921875 4.65625 17.6484375 43.46875 2.0703125 0 53.3984375 4.609375 0 44.19921875 4.65625 -17.6484375 59.5078125 10.7890625 -6.625 56.83984375 11.27734375 -13.4453125 46.1640625 24.2578125 15.18359375 45.83203125 28.09375 18.34765625 36.23828125 28.68359375 18.60546875 44.75390625 30.8984375 17.609375 35.65234375 31.07421875 12.734375 43.703125 32.38671875 11.84375 35.26171875 31.76953125 0 35.65234375 31.07421875 -12.734375 39.7421875 -14.60546875 5.62890625 42.94921875 -15.80078125 6.60546875 40.4453125 -17.4375 12.19140625 41.703125 -22.16796875 12.26953125 36.59375 -19.28515625 16.3359375 37.8125 -23.52734375 16.33984375 33.90234375 -25.13671875 19.13671875 35.6484375 -28.55078125 13.7109375 32.41796875 -29.7109375 16.41796875 31.99609375 -27.66796875 11.078125 25.83984375 -27.34765625 13.98828125 20.6015625 -28.51171875 17.38671875 27.78515625 -30.328125 18.8203125 30.12109375 -26.0390625 21.109375 24.08984375 -28.92578125 20.84375 24.1328125 -24.73046875 23.19140625 18.72265625 -25.2890625 21.1875 20.78125 -20.75 23.27734375 20.9453125 -18.265625 22.8203125 23.53125 -14.609375 24.1796875 22.41796875 -13.84765625 22.90625 24.9296875 -8.30078125 21.6796875 43.6875 45.62890625 -13.2578125 40.328125 42.23046875 -19.578125 35.78515625 37.48828125 -24.42578125 37.29296875 35.5703125 -24.2265625 32.1015625 31.7890625 -28.28125 33.55859375 30.6953125 -27.15625 9.6171875 38.73046875 11.7265625 18.61328125 45.140625 10.9609375 21.77734375 42.46484375 19.671875 26.37890625 47.40234375 10.98046875 32.84375 46.828125 11.65234375 27.6875 49.29296875 0 35.20703125 49.2265625 0 40.40234375 -5.93359375 0 44.48828125 -6.375 -5.61328125 38.80859375 -2.46484375 -9.390625 43.890625 -3.84765625 -12.3984375 36.87890625 -1.5078125 -19.765625 44.33984375 1.90625 -20.39453125 39.91015625 3.44140625 -25.42578125 46.375 8.17578125 -23.015625 40.0234375 8.7734375 -25.984375 30.65234375 6.51953125 -30.39453125 21.26171875 11.4296875 -31.0078125 22.453125 4.625 -30.30078125 15.07421875 10.65625 -29.35546875 15.703125 5.453125 -25.60546875 11.38671875 10.51953125 -24.46484375 10.06640625 6.63671875 -18.99609375 7.2578125 10.8984375 -18.578125 6.55859375 10.53125 -8.8828125 24.1328125 -24.73046875 -23.19140625 27.75390625 -20.48828125 -21.08984375 27.0078125 -15.9140625 -23.296875 27.94921875 -15.51953125 -21.06640625 28.7890625 -10.0859375 -22.046875 31.5625 -6.796875 -18.76953125 31.42578125 -5.703125 -20.25 36.26953125 -1.07421875 -15.3828125 34.9609375 -0.1484375 -16.8984375 35.48046875 4.78515625 -28.765625 32.953125 0.4296875 -26.4296875 27.81640625 1.8359375 -29.08984375 30.96875 -0.9765625 -23.16015625 24.6484375 0.890625 -24.9140625 25.1875 1.20703125 -18.46875 15.05859375 4.62890625 -20.38671875 54.34765625 31.078125 12.25 52.96484375 34.12890625 15.05078125 49.921875 35.890625 14.4609375 39.47265625 12.12890625 24.4765625 45.78515625 12.5 22.56640625 47.53125 11.4765625 25.78515625 33.3515625 7.0078125 -24.09765625 45.78515625 12.5 -22.56640625 39.47265625 12.12890625 -24.4765625 40.25390625 11.5546875 -27.75 32.98046875 9.97265625 -25.50390625 65.77734375 9.11328125 0 60.59375 10.69921875 0 59.5078125 10.7890625 6.625 56.83984375 11.27734375 13.4453125 52.40625 11.86328125 18.125 61.25390625 9.7421875 14.85546875 31.99609375 -27.66796875 -11.078125 36.37109375 -26.69140625 -7.83984375 42.53515625 -24.359375 -5.7890625 44.8203125 -19.67578125 0 44.171875 -20.4609375 6.8359375 39.484375 -25.63671875 -4.77734375 43.4140625 -23.453125 0 42.53515625 -24.359375 5.7890625 39.3671875 -26.50390625 10.390625 43.890625 -3.84765625 12.3984375 38.80859375 -2.46484375 9.390625 44.48828125 -6.375 5.61328125 44.6015625 -7.21484375 0 60.77734375 5.3984375 0 61.5625 6.3359375 -6.26171875 57.13671875 5.87109375 -11.546875 58.66796875 6.796875 -13.42578125 53.2890625 7.43359375 -19.73828125 4.7578125 15.50390625 17.58203125 8.37109375 15.62890625 25.32421875 13.41796875 15.90234375 29.54296875 19.33203125 16.53515625 31.35546875 28.09375 11.140625 31.8359375 36.37109375 -26.69140625 7.83984375 39.484375 -25.63671875 4.77734375 39.9375 -24.875 0 38.35546875 -24.03515625 -4.27734375 43.6171875 47.6796875 0 42.9765625 47.01171875 5.2578125 41.5234375 45.59765625 11.5546875 38.11328125 42.37890625 17.484375 58.44140625 37.53515625 -7.875 35.07421875 -1.19921875 12.94140625 31.5625 -6.796875 18.76953125 36.26953125 -1.07421875 15.3828125 31.42578125 -5.703125 20.25 34.9609375 -0.1484375 16.8984375 29.56640625 -4.47265625 20.83203125 32.21484375 -0.0703125 14.72265625 27.7734375 -4.3203125 19.46875 26.28515625 -8.59375 22.9765625 28.7890625 -10.0859375 22.046875 27.0078125 -15.9140625 23.296875 27.94921875 -15.51953125 21.06640625 8.546875 40.1640625 0 18.43359375 46.80078125 0 27.87109375 40.8671875 21.453125 33.625 38.19921875 23.7734375 4.66015625 12.00390625 0 3.265625 15.4765625 0 6.55859375 10.53125 8.8828125 15.07421875 10.65625 29.35546875 51.2578125 7.15625 -19.08984375 50.27734375 -0.5390625 -12.11328125 51.1796875 -2.40625 5.89453125 51.45703125 -3.24609375 0 51.1796875 -2.40625 -5.89453125 20.78125 -20.75 -23.27734375 20.9453125 -18.265625 -22.8203125 23.53125 -14.609375 -24.1796875 22.41796875 -13.84765625 -22.90625 24.9296875 -8.30078125 -21.6796875 26.28515625 -8.59375 -22.9765625 29.56640625 -4.47265625 -20.83203125 27.7734375 -4.3203125 -19.46875 32.21484375 -0.0703125 -14.72265625 29.66796875 32.62109375 27.6171875 32.5625 -20.4765625 19.5078125 34.08203125 -17.67578125 14.46875 37.61328125 -15.96484375 10.7109375 23.86328125 9.80859375 -23.22265625 30.23046875 15.91015625 -26.296875 17.61328125 18.765625 -25.19921875 30.62890625 22.46484375 -25.79296875 36.59375 -19.28515625 -16.3359375 40.4453125 -17.4375 -12.19140625 52.40625 11.86328125 -18.125 30.640625 -6.8125 17.578125 27.82421875 -15.43359375 19.27734375 27.75390625 -20.48828125 21.08984375 24.72265625 30.953125 -15.671875 26.953125 32.9453125 -10.76171875 36.99609375 43.3203125 14.10546875 40.125 46.5 0 43.1796875 37.59375 13.7265625 46.9765625 40.4921875 0 47.375 38.859375 0 43.1796875 37.59375 -13.7265625 43.62890625 36.03125 -13.09765625 26.37890625 47.40234375 -10.98046875 18.61328125 45.140625 -10.9609375 21.77734375 42.46484375 -19.671875 47.4921875 9.65234375 25.3359375 55.30078125 8.5859375 20.7265625 55.5546875 10.4921875 21.078125 50.2421875 15.55859375 -11.68359375 54.3125 14.8828125 -13.46484375 59.015625 14.20703125 0 54.890625 13.6796875 -14.01171875 59.71875 13.0390625 0 53.8125 6.984375 -13.609375 58.37109375 5.92578125 0 30.65234375 6.51953125 30.39453125 27.81640625 1.8359375 29.08984375 22.453125 4.625 30.30078125 45.30078125 42.89453125 5.1328125 64.4375 9.29296875 7.3515625 18.9921875 16.4765625 -22.94140625 16.0390625 20.59375 -23.37890625 19.09765625 16.51171875 -19.0859375 16.1875 20.9765625 -19.515625 25.90625 20.92578125 -20.5546875 20.796875 26.2890625 -20.609375 54.3125 14.8828125 13.46484375 54.890625 13.6796875 14.01171875 53.8125 6.984375 13.609375 31.26171875 10.15234375 30.86328125 21.26171875 11.4296875 31.0078125 22.1953125 22.0234375 5.88671875 25.90625 20.92578125 20.5546875 19.09765625 16.51171875 19.0859375 25.3671875 20.89453125 24.7109375 18.9921875 16.4765625 22.94140625 20.12890625 25.90625 24.546875 16.0390625 20.59375 23.37890625 34.36328125 21.3359375 0 32.5625 -20.4765625 -19.5078125 34.08203125 -17.67578125 -14.46875 37.61328125 -15.96484375 -10.7109375 31.01953125 -19.31640625 16.5234375 27.21484375 -19.8671875 18.83984375 24.18359375 26.9375 -16.3125 29.421875 36.140625 22.66796875 35.9765625 29.625 22.12109375 34.1015625 28.15234375 18.5234375 9.6171875 38.73046875 -11.7265625 35.5625 14.0234375 -25.09375 27.63671875 11.765625 -24.8125 35.7578125 12.99609375 -25.92578125 27.59765625 10.68359375 -25.66796875 35.57421875 5.85546875 -25.40625 27.77734375 3.2890625 -25.4921875 35.10546875 6.0546875 21.8984375 35.19921875 14.14453125 20.921875 28.109375 3.44140625 21.84765625 27.8671875 11.875 20.8515625 27.59765625 10.68359375 25.66796875 27.63671875 11.765625 24.8125 45.01953125 7.453125 21.796875 35.57421875 5.85546875 25.40625 45.640625 14.1484375 22.359375 35.7578125 12.99609375 25.92578125 45.296875 15.26953125 21.59765625 35.5625 14.0234375 25.09375 33.4609375 29.66015625 -24.3359375 25.83984375 -27.34765625 -13.98828125 43.62890625 36.03125 13.09765625 36.33984375 7.9609375 -28.5625 32.21484375 0.55078125 -14.72265625 35.9765625 29.625 -22.12109375 34.1015625 28.15234375 -18.5234375 40.6015625 33.3515625 -11.328125 30.640625 -6.8125 -17.578125 27.82421875 -15.43359375 -19.27734375 45.296875 15.26953125 -21.59765625 45.640625 14.1484375 -22.359375 45.01953125 7.453125 -21.796875 39.21484375 -23.21484375 0 38.35546875 -24.03515625 4.27734375 43.81640625 15.66796875 -18.1171875 35.19921875 14.14453125 -20.921875 50.2421875 15.55859375 11.68359375 54.42578125 14.93359375 0 26.953125 32.9453125 10.76171875 31.01953125 -19.31640625 -16.5234375 50.27734375 -0.5390625 12.11328125 43.31640625 7.66015625 -18.57421875 49.1328125 8.04296875 -11.12109375 35.10546875 6.0546875 -21.8984375 28.109375 3.44140625 -21.84765625 27.8671875 11.875 -20.8515625 36.99609375 43.3203125 -14.10546875 29.421875 36.140625 -22.66796875 20.12890625 25.90625 -24.546875 25.3671875 20.89453125 -24.7109375 43.81640625 15.66796875 18.1171875 43.31640625 7.66015625 18.57421875 49.1328125 8.04296875 11.12109375 53.21875 7.1171875 0 27.77734375 3.2890625 25.4921875 40.6015625 33.3515625 11.328125 20.796875 26.2890625 20.609375 27.578125 34.09375 19.0703125 16.1875 20.9765625 19.515625 34.92578125 -25.10546875 7.31640625 34.92578125 -25.10546875 -7.31640625 43.9921875 35.6953125 0 33.53125 40.16015625 11.328125 35.50390625 43.02734375 0 27.21484375 -19.8671875 -18.83984375 35.07421875 -1.19921875 -12.94140625 32.21484375 0.55078125 14.72265625 27.578125 34.09375 -19.0703125 33.53125 40.16015625 -11.328125 31.67578125 -26.140625 -10.265625 31.67578125 -26.140625 10.265625</float_array>
                    <technique_common>
                        <accessor count="484" source="#pointarray0" stride="3">
                            <param name="X" type="float"/>
                            <param name="Y" type="float"/>
                            <param name="Z" type="float"/>
                        </accessor>
                    </technique_common>
                </source>
                <source id="uvs0">
                    <float_array id="uvarray0" count="656">0.57708740234375 0.29620361328125 0.59423828125 0.27777099609375 0.5614013671875 0.26544189453125 0.6007080078125 0.2667236328125 0.5614013671875 0.25177001953125 0.59906005859375 0.26953125 0.5614013671875 0.25531005859375 0.5958251953125 0.29620361328125 0.5614013671875 0.29620361328125 0.5614013671875 0.30670166015625 0.52703857421875 0.29620361328125 0.52545166015625 0.30670166015625 0.5079345703125 0.30670166015625 0.50653076171875 0.3172607421875 0.50567626953125 0.30670166015625 0.50421142578125 0.3172607421875 0.5133056640625 0.3172607421875 0.52069091796875 0.32916259765625 0.54754638671875 0.32183837890625 0.5479736328125 0.33282470703125 0.5614013671875 0.33282470703125 0.540771484375 0.33514404296875 0.5614013671875 0.33514404296875 0.5614013671875 0.33453369140625 0.58203125 0.33514404296875 0.60760498046875 0.3302001953125 0.6094970703125 0.33056640625 0.61859130859375 0.3172607421875 0.6021728515625 0.32916259765625 0.6094970703125 0.3172607421875 0.5753173828125 0.32183837890625 0.57623291015625 0.30902099609375 0.5614013671875 0.3104248046875 0.546630859375 0.30902099609375 0.5457763671875 0.29620361328125 0.51531982421875 0.30670166015625 0.51727294921875 0.29620361328125 0.5072021484375 0.29620361328125 0.52215576171875 0.2667236328125 0.50933837890625 0.29620361328125 0.5238037109375 0.26953125 0.4979248046875 0.4658203125 0.49835205078125 0.451171875 0.4879150390625 0.4620361328125 0.4833984375 0.4481201171875 0.4775390625 0.45941162109375 0.4716796875 0.44805908203125 0.46270751953125 0.451416015625 0.45623779296875 0.44097900390625 0.43463134765625 0.4617919921875 0.41900634765625 0.444091796875 0.39215087890625 0.475341796875 0.3721923828125 0.4617919921875 0.32183837890625 0.47845458984375 0.31561279296875 0.4617919921875 0.254150390625 0.46453857421875 0.254150390625 0.4478759765625 0.31317138671875 0.44000244140625 0.3721923828125 0.42950439453125 0.42498779296875 0.41802978515625 0.4639892578125 0.4371337890625 0.47900390625 0.43548583984375 0.49835205078125 0.4371337890625 0.99212646484375 0.5897216796875 0.96636962890625 0.5751953125 0.96636962890625 0.58978271484375 0.94921875 0.57989501953125 0.93511962890625 0.58770751953125 0.9241943359375 0.5633544921875 0.89141845703125 0.55853271484375 0.89923095703125 0.54681396484375 0.83203125 0.52740478515625 0.90386962890625 0.539794921875 0.83514404296875 0.51898193359375 0.84136962890625 0.5106201171875 0.79693603515625 0.51373291015625 0.80010986328125 0.5064697265625 0.759033203125 0.508544921875 0.759033203125 0.50225830078125 0.80322265625 0.50018310546875 0.84765625 0.50439453125 0.9163818359375 0.53564453125 0.92950439453125 0.5322265625 0.94140625 0.555419921875 0.9542236328125 0.55267333984375 0.48101806640625 0.4029541015625 0.4703369140625 0.40557861328125 0.43963623046875 0.37078857421875 0.426513671875 0.37640380859375 0.38458251953125 0.35595703125 0.37640380859375 0.364501953125 0.32952880859375 0.34112548828125 0.32623291015625 0.3525390625 0.2918701171875 0.33984375 0.29022216796875 0.351318359375 0.254150390625 0.338623046875 0.254150390625 0.35003662109375 0.28875732421875 0.36065673828125 0.32330322265625 0.3619384765625 0.317138671875 0.37744140625 0.36785888671875 0.37225341796875 0.38433837890625 0.397216796875 0.4124755859375 0.38262939453125 0.457763671875 0.40869140625 0.16876220703125 0.280029296875 0.1534423828125 0.26275634765625 0.0836181640625 0.30084228515625 0.07891845703125 0.2818603515625 0.00897216796875 0.29150390625 0.0093994140625 0.26214599609375 0.0718994140625 0.25909423828125 0.128173828125 0.238525390625 0.105224609375 0.2283935546875 0.1192626953125 0.20916748046875 0.07275390625 0.2196044921875 0.0758056640625 0.2012939453125 0.0357666015625 0.21343994140625 0.0377197265625 0.19940185546875 0.0084228515625 0.2135009765625 0.00799560546875 0.197509765625 0.0084228515625 0.23895263671875 0.1485595703125 0.22332763671875 0.16961669921875 0.25213623046875 0.17547607421875 0.2762451171875 0.1617431640625 0.2716064453125 0.173583984375 0.26593017578125 0.154296875 0.26202392578125 0.16851806640625 0.25091552734375 0.1600341796875 0.2354736328125 1 0.95001220703125 0.96246337890625 1 0.93121337890625 0.9666748046875 0.88824462890625 0.9752197265625 0.86248779296875 0.92919921875 0.8143310546875 0.97064208984375 0.80657958984375 0.9302978515625 0.7210693359375 0.948486328125 0.724609375 0.92144775390625 0.654541015625 0.93353271484375 0.65753173828125 0.91253662109375 0.58746337890625 0.9041748046875 0.5914306640625 0.862548828125 0.5062255859375 0.85418701171875 0.59375 0.82086181640625 0.5062255859375 0.81671142578125 0.9918212890625 0.59075927734375 0.96014404296875 0.59600830078125 0.93511962890625 0.6043701171875 0.89141845703125 0.58978271484375 0.91015625 0.61273193359375 0.87261962890625 0.6085205078125 0.9163818359375 0.62310791015625 0.87890625 0.62939453125 0.92266845703125 0.633544921875 0.87261962890625 0.6474609375 0.92889404296875 0.64605712890625 0.8759765625 0.6627197265625 0.08380126953125 0.30072021484375 0.00897216796875 0.3070068359375 0.07952880859375 0.28729248046875 0.009033203125 0.29595947265625 0.07745361328125 0.2806396484375 0.00860595703125 0.284912109375 0.0711669921875 0.260498046875 0.0087890625 0.26275634765625 0.0087890625 0.2236328125 0.03619384765625 0.21337890625 0.0726318359375 0.21990966796875 0.03802490234375 0.19891357421875 0.0765380859375 0.1998291015625 0.6075439453125 0.30670166015625 0.61712646484375 0.30670166015625 0.61627197265625 0.3172607421875 0.61492919921875 0.30670166015625 0.59893798828125 0.3172607421875 0.597412109375 0.30670166015625 0.5614013671875 0.3172607421875 0.52386474609375 0.3172607421875 0.6624755859375 0.870849609375 0.729248046875 0.87921142578125 0.7183837890625 0.96136474609375 0.856201171875 1 0.94708251953125 0.91668701171875 0.97705078125 0.89483642578125 0.99371337890625 0.875 0.95623779296875 0.8375244140625 0.981201171875 0.8375244140625 0.9375 0.7708740234375 0.311767578125 0.4263916015625 0.3125 0.41180419921875 0.3656005859375 0.40765380859375 0.3104248046875 0.39202880859375 0.254150390625 0.3896484375 0.254150390625 0.37493896484375 0.7606201171875 0.5689697265625 0.79107666015625 0.55963134765625 0.81011962890625 0.579345703125 0.833984375 0.56158447265625 0.99407958984375 0.602294921875 0.99066162109375 0.61163330078125 0.97265625 0.610595703125 0.98516845703125 0.62103271484375 0.9476318359375 0.62310791015625 0.96014404296875 0.633544921875 0.847412109375 0.66326904296875 0.8812255859375 0.88751220703125 0.9124755859375 0.8375244140625 0.86871337890625 0.8375244140625 0.8779296875 0.7933349609375 0.8125 0.75836181640625 0.83123779296875 0.75 0.731201171875 0.70001220703125 0.74371337890625 0.69171142578125 0.99322509765625 0.5914306640625 0.94140625 0.61376953125 0.6055908203125 0.29620361328125 0.61566162109375 0.29620361328125 0.613525390625 0.29620361328125 0.14154052734375 0.25030517578125 0.1282958984375 0.23736572265625 0.14813232421875 0.22381591796875 0.00836181640625 0.19757080078125 0.0087890625 0.21337890625 0.10589599609375 0.22955322265625 0.6519775390625 0.94622802734375 0.5855712890625 0.9202880859375 0.5062255859375 0.89617919921875 0.58404541015625 0.92919921875 0.5062255859375 0.9105224609375 0.76043701171875 0.55908203125 0.75909423828125 0.5205078125 0.5062255859375 0.920166015625 0.5819091796875 0.93798828125 0.254150390625 0.35943603515625 0.46917724609375 0.4617919921875 0.44061279296875 0.4888916015625 0.39373779296875 0.49755859375 0.3375244140625 0.4949951171875 0.528564453125 0.27777099609375 0.71697998046875 0.71044921875 0.8499755859375 0.737548828125 0.7562255859375 0.683349609375 0.86871337890625 0.72503662109375 0.913818359375 0.77947998046875 0.254150390625 0.427001953125 0.254150390625 0.40826416015625 0.254150390625 0.4915771484375 0.254150390625 0.481201171875 0.29364013671875 0.4964599609375 0.8341064453125 0.5465087890625 0.4495849609375 0.202880859375 0.275390625 0.180908203125 0.3568115234375 0.25689697265625 0.2767333984375 0.25689697265625 0.278564453125 0.31988525390625 0.357421875 0.32000732421875 0.45458984375 0.32806396484375 0.8026123046875 0.88812255859375 0.7562255859375 0.85003662109375 0.6624755859375 0.8292236328125 0.1187744140625 0.20947265625 0.79998779296875 0.76251220703125 0.856201171875 0.8375244140625 0.51519775390625 0.3302001953125 0.5296630859375 0.325927734375 0.50372314453125 0.2479248046875 0.623291015625 0.25177001953125 0.50372314453125 0.17230224609375 0.623291015625 0.17230224609375 0.623291015625 0.17120361328125 0.50372314453125 0.17120361328125 0.623291015625 0.16845703125 0.623291015625 0.17889404296875 0.50482177734375 0.17889404296875 0.623291015625 0.1859130859375 0.50482177734375 0.1859130859375 0.6229248046875 0.2275390625 0.504150390625 0.23138427734375 0.5614013671875 0.17230224609375 0.5614013671875 0.21173095703125 0.5614013671875 0.17120361328125 0.5614013671875 0.2119140625 0.623291015625 0.21710205078125 0.9788818359375 0.5731201171875 0.5748291015625 0.33282470703125 0.5614013671875 0.16845703125 0.623291015625 0.217529296875 0.5614013671875 0.32464599609375 0.79998779296875 0.862548828125 0.86248779296875 0.875 0.5133056640625 0.33056640625 0.50372314453125 0.217529296875 0.623291015625 0.22381591796875 0.50372314453125 0.16845703125 0.5614013671875 0.17889404296875 0.5614013671875 0.1859130859375 0.50482177734375 0.22021484375 0.5614013671875 0.21441650390625 0.50482177734375 0.2198486328125 0.5614013671875 0.21466064453125 0.50482177734375 0.21929931640625 0.623291015625 0.22021484375 0.50482177734375 0.2275390625 0.623291015625 0.21929931640625 0.50372314453125 0.22381591796875 0.623291015625 0.2479248046875 0.45416259765625 0.27215576171875 0.84454345703125 0.59393310546875 0.50482177734375 0.16845703125 0.5062255859375 0.93243408203125 0.5931396484375 0.325927734375 0.00897216796875 0.306396484375 0.623291015625 0.2177734375 0.50482177734375 0.22509765625 0.623291015625 0.2198486328125 0.50482177734375 0.2177734375 0.623291015625 0.22509765625 0.504150390625 0.228515625 0.50372314453125 0.21710205078125 0.623291015625 0.2222900390625 0.6492919921875 0.9549560546875 0.9927978515625 0.58892822265625 0.50372314453125 0.2454833984375 0.623291015625 0.2489013671875 0.50372314453125 0.2222900390625 0.623291015625 0.2454833984375 0.759033203125 0.49603271484375 0.71807861328125 0.9718017578125</float_array>
                    <technique_common>
                        <accessor count="328" source="#uvarray0" stride="2">
                            <param name="S" type="float"/>
                            <param name="T" type="float"/>
                        </accessor>
                    </technique_common>
                </source>
                <vertices id="vertices0">
                    <input semantic="POSITION" source="#points0"/>
                </vertices>
                <polylist count="862" material="Material1">
                    <input offset="0" semantic="VERTEX" source="#vertices0"/>
                    <input offset="1" semantic="TEXCOORD" source="#uvs0" set="0"/>
                    <vcount>3 3 3 3 3 3 3 3 3 3 3 3 3 3 3 3 3 3 3 3 3 3 3 3 3 3 3 3 3 3 3 3 3 3 3 3 3 3 3 3 3 3 3 3 3 3 3 3 3 3 3 3 3 3 3 3 3 3 3 3 3 3 3 3 3 3 3 3 3 3 3 3 3 3 3 3 3 3 3 3 3 3 3 3 3 3 3 3 3 3 3 3 3 3 3 3 3 3 3 3 3 3 3 3 3 3 3 3 3 3 3 3 3 3 3 3 3 3 3 3 3 3 3 3 3 3 3 3 3 3 3 3 3 3 3 3 3 3 3 3 3 3 3 3 3 3 3 3 3 3 3 3 3 3 3 3 3 3 3 3 3 3 3 3 3 3 3 3 3 3 3 3 3 3 3 3 3 3 3 3 3 3 3 3 3 3 3 3 3 3 3 3 3 3 3 3 3 3 3 3 3 3 3 3 3 3 3 3 3 3 3 3 3 3 3 3 3 3 3 3 3 3 3 3 3 3 3 3 3 3 3 3 3 3 3 3 3 3 3 3 3 3 3 3 3 3 3 3 3 3 3 3 3 3 3 3 3 3 3 3 3 3 3 3 3 3 3 3 3 3 3 3 3 3 3 3 3 3 3 3 3 3 3 3 3 3 3 3 3 3 3 3 3 3 3 3 3 3 3 3 3 3 3 3 3 3 3 3 3 3 3 3 3 3 3 3 3 3 3 3 3 3 3 3 3 3 3 3 3 3 3 3 3 3 3 3 3 3 3 3 3 3 3 3 3 3 3 3 3 3 3 3 3 3 3 3 3 3 3 3 3 3 3 3 3 3 3 3 3 3 3 3 3 3 3 3 3 3 3 3 3 3 3 3 3 3 3 3 3 3 3 3 3 3 3 3 3 3 3 3 3 3 3 3 3 3 3 3 3 3 3 3 3 3 3 3 3 3 3 3 3 3 3 3 3 3 3 3 3 3 3 3 3 3 3 3 3 3 3 3 3 3 3 3 3 3 3 3 3 3 3 3 3 3 3 3 3 3 3 3 3 3 3 3 3 3 3 3 3 3 3 3 3 3 3 3 3 3 3 3 3 3 3 3 3 3 3 3 3 3 3 3 3 3 3 3 3 3 3 3 3 3 3 3 3 3 3 3 3 3 3 3 3 3 3 3 3 3 3 3 3 3 3 3 3 3 3 3 3 3 3 3 3 3 3 3 3 3 3 3 3 3 3 3 3 3 3 3 3 3 3 3 3 3 3 3 3 3 3 3 3 3 3 3 3 3 3 3 3 3 3 3 3 3 3 3 3 3 3 3 3 3 3 3 3 3 3 3 3 3 3 3 3 3 3 3 3 3 3 3 3 3 3 3 3 3 3 3 3 3 3 3 3 3 3 3 3 3 3 3 3 3 3 3 3 3 3 3 3 3 3 3 3 3 3 3 3 3 3 3 3 3 3 3 3 3 3 3 3 3 3 3 3 3 3 3 3 3 3 3 3 3 3 3 3 3 3 3 3 3 3 3 3 3 3 3 3 3 3 3 3 3 3 3 3 3 3 3 3 3 3 3 3 3 3 3 3 3 3 3 3 3 3 3 3 3 3 3 3 3 3 3 3 3 3 3 3 3 3 3 3 3 3 3 3 3 3 3 3 3 3 3 3 3 3 3 3 3 3 3 3 3 3 3 3 3 3 3 3 3 3 3 3 3 3 3 3 3 3 3 3 3 3 3 3 3 3 3 3 3 3 3 3 3 3 3 3 3 3 3 3 3 3 3 3 3 3 3 3 3 3 3 3 3 3 3 3 3 3 3 3 3 3 3 3 3 3 3 3 3 3 3 3 3 3 3 3 3 3 3 3 3 3 3 3 3 3 3 3 3 3 3 3 3 3 3 3 3 3 3 3 3 3 3 3 3 3 3 3 3 3 3 3 3 3 3 3 3 3 3 3 3</vcount>
                    <p>2 2 1 1 0 0 3 3 1 1 2 2 4 4 3 3 2 2 5 5 3 3 4 4 6 6 5 5 4 4 7 7 5 5 6 6 8 8 7 7 6 6 9 9 7 7 8 8 10 10 9 9 8 8 11 11 9 9 10 10 12 12 11 11 10 10 13 13 11 11 12 12 14 14 13 13 12 12 15 15 13 13 14 14 16 16 15 15 14 14 17 17 15 15 16 16 18 18 17 17 16 16 19 19 17 17 18 18 20 20 19 19 18 18 21 21 19 19 20 20 22 22 21 21 20 20 23 23 21 21 22 22 24 24 23 23 22 22 25 25 23 23 24 24 26 26 25 25 24 24 27 27 25 25 26 26 28 28 27 27 26 26 29 29 27 27 28 28 30 30 29 29 28 28 31 31 29 29 30 30 32 32 31 31 30 30 33 8 31 31 32 32 34 33 33 8 32 32 35 34 33 8 34 33 36 35 35 34 34 33 37 36 35 34 36 35 38 37 37 36 36 35 39 38 37 36 38 37 40 39 39 38 38 37 41 40 39 38 40 39 10 10 41 40 40 39 6 6 41 40 10 10 8 8 6 6 10 10 44 43 43 42 42 41 45 44 43 42 44 43 46 45 45 44 44 43 47 46 45 44 46 45 48 47 47 46 46 45 49 48 47 46 48 47 50 49 49 48 48 47 51 50 49 48 50 49 52 51 51 50 50 49 53 52 51 50 52 51 54 53 53 52 52 51 55 54 53 52 54 53 56 55 55 54 54 53 57 56 55 54 56 55 58 54 57 56 56 55 59 57 57 56 58 54 60 52 59 57 58 54 61 58 59 57 60 52 62 50 61 58 60 52 63 59 61 58 62 50 64 48 63 59 62 50 65 60 63 59 64 48 66 46 65 60 64 48 67 61 65 60 66 46 68 44 67 61 66 46 69 62 67 61 68 44 70 42 69 62 68 44 73 65 72 64 71 63 74 66 72 64 73 65 75 67 74 66 73 65 76 68 74 66 75 67 77 69 76 68 75 67 78 70 76 68 77 69 79 71 78 70 77 69 80 72 78 70 79 71 81 73 80 72 79 71 82 74 80 72 81 73 83 75 82 74 81 73 84 76 82 74 83 75 85 77 84 76 83 75 86 78 84 76 85 77 87 76 86 78 85 77 88 79 86 78 87 76 89 74 88 79 87 76 90 80 88 79 89 74 91 81 90 80 89 74 92 82 90 80 91 81 93 83 92 82 91 81 94 84 92 82 93 83 95 64 94 84 93 83 98 87 97 86 96 85 99 88 97 86 98 87 100 89 99 88 98 87 101 90 99 88 100 89 102 91 101 90 100 89 103 92 101 90 102 91 104 93 103 92 102 91 105 94 103 92 104 93 106 95 105 94 104 93 107 96 105 94 106 95 108 94 107 96 106 95 109 97 107 96 108 94 110 98 109 97 108 94 111 99 109 97 110 98 112 100 111 99 110 98 113 101 111 99 112 100 114 102 113 101 112 100 115 59 113 101 114 102 116 103 115 59 114 102 117 60 115 59 116 103 118 61 117 60 116 103 121 106 120 105 119 104 122 107 120 105 121 106 123 108 122 107 121 106 124 109 122 107 123 108 125 107 124 109 123 108 126 110 124 109 125 107 127 111 126 110 125 107 128 112 126 110 127 111 129 113 128 112 127 111 130 114 128 112 129 113 131 115 130 114 129 113 132 116 130 114 131 115 133 117 132 116 131 115 134 118 132 116 133 117 106 119 134 118 133 117 104 117 134 118 106 119 135 120 124 109 126 110 136 110 124 109 135 120 137 114 136 110 135 120 138 112 136 110 137 114 100 113 138 112 137 114 139 111 138 112 100 113 98 121 139 111 100 113 120 105 139 111 98 121 96 122 120 105 98 121 119 104 120 105 96 122 69 123 119 104 96 122 140 124 119 104 69 123 70 125 140 124 69 123 141 126 140 124 70 125 71 127 141 126 70 125 142 128 141 126 71 127 145 131 144 130 143 129 146 132 144 130 145 131 147 133 146 132 145 131 148 134 146 132 147 133 149 135 148 134 147 133 150 136 148 134 149 135 151 137 150 136 149 135 152 138 150 136 151 137 153 139 152 138 151 137 154 140 152 138 153 139 155 141 154 140 153 139 156 142 154 140 155 141 157 143 156 142 155 141 158 144 156 142 157 143 45 44 159 62 43 42 118 61 159 62 45 44 47 46 118 61 45 44 117 60 118 61 47 46 49 48 117 60 47 46 115 59 117 60 49 48 51 50 115 59 49 48 160 58 115 59 51 50 53 52 160 58 51 50 161 57 160 58 53 52 55 54 161 57 53 52 57 56 161 57 55 54 162 146 73 65 71 145 75 67 73 65 162 146 163 147 75 67 162 146 164 148 75 67 163 147 165 149 164 148 163 147 166 150 164 148 165 149 167 151 166 150 165 149 168 152 166 150 167 151 169 153 168 152 167 151 170 154 168 152 169 153 171 155 170 154 169 153 172 156 170 154 171 155 174 159 173 158 121 157 175 160 173 158 174 159 176 161 175 160 174 159 177 162 175 160 176 161 178 163 177 162 176 161 179 164 177 162 178 163 180 165 179 164 178 163 181 163 179 164 180 165 182 166 181 163 180 165 183 167 181 163 182 166 88 168 183 167 182 166 90 169 183 167 88 168 184 170 29 29 31 31 27 27 29 29 184 170 185 171 27 27 184 170 186 172 27 27 185 171 187 173 186 172 185 171 188 174 186 172 187 173 189 175 188 174 187 173 190 176 188 174 189 175 9 9 190 176 189 175 191 177 190 176 9 9 11 11 191 177 9 9 13 13 191 177 11 11 192 143 156 142 158 144 193 141 156 142 192 143 194 178 193 141 192 143 195 139 193 141 194 178 196 179 195 139 194 178 197 137 195 139 196 179 198 135 197 137 196 179 199 136 197 137 198 135 200 134 199 136 198 135 201 180 199 136 200 134 202 181 201 180 200 134 200 134 203 130 202 181 204 132 203 130 200 134 205 133 204 132 200 134 206 131 204 132 205 133 207 182 206 131 205 133 208 129 206 131 207 182 209 183 208 129 207 182 210 184 208 129 209 183 211 185 210 184 209 183 212 186 210 184 211 185 213 187 212 186 211 185 133 93 108 94 106 95 214 92 108 94 133 93 131 91 214 92 133 93 215 90 214 92 131 91 129 89 215 90 131 91 216 88 215 90 129 89 217 87 216 88 129 89 218 86 216 88 217 87 219 85 218 86 217 87 159 62 218 86 219 85 61 58 220 188 59 57 221 189 220 188 61 58 222 190 221 189 61 58 223 191 221 189 222 190 224 99 223 191 222 190 225 192 223 191 224 99 226 193 225 192 224 99 111 99 225 192 226 193 109 97 111 99 226 193 229 196 228 195 227 194 230 197 228 195 229 196 231 148 230 197 229 196 232 69 230 197 231 148 233 67 232 69 231 148 234 68 232 69 233 67 235 66 234 68 233 67 93 83 234 68 235 66 95 64 93 83 235 66 236 200 46 199 44 198 237 201 46 199 236 200 238 202 237 201 236 200 239 203 237 201 238 202 240 153 239 203 238 202 241 155 239 203 240 153 242 154 241 155 240 153 243 156 241 155 242 154 244 204 243 156 242 154 245 182 147 133 145 131 246 205 147 133 245 182 247 206 246 205 245 182 248 207 246 205 247 206 249 208 248 207 247 206 250 209 248 207 249 208 251 210 250 209 249 208 252 211 250 209 251 210 253 212 252 211 251 210 254 146 44 198 42 213 236 200 44 198 254 146 255 147 236 200 254 146 256 214 236 200 255 147 257 149 256 214 255 147 258 151 256 214 257 149 259 150 258 151 257 149 260 152 258 151 259 150 0 0 31 31 33 8 184 170 31 31 0 0 261 215 184 170 0 0 262 216 184 170 261 215 3 3 262 216 261 215 263 217 262 216 3 3 5 5 263 217 3 3 7 7 263 217 5 5 140 124 121 157 119 104 174 159 121 157 140 124 141 126 174 159 140 124 176 161 174 159 141 126 264 218 176 161 141 126 265 219 176 161 264 218 142 128 265 219 264 218 266 220 265 219 142 128 181 163 177 162 179 164 267 161 177 162 181 163 268 219 267 161 181 163 269 218 267 161 268 219 270 128 269 218 268 219 271 126 269 218 270 128 42 127 271 126 270 128 43 125 271 126 42 127 182 166 272 221 88 168 273 222 272 221 182 166 180 165 273 222 182 166 274 166 273 222 180 165 178 163 274 166 180 165 275 167 274 166 178 163 276 223 275 167 178 163 277 169 275 167 276 223 152 138 279 224 278 180 280 225 279 224 152 138 154 140 280 225 152 138 281 226 280 225 154 140 156 142 281 226 154 140 282 140 281 226 156 142 193 141 282 140 156 142 195 139 282 140 193 141 280 225 283 227 279 224 284 228 283 227 280 225 281 226 284 228 280 225 285 225 284 228 281 226 282 140 285 225 281 226 286 138 285 225 282 140 195 139 286 138 282 140 197 137 286 138 195 139 164 148 77 69 75 67 287 197 77 69 164 148 288 196 287 197 164 148 289 195 287 197 288 196 227 194 289 195 288 196 290 229 289 195 227 194 228 195 290 229 227 194 291 230 85 77 83 75 292 75 85 77 291 230 293 71 292 75 291 230 294 73 292 75 293 71 295 72 294 73 293 71 89 74 294 73 295 72 91 81 89 74 295 72 297 51 60 52 296 53 62 50 60 52 297 51 298 49 62 50 297 51 64 48 62 50 298 49 299 47 64 48 298 49 66 46 64 48 299 47 300 45 66 46 299 47 301 224 286 138 201 180 285 225 286 138 301 224 302 227 285 225 301 224 284 228 285 225 302 227 303 231 284 228 302 227 283 227 284 228 303 231 304 232 283 227 303 231 305 233 109 97 226 193 107 96 109 97 305 233 306 97 107 96 305 233 105 94 107 96 306 97 307 98 105 94 306 97 103 92 105 94 307 98 308 100 103 92 307 98 237 234 48 47 46 45 50 49 48 47 237 234 239 235 50 49 237 234 52 51 50 49 239 235 241 236 52 51 239 235 243 237 52 51 241 236 4 4 41 40 6 6 39 38 41 40 4 4 2 2 39 38 4 4 309 238 39 38 2 2 35 34 309 238 2 2 37 36 309 238 35 34 312 211 311 209 310 239 313 210 311 209 312 211 314 212 313 210 312 211 315 240 313 210 314 212 316 241 315 240 314 212 317 242 315 240 316 241 213 187 315 240 317 242 318 243 315 240 213 187 211 185 318 243 213 187 319 208 318 243 211 185 320 206 319 208 211 185 321 207 319 208 320 206 220 188 57 56 59 57 322 244 57 56 220 188 221 189 322 244 220 188 323 245 322 244 221 189 223 191 323 245 221 189 225 192 323 245 223 191 63 59 222 190 61 58 324 101 222 190 63 59 325 102 324 101 63 59 308 100 324 101 325 102 101 90 308 100 325 102 103 92 308 100 101 90 328 248 327 247 326 246 296 53 327 247 328 248 172 237 296 53 328 248 297 51 296 53 172 237 171 236 297 51 172 237 329 235 297 51 171 236 214 92 110 98 108 94 112 100 110 98 214 92 215 90 112 100 214 92 114 102 112 100 215 90 216 88 114 102 215 90 218 86 114 102 216 88 295 72 93 83 91 81 234 68 93 83 295 72 330 70 234 68 295 72 232 69 234 68 330 70 293 71 232 69 330 70 331 249 232 69 293 71 332 252 291 251 79 250 333 253 291 251 332 252 290 254 333 253 332 252 334 252 333 253 290 254 228 255 334 252 290 254 230 256 334 252 228 255 143 129 245 182 145 131 335 183 245 182 143 129 336 184 335 183 143 129 337 185 335 183 336 184 338 186 337 185 336 184 339 187 337 185 338 186 337 185 249 208 247 206 340 243 249 208 337 185 339 187 340 243 337 185 341 240 340 243 339 187 342 242 341 240 339 187 343 241 341 240 342 242 97 86 69 62 96 85 67 61 69 62 97 86 344 103 67 61 97 86 65 60 67 61 344 103 63 59 65 60 344 103 198 135 205 133 200 134 345 257 205 133 198 135 196 179 345 257 198 135 346 258 345 257 196 179 347 259 346 258 196 179 271 126 267 161 269 218 348 159 267 161 271 126 349 124 348 159 271 126 350 157 348 159 349 124 351 104 350 157 349 124 352 179 151 137 149 135 153 139 151 137 352 179 353 178 153 139 352 179 155 141 153 139 353 178 157 143 155 141 353 178 268 219 94 220 270 128 92 260 94 220 268 219 354 223 92 260 268 219 90 169 92 260 354 223 183 167 90 169 354 223 311 209 355 261 310 239 356 262 355 261 311 209 321 207 356 262 311 209 357 205 356 262 321 207 320 206 357 205 321 207 357 205 205 133 345 257 207 182 205 133 357 205 320 206 207 182 357 205 209 183 207 182 320 206 211 185 209 183 320 206 358 263 13 13 15 15 191 177 13 13 358 263 359 264 191 177 358 263 190 176 191 177 359 264 23 23 190 176 359 264 362 267 361 266 360 265 363 268 361 266 362 267 364 269 363 268 362 267 365 267 363 268 364 269 366 270 365 267 364 269 367 191 323 245 225 192 368 189 323 245 367 191 369 190 368 189 367 191 160 58 368 189 369 190 115 59 160 58 369 190 80 72 76 68 78 70 370 83 76 68 80 72 371 81 370 83 80 72 372 82 370 83 371 81 277 80 372 82 371 81 375 273 374 272 373 271 376 274 374 272 375 273 377 275 376 274 375 273 378 276 376 274 377 275 379 277 378 276 377 275 380 200 163 147 162 146 381 214 163 147 380 200 382 202 381 214 380 200 167 151 381 214 382 202 169 153 167 151 382 202 240 153 260 152 242 154 258 151 260 152 240 153 238 202 258 151 240 153 256 214 258 151 238 202 236 200 256 214 238 202 137 114 102 115 100 113 383 116 102 115 137 114 135 120 383 116 137 114 134 118 383 116 135 120 274 166 272 221 273 222 384 168 272 221 274 166 275 167 384 168 274 166 277 169 384 168 275 167 387 280 386 279 385 278 388 281 386 279 387 280 389 269 388 281 387 280 390 282 388 281 389 269 265 219 178 163 176 161 276 223 178 163 265 219 372 260 276 223 265 219 277 169 276 223 372 260 384 79 84 76 86 78 82 74 84 76 384 79 277 80 82 74 384 79 371 81 82 74 277 80 392 274 375 273 391 272 377 275 375 273 392 274 393 276 377 275 392 274 379 277 377 275 393 276 130 114 126 110 128 112 135 120 126 110 130 114 132 116 135 120 130 114 134 118 135 120 132 116 394 198 162 146 71 213 380 200 162 146 394 198 300 199 380 200 394 198 395 201 380 200 300 199 370 83 74 66 76 68 72 64 74 66 370 83 266 84 72 64 370 83 142 283 72 64 266 84 20 20 24 24 22 22 396 284 24 24 20 20 30 30 396 284 20 20 28 28 396 284 30 30 399 268 398 285 397 271 400 278 398 285 399 268 401 286 400 278 399 268 402 279 400 278 401 286 187 173 263 217 7 7 262 216 263 217 187 173 185 171 262 216 187 173 184 170 262 216 185 171 34 33 18 18 16 16 403 287 18 18 34 33 32 32 403 287 34 33 30 30 403 287 32 32 404 257 149 135 147 133 352 179 149 135 404 257 405 258 352 179 404 257 406 259 352 179 405 258 407 288 345 257 346 258 357 205 345 257 407 288 408 289 357 205 407 288 356 262 357 205 408 289 358 263 21 21 23 23 409 290 21 21 358 263 15 15 409 290 358 263 17 17 409 290 15 15 399 267 410 292 401 291 411 268 410 292 399 267 397 293 411 268 399 267 412 271 411 268 397 293 369 190 113 101 115 59 111 99 113 101 369 190 367 191 111 99 369 190 225 192 111 99 367 191 368 189 322 244 323 245 413 188 322 244 368 189 160 58 413 188 368 189 161 57 413 188 160 58 416 275 415 294 414 273 417 295 415 294 416 275 418 296 417 295 416 275 419 297 417 295 418 296 422 299 421 273 420 298 423 294 421 273 422 299 424 295 423 294 422 299 425 294 423 294 424 295 428 275 427 301 426 300 429 274 427 301 428 275 430 273 429 274 428 275 431 272 429 274 430 273 392 275 426 303 393 302 428 274 426 303 392 275 391 273 428 274 392 275 430 272 428 274 391 273 350 106 125 107 123 108 432 105 125 107 350 106 351 104 432 105 350 106 219 122 432 105 351 104 148 134 144 130 146 132 433 181 144 130 148 134 278 180 433 181 148 134 411 267 360 305 410 304 362 268 360 305 411 267 434 269 362 268 411 267 334 252 291 251 333 253 293 250 291 251 334 252 331 306 293 250 334 252 296 53 56 55 327 247 58 54 56 55 296 53 60 52 58 54 296 53 327 247 244 248 326 246 54 53 244 248 327 247 56 55 54 53 327 247 435 65 254 146 42 145 233 67 254 146 435 65 235 66 233 67 435 65 231 148 257 149 255 147 259 150 257 149 231 148 436 307 259 150 231 148 366 269 437 267 365 268 438 293 437 267 366 269 439 271 438 293 366 269 441 262 250 209 440 261 248 207 250 209 441 262 246 205 248 207 441 262 341 240 249 208 340 243 251 210 249 208 341 240 253 212 251 210 341 240 443 275 416 274 442 273 418 301 416 274 443 275 444 300 418 301 443 275 425 294 421 308 423 285 431 273 421 308 425 294 429 275 431 273 425 294 303 231 445 309 304 232 446 232 445 309 303 231 302 227 446 232 303 231 376 275 443 274 374 273 444 303 443 274 376 275 378 302 444 303 376 275 374 273 447 271 373 308 442 272 447 271 374 273 443 274 442 272 374 273 442 273 448 271 447 308 414 272 448 271 442 273 416 274 414 272 442 273 375 273 449 271 391 272 450 308 449 271 375 273 373 271 450 308 375 273 139 111 136 110 138 112 122 107 136 110 139 111 120 105 122 107 139 111 432 105 127 111 125 107 217 121 127 111 432 105 219 122 217 121 432 105 451 310 23 23 25 25 190 176 23 23 451 310 188 174 190 176 451 310 36 35 16 16 14 14 34 33 16 16 36 35 246 205 404 257 147 133 452 288 404 257 246 205 315 240 319 208 313 210 318 243 319 208 315 240 186 172 25 25 27 27 188 174 25 25 186 172 224 99 307 98 306 97 308 100 307 98 224 99 20 20 403 287 30 30 18 18 403 287 20 20 406 259 353 178 352 179 157 143 353 178 406 259 226 193 306 97 305 233 224 99 306 97 226 193 311 209 319 208 321 207 313 210 319 208 311 209 19 19 409 290 17 17 21 21 409 290 19 19 189 175 7 7 9 9 187 173 7 7 189 175 173 158 348 159 350 157 175 160 348 159 173 158 159 123 351 104 349 124 219 122 351 104 159 123 104 117 383 116 134 118 102 115 383 116 104 117 173 311 123 108 121 106 350 106 123 108 173 311 43 125 349 124 271 126 159 123 349 124 43 125 57 56 413 188 161 57 322 244 413 188 57 56 2 2 33 8 35 34 0 0 33 8 2 2 175 160 267 161 348 159 177 162 267 161 175 160 324 101 224 99 222 190 308 100 224 99 324 101 325 102 99 88 101 90 97 86 99 88 325 102 344 103 325 102 63 59 97 86 325 102 344 103 1 1 261 215 0 0 3 3 261 215 1 1 40 39 12 12 10 10 38 37 12 12 40 39 38 37 14 14 12 12 36 35 14 14 38 37 332 252 289 255 290 254 287 256 289 255 332 252 181 163 354 223 268 219 183 167 354 223 181 163 453 306 332 252 79 250 287 256 332 252 453 306 396 284 26 26 24 24 28 28 26 26 396 284 455 313 447 272 454 312 373 273 447 272 455 313 454 315 448 272 456 314 447 273 448 272 454 315 448 273 457 299 456 298 458 294 457 299 448 273 448 308 415 294 458 285 414 273 415 294 448 308 365 267 361 266 363 268 459 265 361 266 365 267 459 305 437 267 460 304 365 268 437 267 459 305 461 286 385 278 386 279 462 268 385 278 461 286 464 315 421 272 463 273 420 314 421 272 464 315 465 313 463 272 449 273 464 312 463 272 465 313 449 272 466 317 465 316 450 273 466 317 449 272 427 296 424 295 467 297 429 275 424 295 427 296 412 293 434 269 411 267 468 271 434 269 412 293 434 270 364 269 362 267 468 293 364 269 434 270 469 318 412 269 397 270 470 319 412 269 469 318 402 279 398 280 400 278 471 281 398 280 402 279 397 269 471 281 469 282 398 280 471 281 397 269 387 285 462 268 389 271 385 278 462 268 387 285 302 227 472 320 446 232 301 224 472 320 302 227 283 227 473 320 279 224 304 232 473 320 283 227 70 42 394 43 71 41 68 44 394 43 70 42 68 44 300 45 394 43 66 46 300 45 68 44 270 283 95 64 42 321 94 84 95 64 270 283 79 71 83 75 81 73 291 230 83 75 79 71 395 201 382 202 380 200 329 203 382 202 395 201 329 203 169 153 382 202 171 155 169 153 329 203 95 64 435 65 42 63 235 66 435 65 95 64 233 67 255 147 254 146 231 148 255 147 233 67 453 249 77 69 287 197 79 71 77 69 453 249 463 271 391 273 449 308 430 272 391 273 463 271 89 74 292 75 294 73 87 76 292 75 89 74 421 271 430 273 463 308 431 272 430 273 421 271 475 322 474 269 468 270 476 323 474 269 475 322 470 324 468 269 412 270 475 325 468 269 470 324 335 183 247 206 245 182 337 185 247 206 335 183 477 289 246 205 441 262 452 288 246 205 477 289 478 239 250 209 252 211 440 261 250 209 478 239 199 136 286 138 197 137 201 180 286 138 199 136 150 136 278 180 148 134 152 138 278 180 150 136 194 178 347 259 196 179 192 143 347 259 194 178 203 130 206 131 208 129 204 132 206 131 203 130 118 61 218 86 159 62 116 103 218 86 118 61 395 234 299 47 298 49 300 45 299 47 395 234 329 235 298 49 297 51 395 234 298 49 329 235 479 307 164 148 166 150 288 196 164 148 479 307 457 299 417 295 419 297 458 294 417 295 457 299 466 317 373 272 455 316 450 273 373 272 466 317 243 237 54 53 52 51 244 248 54 53 243 237 381 214 165 149 163 147 167 151 165 149 381 214 390 318 438 269 480 319 389 270 438 269 390 318 462 267 460 292 437 268 461 291 460 292 462 267 389 293 437 268 438 271 462 267 437 268 389 293 480 324 439 269 481 325 438 270 439 269 480 324 481 322 474 269 476 323 439 270 474 269 481 322 272 326 86 78 88 79 384 79 86 78 272 326 474 271 364 269 468 293 439 293 364 269 474 271 433 181 278 180 482 327 482 327 278 180 473 320 87 76 85 77 292 75 202 181 483 327 201 180 188 174 451 310 25 25 483 327 472 320 201 180 343 241 253 212 341 240 265 219 266 220 372 260 201 180 472 320 301 224 278 180 279 224 473 320 404 257 452 288 405 258 364 269 439 293 366 270 359 264 358 263 23 23 39 38 309 238 37 36 218 86 116 103 114 102 232 69 331 249 230 197 172 156 328 204 170 154 71 321 72 64 142 283 334 252 230 256 331 306 231 148 229 196 436 307 424 295 422 299 467 297 429 275 425 294 424 295 417 295 458 294 415 294 122 107 124 109 136 110 127 111 217 121 129 113 370 83 372 82 266 84 82 74 371 81 80 72 264 218 141 126 142 128 295 72 293 71 330 70</p>
                </polylist>
            </mesh>
        </geometry>
    </library_geometries>
    <library_visual_scenes>
        <visual_scene id="VisualSceneNode">
            <node id="node0" name="m0" type="NODE">
                <instance_geometry url="#mesh0">
                    <bind_material>
                        <technique_common>
                            <instance_material symbol="Material1" target="#mat0">
                                <bind_vertex_input semantic="UVSET0" input_semantic="TEXCOORD" input_set="0"></bind_vertex_input>
                            </instance_material>
                        </technique_common>
                    </bind_material>
                </instance_geometry>
            </node>
        </visual_scene>
    </library_visual_scenes>
    <scene>
        <instance_visual_scene url="#VisualSceneNode"></instance_visual_scene>
    </scene>
</COLLADA>
