# Blender v2.79 (sub 0) OBJ File: ''
# www.blender.org
mtllib face 7.mtl
o n0b0_n0b0.005
v 0.477344 1.160547 -0.000391
v 2.339844 2.615234 0.630859
v 4.046094 -0.587891 -0.000391
v 2.477734 2.426172 1.363672
v 4.607422 -0.598828 -0.000391
v 4.607422 -0.598828 -0.000391
v 3.170703 2.442188 1.750391
v 5.384375 -0.346094 -0.000391
v 4.571094 3.094922 1.461719
v 6.500000 -0.038281 -0.000391
v 4.716016 3.581641 0.876953
v 6.267578 0.099609 -0.000391
v 6.267578 0.099609 -0.000391
v 5.029297 3.482813 0.915625
v 6.681250 0.124219 -0.000391
v 2.110547 2.148047 0.566016
v 6.675000 0.396484 -0.000391
v 6.675000 0.396484 -0.000391
v 2.395313 2.211719 1.154688
v 5.574609 0.364844 -0.000391
v 3.050391 2.065625 1.363672
v 4.642188 0.437500 -0.000391
v 4.744141 2.796484 1.115625
v 0.117188 2.459375 -0.000391
v 5.163281 3.138281 0.823438
v 0.739062 3.682031 -0.000391
v 2.950000 1.881250 0.585547
v 4.480078 4.139453 -0.000391
v 4.812891 2.656641 0.485547
v 5.950781 3.571484 -0.000391
v 3.952344 2.059766 -0.548047
v 5.423828 3.761328 -0.000391
v 4.002735 2.295703 -1.307813
v 6.027344 3.726562 -0.000391
v 6.027344 3.726562 -0.000391
v 3.971484 2.648828 -1.705078
v 3.614063 5.073438 -0.000391
v 3.887891 2.938281 -1.636719
v 4.597656 4.644141 -0.000391
v 3.820312 3.039062 -1.100781
v 5.503906 3.945312 -0.000391
v 3.826563 3.025000 1.100781
v 1.457031 4.595703 -0.000391
v 3.887891 2.938281 1.636719
v 2.601953 5.086328 -0.000391
v 3.971484 2.648828 1.705078
v 2.194531 2.822656 -0.000391
v 2.194531 2.822656 -0.000391
v 4.002735 2.295703 1.307813
v 5.736328 4.057813 -0.000391
v 3.952344 2.059766 0.548047
v 2.478906 0.224609 1.897266
v 3.807031 2.201172 0.000000
v 3.221484 -0.007031 1.472266
v 2.913281 3.937500 2.491016
v 1.505859 0.468359 2.112109
v 2.913281 3.937500 -2.492188
v 1.006641 0.696094 1.982813
v 5.768360 0.888281 -1.405078
v 0.428516 1.155469 0.931250
v 0.428516 1.155469 0.931250
v 5.888672 0.916016 -1.475781
v 3.581641 0.138281 1.937500
v 6.011719 1.063281 -1.503516
v 4.865234 0.637109 1.292578
v 6.083984 1.221484 -1.451953
v 6.083984 1.221484 -1.451953
v 2.686328 2.536719 1.596094
v 2.686328 2.536719 1.596094
v 5.888672 1.244141 -1.232813
v 1.322266 1.283203 2.867578
v 1.322266 1.283203 2.867578
v 5.768360 0.888281 1.406250
v 2.704688 0.712500 2.866406
v 5.888672 0.916016 1.488281
v 2.525000 1.576563 3.118750
v 2.525000 1.576563 3.118750
v 6.011719 1.063281 1.502344
v 6.217578 0.478516 1.177344
v 6.083984 1.221484 1.450781
v 6.083984 1.221484 1.450781
v 6.349219 0.635156 1.196484
v 5.888672 1.244141 1.231250
v 6.057422 0.442578 0.860547
v 6.057422 0.442578 0.860547
v 5.159766 0.376563 1.555078
v 5.358984 -0.259766 0.588672
v 5.159766 0.376563 -1.556641
v 5.283594 0.022656 1.161719
v 5.283594 0.022656 1.161719
v 5.219141 3.810547 -0.801562
v 4.598828 -0.512891 0.560938
v 4.598828 -0.512891 0.560938
v 5.294531 3.955859 -0.000391
v 4.553516 -0.261719 1.228516
v 4.553516 -0.261719 1.228516
v 5.219141 3.810547 0.800000
v 5.435547 1.252734 1.719531
v 4.631641 1.985937 1.803906
v 4.980859 0.795703 1.880859
v 4.666406 1.994531 2.134766
v 4.666406 1.994531 2.134766
v 0.508594 1.160156 1.760156
v 0.508594 1.160156 1.760156
v 4.658594 1.920313 2.200391
v 3.026953 0.407813 2.468750
v 4.597656 1.800391 2.190234
v 4.675000 1.271875 2.165625
v 4.657422 2.131641 1.796484
v 3.837500 1.758594 2.708203
v 4.659766 2.124219 2.119531
v 4.659766 2.124219 2.119531
v 2.821484 0.292188 2.207031
v 4.590234 2.204297 2.187891
v 0.781250 1.192969 2.355078
v 0.781250 1.192969 2.355078
v 4.485157 2.286328 2.188672
v 1.443359 0.784375 2.451172
v 4.659766 2.124219 -2.120312
v 4.659766 2.124219 -2.120312
v 5.020703 1.623047 1.963672
v 4.657422 2.131641 -1.797266
v 4.039062 2.016406 2.308594
v 4.039062 2.016406 2.308594
v 4.039062 2.016406 2.308594
v 4.039062 2.016406 2.308594
v 4.590234 2.204297 -2.188672
v 5.607422 1.450391 1.734375
v 4.658594 1.920313 -2.201563
v 5.522266 1.344141 1.726953
v 4.666406 1.994531 -2.135937
v 4.666406 1.994531 -2.135937
v 5.706250 1.566797 1.680859
v 5.706250 1.566797 1.680859
v 4.631641 1.985937 -1.805078
v 6.358984 0.867969 1.118750
v 6.358984 0.867969 1.118750
v 4.123047 2.544531 -2.567578
v 3.939063 2.002344 2.616797
v 3.939063 2.002344 2.616797
v 4.488672 2.287500 -2.207813
v 4.037109 2.017188 1.950000
v 4.598438 1.800000 -2.154297
v 1.326172 2.084766 2.982422
v 4.316797 1.498438 -2.361719
v 0.257422 2.405859 1.648047
v 4.316797 1.498438 2.360547
v 0.825000 3.595313 1.402734
v 4.123047 2.544531 2.566016
v 1.073438 3.426172 2.178906
v 4.482031 -1.967578 0.000000
v 1.672656 4.507422 1.348438
v 4.075781 -1.394922 0.000000
v 4.812109 3.758594 1.257812
v 4.350391 -1.506250 0.000000
v 5.156641 2.990625 1.719922
v 3.921484 -2.321484 0.000000
v 4.988672 2.489453 2.000781
v 3.156250 -0.679688 -1.876953
v 4.853125 2.563672 1.989844
v 3.626953 -0.107422 -1.538281
v 5.079688 2.406641 1.628906
v 3.142578 -0.570312 -2.025000
v 5.403125 2.710938 1.432422
v 3.496094 -0.014844 -1.689844
v 5.445312 2.751563 1.682031
v 5.445312 2.751563 1.682031
v 3.221484 -0.007031 -1.472266
v 5.082422 2.396094 1.915234
v 5.082422 2.396094 1.915234
v 2.956641 -0.447266 -2.083203
v 2.742969 3.179297 2.869922
v 2.777344 -0.432031 -1.946875
v 3.986328 3.771484 2.325000
v 2.782422 -1.543359 -1.927734
v 4.292578 4.317578 1.632031
v 3.101953 -1.931641 -1.652344
v 5.075781 3.582422 1.504297
v 3.064063 -0.681250 -1.757812
v 3.550391 4.973438 1.031641
v 3.408203 -1.767578 -1.446875
v 2.675781 4.968359 1.149219
v 2.794922 -1.551953 -2.106641
v 3.880859 -0.279687 0.939063
v 1.872266 -2.528906 -2.118750
v 0.682031 2.274219 2.539062
v 2.060156 -2.851172 -1.738672
v 1.610547 3.078906 2.764063
v 4.170312 -2.216797 -1.226953
v 2.997656 4.563282 1.916406
v 3.936719 -2.650391 -1.039062
v 4.486328 4.547266 0.930078
v 4.417188 -2.046094 -0.683594
v 5.387109 3.741406 0.793359
v 3.492578 -2.510547 -0.731641
v 5.597656 3.816016 0.892969
v 3.507422 -0.119922 -1.294141
v 5.915235 3.492969 0.889453
v 5.915235 3.492969 0.889453
v 3.974219 -1.460547 -0.562891
v 5.828907 3.358594 0.778125
v 2.583984 -2.734766 -1.398828
v 5.996094 3.923828 -0.000391
v 3.761328 -1.596484 -1.071094
v 5.842187 3.662891 0.953906
v 2.492969 -0.830078 -2.167969
v 5.347266 2.863672 1.746484
v 2.241797 -1.384766 -2.290625
v 3.177344 0.765234 -0.000391
v 2.628516 -0.859375 -2.297656
v 3.392188 1.023438 1.392578
v 2.353125 -1.460938 -2.417969
v 5.167578 1.853125 1.931250
v 5.167578 1.853125 1.931250
v 2.878906 -1.008594 -2.204688
v 5.096485 1.726172 1.973438
v 2.700781 -1.591406 -2.329688
v 2.420313 1.468750 -0.000391
v 2.078125 -2.075000 -2.327734
v 2.795313 1.601953 1.438281
v 2.413281 -2.473047 -2.319141
v 5.650781 3.045313 1.194141
v 2.408984 -2.892578 -2.084375
v 5.735938 3.171094 1.355469
v 5.735938 3.171094 1.355469
v 2.775391 -2.048828 -2.108984
v 5.657813 3.322656 1.399609
v 2.721484 -1.986719 -1.883984
v 5.425781 3.475000 1.343359
v 2.778516 -3.032813 -1.882031
v 2.608594 2.489844 3.145703
v 3.241797 -2.971094 -1.641797
v 3.782422 2.198437 2.738281
v 3.782422 2.198437 2.738281
v 3.012110 -2.603906 -2.110938
v 4.460156 2.805078 2.334766
v 3.390234 -2.513672 -1.913672
v 6.449219 0.058594 0.527734
v 4.044531 -1.743750 -1.219141
v 6.618360 0.224609 0.603906
v 4.294922 -1.580078 -0.660547
v 6.613281 0.514063 0.591797
v 6.613281 0.514063 0.591797
v 2.094531 -1.826563 -2.282031
v 5.915235 3.527344 0.362891
v 3.256250 -2.047656 -1.950781
v 5.984766 3.654688 0.454688
v 5.984766 3.654688 0.454688
v 3.659375 -1.928516 -1.633594
v 5.942188 3.834766 0.491406
v 4.341406 -2.345313 0.000000
v 5.685156 3.979687 0.446875
v 4.253516 -2.435938 -0.578906
v 6.445703 0.406250 -0.000391
v 3.564844 -2.855078 -1.371094
v 6.369531 0.529688 0.548047
v 3.781250 -2.352734 -1.633984
v 6.200391 0.813672 0.980859
v 3.993750 -2.487500 0.000000
v 5.591016 1.557422 1.421484
v 3.948437 -2.563672 -0.477734
v 5.124219 1.823047 1.632422
v 3.637110 -2.669141 -0.783984
v 2.280859 0.440625 2.345313
v 3.199610 -2.766797 -1.107813
v 2.971094 3.901562 -0.000391
v 3.835547 -2.403516 -0.427734
v 3.372656 3.513281 1.747656
v 3.167578 -2.614063 -1.026563
v 4.782032 3.178125 1.994531
v 3.156250 -0.679688 1.876953
v 5.020703 1.623047 -1.982031
v 3.626953 -0.107422 1.538281
v 4.865234 0.637109 -1.293750
v 3.142578 -0.570312 2.025000
v 3.392188 1.023438 -1.394141
v 3.496094 -0.014844 1.689844
v 2.704688 0.712500 -2.867578
v 3.221484 -0.007031 1.472266
v 2.525000 1.576563 -3.119922
v 2.525000 1.576563 -3.119922
v 2.956641 -0.447266 2.083203
v 1.322266 1.283203 -2.868750
v 1.322266 1.283203 -2.868750
v 2.777344 -0.432031 1.946875
v 6.349219 0.635156 -1.198047
v 2.782422 -1.543359 1.927734
v 6.217578 0.478516 -1.178516
v 3.101953 -1.931641 1.652344
v 6.449219 0.058594 -0.528906
v 3.064063 -0.681250 1.757812
v 6.618360 0.224609 -0.605078
v 3.408203 -1.767578 1.446875
v 6.057422 0.442578 -0.861719
v 6.057422 0.442578 -0.861719
v 2.794922 -1.551953 2.106641
v 5.358984 -0.259766 -0.590234
v 1.872266 -2.528906 2.118750
v 5.283594 0.022656 -1.162891
v 5.283594 0.022656 -1.162891
v 2.060156 -2.851172 1.738672
v 4.553516 -0.261719 -1.229688
v 4.553516 -0.261719 -1.229688
v 4.170312 -2.216797 1.226953
v 4.598828 -0.512891 -0.562109
v 4.598828 -0.512891 -0.562109
v 3.936719 -2.650391 1.039062
v 4.980859 0.795703 -1.882031
v 4.417188 -2.046094 0.683594
v 5.435547 1.252734 -1.720703
v 3.492578 -2.510547 0.731641
v 4.675000 1.271875 -2.166797
v 3.507422 -0.119922 1.294141
v 3.837500 1.758594 -2.709375
v 3.974219 -1.460547 0.562891
v 3.026953 0.407813 -2.469922
v 2.583984 -2.734766 1.398828
v 3.581641 0.138281 -1.939062
v 3.761328 -1.596484 1.071094
v 2.821484 0.292188 -2.208203
v 2.492969 -0.830078 2.167969
v 0.781250 1.192969 -2.356250
v 0.781250 1.192969 -2.356250
v 2.241797 -1.384766 2.290625
v 1.443359 0.784375 -2.452344
v 2.628516 -0.859375 2.297656
v 4.039062 2.016406 -2.309766
v 4.039062 2.016406 -2.309766
v 4.039062 2.016406 -2.309766
v 4.039062 2.016406 -2.309766
v 2.353125 -1.460938 2.417969
v 5.096485 1.726172 -1.974609
v 2.878906 -1.008594 2.204688
v 5.607422 1.450391 -1.735547
v 2.700781 -1.591406 2.329688
v 5.706250 1.566797 -1.682031
v 5.706250 1.566797 -1.682031
v 2.078125 -2.075000 2.327734
v 5.167578 1.853125 -1.932422
v 5.167578 1.853125 -1.932422
v 2.413281 -2.473047 2.319141
v 5.522266 1.344141 -1.701172
v 2.408984 -2.892578 2.084375
v 6.358984 0.867969 -1.119922
v 6.358984 0.867969 -1.119922
v 2.775391 -2.048828 2.108984
v 6.613281 0.514063 -0.592969
v 6.613281 0.514063 -0.592969
v 2.721484 -1.986719 1.883984
v 2.686328 2.536719 -1.597266
v 2.686328 2.536719 -1.597266
v 2.778516 -3.032813 1.882031
v 4.037109 2.017188 -1.951172
v 3.241797 -2.971094 1.641797
v 0.508594 1.160156 -1.761328
v 0.508594 1.160156 -1.761328
v 3.012110 -2.603906 2.110938
v 0.428516 1.155469 -0.932813
v 0.428516 1.155469 -0.932813
v 3.390234 -2.513672 1.913672
v 1.006641 0.696094 -1.983984
v 4.044531 -1.743750 1.219141
v 2.478906 0.224609 -1.898438
v 4.294922 -1.580078 0.660547
v 2.280859 0.440625 -2.346484
v 2.094531 -1.826563 2.282031
v 1.505859 0.468359 -2.113281
v 3.256250 -2.047656 1.950781
v 3.939063 2.002344 -2.617969
v 3.939063 2.002344 -2.617969
v 3.659375 -1.928516 1.633594
v 3.221484 -0.007031 -1.473438
v 4.253516 -2.435938 0.578906
v 3.880859 -0.279687 -0.940234
v 3.564844 -2.855078 1.371094
v 5.591016 1.557422 -1.422656
v 3.781250 -2.352734 1.633984
v 6.200391 0.813672 -0.982031
v 3.948437 -2.563672 0.477734
v 3.782422 2.198437 -2.739453
v 3.782422 2.198437 -2.739453
v 3.637110 -2.669141 0.783984
v 6.369531 0.529688 -0.549219
v 3.199610 -2.766797 1.107813
v 1.326172 2.084766 -2.983594
v 3.835547 -2.403516 0.427734
v 0.257422 2.405859 -1.649219
v 3.167578 -2.614063 1.026563
v 0.825000 3.595313 -1.403906
v 1.672656 4.507422 -1.349609
v 3.372656 3.513281 -1.748828
v 5.079688 2.406641 -1.630078
v 5.403125 2.710938 -1.433594
v 5.445312 2.751563 -1.683203
v 5.445312 2.751563 -1.683203
v 5.082422 2.396094 -1.916016
v 5.082422 2.396094 -1.916016
v 5.915235 3.527344 -0.364063
v 5.984766 3.654688 -0.456250
v 5.984766 3.654688 -0.456250
v 5.915235 3.492969 -0.890625
v 5.915235 3.492969 -0.890625
v 5.828907 3.358594 -0.779297
v 5.842187 3.662891 -0.955078
v 5.942188 3.834766 -0.492578
v 4.460156 2.805078 -2.335938
v 3.986328 3.771484 -2.326172
v 2.742969 3.179297 -2.871094
v 4.292578 4.317578 -1.633203
v 5.075781 3.582422 -1.505469
v 4.853125 2.563672 -1.990625
v 5.156641 2.990625 -1.721094
v 4.782032 3.178125 -1.996094
v 3.550391 4.973438 -1.032812
v 4.486328 4.547266 -0.931250
v 5.387109 3.741406 -0.794531
v 5.425781 3.475000 -1.344531
v 5.597656 3.816016 -0.894531
v 5.685156 3.979687 -0.448047
v 2.675781 4.968359 -1.150781
v 1.610547 3.078906 -2.765234
v 2.997656 4.563282 -1.917578
v 1.073438 3.426172 -2.180469
v 4.812109 3.758594 -1.258984
v 5.347266 2.863672 -1.747656
v 5.735938 3.171094 -1.356641
v 5.735938 3.171094 -1.356641
v 5.657813 3.322656 -1.400781
v 4.988672 2.489453 -2.001563
v 2.608594 2.489844 -3.146875
v 0.682031 2.274219 -2.540234
v 5.650781 3.045313 -1.195312
v 5.124219 1.823047 -1.633984
v 2.795313 1.601953 -1.439453
v 3.978125 2.011719 -2.444141
v 3.978125 2.011719 -2.444141
v 3.978125 2.011719 2.442969
v 3.978125 2.011719 2.442969
v 4.408985 0.272656 1.979297
v 4.072266 0.855469 2.442578
v 3.642969 1.277734 2.791016
v 3.359766 1.879297 2.925391
v 3.359766 1.879297 2.925391
v 3.370703 2.346094 2.944922
v 3.673438 3.057422 2.689063
v 4.408985 0.272656 -1.980859
v 4.072266 0.855469 -2.443750
v 3.642969 1.277734 -2.792187
v 3.359766 1.879297 -2.926563
v 3.359766 1.879297 -2.926563
v 3.370703 2.346094 -2.946094
v 3.673438 3.057422 -2.690234
v 2.079688 4.136328 2.323047
v 2.079688 4.136328 -2.324219
v 2.803516 2.862109 -0.971094
v 3.199219 2.878516 -1.148828
v 4.260547 3.282813 -0.926953
v 2.596484 2.809375 -1.414062
v 3.205859 2.757812 -1.678906
v 4.382422 3.246875 -1.404297
v 2.339844 2.615234 -0.630859
v 2.490234 2.529297 -1.471875
v 3.170703 2.442188 -1.750391
v 4.571094 3.094922 -1.461719
v 2.110547 2.148047 -0.566016
v 2.395313 2.211719 -1.154688
v 3.050391 2.065625 -1.363672
v 4.744141 2.796484 -1.115625
v 2.950000 1.881250 -0.585547
v 4.812891 2.656641 -0.485547
v 4.708594 2.699610 0.000000
v 5.283203 3.387110 0.000000
v 5.224609 3.779297 0.000000
v 4.883594 3.808985 0.000000
v 2.114063 2.432812 0.000000
v 2.973828 2.054688 0.000000
v 2.262500 2.635937 0.000000
v 4.716016 3.581641 -0.876953
v 5.032032 3.486719 -0.915625
v 5.163281 3.138281 -0.823438
v 2.803516 2.862109 0.971094
v 3.199219 2.878516 1.148828
v 4.264062 3.283984 0.926953
v 2.596484 2.809375 1.414062
v 3.205859 2.757812 1.678906
v 4.382422 3.246875 1.404297
vt 0.472839 0.435364
vt 0.477539 0.459412
vt 0.487915 0.462036
vt 0.470764 0.448242
vt 0.463989 0.437134
vt 0.460083 0.439026
vt 0.424988 0.418030
vt 0.456238 0.440979
vt 0.410278 0.427429
vt 0.419006 0.444092
vt 0.395630 0.436829
vt 0.372192 0.461792
vt 0.313171 0.440002
vt 0.315613 0.461792
vt 0.254150 0.447876
vt 0.254150 0.464539
vt 0.315613 0.461792
vt 0.321838 0.478455
vt 0.372192 0.461792
vt 0.392151 0.475342
vt 0.419006 0.444092
vt 0.434631 0.461792
vt 0.462708 0.451416
vt 0.469177 0.461792
vt 0.470093 0.455383
vt 0.473328 0.460632
vt 0.477539 0.459412
vt 0.489502 0.434387
vt 0.492920 0.463928
vt 0.497925 0.465820
vt 0.481628 0.434753
vt 0.481018 0.402954
vt 0.470337 0.405579
vt 0.439636 0.370789
vt 0.426514 0.376404
vt 0.384583 0.355957
vt 0.376404 0.364502
vt 0.329529 0.341125
vt 0.326233 0.352539
vt 0.291870 0.339844
vt 0.290222 0.351318
vt 0.254150 0.338623
vt 0.254150 0.350037
vt 0.290222 0.351318
vt 0.288757 0.360657
vt 0.323303 0.361938
vt 0.317139 0.377441
vt 0.367859 0.372253
vt 0.384338 0.397217
vt 0.832031 0.527405
vt 0.865601 0.537109
vt 0.834106 0.546509
vt 0.869507 0.529358
vt 0.835144 0.518982
vt 0.841370 0.510620
vt 0.796936 0.513733
vt 0.800110 0.506470
vt 0.758789 0.508545
vt 0.758789 0.502258
vt 0.800110 0.506470
vt 0.803223 0.500183
vt 0.841370 0.510620
vt 0.847656 0.504395
vt 0.878906 0.523132
vt 0.888611 0.518311
vt 0.916382 0.535645
vt 0.929504 0.532227
vt 0.941406 0.555420
vt 0.954224 0.552673
vt 0.973511 0.570801
vt 0.729248 0.879211
vt 0.756226 0.850037
vt 0.662476 0.829224
vt 0.802612 0.888123
vt 0.806580 0.930298
vt 0.862488 0.929199
vt 0.814331 0.970642
vt 0.888245 0.975220
vt 0.962463 1.000000
vt 0.931213 0.966675
vt 1.000000 0.950012
vt 0.947083 0.916687
vt 0.977051 0.894836
vt 0.912476 0.837524
vt 0.956238 0.837524
vt 0.877930 0.793335
vt 0.913818 0.779480
vt 0.849976 0.737549
vt 0.937500 0.770874
vt 0.868713 0.725037
vt 0.173157 0.252075
vt 0.156067 0.275879
vt 0.175598 0.255615
vt 0.153320 0.272156
vt 0.170715 0.248535
vt 0.150635 0.268494
vt 0.153320 0.228394
vt 0.133545 0.249329
vt 0.128296 0.211365
vt 0.111084 0.234863
vt 0.074097 0.223755
vt 0.081848 0.270142
vt 0.006653 0.238953
vt 0.007141 0.279968
vt 0.081848 0.270142
vt 0.085571 0.281433
vt 0.133545 0.249329
vt 0.150635 0.268494
vt 0.153320 0.228394
vt 0.170715 0.248535
vt 0.881226 0.887512
vt 0.862488 0.875000
vt 0.856201 0.837524
vt 0.799988 0.862549
vt 0.802612 0.888123
vt 0.756226 0.850037
vt 0.729248 0.879211
vt 0.662476 0.829224
vt 0.662476 0.870850
vt 0.593750 0.820862
vt 0.591431 0.862549
vt 0.506226 0.854187
vt 0.587463 0.904175
vt 0.506226 0.896179
vt 0.585571 0.920288
vt 0.506226 0.910522
vt 0.584045 0.929199
vt 0.506226 0.920166
vt 0.581909 0.937988
vt 0.506226 0.932434
vt 0.492920 0.463928
vt 0.489502 0.434387
vt 0.497925 0.465820
vt 0.481628 0.434753
vt 0.487915 0.462036
vt 0.472839 0.435364
vt 0.470764 0.448242
vt 0.460083 0.439026
vt 0.463989 0.437134
vt 0.424988 0.418030
vt 0.418701 0.400330
vt 0.412476 0.382629
vt 0.376404 0.364502
vt 0.326233 0.352539
vt 0.329529 0.341125
vt 0.291870 0.339844
vt 0.365601 0.407654
vt 0.384338 0.397217
vt 0.372192 0.429504
vt 0.312500 0.411804
vt 0.311768 0.426392
vt 0.254150 0.427002
vt 0.311768 0.426392
vt 0.313171 0.440002
vt 0.372192 0.429504
vt 0.395630 0.436829
vt 0.410278 0.427429
vt 0.456238 0.440979
vt 0.760620 0.568970
vt 0.760437 0.559082
vt 0.791077 0.559631
vt 0.791077 0.559631
vt 0.810120 0.579346
vt 0.833984 0.561584
vt 0.891418 0.589783
vt 0.891418 0.574158
vt 0.935120 0.596008
vt 0.935120 0.587708
vt 0.947632 0.591858
vt 0.949219 0.579895
vt 0.971619 0.591125
vt 0.967407 0.575500
vt 0.994080 0.602295
vt 0.993408 0.595642
vt 0.520264 0.269531
vt 0.523865 0.296204
vt 0.561401 0.255310
vt 0.504456 0.296204
vt 0.518494 0.266724
vt 0.502136 0.296204
vt 0.513184 0.296204
vt 0.511047 0.306702
vt 0.544312 0.296204
vt 0.545288 0.309021
vt 0.561401 0.296204
vt 0.561401 0.310425
vt 0.577576 0.309021
vt 0.576599 0.321838
vt 0.613953 0.317261
vt 0.611938 0.330200
vt 0.602478 0.317261
vt 0.596069 0.325928
vt 0.621399 0.317261
vt 0.623901 0.317261
vt 0.622314 0.306702
vt 0.611816 0.306702
vt 0.620667 0.296204
vt 0.609680 0.296204
vt 0.604370 0.266724
vt 0.597290 0.277771
vt 0.561401 0.265442
vt 0.578552 0.296204
vt 0.878906 0.629395
vt 0.922668 0.633545
vt 0.872620 0.647461
vt 0.916382 0.623108
vt 0.872620 0.608521
vt 0.910156 0.612732
vt 0.891418 0.589783
vt 0.935120 0.604370
vt 0.935120 0.596008
vt 0.953918 0.609558
vt 0.947632 0.591858
vt 0.960144 0.596008
vt 0.971619 0.591125
vt 0.994080 0.602295
vt 0.993652 0.596863
vt 0.083801 0.300720
vt 0.079529 0.287292
vt 0.077454 0.280640
vt 0.007263 0.295959
vt 0.006836 0.284912
vt 0.077454 0.280640
vt 0.071167 0.260498
vt 0.133667 0.249390
vt 0.110352 0.235535
vt 0.128418 0.210815
vt 0.105408 0.204712
vt 0.506226 0.816711
vt 0.593750 0.820862
vt 0.591431 0.862549
vt 0.662476 0.870850
vt 0.657532 0.912537
vt 0.724609 0.921448
vt 0.721069 0.948486
vt 0.718384 0.961365
vt 0.856201 1.000000
vt 0.561401 0.332825
vt 0.576111 0.332825
vt 0.561401 0.324646
vt 0.546204 0.321838
vt 0.508850 0.317261
vt 0.500549 0.306702
vt 0.502991 0.306702
vt 0.365601 0.407654
vt 0.312500 0.411804
vt 0.310425 0.392029
vt 0.254150 0.408264
vt 0.254150 0.389648
vt 0.310425 0.392029
vt 0.313782 0.384705
vt 0.085571 0.281433
vt 0.007141 0.291504
vt 0.089294 0.292786
vt 0.153320 0.272156
vt 0.173157 0.252075
vt 0.175598 0.255615
vt 0.973694 0.572021
vt 0.993225 0.591431
vt 0.967529 0.576111
vt 0.949219 0.579895
vt 0.935120 0.587708
vt 0.891418 0.558533
vt 0.891418 0.574158
vt 0.862732 0.552551
vt 0.833984 0.561584
vt 0.522095 0.306702
vt 0.501465 0.317261
vt 0.498901 0.317261
vt 0.516907 0.329163
vt 0.546753 0.332825
vt 0.538879 0.335144
vt 0.457764 0.408691
vt 0.418701 0.400330
vt 0.412476 0.382629
vt 0.367859 0.372253
vt 0.317139 0.377441
vt 0.323303 0.361938
vt 0.288757 0.360657
vt 0.605896 0.329163
vt 0.613953 0.330566
vt 0.583923 0.335144
vt 0.561401 0.335144
vt 0.470093 0.455383
vt 0.462708 0.451416
vt 0.469177 0.461792
vt 0.434631 0.461792
vt 0.440613 0.488892
vt 0.392151 0.475342
vt 0.393738 0.497559
vt 0.337524 0.494995
vt 0.812500 0.758362
vt 0.799988 0.762512
vt 0.716980 0.710449
vt 0.868713 0.837524
vt 0.912476 0.837524
vt 0.947083 0.916687
vt 0.977051 0.894836
vt 1.000000 0.950012
vt 0.993713 0.875000
vt 0.133667 0.249390
vt 0.153992 0.227966
vt 0.164917 0.241638
vt 0.128418 0.210815
vt 0.110352 0.235535
vt 0.105408 0.204712
vt 0.092346 0.229919
vt 0.082458 0.198608
vt 0.074280 0.224304
vt 0.041321 0.194336
vt 0.035828 0.216431
vt 0.899231 0.546814
vt 0.891418 0.558533
vt 0.862732 0.552551
vt 0.834106 0.546509
vt 0.007202 0.307007
vt 0.079529 0.287292
vt 0.156067 0.275879
vt 0.144836 0.262634
vt 0.175842 0.255310
vt 0.164917 0.241638
vt 0.007019 0.262756
vt 0.007019 0.223633
vt 0.071167 0.260498
vt 0.144836 0.262634
vt 0.175842 0.255310
vt 0.321838 0.478455
vt 0.954224 0.552673
vt 0.941406 0.555420
vt 0.899231 0.546814
vt 0.128296 0.211365
vt 0.111084 0.234863
vt 0.074097 0.223755
vt 0.035400 0.216003
vt 0.006653 0.214111
vt 0.041870 0.194519
vt 0.384583 0.355957
vt 0.426514 0.376404
vt 0.439636 0.370789
vt 0.470337 0.405579
vt 0.481018 0.402954
vt 0.759094 0.520508
vt 0.796936 0.513733
vt 0.832031 0.527405
vt 0.835144 0.518982
vt 0.869507 0.529358
vt 0.875977 0.662720
vt 0.847412 0.663269
vt 0.928894 0.646057
vt 0.960144 0.633545
vt 0.947632 0.623108
vt 0.985168 0.621033
vt 0.987915 0.616333
vt 0.881226 0.887512
vt 0.868713 0.837524
vt 0.812500 0.758362
vt 0.831238 0.750000
vt 0.731201 0.700012
vt 0.743713 0.691711
vt 0.937500 0.770874
vt 0.849976 0.737549
vt 0.868713 0.725037
vt 0.913818 0.779480
vt 0.956238 0.837524
vt 0.877930 0.793335
vt 0.356812 0.256897
vt 0.275391 0.180908
vt 0.449585 0.202881
vt 0.276733 0.256897
vt 0.278564 0.319885
vt 0.356812 0.256897
vt 0.357422 0.320007
vt 0.454590 0.328064
vt 0.082397 0.198914
vt 0.035400 0.216003
vt 0.041870 0.194519
vt 0.010071 0.193420
vt 0.654541 0.933533
vt 0.718384 0.961365
vt 0.651978 0.946228
vt 0.721069 0.948486
vt 0.724609 0.921448
vt 0.806580 0.930298
vt 0.953918 0.609558
vt 0.935120 0.604370
vt 0.910156 0.612732
vt 0.872620 0.608521
vt 0.916382 0.623108
vt 0.657532 0.912537
vt 0.035828 0.216431
vt 0.074280 0.224304
vt 0.007019 0.213989
vt 0.010437 0.193481
vt 0.929504 0.532227
vt 0.916382 0.535645
vt 0.903870 0.539795
vt 0.878906 0.523132
vt 0.584045 0.929199
vt 0.585571 0.920288
vt 0.651978 0.946228
vt 0.654541 0.933533
vt 0.731201 0.700012
vt 0.831238 0.750000
vt 0.743713 0.691711
vt 0.756226 0.683350
vt 0.814331 0.970642
vt 0.856201 1.000000
vt 0.962463 1.000000
vt 0.888245 0.975220
vt 0.931213 0.966675
vt 0.862488 0.929199
vt 0.947632 0.623108
vt 0.960144 0.633545
vt 0.985168 0.621033
vt 0.922668 0.633545
vt 0.878906 0.629395
vt 0.987915 0.616333
vt 0.960144 0.596008
vt 0.293640 0.496460
vt 0.254150 0.481201
vt 0.254150 0.491577
vt 0.293640 0.496460
vt 0.254150 0.382263
vt 0.254150 0.374939
vt 0.089294 0.292786
vt 0.007141 0.303040
vt 0.618347 0.296204
vt 0.602539 0.269531
vt 0.619873 0.306702
vt 0.587463 0.904175
vt 0.254150 0.359436
vt 0.082397 0.198914
vt 0.799988 0.862549
vt 0.598999 0.296204
vt 0.600708 0.306702
vt 0.313782 0.384705
vt 0.525574 0.277771
vt 0.993713 0.875000
vt 0.981201 0.837524
vt 0.561401 0.251770
vt 0.510925 0.330200
vt 0.508850 0.330566
vt 0.440613 0.488892
vt 0.393738 0.497559
vt 0.337524 0.494995
vt 0.092346 0.229919
vt 0.082458 0.198608
vt 0.041321 0.194336
vt 0.981201 0.837524
vt 0.856201 0.837524
vt 0.799988 0.762512
vt 0.449585 0.202881
vt 0.454163 0.272156
vt 0.520386 0.317261
vt 0.526733 0.325928
vt 0.457764 0.408691
vt 0.888611 0.518311
vt 0.847656 0.504395
vt 0.803223 0.500183
vt 0.903870 0.539795
vt 0.865601 0.537109
vt 0.810120 0.579346
vt 0.844543 0.593933
vt 0.581909 0.937988
vt 0.862488 0.875000
vt 0.357422 0.320007
vt 0.454590 0.328064
vt 0.454163 0.272156
vt 0.990662 0.611633
vt 0.872620 0.647461
vt 0.928894 0.646057
vt 0.990662 0.611633
vt 0.649292 0.954956
vt 0.649292 0.954956
vt 0.875977 0.662720
vt 0.847412 0.663269
vt 0.716980 0.710449
vt 0.756226 0.683350
vt 0.473328 0.460632
vt 0.844543 0.593933
vt 0.153992 0.227966
vt 0.992798 0.588928
vt 0.758789 0.496033
vt 0.718079 0.971802
vt 0.718079 0.971802
vt 0.083801 0.300720
vn 0.4632 0.0661 0.8838
vn 0.4998 0.0061 0.8661
vn 0.6772 -0.2708 0.6841
vn 0.5275 -0.0250 0.8492
vn 0.5804 0.0638 0.8118
vn 0.3420 0.2539 0.9048
vn 0.3913 0.4751 0.7881
vn 0.0325 0.3885 0.9208
vn 0.0826 0.5405 0.8373
vn -0.3135 0.3848 0.8681
vn -0.2667 0.6702 0.6925
vn -0.6489 0.5287 0.5472
vn -0.5071 0.8038 0.3109
vn -0.7982 0.5585 0.2258
vn -0.6034 0.7974 0.0000
vn -0.8433 0.5374 0.0000
vn -0.7982 0.5585 -0.2257
vn -0.9541 0.1490 -0.2597
vn -0.6488 0.5287 -0.5473
vn -0.7497 0.1278 -0.6492
vn -0.3347 0.3996 -0.8534
vn -0.3747 0.0616 -0.9251
vn 0.0476 0.1665 -0.9849
vn 0.0064 -0.0563 -0.9984
vn 0.3510 0.0655 -0.9341
vn 0.3071 -0.0469 -0.9505
vn 0.4943 0.0058 -0.8692
vn 0.5091 -0.3025 0.8057
vn 0.4568 -0.8756 0.1567
vn 0.1856 -0.9813 0.0500
vn 0.3989 -0.0033 0.9170
vn 0.5817 -0.1500 0.7995
vn 0.3966 0.1265 0.9092
vn 0.6144 0.0699 0.7859
vn 0.4252 0.2746 0.8624
vn 0.7364 0.1922 0.6487
vn 0.5289 0.4339 0.7294
vn 0.8907 0.2490 0.3803
vn 0.6677 0.5483 0.5035
vn 0.9594 0.2023 0.1963
vn 0.7656 0.5792 0.2799
vn 0.9859 0.1675 0.0001
vn 0.7982 0.6023 0.0001
vn 0.7656 0.5794 -0.2797
vn -0.0192 0.9682 -0.2493
vn -0.0331 0.8867 -0.4612
vn -0.0305 0.9471 -0.3193
vn 0.3037 0.6846 -0.6626
vn 0.5867 0.5562 -0.5885
vn -0.2797 -0.8196 0.4999
vn 0.1548 -0.6362 0.7559
vn 0.4495 -0.5787 0.6805
vn 0.0002 -0.5754 0.8178
vn -0.0000 -0.7422 0.6701
vn 0.7035 -0.2194 0.6759
vn 0.0259 -0.9390 0.3429
vn 0.8143 -0.4189 0.4018
vn 0.1214 -0.9926 0.0000
vn 0.9064 -0.4223 0.0000
vn 0.8144 -0.4189 -0.4016
vn 0.9602 0.0346 -0.2771
vn 0.6970 -0.2065 -0.6867
vn 0.8370 0.1142 -0.5351
vn 0.4613 -0.1892 -0.8668
vn 0.6119 -0.0290 -0.7904
vn 0.3385 -0.1915 -0.9213
vn 0.4759 0.0013 -0.8795
vn 0.4033 -0.0640 -0.9128
vn 0.4225 0.0638 -0.9041
vn 0.4129 0.5413 -0.7324
vn 0.4426 0.5393 -0.7164
vn 0.0909 0.8561 -0.5087
vn 0.2205 0.8706 -0.4398
vn 0.3271 0.5478 -0.7699
vn 0.5776 -0.2532 -0.7760
vn 0.3872 -0.2721 -0.8809
vn 0.2997 -0.9386 -0.1709
vn 0.0917 -0.9673 -0.2364
vn -0.3700 -0.9247 -0.0888
vn -0.1531 -0.7668 -0.6233
vn -0.4230 -0.4821 -0.7672
vn 0.0544 -0.2625 -0.9634
vn -0.4935 0.0001 -0.8697
vn 0.5900 -0.0849 -0.8029
vn -0.2114 0.1267 -0.9691
vn 0.6417 -0.0617 -0.7644
vn -0.0985 0.3767 -0.9211
vn 0.0136 0.5616 -0.8273
vn -0.5121 0.5410 -0.6671
vn -0.3633 0.7439 -0.5609
vn 0.3189 -0.9476 0.0202
vn 0.0673 -0.0366 0.9970
vn 0.1702 -0.9854 0.0031
vn 0.2290 -0.8525 0.4698
vn 0.5930 -0.8045 0.0327
vn 0.3340 -0.7140 0.6153
vn 0.7389 -0.6735 0.0215
vn 0.3554 -0.6991 0.6204
vn 0.8308 -0.5564 0.0150
vn 0.3503 -0.7642 0.5414
vn 0.3380 -0.8919 0.3004
vn -0.2665 -0.7488 0.6068
vn -0.3659 -0.9307 -0.0000
vn -0.0903 -0.9959 -0.0000
vn -0.2665 -0.7488 -0.6068
vn 0.2976 -0.5418 -0.7860
vn 0.3554 -0.6991 -0.6204
vn 0.3333 -0.7150 -0.6145
vn 0.7388 -0.6735 -0.0215
vn 0.5891 -0.8072 -0.0353
vn 0.6937 0.2084 0.6894
vn 0.7110 0.7028 0.0237
vn 0.9621 -0.2406 -0.1281
vn -0.0647 0.9230 0.3793
vn 0.3271 0.5478 0.7699
vn 0.0909 0.8561 0.5087
vn 0.4426 0.5393 0.7164
vn 0.2205 0.8706 0.4398
vn 0.5680 0.5909 0.5728
vn 0.2881 0.9245 0.2496
vn 0.6891 0.6594 0.3005
vn 0.7338 0.6793 0.0000
vn 0.9626 -0.0787 0.2592
vn 0.9996 -0.0261 0.0000
vn 0.7151 -0.6923 0.0963
vn 0.7591 -0.6510 0.0000
vn -0.0403 -0.9678 -0.2484
vn -0.3283 -0.9445 0.0000
vn -0.6763 -0.5801 -0.4539
vn -0.9169 -0.3991 0.0000
vn 0.2928 -0.9539 -0.0653
vn 0.5093 -0.3024 -0.8057
vn 0.1857 -0.9813 -0.0500
vn 0.4576 -0.0514 -0.8877
vn 0.6268 -0.3018 -0.7183
vn 0.5233 0.0734 -0.8489
vn 0.5162 -0.0145 -0.8563
vn 0.3419 0.2539 -0.9048
vn 0.5773 0.0906 -0.8115
vn 0.3912 0.4751 -0.7881
vn 0.6170 0.2571 -0.7438
vn 0.4069 0.3717 -0.8344
vn 0.5289 0.4339 -0.7294
vn 0.6678 0.5481 -0.5035
vn 0.8907 0.2490 -0.3804
vn 0.9593 0.2026 -0.1964
vn 0.4839 0.6889 0.5396
vn 0.5867 0.5562 0.5886
vn 0.0495 0.7957 0.6036
vn 0.2235 0.9305 0.2900
vn -0.1706 0.9371 0.3045
vn -0.2012 0.9795 0.0000
vn -0.1705 0.9371 -0.3046
vn -0.5072 0.8038 -0.3108
vn 0.0495 0.7957 -0.6037
vn -0.2701 0.6756 -0.6860
vn 0.0914 0.5447 -0.8336
vn 0.0533 0.3912 -0.9187
vn -0.0979 -0.9952 0.0001
vn -0.0195 -0.9998 0.0000
vn -0.1119 -0.9567 0.2687
vn -0.1119 -0.9567 -0.2686
vn -0.1276 -0.9336 -0.3347
vn 0.0878 -0.8618 -0.4995
vn 0.0423 -0.8432 -0.5360
vn 0.2996 -0.5987 -0.7428
vn 0.3945 -0.3768 -0.8381
vn 0.4822 -0.1198 -0.8678
vn 0.5267 -0.0193 -0.8498
vn 0.4231 -0.1231 -0.8977
vn 0.4052 -0.1821 -0.8959
vn 0.4143 0.1613 -0.8957
vn 0.6024 0.2203 -0.7672
vn 0.1660 0.9814 -0.0960
vn -0.2808 0.8927 -0.3524
vn -0.4922 0.8516 -0.1803
vn -0.1269 0.9738 0.1884
vn -0.1149 0.7929 -0.5984
vn 0.7316 0.3268 -0.5983
vn 0.5248 0.0978 -0.8456
vn 0.6858 -0.5351 -0.4932
vn 0.4203 -0.7835 -0.4576
vn 0.6831 -0.7303 0.0027
vn 0.3747 -0.9267 0.0284
vn 0.6528 -0.7576 0.0000
vn 0.3153 -0.9490 0.0016
vn 0.3736 -0.9271 -0.0293
vn -0.0047 -0.9888 -0.1491
vn -0.0121 -0.8245 0.5658
vn -0.5606 0.5645 0.6058
vn -0.1264 0.9751 0.1823
vn -0.0779 0.9936 0.0818
vn -0.1848 0.6354 0.7497
vn -0.1252 -0.3010 0.9453
vn 0.3219 -0.2684 0.9079
vn 0.4219 -0.7836 0.4559
vn 0.5256 0.0991 0.8449
vn 0.6861 -0.5346 0.4933
vn 0.6296 0.5351 0.5632
vn 0.8931 -0.2053 0.4003
vn 0.9886 -0.1504 0.0010
vn 0.6831 -0.7303 -0.0027
vn -0.3075 -0.7573 0.5761
vn -0.3610 -0.6856 0.6321
vn -0.5945 -0.6737 0.4389
vn -0.1787 -0.8488 0.4977
vn -0.1266 -0.9258 0.3560
vn -0.0958 -0.9144 0.3932
vn 0.0423 -0.8432 0.5359
vn 0.1137 -0.7702 0.6276
vn 0.3945 -0.3769 0.8380
vn 0.3599 -0.2214 0.9063
vn 0.5235 -0.0510 0.8504
vn 0.5084 -0.0139 0.8610
vn 0.4344 -0.0925 0.8960
vn 0.6156 0.2349 0.7522
vn 0.3138 0.9279 0.2010
vn 0.7191 0.0937 0.6885
vn 0.6828 0.4047 0.6083
vn 0.3361 0.7141 0.6141
vn 0.8848 0.4660 -0.0000
vn 0.4774 0.8787 -0.0000
vn 0.3360 0.7142 -0.6140
vn -0.0042 0.7440 -0.6681
vn 0.1379 0.7815 -0.6084
vn 0.1719 0.7084 -0.6845
vn 0.4794 0.8459 -0.2336
vn 0.5297 0.7635 -0.3692
vn 0.3757 0.9267 0.0000
vn 0.2881 0.9245 -0.2496
vn 0.6891 0.6594 -0.3005
vn 0.5680 0.5909 -0.5728
vn 0.8416 -0.1820 -0.5085
vn 0.6881 -0.1938 -0.6992
vn 0.4490 -0.8913 -0.0631
vn -0.2212 -0.7969 0.5622
vn -0.1718 -0.8598 0.4808
vn -0.9949 -0.1007 0.0000
vn -0.9748 -0.2174 -0.0504
vn -0.1204 -0.9927 0.0013
vn -0.0901 -0.9953 0.0352
vn -0.0712 -0.8585 -0.5078
vn 0.3204 -0.2704 -0.9078
vn -0.1086 0.6647 -0.7391
vn 0.4839 0.6889 -0.5396
vn 0.2235 0.9306 -0.2900
vn 0.5696 0.7770 -0.2680
vn 0.2223 0.9749 0.0000
vn 0.5713 0.8207 0.0000
vn 0.5696 0.7769 0.2681
vn 0.5436 0.7913 0.2799
vn 0.2976 -0.5418 0.7860
vn 0.5460 -0.8378 -0.0000
vn 0.4959 -0.2231 -0.8392
vn 0.2300 -0.8537 -0.4672
vn 0.3141 -0.9490 -0.0257
vn 0.1756 -0.9844 -0.0094
vn 0.3884 0.6141 0.6871
vn 0.0508 0.9970 0.0578
vn 0.4016 0.1927 0.8953
vn 0.3961 -0.1935 0.8975
vn 0.5078 -0.1057 0.8550
vn 0.4794 -0.2752 0.8333
vn 0.2996 -0.5988 0.7427
vn 0.4876 -0.5217 0.7000
vn 0.0878 -0.8617 0.4997
vn -0.3287 0.9193 -0.2165
vn -0.1838 0.6364 -0.7491
vn -0.1088 -0.3042 -0.9463
vn -0.6159 -0.6225 -0.4828
vn -0.8719 -0.4887 -0.0295
vn -0.8839 0.4262 -0.1922
vn 0.3994 0.2213 0.8896
vn 0.6169 0.2574 0.7437
vn 0.4068 0.3720 0.8343
vn 0.3037 0.6846 0.6626
vn -0.0305 0.9471 0.3195
vn -0.0331 0.8867 0.4610
vn -0.0192 0.9682 0.2495
vn -0.7719 -0.2726 0.5742
vn -0.7421 -0.1143 0.6605
vn -0.8867 0.4018 0.2284
vn -0.8074 0.5900 0.0000
vn 0.3510 0.0655 0.9341
vn 0.0199 0.1898 0.9816
vn 0.0064 -0.0563 0.9984
vn -0.3682 0.0688 0.9272
vn -0.4517 -0.1540 0.8787
vn -0.7497 0.1279 0.6492
vn -0.8051 -0.1705 0.5681
vn -0.9479 -0.1700 0.2691
vn 0.8513 -0.5245 -0.0086
vn 0.6527 -0.5712 -0.4976
vn 0.6373 -0.7105 -0.2984
vn 0.9682 -0.1738 0.1798
vn 0.5900 -0.0849 0.8029
vn 0.0544 -0.2625 0.9634
vn -0.4935 0.0001 0.8697
vn -0.4230 -0.4821 0.7672
vn -0.6803 0.1798 0.7105
vn 0.1378 0.7816 0.6083
vn 0.2988 0.9442 0.1386
vn 0.1321 0.9899 0.0512
vn 0.4793 0.8459 0.2336
vn 0.1718 0.7083 0.6846
vn 0.5295 0.7635 0.3696
vn 0.1641 0.6293 0.7596
vn 0.3050 0.7666 0.5650
vn 0.0139 0.7408 0.6715
vn 0.1203 0.9338 0.3368
vn 0.0142 0.9359 0.3519
vn 0.4767 -0.2103 -0.8535
vn 0.4767 -0.2936 -0.8286
vn 0.4886 -0.5210 -0.6998
vn 0.4501 -0.5782 -0.6805
vn 0.9865 0.1634 0.0000
vn 0.6827 0.4048 -0.6083
vn 0.0711 -0.0356 -0.9968
vn 0.0355 0.8790 -0.4754
vn 0.0443 0.9990 -0.0083
vn 0.1321 0.9899 -0.0512
vn 0.1548 0.9879 0.0000
vn -0.0032 1.0000 -0.0000
vn -0.0042 0.7441 0.6680
vn 0.0356 0.8788 0.4757
vn 0.0443 0.9990 0.0083
vn -0.9541 0.1491 0.2598
vn 0.4569 0.0726 0.8865
vn 0.3856 -0.1322 0.9131
vn 0.3944 -0.2713 0.8780
vn 0.8308 -0.5564 -0.0150
vn 0.3503 -0.7642 -0.5414
vn 0.3380 -0.8919 -0.3005
vn 0.4540 -0.8709 -0.1881
vn 0.4231 -0.9061 -0.0000
vn 0.8834 -0.4684 -0.0092
vn 0.7364 0.1922 -0.6487
vn 0.4250 0.2744 -0.8626
vn 0.6143 0.0697 -0.7860
vn 0.3965 0.1262 -0.9093
vn 0.5815 -0.1502 -0.7996
vn -0.5546 -0.8321 0.0000
vn 0.0259 -0.9391 -0.3428
vn -0.2802 -0.8182 -0.5019
vn -0.0045 -0.7380 -0.6748
vn -0.0121 -0.5756 -0.8176
vn -0.7115 -0.6813 0.1716
vn -0.6968 -0.7136 0.0714
vn -0.5817 -0.6324 0.5115
vn -0.3292 -0.5813 0.7441
vn 0.0459 -0.5661 0.8231
vn 0.0975 -0.2603 0.9606
vn 0.3187 -0.0923 0.9433
vn 0.6937 0.2084 -0.6894
vn 0.9682 -0.1738 -0.1798
vn 0.8513 -0.5245 0.0086
vn 0.6827 -0.0896 -0.7252
vn 0.8287 -0.5447 -0.1281
vn 0.4009 0.4164 -0.8160
vn -0.5121 0.5410 0.6671
vn 0.0136 0.5616 0.8273
vn -0.3633 0.7439 0.5609
vn -0.0985 0.3767 0.9211
vn -0.2114 0.1267 0.9691
vn 0.6417 -0.0617 0.7644
vn 0.4226 -0.8513 0.3109
vn 0.5553 -0.8316 0.0001
vn 0.5555 -0.7160 0.4227
vn 0.3803 -0.9248 0.0001
vn 0.3103 -0.9506 0.0001
vn 0.4226 -0.8513 -0.3109
vn 0.2978 -0.9219 -0.2479
vn 0.3171 -0.8613 -0.3968
vn 0.8570 -0.5142 0.0325
vn 0.4541 -0.8709 0.1881
vn 0.8834 -0.4684 0.0092
vn 0.8967 -0.4427 0.0000
vn 0.5563 -0.8255 0.0955
vn -0.2212 -0.7969 -0.5622
vn -0.0976 -0.8927 -0.4398
vn 0.4490 -0.8913 0.0631
vn 0.6881 -0.1938 0.6992
vn 0.5776 -0.2532 0.7760
vn 0.3599 -0.2214 -0.9063
vn 0.1137 -0.7702 -0.6276
vn -0.0959 -0.9144 -0.3933
vn -0.1267 -0.9258 -0.3560
vn -0.1787 -0.8488 -0.4977
vn 0.8416 -0.1820 0.5085
vn 0.0142 0.9359 -0.3520
vn 0.0139 0.7407 -0.6717
vn 0.0014 1.0000 -0.0001
vn 0.0575 0.9983 -0.0001
vn 0.4759 0.0013 0.8795
vn 0.3840 -0.1236 0.9150
vn 0.2616 -0.3323 0.9061
vn 0.4568 -0.1661 0.8739
vn -0.0403 -0.9678 0.2484
vn 0.7151 -0.6923 -0.0963
vn -0.0976 -0.8927 0.4398
vn 0.5563 -0.8255 -0.0955
vn 0.8287 -0.5447 0.1281
vn 0.6827 -0.0896 0.7252
vn 0.4009 0.4164 0.8160
vn -0.3263 0.8283 0.4554
vn 0.2997 -0.9386 0.1709
vn -0.1718 -0.8598 -0.4808
vn -0.3700 -0.9247 0.0888
vn 0.0917 -0.9673 0.2364
vn -0.1531 -0.7668 0.6233
vn 0.3872 -0.2721 0.8809
vn 0.0459 -0.5661 -0.8231
vn -0.3292 -0.5813 -0.7441
vn 0.0975 -0.2603 -0.9606
vn -0.3610 -0.6856 -0.6321
vn -0.3075 -0.7573 -0.5761
vn 0.3187 -0.0923 -0.9433
vn 0.5149 -0.0121 -0.8571
vn -0.9768 -0.2096 0.0440
vn -0.9914 0.1310 0.0000
vn -0.9636 -0.2672 0.0000
vn -0.9768 -0.2096 -0.0440
vn 0.4236 0.9058 0.0001
vn -0.2476 0.9688 0.0000
vn 0.6233 -0.3494 0.6995
vn 0.8116 -0.5842 -0.0000
vn -0.1142 0.7935 0.5977
vn -0.1465 0.9231 0.3556
vn -0.1090 0.6686 0.7355
vn 0.9626 -0.0787 -0.2592
vn 0.0419 0.9991 0.0001
vn 0.8570 -0.5143 -0.0325
vn -0.0647 0.9230 -0.3793
vn -0.4996 0.8484 0.1748
vn -0.3393 0.9217 0.1880
vn 0.5438 0.7911 -0.2799
vn 0.8926 -0.2091 -0.3994
vn -0.6803 0.1798 -0.7105
vn -0.6064 0.3262 -0.7252
vn 0.8355 0.5347 0.1261
vn -0.5043 0.6716 -0.5427
vn -0.7071 -0.0156 -0.7069
vn -0.4517 -0.1540 -0.8787
vn -0.8051 -0.1705 -0.5681
vn -0.9479 -0.1700 -0.2692
vn 0.1641 0.6293 -0.7596
vn 0.3052 0.7665 -0.5650
vn 0.1203 0.9338 -0.3368
vn -0.6064 0.3262 0.7252
vn 0.9621 -0.2406 0.1281
vn 0.6527 -0.5712 0.4976
vn 0.5557 -0.7159 -0.4227
vn 0.4525 -0.7747 -0.4416
vn -0.1276 0.9734 -0.1900
vn -0.0779 0.9936 -0.0818
vn 0.4096 0.2238 -0.8844
vn 0.6016 0.0160 0.7986
vn 0.8707 0.1225 0.4762
vn 0.9601 0.0346 0.2773
vn 0.2765 -0.3451 -0.8969
vn 0.1780 -0.6163 -0.7671
vn -0.1276 -0.9336 0.3348
vn -0.0889 -0.9291 0.3590
vn -0.6763 -0.5801 0.4539
vn 0.7110 0.7028 -0.0237
vn 0.2979 -0.9218 0.2480
vn 0.3172 -0.8613 0.3967
vn 0.4525 -0.7748 0.4414
vn 0.4976 0.0030 -0.8674
vn -0.5945 -0.6737 -0.4389
vn -0.5817 -0.6324 -0.5115
vn 0.4976 0.0030 0.8674
vn -0.4253 -0.5828 -0.6924
vn -0.4253 -0.5828 0.6924
vn -0.7115 -0.6813 -0.1716
vn -0.6969 -0.7136 -0.0714
vn 0.6373 -0.7105 0.2984
vn -0.3263 0.8283 -0.4554
vn 0.3071 -0.0469 0.9505
vn -0.0890 -0.9291 -0.3588
vn 0.2988 0.9442 -0.1384
vn 0.1779 0.9716 -0.1560
vn 0.9997 0.0229 0.0000
vn -0.4554 -0.4907 -0.7428
vn -0.4554 -0.4907 0.7428
vn 0.9515 0.1557 -0.2652
usemtl m0
s 1
f 117/1/1 234/2/2 140/3/3
f 234/2/2 117/1/1 149/4/4
f 236/5/5 149/4/4 117/1/1
f 149/4/4 236/5/5 445/6/6
f 174/7/7 445/6/6 236/5/5
f 445/6/6 174/7/7 172/8/8
f 55/9/9 172/8/8 174/7/7
f 172/8/8 55/9/9 188/10/10
f 453/11/11 188/10/10 55/9/9
f 188/10/10 453/11/11 150/12/12
f 152/13/13 150/12/12 453/11/11
f 150/12/12 152/13/13 148/14/14
f 43/15/15 148/14/14 152/13/13
f 148/14/14 43/15/15 26/16/16
f 389/17/17 26/16/16 43/15/15
f 26/16/16 389/17/17 387/18/18
f 423/19/19 387/18/18 389/17/17
f 387/18/18 423/19/19 431/20/20
f 421/21/21 431/20/20 423/19/19
f 431/20/20 421/21/21 385/22/22
f 430/23/23 385/22/22 421/21/21
f 385/22/22 430/23/23 281/24/24
f 451/25/25 281/24/24 430/23/23
f 281/24/24 451/25/25 449/26/26
f 381/27/27 449/26/26 451/25/25
f 112/28/28 437/29/29 124/30/30
f 437/29/29 112/28/28 114/31/31
f 170/32/32 114/31/31 112/28/28
f 114/31/31 170/32/32 158/33/33
f 167/34/34 158/33/33 170/32/32
f 158/33/33 167/34/34 207/35/35
f 224/36/36 207/35/35 167/34/34
f 207/35/35 224/36/36 227/37/37
f 199/38/38 227/37/37 224/36/36
f 227/37/37 199/38/38 205/39/39
f 248/40/40 205/39/39 199/38/38
f 205/39/39 248/40/40 250/41/41
f 35/42/42 250/41/41 248/40/40
f 250/41/41 35/42/42 203/43/43
f 405/44/44 203/43/43 35/42/42
f 203/43/43 405/44/44 419/45/45
f 418/46/46 419/45/45 405/44/44
f 419/45/45 418/46/46 416/47/47
f 417/48/48 416/47/47 418/46/46
f 416/47/47 417/48/48 410/49/49
f 84/50/50 73/51/51 90/52/52
f 73/51/51 84/50/50 75/53/53
f 79/54/54 75/53/53 84/50/50
f 75/53/53 79/54/54 82/55/55
f 238/56/56 82/55/55 79/54/54
f 82/55/55 238/56/56 240/57/57
f 10/58/58 240/57/57 238/56/56
f 240/57/57 10/58/58 15/59/59
f 292/60/60 15/59/59 10/58/58
f 15/59/59 292/60/60 347/61/61
f 286/62/62 347/61/61 292/60/60
f 347/61/61 286/62/62 344/63/63
f 64/64/64 344/63/63 286/62/62
f 344/63/63 64/64/64 66/65/65
f 334/66/66 66/65/65 64/64/64
f 66/65/65 334/66/66 336/67/67
f 332/68/68 336/67/67 334/66/66
f 336/67/67 332/68/68 339/69/69
f 132/70/70 339/69/69 332/68/68
f 249/71/71 181/72/72 204/73/73
f 181/72/72 249/71/71 246/74/74
f 237/75/75 246/74/74 249/71/71
f 246/74/74 237/75/75 235/76/76
f 232/77/77 235/76/76 237/75/75
f 235/76/76 232/77/77 230/78/78
f 187/79/79 230/78/78 232/77/77
f 230/78/78 187/79/79 223/80/80
f 185/81/81 223/80/80 187/79/79
f 223/80/80 185/81/81 221/82/82
f 219/83/83 221/82/82 185/81/81
f 221/82/82 219/83/83 217/84/84
f 212/85/85 217/84/84 219/83/83
f 217/84/84 212/85/85 215/86/86
f 210/87/87 215/86/86 212/85/85
f 215/86/86 210/87/87 171/88/88
f 206/89/89 171/88/88 210/87/87
f 171/88/88 206/89/89 173/90/90
f 119/91/91 353/92/92 327/93/93
f 353/92/92 119/91/91 122/94/94
f 396/95/95 122/94/94 119/91/91
f 122/94/94 396/95/95 392/96/96
f 394/97/97 392/96/96 396/95/95
f 392/96/96 394/97/97 393/98/98
f 427/99/99 393/98/98 394/97/97
f 393/98/98 427/99/99 432/100/100
f 403/101/101 432/100/100 427/99/99
f 432/100/100 403/101/101 424/102/102
f 32/103/103 424/102/102 403/101/101
f 424/102/102 32/103/103 28/104/104
f 154/105/105 28/104/104 32/103/103
f 28/104/104 154/105/105 268/106/106
f 164/107/107 268/106/106 154/105/105
f 268/106/106 164/107/107 162/108/108
f 166/109/109 162/108/108 164/107/107
f 162/108/108 166/109/109 169/110/110
f 346/111/111 349/112/112 287/113/113
f 349/112/112 346/111/111 289/114/114
f 368/115/115 289/114/114 346/111/111
f 289/114/114 368/115/115 293/116/116
f 371/117/117 293/116/116 368/115/115
f 293/116/116 371/117/117 319/118/118
f 362/119/119 319/118/118 371/117/117
f 319/118/118 362/119/119 315/120/120
f 364/121/121 315/120/120 362/119/119
f 315/120/120 364/121/121 155/122/122
f 309/123/123 155/122/122 364/121/121
f 155/122/122 309/123/123 151/124/124
f 373/125/125 151/124/124 309/123/123
f 151/124/124 373/125/125 251/126/126
f 379/127/127 251/126/126 373/125/125
f 251/126/126 379/127/127 259/128/128
f 386/129/129 259/128/128 379/127/127
f 259/128/128 386/129/129 157/130/130
f 435/131/131 120/132/132 328/133/133
f 120/132/132 435/131/131 127/134/134
f 370/135/135 127/134/134 435/131/131
f 127/134/134 370/135/135 141/136/136
f 381/27/27 141/136/136 370/135/135
f 141/136/136 381/27/27 138/137/137
f 452/138/138 138/137/137 381/27/27
f 138/137/137 452/138/138 406/139/139
f 407/140/140 406/139/139 452/138/138
f 406/139/139 407/140/140 413/141/141
f 410/49/49 413/141/141 407/140/140
f 413/141/141 410/49/49 412/142/142
f 417/48/48 412/142/142 410/49/49
f 412/142/142 417/48/48 428/143/143
f 404/144/144 428/143/143 417/48/48
f 428/143/143 404/144/144 402/145/145
f 400/146/146 402/145/145 404/144/144
f 176/147/147 174/7/7 178/148/148
f 174/7/7 176/147/147 190/149/149
f 180/150/150 190/149/149 176/147/147
f 190/149/149 180/150/150 182/151/151
f 45/152/152 182/151/151 180/150/150
f 182/151/151 45/152/152 43/15/15
f 420/153/153 43/15/15 45/152/152
f 43/15/15 420/153/153 390/154/154
f 422/155/155 390/154/154 420/153/153
f 390/154/154 422/155/155 454/156/156
f 57/157/157 454/156/156 422/155/155
f 454/156/156 57/157/157 408/158/158
f 407/140/140 408/158/158 57/157/157
f 408/158/158 407/140/140 452/138/138
f 3/159/159 5/160/160 93/161/161
f 5/160/160 3/159/159 306/162/162
f 374/163/163 306/162/162 3/159/159
f 306/162/162 374/163/163 303/164/164
f 318/165/165 303/164/164 374/163/163
f 303/164/164 318/165/165 446/166/166
f 447/167/167 446/166/166 318/165/165
f 446/166/166 447/167/167 312/168/168
f 145/169/169 312/168/168 447/167/167
f 312/168/168 145/169/169 272/170/170
f 143/171/171 272/170/170 145/169/169
f 272/170/170 143/171/171 129/172/172
f 369/173/173 129/172/172 143/171/171
f 129/172/172 369/173/173 436/174/174
f 478/175/175 457/176/176 474/177/177
f 457/176/176 478/175/175 460/178/178
f 479/179/179 460/178/178 478/175/175
f 460/178/178 479/179/179 464/180/180
f 468/181/181 464/180/180 479/179/179
f 464/180/180 468/181/181 33/182/182
f 470/183/183 33/182/182 468/181/181
f 33/182/182 470/183/183 31/184/184
f 471/185/185 31/184/184 470/183/183
f 31/184/184 471/185/185 53/186/186
f 51/187/187 53/186/186 471/185/185
f 53/186/186 51/187/187 27/188/188
f 21/189/189 27/188/188 51/187/187
f 484/190/190 482/191/191 481/192/192
f 482/191/191 484/190/190 485/193/193
f 7/194/194 485/193/193 484/190/190
f 485/193/193 7/194/194 46/195/195
f 49/196/196 46/195/195 7/194/194
f 46/195/195 49/196/196 9/197/197
f 23/198/198 9/197/197 49/196/196
f 9/197/197 23/198/198 14/199/199
f 25/200/200 14/199/199 23/198/198
f 14/199/199 25/200/200 472/201/201
f 29/202/202 472/201/201 25/200/200
f 472/201/201 29/202/202 471/185/185
f 51/187/187 471/185/185 29/202/202
f 56/203/203 118/204/204 58/205/205
f 118/204/204 56/203/203 264/206/206
f 52/207/207 264/206/206 56/203/203
f 264/206/206 52/207/207 113/208/208
f 63/209/209 113/208/208 52/207/207
f 113/208/208 63/209/209 106/210/210
f 440/211/211 106/210/210 63/209/209
f 106/210/210 440/211/211 441/212/212
f 147/213/213 441/212/212 440/211/211
f 441/212/212 147/213/213 110/214/214
f 107/215/215 110/214/214 147/213/213
f 110/214/214 107/215/215 139/216/216
f 438/217/217 139/216/216 107/215/215
f 351/218/218 122/94/94 392/96/96
f 122/94/94 351/218/218 353/92/92
f 434/219/219 353/92/92 351/218/218
f 353/92/92 434/219/219 276/220/220
f 218/221/221 276/220/220 434/219/219
f 276/220/220 218/221/221 209/222/222
f 211/223/223 209/222/222 218/221/221
f 209/222/222 211/223/223 65/224/224
f 262/225/225 65/224/224 211/223/223
f 65/224/224 262/225/225 260/226/226
f 134/227/227 260/226/226 262/225/225
f 260/226/226 134/227/227 81/228/228
f 155/122/122 153/229/229 315/120/120
f 153/229/229 155/122/122 200/230/230
f 241/231/231 200/230/230 155/122/122
f 200/230/230 241/231/231 239/232/232
f 189/233/233 239/232/232 241/231/231
f 239/232/232 189/233/233 249/71/71
f 257/234/234 249/71/71 189/233/233
f 249/71/71 257/234/234 237/75/75
f 255/235/235 237/75/75 257/234/234
f 237/75/75 255/235/235 232/77/77
f 265/236/236 232/77/77 255/235/235
f 232/77/77 265/236/236 202/237/237
f 475/238/238 27/188/188 16/239/239
f 27/188/188 475/238/238 476/240/240
f 469/241/241 476/240/240 475/238/238
f 476/240/240 469/241/241 31/184/184
f 467/242/242 31/184/184 469/241/241
f 31/184/184 467/242/242 33/182/182
f 36/243/243 33/182/182 467/242/242
f 33/182/182 36/243/243 464/180/180
f 38/244/244 464/180/180 36/243/243
f 464/180/180 38/244/244 460/178/178
f 457/176/176 460/178/178 38/244/244
f 422/155/155 407/140/140 57/157/157
f 407/140/140 422/155/155 409/245/245
f 414/246/246 409/245/245 422/155/155
f 409/245/245 414/246/246 415/247/247
f 37/248/248 415/247/247 414/246/246
f 415/247/247 37/248/248 39/249/249
f 192/250/250 39/249/249 37/248/248
f 39/249/249 192/250/250 97/251/251
f 176/147/147 97/251/251 192/250/250
f 97/251/251 176/147/147 178/148/148
f 424/102/102 393/98/98 432/100/100
f 393/98/98 424/102/102 391/252/252
f 28/104/104 391/252/252 424/102/102
f 391/252/252 28/104/104 266/253/253
f 268/106/106 266/253/253 28/104/104
f 266/253/253 268/106/106 68/254/254
f 162/108/108 68/254/254 268/106/106
f 68/254/254 162/108/108 109/255/255
f 111/256/256 109/255/255 162/108/108
f 109/255/255 111/256/256 123/257/257
f 438/217/217 102/258/258 126/259/259
f 102/258/258 438/217/217 105/260/260
f 107/215/215 105/260/260 438/217/217
f 105/260/260 107/215/215 121/261/261
f 108/262/262 121/261/261 107/215/215
f 121/261/261 108/262/262 100/263/263
f 439/264/264 100/263/263 108/262/262
f 100/263/263 439/264/264 86/265/265
f 96/266/266 86/265/265 439/264/264
f 86/265/265 96/266/266 90/52/52
f 38/244/244 40/267/267 457/176/176
f 40/267/267 38/244/244 459/268/268
f 36/243/243 459/268/268 38/244/244
f 459/268/268 36/243/243 463/269/269
f 467/242/242 463/269/269 36/243/243
f 463/269/269 467/242/242 466/270/270
f 469/241/241 466/270/270 467/242/242
f 466/270/270 469/241/241 465/271/271
f 475/238/238 465/271/271 469/241/241
f 465/271/271 475/238/238 461/272/272
f 160/273/273 236/5/5 117/1/1
f 236/5/5 160/273/273 270/274/274
f 156/275/275 270/274/274 160/273/273
f 270/274/274 156/275/275 178/148/148
f 229/276/276 178/148/148 156/275/275
f 178/148/148 229/276/276 194/277/277
f 196/278/278 194/277/277 229/276/276
f 194/277/277 196/278/278 252/279/279
f 250/41/41 252/279/279 196/278/278
f 252/279/279 250/41/41 203/43/43
f 49/196/196 51/187/187 29/202/202
f 51/187/187 49/196/196 21/189/189
f 7/194/194 21/189/189 49/196/196
f 21/189/189 7/194/194 19/280/280
f 4/281/281 19/280/280 7/194/194
f 19/280/280 4/281/281 16/239/239
f 2/282/282 16/239/239 4/281/281
f 16/239/239 2/282/282 475/238/238
f 477/283/283 475/238/238 2/282/282
f 475/238/238 477/283/283 461/272/272
f 445/6/6 234/2/2 149/4/4
f 234/2/2 445/6/6 444/284/284
f 231/285/285 444/284/284 445/6/6
f 444/284/284 231/285/285 77/286/286
f 144/287/287 77/286/286 231/285/285
f 77/286/286 144/287/287 72/288/288
f 186/289/289 72/288/288 144/287/287
f 72/288/288 186/289/289 116/290/290
f 104/291/291 116/290/290 186/289/289
f 271/292/292 291/293/293 313/294/294
f 291/293/293 271/292/292 287/113/113
f 296/295/295 287/113/113 271/292/292
f 287/113/113 296/295/295 346/111/111
f 335/296/296 346/111/111 296/295/295
f 346/111/111 335/296/296 341/297/297
f 338/298/298 341/297/297 335/296/296
f 341/297/297 338/298/298 298/299/299
f 366/300/300 298/299/299 338/298/298
f 433/301/301 340/302/302 131/303/303
f 340/302/302 433/301/301 337/304/304
f 376/305/305 337/304/304 433/301/301
f 337/304/304 376/305/305 67/306/306
f 70/307/307 67/306/306 376/305/305
f 67/306/306 70/307/307 345/308/308
f 378/309/309 345/308/308 70/307/307
f 345/308/308 378/309/309 348/310/310
f 383/311/311 348/310/310 378/309/309
f 332/68/68 129/172/172 132/70/70
f 129/172/172 332/68/68 272/170/170
f 310/312/312 272/170/170 332/68/68
f 272/170/170 310/312/312 312/168/168
f 308/313/313 312/168/168 310/312/312
f 312/168/168 308/313/313 446/166/166
f 88/314/314 446/166/166 308/313/313
f 446/166/166 88/314/314 303/164/164
f 300/315/315 303/164/164 88/314/314
f 48/316/316 434/219/219 351/218/218
f 434/219/219 48/316/316 218/221/221
f 220/317/317 218/221/221 48/316/316
f 218/221/221 220/317/317 211/223/223
f 142/318/318 211/223/223 220/317/317
f 211/223/223 142/318/318 99/319/319
f 125/320/320 99/319/319 142/318/318
f 99/319/319 125/320/320 101/321/321
f 22/322/322 65/224/224 20/323/323
f 65/224/224 22/322/322 209/222/222
f 274/324/324 209/222/222 22/322/322
f 209/222/222 274/324/324 276/220/220
f 433/301/301 276/220/220 274/324/324
f 276/220/220 433/301/301 135/325/325
f 131/303/303 135/325/325 433/301/301
f 135/325/325 131/303/303 329/326/326
f 172/8/8 231/285/285 445/6/6
f 231/285/285 172/8/8 144/287/287
f 188/10/10 144/287/287 172/8/8
f 144/287/287 188/10/10 186/289/289
f 150/12/12 186/289/289 188/10/10
f 186/289/289 150/12/12 146/327/327
f 148/14/14 146/327/327 150/12/12
f 146/327/327 148/14/14 26/16/16
f 105/260/260 213/328/328 102/258/258
f 213/328/328 105/260/260 216/329/329
f 121/261/261 216/329/329 105/260/260
f 216/329/329 121/261/261 98/330/330
f 100/263/263 98/330/330 121/261/261
f 98/330/330 100/263/263 73/51/51
f 86/265/265 73/51/51 100/263/263
f 73/51/51 86/265/265 90/52/52
f 164/107/107 225/331/331 166/109/109
f 225/331/331 164/107/107 222/332/332
f 154/105/105 222/332/332 164/107/107
f 222/332/332 154/105/105 201/333/333
f 32/103/103 201/333/333 154/105/105
f 201/333/333 32/103/103 245/334/334
f 30/335/335 245/334/334 32/103/103
f 245/334/334 30/335/335 247/336/336
f 426/337/337 428/143/143 402/145/145
f 428/143/143 426/337/337 425/338/338
f 395/339/339 425/338/338 426/337/337
f 425/338/338 395/339/339 429/340/340
f 397/341/341 429/340/340 395/339/339
f 429/340/340 397/341/341 127/134/134
f 120/132/132 127/134/134 397/341/341
f 12/342/342 10/58/58 238/56/56
f 10/58/58 12/342/342 290/343/343
f 294/344/344 290/343/343 12/342/342
f 290/343/343 294/344/344 288/345/345
f 62/346/346 288/345/345 294/344/344
f 288/345/345 62/346/346 286/62/62
f 64/64/64 286/62/62 62/346/346
f 390/154/154 389/17/17 43/15/15
f 389/17/17 390/154/154 423/19/19
f 454/156/156 423/19/19 390/154/154
f 423/19/19 454/156/156 421/21/21
f 408/158/158 421/21/21 454/156/156
f 421/21/21 408/158/158 430/23/23
f 452/138/138 430/23/23 408/158/158
f 58/205/205 103/347/347 60/348/348
f 103/347/347 58/205/205 115/349/349
f 118/204/204 115/349/349 58/205/205
f 115/349/349 118/204/204 71/350/350
f 74/351/351 71/350/350 118/204/204
f 71/350/350 74/351/351 76/352/352
f 443/353/353 76/352/352 74/351/351
f 217/84/84 226/354/354 221/82/82
f 226/354/354 217/84/84 183/355/355
f 215/86/86 183/355/355 217/84/84
f 183/355/355 215/86/86 159/356/356
f 163/357/357 159/356/356 215/86/86
f 159/356/356 163/357/357 161/358/358
f 165/359/359 161/358/358 163/357/357
f 321/360/360 282/361/361 285/362/362
f 282/361/361 321/360/360 326/363/363
f 331/364/364 326/363/363 321/360/360
f 326/363/363 331/364/364 333/365/365
f 335/296/296 333/365/365 331/364/364
f 333/365/365 335/296/296 296/295/295
f 87/366/366 13/367/367 85/368/368
f 13/367/367 87/366/366 8/369/369
f 6/370/370 8/369/369 87/366/366
f 8/369/369 6/370/370 297/371/371
f 305/372/372 297/371/371 6/370/370
f 297/371/371 305/372/372 302/373/373
f 401/374/374 403/101/101 427/99/99
f 403/101/101 401/374/374 398/375/375
f 399/376/376 398/375/375 401/374/374
f 398/375/375 399/376/376 30/335/335
f 34/377/377 30/335/335 399/376/376
f 30/335/335 34/377/377 247/336/336
f 307/378/378 384/379/379 382/380/380
f 384/379/379 307/378/378 375/381/381
f 377/382/382 375/381/381 307/378/378
f 375/381/381 377/382/382 360/383/383
f 371/117/117 360/383/383 377/382/382
f 360/383/383 371/117/117 368/115/115
f 447/167/167 448/384/384 145/169/169
f 448/384/384 447/167/167 316/385/385
f 318/165/165 316/385/385 447/167/167
f 316/385/385 318/165/165 320/386/386
f 363/387/387 320/386/386 318/165/165
f 320/386/386 363/387/387 365/388/388
f 373/125/125 382/380/380 379/127/127
f 382/380/380 373/125/125 307/378/378
f 309/123/123 307/378/378 373/125/125
f 307/378/378 309/123/123 304/389/389
f 364/121/121 304/389/389 309/123/123
f 304/389/389 364/121/121 362/119/119
f 256/390/390 65/224/224 258/391/391
f 65/224/224 256/390/390 20/323/323
f 254/392/392 20/323/323 256/390/390
f 20/323/323 254/392/392 383/311/311
f 18/393/393 383/311/311 254/392/392
f 383/311/311 18/393/393 348/310/310
f 216/329/329 133/394/394 213/328/328
f 133/394/394 216/329/329 128/395/395
f 130/396/396 128/395/395 216/329/329
f 128/395/395 130/396/396 78/397/397
f 75/53/53 78/397/397 130/396/396
f 78/397/397 75/53/53 82/55/55
f 261/398/398 251/126/126 259/128/128
f 251/126/126 261/398/398 253/399/399
f 263/400/400 253/399/399 261/398/398
f 253/399/399 263/400/400 191/401/401
f 265/236/236 191/401/401 263/400/400
f 191/401/401 265/236/236 255/235/235
f 273/402/402 271/292/292 313/294/294
f 271/292/292 273/402/402 275/403/403
f 277/404/404 275/403/403 273/402/402
f 275/403/403 277/404/404 282/361/361
f 279/405/405 282/361/361 277/404/404
f 282/361/361 279/405/405 285/362/362
f 354/406/406 317/407/407 384/379/379
f 317/407/407 354/406/406 301/408/408
f 352/409/409 301/408/408 354/406/406
f 301/408/408 352/409/409 343/410/410
f 357/411/411 343/410/410 352/409/409
f 357/411/411 368/115/115 346/111/111
f 368/115/115 357/411/411 360/383/383
f 354/406/406 360/383/383 357/411/411
f 360/383/383 354/406/406 375/381/381
f 384/379/379 375/381/381 354/406/406
f 278/412/412 283/413/413 280/414/414
f 283/413/413 278/412/412 325/415/415
f 365/388/388 325/415/415 278/412/412
f 325/415/415 365/388/388 367/416/416
f 363/387/387 367/416/416 365/388/388
f 450/417/417 278/412/412 280/414/414
f 278/412/412 450/417/417 448/384/384
f 314/418/418 448/384/384 450/417/417
f 448/384/384 314/418/418 145/169/169
f 143/171/171 145/169/169 314/418/418
f 146/327/327 104/291/291 186/289/289
f 104/291/291 146/327/327 61/419/419
f 24/420/420 61/419/419 146/327/327
f 1/421/421 61/419/419 24/420/420
f 359/422/422 1/421/421 24/420/420
f 194/277/277 97/251/251 178/148/148
f 97/251/251 194/277/277 94/423/423
f 41/424/424 94/423/423 194/277/277
f 94/423/423 41/424/424 416/47/47
f 419/45/45 416/47/47 41/424/424
f 391/252/252 392/96/96 393/98/98
f 392/96/96 391/252/252 350/425/425
f 266/253/253 350/425/425 391/252/252
f 350/425/425 266/253/253 47/426/426
f 68/254/254 47/426/426 266/253/253
f 486/427/427 14/199/199 11/428/428
f 14/199/199 486/427/427 9/197/197
f 44/429/429 9/197/197 486/427/427
f 9/197/197 44/429/429 46/195/195
f 485/193/193 46/195/195 44/429/429
f 253/399/399 151/124/124 251/126/126
f 151/124/124 253/399/399 193/430/430
f 191/401/401 193/430/430 253/399/399
f 193/430/430 191/401/401 189/233/233
f 257/234/234 189/233/233 191/401/401
f 252/279/279 41/424/424 194/277/277
f 41/424/424 252/279/279 50/431/431
f 203/43/43 50/431/431 252/279/279
f 50/431/431 203/43/43 419/45/45
f 198/432/432 245/334/334 247/336/336
f 245/334/334 198/432/432 201/333/333
f 225/331/331 201/333/333 198/432/432
f 201/333/333 225/331/331 222/332/332
f 341/297/297 357/411/411 346/111/111
f 357/411/411 341/297/297 343/410/410
f 298/299/299 343/410/410 341/297/297
f 343/410/410 298/299/299 301/408/408
f 246/74/74 177/433/433 181/72/72
f 177/433/433 246/74/74 226/354/354
f 235/76/76 226/354/354 246/74/74
f 226/354/354 235/76/76 221/82/82
f 483/434/434 486/427/427 11/428/428
f 486/427/427 483/434/434 44/429/429
f 42/435/435 44/429/429 483/434/434
f 44/429/429 42/435/435 482/191/191
f 409/245/245 410/49/49 407/140/140
f 410/49/49 409/245/245 91/436/436
f 415/247/247 91/436/436 409/245/245
f 91/436/436 415/247/247 39/249/249
f 470/183/183 472/201/201 471/185/185
f 472/201/201 470/183/183 480/437/437
f 468/181/181 480/437/437 470/183/183
f 480/437/437 468/181/181 479/179/179
f 244/438/438 219/83/83 185/81/81
f 219/83/83 244/438/438 212/85/85
f 208/439/439 212/85/85 244/438/438
f 212/85/85 208/439/439 206/89/89
f 473/440/440 14/199/199 472/201/201
f 14/199/199 473/440/440 11/428/428
f 474/177/177 11/428/428 473/440/440
f 11/428/428 474/177/177 483/434/434
f 463/269/269 458/441/441 459/268/268
f 458/441/441 463/269/269 462/442/442
f 466/270/270 462/442/442 463/269/269
f 462/442/442 466/270/270 465/271/271
f 284/443/443 385/22/22 281/24/24
f 385/22/22 284/443/443 431/20/20
f 323/444/444 431/20/20 284/443/443
f 431/20/20 323/444/444 356/445/445
f 83/446/446 65/224/224 260/226/226
f 65/224/224 83/446/446 258/391/391
f 137/447/447 258/391/391 83/446/446
f 258/391/391 137/447/447 243/448/448
f 331/364/364 338/298/298 335/296/296
f 338/298/298 331/364/364 366/300/300
f 324/449/449 366/300/300 331/364/364
f 175/450/450 159/356/356 179/451/451
f 159/356/356 175/450/450 183/355/355
f 226/354/354 183/355/355 175/450/450
f 193/430/430 155/122/122 151/124/124
f 155/122/122 193/430/430 241/231/231
f 189/233/233 241/231/231 193/430/430
f 24/420/420 387/18/18 359/422/422
f 387/18/18 24/420/420 26/16/16
f 146/327/327 26/16/16 24/420/420
f 297/371/371 13/367/367 8/369/369
f 13/367/367 297/371/371 295/452/452
f 299/453/453 295/452/452 297/371/371
f 456/454/454 458/441/441 455/455/455
f 458/441/441 456/454/454 459/268/268
f 40/267/267 459/268/268 456/454/454
f 411/456/456 413/141/141 412/142/142
f 413/141/141 411/456/456 406/139/139
f 138/137/137 406/139/139 411/456/456
f 411/456/456 127/134/134 141/136/136
f 127/134/134 411/456/456 429/340/340
f 412/142/142 429/340/340 411/456/456
f 290/343/343 292/60/60 10/58/58
f 292/60/60 290/343/343 286/62/62
f 288/345/345 286/62/62 290/343/343
f 156/275/275 207/35/35 227/37/37
f 207/35/35 156/275/275 158/33/33
f 160/273/273 158/33/33 156/275/275
f 264/206/206 74/351/351 118/204/204
f 74/351/351 264/206/206 106/210/210
f 113/208/208 106/210/210 264/206/206
f 82/55/55 80/457/457 78/397/397
f 80/457/457 82/55/55 136/458/458
f 242/459/459 136/458/458 82/55/55
f 342/460/460 332/68/68 334/66/66
f 332/68/68 342/460/460 310/312/312
f 59/461/461 310/312/312 342/460/460
f 274/324/324 376/305/305 433/301/301
f 376/305/305 274/324/324 70/307/307
f 378/309/309 70/307/307 274/324/324
f 63/209/209 96/266/266 439/264/264
f 96/266/266 63/209/209 184/462/462
f 54/463/463 184/462/462 63/209/209
f 59/461/461 300/315/315 88/314/314
f 300/315/315 59/461/461 294/344/344
f 62/346/346 294/344/344 59/461/461
f 190/149/149 55/9/9 174/7/7
f 55/9/9 190/149/149 453/11/11
f 152/13/13 453/11/11 190/149/149
f 267/464/464 259/128/128 157/130/130
f 259/128/128 267/464/464 261/398/398
f 228/465/465 226/354/354 175/450/450
f 226/354/354 228/465/465 177/433/433
f 20/323/323 274/324/324 22/322/322
f 274/324/324 20/323/323 383/311/311
f 114/31/31 160/273/273 117/1/1
f 160/273/273 114/31/31 158/33/33
f 135/325/325 353/92/92 276/220/220
f 353/92/92 135/325/325 329/326/326
f 92/466/466 87/366/366 95/467/467
f 87/366/366 92/466/466 6/370/370
f 270/274/274 174/7/7 236/5/5
f 174/7/7 270/274/274 178/148/148
f 89/468/468 87/366/366 85/368/368
f 87/366/366 89/468/468 95/467/467
f 420/153/153 414/246/246 422/155/155
f 414/246/246 420/153/153 45/152/152
f 196/278/278 205/39/39 250/41/41
f 205/39/39 196/278/278 229/276/276
f 243/448/448 256/390/390 258/391/391
f 256/390/390 243/448/448 18/393/393
f 83/446/446 81/228/228 137/447/447
f 81/228/228 83/446/446 260/226/226
f 229/276/276 227/37/37 205/39/39
f 227/37/37 229/276/276 156/275/275
f 365/388/388 316/385/385 320/386/386
f 316/385/385 365/388/388 278/412/412
f 271/292/292 333/365/365 296/295/295
f 333/365/365 271/292/292 275/403/403
f 380/469/469 314/418/418 450/417/417
f 314/418/418 380/469/469 369/173/173
f 361/470/470 325/415/415 367/416/416
f 325/415/415 361/470/470 322/471/471
f 308/313/313 59/461/461 88/314/314
f 59/461/461 308/313/313 310/312/312
f 282/361/361 333/365/365 275/403/403
f 333/365/365 282/361/361 326/363/363
f 240/57/57 242/459/459 82/55/55
f 242/459/459 240/57/57 15/59/59
f 128/395/395 80/457/457 133/394/394
f 80/457/457 128/395/395 78/397/397
f 45/152/152 37/248/248 414/246/246
f 37/248/248 45/152/152 180/150/150
f 98/330/330 130/396/396 216/329/329
f 130/396/396 98/330/330 73/51/51
f 84/50/50 238/56/56 79/54/54
f 238/56/56 84/50/50 12/342/342
f 53/186/186 476/240/240 31/184/184
f 476/240/240 53/186/186 27/188/188
f 147/213/213 108/262/262 107/215/215
f 108/262/262 147/213/213 440/211/211
f 425/338/338 412/142/142 428/143/143
f 412/142/142 425/338/338 429/340/340
f 398/375/375 32/103/103 403/101/101
f 32/103/103 398/375/375 30/335/335
f 99/319/319 262/225/225 211/223/223
f 262/225/225 99/319/319 101/321/321
f 68/254/254 142/318/318 220/317/317
f 142/318/318 68/254/254 109/255/255
f 462/442/442 461/272/272 458/441/441
f 461/272/272 462/442/442 465/271/271
f 4/281/281 484/190/190 2/282/282
f 484/190/190 4/281/281 7/194/194
f 479/179/179 472/201/201 480/437/437
f 472/201/201 479/179/179 473/440/440
f 23/198/198 29/202/202 25/200/200
f 29/202/202 23/198/198 49/196/196
f 443/353/353 441/212/212 110/214/214
f 441/212/212 443/353/353 74/351/351
f 233/472/472 110/214/214 139/216/216
f 110/214/214 233/472/472 443/353/353
f 379/127/127 311/473/473 386/129/129
f 311/473/473 379/127/127 382/380/380
f 64/64/64 342/460/460 334/66/66
f 342/460/460 64/64/64 62/346/346
f 195/474/474 261/398/398 267/464/464
f 261/398/398 195/474/474 263/400/400
f 355/475/475 361/470/470 358/476/476
f 361/470/470 355/475/475 322/471/471
f 163/357/357 171/88/88 165/359/359
f 171/88/88 163/357/357 215/86/86
f 197/477/477 159/356/356 161/358/358
f 159/356/356 197/477/477 179/451/451
f 168/478/478 171/88/88 173/90/90
f 171/88/88 168/478/478 165/359/359
f 223/80/80 235/76/76 230/78/78
f 235/76/76 223/80/80 221/82/82
f 239/232/232 204/73/73 200/230/230
f 204/73/73 239/232/232 249/71/71
f 182/151/151 152/13/13 190/149/149
f 152/13/13 182/151/151 43/15/15
f 371/117/117 304/389/389 362/119/119
f 304/389/389 371/117/117 377/382/382
f 437/29/29 117/1/1 140/3/3
f 117/1/1 437/29/29 114/31/31
f 356/445/445 387/18/18 431/20/20
f 387/18/18 356/445/445 359/422/422
f 444/284/284 442/479/479 234/2/2
f 442/479/479 444/284/284 77/286/286
f 451/25/25 452/138/138 381/27/27
f 452/138/138 451/25/25 430/23/23
f 372/480/480 318/165/165 374/163/163
f 318/165/165 372/480/480 363/387/387
f 192/250/250 180/150/150 176/147/147
f 180/150/150 192/250/250 37/248/248
f 94/423/423 39/249/249 97/251/251
f 39/249/249 94/423/423 91/436/436
f 214/481/481 262/225/225 101/321/321
f 262/225/225 214/481/481 134/227/227
f 330/482/482 129/172/172 436/174/174
f 129/172/172 330/482/482 132/70/70
f 184/462/462 93/161/161 96/266/266
f 93/161/161 184/462/462 3/159/159
f 440/211/211 439/264/264 108/262/262
f 439/264/264 440/211/211 63/209/209
f 405/44/44 400/146/146 404/144/144
f 400/146/146 405/44/44 35/42/42
f 418/46/46 404/144/144 417/48/48
f 404/144/144 418/46/46 405/44/44
f 91/436/436 416/47/47 410/49/49
f 416/47/47 91/436/436 94/423/423
f 15/59/59 17/483/483 242/459/459
f 17/483/483 15/59/59 347/61/61
f 411/456/456 141/136/136 138/137/137
f 44/429/429 482/191/191 485/193/193
f 342/460/460 62/346/346 59/461/461
f 384/379/379 311/473/473 382/380/380
f 265/236/236 263/400/400 195/474/474
f 388/484/484 311/473/473 384/379/379
f 317/407/407 388/484/484 384/379/379
f 202/237/237 265/236/236 269/485/485
f 269/485/485 265/236/236 195/474/474
f 162/108/108 169/110/110 111/256/256
f 106/210/210 441/212/212 74/351/351
f 220/317/317 48/316/316 69/486/486
f 130/396/396 73/51/51 75/53/53
f 109/255/255 123/257/257 142/318/318
f 52/207/207 54/463/463 63/209/209
f 377/382/382 307/378/378 304/389/389
f 212/85/85 206/89/89 210/87/87
f 232/77/77 202/237/237 187/79/79
f 257/234/234 191/401/401 255/235/235
f 331/364/364 321/360/360 324/449/449
f 354/406/406 357/411/411 352/409/409
f 322/471/471 283/413/413 325/415/415
f 316/385/385 278/412/412 448/384/384
f 314/418/418 369/173/173 143/171/171
f 256/390/390 18/393/393 254/392/392
f 297/371/371 302/373/373 299/453/453
f 274/324/324 383/311/311 378/309/309
f 41/424/424 50/431/431 419/45/45
