# Blender v2.79 (sub 0) OBJ File: ''
# www.blender.org
mtllib face 5.mtl
o n0b0_n0b0.003
v 0.466016 1.200391 0.000000
v 3.593750 1.463281 2.588672
v 3.593750 1.463281 2.588672
v 4.045703 -0.587891 0.000000
v 2.864453 1.668750 2.724219
v 4.341406 -0.973828 0.000000
v 4.341406 -0.973828 0.000000
v 2.948437 1.775781 2.334766
v 2.948437 1.775781 2.334766
v 4.839453 -0.839063 0.000000
v 3.579297 1.589844 2.236719
v 3.579297 1.589844 2.236719
v 3.579297 1.589844 2.236719
v 3.579297 1.589844 2.236719
v 6.507031 -0.185156 0.000000
v 4.733594 1.163281 1.901172
v 4.733594 1.163281 1.901172
v 4.733594 1.163281 1.901172
v 4.733594 1.163281 1.901172
v 5.926172 -0.416406 0.000000
v 5.926172 -0.416406 0.000000
v 5.598438 0.837109 1.144922
v 5.598438 0.837109 1.144922
v 5.598438 0.837109 1.144922
v 5.598438 0.837109 1.144922
v 6.814844 -0.164844 0.000000
v 5.995703 0.671094 0.000000
v 5.995703 0.671094 0.000000
v 5.995703 0.671094 0.000000
v 5.995703 0.671094 0.000000
v 6.923047 0.031641 0.000000
v 6.923047 0.031641 0.000000
v 5.598438 0.837109 -1.144922
v 5.598438 0.837109 -1.144922
v 5.598438 0.837109 -1.144922
v 5.598438 0.837109 -1.144922
v 5.612110 0.061328 0.000000
v 4.733594 1.163281 -1.901172
v 4.733594 1.163281 -1.901172
v 4.733594 1.163281 -1.901172
v 4.733594 1.163281 -1.901172
v 4.401563 0.086719 0.000000
v 3.579297 1.589844 -2.236719
v 3.579297 1.589844 -2.236719
v 3.579297 1.589844 -2.236719
v 3.579297 1.589844 -2.236719
v 2.478516 0.287500 -1.897266
v 2.948437 1.775781 -2.334766
v 2.948437 1.775781 -2.334766
v 3.221484 -0.007031 -1.472266
v 2.926563 1.782422 -2.626953
v 1.505859 0.487109 -2.112109
v 3.615234 1.579297 -2.500781
v 3.615234 1.579297 -2.500781
v 1.006641 0.696094 -1.982813
v 4.876563 1.121484 -2.143750
v 4.876563 1.121484 -2.143750
v 3.420313 0.038672 -2.243359
v 5.814063 0.744922 -1.323047
v 5.814063 0.744922 -1.323047
v 4.056250 1.090234 -3.045313
v 6.251953 0.566797 0.000000
v 6.251953 0.566797 0.000000
v 3.406641 1.129297 -2.984766
v 5.814063 0.744922 1.323047
v 5.814063 0.744922 1.323047
v 4.525391 0.325781 -1.361719
v 4.876563 1.121484 2.143750
v 4.876563 1.121484 2.143750
v 1.831250 1.020313 -3.192578
v 3.615234 1.579297 2.500781
v 3.615234 1.579297 2.500781
v 2.543750 1.246484 -3.172656
v 2.926563 1.782422 2.626953
v 6.450391 0.012891 -1.333594
v 4.456250 5.344141 0.000000
v 6.172266 -0.021094 -1.261328
v 4.187109 5.099609 0.000000
v 5.692578 -0.221484 -1.196875
v 5.692578 -0.221484 -1.196875
v 4.104688 5.010547 -1.382031
v 4.104688 5.010547 -1.382031
v 4.806641 -0.537109 -1.172656
v 4.806641 -0.537109 -1.172656
v 3.484375 4.244141 -2.244922
v 3.484375 4.244141 -2.244922
v 4.838281 -0.750000 -0.587500
v 2.200391 2.533203 -2.744531
v 4.318750 -0.627344 -1.237109
v 4.318750 -0.627344 -1.237109
v 2.617578 3.167187 -2.608984
v 2.617578 3.167187 -2.608984
v 4.341797 -0.887109 -0.559766
v 4.341797 -0.887109 -0.559766
v 3.837891 4.869141 -1.144922
v 3.837891 4.869141 -1.144922
v 4.445703 -0.157422 -2.077734
v 3.348438 4.096875 -1.921094
v 3.348438 4.096875 -1.921094
v 5.044531 0.189844 -2.095313
v 2.221094 2.555469 -2.355078
v 0.655859 1.053125 -0.931250
v 0.655859 1.053125 -0.931250
v 2.583984 3.130469 -2.256641
v 2.583984 3.130469 -2.256641
v 3.509766 0.601953 -2.746875
v 2.758594 2.114453 -2.724219
v 3.053125 1.063672 -2.988672
v 3.216797 2.739453 -2.588672
v 3.216797 2.739453 -2.588672
v 2.753125 0.642969 -2.855078
v 4.033203 3.742578 -2.224609
v 4.033203 3.742578 -2.224609
v 2.592578 0.436328 -2.549219
v 4.689453 4.565235 -1.382031
v 4.689453 4.565235 -1.382031
v 1.403125 0.819531 -2.712891
v 5.065235 4.878125 0.000000
v 3.856641 0.872656 -2.792969
v 4.857031 4.551953 0.000000
v 4.857031 4.551953 0.000000
v 3.081641 1.683984 -3.111328
v 3.081641 1.683984 -3.111328
v 3.081641 1.683984 -3.111328
v 3.081641 1.683984 -3.111328
v 3.081641 1.683984 -3.111328
v 3.081641 1.683984 -3.111328
v 4.525000 4.275000 -1.144922
v 4.525000 4.275000 -1.144922
v 4.525000 4.275000 -1.144922
v 4.525000 4.275000 -1.144922
v 4.163281 1.214844 -3.002344
v 4.163281 1.214844 -3.002344
v 3.896875 3.566797 -1.901172
v 3.896875 3.566797 -1.901172
v 3.896875 3.566797 -1.901172
v 3.896875 3.566797 -1.901172
v 5.541016 0.357812 -2.070703
v 3.166797 2.678906 -2.236719
v 3.166797 2.678906 -2.236719
v 3.166797 2.678906 -2.236719
v 3.166797 2.678906 -2.236719
v 5.729297 0.438672 -2.134375
v 2.767969 2.103125 -2.334766
v 2.767969 2.103125 -2.334766
v 5.819141 0.632031 -2.158984
v 5.819141 0.632031 -2.158984
v 4.704688 4.425000 -1.323047
v 4.704688 4.425000 -1.323047
v 6.563282 0.216016 -1.336719
v 6.563282 0.216016 -1.336719
v 5.069531 4.728906 0.000000
v 3.140625 1.696875 -2.939453
v 4.689453 4.565235 1.382031
v 4.689453 4.565235 1.382031
v 0.081250 1.882422 0.000000
v 4.104688 5.010547 1.382031
v 4.104688 5.010547 1.382031
v 0.005469 2.529688 0.000000
v 4.033203 3.742578 2.224609
v 4.033203 3.742578 2.224609
v 2.746094 4.350781 0.000000
v 3.484375 4.244141 2.244922
v 3.484375 4.244141 2.244922
v 5.150391 5.212110 0.000000
v 2.758594 2.114453 2.724219
v 3.762110 4.954297 0.000000
v 2.200391 2.533203 2.744531
v 5.241797 5.315625 0.000000
v 5.241797 5.315625 0.000000
v 2.617578 3.167187 2.608984
v 2.617578 3.167187 2.608984
v 1.562891 4.976562 0.000000
v 3.216797 2.739453 2.588672
v 3.216797 2.739453 2.588672
v 2.828516 5.415235 0.000000
v 3.837891 4.869141 1.144922
v 3.837891 4.869141 1.144922
v 4.001172 5.633203 0.000000
v 4.525000 4.275000 1.144922
v 4.525000 4.275000 1.144922
v 4.525000 4.275000 1.144922
v 4.525000 4.275000 1.144922
v 0.291406 3.219141 0.000000
v 3.348438 4.096875 1.921094
v 3.348438 4.096875 1.921094
v 0.757031 4.230859 0.000000
v 3.896875 3.566797 1.901172
v 3.896875 3.566797 1.901172
v 3.896875 3.566797 1.901172
v 3.896875 3.566797 1.901172
v 1.996484 2.905859 0.000000
v 1.996484 2.905859 0.000000
v 3.166797 2.678906 2.236719
v 3.166797 2.678906 2.236719
v 3.166797 2.678906 2.236719
v 3.166797 2.678906 2.236719
v 1.139063 1.343750 -3.172656
v 1.139063 1.343750 -3.172656
v 2.583984 3.130469 2.256641
v 2.583984 3.130469 2.256641
v 1.758594 1.496484 -3.339844
v 1.758594 1.496484 -3.339844
v 2.221094 2.555469 2.355078
v 1.145703 1.932031 -3.272656
v 2.767969 2.103125 2.334766
v 2.767969 2.103125 2.334766
v 0.534375 1.110547 -1.943359
v 0.534375 1.110547 -1.943359
v 4.704688 4.425000 1.323047
v 4.704688 4.425000 1.323047
v 0.137500 1.863281 -1.747266
v 2.307812 2.262891 -1.022266
v 0.149609 2.511719 -1.548437
v 2.519141 2.583984 -1.209766
v 0.518359 3.338281 -1.477344
v 3.035156 3.366797 -1.108203
v 0.445312 2.497266 -2.395313
v 2.348828 2.007031 -1.488672
v 2.273047 2.944531 -1.642969
v 2.273047 2.944531 -1.642969
v 2.665625 2.487500 -1.767578
v 2.930859 4.218750 -1.386328
v 3.279297 3.419531 -1.678906
v 3.084766 3.285156 -2.855860
v 2.342578 1.750000 -0.664062
v 3.266016 3.090235 -2.644922
v 2.453906 1.918750 -1.549219
v 3.964062 4.000391 -2.243750
v 2.779297 2.412500 -1.842578
v 3.061719 2.638672 -2.791016
v 3.061719 2.638672 -2.791016
v 3.393359 3.344531 -1.747266
v 2.865234 1.654297 -3.187109
v 2.865234 1.654297 -3.187109
v 2.596875 1.716797 -0.559375
v 3.005469 2.589844 -2.982813
v 3.005469 2.589844 -2.982813
v 3.005469 2.589844 -2.982813
v 3.005469 2.589844 -2.982813
v 2.693750 1.835547 -1.312109
v 3.267188 3.148438 -2.832422
v 3.267188 3.148438 -2.832422
v 2.984766 2.277344 -1.549219
v 3.989844 4.081250 -2.413281
v 3.989844 4.081250 -2.413281
v 3.598828 3.208984 -1.422266
v 1.975391 2.542187 -3.247266
v 3.015234 2.101172 -0.578516
v 2.166406 3.723438 -2.835156
v 3.589844 3.001172 -0.504687
v 2.209766 4.718750 -2.037109
v 2.378516 2.676563 0.000000
v 2.881641 4.667578 -2.225781
v 3.496094 3.062891 0.000000
v 1.580859 4.844922 -1.141406
v 4.276953 4.314063 0.000000
v 0.866797 4.151563 -1.339453
v 4.286328 4.904687 0.000000
v 0.724219 1.174609 -2.587891
v 0.724219 1.174609 -2.587891
v 3.958984 4.811719 0.000000
v 2.877734 3.460156 -2.766797
v 2.941016 3.428516 0.000000
v 3.551172 4.468359 -2.292578
v 2.510156 1.760547 0.000000
v 4.687500 5.574219 0.000000
v 2.746094 2.208984 0.000000
v 2.478516 0.287500 1.897266
v 2.248828 1.811719 0.000000
v 3.221484 -0.007031 1.472266
v 2.149219 1.908203 0.000000
v 1.505859 0.487109 2.112109
v 3.836719 4.421875 -1.048437
v 1.006641 0.696094 1.982813
v 4.207031 4.450781 -1.094531
v 0.655859 1.053125 0.931250
v 0.655859 1.053125 0.931250
v 4.142969 4.034766 -0.914453
v 3.420313 0.038672 2.243359
v 2.307812 2.262891 1.022266
v 4.056250 1.090234 3.045313
v 2.519141 2.583984 1.209766
v 3.406641 1.129297 2.984766
v 3.133203 3.516016 1.108203
v 4.525391 0.325781 1.361719
v 2.348828 2.007031 1.488672
v 2.273047 2.944531 1.642969
v 2.273047 2.944531 1.642969
v 2.665625 2.487500 1.767578
v 1.139063 1.343750 3.172656
v 1.139063 1.343750 3.172656
v 3.279297 3.419531 1.678906
v 1.831250 1.020313 3.192578
v 2.342578 1.750000 0.664062
v 1.758594 1.496484 3.339844
v 1.758594 1.496484 3.339844
v 2.453906 1.918750 1.549219
v 2.543750 1.246484 3.172656
v 2.779297 2.412500 1.842578
v 6.172266 -0.021094 1.261328
v 3.393359 3.344531 1.747266
v 6.450391 0.012891 1.333594
v 3.836719 4.421875 1.048437
v 5.692578 -0.221484 1.196875
v 5.692578 -0.221484 1.196875
v 4.147656 4.489844 1.094531
v 4.838281 -0.750000 0.587500
v 2.596875 1.716797 0.559375
v 4.806641 -0.537109 1.172656
v 4.806641 -0.537109 1.172656
v 2.693750 1.835547 1.312109
v 4.341797 -0.887109 0.559766
v 4.341797 -0.887109 0.559766
v 2.984766 2.277344 1.549219
v 4.318750 -0.627344 1.237109
v 4.318750 -0.627344 1.237109
v 3.598828 3.208984 1.422266
v 5.044531 0.189844 2.095313
v 4.142969 4.034766 0.914453
v 4.445703 -0.157031 2.077734
v 3.015234 2.101172 0.578516
v 0.534375 1.110547 1.943359
v 0.534375 1.110547 1.943359
v 3.589844 3.001172 0.504687
v 2.753125 0.642969 2.855078
v 4.482031 -2.061719 0.000000
v 3.509766 0.601953 2.746875
v 4.075781 -1.488672 0.000000
v 3.053125 1.063672 2.988672
v 4.350391 -1.600000 0.000000
v 2.592578 0.436328 2.549219
v 3.921484 -2.321484 0.000000
v 0.724219 1.174609 2.587891
v 0.724219 1.174609 2.587891
v 3.156250 -0.679688 -1.876953
v 1.403125 0.819531 2.712891
v 3.626953 -0.107422 -1.538281
v 3.856641 0.872656 2.793360
v 3.142578 -0.570312 -2.025000
v 4.163281 1.214844 3.002344
v 4.163281 1.214844 3.002344
v 3.496094 -0.014844 -1.689844
v 3.081641 1.683984 3.111328
v 3.081641 1.683984 3.111328
v 3.081641 1.683984 3.111328
v 3.081641 1.683984 3.111328
v 3.081641 1.683984 3.111328
v 3.081641 1.683984 3.111328
v 3.221484 -0.007031 -1.472266
v 5.729297 0.438672 2.134375
v 2.956641 -0.447266 -2.083203
v 5.541016 0.357812 2.070703
v 2.777344 -0.432031 -1.946875
v 5.819141 0.632031 2.158984
v 5.819141 0.632031 2.158984
v 2.782422 -1.543359 -1.927734
v 6.563282 0.216016 1.336719
v 6.563282 0.216016 1.336719
v 3.101953 -2.007812 -1.652344
v 2.865234 1.654297 3.187109
v 2.865234 1.654297 3.187109
v 3.064063 -0.681250 -1.757812
v 3.006641 2.589453 2.982813
v 3.006641 2.589453 2.982813
v 3.006641 2.589453 2.982813
v 3.408203 -1.908594 -1.446875
v 3.061719 2.638672 2.791016
v 3.061719 2.638672 2.791016
v 2.794922 -1.551953 -2.106641
v 3.140625 1.696875 2.939453
v 1.872266 -2.528906 -2.118750
v 1.145703 1.932031 3.272656
v 2.060156 -2.851172 -1.738672
v 0.137500 1.863281 1.747266
v 4.170312 -2.310547 -1.226953
v 0.149609 2.511719 1.548437
v 3.936719 -2.744141 -1.039062
v 0.445312 2.497266 2.395313
v 4.417188 -2.139844 -0.683594
v 0.518359 3.338281 1.477344
v 3.492578 -2.510547 -0.731641
v 2.930859 4.218750 1.386328
v 3.507422 -0.119922 -1.294141
v 3.551172 4.468359 2.292578
v 3.974219 -1.554297 -0.562891
v 3.084766 3.285156 2.855860
v 2.583984 -2.734766 -1.398828
v 2.877734 3.460156 2.766797
v 3.761328 -1.690625 -1.071094
v 3.266016 3.090235 2.644922
v 2.492969 -0.830078 -2.167969
v 3.963672 4.000782 2.243750
v 2.241797 -1.384766 -2.290625
v 3.989844 4.081250 2.413281
v 3.989844 4.081250 2.413281
v 2.628516 -0.859375 -2.297656
v 3.267188 3.148438 2.832422
v 3.267188 3.148438 2.832422
v 2.353125 -1.460938 -2.417969
v 1.975391 2.542187 3.247266
v 2.878906 -1.008594 -2.204688
v 2.166406 3.723438 2.835156
v 2.700781 -1.591406 -2.329688
v 2.209766 4.718750 2.037109
v 2.078125 -2.075000 -2.327734
v 2.883984 4.666016 2.225781
v 2.413281 -2.426953 -2.319141
v 1.580859 4.844922 1.141406
v 2.408984 -2.874609 -2.084375
v 0.866797 4.151563 1.339453
v 2.775391 -2.025000 -2.108984
v 3.880859 -0.279687 -0.939063
v 2.721484 -1.962891 -1.883984
v 3.880859 -0.279687 0.939063
v 2.824610 -3.043750 -1.882031
v 0.520703 1.880469 -2.737891
v 3.241797 -3.039062 -1.641797
v 0.520703 1.880469 2.737891
v 3.039062 -2.624219 -2.110938
v 1.130469 2.506641 -3.094531
v 3.390234 -2.610156 -1.913672
v 1.326953 3.729687 -2.369531
v 4.044531 -1.837500 -1.219141
v 1.130469 2.506641 3.094531
v 4.294922 -1.673828 -0.660547
v 1.326953 3.729687 2.369531
v 2.094531 -1.826563 -2.282031
v 2.577734 5.253516 1.053125
v 3.256250 -2.124219 -1.950781
v 3.728125 5.402344 1.138672
v 3.659375 -2.022266 -1.633594
v 4.483984 5.335547 1.178516
v 4.341406 -2.439063 0.000000
v 5.007812 5.051563 1.225781
v 5.007812 5.051563 1.225781
v 4.253516 -2.529688 -0.578906
v 4.921484 4.958984 1.159375
v 3.564844 -2.948828 -1.371094
v 2.577734 5.253516 -1.053125
v 3.781250 -2.521875 -1.633984
v 3.728125 5.402344 -1.138672
v 3.993750 -2.581250 0.000000
v 4.483984 5.335547 -1.177344
v 3.948437 -2.657422 -0.477734
v 5.007812 5.051563 -1.224609
v 5.007812 5.051563 -1.224609
v 3.637110 -2.762891 -0.783984
v 4.921484 4.958984 -1.157812
v 3.199610 -2.907813 -1.107813
v 3.803516 4.385156 -2.418750
v 3.835547 -2.403516 -0.427734
v 4.835547 5.375782 -1.228906
v 3.167578 -2.614063 -1.026563
v 5.112110 5.654687 0.000000
v 3.156250 -0.679688 1.876953
v 4.835547 5.375782 1.230469
v 3.626953 -0.107422 1.538281
v 3.803516 4.385156 2.418750
v 3.142578 -0.570312 2.025000
v 2.771094 1.010156 -1.502344
v 3.496094 -0.014844 1.689844
v 2.629688 0.759766 0.000000
v 3.221484 -0.007031 1.472266
v 2.771094 1.010156 1.502344
v 2.956641 -0.447266 2.083203
v 4.922266 0.943750 -2.758594
v 4.922266 0.943750 -2.758594
v 2.777344 -0.432031 1.946875
v 4.824219 0.784766 -2.765234
v 2.782422 -1.543359 1.927734
v 4.922266 0.943750 2.758594
v 4.922266 0.943750 2.758594
v 3.101953 -2.007812 1.652344
v 4.824219 0.784766 2.765625
v 3.064063 -0.681250 1.757812
v 2.172656 1.828125 -1.549219
v 3.408203 -1.908594 1.446875
v 1.961328 1.756641 0.000000
v 2.794922 -1.551953 2.106641
v 2.172656 1.828125 1.549219
v 1.872266 -2.528906 2.118750
v 4.442578 4.479688 -1.799609
v 2.060156 -2.851172 1.738672
v 4.507031 4.571094 -1.936719
v 4.507031 4.571094 -1.936719
v 4.170312 -2.310547 1.226953
v 4.335938 4.889844 -1.925000
v 3.936719 -2.744141 1.039062
v 4.071094 4.938672 -1.730469
v 4.417188 -2.139844 0.683594
v 4.442578 4.479688 1.799609
v 3.492578 -2.510547 0.731641
v 4.507031 4.571094 1.936719
v 4.507031 4.571094 1.936719
v 3.507422 -0.119922 1.294141
v 4.335938 4.889844 1.925000
v 3.974219 -1.554297 0.562891
v 4.059375 4.946875 1.729297
v 2.583984 -2.734766 1.398828
v 2.807031 2.560938 3.085938
v 3.761328 -1.690625 1.071094
v 2.807031 2.560938 -3.085938
v 2.492969 -0.830078 2.167969
v 2.989844 2.015234 2.908594
v 2.241797 -1.384766 2.290625
v 2.938281 1.996094 3.098047
v 2.938281 1.996094 3.098047
v 2.628516 -0.859375 2.297656
v 2.989844 2.015234 -2.908594
v 2.353125 -1.460938 2.417969
v 2.937891 1.996484 -3.097656
v 2.937891 1.996484 -3.097656
v 2.878906 -1.008594 2.204688
v 2.737891 1.969922 -3.193750
v 2.700781 -1.591406 2.329688
v 1.823047 1.928516 -3.335938
v 2.078125 -2.075000 2.327734
v 2.737891 1.969922 3.193750
v 2.413281 -2.426953 2.319141
v 1.823047 1.928516 3.335938
v 2.408984 -2.874609 2.084375
v 2.238281 1.585938 3.230078
v 2.238281 1.585938 3.230078
v 2.775391 -2.025000 2.108984
v 2.272266 1.933984 3.225000
v 2.721484 -1.962891 1.883984
v 2.347266 2.552734 3.151172
v 2.824610 -3.043750 1.882031
v 2.238281 1.585938 -3.230078
v 2.238281 1.585938 -3.230078
v 3.241797 -3.039062 1.641797
v 2.272266 1.933984 -3.225000
v 3.039062 -2.624219 2.110938
v 2.347266 2.552734 -3.151172
v 3.390234 -2.610156 1.913672
v 6.810547 0.086719 -0.668359
v 6.810547 0.086719 -0.668359
v 4.044531 -1.837500 1.219141
v 6.700000 -0.112891 -0.666797
v 4.294922 -1.673828 0.660547
v 6.407032 -0.140234 -0.630469
v 2.094531 -1.826563 2.282031
v 6.407032 -0.140234 0.630469
v 3.256250 -2.124219 1.950781
v 6.700000 -0.112891 0.666797
v 3.659375 -2.022266 1.633594
v 6.810547 0.086719 0.668359
v 6.810547 0.086719 0.668359
v 4.253516 -2.529688 0.578906
v 4.651953 5.528516 -0.526563
v 3.564844 -2.948828 1.371094
v 5.039453 5.587500 -0.577734
v 3.781250 -2.521875 1.633984
v 5.187500 5.248047 -0.591016
v 5.187500 5.248047 -0.591016
v 3.948437 -2.657422 0.477734
v 5.091016 5.145703 -0.570312
v 3.637110 -2.762891 0.783984
v 5.091016 5.145703 0.570312
v 3.199610 -2.907813 1.107813
v 5.187500 5.248047 0.591016
v 5.187500 5.248047 0.591016
v 3.835547 -2.403516 0.427734
v 5.039062 5.587891 0.577734
v 3.167578 -2.614063 1.026563
v 4.652344 5.528125 0.526563
v 4.034766 1.225391 -2.770313
v 4.875391 0.924219 -2.466016
v 5.546484 0.655078 -1.971094
v 6.163281 0.314453 -1.342188
v 6.521484 0.128516 -0.645312
v 6.616406 0.080859 0.000000
v 6.521094 0.128516 0.644922
v 6.104688 0.312109 1.342578
v 5.499609 0.637109 1.942969
v 4.862110 0.899219 2.423438
v 4.034766 1.225391 2.770313
v 4.450391 0.531250 2.444531
v 4.450391 0.531250 -2.444141
v 2.259375 0.870703 3.023828
v 2.090235 0.601953 2.630859
v 2.090235 0.601953 -2.630859
v 2.259375 0.870703 -3.023828
v 5.944141 -0.300000 0.000000
v 5.944141 -0.300000 0.000000
v 5.492969 -0.100000 1.382031
v 5.492969 -0.100000 1.382031
v 4.569531 0.288281 2.204297
v 4.569531 0.288281 2.204297
v 2.696094 0.996875 2.704297
v 5.604297 -0.149609 0.000000
v 5.604297 -0.149609 0.000000
v 5.205469 0.026953 1.132422
v 5.205469 0.026953 1.132422
v 4.386328 0.369531 1.880859
v 4.386328 0.369531 1.880859
v 2.723828 0.984375 2.314453
v 3.326172 0.761328 2.216406
v 3.326172 0.761328 2.216406
v 3.371875 0.741016 2.568359
v 3.371875 0.741016 2.568359
v 5.492969 -0.100000 -1.382031
v 5.492969 -0.100000 -1.382031
v 4.569531 0.288281 -2.204297
v 4.569531 0.288281 -2.204297
v 2.696094 0.996875 -2.704297
v 3.371875 0.741016 -2.568359
v 3.371875 0.741016 -2.568359
v 5.205469 0.026953 -1.132422
v 5.205469 0.026953 -1.132422
v 4.386328 0.369531 -1.880859
v 4.386328 0.369531 -1.880859
v 2.723828 0.984375 -2.314453
v 3.326172 0.761328 -2.216406
v 3.326172 0.761328 -2.216406
v 2.864453 1.668750 -2.724219
v 3.593750 1.463281 -2.588672
v 3.593750 1.463281 -2.588672
v 4.891016 0.994531 -2.224609
v 4.891016 0.994531 -2.224609
v 5.855469 0.610156 -1.382031
v 5.855469 0.610156 -1.382031
v 6.307422 0.428125 0.000000
v 6.307422 0.428125 0.000000
v 5.855469 0.610156 1.382031
v 5.855469 0.610156 1.382031
v 4.891016 0.994531 2.224609
v 4.891016 0.994531 2.224609
vt 0.561401 0.334534
vt 0.526733 0.325928
vt 0.510925 0.330200
vt 0.561401 0.317261
vt 0.596069 0.325928
vt 0.602478 0.317261
vt 0.611938 0.330200
vt 0.621399 0.317261
vt 0.623901 0.317261
vt 0.620667 0.296204
vt 0.613953 0.317261
vt 0.609680 0.296204
vt 0.578552 0.296204
vt 0.597290 0.277771
vt 0.561401 0.265442
vt 0.604370 0.266724
vt 0.561401 0.251770
vt 0.602539 0.269531
vt 0.561401 0.255310
vt 0.598999 0.296204
vt 0.561401 0.296204
vt 0.523865 0.296204
vt 0.520386 0.317261
vt 0.501465 0.317261
vt 0.498901 0.317261
vt 0.508850 0.330566
vt 0.516907 0.329163
vt 0.546753 0.332825
vt 0.546204 0.321838
vt 0.561401 0.332825
vt 0.561401 0.324646
vt 0.576599 0.321838
vt 0.561401 0.296204
vt 0.392151 0.475342
vt 0.337524 0.494995
vt 0.393738 0.497559
vt 0.321838 0.478455
vt 0.372192 0.461792
vt 0.315613 0.461792
vt 0.313171 0.440002
vt 0.254150 0.447876
vt 0.311768 0.426392
vt 0.254150 0.427002
vt 0.312500 0.411804
vt 0.254150 0.408264
vt 0.310425 0.392029
vt 0.254150 0.389648
vt 0.317139 0.377441
vt 0.254150 0.374939
vt 0.288757 0.360657
vt 0.254150 0.359436
vt 0.254150 0.350037
vt 0.288757 0.360657
vt 0.290222 0.351318
vt 0.323303 0.361938
vt 0.326233 0.352539
vt 0.376404 0.364502
vt 0.384583 0.355957
vt 0.439636 0.370789
vt 0.966370 0.589783
vt 0.966370 0.575195
vt 0.992126 0.589722
vt 0.949219 0.579895
vt 0.935120 0.587708
vt 0.924194 0.563354
vt 0.891418 0.558533
vt 0.899231 0.546814
vt 0.832031 0.527405
vt 0.903870 0.539795
vt 0.835144 0.518982
vt 0.841370 0.510620
vt 0.796936 0.513733
vt 0.800110 0.506470
vt 0.758789 0.508545
vt 0.758789 0.502258
vt 0.796936 0.513733
vt 0.800110 0.506470
vt 0.841370 0.510620
vt 0.803223 0.500183
vt 0.847656 0.504395
vt 0.171692 0.262634
vt 0.160767 0.278015
vt 0.174255 0.273010
vt 0.153442 0.268494
vt 0.149292 0.232849
vt 0.131653 0.246094
vt 0.119690 0.218506
vt 0.102234 0.234192
vt 0.085266 0.205322
vt 0.072754 0.222290
vt 0.039734 0.217896
vt 0.006653 0.238953
vt 0.006653 0.213501
vt 0.039734 0.217896
vt 0.044556 0.196228
vt 0.085266 0.205322
vt 0.585571 0.920288
vt 0.584045 0.929199
vt 0.651978 0.946228
vt 0.506226 0.910522
vt 0.506226 0.896179
vt 0.585571 0.920288
vt 0.587463 0.904175
vt 0.654541 0.933533
vt 0.657532 0.912537
vt 0.724609 0.921448
vt 0.729248 0.879211
vt 0.806580 0.930298
vt 0.802612 0.888123
vt 0.862488 0.929199
vt 0.881226 0.887512
vt 0.947083 0.916687
vt 0.498352 0.451172
vt 0.487915 0.462036
vt 0.497925 0.465820
vt 0.483398 0.448120
vt 0.498352 0.437134
vt 0.479004 0.435486
vt 0.457764 0.408691
vt 0.463989 0.437134
vt 0.424988 0.418030
vt 0.456238 0.440979
vt 0.419006 0.444092
vt 0.434631 0.461792
vt 0.440613 0.488892
vt 0.520264 0.269531
vt 0.518494 0.266724
vt 0.525574 0.277771
vt 0.544312 0.296204
vt 0.513184 0.296204
vt 0.508850 0.317261
vt 0.502136 0.296204
vt 0.372192 0.429504
vt 0.365601 0.407654
vt 0.384338 0.397217
vt 0.367859 0.372253
vt 0.323303 0.361938
vt 0.326233 0.352539
vt 0.290222 0.351318
vt 0.291870 0.339844
vt 0.254150 0.338623
vt 0.083801 0.300720
vt 0.163513 0.279663
vt 0.166260 0.286194
vt 0.079651 0.287537
vt 0.005676 0.307007
vt 0.006042 0.295959
vt 0.079529 0.287292
vt 0.077454 0.280640
vt 0.156311 0.267639
vt 0.138611 0.252075
vt 0.160706 0.242920
vt 0.119385 0.242676
vt 0.145569 0.230164
vt 0.123108 0.218140
vt 0.662476 0.829224
vt 0.756226 0.850037
vt 0.662476 0.870850
vt 0.591431 0.862549
vt 0.506226 0.854187
vt 0.587463 0.904175
vt 0.654541 0.933533
vt 0.718384 0.961365
vt 0.293640 0.496460
vt 0.254150 0.481201
vt 0.254150 0.464539
vt 0.321838 0.478455
vt 0.315613 0.461792
vt 0.372192 0.461792
vt 0.313171 0.440002
vt 0.372192 0.429504
vt 0.311768 0.426392
vt 0.312500 0.411804
vt 0.960144 0.596008
vt 0.991821 0.590759
vt 0.935120 0.604370
vt 0.891418 0.589783
vt 0.910156 0.612732
vt 0.872620 0.608521
vt 0.916382 0.623108
vt 0.878906 0.629395
vt 0.922668 0.633545
vt 0.872620 0.647461
vt 0.928894 0.646057
vt 0.875977 0.662720
vt 0.605896 0.329163
vt 0.613953 0.330566
vt 0.583923 0.335144
vt 0.561401 0.335144
vt 0.538879 0.335144
vt 0.434631 0.461792
vt 0.469177 0.461792
vt 0.440613 0.488892
vt 0.462708 0.451416
vt 0.456238 0.440979
vt 0.463867 0.436890
vt 0.424988 0.418030
vt 0.457764 0.408691
vt 0.412476 0.382629
vt 0.470337 0.405579
vt 0.426514 0.376404
vt 0.481018 0.402954
vt 0.392151 0.475342
vt 0.419006 0.444092
vt 0.365601 0.407654
vt 0.384338 0.397217
vt 0.317139 0.377441
vt 0.367859 0.372253
vt 0.978882 0.573120
vt 0.992798 0.588928
vt 0.954224 0.552673
vt 0.941406 0.555420
vt 0.929504 0.532227
vt 0.916382 0.535645
vt 0.847656 0.504395
vt 0.803223 0.500183
vt 0.799988 0.862549
vt 0.881226 0.887512
vt 0.862488 0.875000
vt 0.802612 0.888123
vt 0.756226 0.850037
vt 0.729248 0.879211
vt 0.662476 0.829224
vt 0.662476 0.870850
vt 0.593750 0.820862
vt 0.591431 0.862549
vt 0.812500 0.758362
vt 0.731201 0.700012
vt 0.716980 0.710449
vt 0.831238 0.750000
vt 0.877930 0.793335
vt 0.849976 0.737549
vt 0.913818 0.779480
vt 0.937500 0.770874
vt 0.956238 0.837524
vt 0.981201 0.837524
vt 0.993713 0.875000
vt 0.156311 0.267639
vt 0.160706 0.242920
vt 0.173035 0.266235
vt 0.140564 0.251160
vt 0.077454 0.280640
vt 0.121338 0.241943
vt 0.071167 0.260498
vt 0.108093 0.235046
vt 0.070129 0.221191
vt 0.123108 0.218140
vt 0.077576 0.200684
vt 0.947083 0.916687
vt 0.912476 0.837524
vt 0.862488 0.929199
vt 0.806580 0.930298
vt 0.724609 0.921448
vt 0.657532 0.912537
vt 0.718384 0.961365
vt 0.721069 0.948486
vt 0.814331 0.970642
vt 0.651978 0.946228
vt 0.584045 0.929199
vt 0.506226 0.920166
vt 0.581909 0.937988
vt 0.759094 0.520508
vt 0.832031 0.527405
vt 0.835144 0.518982
vt 0.903870 0.539795
vt 0.916382 0.535645
vt 0.941406 0.555420
vt 0.929504 0.532227
vt 0.954224 0.552673
vt 0.498352 0.437134
vt 0.478699 0.434937
vt 0.483398 0.448120
vt 0.471558 0.447937
vt 0.487915 0.462036
vt 0.477539 0.459412
vt 0.006348 0.284912
vt 0.007019 0.262756
vt 0.071167 0.260498
vt 0.007019 0.223633
vt 0.033875 0.215027
vt 0.007019 0.213379
vt 0.007019 0.192932
vt 0.038452 0.194275
vt 0.977051 0.894836
vt 0.993713 0.875000
vt 1.000000 0.950012
vt 0.956238 0.837524
vt 0.912476 0.837524
vt 0.877930 0.793335
vt 0.868713 0.837524
vt 0.812500 0.758362
vt 0.856201 0.837524
vt 0.799988 0.762512
vt 0.981201 0.837524
vt 0.937500 0.770874
vt 0.913818 0.779480
vt 0.849976 0.737549
vt 0.831238 0.750000
vt 0.731201 0.700012
vt 0.960144 0.596008
vt 0.994080 0.602295
vt 0.993225 0.591431
vt 0.972656 0.610596
vt 0.935120 0.604370
vt 0.941406 0.613770
vt 0.910156 0.612732
vt 0.916382 0.623108
vt 0.872620 0.608521
vt 0.878906 0.629395
vt 0.966370 0.575195
vt 0.966370 0.589783
vt 0.992126 0.589722
vt 0.949219 0.579895
vt 0.924194 0.563354
vt 0.899231 0.546814
vt 0.891418 0.558533
vt 0.834106 0.546509
vt 0.160767 0.278015
vt 0.171692 0.262634
vt 0.174255 0.273010
vt 0.153442 0.268494
vt 0.089294 0.292786
vt 0.081848 0.270142
vt 0.006653 0.279968
vt 0.081848 0.270142
vt 0.149292 0.232849
vt 0.131653 0.246094
vt 0.102234 0.234192
vt 0.072754 0.222290
vt 0.119690 0.218506
vt 0.254150 0.491577
vt 0.293640 0.496460
vt 0.337524 0.494995
vt 0.393738 0.497559
vt 0.990662 0.611633
vt 0.985168 0.621033
vt 0.947632 0.623108
vt 0.960144 0.633545
vt 0.922668 0.633545
vt 0.928894 0.646057
vt 0.872620 0.647461
vt 0.106384 0.236206
vt 0.070190 0.222595
vt 0.077576 0.200684
vt 0.038452 0.194275
vt 0.503723 0.172302
vt 0.623291 0.251770
vt 0.503723 0.247925
vt 0.623291 0.172302
vt 0.623291 0.171204
vt 0.503723 0.171204
vt 0.623291 0.168457
vt 0.503723 0.168457
vt 0.868713 0.837524
vt 0.856201 0.837524
vt 0.469177 0.461792
vt 0.462708 0.451416
vt 0.477539 0.459412
vt 0.471680 0.448059
vt 0.623291 0.178894
vt 0.504822 0.168457
vt 0.623291 0.168457
vt 0.504822 0.178894
vt 0.623291 0.185913
vt 0.504822 0.185913
vt 0.623291 0.206482
vt 0.504822 0.207397
vt 0.623291 0.178894
vt 0.561401 0.168457
vt 0.623291 0.168457
vt 0.561401 0.178894
vt 0.623291 0.185913
vt 0.561401 0.185913
vt 0.623291 0.207397
vt 0.561401 0.201599
vt 0.329529 0.341125
vt 0.376404 0.364502
vt 0.412476 0.382629
vt 0.561401 0.199097
vt 0.623291 0.171204
vt 0.623291 0.204285
vt 0.561401 0.171204
vt 0.561401 0.198914
vt 0.561401 0.172302
vt 0.623291 0.204712
vt 0.623291 0.172302
vt 0.972656 0.610596
vt 0.941406 0.613770
vt 0.947632 0.623108
vt 0.439636 0.370789
vt 0.470337 0.405579
vt 0.481018 0.402954
vt 0.426514 0.376404
vt 0.384583 0.355957
vt 0.833984 0.561584
vt 0.810120 0.579346
vt 0.791077 0.559631
vt 0.760620 0.568970
vt 0.275391 0.180908
vt 0.356812 0.256897
vt 0.449585 0.202881
vt 0.276733 0.256897
vt 0.356812 0.256897
vt 0.278564 0.319885
vt 0.357422 0.320007
vt 0.962463 1.000000
vt 0.931213 0.966675
vt 0.888245 0.975220
vt 0.623291 0.172302
vt 0.503723 0.210999
vt 0.623291 0.247925
vt 0.503723 0.172302
vt 0.623291 0.171204
vt 0.503723 0.168457
vt 0.623291 0.168457
vt 0.561401 0.201843
vt 0.504822 0.178894
vt 0.504822 0.207031
vt 0.561401 0.178894
vt 0.561401 0.185913
vt 0.561401 0.178894
vt 0.504822 0.185913
vt 0.173035 0.266235
vt 0.175720 0.274353
vt 0.163513 0.279663
vt 0.176514 0.282043
vt 0.166260 0.286194
vt 0.618347 0.296204
vt 0.931213 0.966675
vt 0.888245 0.975220
vt 0.814331 0.970642
vt 0.962463 1.000000
vt 0.856201 1.000000
vt 0.623291 0.172302
vt 0.561401 0.168457
vt 0.623291 0.168457
vt 0.561401 0.172302
vt 0.623291 0.204712
vt 0.561401 0.198914
vt 0.145569 0.230164
vt 0.623291 0.185913
vt 0.504822 0.178894
vt 0.623291 0.178894
vt 0.504822 0.185913
vt 0.623291 0.207397
vt 0.504822 0.206482
vt 0.623291 0.172302
vt 0.503723 0.168457
vt 0.623291 0.168457
vt 0.503723 0.172302
vt 0.623291 0.210999
vt 0.503723 0.204712
vt 0.791077 0.559631
vt 0.810120 0.579346
vt 0.833984 0.561584
vt 0.760437 0.559082
vt 0.175720 0.274353
vt 0.176514 0.282043
vt 0.743713 0.691711
vt 0.756226 0.683350
vt 0.868713 0.725037
vt 0.721069 0.948486
vt 0.891418 0.589783
vt 0.844543 0.593933
vt 0.994080 0.602295
vt 0.993225 0.591431
vt 0.990662 0.611633
vt 0.985168 0.621033
vt 0.089294 0.292786
vt 0.991821 0.590759
vt 0.935120 0.587708
vt 0.504822 0.185913
vt 0.623901 0.218567
vt 0.503845 0.214722
vt 0.623291 0.185913
vt 0.504822 0.178894
vt 0.623291 0.178894
vt 0.504822 0.185913
vt 0.623901 0.214722
vt 0.504822 0.206482
vt 0.623291 0.185913
vt 0.504822 0.178894
vt 0.623291 0.178894
vt 0.623291 0.185913
vt 0.504822 0.178894
vt 0.623291 0.178894
vt 0.504822 0.185913
vt 0.623901 0.214722
vt 0.504333 0.218567
vt 0.623291 0.185913
vt 0.504822 0.178894
vt 0.623291 0.178894
vt 0.504822 0.185913
vt 0.623291 0.206482
vt 0.503845 0.214722
vt 0.623291 0.172302
vt 0.503723 0.204712
vt 0.623291 0.210999
vt 0.503723 0.172302
vt 0.623291 0.168457
vt 0.503723 0.168457
vt 0.033875 0.214966
vt 0.044556 0.196228
vt 0.006653 0.192871
vt 0.576111 0.332825
vt 0.310425 0.392029
vt 1.000000 0.950012
vt 0.977051 0.894836
vt 0.083801 0.300720
vt 0.758789 0.496033
vt 0.862488 0.875000
vt 0.799988 0.862549
vt 0.006653 0.303040
vt 0.756226 0.683350
vt 0.743713 0.691711
vt 0.868713 0.725037
vt 0.504822 0.168457
vt 0.561401 0.168457
vt 0.504822 0.178894
vt 0.454163 0.272156
vt 0.454590 0.328064
vt 0.357422 0.320007
vt 0.503723 0.172302
vt 0.623291 0.247925
vt 0.503723 0.210999
vt 0.623291 0.172302
vt 0.623291 0.171204
vt 0.504456 0.296204
vt 0.593750 0.820862
vt 0.506226 0.816711
vt 0.503723 0.247925
vt 0.503723 0.172302
vt 0.503723 0.168457
vt 0.503723 0.171204
vt 0.291870 0.339844
vt 0.504822 0.207397
vt 0.561401 0.201599
vt 0.497925 0.436768
vt 0.498352 0.451172
vt 0.497925 0.465820
vt 0.449585 0.202881
vt 0.454163 0.272156
vt 0.454590 0.328064
vt 0.561401 0.168457
vt 0.623291 0.168457
vt 0.875977 0.662720
vt 0.847412 0.663269
vt 0.799988 0.762512
vt 0.649292 0.954956
vt 0.856201 1.000000
vt 0.581909 0.937988
vt 0.506226 0.932434
vt 0.716980 0.710449
vt 0.649292 0.954956
vt 0.503723 0.204285
vt 0.623291 0.171204
vt 0.623291 0.209473
vt 0.503723 0.171204
vt 0.503845 0.212280
vt 0.623291 0.178894
vt 0.504822 0.178894
vt 0.623901 0.215698
vt 0.504822 0.204956
vt 0.623291 0.178894
vt 0.504822 0.178894
vt 0.623291 0.212280
vt 0.623291 0.178894
vt 0.561401 0.201843
vt 0.623291 0.207031
vt 0.561401 0.178894
vt 0.504822 0.207031
vt 0.623291 0.178894
vt 0.504822 0.178894
vt 0.623291 0.204956
vt 0.504333 0.215698
vt 0.623291 0.178894
vt 0.504822 0.178894
vt 0.623291 0.212280
vt 0.503845 0.212280
vt 0.623291 0.178894
vt 0.504822 0.178894
vt 0.623291 0.204956
vt 0.504822 0.204956
vt 0.623291 0.178894
vt 0.504822 0.178894
vt 0.623291 0.207031
vt 0.960144 0.633545
vt 0.834106 0.546509
vt 0.503723 0.245483
vt 0.623291 0.171204
vt 0.503723 0.171204
vt 0.623291 0.248901
vt 0.623291 0.168457
vt 0.504822 0.168457
vt 0.623291 0.168457
vt 0.504822 0.168457
vt 0.623291 0.168457
vt 0.504822 0.168457
vt 0.623291 0.168457
vt 0.504822 0.168457
vt 0.623291 0.168457
vt 0.504822 0.168457
vt 0.978882 0.573120
vt 0.992798 0.588928
vt 0.844543 0.593933
vt 0.503723 0.245483
vt 0.503723 0.171204
vt 0.503723 0.209473
vt 0.623291 0.171204
vt 0.503723 0.171204
vt 0.623291 0.245483
vt 0.561401 0.199097
vt 0.623291 0.171204
vt 0.561401 0.171204
vt 0.623291 0.204285
vt 0.503723 0.204285
vt 0.623291 0.171204
vt 0.503723 0.171204
vt 0.623291 0.209473
vt 0.503723 0.168457
vt 0.623291 0.168457
vt 0.503723 0.209473
vt 0.623291 0.171204
vt 0.623291 0.245483
vt 0.503723 0.171204
vt 0.329529 0.341125
vt 0.847412 0.663269
vt 0.718079 0.971802
vt 0.718079 0.971802
vn -0.9688 -0.2479 0.0000
vn -0.9413 0.2946 -0.1649
vn -0.8784 -0.1648 -0.4486
vn -0.8860 0.4636 -0.0007
vn -0.9413 0.2946 0.1649
vn -0.8377 0.4941 0.2326
vn -0.8784 -0.1648 0.4486
vn -0.6881 0.3004 0.6605
vn 0.0486 -0.2261 0.9729
vn 0.3076 0.0890 0.9473
vn 0.7066 -0.5593 0.4334
vn 0.8300 -0.4010 0.3876
vn 0.8493 -0.5253 -0.0524
vn 0.9276 -0.2888 0.2370
vn 0.9743 -0.2245 0.0157
vn 0.5441 0.5636 0.6215
vn 0.5642 0.8255 0.0118
vn -0.4975 0.7462 0.4422
vn -0.5186 0.8550 -0.0008
vn -0.7871 0.5825 0.2027
vn -0.8029 0.5960 -0.0046
vn -0.7918 0.5776 -0.1985
vn -0.8365 0.4959 -0.2331
vn -0.6881 0.3014 -0.6600
vn 0.0486 -0.2261 -0.9729
vn -0.2752 -0.6929 -0.6664
vn 0.3731 -0.8788 -0.2973
vn 0.3020 -0.9532 0.0146
vn 0.7772 -0.6181 0.1173
vn 0.3186 -0.9479 0.0000
vn 0.8279 -0.5609 0.0000
vn 0.7772 -0.6181 -0.1173
vn 0.8293 -0.5588 0.0000
vn -0.8193 -0.0529 0.5708
vn -0.8965 -0.4168 0.1499
vn -0.8348 -0.3337 0.4378
vn -0.9609 -0.2056 0.1854
vn -0.8166 0.3197 0.4805
vn -0.9489 0.2436 0.2007
vn -0.8531 0.4431 0.2755
vn -0.9151 0.4033 0.0000
vn -0.7485 0.5842 0.3137
vn -0.8099 0.5865 0.0000
vn -0.5182 0.8116 0.2697
vn -0.5193 0.8546 0.0000
vn -0.2399 0.9392 0.2457
vn -0.2308 0.9730 0.0000
vn -0.0429 0.9264 0.3741
vn -0.0596 0.9982 0.0001
vn -0.0735 0.9814 0.1770
vn -0.0569 0.9984 0.0004
vn 0.5045 0.8634 0.0065
vn -0.0726 0.9814 -0.1775
vn 0.4541 0.8510 -0.2638
vn -0.0669 0.9107 -0.4076
vn 0.3660 0.7686 -0.5247
vn 0.2070 0.6570 -0.7249
vn 0.5491 0.3192 -0.7724
vn 0.3913 0.2248 -0.8924
vn 0.0055 -0.3538 0.9353
vn 0.0824 -0.3174 0.9447
vn -0.1057 -0.2797 0.9542
vn 0.0680 -0.5953 0.8006
vn 0.1240 -0.5183 0.8461
vn 0.0981 -0.6231 0.7760
vn 0.1584 -0.7277 0.6673
vn 0.2733 -0.6818 0.6785
vn 0.2966 -0.8414 0.4517
vn 0.2013 -0.7767 0.5968
vn 0.1582 -0.9138 0.3740
vn 0.4437 -0.7469 0.4953
vn 0.1873 -0.9664 0.1762
vn 0.5259 -0.8143 0.2454
vn 0.2082 -0.9781 0.0017
vn 0.5618 -0.8273 0.0009
vn 0.1860 -0.9664 -0.1773
vn 0.5268 -0.8133 -0.2468
vn 0.4372 -0.7475 -0.5000
vn 0.8370 -0.4662 -0.2864
vn 0.7159 -0.4082 -0.5664
vn 0.8713 -0.4685 -0.1461
vn 0.8801 -0.4552 0.1353
vn 0.9091 -0.3802 -0.1698
vn 0.8003 -0.5411 0.2583
vn 0.7887 -0.5925 -0.1641
vn 0.6502 -0.7256 0.2251
vn 0.7490 -0.6558 -0.0945
vn 0.5640 -0.8021 0.1960
vn 0.7299 -0.6835 -0.0122
vn 0.5512 -0.8229 0.1376
vn 0.5135 -0.8537 0.0867
vn 0.3503 -0.9366 0.0001
vn 0.5175 -0.8556 0.0000
vn 0.5134 -0.8538 -0.0866
vn 0.7299 -0.6836 -0.0051
vn 0.7259 -0.6877 0.0140
vn 0.7150 -0.6924 -0.0963
vn -0.1153 -0.9510 0.2869
vn -0.1354 -0.8368 0.5304
vn 0.7590 -0.6511 0.0000
vn 0.9996 -0.0264 0.0000
vn 0.7150 -0.6924 0.0963
vn 0.9626 -0.0787 0.2592
vn 0.5685 -0.8194 0.0735
vn 0.8485 -0.1700 0.5011
vn 0.6846 -0.2628 0.6799
vn 0.4202 0.5643 0.7106
vn 0.5563 -0.2790 0.7827
vn 0.3972 0.5470 0.7369
vn 0.3681 -0.2578 0.8933
vn 0.7413 0.2102 0.6374
vn 0.0607 -0.2427 0.9682
vn 0.3933 0.1429 0.9082
vn 0.2304 0.1020 0.9677
vn 0.3032 0.1791 0.9359
vn 0.2222 0.0971 0.9702
vn 0.3621 0.2050 0.9093
vn 0.2850 0.2166 0.9337
vn 0.0941 0.3305 0.9391
vn 0.1809 0.2092 0.9610
vn -0.1108 0.4641 0.8788
vn 0.0456 0.2354 0.9708
vn -0.4600 0.3584 0.8123
vn -0.4047 0.0649 0.9121
vn -0.5172 -0.2055 0.8308
vn -0.4496 0.7563 -0.4751
vn 0.6327 0.4765 -0.6103
vn 0.9185 -0.3508 -0.1821
vn 0.8493 -0.5253 0.0524
vn 0.8255 -0.4140 -0.3836
vn 0.7066 -0.5593 -0.4334
vn 0.3010 0.0900 -0.9493
vn -0.5604 0.5584 0.6116
vn -0.3110 0.7573 0.5742
vn -0.0173 0.6993 0.7146
vn -0.0614 0.8243 0.5628
vn -0.0665 0.9117 0.4053
vn 0.3732 0.7666 0.5224
vn 0.4604 0.8481 0.2622
vn 0.8753 0.4021 0.2686
vn 0.9307 0.3657 0.0110
vn 0.9310 -0.0765 0.3568
vn 0.9767 0.1527 0.1505
vn 0.9402 -0.1646 0.2981
vn 0.9087 0.2677 0.3202
vn 0.9988 -0.0483 0.0000
vn 0.9583 0.2857 0.0000
vn 0.9087 0.2677 -0.3202
vn 0.5640 0.7613 -0.3198
vn 0.6762 0.7257 -0.1267
vn 0.3244 0.9024 -0.2834
vn 0.3574 0.9228 -0.1437
vn 0.2041 0.9273 -0.3137
vn 0.2575 0.9507 -0.1725
vn 0.2045 0.9421 -0.2657
vn 0.1991 0.8766 0.4380
vn 0.0300 0.8899 0.4551
vn 0.5678 0.5912 0.5728
vn 0.6891 0.6594 0.3005
vn 0.7338 0.6793 0.0000
vn 0.9626 -0.0787 -0.2592
vn 0.5685 -0.8194 -0.0735
vn -0.2832 -0.7759 0.5637
vn -0.8531 -0.5216 0.0107
vn -0.9457 -0.3251 0.0000
vn -0.9878 0.1555 0.0000
vn -0.9609 -0.2056 -0.1854
vn -0.9489 0.2436 -0.2007
vn -0.8166 0.3197 -0.4805
vn -0.8531 0.4431 -0.2755
vn -0.5604 0.5584 -0.6116
vn -0.7485 0.5842 -0.3137
vn -0.5182 0.8116 -0.2697
vn 0.1421 -0.3204 0.9366
vn 0.0472 -0.1958 0.9795
vn -0.0003 -0.6232 0.7820
vn -0.1781 -0.8600 0.4780
vn -0.2248 -0.8622 0.4539
vn -0.2618 -0.9318 0.2514
vn -0.1712 -0.8669 0.4680
vn -0.2863 -0.8754 0.3893
vn -0.3546 -0.7946 0.4927
vn -0.5706 -0.7831 0.2472
vn -0.5292 -0.7433 0.4091
vn -0.6608 -0.7429 0.1066
vn 0.3731 -0.8788 0.2973
vn -0.2752 -0.6929 0.6664
vn -0.5202 -0.8440 0.1303
vn -0.4896 -0.8719 0.0000
vn -0.5202 -0.8440 -0.1303
vn -0.4047 0.0649 -0.9121
vn -0.0003 -0.0437 -0.9990
vn -0.5172 -0.2055 -0.8308
vn 0.0701 0.0633 -0.9955
vn 0.0468 0.2339 -0.9711
vn 0.1801 0.2084 -0.9613
vn -0.1109 0.4640 -0.8788
vn 0.0940 0.3305 -0.9391
vn -0.0045 0.6269 -0.7791
vn 0.0144 0.2528 -0.9674
vn 0.1220 0.5004 -0.8571
vn 0.2549 0.1710 -0.9517
vn -0.8193 -0.0529 -0.5708
vn -0.4600 0.3584 -0.8123
vn -0.3117 0.7573 -0.5738
vn -0.0174 0.6999 -0.7140
vn -0.0417 0.9257 -0.3759
vn -0.0703 0.8172 -0.5720
vn 0.2665 0.1016 0.9584
vn 0.1764 0.1820 0.9673
vn 0.3996 -0.1957 0.8955
vn 0.2120 -0.4953 0.8425
vn 0.5245 -0.3393 0.7808
vn 0.3663 -0.5866 0.7222
vn 0.7159 -0.4082 0.5664
vn 0.8371 -0.4658 0.2869
vn 0.0996 0.9450 -0.3115
vn 0.7413 0.2102 -0.6374
vn 0.7977 0.6025 0.0248
vn 0.3972 0.5470 -0.7369
vn 0.0300 0.8899 -0.4551
vn 0.4202 0.5643 -0.7106
vn 0.1991 0.8766 -0.4380
vn 0.5678 0.5912 -0.5728
vn 0.2879 0.9245 -0.2496
vn 0.6891 0.6594 -0.3005
vn 0.8513 -0.5245 0.0086
vn 0.8287 -0.5447 -0.1281
vn 0.6373 -0.7105 0.2984
vn 0.6827 -0.0896 -0.7252
vn 0.6417 -0.0617 -0.7644
vn 0.0136 0.5616 -0.8273
vn -0.0985 0.3767 -0.9211
vn -0.5121 0.5410 -0.6671
vn -0.2114 0.1267 -0.9691
vn -0.6064 0.3262 -0.7252
vn -0.6803 0.1798 -0.7105
vn 0.6761 0.7258 0.1266
vn 0.3508 0.9272 0.1307
vn 0.7015 0.6512 -0.2896
vn 0.3170 0.9059 0.2806
vn 0.5638 0.7614 0.3200
vn 0.2340 0.9317 0.2777
vn 0.1724 0.9226 0.3450
vn 0.1260 0.9312 0.3420
vn 0.1254 0.9546 0.2701
vn 0.2333 0.9451 0.2286
vn 0.2344 0.9607 0.1484
vn 0.0607 -0.2427 -0.9682
vn 0.5902 -0.0880 -0.8024
vn 0.3681 -0.2578 -0.8933
vn 0.5563 -0.2790 -0.7827
vn 0.6846 -0.2628 -0.6799
vn 0.8485 -0.1700 -0.5011
vn -0.2832 -0.7759 -0.5637
vn 0.4361 -0.8946 0.0971
vn 0.2303 -0.9468 0.2246
vn -0.1354 -0.8368 -0.5304
vn -0.1153 -0.9510 -0.2869
vn -0.3997 -0.9166 0.0000
vn -0.7867 -0.4047 0.4660
vn 0.3244 -0.9459 0.0000
vn 0.2966 -0.8414 -0.4517
vn 0.1606 -0.9076 -0.3880
vn 0.2120 -0.7774 -0.5922
vn 0.3673 -0.5995 -0.7111
vn 0.2116 -0.4961 -0.8421
vn 0.5244 -0.3393 -0.7809
vn 0.3991 -0.1974 -0.8954
vn 0.3187 0.2552 -0.9128
vn 0.2860 0.2164 -0.9335
vn 0.2129 0.1038 -0.9715
vn 0.1509 0.0463 -0.9875
vn 0.2138 0.0660 -0.9746
vn 0.1583 -0.0010 -0.9874
vn 0.6168 0.7871 0.0000
vn 0.1964 0.9805 0.0000
vn 0.1729 0.9228 -0.3442
vn 0.0231 0.9997 0.0000
vn 0.0895 0.9871 -0.1325
vn 0.0776 0.9970 0.0012
vn 0.1569 0.9876 0.0016
vn 0.1637 0.9817 0.0967
vn -0.4921 -0.0059 0.8705
vn -0.6803 0.1798 0.7105
vn -0.3979 -0.4888 0.7763
vn -0.2114 0.1267 0.9691
vn 0.5902 -0.0880 0.8024
vn 0.6417 -0.0617 0.7644
vn 0.9681 -0.1747 0.1796
vn 0.8513 -0.5245 -0.0086
vn 0.9615 -0.2421 -0.1295
vn 0.6527 -0.5712 -0.4976
vn -0.6064 0.3262 0.7252
vn -0.5121 0.5410 0.6671
vn -0.0985 0.3767 0.9211
vn 0.0136 0.5616 0.8273
vn 0.6827 -0.0896 0.7252
vn 0.8287 -0.5447 0.1281
vn 0.1421 -0.3204 -0.9366
vn 0.2508 -0.1847 -0.9502
vn 0.3480 -0.1972 -0.9165
vn 0.1597 -0.2689 -0.9498
vn -0.0003 -0.6232 -0.7820
vn 0.0231 -0.6471 -0.7621
vn -0.2248 -0.8622 -0.4539
vn -0.1712 -0.8669 -0.4680
vn -0.2618 -0.9318 -0.2514
vn -0.2863 -0.8754 -0.3893
vn 0.0824 -0.3177 -0.9446
vn 0.0056 -0.3539 -0.9352
vn -0.1057 -0.2797 -0.9542
vn 0.0684 -0.5954 -0.8005
vn 0.0982 -0.6228 -0.7762
vn 0.2733 -0.6816 -0.6787
vn 0.1584 -0.7277 -0.6674
vn 0.2593 -0.8494 -0.4597
vn 0.8798 -0.4547 -0.1385
vn 0.8714 -0.4685 0.1455
vn 0.9102 -0.3802 0.1638
vn 0.8003 -0.5410 -0.2583
vn 0.7851 -0.4806 -0.3905
vn 0.5994 -0.6995 -0.3890
vn 0.7255 -0.6881 0.0000
vn 0.5993 -0.6996 0.3891
vn 0.7884 -0.5936 0.1616
vn 0.6496 -0.7258 -0.2263
vn 0.5664 -0.8003 -0.1966
vn 0.5516 -0.8235 -0.1324
vn 0.7498 -0.6556 0.0893
vn -0.8709 -0.4913 0.0000
vn -0.8531 -0.5216 -0.0107
vn -0.8965 -0.4168 -0.1499
vn -0.8348 -0.3337 -0.4378
vn 0.1755 -0.0085 -0.9844
vn -0.0060 -0.2507 -0.9680
vn -0.0922 -0.5832 -0.8071
vn -0.3643 -0.6280 -0.6877
vn -0.3546 -0.7946 -0.4927
vn -0.5292 -0.7433 -0.4091
vn -0.5706 -0.7831 -0.2472
vn 0.1050 0.9214 -0.3740
vn 0.1050 0.9523 -0.2865
vn 0.2017 0.9648 -0.1686
vn 0.1577 0.9828 -0.0958
vn 0.8299 0.4501 0.3298
vn 0.6074 0.7943 -0.0004
vn 0.5725 0.7518 0.3271
vn 0.8820 0.4711 -0.0009
vn 0.9415 -0.3370 -0.0013
vn 0.9186 -0.3573 -0.1689
vn 0.6399 -0.7684 -0.0001
vn 0.6408 -0.7677 -0.0001
vn 0.9681 -0.1747 -0.1796
vn 0.9615 -0.2421 0.1295
vn -0.0027 -0.0461 0.9989
vn 0.0673 0.0650 0.9956
vn 0.1639 -0.0062 0.9864
vn 0.1537 0.0468 0.9870
vn 0.4177 0.7758 -0.4728
vn 0.3388 0.9408 0.0118
vn 0.3370 0.9408 0.0365
vn 0.4127 0.7963 -0.4422
vn 0.3296 0.1907 -0.9246
vn 0.3407 0.2114 -0.9161
vn 0.2330 -0.1221 -0.9648
vn 0.2528 -0.1047 -0.9618
vn 0.3269 0.8410 -0.4311
vn 0.2828 0.9592 0.0005
vn 0.2827 0.9592 0.0002
vn -0.3018 0.8826 -0.3604
vn 0.2465 0.2488 -0.9366
vn -0.5467 0.4121 -0.7288
vn 0.1655 -0.0747 -0.9834
vn -0.6333 0.1545 -0.7583
vn 0.7361 0.3876 0.5548
vn 0.2346 0.6539 0.7192
vn -0.0219 0.6211 0.7834
vn -0.4697 -0.5399 0.6984
vn -0.1114 -0.0950 0.9892
vn -0.1108 -0.0993 0.9889
vn -0.4775 -0.5807 0.6594
vn -0.3812 -0.5040 -0.7750
vn 0.1394 -0.7625 -0.6318
vn 0.1255 0.1245 -0.9842
vn 0.6507 -0.3108 -0.6928
vn 0.1597 -0.2689 0.9498
vn 0.0231 -0.6471 0.7621
vn -0.0922 -0.5832 0.8071
vn 0.3856 0.2233 0.8952
vn 0.0172 0.2539 0.9671
vn 0.2550 0.1773 0.9505
vn 0.1216 0.4791 0.8693
vn 0.5510 0.3230 0.7694
vn -0.3338 -0.8897 0.3112
vn -0.6342 -0.7682 0.0873
vn -0.7592 -0.6391 0.1227
vn -0.7840 -0.6208 0.0000
vn 0.3899 -0.9208 0.0000
vn 0.2992 -0.9228 -0.2427
vn 0.3657 -0.8931 -0.2618
vn 0.3108 -0.9504 0.0000
vn 0.2992 -0.9228 0.2427
vn 0.2599 -0.9656 0.0000
vn 0.2452 -0.9377 0.2460
vn -0.3729 -0.9211 0.1112
vn -0.1638 -0.7443 0.6473
vn 0.0544 -0.9421 0.3309
vn 0.6612 0.2319 -0.7135
vn 0.4263 0.4726 -0.7713
vn 0.3991 0.5241 -0.7524
vn 0.8027 -0.1191 -0.5844
vn 0.8569 -0.4278 -0.2875
vn 0.7378 -0.6744 -0.0298
vn 0.6919 -0.7156 0.0954
vn -0.6777 0.1982 -0.7081
vn -0.1356 0.0646 -0.9886
vn -0.1365 0.0659 -0.9884
vn -0.6852 0.2334 -0.6900
vn -0.5372 0.4186 0.7322
vn -0.3018 0.8826 0.3604
vn 0.2465 0.2488 0.9366
vn 0.7018 0.6507 0.2897
vn 0.9338 0.2166 0.2847
vn 0.9766 0.1520 -0.1518
vn 0.9636 -0.0618 0.2600
vn 0.9394 -0.1650 -0.3005
vn -0.5149 0.5466 0.6604
vn -0.1638 -0.7443 -0.6473
vn 0.0544 -0.9421 -0.3309
vn 0.2303 -0.9468 -0.2246
vn -0.3729 -0.9211 -0.1112
vn -0.2687 -0.8047 0.5293
vn 0.6507 -0.3108 0.6928
vn 0.8128 -0.5820 0.0219
vn 0.8204 -0.5714 -0.0183
vn 0.1394 -0.7625 0.6318
vn 0.1255 0.1245 0.9842
vn -0.3812 -0.5040 0.7750
vn 0.2916 0.9490 0.1193
vn 0.3373 0.2185 0.9157
vn 0.4165 0.7757 0.4741
vn 0.4140 0.7954 0.4426
vn 0.3363 0.1942 0.9215
vn 0.2369 -0.1112 0.9651
vn 0.2403 -0.1370 0.9610
vn 0.6176 -0.2330 0.7511
vn 0.7753 -0.6315 0.0015
vn 0.7753 -0.6313 0.0163
vn 0.6521 -0.2876 0.7014
vn 0.1923 0.1859 0.9635
vn 0.1690 0.1908 0.9669
vn -0.7592 -0.6391 -0.1227
vn -0.6342 -0.7682 -0.0873
vn -0.3339 -0.8898 -0.3111
vn -0.7938 -0.6082 0.0000
vn 0.9332 0.2170 -0.2864
vn 0.9622 -0.0604 -0.2654
vn 0.4009 0.4164 0.8160
vn -0.3263 0.8283 0.4554
vn -0.3633 0.7439 0.5609
vn 0.4361 -0.8946 -0.0971
vn -0.1782 -0.8600 -0.4780
vn -0.2916 -0.9474 -0.1313
vn 0.2508 -0.1847 0.9502
vn 0.3480 -0.1972 0.9165
vn 0.1755 -0.0085 0.9844
vn -0.0060 -0.2507 0.9680
vn 0.7851 -0.4806 0.3905
vn 0.0472 -0.1958 -0.9795
vn 0.1243 -0.5181 -0.8462
vn 0.9463 -0.0547 -0.3187
vn 0.8425 -0.4234 -0.3329
vn 0.8389 -0.4282 -0.3358
vn 0.9457 -0.0629 -0.3187
vn 0.7376 0.6577 -0.1529
vn 0.7496 0.6418 -0.1617
vn 0.6754 0.0820 -0.7329
vn 0.5649 -0.2853 -0.7742
vn 0.5694 -0.2814 -0.7724
vn 0.6732 0.0735 -0.7357
vn 0.5737 0.7525 -0.3233
vn 0.6013 0.7135 -0.3595
vn 0.9463 -0.0569 0.3181
vn 0.7501 0.6418 0.1590
vn 0.7365 0.6583 0.1551
vn 0.9453 -0.0648 0.3197
vn 0.8412 -0.4262 0.3328
vn 0.8428 -0.4205 0.3360
vn 0.6750 0.0842 0.7329
vn 0.5951 0.7172 0.3624
vn 0.5783 0.7523 0.3155
vn 0.6742 0.0749 0.7347
vn 0.5660 -0.2830 0.7743
vn 0.5660 -0.2889 0.7721
vn 0.6099 -0.2336 -0.7573
vn 0.1830 0.1936 -0.9638
vn 0.1926 0.1716 -0.9662
vn 0.6526 -0.2790 -0.7044
vn 0.7771 -0.6293 -0.0114
vn 0.7723 -0.6352 0.0004
vn 0.0873 0.9866 0.1380
vn 0.7299 -0.6836 0.0051
vn 0.7496 -0.6619 0.0000
vn 0.3020 -0.9532 -0.0146
vn -0.2399 0.9392 -0.2457
vn -0.3979 -0.4888 -0.7763
vn -0.4921 -0.0059 -0.8705
vn 0.9310 -0.0765 -0.3568
vn 0.8758 -0.4827 -0.0005
vn 0.7977 0.6025 -0.0248
vn 0.0996 0.9450 0.3115
vn 0.8876 -0.4605 0.0000
vn -0.3263 0.8283 -0.4554
vn 0.4009 0.4164 -0.8160
vn -0.3633 0.7439 -0.5609
vn 0.2828 0.9592 -0.0003
vn 0.2826 0.9592 -0.0006
vn 0.3270 0.8409 0.4311
vn 0.2610 -0.9025 -0.3424
vn 0.2215 -0.9105 -0.3491
vn 0.2452 -0.9377 -0.2460
vn 0.8092 -0.0976 0.5794
vn 0.4051 0.4900 0.7718
vn 0.4602 0.4732 0.7512
vn 0.6447 0.2318 0.7284
vn 0.8569 -0.4278 0.2875
vn -0.5124 0.5540 -0.6561
vn 0.2879 0.9245 0.2496
vn 0.3757 0.9267 0.0000
vn 0.5732 0.7516 -0.3264
vn 0.8306 0.4501 -0.3277
vn 0.6406 -0.7679 0.0002
vn 0.9175 -0.3591 0.1705
vn 0.8832 0.3866 -0.2653
vn 0.1655 -0.0747 0.9834
vn -0.6312 0.1355 0.7636
vn 0.4384 0.1141 -0.8915
vn 0.4076 0.1740 -0.8964
vn 0.3477 0.1512 -0.9253
vn 0.3657 -0.8931 0.2618
vn 0.2610 -0.9025 0.3424
vn 0.2215 -0.9105 0.3491
vn 0.8128 -0.5820 -0.0219
vn 0.8204 -0.5714 0.0183
vn -0.6608 -0.7429 -0.1066
vn -0.6575 -0.7526 0.0362
vn 0.6527 -0.5712 0.4976
vn -0.5174 -0.4043 0.7542
vn -0.2687 -0.8047 -0.5293
vn -0.7867 -0.4047 -0.4660
vn -0.9634 -0.2680 0.0000
vn 0.6372 -0.7105 -0.2984
vn -0.5174 -0.4043 -0.7542
vn -0.1958 -0.1939 0.9613
vn -0.1993 -0.1842 0.9624
vn -0.2031 -0.1739 0.9636
vn -0.1917 -0.2051 0.9598
vn -0.8411 0.4084 0.3546
vn -0.8415 0.4063 0.3561
vn -0.8402 0.4129 0.3514
vn -0.8423 0.4017 0.3593
vn -0.5747 0.2792 0.7692
vn -0.5752 0.2828 0.7676
vn -0.5737 0.2708 0.7729
vn -0.5760 0.2912 0.7638
vn -0.1356 0.0646 0.9886
vn -0.6799 0.2117 0.7021
vn -0.1365 0.0659 0.9884
vn -0.6915 0.2247 0.6865
vn -0.2476 0.1122 0.9623
vn -0.2495 0.1203 0.9608
vn -0.2441 0.0982 0.9647
vn -0.2532 0.1353 0.9579
vn -0.8420 0.4065 -0.3547
vn -0.8406 0.4082 -0.3561
vn -0.8450 0.4030 -0.3516
vn -0.8375 0.4118 -0.3591
vn -0.5735 0.2821 -0.7690
vn -0.5766 0.2799 -0.7676
vn -0.5670 0.2869 -0.7721
vn -0.5834 0.2748 -0.7643
vn -0.2453 0.1184 -0.9622
vn -0.2521 0.1135 -0.9610
vn -0.2334 0.1268 -0.9641
vn -0.2648 0.1044 -0.9586
vn -0.3643 -0.6280 0.6877
vn 0.2593 -0.8492 0.4600
vn -0.6069 -0.7176 -0.3414
vn -0.6416 -0.7670 0.0000
vn -0.6129 -0.7088 -0.3492
vn -0.6329 -0.7742 0.0000
vn 0.3786 0.9256 -0.0003
vn 0.3914 0.9202 -0.0024
vn 0.3388 0.9408 -0.0118
vn 0.3370 0.9408 -0.0365
vn 0.3464 0.9376 -0.0311
vn 0.3737 0.9271 0.0275
vn 0.3883 0.9215 0.0041
vn 0.3770 0.9262 -0.0035
vn 0.3766 0.9263 -0.0084
vn 0.3287 0.9439 0.0311
vn 0.2665 0.1016 -0.9584
vn 0.1764 0.1820 -0.9673
vn -0.2916 -0.9474 0.1313
vn -0.6069 -0.7176 0.3414
vn -0.6129 -0.7088 0.3492
vn -0.4399 -0.4585 -0.7721
vn -0.4345 -0.4720 -0.7670
vn -0.4489 -0.4352 -0.7804
vn -0.4260 -0.4927 -0.7588
vn -0.4697 -0.5399 -0.6984
vn -0.1114 -0.0950 -0.9892
vn -0.4775 -0.5807 -0.6594
vn -0.1108 -0.0993 -0.9889
vn -0.1958 -0.1939 -0.9613
vn -0.1993 -0.1842 -0.9624
vn -0.1917 -0.2051 -0.9598
vn -0.2031 -0.1739 -0.9636
vn 0.7378 -0.6744 0.0298
vn 0.6919 -0.7156 -0.0954
vn -0.4399 -0.4585 0.7721
vn -0.4345 -0.4720 0.7670
vn -0.4260 -0.4927 0.7588
vn -0.4489 -0.4352 0.7804
vn 0.7405 0.3773 -0.5561
vn -0.6575 -0.7526 -0.0362
vn -0.5472 -0.2780 -0.7895
vn -0.5472 -0.2780 0.7895
usemtl m0
s 1
f 272/1/1 213/2/2 219/3/3
f 213/2/2 272/1/1 253/4/4
f 281/5/5 253/4/4 272/1/1
f 253/4/4 281/5/5 283/6/6
f 287/7/7 283/6/6 281/5/5
f 283/6/6 287/7/7 290/8/8
f 300/9/9 290/8/8 287/7/7
f 290/8/8 300/9/9 302/10/10
f 315/11/11 302/10/10 300/9/9
f 302/10/10 315/11/11 318/12/12
f 325/13/13 318/12/12 315/11/11
f 318/12/12 325/13/13 320/14/14
f 257/15/15 320/14/14 325/13/13
f 320/14/14 257/15/15 307/16/16
f 259/17/17 307/16/16 257/15/15
f 307/16/16 259/17/17 304/18/18
f 262/19/19 304/18/18 259/17/17
f 304/18/18 262/19/19 285/20/20
f 264/21/21 285/20/20 262/19/19
f 285/20/20 264/21/21 253/4/4
f 217/22/22 253/4/4 264/21/21
f 253/4/4 217/22/22 215/23/23
f 222/24/24 215/23/23 217/22/22
f 215/23/23 222/24/24 219/3/3
f 230/25/25 219/3/3 222/24/24
f 219/3/3 230/25/25 228/26/26
f 241/27/27 228/26/26 230/25/25
f 228/26/26 241/27/27 236/28/28
f 249/29/29 236/28/28 241/27/27
f 236/28/28 249/29/29 266/30/30
f 268/31/31 266/30/30 249/29/29
f 266/30/30 268/31/31 322/32/32
f 255/33/33 322/32/32 268/31/31
f 322/32/32 255/33/33 325/13/13
f 257/15/15 325/13/13 255/33/33
f 419/34/34 324/35/35 335/36/36
f 324/35/35 419/34/34 375/37/37
f 379/38/38 375/37/37 419/34/34
f 375/37/37 379/38/38 377/39/39
f 381/40/40 377/39/39 379/38/38
f 377/39/39 381/40/40 184/41/41
f 411/42/42 184/41/41 381/40/40
f 184/41/41 411/42/42 187/43/43
f 409/44/44 187/43/43 411/42/42
f 187/43/43 409/44/44 173/45/45
f 429/46/46 173/45/45 409/44/44
f 173/45/45 429/46/46 176/47/47
f 431/48/48 176/47/47 429/46/46
f 176/47/47 431/48/48 179/49/49
f 567/50/50 179/49/49 431/48/48
f 179/49/49 567/50/50 267/51/51
f 455/52/52 267/51/51 567/50/50
f 267/51/51 455/52/52 551/53/53
f 553/54/54 551/53/53 455/52/52
f 551/53/53 553/54/54 444/55/55
f 453/56/56 444/55/55 553/54/54
f 444/55/55 453/56/56 488/57/57
f 485/58/58 488/57/57 453/56/56
f 488/57/57 485/58/58 246/59/59
f 284/60/60 282/61/61 348/62/62
f 282/61/61 284/60/60 339/63/63
f 328/64/64 339/63/63 284/60/60
f 339/63/63 328/64/64 579/65/65
f 321/66/66 579/65/65 328/64/64
f 579/65/65 321/66/66 319/67/67
f 305/68/68 319/67/67 321/66/66
f 319/67/67 305/68/68 353/69/69
f 301/70/70 353/69/69 305/68/68
f 353/69/69 301/70/70 303/71/71
f 544/72/72 303/71/71 301/70/70
f 303/71/71 544/72/72 546/73/73
f 15/74/74 546/73/73 544/72/72
f 546/73/73 15/74/74 26/75/75
f 542/76/76 26/75/75 15/74/74
f 26/75/75 542/76/76 540/77/77
f 75/78/78 540/77/77 542/76/76
f 540/77/77 75/78/78 537/79/79
f 150/80/80 537/79/79 75/78/78
f 242/81/81 232/82/82 238/83/83
f 232/82/82 242/81/81 227/84/84
f 245/85/85 227/84/84 242/81/81
f 227/84/84 245/85/85 229/86/86
f 486/87/87 229/86/86 245/85/85
f 229/86/86 486/87/87 483/88/88
f 446/89/89 483/88/88 486/87/87
f 483/88/88 446/89/89 449/90/90
f 558/91/91 449/90/90 446/89/89
f 449/90/90 558/91/91 167/92/92
f 165/93/93 167/92/92 558/91/91
f 167/92/92 165/93/93 560/94/94
f 562/95/95 560/94/94 165/93/93
f 560/94/94 562/95/95 435/96/96
f 437/97/97 445/98/98 448/99/99
f 445/98/98 437/97/97 434/100/100
f 327/101/101 434/100/100 437/97/97
f 434/100/100 327/101/101 550/102/102
f 491/103/103 550/102/102 327/101/101
f 550/102/102 491/103/103 489/104/104
f 487/105/105 489/104/104 491/103/103
f 489/104/104 487/105/105 554/106/106
f 547/107/107 554/106/106 487/105/105
f 554/106/106 547/107/107 536/108/108
f 545/109/109 536/108/108 547/107/107
f 536/108/108 545/109/109 534/110/110
f 525/111/111 534/110/110 545/109/109
f 534/110/110 525/111/111 520/112/112
f 508/113/113 362/114/114 349/115/115
f 362/114/114 508/113/113 519/116/116
f 364/117/117 519/116/116 508/113/113
f 519/116/116 364/117/117 501/118/118
f 389/119/119 501/118/118 364/117/117
f 501/118/118 389/119/119 528/120/120
f 403/121/121 528/120/120 389/119/119
f 528/120/120 403/121/121 401/122/122
f 425/123/123 401/122/122 403/121/121
f 401/122/122 425/123/123 373/124/124
f 419/34/34 373/124/124 425/123/123
f 373/124/124 419/34/34 292/125/125
f 335/36/36 292/125/125 419/34/34
f 262/19/19 217/22/22 264/21/21
f 217/22/22 262/19/19 274/126/126
f 259/17/17 274/126/126 262/19/19
f 274/126/126 259/17/17 276/127/127
f 257/15/15 276/127/127 259/17/17
f 276/127/127 257/15/15 279/128/128
f 251/129/129 279/128/128 257/15/15
f 279/128/128 251/129/129 247/130/130
f 244/131/131 247/130/130 251/129/129
f 247/130/130 244/131/131 233/132/132
f 230/25/25 233/132/132 244/131/131
f 233/132/132 230/25/25 222/24/24
f 425/123/123 379/38/38 419/34/34
f 379/38/38 425/123/123 427/133/133
f 403/121/121 427/133/133 425/123/123
f 427/133/133 403/121/121 405/134/134
f 407/135/135 405/134/134 403/121/121
f 405/134/134 407/135/135 431/48/48
f 499/136/136 431/48/48 407/135/135
f 431/48/48 499/136/136 433/137/137
f 457/138/138 433/137/137 499/136/136
f 433/137/137 457/138/138 565/139/139
f 563/140/140 565/139/139 457/138/138
f 565/139/139 563/140/140 169/141/141
f 220/142/142 510/143/143 231/144/144
f 510/143/143 220/142/142 477/145/145
f 193/146/146 477/145/145 220/142/142
f 477/145/145 193/146/146 479/147/147
f 481/148/148 479/147/147 193/146/146
f 479/147/147 481/148/148 465/149/149
f 371/150/150 465/149/149 481/148/148
f 465/149/149 371/150/150 578/151/151
f 342/152/152 578/151/151 371/150/150
f 578/151/151 342/152/152 577/153/153
f 473/154/154 577/153/153 342/152/152
f 577/153/153 473/154/154 356/155/155
f 547/107/107 502/156/156 478/157/157
f 502/156/156 547/107/107 539/158/158
f 487/105/105 539/158/158 547/107/107
f 539/158/158 487/105/105 541/159/159
f 491/103/103 541/159/159 487/105/105
f 541/159/159 491/103/103 331/160/160
f 327/101/101 331/160/160 491/103/103
f 331/160/160 327/101/101 380/161/161
f 437/97/97 380/161/161 327/101/101
f 380/161/161 437/97/97 378/162/162
f 448/99/99 378/162/162 437/97/97
f 378/162/162 448/99/99 450/163/163
f 375/37/37 278/164/164 324/35/35
f 278/164/164 375/37/37 156/165/165
f 159/166/166 156/165/165 375/37/37
f 156/165/165 159/166/166 212/167/167
f 214/168/168 212/167/167 159/166/166
f 212/167/167 214/168/168 218/169/169
f 216/170/170 218/169/169 214/168/168
f 218/169/169 216/170/170 423/171/171
f 258/172/172 423/171/171 216/170/170
f 423/171/171 258/172/172 256/173/173
f 187/43/43 256/173/173 258/172/172
f 256/173/173 187/43/43 173/45/45
f 330/174/174 284/60/60 347/175/175
f 284/60/60 330/174/174 328/64/64
f 326/176/176 328/64/64 330/174/174
f 328/64/64 326/176/176 280/177/177
f 332/178/178 280/177/177 326/176/176
f 280/177/177 332/178/178 269/179/179
f 582/180/180 269/179/179 332/178/178
f 269/179/179 582/180/180 273/181/181
f 337/182/182 273/181/181 582/180/180
f 273/181/181 337/182/182 275/183/183
f 334/184/184 275/183/183 337/182/182
f 275/183/183 334/184/184 323/185/185
f 315/11/11 322/32/32 325/13/13
f 322/32/32 315/11/11 312/186/186
f 300/9/9 312/186/186 315/11/11
f 312/186/186 300/9/9 298/187/187
f 287/7/7 298/187/187 300/9/9
f 298/187/187 287/7/7 295/188/188
f 272/1/1 295/188/188 287/7/7
f 295/188/188 272/1/1 270/189/189
f 226/190/190 270/189/189 272/1/1
f 270/189/189 226/190/190 266/30/30
f 236/28/28 266/30/30 226/190/190
f 205/191/191 203/192/192 199/193/193
f 203/192/192 205/191/191 517/194/194
f 248/195/195 517/194/194 205/191/191
f 517/194/194 248/195/195 535/196/196
f 250/197/197 535/196/196 248/195/195
f 535/196/196 250/197/197 263/198/198
f 265/199/199 263/198/198 250/197/197
f 263/198/198 265/199/199 225/200/200
f 451/201/201 225/200/200 265/199/199
f 225/200/200 451/201/201 243/202/202
f 246/59/59 243/202/202 451/201/201
f 218/169/169 417/203/203 212/167/167
f 417/203/203 218/169/169 421/204/204
f 423/171/171 421/204/204 218/169/169
f 421/204/204 423/171/171 250/197/197
f 252/205/205 250/197/197 423/171/171
f 250/197/197 252/205/205 254/206/206
f 442/207/207 254/206/206 252/205/205
f 254/206/206 442/207/207 490/208/208
f 444/55/55 490/208/208 442/207/207
f 490/208/208 444/55/55 488/57/57
f 282/61/61 341/209/209 344/210/210
f 341/209/209 282/61/61 472/211/211
f 475/212/212 472/211/211 282/61/61
f 472/211/211 475/212/212 355/213/213
f 351/214/214 355/213/213 475/212/212
f 355/213/213 351/214/214 358/215/215
f 303/71/71 358/215/215 351/214/214
f 358/215/215 303/71/71 548/216/216
f 546/73/73 548/216/216 303/71/71
f 548/216/216 546/73/73 26/75/75
f 360/217/217 412/218/218 414/219/219
f 412/218/218 360/217/217 430/220/220
f 367/221/221 430/220/220 360/217/217
f 430/220/220 367/221/221 432/222/222
f 390/223/223 432/222/222 367/221/221
f 432/222/222 390/223/223 424/224/224
f 386/225/225 424/224/224 390/223/223
f 424/224/224 386/225/225 426/226/226
f 331/160/160 426/226/226 386/225/225
f 426/226/226 331/160/160 380/161/161
f 336/227/227 338/228/228 384/229/229
f 338/228/228 336/227/227 340/230/230
f 402/231/231 340/230/230 336/227/227
f 340/230/230 402/231/231 352/232/232
f 397/233/233 352/232/232 402/231/231
f 352/232/232 397/233/233 392/234/234
f 400/235/235 392/234/234 397/233/233
f 392/234/234 400/235/235 394/236/236
f 428/237/237 394/236/236 400/235/235
f 153/238/238 133/239/239 124/240/240
f 133/239/239 153/238/238 568/241/241
f 461/242/242 568/241/241 153/238/238
f 568/241/241 461/242/242 569/243/243
f 67/244/244 569/243/243 461/242/242
f 569/243/243 67/244/244 570/245/245
f 571/246/246 570/245/245 67/244/244
f 570/245/245 571/246/246 147/247/247
f 151/248/248 147/247/247 571/246/246
f 412/218/218 408/249/249 404/250/250
f 408/249/249 412/218/218 420/251/251
f 430/220/220 420/251/251 412/218/218
f 420/251/251 430/220/220 422/252/252
f 432/222/222 422/252/252 430/220/220
f 422/252/252 432/222/222 441/253/253
f 376/254/254 441/253/253 432/222/222
f 441/253/253 376/254/254 378/162/162
f 380/161/161 378/162/162 376/254/254
f 561/255/255 552/256/256 532/257/257
f 552/256/256 561/255/255 489/104/104
f 559/258/258 489/104/104 561/255/255
f 489/104/104 559/258/258 550/102/102
f 557/259/259 550/102/102 559/258/258
f 550/102/102 557/259/259 434/100/100
f 443/260/260 434/100/100 557/259/259
f 434/100/100 443/260/260 445/98/98
f 452/261/261 445/98/98 443/260/260
f 20/262/262 15/74/74 544/72/72
f 15/74/74 20/262/262 542/76/76
f 79/263/263 542/76/76 20/262/262
f 542/76/76 79/263/263 77/264/264
f 138/265/265 77/264/264 79/263/263
f 77/264/264 138/265/265 143/266/266
f 470/267/267 143/266/266 138/265/265
f 143/266/266 470/267/267 146/268/268
f 467/269/269 146/268/268 470/267/267
f 237/270/270 225/200/200 243/202/202
f 225/200/200 237/270/270 263/198/198
f 503/271/271 263/198/198 237/270/270
f 263/198/198 503/271/271 535/196/196
f 515/272/272 535/196/196 503/271/271
f 535/196/196 515/272/272 533/273/273
f 235/274/274 533/273/273 515/272/272
f 533/273/273 235/274/274 531/275/275
f 463/276/276 67/244/244 461/242/242
f 67/244/244 463/276/276 42/277/277
f 286/278/278 42/277/277 463/276/276
f 42/277/277 286/278/278 37/279/279
f 574/280/280 37/279/279 286/278/278
f 37/279/279 574/280/280 573/281/281
f 31/282/282 573/281/281 574/280/280
f 573/281/281 31/282/282 538/283/283
f 518/284/284 543/285/285 482/286/286
f 543/285/285 518/284/284 511/287/287
f 516/288/288 511/287/287 518/284/284
f 511/287/287 516/288/288 514/289/289
f 480/290/290 514/289/289 516/288/288
f 514/289/289 480/290/290 456/291/291
f 471/292/292 456/291/291 480/290/290
f 456/291/291 471/292/292 476/293/293
f 511/287/287 506/294/294 543/285/285
f 506/294/294 511/287/287 504/295/295
f 509/296/296 504/295/295 511/287/287
f 504/295/295 509/296/296 466/297/297
f 514/289/289 466/297/297 509/296/296
f 466/297/297 514/289/289 460/298/298
f 456/291/291 460/298/298 514/289/289
f 460/298/298 456/291/291 458/299/299
f 108/300/300 234/301/301 123/302/302
f 234/301/301 108/300/300 73/303/303
f 111/304/304 73/303/303 108/300/300
f 73/303/303 111/304/304 584/305/305
f 114/306/306 584/305/305 111/304/304
f 584/305/305 114/306/306 583/307/307
f 47/308/308 583/307/307 114/306/306
f 583/307/307 47/308/308 52/309/309
f 61/310/310 64/311/311 126/312/312
f 64/311/311 61/310/310 119/313/313
f 470/267/267 119/313/313 61/310/310
f 119/313/313 470/267/267 580/314/314
f 100/315/315 580/314/314 470/267/267
f 580/314/314 100/315/315 97/316/316
f 79/263/263 97/316/316 100/315/315
f 97/316/316 79/263/263 84/317/317
f 369/318/318 398/319/319 365/320/320
f 398/319/319 369/318/318 391/321/321
f 289/322/322 391/321/321 369/318/318
f 391/321/321 289/322/322 383/323/323
f 162/324/324 383/323/323 289/322/322
f 383/323/323 162/324/324 167/92/92
f 223/325/325 167/92/92 162/324/324
f 391/321/321 395/326/326 398/319/319
f 395/326/326 391/321/321 393/327/327
f 383/323/323 393/327/327 391/321/321
f 393/327/327 383/323/323 492/328/328
f 438/329/329 492/328/328 383/323/323
f 492/328/328 438/329/329 495/330/330
f 435/96/96 495/330/330 438/329/329
f 156/165/165 1/331/331 278/164/164
f 1/331/331 156/165/165 103/332/332
f 212/167/167 103/332/332 156/165/165
f 103/332/332 212/167/167 209/333/333
f 417/203/203 209/333/333 212/167/167
f 209/333/333 417/203/203 261/334/334
f 199/193/193 261/334/334 417/203/203
f 73/303/303 530/335/335 234/301/301
f 530/335/335 73/303/303 202/336/336
f 70/337/337 202/336/336 73/303/303
f 202/336/336 70/337/337 198/338/338
f 117/339/339 198/338/338 70/337/337
f 198/338/338 117/339/339 260/340/340
f 55/341/341 260/340/340 117/339/339
f 577/153/153 465/149/149 578/151/151
f 465/149/149 577/153/153 286/278/278
f 576/342/342 286/278/278 577/153/153
f 286/278/278 576/342/342 575/343/343
f 359/344/344 575/343/343 576/342/342
f 575/343/343 359/344/344 549/345/345
f 155/346/346 76/347/347 157/348/348
f 76/347/347 155/346/346 118/349/349
f 152/350/350 118/349/349 155/346/346
f 118/349/349 152/350/350 148/351/351
f 120/352/352 148/351/351 152/350/350
f 148/351/351 120/352/352 131/353/353
f 402/231/231 400/235/235 397/233/233
f 400/235/235 402/231/231 404/250/250
f 370/354/354 404/250/250 402/231/231
f 404/250/250 370/354/354 412/218/218
f 357/355/355 412/218/218 370/354/354
f 412/218/218 357/355/355 414/219/219
f 477/145/145 153/238/238 510/143/143
f 153/238/238 477/145/145 461/242/242
f 479/147/147 461/242/242 477/145/145
f 461/242/242 479/147/147 463/276/276
f 465/149/149 463/276/276 479/147/147
f 463/276/276 465/149/149 286/278/278
f 297/356/356 373/124/124 292/125/125
f 373/124/124 297/356/356 521/357/357
f 524/358/358 521/357/357 297/356/356
f 521/357/357 524/358/358 526/359/359
f 362/114/114 526/359/359 524/358/358
f 526/359/359 362/114/114 519/116/116
f 57/360/360 46/361/361 40/362/362
f 46/361/361 57/360/360 53/363/363
f 620/364/364 53/363/363 57/360/360
f 53/363/363 620/364/364 619/365/365
f 606/366/366 619/365/365 620/364/364
f 619/365/365 606/366/366 609/367/367
f 54/368/368 49/369/369 45/370/370
f 49/369/369 54/368/368 51/371/371
f 618/372/372 51/371/371 54/368/368
f 51/371/371 618/372/372 617/373/373
f 608/374/374 617/373/373 618/372/372
f 617/373/373 608/374/374 607/375/375
f 457/138/138 436/376/376 563/140/140
f 436/376/376 457/138/138 497/377/377
f 499/136/136 497/377/377 457/138/138
f 497/377/377 499/136/136 385/378/378
f 407/135/135 385/378/378 499/136/136
f 385/378/378 407/135/135 403/121/121
f 101/379/379 141/380/380 104/381/381
f 141/380/380 101/379/379 145/382/382
f 88/383/383 145/382/382 101/379/379
f 145/382/382 88/383/383 107/384/384
f 91/385/385 107/384/384 88/383/383
f 107/384/384 91/385/385 109/386/386
f 299/387/387 326/176/176 330/174/174
f 326/176/176 299/387/387 581/388/388
f 294/389/389 581/388/388 299/387/387
f 581/388/388 294/389/389 582/180/180
f 337/182/182 582/180/180 294/389/389
f 396/390/390 387/391/391 399/392/392
f 387/391/391 396/390/390 459/393/393
f 494/394/394 459/393/393 396/390/390
f 459/393/393 494/394/394 497/377/377
f 436/376/376 497/377/377 494/394/394
f 280/177/177 321/66/66 328/64/64
f 321/66/66 280/177/177 317/395/395
f 415/396/396 317/395/395 280/177/177
f 317/395/395 415/396/396 314/397/397
f 4/398/398 314/397/397 415/396/396
f 21/399/399 87/400/400 80/401/401
f 87/400/400 21/399/399 10/402/402
f 308/403/403 10/402/402 21/399/399
f 10/402/402 308/403/403 7/404/404
f 313/405/405 7/404/404 308/403/403
f 484/406/406 522/407/407 482/286/286
f 522/407/407 484/406/406 529/408/408
f 532/257/257 529/408/408 484/406/406
f 529/408/408 532/257/257 534/110/110
f 536/108/108 534/110/110 532/257/257
f 115/409/409 85/410/410 82/411/411
f 85/410/410 115/409/409 113/412/412
f 149/413/413 113/412/412 115/409/409
f 113/412/412 149/413/413 137/414/414
f 128/415/415 137/414/414 149/413/413
f 598/416/416 11/417/417 600/418/418
f 11/417/417 598/416/416 8/419/419
f 5/420/420 8/419/419 598/416/416
f 8/419/419 5/420/420 74/421/421
f 3/422/422 74/421/421 5/420/420
f 371/150/150 346/423/423 342/152/152
f 346/423/423 371/150/150 507/424/424
f 505/425/425 507/424/424 371/150/150
f 507/424/424 505/425/425 366/426/426
f 368/427/427 366/426/426 505/425/425
f 307/16/16 318/12/12 320/14/14
f 318/12/12 307/16/16 302/10/10
f 293/428/428 302/10/10 307/16/16
f 302/10/10 293/428/428 290/8/8
f 285/20/20 290/8/8 293/428/428
f 117/339/339 52/309/309 55/341/341
f 52/309/309 117/339/339 583/307/307
f 70/337/337 583/307/307 117/339/339
f 583/307/307 70/337/337 584/305/305
f 73/303/303 584/305/305 70/337/337
f 420/251/251 410/429/429 408/249/249
f 410/429/429 420/251/251 416/430/430
f 418/431/431 416/430/430 420/251/251
f 416/430/430 418/431/431 374/432/432
f 388/433/433 374/432/432 418/431/431
f 174/434/434 206/435/435 194/436/436
f 206/435/435 174/434/434 166/437/437
f 171/438/438 166/437/437 174/434/434
f 166/437/437 171/438/438 168/439/439
f 569/243/243 133/239/239 568/241/241
f 133/239/239 569/243/243 468/440/440
f 570/245/245 468/440/440 569/243/243
f 468/440/440 570/245/245 147/247/247
f 2/441/441 68/442/442 72/443/443
f 68/442/442 2/441/441 629/444/444
f 601/445/445 629/444/444 2/441/441
f 629/444/444 601/445/445 589/446/446
f 516/288/288 525/111/111 480/290/290
f 525/111/111 516/288/288 520/112/112
f 518/284/284 520/112/112 516/288/288
f 520/112/112 518/284/284 482/286/286
f 160/447/447 197/448/448 188/449/449
f 197/448/448 160/447/447 175/450/450
f 164/451/451 175/450/450 160/447/447
f 175/450/450 164/451/451 172/452/452
f 94/453/453 413/454/454 90/455/455
f 413/454/454 94/453/453 4/398/398
f 6/456/456 4/398/398 94/453/453
f 4/398/398 6/456/456 314/397/397
f 512/457/457 153/238/238 124/240/240
f 153/238/238 512/457/457 510/143/143
f 239/458/458 510/143/143 512/457/457
f 510/143/143 239/458/458 231/144/144
f 462/459/459 460/298/298 458/299/299
f 460/298/298 462/459/459 466/297/297
f 464/460/460 466/297/297 462/459/459
f 466/297/297 464/460/460 469/461/461
f 422/252/252 418/431/431 420/251/251
f 418/431/431 422/252/252 439/462/462
f 441/253/253 439/462/462 422/252/252
f 439/462/462 441/253/253 378/162/162
f 90/455/455 97/316/316 84/317/317
f 97/316/316 90/455/455 58/463/463
f 413/454/454 58/463/463 90/455/455
f 58/463/463 413/454/454 50/464/464
f 361/465/465 330/174/174 345/466/466
f 330/174/174 361/465/465 299/387/387
f 523/467/467 299/387/387 361/465/465
f 299/387/387 523/467/467 296/468/468
f 227/84/84 221/469/469 232/82/82
f 221/469/469 227/84/84 223/325/325
f 229/86/86 223/325/325 227/84/84
f 223/325/325 229/86/86 483/88/88
f 64/311/311 108/300/300 125/470/470
f 108/300/300 64/311/311 106/471/471
f 119/313/313 106/471/471 64/311/311
f 106/471/471 119/313/313 580/314/314
f 623/472/472 585/473/473 603/474/474
f 585/473/473 623/472/472 624/475/475
f 59/476/476 624/475/475 623/472/472
f 624/475/475 59/476/476 63/477/477
f 621/478/478 604/479/479 605/480/480
f 604/479/479 621/478/478 622/481/481
f 56/482/482 622/481/481 621/478/478
f 622/481/481 56/482/482 60/483/483
f 626/484/484 62/485/485 66/486/486
f 62/485/485 626/484/484 625/487/487
f 588/488/488 625/487/487 626/484/484
f 625/487/487 588/488/488 586/489/489
f 628/490/490 65/491/491 69/492/492
f 65/491/491 628/490/490 627/493/493
f 590/494/494 627/493/493 628/490/490
f 627/493/493 590/494/494 587/495/495
f 112/496/496 92/497/497 86/498/498
f 92/497/497 112/496/496 110/499/499
f 134/500/500 110/499/499 112/496/496
f 110/499/499 134/500/500 142/501/501
f 37/279/279 67/244/244 42/277/277
f 67/244/244 37/279/279 572/502/502
f 573/281/281 572/502/502 37/279/279
f 572/502/502 573/281/281 538/283/283
f 389/119/119 385/378/378 403/121/121
f 385/378/378 389/119/119 387/391/391
f 364/117/117 387/391/391 389/119/119
f 387/391/391 364/117/117 399/392/392
f 555/503/503 558/91/91 446/89/89
f 558/91/91 555/503/503 165/93/93
f 170/504/504 165/93/93 555/503/503
f 165/93/93 170/504/504 562/95/95
f 266/30/30 295/188/188 270/189/189
f 295/188/188 266/30/30 309/505/505
f 322/32/32 309/505/505 266/30/30
f 309/505/505 322/32/32 312/186/186
f 256/173/173 252/205/205 423/171/171
f 252/205/205 256/173/173 440/506/506
f 173/45/45 440/506/506 256/173/173
f 440/506/506 173/45/45 176/47/47
f 372/507/507 408/249/249 410/429/429
f 408/249/249 372/507/507 406/508/508
f 428/237/237 406/508/508 372/507/507
f 406/508/508 428/237/237 400/235/235
f 505/425/425 288/509/509 368/427/427
f 288/509/509 505/425/425 481/148/148
f 371/150/150 481/148/148 505/425/425
f 255/33/33 251/129/129 257/15/15
f 251/129/129 255/33/33 249/29/29
f 268/31/31 249/29/29 255/33/33
f 32/510/510 540/77/77 537/79/79
f 540/77/77 32/510/510 26/75/75
f 548/216/216 26/75/75 32/510/510
f 525/111/111 471/292/292 480/290/290
f 471/292/292 525/111/111 527/511/511
f 474/512/512 527/511/511 525/111/111
f 162/324/324 221/469/469 223/325/325
f 221/469/469 162/324/324 192/513/513
f 289/322/322 192/513/513 162/324/324
f 352/232/232 350/514/514 343/515/515
f 350/514/514 352/232/232 354/516/516
f 392/234/234 354/516/516 352/232/232
f 74/421/421 14/517/517 9/518/518
f 14/517/517 74/421/421 71/519/519
f 3/422/422 71/519/519 74/421/421
f 87/400/400 83/520/520 80/401/401
f 83/520/520 87/400/400 89/521/521
f 93/522/522 89/521/521 87/400/400
f 161/523/523 158/524/524 163/525/525
f 158/524/524 161/523/523 154/526/526
f 211/527/527 154/526/526 161/523/523
f 224/528/528 217/22/22 274/126/126
f 217/22/22 224/528/528 222/24/24
f 233/132/132 222/24/24 224/528/528
f 451/201/201 488/57/57 246/59/59
f 488/57/57 451/201/201 490/208/208
f 265/199/199 490/208/208 451/201/201
f 376/254/254 426/226/226 380/161/161
f 426/226/226 376/254/254 424/224/224
f 432/222/222 424/224/224 376/254/254
f 551/53/53 179/49/49 267/51/51
f 179/49/49 551/53/53 442/207/207
f 444/55/55 442/207/207 551/53/53
f 427/133/133 381/40/40 379/38/38
f 381/40/40 427/133/133 411/42/42
f 409/44/44 411/42/42 427/133/133
f 405/134/134 409/44/44 427/133/133
f 409/44/44 405/134/134 429/46/46
f 431/48/48 429/46/46 405/134/134
f 552/256/256 536/108/108 532/257/257
f 536/108/108 552/256/256 554/106/106
f 489/104/104 554/106/106 552/256/256
f 184/41/41 214/168/168 159/166/166
f 214/168/168 184/41/41 216/170/170
f 258/172/172 216/170/170 184/41/41
f 331/160/160 498/529/529 541/159/159
f 498/529/529 331/160/160 329/530/530
f 386/225/225 329/530/530 331/160/160
f 118/349/349 81/531/531 76/347/347
f 81/531/531 118/349/349 116/532/532
f 148/351/351 116/532/532 118/349/349
f 152/350/350 183/533/533 120/352/352
f 183/533/533 152/350/350 210/534/534
f 155/346/346 210/534/534 152/350/350
f 455/52/52 169/141/141 556/535/535
f 169/141/141 455/52/52 565/139/139
f 567/50/50 565/139/139 455/52/52
f 5/420/420 602/536/536 3/422/422
f 602/536/536 5/420/420 591/537/537
f 598/416/416 591/537/537 5/420/420
f 203/192/192 533/273/273 531/275/275
f 533/273/273 203/192/192 517/194/194
f 215/23/23 213/2/2 253/4/4
f 213/2/2 215/23/23 219/3/3
f 240/538/538 515/272/272 503/271/271
f 515/272/272 240/538/538 513/539/539
f 127/540/540 515/272/272 513/539/539
f 515/272/272 127/540/540 235/274/274
f 306/541/541 308/403/403 21/399/399
f 308/403/403 306/541/541 310/542/542
f 316/543/543 308/403/403 310/542/542
f 308/403/403 316/543/543 313/405/405
f 7/404/404 87/400/400 10/402/402
f 87/400/400 7/404/404 93/522/522
f 249/29/29 244/131/131 251/129/129
f 244/131/131 249/29/29 241/27/27
f 144/544/544 109/386/386 139/545/545
f 109/386/386 144/544/544 107/384/384
f 418/431/431 450/163/163 388/433/433
f 450/163/163 418/431/431 439/462/462
f 404/250/250 406/508/508 400/235/235
f 406/508/508 404/250/250 408/249/249
f 374/432/432 410/429/429 416/430/430
f 410/429/429 374/432/432 372/507/507
f 208/546/546 55/341/341 102/547/547
f 55/341/341 208/546/546 260/340/340
f 97/316/316 106/471/471 580/314/314
f 106/471/471 97/316/316 58/463/463
f 336/227/227 370/354/354 402/231/231
f 370/354/354 336/227/227 357/355/355
f 340/230/230 343/515/515 338/228/228
f 343/515/515 340/230/230 352/232/232
f 363/548/548 336/227/227 384/229/229
f 336/227/227 363/548/548 357/355/355
f 382/549/549 445/98/98 452/261/261
f 445/98/98 382/549/549 448/99/99
f 500/550/550 532/257/257 484/406/406
f 532/257/257 500/550/550 561/255/255
f 534/110/110 522/407/407 529/408/408
f 522/407/407 534/110/110 520/112/112
f 47/308/308 58/463/463 50/464/464
f 58/463/463 47/308/308 114/306/306
f 478/157/157 545/109/109 547/107/107
f 545/109/109 478/157/157 474/512/512
f 564/551/551 443/260/260 557/259/259
f 443/260/260 564/551/551 333/552/552
f 539/158/158 498/529/529 502/156/156
f 498/529/529 539/158/158 541/159/159
f 496/553/553 456/291/291 476/293/293
f 456/291/291 496/553/553 458/299/299
f 219/3/3 226/190/190 272/1/1
f 226/190/190 219/3/3 228/26/26
f 575/343/343 574/280/280 286/278/278
f 574/280/280 575/343/343 549/345/345
f 572/502/502 571/246/246 67/244/244
f 571/246/246 572/502/502 538/283/283
f 557/259/259 493/554/554 564/551/551
f 493/554/554 557/259/259 559/258/258
f 356/155/155 576/342/342 577/153/153
f 576/342/342 356/155/155 359/344/344
f 105/555/555 136/556/556 99/557/557
f 136/556/556 105/555/555 140/558/558
f 610/559/559 28/560/560 33/561/561
f 28/560/560 610/559/559 592/562/562
f 612/563/563 34/564/564 38/565/565
f 34/564/564 612/563/563 611/566/566
f 44/567/567 614/568/568 615/569/569
f 614/568/568 44/567/567 48/570/570
f 616/571/571 39/572/572 43/573/573
f 39/572/572 616/571/571 613/574/574
f 593/575/575 23/576/576 27/577/577
f 23/576/576 593/575/575 595/578/578
f 594/579/579 17/580/580 22/581/581
f 17/580/580 594/579/579 597/582/582
f 596/583/583 12/584/584 16/585/585
f 12/584/584 596/583/583 599/586/586
f 526/359/359 528/120/120 401/122/122
f 528/120/120 526/359/359 519/116/116
f 377/39/39 159/166/166 375/37/37
f 159/166/166 377/39/39 184/41/41
f 521/357/357 401/122/122 373/124/124
f 401/122/122 521/357/357 526/359/359
f 433/137/137 567/50/50 431/48/48
f 567/50/50 433/137/137 565/139/139
f 296/468/468 294/389/389 299/387/387
f 294/389/389 296/468/468 291/587/587
f 291/587/587 337/182/182 294/389/389
f 337/182/182 291/587/587 334/184/184
f 311/588/588 321/66/66 317/395/395
f 321/66/66 311/588/588 305/68/68
f 339/63/63 475/212/212 282/61/61
f 475/212/212 339/63/63 579/65/65
f 177/589/589 121/590/590 181/591/591
f 121/590/590 177/589/589 78/592/592
f 29/593/593 59/476/476 36/594/594
f 59/476/476 29/593/593 63/477/477
f 13/595/595 68/442/442 19/596/596
f 68/442/442 13/595/595 72/443/443
f 18/597/597 65/491/491 25/598/598
f 65/491/491 18/597/597 69/492/492
f 24/599/599 62/485/485 30/600/600
f 62/485/485 24/599/599 66/486/486
f 35/601/601 56/482/482 41/602/602
f 56/482/482 35/601/601 60/483/483
f 138/265/265 100/315/315 470/267/267
f 100/315/315 138/265/265 79/263/263
f 319/67/67 475/212/212 579/65/65
f 475/212/212 319/67/67 353/69/69
f 305/68/68 544/72/72 301/70/70
f 544/72/72 305/68/68 20/262/262
f 353/69/69 351/214/214 475/212/212
f 351/214/214 353/69/69 303/71/71
f 132/603/603 61/310/310 122/604/604
f 61/310/310 132/603/603 467/269/269
f 276/127/127 224/528/528 274/126/126
f 224/528/528 276/127/127 233/132/132
f 254/206/206 265/199/199 250/197/197
f 265/199/199 254/206/206 490/208/208
f 205/191/191 417/203/203 421/204/204
f 417/203/203 205/191/191 199/193/193
f 248/195/195 421/204/204 250/197/197
f 421/204/204 248/195/195 205/191/191
f 283/6/6 285/20/20 253/4/4
f 285/20/20 283/6/6 290/8/8
f 271/605/605 280/177/177 269/179/179
f 280/177/177 271/605/605 415/396/396
f 617/373/373 48/570/570 51/371/371
f 48/570/570 617/373/373 607/375/375
f 143/266/266 150/80/80 75/78/78
f 150/80/80 143/266/266 146/268/268
f 95/606/606 121/590/590 78/592/592
f 121/590/590 95/606/606 129/607/607
f 185/608/608 182/609/609 189/610/610
f 182/609/609 185/608/608 178/611/611
f 204/612/612 196/613/613 207/614/614
f 196/613/613 204/612/612 200/615/615
f 168/439/439 207/614/614 166/437/437
f 207/614/614 168/439/439 204/612/612
f 201/616/616 190/617/617 195/618/618
f 190/617/617 201/616/616 186/619/619
f 191/620/620 211/527/527 161/523/523
f 211/527/527 191/620/620 180/621/621
f 495/330/330 393/327/327 492/328/328
f 393/327/327 495/330/330 395/326/326
f 98/622/622 130/623/623 96/624/624
f 130/623/623 98/622/622 135/625/625
f 581/388/388 332/178/178 326/176/176
f 332/178/178 581/388/388 582/180/180
f 449/90/90 223/325/325 483/88/88
f 223/325/325 449/90/90 167/92/92
f 385/378/378 459/393/393 497/377/377
f 459/393/393 385/378/378 387/391/391
f 440/506/506 442/207/207 252/205/205
f 442/207/207 440/506/506 176/47/47
f 247/130/130 276/127/127 279/128/128
f 276/127/127 247/130/130 233/132/132
f 309/505/505 298/187/187 295/188/188
f 298/187/187 309/505/505 312/186/186
f 453/56/56 447/626/626 485/58/58
f 447/626/626 453/56/56 553/54/54
f 553/54/54 556/535/535 447/626/626
f 556/535/535 553/54/54 455/52/52
f 77/264/264 75/78/78 542/76/76
f 75/78/78 77/264/264 143/266/266
f 106/471/471 111/304/304 108/300/300
f 111/304/304 106/471/471 58/463/463
f 293/428/428 304/18/18 285/20/20
f 304/18/18 293/428/428 307/16/16
f 167/92/92 438/329/329 383/323/323
f 438/329/329 167/92/92 560/94/94
f 230/25/25 244/131/131 241/27/27
f 228/26/26 236/28/28 226/190/190
f 281/5/5 272/1/1 287/7/7
f 443/260/260 333/552/552 452/261/261
f 58/463/463 114/306/306 111/304/304
f 323/185/185 277/627/627 275/183/183
f 519/116/116 501/118/118 528/120/120
f 176/47/47 179/49/49 442/207/207
f 184/41/41 187/43/43 258/172/172
f 61/310/310 467/269/269 470/267/267
f 561/255/255 493/554/554 559/258/258
f 560/94/94 435/96/96 438/329/329
f 48/570/570 607/375/375 614/568/568
f 450/163/163 448/99/99 382/549/549
f 566/628/628 493/554/554 561/255/255
f 535/196/196 533/273/273 517/194/194
f 500/550/550 566/628/628 561/255/255
f 481/148/148 193/146/146 288/509/509
f 574/280/280 549/345/345 31/282/282
f 538/283/283 151/248/248 571/246/246
f 454/629/629 450/163/163 382/549/549
f 466/297/297 469/461/461 504/295/295
f 511/287/287 514/289/289 509/296/296
f 388/433/433 450/163/163 454/629/629
f 525/111/111 545/109/109 474/512/512
f 482/286/286 522/407/407 520/112/112
f 378/162/162 450/163/163 439/462/462
