# Blender v2.79 (sub 0) OBJ File: ''
# www.blender.org
mtllib face 12.mtl
o n0b0_n0b0.010
v 0.466406 1.200391 0.000000
v 2.408984 -2.917578 -2.084375
v 4.046094 -0.587891 0.000000
v 2.775391 -2.034766 -2.108984
v 4.476953 -0.707031 0.000000
v 4.476953 -0.707031 0.000000
v 2.721484 -1.972656 -1.883984
v 5.185547 -0.264453 0.000000
v 2.778516 -2.980860 -1.882031
v 6.558203 1.026953 0.000000
v 3.241797 -2.928906 -1.641797
v 6.069922 0.667188 0.000000
v 6.069922 0.667188 0.000000
v 3.039062 -2.559766 -2.110938
v 6.847266 1.135547 0.000000
v 3.390234 -2.507812 -1.913672
v 6.893360 1.355078 0.000000
v 6.893360 1.355078 0.000000
v 4.044531 -1.670703 -1.219141
v 0.132812 2.054297 0.000000
v 4.294922 -1.507031 -0.660547
v 0.352734 3.178906 0.000000
v 2.094531 -1.826563 -2.282031
v 6.439453 1.337891 0.000000
v 3.256250 -1.986719 -1.950781
v 6.577734 1.306250 0.000000
v 6.577734 1.306250 0.000000
v 3.659375 -1.855469 -1.633594
v 4.723047 4.126953 0.000000
v 4.341406 -2.272266 0.000000
v 5.537109 3.408203 0.000000
v 4.253516 -2.362891 -0.578906
v 6.126172 2.546094 0.000000
v 3.564844 -2.782031 -1.371094
v 1.253516 4.147266 0.000000
v 3.781250 -2.355078 -1.633984
v 2.443359 4.578516 0.000000
v 3.993750 -2.414453 0.000000
v 6.429297 1.899609 0.000000
v 3.948437 -2.490625 -0.477734
v 2.478516 0.285938 1.895703
v 3.637110 -2.596094 -0.783984
v 3.221875 -0.007031 1.472266
v 3.199610 -2.741016 -1.107813
v 1.506250 0.484766 2.110938
v 3.835547 -2.403516 -0.427734
v 1.007031 0.694141 1.981641
v 3.167578 -2.614063 -1.026563
v 0.656250 1.053125 0.931250
v 0.656250 1.053125 0.931250
v 3.156250 -0.679688 1.876953
v 3.410938 0.054688 2.110938
v 3.626953 -0.107422 1.538281
v 3.626172 1.202344 2.982813
v 3.142578 -0.570312 2.025000
v 3.225391 0.735547 2.834375
v 3.496094 -0.014844 1.689844
v 1.146484 0.486328 3.043360
v 1.146484 0.486328 3.043360
v 3.221484 -0.007031 1.472266
v 1.902344 0.157031 2.942578
v 2.956641 -0.447266 2.083203
v 1.825391 0.569531 3.236719
v 1.825391 0.569531 3.236719
v 2.777344 -0.432031 1.946875
v 2.563281 0.315625 2.988672
v 2.782422 -1.543359 1.927734
v 6.190235 1.115625 1.261328
v 3.101953 -1.870313 1.652344
v 6.446094 1.229297 1.333984
v 3.064063 -0.681250 1.757812
v 5.789844 0.784766 1.196094
v 5.789844 0.784766 1.196094
v 3.408203 -1.741797 1.446875
v 5.157813 -0.179688 0.587500
v 2.794922 -1.551953 2.106641
v 5.067188 0.015234 1.172656
v 5.067188 0.015234 1.172656
v 1.872266 -2.528906 2.118750
v 4.468750 -0.620703 0.559766
v 4.468750 -0.620703 0.559766
v 2.060156 -2.851172 1.738672
v 4.159766 -0.485547 1.202734
v 4.159766 -0.485547 1.202734
v 4.170312 -2.143750 1.226953
v 5.051172 0.897266 2.066016
v 3.936719 -2.577344 1.039062
v 4.469922 0.403906 2.067188
v 4.417188 -1.973047 0.683594
v 0.538281 0.847266 1.869922
v 0.538281 0.847266 1.869922
v 3.492578 -2.510547 0.731641
v 2.811328 0.026172 2.541406
v 3.507422 -0.119922 1.294141
v 3.476562 0.394141 2.471484
v 3.974219 -1.396875 0.562891
v 2.993750 0.349219 2.782813
v 2.583984 -2.734766 1.398828
v 2.551563 0.194531 2.388672
v 3.761328 -1.523438 1.071094
v 0.730859 0.650391 2.473047
v 0.730859 0.650391 2.473047
v 2.492969 -0.830078 2.167969
v 1.410156 0.464453 2.587109
v 2.241797 -1.384766 2.290625
v 3.643750 1.113281 2.833594
v 2.628516 -0.859375 2.297656
v 3.584375 1.330469 2.969531
v 3.584375 1.330469 2.969531
v 2.353125 -1.460938 2.417969
v 3.116016 0.825000 2.971484
v 3.116016 0.825000 2.971484
v 3.116016 0.825000 2.971484
v 3.116016 0.825000 2.971484
v 3.116016 0.825000 2.971484
v 3.116016 0.825000 2.971484
v 3.116016 0.825000 2.971484
v 2.878906 -1.008594 2.204688
v 5.633203 1.376953 2.123438
v 2.700781 -1.591406 2.329688
v 5.476953 1.248047 2.052734
v 2.078125 -2.075000 2.327734
v 5.662500 1.586328 2.159375
v 5.662500 1.586328 2.159375
v 2.413281 -2.494922 2.319141
v 6.494922 1.456641 1.337500
v 6.494922 1.456641 1.337500
v 2.408984 -2.917578 2.084375
v 2.911328 0.750391 3.041797
v 2.911328 0.750391 3.041797
v 2.775391 -2.034766 2.108984
v 3.010547 0.851562 2.989453
v 3.010547 0.851562 2.989453
v 3.010547 0.851562 2.989453
v 2.721484 -1.972656 1.883984
v 3.051953 0.877344 2.716016
v 3.051953 0.877344 2.716016
v 2.778516 -2.980860 1.882031
v 3.158594 0.901172 2.802344
v 3.241797 -2.928906 1.641797
v 1.148047 1.072656 3.309375
v 3.039062 -2.559766 2.110938
v 0.181641 1.767969 1.798437
v 3.390234 -2.507812 1.913672
v 0.472656 2.866406 1.748047
v 4.044531 -1.670703 1.219141
v 0.844141 2.463281 2.709766
v 4.294922 -1.507031 0.660547
v 1.347266 3.833984 1.803906
v 2.094531 -1.826563 2.282031
v 4.506250 2.038672 2.474609
v 3.256250 -1.986719 1.950781
v 3.543360 1.461719 3.041797
v 3.659375 -1.855469 1.633594
v 3.434375 1.760156 2.907422
v 4.253516 -2.362891 0.578906
v 3.556641 1.357813 2.605469
v 3.564844 -2.782031 1.371094
v 4.267188 1.516406 2.301172
v 3.781250 -2.355078 1.633984
v 4.330078 1.532422 2.467188
v 4.330078 1.532422 2.467188
v 3.948437 -2.490625 0.477734
v 3.576563 1.327734 2.794531
v 3.576563 1.327734 2.794531
v 3.637110 -2.596094 0.783984
v 2.113672 1.607031 3.418750
v 3.199610 -2.741016 1.107813
v 3.170703 2.494531 3.157813
v 3.835547 -2.403516 0.427734
v 4.854297 3.472656 2.048828
v 3.167578 -2.614063 1.026563
v 5.049219 2.662109 2.305859
v 4.614844 4.050391 1.141406
v 2.467969 4.296094 1.742188
v 3.880859 -0.279687 0.939063
v 0.560938 1.387109 2.776172
v 1.393750 1.896484 3.352344
v 2.354687 3.536719 2.737109
v 5.365234 3.425781 1.052344
v 5.898438 2.591797 1.137891
v 6.171484 1.924219 1.167578
v 6.209766 1.365625 1.239453
v 6.209766 1.365625 1.239453
v 6.084766 1.381641 1.171875
v 6.748437 1.626172 0.000000
v 6.383203 1.688672 1.224219
v 4.595703 1.744531 2.575000
v 4.570703 1.523047 2.733984
v 4.570703 1.523047 2.733984
v 4.462891 1.370703 2.748438
v 5.413281 1.479297 1.788281
v 5.524219 1.458594 1.924219
v 5.524219 1.458594 1.924219
v 5.724219 1.760156 1.927734
v 5.638672 2.017969 1.743359
v 2.873828 0.993750 3.055469
v 3.048438 0.898047 2.766406
v 3.005469 0.866797 2.952734
v 3.005469 0.866797 2.952734
v 3.005469 0.866797 2.952734
v 2.823437 0.925000 3.078906
v 1.839844 1.072266 3.363281
v 2.360938 0.667969 3.129297
v 2.360938 0.667969 3.129297
v 2.318750 1.042188 3.212891
v 2.519922 1.360937 3.223047
v 6.450000 1.071094 0.630469
v 6.722266 1.182422 0.666797
v 6.769922 1.405859 0.668750
v 6.769922 1.405859 0.668750
v 6.341797 1.324609 0.578125
v 6.481641 1.280078 0.599609
v 6.481641 1.280078 0.599609
v 6.658594 1.633203 0.576953
v 6.386328 1.887109 0.524609
v 6.585938 1.313281 0.000000
v 6.480469 1.361719 0.645312
v 6.028516 1.414844 1.342969
v 5.355469 1.509766 1.939062
v 4.496094 1.538281 2.402344
v 3.551172 1.357422 2.728516
v 4.378125 0.978516 2.449219
v 2.323437 0.121094 2.741797
v 2.073437 0.303516 2.487891
v 3.626172 1.202344 -2.982813
v 3.225391 0.735547 -2.834375
v 3.643750 1.113281 -2.833594
v 1.902344 0.157031 -2.942578
v 1.825391 0.569531 -3.236719
v 1.825391 0.569531 -3.236719
v 1.146484 0.486328 -3.043360
v 1.146484 0.486328 -3.043360
v 6.446094 1.229297 -1.333984
v 6.190235 1.115625 -1.261328
v 6.450000 1.071094 -0.630469
v 6.722266 1.182422 -0.666797
v 5.789844 0.784766 -1.196094
v 5.789844 0.784766 -1.196094
v 5.157813 -0.179688 -0.587500
v 5.067188 0.015234 -1.172656
v 5.067188 0.015234 -1.172656
v 4.159766 -0.485547 -1.202734
v 4.159766 -0.485547 -1.202734
v 4.468750 -0.620703 -0.559766
v 4.468750 -0.620703 -0.559766
v 4.469922 0.403906 -2.067188
v 5.051172 0.897266 -2.066016
v 3.476562 0.394141 -2.471484
v 2.993750 0.349219 -2.782813
v 2.811328 0.026172 -2.541406
v 3.410938 0.054688 -2.110938
v 2.551563 0.194531 -2.388672
v 0.730859 0.650391 -2.473047
v 0.730859 0.650391 -2.473047
v 1.410156 0.464453 -2.587109
v 3.116016 0.825000 -2.971484
v 3.116016 0.825000 -2.971484
v 3.116016 0.825000 -2.971484
v 3.116016 0.825000 -2.971484
v 3.116016 0.825000 -2.971484
v 3.116016 0.825000 -2.971484
v 3.116016 0.825000 -2.971484
v 3.584375 1.330469 -2.969531
v 3.584375 1.330469 -2.969531
v 4.462891 1.370703 -2.748438
v 5.633203 1.376953 -2.123438
v 5.662500 1.586328 -2.159375
v 5.662500 1.586328 -2.159375
v 4.570703 1.523047 -2.733984
v 4.570703 1.523047 -2.733984
v 4.378125 0.978516 -2.449219
v 5.476953 1.248047 -2.052734
v 6.494922 1.456641 -1.337500
v 6.494922 1.456641 -1.337500
v 6.769922 1.405859 -0.668750
v 6.769922 1.405859 -0.668750
v 3.551172 1.357422 -2.728516
v 3.158594 0.901172 -2.802344
v 0.538281 0.847266 -1.869922
v 0.538281 0.847266 -1.869922
v 0.656250 1.053125 -0.931250
v 0.656250 1.053125 -0.931250
v 1.007031 0.694141 -1.981641
v 2.478516 0.285938 -1.895703
v 2.073437 0.303516 -2.487891
v 1.506250 0.484766 -2.110938
v 2.911328 0.750391 -3.041797
v 2.911328 0.750391 -3.041797
v 2.563281 0.315625 -2.988672
v 2.323437 0.121094 -2.741797
v 4.046094 -0.587891 0.000000
v 3.005469 0.866797 -2.952734
v 3.005469 0.866797 -2.952734
v 3.005469 0.866797 -2.952734
v 3.048438 0.898047 -2.766406
v 3.221875 -0.007031 -1.472266
v 3.880859 -0.279687 -0.939063
v 5.355469 1.509766 -1.939062
v 6.028516 1.414844 -1.342969
v 2.360938 0.667969 -3.129297
v 2.360938 0.667969 -3.129297
v 6.480469 1.361719 -0.645312
v 1.148047 1.072656 -3.309375
v 0.181641 1.767969 -1.798437
v 0.472656 2.866406 -1.748047
v 1.347266 3.833984 -1.803906
v 3.010547 0.851562 -2.989453
v 3.010547 0.851562 -2.989453
v 3.010547 0.851562 -2.989453
v 2.873828 0.993750 -3.055469
v 2.823437 0.925000 -3.078906
v 3.556641 1.357813 -2.605469
v 4.267188 1.516406 -2.301172
v 4.330078 1.532422 -2.467188
v 4.330078 1.532422 -2.467188
v 3.576563 1.327734 -2.794531
v 3.576563 1.327734 -2.794531
v 6.341797 1.324609 -0.578125
v 6.481641 1.280078 -0.599609
v 6.481641 1.280078 -0.599609
v 6.209766 1.365625 -1.239453
v 6.209766 1.365625 -1.239453
v 6.084766 1.381641 -1.171875
v 6.383203 1.688672 -1.224219
v 6.658594 1.633203 -0.576953
v 2.519922 1.360937 -3.223047
v 3.170703 2.494531 -3.157813
v 2.113672 1.607031 -3.418750
v 4.854297 3.472656 -2.048828
v 5.049219 2.662109 -2.305859
v 3.434375 1.760156 -2.907422
v 4.506250 2.038672 -2.474609
v 4.614844 4.050391 -1.141406
v 5.365234 3.425781 -1.052344
v 5.898438 2.591797 -1.137891
v 5.638672 2.017969 -1.743359
v 6.171484 1.924219 -1.167578
v 6.386328 1.887109 -0.524609
v 2.467969 4.296094 -1.742188
v 1.393750 1.896484 -3.352344
v 2.354687 3.536719 -2.737109
v 0.844141 2.463281 -2.709766
v 4.595703 1.744531 -2.575000
v 5.524219 1.458594 -1.924219
v 5.524219 1.458594 -1.924219
v 5.724219 1.760156 -1.927734
v 3.543360 1.461719 -3.041797
v 1.839844 1.072266 -3.363281
v 0.560938 1.387109 -2.776172
v 3.051953 0.877344 -2.716016
v 3.051953 0.877344 -2.716016
v 5.413281 1.479297 -1.788281
v 4.496094 1.538281 -2.402344
v 2.318750 1.042188 -3.212891
v 3.757422 3.548828 -2.392969
v 3.725391 4.354688 -1.441797
v 3.767188 4.533985 0.000000
v 3.725391 4.354688 1.441797
v 3.757422 3.548828 2.392969
v 4.219141 2.635937 2.732031
v 4.219141 2.635937 -2.732031
v 4.482031 -1.894531 0.000000
v 4.075781 -1.321875 0.000000
v 4.350391 -1.433203 0.000000
v 3.921484 -2.321484 0.000000
v 3.156250 -0.679688 -1.876953
v 3.626953 -0.107422 -1.538281
v 3.142578 -0.570312 -2.025000
v 3.496094 -0.014844 -1.689844
v 3.221484 -0.007031 -1.472266
v 2.956641 -0.447266 -2.083203
v 2.777344 -0.432031 -1.946875
v 2.782422 -1.543359 -1.927734
v 3.101953 -1.870313 -1.652344
v 3.064063 -0.681250 -1.757812
v 3.408203 -1.741797 -1.446875
v 2.794922 -1.551953 -2.106641
v 1.872266 -2.528906 -2.118750
v 2.060156 -2.851172 -1.738672
v 4.170312 -2.143750 -1.226953
v 3.936719 -2.577344 -1.039062
v 4.417188 -1.973047 -0.683594
v 3.492578 -2.510547 -0.731641
v 3.507422 -0.119922 -1.294141
v 3.974219 -1.396875 -0.562891
v 2.583984 -2.734766 -1.398828
v 3.761328 -1.523438 -1.071094
v 2.492969 -0.830078 -2.167969
v 2.241797 -1.384766 -2.290625
v 2.628516 -0.859375 -2.297656
v 2.353125 -1.460938 -2.417969
v 2.878906 -1.008594 -2.204688
v 2.700781 -1.591406 -2.329688
v 2.078125 -2.075000 -2.327734
v 2.413281 -2.494922 -2.319141
vt 0.392151 0.475342
vt 0.337524 0.494995
vt 0.393738 0.497559
vt 0.321838 0.478455
vt 0.372192 0.461792
vt 0.315613 0.461792
vt 0.313171 0.440002
vt 0.254150 0.447876
vt 0.311768 0.426392
vt 0.254150 0.427002
vt 0.312134 0.419067
vt 0.254150 0.417664
vt 0.312500 0.411804
vt 0.254150 0.408264
vt 0.310425 0.392029
vt 0.254150 0.389648
vt 0.317139 0.377441
vt 0.254150 0.374939
vt 0.288757 0.360657
vt 0.254150 0.359436
vt 0.254150 0.350037
vt 0.288757 0.360657
vt 0.290222 0.351318
vt 0.323303 0.361938
vt 0.326233 0.352539
vt 0.367859 0.372253
vt 0.376404 0.364502
vt 0.412476 0.382629
vt 0.426514 0.376404
vt 0.470337 0.405579
vt 0.439636 0.370789
vt 0.481018 0.402954
vt 0.506226 0.920166
vt 0.581909 0.937988
vt 0.506226 0.932434
vt 0.584045 0.929199
vt 0.506226 0.910522
vt 0.585571 0.920288
vt 0.506226 0.896179
vt 0.587463 0.904175
vt 0.506226 0.854187
vt 0.591431 0.862549
vt 0.593750 0.820862
vt 0.662476 0.870850
vt 0.662476 0.829224
vt 0.729248 0.879211
vt 0.756226 0.850037
vt 0.802612 0.888123
vt 0.799988 0.862549
vt 0.881226 0.887512
vt 0.862488 0.875000
vt 0.856201 0.837524
vt 0.966370 0.589783
vt 0.960144 0.596008
vt 0.991821 0.590759
vt 0.935120 0.587708
vt 0.949219 0.579895
vt 0.924194 0.563354
vt 0.941406 0.555420
vt 0.899231 0.546814
vt 0.903870 0.539795
vt 0.832031 0.527405
vt 0.835144 0.518982
vt 0.796936 0.513733
vt 0.841370 0.510620
vt 0.800110 0.506470
vt 0.803223 0.500183
vt 0.758789 0.502258
vt 0.758789 0.496033
vt 0.803223 0.500183
vt 0.662476 0.829224
vt 0.729248 0.879211
vt 0.756226 0.850037
vt 0.662476 0.870850
vt 0.593750 0.820862
vt 0.591431 0.862549
vt 0.587463 0.904175
vt 0.585571 0.920288
vt 0.584045 0.929199
vt 0.581909 0.937988
vt 0.498352 0.451172
vt 0.487915 0.462036
vt 0.497925 0.465820
vt 0.483398 0.448120
vt 0.498352 0.437134
vt 0.479004 0.435486
vt 0.457764 0.408691
vt 0.463989 0.437134
vt 0.424988 0.418030
vt 0.456238 0.440979
vt 0.419006 0.444092
vt 0.434631 0.461792
vt 0.440613 0.488892
vt 0.372192 0.429504
vt 0.368896 0.418579
vt 0.404663 0.407654
vt 0.384338 0.397217
vt 0.412476 0.382629
vt 0.367859 0.372253
vt 0.376404 0.364502
vt 0.326233 0.352539
vt 0.329529 0.341125
vt 0.291870 0.339844
vt 0.293640 0.496460
vt 0.254150 0.481201
vt 0.254150 0.464539
vt 0.321838 0.478455
vt 0.315613 0.461792
vt 0.372192 0.461792
vt 0.313171 0.440002
vt 0.372192 0.429504
vt 0.311768 0.426392
vt 0.312134 0.419067
vt 0.966370 0.575195
vt 0.978882 0.573120
vt 0.992798 0.588928
vt 0.954224 0.552673
vt 0.941406 0.555420
vt 0.929504 0.532227
vt 0.916382 0.535645
vt 0.847656 0.504395
vt 0.841370 0.510620
vt 0.800110 0.506470
vt 0.758789 0.508545
vt 0.651978 0.946228
vt 0.654541 0.933533
vt 0.718384 0.961365
vt 0.721069 0.948486
vt 0.814331 0.970642
vt 0.806580 0.930298
vt 0.862488 0.929199
vt 0.802612 0.888123
vt 0.881226 0.887512
vt 0.799988 0.862549
vt 0.878906 0.629395
vt 0.922668 0.633545
vt 0.872620 0.647461
vt 0.916382 0.623108
vt 0.872620 0.608521
vt 0.910156 0.612732
vt 0.891418 0.589783
vt 0.935120 0.604370
vt 0.935120 0.587708
vt 0.960144 0.596008
vt 0.966370 0.589783
vt 0.991821 0.590759
vt 0.791077 0.559631
vt 0.760620 0.568970
vt 0.760437 0.559082
vt 0.810120 0.579346
vt 0.833984 0.561584
vt 0.891418 0.558533
vt 0.924194 0.563354
vt 0.949219 0.579895
vt 0.384338 0.397217
vt 0.404663 0.407654
vt 0.457764 0.408691
vt 0.424988 0.418030
vt 0.463989 0.437134
vt 0.456238 0.440979
vt 0.471680 0.448059
vt 0.462708 0.451416
vt 0.477539 0.459412
vt 0.469177 0.461792
vt 0.392151 0.475342
vt 0.419006 0.444092
vt 0.368896 0.418579
vt 0.365601 0.407654
vt 0.317139 0.377441
vt 0.875977 0.662720
vt 0.847412 0.663269
vt 0.928894 0.646057
vt 0.960144 0.633545
vt 0.947632 0.623108
vt 0.985168 0.621033
vt 0.972656 0.610596
vt 0.990662 0.611633
vt 0.994080 0.602295
vt 0.812500 0.758362
vt 0.731201 0.700012
vt 0.716980 0.710449
vt 0.831238 0.750000
vt 0.877930 0.793335
vt 0.849976 0.737549
vt 0.913818 0.779480
vt 0.937500 0.770874
vt 0.956238 0.837524
vt 0.981201 0.837524
vt 0.993713 0.875000
vt 0.977051 0.894836
vt 1.000000 0.950012
vt 0.947083 0.916687
vt 0.912476 0.837524
vt 0.868713 0.837524
vt 0.856201 0.837524
vt 0.799988 0.762512
vt 0.106384 0.236206
vt 0.119446 0.227234
vt 0.119385 0.242676
vt 0.069885 0.210815
vt 0.070190 0.222595
vt 0.038452 0.209473
vt 0.027771 0.214294
vt 0.007019 0.208130
vt 0.007019 0.213379
vt 0.027771 0.214294
vt 0.947083 0.916687
vt 0.912476 0.837524
vt 0.862488 0.929199
vt 0.931213 0.966675
vt 0.888245 0.975220
vt 0.962463 1.000000
vt 0.814331 0.970642
vt 0.856201 1.000000
vt 0.718384 0.961365
vt 0.956238 0.837524
vt 0.981201 0.837524
vt 0.993713 0.875000
vt 0.937500 0.770874
vt 0.913818 0.779480
vt 0.849976 0.737549
vt 0.877930 0.793335
vt 0.831238 0.750000
vt 0.812500 0.758362
vt 0.731201 0.700012
vt 0.977051 0.894836
vt 1.000000 0.950012
vt 0.868713 0.837524
vt 0.799988 0.762512
vt 0.994080 0.602295
vt 0.993225 0.591431
vt 0.972656 0.610596
vt 0.935120 0.604370
vt 0.941406 0.613770
vt 0.910156 0.612732
vt 0.916382 0.623108
vt 0.872620 0.608521
vt 0.878906 0.629395
vt 0.498352 0.437134
vt 0.479004 0.435486
vt 0.483398 0.448120
vt 0.487915 0.462036
vt 0.365601 0.407654
vt 0.323303 0.361938
vt 0.290222 0.351318
vt 0.254150 0.338623
vt 0.163696 0.265747
vt 0.160767 0.278015
vt 0.174622 0.277954
vt 0.153442 0.268494
vt 0.140015 0.241882
vt 0.131653 0.246094
vt 0.108765 0.228638
vt 0.102234 0.234192
vt 0.072754 0.222290
vt 0.310425 0.392029
vt 0.312500 0.411804
vt 0.990662 0.611633
vt 0.985168 0.621033
vt 0.947632 0.623108
vt 0.960144 0.633545
vt 0.922668 0.633545
vt 0.928894 0.646057
vt 0.872620 0.647461
vt 0.254150 0.491577
vt 0.293640 0.496460
vt 0.337524 0.494995
vt 0.393738 0.497559
vt 0.440613 0.488892
vt 0.072754 0.222290
vt 0.108765 0.228638
vt 0.102234 0.234192
vt 0.077576 0.215454
vt 0.039734 0.217896
vt 0.042114 0.211731
vt 0.006653 0.213501
vt 0.006653 0.208069
vt 0.042114 0.211731
vt 0.931213 0.966675
vt 0.888245 0.975220
vt 0.962463 1.000000
vt 0.856201 1.000000
vt 0.724609 0.921448
vt 0.657532 0.912537
vt 0.651978 0.946228
vt 0.654541 0.933533
vt 0.657532 0.912537
vt 0.469177 0.461792
vt 0.462708 0.451416
vt 0.477539 0.459412
vt 0.471680 0.448059
vt 0.721069 0.948486
vt 0.724609 0.921448
vt 0.806580 0.930298
vt 0.356812 0.256897
vt 0.275391 0.180908
vt 0.449585 0.202881
vt 0.276733 0.256897
vt 0.278564 0.319885
vt 0.356812 0.256897
vt 0.357422 0.320007
vt 0.454590 0.328064
vt 0.903870 0.539795
vt 0.835144 0.518982
vt 0.796936 0.513733
vt 0.832031 0.527405
vt 0.759094 0.520508
vt 0.384583 0.355957
vt 0.426514 0.376404
vt 0.470337 0.405579
vt 0.891418 0.589783
vt 0.891418 0.558533
vt 0.833984 0.561584
vt 0.834106 0.546509
vt 0.941406 0.613770
vt 0.810120 0.579346
vt 0.791077 0.559631
vt 0.844543 0.593933
vt 0.899231 0.546814
vt 0.039734 0.217896
vt 0.077576 0.215454
vt 0.434631 0.461792
vt 0.847656 0.504395
vt 0.916382 0.535645
vt 0.743713 0.691711
vt 0.756226 0.683350
vt 0.868713 0.725037
vt 0.756226 0.683350
vt 0.743713 0.691711
vt 0.868713 0.725037
vt 0.149780 0.246887
vt 0.138611 0.252075
vt 0.134644 0.237061
vt 0.449585 0.202881
vt 0.454163 0.272156
vt 0.966370 0.575195
vt 0.992126 0.589722
vt 0.149780 0.246887
vt 0.160767 0.273071
vt 0.164185 0.267944
vt 0.138611 0.252075
vt 0.119385 0.242676
vt 0.992126 0.589722
vt 0.131653 0.246094
vt 0.140015 0.241882
vt 0.716980 0.710449
vt 0.168579 0.276245
vt 0.166016 0.270752
vt 0.163513 0.279663
vt 0.329529 0.341125
vt 0.384583 0.355957
vt 0.163513 0.279663
vt 0.171753 0.282959
vt 0.166260 0.286194
vt 0.168884 0.276855
vt 0.844543 0.593933
vt 0.357422 0.320007
vt 0.454590 0.328064
vt 0.454163 0.272156
vt 0.862488 0.875000
vt 0.506226 0.816711
vt 0.498352 0.451172
vt 0.929504 0.532227
vt 0.160767 0.273071
vt 0.168579 0.276245
vt 0.166016 0.270752
vt 0.834106 0.546509
vt 0.993225 0.591431
vt 0.164185 0.267944
vt 0.760620 0.568970
vt 0.875977 0.662720
vt 0.847412 0.663269
vt 0.978882 0.573120
vt 0.992798 0.588928
vt 0.954224 0.552673
vt 0.649292 0.954956
vt 0.649292 0.954956
vt 0.038452 0.209473
vt 0.070190 0.222595
vt 0.069885 0.210815
vt 0.106384 0.236206
vt 0.160767 0.278015
vt 0.163696 0.265747
vt 0.174622 0.277954
vt 0.153442 0.268494
vt 0.497925 0.465820
vt 0.119446 0.227234
vt 0.134644 0.237061
vt 0.439636 0.370789
vt 0.481018 0.402954
vt 0.171753 0.282959
vt 0.168884 0.276855
vt 0.166260 0.286194
vt 0.291870 0.339844
vt 0.718079 0.971802
vt 0.718079 0.971802
vn -0.8459 -0.0566 0.5303
vn -0.9368 -0.3460 0.0522
vn -0.8753 -0.3424 0.3415
vn -0.9836 -0.0632 0.1689
vn -0.6515 0.4140 0.6357
vn -0.8383 0.4548 0.3005
vn -0.5275 0.7549 0.3897
vn -0.5543 0.8323 0.0000
vn -0.1288 0.9077 0.3994
vn -0.1642 0.9864 0.0000
vn 0.2321 0.8947 0.3816
vn 0.2097 0.9778 0.0000
vn 0.4859 0.8316 0.2687
vn 0.5336 0.8457 0.0000
vn 0.7363 0.6395 0.2210
vn 0.7587 0.6514 0.0000
vn 0.8264 0.4341 0.3585
vn 0.8626 0.5058 0.0000
vn 0.7798 0.6080 0.1491
vn 0.7933 0.6088 0.0000
vn 0.9862 0.1654 0.0000
vn 0.7798 0.6080 -0.1491
vn 0.9550 0.1688 -0.2440
vn 0.7419 0.5425 -0.3939
vn 0.8474 0.1606 -0.5060
vn 0.6594 0.4003 -0.6363
vn 0.6300 0.1302 -0.7656
vn 0.4350 0.1010 -0.8947
vn 0.4219 -0.1287 -0.8974
vn 0.2125 -0.1197 -0.9698
vn 0.3760 -0.7490 -0.5454
vn 0.5340 -0.7112 -0.4571
vn -0.2030 -0.9792 0.0000
vn -0.4603 -0.7892 -0.4065
vn -0.7895 -0.6137 0.0000
vn 0.0649 -0.9791 -0.1924
vn 0.7591 -0.6510 0.0000
vn 0.7151 -0.6923 0.0963
vn 0.9996 -0.0261 0.0000
vn 0.9626 -0.0787 0.2592
vn 0.7310 0.6823 0.0000
vn 0.6814 0.6677 0.2998
vn 0.2724 0.9299 0.2470
vn 0.5680 0.5929 0.5707
vn 0.2040 0.8784 0.4321
vn 0.4063 0.5639 0.7189
vn 0.0068 0.8812 0.4726
vn 0.3078 0.5640 0.7663
vn -0.0620 0.9244 0.3764
vn 0.6751 0.2089 0.7075
vn 0.6639 0.7463 0.0469
vn 0.9618 -0.2415 -0.1289
vn 0.4889 -0.4856 -0.7246
vn 0.4438 -0.5577 -0.7014
vn 0.5510 -0.4261 -0.7175
vn 0.3918 -0.5967 -0.7003
vn 0.4220 -0.6485 -0.6335
vn 0.3322 -0.5494 -0.7667
vn 0.3453 -0.3826 -0.8569
vn 0.4822 -0.5819 -0.6549
vn 0.4219 -0.6879 -0.5905
vn 0.5410 -0.7003 -0.4657
vn 0.4214 -0.8325 -0.3595
vn 0.4525 -0.8712 -0.1902
vn 0.6466 -0.5838 -0.4909
vn 0.7401 -0.6201 -0.2603
vn 0.9346 -0.2018 -0.2930
vn 0.7709 -0.6370 0.0000
vn 0.9786 -0.2055 0.0000
vn 0.9346 -0.2018 0.2930
vn 0.2040 0.8784 -0.4321
vn 0.4063 0.5639 -0.7189
vn 0.0068 0.8812 -0.4726
vn 0.5680 0.5929 -0.5707
vn 0.2724 0.9299 -0.2470
vn 0.6814 0.6677 -0.2998
vn 0.9626 -0.0787 -0.2592
vn 0.7151 -0.6923 -0.0963
vn 0.0649 -0.9791 0.1924
vn -0.4603 -0.7892 0.4065
vn 0.0737 0.0371 0.9966
vn 0.3715 0.1046 0.9225
vn 0.0752 0.5669 0.8204
vn 0.3529 -0.0590 0.9338
vn -0.0228 -0.7498 0.6612
vn 0.3935 -0.0439 0.9182
vn 0.2695 0.0609 0.9611
vn 0.3240 -0.1581 0.9327
vn 0.2481 0.1812 0.9516
vn 0.1265 -0.0073 0.9919
vn -0.3184 0.2418 0.9166
vn -0.4413 -0.1534 0.8842
vn -0.5451 -0.3843 0.7451
vn -0.1032 0.6273 0.7719
vn 0.2591 0.6299 0.7321
vn 0.3995 0.1616 0.9023
vn 0.5983 0.1453 0.7880
vn 0.4324 0.1021 0.8959
vn 0.6594 0.4003 0.6363
vn 0.6300 0.1302 0.7656
vn 0.8474 0.1606 0.5060
vn 0.7374 -0.3833 0.5562
vn 0.8647 -0.4217 0.2730
vn -0.8979 -0.4362 -0.0580
vn -0.9952 -0.0973 0.0000
vn -0.8757 0.4828 0.0000
vn -0.9836 -0.0632 -0.1689
vn -0.8383 0.4548 -0.3005
vn -0.6515 0.4140 -0.6357
vn -0.5275 0.7549 -0.3897
vn -0.1032 0.6273 -0.7719
vn -0.1288 0.9077 -0.3994
vn 0.2321 0.8947 -0.3816
vn 0.2544 -0.2936 0.9214
vn 0.0829 0.1295 0.9881
vn -0.0792 0.0772 0.9939
vn 0.4172 -0.2017 0.8861
vn 0.3453 -0.3826 0.8569
vn 0.5685 -0.2171 0.7935
vn 0.4995 -0.4821 0.7197
vn 0.8048 -0.1852 0.5638
vn 0.6466 -0.5838 0.4909
vn 0.7401 -0.6201 0.2603
vn 0.4695 -0.8829 0.0000
vn 0.0083 -0.9227 0.3854
vn 0.5685 -0.8194 -0.0735
vn -0.1528 -0.8336 0.5308
vn 0.4745 -0.8781 -0.0607
vn 0.3211 -0.9326 -0.1647
vn 0.5836 -0.2868 -0.7597
vn 0.3993 -0.2616 -0.8787
vn 0.3078 0.5640 -0.7663
vn 0.6751 0.2089 -0.7075
vn -0.0620 0.9244 -0.3764
vn -0.2942 -0.9496 -0.1083
vn -0.3038 -0.9371 -0.1715
vn -0.2634 -0.9424 -0.2058
vn -0.2554 -0.9327 -0.2547
vn -0.2359 -0.9688 -0.0750
vn -0.2695 -0.9214 -0.2801
vn 0.0519 -0.9181 0.3929
vn 0.0456 -0.9891 0.1396
vn 0.3918 -0.5967 0.7003
vn 0.4438 -0.5577 0.7014
vn 0.4889 -0.4856 0.7246
vn 0.5510 -0.4261 0.7175
vn -0.3861 -0.9112 0.1434
vn -0.3179 -0.9297 0.1856
vn -0.2665 -0.9638 0.0000
vn -0.4956 -0.8675 0.0412
vn -0.2397 -0.9342 0.2640
vn 0.3933 -0.6065 0.6910
vn 0.3322 -0.5494 0.7667
vn 0.4220 -0.6485 0.6335
vn 0.6128 0.1294 -0.7795
vn 0.3876 0.1462 -0.9101
vn 0.2672 0.0569 -0.9619
vn 0.2456 0.1823 -0.9521
vn 0.3240 -0.1581 -0.9327
vn 0.1265 -0.0073 -0.9919
vn 0.2563 -0.1931 -0.9471
vn 0.0706 -0.1804 -0.9810
vn 0.2210 -0.2037 -0.9538
vn 0.0280 -0.2908 -0.9564
vn -0.8459 -0.0566 -0.5303
vn -0.3184 0.2418 -0.9166
vn 0.2483 0.6357 -0.7309
vn 0.5112 0.6190 -0.5961
vn 0.8264 0.4341 -0.3585
vn -0.2513 -0.9394 -0.2333
vn -0.2501 -0.9387 -0.2373
vn -0.2396 -0.9529 -0.1856
vn -0.3135 -0.9455 0.0878
vn -0.1643 -0.9394 0.3009
vn -0.0093 -0.5357 0.8443
vn 0.2292 -0.5733 0.7866
vn 0.2173 -0.2516 0.9431
vn 0.3711 -0.3930 0.8413
vn 0.8513 -0.5245 0.0086
vn 0.8287 -0.5447 -0.1281
vn 0.6372 -0.7105 0.2984
vn 0.6827 -0.0896 -0.7252
vn 0.6417 -0.0617 -0.7644
vn 0.0136 0.5616 -0.8273
vn -0.0985 0.3767 -0.9211
vn -0.5121 0.5410 -0.6671
vn -0.2114 0.1267 -0.9691
vn -0.6064 0.3262 -0.7252
vn -0.6803 0.1798 -0.7105
vn -0.4941 0.0026 -0.8694
vn -0.4416 -0.4722 -0.7629
vn 0.0490 -0.2680 -0.9622
vn 0.5903 -0.0851 -0.8027
vn 0.9681 -0.1744 -0.1797
vn 0.9618 -0.2415 0.1289
vn 0.6527 -0.5712 0.4976
vn -0.0828 0.9708 0.2251
vn -0.0749 0.9770 0.1998
vn -0.0960 0.9943 -0.0452
vn -0.0885 0.9846 0.1507
vn -0.0932 0.9717 0.2169
vn -0.1324 0.9839 0.1201
vn -0.1376 0.9811 0.1359
vn -0.1369 0.9906 0.0000
vn -0.1347 0.9909 0.0000
vn -0.1376 0.9811 -0.1359
vn 0.0490 -0.2680 0.9622
vn 0.5903 -0.0851 0.8027
vn 0.3993 -0.2616 0.8787
vn -0.1180 -0.8213 0.5581
vn 0.1421 -0.9604 0.2397
vn -0.3566 -0.9319 0.0664
vn 0.3211 -0.9326 0.1647
vn -0.1318 -0.8876 -0.4413
vn -0.1528 -0.8336 -0.5308
vn -0.2114 0.1267 0.9691
vn -0.6064 0.3262 0.7252
vn -0.6803 0.1798 0.7105
vn -0.5121 0.5410 0.6671
vn -0.0985 0.3767 0.9211
vn 0.0136 0.5616 0.8273
vn 0.6417 -0.0617 0.7644
vn 0.6827 -0.0896 0.7252
vn 0.8513 -0.5245 -0.0086
vn 0.8287 -0.5447 0.1281
vn -0.4941 0.0026 0.8694
vn -0.4416 -0.4722 0.7629
vn 0.9681 -0.1744 0.1797
vn 0.6527 -0.5712 -0.4976
vn 0.3711 -0.3930 -0.8413
vn 0.4289 -0.4261 -0.7965
vn 0.2292 -0.5733 -0.7866
vn 0.0456 -0.9891 -0.1396
vn -0.0913 -0.9924 -0.0826
vn -0.2695 -0.9214 0.2801
vn -0.2554 -0.9327 0.2547
vn -0.2359 -0.9688 0.0750
vn -0.2942 -0.9496 0.1083
vn -0.0228 -0.7498 -0.6612
vn 0.3935 -0.0439 -0.9182
vn 0.3529 -0.0590 -0.9338
vn 0.3715 0.1046 -0.9225
vn 0.5007 0.6062 0.6179
vn 0.7419 0.5425 0.3939
vn 0.9550 0.1688 0.2440
vn 0.8879 -0.4600 0.0000
vn 0.4845 -0.8598 0.1610
vn 0.6517 -0.7584 0.0040
vn 0.6489 -0.7604 -0.0266
vn 0.4012 -0.8997 0.1721
vn 0.1055 -0.9935 -0.0413
vn 0.0986 -0.9939 -0.0497
vn -0.1155 -0.9924 0.0425
vn -0.1144 -0.9917 0.0576
vn -0.1381 -0.9903 -0.0164
vn 0.7363 0.6395 -0.2210
vn 0.4859 0.8316 -0.2687
vn 0.2173 -0.2516 -0.9431
vn -0.0093 -0.5357 -0.8443
vn -0.1643 -0.9394 -0.3009
vn -0.3135 -0.9455 -0.0878
vn -0.3038 -0.9371 0.1715
vn -0.2396 -0.9529 0.1856
vn -0.2634 -0.9424 0.2058
vn -0.9314 -0.3639 0.0000
vn -0.8979 -0.4362 0.0580
vn -0.9368 -0.3460 -0.0522
vn -0.8753 -0.3424 -0.3415
vn -0.5451 -0.3843 -0.7451
vn -0.1381 -0.9903 0.0164
vn -0.1155 -0.9924 -0.0425
vn -0.1144 -0.9917 -0.0576
vn -0.1500 -0.9885 0.0172
vn -0.2889 -0.9568 -0.0314
vn -0.2919 -0.9556 -0.0402
vn -0.2332 -0.9724 0.0000
vn -0.2230 -0.9748 0.0000
vn -0.2919 -0.9556 0.0402
vn -0.1180 -0.8213 -0.5581
vn 0.1421 -0.9604 -0.2397
vn -0.3566 -0.9319 -0.0664
vn -0.1318 -0.8876 0.4413
vn 0.6945 -0.2477 -0.6755
vn 0.8485 -0.1700 -0.5011
vn 0.0083 -0.9227 -0.3854
vn 0.5685 -0.8194 0.0735
vn 0.8485 -0.1700 0.5011
vn 0.0280 -0.2908 0.9564
vn 0.0706 -0.1804 0.9810
vn 0.2210 -0.2037 0.9538
vn 0.2563 -0.1931 0.9471
vn 0.4745 -0.8781 0.0607
vn 0.6945 -0.2477 0.6755
vn 0.5836 -0.2868 0.7597
vn 0.6137 -0.7509 0.2439
vn 0.7494 -0.6621 0.0000
vn 0.7231 -0.6391 0.2619
vn 0.6292 -0.7772 0.0000
vn 0.5329 -0.8461 0.0000
vn 0.6137 -0.7509 -0.2439
vn 0.5106 -0.8150 -0.2738
vn 0.4747 -0.7967 -0.3740
vn 0.4219 -0.6879 0.5905
vn 0.4214 -0.8325 0.3595
vn 0.4525 -0.8712 0.1902
vn 0.5410 -0.7003 0.4657
vn 0.5692 -0.8221 0.0000
vn 0.5171 -0.3916 0.7611
vn 0.4219 -0.1287 0.8974
vn 0.2125 -0.1197 0.9698
vn 0.0519 -0.9181 -0.3929
vn 0.3933 -0.6065 -0.6910
vn -0.2397 -0.9342 -0.2640
vn 0.5009 -0.6200 -0.6038
vn -0.0913 -0.9924 0.0826
vn -0.4956 -0.8675 -0.0412
vn -0.3861 -0.9112 -0.1434
vn -0.2644 -0.9493 -0.1700
vn 0.4822 -0.5819 0.6549
vn -0.2889 -0.9568 0.0314
vn -0.1500 -0.9885 -0.0172
vn -0.4413 -0.1534 -0.8842
vn 0.8048 -0.1852 -0.5638
vn 0.4995 -0.4821 -0.7197
vn 0.4009 0.4164 0.8160
vn -0.3263 0.8283 0.4554
vn -0.3633 0.7439 0.5609
vn -0.3263 0.8283 -0.4554
vn 0.4009 0.4164 -0.8160
vn -0.3633 0.7439 -0.5609
vn -0.4781 0.8651 -0.1518
vn -0.4330 0.8873 -0.1588
vn -0.1082 0.9917 -0.0699
vn 0.7231 -0.6391 -0.2619
vn 0.5842 -0.7385 -0.3365
vn 0.2544 -0.2936 -0.9214
vn 0.4115 -0.5775 -0.7050
vn -0.4781 0.8651 0.1518
vn -0.4374 0.8758 0.2038
vn -0.7279 0.6749 0.1207
vn -0.4330 0.8873 0.1588
vn -0.0960 0.9943 0.0452
vn 0.4115 -0.5775 0.7050
vn 0.0986 -0.9939 0.0497
vn 0.1055 -0.9935 0.0413
vn 0.6372 -0.7105 -0.2984
vn 0.1397 0.9249 0.3536
vn 0.2483 0.8583 0.4490
vn -0.8235 0.5657 -0.0428
vn 0.7374 -0.3833 -0.5562
vn 0.5171 -0.3916 -0.7611
vn -0.8235 0.5657 0.0428
vn -0.7245 -0.6398 0.2564
vn -0.9784 0.1582 0.1332
vn -0.5377 -0.8025 0.2586
vn -0.2644 -0.9493 0.1700
vn 0.5106 -0.8150 0.2738
vn 0.4747 -0.7967 0.3740
vn 0.5842 -0.7385 0.3365
vn 0.6639 0.7463 -0.0469
vn 0.3757 0.9267 0.0000
vn 0.0737 0.0371 -0.9966
vn 0.5685 -0.2171 -0.7935
vn -0.4374 0.8758 -0.2038
vn 0.1397 0.9249 -0.3536
vn 0.2483 0.8583 -0.4490
vn 0.5009 -0.6200 0.6038
vn 0.4289 -0.4261 0.7965
vn -0.7279 0.6749 -0.1207
vn -0.3179 -0.9297 -0.1856
vn -0.2513 -0.9394 0.2333
vn -0.2501 -0.9387 0.2373
vn 0.0829 0.1295 -0.9881
vn -0.0792 0.0772 -0.9939
vn 0.4172 -0.2017 -0.8861
vn -0.2628 -0.7486 -0.6088
vn -0.2628 -0.7486 0.6088
vn -0.1324 0.9839 -0.1201
vn -0.0932 0.9717 -0.2169
vn -0.0885 0.9846 -0.1507
vn -0.0828 0.9708 -0.2251
vn 0.6517 -0.7584 -0.0040
vn 0.4845 -0.8598 -0.1610
vn 0.6489 -0.7604 0.0266
vn 0.4012 -0.8997 -0.1721
vn 0.0752 0.5669 -0.8204
vn -0.0749 0.9770 -0.1998
vn -0.1082 0.9917 0.0699
vn 0.3760 -0.7490 0.5454
vn 0.5340 -0.7112 0.4571
vn -0.7245 -0.6398 -0.2564
vn -0.5377 -0.8025 -0.2586
vn -0.9784 0.1582 -0.1332
vn 0.8647 -0.4217 -0.2730
vn -0.4147 -0.5624 0.7153
vn -0.4147 -0.5624 -0.7153
usemtl m0
s 1
f 177/1/1 91/2/2 102/3/3
f 91/2/2 177/1/1 143/4/4
f 147/5/5 143/4/4 177/1/1
f 143/4/4 147/5/5 145/6/6
f 149/7/7 145/6/6 147/5/5
f 145/6/6 149/7/7 35/8/8
f 175/9/9 35/8/8 149/7/7
f 35/8/8 175/9/9 37/10/10
f 359/11/11 37/10/10 175/9/9
f 37/10/10 359/11/11 358/12/12
f 174/13/13 358/12/12 359/11/11
f 358/12/12 174/13/13 29/14/14
f 180/15/15 29/14/14 174/13/13
f 29/14/14 180/15/15 31/16/16
f 181/17/17 31/16/16 180/15/15
f 31/16/16 181/17/17 33/18/18
f 216/19/19 33/18/18 181/17/17
f 33/18/18 216/19/19 39/20/20
f 186/21/21 39/20/20 216/19/19
f 39/20/20 186/21/21 339/22/22
f 326/23/23 339/22/22 186/21/21
f 339/22/22 326/23/23 338/24/24
f 325/25/25 338/24/24 326/23/23
f 338/24/24 325/25/25 337/26/26
f 347/27/27 337/26/26 325/25/25
f 337/26/26 347/27/27 333/28/28
f 344/29/29 333/28/28 347/27/27
f 333/28/28 344/29/29 348/30/30
f 316/31/31 348/30/30 344/29/29
f 348/30/30 316/31/31 318/32/32
f 38/33/33 170/34/34 366/35/35
f 170/34/34 38/33/33 163/36/36
f 30/37/37 163/36/36 38/33/33
f 163/36/36 30/37/37 156/38/38
f 363/39/39 156/38/38 30/37/37
f 156/38/38 363/39/39 89/40/40
f 365/41/41 89/40/40 363/39/39
f 89/40/40 365/41/41 148/42/42
f 96/43/43 148/42/42 365/41/41
f 148/42/42 96/43/43 146/44/44
f 100/45/45 146/44/44 96/43/43
f 146/44/44 100/45/45 154/46/46
f 74/47/47 154/46/46 100/45/45
f 154/46/46 74/47/47 152/48/48
f 69/49/49 152/48/48 74/47/47
f 152/48/48 69/49/49 131/50/50
f 135/51/51 131/50/50 69/49/49
f 131/50/50 135/51/51 67/52/52
f 227/53/53 250/54/54 260/55/55
f 250/54/54 227/53/53 249/56/56
f 228/57/57 249/56/56 227/53/53
f 249/56/56 228/57/57 272/58/58
f 266/59/59 272/58/58 228/57/57
f 272/58/58 266/59/59 248/60/60
f 273/61/61 248/60/60 266/59/59
f 248/60/60 273/61/61 238/62/62
f 235/63/63 238/62/62 273/61/61
f 238/62/62 235/63/63 236/64/64
f 234/65/65 236/64/64 235/63/63
f 236/64/64 234/65/65 237/66/66
f 276/67/67 237/66/66 234/65/65
f 237/66/66 276/67/67 15/68/68
f 17/69/69 15/68/68 276/67/67
f 15/68/68 17/69/69 210/70/70
f 388/71/71 28/72/72 377/73/73
f 28/72/72 388/71/71 19/74/74
f 386/75/75 19/74/74 388/71/71
f 19/74/74 386/75/75 21/76/76
f 365/41/41 21/76/76 386/75/75
f 21/76/76 365/41/41 383/77/77
f 363/39/39 383/77/77 365/41/41
f 383/77/77 363/39/39 32/78/78
f 30/37/37 32/78/78 363/39/39
f 32/78/78 30/37/37 40/79/79
f 38/33/33 40/79/79 30/37/37
f 40/79/79 38/33/33 46/80/80
f 366/35/35 46/80/80 38/33/33
f 200/81/81 130/82/82 117/83/83
f 130/82/82 200/81/81 202/84/84
f 132/85/85 202/84/84 200/81/81
f 202/84/84 132/85/85 197/86/86
f 155/87/87 197/86/86 132/85/85
f 197/86/86 155/87/87 207/88/88
f 169/89/89 207/88/88 155/87/87
f 207/88/88 169/89/89 167/90/90
f 178/91/91 167/90/90 169/89/89
f 167/90/90 178/91/91 141/92/92
f 177/1/1 141/92/92 178/91/91
f 141/92/92 177/1/1 59/93/93
f 102/3/3 59/93/93 177/1/1
f 178/91/91 147/5/5 177/1/1
f 147/5/5 178/91/91 179/94/94
f 169/89/89 179/94/94 178/91/91
f 179/94/94 169/89/89 360/95/95
f 361/96/96 360/95/95 169/89/89
f 360/95/95 361/96/96 173/97/97
f 151/98/98 173/97/97 361/96/96
f 173/97/97 151/98/98 196/99/99
f 195/100/100 196/99/99 151/98/98
f 196/99/99 195/100/100 187/101/101
f 184/102/102 187/101/101 195/100/100
f 187/101/101 184/102/102 214/103/103
f 143/4/4 50/104/104 91/2/2
f 50/104/104 143/4/4 20/105/105
f 22/106/106 20/105/105 143/4/4
f 20/105/105 22/106/106 305/107/107
f 306/108/108 305/107/107 22/106/106
f 305/107/107 306/108/108 343/109/109
f 307/110/110 343/109/109 306/108/108
f 343/109/109 307/110/110 342/111/111
f 340/112/112 342/111/111 307/110/110
f 342/111/111 340/112/112 357/113/113
f 37/10/10 357/113/113 340/112/112
f 357/113/113 37/10/10 358/12/12
f 54/114/114 108/115/115 111/116/116
f 108/115/115 54/114/114 189/117/117
f 191/118/118 189/117/117 54/114/114
f 189/117/117 191/118/118 123/119/119
f 119/120/120 123/119/119 191/118/118
f 123/119/119 119/120/120 126/121/121
f 70/122/122 126/121/121 119/120/120
f 126/121/121 70/122/122 210/70/70
f 209/123/123 210/70/70 70/122/122
f 210/70/70 209/123/123 15/68/68
f 10/124/124 15/68/68 209/123/123
f 42/125/125 32/78/78 40/79/79
f 32/78/78 42/125/125 382/126/126
f 44/127/127 382/126/126 42/125/125
f 382/126/126 44/127/127 34/128/128
f 11/129/129 34/128/128 44/127/127
f 34/128/128 11/129/129 16/130/130
f 14/131/131 16/130/130 11/129/129
f 16/130/130 14/131/131 25/132/132
f 4/133/133 25/132/132 14/131/131
f 25/132/132 4/133/133 375/134/134
f 45/135/135 104/136/136 47/137/137
f 104/136/136 45/135/135 225/138/138
f 41/139/139 225/138/138 45/135/135
f 225/138/138 41/139/139 99/140/140
f 52/141/141 99/140/140 41/139/139
f 99/140/140 52/141/141 93/142/142
f 95/143/143 93/142/142 52/141/141
f 93/142/142 95/143/143 97/144/144
f 56/145/145 97/144/144 95/143/143
f 97/144/144 56/145/145 114/146/146
f 81/147/147 3/148/148 5/149/149
f 3/148/148 81/147/147 176/150/150
f 84/151/151 176/150/150 81/147/147
f 176/150/150 84/151/151 52/141/141
f 88/152/152 52/141/141 84/151/151
f 52/141/141 88/152/152 95/143/143
f 223/153/153 95/143/143 88/152/152
f 95/143/143 223/153/153 106/154/154
f 191/118/118 106/154/154 223/153/153
f 106/154/154 191/118/118 54/114/114
f 333/28/28 331/155/155 337/26/26
f 331/155/155 333/28/28 362/156/156
f 332/157/157 362/156/156 333/28/28
f 362/156/156 332/157/157 328/158/158
f 327/159/159 328/158/158 332/157/157
f 328/158/158 327/159/159 329/160/160
f 355/161/161 329/160/160 327/159/159
f 329/160/160 355/161/161 349/162/162
f 302/163/163 349/162/162 355/161/161
f 349/162/162 302/163/163 231/164/164
f 343/109/109 350/165/165 305/107/107
f 350/165/165 343/109/109 341/166/166
f 342/111/111 341/166/166 343/109/109
f 341/166/166 342/111/111 328/158/158
f 356/167/167 328/158/158 342/111/111
f 328/158/158 356/167/167 362/156/156
f 330/168/168 362/156/156 356/167/167
f 362/156/156 330/168/168 331/155/155
f 336/169/169 331/155/155 330/168/168
f 331/155/155 336/169/169 337/26/26
f 47/137/137 90/170/170 49/171/171
f 90/170/170 47/137/137 101/172/172
f 104/136/136 101/172/172 47/137/137
f 101/172/172 104/136/136 58/173/173
f 61/174/174 58/173/173 104/136/136
f 58/173/173 61/174/174 63/175/175
f 66/176/176 63/175/175 61/174/174
f 63/175/175 66/176/176 204/177/177
f 129/178/178 204/177/177 66/176/176
f 367/179/179 368/180/180 385/181/181
f 368/180/180 367/179/179 369/182/182
f 393/183/183 369/182/182 367/179/179
f 369/182/182 393/183/183 372/184/184
f 391/185/185 372/184/184 393/183/183
f 372/184/184 391/185/185 389/186/186
f 392/187/187 389/186/186 391/185/185
f 389/186/186 392/187/187 390/188/188
f 23/189/189 390/188/188 392/187/187
f 395/190/190 379/191/191 23/189/189
f 379/191/191 395/190/190 396/192/192
f 394/193/193 396/192/192 395/190/190
f 396/192/192 394/193/193 4/133/133
f 378/194/194 4/133/133 394/193/193
f 4/133/133 378/194/194 374/195/195
f 367/179/179 374/195/195 378/194/194
f 374/195/195 367/179/179 376/196/196
f 385/181/181 376/196/196 367/179/179
f 299/197/197 269/198/198 354/199/199
f 269/198/198 299/197/197 275/200/200
f 300/201/201 275/200/200 299/197/197
f 275/200/200 300/201/201 277/202/202
f 303/203/203 277/202/202 300/201/201
f 277/202/202 303/203/203 18/204/204
f 217/205/205 18/204/204 303/203/203
f 18/204/204 217/205/205 218/206/206
f 125/207/207 131/50/50 120/208/208
f 131/50/50 125/207/207 142/209/209
f 128/210/210 142/209/209 125/207/207
f 142/209/209 128/210/210 138/211/211
f 82/212/212 138/211/211 128/210/210
f 138/211/211 82/212/212 140/213/213
f 98/214/214 140/213/213 82/212/212
f 140/213/213 98/214/214 168/215/215
f 110/216/216 105/217/217 150/218/218
f 105/217/217 110/216/216 103/219/219
f 107/220/220 103/219/219 110/216/216
f 103/219/219 107/220/220 62/221/221
f 118/222/222 62/221/221 107/220/220
f 62/221/221 118/222/222 55/223/223
f 51/224/224 55/223/223 118/222/222
f 55/223/223 51/224/224 53/225/225
f 122/226/226 150/218/218 79/227/227
f 150/218/218 122/226/226 110/216/216
f 120/208/208 110/216/216 122/226/226
f 110/216/216 120/208/208 118/222/222
f 76/228/228 118/222/222 120/208/208
f 118/222/222 76/228/228 51/224/224
f 67/52/52 51/224/224 76/228/228
f 51/224/224 67/52/52 71/229/229
f 250/54/54 288/230/230 258/231/231
f 288/230/230 250/54/54 290/232/232
f 251/233/233 290/232/232 250/54/54
f 290/232/232 251/233/233 291/234/234
f 253/235/235 291/234/234 251/233/233
f 291/234/234 253/235/235 286/236/236
f 285/237/237 286/236/236 253/235/235
f 286/236/236 285/237/237 287/238/238
f 308/239/239 348/30/30 318/32/32
f 348/30/30 308/239/239 332/157/157
f 311/240/240 332/157/157 308/239/239
f 332/157/157 311/240/240 327/159/159
f 312/241/241 327/159/159 311/240/240
f 327/159/159 312/241/241 355/161/161
f 289/242/242 355/161/161 312/241/241
f 355/161/161 289/242/242 302/163/163
f 173/97/97 171/243/243 360/95/95
f 171/243/243 173/97/97 181/17/17
f 196/99/99 181/17/17 173/97/97
f 181/17/17 196/99/99 182/244/244
f 187/101/101 182/244/244 196/99/99
f 182/244/244 187/101/101 215/245/245
f 214/103/103 215/245/245 187/101/101
f 215/245/245 214/103/103 27/246/246
f 317/247/247 351/248/248 309/249/249
f 351/248/248 317/247/247 313/250/250
f 315/251/251 313/250/250 317/247/247
f 313/250/250 315/251/251 314/252/252
f 346/253/253 314/252/252 315/251/251
f 314/252/252 346/253/253 353/254/254
f 324/255/255 353/254/254 346/253/253
f 336/169/169 31/16/16 33/18/18
f 31/16/16 336/169/169 335/256/256
f 330/168/168 335/256/256 336/169/169
f 335/256/256 330/168/168 334/257/257
f 356/167/167 334/257/257 330/168/168
f 334/257/257 356/167/167 357/113/113
f 342/111/111 357/113/113 356/167/167
f 290/232/232 301/258/258 288/230/230
f 301/258/258 290/232/232 230/259/259
f 229/260/260 230/259/259 290/232/232
f 230/259/259 229/260/260 232/261/261
f 256/262/262 232/261/261 229/260/260
f 232/261/261 256/262/262 254/263/263
f 284/264/264 254/263/263 256/262/262
f 20/105/105 1/265/265 50/104/104
f 1/265/265 20/105/105 283/266/266
f 305/107/107 283/266/266 20/105/105
f 283/266/266 305/107/107 281/267/267
f 350/165/165 281/267/267 305/107/107
f 281/267/267 350/165/165 255/268/268
f 233/269/269 255/268/268 350/165/165
f 185/270/270 194/271/271 192/272/272
f 194/271/271 185/270/270 183/273/273
f 212/274/274 183/273/273 185/270/270
f 183/273/273 212/274/274 213/275/275
f 24/276/276 213/275/275 212/274/274
f 213/275/275 24/276/276 26/277/277
f 320/278/278 26/277/277 24/276/276
f 14/131/131 396/192/192 4/133/133
f 396/192/192 14/131/131 2/279/279
f 9/280/280 2/279/279 14/131/131
f 2/279/279 9/280/280 380/281/281
f 11/129/129 380/281/281 9/280/280
f 380/281/281 11/129/129 387/282/282
f 44/127/127 387/282/282 11/129/129
f 28/72/72 16/130/130 25/132/132
f 16/130/130 28/72/72 36/283/283
f 381/284/284 36/283/283 28/72/72
f 36/283/283 381/284/284 382/126/126
f 383/77/77 382/126/126 381/284/284
f 382/126/126 383/77/77 32/78/78
f 156/38/38 166/285/285 163/36/36
f 166/285/285 156/38/38 87/286/286
f 89/40/40 87/286/286 156/38/38
f 87/286/286 89/40/40 85/287/287
f 148/42/42 85/287/287 89/40/40
f 85/287/287 148/42/42 146/44/44
f 64/288/288 141/92/92 59/93/93
f 141/92/92 64/288/288 203/289/289
f 205/290/290 203/289/289 64/288/288
f 203/289/289 205/290/290 206/291/291
f 130/82/82 206/291/291 205/290/290
f 206/291/291 130/82/82 202/84/84
f 87/286/286 168/215/215 166/285/285
f 168/215/215 87/286/286 158/292/292
f 160/293/293 158/292/292 87/286/286
f 158/292/292 160/293/293 144/294/294
f 154/46/46 144/294/294 160/293/293
f 144/294/294 154/46/46 152/48/48
f 75/295/295 13/296/296 73/297/297
f 13/296/296 75/295/295 8/298/298
f 6/299/299 8/298/298 75/295/295
f 8/298/298 6/299/299 240/300/300
f 245/301/301 240/300/300 6/299/299
f 240/300/300 245/301/301 243/302/302
f 121/303/303 119/120/120 191/118/118
f 119/120/120 121/303/303 70/122/122
f 68/304/304 70/122/122 121/303/303
f 70/122/122 68/304/304 208/305/305
f 72/306/306 208/305/305 68/304/304
f 208/305/305 72/306/306 12/307/307
f 195/100/100 193/308/308 184/102/102
f 193/308/308 195/100/100 188/309/309
f 151/98/98 188/309/309 195/100/100
f 188/309/309 151/98/98 153/310/310
f 155/87/87 153/310/310 151/98/98
f 153/310/310 155/87/87 132/85/85
f 142/209/209 152/48/48 131/50/50
f 152/48/48 142/209/209 144/294/294
f 140/213/213 144/294/294 142/209/209
f 144/294/294 140/213/213 158/292/292
f 168/215/215 158/292/292 140/213/213
f 360/95/95 359/11/11 179/94/94
f 359/11/11 360/95/95 174/13/13
f 171/243/243 174/13/13 360/95/95
f 174/13/13 171/243/243 180/15/15
f 181/17/17 180/15/15 171/243/243
f 249/56/56 251/233/233 250/54/54
f 251/233/233 249/56/56 252/311/311
f 247/312/312 252/311/311 249/56/56
f 252/311/311 247/312/312 244/313/313
f 242/314/314 244/313/313 247/312/312
f 66/176/176 93/142/142 97/144/144
f 93/142/142 66/176/176 224/315/315
f 61/174/174 224/315/315 66/176/176
f 224/315/315 61/174/174 225/138/138
f 104/136/136 225/138/138 61/174/174
f 339/22/22 33/18/18 39/20/20
f 33/18/18 339/22/22 336/169/169
f 338/24/24 336/169/169 339/22/22
f 336/169/169 338/24/24 337/26/26
f 236/64/64 12/307/307 238/62/62
f 12/307/307 236/64/64 10/124/124
f 237/66/66 10/124/124 236/64/64
f 10/124/124 237/66/66 15/68/68
f 298/316/316 244/313/313 246/317/317
f 244/313/313 298/316/316 252/311/311
f 297/318/318 252/311/311 298/316/316
f 252/311/311 297/318/318 285/237/237
f 121/303/303 72/306/306 68/304/304
f 72/306/306 121/303/303 86/319/319
f 191/118/118 86/319/319 121/303/303
f 86/319/319 191/118/118 223/153/153
f 319/320/320 320/278/278 24/276/276
f 320/278/278 319/320/320 322/321/321
f 324/255/255 322/321/321 319/320/320
f 322/321/321 324/255/255 346/253/253
f 329/160/160 341/166/166 328/158/158
f 341/166/166 329/160/160 304/322/322
f 349/162/162 304/322/322 329/160/160
f 304/322/322 349/162/162 231/164/164
f 234/65/65 274/323/323 276/67/67
f 274/323/323 234/65/65 267/324/324
f 273/61/61 267/324/324 234/65/65
f 267/324/324 273/61/61 266/59/59
f 57/325/325 55/223/223 53/225/225
f 55/223/223 57/325/325 62/221/221
f 60/326/326 62/221/221 57/325/325
f 62/221/221 60/326/326 65/327/327
f 372/184/184 371/328/328 370/329/329
f 371/328/328 372/184/184 373/330/330
f 389/186/186 373/330/330 372/184/184
f 207/88/88 202/84/84 197/86/86
f 202/84/84 207/88/88 206/291/291
f 167/90/90 206/291/291 207/88/88
f 354/199/199 265/331/331 278/332/332
f 265/331/331 354/199/199 271/333/333
f 269/198/198 271/333/333 354/199/199
f 240/300/300 13/296/296 8/298/298
f 13/296/296 240/300/300 239/334/334
f 241/335/335 239/334/334 240/300/300
f 226/336/336 227/53/53 261/337/337
f 227/53/53 226/336/336 228/57/57
f 266/59/59 228/57/57 226/336/336
f 85/287/287 160/293/293 87/286/286
f 160/293/293 85/287/287 154/46/46
f 146/44/44 154/46/46 85/287/287
f 109/338/338 139/339/339 116/340/340
f 139/339/339 109/338/338 222/341/341
f 221/342/342 222/341/341 109/338/338
f 56/145/145 54/114/114 115/343/343
f 54/114/114 56/145/145 106/154/154
f 95/143/143 106/154/154 56/145/145
f 179/94/94 149/7/7 147/5/5
f 149/7/7 179/94/94 175/9/9
f 359/11/11 175/9/9 179/94/94
f 304/322/322 350/165/165 341/166/166
f 350/165/165 304/322/322 233/269/269
f 231/164/164 233/269/269 304/322/322
f 381/284/284 21/76/76 383/77/77
f 21/76/76 381/284/284 19/74/74
f 28/72/72 19/74/74 381/284/284
f 35/8/8 306/108/108 22/106/106
f 306/108/108 35/8/8 307/110/110
f 340/112/112 307/110/110 35/8/8
f 159/344/344 194/271/271 161/345/345
f 194/271/271 159/344/344 192/272/272
f 125/207/207 122/226/226 79/227/227
f 122/226/226 125/207/207 120/208/208
f 128/210/210 79/227/227 82/212/212
f 79/227/227 128/210/210 125/207/207
f 76/228/228 131/50/50 67/52/52
f 131/50/50 76/228/228 120/208/208
f 94/346/346 51/224/224 71/229/229
f 51/224/224 94/346/346 53/225/225
f 139/339/339 199/347/347 113/348/348
f 199/347/347 139/339/339 198/349/349
f 323/350/350 347/27/27 325/25/25
f 347/27/27 323/350/350 345/351/351
f 296/352/352 310/353/353 352/354/354
f 310/353/353 296/352/352 295/355/355
f 43/356/356 52/141/141 41/139/139
f 52/141/141 43/356/356 176/150/150
f 88/152/152 86/319/319 223/153/153
f 86/319/319 88/152/152 72/306/306
f 10/124/124 208/305/305 12/307/307
f 208/305/305 10/124/124 209/123/123
f 369/182/182 370/329/329 368/180/180
f 370/329/329 369/182/182 372/184/184
f 378/194/194 393/183/183 367/179/179
f 393/183/183 378/194/194 394/193/193
f 75/295/295 80/357/357 6/299/299
f 80/357/357 75/295/295 83/358/358
f 77/359/359 75/295/295 73/297/297
f 75/295/295 77/359/359 83/358/358
f 393/183/183 392/187/187 391/185/185
f 392/187/187 393/183/183 394/193/193
f 395/190/190 392/187/187 394/193/193
f 392/187/187 395/190/190 23/189/189
f 7/360/360 4/133/133 374/195/195
f 4/133/133 7/360/360 375/134/134
f 377/73/73 25/132/132 375/134/134
f 25/132/132 377/73/73 28/72/72
f 364/361/361 365/41/41 386/75/75
f 365/41/41 364/361/361 96/43/43
f 36/283/283 34/128/128 16/130/130
f 34/128/128 36/283/283 382/126/126
f 379/191/191 2/279/279 380/281/281
f 2/279/279 379/191/191 396/192/192
f 335/256/256 29/14/14 31/16/16
f 29/14/14 335/256/256 334/257/257
f 182/244/244 216/19/19 181/17/17
f 216/19/19 182/244/244 215/245/245
f 308/239/239 312/241/241 311/240/240
f 312/241/241 308/239/239 294/362/362
f 203/289/289 167/90/90 141/92/92
f 167/90/90 203/289/289 206/291/291
f 145/6/6 22/106/106 143/4/4
f 22/106/106 145/6/6 35/8/8
f 238/62/62 247/312/312 248/60/60
f 247/312/312 238/62/62 242/314/314
f 267/324/324 268/363/363 274/323/323
f 268/363/363 267/324/324 266/59/59
f 279/364/364 293/365/365 296/352/352
f 293/365/365 279/364/364 259/366/366
f 78/367/367 88/152/152 84/151/151
f 88/152/152 78/367/367 72/306/306
f 129/178/178 97/144/144 112/368/368
f 97/144/144 129/178/178 66/176/176
f 279/364/364 265/331/331 262/369/369
f 265/331/331 279/364/364 278/332/332
f 286/236/236 256/262/262 229/260/260
f 256/262/262 286/236/236 287/238/238
f 291/234/234 229/260/260 290/232/232
f 229/260/260 291/234/234 286/236/236
f 252/311/311 253/235/235 251/233/233
f 253/235/235 252/311/311 285/237/237
f 272/58/58 247/312/312 249/56/56
f 247/312/312 272/58/58 248/60/60
f 292/370/370 246/317/317 5/149/149
f 246/317/317 292/370/370 298/316/316
f 280/371/371 284/264/264 282/372/372
f 284/264/264 280/371/371 254/263/263
f 264/373/373 226/336/336 257/374/374
f 226/336/336 264/373/373 270/375/375
f 92/376/376 163/36/36 166/285/285
f 163/36/36 92/376/376 170/34/34
f 40/79/79 384/377/377 42/125/125
f 384/377/377 40/79/79 46/80/80
f 151/98/98 169/89/89 155/87/87
f 169/89/89 151/98/98 361/96/96
f 218/206/206 211/378/378 18/204/204
f 211/378/378 218/206/206 219/379/379
f 127/380/380 219/379/379 220/381/381
f 219/379/379 127/380/380 211/378/378
f 136/382/382 164/383/383 133/384/384
f 164/383/383 136/382/382 157/385/385
f 289/242/242 294/362/362 263/386/386
f 294/362/362 289/242/242 312/241/241
f 270/375/375 266/59/59 226/336/336
f 266/59/59 270/375/375 268/363/363
f 124/387/387 220/381/381 221/342/342
f 220/381/381 124/387/387 127/380/380
f 190/388/388 221/342/342 109/338/338
f 221/342/342 190/388/388 124/387/387
f 157/385/385 161/345/345 164/383/383
f 161/345/345 157/385/385 159/344/344
f 224/315/315 99/140/140 93/142/142
f 99/140/140 224/315/315 225/138/138
f 162/389/389 188/309/309 153/310/310
f 188/309/309 162/389/389 193/308/308
f 165/390/390 153/310/310 132/85/85
f 153/310/310 165/390/390 162/389/389
f 198/349/349 134/391/391 201/392/392
f 134/391/391 198/349/349 137/393/393
f 321/394/394 325/25/25 326/23/23
f 325/25/25 321/394/394 323/350/350
f 27/246/246 326/23/23 186/21/21
f 326/23/23 27/246/246 321/394/394
f 215/245/245 186/21/21 216/19/19
f 186/21/21 215/245/245 27/246/246
f 344/29/29 345/351/351 316/31/31
f 345/351/351 344/29/29 347/27/27
f 334/257/257 358/12/12 29/14/14
f 358/12/12 334/257/257 357/113/113
f 44/127/127 42/125/125 384/377/377
f 387/282/282 44/127/127 48/395/395
f 48/395/395 44/127/127 384/377/377
f 62/221/221 65/327/327 103/219/219
f 110/216/216 118/222/222 107/220/220
f 98/214/214 172/396/396 168/215/215
f 140/213/213 142/209/209 138/211/211
f 172/396/396 92/376/376 168/215/215
f 168/215/215 92/376/376 166/285/285
f 348/30/30 332/157/157 333/28/28
f 70/122/122 208/305/305 209/123/123
f 234/65/65 235/63/63 273/61/61
f 240/300/300 243/302/302 241/335/335
f 287/238/238 284/264/264 256/262/262
f 11/129/129 9/280/280 14/131/131
f 340/112/112 35/8/8 37/10/10
