<?xml version="1.0"?>
<COLLADA xmlns="http://www.collada.org/2005/11/COLLADASchema" version="1.4.1">
    <asset>
        <contributor>
            <authoring_tool>J3D Ripoff Exporter</authoring_tool>
        </contributor>
        <created>2024-08-02T13:57:22.598Z</created>
        <modified>2024-08-02T13:57:22.598Z</modified>
		<unit meter="0.01" name="centimeter" ></unit>
        <up_axis>Y_UP</up_axis>
    </asset>
    <library_images>
        <image id="tex0">
            <init_from>donkey_all.png</init_from>
        </image>
    </library_images>
    <library_effects>
        <effect id="effect0">
            <profile_COMMON>
                <newparam sid="surface0">
                    <surface type="2D">
                        <init_from>tex0</init_from>
                    </surface>
                </newparam>
                <newparam sid="sampler0">
                    <sampler2D>
                        <source>surface0</source>
                    </sampler2D>
                </newparam>
                <technique sid="COMMON">
                    <blinn>
                        <diffuse>
                            <texture texture="sampler0" texcoord="UVSET0"></texture>
                        </diffuse>
                    </blinn>
                </technique>
            </profile_COMMON>
        </effect>
    </library_effects>
    <library_materials>
        <material id="mat0" name="Dummy">
            <instance_effect url="#effect0"></instance_effect>
        </material>
    </library_materials>
    <library_geometries>
        <geometry id="mesh0">
            <mesh>
                <source id="points0">
                    <float_array id="pointarray0" count="2202">104.88671875 37.72265625 0 105.0234375 36.28125 8.29296875 94.8359375 27.68359375 0 94.95703125 26.22265625 9.5078125 84.51171875 37.2890625 0 84.6171875 35.80859375 10.72265625 73.46484375 28.296875 0 73.5390625 26.75 11.75390625 62.45703125 36.69921875 0 62.46484375 35.2421875 11.31640625 53.45703125 30.05859375 0 53.515625 28.65234375 10.7578125 43.66796875 36.84765625 0 43.5234375 35.33984375 8.359375 34.81640625 29.9609375 0 33.96875 30.671875 9.08984375 30.6875 41.62109375 7.87890625 24.02734375 36.7109375 9.5703125 25.5234375 42.046875 0 17.49609375 34.515625 4.8125 19.08203125 36.1953125 0 17.21484375 31.8515625 0 17.49609375 34.515625 -4.8125 16.03125 30.3359375 -3.91796875 20.70703125 33.1875 -10.08984375 18.2265625 29.1015625 -8.0625 33.2734375 24.1875 -12.6015625 33.00390625 22.2421875 -8.51171875 43.15625 30.76171875 -14.5703125 42.96484375 28.95703125 -10.234375 53.7265625 23.59765625 -16.203125 53.60546875 21.609375 -11.90234375 62.5703125 29.8515625 -17.22265625 62.578125 27.62890625 -12.94140625 73.55859375 20.69921875 -17.55859375 73.46484375 18.09765625 -13.29296875 85.02734375 29.94140625 -16.41796875 84.97265625 27.33203125 -12.30078125 95.21875 20.30078125 -14.84375 95.04296875 17.44140625 -10.9765625 105.1328125 30.3046875 -13.26953125 104.83984375 27.19140625 -9.6484375 113.51953125 22.73046875 -5.94140625 110.5 22.72265625 -5.2421875 111.9140625 21.45703125 0 104.71484375 25.38671875 -3.75 104.74609375 26.3671875 0 94.96484375 15.53125 -4.02734375 94.9296875 16.5234375 0 84.94140625 25.32421875 -4.3046875 84.83984375 26.32421875 0 73.328125 16.08203125 -5.03515625 73.3515625 17.16015625 0 62.41015625 25.90234375 -5.2109375 62.50390625 26.88671875 0 53.61328125 20.06640625 -4.81640625 53.66015625 20.99609375 0 42.87109375 27.59765625 -4.01953125 42.90234375 28.5546875 0 33.03125 21.7890625 -4.08203125 33.109375 22.96484375 0 33.03125 21.7890625 4.08203125 16.03125 30.3359375 3.91796875 18.2265625 29.1015625 8.0625 20.70703125 33.1875 10.08984375 33.2734375 24.1875 12.6015625 33.50390625 26.36328125 11.95703125 36.79296875 13.06640625 -27.203125 38.234375 20.73828125 -26.6015625 36.3359375 12.56640625 -28.79296875 37.6875 20.70703125 -28.36328125 36.1171875 12.00390625 -29.25 36.2734375 20.4140625 -28.71484375 35.5546875 20.296875 -29.58984375 35.16796875 30.65625 -28.87109375 33.53125 30.57421875 -30.7578125 31.74609375 43.921875 -28.06640625 25.46484375 29.55859375 -31.68359375 24.96484375 41.4296875 -29.9609375 18.12109375 28.515625 -31.06640625 19.02734375 40.53515625 -27.6796875 12.03515625 39.15625 -24.125 20.625 48.1484375 -22.5546875 13.3671875 47.859375 -14.5390625 21.73828125 52.76953125 -13.1796875 12.4140625 49.69140625 0 22.203125 54.96875 0 21.73828125 52.76953125 13.1796875 33.046875 54.62109375 12.4375 20.625 48.1484375 22.5546875 30.0546875 49.08203125 22.65234375 24.96484375 41.4296875 29.9609375 31.74609375 43.921875 28.25 25.46484375 29.55859375 31.68359375 33.53125 30.57421875 30.7578125 25.6484375 18.75390625 32.46875 34 20.02734375 31.2421875 32.25390625 9.890625 30.30078125 34.30078125 10.93359375 29.5625 30.6875 41.62109375 -7.87890625 33.96875 30.671875 -9.08984375 43.5234375 35.33984375 -8.359375 53.515625 28.65234375 -10.7578125 62.46484375 35.2421875 -11.31640625 73.5390625 26.75 -11.75390625 84.6171875 35.80859375 -10.72265625 94.95703125 26.22265625 -9.5078125 105.0234375 36.28125 -8.29296875 116.328125 24.0078125 0 113.7265625 25.375 7.46484375 105.16796875 33.2265625 12.859375 113.51953125 22.73046875 5.94140625 105.1328125 30.3046875 13.26953125 104.83984375 27.19140625 9.6484375 95.04296875 17.44140625 10.9765625 104.71484375 25.38671875 3.75 94.96484375 15.53125 4.02734375 47.33984375 -11.7890625 -1.83984375 57.34375 -11.9765625 -3.08203125 47.13671875 -14.4765625 -4.41796875 57.1796875 -14.1328125 -5.11328125 47.0625 -15.4609375 -7.93359375 57.12109375 -14.921875 -7.890625 47.13671875 -14.4765625 -11.453125 57.1796875 -14.1328125 -10.6640625 47.33984375 -11.7890625 -14.02734375 57.34375 -11.9765625 -12.6953125 47.6171875 -8.11328125 -14.97265625 57.56640625 -9.03125 -13.44140625 47.890625 -4.44140625 -14.02734375 57.7890625 -6.08203125 -12.6953125 48.09375 -1.75390625 -11.453125 57.94921875 -3.92578125 -10.6640625 48.16796875 -0.76953125 -7.93359375 58.0078125 -3.13671875 -7.890625 48.09375 -1.75390625 -4.41796875 57.94921875 -3.92578125 -5.11328125 47.890625 -4.44140625 -1.83984375 57.7890625 -6.08203125 -3.08203125 47.6171875 -8.11328125 -0.8984375 57.56640625 -9.03125 -2.3359375 63.28125 -11.47265625 -4.57421875 63.16796875 -12.95703125 -5.9765625 63.12890625 -13.50390625 -7.890625 63.16796875 -12.95703125 -9.80078125 63.28125 -11.47265625 -11.203125 63.43359375 -9.44140625 -11.71484375 63.5859375 -7.41015625 -11.203125 63.69921875 -5.921875 -9.80078125 63.73828125 -5.37890625 -7.890625 63.69921875 -5.921875 -5.9765625 63.5859375 -7.41015625 -4.57421875 63.43359375 -9.44140625 -4.0625 65.4453125 -11.46484375 -8.8125 65.50390625 -10.71484375 -9.52734375 65.578125 -9.6953125 -9.7890625 65.65625 -8.671875 -9.52734375 65.7109375 -7.92578125 -8.8125 65.734375 -7.65234375 -7.83203125 65.7109375 -7.92578125 -6.85546875 65.65625 -8.671875 -6.13671875 65.578125 -9.6953125 -5.875 65.50390625 -10.71484375 -6.13671875 65.4453125 -11.46484375 -6.85546875 65.42578125 -11.73828125 -7.83203125 37.796875 -14.1875 -11.625 38.01953125 -11.265625 -14.421875 38.3203125 -7.27734375 -15.4453125 38.6171875 -3.2890625 -14.421875 38.83984375 -0.37109375 -11.625 38.91796875 0.6953125 -7.8046875 38.83984375 -0.37109375 -3.984375 38.6171875 -3.2890625 -1.19140625 38.3203125 -7.27734375 -0.16796875 38.01953125 -11.265625 -1.19140625 37.796875 -14.1875 -3.984375 37.71875 -15.25390625 -7.8046875 31.640625 -10.32421875 13.66015625 37.796875 -14.1875 11.625 31.4453125 -12.90625 11.18359375 37.71875 -15.25390625 7.8046875 31.375 -13.8515625 7.8046875 37.796875 -14.1875 3.984375 31.4453125 -12.90625 4.42578125 38.01953125 -11.265625 1.19140625 31.640625 -10.32421875 1.953125 38.3203125 -7.27734375 0.16796875 31.90625 -6.796875 1.046875 38.6171875 -3.2890625 1.19140625 32.171875 -3.265625 1.953125 38.83984375 -0.37109375 3.984375 32.3671875 -0.68359375 4.42578125 38.91796875 0.6953125 7.8046875 32.4375 0.2578125 7.8046875 38.83984375 -0.37109375 11.625 32.3671875 -0.68359375 11.18359375 38.6171875 -3.2890625 14.421875 32.171875 -3.265625 13.66015625 38.3203125 -7.27734375 15.4453125 31.90625 -6.796875 14.56640625 38.01953125 -11.265625 14.421875 31.4453125 -12.90625 -11.18359375 31.640625 -10.32421875 -13.66015625 31.90625 -6.796875 -14.56640625 32.171875 -3.265625 -13.66015625 32.3671875 -0.68359375 -11.18359375 32.4375 0.2578125 -7.8046875 32.3671875 -0.68359375 -4.42578125 32.171875 -3.265625 -1.953125 31.90625 -6.796875 -1.046875 31.640625 -10.32421875 -1.953125 31.4453125 -12.90625 -4.42578125 31.375 -13.8515625 -7.8046875 47.13671875 -14.4765625 11.453125 47.0625 -15.4609375 7.93359375 47.13671875 -14.4765625 4.41796875 47.33984375 -11.7890625 1.83984375 47.6171875 -8.11328125 0.8984375 47.890625 -4.44140625 1.83984375 48.09375 -1.75390625 4.41796875 48.16796875 -0.76953125 7.93359375 48.09375 -1.75390625 11.453125 47.890625 -4.44140625 14.02734375 47.6171875 -8.11328125 14.97265625 47.33984375 -11.7890625 14.02734375 57.1796875 -14.1328125 10.6640625 57.12109375 -14.921875 7.890625 57.1796875 -14.1328125 5.11328125 57.34375 -11.9765625 3.08203125 57.56640625 -9.03125 2.3359375 57.7890625 -6.08203125 3.08203125 57.94921875 -3.92578125 5.11328125 58.0078125 -3.13671875 7.890625 57.94921875 -3.92578125 10.6640625 57.7890625 -6.08203125 12.6953125 57.56640625 -9.03125 13.44140625 57.34375 -11.9765625 12.6953125 63.16796875 -12.95703125 9.80078125 63.12890625 -13.50390625 7.890625 63.16796875 -12.95703125 5.9765625 63.28125 -11.47265625 4.57421875 63.43359375 -9.44140625 4.0625 63.5859375 -7.41015625 4.57421875 63.69921875 -5.921875 5.9765625 63.73828125 -5.37890625 7.890625 63.69921875 -5.921875 9.80078125 63.5859375 -7.41015625 11.203125 63.43359375 -9.44140625 11.71484375 63.28125 -11.47265625 11.203125 65.65625 -8.671875 9.52734375 65.578125 -9.6953125 9.7890625 65.50390625 -10.71484375 9.52734375 65.4453125 -11.46484375 8.8125 65.42578125 -11.73828125 7.83203125 65.4453125 -11.46484375 6.85546875 65.50390625 -10.71484375 6.13671875 65.578125 -9.6953125 5.875 65.65625 -8.671875 6.13671875 65.7109375 -7.92578125 6.85546875 65.734375 -7.65234375 7.83203125 65.7109375 -7.92578125 8.8125 24.02734375 36.7109375 -9.5703125 33.50390625 26.36328125 -11.95703125 43.31640625 32.6953125 -13.89453125 53.640625 25.67578125 -16.1328125 62.640625 32.40234375 -16.60546875 73.68359375 23.625 -16.9609375 84.92578125 32.8046875 -15.8359375 95.18359375 23.19140625 -14.34765625 105.16796875 33.2265625 -12.859375 113.7265625 25.375 -7.46484375 115.90625 20.765625 0 27.82421875 -15.43359375 19.27734375 27.21484375 -19.62890625 18.83984375 27.75390625 -20.25 21.08984375 31.01953125 -20.078125 16.5234375 32.5625 -21.2421875 19.5078125 34.08203125 -19.0859375 14.46875 36.59375 -20.22265625 16.3359375 37.61328125 -16.90625 10.7109375 40.4453125 -18.375 12.19140625 39.7421875 -15.54296875 5.62890625 42.94921875 -16.73828125 6.60546875 43.50390625 -16 0 44.171875 -21.3984375 6.8359375 44.8203125 -20.6171875 0 42.53515625 -25.296875 5.7890625 43.4140625 -24.390625 0 39.484375 -26.57421875 4.77734375 39.9375 -25.8125 0 38.35546875 -24.03515625 4.27734375 39.21484375 -23.21484375 0 25.63671875 8.79296875 29.87890625 19.28125 17.3671875 30.38671875 18.12109375 28.515625 31.06640625 12.1953125 15.265625 26.97265625 11.5234375 27.01953125 26.69921875 6.16015625 25.32421875 18.42578125 12.03515625 39.15625 24.125 8.23046875 39.40625 16.8984375 13.3671875 47.859375 14.5390625 7.43359375 39.8125 8.39453125 6.6328125 40.22265625 0 7.43359375 39.8125 -8.39453125 5.14453125 25 -9.15234375 6.16015625 25.32421875 -18.42578125 6.55859375 10.53125 -8.56640625 7.40625 12.3984375 -19.09765625 38.171875 30.05859375 -26.34375 37.03515625 30.15234375 -23.1640625 35.96875 39.265625 -26.1328125 34.921875 39.4921875 -23.30078125 41.33984375 40.078125 -23.0546875 40.75 40.08984375 -20.79296875 48.16796875 42.09765625 -17.8828125 47.06640625 42.4375 -16.390625 50.6953125 44.5390625 -11.37109375 36.546875 49.6640625 -14.55859375 46.26171875 52.3203125 0 30.484375 51.06640625 0 36.546875 49.6640625 14.55859375 23.40625 41.69921875 25.17578125 40.75 40.08984375 20.79296875 34.921875 39.4921875 23.30078125 41.33984375 40.078125 23.0546875 35.96875 39.265625 26.1328125 47.62890625 13.15625 -24.54296875 47.81640625 12.11328125 -25.1640625 53.75390625 12.42578125 -22.3828125 53.70703125 11.26953125 -23.05859375 58.82421875 11.0625 -19.89453125 58.4453125 9.390625 -20.5859375 63.59375 8.67578125 -14.58984375 63.2109375 6.76953125 -14.94140625 66.53515625 6.50390625 -7.46484375 66.0234375 4.55859375 -7.5859375 66.828125 3.5703125 0 65.00390625 2.6484375 0 66.0234375 4.55859375 7.5859375 64.19140625 3.328125 7.37109375 63.2109375 6.76953125 14.94140625 62.21484375 5.59765625 14.82421875 57.65234375 8.24609375 19.8515625 60.9375 5.59375 13.49609375 36.79296875 13.06640625 27.203125 36.3359375 12.56640625 28.79296875 38.234375 20.73828125 26.6015625 37.6875 20.70703125 28.36328125 38.171875 30.05859375 26.34375 37.578125 30.33203125 28.15234375 36.02734375 40.203125 27.2890625 35.359375 40.90234375 28.34765625 41.828125 42.53515625 25.234375 34.34765625 41.390625 27.96875 41.0390625 43.3046875 23.97265625 38.08984375 47.9609375 21.6875 39.484375 -26.57421875 -4.77734375 42.53515625 -25.296875 -5.7890625 36.37109375 -27.62890625 -7.83984375 39.3671875 -27.44140625 -10.390625 31.99609375 -29.078125 -11.078125 35.6484375 -29.48828125 -13.7109375 32.41796875 -30.390625 -16.41796875 33.90234375 -26.1015625 -19.13671875 30.390625 -26.2421875 -21.109375 32.5625 -21.2421875 -19.5078125 27.75390625 -20.25 -21.08984375 31.01953125 -20.078125 -16.5234375 27.21484375 -19.62890625 -18.83984375 30.0546875 49.08203125 -22.65234375 33.046875 54.62109375 -12.4375 38.08984375 47.9609375 -21.6875 43.28125 50.93359375 -15.9375 47.6328125 45.859375 -19.3125 52.33203125 48.21875 -13.2265625 48.62109375 44.89453125 -19.87890625 53.60546875 47.26171875 -13.97265625 54.66015625 45.4296875 -13.54296875 58.11328125 47.31640625 -6.73046875 55.39453125 45.640625 -6.21875 55.9921875 45.82421875 0 41.65625 12.2109375 -27.05078125 41.3203125 11.3203125 -26.984375 47.765625 11.05078125 -25.109375 47.25390625 10.32421875 -24.6796875 52.1796875 9.60546875 -22.1796875 46.63671875 6.921875 -23.52734375 49.55078125 3.5390625 -18.58203125 42.8046875 -0.83984375 -19.73046875 44.35546875 -4.171875 -11.5390625 35.6875 -2.91015625 -17.96484375 38.80859375 -2.796875 -9.390625 32.21484375 -0.0703125 -14.72265625 43.15625 30.76171875 14.5703125 43.31640625 32.6953125 13.89453125 53.7265625 23.59765625 16.203125 53.640625 25.67578125 16.1328125 62.5703125 29.8515625 17.22265625 62.640625 32.40234375 16.60546875 73.55859375 20.69921875 17.55859375 73.68359375 23.625 16.9609375 85.02734375 29.94140625 16.41796875 84.92578125 32.8046875 15.8359375 95.21875 20.30078125 14.84375 95.18359375 23.19140625 14.34765625 42.87109375 27.59765625 4.01953125 53.61328125 20.06640625 4.81640625 62.41015625 25.90234375 5.2109375 73.328125 16.08203125 5.03515625 84.94140625 25.32421875 4.3046875 33.00390625 22.2421875 8.51171875 42.96484375 28.95703125 10.234375 53.60546875 21.609375 11.90234375 62.578125 27.62890625 12.94140625 73.46484375 18.09765625 13.29296875 84.97265625 27.33203125 12.30078125 42.08984375 40.84375 24.2734375 48.16796875 42.09765625 17.8828125 49.53125 43.13671875 19.91796875 53.02734375 44.3671875 12.671875 54.66015625 45.4296875 13.54296875 55.39453125 45.640625 6.21875 58.11328125 47.31640625 6.73046875 58.828125 47.8359375 0 57.02734375 49.24609375 -6.99609375 41.65625 12.2109375 27.05078125 41.3203125 11.3203125 26.984375 36.1171875 12.00390625 29.25 41.25390625 8.60546875 27.43359375 37.3828125 6.8046875 29.078125 40.88671875 3.65234375 25.48046875 34.26171875 2.71484375 27.16015625 34.27734375 -0.37109375 23.27734375 26.73828125 2.53515625 24.06640625 24.78515625 2.875 17.58984375 15.05859375 4.87109375 19.51953125 48.62109375 44.89453125 19.87890625 53.60546875 47.26171875 13.97265625 57.02734375 49.24609375 6.99609375 57.61328125 49.73828125 0 8.23046875 39.40625 -16.8984375 11.5234375 27.01953125 -26.69921875 12.1953125 15.265625 -26.97265625 19.28125 17.3671875 -30.38671875 25.6484375 18.75390625 -32.46875 25.63671875 8.79296875 -29.87890625 32.25390625 9.890625 -30.30078125 34.08203125 -19.0859375 -14.46875 36.59375 -20.22265625 -16.3359375 37.61328125 -16.90625 -10.7109375 40.4453125 -18.375 -12.19140625 39.7421875 -15.54296875 -5.62890625 42.94921875 -16.73828125 -6.60546875 44.171875 -21.3984375 -6.8359375 41.72265625 13.375 25.9140625 47.81640625 12.11328125 25.1640625 47.765625 11.05078125 25.109375 53.70703125 11.26953125 23.05859375 53.33984375 10.1796875 22.73828125 56.68359375 7.84375 18.71875 49.55078125 3.5390625 18.58203125 52.078125 -0.1796875 12.3359375 44.35546875 -4.171875 11.5390625 37.13671875 20.703125 -23.7890625 36.8125 13.046875 -24.22265625 23.84765625 14.77734375 -23.6640625 29.78125 7.94921875 -23.015625 18.0390625 13.29296875 0 26.61328125 4.78125 0 29.78125 7.94921875 23.015625 46.51171875 6.125 13.44140625 52.65234375 12.2890625 20.2578125 57.7890625 11.1953125 17.73046875 58.82421875 11.0625 19.89453125 63.59375 8.67578125 14.58984375 27.82421875 -15.43359375 -19.27734375 27.94921875 -15.51953125 -21.06640625 27.0078125 -15.9140625 -23.296875 28.7890625 -10.0859375 -22.046875 23.53125 -14.609375 -24.1796875 26.28515625 -8.59375 -22.9765625 24.9296875 -8.30078125 -21.6796875 29.56640625 -4.47265625 -20.83203125 27.7734375 -4.3203125 -19.46875 22.41796875 -13.84765625 -22.90625 20.9453125 -18.265625 -22.8203125 20.78125 -20.75 -23.27734375 18.72265625 -25.2890625 -21.1875 24.1328125 -24.26953125 -23.19140625 24.08984375 -28.74609375 -20.84375 28.24609375 -30.4375 -18.8203125 20.6015625 -28.51171875 -17.38671875 37.578125 30.33203125 -28.15234375 36.0234375 30.51171875 -28.5859375 34.34765625 41.390625 -27.96875 41.0390625 43.3046875 -23.97265625 23.40625 41.69921875 -25.17578125 19.7734375 42.27734375 0 20.5625 28.26953125 25.74609375 37.03515625 30.15234375 23.1640625 66.53515625 6.50390625 7.46484375 58.4453125 9.390625 20.5859375 53.75390625 12.42578125 22.3828125 47.62890625 13.15625 24.54296875 20.5625 28.26953125 -25.74609375 15.73046875 28.16796875 0 23.84765625 14.77734375 23.6640625 36.8125 13.046875 24.22265625 41.3046875 13.890625 23.03515625 52.078125 -0.1796875 -12.3359375 60.9375 5.59375 -13.49609375 56.68359375 7.84375 -18.71875 57.65234375 8.24609375 -19.8515625 53.33984375 10.1796875 -22.73828125 35.07421875 -1.19921875 12.94140625 30.640625 -6.8125 17.578125 31.5625 -6.796875 18.76953125 27.94921875 -15.51953125 21.06640625 27.0078125 -15.9140625 23.296875 24.1328125 -24.26953125 23.19140625 20.78125 -20.75 23.27734375 18.72265625 -25.2890625 21.1875 20.9453125 -18.265625 22.8203125 47.58203125 45.78515625 18.75 52.33203125 48.21875 13.2265625 43.28125 50.93359375 15.9375 46.99609375 53.984375 8.015625 33.8046875 56.4921875 0 41.25390625 8.60546875 -27.43359375 40.88671875 3.65234375 -25.48046875 34.27734375 -0.37109375 -23.27734375 24.78515625 2.875 -17.58984375 53.02734375 44.3671875 -12.671875 49.53125 43.13671875 -19.91796875 42.08984375 40.84375 -24.2734375 36.02734375 40.203125 -27.2890625 41.703125 -23.10546875 12.26953125 37.8125 -25.21875 16.33984375 33.90234375 -26.1015625 19.13671875 35.6484375 -29.48828125 13.7109375 32.41796875 -30.390625 16.41796875 31.99609375 -29.078125 11.078125 25.83984375 -27.34765625 13.98828125 52.65234375 12.2890625 -20.2578125 57.7890625 11.1953125 -17.73046875 46.51171875 6.125 -13.44140625 60.984375 9.56640625 -13.8046875 63.75 7.76953125 -7.19921875 67.2734375 5.578125 0 41.72265625 13.375 -25.9140625 41.3046875 13.890625 -23.03515625 46.8359375 13.5625 -21.78125 47.25390625 10.32421875 24.6796875 46.63671875 6.921875 23.52734375 52.1796875 9.60546875 22.1796875 36.26953125 -1.07421875 15.3828125 31.42578125 -5.703125 20.25 34.9609375 -0.1484375 16.8984375 29.56640625 -4.47265625 20.83203125 32.21484375 -0.0703125 14.72265625 27.7734375 -4.3203125 19.46875 36.2890625 20.43359375 28.71484375 35.98828125 30.59375 28.5859375 36.37109375 -27.62890625 7.83984375 39.3671875 -27.44140625 10.390625 53.9296875 49.19140625 -7.125 54.734375 49.91015625 0 47.6875 54.8046875 0 53.9296875 49.19140625 7.125 37.8125 -25.21875 -16.33984375 41.703125 -23.10546875 -12.26953125 20.6015625 -28.51171875 17.38671875 28.24609375 -30.4375 18.8203125 30.390625 -26.2421875 21.109375 24.08984375 -28.74609375 20.84375 33.06640625 40.828125 -18.12109375 34.85546875 35.02734375 -17.91796875 28.22265625 38.875 -18.328125 29.21875 33.4375 -18.17578125 27.94140625 38.859375 -23.69921875 29.453125 33.80078125 -23.53125 33.53515625 40.85546875 -23.6015625 35.59765625 35.0546875 -23.4609375 48.8828125 46.84765625 -13.66015625 51.03125 40.16015625 -13.6640625 52.9375 48.44140625 0 55.2578125 41.421875 0 51.03125 40.16015625 13.6640625 54.734375 40.09765625 0 50.6328125 38.87109375 13.07421875 47.08203125 37.64453125 9.92578125 52.51171875 45.61328125 -5.890625 53.19140625 45.9375 0 6.55859375 10.53125 8.56640625 7.40625 12.3984375 19.09765625 10.06640625 6.9609375 18.26953125 15.61328125 7.734375 26.328125 20.73828125 4.453125 24.98828125 26.25390625 4.43359375 27.65625 24.9296875 -8.30078125 21.6796875 26.28515625 -8.59375 22.9765625 23.53125 -14.609375 24.1796875 28.7890625 -10.0859375 22.046875 46.8359375 13.5625 21.78125 37.87890625 10.58203125 18.77734375 37.91796875 16.75390625 18.96875 29.23828125 11.60546875 19.3203125 29.18359375 16.58984375 19.41015625 28.82421875 15.44921875 25.20703125 28.9765625 16.60546875 24.23828125 38.296875 15.55859375 24.44921875 62.5703125 3.69140625 6.1640625 62.9296875 3.19140625 0 64.19140625 3.328125 -7.37109375 35.6875 -2.91015625 17.96484375 42.8046875 -0.83984375 19.73046875 46.99609375 53.984375 -8.015625 26.73828125 2.53515625 -24.06640625 34.26171875 2.71484375 -27.16015625 26.25390625 4.43359375 -27.65625 33.203125 5.37109375 -29.25390625 37.3828125 6.8046875 -29.078125 38.80859375 -2.796875 9.390625 44.58203125 -6.3046875 5.59765625 53.125 -1.640625 5.875 44.67578125 -7.15625 0 53.30859375 -2.5625 0 53.125 -1.640625 -5.875 62.5703125 3.69140625 -6.1640625 50.6953125 44.5390625 11.37109375 47.06640625 42.4375 16.390625 52.71875 5.6171875 0 64.6328125 6.9609375 0 63.75 7.76953125 7.19921875 41.328125 36.625 15.89453125 43.46875 38.00390625 20.74609375 48.8828125 46.84765625 13.66015625 44.58203125 -6.3046875 -5.59765625 40.4375 -5.90234375 0 34.85546875 35.02734375 17.91796875 35.59765625 35.0546875 23.4609375 41.54296875 44.02734375 20.93359375 33.53515625 40.85546875 23.6015625 46.796875 16.22265625 20.6484375 55.375 15.43359375 14.31640625 47.109375 14.99609375 21.4765625 56.0546875 14.12890625 14.32421875 46.05078125 8.10546875 21.26953125 54.46875 5.46875 14.9609375 38.26171875 16.7265625 23.546875 38.3359375 10.484375 24.2421875 33.203125 5.37109375 29.25390625 38.26171875 16.7265625 -23.546875 28.9765625 16.60546875 -24.23828125 38.296875 15.55859375 -24.44921875 28.82421875 15.44921875 -25.20703125 38.3359375 10.484375 -24.2421875 28.9609375 11.6640625 -25.125 19.02734375 40.53515625 27.6796875 15.61328125 7.734375 -26.328125 52.51171875 45.61328125 5.890625 5.14453125 25 9.15234375 34.30078125 10.93359375 -29.5625 34 20.02734375 -31.2421875 35.16796875 30.65625 28.87109375 35.5546875 20.296875 29.58984375 41.828125 42.53515625 -25.234375 41.77734375 2.46484375 0 29.21875 33.4375 18.17578125 29.453125 33.80078125 23.53125 27.94140625 38.859375 23.69921875 110.5 22.72265625 5.2421875 60.984375 9.56640625 13.8046875 15.05859375 4.87109375 -19.51953125 20.73828125 4.453125 -24.98828125 10.06640625 6.9609375 -18.26953125 31.42578125 -5.703125 -20.25 34.9609375 -0.1484375 -16.8984375 36.26953125 -1.07421875 -15.3828125 35.359375 40.90234375 -28.34765625 59.78515625 14.83984375 0 60.44921875 13.55078125 0 58.828125 4.3125 0 66.3828125 -9.75390625 7.83203125 28.9609375 11.6640625 25.125 4.59375 24.6796875 0 66.3828125 -9.75390625 -7.83203125 6.55859375 10.53125 0 55.99609375 15.296875 0 52.1015625 16.0390625 -11.37890625 55.375 15.43359375 -14.31640625 56.0546875 14.12890625 -14.32421875 50.6328125 38.87109375 -13.07421875 43.46875 38.00390625 -20.74609375 41.54296875 44.02734375 -20.93359375 31.5625 -6.796875 -18.76953125 47.08203125 37.64453125 -9.92578125 45.10546875 44.6640625 -9.92578125 49.8984375 39.0546875 0 47.328125 46.39453125 0 45.10546875 44.6640625 9.92578125 44.56640625 16.59375 -16.52734375 37.91796875 16.75390625 -18.96875 46.796875 16.22265625 -20.6484375 47.109375 14.99609375 -21.4765625 46.05078125 8.10546875 -21.26953125 54.46875 5.46875 -14.9609375 62.21484375 5.59765625 -14.82421875 37.13671875 20.703125 23.7890625 50.421875 6.5546875 -11.5625 54.359375 5.31640625 0 52.1015625 16.0390625 11.37890625 22.41796875 -13.84765625 22.90625 30.640625 -6.8125 -17.578125 35.07421875 -1.19921875 -12.94140625 34.92578125 -25.10546875 7.31640625 34.92578125 -25.10546875 -7.31640625 38.35546875 -24.03515625 -4.27734375 25.83984375 -27.34765625 -13.98828125 40.7578125 -14.88671875 0 29.23828125 11.60546875 -19.3203125 29.18359375 16.58984375 -19.41015625 44.56640625 16.59375 16.52734375 50.421875 6.5546875 11.5625 43.21484375 8.94140625 16.33984375 39.2421875 42.82421875 16.0625 33.06640625 40.828125 18.12109375 41.328125 36.625 -15.89453125 39.2421875 42.82421875 -16.0625 37.87890625 10.58203125 -18.77734375 43.21484375 8.94140625 -16.33984375 28.22265625 38.875 18.328125 31.67578125 -26.140625 -10.265625 31.67578125 -26.140625 10.265625</float_array>
                    <technique_common>
                        <accessor count="734" source="#pointarray0" stride="3">
                            <param name="X" type="float"/>
                            <param name="Y" type="float"/>
                            <param name="Z" type="float"/>
                        </accessor>
                    </technique_common>
                </source>
                <source id="uvs0">
                    <float_array id="uvarray0" count="842">0.5614013671875 0.29620361328125 0.5989990234375 0.29620361328125 0.5614013671875 0.2974853515625 0.5992431640625 0.2974853515625 0.5614013671875 0.298828125 0.59942626953125 0.298828125 0.5614013671875 0.30145263671875 0.599853515625 0.30145263671875 0.5614013671875 0.3040771484375 0.60028076171875 0.3040771484375 0.5614013671875 0.30670166015625 0.6007080078125 0.30670166015625 0.5614013671875 0.31201171875 0.6015625 0.31201171875 0.5614013671875 0.3172607421875 0.60247802734375 0.3172607421875 0.5960693359375 0.325927734375 0.6119384765625 0.3302001953125 0.5614013671875 0.33453369140625 0.58392333984375 0.33514404296875 0.5614013671875 0.33514404296875 0.5614013671875 0.33282470703125 0.57611083984375 0.33282470703125 0.61395263671875 0.33056640625 0.60589599609375 0.32916259765625 0.6239013671875 0.3172607421875 0.60968017578125 0.3172607421875 0.62310791015625 0.31201171875 0.60858154296875 0.31201171875 0.622314453125 0.30670166015625 0.60748291015625 0.30670166015625 0.62188720703125 0.3040771484375 0.60699462890625 0.3040771484375 0.62152099609375 0.30145263671875 0.6064453125 0.30145263671875 0.62109375 0.298828125 0.60589599609375 0.298828125 0.62091064453125 0.2974853515625 0.60565185546875 0.2974853515625 0.62066650390625 0.29620361328125 0.6053466796875 0.29620361328125 0.6043701171875 0.2667236328125 0.5972900390625 0.27777099609375 0.5614013671875 0.26544189453125 0.57855224609375 0.29620361328125 0.56146240234375 0.29620361328125 0.57843017578125 0.29779052734375 0.56146240234375 0.2979736328125 0.57830810546875 0.29937744140625 0.56146240234375 0.2998046875 0.57806396484375 0.3026123046875 0.56146240234375 0.3033447265625 0.57781982421875 0.3057861328125 0.56146240234375 0.306884765625 0.57757568359375 0.30902099609375 0.56146240234375 0.3104248046875 0.57708740234375 0.3154296875 0.56146240234375 0.3175048828125 0.57659912109375 0.32183837890625 0.5614013671875 0.32464599609375 0.62139892578125 0.3172607421875 0.4979248046875 0.4658203125 0.49835205078125 0.451171875 0.492919921875 0.46392822265625 0.49090576171875 0.44964599609375 0.4879150390625 0.4620361328125 0.4833984375 0.4481201171875 0.4716796875 0.44805908203125 0.4639892578125 0.4371337890625 0.45623779296875 0.44097900390625 0.42498779296875 0.41802978515625 0.4376220703125 0.4425048828125 0.4102783203125 0.42742919921875 0.41900634765625 0.444091796875 0.3956298828125 0.43682861328125 0.3721923828125 0.4617919921875 0.3721923828125 0.42950439453125 0.31317138671875 0.44000244140625 0.311767578125 0.4263916015625 0.254150390625 0.4478759765625 0.254150390625 0.427001953125 0.3125 0.41180419921875 0.368896484375 0.4185791015625 0.43463134765625 0.4617919921875 0.46270751953125 0.451416015625 0.46917724609375 0.4617919921875 0.4775390625 0.45941162109375 0.5614013671875 0.25531005859375 0.6025390625 0.26953125 0.61834716796875 0.29620361328125 0.03564453125 0.12005615234375 0.0426025390625 0.1173095703125 0.0740966796875 0.14630126953125 0.07806396484375 0.1416015625 0.1265869140625 0.15594482421875 0.1265869140625 0.1505126953125 0.1790771484375 0.14630126953125 0.175048828125 0.1416015625 0.21746826171875 0.12005615234375 0.2105712890625 0.1173095703125 0.2315673828125 0.0841064453125 0.22357177734375 0.0841064453125 0.21746826171875 0.0482177734375 0.2105712890625 0.05096435546875 0.1790771484375 0.02191162109375 0.175048828125 0.02667236328125 0.1265869140625 0.0123291015625 0.1265869140625 0.01776123046875 0.0740966796875 0.02191162109375 0.07806396484375 0.02667236328125 0.03564453125 0.0482177734375 0.0426025390625 0.05096435546875 0.0216064453125 0.0841064453125 0.02960205078125 0.0841064453125 0.06842041015625 0.10711669921875 0.093017578125 0.12396240234375 0.1265869140625 0.13006591796875 0.16015625 0.12396240234375 0.18475341796875 0.10711669921875 0.19378662109375 0.0841064453125 0.18475341796875 0.0611572265625 0.16015625 0.0443115234375 0.1265869140625 0.03814697265625 0.093017578125 0.0443115234375 0.06842041015625 0.0611572265625 0.05938720703125 0.0841064453125 0.14947509765625 0.11126708984375 0.166259765625 0.09979248046875 0.17236328125 0.0841064453125 0.166259765625 0.0684814453125 0.14947509765625 0.0570068359375 0.1265869140625 0.05279541015625 0.10369873046875 0.0570068359375 0.0869140625 0.0684814453125 0.080810546875 0.0841064453125 0.0869140625 0.09979248046875 0.10369873046875 0.11126708984375 0.1265869140625 0.115478515625 0.62060546875 0.31201171875 0.619873046875 0.30670166015625 0.6195068359375 0.3040771484375 0.619140625 0.30145263671875 0.61871337890625 0.298828125 0.6185302734375 0.2974853515625 0.5614013671875 0.25177001953125 0.856201171875 0.8375244140625 0.86248779296875 0.875 0.8812255859375 0.88751220703125 0.79998779296875 0.862548828125 0.8026123046875 0.88812255859375 0.7562255859375 0.85003662109375 0.729248046875 0.87921142578125 0.6624755859375 0.8292236328125 0.6624755859375 0.870849609375 0.59375 0.82086181640625 0.5914306640625 0.862548828125 0.5062255859375 0.85418701171875 0.58746337890625 0.9041748046875 0.5062255859375 0.89617919921875 0.5855712890625 0.9202880859375 0.5062255859375 0.9105224609375 0.58404541015625 0.92919921875 0.5062255859375 0.920166015625 0.5819091796875 0.93798828125 0.5062255859375 0.93243408203125 0.44061279296875 0.4888916015625 0.41339111328125 0.46856689453125 0.39215087890625 0.475341796875 0.3822021484375 0.46856689453125 0.32183837890625 0.47845458984375 0.31561279296875 0.4617919921875 0.284912109375 0.463134765625 0.254150390625 0.46453857421875 0.28802490234375 0.4798583984375 0.29364013671875 0.4964599609375 0.3375244140625 0.4949951171875 0.17462158203125 0.2779541015625 0.1607666015625 0.27801513671875 0.16705322265625 0.26458740234375 0.1534423828125 0.26849365234375 0.143798828125 0.23638916015625 0.13165283203125 0.24609375 0.11767578125 0.22412109375 0.10223388671875 0.23419189453125 0.0694580078125 0.22137451171875 0.08184814453125 0.2701416015625 0.00909423828125 0.23895263671875 0.00958251953125 0.27996826171875 0.0855712890625 0.28143310546875 0.9788818359375 0.5731201171875 0.96636962890625 0.5751953125 0.9542236328125 0.55267333984375 0.94140625 0.555419921875 0.92950439453125 0.5322265625 0.9163818359375 0.53564453125 0.84765625 0.50439453125 0.84136962890625 0.5106201171875 0.80322265625 0.50018310546875 0.80010986328125 0.5064697265625 0.7587890625 0.50225830078125 0.7587890625 0.508544921875 0.79693603515625 0.51373291015625 0.83514404296875 0.51898193359375 0.90386962890625 0.539794921875 0.83203125 0.52740478515625 0.49835205078125 0.4371337890625 0.48748779296875 0.4361572265625 0.4703369140625 0.40557861328125 0.457763671875 0.40869140625 0.4124755859375 0.38262939453125 0.446044921875 0.41204833984375 0.38433837890625 0.397216796875 0.3656005859375 0.40765380859375 0.6519775390625 0.94622802734375 0.654541015625 0.93353271484375 0.7183837890625 0.96136474609375 0.7210693359375 0.948486328125 0.8143310546875 0.97064208984375 0.80657958984375 0.9302978515625 0.86248779296875 0.92919921875 0.3380126953125 0.39984130859375 0.35076904296875 0.3873291015625 0.317138671875 0.37744140625 0.36785888671875 0.37225341796875 0.32330322265625 0.3619384765625 0.32623291015625 0.3525390625 0.29022216796875 0.351318359375 0.2918701171875 0.33984375 0.254150390625 0.338623046875 0.99322509765625 0.5914306640625 0.99365234375 0.59686279296875 0.96636962890625 0.58978271484375 0.96435546875 0.591796875 0.94921875 0.57989501953125 0.94573974609375 0.581787109375 0.9241943359375 0.5633544921875 0.93511962890625 0.58770751953125 0.89141845703125 0.55853271484375 0.89141845703125 0.58978271484375 0.833984375 0.56158447265625 0.88201904296875 0.59918212890625 0.81011962890625 0.579345703125 0.84454345703125 0.59393310546875 0.43963623046875 0.37078857421875 0.426513671875 0.37640380859375 0.38458251953125 0.35595703125 0.37640380859375 0.364501953125 0.32952880859375 0.34112548828125 0.254150390625 0.35003662109375 0.28875732421875 0.36065673828125 0.99407958984375 0.602294921875 0.96014404296875 0.59600830078125 0.97265625 0.610595703125 0.93511962890625 0.6043701171875 0.94140625 0.61376953125 0.91015625 0.61273193359375 0.9163818359375 0.62310791015625 0.87261962890625 0.6085205078125 0.87890625 0.62939453125 0.254150390625 0.35943603515625 0.99212646484375 0.5897216796875 0.98553466796875 0.5814208984375 0.93072509765625 0.56036376953125 0.89923095703125 0.54681396484375 0.8341064453125 0.5465087890625 0.16351318359375 0.2796630859375 0.1607666015625 0.2730712890625 0.07952880859375 0.28729248046875 0.07745361328125 0.2806396484375 0.00970458984375 0.29595947265625 0.00927734375 0.284912109375 0.0711669921875 0.260498046875 0.119384765625 0.24267578125 0.10638427734375 0.2362060546875 0.117919921875 0.2247314453125 0.07012939453125 0.20648193359375 0.86871337890625 0.8375244140625 0.9124755859375 0.8375244140625 0.8779296875 0.7933349609375 0.95623779296875 0.8375244140625 0.913818359375 0.77947998046875 0.9375 0.7708740234375 0.8499755859375 0.737548828125 0.86871337890625 0.72503662109375 0.7562255859375 0.683349609375 0.981201171875 0.8375244140625 0.99371337890625 0.875 0.97705078125 0.89483642578125 1 0.95001220703125 0.94708251953125 0.91668701171875 0.93121337890625 0.9666748046875 0.88824462890625 0.9752197265625 0.96246337890625 1 0.47900390625 0.43548583984375 0.00958251953125 0.29150390625 0.08929443359375 0.29278564453125 0.166259765625 0.28619384765625 0.08380126953125 0.30072021484375 0.00958251953125 0.3070068359375 0.149658203125 0.2625732421875 0.15966796875 0.2557373046875 0.15179443359375 0.24462890625 0.71697998046875 0.71044921875 0.79998779296875 0.76251220703125 0.8125 0.75836181640625 0.3104248046875 0.39202880859375 0.254150390625 0.40826416015625 0.48101806640625 0.4029541015625 0.65753173828125 0.91253662109375 0.724609375 0.92144775390625 0.856201171875 1 0.1356201171875 0.23297119140625 0.06683349609375 0.2216796875 0.02777099609375 0.21429443359375 0.0384521484375 0.20330810546875 0.0093994140625 0.2020263671875 0.16748046875 0.26678466796875 0.13861083984375 0.2520751953125 0.731201171875 0.70001220703125 0.83123779296875 0.75 0.74371337890625 0.69171142578125 0.271484375 0.3677978515625 0.28564453125 0.37615966796875 0.254150390625 0.37493896484375 0.254150390625 0.3896484375 0.623291015625 0.20751953125 0.623291015625 0.17120361328125 0.5614013671875 0.20452880859375 0.5614013671875 0.17120361328125 0.5614013671875 0.20440673828125 0.5614013671875 0.17230224609375 0.623291015625 0.207763671875 0.623291015625 0.17230224609375 0.50372314453125 0.216552734375 0.50372314453125 0.17230224609375 0.623291015625 0.21875 0.50372314453125 0.17120361328125 0.50372314453125 0.16845703125 0.07171630859375 0.20721435546875 0.0321044921875 0.21514892578125 0.039306640625 0.20379638671875 0.00909423828125 0.2135009765625 0.00909423828125 0.201904296875 0.847412109375 0.66326904296875 0.8759765625 0.6627197265625 0.87261962890625 0.6474609375 0.92889404296875 0.64605712890625 0.92266845703125 0.633544921875 0.9320068359375 0.629638671875 0.50482177734375 0.20904541015625 0.50482177734375 0.17889404296875 0.5614013671875 0.20611572265625 0.5614013671875 0.17889404296875 0.5614013671875 0.1859130859375 0.50482177734375 0.1859130859375 0.7955322265625 0.52392578125 0.75909423828125 0.5205078125 0.00958251953125 0.30303955078125 0.9476318359375 0.62310791015625 0.96014404296875 0.633544921875 0.98516845703125 0.62103271484375 0.357421875 0.32000732421875 0.3568115234375 0.25689697265625 0.278564453125 0.31988525390625 0.2767333984375 0.25689697265625 0.275390625 0.180908203125 0.36248779296875 0.19189453125 0.0093994140625 0.2236328125 0.0093994140625 0.21337890625 0.623291015625 0.16845703125 0.623291015625 0.216552734375 0.79107666015625 0.55963134765625 0.7606201171875 0.5689697265625 0.76043701171875 0.55908203125 0.623291015625 0.21136474609375 0.50372314453125 0.207763671875 0.623291015625 0.17889404296875 0.623291015625 0.1859130859375 0.623291015625 0.208740234375 0.50482177734375 0.2135009765625 0.623291015625 0.20928955078125 0.50482177734375 0.208740234375 0.50482177734375 0.20928955078125 0.5614013671875 0.20599365234375 0.39373779296875 0.49755859375 0.023193359375 0.2283935546875 0.0093994140625 0.26275634765625 0.5614013671875 0.16845703125 0.6239013671875 0.2135009765625 0.50421142578125 0.2156982421875 0.1265869140625 0.0841064453125 0.254150390625 0.481201171875 0.2838134765625 0.49267578125 0.50482177734375 0.16845703125 0.45416259765625 0.27215576171875 0.4495849609375 0.202880859375 0.50372314453125 0.21136474609375 0.50372314453125 0.21514892578125 0.623291015625 0.21710205078125 0.17193603515625 0.273681640625 0.1748046875 0.27972412109375 0.623291015625 0.21209716796875 0.50421142578125 0.2139892578125 0.45458984375 0.32806396484375 0.99066162109375 0.61163330078125 0.1690673828125 0.267578125 0.171630859375 0.2730712890625 0.7587890625 0.49603271484375 0.9927978515625 0.58892822265625 0.98583984375 0.58099365234375 0.6492919921875 0.9549560546875 0.5062255859375 0.81671142578125 0.50482177734375 0.21209716796875 0.623291015625 0.2078857421875 0.50482177734375 0.2078857421875 0.623291015625 0.20904541015625 0.50372314453125 0.21044921875 0.623291015625 0.21514892578125 0.50372314453125 0.20751953125 0.623291015625 0.21044921875 0.71807861328125 0.9718017578125</float_array>
                    <technique_common>
                        <accessor count="421" source="#uvarray0" stride="2">
                            <param name="S" type="float"/>
                            <param name="T" type="float"/>
                        </accessor>
                    </technique_common>
                </source>
                <vertices id="vertices0">
                    <input semantic="POSITION" source="#points0"/>
                </vertices>
                <polylist count="1338" material="Material1">
                    <input offset="0" semantic="VERTEX" source="#vertices0"/>
                    <input offset="1" semantic="TEXCOORD" source="#uvs0" set="0"/>
                    <vcount>3 3 3 3 3 3 3 3 3 3 3 3 3 3 3 3 3 3 3 3 3 3 3 3 3 3 3 3 3 3 3 3 3 3 3 3 3 3 3 3 3 3 3 3 3 3 3 3 3 3 3 3 3 3 3 3 3 3 3 3 3 3 3 3 3 3 3 3 3 3 3 3 3 3 3 3 3 3 3 3 3 3 3 3 3 3 3 3 3 3 3 3 3 3 3 3 3 3 3 3 3 3 3 3 3 3 3 3 3 3 3 3 3 3 3 3 3 3 3 3 3 3 3 3 3 3 3 3 3 3 3 3 3 3 3 3 3 3 3 3 3 3 3 3 3 3 3 3 3 3 3 3 3 3 3 3 3 3 3 3 3 3 3 3 3 3 3 3 3 3 3 3 3 3 3 3 3 3 3 3 3 3 3 3 3 3 3 3 3 3 3 3 3 3 3 3 3 3 3 3 3 3 3 3 3 3 3 3 3 3 3 3 3 3 3 3 3 3 3 3 3 3 3 3 3 3 3 3 3 3 3 3 3 3 3 3 3 3 3 3 3 3 3 3 3 3 3 3 3 3 3 3 3 3 3 3 3 3 3 3 3 3 3 3 3 3 3 3 3 3 3 3 3 3 3 3 3 3 3 3 3 3 3 3 3 3 3 3 3 3 3 3 3 3 3 3 3 3 3 3 3 3 3 3 3 3 3 3 3 3 3 3 3 3 3 3 3 3 3 3 3 3 3 3 3 3 3 3 3 3 3 3 3 3 3 3 3 3 3 3 3 3 3 3 3 3 3 3 3 3 3 3 3 3 3 3 3 3 3 3 3 3 3 3 3 3 3 3 3 3 3 3 3 3 3 3 3 3 3 3 3 3 3 3 3 3 3 3 3 3 3 3 3 3 3 3 3 3 3 3 3 3 3 3 3 3 3 3 3 3 3 3 3 3 3 3 3 3 3 3 3 3 3 3 3 3 3 3 3 3 3 3 3 3 3 3 3 3 3 3 3 3 3 3 3 3 3 3 3 3 3 3 3 3 3 3 3 3 3 3 3 3 3 3 3 3 3 3 3 3 3 3 3 3 3 3 3 3 3 3 3 3 3 3 3 3 3 3 3 3 3 3 3 3 3 3 3 3 3 3 3 3 3 3 3 3 3 3 3 3 3 3 3 3 3 3 3 3 3 3 3 3 3 3 3 3 3 3 3 3 3 3 3 3 3 3 3 3 3 3 3 3 3 3 3 3 3 3 3 3 3 3 3 3 3 3 3 3 3 3 3 3 3 3 3 3 3 3 3 3 3 3 3 3 3 3 3 3 3 3 3 3 3 3 3 3 3 3 3 3 3 3 3 3 3 3 3 3 3 3 3 3 3 3 3 3 3 3 3 3 3 3 3 3 3 3 3 3 3 3 3 3 3 3 3 3 3 3 3 3 3 3 3 3 3 3 3 3 3 3 3 3 3 3 3 3 3 3 3 3 3 3 3 3 3 3 3 3 3 3 3 3 3 3 3 3 3 3 3 3 3 3 3 3 3 3 3 3 3 3 3 3 3 3 3 3 3 3 3 3 3 3 3 3 3 3 3 3 3 3 3 3 3 3 3 3 3 3 3 3 3 3 3 3 3 3 3 3 3 3 3 3 3 3 3 3 3 3 3 3 3 3 3 3 3 3 3 3 3 3 3 3 3 3 3 3 3 3 3 3 3 3 3 3 3 3 3 3 3 3 3 3 3 3 3 3 3 3 3 3 3 3 3 3 3 3 3 3 3 3 3 3 3 3 3 3 3 3 3 3 3 3 3 3 3 3 3 3 3 3 3 3 3 3 3 3 3 3 3 3 3 3 3 3 3 3 3 3 3 3 3 3 3 3 3 3 3 3 3 3 3 3 3 3 3 3 3 3 3 3 3 3 3 3 3 3 3 3 3 3 3 3 3 3 3 3 3 3 3 3 3 3 3 3 3 3 3 3 3 3 3 3 3 3 3 3 3 3 3 3 3 3 3 3 3 3 3 3 3 3 3 3 3 3 3 3 3 3 3 3 3 3 3 3 3 3 3 3 3 3 3 3 3 3 3 3 3 3 3 3 3 3 3 3 3 3 3 3 3 3 3 3 3 3 3 3 3 3 3 3 3 3 3 3 3 3 3 3 3 3 3 3 3 3 3 3 3 3 3 3 3 3 3 3 3 3 3 3 3 3 3 3 3 3 3 3 3 3 3 3 3 3 3 3 3 3 3 3 3 3 3 3 3 3 3 3 3 3 3 3 3 3 3 3 3 3 3 3 3 3 3 3 3 3 3 3 3 3 3 3 3 3 3 3 3 3 3 3 3 3 3 3 3 3 3 3 3 3 3 3 3 3 3 3 3 3 3 3 3 3 3 3 3 3 3 3 3 3 3 3 3 3 3 3 3 3 3 3 3 3 3 3 3 3 3 3 3 3 3 3 3 3 3 3 3 3 3 3 3 3 3 3 3 3 3 3 3 3 3 3 3 3 3 3 3 3 3 3 3 3 3 3 3 3 3 3 3 3 3 3 3 3 3 3 3 3 3 3 3 3 3 3 3 3 3 3 3 3 3 3 3 3 3 3 3 3 3 3 3 3 3 3 3 3 3 3 3 3 3 3 3 3 3 3 3 3 3 3 3 3 3 3 3 3 3 3 3 3 3 3 3 3 3 3 3 3 3 3 3 3 3 3 3 3 3 3 3 3 3 3 3 3 3 3 3 3 3 3 3 3 3 3 3 3 3 3 3 3 3 3 3 3 3 3 3 3 3 3 3 3 3 3 3 3 3 3 3 3 3 3 3 3 3 3 3 3 3 3 3 3 3 3 3 3 3 3 3 3 3 3 3 3 3 3 3 3 3 3 3 3 3 3 3 3 3 3 3 3 3 3 3 3 3 3 3 3 3 3 3 3 3 3 3 3 3 3 3 3 3 3 3 3 3 3 3 3 3 3 3 3 3 3 3 3 3 3 3 3 3 3 3 3 3 3 3 3 3 3 3 3 3 3 3 3 3 3 3 3</vcount>
                    <p>2 2 1 1 0 0 3 3 1 1 2 2 4 4 3 3 2 2 5 5 3 3 4 4 6 6 5 5 4 4 7 7 5 5 6 6 8 8 7 7 6 6 9 9 7 7 8 8 10 10 9 9 8 8 11 11 9 9 10 10 12 12 11 11 10 10 13 13 11 11 12 12 14 14 13 13 12 12 15 15 13 13 14 14 16 16 15 15 14 14 17 17 15 15 16 16 18 18 17 17 16 16 19 19 17 17 18 18 20 20 19 19 18 18 21 21 19 19 20 20 22 19 21 21 20 20 23 22 21 21 22 19 24 23 23 22 22 19 25 24 23 22 24 23 26 25 25 24 24 23 27 26 25 24 26 25 28 27 27 26 26 25 29 28 27 26 28 27 30 29 29 28 28 27 31 30 29 28 30 29 32 31 31 30 30 29 33 32 31 30 32 31 34 33 33 32 32 31 35 34 33 32 34 33 36 35 35 34 34 33 37 36 35 34 36 35 38 37 37 36 36 35 39 38 37 36 38 37 40 39 39 38 38 37 41 40 39 38 40 39 42 41 41 40 40 39 43 42 41 40 42 41 44 43 43 42 42 41 45 44 43 42 44 43 46 45 45 44 44 43 47 46 45 44 46 45 48 47 47 46 46 45 49 48 47 46 48 47 50 49 49 48 48 47 51 50 49 48 50 49 52 51 51 50 50 49 53 52 51 50 52 51 54 53 53 52 52 51 55 54 53 52 54 53 56 55 55 54 54 53 57 56 55 54 56 55 58 57 57 56 56 55 59 58 57 56 58 57 60 59 59 58 58 57 21 21 59 58 60 59 61 58 21 21 60 59 62 22 21 21 61 58 63 24 62 22 61 58 64 23 62 22 63 24 65 25 64 23 63 24 17 17 64 23 65 25 66 60 17 17 65 25 15 15 17 17 66 60 13 13 15 15 66 60 69 63 68 62 67 61 70 64 68 62 69 63 71 65 70 64 69 63 72 66 70 64 71 65 73 67 72 66 71 65 74 68 72 66 73 67 75 69 74 68 73 67 76 70 74 68 75 69 77 71 76 70 75 69 78 72 76 70 77 71 79 73 78 72 77 71 80 74 78 72 79 73 81 75 80 74 79 73 82 76 80 74 81 75 83 77 82 76 81 75 84 78 82 76 83 77 85 79 84 78 83 77 86 80 84 78 85 79 87 78 86 80 85 79 88 81 86 80 87 78 89 76 88 81 87 78 90 82 88 81 89 76 91 72 90 82 89 76 92 70 90 82 91 72 93 71 92 70 91 72 94 69 92 70 93 71 95 83 94 69 93 71 96 84 94 69 95 83 97 85 96 84 95 83 98 86 96 84 97 85 14 14 100 15 99 16 101 13 100 15 14 14 12 12 101 13 14 14 102 11 101 13 12 12 10 10 102 11 12 12 103 9 102 11 10 10 8 8 103 9 10 10 104 7 103 9 8 8 6 6 104 7 8 8 105 5 104 7 6 6 4 4 105 5 6 6 106 3 105 5 4 4 2 2 106 3 4 4 107 1 106 3 2 2 0 0 107 1 2 2 108 87 107 1 0 0 1 1 108 87 0 0 109 88 108 87 1 1 110 89 109 88 1 1 111 41 109 88 110 89 112 39 111 41 110 89 113 40 111 41 112 39 114 38 113 40 112 39 115 44 113 40 114 38 116 46 115 44 114 38 46 45 115 44 116 46 48 47 46 45 116 46 119 92 118 91 117 90 120 93 118 91 119 92 121 94 120 93 119 92 122 95 120 93 121 94 123 96 122 95 121 94 124 97 122 95 123 96 125 98 124 97 123 96 126 99 124 97 125 98 127 100 126 99 125 98 128 101 126 99 127 100 129 102 128 101 127 100 130 103 128 101 129 102 131 104 130 103 129 102 132 105 130 103 131 104 133 106 132 105 131 104 134 107 132 105 133 106 135 108 134 107 133 106 136 109 134 107 135 108 137 110 136 109 135 108 138 111 136 109 137 110 139 112 138 111 137 110 140 113 138 111 139 112 117 90 140 113 139 112 118 91 140 113 117 90 120 93 141 114 118 91 142 115 141 114 120 93 122 95 142 115 120 93 143 116 142 115 122 95 124 97 143 116 122 95 144 117 143 116 124 97 126 99 144 117 124 97 145 118 144 117 126 99 128 101 145 118 126 99 146 119 145 118 128 101 130 103 146 119 128 101 147 120 146 119 130 103 132 105 147 120 130 103 148 121 147 120 132 105 134 107 148 121 132 105 149 122 148 121 134 107 136 109 149 122 134 107 150 123 149 122 136 109 138 111 150 123 136 109 151 124 150 123 138 111 140 113 151 124 138 111 152 125 151 124 140 113 118 91 152 125 140 113 141 114 152 125 118 91 145 118 153 126 144 117 154 127 153 126 145 118 146 119 154 127 145 118 155 128 154 127 146 119 147 120 155 128 146 119 156 129 155 128 147 120 148 121 156 129 147 120 157 130 156 129 148 121 149 122 157 130 148 121 158 131 157 130 149 122 150 123 158 131 149 122 159 132 158 131 150 123 151 124 159 132 150 123 160 133 159 132 151 124 152 125 160 133 151 124 161 134 160 133 152 125 141 114 161 134 152 125 162 135 161 134 141 114 142 115 162 135 141 114 163 136 162 135 142 115 143 116 163 136 142 115 164 137 163 136 143 116 144 117 164 137 143 116 153 126 164 137 144 117 166 99 123 96 165 97 125 98 123 96 166 99 167 101 125 98 166 99 127 100 125 98 167 101 168 103 127 100 167 101 129 102 127 100 168 103 169 105 129 102 168 103 131 104 129 102 169 105 170 107 131 104 169 105 133 106 131 104 170 107 171 109 133 106 170 107 135 108 133 106 171 109 172 111 135 108 171 109 137 110 135 108 172 111 173 113 137 110 172 111 139 112 137 110 173 113 174 91 139 112 173 113 117 90 139 112 174 91 175 93 117 90 174 91 119 92 117 90 175 93 176 95 119 92 175 93 121 94 119 92 176 95 165 97 121 94 176 95 123 96 121 94 165 97 179 117 178 97 177 118 180 95 178 97 179 117 181 116 180 95 179 117 182 93 180 95 181 116 183 115 182 93 181 116 184 91 182 93 183 115 185 114 184 91 183 115 186 113 184 91 185 114 187 125 186 113 185 114 188 111 186 113 187 125 189 124 188 111 187 125 190 109 188 111 189 124 191 123 190 109 189 124 192 107 190 109 191 123 193 122 192 107 191 123 194 105 192 107 193 122 195 121 194 105 193 122 196 103 194 105 195 121 197 120 196 103 195 121 198 101 196 103 197 120 199 119 198 101 197 120 200 99 198 101 199 119 177 118 200 99 199 119 178 97 200 99 177 118 202 118 165 97 201 117 166 99 165 97 202 118 203 119 166 99 202 118 167 101 166 99 203 119 204 120 167 101 203 119 168 103 167 101 204 120 205 121 168 103 204 120 169 105 168 103 205 121 206 122 169 105 205 121 170 107 169 105 206 122 207 123 170 107 206 122 171 109 170 107 207 123 208 124 171 109 207 123 172 111 171 109 208 124 209 125 172 111 208 124 173 113 172 111 209 125 210 114 173 113 209 125 174 91 173 113 210 114 211 115 174 91 210 114 175 93 174 91 211 115 212 116 175 93 211 115 176 95 175 93 212 116 201 117 176 95 212 116 165 97 176 95 201 117 178 97 213 96 200 99 214 94 213 96 178 97 180 95 214 94 178 97 215 92 214 94 180 95 182 93 215 92 180 95 216 90 215 92 182 93 184 91 216 90 182 93 217 112 216 90 184 91 186 113 217 112 184 91 218 110 217 112 186 113 188 111 218 110 186 113 219 108 218 110 188 111 190 109 219 108 188 111 220 106 219 108 190 109 192 107 220 106 190 109 221 104 220 106 192 107 194 105 221 104 192 107 222 102 221 104 194 105 196 103 222 102 194 105 223 100 222 102 196 103 198 101 223 100 196 103 224 98 223 100 198 101 200 99 224 98 198 101 213 96 224 98 200 99 213 96 225 97 224 98 226 95 225 97 213 96 214 94 226 95 213 96 227 93 226 95 214 94 215 92 227 93 214 94 228 91 227 93 215 92 216 90 228 91 215 92 229 113 228 91 216 90 217 112 229 113 216 90 230 111 229 113 217 112 218 110 230 111 217 112 231 109 230 111 218 110 219 108 231 109 218 110 232 107 231 109 219 108 220 106 232 107 219 108 233 105 232 107 220 106 221 104 233 105 220 106 234 103 233 105 221 104 222 102 234 103 221 104 235 101 234 103 222 102 223 100 235 101 222 102 236 99 235 101 223 100 224 98 236 99 223 100 225 97 236 99 224 98 225 97 237 117 236 99 238 116 237 117 225 97 226 95 238 116 225 97 239 115 238 116 226 95 227 93 239 115 226 95 240 114 239 115 227 93 228 91 240 114 227 93 241 125 240 114 228 91 229 113 241 125 228 91 242 124 241 125 229 113 230 111 242 124 229 113 243 123 242 124 230 111 231 109 243 123 230 111 244 122 243 123 231 109 232 107 244 122 231 109 245 121 244 122 232 107 233 105 245 121 232 107 246 120 245 121 233 105 234 103 246 120 233 105 247 119 246 120 234 103 235 101 247 119 234 103 248 118 247 119 235 101 236 99 248 118 235 101 237 117 248 118 236 99 246 120 249 129 245 121 250 128 249 129 246 120 247 119 250 128 246 120 251 127 250 128 247 119 248 118 251 127 247 119 252 126 251 127 248 118 237 117 252 126 248 118 253 137 252 126 237 117 238 116 253 137 237 117 254 136 253 137 238 116 239 115 254 136 238 116 255 135 254 136 239 115 240 114 255 135 239 115 256 134 255 135 240 114 241 125 256 134 240 114 257 133 256 134 241 125 242 124 257 133 241 125 258 132 257 133 242 124 243 123 258 132 242 124 259 131 258 132 243 123 244 122 259 131 243 123 260 130 259 131 244 122 245 121 260 130 244 122 249 129 260 130 245 121 99 16 18 18 14 14 261 17 18 18 99 16 100 15 261 17 99 16 262 60 261 17 100 15 101 13 262 60 100 15 263 138 262 60 101 13 102 11 263 138 101 13 264 139 263 138 102 11 103 9 264 139 102 11 265 140 264 139 103 9 104 7 265 140 103 9 266 141 265 140 104 7 105 5 266 141 104 7 267 142 266 141 105 5 106 3 267 142 105 5 268 143 267 142 106 3 107 1 268 143 106 3 269 89 268 143 107 1 270 88 269 89 107 1 42 41 269 89 270 88 271 144 42 41 270 88 44 43 42 41 271 144 274 147 273 146 272 145 275 148 273 146 274 147 276 149 275 148 274 147 277 150 275 148 276 149 278 151 277 150 276 149 279 152 277 150 278 151 280 153 279 152 278 151 281 154 279 152 280 153 282 155 281 154 280 153 283 156 281 154 282 155 284 157 283 156 282 155 285 158 283 156 284 157 286 159 285 158 284 157 287 160 285 158 286 159 288 161 287 160 286 159 289 162 287 160 288 161 290 163 289 162 288 161 291 164 289 162 290 163 95 83 292 165 97 85 293 166 292 165 95 83 294 73 293 166 95 83 295 167 293 166 294 73 296 168 295 167 294 73 297 169 295 167 296 168 298 75 297 169 296 168 299 170 297 169 298 75 300 77 299 170 298 75 301 171 299 170 300 77 85 79 301 171 300 77 302 172 301 171 85 79 303 171 302 172 85 79 304 173 302 172 303 171 305 169 304 173 303 171 306 174 304 173 305 169 307 175 306 174 305 169 45 44 41 40 43 42 39 38 41 40 45 44 47 46 39 38 45 44 37 36 39 38 47 46 49 48 37 36 47 46 35 34 37 36 49 48 51 50 35 34 49 48 33 32 35 34 51 50 53 52 33 32 51 50 31 30 33 32 53 52 55 54 31 30 53 52 29 28 31 30 55 54 57 56 29 28 55 54 27 26 29 28 57 56 59 58 27 26 57 56 25 24 27 26 59 58 23 22 25 24 59 58 261 17 24 23 22 19 26 25 24 23 261 17 262 60 26 25 261 17 28 27 26 25 262 60 263 138 28 27 262 60 30 29 28 27 263 138 264 139 30 29 263 138 32 31 30 29 264 139 265 140 32 31 264 139 34 33 32 31 265 140 266 141 34 33 265 140 36 35 34 33 266 141 267 142 36 35 266 141 38 37 36 35 267 142 268 143 38 37 267 142 269 89 38 37 268 143 310 178 309 177 308 176 311 179 309 177 310 178 312 180 311 179 310 178 313 181 311 179 312 180 314 182 313 181 312 180 315 183 313 181 314 182 316 184 315 183 314 182 317 185 315 183 316 184 318 186 317 185 316 184 319 187 317 185 318 186 320 185 319 187 318 186 321 188 319 187 320 185 322 181 321 188 320 185 323 179 321 188 322 181 324 180 323 179 322 181 325 178 323 179 324 180 328 191 327 190 326 189 329 192 327 190 328 191 330 193 329 192 328 191 331 194 329 192 330 193 332 195 331 194 330 193 333 196 331 194 332 195 334 197 333 196 332 195 335 198 333 196 334 197 336 199 335 198 334 197 337 200 335 198 336 199 338 198 337 200 336 199 339 201 337 200 338 198 340 196 339 201 338 198 341 202 339 201 340 196 342 203 341 202 340 196 343 204 341 202 342 203 346 62 345 63 344 61 347 64 345 63 346 62 348 205 347 64 346 62 349 206 347 64 348 205 350 207 349 206 348 205 351 208 349 206 350 207 352 209 351 208 350 207 353 210 351 208 352 209 354 211 353 210 352 209 92 70 353 210 354 211 355 212 92 70 354 211 90 82 92 70 355 212 88 81 90 82 355 212 356 161 287 160 289 162 357 159 287 160 356 161 358 213 357 159 356 161 359 214 357 159 358 213 360 215 359 214 358 213 361 216 359 214 360 215 362 217 361 216 360 215 363 218 361 216 362 217 364 219 363 218 362 217 365 149 363 218 364 219 366 147 365 149 364 219 367 148 365 149 366 147 368 146 367 148 366 147 82 76 78 72 80 74 369 82 78 72 82 76 370 81 369 82 82 76 371 212 369 82 370 81 372 220 371 212 370 81 373 221 371 212 372 220 374 222 373 221 372 220 375 223 373 221 374 222 376 224 375 223 374 222 377 225 375 223 376 224 378 226 377 225 376 224 379 227 377 225 378 226 380 228 379 227 378 226 381 231 69 230 67 229 382 232 69 230 381 231 383 233 382 232 381 231 384 234 382 232 383 233 385 235 384 234 383 233 386 236 384 234 385 235 387 237 386 236 385 235 388 238 386 236 387 237 389 239 388 238 387 237 390 240 388 238 389 239 391 241 390 240 389 239 392 242 390 240 391 241 395 29 394 138 393 27 396 139 394 138 395 29 397 31 396 139 395 29 398 140 396 139 397 31 399 33 398 140 397 31 400 141 398 140 399 33 401 35 400 141 399 33 402 142 400 141 401 35 403 37 402 142 401 35 404 143 402 142 403 37 112 39 404 143 403 37 110 89 404 143 112 39 58 57 61 58 60 59 405 56 61 58 58 57 56 55 405 56 58 57 406 54 405 56 56 55 54 53 406 54 56 55 407 52 406 54 54 53 52 51 407 52 54 53 408 50 407 52 52 51 50 49 408 50 52 51 409 48 408 50 50 49 48 47 409 48 50 49 116 46 409 48 48 47 411 28 393 27 410 26 395 29 393 27 411 28 412 30 395 29 411 28 397 31 395 29 412 30 413 32 397 31 412 30 399 33 397 31 413 32 414 34 399 33 413 32 401 35 399 33 414 34 415 36 401 35 414 34 403 37 401 35 415 36 114 38 403 37 415 36 112 39 403 37 114 38 405 56 410 26 61 58 411 28 410 26 405 56 406 54 411 28 405 56 412 30 411 28 406 54 407 52 412 30 406 54 413 32 412 30 407 52 408 50 413 32 407 52 414 34 413 32 408 50 409 48 414 34 408 50 415 36 414 34 409 48 116 46 415 36 409 48 114 38 415 36 116 46 417 245 416 244 324 243 418 246 416 244 417 245 419 247 418 246 417 245 420 225 418 246 419 247 421 227 420 225 419 247 422 226 420 225 421 227 380 228 422 226 421 227 423 248 422 226 380 228 378 226 423 248 380 228 424 249 423 248 378 226 376 224 424 249 378 226 374 222 424 249 376 224 345 230 425 231 344 229 426 232 425 231 345 230 427 250 426 232 345 230 428 251 426 232 427 250 429 252 428 251 427 250 430 253 428 251 429 252 431 254 430 253 429 252 432 255 430 253 431 254 433 256 432 255 431 254 434 257 432 255 433 256 435 258 434 257 433 256 416 244 350 207 324 243 352 209 350 207 416 244 418 246 352 209 416 244 436 223 352 209 418 246 420 225 436 223 418 246 437 224 436 223 420 225 422 226 437 224 420 225 438 249 437 224 422 226 423 248 438 249 422 226 439 259 438 249 423 248 424 249 439 259 423 248 396 139 11 11 394 138 9 9 11 11 396 139 398 140 9 9 396 139 7 7 9 9 398 140 400 141 7 7 398 140 5 5 7 7 400 141 402 142 5 5 400 141 3 3 5 5 402 142 404 143 3 3 402 142 1 1 3 3 404 143 110 89 1 1 404 143 83 77 303 171 85 79 440 170 303 171 83 77 81 75 440 170 83 77 305 169 440 170 81 75 441 168 305 169 81 75 442 167 305 169 441 168 79 73 442 167 441 168 443 166 442 167 79 73 444 83 443 166 79 73 445 165 443 166 444 83 446 85 445 165 444 83 447 150 365 149 367 148 448 151 365 149 447 150 449 152 448 151 447 150 450 153 448 151 449 152 451 154 450 153 449 152 452 155 450 153 451 154 283 156 452 155 451 154 453 157 452 155 283 156 285 158 453 157 283 156 357 159 453 157 285 158 287 160 357 159 285 158 425 231 454 261 344 260 455 190 454 261 425 231 456 233 455 190 425 231 457 192 455 190 456 233 458 262 457 192 456 233 342 203 457 192 458 262 459 263 342 203 458 262 343 204 342 203 459 263 460 237 343 204 459 263 461 264 343 204 460 237 462 239 461 264 460 237 465 267 464 266 463 265 466 268 464 266 465 267 467 269 466 268 465 267 468 270 466 268 467 269 469 268 468 270 467 269 470 271 468 270 469 268 471 272 470 271 469 268 472 273 470 271 471 272 473 274 472 273 471 272 474 275 472 273 473 274 366 147 475 145 368 146 476 276 475 145 366 147 477 277 476 276 366 147 478 278 476 276 477 277 479 279 478 278 477 277 480 280 478 278 479 279 481 281 480 280 479 279 482 282 480 280 481 281 483 283 482 282 481 281 392 284 482 282 483 283 479 279 484 285 481 281 485 286 484 285 479 279 486 287 485 286 479 279 487 288 485 286 486 287 488 289 487 288 486 287 489 290 487 288 488 289 364 219 489 290 488 289 490 291 489 290 364 219 362 217 490 291 364 219 491 292 490 291 362 217 70 64 308 205 68 62 492 206 308 205 70 64 72 66 492 206 70 64 493 293 492 206 72 66 74 68 493 293 72 66 494 210 493 293 74 68 76 70 494 210 74 68 495 211 494 210 76 70 371 212 495 211 76 70 373 221 495 211 371 212 317 185 313 181 315 183 496 188 313 181 317 185 319 187 496 188 317 185 497 294 496 188 319 187 321 188 497 294 319 187 498 295 497 294 321 188 323 179 498 295 321 188 499 177 498 295 323 179 325 178 499 177 323 179 348 176 499 177 325 178 500 197 338 198 336 199 340 196 338 198 500 197 474 195 340 196 500 197 501 194 340 196 474 195 473 193 501 194 474 195 457 192 501 194 473 193 502 191 457 192 473 193 455 190 457 192 502 191 503 189 455 190 502 191 454 261 455 190 503 189 504 297 463 265 309 296 465 267 463 265 504 297 505 298 465 267 504 297 467 269 465 267 505 298 506 267 467 269 505 298 469 268 467 269 506 267 507 266 469 268 506 267 508 299 469 268 507 266 454 300 508 299 507 266 503 301 508 299 454 300 387 237 509 264 389 239 510 204 509 264 387 237 511 263 510 204 387 237 512 203 510 204 511 263 513 262 512 203 511 263 329 192 512 203 513 262 383 233 329 192 513 262 327 190 329 192 383 233 381 231 327 190 383 233 326 189 327 190 381 231 516 304 515 303 514 302 272 145 515 303 516 304 517 276 272 145 516 304 274 147 272 145 517 276 518 277 274 147 517 276 519 289 274 147 518 277 520 287 519 289 518 277 521 288 519 289 520 287 522 286 521 288 520 287 436 223 354 211 352 209 523 221 354 211 436 223 524 222 523 221 436 223 525 220 523 221 524 222 526 305 525 220 524 222 88 81 525 220 526 305 527 306 88 81 526 305 86 80 88 81 527 306 370 81 86 80 527 306 382 232 71 250 69 230 528 251 71 250 382 232 386 236 528 251 382 232 529 253 528 251 386 236 388 238 529 253 386 236 530 255 529 253 388 238 390 240 530 255 388 238 531 257 530 255 390 240 392 242 531 257 390 240 532 247 377 225 379 227 533 246 377 225 532 247 314 245 533 246 532 247 534 244 533 246 314 245 312 243 534 244 314 245 535 207 534 244 312 243 310 307 535 207 312 243 308 205 535 207 310 307 278 151 536 308 280 153 537 309 536 308 278 151 538 218 537 309 278 151 539 216 537 309 538 218 540 217 539 216 538 218 541 215 539 216 540 217 542 310 541 215 540 217 543 272 330 274 328 311 544 273 330 274 543 272 545 271 544 273 543 272 546 312 544 273 545 271 547 313 546 312 545 271 334 314 546 312 547 313 548 315 334 314 547 313 464 266 549 300 67 316 550 299 549 300 464 266 466 268 550 299 464 266 551 317 550 299 466 268 543 272 551 317 466 268 326 301 551 317 543 272 328 311 326 301 543 272 410 26 63 24 61 58 65 25 63 24 410 26 393 27 65 25 410 26 66 60 65 25 393 27 394 138 66 60 393 27 13 13 66 60 394 138 11 11 13 13 394 138 426 232 456 233 425 231 552 234 456 233 426 232 553 236 552 234 426 232 554 235 552 234 553 236 460 237 554 235 553 236 459 263 554 235 460 237 555 318 516 304 514 302 556 319 516 304 555 318 557 320 556 319 555 318 558 282 556 319 557 320 559 284 558 282 557 320 560 283 558 282 559 284 347 64 427 65 345 63 561 66 427 65 347 64 349 206 561 66 347 64 562 293 561 66 349 206 351 208 562 293 349 206 353 210 562 293 351 208 286 159 563 213 288 161 564 214 563 213 286 159 284 157 564 214 286 159 536 308 564 214 284 157 282 155 536 308 284 157 280 153 536 308 282 155 565 322 439 321 424 249 566 323 439 321 565 322 567 324 566 323 565 322 568 322 566 323 567 324 526 305 568 322 567 324 524 222 568 322 526 305 448 151 363 218 365 149 569 309 363 218 448 151 570 308 569 309 448 151 359 214 569 309 570 308 453 157 359 214 570 308 357 159 359 214 453 157 540 217 571 292 542 310 572 291 571 292 540 217 573 219 572 291 540 217 574 290 572 291 573 219 519 289 574 290 573 219 521 288 574 290 519 289 577 327 576 326 575 325 578 328 576 326 577 327 579 329 578 328 577 327 580 330 578 328 579 329 581 331 580 330 579 329 582 332 580 330 581 331 585 335 584 334 583 333 586 332 584 334 585 335 587 334 586 332 585 335 588 326 586 332 587 334 589 336 588 326 587 334 590 337 588 326 589 336 532 338 316 184 314 182 591 339 316 184 532 338 379 340 591 339 532 338 592 341 591 339 379 340 380 342 592 341 379 340 421 340 592 341 380 342 595 345 594 344 593 343 596 346 594 344 595 345 597 347 596 346 595 345 598 348 596 346 597 347 433 256 598 348 597 347 431 254 598 348 433 256 599 281 558 282 560 283 600 280 558 282 599 281 601 279 600 280 599 281 602 278 600 280 601 279 518 277 602 278 601 279 517 276 602 278 518 277 471 272 502 311 473 274 503 301 502 311 471 272 603 317 503 301 471 272 508 299 503 301 603 317 469 268 508 299 603 317 606 351 605 350 604 349 607 352 605 350 606 351 608 353 607 352 606 351 609 352 607 352 608 353 610 354 609 352 608 353 612 356 339 201 611 355 337 200 339 201 612 356 613 201 337 200 612 356 335 198 337 200 613 201 333 196 335 198 613 201 496 188 311 179 313 181 504 295 311 179 496 188 497 294 504 295 496 188 505 357 504 295 497 294 498 295 505 357 497 294 614 240 434 257 559 242 432 255 434 257 614 240 615 238 432 255 614 240 430 253 432 255 615 238 553 236 430 253 615 238 567 324 527 306 526 305 616 305 527 306 567 324 565 322 616 305 567 324 374 222 616 305 565 322 424 249 374 222 565 322 617 256 530 255 531 257 618 254 530 255 617 256 619 348 618 254 617 256 620 358 618 254 619 348 445 359 620 358 619 348 618 254 529 253 530 255 621 252 529 253 618 254 620 358 621 252 618 254 446 360 621 252 620 358 445 359 446 360 620 358 615 238 460 237 553 236 462 239 460 237 615 238 614 240 462 239 615 238 622 241 462 239 614 240 559 242 622 241 614 240 625 363 624 362 623 361 626 364 624 362 625 363 627 362 626 364 625 363 612 365 626 364 627 362 628 366 612 365 627 362 629 184 320 185 318 186 630 183 320 185 629 184 417 182 630 183 629 184 322 181 630 183 417 182 324 180 322 181 417 182 631 367 547 313 545 271 632 368 547 313 631 367 633 313 632 368 631 367 548 315 632 368 633 313 589 326 634 337 590 369 635 334 634 337 589 326 587 332 635 334 589 326 636 370 635 334 587 332 637 371 391 241 389 239 638 372 391 241 637 371 625 373 638 372 637 371 623 371 638 372 625 373 635 332 639 337 634 369 640 334 639 337 635 332 641 374 640 334 635 332 642 375 640 334 641 374 645 377 644 350 643 376 646 354 644 350 645 377 647 378 646 354 645 377 648 379 646 354 647 378 610 377 643 350 649 376 645 354 643 350 610 377 650 380 645 354 610 377 647 381 645 354 650 380 598 348 292 359 596 346 651 358 292 359 598 348 431 254 651 358 598 348 429 252 651 358 431 254 573 219 274 147 519 289 276 149 274 147 573 219 538 218 276 149 573 219 278 151 276 149 538 218 654 354 653 352 652 350 655 353 653 352 654 354 656 382 655 353 654 354 657 383 655 353 656 382 488 289 366 147 364 219 477 277 366 147 488 289 486 287 477 277 488 289 479 279 477 277 486 287 294 73 298 75 296 168 658 74 298 75 294 73 91 72 658 74 294 73 89 76 658 74 91 72 89 76 298 75 658 74 300 77 298 75 89 76 87 78 300 77 89 76 85 79 300 77 87 78 442 167 307 175 305 169 659 384 307 175 442 167 443 166 659 384 442 167 445 165 659 384 443 166 660 339 318 186 592 385 629 184 318 186 660 339 419 338 629 184 660 339 417 182 629 184 419 338 297 169 593 174 594 175 661 173 593 174 297 169 301 171 661 173 297 169 302 172 661 173 301 171 662 86 73 67 71 65 663 84 73 67 662 86 446 85 663 84 662 86 444 83 663 84 446 85 94 69 664 68 92 70 665 67 664 68 94 69 96 84 665 67 94 69 98 86 665 67 96 84 533 246 375 223 377 225 666 209 375 223 533 246 534 244 666 209 533 246 535 207 666 209 534 244 631 367 470 271 633 313 667 386 470 271 631 367 545 271 667 386 631 367 468 270 667 386 545 271 640 332 668 387 639 369 669 330 668 387 640 332 642 331 669 330 640 332 670 329 669 330 642 331 44 43 115 44 46 45 671 42 115 44 44 43 111 41 671 42 44 43 113 40 671 42 111 41 672 312 470 271 472 273 633 313 470 271 672 312 500 314 633 313 672 312 548 315 633 313 500 314 673 258 617 256 531 257 674 347 617 256 673 258 675 345 674 347 673 258 659 346 674 347 675 345 482 282 478 278 480 280 676 319 478 278 482 282 677 320 676 319 482 282 678 318 676 319 677 320 492 206 535 207 308 205 679 208 535 207 492 206 493 293 679 208 492 206 494 210 679 208 493 293 646 377 680 350 644 376 681 354 680 350 646 377 648 388 681 354 646 377 682 389 681 354 648 388 683 390 256 134 257 133 255 135 256 134 683 390 254 136 255 135 683 390 608 353 650 382 610 354 684 383 650 382 608 353 606 351 684 383 608 353 683 390 253 137 254 136 252 126 253 137 683 390 251 127 252 126 683 390 570 308 452 155 453 157 450 153 452 155 570 308 448 151 450 153 570 308 685 391 304 173 306 174 302 172 304 173 685 391 661 173 302 172 685 391 686 390 154 127 155 128 153 126 154 127 686 390 164 137 153 126 686 390 619 348 659 346 445 359 674 347 659 346 619 348 617 256 674 347 619 348 685 391 593 174 661 173 687 392 593 174 685 391 306 174 687 392 685 391 609 352 605 393 607 387 649 350 605 393 609 352 610 354 649 350 609 352 683 390 250 128 251 127 249 129 250 128 683 390 260 130 249 129 683 390 624 362 343 395 461 394 611 366 343 395 624 362 612 365 611 366 624 362 332 275 546 312 334 314 544 273 546 312 332 275 330 274 544 273 332 275 680 350 689 369 688 393 690 376 689 369 680 350 691 377 690 376 680 350 693 334 584 332 692 326 583 370 584 332 693 334 694 396 583 370 693 334 695 304 676 319 678 318 478 278 676 319 695 304 476 276 478 278 695 304 616 305 370 81 527 306 372 220 370 81 616 305 374 222 372 220 616 305 698 326 697 397 696 336 699 398 697 397 698 326 700 397 699 398 698 326 554 235 456 233 552 234 458 262 456 233 554 235 459 263 458 262 554 235 588 326 584 334 586 332 692 336 584 334 588 326 696 337 692 336 588 326 355 212 525 220 88 81 523 221 525 220 355 212 354 211 523 221 355 212 703 350 702 369 701 393 652 376 702 369 703 350 654 377 652 376 703 350 704 354 654 377 703 350 656 380 654 377 704 354 705 381 656 380 704 354 690 350 701 369 689 393 703 376 701 369 690 350 704 377 703 376 690 350 19 19 64 23 17 17 62 22 64 23 19 19 21 21 62 22 19 19 691 354 704 377 690 350 705 378 704 377 691 354 706 379 705 378 691 354 707 202 613 201 510 204 333 196 613 201 707 202 512 203 333 196 707 202 708 265 348 400 346 399 499 296 348 400 708 265 498 297 499 296 708 265 665 67 561 66 664 68 427 65 561 66 665 67 98 86 427 65 665 67 664 68 353 210 92 70 562 293 353 210 664 68 561 66 562 293 664 68 710 402 689 376 709 401 688 350 689 376 710 402 711 376 688 350 710 402 681 354 691 377 680 350 706 388 691 377 681 354 682 389 706 388 681 354 385 235 511 263 387 237 513 262 511 263 385 235 383 233 513 262 385 235 627 362 510 395 628 366 509 394 510 395 627 362 389 403 509 394 627 362 601 279 520 287 518 277 522 286 520 287 601 279 474 275 672 312 472 273 500 314 672 312 474 275 712 285 601 279 599 281 522 286 601 279 712 285 18 18 22 19 20 20 261 17 22 19 18 18 516 304 602 278 517 276 556 319 602 278 516 304 269 89 40 39 38 37 42 41 40 39 269 89 109 88 271 144 108 87 111 41 271 144 109 88 108 87 270 88 107 1 271 144 270 88 108 87 528 251 621 252 71 250 529 253 621 252 528 251 662 404 621 252 446 360 71 250 621 252 662 404 438 249 568 322 524 222 439 321 568 322 438 249 574 290 571 292 572 291 521 288 571 292 574 290 437 224 524 222 436 223 438 249 524 222 437 224 695 304 475 145 476 276 713 303 475 145 695 304 714 302 695 304 678 318 713 303 695 304 714 302 637 361 627 362 625 363 389 403 627 362 637 361 537 309 564 214 536 308 539 216 564 214 537 309 541 215 564 214 539 216 563 213 564 214 541 215 558 282 602 278 556 319 600 280 602 278 558 282 462 403 624 362 461 394 623 361 624 362 462 403 421 340 660 339 592 341 419 338 660 339 421 340 162 135 686 390 161 134 163 136 686 390 162 135 325 307 350 207 348 205 324 243 350 207 325 307 711 369 680 350 688 393 644 376 680 350 711 369 679 208 666 209 535 207 494 210 666 209 679 208 375 223 495 211 373 221 666 209 495 211 375 223 75 69 663 84 444 83 73 67 663 84 75 69 295 167 594 175 596 384 297 169 594 175 295 167 293 166 596 384 292 165 295 167 596 384 293 166 294 73 93 71 91 72 95 83 93 71 294 73 77 71 444 83 79 73 75 69 444 83 77 71 84 78 370 81 82 76 86 80 370 81 84 78 369 82 76 70 78 72 371 212 76 70 369 82 68 406 464 266 67 405 463 265 464 266 68 406 591 339 318 186 316 184 592 385 318 186 591 339 548 407 336 199 334 197 500 197 336 199 548 407 331 194 512 203 329 192 333 196 512 203 331 194 628 355 613 201 612 356 510 204 613 201 628 355 343 204 339 201 341 202 611 355 339 201 343 204 308 400 463 265 68 399 309 296 463 265 308 400 623 371 622 241 638 372 462 239 622 241 623 371 429 252 98 404 97 360 427 250 98 404 429 252 651 358 97 360 292 359 429 252 97 360 651 358 597 347 435 258 433 256 595 345 435 258 597 347 307 344 675 345 306 343 659 346 675 345 307 344 549 409 381 231 67 408 326 189 381 231 549 409 715 410 288 161 563 213 290 163 288 161 715 410 156 129 686 390 155 128 157 130 686 390 156 129 158 131 686 390 157 130 159 132 686 390 158 131 578 387 582 332 576 369 580 330 582 332 578 387 356 161 716 410 358 213 717 163 716 410 356 161 160 133 686 390 159 132 161 134 686 390 160 133 489 290 491 292 487 288 490 291 491 292 489 290 718 310 362 217 360 215 491 292 362 217 718 310 569 309 361 216 363 218 359 214 361 216 569 309 719 411 283 156 451 154 281 154 283 156 719 411 717 163 289 162 291 164 356 161 289 162 717 163 720 351 655 353 657 383 721 352 655 353 720 351 326 301 550 299 551 317 549 300 550 299 326 301 466 268 545 271 543 272 468 270 545 271 466 268 723 412 722 376 711 350 724 413 722 376 723 412 724 414 605 376 722 350 604 415 605 376 724 414 722 369 644 350 711 393 643 376 644 350 722 369 605 369 643 350 722 393 649 376 643 350 605 369 258 132 683 390 257 133 259 131 683 390 258 132 725 416 590 326 634 336 700 417 590 326 725 416 726 418 634 326 639 336 725 419 634 326 726 418 342 203 501 194 457 192 340 196 501 194 342 203 498 297 506 267 505 298 708 265 506 267 498 297 708 265 507 266 506 267 346 406 507 266 708 265 428 251 553 236 426 232 430 253 553 236 428 251 576 337 693 332 727 369 582 334 693 332 576 337 727 337 692 326 696 369 693 334 692 326 727 337 575 418 727 326 728 419 576 336 727 326 575 418 582 334 694 374 693 332 581 375 694 374 582 334 728 416 696 326 697 417 727 336 696 326 728 416 588 326 698 369 696 337 590 337 698 369 588 326 702 393 653 352 721 387 652 350 653 352 702 393 702 350 720 351 729 349 721 352 720 351 702 350 730 414 702 376 729 415 701 350 702 376 730 414 709 412 701 376 730 413 689 350 701 376 709 412 639 326 731 327 726 325 668 328 731 327 639 326 670 329 668 328 669 330 731 327 668 328 670 329 164 137 686 390 163 136 512 203 707 202 510 204 259 131 260 130 683 390 541 215 715 410 563 213 718 310 360 215 732 420 732 420 360 215 716 410 542 310 733 420 541 215 733 420 715 410 541 215 360 215 358 213 716 410 504 295 309 177 311 179 320 185 630 183 322 181 386 236 382 232 384 234 81 75 79 73 441 168 303 171 440 170 305 169 494 210 495 211 666 209 301 171 297 169 299 170 471 272 469 268 603 317 346 406 344 405 507 266 698 326 590 336 700 397 636 370 641 396 635 334 585 335 636 333 587 334 711 376 710 402 723 401 507 266 344 316 454 300 655 353 721 352 653 352 392 284 677 320 482 282 540 217 538 218 573 219 612 365 624 362 626 364 568 322 439 321 566 323 671 42 113 40 115 44 16 16 14 14 18 18 59 58 21 21 23 22 44 43 271 144 111 41 547 313 632 368 548 315 470 271 667 386 468 270</p>
                </polylist>
            </mesh>
        </geometry>
    </library_geometries>
    <library_visual_scenes>
        <visual_scene id="VisualSceneNode">
            <node id="node0" name="m0" type="NODE">
                <instance_geometry url="#mesh0">
                    <bind_material>
                        <technique_common>
                            <instance_material symbol="Material1" target="#mat0">
                                <bind_vertex_input semantic="UVSET0" input_semantic="TEXCOORD" input_set="0"></bind_vertex_input>
                            </instance_material>
                        </technique_common>
                    </bind_material>
                </instance_geometry>
            </node>
        </visual_scene>
    </library_visual_scenes>
    <scene>
        <instance_visual_scene url="#VisualSceneNode"></instance_visual_scene>
    </scene>
</COLLADA>
