# Blender v2.79 (sub 0) OBJ File: ''
# www.blender.org
mtllib face 6.mtl
o n0b0_n0b0.004
v 2.527344 1.976172 -1.022266
v 3.090625 2.364063 -3.106641
v 2.879297 2.131250 -1.209766
v 3.641797 3.356250 -2.726172
v 3.736719 2.509375 -1.108203
v 2.735156 2.805078 -3.181641
v 2.423438 1.738672 -1.488672
v 4.521875 3.709766 -1.986719
v 2.950000 1.971094 -1.767578
v 5.066797 3.008203 -2.018750
v 3.971094 2.421484 -1.678906
v 4.151172 1.994531 -2.742578
v 2.278906 1.526172 -0.664062
v 4.859375 2.216406 -2.208594
v 2.463672 1.607422 -1.549219
v 4.315235 2.783594 -2.569141
v 3.004688 1.846484 -1.842578
v 3.769531 2.596484 -2.820703
v 4.025781 2.296875 -1.747266
v 4.134766 4.351953 -1.144531
v 2.474609 1.360156 -0.559375
v 4.957422 3.906641 -1.032031
v 2.620312 1.407422 -1.312109
v 5.516016 3.303906 -1.114453
v 3.104297 1.621094 -1.549219
v 5.428516 2.346094 -1.414453
v 4.125391 2.071484 -1.422266
v 5.783203 2.629688 -0.969531
v 3.034375 1.456250 -0.578516
v 6.041016 2.850000 -0.444922
v 4.005078 1.901563 -0.504687
v 3.086328 4.662109 -1.340234
v 2.811328 2.285156 0.000000
v 2.112500 3.164453 -3.064453
v 3.959766 2.004297 0.000000
v 3.082422 4.075391 -2.346875
v 5.293750 2.632422 0.000000
v 1.471875 3.623047 -2.416016
v 5.621875 3.123828 0.000000
v 4.894531 2.647266 -1.258984
v 5.296484 3.223047 0.000000
v 4.911328 2.134375 -2.328516
v 3.691406 2.612109 0.000000
v 5.614063 1.961328 -1.426953
v 5.614063 1.961328 -1.426953
v 2.425391 1.444141 0.000000
v 5.578516 2.244531 -1.460938
v 2.887891 1.626172 0.000000
v 4.194922 1.917188 -2.728906
v 2.233203 1.628906 0.000000
v 2.161328 1.935938 -3.239063
v 2.201953 1.764063 0.000000
v 0.804688 2.379297 -2.815234
v 4.982422 2.961719 -1.048437
v 5.385938 1.851953 -1.229688
v 5.309375 2.785547 -1.094531
v 4.902734 1.793750 -2.058203
v 5.030078 2.470703 -0.914453
v 2.690625 1.832031 -3.220313
v 2.527344 1.976172 1.022266
v 2.588281 1.340625 -1.622266
v 2.879297 2.131250 1.209766
v 6.092578 2.134766 -0.927344
v 3.900391 2.581641 1.108203
v 6.276172 2.306641 -0.502734
v 2.423438 1.738672 1.488672
v 6.353125 2.337500 -0.000391
v 2.950000 1.971094 1.767578
v 6.276172 2.306641 0.501563
v 3.971094 2.421484 1.678906
v 6.092578 2.134766 0.925781
v 2.278906 1.526172 0.664062
v 4.482031 -1.894531 0.000000
v 2.463672 1.607422 1.549219
v 4.075781 -1.321875 0.000000
v 3.004688 1.846484 1.842578
v 4.350391 -1.433203 0.000000
v 4.025781 2.296875 1.747266
v 3.921484 -2.321484 0.000000
v 4.982422 2.961719 1.048437
v 3.156250 -0.679688 -1.876953
v 5.280859 2.850391 1.094531
v 3.626953 -0.107422 -1.538281
v 2.474609 1.360156 0.559375
v 3.142578 -0.570312 -2.025000
v 2.620312 1.407422 1.312109
v 3.496094 -0.014844 -1.689844
v 3.104297 1.621094 1.549219
v 3.221484 -0.007031 -1.472266
v 4.125391 2.071484 1.422266
v 2.956641 -0.447266 -2.083203
v 5.030078 2.470703 0.914453
v 2.777344 -0.432031 -1.946875
v 3.034375 1.456250 0.578516
v 2.782422 -1.543359 -1.927734
v 4.005078 1.901563 0.504687
v 3.101953 -1.870313 -1.652344
v 0.466016 1.200391 -0.000391
v 3.064063 -0.681250 -1.757812
v 4.046094 -0.587891 -0.000391
v 3.408203 -1.741797 -1.446875
v 4.480859 -0.702344 -0.000391
v 4.480859 -0.702344 -0.000391
v 2.794922 -1.551953 -2.106641
v 5.180860 -0.275000 -0.000391
v 1.872266 -2.528906 -2.118750
v 6.463281 0.562891 -0.000391
v 2.060156 -2.851172 -1.738672
v 6.093750 0.643359 -0.000391
v 6.093750 0.643359 -0.000391
v 4.170312 -2.143750 -1.226953
v 6.689844 0.670313 -0.000391
v 3.936719 -2.577344 -1.039062
v 6.744531 0.933203 -0.000391
v 6.744531 0.933203 -0.000391
v 4.417188 -1.973047 -0.683594
v 5.601562 0.870313 -0.000391
v 3.492578 -2.510547 -0.731641
v 4.422657 0.592578 -0.000391
v 3.507422 -0.119922 -1.294141
v 0.272656 2.644531 -0.000391
v 3.974219 -1.396875 -0.562891
v 1.121094 3.912891 -0.000391
v 2.583984 -2.734766 -1.398828
v 4.534375 3.190625 -0.000391
v 3.761328 -1.523438 -1.071094
v 6.164453 2.255859 -0.000391
v 2.492969 -0.830078 -2.167969
v 5.632422 2.474219 -0.000391
v 2.241797 -1.384766 -2.290625
v 6.505859 2.543750 -0.000391
v 6.505859 2.543750 -0.000391
v 2.628516 -0.859375 -2.297656
v 4.231250 4.440235 -0.000391
v 2.353125 -1.460938 -2.417969
v 5.082813 4.003906 -0.000391
v 2.878906 -1.008594 -2.204688
v 5.687109 3.459766 -0.000391
v 2.700781 -1.591406 -2.329688
v 2.023047 4.588672 -0.000391
v 2.078125 -2.075000 -2.327734
v 3.090625 4.796094 -0.000391
v 2.413281 -2.494922 -2.319141
v 2.243359 2.288672 -0.000391
v 2.243359 2.288672 -0.000391
v 2.408984 -2.917578 -2.084375
v 6.119922 2.900391 -0.000391
v 2.775391 -2.034766 -2.108984
v 2.478906 0.224609 1.897266
v 2.721484 -1.972656 -1.883984
v 3.221484 -0.007031 1.472266
v 2.778516 -2.980860 -1.882031
v 1.505859 0.468359 2.112109
v 3.241797 -2.928906 -1.641797
v 1.006641 0.696094 1.982813
v 3.039062 -2.559766 -2.110938
v 0.655859 1.053125 0.931250
v 0.655859 1.053125 0.931250
v 3.390234 -2.507812 -1.913672
v 3.581641 0.138281 2.147266
v 4.044531 -1.670703 -1.219141
v 4.187891 1.650000 2.762891
v 4.294922 -1.507031 -0.660547
v 3.772266 1.522266 2.900781
v 2.094531 -1.826563 -2.282031
v 4.645703 0.792188 1.292578
v 3.256250 -1.986719 -1.950781
v 2.558594 2.194531 1.642969
v 2.558594 2.194531 1.642969
v 3.659375 -1.855469 -1.633594
v 1.323438 1.348438 3.177734
v 1.323438 1.348438 3.177734
v 4.341406 -2.272266 0.000000
v 2.072656 0.904688 3.176953
v 4.253516 -2.362891 -0.578906
v 2.029688 1.385156 3.345703
v 2.029688 1.385156 3.345703
v 3.564844 -2.782031 -1.371094
v 2.755469 1.044922 3.096484
v 3.781250 -2.355078 -1.633984
v 6.092969 0.960156 1.026953
v 3.993750 -2.414453 0.000000
v 6.258985 1.106250 1.164453
v 3.948437 -2.490625 -0.477734
v 5.952344 0.757422 0.854688
v 5.952344 0.757422 0.854688
v 3.637110 -2.596094 -0.783984
v 5.155078 -0.188672 0.588672
v 3.199610 -2.741016 -1.107813
v 5.068359 0.001953 1.161719
v 5.068359 0.001953 1.161719
v 3.835547 -2.403516 -0.427734
v 4.472266 -0.616016 0.560938
v 4.472266 -0.616016 0.560938
v 3.167578 -2.614063 -1.026563
v 4.426953 -0.365234 1.228516
v 4.426953 -0.365234 1.228516
v 3.156250 -0.679688 1.876953
v 5.521484 1.323438 1.472266
v 3.626953 -0.107422 1.538281
v 4.620313 0.450781 2.032422
v 3.142578 -0.570312 2.025000
v 0.533594 1.117188 1.950781
v 0.533594 1.117188 1.950781
v 3.496094 -0.014844 1.689844
v 3.026953 0.471484 2.735938
v 3.221484 -0.007031 1.472266
v 3.638672 0.858203 2.678125
v 2.956641 -0.447266 2.083203
v 3.328125 0.983594 2.926563
v 2.777344 -0.432031 1.946875
v 2.821484 0.292188 2.446094
v 2.782422 -1.543359 1.927734
v 0.799219 1.185938 2.609766
v 0.799219 1.185938 2.609766
v 3.101953 -1.870313 1.652344
v 1.443359 0.784375 2.716406
v 3.064063 -0.681250 1.757812
v 4.106641 1.500781 2.720313
v 3.408203 -1.741797 1.446875
v 4.201172 1.806641 2.724609
v 4.201172 1.806641 2.724609
v 2.794922 -1.551953 2.106641
v 3.700391 1.702734 2.967578
v 3.700391 1.702734 2.967578
v 3.700391 1.702734 2.967578
v 3.700391 1.702734 2.967578
v 3.700391 1.702734 2.967578
v 3.700391 1.702734 2.967578
v 1.872266 -2.528906 2.118750
v 5.681641 1.525781 1.475000
v 2.060156 -2.851172 1.738672
v 5.642969 1.416797 1.483594
v 4.170312 -2.143750 1.226953
v 5.657813 1.779297 1.379297
v 5.657813 1.779297 1.379297
v 3.936719 -2.577344 1.039062
v 6.253906 1.375391 1.054297
v 6.253906 1.375391 1.054297
v 4.417188 -1.973047 0.683594
v 3.535547 1.497266 3.032813
v 3.535547 1.497266 3.032813
v 3.492578 -2.510547 0.731641
v 3.685938 1.734375 2.942578
v 3.685938 1.734375 2.942578
v 3.685938 1.734375 2.942578
v 3.507422 -0.119922 1.294141
v 3.687109 1.736328 2.633594
v 3.687109 1.736328 2.633594
v 3.974219 -1.396875 0.562891
v 3.698437 1.703516 2.679297
v 2.583984 -2.734766 1.398828
v 1.488672 2.135547 3.305078
v 3.761328 -1.523438 1.071094
v 0.403516 2.571484 1.826563
v 2.492969 -0.830078 2.167969
v 1.211328 3.814453 1.554297
v 2.241797 -1.384766 2.290625
v 1.471875 3.623047 2.414844
v 2.628516 -0.859375 2.297656
v 2.241406 4.470313 1.494531
v 2.353125 -1.460938 2.417969
v 4.894531 2.647266 1.257812
v 2.878906 -1.008594 2.204688
v 4.859375 2.216406 2.207422
v 2.700781 -1.591406 2.329688
v 4.194922 1.917188 2.727734
v 2.078125 -2.075000 2.327734
v 4.151172 1.994531 2.741406
v 2.413281 -2.494922 2.319141
v 4.117188 1.824219 2.531250
v 2.408984 -2.917578 2.084375
v 4.876563 1.834375 2.068359
v 2.775391 -2.034766 2.108984
v 4.973828 1.936719 2.306641
v 4.973828 1.936719 2.306641
v 2.721484 -1.972656 1.883984
v 4.196875 1.842188 2.692578
v 4.196875 1.842188 2.692578
v 2.778516 -2.980860 1.882031
v 2.735156 2.805078 3.180469
v 3.241797 -2.928906 1.641797
v 3.641797 3.356250 2.725000
v 3.039062 -2.559766 2.110938
v 4.521875 3.709766 1.985547
v 3.390234 -2.507812 1.913672
v 5.066797 3.008203 2.017578
v 4.044531 -1.670703 1.219141
v 4.134766 4.351953 1.143359
v 4.294922 -1.507031 0.660547
v 3.086328 4.662109 1.339063
v 2.094531 -1.826563 2.282031
v 3.880859 -0.279687 0.939063
v 3.256250 -1.986719 1.950781
v 0.804688 2.379297 2.813672
v 3.659375 -1.855469 1.633594
v 2.112500 3.164453 3.063281
v 4.253516 -2.362891 0.578906
v 3.082422 4.075391 2.345703
v 3.564844 -2.782031 1.371094
v 4.957422 3.906641 1.030469
v 3.781250 -2.355078 1.633984
v 5.516016 3.303906 1.113281
v 3.948437 -2.490625 0.477734
v 5.783203 2.629688 0.968359
v 3.637110 -2.596094 0.783984
v 6.207031 2.295703 1.030859
v 6.207031 2.295703 1.030859
v 3.199610 -2.741016 1.107813
v 5.942188 2.099219 0.821094
v 3.835547 -2.403516 0.427734
v 6.418750 2.823828 -0.000391
v 3.167578 -2.614063 1.026563
v 6.118360 2.585938 1.032422
v 4.911328 2.134375 2.327344
v 3.130859 0.754297 -0.000391
v 3.345313 1.012109 1.502344
v 4.973047 1.828906 2.351562
v 4.973047 1.828906 2.351562
v 4.951953 1.581641 2.353125
v 2.265625 1.206641 -0.000391
v 2.588281 1.340625 1.621094
v 5.385938 1.851953 1.228125
v 5.614063 1.961328 1.425781
v 5.614063 1.961328 1.425781
v 5.578516 2.244531 1.459766
v 5.428516 2.346094 1.413281
v 3.630078 1.842969 3.064063
v 3.603125 1.658984 2.667187
v 3.600391 1.659766 2.970703
v 3.600391 1.659766 2.970703
v 3.600391 1.659766 2.970703
v 3.417578 1.645703 3.096094
v 2.161328 1.935938 3.237891
v 2.747656 1.344922 3.208203
v 2.747656 1.344922 3.208203
v 2.690625 1.832031 3.219141
v 3.090625 2.364063 3.105469
v 6.384766 0.639844 0.645312
v 6.608984 0.777734 0.686328
v 6.663672 1.048828 0.588672
v 6.663672 1.048828 0.588672
v 6.084375 2.229297 0.455859
v 6.432031 2.508984 0.546875
v 6.432031 2.508984 0.546875
v 6.345313 2.772266 0.532813
v 6.041016 2.850000 0.443750
v 6.469532 1.075000 -0.000391
v 6.373437 1.146484 0.506250
v 6.003906 1.357031 0.860547
v 5.382812 1.807813 1.205859
v 4.902734 1.793750 2.057031
v 4.115625 1.799609 2.451172
v 4.827734 1.434766 2.267188
v 2.697656 0.577344 2.949610
v 2.280859 0.440625 2.599219
v 3.220703 3.271875 -0.000391
v 3.361328 3.071094 1.514844
v 4.315235 2.783594 2.567969
v 3.769531 2.596484 2.819531
v 4.187891 1.650000 -2.764063
v 3.772266 1.522266 -2.901953
v 4.106641 1.500781 -2.721484
v 4.645703 0.792188 -1.293750
v 3.345313 1.012109 -1.503516
v 2.072656 0.904688 -3.178125
v 2.029688 1.385156 -3.346875
v 2.029688 1.385156 -3.346875
v 1.323438 1.348438 -3.178906
v 1.323438 1.348438 -3.178906
v 6.258985 1.106250 -1.166016
v 6.092969 0.960156 -1.028125
v 6.384766 0.639844 -0.646484
v 6.608984 0.777734 -0.687891
v 5.952344 0.757422 -0.855859
v 5.952344 0.757422 -0.855859
v 5.155078 -0.188672 -0.590234
v 5.068359 0.001953 -1.162891
v 5.068359 0.001953 -1.162891
v 4.426953 -0.365234 -1.229688
v 4.426953 -0.365234 -1.229688
v 4.472266 -0.616016 -0.562109
v 4.472266 -0.616016 -0.562109
v 4.620313 0.450781 -2.033594
v 5.521484 1.323438 -1.473438
v 3.638672 0.858203 -2.679297
v 3.328125 0.983594 -2.927734
v 3.026953 0.471484 -2.737109
v 3.581641 0.138281 -2.148438
v 2.821484 0.292188 -2.447266
v 0.799219 1.185938 -2.610938
v 0.799219 1.185938 -2.610938
v 1.443359 0.784375 -2.717578
v 3.700391 1.702734 -2.968750
v 3.700391 1.702734 -2.968750
v 3.700391 1.702734 -2.968750
v 3.700391 1.702734 -2.968750
v 3.700391 1.702734 -2.968750
v 3.700391 1.702734 -2.968750
v 4.201172 1.806641 -2.725781
v 4.201172 1.806641 -2.725781
v 4.951953 1.581641 -2.354687
v 5.681641 1.525781 -1.476172
v 5.657813 1.779297 -1.380469
v 5.657813 1.779297 -1.380469
v 4.973047 1.828906 -2.353125
v 4.973047 1.828906 -2.353125
v 4.827734 1.434766 -2.268359
v 5.642969 1.416797 -1.484766
v 6.253906 1.375391 -1.055469
v 6.253906 1.375391 -1.055469
v 6.663672 1.048828 -0.589844
v 6.663672 1.048828 -0.589844
v 3.603125 1.658984 -2.668360
v 2.558594 2.194531 -1.644141
v 2.558594 2.194531 -1.644141
v 3.687109 1.736328 -2.634766
v 3.687109 1.736328 -2.634766
v 4.115625 1.799609 -2.452344
v 3.698437 1.703516 -2.680469
v 0.533594 1.117188 -1.951953
v 0.533594 1.117188 -1.951953
v 0.655859 1.053125 -0.932813
v 0.655859 1.053125 -0.932813
v 1.006641 0.696094 -1.983984
v 2.478906 0.224609 -1.898438
v 2.280859 0.440625 -2.600391
v 1.505859 0.468359 -2.113281
v 3.535547 1.497266 -3.033984
v 3.535547 1.497266 -3.033984
v 2.755469 1.044922 -3.097656
v 2.697656 0.577344 -2.951172
v 3.600391 1.659766 -2.972266
v 3.600391 1.659766 -2.972266
v 3.600391 1.659766 -2.972266
v 3.221484 -0.007031 -1.473438
v 3.880859 -0.279687 -0.940234
v 5.382812 1.807813 -1.207031
v 6.003906 1.357031 -0.861719
v 2.747656 1.344922 -3.209375
v 2.747656 1.344922 -3.209375
v 6.373437 1.146484 -0.507422
v 1.488672 2.135547 -3.306250
v 0.403516 2.571484 -1.827734
v 1.211328 3.814453 -1.555469
v 2.241406 4.470313 -1.495703
v 3.361328 3.071094 -1.516016
v 4.117188 1.824219 -2.532422
v 3.685938 1.734375 -2.943750
v 3.685938 1.734375 -2.943750
v 3.685938 1.734375 -2.943750
v 3.630078 1.842969 -3.065234
v 3.417578 1.645703 -3.097266
v 4.876563 1.834375 -2.069531
v 4.973828 1.936719 -2.307812
v 4.973828 1.936719 -2.307812
v 4.196875 1.842188 -2.693750
v 4.196875 1.842188 -2.693750
v 6.084375 2.229297 -0.457031
v 6.432031 2.508984 -0.548047
v 6.432031 2.508984 -0.548047
v 6.207031 2.295703 -1.032031
v 6.207031 2.295703 -1.032031
v 5.942188 2.099219 -0.822266
v 6.118360 2.585938 -1.033594
v 6.345313 2.772266 -0.533984
vt 0.598999 0.296204
vt 0.618347 0.296204
vt 0.602539 0.269531
vt 0.621399 0.317261
vt 0.602478 0.317261
vt 0.611938 0.330200
vt 0.596069 0.325928
vt 0.561401 0.334534
vt 0.561401 0.317261
vt 0.526733 0.325928
vt 0.520386 0.317261
vt 0.510925 0.330200
vt 0.501465 0.317261
vt 0.498901 0.317261
vt 0.502136 0.296204
vt 0.508850 0.317261
vt 0.513184 0.296204
vt 0.544312 0.296204
vt 0.525574 0.277771
vt 0.561401 0.265442
vt 0.518494 0.266724
vt 0.561401 0.251770
vt 0.520264 0.269531
vt 0.561401 0.255310
vt 0.523865 0.296204
vt 0.561401 0.296204
vt 0.487915 0.462036
vt 0.498352 0.451172
vt 0.497925 0.465820
vt 0.483398 0.448120
vt 0.471680 0.448059
vt 0.463989 0.437134
vt 0.456238 0.440979
vt 0.424988 0.418030
vt 0.419006 0.444092
vt 0.372192 0.429504
vt 0.372192 0.461792
vt 0.313171 0.440002
vt 0.315613 0.461792
vt 0.254150 0.447876
vt 0.254150 0.464539
vt 0.315613 0.461792
vt 0.321838 0.478455
vt 0.372192 0.461792
vt 0.392151 0.475342
vt 0.419006 0.444092
vt 0.434631 0.461792
vt 0.456238 0.440979
vt 0.462708 0.451416
vt 0.471680 0.448059
vt 0.477539 0.459412
vt 0.487915 0.462036
vt 0.156128 0.238892
vt 0.164978 0.270996
vt 0.171814 0.261108
vt 0.141968 0.251160
vt 0.126526 0.239685
vt 0.077454 0.280640
vt 0.071167 0.260498
vt 0.006836 0.284912
vt 0.007019 0.262756
vt 0.071167 0.260498
vt 0.007019 0.223633
vt 0.037109 0.212402
vt 0.007019 0.209595
vt 0.008911 0.194336
vt 0.037109 0.212402
vt 0.039612 0.194214
vt 0.074280 0.221863
vt 0.084534 0.201599
vt 0.111877 0.231812
vt 0.123108 0.215393
vt 0.136658 0.224548
vt 0.164978 0.275940
vt 0.170898 0.255554
vt 0.174133 0.267761
vt 0.157104 0.264282
vt 0.089294 0.292786
vt 0.085571 0.281433
vt 0.007141 0.291504
vt 0.007141 0.279968
vt 0.085571 0.281433
vt 0.081848 0.270142
vt 0.135071 0.245178
vt 0.112549 0.231140
vt 0.123047 0.215942
vt 0.074097 0.221313
vt 0.080444 0.210449
vt 0.036682 0.212036
vt 0.038208 0.202576
vt 0.006653 0.209717
vt 0.007446 0.201355
vt 0.038208 0.202576
vt 0.008545 0.194275
vt 0.040161 0.194458
vt 0.585571 0.920288
vt 0.584045 0.929199
vt 0.651978 0.946228
vt 0.506226 0.910522
vt 0.506226 0.896179
vt 0.585571 0.920288
vt 0.587463 0.904175
vt 0.654541 0.933533
vt 0.657532 0.912537
vt 0.724609 0.921448
vt 0.729248 0.879211
vt 0.806580 0.930298
vt 0.802612 0.888123
vt 0.862488 0.929199
vt 0.881226 0.887512
vt 0.947083 0.916687
vt 0.912476 0.837524
vt 0.977051 0.894836
vt 0.956238 0.837524
vt 0.993713 0.875000
vt 0.981201 0.837524
vt 0.498352 0.437134
vt 0.479004 0.435486
vt 0.457764 0.408691
vt 0.441345 0.413391
vt 0.418701 0.400330
vt 0.384338 0.397217
vt 0.365601 0.407654
vt 0.317139 0.377441
vt 0.310425 0.392029
vt 0.254150 0.389648
vt 0.254150 0.408264
vt 0.310425 0.392029
vt 0.312500 0.411804
vt 0.365601 0.407654
vt 0.372192 0.429504
vt 0.424988 0.418030
vt 0.966370 0.575195
vt 0.978882 0.573120
vt 0.992798 0.588928
vt 0.954224 0.552673
vt 0.941406 0.555420
vt 0.929504 0.532227
vt 0.916382 0.535645
vt 0.847656 0.504395
vt 0.841370 0.510620
vt 0.803223 0.500183
vt 0.800110 0.506470
vt 0.758789 0.502258
vt 0.758789 0.508545
vt 0.800110 0.506470
vt 0.796936 0.513733
vt 0.841370 0.510620
vt 0.835144 0.518982
vt 0.903870 0.539795
vt 0.832031 0.527405
vt 0.604370 0.266724
vt 0.620667 0.296204
vt 0.623901 0.317261
vt 0.613953 0.330566
vt 0.583923 0.335144
vt 0.576111 0.332825
vt 0.561401 0.332825
vt 0.576599 0.321838
vt 0.561401 0.324646
vt 0.561401 0.296204
vt 0.546204 0.321838
vt 0.498352 0.451172
vt 0.497925 0.465820
vt 0.483398 0.448120
vt 0.498352 0.437134
vt 0.479004 0.435486
vt 0.457764 0.408691
vt 0.463989 0.437134
vt 0.441345 0.413391
vt 0.418701 0.400330
vt 0.384338 0.397217
vt 0.412476 0.382629
vt 0.367859 0.372253
vt 0.376404 0.364502
vt 0.326233 0.352539
vt 0.329529 0.341125
vt 0.291870 0.339844
vt 0.966370 0.589783
vt 0.994080 0.602295
vt 0.993225 0.591431
vt 0.960144 0.596008
vt 0.935120 0.587708
vt 0.935120 0.604370
vt 0.891418 0.589783
vt 0.910156 0.612732
vt 0.872620 0.608521
vt 0.916382 0.623108
vt 0.878906 0.629395
vt 0.922668 0.633545
vt 0.872620 0.647461
vt 0.928894 0.646057
vt 0.875977 0.662720
vt 0.654541 0.933533
vt 0.718384 0.961365
vt 0.587463 0.904175
vt 0.506226 0.854187
vt 0.591431 0.862549
vt 0.662476 0.870850
vt 0.662476 0.829224
vt 0.756226 0.850037
vt 0.814331 0.970642
vt 0.856201 1.000000
vt 0.962463 1.000000
vt 0.721069 0.948486
vt 0.724609 0.921448
vt 0.657532 0.912537
vt 0.729248 0.879211
vt 0.662476 0.870850
vt 0.662476 0.829224
vt 0.593750 0.820862
vt 0.931213 0.966675
vt 1.000000 0.950012
vt 0.947083 0.916687
vt 0.888245 0.975220
vt 0.862488 0.929199
vt 0.806580 0.930298
vt 0.802612 0.888123
vt 0.756226 0.850037
vt 0.317139 0.377441
vt 0.254150 0.374939
vt 0.288757 0.360657
vt 0.323303 0.361938
vt 0.290222 0.351318
vt 0.326233 0.352539
vt 0.291870 0.339844
vt 0.329529 0.341125
vt 0.079529 0.287292
vt 0.007263 0.295959
vt 0.007202 0.307007
vt 0.079529 0.287292
vt 0.083801 0.300720
vt 0.167725 0.277527
vt 0.170471 0.284119
vt 0.176636 0.280823
vt 0.164978 0.270996
vt 0.156128 0.238892
vt 0.171814 0.261108
vt 0.141968 0.251160
vt 0.077454 0.280640
vt 0.126526 0.239685
vt 0.111877 0.231812
vt 0.074280 0.221863
vt 0.084534 0.201599
vt 0.039612 0.194214
vt 0.994080 0.602295
vt 0.966370 0.589783
vt 0.993225 0.591431
vt 0.960144 0.596008
vt 0.972656 0.610596
vt 0.935120 0.604370
vt 0.941406 0.613770
vt 0.910156 0.612732
vt 0.916382 0.623108
vt 0.872620 0.608521
vt 0.878906 0.629395
vt 0.006653 0.238953
vt 0.081848 0.270142
vt 0.074097 0.221313
vt 0.112549 0.231140
vt 0.123047 0.215942
vt 0.135071 0.245178
vt 0.145264 0.230164
vt 0.891418 0.558533
vt 0.924194 0.563354
vt 0.833984 0.561584
vt 0.810120 0.579346
vt 0.791077 0.559631
vt 0.760620 0.568970
vt 0.760437 0.559082
vt 0.791077 0.559631
vt 0.477539 0.459412
vt 0.462708 0.451416
vt 0.469177 0.461792
vt 0.434631 0.461792
vt 0.440613 0.488892
vt 0.392151 0.475342
vt 0.393738 0.497559
vt 0.337524 0.494995
vt 0.856201 0.837524
vt 0.812500 0.758362
vt 0.799988 0.762512
vt 0.868713 0.837524
vt 0.881226 0.887512
vt 0.912476 0.837524
vt 0.977051 0.894836
vt 0.993713 0.875000
vt 0.254150 0.338623
vt 0.254150 0.350037
vt 0.254150 0.359436
vt 0.288757 0.360657
vt 0.323303 0.361938
vt 0.992126 0.589722
vt 0.949219 0.579895
vt 0.935120 0.587708
vt 0.924194 0.563354
vt 0.891418 0.558533
vt 0.899231 0.546814
vt 0.834106 0.546509
vt 0.832031 0.527405
vt 0.312500 0.411804
vt 0.311768 0.426392
vt 0.254150 0.427002
vt 0.311768 0.426392
vt 0.313171 0.440002
vt 0.290222 0.351318
vt 0.538879 0.335144
vt 0.508850 0.330566
vt 0.546753 0.332825
vt 0.516907 0.329163
vt 1.000000 0.950012
vt 0.931213 0.966675
vt 0.888245 0.975220
vt 0.814331 0.970642
vt 0.962463 1.000000
vt 0.856201 1.000000
vt 0.966370 0.575195
vt 0.992126 0.589722
vt 0.949219 0.579895
vt 0.941406 0.555420
vt 0.899231 0.546814
vt 0.834106 0.546509
vt 0.504456 0.296204
vt 0.651978 0.946228
vt 0.718384 0.961365
vt 0.584045 0.929199
vt 0.506226 0.920166
vt 0.581909 0.937988
vt 0.872620 0.647461
vt 0.875977 0.662720
vt 0.847412 0.663269
vt 0.928894 0.646057
vt 0.922668 0.633545
vt 0.960144 0.633545
vt 0.947632 0.623108
vt 0.985168 0.621033
vt 0.716980 0.710449
vt 0.731201 0.700012
vt 0.831238 0.750000
vt 0.743713 0.691711
vt 0.849976 0.737549
vt 0.756226 0.683350
vt 0.868713 0.725037
vt 0.470337 0.405579
vt 0.412476 0.382629
vt 0.426514 0.376404
vt 0.376404 0.364502
vt 0.384583 0.355957
vt 0.937500 0.770874
vt 0.913818 0.779480
vt 0.877930 0.793335
vt 0.849976 0.737549
vt 0.831238 0.750000
vt 0.743713 0.691711
vt 0.731201 0.700012
vt 0.384583 0.355957
vt 0.426514 0.376404
vt 0.470337 0.405579
vt 0.321838 0.478455
vt 0.254150 0.481201
vt 0.293640 0.496460
vt 0.337524 0.494995
vt 0.903870 0.539795
vt 0.835144 0.518982
vt 0.796936 0.513733
vt 0.759094 0.520508
vt 0.937500 0.770874
vt 0.913818 0.779480
vt 0.877930 0.793335
vt 0.956238 0.837524
vt 0.578552 0.296204
vt 0.597290 0.277771
vt 0.609680 0.296204
vt 0.561401 0.335144
vt 0.960144 0.633545
vt 0.947632 0.623108
vt 0.985168 0.621033
vt 0.972656 0.610596
vt 0.990662 0.611633
vt 0.916382 0.535645
vt 0.929504 0.532227
vt 0.847656 0.504395
vt 0.367859 0.372253
vt 0.941406 0.613770
vt 0.440613 0.488892
vt 0.393738 0.497559
vt 0.469177 0.461792
vt 0.084534 0.201904
vt 0.040161 0.194458
vt 0.275391 0.180908
vt 0.356812 0.256897
vt 0.449585 0.202881
vt 0.276733 0.256897
vt 0.356812 0.256897
vt 0.278564 0.319885
vt 0.357422 0.320007
vt 0.868713 0.837524
vt 0.856201 0.837524
vt 0.862488 0.875000
vt 0.833984 0.561584
vt 0.891418 0.589783
vt 0.089294 0.292786
vt 0.157104 0.264282
vt 0.164978 0.275940
vt 0.170898 0.255554
vt 0.174133 0.267761
vt 0.123108 0.215393
vt 0.136658 0.224548
vt 0.083801 0.300720
vt 0.167725 0.277527
vt 0.170471 0.284119
vt 0.176636 0.280823
vt 0.721069 0.948486
vt 0.799988 0.862549
vt 0.758789 0.496033
vt 0.803223 0.500183
vt 0.080444 0.210449
vt 0.036682 0.212036
vt 0.293640 0.496460
vt 0.613953 0.317261
vt 0.481018 0.402954
vt 0.439636 0.370789
vt 0.605896 0.329163
vt 0.591431 0.862549
vt 0.145264 0.230164
vt 0.593750 0.820862
vt 0.175659 0.268677
vt 0.454163 0.272156
vt 0.454590 0.328064
vt 0.357422 0.320007
vt 0.812500 0.758362
vt 0.716980 0.710449
vt 0.799988 0.762512
vt 0.084534 0.201904
vt 0.981201 0.837524
vt 0.506226 0.932434
vt 0.581909 0.937988
vt 0.862488 0.875000
vt 0.506226 0.816711
vt 0.756226 0.683350
vt 0.868713 0.725037
vt 0.799988 0.862549
vt 0.449585 0.202881
vt 0.454163 0.272156
vt 0.454590 0.328064
vt 0.954224 0.552673
vt 0.175659 0.268677
vt 0.439636 0.370789
vt 0.481018 0.402954
vt 0.810120 0.579346
vt 0.254150 0.491577
vt 0.978882 0.573120
vt 0.992798 0.588928
vt 0.990662 0.611633
vt 0.649292 0.954956
vt 0.649292 0.954956
vt 0.007141 0.303040
vt 0.844543 0.593933
vt 0.844543 0.593933
vt 0.847412 0.663269
vt 0.718079 0.971802
vt 0.718079 0.971802
vt 0.173584 0.263916
vt 0.173584 0.263916
vt 0.175964 0.269287
vt 0.175964 0.269287
vn -0.3458 0.9162 0.2026
vn -0.1363 0.7387 0.6601
vn -0.0139 0.8968 0.4421
vn -0.4155 0.6258 0.6601
vn -0.4360 0.8694 0.2325
vn -0.8274 0.3380 0.4485
vn -0.6313 0.7577 0.1652
vn -0.9483 0.3173 0.0000
vn -0.4931 0.8700 -0.0007
vn -0.6313 0.7577 -0.1652
vn -0.4341 0.8702 -0.2330
vn -0.8274 0.3380 -0.4485
vn -0.4151 0.6265 -0.6596
vn -0.0820 -0.2157 -0.9730
vn 0.3014 -0.0869 -0.9495
vn 0.2907 -0.8528 -0.4339
vn 0.4695 -0.7951 -0.3839
vn 0.4292 -0.9017 0.0524
vn 0.5819 -0.7926 -0.1821
vn 0.6970 -0.7168 0.0156
vn 0.7900 0.0578 -0.6103
vn 0.9216 0.3880 0.0118
vn 0.0318 0.8794 -0.4750
vn 0.0275 0.9996 -0.0008
vn -0.3524 0.9145 -0.1984
vn -0.3518 0.9361 -0.0045
vn 0.3263 0.0228 -0.9449
vn 0.3137 0.0368 -0.9488
vn -0.1400 0.3999 -0.9058
vn 0.2362 -0.1673 -0.9572
vn 0.1157 0.0122 -0.9932
vn 0.2865 0.1094 -0.9518
vn 0.1637 0.2472 -0.9550
vn 0.3200 0.4257 -0.8463
vn -0.1496 0.4994 -0.8533
vn 0.0952 0.7510 -0.6534
vn -0.4855 0.6727 -0.5583
vn -0.3078 0.8957 -0.3208
vn -0.6787 0.7017 -0.2168
vn -0.4036 0.9149 0.0000
vn -0.7250 0.6887 0.0000
vn -0.6787 0.7017 0.2168
vn -0.9452 0.2401 0.2211
vn -0.4855 0.6726 0.5584
vn -0.7412 0.2323 0.6298
vn -0.1497 0.4994 0.8533
vn -0.2901 0.1493 0.9453
vn 0.1637 0.2472 0.9550
vn 0.1098 0.0693 0.9915
vn 0.1157 0.0122 0.9932
vn 0.1694 0.0344 0.9849
vn 0.3265 0.0239 0.9449
vn -0.1209 0.9926 -0.0033
vn -0.3003 0.9461 -0.1211
vn -0.2013 0.9795 0.0040
vn -0.2082 0.9514 -0.2268
vn -0.2185 0.9244 -0.3124
vn 0.1657 0.9012 -0.4004
vn -0.2013 0.8361 -0.5102
vn 0.3100 0.9507 0.0000
vn -0.0339 0.9994 0.0000
vn -0.2012 0.8361 0.5102
vn -0.2446 0.9696 0.0000
vn 0.0972 0.9687 0.2285
vn 0.1675 0.9859 -0.0000
vn 0.4209 0.9071 -0.0000
vn 0.0972 0.9687 -0.2286
vn 0.3367 0.9225 -0.1885
vn -0.0616 0.7160 -0.6953
vn 0.2817 0.8565 -0.4324
vn -0.2408 0.7948 -0.5570
vn 0.2285 0.9455 -0.2319
vn -0.0753 0.9921 -0.1004
vn 0.1337 -0.9546 -0.2662
vn 0.1715 -0.9849 0.0225
vn 0.2039 -0.9789 -0.0054
vn 0.0566 -0.9520 -0.3009
vn 0.5683 -0.6597 -0.4917
vn 0.2249 -0.8380 -0.4971
vn 0.3685 -0.9296 0.0000
vn -0.3316 -0.9434 -0.0000
vn 0.2249 -0.8381 0.4970
vn -0.4787 -0.7347 0.4806
vn -0.0550 -0.9878 0.1458
vn -0.2105 -0.8744 0.4371
vn 0.3823 -0.9171 -0.1128
vn -0.0027 -0.9583 0.2858
vn 0.5563 -0.8279 -0.0708
vn 0.1140 -0.9733 0.1993
vn 0.6302 -0.7763 -0.0124
vn 0.0496 -0.9987 0.0000
vn 0.6396 -0.7686 0.0036
vn 0.6323 -0.7747 0.0089
vn 0.8008 -0.5989 0.0049
vn 0.7821 -0.6185 0.0758
vn 0.7151 -0.6923 -0.0963
vn 0.0649 -0.9791 0.1924
vn 0.0083 -0.9227 0.3854
vn 0.7591 -0.6510 0.0000
vn 0.9996 -0.0261 0.0000
vn 0.7151 -0.6923 0.0963
vn 0.9626 -0.0787 0.2592
vn 0.5685 -0.8194 0.0735
vn 0.8485 -0.1700 0.5011
vn 0.6945 -0.2477 0.6755
vn 0.4063 0.5639 0.7189
vn 0.5836 -0.2868 0.7597
vn 0.3078 0.5640 0.7663
vn 0.3993 -0.2616 0.8787
vn 0.6751 0.2089 0.7075
vn 0.0490 -0.2680 0.9622
vn 0.5903 -0.0851 0.8027
vn -0.4941 0.0026 0.8694
vn -0.2114 0.1267 0.9691
vn -0.6803 0.1798 0.7105
vn -0.6064 0.3262 0.7252
vn 0.5485 -0.4369 -0.7129
vn 0.4386 -0.0752 -0.8955
vn 0.4660 0.0997 -0.8791
vn 0.3558 0.1425 -0.9236
vn 0.4885 0.1862 -0.8524
vn 0.7168 0.2398 -0.6547
vn 0.4911 0.6396 -0.5913
vn 0.7819 0.4711 -0.4082
vn 0.5915 0.7623 -0.2627
vn 0.5827 0.8127 0.0000
vn 0.3885 0.9214 0.0000
vn 0.5915 0.7623 0.2627
vn 0.3889 0.8804 0.2712
vn 0.4911 0.6396 0.5913
vn 0.0952 0.7510 0.6534
vn 0.3200 0.4257 0.8463
vn 0.4225 -0.1317 0.8967
vn 0.4131 0.1830 0.8921
vn 0.3974 0.1859 0.8986
vn 0.6651 -0.0394 0.7457
vn 0.5879 -0.3612 0.7238
vn 0.6971 0.2846 0.6580
vn 0.6646 0.1252 0.7366
vn 0.7013 0.2835 0.6541
vn 0.5123 -0.2618 0.8179
vn 0.9305 -0.0388 0.3641
vn 0.7415 -0.4861 0.4624
vn 0.7824 -0.6228 0.0001
vn 0.1439 -0.9896 0.0001
vn 0.7414 -0.4861 -0.4626
vn 0.1547 -0.9211 -0.3572
vn 0.5121 -0.2618 -0.8180
vn 0.0748 -0.7008 -0.7094
vn 0.5005 -0.4118 -0.7614
vn 0.2156 -0.7138 -0.6663
vn 0.7628 0.1787 0.6214
vn 0.3063 -0.0914 0.9475
vn -0.0820 -0.2157 0.9730
vn -0.6071 -0.4329 0.6663
vn -0.8948 -0.4271 0.1302
vn -0.2633 -0.9646 -0.0147
vn -0.2774 -0.9608 0.0000
vn 0.3171 -0.9443 -0.0876
vn 0.3508 -0.9364 0.0000
vn 0.4034 -0.9150 0.0000
vn 0.3171 -0.9443 0.0876
vn 0.3127 0.0361 0.9492
vn -0.1450 0.4032 0.9035
vn 0.2364 -0.1674 0.9571
vn 0.5485 -0.4374 0.7126
vn 0.4386 -0.0752 0.8955
vn 0.4660 0.0997 0.8791
vn 0.2865 0.1094 0.9518
vn 0.3558 0.1425 0.9236
vn 0.4885 0.1862 0.8524
vn 0.7168 0.2398 0.6547
vn 0.5404 0.4818 0.6898
vn 0.6057 0.4828 0.6325
vn 0.5458 0.3799 0.7469
vn 0.4610 0.6174 0.6374
vn 0.6897 0.1827 0.7006
vn 0.8900 0.3034 0.3404
vn 0.4364 -0.2784 -0.8556
vn 0.4235 -0.2979 -0.8555
vn 0.4933 -0.1223 -0.8612
vn 0.3438 -0.4013 -0.8489
vn 0.4146 -0.4575 -0.7866
vn 0.2264 -0.6847 -0.6927
vn 0.0943 -0.8341 -0.5434
vn -0.0808 -0.9280 -0.3636
vn -0.1618 -0.9577 -0.2378
vn -0.2042 -0.8869 -0.4143
vn -0.3459 -0.8657 -0.3619
vn -0.4036 -0.7483 -0.5264
vn -0.5910 -0.7620 -0.2645
vn -0.5526 -0.6937 -0.4618
vn -0.6637 -0.7349 -0.1393
vn 0.5685 -0.8194 -0.0735
vn -0.1528 -0.8336 0.5308
vn 0.9626 -0.0787 -0.2592
vn 0.7310 0.6823 0.0000
vn 0.6814 0.6677 0.2998
vn 0.5680 0.5929 0.5707
vn 0.2040 0.8784 0.4321
vn 0.0068 0.8812 0.4726
vn 0.3211 -0.9326 -0.1647
vn -0.1318 -0.8876 0.4413
vn -0.3566 -0.9319 -0.0664
vn 0.4745 -0.8781 -0.0607
vn 0.6945 -0.2477 -0.6755
vn 0.8485 -0.1700 -0.5011
vn 0.4063 0.5639 -0.7189
vn 0.5680 0.5929 -0.5707
vn 0.2040 0.8784 -0.4321
vn 0.2724 0.9299 -0.2470
vn -0.1180 -0.8213 -0.5581
vn -0.4416 -0.4722 -0.7629
vn 0.0490 -0.2680 -0.9622
vn 0.1421 -0.9604 -0.2397
vn 0.3993 -0.2616 -0.8787
vn 0.5836 -0.2868 -0.7597
vn 0.3078 0.5640 -0.7663
vn 0.0068 0.8812 -0.4726
vn 0.7819 0.4712 0.4082
vn 0.7334 0.6798 0.0000
vn 0.5231 0.7937 -0.3106
vn 0.4688 0.6247 -0.6245
vn 0.6099 0.7189 -0.3334
vn 0.4610 0.6174 -0.6374
vn 0.8900 0.3034 -0.3404
vn 0.6897 0.1827 -0.7006
vn 0.7299 0.5202 -0.4435
vn 0.8482 0.5296 0.0000
vn 0.9996 0.0264 0.0000
vn 0.7299 0.5202 0.4435
vn 0.8985 0.0236 0.4382
vn 0.3044 0.6584 0.6883
vn 0.5347 -0.7498 0.3896
vn 0.6627 -0.7488 -0.0057
vn -0.3003 0.9461 0.1211
vn -0.1209 0.9926 0.0033
vn -0.2013 0.9795 -0.0040
vn -0.2082 0.9514 0.2268
vn 0.1657 0.9012 0.4004
vn -0.2185 0.9245 0.3124
vn -0.2408 0.7948 0.5570
vn -0.0616 0.7160 0.6953
vn 0.2817 0.8565 0.4324
vn 0.3367 0.9225 0.1885
vn 0.4236 -0.2979 0.8555
vn 0.4364 -0.2784 0.8556
vn 0.4933 -0.1223 0.8612
vn 0.3438 -0.4013 0.8489
vn 0.2256 -0.3410 0.9126
vn 0.2261 -0.6847 0.6928
vn 0.1251 -0.6348 0.7625
vn -0.0808 -0.9280 0.3637
vn -0.2041 -0.8869 0.4144
vn -0.1618 -0.9577 0.2378
vn -0.3459 -0.8657 0.3619
vn -0.4572 -0.8893 -0.0000
vn -0.4787 -0.7347 -0.4806
vn -0.0028 -0.9582 -0.2859
vn -0.2106 -0.8742 -0.4375
vn 0.3822 -0.9171 0.1128
vn -0.0550 -0.9878 -0.1457
vn 0.2645 -0.9272 0.2652
vn 0.4977 -0.4975 -0.7104
vn 0.4986 -0.5306 -0.6854
vn 0.0050 -0.8846 -0.4662
vn -0.2856 -0.9190 -0.2718
vn -0.3241 -0.9160 -0.2362
vn -0.3132 -0.9497 0.0001
vn -0.2546 -0.9670 0.0000
vn -0.3240 -0.9160 0.2362
vn 0.1694 0.0344 -0.9849
vn 0.1098 0.0693 -0.9915
vn 0.0518 0.0702 -0.9962
vn -0.2899 0.1492 -0.9453
vn -0.5106 -0.0899 -0.8551
vn -0.7411 0.2323 -0.6298
vn -0.8537 -0.0840 -0.5140
vn -0.9874 -0.0795 -0.1368
vn 0.9618 -0.2415 0.1289
vn 0.8513 -0.5245 0.0086
vn 0.6527 -0.5712 0.4976
vn 0.9681 -0.1744 -0.1797
vn 0.6751 0.2089 -0.7075
vn 0.5903 -0.0851 -0.8027
vn -0.4941 0.0026 -0.8694
vn -0.6803 0.1798 -0.7105
vn 0.9527 0.3039 0.0000
vn 0.6911 0.7227 0.0000
vn 0.5337 0.8456 0.0001
vn 0.5231 0.7936 0.3106
vn 0.4688 0.6247 0.6245
vn 0.3619 -0.1933 0.9119
vn 0.4231 -0.4230 0.8013
vn 0.4146 -0.4575 0.7866
vn 0.4989 -0.5301 0.6856
vn 0.4977 -0.4975 0.7104
vn 0.5383 -0.5287 0.6563
vn 0.5865 -0.5153 0.6249
vn 0.2156 -0.7137 0.6663
vn 0.3889 0.8804 -0.2712
vn 0.0804 0.9509 -0.2990
vn 0.0555 0.9984 0.0000
vn 0.0804 0.9508 0.2990
vn -0.3078 0.8957 0.3208
vn 0.6099 0.7189 0.3334
vn -0.8948 -0.4271 -0.1302
vn -0.6071 -0.4329 -0.6663
vn -0.2633 -0.9646 0.0147
vn -0.1627 -0.9407 -0.2975
vn -0.4416 -0.4722 0.7629
vn -0.1180 -0.8213 0.5581
vn 0.1421 -0.9604 0.2397
vn 0.3211 -0.9326 0.1647
vn -0.3566 -0.9319 0.0664
vn -0.1318 -0.8876 -0.4413
vn 0.4223 -0.1317 -0.8968
vn 0.3619 -0.1933 -0.9119
vn 0.4230 -0.4230 -0.8013
vn 0.5877 -0.3616 -0.7238
vn 0.5383 -0.5287 -0.6562
vn 0.5865 -0.5153 -0.6249
vn -0.1302 0.7435 -0.6559
vn 0.0083 -0.9227 -0.3854
vn -0.1528 -0.8336 -0.5308
vn 0.0649 -0.9791 -0.1924
vn -0.2030 -0.9792 0.0000
vn -0.4603 -0.7892 0.4065
vn -0.5910 -0.7620 0.2645
vn -0.6637 -0.7349 0.1393
vn -0.6633 -0.7476 -0.0326
vn -0.5526 -0.6937 0.4618
vn -0.4036 -0.7483 0.5264
vn -0.3849 -0.5686 0.7270
vn -0.1106 -0.5607 0.8206
vn -0.0258 -0.3369 0.9412
vn 0.6373 -0.7105 0.2984
vn 0.8287 -0.5447 -0.1281
vn 0.6827 -0.0896 -0.7252
vn 0.4009 0.4164 -0.8160
vn 0.0136 0.5616 -0.8273
vn -0.3263 0.8283 -0.4554
vn -0.3633 0.7439 -0.5609
vn 0.4812 -0.0864 -0.8723
vn 0.5404 0.4818 -0.6898
vn 0.4648 0.5268 -0.7116
vn 0.5458 0.3799 -0.7469
vn 0.6927 0.0109 -0.7211
vn -0.5121 0.5410 0.6671
vn -0.0985 0.3767 0.9211
vn 0.6417 -0.0617 0.7644
vn 0.0136 0.5616 0.8273
vn 0.6827 -0.0896 0.7252
vn 0.4009 0.4164 0.8160
vn 0.8287 -0.5447 0.1281
vn 0.6927 0.0109 0.7211
vn 0.4648 0.5268 0.7116
vn 0.4812 -0.0864 0.8723
vn -0.9452 0.2401 -0.2210
vn -0.9776 0.2102 0.0000
vn -0.9886 -0.1457 0.0387
vn -0.9874 -0.0795 0.1368
vn 0.5006 -0.4118 0.7614
vn 0.0753 -0.7006 0.7096
vn 0.1549 -0.9210 0.3575
vn -0.2152 -0.9766 0.0000
vn -0.5121 0.5410 -0.6671
vn -0.0985 0.3767 -0.9211
vn 0.6417 -0.0617 -0.7644
vn -0.2114 0.1267 -0.9691
vn 0.4292 -0.9017 -0.0524
vn 0.6229 -0.7456 0.2368
vn 0.4802 -0.7867 0.3879
vn -0.8843 -0.4669 0.0000
vn -0.3849 -0.5686 -0.7270
vn -0.1106 -0.5606 -0.8206
vn -0.0258 -0.3369 -0.9412
vn 0.2257 -0.3409 -0.9126
vn 0.2112 -0.3363 -0.9178
vn 0.6646 0.1253 -0.7366
vn 0.6972 0.2846 -0.6579
vn 0.7013 0.2841 -0.6537
vn 0.6057 0.4828 -0.6325
vn 0.1254 -0.6346 -0.7626
vn -0.5107 -0.0898 0.8551
vn -0.8537 -0.0839 0.5140
vn 0.0518 0.0702 0.9962
vn 0.7303 -0.6524 -0.2023
vn 0.7837 -0.6156 -0.0829
vn 0.7273 -0.6863 0.0001
vn 0.6064 -0.7588 -0.2376
vn 0.7086 -0.6641 -0.2383
vn 0.6163 -0.7875 0.0001
vn 0.6064 -0.7588 0.2376
vn 0.5242 -0.8516 0.0001
vn 0.5097 -0.8293 0.2291
vn 0.9681 -0.1744 0.1797
vn 0.9618 -0.2415 -0.1289
vn 0.6639 0.7463 0.0469
vn 0.0050 -0.8846 0.4662
vn 0.0943 -0.8341 0.5434
vn 0.5683 -0.6598 0.4917
vn 0.0566 -0.9520 0.3009
vn 0.1337 -0.9546 0.2662
vn 0.1715 -0.9849 -0.0225
vn 0.2039 -0.9789 0.0054
vn 0.2285 0.9455 0.2318
vn -0.0752 0.9921 0.1003
vn 0.8985 0.0236 -0.4382
vn 0.3044 0.6584 -0.6883
vn 0.5347 -0.7498 -0.3896
vn 0.6627 -0.7488 0.0057
vn 0.4745 -0.8781 0.0607
vn -0.0620 0.9244 -0.3764
vn 0.9790 -0.2037 0.0001
vn 0.9307 -0.0384 -0.3637
vn 0.5557 -0.8284 0.0707
vn 0.1139 -0.9733 -0.1993
vn -0.9886 -0.1457 -0.0386
vn 0.2907 -0.8528 0.4339
vn 0.4592 -0.3672 -0.8089
vn 0.6736 0.1238 -0.7286
vn -0.1627 -0.9407 0.2975
vn 0.6814 0.6677 -0.2998
vn 0.2645 -0.9272 -0.2652
vn 0.2724 0.9299 0.2470
vn -0.4010 0.9161 -0.0026
vn 0.5832 -0.7402 -0.3347
vn 0.4913 -0.8028 -0.3378
vn 0.5096 -0.8293 -0.2290
vn 0.8513 -0.5245 -0.0086
vn 0.6372 -0.7105 -0.2984
vn 0.6527 -0.5712 -0.4976
vn 0.7301 -0.6522 0.2038
vn -0.6064 0.3262 -0.7252
vn -0.7895 -0.6137 0.0000
vn -0.4603 -0.7892 -0.4065
vn 0.6639 0.7463 -0.0469
vn 0.3757 0.9267 0.0000
vn -0.3263 0.8283 0.4554
vn -0.3633 0.7439 0.5609
vn -0.0620 0.9244 0.3764
vn 0.7085 -0.6641 0.2384
vn 0.5832 -0.7403 0.3345
vn 0.4914 -0.8027 0.3377
vn 0.6650 -0.0394 -0.7458
vn -0.4010 0.9161 0.0026
vn 0.6736 0.1238 0.7286
vn 0.4592 -0.3672 0.8089
vn -0.2855 -0.9190 0.2718
vn -0.9911 -0.1327 0.0001
vn 0.4129 0.1830 -0.8922
vn 0.3974 0.1859 -0.8986
vn 0.2112 -0.3363 0.9178
vn -0.2628 -0.7486 0.6088
vn -0.2628 -0.7486 -0.6088
vn 0.7092 -0.7050 0.0000
vn -0.1487 -0.9474 -0.2833
vn -0.1487 -0.9474 0.2833
vn -0.6633 -0.7476 0.0326
vn -0.4147 -0.5624 -0.7153
vn -0.4147 -0.5624 0.7153
vn -0.3946 0.9188 -0.0052
vn -0.3946 0.9188 0.0052
vn 0.6587 -0.7523 -0.0078
vn 0.6587 -0.7523 0.0078
usemtl m0
s 1
f 64/1/1 70/2/2 80/3/3
f 70/2/2 64/1/1 68/4/4
f 62/5/5 68/4/4 64/1/1
f 68/4/4 62/5/5 66/6/6
f 60/7/7 66/6/6 62/5/5
f 66/6/6 60/7/7 52/8/8
f 33/9/9 52/8/8 60/7/7
f 1/10/10 52/8/8 33/9/9
f 3/11/11 1/10/10 33/9/9
f 1/10/10 3/11/11 7/12/12
f 9/13/13 7/12/12 3/11/11
f 7/12/12 9/13/13 17/14/14
f 19/15/15 17/14/14 9/13/13
f 17/14/14 19/15/15 25/16/16
f 27/17/17 25/16/16 19/15/15
f 25/16/16 27/17/17 31/18/18
f 58/19/19 31/18/18 27/17/17
f 31/18/18 58/19/19 37/20/20
f 56/21/21 37/20/20 58/19/19
f 37/20/20 56/21/21 39/22/22
f 54/23/23 39/22/22 56/21/21
f 39/22/22 54/23/23 41/24/24
f 5/25/25 41/24/24 54/23/23
f 41/24/24 5/25/25 43/26/26
f 33/9/9 43/26/26 5/25/25
f 43/26/26 33/9/9 64/1/1
f 62/5/5 64/1/1 33/9/9
f 430/27/27 434/28/28 398/29/29
f 434/28/28 430/27/27 453/30/30
f 59/31/31 453/30/30 430/27/27
f 453/30/30 59/31/31 2/32/32
f 6/33/33 2/32/32 59/31/31
f 2/32/32 6/33/33 4/34/34
f 34/35/35 4/34/34 6/33/33
f 4/34/34 34/35/35 36/36/36
f 38/37/37 36/36/36 34/35/35
f 36/36/36 38/37/37 446/38/38
f 445/39/39 446/38/38 38/37/37
f 446/38/38 445/39/39 140/40/40
f 123/41/41 140/40/40 445/39/39
f 140/40/40 123/41/41 257/42/42
f 255/43/43 257/42/42 123/41/41
f 257/42/42 255/43/43 259/44/44
f 295/45/45 259/44/44 255/43/43
f 259/44/44 295/45/45 297/46/46
f 253/47/47 297/46/46 295/45/45
f 297/46/46 253/47/47 281/48/48
f 334/49/49 281/48/48 253/47/47
f 281/48/48 334/49/49 337/50/50
f 336/51/51 337/50/50 334/49/49
f 337/50/50 336/51/51 242/52/52
f 222/53/53 251/54/54 227/55/55
f 251/54/54 222/53/53 353/56/56
f 352/57/57 353/56/56 222/53/53
f 353/56/56 352/57/57 317/58/58
f 166/59/59 317/58/58 352/57/57
f 317/58/58 166/59/59 316/60/60
f 119/61/61 316/60/60 166/59/59
f 316/60/60 119/61/61 364/62/62
f 117/63/63 364/62/62 119/61/61
f 364/62/62 117/63/63 442/64/64
f 348/65/65 442/64/64 117/63/63
f 442/64/64 348/65/65 115/66/66
f 349/67/67 115/66/66 348/65/65
f 115/66/66 349/67/67 342/68/68
f 350/69/69 342/68/68 349/67/67
f 342/68/68 350/69/69 239/70/70
f 351/71/71 239/70/70 350/69/69
f 239/70/70 351/71/71 236/72/72
f 352/57/57 236/72/72 351/71/71
f 236/72/72 352/57/57 319/73/73
f 222/53/53 319/73/73 352/57/57
f 249/74/74 278/75/75 245/76/76
f 278/75/75 249/74/74 271/77/77
f 169/78/78 271/77/77 249/74/74
f 271/77/77 169/78/78 358/79/79
f 357/80/80 358/79/79 169/78/78
f 358/79/79 357/80/80 125/81/81
f 447/82/82 125/81/81 357/80/80
f 125/81/81 447/82/82 40/83/83
f 454/84/84 40/83/83 447/82/82
f 40/83/83 454/84/84 55/85/85
f 45/86/86 55/85/85 454/84/84
f 55/85/85 45/86/86 464/87/87
f 63/88/88 464/87/87 45/86/86
f 464/87/87 63/88/88 459/89/89
f 65/90/90 459/89/89 63/88/88
f 459/89/89 65/90/90 127/91/91
f 67/92/92 127/91/91 65/90/90
f 127/91/91 67/92/92 69/93/93
f 132/94/94 69/93/93 67/92/92
f 69/93/93 132/94/94 345/95/95
f 175/96/96 184/97/97 187/98/98
f 184/97/97 175/96/96 173/99/99
f 73/100/100 173/99/99 175/96/96
f 173/99/99 73/100/100 298/101/101
f 240/102/102 298/101/101 73/100/100
f 298/101/101 240/102/102 237/103/103
f 234/104/104 237/103/103 240/102/102
f 237/103/103 234/104/104 302/105/105
f 296/106/106 302/105/105 234/104/104
f 302/105/105 296/106/106 286/107/107
f 294/108/108 286/107/107 296/106/106
f 286/107/107 294/108/108 284/109/109
f 274/110/110 284/109/109 294/108/108
f 284/109/109 274/110/110 270/111/111
f 266/112/112 270/111/111 274/110/110
f 270/111/111 266/112/112 268/113/113
f 262/114/114 268/113/113 266/112/112
f 268/113/113 262/114/114 292/115/115
f 258/116/116 292/115/115 262/114/114
f 453/30/30 449/117/117 434/28/28
f 449/117/117 453/30/30 452/118/118
f 2/32/32 452/118/118 453/30/30
f 452/118/118 2/32/32 12/119/119
f 18/120/120 12/119/119 2/32/32
f 12/119/119 18/120/120 16/121/121
f 4/34/34 16/121/121 18/120/120
f 16/121/121 4/34/34 10/122/122
f 8/123/123 10/122/122 4/34/34
f 10/122/122 8/123/123 24/124/124
f 22/125/125 24/124/124 8/123/123
f 24/124/124 22/125/125 136/126/126
f 134/127/127 136/126/126 22/125/125
f 136/126/126 134/127/127 301/128/128
f 289/129/129 301/128/128 134/127/127
f 301/128/128 289/129/129 285/130/130
f 299/131/131 285/130/130 289/129/129
f 285/130/130 299/131/131 283/132/132
f 162/133/133 221/134/134 224/135/135
f 221/134/134 162/133/133 318/136/136
f 320/137/137 318/136/136 162/133/133
f 318/136/136 320/137/137 235/138/138
f 231/139/139 235/138/138 320/137/137
f 235/138/138 231/139/139 238/140/140
f 183/141/141 238/140/140 231/139/139
f 238/140/140 183/141/141 341/142/142
f 340/143/143 341/142/142 183/141/141
f 341/142/142 340/143/143 112/144/144
f 107/145/145 112/144/144 340/143/143
f 112/144/144 107/145/145 374/146/146
f 373/147/147 374/146/146 107/145/145
f 374/146/146 373/147/147 371/148/148
f 372/149/149 371/148/148 373/147/147
f 371/148/148 372/149/149 409/150/150
f 375/151/151 409/150/150 372/149/149
f 80/3/3 39/22/22 41/24/24
f 39/22/22 80/3/3 82/152/152
f 70/2/2 82/152/152 80/3/3
f 82/152/152 70/2/2 78/153/153
f 68/4/4 78/153/153 70/2/2
f 78/153/153 68/4/4 76/154/154
f 66/6/6 76/154/154 68/4/4
f 76/154/154 66/6/6 74/155/155
f 72/156/156 74/155/155 66/6/6
f 74/155/155 72/156/156 84/157/157
f 46/158/158 84/157/157 72/156/156
f 84/157/157 46/158/158 94/159/159
f 48/160/160 94/159/159 46/158/158
f 94/159/159 48/160/160 35/161/161
f 29/162/162 35/161/161 48/160/160
f 35/161/161 29/162/162 31/18/18
f 331/163/163 242/52/52 228/164/164
f 242/52/52 331/163/163 333/165/165
f 244/166/166 333/165/165 331/163/163
f 333/165/165 244/166/166 328/167/167
f 269/168/168 328/167/167 244/166/166
f 328/167/167 269/168/168 338/169/169
f 360/170/170 338/169/169 269/168/168
f 338/169/169 360/170/170 283/132/132
f 359/171/171 283/132/132 360/170/170
f 283/132/132 359/171/171 287/172/172
f 265/173/173 287/172/172 359/171/171
f 287/172/172 265/173/173 327/174/174
f 326/175/175 327/174/174 265/173/173
f 327/174/174 326/175/175 314/176/176
f 307/177/177 314/176/176 326/175/175
f 314/176/176 307/177/177 344/178/178
f 362/179/179 429/180/180 399/181/181
f 429/180/180 362/179/179 387/182/182
f 386/183/183 387/182/182 362/179/179
f 387/182/182 386/183/183 388/184/184
f 389/185/185 388/184/184 386/183/183
f 388/184/184 389/185/185 390/186/186
f 426/187/187 390/186/186 389/185/185
f 390/186/186 426/187/187 427/188/188
f 428/189/189 427/188/188 426/187/187
f 427/188/188 428/189/189 393/190/190
f 425/191/191 393/190/190 428/189/189
f 393/190/190 425/191/191 391/192/192
f 421/193/193 391/192/192 425/191/191
f 113/194/194 187/98/98 189/195/195
f 187/98/98 113/194/194 175/96/96
f 116/196/196 175/96/96 113/194/194
f 175/96/96 116/196/196 73/100/100
f 77/197/197 73/100/100 116/196/196
f 73/100/100 77/197/197 240/102/102
f 290/198/198 240/102/102 77/197/197
f 240/102/102 290/198/198 234/104/104
f 288/199/199 234/104/104 290/198/198
f 234/104/104 288/199/199 296/106/106
f 254/200/200 296/106/106 288/199/199
f 296/106/106 254/200/200 220/201/201
f 154/202/202 124/203/203 108/204/204
f 124/203/203 154/202/202 189/195/195
f 178/205/205 189/195/195 154/202/202
f 189/195/195 178/205/205 113/194/194
f 180/206/206 113/194/194 178/205/205
f 113/194/194 180/206/206 111/207/207
f 170/208/208 111/207/207 180/206/206
f 111/207/207 170/208/208 161/209/209
f 126/210/210 161/209/209 170/208/208
f 161/209/209 126/210/210 122/211/211
f 146/212/212 106/213/213 143/214/214
f 106/213/213 146/212/212 108/204/204
f 152/215/215 108/204/204 146/212/212
f 108/204/204 152/215/215 154/202/202
f 156/216/216 154/202/202 152/215/215
f 154/202/202 156/216/216 159/217/217
f 167/218/218 159/217/217 156/216/216
f 159/217/217 167/218/218 170/208/208
f 101/219/219 170/208/208 167/218/218
f 170/208/208 101/219/219 126/210/210
f 303/220/220 301/128/128 285/130/130
f 301/128/128 303/220/220 136/126/126
f 138/221/221 136/126/126 303/220/220
f 136/126/126 138/221/221 24/124/124
f 30/222/222 24/124/124 138/221/221
f 24/124/124 30/222/222 28/223/223
f 466/224/224 28/223/223 30/222/222
f 28/223/223 466/224/224 465/225/225
f 460/226/226 465/225/225 466/224/224
f 465/225/225 460/226/226 462/227/227
f 317/58/58 251/54/54 353/56/56
f 251/54/54 317/58/58 322/228/228
f 321/229/229 322/228/228 317/58/58
f 322/228/228 321/229/229 145/230/230
f 61/231/231 145/230/230 321/229/229
f 145/230/230 61/231/231 415/232/232
f 414/233/233 415/232/232 61/231/231
f 415/232/232 414/233/233 417/234/234
f 451/235/235 417/234/234 414/233/233
f 420/236/236 401/237/237 397/238/238
f 401/237/237 420/236/236 419/239/239
f 365/240/240 419/239/239 420/236/236
f 419/239/239 365/240/240 57/241/241
f 364/62/62 57/241/241 365/240/240
f 57/241/241 364/62/62 438/242/242
f 439/243/243 438/242/242 364/62/62
f 438/242/242 439/243/243 411/244/244
f 413/245/245 411/244/244 439/243/243
f 241/246/246 164/247/247 229/248/248
f 164/247/247 241/246/246 210/249/249
f 179/250/250 210/249/249 241/246/246
f 210/249/249 179/250/250 206/251/251
f 355/252/252 206/251/251 179/250/250
f 206/251/251 355/252/252 212/253/253
f 356/254/254 212/253/253 355/252/252
f 212/253/253 356/254/254 149/255/255
f 153/256/256 149/255/255 356/254/254
f 129/257/257 125/81/81 40/83/83
f 125/81/81 129/257/257 263/258/258
f 310/259/259 263/258/258 129/257/257
f 263/258/258 310/259/259 323/260/260
f 325/261/261 323/260/260 310/259/259
f 323/260/260 325/261/261 273/262/262
f 275/263/263 273/262/262 325/261/261
f 273/262/262 275/263/263 271/77/77
f 278/75/75 271/77/77 275/263/263
f 384/264/264 386/183/183 408/265/265
f 386/183/183 384/264/264 389/185/185
f 381/266/266 389/185/185 384/264/264
f 389/185/185 381/266/266 437/267/267
f 383/268/268 437/267/267 381/266/266
f 437/267/267 383/268/268 100/269/269
f 102/270/270 100/269/269 383/268/268
f 100/269/269 102/270/270 194/271/271
f 441/272/272 59/31/31 430/27/27
f 59/31/31 441/272/272 51/273/273
f 368/274/274 51/273/273 441/272/272
f 51/273/273 368/274/274 443/275/275
f 370/276/276 443/275/275 368/274/274
f 443/275/275 370/276/276 53/277/277
f 392/278/278 53/277/277 370/276/276
f 53/277/277 392/278/278 422/279/279
f 95/280/280 81/281/281 99/282/282
f 81/281/281 95/280/280 104/283/283
f 148/284/284 104/283/283 95/280/280
f 104/283/283 148/284/284 139/285/285
f 143/214/214 139/285/285 148/284/284
f 139/285/285 143/214/214 141/286/286
f 106/213/213 141/286/286 143/214/214
f 141/286/286 106/213/213 165/287/287
f 466/224/224 131/288/288 460/226/226
f 131/288/288 466/224/224 312/289/289
f 30/222/222 312/289/289 466/224/224
f 312/289/289 30/222/222 147/290/290
f 138/221/221 147/290/290 30/222/222
f 147/290/290 138/221/221 347/291/291
f 303/220/220 347/291/291 138/221/221
f 347/291/291 303/220/220 305/292/292
f 164/247/247 162/133/133 226/293/293
f 162/133/133 164/247/247 219/294/294
f 208/295/295 219/294/294 164/247/247
f 219/294/294 208/295/295 354/296/296
f 201/297/297 354/296/296 208/295/295
f 354/296/296 201/297/297 199/298/298
f 191/299/299 199/298/298 201/297/297
f 199/298/298 191/299/299 185/300/300
f 36/36/36 8/123/123 4/34/34
f 8/123/123 36/36/36 20/301/301
f 32/302/302 20/301/301 36/36/36
f 20/301/301 32/302/302 142/303/303
f 140/40/40 142/303/303 32/302/302
f 142/303/303 140/40/40 291/304/304
f 261/305/305 291/304/304 140/40/40
f 291/304/304 261/305/305 299/131/131
f 287/172/172 285/130/130 283/132/132
f 285/130/130 287/172/172 303/220/220
f 327/174/174 303/220/220 287/172/172
f 303/220/220 327/174/174 305/292/292
f 314/176/176 305/292/292 327/174/174
f 305/292/292 314/176/176 346/306/306
f 344/178/178 346/306/306 314/176/176
f 346/306/306 344/178/178 131/288/288
f 1/10/10 7/12/12 52/8/8
f 52/8/8 7/12/12 13/307/307
f 15/308/308 13/307/307 7/12/12
f 13/307/307 15/308/308 21/309/309
f 23/310/310 21/309/309 15/308/308
f 21/309/309 23/310/310 29/162/162
f 25/16/16 29/162/162 23/310/310
f 29/162/162 25/16/16 31/18/18
f 230/311/311 268/113/113 292/115/115
f 268/113/113 230/311/311 270/111/111
f 272/312/312 270/111/111 230/311/311
f 270/111/111 272/312/312 284/109/109
f 280/313/313 284/109/109 272/312/312
f 284/109/109 280/313/313 282/314/314
f 232/315/315 282/314/314 280/313/313
f 282/314/314 232/315/315 252/316/316
f 361/317/317 362/179/179 396/318/318
f 362/179/179 361/317/317 363/319/319
f 402/320/320 363/319/319 361/317/317
f 363/319/319 402/320/320 408/265/265
f 385/321/321 408/265/265 402/320/320
f 408/265/265 385/321/321 384/264/264
f 379/322/322 384/264/264 385/321/321
f 384/264/264 379/322/322 381/266/266
f 5/25/25 3/11/11 33/9/9
f 3/11/11 5/25/25 9/13/13
f 11/323/323 9/13/13 5/25/25
f 9/13/13 11/323/323 19/15/15
f 56/21/21 19/15/15 11/323/323
f 19/15/15 56/21/21 27/17/17
f 58/19/19 27/17/17 56/21/21
f 306/324/324 237/103/103 309/325/325
f 237/103/103 306/324/324 298/101/101
f 304/326/326 298/101/101 306/324/324
f 298/101/101 304/326/326 173/99/99
f 182/327/327 173/99/99 304/326/326
f 173/99/99 182/327/327 184/97/97
f 192/328/328 184/97/97 182/327/327
f 283/132/132 281/48/48 338/169/169
f 281/48/48 283/132/132 297/46/46
f 299/131/131 297/46/46 283/132/132
f 297/46/46 299/131/131 259/44/44
f 261/305/305 259/44/44 299/131/131
f 259/44/44 261/305/305 257/42/42
f 140/40/40 257/42/42 261/305/305
f 155/329/329 203/330/330 157/331/331
f 203/330/330 155/329/329 214/332/332
f 217/333/333 214/332/332 155/329/329
f 214/332/332 217/333/333 171/334/334
f 174/335/335 171/334/334 217/333/333
f 171/334/334 174/335/335 176/336/336
f 179/250/250 176/336/336 174/335/335
f 81/281/281 120/337/337 99/282/282
f 120/337/337 81/281/281 83/338/338
f 85/339/339 83/338/338 81/281/281
f 83/338/338 85/339/339 87/340/340
f 91/341/341 87/340/340 85/339/339
f 87/340/340 91/341/341 89/342/342
f 93/343/343 89/342/342 91/341/341
f 12/119/119 449/117/117 452/118/118
f 449/117/117 12/119/119 49/344/344
f 14/345/345 49/344/344 12/119/119
f 49/344/344 14/345/345 42/346/346
f 47/347/347 42/346/346 14/345/345
f 42/346/346 47/347/347 44/348/348
f 462/227/227 44/348/348 47/347/347
f 262/114/114 256/349/349 258/116/116
f 256/349/349 262/114/114 260/350/350
f 264/351/351 260/350/350 262/114/114
f 260/350/350 264/351/351 209/352/352
f 202/353/353 209/352/352 264/351/351
f 209/352/352 202/353/353 205/354/354
f 200/355/355 205/354/354 202/353/353
f 326/175/175 324/356/356 307/177/177
f 324/356/356 326/175/175 315/357/357
f 265/173/173 315/357/357 326/175/175
f 315/357/357 265/173/173 267/358/358
f 269/168/168 267/358/358 265/173/173
f 267/358/358 269/168/168 244/166/166
f 289/129/129 291/304/304 299/131/131
f 291/304/304 289/129/129 142/303/303
f 134/127/127 142/303/303 289/129/129
f 142/303/303 134/127/127 20/301/301
f 22/125/125 20/301/301 134/127/127
f 20/301/301 22/125/125 8/123/123
f 444/359/359 445/39/39 38/37/37
f 445/39/39 444/359/359 123/41/41
f 121/360/360 123/41/41 444/359/359
f 123/41/41 121/360/360 255/43/43
f 158/361/361 255/43/43 121/360/360
f 255/43/43 158/361/361 204/362/362
f 199/298/298 320/137/137 354/296/296
f 320/137/137 199/298/298 233/363/363
f 185/300/300 233/363/363 199/298/298
f 233/363/363 185/300/300 181/364/364
f 339/365/365 181/364/364 185/300/300
f 181/364/364 339/365/365 183/141/141
f 373/147/147 375/151/151 372/149/149
f 375/151/151 373/147/147 109/366/366
f 107/145/145 109/366/366 373/147/147
f 109/366/366 107/145/145 339/365/365
f 340/143/143 339/365/365 107/145/145
f 339/365/365 340/143/143 183/141/141
f 91/341/341 128/367/367 93/343/343
f 128/367/367 91/341/341 133/368/368
f 137/369/369 133/368/368 91/341/341
f 133/368/368 137/369/369 135/370/370
f 139/285/285 135/370/370 137/369/369
f 135/370/370 139/285/285 141/286/286
f 37/20/20 35/161/161 31/18/18
f 35/161/161 37/20/20 96/371/371
f 92/372/372 96/371/371 37/20/20
f 96/371/371 92/372/372 90/373/373
f 82/152/152 90/373/373 92/372/372
f 90/373/373 82/152/152 78/153/153
f 52/8/8 72/156/156 66/6/6
f 72/156/156 52/8/8 50/374/374
f 13/307/307 50/374/374 52/8/8
f 50/374/374 13/307/307 46/158/158
f 21/309/309 46/158/158 13/307/307
f 46/158/158 21/309/309 29/162/162
f 369/375/375 393/190/190 391/192/192
f 393/190/190 369/375/375 366/376/376
f 367/377/377 366/376/376 369/375/375
f 366/376/376 367/377/377 431/378/378
f 440/379/379 431/378/378 367/377/377
f 431/378/378 440/379/379 429/180/180
f 385/321/321 375/151/151 379/322/322
f 375/151/151 385/321/321 409/150/150
f 402/320/320 409/150/150 385/321/321
f 409/150/150 402/320/320 403/380/380
f 404/381/381 403/380/380 402/320/320
f 403/380/380 404/381/381 410/382/382
f 47/347/347 465/225/225 462/227/227
f 465/225/225 47/347/347 26/383/383
f 14/345/345 26/383/383 47/347/347
f 26/383/383 14/345/345 10/122/122
f 16/121/121 10/122/122 14/345/345
f 366/376/376 427/188/188 393/190/190
f 427/188/188 366/376/376 432/384/384
f 431/378/378 432/384/384 366/376/376
f 432/384/384 431/378/378 388/184/184
f 387/182/182 388/184/184 431/378/378
f 174/335/335 355/252/252 179/250/250
f 355/252/252 174/335/335 356/254/254
f 217/333/333 356/254/254 174/335/335
f 356/254/254 217/333/333 153/256/256
f 155/329/329 153/256/256 217/333/333
f 172/385/385 295/45/45 215/386/386
f 295/45/45 172/385/385 253/47/47
f 177/387/387 253/47/47 172/385/385
f 253/47/47 177/387/387 334/49/49
f 336/51/51 334/49/49 177/387/387
f 463/388/388 63/88/88 45/86/86
f 63/88/88 463/388/388 65/90/90
f 461/389/389 65/90/90 463/388/388
f 65/90/90 461/389/389 67/92/92
f 132/94/94 67/92/92 461/389/389
f 110/390/390 377/391/391 376/392/392
f 377/391/391 110/390/390 105/393/393
f 188/394/394 105/393/393 110/390/390
f 105/393/393 188/394/394 103/395/395
f 193/396/396 103/395/395 188/394/394
f 266/112/112 264/351/351 262/114/114
f 264/351/351 266/112/112 223/397/397
f 274/110/110 223/397/397 266/112/112
f 223/397/397 274/110/110 213/398/398
f 277/399/399 213/398/398 274/110/110
f 201/297/297 197/400/400 191/299/299
f 197/400/400 201/297/297 160/401/401
f 208/295/295 160/401/401 201/297/297
f 160/401/401 208/295/295 206/251/251
f 210/249/249 206/251/251 208/295/295
f 416/402/402 447/82/82 357/80/80
f 447/82/82 416/402/402 448/403/403
f 418/404/404 448/403/403 416/402/402
f 448/403/403 418/404/404 457/405/405
f 450/406/406 457/405/405 418/404/404
f 405/407/407 438/242/242 411/244/244
f 438/242/242 405/407/407 57/241/241
f 407/408/408 57/241/241 405/407/407
f 57/241/241 407/408/408 401/237/237
f 464/87/87 40/83/83 55/85/85
f 40/83/83 464/87/87 129/257/257
f 459/89/89 129/257/257 464/87/87
f 129/257/257 459/89/89 127/91/91
f 168/409/409 322/228/228 145/230/230
f 322/228/228 168/409/409 329/410/410
f 248/411/411 329/410/410 168/409/409
f 329/410/410 248/411/411 246/412/412
f 309/325/325 282/314/314 252/316/316
f 282/314/314 309/325/325 300/413/413
f 237/103/103 300/413/413 309/325/325
f 300/413/413 237/103/103 302/105/105
f 148/284/284 156/216/216 143/214/214
f 156/216/216 148/284/284 167/218/218
f 97/414/414 167/218/218 148/284/284
f 167/218/218 97/414/414 101/219/219
f 112/144/144 114/415/415 341/142/142
f 114/415/415 112/144/144 412/416/416
f 374/146/146 412/416/416 112/144/144
f 412/416/416 374/146/146 371/148/148
f 310/259/259 71/417/417 325/261/261
f 71/417/417 310/259/259 343/418/418
f 129/257/257 343/418/418 310/259/259
f 343/418/418 129/257/257 127/91/91
f 53/277/277 38/37/37 34/35/35
f 38/37/37 53/277/277 444/359/359
f 422/279/279 444/359/359 53/277/277
f 444/359/359 422/279/279 424/419/419
f 96/371/371 94/159/159 35/161/161
f 94/159/159 96/371/371 88/420/420
f 90/373/373 88/420/420 96/371/371
f 88/420/420 90/373/373 78/153/153
f 49/344/344 458/421/421 449/117/117
f 458/421/421 49/344/344 456/422/422
f 42/346/346 456/422/422 49/344/344
f 456/422/422 42/346/346 44/348/348
f 76/154/154 88/420/420 78/153/153
f 88/420/420 76/154/154 86/423/423
f 74/155/155 86/423/423 76/154/154
f 86/423/423 74/155/155 84/157/157
f 111/207/207 116/196/196 113/194/194
f 116/196/196 111/207/207 163/424/424
f 161/209/209 163/424/424 111/207/207
f 163/424/424 161/209/209 122/211/211
f 448/403/403 454/84/84 447/82/82
f 454/84/84 448/403/403 455/425/425
f 457/405/405 455/425/425 448/403/403
f 250/426/426 290/198/198 77/197/197
f 290/198/198 250/426/426 288/199/199
f 254/200/200 288/199/199 250/426/426
f 17/14/14 15/308/308 7/12/12
f 15/308/308 17/14/14 23/310/310
f 25/16/16 23/310/310 17/14/14
f 166/59/59 117/63/63 119/61/61
f 117/63/63 166/59/59 349/67/67
f 350/69/69 349/67/67 166/59/59
f 347/291/291 312/289/289 147/290/290
f 312/289/289 347/291/291 346/306/306
f 305/292/292 346/306/306 347/291/291
f 420/236/236 61/231/231 365/240/240
f 61/231/231 420/236/236 414/233/233
f 433/427/427 414/233/233 420/236/236
f 365/240/240 316/60/60 364/62/62
f 316/60/60 365/240/240 321/229/229
f 61/231/231 321/229/229 365/240/240
f 377/391/391 378/428/428 376/392/392
f 378/428/428 377/391/391 380/429/429
f 382/430/430 380/429/429 377/391/391
f 198/431/431 247/432/432 200/355/355
f 247/432/432 198/431/431 218/433/433
f 213/398/398 218/433/433 198/431/431
f 198/431/431 264/351/351 223/397/397
f 264/351/351 198/431/431 202/353/353
f 200/355/355 202/353/353 198/431/431
f 442/64/64 439/243/243 364/62/62
f 439/243/243 442/64/64 413/245/245
f 115/66/66 413/245/245 442/64/64
f 71/417/417 308/434/434 325/261/261
f 308/434/434 71/417/417 345/95/95
f 69/93/93 345/95/95 71/417/417
f 233/363/363 231/139/139 320/137/137
f 231/139/139 233/363/363 183/141/141
f 181/364/364 183/141/141 233/363/363
f 338/169/169 333/165/165 328/167/167
f 333/165/165 338/169/169 337/50/50
f 281/48/48 337/50/50 338/169/169
f 135/370/370 128/367/367 133/368/368
f 128/367/367 135/370/370 130/435/435
f 165/287/287 130/435/435 135/370/370
f 182/327/327 79/436/436 192/328/328
f 79/436/436 182/327/327 311/437/437
f 304/326/326 311/437/437 182/327/327
f 137/369/369 104/283/283 139/285/285
f 104/283/283 137/369/369 81/281/281
f 85/339/339 81/281/281 137/369/369
f 273/262/262 263/258/258 323/260/260
f 263/258/258 273/262/262 358/79/79
f 271/77/77 358/79/79 273/262/262
f 371/148/148 410/382/382 412/416/416
f 410/382/382 371/148/148 403/380/380
f 409/150/150 403/380/380 371/148/148
f 150/438/438 148/284/284 95/280/280
f 148/284/284 150/438/438 97/414/414
f 146/212/212 156/216/216 152/215/215
f 156/216/216 146/212/212 143/214/214
f 163/424/424 77/197/197 116/196/196
f 77/197/197 163/424/424 122/211/211
f 180/206/206 159/217/217 170/208/208
f 159/217/217 180/206/206 178/205/205
f 75/439/439 77/197/197 122/211/211
f 77/197/197 75/439/439 250/426/426
f 232/315/315 272/312/312 230/311/311
f 272/312/312 232/315/315 280/313/313
f 207/440/440 209/352/352 205/354/354
f 209/352/352 207/440/440 211/441/441
f 274/110/110 216/442/442 277/399/399
f 216/442/442 274/110/110 294/108/108
f 282/314/314 286/107/107 284/109/109
f 286/107/107 282/314/314 300/413/413
f 256/349/349 209/352/352 211/441/441
f 209/352/352 256/349/349 260/350/350
f 220/201/201 294/108/108 296/106/106
f 294/108/108 220/201/201 216/442/442
f 69/93/93 343/418/418 127/91/91
f 343/418/418 69/93/93 71/417/417
f 186/443/443 188/394/394 110/390/390
f 188/394/394 186/443/443 190/444/444
f 103/395/395 377/391/391 105/393/393
f 377/391/391 103/395/395 382/430/430
f 196/445/445 188/394/394 190/444/444
f 188/394/394 196/445/445 193/396/396
f 64/1/1 41/24/24 43/26/26
f 41/24/24 64/1/1 80/3/3
f 54/23/23 11/323/323 5/25/25
f 11/323/323 54/23/23 56/21/21
f 82/152/152 37/20/20 39/22/22
f 37/20/20 82/152/152 92/372/372
f 86/423/423 94/159/159 88/420/420
f 94/159/159 86/423/423 84/157/157
f 432/384/384 390/186/186 427/188/188
f 390/186/186 432/384/384 388/184/184
f 406/446/446 402/320/320 361/317/317
f 402/320/320 406/446/446 404/381/381
f 329/410/410 251/54/54 322/228/228
f 251/54/54 329/410/410 330/447/447
f 276/448/448 315/357/357 267/358/358
f 315/357/357 276/448/448 324/356/356
f 279/449/449 267/358/358 244/166/166
f 267/358/358 279/449/449 276/448/448
f 194/271/271 293/450/450 100/269/269
f 293/450/450 194/271/271 197/400/400
f 363/319/319 386/183/183 362/179/179
f 386/183/183 363/319/319 408/265/265
f 424/419/419 121/360/360 444/359/359
f 121/360/360 424/419/419 98/451/451
f 204/362/362 295/45/45 255/43/43
f 295/45/45 204/362/362 215/386/386
f 443/275/275 34/35/35 6/33/33
f 34/35/35 443/275/275 53/277/277
f 51/273/273 6/33/33 59/31/31
f 6/33/33 51/273/273 443/275/275
f 212/253/253 160/401/401 206/251/251
f 160/401/401 212/253/253 149/255/255
f 219/294/294 320/137/137 162/133/133
f 320/137/137 219/294/294 354/296/296
f 400/452/452 361/317/317 394/453/453
f 361/317/317 400/452/452 406/446/446
f 335/454/454 179/250/250 241/246/246
f 179/250/250 335/454/454 176/336/336
f 351/71/71 166/59/59 352/57/57
f 166/59/59 351/71/71 350/69/69
f 184/97/97 118/455/455 187/98/98
f 118/455/455 184/97/97 192/328/328
f 304/326/326 243/456/456 311/437/437
f 243/456/456 304/326/326 306/324/324
f 359/171/171 269/168/168 265/173/173
f 269/168/168 359/171/171 360/170/170
f 144/457/457 357/80/80 169/78/78
f 357/80/80 144/457/457 416/402/402
f 436/458/458 389/185/185 437/267/267
f 389/185/185 436/458/458 426/187/187
f 446/38/38 32/302/302 36/36/36
f 32/302/302 446/38/38 140/40/40
f 24/124/124 26/383/383 10/122/122
f 26/383/383 24/124/124 28/223/223
f 151/459/459 160/401/401 149/255/255
f 160/401/401 151/459/459 293/450/450
f 165/287/287 135/370/370 141/286/286
f 431/378/378 429/180/180 387/182/182
f 137/369/369 91/341/341 85/339/339
f 421/193/193 425/191/191 423/460/460
f 62/5/5 33/9/9 60/7/7
f 454/84/84 455/425/425 45/86/86
f 117/63/63 349/67/67 348/65/65
f 313/461/461 243/456/456 309/325/325
f 252/316/316 313/461/461 309/325/325
f 160/401/401 293/450/450 197/400/400
f 195/462/462 189/195/195 118/455/455
f 29/162/162 48/160/160 46/158/158
f 72/156/156 50/374/374 46/158/158
f 124/203/203 189/195/195 195/462/462
f 309/325/325 243/456/456 306/324/324
f 189/195/195 187/98/98 118/455/455
f 433/427/427 420/236/236 395/463/463
f 358/79/79 125/81/81 263/258/258
f 2/32/32 4/34/34 18/120/120
f 317/58/58 316/60/60 321/229/229
f 346/306/306 131/288/288 312/289/289
f 242/52/52 333/165/165 337/50/50
f 286/107/107 300/413/413 302/105/105
f 26/383/383 28/223/223 465/225/225
f 159/217/217 178/205/205 154/202/202
f 158/361/361 121/360/360 98/451/451
f 330/447/447 225/464/464 251/54/54
f 57/241/241 401/237/237 419/239/239
f 12/119/119 16/121/121 14/345/345
f 208/295/295 164/247/247 210/249/249
f 213/398/398 198/431/431 223/397/397
f 451/235/235 414/233/233 435/465/465
f 339/365/365 185/300/300 109/366/366
f 246/412/412 332/466/466 329/410/410
