<?xml version="1.0"?>
<COLLADA xmlns="http://www.collada.org/2005/11/COLLADASchema" version="1.4.1">
    <asset>
        <contributor>
            <authoring_tool>J3D Ripoff Exporter</authoring_tool>
        </contributor>
        <created>2024-08-02T13:57:19.837Z</created>
        <modified>2024-08-02T13:57:19.837Z</modified>
		<unit meter="0.01" name="centimeter" ></unit>
        <up_axis>Y_UP</up_axis>
    </asset>
    <library_images>
        <image id="tex0">
            <init_from>donkey_all.png</init_from>
        </image>
    </library_images>
    <library_effects>
        <effect id="effect0">
            <profile_COMMON>
                <newparam sid="surface0">
                    <surface type="2D">
                        <init_from>tex0</init_from>
                    </surface>
                </newparam>
                <newparam sid="sampler0">
                    <sampler2D>
                        <source>surface0</source>
                    </sampler2D>
                </newparam>
                <technique sid="COMMON">
                    <blinn>
                        <diffuse>
                            <texture texture="sampler0" texcoord="UVSET0"></texture>
                        </diffuse>
                    </blinn>
                </technique>
            </profile_COMMON>
        </effect>
    </library_effects>
    <library_materials>
        <material id="mat0" name="Dummy">
            <instance_effect url="#effect0"></instance_effect>
        </material>
    </library_materials>
    <library_geometries>
        <geometry id="mesh0">
            <mesh>
                <source id="points0">
                    <float_array id="pointarray0" count="1206">17.59375 24.44140625 0 17.578125 19.08984375 -6.9921875 19.33203125 23.05078125 -15.671875 19.578125 18.796875 -16.3125 27.5625 18.61328125 -19.3984375 20.18359375 14.66796875 -13.8125 27.13671875 15.63671875 -16.3125 25.984375 13.09765625 -7.00390625 36.22265625 15.73046875 -6.55859375 26.1875 14.76171875 0 35.74609375 16.96875 0 25.984375 13.09765625 7.00390625 36.22265625 15.73046875 6.55859375 27.13671875 15.63671875 16.3125 36.78515625 18.91015625 15.640625 27.5625 18.61328125 19.3984375 36.04296875 21.96875 18.8984375 26.7578125 23.85546875 18.60546875 34.640625 25.828125 18.140625 26.23828125 25.125 12.734375 33.70703125 26.6015625 12.19921875 25.80859375 25.79296875 0 33.078125 26.83203125 0 26.23828125 25.125 -12.734375 33.6015625 26.7421875 -12.19921875 26.7578125 23.85546875 -18.60546875 34.640625 25.828125 -18.140625 36.04296875 21.96875 -18.8984375 44.03515625 26.68359375 -16.19921875 36.78515625 18.91015625 -15.640625 45.4921875 23.609375 -13.18359375 45.62109375 21.703125 -5.3828125 49.43359375 28.796875 -8.4765625 50.375 31.828125 0 46.953125 32.4296875 -10.14453125 48.92578125 36.07421875 0 43.30859375 33.15234375 -9.71875 44.8515625 35.671875 0 39.515625 29.7578125 -10.26953125 38.015625 29.06640625 0 39.5546875 29.765625 10.26953125 32.953125 9.2890625 29.16015625 31.26171875 10.15234375 30.86328125 32.5625 12.5625 29.77734375 31.25390625 12.55859375 31.13671875 35.03515625 16.83203125 29.0390625 33.7109375 18.63671875 29.77734375 40.18359375 22.78125 27.57421875 39.234375 23.8984375 27.6171875 44.48828125 27.3203125 23.7734375 30.69140625 32.5703125 25.96484375 39.8828125 34.90234375 21.453125 35.4375 38.9296875 19.671875 47.1875 37.51953125 11.65234375 41.91015625 40.8515625 10.98046875 44 41.81640625 0 33.87890625 44.36328125 0 41.91015625 40.8515625 -10.98046875 33.1875 42.83984375 -10.9609375 35.4375 38.9296875 -19.671875 23.30078125 36.125 -21.984375 30.69140625 32.5703125 -25.96484375 17.60546875 26.921875 -27.1015625 23.57421875 25.32421875 -29.3125 15.11328125 18.60546875 -29.54296875 22.08203125 17.81640625 -31.35546875 20.94921875 9.76953125 -31.0078125 28.09375 11.140625 -31.8359375 36.37109375 -27.62890625 -7.83984375 39.484375 -26.57421875 -4.77734375 42.53515625 -25.296875 -5.7890625 43.4140625 -24.390625 0 44.8203125 -20.6171875 0 42.53515625 -25.296875 5.7890625 44.171875 -21.3984375 6.8359375 39.3671875 -27.44140625 10.390625 41.703125 -23.10546875 12.26953125 37.8125 -25.21875 16.33984375 36.59375 -20.22265625 16.3359375 33.90234375 -26.1015625 19.13671875 32.5625 -21.2421875 19.5078125 30.390625 -26.2421875 21.109375 27.75390625 -20.25 21.08984375 24.1328125 -24.26953125 23.19140625 27.0078125 -15.9140625 23.296875 20.78125 -20.75 23.27734375 23.53125 -14.609375 24.1796875 20.9453125 -18.265625 22.8203125 22.41796875 -13.84765625 22.90625 40.25390625 11.25390625 27.75 40.41796875 9.6796875 27.87109375 47.53125 11.546875 25.78515625 47.84375 9.72265625 25.3359375 55.5546875 10.73046875 21.078125 55.30078125 8.82421875 20.7265625 61.19921875 10.06640625 14.85546875 60.9765625 7.7734375 14.39453125 64.4375 9.29296875 7.3515625 64.1015625 7.125 7.16015625 65.4296875 7.15625 0 62.9609375 6.27734375 0 64.1015625 7.125 -7.16015625 61.5625 6.3359375 -6.26171875 60.9765625 7.7734375 -14.39453125 58.94921875 6.79296875 -13.42578125 54.015625 7.78515625 -19.73828125 57.52734375 6.0859375 -11.546875 45.6171875 23.92578125 24.2265625 45.28515625 25.84375 24.42578125 51.62109375 28.7265625 19.578125 49.78515625 29.9765625 17.484375 56.02734375 30.26953125 13.2578125 54.1796875 31.3984375 11.5546875 58.71875 31.21484375 6.515625 56.10546875 32.05859375 5.2578125 59.44921875 31.37890625 0 57.00390625 32.28125 0 56.10546875 32.05859375 -5.2578125 50.4453125 38.3828125 0 47.1875 37.51953125 -11.65234375 9.82421875 19.0859375 -25.32421875 12.1953125 29.375 -22.8515625 5.984375 19.7421875 -17.58203125 9.6796875 30.81640625 -15.1484375 8.49609375 31.78515625 0 14.42578125 39.21875 0 9.6796875 30.81640625 15.1484375 16.3984375 37.390625 13.32421875 12.1953125 29.375 22.8515625 23.30078125 36.125 21.984375 17.60546875 26.921875 27.1015625 23.57421875 25.32421875 29.3125 29.0859375 24.34375 30.3203125 27.55859375 16.9296875 31.75 18.72265625 -25.2890625 -21.1875 20.6015625 -28.51171875 -17.38671875 24.08984375 -28.74609375 -20.84375 28.24609375 -30.4375 -18.8203125 30.390625 -26.2421875 -21.109375 32.41796875 -30.390625 -16.41796875 33.90234375 -26.1015625 -19.13671875 35.6484375 -29.48828125 -13.7109375 37.8125 -25.21875 -16.33984375 39.3671875 -27.44140625 -10.390625 41.703125 -23.10546875 -12.26953125 44.171875 -21.3984375 -6.8359375 42.94921875 -16.73828125 -6.60546875 43.50390625 -16 0 39.7421875 -15.54296875 -5.62890625 40.7578125 -14.88671875 0 51.984375 7.5078125 -19.08984375 47.04296875 8.56640625 -23.67578125 44.33984375 1.90625 -20.39453125 39.50390625 3.44140625 -25.42578125 38.39453125 0.4765625 -23.26953125 32.953125 0.1484375 -26.4296875 36.87890625 -1.5078125 -18.34375 30.8984375 -1.47265625 -21.9375 25.1875 1.20703125 -18.46875 24.71875 -0.53125 -24.9140625 15.05859375 4.62890625 -20.38671875 15.703125 4.51953125 -25.60546875 10.06640625 6.63671875 -18.99609375 11.38671875 9.58984375 -24.46484375 7.2578125 10.8984375 -18.578125 31.99609375 -29.078125 -11.078125 42.94921875 -16.73828125 6.60546875 40.4453125 -18.375 12.19140625 37.61328125 -16.90625 10.7109375 34.08203125 -19.0859375 14.46875 43.30859375 33.15234375 9.71875 40.95703125 29.359375 15.5625 46.9296875 32.37890625 10.14453125 44.03515625 26.68359375 16.19921875 45.4921875 23.609375 13.18359375 45.62109375 21.703125 5.3828125 43.95703125 22.359375 0 54.63671875 26.94140625 11.91015625 50.7109375 25.7890625 17.72265625 51.84765625 26.69140625 19.33203125 44.90625 23.3359375 22.58203125 39.890625 20.75 25.359375 40.96875 21.1328125 27.15625 35.2265625 16.37109375 26.87890625 32.9140625 12.1328125 27.40625 33.21875 9.11328125 26.578125 32.953125 9.2890625 -29.16015625 35.6640625 7.6640625 -28.5625 40.41796875 9.6796875 -27.87109375 40.0234375 8.4765625 -26.734375 47.84375 9.72265625 -25.3359375 50.27734375 -0.5390625 -12.11328125 43.890625 -3.84765625 -12.3984375 40.25390625 11.25390625 -27.75 47.53125 11.546875 -25.78515625 46.66796875 11.94140625 -23.51953125 55.5546875 10.73046875 -21.078125 53.62109375 11.54296875 -18.890625 61.19921875 10.06640625 -14.85546875 59.12109375 10.875 -14.01171875 64.4375 9.29296875 -7.3515625 62.3125 10.23046875 -6.90234375 65.77734375 9.11328125 0 63.453125 10.140625 0 62.3125 10.23046875 6.90234375 35.6640625 7.6640625 28.5625 40.0234375 8.4765625 26.734375 39.50390625 3.44140625 25.42578125 47.04296875 8.56640625 23.67578125 44.33984375 1.90625 20.39453125 51.984375 7.5078125 19.08984375 57.52734375 6.0859375 11.546875 54.015625 7.78515625 19.73828125 58.94921875 6.79296875 13.42578125 24.1328125 -24.26953125 -23.19140625 27.75390625 -20.25 -21.08984375 27.0078125 -15.9140625 -23.296875 27.94921875 -15.51953125 -21.06640625 28.7890625 -10.0859375 -22.046875 31.5625 -6.796875 -18.76953125 31.42578125 -5.703125 -20.25 36.26953125 -1.07421875 -15.3828125 34.9609375 -0.1484375 -16.8984375 21.4609375 24.48046875 -10.76171875 21.4609375 24.48046875 10.76171875 19.33203125 23.05078125 15.671875 44.90625 23.3359375 -22.58203125 50.7109375 25.7890625 -17.72265625 51.84765625 26.69140625 -19.33203125 54.63671875 26.94140625 -11.91015625 56.50390625 28.0390625 -13.0859375 56.37890625 27.65625 -5.8125 59.08984375 28.671875 -6.4453125 57.1640625 27.77734375 0 59.953125 28.9140625 0 59.08984375 28.671875 6.4453125 39.8828125 34.90234375 -21.453125 49.78515625 29.9765625 -17.484375 44.48828125 27.3203125 -23.7734375 51.62109375 28.7265625 -19.578125 45.28515625 25.84375 -24.42578125 45.6171875 23.92578125 -24.2265625 17.578125 19.08984375 6.9921875 17.140625 23.1328125 0 18.97265625 14.8359375 0 18.9453125 13.86328125 -6.7734375 34.80078125 4.7265625 28.765625 32.953125 0.1484375 26.4296875 38.39453125 0.4765625 23.26953125 36.87890625 -1.5078125 18.34375 43.890625 -3.84765625 12.3984375 50.27734375 -0.5390625 12.11328125 56.50390625 28.0390625 13.0859375 18.72265625 -25.2890625 21.1875 24.08984375 -28.74609375 20.84375 28.24609375 -30.4375 18.8203125 32.41796875 -30.390625 16.41796875 20.6015625 -28.51171875 17.38671875 25.83984375 -27.34765625 13.98828125 35.2265625 16.37109375 -26.87890625 32.9140625 12.1328125 -27.40625 24.94140625 19.671875 -22.10546875 27.06640625 9.80859375 -20.375 20.5390625 20.12890625 0 23.6015625 8.0625 0 27.06640625 9.80859375 20.375 33.3515625 6.70703125 19.0390625 40.0390625 11.26953125 25.5078125 30.52734375 5.125 30.39453125 27.81640625 0.90234375 29.08984375 22.453125 3.6953125 30.30078125 24.71875 -0.53125 24.9140625 15.703125 4.51953125 25.60546875 15.05859375 4.62890625 20.38671875 10.06640625 6.63671875 18.99609375 40.95703125 29.359375 -15.5625 31.99609375 -29.078125 11.078125 36.37109375 -27.62890625 7.83984375 39.484375 -26.57421875 4.77734375 39.9375 -25.8125 0 38.35546875 -24.03515625 -4.27734375 24.9296875 -8.30078125 21.6796875 26.28515625 -8.59375 22.9765625 28.7890625 -10.0859375 22.046875 29.56640625 -4.47265625 20.83203125 31.42578125 -5.703125 20.25 34.9609375 -0.1484375 16.8984375 36.26953125 -1.07421875 15.3828125 24.94140625 19.671875 22.10546875 32.015625 27.1171875 20.3828125 27.93359375 29.86328125 0 39.70703125 33.8515625 0 32.015625 27.1171875 -20.3828125 44.9296875 30.28515625 -12.81640625 44.9296875 30.28515625 12.81640625 50.05859375 31.671875 0 60.77734375 5.3984375 0 61.5625 6.3359375 6.26171875 28.09375 11.140625 31.8359375 23.53125 -14.609375 -24.1796875 26.28515625 -8.59375 -22.9765625 24.9296875 -8.30078125 -21.6796875 29.56640625 -4.47265625 -20.83203125 27.7734375 -4.3203125 -19.46875 32.21484375 -0.0703125 -14.72265625 51.1796875 -2.40625 5.89453125 51.45703125 -3.24609375 0 44.6015625 -7.21484375 0 51.1796875 -2.40625 -5.89453125 44.48828125 -6.375 -5.61328125 32.5625 12.5625 -29.77734375 31.26171875 10.15234375 -30.86328125 31.25390625 12.55859375 -31.13671875 27.55859375 16.9296875 -31.75 33.21875 9.11328125 -26.578125 33.3515625 6.70703125 -19.0390625 31.21875 3.34765625 0 44.19921875 4.65625 14.703125 39.890625 20.75 -25.359375 56.02734375 30.26953125 -13.2578125 54.1796875 31.3984375 -11.5546875 35.03515625 16.83203125 -29.0390625 33.7109375 18.63671875 -29.77734375 29.0859375 24.34375 -30.3203125 21.7265625 41.17578125 11.7265625 21.375 42.9296875 0 21.7265625 41.17578125 -11.7265625 15.07421875 9.72265625 -29.35546875 22.453125 3.6953125 -30.30078125 30.52734375 5.125 -30.39453125 27.81640625 0.90234375 -29.08984375 34.80078125 4.7265625 -28.765625 20.78125 -20.75 -23.27734375 20.9453125 -18.265625 -22.8203125 22.41796875 -13.84765625 -22.90625 39.234375 23.8984375 -27.6171875 40.18359375 22.78125 -27.57421875 40.96875 21.1328125 -27.15625 56.37890625 27.65625 5.8125 20.18359375 14.66796875 13.8125 18.9453125 13.86328125 6.7734375 19.578125 18.796875 16.3125 36.59375 -20.22265625 -16.3359375 40.4453125 -18.375 -12.19140625 27.94921875 -15.51953125 21.06640625 27.82421875 -15.43359375 19.27734375 27.21484375 -19.62890625 18.83984375 40.0390625 11.26953125 -25.5078125 44.19921875 4.65625 -14.703125 53.3984375 4.609375 0 43.46875 2.0703125 0 55.30078125 8.82421875 -20.7265625 35.6484375 -29.48828125 13.7109375 58.71875 31.21484375 -6.515625 32.21484375 0.55078125 -14.72265625 38.80859375 -2.46484375 -9.390625 40.40234375 -5.93359375 0 44.48828125 -6.375 5.61328125 38.80859375 -2.46484375 9.390625 32.5625 -21.2421875 -19.5078125 34.08203125 -19.0859375 -14.46875 37.61328125 -16.90625 -10.7109375 33.1875 42.83984375 10.9609375 46.66796875 11.94140625 23.51953125 53.62109375 11.54296875 18.890625 59.12109375 10.875 14.01171875 16.3984375 37.390625 -13.32421875 49.43359375 28.796875 8.4765625 11.38671875 9.58984375 24.46484375 7.2578125 10.8984375 18.578125 9.82421875 19.0859375 25.32421875 5.984375 19.7421875 17.58203125 20.94921875 9.76953125 31.0078125 25.1875 1.20703125 18.46875 30.8984375 -1.47265625 21.9375 15.11328125 18.60546875 29.54296875 15.07421875 9.72265625 29.35546875 22.08203125 17.81640625 31.35546875 6.55859375 10.53125 8.8828125 4.5625 20.19140625 0 35.07421875 -1.19921875 12.94140625 30.640625 -6.8125 17.578125 31.5625 -6.796875 18.76953125 4.66015625 12.00390625 0 6.55859375 10.53125 -8.8828125 25.83984375 -27.34765625 -13.98828125 30.640625 -6.8125 -17.578125 27.82421875 -15.43359375 -19.27734375 31.01953125 -20.078125 -16.5234375 32.21484375 0.55078125 14.72265625 34.92578125 -25.10546875 -7.31640625 38.35546875 -24.03515625 4.27734375 34.92578125 -25.10546875 7.31640625 27.21484375 -19.62890625 -18.83984375 35.07421875 -1.19921875 -12.94140625 31.01953125 -20.078125 16.5234375 27.7734375 -4.3203125 19.46875 39.7421875 -15.54296875 5.62890625 32.21484375 -0.0703125 14.72265625 39.21484375 -23.21484375 0 31.67578125 -26.140625 -10.265625 31.67578125 -26.140625 10.265625</float_array>
                    <technique_common>
                        <accessor count="402" source="#pointarray0" stride="3">
                            <param name="X" type="float"/>
                            <param name="Y" type="float"/>
                            <param name="Z" type="float"/>
                        </accessor>
                    </technique_common>
                </source>
                <source id="uvs0">
                    <float_array id="uvarray0" count="562">0.5614013671875 0.33026123046875 0.541748046875 0.33074951171875 0.51727294921875 0.32635498046875 0.5155029296875 0.32666015625 0.50677490234375 0.31475830078125 0.52252197265625 0.325439453125 0.5155029296875 0.31475830078125 0.54815673828125 0.31884765625 0.54730224609375 0.307373046875 0.5614013671875 0.32135009765625 0.5614013671875 0.30865478515625 0.57470703125 0.31884765625 0.5755615234375 0.307373046875 0.60736083984375 0.31475830078125 0.60546875 0.30535888671875 0.61602783203125 0.31475830078125 0.6146240234375 0.30535888671875 0.61383056640625 0.31475830078125 0.61248779296875 0.30535888671875 0.5972900390625 0.31475830078125 0.59576416015625 0.30535888671875 0.5614013671875 0.31475830078125 0.5614013671875 0.30535888671875 0.52557373046875 0.31475830078125 0.52703857421875 0.30535888671875 0.509033203125 0.31475830078125 0.51031494140625 0.30535888671875 0.50823974609375 0.30535888671875 0.5096435546875 0.2958984375 0.51739501953125 0.30535888671875 0.519287109375 0.2958984375 0.54644775390625 0.2958984375 0.53009033203125 0.2794189453125 0.5614013671875 0.26837158203125 0.52386474609375 0.26953125 0.5614013671875 0.25616455078125 0.52545166015625 0.27203369140625 0.5614013671875 0.25927734375 0.528564453125 0.2958984375 0.5614013671875 0.2958984375 0.59423828125 0.2958984375 0.4979248046875 0.4658203125 0.4879150390625 0.4620361328125 0.49835205078125 0.451171875 0.4833984375 0.4481201171875 0.49835205078125 0.4371337890625 0.47900390625 0.43548583984375 0.4703369140625 0.40557861328125 0.457763671875 0.40869140625 0.4124755859375 0.38262939453125 0.42498779296875 0.41802978515625 0.38433837890625 0.397216796875 0.3656005859375 0.40765380859375 0.317138671875 0.37744140625 0.3104248046875 0.39202880859375 0.254150390625 0.3896484375 0.254150390625 0.40826416015625 0.3125 0.41180419921875 0.3721923828125 0.42950439453125 0.41900634765625 0.444091796875 0.45623779296875 0.44097900390625 0.43463134765625 0.4617919921875 0.46270751953125 0.451416015625 0.46917724609375 0.4617919921875 0.4775390625 0.45941162109375 0.6519775390625 0.94622802734375 0.58404541015625 0.92919921875 0.5855712890625 0.9202880859375 0.5062255859375 0.9105224609375 0.5062255859375 0.89617919921875 0.58746337890625 0.9041748046875 0.654541015625 0.93353271484375 0.65753173828125 0.91253662109375 0.724609375 0.92144775390625 0.729248046875 0.87921142578125 0.80657958984375 0.9302978515625 0.8026123046875 0.88812255859375 0.86248779296875 0.92919921875 0.8812255859375 0.88751220703125 0.94708251953125 0.91668701171875 0.9124755859375 0.8375244140625 0.97705078125 0.89483642578125 0.95623779296875 0.8375244140625 0.99371337890625 0.875 0.981201171875 0.8375244140625 0.9927978515625 0.58892822265625 0.9788818359375 0.5731201171875 0.96636962890625 0.5751953125 0.9542236328125 0.55267333984375 0.94140625 0.555419921875 0.92950439453125 0.5322265625 0.9163818359375 0.53564453125 0.84765625 0.50439453125 0.84136962890625 0.5106201171875 0.80322265625 0.50018310546875 0.80010986328125 0.5064697265625 0.759033203125 0.50225830078125 0.759033203125 0.508544921875 0.79693603515625 0.51373291015625 0.83514404296875 0.51898193359375 0.90386962890625 0.539794921875 0.83203125 0.52740478515625 0.43963623046875 0.37078857421875 0.426513671875 0.37640380859375 0.37640380859375 0.364501953125 0.36785888671875 0.37225341796875 0.32623291015625 0.3525390625 0.32330322265625 0.3619384765625 0.29022216796875 0.351318359375 0.28875732421875 0.36065673828125 0.254150390625 0.35003662109375 0.254150390625 0.35943603515625 0.254150390625 0.37493896484375 0.39215087890625 0.475341796875 0.3721923828125 0.4617919921875 0.32183837890625 0.47845458984375 0.31561279296875 0.4617919921875 0.254150390625 0.46453857421875 0.254150390625 0.4478759765625 0.31317138671875 0.44000244140625 0.4639892578125 0.4371337890625 0.4716796875 0.44805908203125 1 0.95001220703125 0.96246337890625 1 0.93121337890625 0.9666748046875 0.88824462890625 0.9752197265625 0.8143310546875 0.97064208984375 0.7210693359375 0.948486328125 0.5914306640625 0.862548828125 0.5062255859375 0.85418701171875 0.59375 0.82086181640625 0.5062255859375 0.81671142578125 0.89923095703125 0.54681396484375 0.9241943359375 0.5633544921875 0.89141845703125 0.55853271484375 0.93511962890625 0.58770751953125 0.91326904296875 0.5887451171875 0.93511962890625 0.6043701171875 0.89141845703125 0.58978271484375 0.91015625 0.61273193359375 0.87261962890625 0.6085205078125 0.9163818359375 0.62310791015625 0.87890625 0.62939453125 0.92266845703125 0.633544921875 0.87261962890625 0.6474609375 0.92889404296875 0.64605712890625 0.8759765625 0.6627197265625 0.7183837890625 0.96136474609375 0.6624755859375 0.870849609375 0.6624755859375 0.8292236328125 0.7562255859375 0.85003662109375 0.59735107421875 0.27203369140625 0.6112060546875 0.2958984375 0.59893798828125 0.26953125 0.61322021484375 0.2958984375 0.60357666015625 0.2958984375 0.576416015625 0.2958984375 0.07275390625 0.2196044921875 0.10369873046875 0.2283935546875 0.1192626953125 0.20916748046875 0.126953125 0.24072265625 0.1485595703125 0.22332763671875 0.1534423828125 0.26275634765625 0.16961669921875 0.25213623046875 0.16876220703125 0.280029296875 0.17547607421875 0.2762451171875 0.1617431640625 0.2716064453125 0.173583984375 0.26593017578125 0.15313720703125 0.2625732421875 0.16851806640625 0.25091552734375 0.1600341796875 0.2354736328125 0.99212646484375 0.5897216796875 0.96636962890625 0.58978271484375 0.94921875 0.57989501953125 0.8341064453125 0.5465087890625 0.833984375 0.56158447265625 0.14813232421875 0.22381591796875 0.12713623046875 0.239501953125 0.1187744140625 0.20947265625 0.1043701171875 0.22955322265625 0.0765380859375 0.1998291015625 0.0726318359375 0.21990966796875 0.03802490234375 0.19683837890625 0.03619384765625 0.21337890625 0.01068115234375 0.19622802734375 0.0087890625 0.21337890625 0.86871337890625 0.8375244140625 0.8779296875 0.7933349609375 0.8125 0.75836181640625 0.83123779296875 0.75 0.731201171875 0.70001220703125 0.74371337890625 0.69171142578125 0.5311279296875 0.322509765625 0.59173583984375 0.322509765625 0.60552978515625 0.32635498046875 0.0758056640625 0.2012939453125 0.0357666015625 0.21343994140625 0.0377197265625 0.1973876953125 0.0084228515625 0.2135009765625 0.01031494140625 0.1961669921875 0.38458251953125 0.35595703125 0.58111572265625 0.33074951171875 0.5614013671875 0.33074951171875 0.5614013671875 0.3287353515625 0.548583984375 0.3287353515625 0.9918212890625 0.59075927734375 0.96014404296875 0.59600830078125 0.254150390625 0.338623046875 0.2918701171875 0.33984375 0.32952880859375 0.34112548828125 0.856201171875 1 0.08380126953125 0.30072021484375 0.07952880859375 0.28729248046875 0.00897216796875 0.3070068359375 0.009033203125 0.29595947265625 0.07745361328125 0.2806396484375 0.14154052734375 0.25030517578125 0.97265625 0.610595703125 0.94140625 0.61376953125 0.9476318359375 0.62310791015625 0.51165771484375 0.2958984375 0.5062255859375 0.920166015625 0.5819091796875 0.93798828125 0.9375 0.7708740234375 0.913818359375 0.77947998046875 0.8499755859375 0.737548828125 0.0836181640625 0.30084228515625 0.07891845703125 0.2818603515625 0.00897216796875 0.29150390625 0.0093994140625 0.26214599609375 0.0718994140625 0.25909423828125 0.0084228515625 0.23895263671875 0.75909423828125 0.5205078125 0.86871337890625 0.72503662109375 0.7562255859375 0.683349609375 0.4495849609375 0.202880859375 0.275390625 0.180908203125 0.3568115234375 0.25689697265625 0.2767333984375 0.25689697265625 0.278564453125 0.31988525390625 0.357421875 0.32000732421875 0.45458984375 0.32806396484375 0.00860595703125 0.284912109375 0.0711669921875 0.260498046875 0.311767578125 0.4263916015625 0.254150390625 0.427001953125 0.96014404296875 0.633544921875 0.98516845703125 0.62103271484375 0.99066162109375 0.61163330078125 0.99407958984375 0.602294921875 0.48101806640625 0.4029541015625 0.600341796875 0.325439453125 0.57427978515625 0.3287353515625 0.60736083984375 0.32666015625 0.856201171875 0.8375244140625 0.86248779296875 0.875 0.0087890625 0.2236328125 0.0087890625 0.26275634765625 0.84454345703125 0.59393310546875 0.81011962890625 0.579345703125 0.79107666015625 0.55963134765625 0.76043701171875 0.55908203125 0.7606201171875 0.5689697265625 0.44061279296875 0.4888916015625 0.39373779296875 0.49755859375 0.3375244140625 0.4949951171875 0.5927734375 0.2794189453125 0.99322509765625 0.5914306640625 0.29364013671875 0.4964599609375 0.254150390625 0.481201171875 0.759033203125 0.49603271484375 0.71697998046875 0.71044921875 0.79998779296875 0.76251220703125 0.254150390625 0.4915771484375 0.45416259765625 0.27215576171875 0.00897216796875 0.306396484375 0.79998779296875 0.862548828125 0.6492919921875 0.9549560546875 0.5062255859375 0.93243408203125 0.71807861328125 0.9718017578125 0.847412109375 0.66326904296875</float_array>
                    <technique_common>
                        <accessor count="281" source="#uvarray0" stride="2">
                            <param name="S" type="float"/>
                            <param name="T" type="float"/>
                        </accessor>
                    </technique_common>
                </source>
                <vertices id="vertices0">
                    <input semantic="POSITION" source="#points0"/>
                </vertices>
                <polylist count="738" material="Material1">
                    <input offset="0" semantic="VERTEX" source="#vertices0"/>
                    <input offset="1" semantic="TEXCOORD" source="#uvs0" set="0"/>
                    <vcount>3 3 3 3 3 3 3 3 3 3 3 3 3 3 3 3 3 3 3 3 3 3 3 3 3 3 3 3 3 3 3 3 3 3 3 3 3 3 3 3 3 3 3 3 3 3 3 3 3 3 3 3 3 3 3 3 3 3 3 3 3 3 3 3 3 3 3 3 3 3 3 3 3 3 3 3 3 3 3 3 3 3 3 3 3 3 3 3 3 3 3 3 3 3 3 3 3 3 3 3 3 3 3 3 3 3 3 3 3 3 3 3 3 3 3 3 3 3 3 3 3 3 3 3 3 3 3 3 3 3 3 3 3 3 3 3 3 3 3 3 3 3 3 3 3 3 3 3 3 3 3 3 3 3 3 3 3 3 3 3 3 3 3 3 3 3 3 3 3 3 3 3 3 3 3 3 3 3 3 3 3 3 3 3 3 3 3 3 3 3 3 3 3 3 3 3 3 3 3 3 3 3 3 3 3 3 3 3 3 3 3 3 3 3 3 3 3 3 3 3 3 3 3 3 3 3 3 3 3 3 3 3 3 3 3 3 3 3 3 3 3 3 3 3 3 3 3 3 3 3 3 3 3 3 3 3 3 3 3 3 3 3 3 3 3 3 3 3 3 3 3 3 3 3 3 3 3 3 3 3 3 3 3 3 3 3 3 3 3 3 3 3 3 3 3 3 3 3 3 3 3 3 3 3 3 3 3 3 3 3 3 3 3 3 3 3 3 3 3 3 3 3 3 3 3 3 3 3 3 3 3 3 3 3 3 3 3 3 3 3 3 3 3 3 3 3 3 3 3 3 3 3 3 3 3 3 3 3 3 3 3 3 3 3 3 3 3 3 3 3 3 3 3 3 3 3 3 3 3 3 3 3 3 3 3 3 3 3 3 3 3 3 3 3 3 3 3 3 3 3 3 3 3 3 3 3 3 3 3 3 3 3 3 3 3 3 3 3 3 3 3 3 3 3 3 3 3 3 3 3 3 3 3 3 3 3 3 3 3 3 3 3 3 3 3 3 3 3 3 3 3 3 3 3 3 3 3 3 3 3 3 3 3 3 3 3 3 3 3 3 3 3 3 3 3 3 3 3 3 3 3 3 3 3 3 3 3 3 3 3 3 3 3 3 3 3 3 3 3 3 3 3 3 3 3 3 3 3 3 3 3 3 3 3 3 3 3 3 3 3 3 3 3 3 3 3 3 3 3 3 3 3 3 3 3 3 3 3 3 3 3 3 3 3 3 3 3 3 3 3 3 3 3 3 3 3 3 3 3 3 3 3 3 3 3 3 3 3 3 3 3 3 3 3 3 3 3 3 3 3 3 3 3 3 3 3 3 3 3 3 3 3 3 3 3 3 3 3 3 3 3 3 3 3 3 3 3 3 3 3 3 3 3 3 3 3 3 3 3 3 3 3 3 3 3 3 3 3 3 3 3 3 3 3 3 3 3 3 3 3 3 3 3 3 3 3 3 3 3 3 3 3 3 3 3 3 3 3 3 3 3 3 3 3 3 3 3 3 3 3 3 3 3 3 3 3 3 3 3 3 3 3 3 3 3 3 3 3 3 3 3 3 3 3 3 3 3 3 3 3 3 3 3 3 3 3 3 3 3 3 3 3 3 3 3 3 3 3 3 3 3 3 3 3 3 3 3 3 3 3 3 3 3 3 3 3 3 3</vcount>
                    <p>2 2 1 1 0 0 3 3 1 1 2 2 4 4 3 3 2 2 5 5 3 3 4 4 6 6 5 5 4 4 7 7 5 5 6 6 8 8 7 7 6 6 9 9 7 7 8 8 10 10 9 9 8 8 11 11 9 9 10 10 12 12 11 11 10 10 13 13 11 11 12 12 14 14 13 13 12 12 15 15 13 13 14 14 16 16 15 15 14 14 17 17 15 15 16 16 18 18 17 17 16 16 19 19 17 17 18 18 20 20 19 19 18 18 21 21 19 19 20 20 22 22 21 21 20 20 23 23 21 21 22 22 24 24 23 23 22 22 25 25 23 23 24 24 26 26 25 25 24 24 27 27 25 25 26 26 28 28 27 27 26 26 29 29 27 27 28 28 30 30 29 29 28 28 31 31 29 29 30 30 32 32 31 31 30 30 33 33 31 31 32 32 34 34 33 33 32 32 35 35 33 33 34 34 36 36 35 35 34 34 37 37 35 35 36 36 38 38 37 37 36 36 39 39 37 37 38 38 22 22 39 39 38 38 40 40 39 39 22 22 20 20 40 40 22 22 18 18 40 40 20 20 43 43 42 42 41 41 44 44 42 42 43 43 45 45 44 44 43 43 46 46 44 44 45 45 47 47 46 46 45 45 48 48 46 46 47 47 49 49 48 48 47 47 50 50 48 48 49 49 51 51 50 50 49 49 52 52 50 50 51 51 53 53 52 52 51 51 54 54 52 52 53 53 55 55 54 54 53 53 56 56 54 54 55 55 57 54 56 56 55 55 58 57 56 56 57 54 59 52 58 57 57 54 60 58 58 57 59 52 61 50 60 58 59 52 62 59 60 58 61 50 63 60 62 59 61 50 64 61 62 59 63 60 65 62 64 61 63 60 66 63 64 61 65 62 67 64 66 63 65 62 70 67 69 66 68 65 71 68 69 66 70 67 72 69 71 68 70 67 73 67 71 68 72 69 74 70 73 67 72 69 75 71 73 67 74 70 76 72 75 71 74 70 77 73 75 71 76 72 78 74 77 73 76 72 79 75 77 73 78 74 80 76 79 75 78 74 81 77 79 75 80 76 82 78 81 77 80 76 83 79 81 77 82 78 84 80 83 79 82 78 85 81 83 79 84 80 86 82 85 81 84 80 87 83 85 81 86 82 88 84 87 83 86 82 90 87 89 86 41 85 91 88 89 86 90 87 92 89 91 88 90 87 93 90 91 88 92 89 94 91 93 90 92 89 95 92 93 90 94 91 96 93 95 92 94 91 97 94 95 92 96 93 98 95 97 94 96 93 99 96 97 94 98 95 100 97 99 96 98 95 101 95 99 96 100 97 102 98 101 95 100 97 103 93 101 95 102 98 104 99 103 93 102 98 105 100 103 93 104 99 106 101 105 100 104 99 108 103 47 47 107 102 49 49 47 47 108 103 109 104 49 49 108 103 110 105 49 49 109 104 111 106 110 105 109 104 112 107 110 105 111 106 113 108 112 107 111 106 114 109 112 107 113 108 115 110 114 109 113 108 116 111 114 109 115 110 117 109 116 111 115 110 118 112 116 111 117 109 119 53 118 112 117 109 55 55 118 112 119 53 57 54 55 55 119 53 120 113 62 59 64 61 121 114 62 59 120 113 122 115 121 114 120 113 123 116 121 114 122 115 124 117 123 116 122 115 125 118 123 116 124 117 126 116 125 118 124 117 127 119 125 118 126 116 128 114 127 119 126 116 129 58 127 119 128 114 130 59 129 58 128 114 50 50 129 58 130 59 131 60 50 50 130 59 132 120 50 50 131 60 133 121 132 120 131 60 136 124 135 123 134 122 137 125 135 123 136 124 138 77 137 125 136 124 139 126 137 125 138 77 140 75 139 126 138 77 141 127 139 126 140 75 142 73 141 127 140 75 143 71 141 127 142 73 144 72 143 71 142 73 145 70 143 71 144 72 146 128 145 70 144 72 147 129 145 70 146 128 148 130 147 129 146 128 149 131 147 129 148 130 152 134 151 133 150 132 153 135 151 133 152 134 154 136 153 135 152 134 155 137 153 135 154 136 156 138 155 137 154 136 157 139 155 137 156 138 158 140 157 139 156 138 159 141 157 139 158 140 160 142 159 141 158 140 161 143 159 141 160 142 162 144 161 143 160 142 163 145 161 143 162 144 164 146 163 145 162 144 143 71 68 65 165 147 70 67 68 65 143 71 145 70 70 67 143 71 72 69 70 67 145 70 147 129 72 69 145 70 74 70 72 69 147 129 166 128 74 70 147 129 76 72 74 70 166 128 167 148 76 72 166 128 78 74 76 72 167 148 168 149 78 74 167 148 169 150 78 74 168 149 40 40 37 37 39 39 170 151 37 37 40 40 171 152 170 151 40 40 172 153 170 151 171 152 173 154 172 153 171 152 174 155 172 153 173 154 14 14 174 155 173 154 175 156 174 155 14 14 12 12 175 156 14 14 176 39 175 156 12 12 10 10 176 39 12 12 8 8 176 39 10 10 179 159 178 158 177 157 180 160 178 158 179 159 107 161 180 160 179 159 181 162 180 160 107 161 182 163 181 162 107 161 183 164 181 162 182 163 45 165 183 164 182 163 184 166 183 164 45 165 43 167 184 166 45 165 185 168 184 166 43 167 41 169 185 168 43 167 89 170 185 168 41 169 188 87 187 172 186 171 189 173 187 172 188 87 190 89 189 173 188 87 151 133 189 173 190 89 105 100 151 133 190 89 150 132 151 133 105 100 106 101 150 132 105 100 152 134 150 132 106 101 191 174 152 134 106 101 192 175 152 134 191 174 195 177 194 176 193 170 196 178 194 176 195 177 197 179 196 178 195 177 198 180 196 178 197 179 199 181 198 180 197 179 200 182 198 180 199 181 201 183 200 182 199 181 202 184 200 182 201 183 203 185 202 184 201 183 204 183 202 184 203 185 205 172 90 87 41 171 206 173 90 87 205 172 207 135 206 173 205 172 208 133 206 173 207 135 209 134 208 133 207 135 210 132 208 133 209 134 211 101 210 132 209 134 212 100 210 132 211 101 213 99 212 100 211 101 214 79 138 77 136 124 215 78 138 77 214 79 216 80 215 78 214 79 217 186 215 78 216 80 218 187 217 186 216 80 219 188 217 186 218 187 220 189 219 188 218 187 221 190 219 188 220 189 222 191 221 190 220 189 2 2 23 23 25 25 223 192 23 23 2 2 0 0 223 192 2 2 21 21 223 192 0 0 224 193 21 21 0 0 19 19 21 21 224 193 225 194 19 19 224 193 17 17 19 19 225 194 15 15 17 17 225 194 228 159 227 158 226 160 229 157 227 158 228 159 230 195 229 157 228 159 231 196 229 157 230 195 232 197 231 196 230 195 233 198 231 196 232 197 234 199 233 198 232 197 235 197 233 198 234 199 119 53 59 52 57 54 236 51 59 52 119 53 237 105 236 51 119 53 238 49 236 51 237 105 239 104 238 49 237 105 240 103 238 49 239 104 228 200 240 103 239 104 241 102 240 103 228 200 0 0 225 194 224 193 242 201 225 194 0 0 243 202 242 201 0 0 244 203 242 201 243 202 1 1 244 203 243 202 245 204 244 203 1 1 3 3 245 204 1 1 5 5 245 204 3 3 246 206 205 172 41 205 207 135 205 172 246 206 247 137 207 135 246 206 248 136 207 135 247 137 249 138 248 136 247 137 209 134 248 136 249 138 250 175 209 134 249 138 251 174 209 134 250 175 113 108 234 207 115 110 235 208 234 207 113 108 111 106 235 208 113 108 252 209 235 208 111 106 109 104 252 209 111 106 179 200 252 209 109 104 108 103 179 200 109 104 107 102 179 200 108 103 253 122 85 81 87 83 83 79 85 81 253 122 254 124 83 79 253 122 81 77 83 79 254 124 255 125 81 77 254 124 256 126 81 77 255 125 257 123 256 126 255 125 258 210 256 126 257 123 261 211 260 166 259 164 262 212 260 166 261 211 263 213 262 212 261 211 264 214 262 212 263 213 265 212 264 214 263 213 266 215 264 214 265 212 185 168 266 215 265 212 267 216 266 215 185 168 268 217 247 137 246 206 269 218 247 137 268 217 270 219 269 218 268 217 271 141 269 218 270 219 272 143 271 141 270 219 273 142 271 141 272 143 274 144 273 142 272 143 38 38 24 24 22 22 26 26 24 24 38 38 275 220 26 26 38 38 28 28 26 26 275 220 34 34 28 28 275 220 30 30 28 28 34 34 32 32 30 30 34 34 277 65 75 71 276 147 73 67 75 71 277 65 278 66 73 67 277 65 71 68 73 67 278 66 279 221 71 68 278 66 69 66 71 68 279 221 280 222 69 66 279 221 86 82 281 223 88 84 282 224 281 223 86 82 283 187 282 224 86 82 284 225 282 224 283 187 285 189 284 225 283 187 286 191 284 225 285 189 287 190 286 191 285 189 288 226 181 162 183 164 289 227 181 162 288 226 290 228 289 227 288 226 291 229 289 227 290 228 292 227 291 229 290 228 293 230 291 229 292 227 289 227 180 160 181 162 294 230 180 160 289 227 291 229 294 230 289 227 295 231 294 230 291 229 293 230 295 231 291 229 229 157 295 231 293 230 297 98 211 101 296 232 213 99 211 101 297 98 96 93 213 99 297 98 212 100 213 99 96 93 94 91 212 100 96 93 92 89 212 100 94 91 102 98 106 101 104 99 296 232 106 101 102 98 100 97 296 232 102 98 297 98 296 232 100 97 98 95 297 98 100 97 96 93 297 98 98 95 44 44 298 64 42 42 133 121 298 64 44 44 46 46 133 121 44 44 132 120 133 121 46 46 48 48 132 120 46 46 50 50 132 120 48 48 299 82 218 187 216 80 300 224 218 187 299 82 301 223 300 224 299 82 302 225 300 224 301 223 303 233 302 225 301 223 304 234 302 225 303 233 305 237 296 236 211 235 306 238 296 236 305 237 307 239 306 238 305 237 308 237 306 238 307 239 309 240 308 237 307 239 192 241 308 237 309 240 311 42 310 43 186 41 312 44 310 43 311 42 67 64 312 44 311 42 313 121 312 44 67 64 65 62 313 121 67 64 63 60 313 121 65 62 262 212 314 168 260 166 315 215 314 168 262 212 264 214 315 215 262 212 316 242 315 215 264 214 266 215 316 242 264 214 317 243 316 242 266 215 318 162 261 226 259 164 292 227 261 226 318 162 226 160 292 227 318 162 293 230 292 227 226 160 227 158 293 230 226 160 229 157 293 230 227 158 239 104 230 209 228 200 319 106 230 209 239 104 237 105 319 106 239 104 320 107 319 106 237 105 119 53 320 107 237 105 117 109 320 107 119 53 312 44 321 45 310 43 322 46 321 45 312 44 313 121 322 46 312 44 323 120 322 46 313 121 63 60 323 120 313 121 61 50 323 120 63 60 324 244 127 119 129 58 125 118 127 119 324 244 325 245 125 118 324 244 326 244 125 118 325 245 58 57 326 244 325 245 60 58 326 244 58 57 327 246 161 143 163 145 328 219 161 143 327 246 66 247 328 219 327 246 329 217 328 219 66 247 67 248 329 217 66 247 311 249 329 217 67 248 328 219 159 141 161 143 330 218 159 141 328 219 329 217 330 218 328 219 155 137 330 218 329 217 331 206 155 137 329 217 153 135 155 137 331 206 134 122 214 79 136 124 332 81 214 79 134 122 333 83 332 81 134 122 299 82 332 81 333 83 334 84 299 82 333 83 301 223 299 82 334 84 335 48 323 120 61 50 322 46 323 120 335 48 336 47 322 46 335 48 321 45 322 46 336 47 337 250 321 45 336 47 294 230 178 158 180 160 177 157 178 158 294 230 295 231 177 157 294 230 338 196 177 157 295 231 233 198 338 196 295 231 339 251 11 11 13 13 340 252 11 11 339 251 341 253 340 252 339 251 242 201 340 252 341 253 225 194 242 201 341 253 342 74 142 73 140 75 144 72 142 73 342 74 343 148 144 72 342 74 146 128 144 72 343 148 148 130 146 128 343 148 84 80 283 187 86 82 344 186 283 187 84 80 82 78 344 186 84 80 345 254 344 186 82 78 346 255 345 254 82 78 315 215 347 216 314 168 195 177 347 216 315 215 348 243 195 177 315 215 197 179 195 177 348 243 199 181 197 179 348 243 348 243 201 183 199 181 349 256 201 183 348 243 350 257 349 256 348 243 317 243 349 256 350 257 316 242 317 243 350 257 103 93 198 92 200 94 351 91 198 92 103 93 105 100 351 91 103 93 190 89 351 91 105 100 276 147 256 126 258 210 352 127 256 126 276 147 75 71 352 127 276 147 77 73 352 127 75 71 319 106 232 208 230 209 353 108 232 208 319 106 320 107 353 108 319 106 117 109 353 108 320 107 238 49 335 48 61 50 336 47 335 48 238 49 240 103 336 47 238 49 241 102 336 47 240 103 156 138 354 258 158 140 355 259 354 258 156 138 192 175 355 259 156 138 309 260 355 259 192 175 53 53 112 107 114 109 110 105 112 107 53 53 51 51 110 105 53 53 49 49 110 105 51 51 357 260 356 262 307 261 358 259 356 262 357 260 250 175 358 259 357 260 249 138 358 259 250 175 359 76 140 75 138 77 342 74 140 75 359 76 360 150 342 74 359 76 361 149 342 74 360 150 7 7 245 204 5 5 244 203 245 204 7 7 9 9 244 203 7 7 11 11 244 203 9 9 362 57 324 244 129 58 325 245 324 244 362 57 56 56 325 245 362 57 58 57 325 245 56 56 363 177 266 215 267 216 317 243 266 215 363 177 364 179 317 243 363 177 365 181 317 243 364 179 204 183 317 243 365 181 349 256 317 243 204 183 203 185 349 256 204 183 201 183 349 256 203 185 327 263 64 61 66 63 120 113 64 61 327 263 163 264 120 113 327 263 164 265 120 113 163 264 52 52 129 58 50 50 362 57 129 58 52 52 54 54 362 57 52 52 56 56 362 57 54 54 121 114 60 58 62 59 366 119 60 58 121 114 123 116 366 119 121 114 125 118 366 119 123 116 153 135 189 173 151 133 187 172 189 173 153 135 331 206 187 172 153 135 186 205 187 172 331 206 172 153 33 33 35 35 367 266 33 33 172 153 174 155 367 266 172 153 175 156 367 266 174 155 370 113 369 265 368 264 371 115 369 265 370 113 128 114 371 115 370 113 126 116 371 115 128 114 173 154 16 16 14 14 18 18 16 16 173 154 171 152 18 18 173 154 40 40 18 18 171 152 42 249 246 206 41 267 268 217 246 206 42 249 298 248 268 217 42 249 372 247 268 217 298 248 373 140 271 141 273 142 374 139 271 141 373 140 249 138 374 139 373 140 247 137 374 139 249 138 370 113 130 59 128 114 375 61 130 59 370 113 376 263 375 61 370 113 372 63 375 61 376 263 89 170 267 216 185 168 363 177 267 216 89 170 91 176 363 177 89 170 93 178 363 177 91 176 375 61 131 60 130 59 377 62 131 60 375 61 372 63 377 62 375 61 298 64 377 62 372 63 371 115 378 268 369 265 379 269 378 268 371 115 124 117 379 269 371 115 122 115 379 269 124 117 99 96 202 270 97 94 200 94 202 270 99 96 101 95 200 94 99 96 103 93 200 94 101 95 382 188 381 272 380 271 345 254 381 272 382 188 344 186 345 254 382 188 79 75 352 127 77 73 256 126 352 127 79 75 81 77 256 126 79 75 382 188 283 187 344 186 285 189 283 187 382 188 287 190 285 189 382 188 379 269 383 273 378 268 384 268 383 273 379 269 122 115 384 268 379 269 139 126 135 123 137 125 385 210 135 123 139 126 165 147 385 210 139 126 387 254 219 188 386 272 217 186 219 188 387 254 215 78 217 186 387 254 308 237 296 236 306 238 106 235 296 236 308 237 191 274 106 235 308 237 353 108 234 207 232 208 115 110 234 207 353 108 117 109 115 110 353 108 118 112 114 109 116 111 53 53 114 109 118 112 55 55 53 53 118 112 15 15 339 251 13 13 341 253 339 251 15 15 225 194 341 253 15 15 265 212 184 166 185 168 288 211 184 166 265 212 263 213 288 211 265 212 290 228 261 226 292 227 263 275 261 226 290 228 288 226 263 275 290 228 244 203 340 252 242 201 11 11 340 252 244 203 215 78 359 76 138 77 388 276 359 76 215 78 4 4 25 25 27 27 2 2 25 25 4 4 361 149 343 148 342 74 148 130 343 148 361 149 6 6 27 27 29 29 4 4 27 27 6 6 8 8 29 29 31 31 6 6 29 29 8 8 176 39 31 31 33 33 8 8 31 31 176 39 175 156 33 33 367 266 176 39 33 33 175 156 366 119 326 244 60 58 125 118 326 244 366 119 170 151 35 35 37 37 172 153 35 35 170 151 36 36 275 220 38 38 34 34 275 220 36 36 365 181 95 180 97 182 364 179 95 180 365 181 93 178 364 179 363 177 95 180 364 179 93 178 252 195 177 157 338 196 179 159 177 157 252 195 235 197 338 196 233 198 252 195 338 196 235 197 241 161 226 160 318 162 228 159 226 160 241 161 337 163 318 162 259 164 241 161 318 162 337 163 321 165 259 164 260 166 337 163 259 164 321 165 377 62 133 121 131 60 298 64 133 121 377 62 204 183 97 182 202 184 365 181 97 182 204 183 310 167 260 166 314 168 321 165 260 166 310 167 186 169 314 168 193 170 310 167 314 168 186 169 347 216 193 170 314 168 195 177 193 170 347 216 251 274 305 237 211 235 250 241 305 237 251 274 236 51 61 50 59 52 238 49 61 50 236 51 389 258 249 138 373 140 358 259 249 138 389 258 309 260 356 262 355 259 307 261 356 262 309 260 196 90 351 91 190 89 198 92 351 91 196 90 269 218 374 139 247 137 271 141 374 139 269 218 330 218 157 139 159 141 155 137 157 139 330 218 194 88 190 89 188 87 196 90 190 89 194 88 316 242 348 243 315 215 350 257 348 243 316 242 231 196 295 231 229 157 233 198 295 231 231 196 152 134 156 138 154 136 192 175 156 138 152 134 164 265 122 115 120 113 384 268 122 115 164 265 368 145 274 144 272 143 369 146 274 144 368 145 376 246 272 143 270 219 368 145 272 143 376 246 372 247 270 219 268 217 376 246 270 219 372 247 208 133 212 100 92 89 210 132 212 100 208 133 206 173 92 89 90 87 208 133 92 89 206 173 182 250 47 47 45 45 107 102 47 47 182 250 311 249 331 206 329 217 186 267 331 206 311 249 193 86 188 87 186 85 194 88 188 87 193 86 69 66 390 277 68 65 280 222 390 277 69 66 278 66 392 277 391 222 277 65 392 277 278 66 393 255 215 78 387 254 388 276 215 78 393 255 332 81 216 80 214 79 299 82 216 80 332 81 394 271 219 188 221 190 386 272 219 188 394 271 395 276 82 78 80 76 346 255 82 78 395 276 169 150 80 76 78 74 395 276 80 76 169 150 281 223 284 225 396 233 282 224 284 225 281 223 397 130 147 129 149 131 166 128 147 129 397 130 222 191 302 225 304 234 220 189 302 225 222 191 398 234 284 225 286 191 396 233 284 225 398 234 391 222 279 221 278 66 399 278 279 221 391 222 257 123 254 124 253 122 255 125 254 124 257 123 167 148 397 130 168 149 166 128 397 130 167 148 141 127 165 147 139 126 143 71 165 147 141 127 302 225 218 187 300 224 220 189 218 187 302 225 357 240 305 237 250 241 307 239 305 237 357 240 400 279 165 147 390 277 1 1 243 202 0 0 23 23 223 192 21 21 385 210 165 147 400 279 258 210 401 279 276 147 401 279 392 277 276 147 276 147 392 277 277 65 165 147 68 65 390 277 164 146 162 144 384 280 359 76 388 276 360 150 209 134 207 135 248 136 369 146 378 280 274 144 184 166 288 211 183 164 376 263 370 113 368 264 279 221 399 278 280 222 209 134 251 174 211 101 371 115 126 116 124 117 287 190 382 188 380 271 308 237 192 241 191 274 241 102 337 250 336 47</p>
                </polylist>
            </mesh>
        </geometry>
    </library_geometries>
    <library_visual_scenes>
        <visual_scene id="VisualSceneNode">
            <node id="node0" name="m0" type="NODE">
                <instance_geometry url="#mesh0">
                    <bind_material>
                        <technique_common>
                            <instance_material symbol="Material1" target="#mat0">
                                <bind_vertex_input semantic="UVSET0" input_semantic="TEXCOORD" input_set="0"></bind_vertex_input>
                            </instance_material>
                        </technique_common>
                    </bind_material>
                </instance_geometry>
            </node>
        </visual_scene>
    </library_visual_scenes>
    <scene>
        <instance_visual_scene url="#VisualSceneNode"></instance_visual_scene>
    </scene>
</COLLADA>
