# Blender v2.79 (sub 0) OBJ File: ''
# www.blender.org
mtllib face 9.mtl
o n0b0_n0b0.007
v 0.466016 1.200391 0.000000
v 6.679297 1.583984 -0.364844
v 4.341406 -2.345313 0.000000
v 4.046484 -0.587891 0.000000
v 5.996875 1.293359 -0.719141
v 5.996875 1.293359 -0.719141
v 4.253516 -2.435938 -0.578906
v 4.669141 -0.667578 0.000000
v 4.669141 -0.667578 0.000000
v 6.047266 1.238672 -0.358203
v 6.047266 1.238672 -0.358203
v 3.564844 -2.855078 -1.371094
v 5.558984 -0.178906 0.000000
v 5.532032 -0.093750 -0.563672
v 3.781250 -2.352734 -1.633984
v 6.413281 1.211719 0.000000
v 5.483203 0.026563 -1.162500
v 5.483203 0.026563 -1.162500
v 3.993750 -2.487500 0.000000
v 6.057813 1.223828 0.000000
v 6.057813 1.223828 0.000000
v 5.003125 -0.264453 -1.187500
v 5.003125 -0.264453 -1.187500
v 3.948437 -2.563672 -0.477734
v 6.729297 1.569141 0.000000
v 5.063672 -0.409766 -0.580469
v 3.637110 -2.669141 -0.783984
v 6.679688 2.142188 0.000000
v 6.679688 2.142188 0.000000
v 5.371484 0.266016 -1.619531
v 3.199610 -2.766797 -1.107813
v 5.678125 0.771484 0.000000
v 5.816016 0.551562 -1.019141
v 5.816016 0.551562 -1.019141
v 3.835547 -2.403516 -0.427734
v 4.470313 0.423438 0.000000
v 5.712891 0.750781 -1.406250
v 3.167578 -2.614063 -1.026563
v 0.330078 2.764844 0.000000
v 4.910156 0.612109 -1.842188
v 3.156250 -0.679688 1.876953
v 0.525000 3.741406 0.000000
v 5.250391 0.583594 -1.786719
v 3.626953 -0.107422 1.538281
v 3.946484 3.778125 0.000000
v 5.126563 0.923438 -1.830078
v 3.142578 -0.570312 2.025000
v 6.154297 2.171094 0.000000
v 4.880078 0.086328 -1.669922
v 3.496094 -0.014844 1.689844
v 5.085938 3.360156 0.000000
v 4.042969 -0.103125 -2.228516
v 3.221484 -0.007031 1.472266
v 6.431250 2.339844 0.000000
v 6.431250 2.339844 0.000000
v 4.167969 0.199609 -1.819922
v 2.956641 -0.447266 2.083203
v 4.692188 4.737500 0.000000
v 4.433203 0.012500 -2.631250
v 2.777344 -0.432031 1.946875
v 5.758203 3.810547 0.000000
v 2.460547 0.188672 -3.986719
v 2.782422 -1.543359 1.927734
v 5.971485 3.249609 0.000000
v 1.703125 0.351172 -3.978516
v 3.101953 -1.931641 1.652344
v 1.346094 4.611719 0.000000
v 1.667969 0.091797 -3.332422
v 3.064063 -0.681250 1.757812
v 2.536719 5.005078 0.000000
v 2.433985 -0.117578 -3.350781
v 3.408203 -1.767578 1.446875
v 2.178125 3.029688 0.000000
v 5.460938 1.255859 -1.642187
v 2.794922 -1.551953 2.106641
v 6.342578 3.143359 0.000000
v 5.425781 1.665234 -1.532422
v 1.872266 -2.528906 2.118750
v 2.481250 0.224609 2.030859
v 5.341797 1.566016 -1.636328
v 2.060156 -2.851172 1.738672
v 3.221484 -0.007031 1.520703
v 5.430860 1.844531 -1.557813
v 5.430860 1.844531 -1.557813
v 5.430860 1.844531 -1.557813
v 5.430860 1.844531 -1.557813
v 5.430860 1.844531 -1.557813
v 4.170312 -2.216797 1.226953
v 1.509375 0.292578 2.316016
v 5.753125 1.796875 -1.522266
v 3.936719 -2.650391 1.039062
v 1.010156 0.587891 2.205078
v 5.718359 1.950000 -1.495313
v 5.718359 1.950000 -1.495313
v 4.417188 -2.046094 0.683594
v 0.655859 1.053125 1.059375
v 0.655859 1.053125 1.059375
v 6.025000 1.761328 -1.355469
v 3.492578 -2.510547 0.731641
v 4.454297 0.010937 1.720312
v 6.333203 1.671484 -1.100781
v 3.507422 -0.119922 1.294141
v 5.753125 1.796875 1.522266
v 6.316016 2.081641 -1.085156
v 6.316016 2.081641 -1.085156
v 3.974219 -1.460547 0.562891
v 5.446094 1.707422 1.551563
v 5.994922 2.003906 -1.323047
v 5.994922 2.003906 -1.323047
v 2.583984 -2.734766 1.398828
v 4.524219 0.687109 1.012109
v 6.166797 1.414453 -1.080859
v 3.761328 -1.596484 1.071094
v 2.542578 2.791016 1.887109
v 6.517578 2.125000 -0.742969
v 6.517578 2.125000 -0.742969
v 2.492969 -0.830078 2.167969
v 2.519531 0.830469 4.509375
v 2.519531 0.830469 4.509375
v 6.634375 2.144531 -0.359375
v 6.634375 2.144531 -0.359375
v 2.241797 -1.384766 2.290625
v 4.295703 0.247266 3.625000
v 5.506250 2.064844 -1.300391
v 2.628516 -0.859375 2.297656
v 4.548438 0.870703 4.111719
v 4.548438 0.870703 4.111719
v 5.400000 1.910547 -1.355859
v 2.353125 -1.460938 2.417969
v 5.126563 0.923438 1.830078
v 1.010156 0.587891 -2.205078
v 2.878906 -1.008594 2.204688
v 6.314063 1.303906 0.733203
v 0.762500 0.975391 -1.833594
v 0.762500 0.975391 -1.833594
v 2.700781 -1.591406 2.329688
v 6.549219 1.617969 0.759375
v 0.655859 1.053125 -1.059375
v 0.655859 1.053125 -1.059375
v 2.078125 -2.075000 2.327734
v 5.996875 1.293359 0.719141
v 5.996875 1.293359 0.719141
v 1.509375 0.292578 -2.316016
v 2.413281 -2.473047 2.319141
v 5.532032 -0.093750 0.563672
v 2.481250 0.224609 -2.030859
v 2.408984 -2.892578 2.084375
v 5.483203 0.026563 1.162500
v 5.483203 0.026563 1.162500
v 2.421094 -0.137891 -2.717188
v 2.775391 -2.048828 2.108984
v 4.660547 -0.581250 0.559766
v 4.660547 -0.581250 0.559766
v 1.658594 0.071875 -2.795703
v 2.721484 -1.986719 1.883984
v 4.588672 -0.410938 1.156250
v 4.588672 -0.410938 1.156250
v 5.320703 1.681250 -1.600391
v 5.320703 1.681250 -1.600391
v 2.778516 -3.032813 1.882031
v 5.900000 1.404688 1.054688
v 4.827734 0.441797 -3.161719
v 3.241797 -2.971094 1.641797
v 5.371484 0.266016 1.619531
v 4.295703 0.247266 -3.625000
v 3.012110 -2.603906 2.110938
v 0.919922 0.926953 2.254688
v 0.919922 0.926953 2.254688
v 3.994922 -0.131641 -2.978516
v 3.390234 -2.513672 1.913672
v 4.910156 0.612109 1.842188
v 4.660547 -0.581250 -0.559766
v 4.660547 -0.581250 -0.559766
v 4.044531 -1.743750 1.219141
v 5.590625 0.993359 1.566406
v 5.316406 1.731641 -1.593359
v 5.316406 1.731641 -1.593359
v 4.294922 -1.580078 0.660547
v 5.341797 1.566016 1.636328
v 5.275391 1.733203 -1.376953
v 2.094531 -1.826563 2.282031
v 4.042969 -0.103125 2.228516
v 1.140625 0.901172 -4.006641
v 1.140625 0.901172 -4.006641
v 3.256250 -2.047656 1.950781
v 1.691797 0.866016 4.360157
v 1.691797 0.866016 4.360157
v 1.691797 0.866016 -4.360157
v 1.691797 0.866016 -4.360157
v 3.659375 -1.928516 1.633594
v 1.658594 0.071875 2.795703
v 3.745312 0.033203 -1.758984
v 4.253516 -2.435938 0.578906
v 5.575391 1.604297 1.421094
v 3.113281 -0.056250 -1.939453
v 3.564844 -2.855078 1.371094
v 5.718359 1.950000 1.495313
v 5.718359 1.950000 1.495313
v 3.221484 -0.007031 -1.520703
v 3.781250 -2.352734 1.633984
v 5.430860 1.844531 1.557813
v 5.430860 1.844531 1.557813
v 5.430860 1.844531 1.557813
v 5.430860 1.844531 1.557813
v 5.430860 1.844531 1.557813
v 3.880859 -0.279687 -0.939063
v 3.948437 -2.563672 0.477734
v 6.333203 1.671484 1.100781
v 5.951562 2.198828 -0.958984
v 3.637110 -2.669141 0.783984
v 6.166797 1.414453 1.080859
v 6.123047 2.218750 -0.657813
v 3.199610 -2.766797 1.107813
v 6.316016 2.081641 1.085156
v 6.316016 2.081641 1.085156
v 5.234375 1.228516 -1.753516
v 3.835547 -2.403516 0.427734
v 6.517578 2.125000 0.742969
v 6.517578 2.125000 0.742969
v 5.271094 1.196484 -1.815234
v 3.167578 -2.614063 1.026563
v 5.320703 1.681250 1.600391
v 5.320703 1.681250 1.600391
v 6.248437 2.224609 -0.322266
v 5.425391 1.895703 1.562109
v 5.425391 1.895703 1.562109
v 5.900000 1.404688 -1.054688
v 5.409766 1.840625 1.360937
v 5.897266 1.571484 -1.339844
v 5.400000 1.910547 1.355859
v 5.755859 1.511719 -1.289844
v 2.595703 2.674219 4.732422
v 0.919922 0.926953 -2.254688
v 0.919922 0.926953 -2.254688
v 0.814844 2.736719 2.266406
v 0.733984 1.726172 -2.260547
v 1.113281 3.521875 2.206641
v 0.457422 1.728906 -1.844922
v 1.684766 4.024610 3.870312
v 0.591406 3.699219 -1.064453
v 1.628516 4.153516 3.046094
v 1.380859 4.544922 -0.552344
v 3.749219 3.570703 1.064062
v 2.542578 2.791016 -1.887109
v 5.728906 2.674609 1.411719
v 5.409766 1.840625 -1.360937
v 5.665625 2.220703 1.442188
v 3.749219 3.570703 -1.064062
v 5.541797 2.416797 1.519141
v 5.523438 2.007422 -1.291016
v 5.523438 2.007422 1.291016
v 5.397656 2.079688 -1.610937
v 5.749609 2.066406 1.139063
v 5.291016 1.765625 -1.593750
v 5.848828 2.215235 1.217969
v 5.848828 2.215235 1.217969
v 5.749609 2.066406 -1.139063
v 5.620313 2.112891 1.371484
v 5.620313 2.112891 1.371484
v 5.848828 2.215235 -1.217969
v 5.848828 2.215235 -1.217969
v 4.496875 3.979297 3.209375
v 5.620313 2.112891 -1.371484
v 5.620313 2.112891 -1.371484
v 5.232812 3.169922 1.473828
v 6.100391 2.158984 -0.413281
v 4.574609 4.530469 1.044922
v 6.381250 2.335938 -0.443359
v 6.381250 2.335938 -0.443359
v 2.578516 4.803906 1.033594
v 6.282422 2.317578 -0.766406
v 6.282422 2.317578 -0.766406
v 3.880859 -0.279687 0.939063
v 6.005859 2.139063 -0.728906
v 1.645703 2.648438 4.636328
v 6.364453 2.634375 -0.866797
v 2.619922 4.253125 3.622656
v 6.490625 2.664062 -0.460156
v 2.634766 4.405859 2.803906
v 5.541797 2.416797 -1.519141
v 5.559375 3.660938 0.941016
v 5.728906 2.674609 -1.411719
v 5.827344 3.136328 0.803516
v 5.508594 2.782813 -1.331250
v 6.176563 3.050391 0.886719
v 5.378906 2.521484 -1.473438
v 6.282422 2.317578 0.766406
v 6.282422 2.317578 0.766406
v 5.724609 3.790234 -0.451172
v 6.005859 2.139063 0.728906
v 5.559375 3.660938 -0.941016
v 6.558594 2.680859 0.000000
v 5.827344 3.136328 -0.803516
v 6.364453 2.634375 0.866797
v 5.945703 3.221484 -0.428906
v 5.846875 2.425391 1.320703
v 5.966016 2.910156 -1.193359
v 2.467188 0.516406 0.000000
v 5.661328 2.988672 -1.087500
v 2.685938 0.773828 1.677344
v 6.176563 3.050391 -0.886719
v 5.994922 2.003906 1.323047
v 5.994922 2.003906 1.323047
v 6.296094 3.106641 -0.443750
v 6.025000 1.761328 1.355469
v 2.578516 4.803906 -1.033594
v 1.734375 1.800000 0.000000
v 2.557422 4.940625 -0.526172
v 2.175000 1.828516 1.778516
v 1.415234 4.435547 -1.085547
v 5.872266 2.108594 0.936719
v 5.232812 3.169922 -1.473828
v 6.082031 2.268750 1.022266
v 6.082031 2.268750 1.022266
v 5.366406 3.448437 -1.310938
v 6.132422 2.564063 1.144141
v 2.634766 4.405859 -2.803906
v 5.966016 2.910156 1.193359
v 1.628516 4.153516 -3.046094
v 5.397656 2.079688 1.610937
v 1.684766 4.024610 -3.870312
v 5.275391 1.733203 1.376953
v 2.619922 4.253125 -3.622656
v 5.316406 1.731641 1.593359
v 5.316406 1.731641 1.593359
v 2.625391 4.308203 -2.139063
v 5.291016 1.765625 1.593750
v 3.576563 4.302344 -2.071875
v 4.626953 2.592578 4.216016
v 3.568750 4.105859 -1.731641
v 5.381250 1.552734 1.766016
v 5.381250 1.552734 1.766016
v 2.647266 4.146875 -1.773828
v 5.372266 2.061719 1.688672
v 3.599219 4.791797 -1.028125
v 5.176563 2.836719 1.599219
v 3.601562 4.942578 -0.523438
v 6.387109 1.233984 0.345703
v 5.846875 2.425391 -1.320703
v 6.679297 1.583984 0.364844
v 6.082031 2.268750 -1.022266
v 6.082031 2.268750 -1.022266
v 6.634375 2.144531 0.359375
v 6.634375 2.144531 0.359375
v 6.132422 2.564063 -1.144141
v 6.100391 2.158984 0.413281
v 5.665625 2.220703 -1.442188
v 6.381250 2.335938 0.443359
v 6.381250 2.335938 0.443359
v 3.603125 0.802344 -4.472656
v 3.603125 0.802344 -4.472656
v 6.490625 2.664062 0.460156
v 3.684375 1.613281 -4.666797
v 6.296094 3.106641 0.443750
v 2.560156 1.569922 -4.766797
v 6.292188 2.225000 0.000000
v 2.519531 0.830469 -4.509375
v 2.519531 0.830469 -4.509375
v 6.248437 2.224609 0.322266
v 1.650000 1.607422 -4.654687
v 6.123047 2.218750 0.657813
v 0.954297 2.643750 -4.194141
v 5.951562 2.198828 0.958984
v 1.645703 2.648438 -4.636328
v 5.722266 2.143359 1.167578
v 1.682422 3.493359 -4.363281
v 5.506250 2.064844 1.300391
v 1.068359 3.302734 -4.071875
v 5.755859 1.511719 1.289844
v 0.751172 3.619141 -1.616406
v 3.994922 -0.131641 2.978516
v 0.508203 2.759766 -1.830469
v 2.421094 -0.137891 2.717188
v 0.814844 2.736719 -2.266406
v 5.399219 1.789844 1.732422
v 1.113281 3.521875 -2.206641
v 4.614453 1.656641 4.278516
v 5.425391 1.895703 -1.562109
v 5.425391 1.895703 -1.562109
v 2.560156 1.569922 4.766797
v 0.946094 1.655469 -4.157032
v 1.650000 1.607422 4.654687
v 2.630469 3.563672 -4.483594
v 0.733984 1.726172 2.260547
v 2.595703 2.674219 -4.732422
v 0.357422 2.789453 1.072656
v 3.648047 4.227735 -3.450781
v 0.591406 3.699219 1.064453
v 3.592188 4.396094 -2.637110
v 1.415234 4.435547 1.085547
v 5.872266 2.108594 -0.936719
v 0.335547 1.732813 1.064062
v 5.239453 4.122656 -1.016797
v 0.339453 1.787500 0.000000
v 5.366406 4.266797 -0.520312
v 2.460547 0.188672 3.986719
v 4.660547 4.678906 -0.535156
v 4.413672 4.094922 2.492969
v 4.574609 4.530469 -1.044922
v 4.293359 3.887891 1.718750
v 5.722266 2.143359 -1.167578
v 2.647266 4.146875 1.773828
v 5.876563 0.476172 -0.486328
v 1.594141 3.848047 1.926953
v 3.060938 -0.263281 -2.564453
v 5.291406 2.436328 1.613672
v 3.216406 -0.202734 -3.259766
v 4.591016 3.380078 3.857813
v 4.548438 0.870703 -4.111719
v 4.548438 0.870703 -4.111719
v 2.630469 3.563672 4.483594
v 5.136328 1.061719 -3.435547
v 5.136328 1.061719 -3.435547
v 1.682422 3.493359 4.363281
v 5.257031 1.719922 -3.534375
v 3.745312 0.033203 1.758984
v 4.614453 1.656641 -4.278516
v 2.433985 -0.117578 3.350781
v 4.588672 -0.410938 -1.156250
v 4.588672 -0.410938 -1.156250
v 1.703125 0.351172 3.978516
v 2.175000 1.828516 -1.778516
v 1.275391 3.690625 3.628906
v 5.266407 2.482031 -3.520703
v 0.954297 2.643750 4.194141
v 5.154297 3.172266 -3.287109
v 0.946094 1.655469 4.157032
v 4.591016 3.380078 -3.857813
v 1.140625 0.901172 4.006641
v 1.140625 0.901172 4.006641
v 4.626953 2.592578 -4.216016
v 3.060938 -0.263281 2.564453
v 3.698047 2.633594 -4.618360
v 3.216406 -0.202734 3.259766
v 3.678516 3.533203 -4.302344
v 3.410938 0.140625 3.942188
v 5.399219 1.789844 -1.732422
v 3.603125 0.802344 4.472656
v 3.603125 0.802344 4.472656
v 5.381250 1.552734 -1.766016
v 5.381250 1.552734 -1.766016
v 3.684375 1.613281 4.666797
v 5.345703 2.151953 -1.591797
v 3.698047 2.633594 4.618360
v 5.590625 0.993359 -1.566406
v 3.678516 3.533203 4.302344
v 0.335547 1.732813 -1.064062
v 3.648047 4.227735 3.450781
v 0.357422 2.789453 -1.072656
v 3.592188 4.396094 2.637110
v 1.592969 4.112891 -2.363672
v 3.568750 4.105859 1.731641
v 1.594141 3.848047 -1.926953
v 3.113281 -0.056250 1.939453
v 1.040625 3.772656 -2.446484
v 3.599219 4.791797 1.028125
v 3.410938 0.140625 -3.942188
v 3.607031 5.003906 0.000000
v 4.758985 3.780469 -2.229297
v 1.667969 0.091797 3.332422
v 4.413672 4.094922 -2.492969
v 0.806250 0.938281 2.816406
v 0.806250 0.938281 2.816406
v 4.496875 3.979297 -3.209375
v 0.519922 1.733984 2.816797
v 4.946875 3.681250 -2.914844
v 0.552344 2.726562 2.817188
v 4.341406 4.073047 -2.049609
v 1.040625 3.772656 2.446484
v 4.433594 4.215625 -1.431641
v 4.167969 0.199609 1.819922
v 4.293359 3.887891 -1.718750
v 4.433203 0.012500 2.631250
v 4.683203 3.616797 -1.665625
v 4.827734 0.441797 3.161719
v 4.990234 3.880469 -1.392578
v 5.136328 1.061719 3.435547
v 5.136328 1.061719 3.435547
v 3.587891 4.468359 -1.428516
v 5.257031 1.719922 3.534375
v 2.633203 4.465234 -1.441797
v 5.266407 2.482031 3.520703
v 1.505859 4.163281 -1.578125
v 5.154297 3.172266 3.287109
v 4.454297 0.010937 -1.720312
v 4.946875 3.681250 2.914844
v 0.552344 2.726562 -2.817188
v 4.758985 3.780469 2.229297
v 0.734375 3.365625 -2.767969
v 4.683203 3.616797 1.665625
v 0.519922 1.733984 -2.816797
v 5.239453 4.122656 1.016797
v 0.806250 0.938281 -2.816406
v 0.806250 0.938281 -2.816406
v 5.406250 4.305078 0.000000
v 1.275391 3.690625 -3.628906
v 5.900781 0.441797 0.000000
v 5.372266 2.061719 -1.688672
v 5.816016 0.551562 1.019141
v 5.816016 0.551562 1.019141
v 0.819922 0.943750 -3.456250
v 0.819922 0.943750 -3.456250
v 5.712891 0.750781 1.406250
v 0.579297 1.737891 -3.531250
v 5.876563 0.476172 0.486328
v 0.599609 2.693750 -3.528906
v 6.047266 1.238672 0.358203
v 6.047266 1.238672 0.358203
v 0.747656 3.338281 -3.483594
v 5.250391 0.583594 1.786719
v 4.759766 0.259766 -2.251563
v 5.945703 3.221484 0.428906
v 5.164453 0.682813 -2.604297
v 5.724609 3.790234 0.451172
v 5.178516 0.850000 -2.146484
v 5.366406 4.266797 0.520312
v 5.415235 1.409766 -2.151172
v 5.415235 1.409766 -2.151172
v 4.660547 4.678906 0.535156
v 5.431250 1.213281 -2.761328
v 5.431250 1.213281 -2.761328
v 3.601562 4.942578 0.523438
v 5.511719 1.810547 -2.148438
v 2.557422 4.940625 0.526172
v 5.526172 1.764063 -2.819531
v 1.380859 4.544922 0.552344
v 5.523828 2.353516 -2.777735
v 5.508594 2.782813 1.331250
v 5.508985 2.212109 -2.130078
v 5.661328 2.988672 1.087500
v 5.383594 2.644531 -2.064063
v 5.366406 3.448437 1.310938
v 5.426953 2.862109 -2.693750
v 4.990234 3.880469 1.392578
v 5.212891 3.355469 -2.444531
v 4.433594 4.215625 1.431641
v 5.165235 3.020313 -1.914453
v 3.587891 4.468359 1.428516
v 4.980078 3.462891 -2.122656
v 2.633203 4.465234 1.441797
v 5.006250 3.400000 -1.583984
v 1.505859 4.163281 1.578125
v 4.633203 0.374219 -1.857813
v 5.212891 3.355469 2.444531
v 5.176563 2.836719 -1.599219
v 5.426953 2.862109 2.693750
v 5.291406 2.436328 -1.613672
v 5.523828 2.353516 2.777735
v 1.090234 3.841406 -3.096484
v 5.526172 1.764063 2.819531
v 4.970313 3.268359 -1.641016
v 5.431250 1.213281 2.761328
v 5.431250 1.213281 2.761328
v 3.565234 -0.221484 -2.396484
v 5.164453 0.682813 2.604297
v 3.565234 -0.221484 2.396484
v 4.759766 0.259766 2.251563
v 4.482031 -1.967578 0.000000
v 4.880078 0.086328 1.669922
v 4.075781 -1.394922 0.000000
v 5.003125 -0.264453 1.187500
v 5.003125 -0.264453 1.187500
v 4.350391 -1.506250 0.000000
v 5.063672 -0.409766 0.580469
v 3.921484 -2.321484 0.000000
v 5.081250 -0.495313 0.000000
v 3.156250 -0.679688 -1.876953
v 5.378906 2.521484 1.473438
v 3.626953 -0.107422 -1.538281
v 5.345703 2.151953 1.591797
v 3.142578 -0.570312 -2.025000
v 0.751172 3.619141 1.616406
v 3.496094 -0.014844 -1.689844
v 0.508203 2.759766 1.830469
v 3.221484 -0.007031 -1.472266
v 0.457422 1.728906 1.844922
v 2.956641 -0.447266 -2.083203
v 0.762500 0.975391 1.833594
v 0.762500 0.975391 1.833594
v 2.777344 -0.432031 -1.946875
v 0.819922 0.943750 3.456250
v 0.819922 0.943750 3.456250
v 2.782422 -1.543359 -1.927734
v 0.579297 1.737891 3.531250
v 3.101953 -1.931641 -1.652344
v 0.599609 2.693750 3.528906
v 3.064063 -0.681250 -1.757812
v 1.090234 3.841406 3.096484
v 3.408203 -1.767578 -1.446875
v 4.980078 3.462891 2.122656
v 2.794922 -1.551953 -2.106641
v 5.897266 1.571484 1.339844
v 1.872266 -2.528906 -2.118750
v 5.698438 1.669922 1.477734
v 2.060156 -2.851172 -1.738672
v 1.592969 4.112891 2.363672
v 4.170312 -2.216797 -1.226953
v 2.625391 4.308203 2.139063
v 3.936719 -2.650391 -1.039062
v 3.576563 4.302344 2.071875
v 4.417188 -2.046094 -0.683594
v 4.341406 4.073047 2.049609
v 3.492578 -2.510547 -0.731641
v 5.271094 1.196484 1.815234
v 3.507422 -0.119922 -1.294141
v 5.460938 1.255859 1.642187
v 3.974219 -1.460547 -0.562891
v 1.068359 3.302734 4.071875
v 2.583984 -2.734766 -1.398828
v 0.747656 3.338281 3.483594
v 3.761328 -1.596484 -1.071094
v 0.734375 3.365625 2.767969
v 2.492969 -0.830078 -2.167969
v 5.425781 1.665234 1.532422
v 2.241797 -1.384766 -2.290625
v 5.178516 0.850000 2.146484
v 2.628516 -0.859375 -2.297656
v 5.415235 1.409766 2.151172
v 5.415235 1.409766 2.151172
v 2.353125 -1.460938 -2.417969
v 5.511719 1.810547 2.148438
v 2.878906 -1.008594 -2.204688
v 5.508985 2.212109 2.130078
v 2.700781 -1.591406 -2.329688
v 5.383594 2.644531 2.064063
v 2.078125 -2.075000 -2.327734
v 5.165235 3.020313 1.914453
v 2.413281 -2.473047 -2.319141
v 4.970313 3.268359 1.641016
v 2.408984 -2.892578 -2.084375
v 5.006250 3.400000 1.583984
v 2.775391 -2.048828 -2.108984
v 4.633203 0.374219 1.857813
v 2.721484 -1.986719 -1.883984
v 5.234375 1.228516 1.753516
v 2.778516 -3.032813 -1.882031
v 5.446094 1.707422 -1.551563
v 3.241797 -2.971094 -1.641797
v 5.575391 1.604297 -1.421094
v 3.012110 -2.603906 -2.110938
v 5.698438 1.669922 -1.477734
v 3.390234 -2.513672 -1.913672
v 4.524219 0.687109 -1.012109
v 4.044531 -1.743750 -1.219141
v 2.685938 0.773828 -1.677344
v 4.294922 -1.580078 -0.660547
v 6.549219 1.617969 -0.759375
v 2.094531 -1.826563 -2.282031
v 6.314063 1.303906 -0.733203
v 3.256250 -2.047656 -1.950781
v 6.387109 1.233984 -0.345703
v 3.659375 -1.928516 -1.633594
vt 0.487915 0.462036
vt 0.498352 0.451172
vt 0.497925 0.465820
vt 0.483398 0.448120
vt 0.474609 0.453735
vt 0.471680 0.448059
vt 0.470520 0.448486
vt 0.466797 0.443054
vt 0.465759 0.443481
vt 0.462036 0.438110
vt 0.460083 0.439026
vt 0.421326 0.418823
vt 0.417725 0.419617
vt 0.372803 0.412964
vt 0.395264 0.419739
vt 0.380066 0.418274
vt 0.364136 0.423279
vt 0.338135 0.421204
vt 0.348267 0.428284
vt 0.330017 0.427307
vt 0.302612 0.441406
vt 0.293152 0.442627
vt 0.315613 0.461792
vt 0.302246 0.462402
vt 0.321838 0.478455
vt 0.306885 0.479065
vt 0.313232 0.487305
vt 0.290833 0.488159
vt 0.293640 0.496460
vt 0.254150 0.486389
vt 0.254150 0.491577
vt 0.293640 0.496460
vt 0.168091 0.270203
vt 0.151062 0.266724
vt 0.163147 0.262146
vt 0.158997 0.277039
vt 0.175171 0.280762
vt 0.164795 0.284241
vt 0.150269 0.245178
vt 0.138550 0.252686
vt 0.136780 0.231445
vt 0.119263 0.242920
vt 0.114075 0.221375
vt 0.102234 0.234192
vt 0.070312 0.221008
vt 0.072510 0.264099
vt 0.006653 0.238953
vt 0.006653 0.279968
vt 0.072510 0.264099
vt 0.083191 0.299194
vt 0.158997 0.277039
vt 0.079529 0.287292
vt 0.077454 0.280640
vt 0.006042 0.295959
vt 0.006348 0.284912
vt 0.077454 0.280640
vt 0.071167 0.260498
vt 0.457764 0.408691
vt 0.458496 0.412048
vt 0.479004 0.435486
vt 0.414917 0.389587
vt 0.412476 0.382629
vt 0.350769 0.387329
vt 0.367859 0.372253
vt 0.317139 0.377441
vt 0.323303 0.361938
vt 0.288757 0.360657
vt 0.290222 0.351318
vt 0.254150 0.350037
vt 0.254150 0.338623
vt 0.290222 0.351318
vt 0.291870 0.339844
vt 0.326233 0.352539
vt 0.329529 0.341125
vt 0.376404 0.364502
vt 0.384583 0.355957
vt 0.426514 0.376404
vt 0.439636 0.370789
vt 0.470337 0.405579
vt 0.481018 0.402954
vt 0.498352 0.437134
vt 0.254150 0.389648
vt 0.285645 0.376160
vt 0.254150 0.374939
vt 0.282288 0.390808
vt 0.282837 0.400452
vt 0.310425 0.392029
vt 0.311462 0.401917
vt 0.338013 0.399841
vt 0.342163 0.407410
vt 0.369202 0.410278
vt 0.372803 0.412964
vt 0.442688 0.427979
vt 0.421326 0.418823
vt 0.463013 0.437622
vt 0.462036 0.438110
vt 0.466797 0.443054
vt 0.465759 0.443481
vt 0.470520 0.448486
vt 0.469421 0.448914
vt 0.473511 0.454102
vt 0.472412 0.454468
vt 0.476440 0.459717
vt 0.475403 0.460022
vt 0.469421 0.448914
vt 0.463623 0.444397
vt 0.467163 0.449707
vt 0.459473 0.446167
vt 0.462708 0.451416
vt 0.443176 0.449585
vt 0.448669 0.456604
vt 0.434631 0.461792
vt 0.437622 0.475342
vt 0.392151 0.475342
vt 0.392944 0.486450
vt 0.361328 0.486572
vt 0.365601 0.496277
vt 0.353394 0.486633
vt 0.358582 0.495972
vt 0.345520 0.486633
vt 0.351562 0.495605
vt 0.329651 0.486694
vt 0.337524 0.494995
vt 0.320679 0.495544
vt 0.585571 0.920288
vt 0.584045 0.929199
vt 0.651978 0.946228
vt 0.506226 0.910522
vt 0.506226 0.896179
vt 0.585571 0.920288
vt 0.587463 0.904175
vt 0.654541 0.933533
vt 0.657532 0.912537
vt 0.724609 0.921448
vt 0.729248 0.879211
vt 0.806580 0.930298
vt 0.802612 0.888123
vt 0.862488 0.929199
vt 0.881226 0.887512
vt 0.947083 0.916687
vt 0.912476 0.837524
vt 0.977051 0.894836
vt 0.956238 0.837524
vt 0.993713 0.875000
vt 0.981201 0.837524
vt 0.339417 0.477661
vt 0.348206 0.477295
vt 0.356995 0.476929
vt 0.382202 0.468567
vt 0.426819 0.452942
vt 0.419006 0.444092
vt 0.437622 0.442505
vt 0.391296 0.425354
vt 0.456238 0.440979
vt 0.410461 0.421204
vt 0.966370 0.575195
vt 0.978882 0.573120
vt 0.992798 0.588928
vt 0.954224 0.552673
vt 0.941406 0.555420
vt 0.929504 0.532227
vt 0.916382 0.535645
vt 0.847656 0.504395
vt 0.841370 0.510620
vt 0.803223 0.500183
vt 0.800110 0.506470
vt 0.758789 0.502258
vt 0.758789 0.508545
vt 0.800110 0.506470
vt 0.796936 0.513733
vt 0.841370 0.510620
vt 0.835144 0.518982
vt 0.903870 0.539795
vt 0.832031 0.527405
vt 0.899231 0.546814
vt 0.417725 0.419617
vt 0.395264 0.419739
vt 0.380066 0.418274
vt 0.364136 0.423279
vt 0.338135 0.421204
vt 0.348267 0.428284
vt 0.330017 0.427307
vt 0.302612 0.441406
vt 0.293152 0.442627
vt 0.315613 0.461792
vt 0.302246 0.462402
vt 0.321838 0.478455
vt 0.306885 0.479065
vt 0.313232 0.487305
vt 0.290833 0.488159
vt 0.410461 0.421204
vt 0.391296 0.425354
vt 0.377747 0.424316
vt 0.372192 0.429504
vt 0.360229 0.428894
vt 0.313171 0.440002
vt 0.307922 0.440674
vt 0.332214 0.463501
vt 0.335815 0.470581
vt 0.339417 0.477661
vt 0.345520 0.486633
vt 0.353394 0.486633
vt 0.358582 0.495972
vt 0.365601 0.496277
vt 0.477539 0.459412
vt 0.473511 0.454102
vt 0.476440 0.459717
vt 0.472412 0.454468
vt 0.475403 0.460022
vt 0.470276 0.455139
vt 0.473328 0.460632
vt 0.465942 0.456604
vt 0.469177 0.461792
vt 0.451782 0.465942
vt 0.454895 0.475342
vt 0.440613 0.488892
vt 0.393738 0.497559
vt 0.891418 0.574158
vt 0.935120 0.604370
vt 0.935120 0.596008
vt 0.915771 0.602600
vt 0.891418 0.589783
vt 0.900757 0.601257
vt 0.882019 0.599182
vt 0.910156 0.612732
vt 0.877319 0.603821
vt 0.911682 0.615295
vt 0.913269 0.617920
vt 0.941406 0.613770
vt 0.933594 0.619751
vt 0.947632 0.623108
vt 0.941406 0.625732
vt 0.972656 0.627258
vt 0.960144 0.633545
vt 0.346252 0.415039
vt 0.342163 0.407410
vt 0.312500 0.411804
vt 0.312134 0.419067
vt 0.283142 0.418396
vt 0.282959 0.426697
vt 0.254150 0.427002
vt 0.268921 0.445862
vt 0.254150 0.447876
vt 0.254150 0.464539
vt 0.268921 0.445862
vt 0.284912 0.463135
vt 0.283691 0.443909
vt 0.936707 0.606689
vt 0.900757 0.601257
vt 0.915771 0.602600
vt 0.938293 0.609070
vt 0.960144 0.616882
vt 0.941406 0.613770
vt 0.947632 0.623108
vt 0.933594 0.619751
vt 0.941406 0.625732
vt 0.925781 0.625732
vt 0.935120 0.628357
vt 0.924194 0.636658
vt 0.925781 0.639771
vt 0.902466 0.654358
vt 0.928894 0.646057
vt 0.288025 0.479858
vt 0.284912 0.463135
vt 0.283691 0.443909
vt 0.311768 0.426392
vt 0.760620 0.568970
vt 0.760437 0.559082
vt 0.791077 0.559631
vt 0.791077 0.559631
vt 0.810120 0.579346
vt 0.833984 0.561584
vt 0.834045 0.554077
vt 0.891418 0.558533
vt 0.935120 0.587708
vt 0.947632 0.591858
vt 0.949219 0.579895
vt 0.964172 0.591980
vt 0.654541 0.933533
vt 0.718384 0.961365
vt 0.587463 0.904175
vt 0.506226 0.854187
vt 0.591431 0.862549
vt 0.662476 0.870850
vt 0.662476 0.829224
vt 0.756226 0.850037
vt 0.442688 0.427979
vt 0.369202 0.410278
vt 0.338013 0.399841
vt 0.311462 0.401917
vt 0.310425 0.392029
vt 0.282837 0.400452
vt 0.282288 0.390808
vt 0.285645 0.376160
vt 0.377747 0.424316
vt 0.372192 0.429504
vt 0.360229 0.428894
vt 0.313171 0.440002
vt 0.307922 0.440674
vt 0.332214 0.463501
vt 0.335815 0.470581
vt 0.891418 0.589783
vt 0.882019 0.599182
vt 0.891418 0.574158
vt 0.935120 0.604370
vt 0.935120 0.596008
vt 0.972656 0.610596
vt 0.966370 0.603333
vt 0.981628 0.611145
vt 0.960144 0.596008
vt 0.994080 0.602295
vt 0.964172 0.591980
vt 0.356995 0.476929
vt 0.352966 0.471069
vt 0.344360 0.470825
vt 0.382202 0.468567
vt 0.392151 0.475342
vt 0.426819 0.452942
vt 0.434631 0.461792
vt 0.443176 0.449585
vt 0.448669 0.456604
vt 0.462708 0.451416
vt 0.465942 0.456604
vt 0.467163 0.449707
vt 0.470276 0.455139
vt 0.814331 0.970642
vt 0.721069 0.948486
vt 0.718384 0.961365
vt 0.651978 0.946228
vt 0.584045 0.929199
vt 0.506226 0.920166
vt 0.581909 0.937988
vt 0.283325 0.410034
vt 0.254150 0.417664
vt 0.283142 0.418396
vt 0.282959 0.426697
vt 0.312134 0.419067
vt 0.311768 0.426392
vt 0.878906 0.629395
vt 0.922668 0.633545
vt 0.872620 0.647461
vt 0.916382 0.623108
vt 0.872620 0.608521
vt 0.877319 0.603821
vt 0.844543 0.593933
vt 0.810120 0.579346
vt 0.833984 0.561584
vt 0.834045 0.554077
vt 0.814331 0.970642
vt 0.856201 1.000000
vt 0.962463 1.000000
vt 0.721069 0.948486
vt 0.724609 0.921448
vt 0.657532 0.912537
vt 0.729248 0.879211
vt 0.662476 0.870850
vt 0.662476 0.829224
vt 0.593750 0.820862
vt 0.931213 0.966675
vt 1.000000 0.950012
vt 0.947083 0.916687
vt 0.888245 0.975220
vt 0.862488 0.929199
vt 0.806580 0.930298
vt 0.802612 0.888123
vt 0.756226 0.850037
vt 0.916382 0.623108
vt 0.925781 0.625732
vt 0.935120 0.628357
vt 0.925781 0.639771
vt 0.928894 0.646057
vt 0.902466 0.654358
vt 0.966370 0.603333
vt 0.972656 0.610596
vt 0.969543 0.612183
vt 0.936707 0.606689
vt 0.966370 0.613770
vt 0.960144 0.616882
vt 0.987915 0.616333
vt 0.985168 0.621033
vt 0.340576 0.464355
vt 0.348877 0.465210
vt 0.372192 0.461792
vt 0.419006 0.444092
vt 0.473328 0.460632
vt 0.469177 0.461792
vt 0.451782 0.465942
vt 0.454895 0.475342
vt 0.437622 0.475342
vt 0.440613 0.488892
vt 0.392944 0.486450
vt 0.393738 0.497559
vt 0.149780 0.246887
vt 0.138611 0.252075
vt 0.119385 0.242676
vt 0.007019 0.223633
vt 0.103210 0.233398
vt 0.067688 0.221313
vt 0.070557 0.208313
vt 0.038452 0.202820
vt 0.254150 0.398926
vt 0.283325 0.410034
vt 0.312500 0.411804
vt 0.346252 0.415039
vt 0.460083 0.439026
vt 0.463623 0.444397
vt 0.372192 0.461792
vt 0.348877 0.465210
vt 0.352966 0.471069
vt 0.340576 0.464355
vt 0.344360 0.470825
vt 0.856201 0.837524
vt 0.812500 0.758362
vt 0.799988 0.762512
vt 0.868713 0.837524
vt 0.881226 0.887512
vt 0.912476 0.837524
vt 0.977051 0.894836
vt 0.993713 0.875000
vt 0.150269 0.245178
vt 0.138550 0.252686
vt 0.136780 0.231445
vt 0.164795 0.284241
vt 0.175171 0.280762
vt 0.168091 0.270203
vt 0.151062 0.266724
vt 0.163147 0.262146
vt 0.149780 0.246887
vt 1.000000 0.950012
vt 0.931213 0.966675
vt 0.888245 0.975220
vt 0.962463 1.000000
vt 0.856201 1.000000
vt 0.498352 0.437134
vt 0.498352 0.451172
vt 0.470337 0.405579
vt 0.426514 0.376404
vt 0.376404 0.364502
vt 0.384583 0.355957
vt 0.329529 0.341125
vt 0.471680 0.448059
vt 0.467834 0.442627
vt 0.477600 0.436340
vt 0.463989 0.437134
vt 0.365601 0.407654
vt 0.847656 0.504395
vt 0.803223 0.500183
vt 0.916382 0.535645
vt 0.941406 0.555420
vt 0.932800 0.559387
vt 0.957825 0.577576
vt 0.966370 0.589783
vt 0.463013 0.437622
vt 0.463989 0.437134
vt 0.365601 0.407654
vt 0.350769 0.387329
vt 0.317139 0.377441
vt 0.913269 0.617920
vt 0.911682 0.615295
vt 0.910156 0.612732
vt 0.937500 0.770874
vt 0.913818 0.779480
vt 0.877930 0.793335
vt 0.849976 0.737549
vt 0.831238 0.750000
vt 0.743713 0.691711
vt 0.731201 0.700012
vt 0.716980 0.710449
vt 0.731201 0.700012
vt 0.831238 0.750000
vt 0.743713 0.691711
vt 0.849976 0.737549
vt 0.756226 0.683350
vt 0.868713 0.725037
vt 0.865051 0.662964
vt 0.847412 0.663269
vt 0.875977 0.662720
vt 0.889221 0.658569
vt 0.895813 0.656494
vt 0.949219 0.579895
vt 0.966370 0.589783
vt 0.957825 0.577576
vt 0.932800 0.559387
vt 0.903870 0.539795
vt 0.477600 0.436340
vt 0.467834 0.442627
vt 0.437622 0.442505
vt 0.459473 0.446167
vt 0.361328 0.486572
vt 0.348206 0.477295
vt 0.288025 0.479858
vt 0.254150 0.481201
vt 0.363953 0.228210
vt 0.356812 0.256897
vt 0.451904 0.237488
vt 0.276733 0.256897
vt 0.276062 0.218872
vt 0.363953 0.228210
vt 0.362488 0.191895
vt 0.449585 0.202881
vt 0.412476 0.382629
vt 0.457764 0.408691
vt 0.479004 0.435486
vt 0.288757 0.360657
vt 0.323303 0.361938
vt 0.367859 0.372253
vt 0.254150 0.359436
vt 0.083191 0.299194
vt 0.006165 0.304993
vt 0.073303 0.209412
vt 0.037598 0.216919
vt 0.039307 0.203186
vt 0.006653 0.213501
vt 0.006653 0.201416
vt 0.039307 0.203186
vt 0.254150 0.408264
vt 0.937500 0.770874
vt 0.913818 0.779480
vt 0.877930 0.793335
vt 0.956238 0.837524
vt 0.071167 0.260498
vt 0.138611 0.252075
vt 0.119385 0.242676
vt 0.135315 0.231995
vt 0.115234 0.221497
vt 0.103210 0.233398
vt 0.067688 0.221313
vt 0.070557 0.208313
vt 0.038452 0.202820
vt 0.356812 0.256897
vt 0.277649 0.288391
vt 0.357117 0.288452
vt 0.357422 0.320007
vt 0.454590 0.328064
vt 0.981628 0.611145
vt 0.960144 0.596008
vt 0.922668 0.633545
vt 0.872620 0.647461
vt 0.875977 0.662720
vt 0.878906 0.629395
vt 0.872620 0.608521
vt 0.891418 0.558533
vt 0.935120 0.587708
vt 0.895325 0.552673
vt 0.899231 0.546814
vt 0.832031 0.527405
vt 0.960144 0.633545
vt 0.972656 0.627258
vt 0.985168 0.621033
vt 0.868713 0.837524
vt 0.856201 0.837524
vt 0.862488 0.875000
vt 0.007019 0.262756
vt 0.036987 0.216797
vt 0.007019 0.213379
vt 0.036987 0.216797
vt 0.007019 0.201477
vt 0.119263 0.242920
vt 0.114075 0.221375
vt 0.834106 0.546509
vt 0.833069 0.536987
vt 0.895325 0.552673
vt 0.487915 0.462036
vt 0.497925 0.465820
vt 0.483398 0.448120
vt 0.796936 0.513733
vt 0.795532 0.523926
vt 0.759094 0.520508
vt 0.835144 0.518982
vt 0.454163 0.272156
vt 0.454407 0.300110
vt 0.357117 0.288452
vt 0.454590 0.328064
vt 0.357422 0.320007
vt 0.969543 0.612183
vt 0.456238 0.440979
vt 0.037598 0.216919
vt 0.070312 0.221008
vt 0.073303 0.209412
vt 0.102234 0.234192
vt 0.834106 0.546509
vt 0.833069 0.536987
vt 0.591431 0.862549
vt 0.329651 0.486694
vt 0.351562 0.495605
vt 0.320679 0.495544
vt 0.337524 0.494995
vt 0.799988 0.862549
vt 0.451904 0.237488
vt 0.454163 0.272156
vt 0.454407 0.300110
vt 0.938293 0.609070
vt 0.889221 0.658569
vt 0.924194 0.636658
vt 0.895813 0.656494
vt 0.989929 0.612854
vt 0.990662 0.611633
vt 0.994080 0.602295
vt 0.079529 0.287292
vt 0.326233 0.352539
vt 0.291870 0.339844
vt 0.989929 0.612854
vt 0.966370 0.613770
vt 0.989258 0.614014
vt 0.987915 0.616333
vt 0.758789 0.496033
vt 0.474609 0.453735
vt 0.477539 0.459412
vt 0.954224 0.552673
vt 0.929504 0.532227
vt 0.966370 0.575195
vt 0.812500 0.758362
vt 0.716980 0.710449
vt 0.799988 0.762512
vt 0.947632 0.591858
vt 0.506226 0.932434
vt 0.581909 0.937988
vt 0.135315 0.231995
vt 0.115234 0.221497
vt 0.993225 0.591431
vt 0.458496 0.412048
vt 0.795532 0.523926
vt 0.924194 0.563354
vt 0.981201 0.837524
vt 0.924194 0.563354
vt 0.439636 0.370789
vt 0.649292 0.954956
vt 0.649292 0.954956
vt 0.865051 0.662964
vt 0.847412 0.663269
vt 0.978882 0.573120
vt 0.992798 0.588928
vt 0.993225 0.591431
vt 0.481018 0.402954
vt 0.449585 0.202881
vt 0.362488 0.191895
vt 0.275391 0.180908
vt 0.992126 0.589722
vt 0.862488 0.875000
vt 0.990662 0.611633
vt 0.799988 0.862549
vt 0.868713 0.725037
vt 0.506226 0.816711
vt 0.593750 0.820862
vt 0.756226 0.683350
vt 0.414917 0.389587
vt 0.844543 0.593933
vt 0.989258 0.614014
vt 0.278564 0.319885
vt 0.718079 0.971802
vt 0.718079 0.971802
vt 0.992126 0.589722
vn 0.9793 0.1067 0.1718
vn 0.1789 0.1046 -0.9783
vn 0.1557 0.1495 -0.9764
vn 0.9009 0.0902 -0.4244
vn 0.9086 -0.0300 0.4165
vn 0.9395 0.0318 0.3410
vn 0.9749 0.1161 0.1902
vn 0.9193 0.2932 0.2625
vn 0.9494 0.3056 -0.0727
vn 0.8238 0.5525 0.1270
vn 0.7189 0.6790 -0.1485
vn 0.7629 0.5929 0.2577
vn 0.6959 0.6989 0.1648
vn 0.6609 0.6692 -0.3397
vn 0.4276 0.8514 0.3036
vn 0.4413 0.8802 -0.1744
vn 0.1650 0.9670 -0.1941
vn 0.1187 0.7141 -0.6898
vn -0.0956 0.9750 -0.2006
vn -0.0521 0.7456 -0.6644
vn -0.3440 0.9151 -0.2104
vn -0.2952 0.7620 -0.5764
vn -0.8125 0.5785 0.0720
vn -0.7342 0.5403 -0.4110
vn -0.9757 0.2088 -0.0659
vn -0.8971 0.1806 -0.4032
vn -0.9248 -0.1585 -0.3459
vn -0.9762 -0.2048 -0.0716
vn -0.9215 -0.3806 -0.0768
vn -0.9897 -0.1427 0.0000
vn -0.9775 -0.2107 0.0000
vn -0.9215 -0.3806 0.0768
vn 0.6865 0.5038 -0.5243
vn -0.6802 0.6848 -0.2615
vn -0.4688 0.8159 -0.3383
vn -0.6505 0.3144 0.6913
vn 0.7667 -0.6409 -0.0360
vn 0.5010 -0.6724 0.5448
vn 0.6554 -0.7249 -0.2116
vn 0.2910 -0.7534 0.5896
vn 0.5625 -0.6644 -0.4919
vn 0.1295 -0.9915 0.0147
vn 0.5379 -0.8007 -0.2637
vn 0.0085 -0.9852 0.1708
vn 0.0000 -0.9944 0.1052
vn -0.0137 -0.8625 0.5059
vn -0.5632 -0.8263 0.0000
vn 0.0039 -1.0000 0.0000
vn -0.0137 -0.8625 -0.5059
vn 0.3881 -0.4676 -0.7942
vn -0.6505 0.3144 -0.6913
vn 0.6623 0.0854 -0.7443
vn 0.3074 0.6471 -0.6977
vn 0.9970 0.0765 0.0000
vn 0.5150 0.8572 0.0000
vn 0.3074 0.6471 0.6977
vn -0.2791 0.7942 0.5398
vn 0.2296 0.1968 0.9532
vn 0.4024 0.2837 0.8704
vn 0.2247 0.0197 0.9742
vn 0.3861 0.4198 0.8214
vn 0.2739 0.3557 0.8936
vn 0.4539 0.5583 0.6944
vn 0.3677 0.5837 0.7239
vn 0.5609 0.6829 0.4679
vn 0.5488 0.7114 0.4389
vn 0.6460 0.7353 0.2049
vn 0.9753 0.0410 0.2167
vn 0.9991 0.0424 0.0000
vn 0.9411 -0.3381 0.0000
vn 0.9753 0.0410 -0.2167
vn 0.9294 -0.3196 -0.1846
vn 0.8840 0.0073 -0.4675
vn 0.8499 -0.3431 -0.3999
vn 0.7014 -0.0860 -0.7075
vn 0.7024 -0.3610 -0.6135
vn 0.6216 -0.1717 -0.7642
vn 0.6815 -0.3557 -0.6395
vn 0.6453 -0.2683 -0.7152
vn 0.7488 -0.5536 -0.3643
vn 0.5538 -0.1664 -0.8158
vn 0.8791 0.4767 0.0000
vn 0.6616 0.7136 0.2302
vn 0.6825 0.7309 0.0000
vn 0.8562 0.4621 0.2311
vn 0.6622 0.7103 0.2387
vn 0.7893 0.3810 0.4815
vn 0.6114 0.6046 0.5105
vn 0.6749 0.2621 0.6897
vn 0.4742 0.4675 0.7460
vn 0.4986 0.2695 0.8238
vn 0.6609 0.6692 0.3397
vn 0.8135 0.4464 0.3726
vn 0.7629 0.5929 -0.2577
vn 0.8704 0.4100 -0.2723
vn 0.8238 0.5525 -0.1270
vn 0.9193 0.2932 -0.2625
vn 0.9494 0.3056 0.0727
vn 0.9749 0.1161 -0.1902
vn 0.9837 0.1136 0.1393
vn 0.9862 -0.1023 -0.1298
vn 0.9828 -0.0937 0.1591
vn 0.9714 -0.2149 -0.1009
vn 0.9684 -0.1905 0.1605
vn 0.9837 0.1136 -0.1393
vn 0.8177 0.4219 -0.3915
vn 0.8546 0.1519 -0.4965
vn 0.5718 0.5178 -0.6363
vn 0.5813 0.1953 -0.7899
vn 0.2772 0.5561 -0.7835
vn 0.2495 0.1837 -0.9508
vn 0.0101 0.1602 -0.9870
vn -0.0230 -0.1430 -0.9894
vn -0.3359 0.1491 -0.9300
vn -0.3585 -0.1618 -0.9194
vn -0.7379 -0.1560 -0.6566
vn -0.6992 -0.3178 -0.6404
vn -0.9471 -0.1331 -0.2919
vn -0.9112 -0.3155 -0.2647
vn -0.9795 -0.1361 0.1483
vn -0.9461 -0.3016 0.1176
vn -0.9857 -0.1284 -0.1090
vn -0.9723 -0.2266 -0.0579
vn -0.9136 -0.3128 -0.2596
vn 0.7151 -0.6923 -0.0963
vn -0.0403 -0.9678 0.2484
vn -0.0976 -0.8927 0.4398
vn 0.7591 -0.6510 0.0000
vn 0.9996 -0.0261 0.0000
vn 0.7151 -0.6923 0.0963
vn 0.9626 -0.0787 0.2592
vn 0.5563 -0.8255 0.0955
vn 0.8416 -0.1820 0.5085
vn 0.6881 -0.1938 0.6992
vn 0.4426 0.5393 0.7164
vn 0.5776 -0.2532 0.7760
vn 0.3271 0.5478 0.7699
vn 0.3872 -0.2721 0.8809
vn 0.6937 0.2084 0.6894
vn 0.0544 -0.2625 0.9634
vn 0.5900 -0.0849 0.8029
vn -0.4935 0.0001 0.8697
vn -0.2114 0.1267 0.9691
vn -0.6803 0.1798 0.7105
vn -0.6064 0.3262 0.7252
vn -0.9745 0.1439 0.1718
vn -0.9520 0.1284 -0.2777
vn -0.7207 0.1144 -0.6837
vn -0.3314 0.5238 -0.7847
vn 0.0133 0.5480 -0.8364
vn -0.0284 0.9093 -0.4151
vn 0.2290 0.8835 -0.4085
vn 0.1649 0.9863 -0.0060
vn 0.5126 0.7945 -0.3256
vn 0.5083 0.8611 0.0128
vn 0.3518 -0.0883 0.9319
vn 0.3233 0.2347 0.9167
vn 0.1368 0.2018 0.9698
vn 0.5384 0.1881 0.8214
vn 0.5442 -0.1187 0.8305
vn 0.7610 0.0766 0.6442
vn 0.7230 -0.2054 0.6596
vn 0.9126 0.0665 0.4033
vn 0.8690 -0.2653 0.4175
vn 0.9738 0.0789 0.2131
vn 0.9266 -0.3003 0.2260
vn 0.9494 -0.3139 0.0000
vn 0.4120 -0.9112 0.0000
vn 0.9266 -0.3003 -0.2260
vn 0.4187 -0.8942 -0.1585
vn 0.8690 -0.2653 -0.4175
vn 0.4280 -0.8423 -0.3275
vn 0.3582 -0.7445 -0.5633
vn 0.3701 -0.8690 -0.3285
vn 0.5744 -0.6223 -0.5318
vn 0.6959 0.6989 -0.1648
vn 0.4276 0.8514 -0.3036
vn 0.4413 0.8802 0.1744
vn 0.1650 0.9670 0.1941
vn 0.1187 0.7141 0.6898
vn -0.0956 0.9750 0.2006
vn -0.0521 0.7456 0.6644
vn -0.3440 0.9151 0.2104
vn -0.2952 0.7620 0.5764
vn -0.8125 0.5785 -0.0720
vn -0.7342 0.5403 0.4110
vn -0.9757 0.2088 0.0659
vn -0.8971 0.1806 0.4032
vn -0.9248 -0.1585 0.3459
vn -0.9762 -0.2048 0.0716
vn 0.5083 0.8611 -0.0128
vn 0.1649 0.9863 0.0060
vn 0.1197 0.9351 -0.3334
vn -0.1096 0.9938 0.0150
vn -0.1278 0.9515 -0.2797
vn -0.3817 0.9201 0.0878
vn -0.4147 0.8711 -0.2628
vn -0.6988 0.6120 -0.3702
vn -0.8995 0.4004 -0.1749
vn -0.9745 0.1439 -0.1718
vn -0.9795 -0.1361 -0.1483
vn -0.9471 -0.1331 0.2919
vn -0.9112 -0.3155 0.2647
vn -0.6992 -0.3178 0.6404
vn 0.9476 -0.1558 0.2788
vn 0.9862 -0.1023 0.1298
vn 0.9714 -0.2149 0.1009
vn 0.9828 -0.0937 -0.1591
vn 0.9684 -0.1905 -0.1605
vn 0.8548 -0.1111 -0.5069
vn 0.8347 -0.2197 -0.5049
vn 0.5842 -0.0928 -0.8063
vn 0.5770 -0.2224 -0.7859
vn 0.2395 -0.0995 -0.9658
vn 0.2103 -0.2669 -0.9405
vn -0.0670 -0.3383 -0.9386
vn -0.3619 -0.3617 -0.8592
vn 0.2474 -0.5836 -0.7734
vn 0.6321 -0.5947 -0.4966
vn 0.3853 -0.1699 -0.9070
vn 0.4715 -0.8027 -0.3651
vn 0.0562 -0.6656 -0.7442
vn 0.3264 -0.8769 -0.3527
vn 0.0770 -0.9963 -0.0374
vn 0.3440 -0.8983 0.2733
vn -0.1864 -0.9405 0.2841
vn 0.1024 -0.9798 0.1715
vn -0.0939 -0.9896 0.1093
vn 0.2969 -0.9341 -0.1980
vn 0.0450 -0.9630 -0.2657
vn 0.4361 -0.7646 -0.4746
vn 0.1392 -0.7866 -0.6015
vn 0.1776 -0.6495 -0.7393
vn -0.0684 -0.6201 -0.7815
vn 0.2992 0.6198 -0.7255
vn 0.4742 0.4675 -0.7460
vn 0.3444 0.7975 -0.4953
vn 0.1191 0.8801 -0.4596
vn 0.1195 0.9720 -0.2024
vn -0.1537 0.9686 -0.1953
vn -0.1621 0.9868 0.0000
vn -0.5101 0.8449 -0.1608
vn -0.5354 0.8446 0.0000
vn -0.8778 0.4790 0.0000
vn -0.5101 0.8449 0.1608
vn -0.8413 0.5085 0.1834
vn -0.4458 0.8287 0.3383
vn 0.5905 -0.7846 -0.1886
vn 0.3264 -0.8769 0.3527
vn 0.4715 -0.8027 0.3651
vn 0.4948 -0.8689 0.0136
vn 0.6778 -0.6759 0.2893
vn 0.2969 -0.9341 0.1980
vn 0.4361 -0.7646 0.4746
vn 0.0450 -0.9630 0.2657
vn 0.1392 -0.7866 0.6015
vn -0.1635 -0.9545 0.2494
vn -0.1003 -0.7845 0.6119
vn -0.4768 -0.8565 0.1975
vn -0.3893 -0.7357 0.5542
vn -0.6099 -0.6529 0.4492
vn -0.3119 -0.5702 0.7599
vn -0.9854 0.1262 -0.1139
vn -0.8413 0.5085 -0.1834
vn -0.4458 0.8287 -0.3383
vn -0.1144 0.8908 -0.4397
vn -0.1927 -0.9812 0.0000
vn -0.1269 -0.9919 0.0000
vn -0.2074 -0.9521 0.2249
vn -0.2074 -0.9521 -0.2249
vn -0.1840 -0.9191 -0.3484
vn -0.1164 -0.8676 -0.4834
vn 0.3049 -0.7483 -0.5891
vn 0.5518 -0.4670 -0.6909
vn 0.6966 0.0157 -0.7172
vn 0.5799 0.1445 -0.8018
vn 0.4499 -0.3174 -0.8348
vn 0.5380 -0.1639 -0.8268
vn 0.5563 -0.8255 -0.0955
vn -0.2212 -0.7969 0.5622
vn 0.9626 -0.0787 -0.2592
vn 0.7338 0.6793 0.0000
vn 0.6891 0.6594 0.3005
vn 0.5680 0.5909 0.5728
vn 0.2205 0.8706 0.4398
vn 0.0909 0.8561 0.5087
vn 0.8135 0.4464 -0.3726
vn 0.4986 0.2695 -0.8238
vn 0.6749 0.2621 -0.6897
vn 0.6114 0.6046 -0.5105
vn 0.7893 0.3810 -0.4815
vn 0.6622 0.7103 -0.2387
vn 0.8562 0.4621 -0.2311
vn 0.6616 0.7136 -0.2302
vn 0.1197 0.9351 0.3334
vn -0.1096 0.9938 -0.0150
vn -0.1278 0.9515 0.2797
vn -0.3817 0.9201 -0.0878
vn -0.4147 0.8711 0.2628
vn -0.6988 0.6120 0.3702
vn -0.8995 0.4004 0.1749
vn 0.0562 -0.6656 0.7442
vn 0.0770 -0.9963 0.0374
vn 0.2474 -0.5836 0.7734
vn 0.6321 -0.5947 0.4966
vn 0.3853 -0.1699 0.9070
vn 0.8347 -0.3390 0.4339
vn 0.9364 -0.2742 0.2188
vn 0.8330 -0.3948 -0.3875
vn 0.5133 0.2866 0.8089
vn 0.6674 0.0723 0.7411
vn 0.5380 -0.1639 0.8268
vn -0.7207 0.1144 0.6837
vn -0.6344 0.4730 0.6114
vn -0.8504 0.4567 0.2611
vn -0.3314 0.5238 0.7847
vn -0.3359 0.1491 0.9300
vn 0.0133 0.5480 0.8364
vn 0.0101 0.1602 0.9870
vn 0.2772 0.5561 0.7835
vn 0.2495 0.1837 0.9508
vn 0.5813 0.1953 0.7899
vn 0.5842 -0.0928 0.8063
vn 0.8546 0.1519 0.4965
vn 0.8548 -0.1111 0.5069
vn 0.2997 -0.9386 0.1709
vn 0.4490 -0.8913 0.0631
vn -0.2212 -0.7969 -0.5622
vn -0.0976 -0.8927 -0.4398
vn -0.0403 -0.9678 -0.2484
vn -0.3283 -0.9445 0.0000
vn -0.6763 -0.5801 0.4539
vn 0.3747 0.9003 -0.2212
vn 0.1210 0.9926 0.0000
vn 0.1195 0.9720 0.2024
vn -0.1537 0.9686 0.1953
vn 0.1191 0.8801 0.4596
vn -0.1144 0.8908 0.4397
vn -0.3676 -0.8746 -0.3161
vn -0.4728 -0.8766 -0.0900
vn -0.8252 -0.4013 0.3974
vn -0.2409 -0.9550 -0.1726
vn -0.3363 -0.8374 -0.4308
vn -0.1864 -0.9405 -0.2841
vn -0.0853 -0.9957 0.0366
vn -0.1840 -0.9191 0.3484
vn -0.1164 -0.8676 0.4834
vn 0.3049 -0.7483 0.5891
vn 0.2997 -0.9386 -0.1709
vn -0.1718 -0.8598 0.4808
vn -0.3700 -0.9247 -0.0888
vn 0.4490 -0.8913 -0.0631
vn 0.6881 -0.1938 -0.6992
vn 0.8416 -0.1820 -0.5085
vn 0.4426 0.5393 -0.7164
vn 0.5680 0.5909 -0.5728
vn 0.2205 0.8706 -0.4398
vn 0.2881 0.9245 -0.2496
vn -0.1531 -0.7668 -0.6233
vn -0.4230 -0.4821 -0.7672
vn 0.0544 -0.2625 -0.9634
vn 0.0917 -0.9673 -0.2364
vn 0.3872 -0.2721 -0.8809
vn 0.5776 -0.2532 -0.7760
vn 0.3271 0.5478 -0.7699
vn 0.0909 0.8561 -0.5087
vn -0.2409 -0.9550 0.1726
vn -0.1635 -0.9545 -0.2494
vn -0.1003 -0.7845 -0.6119
vn -0.3893 -0.7357 -0.5542
vn -0.3119 -0.5702 -0.7599
vn -0.6099 -0.6529 -0.4492
vn 0.9364 -0.2742 -0.2188
vn 0.8347 -0.3390 -0.4339
vn 0.8527 -0.4888 0.1841
vn 0.5905 -0.7846 0.1886
vn 0.8232 -0.5669 -0.0288
vn 0.6778 -0.6759 -0.2893
vn 0.7698 -0.5314 -0.3537
vn 0.5028 -0.6368 -0.5845
vn -0.6316 0.7604 0.1509
vn -0.5748 0.7229 0.3834
vn -0.3830 0.7860 0.4852
vn -0.0284 0.9093 0.4151
vn 0.8347 -0.2197 0.5049
vn 0.5770 -0.2224 0.7859
vn 0.2395 -0.0995 0.9658
vn 0.2103 -0.2669 0.9405
vn -0.0230 -0.1430 0.9894
vn -0.0670 -0.3383 0.9386
vn -0.3585 -0.1618 0.9194
vn -0.3619 -0.3617 0.8592
vn -0.0878 0.8384 -0.5378
vn -0.5356 0.8371 -0.1109
vn -0.3120 0.9492 0.0405
vn -0.6736 0.7390 0.0000
vn -0.3053 0.9490 0.0782
vn -0.3787 0.9151 0.1383
vn 0.2068 0.9656 -0.1575
vn 0.2014 0.9778 -0.0576
vn 0.6778 0.7352 0.0000
vn 0.3747 0.9003 0.2212
vn 0.3444 0.7975 0.4953
vn 0.2992 0.6198 0.7255
vn 0.7189 0.6790 0.1485
vn 0.8177 0.4219 0.3915
vn -0.3830 0.7860 -0.4852
vn -0.5748 0.7229 -0.3834
vn -0.6344 0.4730 -0.6114
vn -0.6316 0.7604 -0.1509
vn -0.8504 0.4567 -0.2611
vn 0.9621 -0.2406 0.1281
vn 0.8513 -0.5245 0.0086
vn 0.6527 -0.5712 0.4976
vn 0.9682 -0.1738 -0.1798
vn 0.6937 0.2084 -0.6894
vn 0.5900 -0.0849 -0.8029
vn -0.4935 0.0001 -0.8697
vn -0.6803 0.1798 -0.7105
vn 0.6554 -0.7249 0.2116
vn 0.2910 -0.7534 -0.5896
vn 0.5625 -0.6644 0.4919
vn 0.5010 -0.6724 -0.5448
vn 0.7667 -0.6409 0.0360
vn 0.6865 0.5038 0.5243
vn -0.6802 0.6848 0.2615
vn -0.4688 0.8159 0.3383
vn -0.0878 0.8384 0.5378
vn -0.4230 -0.4821 0.7672
vn -0.1531 -0.7668 0.6233
vn 0.0917 -0.9673 0.2364
vn -0.3700 -0.9247 0.0888
vn -0.1718 -0.8598 -0.4808
vn 0.5538 -0.1664 0.8158
vn 0.1789 0.1046 0.9783
vn 0.6453 -0.2683 0.7152
vn 0.6216 -0.1717 0.7642
vn 0.7014 -0.0860 0.7075
vn 0.7024 -0.3610 0.6135
vn 0.8499 -0.3431 0.3999
vn 0.9395 0.0318 -0.3410
vn 0.8699 0.2138 -0.4445
vn 0.7364 0.2610 0.6241
vn 0.8990 0.2743 0.3412
vn 0.6262 0.1727 0.7603
vn 0.9126 0.0665 -0.4033
vn 0.9738 0.0789 -0.2131
vn 0.7230 -0.2054 -0.6596
vn 0.5442 -0.1187 -0.8305
vn 0.2983 -0.6195 -0.7261
vn 0.2205 -0.5708 -0.7909
vn 0.2915 -0.3134 -0.9037
vn 0.8704 0.4100 0.2723
vn 0.8990 0.2743 -0.3412
vn 0.6262 0.1727 -0.7603
vn 0.4539 0.5583 -0.6944
vn 0.5609 0.6829 -0.4679
vn -0.0939 -0.9896 -0.1093
vn 0.1024 -0.9798 -0.1715
vn 0.3440 -0.8983 -0.2733
vn -0.5121 0.5410 0.6671
vn -0.0985 0.3767 0.9211
vn 0.6417 -0.0617 0.7644
vn 0.0136 0.5616 0.8273
vn 0.6827 -0.0896 0.7252
vn 0.4009 0.4164 0.8160
vn 0.8287 -0.5447 0.1281
vn 0.6373 -0.7105 0.2984
vn 0.8287 -0.5447 -0.1281
vn 0.6827 -0.0896 -0.7252
vn 0.4009 0.4164 -0.8160
vn 0.0136 0.5616 -0.8273
vn -0.3263 0.8283 -0.4554
vn -0.3633 0.7439 -0.5609
vn -0.8851 -0.4493 0.1214
vn -0.8699 -0.4881 0.0708
vn -0.8608 -0.4572 0.2233
vn -0.7105 -0.7020 -0.0473
vn -0.6875 -0.7079 0.1619
vn 0.4499 -0.3174 0.8348
vn 0.2915 -0.3134 0.9037
vn 0.2205 -0.5708 0.7909
vn 0.2983 -0.6195 0.7261
vn 0.3582 -0.7445 0.5633
vn 0.7364 0.2610 -0.6241
vn 0.8699 0.2138 0.4445
vn 0.2290 0.8835 0.4085
vn 0.5718 0.5178 0.6363
vn -0.7379 -0.1560 0.6566
vn -0.9520 0.1284 0.2777
vn -0.9854 0.1262 0.1139
vn -0.9958 0.0919 0.0000
vn 0.9290 -0.3503 -0.1191
vn 0.7168 -0.6764 -0.1691
vn 0.9178 -0.3650 -0.1565
vn 0.7224 -0.6914 0.0000
vn 0.9360 -0.3518 0.0000
vn 0.9290 -0.3503 0.1191
vn 0.9754 -0.1955 0.1019
vn 0.9702 -0.1867 0.1540
vn 0.2739 0.3557 -0.8936
vn 0.2296 0.1968 -0.9532
vn 0.2247 0.0197 -0.9742
vn 0.6460 0.7353 -0.2049
vn 0.5488 0.7114 -0.4389
vn 0.3677 0.5837 -0.7239
vn 0.6540 0.7565 0.0000
vn 0.3881 -0.4676 0.7942
vn 0.7329 -0.6803 0.0000
vn 0.5183 -0.8407 -0.1568
vn -0.0923 -0.9935 0.0663
vn 0.5236 -0.8485 -0.0771
vn -0.0915 -0.9958 0.0000
vn 0.5203 -0.8539 0.0000
vn 0.5236 -0.8485 0.0771
vn 0.3837 0.9234 0.0000
vn -0.5121 0.5410 -0.6671
vn -0.0985 0.3767 -0.9211
vn 0.6417 -0.0617 -0.7644
vn -0.2114 0.1267 -0.9691
vn -0.2791 0.7942 -0.5398
vn -0.5356 0.8371 0.1109
vn -0.3120 0.9492 -0.0405
vn 0.1536 0.8542 0.4967
vn 0.1944 0.9243 0.3282
vn -0.3053 0.9490 -0.0782
vn -0.3787 0.9151 -0.1383
vn 0.2068 0.9656 0.1575
vn 0.2014 0.9778 0.0576
vn 0.7168 -0.6764 0.1691
vn 0.4714 -0.8819 0.0000
vn 0.4603 -0.8639 0.2045
vn 0.3726 -0.9019 0.2185
vn 0.3273 -0.9060 0.2682
vn 0.8330 -0.3948 0.3875
vn 0.5133 0.2866 -0.8089
vn -0.4728 -0.8766 0.0900
vn -0.8252 -0.4013 -0.3974
vn -0.8608 -0.4572 -0.2233
vn -0.3676 -0.8746 0.3161
vn -0.3363 -0.8374 0.4308
vn 0.5518 -0.4670 0.6909
vn 0.6966 0.0157 0.7172
vn 0.8345 -0.1668 0.5250
vn 0.5744 -0.6223 0.5318
vn 0.3701 -0.8690 0.3285
vn -0.0684 -0.6201 0.7815
vn 0.1776 -0.6495 0.7393
vn 0.5028 -0.6368 0.5845
vn 0.9682 -0.1738 0.1798
vn 0.9621 -0.2406 -0.1281
vn 0.7110 0.7028 0.0237
vn -0.1088 0.9940 0.0000
vn -0.4083 0.9076 0.0976
vn -0.4166 0.9091 0.0000
vn -0.4083 0.9076 -0.0976
vn 0.2047 0.9788 0.0000
vn 0.1295 -0.9915 -0.0147
vn 0.5379 -0.8007 0.2637
vn 0.6572 -0.5896 -0.4695
vn 0.8927 -0.2598 -0.3682
vn 0.8345 -0.1668 -0.5250
vn 0.9793 0.1067 -0.1718
vn 0.1557 0.1495 0.9764
vn 0.9009 0.0902 0.4244
vn 0.4187 -0.8942 0.1585
vn -0.0101 -0.9950 0.0990
vn -0.0233 -0.9997 0.0000
vn 0.4280 -0.8423 0.3275
vn 0.6980 -0.6890 -0.1953
vn 0.4234 -0.8735 -0.2402
vn 0.4603 -0.8639 -0.2045
vn 0.3273 -0.9060 -0.2682
vn 0.3726 -0.9019 -0.2185
vn 0.8527 -0.4888 -0.1841
vn 0.5126 0.7945 0.3256
vn -0.0923 -0.9935 -0.0663
vn 0.0000 -0.9944 -0.1052
vn 0.5183 -0.8407 0.1568
vn 0.0085 -0.9852 -0.1708
vn 0.6572 -0.5896 0.4695
vn 0.8927 -0.2598 0.3682
vn 0.6891 0.6594 -0.3005
vn -0.9857 -0.1284 0.1090
vn -0.9461 -0.3016 -0.1176
vn -0.9136 -0.3128 0.2596
vn -0.9723 -0.2266 0.0579
vn -0.0647 0.9230 -0.3793
vn 0.9178 -0.3650 0.1565
vn 0.6980 -0.6890 0.1953
vn 0.4234 -0.8735 0.2402
vn 0.4948 -0.8689 -0.0136
vn -0.7105 -0.7020 0.0473
vn -0.4768 -0.8565 -0.1975
vn -0.6875 -0.7079 -0.1619
vn 0.9155 -0.3698 0.1585
vn 0.8466 -0.3205 0.4250
vn 0.6674 0.0723 -0.7411
vn 0.6623 0.0854 0.7443
vn 0.8840 0.0073 0.4675
vn 0.9294 -0.3196 0.1846
vn 0.9155 -0.3698 -0.1585
vn 0.8232 -0.5669 0.0288
vn 0.8876 -0.4587 0.0417
vn 0.7698 -0.5314 0.3537
vn 0.9962 0.0862 0.0000
vn 0.9086 -0.0300 -0.4165
vn 0.9476 -0.1558 -0.2788
vn 0.5384 0.1881 -0.8214
vn 0.7610 0.0766 -0.6442
vn 0.3518 -0.0883 -0.9319
vn 0.8513 -0.5245 -0.0086
vn 0.6372 -0.7105 -0.2984
vn 0.6527 -0.5712 -0.4976
vn 0.5799 0.1445 0.8018
vn -0.9169 -0.3991 0.0000
vn -0.6763 -0.5801 -0.4539
vn 0.1536 0.8542 -0.4967
vn 0.1944 0.9243 -0.3282
vn 0.3632 -0.0021 -0.9317
vn 0.4024 0.2837 -0.8704
vn -0.0101 -0.9950 -0.0990
vn 0.5220 -0.4453 -0.7274
vn -0.6064 0.3262 -0.7252
vn 0.5220 -0.4453 0.7274
vn 0.6815 -0.3557 0.6395
vn -0.4253 -0.5828 0.6924
vn -0.4253 -0.5828 -0.6924
vn -0.8851 -0.4493 -0.1214
vn -0.8699 -0.4881 -0.0708
vn 0.3233 0.2347 -0.9167
vn 0.1368 0.2018 -0.9698
vn 0.3632 -0.0021 0.9317
vn 0.7488 -0.5536 0.3643
vn 0.9702 -0.1867 -0.1540
vn 0.9754 -0.1955 -0.1019
vn 0.9804 -0.1968 0.0000
vn 0.1046 -0.0337 0.9939
vn 0.7110 0.7028 -0.0237
vn 0.8466 -0.3205 -0.4250
vn -0.0647 0.9230 0.3793
vn -0.3633 0.7439 0.5609
vn 0.3757 0.9267 0.0000
vn 0.2881 0.9245 0.2496
vn -0.3263 0.8283 0.4554
vn 0.3861 0.4198 -0.8214
vn -0.0853 -0.9957 -0.0366
vn 0.8876 -0.4587 -0.0417
vn 0.3857 -0.9226 0.0000
vn -0.4554 -0.4907 0.7428
vn -0.4554 -0.4907 -0.7428
vn 0.1046 -0.0337 -0.9939
usemtl m0
s 1
f 159/1/1 177/2/2 87/3/3
f 177/2/2 159/1/1 254/4/4
f 437/5/5 254/4/4 159/1/1
f 254/4/4 437/5/5 498/6/6
f 529/7/7 498/6/6 437/5/5
f 498/6/6 529/7/7 531/8/8
f 533/9/9 531/8/8 529/7/7
f 531/8/8 533/9/9 535/10/10
f 466/11/11 535/10/10 533/9/9
f 535/10/10 466/11/11 539/12/12
f 459/13/13 539/12/12 466/11/11
f 539/12/12 459/13/13 474/14/14
f 468/15/15 474/14/14 459/13/13
f 474/14/14 468/15/15 472/16/16
f 330/17/17 472/16/16 468/15/15
f 472/16/16 330/17/17 479/18/18
f 333/19/19 479/18/18 330/17/17
f 479/18/18 333/19/19 481/20/20
f 453/21/21 481/20/20 333/19/19
f 481/20/20 453/21/21 483/22/22
f 376/23/23 483/22/22 453/21/21
f 483/22/22 376/23/23 370/24/24
f 374/25/25 370/24/24 376/23/23
f 370/24/24 374/25/25 372/26/26
f 238/27/27 372/26/26 374/25/25
f 372/26/26 238/27/27 447/28/28
f 139/29/29 447/28/28 238/27/27
f 447/28/28 139/29/29 394/30/30
f 1/31/31 394/30/30 139/29/29
f 394/30/30 1/31/31 97/32/32
f 176/33/33 128/34/34 86/35/35
f 128/34/34 176/33/33 180/36/36
f 378/37/37 180/36/36 176/33/33
f 180/36/36 378/37/37 246/38/38
f 263/39/39 246/38/38 378/37/37
f 246/38/38 263/39/39 250/40/40
f 260/41/41 250/40/40 263/39/39
f 250/40/40 260/41/41 257/42/42
f 342/43/43 257/42/42 260/41/41
f 257/42/42 342/43/43 391/44/44
f 274/45/45 391/44/44 342/43/43
f 391/44/44 274/45/45 248/46/46
f 51/47/47 248/46/46 274/45/45
f 248/46/46 51/47/47 45/48/48
f 243/49/49 45/48/48 51/47/47
f 45/48/48 243/49/49 114/50/50
f 322/51/51 114/50/50 243/49/49
f 114/50/50 322/51/51 309/52/52
f 300/53/53 309/52/52 322/51/51
f 309/52/52 300/53/53 307/54/54
f 298/55/55 307/54/54 300/53/53
f 307/54/54 298/55/55 645/56/56
f 643/57/57 645/56/56 298/55/55
f 645/56/56 643/57/57 180/36/36
f 128/34/34 180/36/36 643/57/57
f 249/58/58 568/59/59 320/60/60
f 568/59/59 249/58/58 528/61/61
f 245/62/62 528/61/61 249/58/58
f 528/61/61 245/62/62 530/63/63
f 318/64/64 530/63/63 245/62/62
f 530/63/63 318/64/64 283/65/65
f 285/66/66 283/65/65 318/64/64
f 283/65/65 285/66/66 354/67/67
f 352/68/68 354/67/67 285/66/66
f 354/67/67 352/68/68 292/69/69
f 55/70/70 292/69/69 352/68/68
f 292/69/69 55/70/70 278/71/71
f 269/72/72 278/71/71 55/70/70
f 278/71/71 269/72/72 276/73/73
f 272/74/74 276/73/73 269/72/72
f 276/73/73 272/74/74 345/75/75
f 341/76/76 345/75/75 272/74/74
f 345/75/75 341/76/76 339/77/77
f 261/78/78 339/77/77 341/76/76
f 339/77/77 261/78/78 347/79/79
f 264/80/80 347/79/79 261/78/78
f 347/79/79 264/80/80 379/81/81
f 61/82/82 512/83/83 64/84/84
f 512/83/83 61/82/82 514/85/85
f 516/86/86 514/85/85 61/82/82
f 514/85/85 516/86/86 281/87/87
f 492/88/88 281/87/87 516/86/86
f 281/87/87 492/88/88 532/89/89
f 534/90/90 532/89/89 492/88/88
f 532/89/89 534/90/90 631/91/91
f 490/92/92 631/91/91 534/90/90
f 631/91/91 490/92/92 629/93/93
f 590/94/94 629/93/93 490/92/92
f 629/93/93 590/94/94 627/95/95
f 544/96/96 627/95/95 590/94/94
f 627/95/95 544/96/96 625/97/97
f 546/98/98 625/97/97 544/96/96
f 625/97/97 546/98/98 623/99/99
f 548/100/100 623/99/99 546/98/98
f 623/99/99 548/100/100 621/101/101
f 550/102/102 621/101/101 548/100/100
f 621/101/101 550/102/102 618/103/103
f 552/104/104 618/103/103 550/102/102
f 527/105/105 533/9/9 529/7/7
f 533/9/9 527/105/105 426/106/106
f 424/107/107 426/106/106 527/105/105
f 426/106/106 424/107/107 428/108/108
f 431/109/109 428/108/108 424/107/107
f 428/108/108 431/109/109 435/110/110
f 433/111/111 435/110/110 431/109/109
f 435/110/110 433/111/111 385/112/112
f 355/113/113 385/112/112 433/111/111
f 385/112/112 355/113/113 364/114/114
f 360/115/115 364/114/114 355/113/113
f 364/114/114 360/115/115 381/116/116
f 184/117/117 381/116/116 360/115/115
f 381/116/116 184/117/117 504/118/118
f 502/119/119 504/118/118 184/117/117
f 504/118/118 502/119/119 491/120/120
f 493/121/121 491/120/120 502/119/119
f 491/120/120 493/121/121 236/122/122
f 233/123/123 236/122/122 493/121/121
f 236/122/122 233/123/123 135/124/124
f 7/125/125 24/126/126 27/127/127
f 24/126/126 7/125/125 3/128/128
f 558/129/129 3/128/128 7/125/125
f 3/128/128 558/129/129 193/130/130
f 95/131/131 193/130/130 558/129/129
f 193/130/130 95/131/131 91/132/132
f 88/133/133 91/132/132 95/131/131
f 91/132/132 88/133/133 200/134/134
f 190/135/135 200/134/134 88/133/133
f 200/134/134 190/135/135 170/136/136
f 185/137/137 170/136/136 190/135/135
f 170/136/136 185/137/137 166/138/138
f 151/139/139 166/138/138 185/137/137
f 166/138/138 151/139/139 144/140/140
f 136/141/141 144/140/140 151/139/139
f 144/140/140 136/141/141 140/142/142
f 129/143/143 140/142/142 136/141/141
f 140/142/142 129/143/143 181/144/144
f 122/145/145 181/144/144 129/143/143
f 238/27/27 135/124/124 139/29/29
f 135/124/124 238/27/27 236/122/122
f 374/25/25 236/122/122 238/27/27
f 236/122/122 374/25/25 491/120/120
f 487/146/146 491/120/120 374/25/25
f 491/120/120 487/146/146 504/118/118
f 506/147/147 504/118/118 487/146/146
f 504/118/118 506/147/147 381/116/116
f 362/148/148 381/116/116 506/147/147
f 381/116/116 362/148/148 364/114/114
f 366/149/149 364/114/114 362/148/148
f 364/114/114 366/149/149 383/150/150
f 323/151/151 383/150/150 366/149/149
f 383/150/150 323/151/151 387/152/152
f 389/153/153 387/152/152 323/151/151
f 387/152/152 389/153/153 464/154/154
f 461/155/155 464/154/154 389/153/153
f 464/154/154 461/155/155 459/13/13
f 468/15/15 459/13/13 461/155/155
f 103/156/156 197/157/157 203/158/158
f 197/157/157 103/156/156 302/159/159
f 305/160/160 302/159/159 103/156/156
f 302/159/159 305/160/160 214/161/161
f 208/162/162 214/161/161 305/160/160
f 214/161/161 208/162/162 218/163/163
f 137/164/164 218/163/163 208/162/162
f 218/163/163 137/164/164 343/165/165
f 340/166/166 343/165/165 137/164/164
f 343/165/165 340/166/166 25/167/167
f 16/168/168 25/167/167 340/166/166
f 25/167/167 16/168/168 2/169/169
f 651/170/170 2/169/169 16/168/168
f 2/169/169 651/170/170 647/171/171
f 649/172/172 647/171/171 651/170/170
f 647/171/171 649/172/172 112/173/173
f 5/174/174 112/173/173 649/172/172
f 112/173/173 5/174/174 227/175/175
f 490/92/92 488/176/176 590/94/94
f 488/176/176 490/92/92 602/177/177
f 400/178/178 602/177/177 490/92/92
f 602/177/177 400/178/178 452/179/179
f 538/180/180 452/179/179 400/178/178
f 452/179/179 538/180/180 402/181/181
f 540/182/182 402/181/181 538/180/180
f 402/181/181 540/182/182 404/183/183
f 542/184/184 404/183/183 540/182/182
f 404/183/183 542/184/184 237/185/185
f 572/186/186 237/185/185 542/184/184
f 237/185/185 572/186/186 235/187/187
f 574/188/188 235/187/187 572/186/186
f 235/187/187 574/188/188 576/189/189
f 392/190/190 576/189/189 574/188/188
f 576/189/189 392/190/190 97/32/32
f 394/30/30 97/32/32 392/190/190
f 602/177/177 398/191/191 488/176/176
f 398/191/191 602/177/177 450/192/192
f 600/193/193 450/192/192 602/177/177
f 450/192/192 600/193/193 279/194/194
f 598/195/195 279/194/194 600/193/193
f 279/194/194 598/195/195 241/196/196
f 596/197/197 241/196/196 598/195/195
f 241/196/196 596/197/197 469/198/198
f 237/185/185 469/198/198 596/197/197
f 469/198/198 237/185/185 612/199/199
f 235/187/187 612/199/199 237/185/185
f 612/199/199 235/187/187 467/200/200
f 465/201/201 467/200/200 235/187/187
f 467/200/200 465/201/201 584/202/202
f 582/203/203 584/202/202 465/201/201
f 584/202/202 582/203/203 430/204/204
f 441/205/205 437/5/5 159/1/1
f 437/5/5 441/205/205 523/206/206
f 517/207/207 523/206/206 441/205/205
f 523/206/206 517/207/207 525/208/208
f 520/209/209 525/208/208 517/207/207
f 525/208/208 520/209/209 415/210/210
f 413/211/211 415/210/210 520/209/209
f 415/210/210 413/211/211 417/212/212
f 410/213/213 417/212/212 413/211/211
f 417/212/212 410/213/213 353/214/214
f 350/215/215 353/214/214 410/213/213
f 353/214/214 350/215/215 355/113/113
f 357/216/216 355/113/113 350/215/215
f 355/113/113 357/216/216 360/115/115
f 189/217/217 360/115/115 357/216/216
f 360/115/115 189/217/217 184/117/117
f 49/218/218 40/219/219 43/220/220
f 40/219/219 49/218/218 543/221/221
f 485/222/222 543/221/221 49/218/218
f 543/221/221 485/222/222 56/223/223
f 192/224/224 56/223/223 485/222/222
f 56/223/223 192/224/224 52/225/225
f 195/226/226 52/225/225 192/224/224
f 52/225/225 195/226/226 554/227/227
f 405/228/228 554/227/227 195/226/226
f 554/227/227 405/228/228 169/229/229
f 407/230/230 169/229/229 405/228/228
f 169/229/229 407/230/230 165/231/231
f 457/232/232 165/231/231 407/230/230
f 165/231/231 457/232/232 351/233/233
f 358/234/234 351/233/233 457/232/232
f 470/235/235 476/236/236 474/14/14
f 476/236/236 470/235/235 399/237/237
f 335/238/238 399/237/237 470/235/235
f 399/237/237 335/238/238 337/239/239
f 308/240/240 337/239/239 335/238/238
f 337/239/239 308/240/240 70/241/241
f 242/242/242 70/241/241 308/240/240
f 70/241/241 242/242/242 67/243/243
f 42/244/244 67/243/243 242/242/242
f 67/243/243 42/244/244 526/245/245
f 388/246/246 526/245/245 42/244/244
f 526/245/245 388/246/246 390/247/247
f 572/186/186 390/247/247 388/246/246
f 390/247/247 572/186/186 542/184/184
f 557/248/248 471/249/249 633/250/250
f 471/249/249 557/248/248 473/251/251
f 475/252/252 473/251/251 557/248/248
f 473/251/251 475/252/252 371/253/253
f 123/254/254 371/253/253 475/252/252
f 371/253/253 123/254/254 434/255/255
f 436/256/256 434/255/255 123/254/254
f 434/255/255 436/256/256 418/257/257
f 396/258/258 418/257/257 436/256/256
f 418/257/257 396/258/258 460/259/259
f 421/260/260 460/259/259 396/258/258
f 460/259/259 421/260/260 429/261/261
f 186/262/262 429/261/261 421/260/260
f 449/263/263 447/28/28 394/30/30
f 447/28/28 449/263/263 372/26/26
f 240/264/264 372/26/26 449/263/263
f 372/26/26 240/264/264 370/24/24
f 310/265/265 370/24/24 240/264/264
f 370/24/24 310/265/265 483/22/22
f 306/266/266 483/22/22 310/265/265
f 483/22/22 306/266/266 481/20/20
f 335/238/238 481/20/20 306/266/266
f 481/20/20 335/238/238 479/18/18
f 470/235/235 479/18/18 335/238/238
f 479/18/18 470/235/235 472/16/16
f 474/14/14 472/16/16 470/235/235
f 4/267/267 9/268/268 153/269/269
f 9/268/268 4/267/267 173/270/270
f 206/271/271 173/270/270 4/267/267
f 173/270/270 206/271/271 420/272/272
f 485/222/222 420/272/272 206/271/271
f 420/272/272 485/222/222 23/273/273
f 49/218/218 23/273/273 485/222/222
f 23/273/273 49/218/218 30/274/274
f 43/220/220 30/274/274 49/218/218
f 30/274/274 43/220/220 445/275/275
f 74/276/276 445/275/275 43/220/220
f 445/275/275 74/276/276 639/277/277
f 77/278/278 639/277/277 74/276/276
f 599/279/279 27/127/127 31/280/280
f 27/127/127 599/279/279 7/125/125
f 601/281/281 7/125/125 599/279/279
f 7/125/125 601/281/281 558/129/129
f 563/282/282 558/129/129 601/281/281
f 558/129/129 563/282/282 95/131/131
f 178/283/283 95/131/131 563/282/282
f 95/131/131 178/283/283 88/133/133
f 174/284/284 88/133/133 178/283/283
f 88/133/133 174/284/284 190/135/135
f 113/285/285 190/135/135 174/284/284
f 190/135/135 113/285/285 72/286/286
f 474/14/14 551/287/287 539/12/12
f 551/287/287 474/14/14 541/288/288
f 476/236/236 541/288/288 474/14/14
f 541/288/288 476/236/236 315/289/289
f 393/290/290 315/289/289 476/236/236
f 315/289/289 393/290/290 291/291/291
f 395/292/292 291/291/291 393/290/290
f 291/291/291 395/292/292 289/293/293
f 61/82/82 289/293/293 395/292/292
f 289/293/293 61/82/82 295/294/294
f 64/84/84 295/294/294 61/82/82
f 389/153/153 468/15/15 461/155/155
f 468/15/15 389/153/153 328/295/295
f 317/296/296 328/295/295 389/153/153
f 328/295/295 317/296/296 326/297/297
f 319/298/298 326/297/297 317/296/296
f 326/297/297 319/298/298 451/299/299
f 455/300/300 451/299/299 319/298/298
f 451/299/299 455/300/300 376/23/23
f 489/301/301 376/23/23 455/300/300
f 376/23/23 489/301/301 374/25/25
f 487/146/146 374/25/25 489/301/301
f 100/302/302 471/249/249 416/303/303
f 471/249/249 100/302/302 633/250/250
f 559/304/304 633/250/250 100/302/302
f 633/250/250 559/304/304 171/305/305
f 510/306/306 171/305/305 559/304/304
f 171/305/305 510/306/306 130/307/307
f 635/308/308 130/307/307 510/306/306
f 130/307/307 635/308/308 604/309/309
f 179/310/310 604/309/309 635/308/308
f 604/309/309 179/310/310 222/311/311
f 614/312/312 222/311/311 179/310/310
f 425/313/313 608/314/314 610/315/315
f 608/314/314 425/313/313 414/316/316
f 275/317/317 414/316/316 425/313/313
f 414/316/316 275/317/317 411/318/318
f 232/319/319 411/318/318 275/317/317
f 411/318/318 232/319/319 446/320/320
f 444/321/321 446/320/320 232/319/319
f 446/320/320 444/321/321 329/322/322
f 377/323/323 329/322/322 444/321/321
f 329/322/322 377/323/323 482/324/324
f 480/325/325 482/324/324 377/323/323
f 163/326/326 170/136/136 166/138/138
f 170/136/136 163/326/326 196/327/327
f 213/328/328 196/327/327 163/326/326
f 196/327/327 213/328/328 91/132/132
f 210/329/329 91/132/132 213/328/328
f 91/132/132 210/329/329 193/130/130
f 207/330/330 193/130/130 210/329/329
f 193/130/130 207/330/330 3/128/128
f 19/331/331 3/128/128 207/330/330
f 3/128/128 19/331/331 24/126/126
f 35/332/332 24/126/126 19/331/331
f 399/237/237 393/290/290 476/236/236
f 393/290/290 399/237/237 397/333/333
f 337/239/239 397/333/333 399/237/237
f 397/333/333 337/239/239 458/334/334
f 70/241/241 458/334/334 337/239/239
f 458/334/334 70/241/241 522/335/335
f 524/336/336 522/335/335 70/241/241
f 522/335/335 524/336/336 456/337/337
f 270/338/338 456/337/337 524/336/336
f 456/337/337 270/338/338 540/182/182
f 542/184/184 540/182/182 270/338/338
f 89/339/339 191/340/340 92/341/341
f 191/340/340 89/339/339 373/342/342
f 79/343/343 373/342/342 89/339/339
f 373/342/342 79/343/343 454/344/344
f 82/345/345 454/344/344 79/343/343
f 454/344/344 82/345/345 416/303/303
f 273/346/346 416/303/303 82/345/345
f 416/303/303 273/346/346 100/302/302
f 157/347/347 100/302/302 273/346/346
f 100/302/302 157/347/347 562/348/348
f 638/349/349 609/350/350 595/351/351
f 609/350/350 638/349/349 31/280/280
f 12/352/352 31/280/280 638/349/349
f 31/280/280 12/352/352 599/279/279
f 15/353/353 599/279/279 12/352/352
f 599/279/279 15/353/353 597/354/354
f 652/355/355 597/354/354 15/353/353
f 597/354/354 652/355/355 644/356/356
f 611/357/357 644/356/356 652/355/355
f 644/356/356 611/357/357 607/358/358
f 630/359/359 593/360/360 628/361/361
f 593/360/360 630/359/359 595/351/351
f 636/362/362 595/351/351 630/359/359
f 595/351/351 636/362/362 638/349/349
f 640/363/363 638/349/349 636/362/362
f 638/349/349 640/363/363 642/364/364
f 650/365/365 642/364/364 640/363/363
f 642/364/364 650/365/365 652/355/355
f 589/366/366 652/355/355 650/365/365
f 652/355/355 589/366/366 611/357/357
f 150/367/367 405/228/228 195/226/226
f 405/228/228 150/367/367 407/230/230
f 71/368/368 407/230/230 150/367/367
f 407/230/230 71/368/368 457/232/232
f 62/369/369 457/232/232 71/368/368
f 457/232/232 62/369/369 358/234/234
f 65/370/370 358/234/234 62/369/369
f 358/234/234 65/370/370 188/371/371
f 183/372/372 188/371/371 65/370/370
f 43/220/220 216/373/373 74/276/276
f 216/373/373 43/220/220 46/374/374
f 40/219/219 46/374/374 43/220/220
f 46/374/374 40/219/219 515/375/375
f 511/376/376 515/375/375 40/219/219
f 515/375/375 511/376/376 513/377/377
f 162/378/378 513/377/377 511/376/376
f 513/377/377 162/378/378 412/379/379
f 409/380/380 412/379/379 162/378/378
f 610/315/315 469/198/198 612/199/199
f 469/198/198 610/315/315 588/381/381
f 608/314/314 588/381/381 610/315/315
f 588/381/381 608/314/314 423/382/382
f 414/316/316 423/382/382 608/314/314
f 423/382/382 414/316/316 239/383/383
f 277/384/384 239/383/383 414/316/316
f 239/383/383 277/384/384 279/194/194
f 450/192/192 279/194/194 277/384/384
f 377/323/323 478/385/385 480/325/325
f 478/385/385 377/323/323 127/386/386
f 442/387/387 127/386/386 377/323/323
f 127/386/386 442/387/387 438/388/388
f 380/389/389 438/388/388 442/387/387
f 438/388/388 380/389/389 118/390/390
f 382/391/391 118/390/390 380/389/389
f 118/390/390 382/391/391 187/392/392
f 430/204/204 187/392/392 382/391/391
f 128/34/34 94/393/393 86/35/35
f 94/393/393 128/34/34 124/394/394
f 643/57/57 124/394/394 128/34/34
f 124/394/394 643/57/57 401/395/395
f 32/396/396 401/395/395 643/57/57
f 401/395/395 32/396/396 209/397/397
f 212/398/398 209/397/397 32/396/396
f 209/397/397 212/398/398 116/399/399
f 121/400/400 116/399/399 212/398/398
f 495/401/401 61/82/82 395/292/292
f 61/82/82 495/401/401 516/86/86
f 519/402/402 516/86/86 495/401/401
f 516/86/86 519/402/402 492/88/88
f 267/403/403 492/88/88 519/402/402
f 492/88/88 267/403/403 534/90/90
f 536/404/404 534/90/90 267/403/403
f 534/90/90 536/404/404 490/92/92
f 400/178/178 490/92/92 536/404/404
f 486/405/405 544/96/96 590/94/94
f 544/96/96 486/405/405 546/98/98
f 484/406/406 546/98/98 486/405/405
f 546/98/98 484/406/406 548/100/100
f 482/324/324 548/100/100 484/406/406
f 548/100/100 482/324/324 550/102/102
f 480/325/325 550/102/102 482/324/324
f 550/102/102 480/325/325 552/104/104
f 478/385/385 552/104/104 480/325/325
f 323/151/151 317/296/296 389/153/153
f 317/296/296 323/151/151 321/407/407
f 366/149/149 321/407/407 323/151/151
f 321/407/407 366/149/149 496/408/408
f 368/409/409 496/408/408 366/149/149
f 496/408/408 368/409/409 549/410/410
f 509/411/411 549/410/410 368/409/409
f 549/410/410 509/411/411 455/300/300
f 489/301/301 455/300/300 509/411/411
f 583/412/412 567/413/413 587/414/414
f 567/413/413 583/412/412 591/415/415
f 632/416/416 591/415/415 583/412/412
f 591/415/415 632/416/416 624/417/417
f 628/361/361 624/417/417 632/416/416
f 624/417/417 628/361/361 626/418/418
f 593/360/360 626/418/418 628/361/361
f 626/418/418 593/360/360 648/419/419
f 258/420/420 251/421/421 255/422/422
f 251/421/421 258/420/420 228/423/423
f 225/424/424 228/423/423 258/420/420
f 228/423/423 225/424/424 322/51/51
f 324/425/425 322/51/51 225/424/424
f 322/51/51 324/425/425 230/426/426
f 204/427/427 230/426/426 324/425/425
f 230/426/426 204/427/427 198/428/428
f 78/429/429 140/142/142 181/144/144
f 140/142/142 78/429/429 144/140/140
f 147/430/430 144/140/140 78/429/429
f 144/140/140 147/430/430 166/138/138
f 160/431/431 166/138/138 147/430/430
f 166/138/138 160/431/431 163/326/326
f 81/432/432 163/326/326 160/431/431
f 163/326/326 81/432/432 110/433/433
f 226/434/434 320/60/60 325/435/435
f 320/60/60 226/434/434 249/58/58
f 247/436/436 249/58/58 226/434/434
f 249/58/58 247/436/436 245/62/62
f 296/437/437 245/62/62 247/436/436
f 245/62/62 296/437/437 316/438/438
f 313/439/439 316/438/438 296/437/437
f 316/438/438 313/439/439 288/440/440
f 334/441/441 625/97/97 623/99/99
f 625/97/97 334/441/441 406/442/442
f 570/443/443 406/442/442 334/441/441
f 406/442/442 570/443/443 336/444/444
f 568/59/59 336/444/444 570/443/443
f 336/444/444 568/59/59 265/445/445
f 528/61/61 265/445/445 568/59/59
f 265/445/445 528/61/61 530/63/63
f 647/171/171 115/446/446 120/447/447
f 115/446/446 647/171/171 101/448/448
f 112/173/173 101/448/448 647/171/171
f 101/448/448 112/173/173 98/449/449
f 229/450/450 98/449/449 112/173/173
f 98/449/449 229/450/450 641/451/451
f 639/277/277 641/451/451 229/450/450
f 641/451/451 639/277/277 637/452/452
f 551/287/287 537/453/453 539/12/12
f 537/453/453 551/287/287 545/454/454
f 541/288/288 545/454/454 551/287/287
f 545/454/454 541/288/288 312/455/455
f 315/289/289 312/455/455 541/288/288
f 312/455/455 315/289/289 299/456/456
f 293/457/457 299/456/456 315/289/289
f 373/342/342 434/255/255 418/257/257
f 434/255/255 373/342/342 432/458/458
f 454/344/344 432/458/458 373/342/342
f 432/458/458 454/344/344 556/459/459
f 182/460/460 556/459/459 454/344/344
f 556/459/459 182/460/460 371/253/253
f 473/251/251 371/253/253 182/460/460
f 129/143/143 117/461/461 122/145/145
f 117/461/461 129/143/143 125/462/462
f 132/463/463 125/462/462 129/143/143
f 125/462/462 132/463/463 57/464/464
f 47/465/465 57/464/464 132/463/463
f 57/464/464 47/465/465 50/466/466
f 44/467/467 50/466/466 47/465/465
f 567/413/413 605/468/468 587/414/414
f 605/468/468 567/413/413 569/469/469
f 571/470/470 569/469/469 567/413/413
f 569/469/469 571/470/470 573/471/471
f 577/472/472 573/471/471 571/470/470
f 573/471/471 577/472/472 575/473/473
f 580/474/474 575/473/473 577/472/472
f 92/341/341 578/475/475 96/476/476
f 578/475/475 92/341/341 168/477/477
f 191/340/340 168/477/477 92/341/341
f 168/477/477 191/340/340 463/478/478
f 460/259/259 463/478/478 191/340/340
f 463/478/478 460/259/259 581/479/479
f 429/261/261 581/479/479 460/259/259
f 194/480/480 107/481/481 614/312/312
f 107/481/481 194/480/480 594/482/482
f 592/483/483 594/482/482 194/480/480
f 594/482/482 592/483/483 305/160/160
f 211/484/484 305/160/160 592/483/483
f 305/160/160 211/484/484 208/162/162
f 137/164/164 208/162/162 211/484/484
f 498/6/6 443/485/485 254/4/4
f 443/485/485 498/6/6 547/486/486
f 531/8/8 547/486/486 498/6/6
f 547/486/486 531/8/8 537/453/453
f 535/10/10 537/453/453 531/8/8
f 537/453/453 535/10/10 539/12/12
f 411/318/318 277/384/384 414/316/316
f 277/384/384 411/318/318 448/487/487
f 446/320/320 448/487/487 411/318/318
f 448/487/487 446/320/320 408/488/488
f 329/322/322 408/488/488 446/320/320
f 408/488/488 329/322/322 482/324/324
f 275/317/317 382/391/391 380/389/389
f 382/391/391 275/317/317 427/489/489
f 425/313/313 427/489/489 275/317/317
f 427/489/489 425/313/313 586/490/490
f 610/315/315 586/490/490 425/313/313
f 586/490/490 610/315/315 612/199/199
f 388/246/246 574/188/188 572/186/186
f 574/188/188 388/246/246 386/491/491
f 42/244/244 386/491/491 388/246/246
f 386/491/491 42/244/244 39/492/492
f 449/263/263 39/492/492 42/244/244
f 39/492/492 449/263/263 394/30/30
f 403/493/493 14/494/494 34/495/495
f 14/494/494 403/493/493 13/496/496
f 497/497/497 13/496/496 403/493/493
f 13/496/496 497/497/497 505/498/498
f 508/499/499 505/498/498 497/497/497
f 505/498/498 508/499/499 142/500/500
f 347/79/79 282/501/501 339/77/77
f 282/501/501 347/79/79 280/502/502
f 379/81/81 280/502/502 347/79/79
f 280/502/502 379/81/81 252/503/503
f 177/2/2 252/503/503 379/81/81
f 252/503/503 177/2/2 254/4/4
f 304/504/504 295/294/294 64/84/84
f 295/294/294 304/504/504 293/457/457
f 301/505/505 293/457/457 304/504/504
f 293/457/457 301/505/505 297/506/506
f 276/73/73 297/506/506 301/505/505
f 297/506/506 276/73/73 345/75/75
f 354/67/67 512/83/83 283/65/65
f 512/83/83 354/67/67 64/84/84
f 76/507/507 64/84/84 354/67/67
f 64/84/84 76/507/507 304/504/504
f 292/69/69 304/504/504 76/507/507
f 304/504/504 292/69/69 278/71/71
f 248/46/46 180/36/36 246/38/38
f 180/36/36 248/46/46 244/508/508
f 45/48/48 244/508/508 248/46/46
f 244/508/508 45/48/48 73/509/509
f 114/50/50 73/509/509 45/48/48
f 73/509/509 114/50/50 309/52/52
f 271/510/510 274/45/45 342/43/43
f 274/45/45 271/510/510 266/511/511
f 268/512/512 266/511/511 271/510/510
f 266/511/511 268/512/512 48/513/513
f 54/514/514 48/513/513 268/512/512
f 48/513/513 54/514/514 348/515/515
f 397/333/333 395/292/292 393/290/290
f 395/292/292 397/333/333 495/401/401
f 58/516/516 495/401/401 397/333/333
f 495/401/401 58/516/516 519/402/402
f 458/334/334 519/402/402 58/516/516
f 519/402/402 458/334/334 522/335/335
f 523/206/206 529/7/7 437/5/5
f 529/7/7 523/206/206 527/105/105
f 525/208/208 527/105/105 523/206/206
f 527/105/105 525/208/208 424/107/107
f 415/210/210 424/107/107 525/208/208
f 424/107/107 415/210/210 417/212/212
f 577/472/472 613/517/517 580/474/474
f 613/517/517 577/472/472 617/518/518
f 622/519/519 617/518/518 577/472/472
f 617/518/518 622/519/519 620/520/520
f 624/417/417 620/520/520 622/519/519
f 620/520/520 624/417/417 626/418/418
f 336/444/444 629/93/93 627/95/95
f 629/93/93 336/444/444 631/91/91
f 265/445/445 631/91/91 336/444/444
f 631/91/91 265/445/445 532/89/89
f 530/63/63 532/89/89 265/445/445
f 532/89/89 530/63/63 283/65/65
f 452/179/179 600/193/193 602/177/177
f 600/193/193 452/179/179 598/195/195
f 402/181/181 598/195/195 452/179/179
f 598/195/195 402/181/181 596/197/197
f 404/183/183 596/197/197 402/181/181
f 596/197/197 404/183/183 237/185/185
f 230/426/426 111/521/521 322/51/51
f 111/521/521 230/426/426 367/522/522
f 198/428/428 367/522/522 230/426/426
f 367/522/522 198/428/428 365/523/523
f 303/524/524 365/523/523 198/428/428
f 365/523/523 303/524/524 215/525/525
f 365/523/523 111/521/521 367/522/522
f 111/521/521 365/523/523 32/396/396
f 363/526/526 32/396/396 365/523/523
f 32/396/396 363/526/526 361/527/527
f 219/528/528 361/527/527 363/526/526
f 361/527/527 219/528/528 344/529/529
f 145/530/530 13/496/496 505/498/498
f 13/496/496 145/530/530 566/531/531
f 564/532/532 566/531/531 145/530/530
f 566/531/531 564/532/532 152/533/533
f 156/534/534 152/533/533 564/532/532
f 220/535/535 46/374/374 515/375/375
f 46/374/374 220/535/535 216/373/373
f 80/536/536 216/373/373 220/535/535
f 216/373/373 80/536/536 74/276/276
f 77/278/278 74/276/276 80/536/536
f 154/537/537 131/538/538 234/539/539
f 131/538/538 154/537/537 143/540/540
f 150/367/367 143/540/540 154/537/537
f 143/540/540 150/367/367 146/541/541
f 195/226/226 146/541/541 150/367/367
f 164/542/542 510/306/306 559/304/304
f 510/306/306 164/542/542 175/543/543
f 503/544/544 175/543/543 164/542/542
f 175/543/543 503/544/544 161/545/545
f 141/546/546 161/545/545 503/544/544
f 436/256/256 119/547/547 396/258/258
f 119/547/547 436/256/256 439/548/548
f 123/254/254 439/548/548 436/256/256
f 439/548/548 123/254/254 126/549/549
f 475/252/252 126/549/549 123/254/254
f 136/141/141 132/463/463 129/143/143
f 132/463/463 136/141/141 75/550/550
f 151/139/139 75/550/550 136/141/141
f 75/550/550 151/139/139 63/551/551
f 155/552/552 63/551/551 151/139/139
f 111/521/521 300/53/53 322/51/51
f 300/53/53 111/521/521 298/55/55
f 36/553/553 298/55/55 111/521/521
f 298/55/55 36/553/553 643/57/57
f 32/396/396 643/57/57 36/553/553
f 32/396/396 224/554/554 212/398/398
f 224/554/554 32/396/396 356/555/555
f 359/556/556 356/555/555 32/396/396
f 356/555/555 359/556/556 29/557/557
f 344/529/529 29/557/557 359/556/556
f 383/150/150 385/112/112 364/114/114
f 385/112/112 383/150/150 435/110/110
f 387/152/152 435/110/110 383/150/150
f 435/110/110 387/152/152 428/108/108
f 464/154/154 428/108/108 387/152/152
f 243/49/49 228/423/423 322/51/51
f 228/423/423 243/49/49 251/421/421
f 253/558/558 251/421/421 243/49/49
f 251/421/421 253/558/558 255/422/422
f 314/559/559 255/422/422 253/558/558
f 30/274/274 18/560/560 23/273/273
f 18/560/560 30/274/274 33/561/561
f 37/562/562 33/561/561 30/274/274
f 33/561/561 37/562/562 5/174/174
f 227/175/175 5/174/174 37/562/562
f 362/148/148 368/409/409 366/149/149
f 368/409/409 362/148/148 509/411/411
f 506/147/147 509/411/411 362/148/148
f 509/411/411 506/147/147 489/301/301
f 487/146/146 489/301/301 506/147/147
f 325/435/435 223/563/563 205/564/564
f 223/563/563 325/435/435 327/565/565
f 320/60/60 327/565/565 325/435/435
f 327/565/565 320/60/60 570/443/443
f 568/59/59 570/443/443 320/60/60
f 338/566/566 507/567/567 21/568/568
f 507/567/567 338/566/566 141/546/546
f 133/569/569 141/546/546 338/566/566
f 141/546/546 133/569/569 211/484/484
f 137/164/164 211/484/484 133/569/569
f 14/494/494 17/570/570 34/495/495
f 17/570/570 14/494/494 22/571/571
f 26/572/572 22/571/571 14/494/494
f 22/571/571 26/572/572 419/573/573
f 172/574/574 419/573/573 26/572/572
f 171/305/305 557/248/248 633/250/250
f 557/248/248 171/305/305 616/575/575
f 130/307/307 616/575/575 171/305/305
f 616/575/575 130/307/307 604/309/309
f 488/176/176 486/405/405 590/94/94
f 486/405/405 488/176/176 262/576/576
f 398/191/191 262/576/576 488/176/176
f 262/576/576 398/191/191 450/192/192
f 346/577/577 51/47/47 48/513/513
f 51/47/47 346/577/577 290/578/578
f 287/579/579 290/578/578 346/577/577
f 290/578/578 287/579/579 314/559/559
f 262/576/576 408/488/488 486/405/405
f 408/488/488 262/576/576 448/487/487
f 450/192/192 448/487/487 262/576/576
f 448/487/487 450/192/192 277/384/384
f 433/111/111 353/214/214 355/113/113
f 353/214/214 433/111/111 417/212/212
f 431/109/109 417/212/212 433/111/111
f 417/212/212 431/109/109 424/107/107
f 290/578/578 243/49/49 51/47/47
f 243/49/49 290/578/578 311/580/580
f 314/559/559 311/580/580 290/578/578
f 311/580/580 314/559/559 253/558/558
f 270/338/338 390/247/247 542/184/184
f 390/247/247 270/338/338 526/245/245
f 524/336/336 526/245/245 270/338/338
f 526/245/245 524/336/336 70/241/241
f 562/348/348 559/304/304 100/302/302
f 559/304/304 562/348/348 164/542/542
f 149/581/581 164/542/542 562/348/348
f 164/542/542 149/581/581 499/582/582
f 444/321/321 442/387/387 377/323/323
f 442/387/387 444/321/321 380/389/389
f 232/319/319 380/389/389 444/321/321
f 380/389/389 232/319/319 275/317/317
f 597/354/354 601/281/281 599/279/279
f 601/281/281 597/354/354 646/583/583
f 644/356/356 646/583/583 597/354/354
f 646/583/583 644/356/356 607/358/358
f 16/168/168 21/568/568 651/170/170
f 21/568/568 16/168/168 338/566/566
f 340/166/166 338/566/566 16/168/168
f 338/566/566 340/166/166 137/164/164
f 384/584/584 235/187/187 576/189/189
f 235/187/187 384/584/584 465/201/201
f 462/585/585 465/201/201 384/584/584
f 465/201/201 462/585/585 582/203/203
f 306/266/266 308/240/240 335/238/238
f 308/240/240 306/266/266 242/242/242
f 310/265/265 242/242/242 306/266/266
f 242/242/242 310/265/265 240/264/264
f 579/586/586 576/189/189 97/32/32
f 576/189/189 579/586/586 384/584/584
f 167/587/587 384/584/584 579/586/586
f 384/584/584 167/587/587 462/585/585
f 632/416/416 640/363/363 628/361/361
f 640/363/363 632/416/416 650/365/365
f 585/588/588 650/365/365 632/416/416
f 650/365/365 585/588/588 589/366/366
f 500/589/589 505/498/498 142/500/500
f 505/498/498 500/589/589 145/530/530
f 148/590/590 145/530/530 500/589/589
f 145/530/530 148/590/590 561/591/591
f 169/229/229 52/225/225 554/227/227
f 52/225/225 169/229/229 59/592/592
f 162/378/378 59/592/592 169/229/229
f 59/592/592 162/378/378 511/376/376
f 494/593/593 154/537/537 234/539/539
f 154/537/537 494/593/593 68/594/594
f 501/595/595 68/594/594 494/593/593
f 68/594/594 501/595/595 183/372/372
f 297/506/506 299/456/456 293/457/457
f 299/456/456 297/506/506 282/501/501
f 345/75/75 282/501/501 297/506/506
f 282/501/501 345/75/75 339/77/77
f 518/596/596 515/375/375 513/377/377
f 515/375/375 518/596/596 220/535/535
f 440/597/597 220/535/535 518/596/596
f 220/535/535 440/597/597 158/598/598
f 307/54/54 73/509/509 309/52/52
f 73/509/509 307/54/54 422/599/599
f 645/56/56 422/599/599 307/54/54
f 422/599/599 645/56/56 180/36/36
f 316/438/438 318/64/64 245/62/62
f 318/64/64 316/438/438 294/600/600
f 288/440/440 294/600/600 316/438/438
f 294/600/600 288/440/440 349/601/601
f 352/68/68 349/601/601 55/70/70
f 349/601/601 352/68/68 294/600/600
f 285/66/66 294/600/600 352/68/68
f 294/600/600 285/66/66 318/64/64
f 619/602/602 616/575/575 604/309/309
f 616/575/575 619/602/602 555/603/603
f 553/604/604 555/603/603 619/602/602
f 555/603/603 553/604/604 477/605/605
f 25/167/167 28/606/606 343/165/165
f 28/606/606 25/167/167 120/447/447
f 2/169/169 120/447/447 25/167/167
f 120/447/447 2/169/169 647/171/171
f 375/607/607 623/99/99 621/101/101
f 623/99/99 375/607/607 334/441/441
f 327/565/565 334/441/441 375/607/607
f 334/441/441 327/565/565 570/443/443
f 332/608/608 621/101/101 618/103/103
f 621/101/101 332/608/608 375/607/607
f 223/563/563 375/607/607 332/608/608
f 375/607/607 223/563/563 327/565/565
f 555/603/603 557/248/248 616/575/575
f 557/248/248 555/603/603 475/252/252
f 477/605/605 475/252/252 555/603/603
f 475/252/252 477/605/605 126/549/549
f 98/449/449 108/609/609 104/610/610
f 108/609/609 98/449/449 90/611/611
f 641/451/451 90/611/611 98/449/449
f 90/611/611 641/451/451 637/452/452
f 566/531/531 14/494/494 13/496/496
f 14/494/494 566/531/531 26/572/572
f 172/574/574 26/572/572 566/531/531
f 41/612/612 132/463/463 75/550/550
f 132/463/463 41/612/612 47/465/465
f 44/467/467 47/465/465 41/612/612
f 41/612/612 102/613/613 44/467/467
f 102/613/613 41/612/612 69/614/614
f 63/551/551 69/614/614 41/612/612
f 248/46/46 257/42/42 391/44/44
f 257/42/42 248/46/46 250/40/40
f 246/38/38 250/40/40 248/46/46
f 606/615/615 510/306/306 175/543/543
f 510/306/306 606/615/615 635/308/308
f 179/310/310 635/308/308 606/615/615
f 19/331/331 565/616/616 35/332/332
f 565/616/616 19/331/331 217/617/617
f 207/330/330 217/617/617 19/331/331
f 386/491/491 392/190/190 574/188/188
f 392/190/190 386/491/491 394/30/30
f 39/492/492 394/30/30 386/491/491
f 401/395/395 94/393/393 124/394/394
f 94/393/393 401/395/395 109/618/618
f 105/619/619 109/618/618 401/395/395
f 538/180/180 456/337/337 540/182/182
f 456/337/337 538/180/180 536/404/404
f 400/178/178 536/404/404 538/180/180
f 267/403/403 456/337/337 536/404/404
f 456/337/337 267/403/403 522/335/335
f 519/402/402 522/335/335 267/403/403
f 293/457/457 289/293/293 295/294/294
f 289/293/293 293/457/457 291/291/291
f 315/289/289 291/291/291 293/457/457
f 637/452/452 158/598/598 84/620/620
f 158/598/598 637/452/452 77/278/278
f 639/277/277 77/278/278 637/452/452
f 545/454/454 547/486/486 537/453/453
f 547/486/486 545/454/454 443/485/485
f 286/621/621 443/485/485 545/454/454
f 283/65/65 281/87/87 532/89/89
f 281/87/87 283/65/65 514/85/85
f 512/83/83 514/85/85 283/65/65
f 651/170/170 5/174/174 649/172/172
f 5/174/174 651/170/170 10/622/622
f 21/568/568 10/622/622 651/170/170
f 229/450/450 231/623/623 639/277/277
f 231/623/623 229/450/450 227/175/175
f 112/173/173 227/175/175 229/450/450
f 642/364/364 12/352/352 638/349/349
f 12/352/352 642/364/364 15/353/353
f 652/355/355 15/353/353 642/364/364
f 622/519/519 591/415/415 624/417/417
f 591/415/415 622/519/519 567/413/413
f 571/470/470 567/413/413 622/519/519
f 620/520/520 613/517/517 617/518/518
f 613/517/517 620/520/520 615/624/624
f 648/419/419 615/624/624 620/520/520
f 426/106/106 466/11/11 533/9/9
f 466/11/11 426/106/106 428/108/108
f 369/625/625 592/483/483 194/480/480
f 592/483/483 369/625/625 161/545/545
f 296/437/437 256/626/626 313/439/439
f 256/626/626 296/437/437 247/436/436
f 363/526/526 215/525/525 219/528/528
f 215/525/525 363/526/526 365/523/523
f 101/448/448 104/610/610 115/446/446
f 104/610/610 101/448/448 98/449/449
f 484/406/406 408/488/488 482/324/324
f 408/488/488 484/406/406 486/405/405
f 466/11/11 464/154/154 459/13/13
f 464/154/154 466/11/11 428/108/108
f 453/21/21 451/299/299 376/23/23
f 451/299/299 453/21/21 333/19/19
f 244/508/508 422/599/599 180/36/36
f 422/599/599 244/508/508 73/509/509
f 333/19/19 326/297/297 451/299/299
f 326/297/297 333/19/19 330/17/17
f 266/511/511 51/47/47 274/45/45
f 51/47/47 266/511/511 48/513/513
f 330/17/17 328/295/295 326/297/297
f 328/295/295 330/17/17 468/15/15
f 321/407/407 319/298/298 317/296/296
f 319/298/298 321/407/407 496/408/408
f 319/298/298 549/410/410 455/300/300
f 549/410/410 319/298/298 496/408/408
f 278/71/71 301/505/505 304/504/504
f 301/505/505 278/71/71 276/73/73
f 209/397/397 105/619/619 401/395/395
f 105/619/619 209/397/397 116/399/399
f 584/202/202 427/489/489 586/490/490
f 427/489/489 584/202/202 430/204/204
f 24/126/126 603/627/627 27/127/127
f 603/627/627 24/126/126 35/332/332
f 467/200/200 586/490/490 612/199/199
f 586/490/490 467/200/200 584/202/202
f 99/628/628 207/330/330 210/329/329
f 207/330/330 99/628/628 217/617/617
f 134/629/629 131/538/538 138/630/630
f 131/538/538 134/629/629 234/539/539
f 93/631/631 90/611/611 85/632/632
f 90/611/611 93/631/631 108/609/609
f 222/311/311 107/481/481 202/633/633
f 107/481/481 222/311/311 614/312/312
f 240/264/264 42/244/244 242/242/242
f 42/244/244 240/264/264 449/263/263
f 259/634/634 247/436/436 226/434/434
f 247/436/436 259/634/634 256/626/626
f 273/346/346 153/269/269 157/347/347
f 153/269/269 273/346/346 4/267/267
f 231/623/623 445/275/275 639/277/277
f 445/275/275 231/623/623 227/175/175
f 6/635/635 403/493/493 34/495/495
f 403/493/493 6/635/635 11/636/636
f 29/557/557 224/554/554 356/555/555
f 224/554/554 29/557/557 121/400/400
f 361/527/527 359/556/556 32/396/396
f 359/556/556 361/527/527 344/529/529
f 445/275/275 37/562/562 30/274/274
f 37/562/562 445/275/275 227/175/175
f 348/515/515 346/577/577 48/513/513
f 346/577/577 348/515/515 287/579/579
f 11/636/636 497/497/497 403/493/493
f 497/497/497 11/636/636 20/637/637
f 107/481/481 103/156/156 201/638/638
f 103/156/156 107/481/481 594/482/482
f 421/260/260 119/547/547 186/262/262
f 119/547/547 421/260/260 396/258/258
f 406/442/442 627/95/95 625/97/97
f 627/95/95 406/442/442 336/444/444
f 634/639/639 632/416/416 583/412/412
f 632/416/416 634/639/639 585/588/588
f 503/544/544 499/582/582 141/546/546
f 499/582/582 503/544/544 164/542/542
f 369/625/625 175/543/543 161/545/545
f 175/543/543 369/625/625 194/480/480
f 331/640/640 604/309/309 222/311/311
f 604/309/309 331/640/640 619/602/602
f 239/383/383 241/196/196 423/382/382
f 241/196/196 239/383/383 279/194/194
f 588/381/381 241/196/196 469/198/198
f 241/196/196 588/381/381 423/382/382
f 630/359/359 640/363/363 636/362/362
f 640/363/363 630/359/359 628/361/361
f 564/532/532 561/591/591 156/534/534
f 561/591/591 564/532/532 145/530/530
f 66/641/641 151/139/139 185/137/137
f 151/139/139 66/641/641 155/552/552
f 72/286/286 185/137/137 190/135/135
f 185/137/137 72/286/286 66/641/641
f 117/461/461 57/464/464 60/642/642
f 57/464/464 117/461/461 125/462/462
f 196/327/327 200/134/134 170/136/136
f 200/134/134 196/327/327 91/132/132
f 646/583/583 563/282/282 601/281/281
f 563/282/282 646/583/583 607/358/358
f 560/643/643 563/282/282 607/358/358
f 563/282/282 560/643/643 106/644/644
f 147/430/430 81/432/432 160/431/431
f 81/432/432 147/430/430 78/429/429
f 174/284/284 106/644/644 113/285/285
f 106/644/644 174/284/284 178/283/283
f 53/645/645 57/464/464 50/466/466
f 57/464/464 53/645/645 60/642/642
f 282/501/501 284/646/646 299/456/456
f 284/646/646 282/501/501 280/502/502
f 280/502/502 286/621/621 284/646/646
f 286/621/621 280/502/502 252/503/503
f 252/503/503 443/485/485 286/621/621
f 443/485/485 252/503/503 254/4/4
f 154/537/537 71/368/368 150/367/367
f 71/368/368 154/537/537 68/594/594
f 65/370/370 68/594/594 183/372/372
f 68/594/594 65/370/370 62/369/369
f 161/545/545 211/484/484 592/483/483
f 211/484/484 161/545/545 141/546/546
f 543/221/221 511/376/376 40/219/219
f 511/376/376 543/221/221 56/223/223
f 56/223/223 59/592/592 511/376/376
f 59/592/592 56/223/223 52/225/225
f 206/271/271 192/224/224 485/222/222
f 192/224/224 206/271/271 199/647/647
f 409/380/380 165/231/231 351/233/233
f 165/231/231 409/380/380 162/378/378
f 199/647/647 195/226/226 192/224/224
f 195/226/226 199/647/647 146/541/541
f 521/648/648 513/377/377 412/379/379
f 513/377/377 521/648/648 518/596/596
f 194/480/480 606/615/615 175/543/543
f 606/615/615 194/480/480 614/312/312
f 80/536/536 158/598/598 77/278/278
f 158/598/598 80/536/536 220/535/535
f 371/253/253 432/458/458 556/459/459
f 432/458/458 371/253/253 434/255/255
f 8/649/649 566/531/531 152/533/533
f 566/531/531 8/649/649 172/574/574
f 416/303/303 182/460/460 454/344/344
f 182/460/460 416/303/303 471/249/249
f 284/646/646 312/455/455 299/456/456
f 312/455/455 284/646/646 286/621/621
f 191/340/340 418/257/257 460/259/259
f 418/257/257 191/340/340 373/342/342
f 508/499/499 497/497/497 20/637/637
f 382/391/391 427/489/489 430/204/204
f 31/280/280 27/127/127 603/627/627
f 38/650/650 31/280/280 603/627/627
f 609/350/350 31/280/280 38/650/650
f 213/328/328 99/628/628 210/329/329
f 110/433/433 221/651/651 213/328/328
f 221/651/651 99/628/628 213/328/328
f 594/482/482 305/160/160 103/156/156
f 637/452/452 83/652/652 90/611/611
f 354/67/67 292/69/69 76/507/507
f 137/164/164 133/569/569 338/566/566
f 162/378/378 169/229/229 165/231/231
f 312/455/455 286/621/621 545/454/454
f 622/519/519 577/472/472 571/470/470
f 648/419/419 620/520/520 626/418/418
f 563/282/282 106/644/644 178/283/283
f 163/326/326 110/433/433 213/328/328
f 182/460/460 471/249/249 473/251/251
f 606/615/615 614/312/312 179/310/310
f 63/551/551 41/612/612 75/550/550
f 62/369/369 71/368/368 68/594/594
f 111/521/521 32/396/396 36/553/553
f 243/49/49 311/580/580 253/558/558
f 212/398/398 224/554/554 121/400/400
f 458/334/334 58/516/516 397/333/333
f 526/245/245 70/241/241 67/243/243
