# Blender v2.79 (sub 0) OBJ File: ''
# www.blender.org
mtllib face 3.mtl
o n0b0_n0b0.001
v 0.466016 1.200391 0.000000
v 1.929297 2.255859 0.000000
v 4.045703 -0.587891 0.000000
v 4.814844 3.171875 -1.048437
v 4.476953 -0.707031 0.000000
v 4.476953 -0.707031 0.000000
v 5.122656 2.964062 -1.094531
v 5.172266 -0.279687 0.000000
v 4.813672 2.678516 -0.914453
v 6.550000 1.017969 0.000000
v 2.274219 2.434766 1.022266
v 6.058594 0.631641 0.000000
v 6.058594 0.631641 0.000000
v 2.639844 2.554297 1.209766
v 6.839844 1.124219 0.000000
v 3.700391 2.901172 1.108203
v 6.887891 1.343750 0.000000
v 6.887891 1.343750 0.000000
v 2.146875 2.208984 1.488672
v 5.638672 0.927734 0.000000
v 2.694141 2.387891 1.767578
v 4.470313 0.766797 0.000000
v 3.754688 2.734766 1.678906
v 2.478516 0.287500 -1.897266
v 1.982031 2.011719 0.664062
v 3.221484 -0.007031 -1.472266
v 2.174219 2.074610 1.549219
v 1.505859 0.487109 -2.112109
v 2.736328 2.258203 1.842578
v 1.006641 0.696094 -1.982813
v 3.797266 2.605078 1.747266
v 3.456641 0.205859 -2.243359
v 4.814844 3.171875 1.048437
v 3.838672 1.548828 -3.045313
v 5.100781 3.031641 1.094531
v 3.204297 1.402734 -2.984766
v 2.160547 1.827344 0.559375
v 4.521875 1.031250 -1.361719
v 2.310156 1.859766 1.312109
v 1.831250 1.020313 -3.192578
v 2.812891 2.024219 1.549219
v 2.437891 1.217188 -3.172656
v 3.873828 2.371094 1.422266
v 6.439844 1.192188 -1.333594
v 4.813672 2.678516 0.914453
v 6.182813 1.080469 -1.261328
v 2.726953 1.867578 0.578516
v 5.779297 0.752734 -1.196875
v 5.779297 0.752734 -1.196875
v 3.737109 2.214062 0.504687
v 5.055469 0.000391 -1.172656
v 5.055469 0.000391 -1.172656
v 4.482031 -1.894531 0.000000
v 5.145703 -0.194531 -0.587500
v 4.075781 -1.321875 0.000000
v 4.418750 -0.364844 -1.237109
v 4.418750 -0.364844 -1.237109
v 4.350391 -1.433203 0.000000
v 4.468359 -0.620703 -0.559766
v 4.468359 -0.620703 -0.559766
v 3.921484 -2.321484 0.000000
v 4.564844 0.462109 -2.077734
v 3.156250 -0.679688 -1.876953
v 5.041016 0.964453 -2.095313
v 3.626953 -0.107422 -1.538281
v 0.655859 1.053125 -0.931250
v 0.655859 1.053125 -0.931250
v 3.142578 -0.570312 -2.025000
v 3.452344 0.926172 -2.746875
v 3.496094 -0.014844 -1.689844
v 2.972266 1.130469 -2.988672
v 3.221484 -0.007031 -1.472266
v 2.754297 0.662109 -2.855078
v 2.956641 -0.447266 -2.083203
v 2.592578 0.436328 -2.549219
v 2.777344 -0.432031 -1.946875
v 1.403125 0.819531 -2.712891
v 2.782422 -1.543359 -1.927734
v 3.708984 1.283984 -2.792969
v 3.101953 -1.870313 -1.652344
v 2.887110 1.745703 -3.111328
v 2.887110 1.745703 -3.111328
v 2.887110 1.745703 -3.111328
v 2.887110 1.745703 -3.111328
v 2.887110 1.745703 -3.111328
v 2.887110 1.745703 -3.111328
v 2.887110 1.745703 -3.111328
v 3.064063 -0.681250 -1.757812
v 3.905859 1.698828 -3.002344
v 3.905859 1.698828 -3.002344
v 3.408203 -1.741797 -1.446875
v 5.469922 1.266016 -2.070703
v 2.794922 -1.551953 -2.106641
v 5.627735 1.396875 -2.134375
v 1.872266 -2.528906 -2.118750
v 5.658985 1.607813 -2.158984
v 5.658985 1.607813 -2.158984
v 2.060156 -2.851172 -1.738672
v 6.490234 1.419141 -1.336719
v 6.490234 1.419141 -1.336719
v 4.170312 -2.143750 -1.226953
v 2.942578 1.769141 -2.939453
v 3.936719 -2.577344 -1.039062
v 0.132812 2.054297 0.000000
v 4.417188 -1.973047 -0.683594
v 0.495313 3.240625 0.000000
v 3.492578 -2.510547 -0.731641
v 3.818359 3.665234 0.000000
v 3.507422 -0.119922 -1.294141
v 6.261328 3.203906 0.000000
v 3.974219 -1.396875 -0.562891
v 4.905859 3.598047 0.000000
v 2.583984 -2.734766 -1.398828
v 6.389844 3.255469 0.000000
v 6.389844 3.255469 0.000000
v 3.761328 -1.523438 -1.071094
v 3.162500 4.831641 0.000000
v 2.492969 -0.830078 -2.167969
v 4.463672 4.515625 0.000000
v 2.241797 -1.384766 -2.290625
v 5.424610 4.096875 0.000000
v 2.628516 -0.859375 -2.297656
v 1.054688 4.098438 0.000000
v 2.353125 -1.460938 -2.417969
v 1.968750 4.713281 0.000000
v 2.878906 -1.008594 -2.204688
v 2.397266 2.993359 0.000000
v 2.397266 2.993359 0.000000
v 2.700781 -1.591406 -2.329688
v 1.139063 1.343750 -3.172656
v 1.139063 1.343750 -3.172656
v 2.078125 -2.075000 -2.327734
v 1.758594 1.496484 -3.339844
v 1.758594 1.496484 -3.339844
v 2.413281 -2.494922 -2.319141
v 1.227734 2.000391 -3.272656
v 2.408984 -2.917578 -2.084375
v 0.534375 1.110547 -1.943359
v 0.534375 1.110547 -1.943359
v 2.775391 -2.034766 -2.108984
v 0.183984 2.024609 -1.747266
v 2.721484 -1.972656 -1.883984
v 0.621875 3.168750 -1.548437
v 2.778516 -2.980860 -1.882031
v 1.309766 4.075781 -1.477344
v 3.241797 -2.928906 -1.641797
v 0.889453 3.041797 -2.395313
v 3.039062 -2.559766 -2.110938
v 2.659375 2.738672 -1.642969
v 2.659375 2.738672 -1.642969
v 3.390234 -2.507812 -1.913672
v 3.902344 3.454297 -1.386328
v 4.044531 -1.670703 -1.219141
v 3.526172 2.585938 -2.855860
v 4.294922 -1.507031 -0.660547
v 3.546484 2.241016 -2.644922
v 2.094531 -1.826563 -2.282031
v 4.657032 2.655469 -2.243750
v 3.256250 -1.986719 -1.950781
v 2.955859 1.968359 -2.878125
v 2.955859 1.968359 -2.878125
v 3.659375 -1.855469 -1.633594
v 2.679688 1.676953 -3.187109
v 2.679688 1.676953 -3.187109
v 4.341406 -2.272266 0.000000
v 2.883203 1.953906 -3.075781
v 2.883203 1.953906 -3.075781
v 2.883203 1.953906 -3.075781
v 2.883203 1.953906 -3.075781
v 4.253516 -2.362891 -0.578906
v 3.579297 2.289453 -2.832422
v 3.579297 2.289453 -2.832422
v 3.564844 -2.782031 -1.371094
v 4.716406 2.715625 -2.413281
v 4.716406 2.715625 -2.413281
v 3.781250 -2.355078 -1.633984
v 2.085547 2.471484 -3.247266
v 3.993750 -2.414453 0.000000
v 2.991406 3.451563 -2.835156
v 3.948437 -2.490625 -0.477734
v 3.566406 4.264844 -2.037109
v 3.637110 -2.596094 -0.783984
v 4.103906 3.858594 -2.225781
v 3.199610 -2.741016 -1.107813
v 3.106250 4.711719 -1.141406
v 3.835547 -2.403516 -0.427734
v 2.017969 4.587110 -1.339453
v 3.167578 -2.614063 -1.026563
v 0.724219 1.174609 -2.587891
v 0.724219 1.174609 -2.587891
v 3.156250 -0.679688 1.876953
v 3.446875 2.844922 -2.766797
v 3.626953 -0.107422 1.538281
v 4.558984 3.328125 -2.292578
v 3.142578 -0.570312 2.025000
v 6.010938 3.735547 0.000000
v 3.496094 -0.014844 1.689844
v 2.478516 0.287500 1.897266
v 3.221484 -0.007031 1.472266
v 3.221484 -0.007031 1.472266
v 2.956641 -0.447266 2.083203
v 1.505859 0.487109 2.112109
v 2.777344 -0.432031 1.946875
v 1.006641 0.696094 1.982813
v 2.782422 -1.543359 1.927734
v 0.655859 1.053125 0.931250
v 0.655859 1.053125 0.931250
v 3.101953 -1.870313 1.652344
v 3.456641 0.205859 2.243359
v 3.064063 -0.681250 1.757812
v 3.838672 1.548828 3.045313
v 3.408203 -1.741797 1.446875
v 3.204297 1.402734 2.984766
v 2.794922 -1.551953 2.106641
v 4.521875 1.031250 1.361719
v 1.872266 -2.528906 2.118750
v 2.659375 2.738672 1.642969
v 2.659375 2.738672 1.642969
v 2.060156 -2.851172 1.738672
v 1.139063 1.343750 3.172656
v 1.139063 1.343750 3.172656
v 4.170312 -2.143750 1.226953
v 1.831250 1.020313 3.192578
v 3.936719 -2.577344 1.039062
v 1.758594 1.496484 3.339844
v 1.758594 1.496484 3.339844
v 4.417188 -1.973047 0.683594
v 2.437891 1.217188 3.172656
v 3.492578 -2.510547 0.731641
v 6.182813 1.080469 1.261328
v 3.507422 -0.119922 1.294141
v 6.439844 1.192188 1.333594
v 3.974219 -1.396875 0.562891
v 5.779297 0.752734 1.196875
v 5.779297 0.752734 1.196875
v 2.583984 -2.734766 1.398828
v 5.145703 -0.194531 0.587500
v 3.761328 -1.523438 1.071094
v 5.055469 0.000391 1.172656
v 5.055469 0.000391 1.172656
v 2.492969 -0.830078 2.167969
v 4.468359 -0.620703 0.559766
v 4.468359 -0.620703 0.559766
v 2.241797 -1.384766 2.290625
v 4.418750 -0.364844 1.237109
v 4.418750 -0.364844 1.237109
v 2.628516 -0.859375 2.297656
v 5.041016 0.964453 2.095313
v 2.353125 -1.460938 2.417969
v 4.564844 0.462109 2.077734
v 2.878906 -1.008594 2.204688
v 0.534375 1.110547 1.943359
v 0.534375 1.110547 1.943359
v 2.700781 -1.591406 2.329688
v 2.754297 0.662109 2.855078
v 2.078125 -2.075000 2.327734
v 3.452344 0.926172 2.746875
v 2.413281 -2.494922 2.319141
v 2.972266 1.130469 2.988672
v 2.408984 -2.917578 2.084375
v 2.592578 0.436328 2.549219
v 2.775391 -2.034766 2.108984
v 0.724219 1.174609 2.587891
v 0.724219 1.174609 2.587891
v 2.721484 -1.972656 1.883984
v 1.403125 0.819531 2.712891
v 2.778516 -2.980860 1.882031
v 3.708984 1.283984 2.793360
v 3.241797 -2.928906 1.641797
v 3.905859 1.698828 3.002344
v 3.905859 1.698828 3.002344
v 3.039062 -2.559766 2.110938
v 2.887110 1.745703 3.111328
v 2.887110 1.745703 3.111328
v 2.887110 1.745703 3.111328
v 2.887110 1.745703 3.111328
v 2.887110 1.745703 3.111328
v 2.887110 1.745703 3.111328
v 2.887110 1.745703 3.111328
v 3.390234 -2.507812 1.913672
v 5.627735 1.396875 2.134375
v 4.044531 -1.670703 1.219141
v 5.469922 1.266016 2.070703
v 4.294922 -1.507031 0.660547
v 5.658985 1.607813 2.158984
v 5.658985 1.607813 2.158984
v 2.094531 -1.826563 2.282031
v 6.490234 1.419141 1.336719
v 6.490234 1.419141 1.336719
v 3.256250 -1.986719 1.950781
v 2.679688 1.676953 3.187109
v 2.679688 1.676953 3.187109
v 3.659375 -1.855469 1.633594
v 2.883984 1.952734 3.075781
v 2.883984 1.952734 3.075781
v 2.883984 1.952734 3.075781
v 4.253516 -2.362891 0.578906
v 2.955859 1.968359 2.878125
v 2.955859 1.968359 2.878125
v 3.564844 -2.782031 1.371094
v 2.942578 1.769141 2.939453
v 3.781250 -2.355078 1.633984
v 1.227734 2.000391 3.272656
v 3.948437 -2.490625 0.477734
v 0.183984 2.024609 1.747266
v 3.637110 -2.596094 0.783984
v 0.621875 3.168750 1.548437
v 3.199610 -2.741016 1.107813
v 0.889453 3.041797 2.395313
v 3.835547 -2.403516 0.427734
v 1.309766 4.075781 1.477344
v 3.167578 -2.614063 1.026563
v 3.902344 3.454297 1.386328
v 4.558984 3.328125 2.292578
v 3.526172 2.585938 2.855860
v 3.446875 2.844922 2.766797
v 3.546484 2.241016 2.644922
v 4.657032 2.655469 2.243750
v 4.716406 2.715625 2.413281
v 4.716406 2.715625 2.413281
v 3.579297 2.289453 2.832422
v 3.579297 2.289453 2.832422
v 2.085547 2.471484 3.247266
v 2.991406 3.451563 2.835156
v 3.566406 4.264844 2.037109
v 4.104688 3.855860 2.225781
v 3.106250 4.711719 1.141406
v 2.017969 4.587110 1.339453
v 3.880859 -0.279687 -0.939063
v 3.880859 -0.279687 0.939063
v 0.562891 1.964453 -2.737891
v 0.562891 1.964453 2.737891
v 1.525781 2.787891 -3.094531
v 2.214062 3.959375 -2.369531
v 1.525781 2.787891 3.094531
v 2.214062 3.959375 2.369531
v 4.165625 4.515625 1.053125
v 5.076562 4.013281 1.138672
v 5.721875 3.614063 1.178516
v 6.062109 3.124609 1.225781
v 6.062109 3.124609 1.225781
v 5.943359 3.080859 1.159375
v 4.165625 4.515625 -1.053125
v 5.076562 4.013281 -1.138672
v 5.721875 3.614063 -1.177344
v 6.062109 3.124609 -1.224609
v 6.062109 3.124609 -1.224609
v 5.943359 3.080859 -1.157812
v 4.686328 3.071094 -2.418750
v 6.053906 3.491406 -1.228906
v 6.426172 3.616406 0.000000
v 6.053906 3.491406 1.230469
v 4.686328 3.071094 2.418750
v 2.769531 1.290234 -1.502344
v 2.554688 1.032031 0.000000
v 2.769531 1.290234 1.502344
v 4.710938 1.653125 -2.758594
v 4.710938 1.653125 -2.758594
v 4.661719 1.473047 -2.765234
v 4.710938 1.653125 2.758594
v 4.710938 1.653125 2.758594
v 4.661719 1.473047 2.765625
v 2.348438 1.835547 -1.549219
v 2.067578 1.798828 0.000000
v 2.348438 1.835547 1.549219
v 5.300000 2.867969 -1.799609
v 5.398438 2.920703 -1.936719
v 5.398438 2.920703 -1.936719
v 5.389062 3.282422 -1.925000
v 5.174219 3.445312 -1.730469
v 5.300000 2.867969 1.799609
v 5.398438 2.920703 1.936719
v 5.398438 2.920703 1.936719
v 5.389062 3.282422 1.925000
v 5.167578 3.457813 1.729297
v 2.697266 1.978516 3.159766
v 2.697266 1.978516 -3.159766
v 2.904297 1.890234 2.908594
v 2.852734 1.871094 3.098047
v 2.852734 1.871094 3.098047
v 2.852734 1.871094 3.098047
v 2.904297 1.890234 -2.908594
v 2.852344 1.871484 -3.097656
v 2.852344 1.871484 -3.097656
v 2.852344 1.871484 -3.097656
v 2.652344 1.879688 -3.193750
v 1.771484 1.966406 -3.335938
v 2.652344 1.879688 3.193750
v 1.771484 1.966406 3.335938
v 2.238281 1.585938 3.230078
v 2.238281 1.585938 3.230078
v 2.207031 1.930469 3.225000
v 2.432031 2.218359 3.151172
v 2.238281 1.585938 -3.230078
v 2.238281 1.585938 -3.230078
v 2.207031 1.930469 -3.225000
v 2.432031 2.218359 -3.151172
v 6.764453 1.364844 -0.668359
v 6.764453 1.364844 -0.668359
v 6.714844 1.141797 -0.666797
v 6.441797 1.032812 -0.630469
v 6.441797 1.032812 0.630469
v 6.714844 1.141797 0.666797
v 6.764453 1.364844 0.668359
v 6.764453 1.364844 0.668359
v 5.958203 3.710938 -0.526563
v 6.331250 3.589453 -0.577734
v 6.310937 3.219531 -0.591016
v 6.310937 3.219531 -0.591016
v 6.178516 3.171484 -0.570312
v 6.178516 3.171484 0.570312
v 6.310937 3.219531 0.591016
v 6.310937 3.219531 0.591016
v 6.330860 3.589453 0.577734
v 5.958594 3.710547 0.526563
v 3.780078 1.672656 -2.770313
v 4.671484 1.621094 -2.466016
v 5.391016 1.552734 -1.971094
v 6.078907 1.400391 -1.342188
v 6.475000 1.323047 -0.645312
v 6.579688 1.304297 0.000000
v 6.474609 1.323047 0.644922
v 6.023828 1.381250 1.342578
v 5.351172 1.522266 1.942969
v 4.665625 1.593359 2.423438
v 3.780078 1.672656 2.770313
v 4.375000 1.124219 2.444531
v 4.375000 1.124219 -2.444141
v 2.259375 0.870703 3.023828
v 2.090235 0.601953 2.630859
v 2.090235 0.601953 -2.630859
v 2.259375 0.870703 -3.023828
v 2.274219 2.434766 -1.022266
v 2.639844 2.554297 -1.209766
v 3.530469 2.845703 -1.108203
v 2.146875 2.208984 -1.488672
v 2.694141 2.387891 -1.767578
v 3.754688 2.734766 -1.678906
v 1.982031 2.011719 -0.664062
v 2.174219 2.074610 -1.549219
v 2.736328 2.258203 -1.842578
v 3.797266 2.605078 -1.747266
v 2.160547 1.827344 -0.559375
v 2.310156 1.859766 -1.312109
v 2.812891 2.024219 -1.549219
v 3.873828 2.371094 -1.422266
v 2.727344 1.867578 -0.578516
v 3.737109 2.214062 -0.504687
v 2.587109 2.714453 0.000000
v 3.702344 2.321094 0.000000
v 5.092187 2.813281 0.000000
v 5.467578 3.269531 0.000000
v 5.153516 3.400781 0.000000
v 3.495703 2.952344 0.000000
v 2.119922 1.915625 0.000000
v 2.598438 2.050781 0.000000
v 1.947266 2.118359 0.000000
vt 0.538879 0.335144
vt 0.561401 0.334534
vt 0.510925 0.330200
vt 0.561401 0.335144
vt 0.561401 0.332825
vt 0.583923 0.335144
vt 0.576111 0.332825
vt 0.613953 0.330566
vt 0.605896 0.329163
vt 0.623901 0.317261
vt 0.613953 0.317261
vt 0.620667 0.296204
vt 0.609680 0.296204
vt 0.604370 0.266724
vt 0.597290 0.277771
vt 0.561401 0.265442
vt 0.578552 0.296204
vt 0.561401 0.296204
vt 0.576599 0.321838
vt 0.561401 0.324646
vt 0.546204 0.321838
vt 0.546753 0.332825
vt 0.516907 0.329163
vt 0.508850 0.330566
vt 0.498901 0.317261
vt 0.501465 0.317261
vt 0.520386 0.317261
vt 0.523865 0.296204
vt 0.561401 0.317261
vt 0.561401 0.296204
vt 0.598999 0.296204
vt 0.561401 0.255310
vt 0.602539 0.269531
vt 0.561401 0.251770
vt 0.392151 0.475342
vt 0.337524 0.494995
vt 0.393738 0.497559
vt 0.321838 0.478455
vt 0.372192 0.461792
vt 0.315613 0.461792
vt 0.313171 0.440002
vt 0.254150 0.447876
vt 0.311768 0.426392
vt 0.254150 0.427002
vt 0.312500 0.411804
vt 0.254150 0.408264
vt 0.310425 0.392029
vt 0.254150 0.389648
vt 0.317139 0.377441
vt 0.254150 0.374939
vt 0.288757 0.360657
vt 0.254150 0.359436
vt 0.254150 0.350037
vt 0.288757 0.360657
vt 0.290222 0.351318
vt 0.323303 0.361938
vt 0.326233 0.352539
vt 0.376404 0.364502
vt 0.384583 0.355957
vt 0.439636 0.370789
vt 0.585571 0.920288
vt 0.584045 0.929199
vt 0.651978 0.946228
vt 0.506226 0.910522
vt 0.506226 0.896179
vt 0.585571 0.920288
vt 0.587463 0.904175
vt 0.654541 0.933533
vt 0.657532 0.912537
vt 0.724609 0.921448
vt 0.729248 0.879211
vt 0.806580 0.930298
vt 0.802612 0.888123
vt 0.862488 0.929199
vt 0.881226 0.887512
vt 0.947083 0.916687
vt 0.912476 0.837524
vt 0.977051 0.894836
vt 0.956238 0.837524
vt 0.993713 0.875000
vt 0.981201 0.837524
vt 0.849976 0.737549
vt 0.937500 0.770874
vt 0.868713 0.725037
vt 0.913818 0.779480
vt 0.877930 0.793335
vt 0.956238 0.837524
vt 0.912476 0.837524
vt 0.977051 0.894836
vt 0.947083 0.916687
vt 1.000000 0.950012
vt 0.931213 0.966675
vt 0.962463 1.000000
vt 0.888245 0.975220
vt 0.814331 0.970642
vt 0.862488 0.929199
vt 0.806580 0.930298
vt 0.802612 0.888123
vt 0.729248 0.879211
vt 0.756226 0.850037
vt 0.662476 0.829224
vt 0.163696 0.265747
vt 0.160767 0.278015
vt 0.174622 0.277954
vt 0.153442 0.268494
vt 0.140015 0.241882
vt 0.131653 0.246094
vt 0.108765 0.228638
vt 0.102234 0.234192
vt 0.077576 0.215454
vt 0.072754 0.222290
vt 0.039734 0.217896
vt 0.006653 0.238953
vt 0.006653 0.213501
vt 0.039734 0.217896
vt 0.042114 0.211731
vt 0.077576 0.215454
vt 0.966370 0.575195
vt 0.978882 0.573120
vt 0.992798 0.588928
vt 0.954224 0.552673
vt 0.941406 0.555420
vt 0.929504 0.532227
vt 0.916382 0.535645
vt 0.847656 0.504395
vt 0.841370 0.510620
vt 0.803223 0.500183
vt 0.800110 0.506470
vt 0.758789 0.502258
vt 0.758789 0.508545
vt 0.796936 0.513733
vt 0.759094 0.520508
vt 0.832031 0.527405
vt 0.498352 0.451172
vt 0.487915 0.462036
vt 0.497925 0.465820
vt 0.483398 0.448120
vt 0.498352 0.437134
vt 0.479004 0.435486
vt 0.457764 0.408691
vt 0.463989 0.437134
vt 0.424988 0.418030
vt 0.456238 0.440979
vt 0.419006 0.444092
vt 0.434631 0.461792
vt 0.440613 0.488892
vt 0.966370 0.589783
vt 0.992126 0.589722
vt 0.949219 0.579895
vt 0.935120 0.587708
vt 0.924194 0.563354
vt 0.891418 0.558533
vt 0.899231 0.546814
vt 0.832031 0.527405
vt 0.903870 0.539795
vt 0.835144 0.518982
vt 0.796936 0.513733
vt 0.149780 0.246887
vt 0.160767 0.273071
vt 0.164185 0.267944
vt 0.138611 0.252075
vt 0.119385 0.242676
vt 0.077454 0.280640
vt 0.071167 0.260498
vt 0.006348 0.284912
vt 0.007019 0.262756
vt 0.071167 0.260498
vt 0.007019 0.223633
vt 0.027832 0.214294
vt 0.007019 0.213379
vt 0.038452 0.209473
vt 0.007019 0.208130
vt 0.654541 0.933533
vt 0.718384 0.961365
vt 0.587463 0.904175
vt 0.506226 0.854187
vt 0.591431 0.862549
vt 0.662476 0.870850
vt 0.662476 0.829224
vt 0.756226 0.850037
vt 0.293640 0.496460
vt 0.254150 0.481201
vt 0.254150 0.464539
vt 0.321838 0.478455
vt 0.315613 0.461792
vt 0.372192 0.461792
vt 0.313171 0.440002
vt 0.372192 0.429504
vt 0.311768 0.426392
vt 0.312500 0.411804
vt 0.372192 0.429504
vt 0.365601 0.407654
vt 0.384338 0.397217
vt 0.367859 0.372253
vt 0.323303 0.361938
vt 0.326233 0.352539
vt 0.290222 0.351318
vt 0.291870 0.339844
vt 0.254150 0.338623
vt 0.520264 0.269531
vt 0.518494 0.266724
vt 0.525574 0.277771
vt 0.544312 0.296204
vt 0.513184 0.296204
vt 0.508850 0.317261
vt 0.502136 0.296204
vt 0.814331 0.970642
vt 0.721069 0.948486
vt 0.718384 0.961365
vt 0.651978 0.946228
vt 0.584045 0.929199
vt 0.506226 0.920166
vt 0.581909 0.937988
vt 0.856201 1.000000
vt 0.721069 0.948486
vt 0.724609 0.921448
vt 0.657532 0.912537
vt 0.662476 0.870850
vt 0.593750 0.820862
vt 0.960144 0.596008
vt 0.991821 0.590759
vt 0.935120 0.604370
vt 0.891418 0.589783
vt 0.910156 0.612732
vt 0.872620 0.608521
vt 0.916382 0.623108
vt 0.878906 0.629395
vt 0.922668 0.633545
vt 0.872620 0.647461
vt 0.758789 0.496033
vt 0.800110 0.506470
vt 0.841370 0.510620
vt 0.835144 0.518982
vt 0.916382 0.535645
vt 0.903870 0.539795
vt 0.941406 0.555420
vt 0.899231 0.546814
vt 0.875977 0.662720
vt 0.847412 0.663269
vt 0.928894 0.646057
vt 0.960144 0.633545
vt 0.947632 0.623108
vt 0.985168 0.621033
vt 0.972656 0.610596
vt 0.990662 0.611633
vt 0.994080 0.602295
vt 0.160767 0.273071
vt 0.149780 0.246887
vt 0.164185 0.267944
vt 0.140564 0.251160
vt 0.077454 0.280640
vt 0.121338 0.241943
vt 0.108093 0.235046
vt 0.070129 0.221191
vt 0.119446 0.227234
vt 0.069885 0.210815
vt 0.079529 0.287292
vt 0.006042 0.295959
vt 0.005676 0.307007
vt 0.079651 0.287537
vt 0.083801 0.300720
vt 0.163513 0.279663
vt 0.166260 0.286194
vt 0.171753 0.282959
vt 0.392151 0.475342
vt 0.419006 0.444092
vt 0.424988 0.418030
vt 0.365601 0.407654
vt 0.384338 0.397217
vt 0.317139 0.377441
vt 0.367859 0.372253
vt 1.000000 0.950012
vt 0.931213 0.966675
vt 0.888245 0.975220
vt 0.962463 1.000000
vt 0.856201 1.000000
vt 0.960144 0.596008
vt 0.994080 0.602295
vt 0.993225 0.591431
vt 0.972656 0.610596
vt 0.935120 0.604370
vt 0.941406 0.613770
vt 0.910156 0.612732
vt 0.916382 0.623108
vt 0.872620 0.608521
vt 0.878906 0.629395
vt 0.426514 0.376404
vt 0.481018 0.402954
vt 0.966370 0.575195
vt 0.966370 0.589783
vt 0.992126 0.589722
vt 0.949219 0.579895
vt 0.924194 0.563354
vt 0.891418 0.558533
vt 0.834106 0.546509
vt 0.526733 0.325928
vt 0.596069 0.325928
vt 0.602478 0.317261
vt 0.611938 0.330200
vt 0.621399 0.317261
vt 0.160767 0.278015
vt 0.163696 0.265747
vt 0.174622 0.277954
vt 0.153442 0.268494
vt 0.089294 0.292786
vt 0.081848 0.270142
vt 0.006653 0.279968
vt 0.081848 0.270142
vt 0.812500 0.758362
vt 0.716980 0.710449
vt 0.799988 0.762512
vt 0.731201 0.700012
vt 0.831238 0.750000
vt 0.743713 0.691711
vt 0.756226 0.683350
vt 0.937500 0.770874
vt 0.913818 0.779480
vt 0.877930 0.793335
vt 0.849976 0.737549
vt 0.831238 0.750000
vt 0.743713 0.691711
vt 0.731201 0.700012
vt 0.456238 0.440979
vt 0.434631 0.461792
vt 0.462708 0.451416
vt 0.469177 0.461792
vt 0.471558 0.447937
vt 0.477539 0.459412
vt 0.487915 0.462036
vt 0.498352 0.437134
vt 0.470337 0.405579
vt 0.457764 0.408691
vt 0.478699 0.434937
vt 0.463867 0.436890
vt 0.483398 0.448120
vt 0.412476 0.382629
vt 0.254150 0.491577
vt 0.293640 0.496460
vt 0.337524 0.494995
vt 0.393738 0.497559
vt 0.440613 0.488892
vt 0.833984 0.561584
vt 0.810120 0.579346
vt 0.791077 0.559631
vt 0.760620 0.568970
vt 0.760437 0.559082
vt 0.791077 0.559631
vt 0.990662 0.611633
vt 0.985168 0.621033
vt 0.947632 0.623108
vt 0.960144 0.633545
vt 0.922668 0.633545
vt 0.928894 0.646057
vt 0.872620 0.647461
vt 0.140015 0.241882
vt 0.131653 0.246094
vt 0.102234 0.234192
vt 0.072754 0.222290
vt 0.108765 0.228638
vt 0.469177 0.461792
vt 0.462708 0.451416
vt 0.477539 0.459412
vt 0.471680 0.448059
vt 0.329529 0.341125
vt 0.376404 0.364502
vt 0.412476 0.382629
vt 0.356812 0.256897
vt 0.275391 0.180908
vt 0.449585 0.202881
vt 0.276733 0.256897
vt 0.278564 0.319885
vt 0.356812 0.256897
vt 0.357422 0.320007
vt 0.454590 0.328064
vt 0.868713 0.837524
vt 0.856201 0.837524
vt 0.862488 0.875000
vt 0.935120 0.587708
vt 0.891418 0.589783
vt 0.833984 0.561584
vt 0.439636 0.370789
vt 0.470337 0.405579
vt 0.481018 0.402954
vt 0.426514 0.376404
vt 0.384583 0.355957
vt 0.027771 0.214294
vt 0.070190 0.222595
vt 0.038452 0.209473
vt 0.069885 0.210815
vt 0.856201 0.837524
vt 0.868713 0.837524
vt 0.881226 0.887512
vt 0.310425 0.392029
vt 0.799988 0.862549
vt 0.991821 0.590759
vt 0.993713 0.875000
vt 0.981201 0.837524
vt 0.941406 0.613770
vt 0.083801 0.300720
vt 0.163513 0.279663
vt 0.166260 0.286194
vt 0.171753 0.282959
vt 0.591431 0.862549
vt 0.089294 0.292786
vt 0.134644 0.237061
vt 0.042114 0.211731
vt 0.006653 0.208069
vt 0.593750 0.820862
vt 0.506226 0.932434
vt 0.581909 0.937988
vt 0.006653 0.303040
vt 0.993225 0.591431
vt 0.504456 0.296204
vt 0.844543 0.593933
vt 0.449585 0.202881
vt 0.454163 0.272156
vt 0.810120 0.579346
vt 0.106384 0.236206
vt 0.812500 0.758362
vt 0.716980 0.710449
vt 0.799988 0.762512
vt 0.618347 0.296204
vt 0.291870 0.339844
vt 0.506226 0.816711
vt 0.756226 0.683350
vt 0.868713 0.725037
vt 0.357422 0.320007
vt 0.454590 0.328064
vt 0.454163 0.272156
vt 0.119446 0.227234
vt 0.497925 0.465820
vt 0.498352 0.451172
vt 0.497925 0.436768
vt 0.799988 0.862549
vt 0.134644 0.237061
vt 0.168579 0.276245
vt 0.166016 0.270752
vt 0.954224 0.552673
vt 0.929504 0.532227
vt 0.649292 0.954956
vt 0.168579 0.276245
vt 0.329529 0.341125
vt 0.649292 0.954956
vt 0.978882 0.573120
vt 0.992798 0.588928
vt 0.834106 0.546509
vt 0.847656 0.504395
vt 0.803223 0.500183
vt 0.844543 0.593933
vt 0.875977 0.662720
vt 0.847412 0.663269
vt 0.862488 0.875000
vt 0.718079 0.971802
vt 0.718079 0.971802
vt 0.168884 0.276855
vt 0.168884 0.276855
vt 0.166016 0.270752
vn -0.9326 -0.3367 -0.1302
vn -0.9126 0.4089 0.0000
vn -0.7901 0.4178 -0.4486
vn -0.9258 -0.3779 0.0000
vn -0.3712 -0.9285 0.0000
vn -0.9326 -0.3367 0.1302
vn -0.3571 -0.9339 -0.0146
vn -0.6468 -0.3706 0.6665
vn -0.2557 -0.9199 0.2974
vn -0.1028 -0.2072 0.9729
vn 0.2045 -0.8776 0.4335
vn 0.2961 -0.1218 0.9474
vn 0.3998 -0.8306 0.3876
vn 0.7767 0.1025 0.6214
vn 0.5459 -0.8036 0.2369
vn 0.6223 -0.7826 0.0157
vn 0.3374 -0.9399 -0.0527
vn 0.3104 -0.9506 0.0000
vn 0.2219 -0.9711 -0.0876
vn 0.2562 -0.9666 0.0001
vn 0.2219 -0.9711 0.0876
vn -0.3571 -0.9339 0.0146
vn -0.2557 -0.9198 -0.2974
vn -0.6468 -0.3706 -0.6665
vn -0.1028 -0.2072 -0.9729
vn -0.3507 0.6643 -0.6600
vn -0.3457 0.9089 -0.2329
vn -0.2599 0.9450 -0.1985
vn -0.4046 0.9145 -0.0006
vn -0.2570 0.9664 -0.0045
vn -0.2531 0.9460 0.2026
vn 0.1269 0.9919 -0.0008
vn 0.0750 0.8939 0.4419
vn 0.9556 0.2942 0.0118
vn -0.8230 0.0790 0.5625
vn -0.9379 -0.3198 0.1345
vn -0.8623 -0.2588 0.4352
vn -0.9838 0.0035 0.1793
vn -0.6744 0.5277 0.5164
vn -0.8466 0.4871 0.2145
vn -0.6134 0.7207 0.3229
vn -0.7118 0.7023 0.0000
vn -0.2915 0.9011 0.3209
vn -0.3385 0.9409 0.0000
vn 0.0409 0.9618 0.2707
vn 0.0623 0.9980 0.0000
vn 0.3321 0.9084 0.2539
vn 0.3527 0.9357 0.0000
vn 0.4492 0.8112 0.3742
vn 0.4446 0.8957 0.0000
vn 0.3761 0.9095 0.1771
vn 0.3982 0.9173 0.0002
vn 0.8388 0.5444 0.0066
vn 0.3763 0.9094 -0.1773
vn 0.7881 0.5563 -0.2635
vn 0.3500 0.8433 -0.4077
vn 0.6727 0.5213 -0.5250
vn 0.4805 0.4935 -0.7249
vn 0.6340 0.0380 -0.7724
vn 0.4428 0.0244 -0.8963
vn 0.7151 -0.6923 -0.0963
vn 0.0649 -0.9791 0.1924
vn 0.0083 -0.9227 0.3854
vn 0.7591 -0.6510 0.0000
vn 0.9996 -0.0261 0.0000
vn 0.7151 -0.6923 0.0963
vn 0.9626 -0.0787 0.2592
vn 0.5685 -0.8194 0.0735
vn 0.8485 -0.1700 0.5011
vn 0.6945 -0.2477 0.6755
vn 0.4063 0.5639 0.7189
vn 0.5836 -0.2868 0.7597
vn 0.3078 0.5640 0.7663
vn 0.3993 -0.2616 0.8787
vn 0.6751 0.2089 0.7075
vn 0.0490 -0.2680 0.9622
vn 0.5903 -0.0851 0.8027
vn -0.4941 0.0026 0.8694
vn -0.2114 0.1267 0.9691
vn -0.6803 0.1798 0.7105
vn -0.6064 0.3262 0.7252
vn 0.0136 0.5616 -0.8273
vn -0.5121 0.5410 -0.6671
vn -0.3633 0.7439 -0.5609
vn -0.0985 0.3767 -0.9211
vn 0.6417 -0.0617 -0.7644
vn -0.2114 0.1267 -0.9691
vn 0.5903 -0.0851 -0.8027
vn -0.4941 0.0026 -0.8694
vn 0.0490 -0.2680 -0.9622
vn -0.4416 -0.4722 -0.7629
vn -0.1180 -0.8213 -0.5581
vn -0.3566 -0.9319 -0.0664
vn 0.1421 -0.9604 -0.2397
vn 0.3211 -0.9326 -0.1647
vn 0.3993 -0.2616 -0.8787
vn 0.5836 -0.2868 -0.7597
vn 0.3078 0.5640 -0.7663
vn 0.4063 0.5639 -0.7189
vn 0.0068 0.8812 -0.4726
vn 0.2040 0.8784 -0.4321
vn 0.4315 -0.8894 -0.1510
vn 0.3782 -0.9160 0.1332
vn 0.4614 -0.8809 -0.1052
vn 0.3218 -0.9117 0.2554
vn 0.3983 -0.8996 -0.1788
vn 0.2045 -0.9495 0.2380
vn 0.3742 -0.9224 -0.0952
vn 0.1146 -0.9668 0.2282
vn 0.3441 -0.9388 -0.0117
vn 0.1040 -0.9849 0.1382
vn 0.0745 -0.9934 0.0867
vn -0.1736 -0.9848 0.0001
vn 0.0775 -0.9970 0.0000
vn 0.0743 -0.9934 -0.0866
vn 0.3442 -0.9388 -0.0052
vn 0.3385 -0.9409 0.0135
vn 0.1702 -0.2803 0.9447
vn 0.2280 0.1724 0.9583
vn 0.1139 0.2261 0.9674
vn 0.4388 -0.0750 0.8954
vn 0.3433 -0.4152 0.8424
vn 0.5992 -0.1764 0.7809
vn 0.5174 -0.4587 0.7224
vn 0.8022 -0.1874 0.5669
vn 0.6375 -0.5898 0.4957
vn 0.9347 -0.2096 0.2871
vn 0.7347 -0.6324 0.2456
vn 0.7728 -0.6346 0.0009
vn 0.4761 -0.8794 0.0018
vn 0.4517 -0.8743 -0.1775
vn 0.5789 -0.8153 0.0000
vn 0.5342 -0.6977 -0.4773
vn 0.3950 0.0946 0.9138
vn 0.2217 0.0359 0.9745
vn 0.2851 0.1779 0.9418
vn 0.2397 0.0852 0.9671
vn 0.3921 0.0761 0.9167
vn 0.2996 0.1807 0.9368
vn 0.2478 0.2322 0.9405
vn 0.2369 0.1365 0.9619
vn 0.1448 0.4307 0.8908
vn 0.1090 0.2063 0.9724
vn -0.3195 0.4603 0.8283
vn -0.4042 0.1476 0.9027
vn -0.5415 -0.1413 0.8287
vn 0.1643 -0.3258 0.9310
vn -0.0081 -0.3527 0.9357
vn 0.2334 -0.5521 0.8004
vn 0.3094 -0.4211 0.8526
vn 0.2701 -0.5699 0.7760
vn 0.3970 -0.5617 0.7258
vn 0.4548 -0.5765 0.6787
vn 0.5342 -0.6977 0.4773
vn 0.4126 -0.6880 0.5970
vn 0.4107 -0.8313 0.3744
vn 0.4530 -0.8739 0.1762
vn 0.0500 0.9904 -0.1289
vn 0.5834 0.8107 -0.0483
vn 0.0619 0.9861 0.1544
vn 0.0347 0.9759 -0.2153
vn -0.0452 0.9572 -0.2858
vn 0.4573 0.8462 -0.2735
vn -0.0395 0.9427 -0.3312
vn 0.5449 0.8385 0.0000
vn 0.0035 1.0000 0.0000
vn -0.0405 0.9420 0.3333
vn -0.2399 0.9708 -0.0000
vn -0.2024 0.9670 0.1543
vn -0.2404 0.9707 0.0011
vn -0.1208 0.9879 0.0968
vn -0.1285 0.9917 0.0016
vn 0.5685 -0.8194 -0.0735
vn -0.1528 -0.8336 0.5308
vn 0.9626 -0.0787 -0.2592
vn 0.7310 0.6823 0.0000
vn 0.6814 0.6677 0.2998
vn 0.5680 0.5929 0.5707
vn 0.2040 0.8784 0.4321
vn 0.0068 0.8812 0.4726
vn -0.9129 -0.4080 0.0133
vn -0.9982 -0.0594 0.0000
vn -0.8987 0.4385 0.0000
vn -0.9838 0.0035 -0.1793
vn -0.8466 0.4871 -0.2145
vn -0.6744 0.5277 -0.5164
vn -0.6134 0.7207 -0.3229
vn -0.2090 0.7285 -0.6523
vn -0.2915 0.9011 -0.3209
vn 0.0409 0.9618 -0.2707
vn -0.2090 0.7285 0.6523
vn 0.1679 0.8035 0.5711
vn 0.3772 0.6062 0.7002
vn 0.3632 0.7602 0.5387
vn 0.3509 0.8440 0.4057
vn 0.6783 0.5165 0.5225
vn 0.7927 0.5502 0.2623
vn 0.9626 -0.0337 0.2686
vn 0.9958 -0.0911 0.0110
vn 0.1191 0.8718 -0.4751
vn 0.7918 -0.0208 -0.6104
vn 0.5004 -0.8464 -0.1822
vn 0.3374 -0.9399 0.0527
vn 0.3883 -0.8379 -0.3836
vn 0.2045 -0.8776 -0.4336
vn 0.2917 -0.1169 -0.9493
vn 0.3211 -0.9326 0.1647
vn 0.4745 -0.8781 0.0607
vn -0.1528 -0.8336 -0.5308
vn 0.0083 -0.9227 -0.3854
vn 0.0649 -0.9791 -0.1924
vn -0.2030 -0.9792 0.0000
vn -0.4603 -0.7892 0.4065
vn -0.1318 -0.8876 0.4413
vn 0.4745 -0.8781 -0.0607
vn 0.6945 -0.2477 -0.6755
vn 0.8485 -0.1700 -0.5011
vn 0.5680 0.5929 -0.5707
vn 0.2724 0.9299 -0.2470
vn 0.2840 -0.2870 0.9148
vn 0.2080 -0.1635 0.9644
vn 0.1134 -0.6185 0.7775
vn 0.0596 -0.8121 0.5804
vn -0.1454 -0.8825 0.4473
vn -0.1788 -0.9404 0.2891
vn -0.1712 -0.8669 0.4680
vn -0.2863 -0.8754 0.3893
vn -0.3546 -0.7946 0.4927
vn -0.5706 -0.7831 0.2472
vn 0.9767 -0.2143 -0.0006
vn 0.7353 -0.6311 -0.2470
vn 0.6315 -0.5922 -0.5005
vn 0.4112 -0.8246 -0.3883
vn 0.5220 -0.4707 -0.7113
vn 0.4230 -0.6856 -0.5924
vn 0.3432 -0.4161 -0.8420
vn 0.4548 -0.5764 -0.6789
vn -0.6608 -0.7429 0.1066
vn -0.6575 -0.7526 -0.0362
vn -0.5292 -0.7433 0.4091
vn -0.3643 -0.6280 0.6877
vn -0.0901 -0.5824 0.8079
vn 0.0007 -0.2532 0.9674
vn 0.1940 -0.2682 0.9436
vn 0.1832 -0.0537 0.9816
vn 0.2805 -0.1372 0.9500
vn 0.5831 0.8109 0.0480
vn 0.0424 0.9923 0.1160
vn 0.0619 0.9861 -0.1544
vn 0.0256 0.9771 0.2110
vn 0.4567 0.8463 0.2740
vn -0.0191 0.9680 0.2501
vn -0.1257 0.9380 0.3232
vn -0.1303 0.9575 0.2571
vn -0.0436 0.9725 0.2288
vn -0.0470 0.9877 0.1487
vn 0.9471 0.1746 -0.2690
vn 0.9872 0.1596 0.0000
vn 0.9598 -0.2805 0.0000
vn 0.9471 0.1746 0.2690
vn 0.9162 -0.2959 0.2702
vn 0.9880 -0.1316 0.0805
vn 0.7432 -0.6033 0.2891
vn 0.9134 -0.3286 -0.2404
vn -0.8230 0.0790 -0.5625
vn -0.3195 0.4603 -0.8283
vn 0.1447 0.4306 -0.8908
vn 0.1672 0.8039 -0.5707
vn 0.3774 0.6067 -0.6996
vn 0.4500 0.8101 -0.3757
vn 0.3471 0.7477 -0.5661
vn -0.4416 -0.4722 0.7629
vn -0.1180 -0.8213 0.5581
vn 0.1421 -0.9604 0.2397
vn -0.3566 -0.9319 0.0664
vn -0.1318 -0.8876 -0.4413
vn 0.2840 -0.2870 -0.9148
vn 0.2805 -0.1372 -0.9500
vn 0.3781 -0.1304 -0.9165
vn 0.1940 -0.2682 -0.9436
vn 0.1134 -0.6185 -0.7775
vn 0.0286 -0.6457 -0.7630
vn -0.1454 -0.8825 -0.4473
vn -0.1712 -0.8669 -0.4680
vn -0.1788 -0.9404 -0.2891
vn -0.2863 -0.8754 -0.3893
vn 0.3872 0.3159 -0.8661
vn 0.3438 -0.0105 -0.9390
vn 0.1703 -0.2806 -0.9445
vn 0.1644 -0.3258 -0.9310
vn -0.0081 -0.3527 -0.9357
vn 0.2338 -0.5521 -0.8003
vn 0.2701 -0.5696 -0.7762
vn 0.3970 -0.5616 -0.7259
vn 0.5143 -0.6184 -0.5942
vn -0.5528 0.8168 -0.1650
vn -0.5528 0.8168 0.1650
vn -0.3476 0.9083 0.2325
vn -0.7901 0.4178 0.4486
vn -0.3512 0.6636 0.6605
vn 0.3778 -0.9156 -0.1373
vn 0.4315 -0.8895 0.1504
vn 0.4613 -0.8818 0.0980
vn 0.3218 -0.9117 -0.2554
vn 0.3496 -0.8334 -0.4280
vn 0.1282 -0.9076 -0.3997
vn 0.2045 -0.9789 0.0000
vn 0.1282 -0.9076 0.3997
vn 0.8513 -0.5245 0.0086
vn 0.6373 -0.7105 0.2984
vn 0.6527 -0.5712 0.4976
vn 0.8287 -0.5447 -0.1281
vn 0.6827 -0.0896 -0.7252
vn 0.4009 0.4164 -0.8160
vn -0.3263 0.8283 -0.4554
vn -0.5121 0.5410 0.6671
vn -0.0985 0.3767 0.9211
vn 0.6417 -0.0617 0.7644
vn 0.0136 0.5616 0.8273
vn 0.6827 -0.0896 0.7252
vn 0.4009 0.4164 0.8160
vn 0.8287 -0.5447 0.1281
vn 0.1100 0.2020 -0.9732
vn -0.4042 0.1476 -0.9027
vn 0.0446 0.0842 -0.9954
vn -0.0028 -0.0273 -0.9996
vn 0.1841 0.0548 -0.9814
vn 0.1590 0.0290 -0.9868
vn 0.2002 0.0048 -0.9797
vn 0.3749 0.0675 -0.9246
vn 0.2067 0.1974 -0.9583
vn 0.2478 0.2322 -0.9405
vn 0.3000 0.1805 -0.9367
vn 0.2318 0.1354 -0.9633
vn 0.2254 0.0967 -0.9694
vn 0.3923 0.4898 -0.7785
vn -0.9316 -0.3635 0.0000
vn -0.9129 -0.4080 -0.0133
vn -0.9379 -0.3198 -0.1345
vn -0.8623 -0.2588 -0.4352
vn -0.5415 -0.1413 -0.8287
vn -0.0016 -0.8833 0.4688
vn -0.2926 -0.9164 0.2730
vn -0.3334 -0.9131 0.2344
vn -0.3235 -0.9462 0.0000
vn -0.2663 -0.9639 0.0000
vn -0.3334 -0.9131 -0.2344
vn 0.1832 -0.0537 -0.9816
vn 0.0007 -0.2532 -0.9674
vn -0.0901 -0.5824 -0.8079
vn -0.3643 -0.6280 -0.6877
vn -0.3546 -0.7946 -0.4927
vn -0.5292 -0.7433 -0.4091
vn -0.5706 -0.7831 -0.2472
vn 0.3983 -0.8996 0.1788
vn 0.2045 -0.9495 -0.2380
vn 0.1179 -0.9662 -0.2292
vn 0.1040 -0.9857 -0.1328
vn 0.3754 -0.9225 0.0898
vn -0.0079 -0.0329 0.9994
vn 0.0388 0.0866 0.9955
vn 0.1693 0.0210 0.9853
vn 0.1936 0.0486 0.9799
vn 0.8318 0.0154 0.5549
vn 0.5214 0.4712 0.7114
vn 0.3506 0.5053 0.7884
vn 0.6128 -0.7537 0.2374
vn 0.7416 -0.6709 0.0000
vn 0.7153 -0.6475 0.2628
vn 0.6217 -0.7832 0.0000
vn 0.5265 -0.8502 0.0000
vn 0.6128 -0.7537 -0.2374
vn 0.5113 -0.8278 -0.2309
vn 0.4920 -0.8012 -0.3405
vn 0.9681 -0.1744 0.1797
vn 0.9618 -0.2415 -0.1289
vn 0.6639 0.7463 0.0469
vn 0.3096 -0.4208 -0.8526
vn 0.0596 -0.8121 -0.5804
vn -0.0016 -0.8833 -0.4688
vn 0.4456 0.0220 0.8949
vn 0.2044 0.1981 0.9586
vn 0.3422 -0.0129 0.9395
vn 0.3698 0.2893 0.8829
vn 0.6373 0.0406 0.7696
vn -0.2006 0.9684 -0.1483
vn -0.1484 0.9508 -0.2718
vn -0.1268 0.9873 -0.0959
vn -0.0802 0.9823 -0.1693
vn 0.9618 -0.2415 0.1289
vn 0.9681 -0.1744 -0.1797
vn 0.6751 0.2089 -0.7075
vn 0.3321 0.9084 -0.2539
vn -0.0620 0.9244 -0.3764
vn 0.2080 -0.1635 -0.9644
vn -0.6803 0.1798 -0.7105
vn -0.6064 0.3262 -0.7252
vn 0.0286 -0.6457 0.7630
vn 0.9162 -0.2959 -0.2702
vn 0.9876 -0.1332 -0.0829
vn 0.7422 -0.6035 -0.2914
vn 0.9125 -0.3341 0.2358
vn 0.6814 0.6677 -0.2998
vn 0.3496 -0.8334 0.4280
vn 0.0115 0.9928 0.1194
vn 0.3442 -0.9388 0.0052
vn 0.3724 -0.9281 0.0000
vn 0.2724 0.9299 0.2470
vn -0.7895 -0.6137 0.0000
vn -0.4603 -0.7892 -0.4065
vn 0.4274 -0.9040 0.0000
vn 0.3781 -0.1304 0.9165
vn -0.0558 0.7525 -0.6561
vn -0.1614 -0.9376 -0.3081
vn 0.7153 -0.6475 -0.2628
vn 0.5914 -0.7333 -0.3355
vn -0.2926 -0.9164 -0.2730
vn -0.1422 0.9242 -0.3544
vn 0.8513 -0.5245 -0.0086
vn 0.6372 -0.7105 -0.2984
vn 0.6527 -0.5712 -0.4976
vn -0.0625 0.7484 0.6603
vn 0.9628 -0.0515 -0.2653
vn 0.3757 0.9267 0.0000
vn -0.3263 0.8283 0.4554
vn -0.3633 0.7439 0.5609
vn 0.5113 -0.8278 0.2309
vn 0.4920 -0.8012 0.3405
vn 0.5914 -0.7333 0.3355
vn -0.0703 0.9614 -0.2658
vn 0.3890 0.1198 -0.9134
vn 0.4334 0.1424 -0.8899
vn 0.4304 0.0889 -0.8982
vn -0.0620 0.9244 0.3764
vn -0.0218 0.9847 -0.1726
vn 0.8980 0.3114 -0.3107
vn 0.9003 0.2846 -0.3294
vn 0.4387 -0.0768 -0.8953
vn 0.5991 -0.1765 -0.7810
vn -0.2628 -0.7486 0.6088
vn 0.8988 0.3097 0.3101
vn 0.8310 0.0043 -0.5563
vn -0.2628 -0.7486 -0.6088
vn 0.2280 0.1724 -0.9583
vn 0.1139 0.2261 -0.9674
vn 0.5143 -0.6184 0.5942
vn 0.8022 -0.1874 -0.5669
vn 0.9347 -0.2101 -0.2865
vn -0.1614 -0.9376 0.3081
vn -0.6608 -0.7429 -0.1066
vn -0.6575 -0.7526 0.0362
vn 0.6639 0.7463 -0.0469
vn -0.4147 -0.5624 -0.7153
vn -0.4147 -0.5624 0.7153
vn 0.9291 -0.2948 0.2231
vn 0.9303 -0.2880 -0.2271
vn 0.9012 0.2819 0.3293
usemtl m0
s 1
f 439/1/1 2/2/2 436/3/3
f 2/2/2 439/1/1 457/4/4
f 455/5/5 457/4/4 439/1/1
f 457/4/4 455/5/5 25/6/6
f 37/7/7 25/6/6 455/5/5
f 25/6/6 37/7/7 27/8/8
f 39/9/9 27/8/8 37/7/7
f 27/8/8 39/9/9 29/10/10
f 41/11/11 29/10/10 39/9/9
f 29/10/10 41/11/11 31/12/12
f 43/13/13 31/12/12 41/11/11
f 31/12/12 43/13/13 35/14/14
f 45/15/15 35/14/14 43/13/13
f 35/14/14 45/15/15 451/16/16
f 50/17/17 451/16/16 45/15/15
f 451/16/16 50/17/17 450/18/18
f 47/19/19 450/18/18 50/17/17
f 450/18/18 47/19/19 456/20/20
f 455/5/5 456/20/20 47/19/19
f 456/20/20 455/5/5 447/21/21
f 443/22/22 447/21/21 455/5/5
f 447/21/21 443/22/22 444/23/23
f 440/24/24 444/23/23 443/22/22
f 444/23/23 440/24/24 441/25/25
f 436/3/3 441/25/25 440/24/24
f 441/25/25 436/3/3 437/26/26
f 434/27/27 437/26/26 436/3/3
f 437/26/26 434/27/27 435/28/28
f 449/29/29 435/28/28 434/27/27
f 435/28/28 449/29/29 454/30/30
f 16/31/31 454/30/30 449/29/29
f 454/30/30 16/31/31 453/32/32
f 33/33/33 453/32/32 16/31/31
f 453/32/32 33/33/33 452/34/34
f 35/14/14 452/34/34 33/33/33
f 452/34/34 35/14/14 451/16/16
f 332/35/35 253/36/36 264/37/37
f 253/36/36 332/35/35 305/38/38
f 309/39/39 305/38/38 332/35/35
f 305/38/38 309/39/39 307/40/40
f 311/41/41 307/40/40 309/39/39
f 307/40/40 311/41/41 123/42/42
f 328/43/43 123/42/42 311/41/41
f 123/42/42 328/43/43 125/44/44
f 327/45/45 125/44/44 328/43/43
f 125/44/44 327/45/45 117/46/46
f 337/47/47 117/46/46 327/45/45
f 117/46/46 337/47/47 119/48/48
f 338/49/49 119/48/48 337/47/47
f 119/48/48 338/49/49 121/50/50
f 415/51/51 121/50/50 338/49/49
f 121/50/50 415/51/51 196/52/52
f 351/53/53 196/52/52 415/51/51
f 196/52/52 351/53/53 406/54/54
f 407/55/55 406/54/54 351/53/53
f 406/54/54 407/55/55 345/56/56
f 350/57/57 345/56/56 407/55/55
f 345/56/56 350/57/57 369/58/58
f 367/59/59 369/58/58 350/57/57
f 369/58/58 367/59/59 175/60/60
f 170/61/61 180/62/62 182/63/63
f 180/62/62 170/61/61 165/64/64
f 53/65/65 165/64/64 170/61/61
f 165/64/64 53/65/65 297/66/66
f 227/67/67 297/66/66 53/65/65
f 297/66/66 227/67/67 224/68/68
f 222/69/69 224/68/68 227/67/67
f 224/68/68 222/69/69 302/70/70
f 293/71/71 302/70/70 222/69/69
f 302/70/70 293/71/71 280/72/72
f 290/73/73 280/72/72 293/71/71
f 280/72/72 290/73/73 272/74/74
f 262/75/75 272/74/74 290/73/73
f 272/74/74 262/75/75 258/76/76
f 254/77/77 258/76/76 262/75/75
f 258/76/76 254/77/77 256/78/78
f 249/79/79 256/78/78 254/77/77
f 256/78/78 249/79/79 287/80/80
f 244/81/81 287/80/80 249/79/79
f 74/82/82 118/83/83 76/84/84
f 118/83/83 74/82/82 122/85/85
f 126/86/86 122/85/85 74/82/82
f 122/85/85 126/86/86 124/87/87
f 129/88/88 124/87/87 126/86/86
f 124/87/87 129/88/88 132/89/89
f 135/90/90 132/89/89 129/88/88
f 132/89/89 135/90/90 95/91/91
f 137/92/92 95/91/91 135/90/90
f 95/91/91 137/92/92 98/93/93
f 144/94/94 98/93/93 137/92/92
f 98/93/93 144/94/94 146/95/95
f 148/96/96 146/95/95 144/94/94
f 146/95/95 148/96/96 151/97/97
f 159/98/98 151/97/97 148/96/96
f 151/97/97 159/98/98 162/99/99
f 91/100/100 162/99/99 159/98/98
f 162/99/99 91/100/100 116/101/101
f 171/102/102 161/103/103 167/104/104
f 161/103/103 171/102/102 156/105/105
f 174/106/106 156/105/105 171/102/102
f 156/105/105 174/106/106 158/107/107
f 368/108/108 158/107/107 174/106/106
f 158/107/107 368/108/108 366/109/109
f 346/110/110 366/109/109 368/108/108
f 366/109/109 346/110/110 348/111/111
f 410/112/112 348/111/111 346/110/110
f 348/111/111 410/112/112 112/113/113
f 110/114/114 112/113/113 410/112/112
f 112/113/113 110/114/114 411/115/115
f 412/116/116 411/115/115 110/114/114
f 411/115/115 412/116/116 340/117/117
f 211/118/118 270/119/119 273/120/120
f 270/119/119 211/118/118 360/121/121
f 362/122/122 360/121/121 211/118/118
f 360/121/121 362/122/122 285/123/123
f 281/124/124 285/123/123 362/122/122
f 285/123/123 281/124/124 288/125/125
f 232/126/126 288/125/125 281/124/124
f 288/125/125 232/126/126 404/127/127
f 403/128/128 404/127/127 232/126/126
f 404/127/127 403/128/128 15/129/129
f 10/130/130 15/129/129 403/128/128
f 15/129/129 10/130/130 401/131/131
f 12/132/132 401/131/131 10/130/130
f 401/131/131 12/132/132 48/133/133
f 380/134/134 292/135/135 279/136/136
f 292/135/135 380/134/134 388/137/137
f 294/138/138 388/137/137 380/134/134
f 388/137/137 294/138/138 376/139/139
f 316/140/140 376/139/139 294/138/138
f 376/139/139 316/140/140 393/141/141
f 324/142/142 393/141/141 316/140/140
f 393/141/141 324/142/142 323/143/143
f 335/144/144 323/143/143 324/142/142
f 323/143/143 335/144/144 303/145/145
f 332/35/35 303/145/145 335/144/144
f 303/145/145 332/35/35 221/146/146
f 264/37/37 221/146/146 332/35/35
f 213/147/147 211/118/118 277/148/148
f 211/118/118 213/147/147 268/149/149
f 257/150/150 268/149/149 213/147/147
f 268/149/149 257/150/150 427/151/151
f 250/152/152 427/151/151 257/150/150
f 427/151/151 250/152/152 248/153/153
f 234/154/154 248/153/153 250/152/152
f 248/153/153 234/154/154 283/155/155
f 230/156/156 283/155/155 234/154/154
f 283/155/155 230/156/156 232/126/126
f 402/157/157 232/126/126 230/156/156
f 232/126/126 402/157/157 403/128/128
f 10/130/130 403/128/128 402/157/157
f 271/158/158 301/159/159 278/160/160
f 301/159/159 271/158/158 426/161/161
f 425/162/162 426/161/161 271/158/158
f 426/161/161 425/162/162 356/163/163
f 215/164/164 356/163/163 425/162/162
f 356/163/163 215/164/164 355/165/165
f 22/166/166 355/165/165 215/164/164
f 355/165/165 22/166/166 38/167/167
f 20/168/168 38/167/167 22/166/166
f 38/167/167 20/168/168 420/169/169
f 421/170/170 420/169/169 20/168/168
f 420/169/169 421/170/170 399/171/171
f 17/172/172 399/171/171 421/170/170
f 103/173/173 182/63/63 184/174/174
f 182/63/63 103/173/173 170/61/61
f 105/175/175 170/61/61 103/173/173
f 170/61/61 105/175/175 53/65/65
f 58/176/176 53/65/65 105/175/175
f 53/65/65 58/176/176 227/67/67
f 284/177/177 227/67/67 58/176/176
f 227/67/67 284/177/177 222/69/69
f 282/178/178 222/69/69 284/177/177
f 222/69/69 282/178/178 293/71/71
f 238/179/179 293/71/71 282/178/178
f 293/71/71 238/179/179 212/180/180
f 305/38/38 207/181/181 253/36/36
f 207/181/181 305/38/38 104/182/182
f 106/183/183 104/182/182 305/38/38
f 104/182/182 106/183/183 141/184/184
f 143/185/185 141/184/184 106/183/183
f 141/184/184 143/185/185 147/186/186
f 145/187/187 147/186/186 143/185/185
f 147/186/186 145/187/187 334/188/188
f 187/189/189 334/188/188 145/187/187
f 334/188/188 187/189/189 185/190/190
f 125/44/44 185/190/190 187/189/189
f 185/190/190 125/44/44 117/46/46
f 335/144/144 309/39/39 332/35/35
f 309/39/39 335/144/144 336/191/191
f 324/142/142 336/191/191 335/144/144
f 336/191/191 324/142/142 325/192/192
f 326/193/193 325/192/192 324/142/142
f 325/192/192 326/193/193 338/49/49
f 375/194/194 338/49/49 326/193/193
f 338/49/49 375/194/194 339/195/195
f 352/196/196 339/195/195 375/194/194
f 339/195/195 352/196/196 414/197/197
f 413/198/198 414/197/197 352/196/196
f 414/197/197 413/198/198 114/199/199
f 453/32/32 435/28/28 454/30/30
f 435/28/28 453/32/32 4/200/200
f 452/34/34 4/200/200 453/32/32
f 4/200/200 452/34/34 7/201/201
f 451/16/16 7/201/201 452/34/34
f 7/201/201 451/16/16 9/202/202
f 448/203/203 9/202/202 451/16/16
f 9/202/202 448/203/203 446/204/204
f 445/205/205 446/204/204 448/203/203
f 446/204/204 445/205/205 442/206/206
f 441/25/25 442/206/206 445/205/205
f 442/206/206 441/25/25 437/26/26
f 269/207/207 280/72/72 272/74/74
f 280/72/72 269/207/207 300/208/208
f 308/209/209 300/208/208 269/207/207
f 300/208/208 308/209/209 224/68/68
f 306/210/210 224/68/68 308/209/209
f 224/68/68 306/210/210 297/66/66
f 304/211/211 297/66/66 306/210/210
f 297/66/66 304/211/211 165/64/64
f 178/212/212 165/64/64 304/211/211
f 165/64/64 178/212/212 180/62/62
f 186/213/213 180/62/62 178/212/212
f 146/95/95 113/214/214 98/93/93
f 113/214/214 146/95/95 184/174/174
f 173/215/215 184/174/174 146/95/95
f 184/174/174 173/215/215 103/173/173
f 176/216/216 103/173/173 173/215/215
f 103/173/173 176/216/216 101/217/217
f 162/99/99 101/217/217 176/216/216
f 101/217/217 162/99/99 153/218/218
f 116/101/101 153/218/218 162/99/99
f 153/218/218 116/101/101 111/219/219
f 259/220/220 213/147/147 276/221/221
f 213/147/147 259/220/220 257/150/150
f 255/222/222 257/150/150 259/220/220
f 257/150/150 255/222/222 209/223/223
f 261/224/224 209/223/223 255/222/222
f 209/223/223 261/224/224 198/225/225
f 430/226/226 198/225/225 261/224/224
f 198/225/225 430/226/226 202/227/227
f 266/228/228 202/227/227 430/226/226
f 202/227/227 266/228/228 204/229/229
f 15/129/129 18/230/230 404/127/127
f 18/230/230 15/129/129 400/231/231
f 401/131/131 400/231/231 15/129/129
f 400/231/231 401/131/131 44/232/232
f 46/233/233 44/232/232 401/131/131
f 44/232/232 46/233/233 94/234/234
f 92/235/235 94/234/234 46/233/233
f 94/234/234 92/235/235 359/236/236
f 64/237/237 359/236/236 92/235/235
f 204/229/229 252/238/238 206/239/239
f 252/238/238 204/229/229 263/240/240
f 266/228/228 263/240/240 204/229/229
f 263/240/240 266/228/228 220/241/241
f 223/242/242 220/241/241 266/228/228
f 220/241/241 223/242/242 225/243/243
f 228/244/244 225/243/243 223/242/242
f 225/243/243 228/244/244 390/245/245
f 291/246/246 390/245/245 228/244/244
f 102/247/247 90/248/248 86/249/249
f 90/248/248 102/247/247 416/250/250
f 354/251/251 416/250/250 102/247/247
f 416/250/250 354/251/251 417/252/252
f 38/167/167 417/252/252 354/251/251
f 417/252/252 38/167/167 418/253/253
f 419/254/254 418/253/253 38/167/167
f 418/253/253 419/254/254 97/255/255
f 100/256/256 97/255/255 419/254/254
f 356/163/163 301/159/159 426/161/161
f 301/159/159 356/163/163 365/257/257
f 364/258/258 365/257/257 356/163/163
f 365/257/257 364/258/258 128/259/259
f 363/260/260 128/259/259 364/258/258
f 128/259/259 363/260/260 149/261/261
f 382/262/262 149/261/261 363/260/260
f 149/261/261 382/262/262 160/263/263
f 168/264/264 160/263/263 382/262/262
f 147/186/186 331/265/265 141/184/184
f 331/265/265 147/186/186 333/266/266
f 334/188/188 333/266/266 147/186/186
f 333/266/266 334/188/188 179/267/267
f 181/268/268 179/267/267 334/188/188
f 179/267/267 181/268/268 183/269/269
f 344/270/270 183/269/269 181/268/268
f 183/269/269 344/270/270 370/271/271
f 216/272/272 256/78/78 287/80/80
f 256/78/78 216/272/272 258/76/76
f 260/273/273 258/76/76 216/272/272
f 258/76/76 260/273/273 272/74/74
f 267/274/274 272/74/74 260/273/273
f 272/74/74 267/274/274 269/207/207
f 219/275/275 269/207/207 267/274/274
f 269/207/207 219/275/275 236/276/276
f 71/277/277 163/278/278 82/279/279
f 163/278/278 71/277/277 42/280/280
f 73/281/281 42/280/280 71/277/277
f 42/280/280 73/281/281 432/282/282
f 75/283/283 432/282/282 73/281/281
f 432/282/282 75/283/283 431/284/284
f 24/285/285 431/284/284 75/283/283
f 431/284/284 24/285/285 28/286/286
f 406/54/54 121/50/50 196/52/52
f 121/50/50 406/54/54 344/270/270
f 345/56/56 344/270/270 406/54/54
f 344/270/270 345/56/56 370/271/271
f 369/58/58 370/271/271 345/56/56
f 370/271/271 369/58/58 349/287/287
f 175/60/60 349/287/287 369/58/58
f 349/287/287 175/60/60 172/288/288
f 34/289/289 36/290/290 85/291/291
f 36/290/290 34/289/289 79/292/292
f 359/236/236 79/292/292 34/289/289
f 79/292/292 359/236/236 428/293/293
f 64/237/237 428/293/293 359/236/236
f 428/293/293 64/237/237 62/294/294
f 48/133/133 62/294/294 64/237/237
f 62/294/294 48/133/133 52/295/295
f 2/2/2 433/296/296 436/3/3
f 433/296/296 2/2/2 449/29/29
f 11/297/297 449/29/29 2/2/2
f 449/29/29 11/297/297 14/298/298
f 19/299/299 14/298/298 11/297/297
f 14/298/298 19/299/299 21/300/300
f 29/10/10 21/300/300 19/299/299
f 21/300/300 29/10/10 31/12/12
f 299/301/301 321/302/302 295/303/303
f 321/302/302 299/301/301 317/304/304
f 218/305/305 317/304/304 299/301/301
f 317/304/304 218/305/305 313/306/306
f 108/307/307 313/306/306 218/305/305
f 313/306/306 108/307/307 112/113/113
f 152/308/308 112/113/113 108/307/307
f 63/309/309 109/310/310 88/311/311
f 109/310/310 63/309/309 65/312/312
f 68/313/313 65/312/312 63/309/309
f 65/312/312 68/313/313 70/314/314
f 74/82/82 70/314/314 68/313/313
f 70/314/314 74/82/82 72/315/315
f 76/84/84 72/315/315 74/82/82
f 249/79/79 241/316/316 244/81/81
f 241/316/316 249/79/79 247/317/317
f 251/318/318 247/317/317 249/79/79
f 247/317/317 251/318/318 201/319/319
f 195/320/320 201/319/319 251/318/318
f 201/319/319 195/320/320 197/321/321
f 193/322/322 197/321/321 195/320/320
f 177/323/323 333/266/266 179/267/267
f 333/266/266 177/323/323 136/324/324
f 387/325/325 136/324/324 177/323/323
f 136/324/324 387/325/325 134/326/326
f 396/327/327 134/326/326 387/325/325
f 134/326/326 396/327/327 395/328/328
f 164/329/329 395/328/328 396/327/327
f 166/330/330 154/331/331 172/288/288
f 154/331/331 166/330/330 192/332/332
f 377/333/333 192/332/332 166/330/330
f 192/332/332 377/333/333 397/334/334
f 386/335/335 397/334/334 377/333/333
f 397/334/334 386/335/335 396/327/327
f 164/329/329 396/327/327 386/335/335
f 154/331/331 349/287/287 172/288/288
f 349/287/287 154/331/331 194/336/336
f 192/332/332 194/336/336 154/331/331
f 194/336/336 192/332/332 179/267/267
f 397/334/334 179/267/267 192/332/332
f 179/267/267 397/334/334 177/323/323
f 387/325/325 177/323/323 397/334/334
f 104/182/182 1/337/337 207/181/181
f 1/337/337 104/182/182 67/338/338
f 141/184/184 67/338/338 104/182/182
f 67/338/338 141/184/184 139/339/339
f 331/265/265 139/339/339 141/184/184
f 139/339/339 331/265/265 190/340/340
f 131/341/341 190/340/340 331/265/265
f 209/223/223 250/152/152 257/150/150
f 250/152/152 209/223/223 246/342/342
f 330/343/343 246/342/342 209/223/223
f 246/342/342 330/343/343 243/344/344
f 3/345/345 243/344/344 330/343/343
f 243/344/344 3/345/345 5/346/346
f 60/347/347 5/346/346 3/345/345
f 42/280/280 394/348/348 163/278/278
f 394/348/348 42/280/280 133/349/349
f 40/350/350 133/349/349 42/280/280
f 133/349/349 40/350/350 130/351/351
f 77/352/352 130/351/351 40/350/350
f 130/351/351 77/352/352 189/353/353
f 30/354/354 189/353/353 77/352/352
f 317/304/304 319/355/355 321/302/302
f 319/355/355 317/304/304 318/356/356
f 313/306/306 318/356/356 317/304/304
f 318/356/356 313/306/306 371/357/357
f 342/358/358 371/357/357 313/306/306
f 371/357/357 342/358/358 373/359/359
f 340/117/117 373/359/359 342/358/358
f 226/360/360 303/145/145 221/146/146
f 303/145/145 226/360/360 389/361/361
f 391/362/362 389/361/361 226/360/360
f 389/361/361 391/362/362 392/363/363
f 292/135/135 392/363/363 391/362/362
f 392/363/363 292/135/135 388/137/137
f 352/196/196 341/364/364 413/198/198
f 341/364/364 352/196/196 374/365/365
f 375/194/194 374/365/365 352/196/196
f 374/365/365 375/194/194 314/366/366
f 326/193/193 314/366/366 375/194/194
f 314/366/366 326/193/193 324/142/142
f 237/367/367 13/368/368 235/369/369
f 13/368/368 237/367/367 8/370/370
f 6/371/371 8/370/370 237/367/367
f 8/370/370 6/371/371 54/372/372
f 59/373/373 54/372/372 6/371/371
f 54/372/372 59/373/373 56/374/374
f 254/77/77 251/318/318 249/79/79
f 251/318/318 254/77/77 214/375/375
f 262/75/75 214/375/375 254/77/77
f 214/375/375 262/75/75 205/376/376
f 265/377/377 205/376/376 262/75/75
f 77/352/352 28/286/286 30/354/354
f 28/286/286 77/352/352 431/284/284
f 40/350/350 431/284/284 77/352/352
f 431/284/284 40/350/350 432/282/282
f 42/280/280 432/282/282 40/350/350
f 69/378/378 73/281/281 71/277/277
f 73/281/281 69/378/378 32/379/379
f 62/294/294 32/379/379 69/378/378
f 32/379/379 62/294/294 57/380/380
f 52/295/295 57/380/380 62/294/294
f 320/381/381 315/382/382 322/383/383
f 315/382/382 320/381/381 353/384/384
f 372/385/385 353/384/384 320/381/381
f 353/384/384 372/385/385 374/365/365
f 341/364/364 374/365/365 372/385/385
f 215/164/164 20/168/168 22/166/166
f 20/168/168 215/164/164 422/386/386
f 423/387/387 422/386/386 215/164/164
f 422/386/386 423/387/387 405/388/388
f 289/389/389 405/388/388 423/387/387
f 78/390/390 63/309/309 88/311/311
f 63/309/309 78/390/390 93/391/391
f 140/392/392 93/391/391 78/390/390
f 93/391/391 140/392/392 129/88/88
f 135/90/90 129/88/88 140/392/392
f 185/190/190 181/268/268 334/188/188
f 181/268/268 185/190/190 343/393/393
f 117/46/46 343/393/393 185/190/190
f 343/393/393 117/46/46 119/48/48
f 140/392/392 148/96/96 135/90/90
f 148/96/96 140/392/392 159/98/98
f 80/394/394 159/98/98 140/392/392
f 159/98/98 80/394/394 91/100/100
f 36/290/290 71/277/277 84/395/395
f 71/277/277 36/290/290 69/378/378
f 79/292/292 69/378/378 36/290/290
f 69/378/378 79/292/292 428/293/293
f 157/396/396 132/89/89 95/91/91
f 132/89/89 157/396/396 124/87/87
f 120/397/397 124/87/87 157/396/396
f 124/87/87 120/397/397 118/83/83
f 430/226/226 223/242/242 266/228/228
f 223/242/242 430/226/226 429/398/398
f 261/224/224 429/398/398 430/226/226
f 429/398/398 261/224/224 255/222/222
f 217/399/399 365/257/257 128/259/259
f 365/257/257 217/399/399 378/400/400
f 298/401/401 378/400/400 217/399/399
f 378/400/400 298/401/401 296/402/402
f 101/217/217 105/175/175 103/173/173
f 105/175/175 101/217/217 155/403/403
f 153/218/218 155/403/403 101/217/217
f 155/403/403 153/218/218 111/219/219
f 25/6/6 2/2/2 457/4/4
f 2/2/2 25/6/6 19/299/299
f 27/8/8 19/299/299 25/6/6
f 19/299/299 27/8/8 29/10/10
f 156/105/105 150/404/404 161/103/103
f 150/404/404 156/105/105 152/308/308
f 158/107/107 152/308/308 156/105/105
f 152/308/308 158/107/107 366/109/109
f 358/405/405 418/253/253 97/255/255
f 418/253/253 358/405/405 417/252/252
f 90/248/248 417/252/252 358/405/405
f 417/252/252 90/248/248 416/250/250
f 316/140/140 314/366/366 324/142/142
f 314/366/366 316/140/140 315/382/382
f 294/138/138 315/382/382 316/140/140
f 315/382/382 294/138/138 322/383/383
f 408/406/406 410/112/112 346/110/110
f 410/112/112 408/406/406 110/114/114
f 115/407/407 110/114/114 408/406/406
f 110/114/114 115/407/407 412/116/116
f 48/133/133 46/233/233 401/131/131
f 46/233/233 48/133/133 92/235/235
f 64/237/237 92/235/235 48/133/133
f 233/408/408 284/177/177 58/176/176
f 284/177/177 233/408/408 282/178/178
f 238/179/179 282/178/178 233/408/408
f 344/270/270 119/48/48 121/50/50
f 119/48/48 344/270/270 343/393/393
f 181/268/268 343/393/393 344/270/270
f 136/324/324 331/265/265 333/266/266
f 331/265/265 136/324/324 131/341/341
f 134/326/326 131/341/341 136/324/324
f 178/212/212 61/409/409 186/213/213
f 61/409/409 178/212/212 310/410/410
f 304/211/211 310/410/410 178/212/212
f 108/307/307 150/404/404 152/308/308
f 150/404/404 108/307/307 127/411/411
f 218/305/305 127/411/411 108/307/307
f 123/42/42 143/185/185 106/183/183
f 143/185/185 123/42/42 145/187/187
f 187/189/189 145/187/187 123/42/42
f 259/220/220 228/244/244 255/222/222
f 228/244/244 259/220/220 291/246/246
f 274/412/412 291/246/246 259/220/220
f 438/413/413 435/28/28 4/200/200
f 435/28/28 438/413/413 437/26/26
f 442/206/206 437/26/26 438/413/413
f 126/86/86 93/391/391 129/88/88
f 93/391/391 126/86/86 63/309/309
f 68/313/313 63/309/309 126/86/86
f 422/386/386 421/170/170 20/168/168
f 421/170/170 422/386/386 17/172/172
f 405/388/388 17/172/172 422/386/386
f 32/379/379 75/283/283 73/281/281
f 75/283/283 32/379/379 24/285/285
f 26/414/414 24/285/285 32/379/379
f 54/372/372 13/368/368 8/370/370
f 13/368/368 54/372/372 49/415/415
f 51/416/416 49/415/415 54/372/372
f 329/417/417 60/347/347 3/345/345
f 60/347/347 329/417/417 57/380/380
f 32/379/379 57/380/380 329/417/417
f 450/18/18 448/203/203 451/16/16
f 448/203/203 450/18/18 447/21/21
f 456/20/20 447/21/21 450/18/18
f 151/97/97 173/215/215 146/95/95
f 173/215/215 151/97/97 176/216/216
f 162/99/99 176/216/216 151/97/97
f 424/418/418 215/164/164 425/162/162
f 215/164/164 424/418/418 423/387/387
f 289/389/389 423/387/387 424/418/418
f 355/165/165 364/258/258 356/163/163
f 364/258/258 355/165/165 354/251/251
f 38/167/167 354/251/251 355/165/165
f 191/419/419 231/420/420 193/322/322
f 231/420/420 191/419/419 210/421/421
f 205/376/376 210/421/421 191/419/419
f 363/260/260 102/247/247 382/262/262
f 102/247/247 363/260/260 354/251/251
f 364/258/258 354/251/251 363/260/260
f 191/419/419 251/318/318 214/375/375
f 251/318/318 191/419/419 195/320/320
f 193/322/322 195/320/320 191/419/419
f 23/422/422 33/33/33 16/31/31
f 33/33/33 23/422/422 35/14/14
f 31/12/12 35/14/14 23/422/422
f 336/191/191 311/41/41 309/39/39
f 311/41/41 336/191/191 328/43/43
f 327/45/45 328/43/43 336/191/191
f 325/192/192 327/45/45 336/191/191
f 327/45/45 325/192/192 337/47/47
f 338/49/49 337/47/47 325/192/192
f 351/53/53 114/199/199 409/423/423
f 114/199/199 351/53/53 414/197/197
f 415/51/51 414/197/197 351/53/53
f 21/300/300 23/422/422 16/31/31
f 23/422/422 21/300/300 31/12/12
f 155/403/403 58/176/176 105/175/175
f 58/176/176 155/403/403 111/219/219
f 55/424/424 58/176/176 111/219/219
f 58/176/176 55/424/424 233/408/408
f 199/425/425 201/319/319 197/321/321
f 201/319/319 199/425/425 203/426/426
f 219/275/275 260/273/273 216/272/272
f 260/273/273 219/275/275 267/274/274
f 446/204/204 7/201/201 9/202/202
f 7/201/201 446/204/204 442/206/206
f 447/21/21 445/205/205 448/203/203
f 445/205/205 447/21/21 444/23/23
f 37/7/7 47/19/19 39/9/9
f 47/19/19 37/7/7 455/5/5
f 41/11/11 47/19/19 50/17/17
f 47/19/19 41/11/11 39/9/9
f 7/201/201 438/413/413 4/200/200
f 438/413/413 7/201/201 442/206/206
f 43/13/13 50/17/17 45/15/15
f 50/17/17 43/13/13 41/11/11
f 440/24/24 439/1/1 436/3/3
f 439/1/1 440/24/24 443/22/22
f 434/27/27 433/296/296 449/29/29
f 433/296/296 434/27/27 436/3/3
f 237/367/367 242/427/427 6/371/371
f 242/427/427 237/367/367 245/428/428
f 239/429/429 237/367/367 235/369/369
f 237/367/367 239/429/429 245/428/428
f 14/298/298 16/31/31 449/29/29
f 16/31/31 14/298/298 21/300/300
f 286/430/430 424/418/418 425/162/162
f 424/418/418 286/430/430 289/389/389
f 87/431/431 386/335/335 384/432/432
f 386/335/335 87/431/431 164/329/329
f 169/433/433 386/335/335 377/333/333
f 386/335/335 169/433/433 384/432/432
f 183/269/269 194/336/336 179/267/267
f 194/336/336 183/269/269 370/271/271
f 208/434/434 262/75/75 290/73/73
f 262/75/75 208/434/434 265/377/377
f 212/180/180 290/73/73 293/71/71
f 290/73/73 212/180/180 208/434/434
f 241/316/316 201/319/319 203/426/426
f 201/319/319 241/316/316 247/317/317
f 300/208/208 302/70/70 280/72/72
f 302/70/70 300/208/208 224/68/68
f 361/435/435 425/162/162 271/158/158
f 425/162/162 361/435/435 286/430/430
f 348/111/111 152/308/308 366/109/109
f 152/308/308 348/111/111 112/113/113
f 383/436/436 102/247/247 83/437/437
f 102/247/247 383/436/436 382/262/262
f 357/438/438 359/236/236 34/289/289
f 359/236/236 357/438/438 96/439/439
f 180/62/62 107/440/440 182/63/63
f 107/440/440 180/62/62 186/213/213
f 378/400/400 301/159/159 365/257/257
f 301/159/159 378/400/400 379/441/441
f 339/195/195 415/51/51 338/49/49
f 415/51/51 339/195/195 414/197/197
f 283/155/155 281/124/124 362/122/122
f 281/124/124 283/155/155 232/126/126
f 307/40/40 106/183/183 305/38/38
f 106/183/183 307/40/40 123/42/42
f 389/361/361 323/143/143 303/145/145
f 323/143/143 389/361/361 392/363/363
f 429/398/398 228/244/244 223/242/242
f 228/244/244 429/398/398 255/222/222
f 350/57/57 347/442/442 367/59/59
f 347/442/442 350/57/57 407/55/55
f 407/55/55 409/423/423 347/442/442
f 409/423/423 407/55/55 351/53/53
f 248/153/153 362/122/122 427/151/151
f 362/122/122 248/153/153 283/155/155
f 392/363/363 393/141/141 323/143/143
f 393/141/141 392/363/363 388/137/137
f 229/443/443 304/211/211 306/210/210
f 304/211/211 229/443/443 310/410/410
f 268/149/149 362/122/122 211/118/118
f 362/122/122 268/149/149 427/151/151
f 89/444/444 34/289/289 81/445/445
f 34/289/289 89/444/444 357/438/438
f 314/366/366 353/384/384 374/365/365
f 353/384/384 314/366/366 315/382/382
f 112/113/113 342/358/358 313/306/306
f 342/358/358 112/113/113 411/115/115
f 373/359/359 318/356/356 371/357/357
f 318/356/356 373/359/359 319/355/355
f 240/446/446 250/152/152 246/342/342
f 250/152/152 240/446/446 234/154/154
f 96/439/439 94/234/234 359/236/236
f 94/234/234 96/439/439 99/447/447
f 99/447/447 44/232/232 94/234/234
f 44/232/232 99/447/447 398/448/448
f 398/448/448 400/231/231 44/232/232
f 400/231/231 398/448/448 18/230/230
f 420/169/169 419/254/254 38/167/167
f 419/254/254 420/169/169 399/171/171
f 200/449/449 209/223/223 198/225/225
f 209/223/223 200/449/449 330/343/343
f 137/92/92 148/96/96 144/94/94
f 148/96/96 137/92/92 135/90/90
f 138/450/450 30/354/354 66/451/451
f 30/354/354 138/450/450 189/353/353
f 142/452/452 140/392/392 78/390/390
f 140/392/392 142/452/452 80/394/394
f 234/154/154 402/157/157 230/156/156
f 402/157/157 234/154/154 12/132/132
f 312/453/453 229/443/443 308/209/209
f 236/276/276 312/453/453 308/209/209
f 188/454/454 184/174/174 107/440/440
f 441/25/25 445/205/205 444/23/23
f 439/1/1 443/22/22 455/5/5
f 113/214/214 184/174/174 188/454/454
f 308/209/209 229/443/443 306/210/210
f 69/378/378 428/293/293 62/294/294
f 11/297/297 2/2/2 19/299/299
f 184/174/174 182/63/63 107/440/440
f 402/157/157 12/132/132 10/130/130
f 54/372/372 56/374/374 51/416/416
f 296/402/402 381/455/455 378/400/400
f 205/376/376 191/419/419 214/375/375
f 397/334/334 396/327/327 387/325/325
f 168/264/264 382/262/262 385/456/456
f 349/287/287 194/336/336 370/271/271
f 123/42/42 125/44/44 187/189/189
f 269/207/207 236/276/276 308/209/209
f 388/137/137 376/139/139 393/141/141
f 399/171/171 100/256/256 419/254/254
f 329/417/417 26/414/414 32/379/379
f 411/115/115 340/117/117 342/358/358
f 379/441/441 275/457/457 301/159/159
f 124/87/87 118/83/83 122/85/85
f 126/86/86 74/82/82 68/313/313
