<?xml version="1.0"?>
<COLLADA xmlns="http://www.collada.org/2005/11/COLLADASchema" version="1.4.1">
    <asset>
        <contributor>
            <authoring_tool>J3D Ripoff Exporter</authoring_tool>
        </contributor>
        <created>2024-08-19T00:31:38.982Z</created>
        <modified>2024-08-19T00:31:38.982Z</modified>
		<unit meter="0.01" name="centimeter" ></unit>
        <up_axis>Y_UP</up_axis>
    </asset>
    <library_images>
        <image id="tex0">
            <init_from>Heart.png</init_from>
        </image>
        <image id="tex1">
            <init_from>HighLightG.png</init_from>
        </image>
    </library_images>
    <library_effects>
        <effect id="effect0">
            <profile_COMMON>
                <technique sid="COMMON">
                    <blinn>
                        <diffuse>
                            <color>1 1 1 1</color>
                        </diffuse>
                    </blinn>
                </technique>
            </profile_COMMON>
        </effect>
        <effect id="effect1">
            <profile_COMMON>
                <newparam sid="surface1">
                    <surface type="2D">
                        <init_from>tex0</init_from>
                    </surface>
                </newparam>
                <newparam sid="sampler1">
                    <sampler2D>
                        <source>surface1</source>
                    </sampler2D>
                </newparam>
                <technique sid="COMMON">
                    <blinn>
                        <diffuse>
                            <texture texture="sampler1" texcoord="UVSET0"></texture>
                        </diffuse>
                    </blinn>
                </technique>
            </profile_COMMON>
        </effect>
    </library_effects>
    <library_materials>
        <material id="mat0" name="Hole1_v">
            <instance_effect url="#effect0"></instance_effect>
        </material>
        <material id="mat1" name="lambert1_v_x">
            <instance_effect url="#effect1"></instance_effect>
        </material>
    </library_materials>
    <library_geometries>
        <geometry id="mesh0">
            <mesh>
                <source id="points0">
                    <float_array id="pointarray0" count="522">75.22042345445723 -74.90095499157904 422.2790215764087 0.017601151782577134 -104.21345499157906 428.5951266838277 117.70678260442892 -107.74470499157904 463.66760989747695 0.021128366615742553 -201.36970499157906 502.1732515992832 62.88117742761117 -201.36970499157906 516.2327382076154 0.02616189468515265 -306.27595499157906 607.1732514786337 108.91427000553041 -201.36970499157906 554.6680315006972 125.7605367502109 -201.36970499157903 607.167223978578 240.0216381849845 -70.65095499157903 512.802371380041 272.38554332306467 -72.69782999157903 607.3008200160052 273.1307150302482 -36.91657999157902 506.58203417796346 294.1980365566689 -53.72907999157902 607.1591493606334 310.818582015032 31.489670008420983 514.2364774921269 330.2761615152136 15.942795008420985 607.1574198343964 322.0540019086198 106.03654500842099 536.0328139095394 336.93241150756523 94.14592000842099 607.1571007446705 312.02520426700613 171.45842000842097 587.1895447324581 322.06082039165784 106.03654500842099 678.267188746106 296.43502644197207 183.92717000842097 661.7059171856778 281.3758154803737 138.53654500842097 730.3160141784288 225.82985436923585 182.91154500842097 749.3811769827582 185.0975692290345 131.92717000842097 792.9768796719047 112.50262609664212 189.92717000842094 768.0897347260127 137.05142834041925 71.78654500842096 808.291682942824 58.48803108446668 134.56779500842094 789.5766991219416 0.03562372899650919 70.66154500842094 804.5482512518413 0.03176918503144854 179.14592000842094 724.1420013442315 -58.418218781202974 134.56779500842094 789.5823034161403 -59.29750926364721 232.38029500842094 700.082345465047 -112.43487364489495 189.92717000842094 768.1005178614423 -170.2023090007435 227.30217000842092 730.3376620943118 -225.76389511186338 182.91154500842092 749.4028256476781 -238.157766423616 230.42717000842092 681.6846697117636 -296.37747287686074 183.92717000842092 661.7343356462362 -262.5363378036192 228.94279500842092 607.1858382949548 -311.9747950159909 171.45842000842092 587.2194582706992 -255.1961861853976 219.75529500842092 532.1229863338548 -322.0084973513245 106.0365450084209 536.0636892111794 -281.3234924400404 138.53654500842092 484.0148637788566 -310.77516727072987 31.489670008420905 514.266275678683 -257.6378028894821 73.94279500842092 446.2481032822877 -273.0880343421228 -36.91657999157909 506.6082190104412 -215.57593887015466 9.020920008420918 432.980461890155 -239.9783612634747 -70.65095499157908 512.8253817940724 -165.06005026720518 -43.99470499157908 438.4780402474888 -117.668217125115 -107.74470499157907 463.6788933895658 -75.18582637271948 -74.90095499157907 422.28623180575335 -62.837572427932535 -201.36970499157906 516.2387649586342 -108.86697974422951 -201.36970499157906 554.6784715772197 -125.70821296084061 -201.36970499157908 607.1792789786894 -272.33320605102995 -72.69782999157908 607.3269329409391 -294.1457127672987 -53.72907999157909 607.187353596634 -330.22383772584334 15.942795008420903 607.189083122871 -336.880087718195 94.1459200084209 607.1894022125969 -322.00167886828643 106.0365450084209 678.2980640477459 -281.311683873074 138.53654500842092 730.342988495815 -185.02743034567584 131.92717000842092 792.9946228583494 -136.97982134470698 71.78654500842093 808.3048195522407 165.096199353431 -43.994704991579034 438.46221309747295 215.61156063439225 9.02092000842097 432.9597914674462 137.03214438504028 71.78654500842096 406.0260584050446 185.0797533860091 131.92717000842097 421.33625509893596 112.4871966852282 189.92717000842094 446.230360095843 170.25463204107677 227.30217000842097 483.9932158629736 129.5852521297747 259.78654500842094 536.0420405462595 196.6042866688083 266.61467000842094 607.163827845205 114.69803676292214 271.67717000842094 607.1677542967138 129.59207061281273 259.78654500842094 678.276415382826 39.901161848866984 247.91154500842094 607.1713399364264 59.35874060001162 232.38029500842094 700.0766572787138 170.26644060804315 227.30217000842097 730.321340579932 238.21723302900847 230.42717000842097 681.6618330742964 262.5886615929894 228.94279500842097 607.1606646623126 255.24131322808762 219.75529500842097 532.0985167959127 281.3640069134073 138.53654500842097 483.98788946147044 257.6746965184015 73.94279500842097 446.223400044828 32.74455671110688 17.302170008420948 -52.11545763776898 27.062658764730013 15.817795008420948 64.74418987739162 21.22893172433883 33.161545008420944 -52.114905597562554 17.29703377595114 29.255295008420948 64.74465802546355 0.00015879582599468578 34.395920008420944 64.74548720932856 18.61517776759821 31.411545008420948 182.4789699710808 0.005802788981189048 37.052170008420944 182.47986207404665 0.010682863232975917 45.927170008420944 284.2787968935987 -18.603572189635834 31.41154500842094 182.48075417701256 -23.504942109746548 38.583420008420944 284.2799241941559 -29.337947177301572 16.63029500842094 182.48126876537322 -37.4580670937138 19.38029500842094 284.2805930841211 -29.33794717730157 -1.6197049915790593 182.48126876537322 -37.4580670937138 -4.35407999157906 284.2805930841211 -18.603572189635827 -16.38532999157906 182.48075417701256 -23.50494210974654 -23.55720499157906 284.2799241941559 -45.438146357831364 -53.33845499157906 373.8903507390197 -72.76627132643017 -15.729079991579066 373.89166080458415 -72.76627132643017 30.755295008420934 373.89166080458415 -45.43814635783138 68.36467000842094 373.8903507390197 0.01497858994100612 82.72404500842094 373.8881717906337 23.526307836212506 38.583420008420944 284.27766959304154 29.34955275526395 16.630295008420948 182.47845538272014 100.68868804927155 -24.791579991579045 412.1528006578712 72.79622850631222 -15.729079991579045 373.88468277668323 45.46810353771341 -53.33845499157905 373.8859928422477 0.014978589941024545 -67.71345499157906 373.8881717906337 0.010682863232985326 -30.900954991579056 284.2787968935987 0.005802788981196285 -22.041579991579056 182.47986207404665 -17.29671618429914 -14.229079991579058 64.74631639319357 -27.062341173078018 -0.7915799915790591 64.7467845412655 -21.23981822686273 -18.15095499157906 -52.11286971522735 -32.755443213630784 -2.27595499157906 -52.11231767502092 -100.65506171937577 -24.791579991579066 412.16245274755903 -92.95231574090602 37.23967000842093 404.2558334814445 -61.57688807687876 90.50529500842093 413.1762044050674 0.01936812986524107 146.64592000842094 465.4545016414747 61.61061178157347 90.50529500842096 413.17029899802884 83.28601388157142 7.333420008420954 812.6848853738038 165.11269239726434 -43.994704991579034 782.5090877021482 0.03590311976585005 -33.150954991579056 810.3763762451445 118.9552275124236 -116.30720499157904 757.1675503863164 0.03449268325474788 -116.30720499157906 780.9545012789515 62.88989546826589 -201.36970499157906 698.092112998651 0.031194673717621968 -201.36970499157906 712.1576263580021 -62.828854387277815 -201.36970499157906 698.0981397496699 -108.86194696519703 -201.36970499157906 659.6628464565881 -118.88852221428364 -116.30720499157907 757.1789522262379 23.526307836212514 -23.557204991579052 284.27766959304154 18.61517776759822 -16.385329991579052 182.4789699710808 17.297033775951146 -14.229079991579054 64.74465802546355 27.062658764730017 -0.7915799915790525 64.74418987739162 21.228931724338835 -18.150954991579052 -52.114905597562554 32.74455671110688 -2.275954991579052 -52.11545763776898 215.628261910488 9.02092000842097 781.3504160671304 240.03067980958653 -70.65095499157903 701.4117461633207 273.14035738245616 -36.91657999157902 707.7226589468443 37.47943282017976 -4.354079991579051 284.27700070307634 29.349552755263954 -1.6197049915790522 182.47845538272014 -83.21398592711287 7.333420008420934 812.6928671111709 -165.04355722337183 -43.99470499157908 782.5249148521641 -239.9693196388727 -70.65095499157908 701.4347565773521 -136.99910530008594 71.78654500842093 406.0391950144614 -185.04524618870124 131.92717000842092 421.35399828538056 -225.77753132890257 182.91154500842092 464.9497009745271 -273.07839198991485 -36.91657999157909 707.7488437793219 -215.5592375940589 9.020920008420918 781.3710864898391 -310.7662589746987 31.489670008420905 700.0944004651584 -257.6223734780682 73.94279500842092 768.1074779124573 -27.06234117307802 15.81779500842094 64.7467845412655 -17.296716184299147 29.25529500842094 64.74631639319357 -196.55196287943812 266.61467000842094 607.1826751120624 -129.53292908944144 259.78654500842094 678.2888374110258 -39.848838059496806 247.91154500842094 607.175163020841 0.0261618946850889 214.28654500842094 607.1732514786337 0.020553855301822785 179.14592000842094 490.1888766130538 -59.30641755967836 232.38029500842094 514.2542206785715 -58.435708044133385 134.56779500842094 424.7541788353437 -112.45030305630887 189.92717000842094 446.24114323127264 -170.21411756770988 227.30217000842092 484.0095373773534 -129.53974757247948 259.78654500842094 536.0544625744593 -114.64571297355197 271.67717000842094 607.1787486605535 0.019407079784825667 146.86467000842094 466.2670016405411 37.47943282017976 19.380295008420948 284.27700070307634 45.4681035377134 68.36467000842094 373.8859928422477 225.81621815219665 182.91154500842097 464.9280523096072 59.34983230398047 232.38029500842094 514.2485324922384 58.470541821536266 134.56779500842094 424.74857454114493 92.98518404544373 37.23967000842096 404.24691994215493 108.91930278456289 -201.36970499157906 659.6524063800657 -0.005443251261947849 -24.197829991579056 -52.11388765639495 0.00015879582600127016 -19.369704991579056 64.74548720932856 310.8274903110632 31.489670008420983 700.0646022786024 257.6901259298154 73.94279500842097 768.0827746749977 72.79622850631222 30.755295008420955 373.88468277668323 -32.755443213630784 17.30217000842094 -52.11231767502092 -21.239818226862738 33.161545008420944 -52.11286971522735 -0.005443251261955616 39.224045008420944 -52.11388765639495</float_array>
                    <technique_common>
                        <accessor count="174" source="#pointarray0" stride="3">
                            <param name="X" type="float"/>
                            <param name="Y" type="float"/>
                            <param name="Z" type="float"/>
                        </accessor>
                    </technique_common>
                </source>
                <source id="uvs0">
                    <float_array id="uvarray0" count="208">0.35943603515625 0.45684814453125 0.30792236328125 0.47271728515625 0.386474609375 0.55523681640625 0.16339111328125 0.54547119140625 0.25994873046875 0.57904052734375 0.028076171875 0.6993408203125 0.27630615234375 0.64569091796875 0.27716064453125 0.697265625 0.4315185546875 0.60302734375 0.43060302734375 0.69586181640625 0.47601318359375 0.59649658203125 0.45758056640625 0.6954345703125 0.55340576171875 0.60321044921875 0.536376953125 0.69464111328125 0.60986328125 0.61395263671875 0.629638671875 0.6937255859375 0.67791748046875 0.666015625 0.6123046875 0.7586669921875 0.68768310546875 0.74798583984375 0.64337158203125 0.81585693359375 0.70928955078125 0.8123779296875 0.677490234375 0.8580322265625 0.7835693359375 0.85406494140625 0.62835693359375 0.90899658203125 0.77081298828125 0.88958740234375 0.76068115234375 0.9864501953125 0.91143798828125 0.892578125 0.8704833984375 0.8116455078125 0.79052734375 0.8131103515625 0.72796630859375 0.74945068359375 0.73162841796875 0.6876220703125 0.71954345703125 0.61907958984375 0.6805419921875 0.57220458984375 0.6029052734375 0.535888671875 0.52520751953125 0.523681640625 0.4620361328125 0.52972412109375 0.61444091796875 0.4697265625 0.693603515625 0.523193359375 0.77813720703125 0.53033447265625 0.78643798828125 0.5711669921875 0.8260498046875 0.62188720703125 0.78106689453125 0.6934814453125 0.8631591796875 0.69390869140625 0.82843017578125 0.7615966796875 0.91741943359375 0.693359375 0.978515625 0.23077392578125 0.6956787109375 0.23077392578125 0.978515625 0.2884521484375 0.6956787109375 0.2884521484375 0.6956787109375 0.38671875 0.50311279296875 0.2884521484375 0.50311279296875 0.38671875 0.35528564453125 0.38671875 0.35528564453125 0.2884521484375 0.50311279296875 0.23077392578125 0.35528564453125 0.23077392578125 0.50311279296875 0.16900634765625 0.35528564453125 0.16900634765625 0.50311279296875 0.08599853515625 0.35528564453125 0.0859375 0.24322509765625 0.08599853515625 0.24322509765625 0.16900634765625 0.24322509765625 0.23077392578125 0.24322509765625 0.2884521484375 0.24322509765625 0.38671875 0.092529296875 0.16900634765625 0.0791015625 0.08636474609375 0.07073974609375 0.02734375 0.24322509765625 0.02734375 0.35528564453125 0.02734375 0.50311279296875 0.02734375 0.6956787109375 0.08599853515625 0.6956787109375 0.16900634765625 0.978515625 0.08599853515625 0.978515625 0.16900634765625 0.10302734375 0.23077392578125 0.0911865234375 0.2884521484375 0.02178955078125 0.38671875 0.54998779296875 0.9508056640625 0.4677734375 0.8675537109375 0.476318359375 0.98382568359375 0.3638916015625 0.8551025390625 0.32745361328125 0.93402099609375 0.2877197265625 0.80670166015625 0.1796875 0.8675537109375 0.27801513671875 0.74884033203125 0.53961181640625 0.859375 0.43463134765625 0.78826904296875 0.48138427734375 0.78765869140625 0.45172119140625 0.43463134765625 0.733154296875 0.552978515625 0.55645751953125 0.78570556640625 0.60821533203125 0.85198974609375 0.97772216796875 0.69903564453125 0.9266357421875 0.50286865234375 0.86865234375 0.5772705078125 0.7593994140625 0.5018310546875 0.8172607421875 0.45562744140625 0.81689453125 0.45465087890625 0.70770263671875 0.4105224609375 0.55157470703125 0.41510009765625 0.978515625 0.02734375 0.6956787109375 0.02734375 0.978515625 0.38671875</float_array>
                    <technique_common>
                        <accessor count="104" source="#uvarray0" stride="2">
                            <param name="S" type="float"/>
                            <param name="T" type="float"/>
                        </accessor>
                    </technique_common>
                </source>
                <source id="colors0">
                    <float_array id="colorarray0" count="20">1 1 1 1 0.39215686274509803 0.39215686274509803 0.39215686274509803 0 0.39215686274509803 0.39215686274509803 0.39215686274509803 0.5019607843137255 0.39215686274509803 0.39215686274509803 0.39215686274509803 0.8 0.39215686274509803 0.39215686274509803 0.39215686274509803 0.8980392156862745</float_array>
                    <technique_common>
                        <accessor count="5" source="#colorarray0" stride="4">
                            <param name="R" type="float"/>
                            <param name="G" type="float"/>
                            <param name="B" type="float"/>
                            <param name="A" type="float"/>
                        </accessor>
                    </technique_common>
                </source>
                <vertices id="vertices0">
                    <input semantic="POSITION" source="#points0"/>
                </vertices>
                <polylist count="336" material="Material1">
                    <input offset="0" semantic="VERTEX" source="#vertices0"/>
                    <input offset="1" semantic="TEXCOORD" source="#uvs0" set="0"/>
                    <input offset="2" semantic="COLOR" source="#colors0" set="0"/>
                    <vcount>3 3 3 3 3 3 3 3 3 3 3 3 3 3 3 3 3 3 3 3 3 3 3 3 3 3 3 3 3 3 3 3 3 3 3 3 3 3 3 3 3 3 3 3 3 3 3 3 3 3 3 3 3 3 3 3 3 3 3 3 3 3 3 3 3 3 3 3 3 3 3 3 3 3 3 3 3 3 3 3 3 3 3 3 3 3 3 3 3 3 3 3 3 3 3 3 3 3 3 3 3 3 3 3 3 3 3 3 3 3 3 3 3 3 3 3 3 3 3 3 3 3 3 3 3 3 3 3 3 3 3 3 3 3 3 3 3 3 3 3 3 3 3 3 3 3 3 3 3 3 3 3 3 3 3 3 3 3 3 3 3 3 3 3 3 3 3 3 3 3 3 3 3 3 3 3 3 3 3 3 3 3 3 3 3 3 3 3 3 3 3 3 3 3 3 3 3 3 3 3 3 3 3 3 3 3 3 3 3 3 3 3 3 3 3 3 3 3 3 3 3 3 3 3 3 3 3 3 3 3 3 3 3 3 3 3 3 3 3 3 3 3 3 3 3 3 3 3 3 3 3 3 3 3 3 3 3 3 3 3 3 3 3 3 3 3 3 3 3 3 3 3 3 3 3 3 3 3 3 3 3 3 3 3 3 3 3 3 3 3 3 3 3 3 3 3 3 3 3 3 3 3 3 3 3 3 3 3 3 3 3 3 3 3 3 3 3 3 3 3 3 3 3 3 3 3 3 3 3 3 3 3 3 3 3 3</vcount>
                    <p>2 2 0 1 1 0 0 0 0 3 3 0 1 1 0 2 2 0 4 4 0 3 3 0 2 2 0 5 5 0 3 3 0 4 4 0 6 6 0 5 5 0 4 4 0 7 7 0 5 5 0 6 6 0 8 8 0 7 7 0 6 6 0 9 9 0 7 7 0 8 8 0 10 10 0 9 9 0 8 8 0 11 11 0 9 9 0 10 10 0 12 12 0 11 11 0 10 10 0 13 13 0 11 11 0 12 12 0 14 14 0 13 13 0 12 12 0 15 15 0 13 13 0 14 14 0 16 16 0 15 15 0 14 14 0 17 17 0 15 15 0 16 16 0 18 18 0 17 17 0 16 16 0 19 19 0 17 17 0 18 18 0 20 20 0 19 19 0 18 18 0 21 21 0 19 19 0 20 20 0 22 22 0 21 21 0 20 20 0 23 23 0 21 21 0 22 22 0 24 24 0 23 23 0 22 22 0 25 25 0 23 23 0 24 24 0 26 26 0 25 25 0 24 24 0 27 24 0 25 25 0 26 26 0 28 27 0 27 24 0 26 26 0 29 22 0 27 24 0 28 27 0 30 28 0 29 22 0 28 27 0 31 20 0 29 22 0 30 28 0 32 29 0 31 20 0 30 28 0 33 18 0 31 20 0 32 29 0 34 30 0 33 18 0 32 29 0 35 16 0 33 18 0 34 30 0 36 31 0 35 16 0 34 30 0 37 14 0 35 16 0 36 31 0 38 32 0 37 14 0 36 31 0 39 12 0 37 14 0 38 32 0 40 33 0 39 12 0 38 32 0 41 10 0 39 12 0 40 33 0 42 34 0 41 10 0 40 33 0 43 8 0 41 10 0 42 34 0 44 35 0 43 8 0 42 34 0 45 2 0 43 8 0 44 35 0 46 0 0 45 2 0 44 35 0 1 1 0 45 2 0 46 0 0 3 3 0 45 2 0 1 1 0 47 4 0 45 2 0 3 3 0 5 5 0 47 4 0 3 3 0 48 6 0 47 4 0 5 5 0 49 7 0 48 6 0 5 5 0 43 8 0 48 6 0 49 7 0 50 9 0 43 8 0 49 7 0 41 10 0 43 8 0 50 9 0 51 11 0 41 10 0 50 9 0 39 12 0 41 10 0 51 11 0 52 13 0 39 12 0 51 11 0 37 14 0 39 12 0 52 13 0 53 15 0 37 14 0 52 13 0 35 16 0 37 14 0 53 15 0 54 17 0 35 16 0 53 15 0 33 18 0 35 16 0 54 17 0 55 19 0 33 18 0 54 17 0 31 20 0 33 18 0 55 19 0 56 21 0 31 20 0 55 19 0 29 22 0 31 20 0 56 21 0 57 23 0 29 22 0 56 21 0 27 24 0 29 22 0 57 23 0 25 25 0 27 24 0 57 23 0 2 2 0 6 6 0 4 4 0 8 8 0 6 6 0 2 2 0 58 35 0 8 8 0 2 2 0 59 34 0 8 8 0 58 35 0 60 36 0 59 34 0 58 35 0 61 37 0 59 34 0 60 36 0 62 38 0 61 37 0 60 36 0 63 39 0 61 37 0 62 38 0 64 40 0 63 39 0 62 38 0 65 41 0 63 39 0 64 40 0 66 42 0 65 41 0 64 40 0 67 43 0 65 41 0 66 42 0 68 44 0 67 43 0 66 42 0 69 27 0 67 43 0 68 44 0 26 26 0 69 27 0 68 44 0 24 24 0 69 27 0 26 26 0 22 22 0 69 27 0 24 24 0 70 28 0 69 27 0 22 22 0 20 20 0 70 28 0 22 22 0 71 29 0 70 28 0 20 20 0 18 18 0 71 29 0 20 20 0 72 30 0 71 29 0 18 18 0 16 16 0 72 30 0 18 18 0 73 31 0 72 30 0 16 16 0 14 14 0 73 31 0 16 16 0 74 32 0 73 31 0 14 14 0 12 12 0 74 32 0 14 14 0 75 33 0 74 32 0 12 12 0 10 10 0 75 33 0 12 12 0 59 34 0 75 33 0 10 10 0 8 8 0 59 34 0 10 10 0 78 47 1 77 46 2 76 45 1 79 48 2 77 46 2 78 47 1 80 49 2 79 48 2 78 47 1 81 50 3 79 48 2 80 49 2 82 51 3 81 50 3 80 49 2 83 52 4 81 50 3 82 51 3 84 50 3 83 52 4 82 51 3 85 53 4 83 52 4 84 50 3 86 54 3 85 53 4 84 50 3 87 55 4 85 53 4 86 54 3 88 56 3 87 55 4 86 54 3 89 57 4 87 55 4 88 56 3 90 58 3 89 57 4 88 56 3 91 59 4 89 57 4 90 58 3 93 61 0 91 59 4 92 60 0 89 57 4 91 59 4 93 61 0 94 62 0 89 57 4 93 61 0 87 55 4 89 57 4 94 62 0 95 63 0 87 55 4 94 62 0 85 53 4 87 55 4 95 63 0 96 64 0 85 53 4 95 63 0 83 52 4 85 53 4 96 64 0 97 53 4 83 52 4 96 64 0 81 50 3 83 52 4 97 53 4 98 54 3 81 50 3 97 53 4 79 48 2 81 50 3 98 54 3 77 46 2 79 48 2 98 54 3 0 66 0 100 61 0 99 65 0 101 60 0 100 61 0 0 66 0 1 67 0 101 60 0 0 66 0 102 68 0 101 60 0 1 67 0 92 60 0 102 68 0 1 67 0 103 69 4 102 68 0 92 60 0 91 59 4 103 69 4 92 60 0 104 70 3 103 69 4 91 59 4 90 58 3 104 70 3 91 59 4 105 71 2 104 70 3 90 58 3 106 72 2 105 71 2 90 58 3 107 73 1 105 71 2 106 72 2 108 74 1 107 73 1 106 72 2 46 66 0 92 60 0 1 67 0 93 61 0 92 60 0 46 66 0 109 65 0 93 61 0 46 66 0 94 62 0 93 61 0 109 65 0 110 75 0 94 62 0 109 65 0 95 63 0 94 62 0 110 75 0 111 76 0 95 63 0 110 75 0 96 64 0 95 63 0 111 76 0 112 77 0 96 64 0 111 76 0 113 76 0 96 64 0 112 77 0 116 80 0 115 79 0 114 78 0 117 81 0 115 79 0 116 80 0 118 82 0 117 81 0 116 80 0 119 83 0 117 81 0 118 82 0 120 84 0 119 83 0 118 82 0 5 5 0 119 83 0 120 84 0 121 83 0 5 5 0 120 84 0 122 85 0 5 5 0 121 83 0 123 81 0 122 85 0 121 83 0 103 69 4 101 60 0 102 68 0 124 59 4 101 60 0 103 69 4 104 70 3 124 59 4 103 69 4 125 58 3 124 59 4 104 70 3 126 71 2 125 58 3 104 70 3 127 72 2 125 58 3 126 71 2 128 73 1 127 72 2 126 71 2 129 74 1 127 72 2 128 73 1 114 78 0 25 25 0 116 80 0 23 23 0 25 25 0 114 78 0 115 79 0 23 23 0 114 78 0 130 86 0 23 23 0 115 79 0 131 87 0 130 86 0 115 79 0 132 88 0 130 86 0 131 87 0 9 9 0 132 88 0 131 87 0 11 11 0 132 88 0 9 9 0 124 59 4 100 61 0 101 60 0 133 57 4 100 61 0 124 59 4 125 58 3 133 57 4 124 59 4 134 56 3 133 57 4 125 58 3 127 72 2 134 56 3 125 58 3 77 46 2 134 56 3 127 72 2 129 74 1 77 46 2 127 72 2 76 45 1 77 46 2 129 74 1 135 78 0 25 25 0 57 23 0 116 80 0 25 25 0 135 78 0 136 79 0 116 80 0 135 78 0 123 81 0 116 80 0 136 79 0 137 87 0 123 81 0 136 79 0 122 85 0 123 81 0 137 87 0 49 7 0 122 85 0 137 87 0 5 5 0 122 85 0 49 7 0 44 35 0 109 89 0 46 0 0 138 36 0 109 89 0 44 35 0 42 34 0 138 36 0 44 35 0 139 37 0 138 36 0 42 34 0 40 33 0 139 37 0 42 34 0 140 90 0 139 37 0 40 33 0 38 32 0 140 90 0 40 33 0 36 31 0 140 90 0 38 32 0 137 87 0 50 9 0 49 7 0 141 88 0 50 9 0 137 87 0 142 86 0 141 88 0 137 87 0 143 91 0 141 88 0 142 86 0 144 92 0 143 91 0 142 86 0 54 17 0 143 91 0 144 92 0 55 19 0 54 17 0 144 92 0 88 56 3 106 72 2 90 58 3 145 46 2 106 72 2 88 56 3 86 54 3 145 46 2 88 56 3 146 48 2 145 46 2 86 54 3 84 50 3 146 48 2 86 54 3 80 49 2 146 48 2 84 50 3 82 51 3 80 49 2 84 50 3 30 28 0 147 41 0 32 29 0 148 43 0 147 41 0 30 28 0 28 27 0 148 43 0 30 28 0 149 44 0 148 43 0 28 27 0 26 26 0 149 44 0 28 27 0 150 93 0 149 44 0 26 26 0 151 94 0 149 44 0 150 93 0 152 95 0 149 44 0 151 94 0 153 96 0 152 95 0 151 94 0 154 38 0 152 95 0 153 96 0 138 36 0 154 38 0 153 96 0 139 37 0 154 38 0 138 36 0 155 39 0 154 38 0 139 37 0 156 40 0 154 38 0 155 39 0 147 41 0 156 40 0 155 39 0 157 42 0 156 40 0 147 41 0 148 43 0 157 42 0 147 41 0 149 44 0 157 42 0 148 43 0 112 98 0 151 94 0 158 97 0 153 96 0 151 94 0 112 98 0 111 99 0 153 96 0 112 98 0 138 36 0 153 96 0 111 99 0 110 100 0 138 36 0 111 99 0 109 89 0 138 36 0 110 100 0 98 54 3 134 56 3 77 46 2 159 55 4 134 56 3 98 54 3 97 53 4 159 55 4 98 54 3 160 63 0 159 55 4 97 53 4 96 64 0 160 63 0 97 53 4 113 76 0 160 63 0 96 64 0 73 31 0 65 41 0 72 30 0 63 39 0 65 41 0 73 31 0 161 90 0 63 39 0 73 31 0 61 37 0 63 39 0 161 90 0 75 33 0 61 37 0 161 90 0 59 34 0 61 37 0 75 33 0 68 44 0 150 93 0 26 26 0 151 94 0 150 93 0 68 44 0 162 95 0 151 94 0 68 44 0 163 96 0 151 94 0 162 95 0 62 38 0 163 96 0 162 95 0 60 36 0 163 96 0 62 38 0 141 88 0 51 11 0 50 9 0 52 13 0 51 11 0 141 88 0 143 91 0 52 13 0 141 88 0 53 15 0 52 13 0 143 91 0 54 17 0 53 15 0 143 91 0 113 99 0 60 36 0 164 100 0 163 96 0 60 36 0 113 99 0 112 98 0 163 96 0 113 99 0 151 94 0 163 96 0 112 98 0 158 97 0 151 94 0 112 98 0 147 41 0 34 30 0 32 29 0 36 31 0 34 30 0 147 41 0 155 39 0 36 31 0 147 41 0 140 90 0 36 31 0 155 39 0 139 37 0 140 90 0 155 39 0 117 81 0 131 87 0 115 79 0 165 85 0 131 87 0 117 81 0 119 83 0 165 85 0 117 81 0 5 5 0 165 85 0 119 83 0 126 71 2 166 101 1 128 73 1 167 102 2 166 101 1 126 71 2 104 70 3 167 102 2 126 71 2 105 71 2 167 102 2 104 70 3 13 13 0 132 88 0 11 11 0 168 91 0 132 88 0 13 13 0 15 15 0 168 91 0 13 13 0 17 17 0 168 91 0 15 15 0 168 91 0 130 86 0 132 88 0 169 92 0 130 86 0 168 91 0 17 17 0 169 92 0 168 91 0 19 19 0 169 92 0 17 17 0 164 75 0 160 63 0 113 76 0 170 62 0 160 63 0 164 75 0 99 65 0 170 62 0 164 75 0 100 61 0 170 62 0 99 65 0 70 28 0 67 43 0 69 27 0 65 41 0 67 43 0 70 28 0 71 29 0 65 41 0 70 28 0 72 30 0 65 41 0 71 29 0 145 46 2 108 74 1 106 72 2 171 45 1 108 74 1 145 46 2 172 47 1 171 45 1 145 46 2 159 55 4 133 57 4 134 56 3 170 62 0 133 57 4 159 55 4 160 63 0 170 62 0 159 55 4 152 95 0 157 42 0 149 44 0 156 40 0 157 42 0 152 95 0 154 38 0 156 40 0 152 95 0 118 82 0 121 83 0 120 84 0 123 81 0 121 83 0 118 82 0 116 80 0 123 81 0 118 82 0 7 7 0 165 85 0 5 5 0 131 87 0 165 85 0 7 7 0 9 9 0 131 87 0 7 7 0 162 95 0 64 40 0 62 38 0 66 42 0 64 40 0 162 95 0 68 44 0 66 42 0 162 95 0 136 79 0 142 86 0 137 87 0 57 23 0 142 86 0 136 79 0 135 78 0 57 23 0 136 79 0 48 6 0 45 2 0 47 4 0 43 8 0 45 2 0 48 6 0 74 32 0 161 90 0 73 31 0 75 33 0 161 90 0 74 32 0 0 0 0 58 35 0 2 2 0 99 89 0 58 35 0 0 0 0 172 47 1 146 48 2 80 49 2 145 46 2 146 48 2 172 47 1 99 89 0 60 36 0 58 35 0 164 100 0 60 36 0 99 89 0 166 101 1 105 71 2 107 73 1 167 102 2 105 71 2 166 101 1 173 103 1 80 49 2 78 47 1 172 47 1 80 49 2 173 103 1 57 23 0 144 92 0 142 86 0 56 21 0 144 92 0 57 23 0 21 21 0 169 92 0 19 19 0 23 23 0 169 92 0 21 21 0 56 21 0 55 19 0 144 92 0 23 23 0 130 86 0 169 92 0 170 62 0 100 61 0 133 57 4</p>
                </polylist>
            </mesh>
        </geometry>
        <geometry id="mesh1">
            <mesh>
                <source id="points1">
                    <float_array id="pointarray1" count="222">102.65625 54.0625 41.3125 38.09375 65.984375 41.515625 47.765625 82.734375 36.828125 0 94.015625 40.1875 0 113.359375 35.59375 -26.6875 46.21875 31.25 -33.453125 57.953125 27.96875 -65.984375 38.09375 45 -82.734375 47.765625 41.3125 -76.1875 0 47.140625 -95.546875 0 44.5625 -41.875 -22.359375 45 -58.625 -32.03125 41.3125 -38.09375 -65.984375 41.515625 -47.765625 -82.734375 36.828125 0 -76.1875 40.1875 0 -95.546875 35.59375 26.6875 -46.21875 31.25 33.453125 -57.953125 27.96875 65.984375 -38.09375 45 82.734375 -47.765625 41.3125 54.171875 0 47.140625 73.515625 0 44.5625 85.90625 44.390625 45 -110.328125 0 19.5625 -95.546875 55.15625 15.375 -38.640625 66.921875 9.609375 0 128.140625 10 55.15625 95.546875 10.59375 115.46875 61.453125 15.375 47.765625 82.734375 -13.15625 102.65625 54.0625 -8.671875 0 113.359375 -14.390625 -33.453125 57.953125 -7.046875 -82.734375 47.765625 -8.671875 -95.546875 0 -5.421875 -58.625 -32.03125 -8.671875 -71.421875 -39.421875 15.375 -47.765625 -82.734375 -13.15625 -55.15625 -95.546875 10.59375 0 -95.546875 -14.390625 0 -110.328125 10 33.453125 -57.953125 -7.046875 38.640625 -66.921875 9.609375 82.734375 -47.765625 -8.671875 95.546875 -55.15625 15.375 73.515625 0 -5.421875 88.296875 0 19.5625 67.6875 33.859375 -24.890625 33.140625 0 -23.734375 47.765625 -27.578125 -24.890625 19.3125 -33.453125 -16.71875 0 -55.15625 -27.921875 -27.578125 -47.765625 -26.984375 -23.65625 -11.84375 -24.890625 -55.15625 0 -23.734375 -47.765625 27.578125 -24.890625 -19.3125 33.453125 -16.71875 0 72.984375 -27.921875 27.578125 47.765625 -26.984375 0 0 47.8125 85.90625 44.390625 45 54.171875 0 47.140625 65.984375 -38.09375 45 26.6875 -46.21875 31.25 0 -76.1875 40.1875 -38.09375 -65.984375 41.515625 -41.875 -22.359375 45 -76.1875 0 47.140625 -65.984375 38.09375 45 -26.6875 46.21875 31.25 0 94.015625 40.1875 38.09375 65.984375 41.515625 0 0 -30.421875</float_array>
                    <technique_common>
                        <accessor count="74" source="#pointarray1" stride="3">
                            <param name="X" type="float"/>
                            <param name="Y" type="float"/>
                            <param name="Z" type="float"/>
                        </accessor>
                    </technique_common>
                </source>
                <source id="uvs1">
                    <float_array id="uvarray1" count="2">0 1</float_array>
                    <technique_common>
                        <accessor count="1" source="#uvarray1" stride="2">
                            <param name="S" type="float"/>
                            <param name="T" type="float"/>
                        </accessor>
                    </technique_common>
                </source>
                <source id="colors1">
                    <float_array id="colorarray1" count="8">0.09803921568627451 0.09803921568627451 0.09803921568627451 1 0 0 0 1</float_array>
                    <technique_common>
                        <accessor count="2" source="#colorarray1" stride="4">
                            <param name="R" type="float"/>
                            <param name="G" type="float"/>
                            <param name="B" type="float"/>
                            <param name="A" type="float"/>
                        </accessor>
                    </technique_common>
                </source>
                <vertices id="vertices1">
                    <input semantic="POSITION" source="#points1"/>
                </vertices>
                <polylist count="120" material="Material1">
                    <input offset="0" semantic="VERTEX" source="#vertices1"/>
                    <input offset="1" semantic="TEXCOORD" source="#uvs1" set="0"/>
                    <input offset="2" semantic="COLOR" source="#colors1" set="0"/>
                    <vcount>3 3 3 3 3 3 3 3 3 3 3 3 3 3 3 3 3 3 3 3 3 3 3 3 3 3 3 3 3 3 3 3 3 3 3 3 3 3 3 3 3 3 3 3 3 3 3 3 3 3 3 3 3 3 3 3 3 3 3 3 3 3 3 3 3 3 3 3 3 3 3 3 3 3 3 3 3 3 3 3 3 3 3 3 3 3 3 3 3 3 3 3 3 3 3 3 3 3 3 3 3 3 3 3 3 3 3 3 3 3 3 3 3 3 3 3 3 3 3 3</vcount>
                    <p>2 0 0 1 0 0 0 0 0 3 0 0 1 0 0 2 0 0 4 0 0 3 0 0 2 0 0 5 0 0 3 0 0 4 0 0 6 0 0 5 0 0 4 0 0 7 0 0 5 0 0 6 0 0 8 0 0 7 0 0 6 0 0 9 0 0 7 0 0 8 0 0 10 0 0 9 0 0 8 0 0 11 0 0 9 0 0 10 0 0 12 0 0 11 0 0 10 0 0 13 0 0 11 0 0 12 0 0 14 0 0 13 0 0 12 0 0 15 0 0 13 0 0 14 0 0 16 0 0 15 0 0 14 0 0 17 0 0 15 0 0 16 0 0 18 0 0 17 0 0 16 0 0 19 0 0 17 0 0 18 0 0 20 0 0 19 0 0 18 0 0 21 0 0 19 0 0 20 0 0 22 0 0 21 0 0 20 0 0 23 0 0 21 0 0 22 0 0 0 0 0 23 0 0 22 0 0 1 0 0 23 0 0 0 0 0 10 0 0 25 0 1 24 0 1 8 0 0 25 0 1 10 0 0 8 0 0 26 0 1 25 0 1 6 0 0 26 0 1 8 0 0 6 0 0 27 0 1 26 0 1 4 0 0 27 0 1 6 0 0 4 0 0 28 0 1 27 0 1 2 0 0 28 0 1 4 0 0 2 0 0 29 0 1 28 0 1 0 0 0 29 0 1 2 0 0 28 0 1 31 0 1 30 0 1 29 0 1 31 0 1 28 0 1 27 0 1 30 0 1 32 0 1 28 0 1 30 0 1 27 0 1 26 0 1 32 0 1 33 0 1 27 0 1 32 0 1 26 0 1 25 0 1 33 0 1 34 0 1 26 0 1 33 0 1 25 0 1 24 0 1 34 0 1 35 0 1 25 0 1 34 0 1 24 0 1 37 0 1 35 0 1 36 0 1 24 0 1 35 0 1 37 0 1 39 0 1 36 0 1 38 0 1 37 0 1 36 0 1 39 0 1 41 0 1 38 0 1 40 0 1 39 0 1 38 0 1 41 0 1 43 0 1 40 0 1 42 0 1 41 0 1 40 0 1 43 0 1 45 0 1 42 0 1 44 0 1 43 0 1 42 0 1 45 0 1 47 0 1 44 0 1 46 0 1 45 0 1 44 0 1 47 0 1 29 0 1 46 0 1 31 0 1 47 0 1 46 0 1 29 0 1 31 0 1 49 0 1 48 0 1 46 0 1 49 0 1 31 0 1 46 0 1 50 0 1 49 0 1 44 0 1 50 0 1 46 0 1 44 0 1 51 0 1 50 0 1 42 0 1 51 0 1 44 0 1 42 0 1 52 0 1 51 0 1 40 0 1 52 0 1 42 0 1 40 0 1 53 0 1 52 0 1 38 0 1 53 0 1 40 0 1 38 0 1 54 0 1 53 0 1 36 0 1 54 0 1 38 0 1 36 0 1 55 0 1 54 0 1 35 0 1 55 0 1 36 0 1 35 0 1 56 0 1 55 0 1 34 0 1 56 0 1 35 0 1 34 0 1 57 0 1 56 0 1 33 0 1 57 0 1 34 0 1 33 0 1 58 0 1 57 0 1 32 0 1 58 0 1 33 0 1 32 0 1 59 0 1 58 0 1 30 0 1 59 0 1 32 0 1 30 0 1 48 0 1 59 0 1 31 0 1 48 0 1 30 0 1 12 0 0 24 0 1 37 0 1 10 0 0 24 0 1 12 0 0 14 0 0 37 0 1 39 0 1 12 0 0 37 0 1 14 0 0 16 0 0 39 0 1 41 0 1 14 0 0 39 0 1 16 0 0 18 0 0 41 0 1 43 0 1 16 0 0 41 0 1 18 0 0 20 0 0 43 0 1 45 0 1 18 0 0 43 0 1 20 0 0 22 0 0 45 0 1 47 0 1 20 0 0 45 0 1 22 0 0 0 0 0 47 0 1 29 0 1 22 0 0 47 0 1 0 0 0 62 0 1 61 0 1 60 0 1 63 0 1 62 0 1 60 0 1 64 0 1 63 0 1 60 0 1 65 0 1 64 0 1 60 0 1 66 0 1 65 0 1 60 0 1 67 0 1 66 0 1 60 0 1 68 0 1 67 0 1 60 0 1 69 0 1 68 0 1 60 0 1 70 0 1 69 0 1 60 0 1 71 0 1 70 0 1 60 0 1 72 0 1 71 0 1 60 0 1 61 0 1 72 0 1 60 0 1 59 0 1 48 0 1 73 0 1 58 0 1 59 0 1 73 0 1 57 0 1 58 0 1 73 0 1 56 0 1 57 0 1 73 0 1 55 0 1 56 0 1 73 0 1 54 0 1 55 0 1 73 0 1 53 0 1 54 0 1 73 0 1 52 0 1 53 0 1 73 0 1 51 0 1 52 0 1 73 0 1 50 0 1 51 0 1 73 0 1 49 0 1 50 0 1 73 0 1 48 0 1 49 0 1 73 0 1</p>
                </polylist>
            </mesh>
        </geometry>
    </library_geometries>
    <library_controllers>
        <controller id="controller0">
            <skin source="#mesh0">
                <bind_shape_matrix>1 0 0 0 0 1 0 0 0 0 1 0 0 0 0 1</bind_shape_matrix>
                <source id="joints0">
                    <Name_array id="JointArr0" count="6">jointnode-1 jointnode0 jointnode1 jointnode2 jointnode3 jointnode4</Name_array>
                    <technique_common>
                        <accessor source="#JointArr0" count="6">
                            <param name="JOINT" type="Name" />
                        </accessor>
                    </technique_common>
                </source>
                <source id="matrices0">
                    <float_array id="MatArr0" count="96">1 0 0 0 0 1 0 0 0 0 1 0 0 0 0 1 1 0 0 0 0 1 0 0 0 0 1 0 0 0 0 1 1 0 0 0 0 1 0 0 0 0 1 -10 0 0 0 1 0.00004793836256600237 -3.8225195497779474e-33 0.9999999988509567 -61.432987142545606 1.224646797740181e-16 -1 -5.870756227269684e-21 0.45842000842094427 0.9999999988509567 1.224646799147353e-16 -0.00004793836256600237 0.0029449968145357857 0 0 0 1 0.00004793836256600237 -3.8225195497779474e-33 0.9999999988509567 -249.02879707906905 1.224646797740181e-16 -1 -5.870756227269684e-21 0.45842000842094427 0.9999999988509567 1.224646799147353e-16 -0.00004793836256600237 0.002944996814535786 0 0 0 1 0.00004793836256600237 -3.8225195497779474e-33 0.9999999988509567 -376.57950203512377 1.224646797740181e-16 -1 -5.870756227269684e-21 0.45842000842094427 0.9999999988509567 1.224646799147353e-16 -0.00004793836256600237 0.0029449968145357896 0 0 0 1</float_array>
                    <technique_common>
                        <accessor source="#MatArr0" count="6" stride="16">
                            <param type="float4x4" />
                        </accessor>
                    </technique_common>
                </source>
                <source id="weights0">
                    <float_array id="WeightArr0" count="1">1</float_array>
                    <technique_common>
                        <accessor source="#WeightArr0" count="1">
                            <param type="float" />
                        </accessor>
                    </technique_common>
                </source>
                <joints>
                    <input semantic="JOINT" source="#joints0" />
                    <input semantic="INV_BIND_MATRIX" source="#matrices0" />
                </joints>
                <vertex_weights count="174">
                    <input semantic="JOINT" offset="0" source="#joints0" />
                    <input semantic="WEIGHT" offset="1" source="#weights0" />
                    <vcount>1 1 1 1 1 1 1 1 1 1 1 1 1 1 1 1 1 1 1 1 1 1 1 1 1 1 1 1 1 1 1 1 1 1 1 1 1 1 1 1 1 1 1 1 1 1 1 1 1 1 1 1 1 1 1 1 1 1 1 1 1 1 1 1 1 1 1 1 1 1 1 1 1 1 1 1 1 1 1 1 1 1 1 1 1 1 1 1 1 1 1 1 1 1 1 1 1 1 1 1 1 1 1 1 1 1 1 1 1 1 1 1 1 1 1 1 1 1 1 1 1 1 1 1 1 1 1 1 1 1 1 1 1 1 1 1 1 1 1 1 1 1 1 1 1 1 1 1 1 1 1 1 1 1 1 1 1 1 1 1 1 1 1 1 1 1 1 1 1 1 1 1 1 1</vcount>
                    <v>5 0 5 0 5 0 5 0 5 0 5 0 5 0 5 0 5 0 5 0 5 0 5 0 5 0 5 0 5 0 5 0 5 0 5 0 5 0 5 0 5 0 5 0 5 0 5 0 5 0 5 0 5 0 5 0 5 0 5 0 5 0 5 0 5 0 5 0 5 0 5 0 5 0 5 0 5 0 5 0 5 0 5 0 5 0 5 0 5 0 5 0 5 0 5 0 5 0 5 0 5 0 5 0 5 0 5 0 5 0 5 0 5 0 5 0 5 0 5 0 5 0 5 0 5 0 5 0 5 0 5 0 5 0 5 0 5 0 5 0 5 0 5 0 5 0 5 0 5 0 5 0 3 0 3 0 3 0 3 0 3 0 3 0 3 0 4 0 3 0 4 0 3 0 4 0 3 0 4 0 3 0 4 0 4 0 4 0 4 0 4 0 4 0 4 0 3 0 5 0 4 0 4 0 4 0 4 0 3 0 3 0 3 0 3 0 3 0 5 0 5 0 5 0 5 0 5 0 5 0 5 0 5 0 5 0 5 0 5 0 5 0 5 0 5 0 5 0 4 0 3 0 3 0 3 0 3 0 3 0 5 0 5 0 5 0 4 0 3 0 5 0 5 0 5 0 5 0 5 0 5 0 5 0 5 0 5 0 5 0 3 0 3 0 5 0 5 0 5 0 5 0 5 0 5 0 5 0 5 0 5 0 5 0 5 0 5 0 4 0 4 0 5 0 5 0 5 0 5 0 5 0 3 0 3 0 5 0 5 0 4 0 3 0 3 0 3 0</v>
                </vertex_weights>
            </skin>
        </controller>
        <controller id="controller1">
            <skin source="#mesh1">
                <bind_shape_matrix>1 0 0 0 0 1 0 0 0 0 1 0 0 0 0 1</bind_shape_matrix>
                <source id="joints1">
                    <Name_array id="JointArr1" count="6">jointnode-1 jointnode0 jointnode1 jointnode2 jointnode3 jointnode4</Name_array>
                    <technique_common>
                        <accessor source="#JointArr1" count="6">
                            <param name="JOINT" type="Name" />
                        </accessor>
                    </technique_common>
                </source>
                <source id="matrices1">
                    <float_array id="MatArr1" count="96">1 0 0 0 0 1 0 0 0 0 1 0 0 0 0 1 1 0 0 0 0 1 0 0 0 0 1 0 0 0 0 1 1 0 0 0 0 1 0 0 0 0 1 -10 0 0 0 1 0.00004793836256600237 -3.8225195497779474e-33 0.9999999988509567 -61.432987142545606 1.224646797740181e-16 -1 -5.870756227269684e-21 0.45842000842094427 0.9999999988509567 1.224646799147353e-16 -0.00004793836256600237 0.0029449968145357857 0 0 0 1 0.00004793836256600237 -3.8225195497779474e-33 0.9999999988509567 -249.02879707906905 1.224646797740181e-16 -1 -5.870756227269684e-21 0.45842000842094427 0.9999999988509567 1.224646799147353e-16 -0.00004793836256600237 0.002944996814535786 0 0 0 1 0.00004793836256600237 -3.8225195497779474e-33 0.9999999988509567 -376.57950203512377 1.224646797740181e-16 -1 -5.870756227269684e-21 0.45842000842094427 0.9999999988509567 1.224646799147353e-16 -0.00004793836256600237 0.0029449968145357896 0 0 0 1</float_array>
                    <technique_common>
                        <accessor source="#MatArr1" count="6" stride="16">
                            <param type="float4x4" />
                        </accessor>
                    </technique_common>
                </source>
                <source id="weights1">
                    <float_array id="WeightArr1" count="1">1</float_array>
                    <technique_common>
                        <accessor source="#WeightArr1" count="1">
                            <param type="float" />
                        </accessor>
                    </technique_common>
                </source>
                <joints>
                    <input semantic="JOINT" source="#joints1" />
                    <input semantic="INV_BIND_MATRIX" source="#matrices1" />
                </joints>
                <vertex_weights count="74">
                    <input semantic="JOINT" offset="0" source="#joints1" />
                    <input semantic="WEIGHT" offset="1" source="#weights1" />
                    <vcount>1 1 1 1 1 1 1 1 1 1 1 1 1 1 1 1 1 1 1 1 1 1 1 1 1 1 1 1 1 1 1 1 1 1 1 1 1 1 1 1 1 1 1 1 1 1 1 1 1 1 1 1 1 1 1 1 1 1 1 1 1 1 1 1 1 1 1 1 1 1 1 1 1 1</vcount>
                    <v>2 0 2 0 2 0 2 0 2 0 2 0 2 0 2 0 2 0 2 0 2 0 2 0 2 0 2 0 2 0 2 0 2 0 2 0 2 0 2 0 2 0 2 0 2 0 2 0 2 0 2 0 2 0 2 0 2 0 2 0 2 0 2 0 2 0 2 0 2 0 2 0 2 0 2 0 2 0 2 0 2 0 2 0 2 0 2 0 2 0 2 0 2 0 2 0 2 0 2 0 2 0 2 0 2 0 2 0 2 0 2 0 2 0 2 0 2 0 2 0 2 0 2 0 2 0 2 0 2 0 2 0 2 0 2 0 2 0 2 0 2 0 2 0 2 0 2 0</v>
                </vertex_weights>
            </skin>
        </controller>
    </library_controllers>
    <library_visual_scenes>
        <visual_scene id="VisualSceneNode">
            <node id="node0" name="m0" type="NODE">
                <instance_controller url="#controller0">
                    <skeleton>#jointnode-1</skeleton>
                    <bind_material>
                        <technique_common>
                            <instance_material symbol="Material1" target="#mat1">
                                <bind_vertex_input semantic="UVSET0" input_semantic="TEXCOORD" input_set="0"></bind_vertex_input>
                            </instance_material>
                        </technique_common>
                    </bind_material>
                </instance_controller>
            </node>
            <node id="node1" name="m1" type="NODE">
                <instance_controller url="#controller1">
                    <skeleton>#jointnode-1</skeleton>
                    <bind_material>
                        <technique_common>
                            <instance_material symbol="Material1" target="#mat0">
                                <bind_vertex_input semantic="UVSET0" input_semantic="TEXCOORD" input_set="0"></bind_vertex_input>
                            </instance_material>
                        </technique_common>
                    </bind_material>
                </instance_controller>
            </node>
            <node id="jointnode-1" name="root" sid="jointnode-1" type="JOINT">
                <node id="jointnode0" name="world_root" sid="jointnode0" type="JOINT">
                    <node id="jointnode1" name="Hole" sid="jointnode1" type="JOINT">
                        <translate>0 0 10</translate>
                    </node>
                    <node id="jointnode2" name="Neck1" sid="jointnode2" type="JOINT">
                        <translate>0 0.4584200084209442 61.432987213134766</translate>
                        <rotate>0 1 0 -89.99725333414716</rotate>
                        <rotate>1 0 0 -180</rotate>
                        <node id="jointnode3" name="Neck2" sid="jointnode3" type="JOINT">
                            <translate>187.59580993652344 0 0</translate>
                            <node id="jointnode4" name="Head1" sid="jointnode4" type="JOINT">
                                <translate>127.55070495605469 0 0</translate>
                            </node>
                        </node>
                    </node>
                </node>
            </node>
        </visual_scene>
    </library_visual_scenes>
    <scene>
        <instance_visual_scene url="#VisualSceneNode"></instance_visual_scene>
    </scene>
</COLLADA>
