<?xml version="1.0"?>
<COLLADA xmlns="http://www.collada.org/2005/11/COLLADASchema" version="1.4.1">
    <asset>
        <contributor>
            <authoring_tool>J3D Ripoff Exporter</authoring_tool>
        </contributor>
        <created>2024-08-19T02:26:17.337Z</created>
        <modified>2024-08-19T02:26:17.337Z</modified>
		<unit meter="0.01" name="centimeter" ></unit>
        <up_axis>Y_UP</up_axis>
    </asset>
    <library_images>
        <image id="tex0">
            <init_from>konfu_body.png</init_from>
        </image>
        <image id="tex1">
            <init_from>konfu_eye.png</init_from>
        </image>
    </library_images>
    <library_effects>
        <effect id="effect0">
            <profile_COMMON>
                <newparam sid="surface0">
                    <surface type="2D">
                        <init_from>tex1</init_from>
                    </surface>
                </newparam>
                <newparam sid="sampler0">
                    <sampler2D>
                        <source>surface0</source>
                    </sampler2D>
                </newparam>
                <technique sid="COMMON">
                    <blinn>
                        <diffuse>
                            <texture texture="sampler0" texcoord="UVSET0"></texture>
                        </diffuse>
                    </blinn>
                </technique>
            </profile_COMMON>
        </effect>
        <effect id="effect1">
            <profile_COMMON>
                <newparam sid="surface1">
                    <surface type="2D">
                        <init_from>tex0</init_from>
                    </surface>
                </newparam>
                <newparam sid="sampler1">
                    <sampler2D>
                        <source>surface1</source>
                    </sampler2D>
                </newparam>
                <technique sid="COMMON">
                    <blinn>
                        <diffuse>
                            <texture texture="sampler1" texcoord="UVSET0"></texture>
                        </diffuse>
                    </blinn>
                </technique>
            </profile_COMMON>
        </effect>
        <effect id="effect2">
            <profile_COMMON>
                <newparam sid="surface2">
                    <surface type="2D">
                        <init_from>tex0</init_from>
                    </surface>
                </newparam>
                <newparam sid="sampler2">
                    <sampler2D>
                        <source>surface2</source>
                    </sampler2D>
                </newparam>
                <technique sid="COMMON">
                    <blinn>
                        <diffuse>
                            <texture texture="sampler2" texcoord="UVSET0"></texture>
                        </diffuse>
                    </blinn>
                </technique>
            </profile_COMMON>
        </effect>
    </library_effects>
    <library_materials>
        <material id="mat0" name="Eye">
            <instance_effect url="#effect0"></instance_effect>
        </material>
        <material id="mat1" name="Skin_etc">
            <instance_effect url="#effect1"></instance_effect>
        </material>
        <material id="mat2" name="Skin_spc">
            <instance_effect url="#effect2"></instance_effect>
        </material>
    </library_materials>
    <library_geometries>
        <geometry id="mesh0">
            <mesh>
                <source id="points0">
                    <float_array id="pointarray0" count="150">60.44921875 -58.55859375 -18.25 62.5078125 -56.046875 -18.21484375 59.21484375 -56.55859375 -21.41796875 61.6953125 -54.7265625 -20.3046875 58.46875 -53.15625 -23.1640625 61.203125 -52.48046875 -21.45703125 58.4140625 -49.26171875 -23.0234375 61.16796875 -49.91015625 -21.36328125 59.0625 -45.91796875 -21.02734375 61.59375 -47.70703125 -20.046875 60.24609375 -44.02734375 -17.21875 62.375 -46.45703125 -17.36328125 61.640625 -44.0859375 -13.4765625 63.29296875 -46.49609375 -14.89453125 62.875 -46.0859375 -10.30859375 64.109375 -47.81640625 -12.8046875 63.62109375 -49.4921875 -8.5625 64.6015625 -50.0625 -11.65234375 63.67578125 -53.38671875 -8.703125 64.63671875 -52.6328125 -11.74609375 63.0234375 -56.7265625 -10.69921875 64.2109375 -54.8359375 -13.0625 61.84375 -58.62109375 -14.0078125 63.4296875 -56.0859375 -15.24609375 59.21484375 -56.55859375 21.41796875 62.5078125 -56.046875 18.21484375 60.44921875 -58.55859375 18.25 63.4296875 -56.0859375 15.24609375 61.84375 -58.62109375 14.0078125 64.2109375 -54.8359375 13.0625 63.0234375 -56.7265625 10.69921875 64.63671875 -52.6328125 11.74609375 63.67578125 -53.38671875 8.703125 64.6015625 -50.0625 11.65234375 63.62109375 -49.4921875 8.5625 64.109375 -47.81640625 12.8046875 62.875 -46.0859375 10.30859375 63.29296875 -46.49609375 14.89453125 61.640625 -44.0859375 13.4765625 62.375 -46.45703125 17.36328125 60.24609375 -44.02734375 17.21875 61.59375 -47.70703125 20.046875 59.06640625 -45.91796875 21.02734375 61.16796875 -49.91015625 21.36328125 58.4140625 -49.26171875 23.0234375 61.203125 -52.48046875 21.45703125 58.46875 -53.15625 23.1640625 61.6953125 -54.7265625 20.3046875 63.8828125 -51.24609375 -16.671875 63.8828125 -51.24609375 16.671875</float_array>
                    <technique_common>
                        <accessor count="50" source="#pointarray0" stride="3">
                            <param name="X" type="float"/>
                            <param name="Y" type="float"/>
                            <param name="Z" type="float"/>
                        </accessor>
                    </technique_common>
                </source>
                <source id="uvs0">
                    <float_array id="uvarray0" count="100">-0.37567138671875 0.87078857421875 -0.40753173828125 0.74176025390625 -0.2122802734375 0.76800537109375 -0.2996826171875 0.6739501953125 -0.1221923828125 0.59320068359375 -0.24017333984375 0.55853271484375 -0.12957763671875 0.39312744140625 -0.24505615234375 0.426513671875 -0.232421875 0.22149658203125 -0.31292724609375 0.313232421875 -0.42901611328125 0.12420654296875 -0.45147705078125 0.2490234375 -0.6219482421875 0.12738037109375 -0.57879638671875 0.2510986328125 -0.78533935546875 0.23016357421875 -0.6866455078125 0.3189697265625 -0.87542724609375 0.40496826171875 -0.74609375 0.434326171875 -0.86810302734375 0.60504150390625 -0.7412109375 0.56634521484375 -0.76519775390625 0.77667236328125 -0.67333984375 0.67962646484375 -0.59442138671875 0.87396240234375 -0.5606689453125 0.74383544921875 -0.21099853515625 0.76800537109375 -0.40618896484375 0.74176025390625 -0.3743896484375 0.87078857421875 -0.559326171875 0.74383544921875 -0.5931396484375 0.87396240234375 -0.67205810546875 0.67962646484375 -0.763916015625 0.77667236328125 -0.73992919921875 0.56634521484375 -0.86676025390625 0.60504150390625 -0.74481201171875 0.434326171875 -0.8741455078125 0.40496826171875 -0.68536376953125 0.3189697265625 -0.7840576171875 0.23016357421875 -0.5775146484375 0.2510986328125 -0.62066650390625 0.12738037109375 -0.45013427734375 0.2490234375 -0.42767333984375 0.12420654296875 -0.3116455078125 0.313232421875 -0.23114013671875 0.22149658203125 -0.2437744140625 0.426513671875 -0.12823486328125 0.39312744140625 -0.2388916015625 0.55853271484375 -0.12091064453125 0.59320068359375 -0.29833984375 0.6739501953125 -0.4871826171875 0.49505615234375 -0.48590087890625 0.49505615234375</float_array>
                    <technique_common>
                        <accessor count="50" source="#uvarray0" stride="2">
                            <param name="S" type="float"/>
                            <param name="T" type="float"/>
                        </accessor>
                    </technique_common>
                </source>
                <vertices id="vertices0">
                    <input semantic="POSITION" source="#points0"/>
                </vertices>
                <polylist count="72" material="Material1">
                    <input offset="0" semantic="VERTEX" source="#vertices0"/>
                    <input offset="1" semantic="TEXCOORD" source="#uvs0" set="0"/>
                    <vcount>3 3 3 3 3 3 3 3 3 3 3 3 3 3 3 3 3 3 3 3 3 3 3 3 3 3 3 3 3 3 3 3 3 3 3 3 3 3 3 3 3 3 3 3 3 3 3 3 3 3 3 3 3 3 3 3 3 3 3 3 3 3 3 3 3 3 3 3 3 3 3 3</vcount>
                    <p>2 2 1 1 0 0 3 3 1 1 2 2 4 4 3 3 2 2 5 5 3 3 4 4 6 6 5 5 4 4 7 7 5 5 6 6 8 8 7 7 6 6 9 9 7 7 8 8 10 10 9 9 8 8 11 11 9 9 10 10 12 12 11 11 10 10 13 13 11 11 12 12 14 14 13 13 12 12 15 15 13 13 14 14 16 16 15 15 14 14 17 17 15 15 16 16 18 18 17 17 16 16 19 19 17 17 18 18 20 20 19 19 18 18 21 21 19 19 20 20 22 22 21 21 20 20 23 23 21 21 22 22 0 0 23 23 22 22 1 1 23 23 0 0 26 26 25 25 24 24 27 27 25 25 26 26 28 28 27 27 26 26 29 29 27 27 28 28 30 30 29 29 28 28 31 31 29 29 30 30 32 32 31 31 30 30 33 33 31 31 32 32 34 34 33 33 32 32 35 35 33 33 34 34 36 36 35 35 34 34 37 37 35 35 36 36 38 38 37 37 36 36 39 39 37 37 38 38 40 40 39 39 38 38 41 41 39 39 40 40 42 42 41 41 40 40 43 43 41 41 42 42 44 44 43 43 42 42 45 45 43 43 44 44 46 46 45 45 44 44 47 47 45 45 46 46 24 24 47 47 46 46 25 25 47 47 24 24 48 48 1 1 3 3 23 23 1 1 48 48 21 21 23 23 48 48 48 48 19 19 21 21 17 17 19 19 48 48 15 15 17 17 48 48 48 48 13 13 15 15 11 11 13 13 48 48 9 9 11 11 48 48 48 48 7 7 9 9 5 5 7 7 48 48 3 3 5 5 48 48 49 49 47 47 25 25 45 45 47 47 49 49 43 43 45 45 49 49 27 27 49 49 25 25 29 29 49 49 27 27 31 31 49 49 29 29 33 33 49 49 31 31 35 35 49 49 33 33 37 37 49 49 35 35 39 39 49 49 37 37 41 41 49 49 39 39 41 41 43 43 49 49</p>
                </polylist>
            </mesh>
        </geometry>
        <geometry id="mesh1">
            <mesh>
                <source id="points1">
                    <float_array id="pointarray1" count="123">59.06640625 -45.91796875 21.02734375 60.34765625 -40.109375 20.67578125 60.24609375 -44.02734375 17.21875 62.1640625 -41.6640625 16.1875 61.640625 -44.0859375 13.4765625 63.359375 -43.171875 11.03515625 62.875 -46.0859375 10.30859375 64.4375 -44.1796875 5.05078125 63.62109375 -49.4921875 8.5625 64.69140625 -48.69140625 0 63.67578125 -53.38671875 8.703125 64.9140625 -52.68359375 0 57.39453125 -37.87890625 -25.07421875 55.90234375 -39.74609375 -28.3203125 60.34765625 -40.109375 -20.67578125 54.38671875 -43.08984375 -31.234375 59.06640625 -45.91796875 -21.02734375 53.91015625 -47.02734375 -32.19921875 58.4140625 -49.26171875 -23.0234375 54.62890625 -51.546875 -31.39453125 55.61328125 -55.17578125 -28.13671875 55.61328125 -55.17578125 28.13671875 54.62890625 -51.546875 31.39453125 58.4140625 -49.26171875 23.0234375 53.91015625 -47.02734375 32.19921875 54.38671875 -43.08984375 31.234375 64.58203125 -44.34375 0 64.4375 -44.1796875 -5.05078125 63.62109375 -49.4921875 -8.5625 62.875 -46.0859375 -10.30859375 57.39453125 -37.87890625 25.07421875 55.90234375 -39.74609375 28.3203125 59.21484375 -56.55859375 21.41796875 58.46875 -53.15625 23.1640625 63.67578125 -53.38671875 -8.703125 59.21484375 -56.55859375 -21.41796875 58.46875 -53.15625 -23.1640625 63.359375 -43.171875 -11.03515625 61.640625 -44.0859375 -13.4765625 62.1640625 -41.6640625 -16.1875 60.24609375 -44.02734375 -17.21875</float_array>
                    <technique_common>
                        <accessor count="41" source="#pointarray1" stride="3">
                            <param name="X" type="float"/>
                            <param name="Y" type="float"/>
                            <param name="Z" type="float"/>
                        </accessor>
                    </technique_common>
                </source>
                <source id="uvs1">
                    <float_array id="uvarray1" count="82">0.1414794921875 0.4951171875 0.143310546875 0.4287109375 0.11749267578125 0.47698974609375 0.1109619140625 0.44989013671875 0.0938720703125 0.47760009765625 0.0784912109375 0.46429443359375 0.07391357421875 0.49676513671875 0.04071044921875 0.47393798828125 0.0628662109375 0.529296875 0.00885009765625 0.51715087890625 0.06378173828125 0.56658935546875 0.00885009765625 0.555419921875 0.1668701171875 0.41363525390625 0.18731689453125 0.4315185546875 0.14312744140625 0.4287109375 0.2056884765625 0.4635009765625 0.14129638671875 0.4951171875 0.2117919921875 0.501220703125 0.1588134765625 0.527099609375 0.20672607421875 0.54449462890625 0.18902587890625 0.5740966796875 0.189208984375 0.5740966796875 0.20684814453125 0.54449462890625 0.15899658203125 0.527099609375 0.21197509765625 0.501220703125 0.20587158203125 0.4635009765625 0.00885009765625 0.49859619140625 0.04052734375 0.47393798828125 0.06268310546875 0.529296875 0.07373046875 0.49676513671875 0.16705322265625 0.41363525390625 0.1875 0.4315185546875 0.15899658203125 0.58551025390625 0.16229248046875 0.56439208984375 0.0635986328125 0.56658935546875 0.1588134765625 0.58551025390625 0.162109375 0.56439208984375 0.07830810546875 0.46429443359375 0.09368896484375 0.47760009765625 0.11077880859375 0.44989013671875 0.1173095703125 0.47698974609375</float_array>
                    <technique_common>
                        <accessor count="41" source="#uvarray1" stride="2">
                            <param name="S" type="float"/>
                            <param name="T" type="float"/>
                        </accessor>
                    </technique_common>
                </source>
                <vertices id="vertices1">
                    <input semantic="POSITION" source="#points1"/>
                </vertices>
                <polylist count="40" material="Material1">
                    <input offset="0" semantic="VERTEX" source="#vertices1"/>
                    <input offset="1" semantic="TEXCOORD" source="#uvs1" set="0"/>
                    <vcount>3 3 3 3 3 3 3 3 3 3 3 3 3 3 3 3 3 3 3 3 3 3 3 3 3 3 3 3 3 3 3 3 3 3 3 3 3 3 3 3</vcount>
                    <p>2 2 1 1 0 0 3 3 1 1 2 2 4 4 3 3 2 2 5 5 3 3 4 4 6 6 5 5 4 4 7 7 5 5 6 6 8 8 7 7 6 6 9 9 7 7 8 8 10 10 9 9 8 8 11 11 9 9 10 10 14 14 13 13 12 12 15 15 13 13 14 14 16 16 15 15 14 14 17 17 15 15 16 16 18 18 17 17 16 16 19 19 17 17 18 18 20 20 19 19 18 18 23 23 22 22 21 21 24 24 22 22 23 23 0 0 24 24 23 23 25 25 24 24 0 0 1 1 25 25 0 0 9 9 26 26 7 7 27 27 26 26 9 9 28 28 27 27 9 9 29 29 27 27 28 28 31 31 1 1 30 30 25 25 1 1 31 31 33 33 21 21 32 32 23 23 21 21 33 33 34 34 9 9 11 11 28 28 9 9 34 34 20 20 36 36 35 35 18 18 36 36 20 20 29 29 37 37 27 27 38 38 37 37 29 29 38 38 39 39 37 37 40 40 39 39 38 38 40 40 14 14 39 39 16 16 14 14 40 40</p>
                </polylist>
            </mesh>
        </geometry>
        <geometry id="mesh2">
            <mesh>
                <source id="points2">
                    <float_array id="pointarray2" count="1362">47.31640625 15.66015625 0 38.5234375 10.98828125 0 50.3671875 12.29296875 28.125 32.6484375 5.87890625 0 48.125 5.87890625 36.75 30.58203125 -0.140625 0 47.3359375 -0.140625 39.77734375 32.6484375 -6.16796875 0 48.125 -5.33203125 36.75 38.5234375 -11.27734375 0 50.3671875 -10.00390625 28.125 47.31640625 -14.69140625 0 61.65234375 -13.68359375 15.22265625 57.69140625 -15.890625 0 70.51171875 -13.953125 0 61.65234375 -13.68359375 -15.22265625 78.61328125 -8.8671875 -14.953125 68.3828125 -6.6015625 -26.12890625 75.234375 -6.77734375 -25.52734375 64.47265625 -4.0078125 -34.59375 85.6953125 -9.54296875 0 88.5078125 -11.31640625 0 84.73046875 -9.203125 9.0703125 87.6640625 -10.93359375 8.828125 81.23828125 -8.28125 16.83203125 83.99609375 -10.0625 16.55078125 76.734375 -8.4296875 26.94140625 77.23828125 -12.1953125 27.5390625 67.4375 -10 36.07421875 75.98828125 -15.890625 25.44921875 67.0390625 -13.3515625 35 66.66015625 -18.3515625 32.90625 58.27734375 -14.87109375 39.90625 65.15625 -26.05078125 31.90234375 57.6328125 -22.34375 37.8828125 62.15234375 -33.7890625 28.4296875 53.91796875 -29.61328125 34.0625 55.24609375 -33.26171875 30.67578125 49.36328125 -32.34375 32.53125 21.26171875 25.11328125 0 14.1015625 19.7421875 0 24.09765625 23.625 -20.59765625 11.94921875 15.453125 -14.56640625 28.765625 21.40234375 -34.55859375 10.7578125 8.59765625 -24.80078125 23.40625 9.46484375 -39.11328125 11.03125 -0.37109375 -32.59375 21.59765625 0.14453125 -40.7890625 14.4296875 -9.08984375 -36.41796875 20.99609375 -8.01953125 -41.359375 20.40625 -16.921875 -37.4609375 27.69140625 -16.5859375 -42.34765625 27.69140625 -22.8125 -39.33203125 38.0546875 -16.70703125 -42.9375 39.14453125 -24.94921875 -38.2578125 45.859375 -26.46875 -36.7265625 38.15234375 -27.98046875 -36.8828125 43.5703125 -30.1875 -34.859375 75.234375 -6.77734375 25.52734375 78.61328125 -8.8671875 14.953125 68.3828125 -6.6015625 26.12890625 62.34765625 -5.16015625 32.0625 56.30859375 -1.78515625 37.99609375 56.5546875 0.4609375 40.45703125 53.50390625 4.4609375 41.7578125 52.53515625 9.0390625 41.50390625 53.75390625 11.625 39.94140625 60.6953125 10.21484375 36.9375 36.5546875 8.1953125 -43.95703125 29.58984375 -6.2890625 -44.4609375 38.44921875 1.04296875 -45.39453125 37.94921875 -8.19921875 -44.453125 51.40234375 -5.81640625 -43.45703125 50.65625 -12.2109375 -42.93359375 59.4453125 -10.8359375 -39.765625 58.828125 -14.87109375 -39.90625 66.66015625 -18.3515625 -32.90625 65.15625 -26.05078125 -31.90234375 72.1796875 -29.9609375 -24.55859375 62.15234375 -33.7890625 -28.4296875 66.96875 -36.203125 -23.27734375 57.39453125 -37.87890625 -25.07421875 60.34765625 -40.109375 -20.67578125 62.1640625 -41.6640625 -16.1875 70.95703125 -37.98046875 -17.02734375 77.921875 -33.38671875 -15.6328125 81.3046875 -34.58203125 -8.39453125 83.34375 -25.0390625 -15.53125 86.2734375 -26.32421875 -4.1953125 84.046875 -17.56640625 -15.42578125 87.2421875 -19.12890625 0 88.3203125 -14.68359375 -8.58203125 89.0234375 -14.9609375 0 87.6640625 -10.93359375 -8.828125 84.73046875 -9.203125 -9.0703125 50.94921875 -62.828125 -30.7890625 55.98046875 -60.8359375 -30.4921875 45.953125 -58.55859375 -36.5 52.35546875 -56.03515625 -35.80078125 43.43359375 -53.12109375 -39.96484375 50.7109375 -52.80078125 -38.23046875 42.40234375 -48.05078125 -41.25390625 49.58984375 -48.53125 -39.78515625 42.93359375 -42.28515625 -40.75390625 49.91796875 -44.61328125 -39.4765625 45.13671875 -36.25390625 -38.05859375 51.140625 -40.1953125 -38.15625 49.36328125 -32.34375 -32.53125 53.26953125 -35.75390625 -34.39453125 55.24609375 -33.26171875 -30.67578125 58.55078125 -35.70703125 -28.2265625 14.4296875 -9.08984375 36.41796875 11.03125 -0.37109375 32.59375 21.59765625 0.14453125 40.7890625 23.40625 9.46484375 39.11328125 36.5546875 8.1953125 43.95703125 38.88671875 20.58984375 39.5390625 49.1484375 11.796875 43.77734375 52.72265625 20.74609375 40.234375 56.02734375 12.96875 41.5390625 62.80078125 15.6015625 38.421875 62.609375 11.640625 38.55859375 69.140625 14.88671875 33.578125 69.5859375 10.4921875 33.55859375 76.74609375 9.65234375 25.42578125 74.28125 8.0390625 25.57421875 78.87109375 7.6328125 17.109375 60.44921875 -58.55859375 18.25 61.84375 -58.62109375 14.0078125 61.25 -51.69921875 20.71484375 63.0234375 -56.7265625 10.69921875 63.828125 -50.1015625 12.73828125 63.67578125 -53.38671875 8.703125 64.67578125 -49.26953125 7.15625 64.9140625 -52.68359375 0 65.11328125 -48.6484375 0 64.67578125 -49.26953125 -7.15625 68.453125 -48.609375 0 68.0390625 -49.1015625 -6.3515625 68.9921875 -53.80078125 0 68.2734375 -54.2734375 -6.08984375 65.37890625 -57.5546875 -3.734375 63.765625 -60.47265625 -9.7265625 66.8515625 -5.99609375 35.3046875 58.171875 -2.21875 41.03125 51.4140625 1.37890625 44.01953125 51.3359375 4.80078125 43.1953125 49.44140625 5.12890625 44.23046875 38.44921875 1.04296875 45.39453125 29.58984375 -6.2890625 44.4609375 20.99609375 -8.01953125 41.359375 20.921875 -17.61328125 37.4609375 59.49609375 -6.3984375 -41.36328125 67.0390625 -13.3515625 -35 67.4375 -10 -36.07421875 75.98828125 -15.890625 -25.44921875 77.23828125 -12.1953125 -27.5390625 84.65234375 -13.90234375 -16.26953125 83.99609375 -10.0625 -16.55078125 81.23828125 -8.28125 -16.83203125 72.1796875 -29.9609375 24.55859375 66.96875 -36.203125 23.27734375 77.921875 -33.38671875 15.6328125 70.95703125 -37.98046875 17.02734375 81.3046875 -34.58203125 8.39453125 74.859375 -39.60546875 8.0390625 76.76953125 -39.94921875 0 70.640625 -41.31640625 8.19921875 72.28125 -41.7109375 0 64.58203125 -44.34375 0 70.640625 -41.31640625 -8.19921875 64.4375 -44.1796875 -5.05078125 63.359375 -43.171875 -11.03515625 88.3203125 -14.68359375 8.58203125 84.65234375 -13.90234375 16.26953125 84.046875 -17.56640625 15.42578125 75.46484375 -22.109375 25.00390625 55.98046875 -60.8359375 30.4921875 45.953125 -58.55859375 36.5 52.35546875 -56.03515625 35.80078125 43.43359375 -53.12109375 39.96484375 50.7109375 -52.80078125 38.23046875 42.40234375 -48.05078125 41.25390625 49.58984375 -48.53125 39.78515625 42.93359375 -42.28515625 40.75390625 49.91796875 -44.61328125 39.4765625 45.13671875 -36.25390625 38.05859375 51.140625 -40.1953125 38.15625 53.26953125 -35.75390625 34.39453125 63.2421875 -58.6875 21.24609375 58.08203125 -57.33984375 30.80078125 55.76171875 -52.41015625 34.78515625 54.62890625 -51.546875 31.39453125 54.89453125 -48 36.10546875 53.91015625 -47.02734375 32.19921875 55.37109375 -42.51953125 35.23046875 54.38671875 -43.08984375 31.234375 56.33203125 -38.921875 32.84765625 55.90234375 -39.74609375 28.3203125 57.39453125 -37.87890625 25.07421875 50.3671875 12.29296875 -28.125 58.25390625 16.484375 -16.00390625 67.1015625 10.6640625 -28.125 68.62890625 15.66015625 -9.40625 75.20703125 8.97265625 -17.3828125 68.70703125 15.66015625 0 78.61328125 8.19140625 0 75.20703125 8.97265625 17.3828125 80.984375 7.45703125 8.24609375 72.046875 5.0078125 -25.98046875 71.11328125 -1.109375 -25.8828125 73.296875 2.13671875 -21.125 70.30859375 2.05078125 -18.83203125 73.08203125 0.7734375 -20.015625 71.19140625 0.36328125 -18.46875 79.29296875 -0.09765625 -9.62109375 76.96484375 -0.6171875 -8.44140625 80.88671875 -0.3828125 0 78.48046875 -0.81640625 0 76.96484375 -0.6171875 8.44140625 71.08203125 11.1875 -26.7890625 73.32421875 11.1953125 -21.0859375 78.49609375 11.31640625 -11.32421875 79.9453125 1.375 -10.015625 81.609375 1.1015625 0 79.9453125 1.375 10.015625 79.29296875 -0.09765625 9.62109375 73.296875 2.13671875 21.125 51.40234375 -5.81640625 43.45703125 37.94921875 -8.19921875 44.453125 51.20703125 -12.2109375 42.93359375 38.0546875 -16.70703125 42.9375 49.8671875 -19.40625 40.703125 45.859375 -26.46875 36.7265625 38.88671875 20.58984375 -40.6796875 49.1484375 11.796875 -43.77734375 52.72265625 20.74609375 -40.234375 56.02734375 12.96875 -41.5390625 62.80078125 15.6015625 -38.421875 62.609375 11.640625 -38.55859375 69.140625 14.88671875 -33.578125 69.5859375 10.4921875 -33.55859375 76.74609375 9.65234375 -25.42578125 74.28125 8.0390625 -25.57421875 78.87109375 7.6328125 -17.109375 49.44140625 5.12890625 -44.23046875 51.4140625 1.37890625 -44.01953125 51.3359375 4.80078125 -43.1953125 56.5546875 0.4609375 -40.45703125 53.50390625 4.4609375 -41.7578125 58.171875 -2.21875 -41.03125 66.8515625 -5.99609375 -35.3046875 76.734375 -8.4296875 -26.94140625 61.1171875 20.8671875 37.71875 67.125 20.703125 32.6171875 76.0078125 14.4296875 26.828125 81.43359375 9.2421875 17.47265625 74.859375 -39.60546875 -8.0390625 82.37890625 -35.4921875 0 86.2734375 -26.32421875 4.1953125 83.34375 -25.0390625 15.53125 86.8125 -26.77734375 0 49.80859375 1.765625 -26.80859375 48.8671875 1.84375 -33.859375 58.1015625 1.8125 -25.12109375 59.05078125 1.6171875 -30.7734375 68.55078125 0.76953125 -25.48828125 59.1875 -0.1640625 -31.94140625 69.171875 -1.33203125 -26.53515625 59.0703125 -9.7265625 -35.2421875 68.40625 -10.30078125 -29.4921875 48.68359375 2.27734375 -26.76171875 55.5703125 2.2265625 -26.9296875 48.56640625 0.94921875 -33.859375 57.984375 1.3671875 -31.93359375 57.92578125 2.7109375 -33.14453125 66.80859375 1.0234375 -26.828125 66.56640625 2.2265625 -28.48046875 63.7265625 1.56640625 -23.5625 48.68359375 2.27734375 26.76171875 48.56640625 0.94921875 33.859375 55.5703125 2.2265625 26.9296875 57.984375 1.3671875 31.93359375 66.80859375 1.0234375 26.828125 57.92578125 2.7109375 33.14453125 66.56640625 2.2265625 28.48046875 57.47265625 11.80859375 34.71484375 65.984375 11.18359375 30.3828125 49.80859375 1.765625 26.80859375 58.1015625 1.8125 25.12109375 48.8671875 1.84375 33.859375 59.05078125 1.6171875 30.7734375 59.1875 -0.1640625 31.94140625 68.55078125 0.76953125 25.48828125 69.171875 -1.33203125 26.53515625 67.37890625 -1.4921875 21.21875 74.046875 3.6640625 19.5390625 59.4453125 -10.8359375 39.765625 59.49609375 -6.3984375 41.36328125 67.125 20.703125 -32.6171875 76.0078125 14.4296875 -26.828125 71.8046875 19.79296875 -25.89453125 80.55859375 14.2578125 -17.83984375 76.88671875 18.0546875 -16.67578125 81.49609375 14.9296875 -10.45703125 61.25 -51.69921875 -20.71484375 55.61328125 -55.17578125 -28.13671875 58.08203125 -57.33984375 -30.80078125 54.62890625 -51.546875 -31.39453125 55.76171875 -52.41015625 -34.78515625 54.89453125 -48 -36.10546875 68.0390625 -49.1015625 6.3515625 66.8828125 -50.26171875 13.1796875 64.20703125 -52.50390625 21.55078125 53.91796875 -29.61328125 -34.0625 49.8671875 -19.40625 -40.703125 57.6328125 -22.34375 -37.8828125 50.3671875 -10.00390625 -28.125 62.34765625 -5.16015625 -32.0625 56.30859375 -1.78515625 -37.99609375 78.49609375 11.31640625 11.32421875 73.32421875 11.1953125 21.0859375 72.046875 5.0078125 25.98046875 71.08203125 11.1875 26.7890625 79.5078125 -0.59765625 0 77.56640625 -0.078125 -8.44140625 81.94921875 -0.734375 0 79.94140625 -0.30859375 -9.62109375 80.76953125 -1.69140625 -10.015625 76.53125 -0.83203125 -19.0234375 80.54296875 -10.8984375 -11.31640625 76.80859375 -10.65625 -20.5234375 73.3046875 -1.09765625 16.5234375 76.53125 -0.83203125 19.0234375 76.078125 0.484375 17.8984375 79.94140625 -0.30859375 9.62109375 73.9609375 0.65625 16.1796875 77.56640625 -0.078125 8.44140625 75.09375 -3.83984375 -24.0546875 74.046875 3.6640625 -19.5390625 67.37890625 -1.4921875 -21.21875 67.265625 0.8671875 -21.39453125 63.7265625 1.56640625 23.5625 71.11328125 -1.109375 25.8828125 70.30859375 2.05078125 18.83203125 73.08203125 0.7734375 20.015625 71.19140625 0.36328125 18.46875 80.54296875 -10.8984375 11.31640625 80.76953125 -1.69140625 10.015625 71.8046875 19.79296875 25.89453125 80.55859375 14.2578125 17.83984375 83.94140625 8.921875 8.01953125 27.69140625 -16.5859375 42.34765625 27.69140625 -22.8125 39.33203125 67.60546875 8.9765625 32.171875 67.1015625 10.6640625 28.125 44.44140625 -30.1875 34.859375 38.15234375 -27.98046875 36.8828125 39.14453125 -24.94921875 38.2578125 32.45703125 -25.19921875 38.69140625 63.765625 -60.47265625 9.7265625 59.7109375 -63.3671875 17.33203125 55.85546875 -63.9296875 23.73828125 50.94921875 -62.828125 30.7890625 59.21484375 -56.55859375 21.41796875 55.61328125 -55.17578125 28.13671875 67.60546875 8.9765625 -32.171875 60.6953125 10.21484375 -36.9375 53.75390625 11.625 -39.94140625 52.53515625 9.0390625 -41.50390625 60.34765625 -40.109375 20.67578125 62.1640625 -41.6640625 16.1875 66.2578125 -41.2578125 13.859375 55.85546875 -63.9296875 -23.73828125 63.2421875 -58.6875 -21.24609375 64.20703125 -52.50390625 -21.55078125 66.2578125 -41.2578125 -13.859375 75.46484375 -22.109375 -25.00390625 81.30859375 16.890625 3.671875 84.70703125 12.02734375 0 84.42578125 12.125 7.25390625 84.4375 8.76171875 0 81.54296875 7.46484375 0 83.94140625 8.921875 -8.01953125 81.43359375 9.2421875 -17.47265625 48.3125 2.2578125 35.1484375 47.1875 11.87109375 38.15625 73.8828125 -10.44921875 -26.20703125 73.3046875 -1.09765625 -16.5234375 66.8828125 -50.26171875 -13.1796875 67.04296875 -55.734375 -12.1796875 65.1875 0.73828125 -24.5703125 65.82421875 -56.83203125 0 68.2734375 -54.2734375 6.08984375 73.9609375 0.65625 -16.1796875 76.078125 0.484375 -17.8984375 65.37890625 -57.5546875 3.734375 67.04296875 -55.734375 12.1796875 48.77734375 0.51171875 -35.1484375 48.6953125 -9.171875 -38.8671875 81.91796875 -9.84765625 0 58.25390625 16.484375 16.00390625 58.25390625 17.68359375 0 75.09375 -3.83984375 24.0546875 76.80859375 -10.65625 20.5234375 59.0703125 -9.7265625 35.2421875 68.40625 -10.30078125 29.4921875 73.8828125 -10.44921875 26.20703125 48.125 -5.33203125 -36.75 47.3359375 -0.140625 -39.77734375 48.125 5.87890625 -36.75 48.77734375 0.51171875 35.1484375 63.359375 -43.171875 11.03515625 64.4375 -44.1796875 5.05078125 68.62890625 15.66015625 9.40625 53.91015625 -47.02734375 -32.19921875 55.37109375 -42.51953125 -35.23046875 54.38671875 -43.08984375 -31.234375 56.33203125 -38.921875 -32.84765625 64.47265625 -4.0078125 34.59375 80.984375 7.45703125 -8.24609375 67.265625 0.8671875 21.39453125 63.67578125 -53.38671875 -8.703125 63.828125 -50.1015625 -12.73828125 84.42578125 12.125 -7.25390625 58.55078125 -35.70703125 28.2265625 63.0234375 -56.7265625 -10.69921875 59.21484375 -56.55859375 -21.41796875 60.44921875 -58.55859375 -18.25 61.84375 -58.62109375 -14.0078125 65.1875 0.73828125 24.5703125 65.984375 11.18359375 -30.3828125 47.1875 11.87109375 -38.15625 47.4453125 10.76953125 -32.4921875 48.3125 2.2578125 -35.1484375 82.8515625 -2.12109375 0 49.0390625 -9.875 34.26953125 48.6953125 -9.171875 38.8671875 60.7421875 20.9296875 -36.8671875 24.09765625 23.625 20.59765625 28.765625 21.40234375 30.93359375 11.94921875 15.453125 14.56640625 10.7578125 8.59765625 24.80078125 57.47265625 11.80859375 -34.71484375 55.90234375 -39.74609375 -28.3203125 80.14453125 11.49609375 0 32.45703125 -25.19921875 -38.69140625 82.6015625 -10.8359375 0 47.4453125 10.76953125 32.4921875 81.49609375 14.9296875 10.45703125 76.88671875 18.0546875 16.67578125 49.0390625 -9.875 -34.26953125 59.7109375 -63.3671875 -17.33203125 81.30859375 16.890625 -3.671875</float_array>
                    <technique_common>
                        <accessor count="454" source="#pointarray2" stride="3">
                            <param name="X" type="float"/>
                            <param name="Y" type="float"/>
                            <param name="Z" type="float"/>
                        </accessor>
                    </technique_common>
                </source>
                <source id="uvs2">
                    <float_array id="uvarray2" count="848">0.2357177734375 0.53875732421875 0.2471923828125 0.56427001953125 0.26263427734375 0.5299072265625 0.25482177734375 0.58135986328125 0.2750244140625 0.53643798828125 0.25750732421875 0.58734130859375 0.27935791015625 0.5386962890625 0.24407958984375 0.4971923828125 0.22216796875 0.5086669921875 0.22216796875 0.471435546875 0.24420166015625 0.4971923828125 0.24383544921875 0.44793701171875 0.2598876953125 0.4776611328125 0.259033203125 0.457763671875 0.27203369140625 0.48895263671875 0.00848388671875 0.132568359375 0.00848388671875 0.14434814453125 0.02667236328125 0.13232421875 0.02490234375 0.14385986328125 0.043701171875 0.13134765625 0.040771484375 0.1431884765625 0.06475830078125 0.1402587890625 0.06488037109375 0.165283203125 0.08837890625 0.1556396484375 0.063720703125 0.1873779296875 0.08978271484375 0.17791748046875 0.08709716796875 0.24169921875 0.10595703125 0.21856689453125 0.0888671875 0.3175048828125 0.1063232421875 0.29290771484375 0.0916748046875 0.368896484375 0.11236572265625 0.34112548828125 0.1083984375 0.3653564453125 0.12188720703125 0.35931396484375 0.2332763671875 0.0078125 0.2332763671875 0.04345703125 0.18505859375 0.00714111328125 0.20703125 0.06146240234375 0.16021728515625 0.00689697265625 0.19287109375 0.08740234375 0.16351318359375 0.0816650390625 0.183349609375 0.14697265625 0.164306640625 0.1435546875 0.175048828125 0.20489501953125 0.16455078125 0.19775390625 0.16864013671875 0.25689697265625 0.155517578125 0.254638671875 0.15771484375 0.2960205078125 0.14019775390625 0.2554931640625 0.14056396484375 0.3101806640625 0.1287841796875 0.32025146484375 0.14300537109375 0.330322265625 0.1337890625 0.344970703125 0.24639892578125 0.4403076171875 0.25885009765625 0.457763671875 0.24365234375 0.44793701171875 0.259765625 0.4776611328125 0.26824951171875 0.49517822265625 0.27679443359375 0.5126953125 0.28033447265625 0.511962890625 0.28216552734375 0.52081298828125 0.2821044921875 0.52362060546875 0.2799072265625 0.5135498046875 0.27740478515625 0.49884033203125 0.14202880859375 0.08172607421875 0.151611328125 0.186279296875 0.13861083984375 0.09710693359375 0.13970947265625 0.1890869140625 0.1175537109375 0.1361083984375 0.11968994140625 0.200927734375 0.1041259765625 0.16119384765625 0.106201171875 0.21856689453125 0.0872802734375 0.24169921875 0.089111328125 0.3175048828125 0.06829833984375 0.343505859375 0.09185791015625 0.368896484375 0.07574462890625 0.38494873046875 0.1002197265625 0.39605712890625 0.0875244140625 0.410888671875 0.07464599609375 0.42120361328125 0.05731201171875 0.396728515625 0.05047607421875 0.3662109375 0.03277587890625 0.36102294921875 0.039794921875 0.28607177734375 0.01690673828125 0.29461669921875 0.0390625 0.1929931640625 0.00848388671875 0.1943359375 0.0244140625 0.16876220703125 0.00848388671875 0.1685791015625 0.025146484375 0.14385986328125 0.02691650390625 0.13232421875 0.10467529296875 0.70281982421875 0.09515380859375 0.69781494140625 0.1195068359375 0.68280029296875 0.11474609375 0.66619873046875 0.13226318359375 0.64703369140625 0.12371826171875 0.6448974609375 0.13702392578125 0.6136474609375 0.12945556640625 0.6168212890625 0.13519287109375 0.57568359375 0.1282958984375 0.59100341796875 0.125244140625 0.5360107421875 0.12347412109375 0.56195068359375 0.1048583984375 0.51025390625 0.10955810546875 0.53265380859375 0.0958251953125 0.51629638671875 0.0889892578125 0.5323486328125 0.1748046875 0.20489501953125 0.18310546875 0.14697265625 0.16412353515625 0.1435546875 0.16326904296875 0.0816650390625 0.14178466796875 0.08172607421875 0.1396484375 0.00775146484375 0.1219482421875 0.057861328125 0.11572265625 0.0067138671875 0.11029052734375 0.050048828125 0.09759521484375 0.0408935546875 0.09796142578125 0.06463623046875 0.08355712890625 0.04779052734375 0.08282470703125 0.0703125 0.06268310546875 0.07373046875 0.06634521484375 0.082763671875 0.046630859375 0.08551025390625 0.0711669921875 0.6258544921875 0.05645751953125 0.61749267578125 0.06976318359375 0.63043212890625 0.048828125 0.61431884765625 0.04931640625 0.61944580078125 0.0313720703125 0.61102294921875 0.03143310546875 0.6156005859375 0.00518798828125 0.60797119140625 0.00506591796875 0.61151123046875 0.0313720703125 0.6156005859375 0.00506591796875 0.6156005859375 0.0308837890625 0.61920166015625 0.00396728515625 0.65911865234375 0.02593994140625 0.66265869140625 0.01397705078125 0.68402099609375 0.03143310546875 0.69073486328125 0.0887451171875 0.1290283203125 0.10650634765625 0.1187744140625 0.10906982421875 0.10101318359375 0.1173095703125 0.09490966796875 0.11834716796875 0.07958984375 0.1214599609375 0.077392578125 0.138427734375 0.09710693359375 0.1513671875 0.186279296875 0.164306640625 0.19775390625 0.16778564453125 0.261474609375 0.10467529296875 0.1317138671875 0.09002685546875 0.17791748046875 0.088623046875 0.1556396484375 0.06396484375 0.1873779296875 0.06512451171875 0.165283203125 0.0400390625 0.16864013671875 0.041015625 0.1431884765625 0.0439453125 0.13134765625 0.068115234375 0.343505859375 0.07550048828125 0.38494873046875 0.05023193359375 0.3662109375 0.05706787109375 0.396728515625 0.03253173828125 0.36102294921875 0.0318603515625 0.41168212890625 0.0101318359375 0.4097900390625 0.03204345703125 0.4215087890625 0.00848388671875 0.41888427734375 0.00848388671875 0.447998046875 0.03228759765625 0.4215087890625 0.02001953125 0.4468994140625 0.04095458984375 0.44415283203125 0.02423095703125 0.16876220703125 0.039794921875 0.16864013671875 0.038818359375 0.1929931640625 0.0638427734375 0.26666259765625 0.09527587890625 0.69781494140625 0.11962890625 0.68280029296875 0.1148681640625 0.66619873046875 0.13238525390625 0.64703369140625 0.12384033203125 0.6448974609375 0.13714599609375 0.6136474609375 0.12957763671875 0.6168212890625 0.13531494140625 0.57568359375 0.12841796875 0.59100341796875 0.1253662109375 0.5360107421875 0.12353515625 0.56195068359375 0.10498046875 0.51025390625 0.10968017578125 0.53265380859375 0.066650390625 0.67608642578125 0.0941162109375 0.65850830078125 0.11328125 0.642333984375 0.10076904296875 0.63665771484375 0.1181640625 0.61328125 0.103759765625 0.60687255859375 0.11492919921875 0.57720947265625 0.10015869140625 0.58099365234375 0.10614013671875 0.55352783203125 0.08941650390625 0.5589599609375 0.07745361328125 0.54669189453125 0.247314453125 0.56427001953125 0.23583984375 0.53875732421875 0.26275634765625 0.5299072265625 0.245361328125 0.50701904296875 0.26275634765625 0.48138427734375 0.23583984375 0.4769287109375 0.247314453125 0.45782470703125 0.22216796875 0.4766845703125 0.22216796875 0.44793701171875 0.2471923828125 0.45782470703125 0.23406982421875 0.4410400390625 0.357666015625 0.95513916015625 0.35595703125 0.92138671875 0.34423828125 0.93994140625 0.34429931640625 0.93365478515625 0.34417724609375 0.91943359375 0.31817626953125 0.9354248046875 0.31781005859375 0.9215087890625 0.289306640625 0.936767578125 0.28955078125 0.92486572265625 0.36126708984375 0.9898681640625 0.3450927734375 0.98968505859375 0.3189697265625 0.98907470703125 0.31805419921875 0.941650390625 0.28912353515625 0.94287109375 0.1173095703125 0.1361083984375 0.1395263671875 0.1890869140625 0.1195068359375 0.200927734375 0.13995361328125 0.2554931640625 0.12078857421875 0.27337646484375 0.1285400390625 0.32025146484375 0.139892578125 0.00775146484375 0.1221923828125 0.057861328125 0.115966796875 0.0067138671875 0.11053466796875 0.050048828125 0.09783935546875 0.0408935546875 0.09820556640625 0.06463623046875 0.08380126953125 0.04779052734375 0.08306884765625 0.0703125 0.06292724609375 0.07373046875 0.0665283203125 0.082763671875 0.04681396484375 0.08551025390625 0.1217041015625 0.077392578125 0.1175537109375 0.09490966796875 0.11859130859375 0.07958984375 0.10931396484375 0.10101318359375 0.11480712890625 0.08184814453125 0.10675048828125 0.1187744140625 0.0889892578125 0.1290283203125 0.06500244140625 0.1402587890625 0.06512451171875 0.12725830078125 0.10009765625 0.0069580078125 0.08740234375 0.007568359375 0.06561279296875 0.05035400390625 0.044677734375 0.0748291015625 0.02703857421875 0.086669921875 0.03204345703125 0.41168212890625 0.00848388671875 0.3670654296875 0.0167236328125 0.29461669921875 0.03955078125 0.28607177734375 0.00848388671875 0.297607421875 0.42999267578125 0.89923095703125 0.4305419921875 0.92889404296875 0.400146484375 0.9024658203125 0.40155029296875 0.92987060546875 0.37225341796875 0.93145751953125 0.4027099609375 0.93695068359375 0.37225341796875 0.93817138671875 0.4046630859375 0.9786376953125 0.376220703125 0.9791259765625 0.40155029296875 0.93017578125 0.3721923828125 0.9384765625 0.37225341796875 0.93792724609375 0.404541015625 0.98553466796875 0.376220703125 0.986328125 0.1038818359375 0.16119384765625 0.10443115234375 0.1317138671875 0.087646484375 0.007568359375 0.0657958984375 0.05035400390625 0.06976318359375 0.0091552734375 0.04638671875 0.0498046875 0.0478515625 0.01129150390625 0.0321044921875 0.03204345703125 0.0697021484375 0.63043212890625 0.08978271484375 0.64764404296875 0.093994140625 0.65850830078125 0.10064697265625 0.63665771484375 0.1131591796875 0.642333984375 0.1180419921875 0.61328125 0.031005859375 0.61920166015625 0.04901123046875 0.6239013671875 0.0687255859375 0.63397216796875 0.12213134765625 0.35931396484375 0.112548828125 0.34112548828125 0.12103271484375 0.27337646484375 0.1065673828125 0.29290771484375 0.2684326171875 0.49517822265625 0.27691650390625 0.5126953125 0.28045654296875 0.511962890625 0.28955078125 0.924560546875 0.289306640625 0.93646240234375 0.31817626953125 0.93511962890625 0.31805419921875 0.94134521484375 0.34423828125 0.93963623046875 0.3189697265625 0.98193359375 0.3450927734375 0.98248291015625 0.357666015625 0.95489501953125 0.37164306640625 0.904541015625 0.069580078125 0.0091552734375 0.046142578125 0.0498046875 0.0250244140625 0.0755615234375 0.1552734375 0.254638671875 0.157470703125 0.2960205078125 0.2698974609375 0.47991943359375 0.26263427734375 0.48138427734375 0.2589111328125 0.46051025390625 0.24676513671875 0.44720458984375 0.1318359375 0.344970703125 0.14276123046875 0.330322265625 0.14031982421875 0.3101806640625 0.1510009765625 0.3118896484375 0.04888916015625 0.70025634765625 0.072509765625 0.70526123046875 0.10479736328125 0.70281982421875 0.0816650390625 0.63861083984375 0.08984375 0.64764404296875 0.25909423828125 0.46051025390625 0.27001953125 0.47991943359375 0.27752685546875 0.49884033203125 0.280029296875 0.5135498046875 0.28228759765625 0.52362060546875 0.0872802734375 0.410888671875 0.07440185546875 0.42120361328125 0.05438232421875 0.424560546875 0.0723876953125 0.70526123046875 0.0665283203125 0.67608642578125 0.068603515625 0.63397216796875 0.05462646484375 0.424560546875 0.06402587890625 0.26666259765625 0.016845703125 0.01904296875 0.00848388671875 0.05126953125 0.02337646484375 0.0506591796875 0.00848388671875 0.07550048828125 0.00848388671875 0.08746337890625 0.0252685546875 0.0755615234375 0.04486083984375 0.0748291015625 0.43072509765625 0.9359130859375 0.43426513671875 0.9857177734375 0.36126708984375 0.982666015625 0.0452880859375 0.6680908203125 0.00360107421875 0.68267822265625 0.02587890625 0.66259765625 0.01397705078125 0.6839599609375 0.04522705078125 0.66790771484375 0.43438720703125 0.97882080078125 0.2352294921875 0.43017578125 0.22216796875 0.4383544921875 0.22216796875 0.42742919921875 0.2353515625 0.43017578125 0.24517822265625 0.50701904296875 0.22216796875 0.50701904296875 0.275146484375 0.53643798828125 0.2550048828125 0.58135986328125 0.27947998046875 0.5386962890625 0.2823486328125 0.52081298828125 0.2576904296875 0.58734130859375 0.44287109375 0.9300537109375 0.04071044921875 0.44415283203125 0.01983642578125 0.4468994140625 0.2357177734375 0.4769287109375 0.1036376953125 0.60687255859375 0.11480712890625 0.57720947265625 0.10009765625 0.58099365234375 0.10601806640625 0.55352783203125 0.06488037109375 0.12725830078125 0.09222412109375 0.1158447265625 0.0272216796875 0.086669921875 0.09246826171875 0.1158447265625 0.085693359375 0.0782470703125 0.10052490234375 0.07037353515625 0.03131103515625 0.61102294921875 0.04925537109375 0.61944580078125 0.04888916015625 0.6239013671875 0.02362060546875 0.0506591796875 0.089111328125 0.5323486328125 0.095947265625 0.51629638671875 0.04876708984375 0.61431884765625 0.11016845703125 0.059326171875 0.1007080078125 0.07037353515625 0.108642578125 0.3653564453125 0.08154296875 0.63861083984375 0.071044921875 0.6258544921875 0.05633544921875 0.61749267578125 0.27191162109375 0.48895263671875 0.24652099609375 0.4403076171875 0.22216796875 0.439453125 0.23419189453125 0.4410400390625 0.447021484375 0.990478515625 0.116455078125 0.076171875 0.28912353515625 0.94256591796875 0.447021484375 0.98358154296875 0.0994873046875 0.381591796875 0.0999755859375 0.39605712890625 0.10028076171875 0.0069580078125 0.2469482421875 0.44720458984375 0.18487548828125 0.00714111328125 0.15997314453125 0.00689697265625 0.206787109375 0.06146240234375 0.192626953125 0.08740234375 0.07733154296875 0.54669189453125 0.08929443359375 0.5589599609375 0.28802490234375 0.98822021484375 0.1512451171875 0.3118896484375 0.28802490234375 0.98101806640625 0.0859375 0.0782470703125 0.0318603515625 0.03204345703125 0.047607421875 0.01129150390625 0.1099853515625 0.059326171875 0.2330322265625 0.0078125 0.2330322265625 0.04345703125 0.0997314453125 0.381591796875 0.0313720703125 0.69073486328125 0.04876708984375 0.70025634765625 0.11456298828125 0.08184814453125 0.1162109375 0.076171875 0.01702880859375 0.01904296875</float_array>
                    <technique_common>
                        <accessor count="424" source="#uvarray2" stride="2">
                            <param name="S" type="float"/>
                            <param name="T" type="float"/>
                        </accessor>
                    </technique_common>
                </source>
                <vertices id="vertices2">
                    <input semantic="POSITION" source="#points2"/>
                </vertices>
                <polylist count="751" material="Material1">
                    <input offset="0" semantic="VERTEX" source="#vertices2"/>
                    <input offset="1" semantic="TEXCOORD" source="#uvs2" set="0"/>
                    <vcount>3 3 3 3 3 3 3 3 3 3 3 3 3 3 3 3 3 3 3 3 3 3 3 3 3 3 3 3 3 3 3 3 3 3 3 3 3 3 3 3 3 3 3 3 3 3 3 3 3 3 3 3 3 3 3 3 3 3 3 3 3 3 3 3 3 3 3 3 3 3 3 3 3 3 3 3 3 3 3 3 3 3 3 3 3 3 3 3 3 3 3 3 3 3 3 3 3 3 3 3 3 3 3 3 3 3 3 3 3 3 3 3 3 3 3 3 3 3 3 3 3 3 3 3 3 3 3 3 3 3 3 3 3 3 3 3 3 3 3 3 3 3 3 3 3 3 3 3 3 3 3 3 3 3 3 3 3 3 3 3 3 3 3 3 3 3 3 3 3 3 3 3 3 3 3 3 3 3 3 3 3 3 3 3 3 3 3 3 3 3 3 3 3 3 3 3 3 3 3 3 3 3 3 3 3 3 3 3 3 3 3 3 3 3 3 3 3 3 3 3 3 3 3 3 3 3 3 3 3 3 3 3 3 3 3 3 3 3 3 3 3 3 3 3 3 3 3 3 3 3 3 3 3 3 3 3 3 3 3 3 3 3 3 3 3 3 3 3 3 3 3 3 3 3 3 3 3 3 3 3 3 3 3 3 3 3 3 3 3 3 3 3 3 3 3 3 3 3 3 3 3 3 3 3 3 3 3 3 3 3 3 3 3 3 3 3 3 3 3 3 3 3 3 3 3 3 3 3 3 3 3 3 3 3 3 3 3 3 3 3 3 3 3 3 3 3 3 3 3 3 3 3 3 3 3 3 3 3 3 3 3 3 3 3 3 3 3 3 3 3 3 3 3 3 3 3 3 3 3 3 3 3 3 3 3 3 3 3 3 3 3 3 3 3 3 3 3 3 3 3 3 3 3 3 3 3 3 3 3 3 3 3 3 3 3 3 3 3 3 3 3 3 3 3 3 3 3 3 3 3 3 3 3 3 3 3 3 3 3 3 3 3 3 3 3 3 3 3 3 3 3 3 3 3 3 3 3 3 3 3 3 3 3 3 3 3 3 3 3 3 3 3 3 3 3 3 3 3 3 3 3 3 3 3 3 3 3 3 3 3 3 3 3 3 3 3 3 3 3 3 3 3 3 3 3 3 3 3 3 3 3 3 3 3 3 3 3 3 3 3 3 3 3 3 3 3 3 3 3 3 3 3 3 3 3 3 3 3 3 3 3 3 3 3 3 3 3 3 3 3 3 3 3 3 3 3 3 3 3 3 3 3 3 3 3 3 3 3 3 3 3 3 3 3 3 3 3 3 3 3 3 3 3 3 3 3 3 3 3 3 3 3 3 3 3 3 3 3 3 3 3 3 3 3 3 3 3 3 3 3 3 3 3 3 3 3 3 3 3 3 3 3 3 3 3 3 3 3 3 3 3 3 3 3 3 3 3 3 3 3 3 3 3 3 3 3 3 3 3 3 3 3 3 3 3 3 3 3 3 3 3 3 3 3 3 3 3 3 3 3 3 3 3 3 3 3 3 3 3 3 3 3 3 3 3 3 3 3 3 3 3 3 3 3 3 3 3 3 3 3 3 3 3 3 3 3 3 3 3 3 3 3 3 3 3 3 3 3 3 3 3 3 3 3 3 3 3 3 3 3 3 3 3 3 3 3 3 3 3 3 3 3 3 3 3 3 3 3 3 3 3</vcount>
                    <p>2 2 1 1 0 0 3 3 1 1 2 2 4 4 3 3 2 2 5 5 3 3 4 4 6 6 5 5 4 4 7 3 5 5 6 6 8 4 7 3 6 6 9 1 7 3 8 4 10 2 9 1 8 4 11 0 9 1 10 2 12 7 11 0 10 2 13 8 11 0 12 7 14 9 13 8 12 7 15 10 13 8 14 9 16 11 15 10 14 9 17 12 15 10 16 11 18 13 17 12 16 11 19 14 17 12 18 13 22 17 21 16 20 15 23 18 21 16 22 17 24 19 23 18 22 17 25 20 23 18 24 19 26 21 25 20 24 19 27 22 25 20 26 21 28 23 27 22 26 21 29 24 27 22 28 23 30 25 29 24 28 23 31 26 29 24 30 25 32 27 31 26 30 25 33 28 31 26 32 27 34 29 33 28 32 27 35 30 33 28 34 29 36 31 35 30 34 29 37 32 35 30 36 31 38 33 37 32 36 31 41 36 40 35 39 34 42 37 40 35 41 36 43 38 42 37 41 36 44 39 42 37 43 38 45 40 44 39 43 38 46 41 44 39 45 40 47 42 46 41 45 40 48 43 46 41 47 42 49 44 48 43 47 42 50 45 48 43 49 44 51 46 50 45 49 44 52 47 50 45 51 46 53 48 52 47 51 46 54 49 52 47 53 48 55 50 54 49 53 48 56 51 54 49 55 50 57 52 56 51 55 50 59 55 58 54 24 53 60 56 58 54 59 55 12 7 60 56 59 55 61 57 60 56 12 7 10 2 61 57 12 7 62 58 61 57 10 2 8 4 62 58 10 2 63 59 62 58 8 4 6 6 63 59 8 4 64 60 63 59 6 6 4 4 64 60 6 6 65 61 64 60 4 4 2 2 65 61 4 4 66 62 65 61 2 2 67 63 66 62 2 2 68 64 47 42 45 40 69 65 47 42 68 64 70 66 69 65 68 64 71 67 69 65 70 66 72 68 71 67 70 66 73 69 71 67 72 68 74 70 73 69 72 68 75 71 73 69 74 70 76 72 75 71 74 70 77 73 75 71 76 72 78 74 77 73 76 72 79 75 77 73 78 74 80 76 79 75 78 74 81 77 79 75 80 76 82 78 81 77 80 76 80 76 83 79 82 78 84 80 83 79 80 76 85 81 84 80 80 76 86 82 84 80 85 81 87 83 86 82 85 81 88 84 86 82 87 83 89 85 88 84 87 83 90 86 88 84 89 85 91 87 90 86 89 85 92 88 90 86 91 87 93 89 92 88 91 87 21 16 92 88 93 89 94 90 21 16 93 89 20 15 21 16 94 90 97 93 96 92 95 91 98 94 96 92 97 93 99 95 98 94 97 93 100 96 98 94 99 95 101 97 100 96 99 95 102 98 100 96 101 97 103 99 102 98 101 97 104 100 102 98 103 99 105 101 104 100 103 99 106 102 104 100 105 101 107 103 106 102 105 101 108 104 106 102 107 103 109 105 108 104 107 103 110 106 108 104 109 105 113 109 112 108 111 107 114 110 112 108 113 109 115 111 114 110 113 109 116 112 114 110 115 111 117 113 116 112 115 111 118 114 116 112 117 113 119 115 118 114 117 113 120 116 118 114 119 115 121 117 120 116 119 115 122 118 120 116 121 117 123 119 122 118 121 117 124 120 122 118 123 119 125 121 124 120 123 119 126 122 124 120 125 121 129 125 128 124 127 123 130 126 128 124 129 125 131 127 130 126 129 125 132 128 130 126 131 127 133 129 132 128 131 127 134 130 132 128 133 129 135 131 134 130 133 129 136 132 134 130 135 131 137 133 136 132 135 131 138 134 136 132 137 133 139 135 138 134 137 133 140 136 138 134 139 135 141 137 140 136 139 135 142 138 140 136 141 137 143 139 28 23 26 21 144 140 28 23 143 139 63 141 144 140 143 139 145 142 144 140 63 141 146 143 145 142 63 141 147 144 145 142 146 143 117 113 147 144 146 143 148 145 147 144 117 113 115 111 148 145 117 113 149 146 148 145 115 111 113 109 149 146 115 111 150 147 149 146 113 109 111 107 150 147 113 109 151 148 150 147 111 107 152 149 74 70 72 68 153 150 74 70 152 149 154 151 153 150 152 149 155 152 153 150 154 151 156 153 155 152 154 151 89 85 155 152 156 153 157 154 89 85 156 153 91 87 89 85 157 154 158 155 91 87 157 154 93 89 91 87 158 155 159 156 93 89 158 155 94 90 93 89 159 156 161 158 160 157 35 30 162 159 160 157 161 158 163 160 162 159 161 158 164 161 162 159 163 160 165 162 164 161 163 160 166 163 164 161 165 162 167 164 166 163 165 162 168 165 166 163 167 164 169 166 168 165 167 164 170 167 168 165 169 166 171 168 170 167 169 166 172 169 170 167 171 168 23 18 92 88 21 16 173 170 92 88 23 18 25 20 173 170 23 18 174 171 173 170 25 20 27 22 174 171 25 20 175 172 174 171 27 22 29 24 175 172 27 22 176 173 175 172 29 24 31 26 176 173 29 24 160 157 176 173 31 26 33 28 160 157 31 26 35 30 160 157 33 28 179 176 178 175 177 174 180 177 178 175 179 176 181 178 180 177 179 176 182 179 180 177 181 178 183 180 182 179 181 178 184 181 182 179 183 180 185 182 184 181 183 180 186 183 184 181 185 182 187 184 186 183 185 182 38 185 186 183 187 184 188 186 38 185 187 184 190 188 177 174 189 187 191 189 177 174 190 188 192 190 191 189 190 188 193 191 191 189 192 190 194 192 193 191 192 190 195 193 193 191 194 192 196 194 195 193 194 192 197 195 195 193 196 194 198 196 197 195 196 194 199 197 197 195 198 196 200 200 0 199 1 198 201 201 0 199 200 200 202 202 201 201 200 200 203 203 201 201 202 202 204 204 203 203 202 202 205 205 203 203 204 204 206 206 205 205 204 204 207 207 205 205 206 206 208 208 207 207 206 206 211 211 210 210 209 209 212 211 210 210 211 211 213 212 212 211 211 211 214 213 212 211 213 212 215 214 214 213 213 212 216 215 214 213 215 214 217 216 216 215 215 214 218 217 216 215 217 216 219 215 218 217 217 216 221 219 209 209 220 218 211 211 209 209 221 219 222 220 211 211 221 219 223 221 211 211 222 220 224 222 223 221 222 220 217 216 223 221 224 222 225 221 217 216 224 222 226 214 217 216 225 221 227 211 226 214 225 221 148 145 145 142 147 144 228 223 145 142 148 145 229 224 228 223 148 145 230 225 228 223 229 224 231 226 230 225 229 224 232 227 230 225 231 226 233 228 232 227 231 226 36 31 232 227 233 228 38 33 36 31 233 228 236 231 235 230 234 229 237 232 235 230 236 231 238 233 237 232 236 231 239 234 237 232 238 233 240 235 239 234 238 233 241 236 239 234 240 235 242 237 241 236 240 235 243 238 241 236 242 237 244 239 243 238 242 237 234 229 45 40 43 38 68 64 45 40 234 229 235 230 68 64 234 229 70 66 68 64 235 230 245 240 70 66 235 230 246 241 70 66 245 240 247 242 246 241 245 240 248 243 246 241 247 242 249 244 248 243 247 242 246 241 72 68 70 66 152 149 72 68 246 241 250 245 152 149 246 241 154 151 152 149 250 245 251 246 154 151 250 245 252 247 154 151 251 246 18 248 252 247 251 246 159 156 252 247 18 248 120 116 253 249 118 114 254 250 253 249 120 116 122 118 254 250 120 116 255 251 254 250 122 118 124 120 255 251 122 118 256 252 255 251 124 120 126 122 256 252 124 120 208 253 256 252 126 122 86 82 257 254 84 80 166 163 257 254 86 82 258 255 166 163 86 82 164 161 166 163 258 255 259 256 164 161 258 255 260 257 164 161 259 256 175 172 260 257 259 256 176 173 260 257 175 172 175 172 173 170 174 171 90 86 173 170 175 172 259 256 90 86 175 172 261 258 90 86 259 256 258 255 261 258 259 256 88 84 261 258 258 255 86 82 88 84 258 255 264 261 263 260 262 259 265 262 263 260 264 261 266 263 265 262 264 261 267 264 265 262 266 263 268 265 267 264 266 263 269 266 267 264 268 265 270 267 269 266 268 265 273 260 272 261 271 259 274 268 272 261 273 260 275 264 274 268 273 260 276 263 274 268 275 264 277 269 276 263 275 264 278 270 276 263 277 269 210 210 278 270 277 269 281 261 280 260 279 259 282 268 280 260 281 261 283 263 282 268 281 261 284 264 282 268 283 263 285 269 284 264 283 263 286 271 284 264 285 269 287 272 286 271 285 269 290 260 289 261 288 259 291 262 289 261 290 260 292 264 291 262 290 260 293 263 291 262 292 264 294 265 293 263 292 264 295 265 293 263 294 265 296 210 295 265 294 265 32 27 230 225 232 227 297 273 230 225 32 27 30 25 297 273 32 27 298 274 297 273 30 25 28 23 298 274 30 25 144 140 298 274 28 23 299 275 240 235 238 233 300 276 240 235 299 275 301 277 300 276 299 275 302 278 300 276 301 277 303 279 302 278 301 277 304 280 302 278 303 279 307 283 306 282 305 281 308 284 306 282 307 283 309 285 308 284 307 283 310 286 308 284 309 285 100 96 310 286 309 285 102 98 310 286 100 96 133 129 137 133 135 131 311 287 137 133 133 129 131 127 311 287 133 129 312 288 311 287 131 127 129 125 312 288 131 127 313 289 312 288 129 125 55 50 107 290 57 52 314 291 107 290 55 50 315 292 314 291 55 50 316 293 314 291 315 292 75 71 316 293 315 292 77 73 316 293 75 71 15 10 11 199 13 8 317 200 11 199 15 10 318 294 317 200 15 10 319 295 317 200 318 294 19 14 319 295 318 294 248 296 319 295 19 14 320 220 225 221 224 222 227 211 225 221 320 220 321 219 227 211 320 220 322 209 227 211 321 219 323 218 322 209 321 219 287 272 322 209 323 218 326 298 325 215 324 297 327 299 325 215 326 298 328 300 327 299 326 298 329 301 327 299 328 300 330 302 329 301 328 300 331 303 329 301 330 302 333 301 332 301 296 210 334 212 332 301 333 301 335 299 334 212 333 301 336 213 334 212 335 299 337 215 336 213 335 299 332 301 336 213 337 215 268 265 339 210 338 304 340 265 339 210 268 265 266 263 340 265 268 265 341 305 340 265 266 263 264 261 341 305 266 263 340 265 341 305 264 261 344 211 343 210 342 269 227 211 343 210 344 211 345 212 227 211 344 211 226 214 227 211 345 212 346 213 226 214 345 212 219 215 226 214 346 213 191 189 179 176 177 174 181 178 179 176 191 189 193 191 181 178 191 189 183 180 181 178 193 191 185 182 183 180 193 191 348 300 333 301 347 302 335 299 333 301 348 300 326 298 335 299 348 300 337 215 335 299 326 298 324 297 337 215 326 298 255 251 349 306 254 250 350 307 349 306 255 251 256 252 350 307 255 251 351 308 350 307 256 252 208 253 351 308 256 252 149 146 229 224 148 145 231 226 229 224 149 146 352 309 231 226 149 146 353 310 231 226 352 309 151 148 353 310 352 309 355 312 354 311 67 63 125 313 354 311 355 312 207 207 125 313 355 312 126 314 125 313 207 207 208 208 126 314 207 207 233 228 356 315 38 33 357 316 356 315 233 228 358 317 357 316 233 228 359 318 357 316 358 317 353 310 359 318 358 317 189 187 361 319 360 138 362 320 361 319 189 187 177 174 362 320 189 187 363 321 362 320 177 174 178 175 363 321 177 174 365 323 127 123 364 322 129 125 127 123 365 323 190 188 129 125 365 323 313 289 129 125 190 188 189 187 313 289 190 188 202 202 366 325 243 324 367 326 366 325 202 202 200 200 367 326 202 202 368 327 367 326 200 200 369 328 368 327 200 200 371 330 161 158 370 329 163 160 161 158 371 330 372 331 163 160 371 330 165 162 163 160 372 331 167 164 165 162 372 331 96 92 373 332 95 91 374 333 373 332 96 92 307 283 374 333 96 92 375 334 374 333 307 283 305 281 375 334 307 283 170 167 166 163 168 165 257 254 166 163 170 167 376 335 257 254 170 167 84 80 257 254 376 335 83 79 84 80 376 335 78 74 85 81 80 76 87 83 85 81 78 74 377 336 87 83 78 74 89 85 87 83 377 336 155 152 89 85 377 336 380 339 379 338 378 337 381 340 379 338 380 339 351 308 381 340 380 339 382 341 381 340 351 308 208 253 382 341 351 308 384 343 302 278 383 342 300 276 302 278 384 343 242 237 300 276 384 343 240 235 300 276 242 237 284 264 280 260 282 268 385 344 280 260 284 264 286 271 385 344 284 264 386 345 385 344 286 271 187 184 197 195 188 186 195 193 197 195 187 184 185 182 195 193 187 184 193 191 195 193 185 182 338 304 331 303 387 346 329 301 331 303 338 304 339 210 329 301 338 304 388 301 329 301 339 210 140 136 389 288 138 134 390 347 389 288 140 136 142 138 390 347 140 136 374 333 390 347 142 138 276 263 272 261 274 268 391 305 272 261 276 263 278 270 391 305 276 263 272 261 391 305 278 270 139 135 392 348 141 137 393 349 392 348 139 135 137 133 393 349 139 135 311 134 393 349 137 133 394 213 388 301 325 215 395 212 388 301 394 213 327 299 395 212 394 213 329 301 395 212 327 299 393 349 396 350 392 348 397 351 396 350 393 349 311 134 397 351 393 349 312 288 397 351 311 134 267 264 263 260 265 262 398 344 263 260 267 264 269 266 398 344 267 264 399 352 398 344 269 266 22 353 59 55 24 53 400 354 59 55 22 353 20 355 400 354 22 353 94 356 400 354 20 355 2 2 355 312 67 63 401 357 355 312 2 2 0 0 401 357 2 2 402 358 401 357 0 0 403 304 296 210 294 265 333 301 296 210 403 304 404 303 333 301 403 304 347 302 333 301 404 303 406 267 294 265 405 266 403 304 294 265 406 267 407 346 403 304 406 267 404 303 403 304 407 346 317 200 9 198 11 199 408 359 9 198 317 200 319 295 408 359 317 200 248 296 408 359 319 295 408 359 7 360 9 198 409 361 7 360 408 359 248 296 409 361 408 359 249 362 409 361 248 296 409 361 5 363 7 360 410 359 5 363 409 361 249 362 410 359 409 361 369 328 410 359 249 362 292 264 405 266 294 265 411 344 405 266 292 264 290 260 411 344 292 264 288 364 411 344 290 260 412 365 372 331 371 330 167 164 372 331 412 365 413 366 167 164 412 365 169 166 167 164 413 366 205 205 402 358 203 203 414 367 402 358 205 205 207 207 414 367 205 205 355 312 414 367 207 207 310 286 415 368 308 284 416 369 415 368 310 286 104 100 416 369 310 286 106 102 416 369 104 100 416 369 417 370 415 368 418 371 417 370 416 369 106 102 418 371 416 369 108 104 418 371 106 102 58 372 26 21 24 19 143 139 26 21 58 372 419 373 143 139 58 372 63 141 143 139 419 373 420 374 383 342 382 341 384 343 383 342 420 374 244 239 384 343 420 374 242 237 384 343 244 239 293 263 289 261 291 262 421 305 289 261 293 263 295 265 421 305 293 263 289 261 421 305 295 265 248 243 250 245 246 241 251 246 250 245 248 243 19 375 251 246 248 243 18 248 251 246 19 375 123 119 354 376 125 121 67 377 354 376 123 119 121 117 67 377 123 119 119 115 67 377 121 117 136 132 422 378 134 130 423 379 422 378 136 132 138 134 423 379 136 132 389 380 423 379 138 134 424 381 302 278 304 280 383 342 302 278 424 381 381 340 383 342 424 381 382 341 383 342 381 340 425 382 197 195 199 197 188 186 197 195 425 382 37 383 188 186 425 382 38 185 188 186 37 383 423 379 426 384 422 378 305 281 426 384 423 379 389 380 305 281 423 379 375 334 305 281 389 380 237 232 368 385 235 230 367 386 368 385 237 232 239 234 367 386 237 232 241 236 367 386 239 234 79 75 316 293 77 73 314 291 316 293 79 75 109 387 314 291 79 75 107 290 314 291 109 387 428 389 306 282 427 388 305 281 306 282 428 389 429 390 305 281 428 389 426 384 305 281 429 390 419 391 62 58 63 59 61 57 62 58 419 391 60 56 61 57 419 391 215 214 223 221 217 216 211 211 223 221 215 214 213 212 211 211 215 214 430 305 281 261 342 270 283 263 281 261 430 305 342 270 283 263 430 305 209 209 431 272 220 218 277 269 431 272 209 209 210 210 277 269 209 209 76 72 377 336 78 74 155 152 377 336 76 72 153 150 155 152 76 72 16 11 159 392 18 13 94 356 159 392 16 11 400 354 94 356 16 11 200 200 410 359 369 328 3 360 410 359 200 200 1 198 3 360 200 200 206 206 382 393 208 208 420 394 382 393 206 206 204 204 420 394 206 206 309 285 98 94 100 96 96 92 98 94 309 285 307 283 96 92 309 285 69 65 49 44 47 42 51 46 49 44 69 65 53 48 51 46 69 65 322 209 343 210 227 211 285 269 343 210 322 209 287 272 285 269 322 209 434 344 433 395 432 345 271 364 433 395 434 344 273 260 271 364 434 344 235 230 247 242 245 240 369 396 247 242 235 230 368 385 369 396 235 230 158 155 252 247 159 156 156 153 252 247 158 155 157 154 156 153 158 155 435 397 326 298 348 300 328 300 326 298 435 397 330 302 328 300 435 397 260 257 162 159 164 161 160 157 162 159 260 257 176 173 160 157 260 257 436 398 411 344 288 364 437 352 411 344 436 398 425 399 35 30 37 32 199 400 35 30 425 399 438 401 238 233 236 231 299 275 238 233 438 401 71 67 53 48 69 65 73 69 53 48 71 67 244 402 204 204 243 324 420 394 204 204 244 402 199 400 161 158 35 30 370 329 161 158 199 400 376 335 172 169 83 79 170 167 172 169 376 335 441 405 440 404 439 403 442 406 440 404 441 405 443 271 434 344 432 345 275 264 434 344 443 271 110 106 418 371 108 104 81 407 418 371 110 106 444 408 418 371 81 407 417 370 418 371 444 408 285 269 342 270 343 210 283 263 342 270 285 269 277 269 443 271 431 272 275 264 443 271 277 269 445 409 224 222 222 220 320 220 224 222 445 409 446 410 54 49 56 51 52 47 54 49 446 410 34 29 232 227 36 31 32 27 232 227 34 29 145 142 298 274 144 140 228 223 298 274 145 142 228 223 297 273 298 274 230 225 297 273 228 223 347 302 435 397 348 300 447 411 435 397 347 302 448 395 385 344 386 345 279 364 385 344 448 395 241 236 366 412 367 386 243 238 366 412 241 236 231 226 358 317 233 228 353 310 358 317 231 226 450 414 350 307 449 413 349 306 350 307 450 414 390 347 375 289 389 288 374 333 375 289 390 347 380 339 350 307 351 308 449 413 350 307 380 339 313 289 397 351 312 288 189 333 397 351 313 289 360 138 397 351 189 333 396 350 397 351 360 138 66 415 119 115 117 113 67 377 119 115 66 415 451 398 398 344 399 352 262 364 398 344 451 398 40 417 439 403 39 416 441 405 439 403 40 417 401 357 414 367 355 312 402 358 414 367 401 357 110 418 79 75 81 77 109 387 79 75 110 418 201 201 402 358 0 199 203 203 402 358 201 201 53 48 315 292 55 50 73 69 315 292 53 48 318 294 17 12 19 14 15 10 17 12 318 294 270 267 338 304 387 346 268 265 338 304 270 267 452 420 374 333 142 419 373 332 374 333 452 420 59 55 14 9 12 7 400 354 14 9 59 55 64 421 146 143 63 141 65 422 146 143 64 421 65 422 117 113 146 143 66 415 117 113 65 422 150 147 352 309 149 146 151 148 352 309 150 147 379 338 424 381 453 423 381 340 424 381 379 338 440 404 114 110 116 112 442 406 114 110 440 404 332 301 334 212 336 213 405 266 411 344 437 352 202 202 243 313 204 207 330 302 435 397 447 411 394 213 325 215 327 299 388 301 395 212 329 301 344 211 346 213 345 212 74 70 153 150 76 72 112 108 114 110 442 406 398 344 262 364 263 260 385 344 279 364 280 260 58 54 60 56 419 391 90 86 261 258 88 84 173 170 90 86 92 88 315 292 73 69 75 71 14 9 400 354 16 11 410 359 3 360 5 363 310 286 102 98 104 100 192 190 190 188 365 323 219 215 217 216 226 214 154 151 252 247 156 153 275 264 273 260 434 344 247 242 369 396 249 244</p>
                </polylist>
            </mesh>
        </geometry>
    </library_geometries>
    <library_visual_scenes>
        <visual_scene id="VisualSceneNode">
            <node id="node0" name="m0" type="NODE">
                <instance_geometry url="#mesh0">
                    <bind_material>
                        <technique_common>
                            <instance_material symbol="Material1" target="#mat0">
                                <bind_vertex_input semantic="UVSET0" input_semantic="TEXCOORD" input_set="0"></bind_vertex_input>
                            </instance_material>
                        </technique_common>
                    </bind_material>
                </instance_geometry>
            </node>
            <node id="node1" name="m1" type="NODE">
                <instance_geometry url="#mesh1">
                    <bind_material>
                        <technique_common>
                            <instance_material symbol="Material1" target="#mat1">
                                <bind_vertex_input semantic="UVSET0" input_semantic="TEXCOORD" input_set="0"></bind_vertex_input>
                            </instance_material>
                        </technique_common>
                    </bind_material>
                </instance_geometry>
            </node>
            <node id="node2" name="m2" type="NODE">
                <instance_geometry url="#mesh2">
                    <bind_material>
                        <technique_common>
                            <instance_material symbol="Material1" target="#mat2">
                                <bind_vertex_input semantic="UVSET0" input_semantic="TEXCOORD" input_set="0"></bind_vertex_input>
                            </instance_material>
                        </technique_common>
                    </bind_material>
                </instance_geometry>
            </node>
        </visual_scene>
    </library_visual_scenes>
    <scene>
        <instance_visual_scene url="#VisualSceneNode"></instance_visual_scene>
    </scene>
</COLLADA>
