<?xml version="1.0"?>
<COLLADA xmlns="http://www.collada.org/2005/11/COLLADASchema" version="1.4.1">
    <asset>
        <contributor>
            <authoring_tool>J3D Ripoff Exporter</authoring_tool>
        </contributor>
        <created>2024-08-19T02:26:07.707Z</created>
        <modified>2024-08-19T02:26:07.707Z</modified>
		<unit meter="0.01" name="centimeter" ></unit>
        <up_axis>Y_UP</up_axis>
    </asset>
    <library_images>
        <image id="tex0">
            <init_from>konfu_body.png</init_from>
        </image>
    </library_images>
    <library_effects>
        <effect id="effect0">
            <profile_COMMON>
                <newparam sid="surface0">
                    <surface type="2D">
                        <init_from>tex0</init_from>
                    </surface>
                </newparam>
                <newparam sid="sampler0">
                    <sampler2D>
                        <source>surface0</source>
                    </sampler2D>
                </newparam>
                <technique sid="COMMON">
                    <blinn>
                        <diffuse>
                            <texture texture="sampler0" texcoord="UVSET0"></texture>
                        </diffuse>
                    </blinn>
                </technique>
            </profile_COMMON>
        </effect>
        <effect id="effect1">
            <profile_COMMON>
                <newparam sid="surface1">
                    <surface type="2D">
                        <init_from>tex0</init_from>
                    </surface>
                </newparam>
                <newparam sid="sampler1">
                    <sampler2D>
                        <source>surface1</source>
                    </sampler2D>
                </newparam>
                <technique sid="COMMON">
                    <blinn>
                        <diffuse>
                            <texture texture="sampler1" texcoord="UVSET0"></texture>
                        </diffuse>
                    </blinn>
                </technique>
            </profile_COMMON>
        </effect>
    </library_effects>
    <library_materials>
        <material id="mat0" name="Skin_etc">
            <instance_effect url="#effect0"></instance_effect>
        </material>
        <material id="mat1" name="Skin_spc">
            <instance_effect url="#effect1"></instance_effect>
        </material>
    </library_materials>
    <library_geometries>
        <geometry id="mesh0">
            <mesh>
                <source id="points0">
                    <float_array id="pointarray0" count="1443">21.26171875 25.11328125 0 12.7265625 19.7421875 0 24.09765625 23.625 -20.59765625 11.94921875 15.453125 -14.56640625 28.765625 21.40234375 -34.55859375 10.7578125 8.59765625 -24.80078125 23.40625 9.46484375 -39.11328125 11.03125 -0.37109375 -32.59375 21.59765625 -1.515625 -42.3046875 22.328125 -8.01953125 -41.359375 29.58984375 -6.2890625 -44.4609375 27.69140625 -16.84375 -42.34765625 40.85546875 -9.58203125 -44.078125 38.0546875 -16.70703125 -42.5703125 50.87890625 -19.17578125 -39.34375 47.90234375 -24.80078125 -38.2890625 58.265625 -24.703125 -35.77734375 55.09765625 -28.31640625 -35.0078125 67.0703125 -29.2421875 -29.97265625 63.22265625 -32.7421875 -29.44921875 68.34375 -36.12109375 -24.08203125 57.39453125 -37.87890625 -25.07421875 60.34765625 -40.99609375 -20.67578125 76.88671875 18.0546875 16.67578125 81.33984375 12.06640625 18.39453125 71.8046875 19.79296875 25.89453125 76.375 11.84375 27.90234375 67.125 20.703125 32.6171875 68.1953125 14.05859375 35.3671875 61.1171875 20.8671875 37.71875 62.5390625 14.5 39.72265625 52.72265625 20.74609375 40.234375 56.60546875 11.40625 42.86328125 49.1484375 13.51953125 43.921875 53.80859375 7.89453125 43.8515625 42.16796875 7.37109375 44.54296875 41.3828125 -1.5 45.2265625 36.5546875 9.44921875 43.58203125 29.58984375 -6.2890625 44.4609375 21.59765625 -1.515625 42.3046875 22.328125 -8.01953125 41.359375 11.03125 -0.37109375 32.59375 14.4296875 -9.08984375 35.87109375 79.44140625 -27.12890625 -13.36328125 75.88671875 -27.33984375 -10.4296875 74.54296875 -25.0625 -20.7109375 67.49609375 -24.5703125 -21.34765625 64.87109375 -20.73046875 -29.76953125 61.30078125 -21.984375 -26.96875 53.29296875 -17.6171875 -33.49609375 49.62890625 -25.76171875 -22.92578125 48.46484375 -16.80078125 -32.18359375 40.609375 -23.3828125 -15.08203125 34.4453125 -18.1796875 -20.57421875 36.16015625 -24.2109375 0 28.609375 -20.07421875 0 34.4453125 -18.1796875 20.57421875 31.953125 -10.97265625 22.69921875 47.390625 -12.03125 34.703125 46.7109375 -5.7578125 33.609375 52.1875 -7.890625 37.98828125 52.65625 -2.921875 38.14453125 52.09765625 -2.4375 -27.0859375 59.28125 -2.43359375 -26.1171875 51.05859375 -3.29296875 -34.5703125 59.890625 -3.296875 -32.3046875 60.4296875 -1.21875 -33.3828125 67.7421875 -3.12109375 -26.29296875 68.765625 -0.75 -27.203125 67.58984375 0.8984375 -21.32421875 72.99609375 -6.98046875 -22.69921875 73.390625 -1.6484375 -15.6875 76.12109375 -2.2109375 -18.28515625 75.41796875 -3.71875 -17.25 78.85546875 -3.33984375 -9.1796875 73.546875 -3.4609375 -15.4921875 76.7578125 -3.08203125 -7.890625 77.31640625 9.78515625 0.10546875 74.41796875 9.61328125 -15.51953125 62.1640625 -42.62890625 -16.1875 72.0625 -38.34765625 -18.1796875 76.0859375 -33.26953125 -20.27734375 81.40625 -35.58203125 -9.78515625 76.45703125 -29.828125 -21.859375 82.45703125 -32.34765625 -13.03125 81.72265625 -28.73046875 -12.8828125 85.41796875 -33.453125 0 84.68359375 -29.7734375 0 81.72265625 -28.73046875 12.8828125 79.44140625 -27.12890625 13.36328125 75.85546875 -26.35546875 21.7734375 74.54296875 -25.0625 20.7109375 67.36328125 -22.64453125 30.1796875 64.87109375 -20.73046875 29.76953125 56.5859375 -15.80078125 34.5234375 48.59375 -9.08203125 26.796875 56.84375 -10.4375 24.97265625 47.70703125 -7.91015625 34.203125 57.8046875 -9.734375 30.890625 57.7421875 -12.0078125 31.921875 67.62109375 -12.4921875 25.140625 68.0078125 -15.20703125 26.01171875 66.16015625 -16.54296875 20.390625 73.36328125 -10.94140625 19.08984375 72.08984375 -16.48046875 15.51953125 75.328125 -16.70703125 18.08984375 75.0234375 -14.96875 17.06640625 78.75 -16.35546875 9.0625 72.9375 -14.390625 15.328125 76.4140625 -16.08203125 7.7890625 74.24609375 -29.65234375 7.8515625 71.0546875 -28.62890625 15.5703125 60.44921875 -58.55859375 18.25 61.84375 -58.62109375 14.0078125 61.5625 -48.72265625 20.46484375 63.0234375 -56.7265625 10.69921875 63.828125 -46.98828125 12.73828125 63.67578125 -53.38671875 8.703125 64.67578125 -46.17578125 5.83203125 64.9140625 -52.68359375 0 64.5546875 -45.66015625 0 64.67578125 -46.17578125 -5.83203125 68.1796875 -48.3984375 0 67.9296875 -48.73828125 -5.828125 68.9921875 -53.80078125 0 68.2734375 -54.2734375 -6.08984375 65.37890625 -57.5546875 -3.734375 63.765625 -60.47265625 -9.7265625 38.88671875 20.58984375 -40.6796875 49.1484375 13.51953125 -43.921875 52.72265625 20.74609375 -40.234375 56.60546875 11.40625 -42.86328125 62.5390625 14.5 -39.72265625 63.234375 10.4453125 -40.76953125 68.1953125 14.05859375 -35.3671875 69.16015625 11.171875 -35.77734375 76.375 11.84375 -27.90234375 78.66796875 10.39453125 -26.9453125 83.78515625 10.43359375 -17.8046875 84.59375 7.61328125 -16.80078125 87.609375 7.54296875 -7.25 85.76953125 6.09765625 -6.69921875 86.30859375 6.1484375 0 61.12109375 -28.79296875 -10.08984375 48.3671875 -28.41015625 -5.31640625 58.796875 -30.9609375 0 47.3046875 -28.52734375 0 48.3671875 -28.41015625 5.31640625 40.609375 -23.3828125 15.08203125 48.46484375 -16.80078125 32.18359375 53.29296875 -17.6171875 33.49609375 56.015625 2.0390625 37.37890625 55.5 4.26171875 41.7734375 51.52734375 -2.84765625 39.9921875 48.62890625 -2.77734375 42.12890625 51.30859375 -7.0078125 39.81640625 48.10546875 -6.1796875 41.83984375 51.12890625 -12.37890625 41.09375 40.85546875 -9.58203125 44.078125 27.69140625 -16.84375 42.34765625 36.5546875 9.44921875 -43.58203125 42.16796875 7.37109375 -44.54296875 53.80859375 7.89453125 -43.8515625 41.3828125 -1.5 -45.2265625 55.5 4.26171875 -41.7734375 48.62890625 -2.77734375 -42.12890625 51.52734375 -2.84765625 -39.9921875 51.30859375 -7.0078125 -39.81640625 52.65625 -2.921875 -38.14453125 52.1875 -7.890625 -37.98828125 55.24609375 -33.26171875 30.67578125 53.26953125 -35.75390625 34.39453125 49.36328125 -32.34375 32.53125 51.140625 -40.1953125 38.15625 45.13671875 -36.25390625 38.05859375 49.91796875 -44.61328125 39.4765625 42.93359375 -42.28515625 40.75390625 49.58984375 -48.53125 39.78515625 42.40234375 -48.05078125 41.25390625 50.7109375 -52.80078125 38.23046875 43.43359375 -53.12109375 39.96484375 52.35546875 -56.03515625 35.80078125 45.953125 -58.55859375 36.5 55.98046875 -60.8359375 30.4921875 47.390625 -12.03125 -34.703125 31.953125 -10.97265625 -22.69921875 25.7109375 -13.65234375 0 33.73828125 -6.15234375 20.9921875 48.328125 0.63671875 26.07421875 82.26171875 -28.22265625 0 78.5234375 -27.68359375 0 71.484375 -29.3125 0 75.88671875 -27.33984375 10.4296875 61.12109375 -28.79296875 10.08984375 67.49609375 -24.5703125 21.34765625 49.62890625 -25.76171875 22.92578125 61.30078125 -21.984375 26.96875 71.8359375 5.8203125 -29.4765625 64.83203125 4.67578125 -34.3359375 71.90234375 7.546875 -25.8046875 57.2890625 7.8359375 -15.1328125 72.39453125 10.2578125 -8.69140625 57.140625 8.9453125 0 72.8515625 10.57421875 0 72.39453125 10.2578125 8.69140625 85.76953125 6.09765625 6.69921875 81.12890625 7.10546875 15.375 83.2578125 6.09765625 15.0546875 78.609375 6.3828125 23.09765625 56.015625 2.0390625 -37.37890625 48.328125 0.63671875 -26.07421875 46.66796875 2.0546875 -9.32421875 39.3046875 -0.52734375 -15.85546875 34.85546875 -1.33203125 0 27.90625 -6.85546875 0 39.3046875 -0.52734375 15.85546875 83.78515625 10.43359375 17.8046875 78.66796875 10.39453125 26.9453125 69.16015625 11.171875 35.77734375 70.33203125 9.58984375 35.95703125 63.79296875 8.4453125 40.19140625 64.6953125 6.4453125 38.16796875 64.83203125 4.67578125 34.3359375 68.1875 -26.6640625 -30.37890625 59.9296875 -21.72265625 -36.03125 58.36328125 -17.62109375 -36.125 51.12890625 -12.37890625 -41.09375 53.51171875 -12.31640625 -38.83984375 53.06640625 -11.84765625 -36.75390625 81.30859375 16.890625 -3.671875 84.42578125 12.125 -7.25390625 84.70703125 12.02734375 0 87.328125 10.625 0 84.42578125 12.125 7.25390625 86.86328125 10.65234375 7.69140625 87.609375 7.54296875 7.25 84.59375 7.61328125 16.80078125 72.1171875 -28.54296875 -17.77734375 77.65234375 -29.84765625 -9.72265625 75.328125 -16.70703125 -18.08984375 79.421875 -18.171875 -9.3671875 78.75 -16.35546875 -9.08203125 80.6640625 -17.09765625 -0.0078125 76.4140625 -15.7109375 -7.80859375 78.25390625 -16.63671875 -0.0078125 74.24609375 -29.65234375 0.10546875 76 -29.7265625 0.10546875 54.68359375 -23.5078125 -28.89453125 56.84375 -10.4375 -24.97265625 63.22265625 -26.40625 -26.09375 66.16015625 -16.54296875 -20.390625 72.08984375 -16.48046875 -15.51953125 73.36328125 -10.94140625 -19.08984375 72.94921875 -18.83203125 -23.14453125 69.2734375 -26.6015625 -23.81640625 81.49609375 14.9296875 -10.45703125 81.33984375 12.06640625 -18.39453125 86.86328125 10.65234375 -7.69140625 87.96484375 7.69140625 0 60.7421875 20.9296875 -36.8671875 67.125 20.703125 -32.6171875 71.8046875 19.79296875 -25.89453125 76.88671875 18.0546875 -16.67578125 83.98828125 -35.9296875 0 81.40625 -35.58203125 9.78515625 75.15625 -39.96875 8.79296875 72.0625 -38.34765625 18.1796875 67.515625 -42.0703125 13.859375 62.1640625 -42.62890625 16.1875 63.359375 -44.3125 11.03515625 59.6171875 9.93359375 30.21875 59.28125 -2.43359375 26.1171875 67.41796875 10.54296875 25.73046875 67.58984375 0.8984375 21.32421875 73.390625 -1.6484375 15.6875 72.99609375 -6.98046875 22.69921875 76.12109375 -2.2109375 18.28515625 75.2578125 0.12109375 23.39453125 75.26953125 9.28515625 18.1875 72.41796875 8.19921875 24.29296875 80.17578125 9.15625 10.046875 79.87890625 -1.8515625 9.44921875 78.85546875 -3.33984375 9.16015625 80.625 -3.12109375 -0.0078125 76.85546875 -2.74609375 7.87109375 78.515625 -2.96875 -0.0078125 77.31640625 9.78515625 7.93359375 78.78125 9.44140625 0.10546875 76.0859375 -33.26953125 20.27734375 68.34375 -36.12109375 24.08203125 67.0703125 -29.2421875 29.97265625 63.22265625 -32.7421875 29.44921875 55.09765625 -28.31640625 35.0078125 63.90234375 -24.9609375 -27.3515625 68.0078125 -15.20703125 -26.01171875 56.5546875 -23.37890625 -32.2421875 57.7421875 -12.0078125 -31.921875 47.47265625 -9.60546875 -35.41015625 47.70703125 -7.91015625 -34.203125 48.59375 -9.08203125 -26.796875 68.1875 -26.6640625 30.37890625 59.9296875 -21.72265625 36.03125 58.36328125 -17.62109375 36.125 53.51171875 -12.31640625 38.83984375 53.06640625 -11.84765625 36.75390625 52.09765625 -2.4375 27.0859375 51.05859375 -3.29296875 34.5703125 59.890625 -3.296875 32.3046875 67.7421875 -3.12109375 26.29296875 60.4296875 -1.21875 33.3828125 68.765625 -0.75 27.203125 61.12890625 9.375 33.71875 67.6015625 9.0703125 26.96484375 72.41796875 8.19921875 -24.07421875 75.2578125 0.12109375 -23.39453125 75.26953125 9.28515625 -17.96875 80.17578125 9.15625 -9.828125 79.87890625 -1.8515625 -9.46875 81.70703125 -1.65625 -0.0078125 79.84765625 7.98046875 25.8671875 71.734375 7.5078125 33.53515625 66.9609375 -1.7578125 21.7578125 73.546875 -3.4609375 15.4921875 75.41796875 -3.71875 17.25 67.9296875 -48.73828125 5.828125 66.6484375 -49.56640625 13.66015625 63.8515625 -51.52734375 21.53125 67.62109375 -12.4921875 -25.140625 66.30859375 -13.65234375 -20.8046875 79.84765625 7.98046875 -25.8671875 70.33203125 9.58984375 -35.95703125 71.734375 7.5078125 -33.53515625 64.6953125 6.4453125 -38.16796875 72.9375 -14.390625 -15.328125 75.0234375 -14.96875 -17.06640625 83.2578125 6.09765625 -15.0546875 78.609375 6.3828125 -23.09765625 49.36328125 -32.34375 -32.53125 45.13671875 -36.25390625 -38.05859375 51.140625 -40.1953125 -38.15625 49.91796875 -44.61328125 -39.4765625 55.37109375 -42.51953125 -35.23046875 54.89453125 -48 -36.10546875 53.91015625 -47.02734375 -32.19921875 54.62890625 -49.484375 -31.39453125 67.41796875 10.54296875 -27.2890625 66.9609375 -1.7578125 -21.7578125 55.24609375 -33.26171875 -30.67578125 53.26953125 -35.75390625 -34.39453125 56.33203125 -38.921875 -32.84765625 54.38671875 -43.08984375 -31.234375 58.55078125 -35.70703125 28.2265625 56.33203125 -38.921875 32.84765625 55.37109375 -42.51953125 35.23046875 54.89453125 -48 36.10546875 43.43359375 -53.12109375 -39.96484375 50.7109375 -52.80078125 -38.23046875 42.40234375 -48.05078125 -41.25390625 49.58984375 -48.53125 -39.78515625 42.93359375 -42.28515625 -40.75390625 59.21484375 -56.55859375 21.41796875 57.03515625 -51.3515625 28.9921875 60.18359375 -53.95703125 29.359375 63.2421875 -58.6875 21.24609375 67.515625 -42.0703125 -13.859375 63.359375 -44.3125 -11.03515625 70.93359375 -42.14453125 -8.19921875 64.4375 -45.21875 -5.05078125 64.58203125 -45.3828125 0 57.125 -54.63671875 -32.64453125 52.35546875 -56.03515625 -35.80078125 45.953125 -58.55859375 -36.5 14.4296875 -9.08984375 -35.87109375 20.921875 -17.61328125 -37.4609375 27.69140625 -23.0703125 -39.33203125 32.45703125 -25.45703125 -38.69140625 38.15234375 -27.98046875 -36.8828125 57.8046875 -9.734375 -30.890625 46.7109375 -5.7578125 -33.609375 33.73828125 -6.15234375 -20.9921875 63.765625 -60.47265625 9.7265625 59.7109375 -63.3671875 17.33203125 55.85546875 -63.9296875 23.73828125 50.94921875 -62.828125 30.7890625 44.2421875 3.0234375 0 46.66796875 2.0546875 9.32421875 55.85546875 -63.9296875 -23.73828125 63.2421875 -58.6875 -21.24609375 55.98046875 -60.8359375 -30.4921875 60.18359375 -53.95703125 -29.359375 57.03515625 -51.3515625 -28.9921875 44.44140625 -30.1875 34.859375 38.15234375 -27.98046875 36.8828125 47.90234375 -24.80078125 38.2890625 38.0546875 -16.70703125 42.5703125 50.87890625 -19.17578125 39.34375 66.30859375 -13.65234375 20.8046875 63.22265625 -26.40625 24.60546875 70.93359375 -42.14453125 8.19921875 76.66796875 -40.3125 0 72.234375 -42.5390625 0 57.125 -54.63671875 32.64453125 38.88671875 20.58984375 39.5390625 23.40625 9.46484375 39.11328125 75.85546875 -26.35546875 -21.7734375 67.36328125 -22.64453125 -30.1796875 72.1171875 -28.54296875 17.9921875 77.65234375 -29.84765625 9.94140625 79.421875 -18.171875 9.34765625 81.40234375 -18.90234375 -0.0078125 57.2890625 7.8359375 15.1328125 71.90234375 7.546875 25.8046875 71.8359375 5.8203125 29.4765625 58.55078125 -35.70703125 -28.2265625 84.875 6.33203125 0 63.234375 10.4453125 40.76953125 81.12890625 7.10546875 -15.375 58.265625 -24.703125 35.77734375 76.45703125 -29.828125 21.859375 56.5859375 -15.80078125 -34.5234375 75.15625 -39.96875 -8.79296875 82.45703125 -32.34765625 13.03125 65.82421875 -56.83203125 0 65.37890625 -57.5546875 3.734375 68.2734375 -54.2734375 6.08984375 67.04296875 -55.734375 12.1796875 66.6484375 -49.56640625 -13.66015625 67.04296875 -55.734375 -12.1796875 63.67578125 -53.38671875 -8.703125 63.828125 -46.98828125 -12.73828125 63.79296875 8.4453125 -40.19140625 51.3046875 -1.6953125 35.7890625 52.203125 9.5234375 36.2890625 54.62890625 -49.484375 31.39453125 59.21484375 -56.55859375 -21.41796875 60.44921875 -58.55859375 -18.25 61.5625 -48.72265625 -20.46484375 61.84375 -58.62109375 -14.0078125 63.0234375 -56.7265625 -10.69921875 63.8515625 -51.52734375 -21.53125 55.90234375 -39.74609375 -28.3203125 57.39453125 -37.87890625 25.07421875 55.90234375 -39.74609375 28.3203125 54.38671875 -43.08984375 31.234375 46.30859375 -21.671875 35.90234375 46.5703125 -22.27734375 31.38671875 47.47265625 -9.60546875 35.41015625 56.5546875 -23.37890625 32.2421875 81.49609375 14.9296875 10.45703125 48.10546875 -6.1796875 -41.83984375 72.94921875 -18.83203125 23.14453125 69.2734375 -26.6015625 24.03515625 63.90234375 -24.9609375 25.78515625 64.4375 -45.21875 5.05078125 67.6015625 9.0703125 -28.60546875 52.203125 9.5234375 -36.2890625 52.578125 10.01171875 -31.72265625 51.3046875 -1.6953125 -35.7890625 32.45703125 -25.45703125 38.69140625 27.69140625 -23.0703125 39.33203125 54.68359375 -23.5078125 28.89453125 44.44140625 -30.1875 -34.859375 60.34765625 -40.99609375 20.67578125 59.6171875 9.93359375 -30.21875 24.09765625 23.625 20.59765625 28.765625 21.40234375 30.93359375 11.94921875 15.453125 14.56640625 10.7578125 8.59765625 24.80078125 81.85546875 8.69140625 0.10546875 53.91015625 -47.02734375 32.19921875 74.41796875 9.61328125 15.73828125 52.578125 10.01171875 31.72265625 61.12890625 9.375 -33.71875 59.7109375 -63.3671875 -17.33203125 20.921875 -17.61328125 37.4609375 71.0546875 -28.62890625 -15.3515625 79.6875 -29.86328125 0.10546875 50.94921875 -62.828125 -30.7890625 46.5703125 -22.27734375 -31.38671875 46.30859375 -21.671875 -35.90234375 81.30859375 16.890625 3.671875</float_array>
                    <technique_common>
                        <accessor count="481" source="#pointarray0" stride="3">
                            <param name="X" type="float"/>
                            <param name="Y" type="float"/>
                            <param name="Z" type="float"/>
                        </accessor>
                    </technique_common>
                </source>
                <source id="uvs0">
                    <float_array id="uvarray0" count="622">0.2330322265625 0.0078125 0.2330322265625 0.04345703125 0.2052001953125 0.00714111328125 0.206787109375 0.06146240234375 0.1802978515625 0.00689697265625 0.192626953125 0.08740234375 0.16668701171875 0.04449462890625 0.18310546875 0.14697265625 0.166015625 0.07965087890625 0.16412353515625 0.1435546875 0.1580810546875 0.09039306640625 0.15460205078125 0.1607666015625 0.1435546875 0.10992431640625 0.1405029296875 0.18829345703125 0.12518310546875 0.14617919921875 0.1229248046875 0.26483154296875 0.1103515625 0.18902587890625 0.10821533203125 0.2841796875 0.08978271484375 0.23785400390625 0.08917236328125 0.30938720703125 0.06915283203125 0.3316650390625 0.0999755859375 0.39605712890625 0.0872802734375 0.410888671875 0.047607421875 0.01129150390625 0.046875 0.04046630859375 0.065185546875 0.0091552734375 0.06976318359375 0.04180908203125 0.09368896484375 0.005859375 0.09698486328125 0.022705078125 0.11639404296875 0.0054931640625 0.11138916015625 0.0240478515625 0.1304931640625 0.0067138671875 0.12286376953125 0.02728271484375 0.14593505859375 0.03338623046875 0.12689208984375 0.034423828125 0.14404296875 0.03851318359375 0.14501953125 0.045654296875 0.1611328125 0.04266357421875 0.1748046875 0.20489501953125 0.24639892578125 0.4403076171875 0.24365234375 0.44793701171875 0.25885009765625 0.457763671875 0.259765625 0.4776611328125 0.27191162109375 0.48895263671875 0.26824951171875 0.49517822265625 0.27679443359375 0.5126953125 0.26263427734375 0.5299072265625 0.2750244140625 0.53643798828125 0.2471923828125 0.56427001953125 0.25482177734375 0.58135986328125 0.22216796875 0.577392578125 0.22216796875 0.5985107421875 0.25750732421875 0.58734130859375 0.27935791015625 0.5386962890625 0.28216552734375 0.52081298828125 0.2821044921875 0.52362060546875 0.42999267578125 0.90740966796875 0.400146484375 0.91064453125 0.4305419921875 0.93707275390625 0.40155029296875 0.93804931640625 0.4027099609375 0.94512939453125 0.37225341796875 0.93963623046875 0.37225341796875 0.94635009765625 0.35595703125 0.9295654296875 0.34423828125 0.94781494140625 0.34429931640625 0.94183349609375 0.31817626953125 0.94329833984375 0.34417724609375 0.9276123046875 0.31781005859375 0.92962646484375 0.31903076171875 0.9822998046875 0.3450927734375 0.98382568359375 0.07440185546875 0.42120361328125 0.0489501953125 0.34967041015625 0.063720703125 0.28460693359375 0.038818359375 0.33160400390625 0.06488037109375 0.165283203125 0.039794921875 0.16864013671875 0.040771484375 0.1431884765625 0.02423095703125 0.16876220703125 0.02490234375 0.14385986328125 0.043701171875 0.13134765625 0.06475830078125 0.1402587890625 0.06488037109375 0.12725830078125 0.0887451171875 0.1290283203125 0.09222412109375 0.1158447265625 0.116943359375 0.09783935546875 0.42999267578125 0.9010009765625 0.400146484375 0.9041748046875 0.4305419921875 0.93060302734375 0.40155029296875 0.93157958984375 0.4027099609375 0.938720703125 0.37225341796875 0.9332275390625 0.37225341796875 0.93988037109375 0.35595703125 0.923095703125 0.34423828125 0.94140625 0.34429931640625 0.93536376953125 0.31817626953125 0.9368896484375 0.34417724609375 0.92120361328125 0.31781005859375 0.9232177734375 0.31903076171875 0.9815673828125 0.3450927734375 0.98309326171875 0.0711669921875 0.6258544921875 0.05645751953125 0.61749267578125 0.06976318359375 0.63043212890625 0.048828125 0.61431884765625 0.04931640625 0.61944580078125 0.0313720703125 0.61102294921875 0.03143310546875 0.6156005859375 0.00518798828125 0.60797119140625 0.00506591796875 0.61151123046875 0.0313720703125 0.6156005859375 0.00506591796875 0.6156005859375 0.0308837890625 0.61920166015625 0.00396728515625 0.65911865234375 0.02593994140625 0.66265869140625 0.01397705078125 0.68402099609375 0.03143310546875 0.69073486328125 0.15997314453125 0.00775146484375 0.10882568359375 0.0333251953125 0.10028076171875 0.03961181640625 0.06781005859375 0.06024169921875 0.046142578125 0.0625 0.044677734375 0.0748291015625 0.0250244140625 0.0755615234375 0.02703857421875 0.086669921875 0.00848388671875 0.08746337890625 0.24407958984375 0.4971923828125 0.2357177734375 0.53875732421875 0.22216796875 0.5086669921875 0.22216796875 0.5458984375 0.28033447265625 0.511962890625 0.122802734375 0.053955078125 0.12408447265625 0.072998046875 0.12310791015625 0.044677734375 0.12945556640625 0.062744140625 0.134765625 0.052490234375 0.126220703125 0.076416015625 0.12933349609375 0.07427978515625 0.1309814453125 0.0802001953125 0.12249755859375 0.07867431640625 0.095947265625 0.51629638671875 0.10968017578125 0.53265380859375 0.10498046875 0.51025390625 0.12353515625 0.56195068359375 0.1253662109375 0.5360107421875 0.12841796875 0.59100341796875 0.13531494140625 0.57568359375 0.12957763671875 0.6168212890625 0.13714599609375 0.6136474609375 0.12384033203125 0.6448974609375 0.13238525390625 0.64703369140625 0.1148681640625 0.66619873046875 0.11962890625 0.68280029296875 0.09527587890625 0.69781494140625 0.22216796875 0.60589599609375 0.2799072265625 0.5135498046875 0.2352294921875 0.43017578125 0.22216796875 0.4383544921875 0.22216796875 0.471435546875 0.2698974609375 0.47991943359375 0.27740478515625 0.49884033203125 0.26263427734375 0.48138427734375 0.24517822265625 0.50701904296875 0.2357177734375 0.4769287109375 0.22216796875 0.50701904296875 0.22216796875 0.4766845703125 0.23406982421875 0.4410400390625 0.2471923828125 0.45782470703125 0.24676513671875 0.44720458984375 0.2589111328125 0.46051025390625 0.09490966796875 0.0540771484375 0.1063232421875 0.0426025390625 0.09796142578125 0.06463623046875 0.10052490234375 0.07037353515625 0.08837890625 0.1556396484375 0.1123046875 0.12860107421875 0.1143798828125 0.11566162109375 0.12030029296875 0.09600830078125 0.1197509765625 0.0882568359375 0.01959228515625 0.00518798828125 0.02777099609375 0.03387451171875 0.01263427734375 0.034423828125 0.00848388671875 0.06298828125 0.02423095703125 0.06268310546875 0.046630859375 0.08551025390625 0.31805419921875 0.943115234375 0.289306640625 0.938232421875 0.28955078125 0.92633056640625 0.28814697265625 0.979248046875 0.40447998046875 0.98858642578125 0.376220703125 0.986083984375 0.357666015625 0.95660400390625 0.3612060546875 0.9793701171875 0.03466796875 0.0181884765625 0.00848388671875 0.07550048828125 0.00848388671875 0.3663330078125 0.045654296875 0.40106201171875 0.0631103515625 0.424560546875 0.0494384765625 0.44866943359375 0.40447998046875 0.98931884765625 0.376220703125 0.98687744140625 0.357666015625 0.95489501953125 0.3612060546875 0.98016357421875 0.31805419921875 0.94952392578125 0.289306640625 0.94464111328125 0.28955078125 0.9327392578125 0.28814697265625 0.97998046875 0.1083984375 0.3653564453125 0.12188720703125 0.35931396484375 0.40460205078125 0.98858642578125 0.43072509765625 0.9376220703125 0.44287109375 0.93182373046875 0.40460205078125 0.98931884765625 0.28912353515625 0.95074462890625 0.066650390625 0.07269287109375 0.08282470703125 0.0703125 0.37164306640625 0.9127197265625 0.031005859375 0.61920166015625 0.04901123046875 0.6239013671875 0.0687255859375 0.63397216796875 0.37164306640625 0.90631103515625 0.06634521484375 0.082763671875 0.085693359375 0.0782470703125 0.1048583984375 0.51025390625 0.125244140625 0.5360107421875 0.12347412109375 0.56195068359375 0.1282958984375 0.59100341796875 0.11480712890625 0.57720947265625 0.1180419921875 0.61328125 0.1036376953125 0.60687255859375 0.10064697265625 0.63665771484375 0.0958251953125 0.51629638671875 0.10955810546875 0.53265380859375 0.10601806640625 0.55352783203125 0.10009765625 0.58099365234375 0.089111328125 0.5323486328125 0.10614013671875 0.55352783203125 0.11492919921875 0.57720947265625 0.1181640625 0.61328125 0.13226318359375 0.64703369140625 0.12371826171875 0.6448974609375 0.13702392578125 0.6136474609375 0.12945556640625 0.6168212890625 0.13519287109375 0.57568359375 0.0816650390625 0.63861083984375 0.08984375 0.64764404296875 0.0941162109375 0.65850830078125 0.066650390625 0.67608642578125 0.0399169921875 0.41943359375 0.025634765625 0.4468994140625 0.00848388671875 0.447998046875 0.1131591796875 0.642333984375 0.11474609375 0.66619873046875 0.1195068359375 0.68280029296875 0.16778564453125 0.261474609375 0.1563720703125 0.27532958984375 0.1510009765625 0.3118896484375 0.14276123046875 0.330322265625 0.04888916015625 0.70025634765625 0.072509765625 0.70526123046875 0.10479736328125 0.70281982421875 0.0723876953125 0.70526123046875 0.0665283203125 0.67608642578125 0.09515380859375 0.69781494140625 0.093994140625 0.65850830078125 0.08978271484375 0.64764404296875 0.1318359375 0.344970703125 0.0081787109375 0.4034423828125 0.00848388671875 0.42059326171875 0.11328125 0.642333984375 0.28912353515625 0.94427490234375 0.0994873046875 0.381591796875 0.22216796875 0.44793701171875 0.22216796875 0.439453125 0.28125 0.51641845703125 0.00360107421875 0.68267822265625 0.01397705078125 0.6839599609375 0.02587890625 0.66259765625 0.04522705078125 0.66790771484375 0.0452880859375 0.6680908203125 0.03131103515625 0.61102294921875 0.04925537109375 0.61944580078125 0.04888916015625 0.6239013671875 0.43072509765625 0.944091796875 0.434326171875 0.9906005859375 0.10076904296875 0.63665771484375 0.08154296875 0.63861083984375 0.071044921875 0.6258544921875 0.0697021484375 0.63043212890625 0.05633544921875 0.61749267578125 0.04876708984375 0.61431884765625 0.068603515625 0.63397216796875 0.08929443359375 0.5589599609375 0.07733154296875 0.54669189453125 0.0889892578125 0.5323486328125 0.07745361328125 0.54669189453125 0.08941650390625 0.5589599609375 0.10015869140625 0.58099365234375 0.434326171875 0.9898681640625 0.4468994140625 0.99053955078125 0.4468994140625 0.99127197265625 0.44287109375 0.938232421875 0.4342041015625 0.9898681640625 0.4342041015625 0.9906005859375 0.28814697265625 0.98028564453125 0.103759765625 0.60687255859375 0.0313720703125 0.69073486328125 0.04876708984375 0.70025634765625 0.02667236328125 0.13232421875 0.28814697265625 0.97955322265625 0.10467529296875 0.70281982421875</float_array>
                    <technique_common>
                        <accessor count="311" source="#uvarray0" stride="2">
                            <param name="S" type="float"/>
                            <param name="T" type="float"/>
                        </accessor>
                    </technique_common>
                </source>
                <vertices id="vertices0">
                    <input semantic="POSITION" source="#points0"/>
                </vertices>
                <polylist count="814" material="Material1">
                    <input offset="0" semantic="VERTEX" source="#vertices0"/>
                    <input offset="1" semantic="TEXCOORD" source="#uvs0" set="0"/>
                    <vcount>3 3 3 3 3 3 3 3 3 3 3 3 3 3 3 3 3 3 3 3 3 3 3 3 3 3 3 3 3 3 3 3 3 3 3 3 3 3 3 3 3 3 3 3 3 3 3 3 3 3 3 3 3 3 3 3 3 3 3 3 3 3 3 3 3 3 3 3 3 3 3 3 3 3 3 3 3 3 3 3 3 3 3 3 3 3 3 3 3 3 3 3 3 3 3 3 3 3 3 3 3 3 3 3 3 3 3 3 3 3 3 3 3 3 3 3 3 3 3 3 3 3 3 3 3 3 3 3 3 3 3 3 3 3 3 3 3 3 3 3 3 3 3 3 3 3 3 3 3 3 3 3 3 3 3 3 3 3 3 3 3 3 3 3 3 3 3 3 3 3 3 3 3 3 3 3 3 3 3 3 3 3 3 3 3 3 3 3 3 3 3 3 3 3 3 3 3 3 3 3 3 3 3 3 3 3 3 3 3 3 3 3 3 3 3 3 3 3 3 3 3 3 3 3 3 3 3 3 3 3 3 3 3 3 3 3 3 3 3 3 3 3 3 3 3 3 3 3 3 3 3 3 3 3 3 3 3 3 3 3 3 3 3 3 3 3 3 3 3 3 3 3 3 3 3 3 3 3 3 3 3 3 3 3 3 3 3 3 3 3 3 3 3 3 3 3 3 3 3 3 3 3 3 3 3 3 3 3 3 3 3 3 3 3 3 3 3 3 3 3 3 3 3 3 3 3 3 3 3 3 3 3 3 3 3 3 3 3 3 3 3 3 3 3 3 3 3 3 3 3 3 3 3 3 3 3 3 3 3 3 3 3 3 3 3 3 3 3 3 3 3 3 3 3 3 3 3 3 3 3 3 3 3 3 3 3 3 3 3 3 3 3 3 3 3 3 3 3 3 3 3 3 3 3 3 3 3 3 3 3 3 3 3 3 3 3 3 3 3 3 3 3 3 3 3 3 3 3 3 3 3 3 3 3 3 3 3 3 3 3 3 3 3 3 3 3 3 3 3 3 3 3 3 3 3 3 3 3 3 3 3 3 3 3 3 3 3 3 3 3 3 3 3 3 3 3 3 3 3 3 3 3 3 3 3 3 3 3 3 3 3 3 3 3 3 3 3 3 3 3 3 3 3 3 3 3 3 3 3 3 3 3 3 3 3 3 3 3 3 3 3 3 3 3 3 3 3 3 3 3 3 3 3 3 3 3 3 3 3 3 3 3 3 3 3 3 3 3 3 3 3 3 3 3 3 3 3 3 3 3 3 3 3 3 3 3 3 3 3 3 3 3 3 3 3 3 3 3 3 3 3 3 3 3 3 3 3 3 3 3 3 3 3 3 3 3 3 3 3 3 3 3 3 3 3 3 3 3 3 3 3 3 3 3 3 3 3 3 3 3 3 3 3 3 3 3 3 3 3 3 3 3 3 3 3 3 3 3 3 3 3 3 3 3 3 3 3 3 3 3 3 3 3 3 3 3 3 3 3 3 3 3 3 3 3 3 3 3 3 3 3 3 3 3 3 3 3 3 3 3 3 3 3 3 3 3 3 3 3 3 3 3 3 3 3 3 3 3 3 3 3 3 3 3 3 3 3 3 3 3 3 3 3 3 3 3 3 3 3 3 3 3 3 3 3 3 3 3 3 3 3 3 3 3 3 3 3 3 3 3 3 3 3 3 3 3 3 3 3 3 3 3 3 3 3 3 3 3 3 3 3 3 3 3 3 3 3 3 3 3 3 3 3 3 3 3 3 3 3 3 3 3 3 3 3 3 3 3 3 3 3 3 3 3 3 3 3 3 3 3 3 3 3 3 3 3 3 3 3 3 3 3 3 3</vcount>
                    <p>2 2 1 1 0 0 3 3 1 1 2 2 4 4 3 3 2 2 5 5 3 3 4 4 6 6 5 5 4 4 7 7 5 5 6 6 8 8 7 7 6 6 9 9 7 7 8 8 10 10 9 9 8 8 11 11 9 9 10 10 12 12 11 11 10 10 13 13 11 11 12 12 14 14 13 13 12 12 15 15 13 13 14 14 16 16 15 15 14 14 17 17 15 15 16 16 18 18 17 17 16 16 19 19 17 17 18 18 20 20 19 19 18 18 21 21 19 19 20 20 22 22 21 21 20 20 25 25 24 24 23 23 26 26 24 24 25 25 27 27 26 26 25 25 28 28 26 26 27 27 29 29 28 28 27 27 30 30 28 28 29 29 31 31 30 30 29 29 32 32 30 30 31 31 33 33 32 32 31 31 34 34 32 32 33 33 35 35 34 34 33 33 36 36 34 34 35 35 37 37 36 36 35 35 38 10 36 36 37 37 39 8 38 10 37 37 40 9 38 10 39 8 41 7 40 9 39 8 42 38 40 9 41 7 45 41 44 40 43 39 46 42 44 40 45 41 47 43 46 42 45 41 48 44 46 42 47 43 49 45 48 44 47 43 50 46 48 44 49 45 51 47 50 46 49 45 52 48 50 46 51 47 53 49 52 48 51 47 54 50 52 48 53 49 55 51 54 50 53 49 56 49 54 50 55 51 57 52 56 49 55 51 58 53 56 49 57 52 59 47 58 53 57 52 60 54 58 53 59 47 61 55 60 54 59 47 64 58 63 57 62 56 65 59 63 57 64 58 66 60 65 59 64 58 67 61 65 59 66 60 68 62 67 61 66 60 69 62 67 61 68 62 70 63 69 62 68 62 71 64 69 62 70 63 72 64 71 64 70 63 73 65 71 64 72 64 74 66 73 65 72 64 75 67 73 65 74 66 76 68 75 67 74 66 71 64 75 67 76 68 77 69 71 64 76 68 78 70 71 64 77 69 20 20 79 71 22 22 80 72 79 71 20 20 81 73 80 72 20 20 82 74 80 72 81 73 83 75 82 74 81 73 84 76 82 74 83 75 85 77 84 76 83 75 86 78 84 76 85 77 87 79 86 78 85 77 88 77 86 78 87 79 89 80 88 77 87 79 90 81 88 77 89 80 91 82 90 81 89 80 92 83 90 81 91 82 93 84 92 83 91 82 94 85 92 83 93 84 97 88 96 87 95 86 98 89 96 87 97 88 99 90 98 89 97 88 100 91 98 89 99 90 101 92 100 91 99 90 102 92 100 91 101 92 103 93 102 92 101 92 104 94 102 92 103 93 105 94 104 94 103 93 106 95 104 94 105 94 107 96 106 95 105 94 108 97 106 95 107 96 109 98 108 97 107 96 104 94 108 97 109 98 110 99 104 94 109 98 111 100 104 94 110 99 114 103 113 102 112 101 115 104 113 102 114 103 116 105 115 104 114 103 117 106 115 104 116 105 118 107 117 106 116 105 119 108 117 106 118 107 120 109 119 108 118 107 121 110 119 108 120 109 122 111 121 110 120 109 123 112 121 110 122 111 124 113 123 112 122 111 125 114 123 112 124 113 126 115 125 114 124 113 127 116 125 114 126 115 130 31 129 33 128 117 131 32 129 33 130 31 132 30 131 32 130 31 133 118 131 32 132 30 134 28 133 118 132 30 135 119 133 118 134 28 136 26 135 119 134 28 137 120 135 119 136 26 138 121 137 120 136 26 139 122 137 120 138 121 140 123 139 122 138 121 141 124 139 122 140 123 142 125 141 124 140 123 50 46 46 42 48 44 143 126 46 42 50 46 144 127 143 126 50 46 145 128 143 126 144 127 146 129 145 128 144 127 147 127 145 128 146 129 54 50 147 127 146 129 148 48 147 127 54 50 56 49 148 48 54 50 149 47 148 48 56 49 58 53 149 47 56 49 150 45 149 47 58 53 94 130 150 45 58 53 152 133 61 132 151 131 153 134 61 132 152 133 154 135 153 134 152 133 155 136 153 134 154 135 156 137 155 136 154 135 157 138 155 136 156 137 36 36 157 138 156 137 158 12 157 138 36 36 38 10 158 12 36 36 159 11 158 12 38 10 40 9 159 11 38 10 42 38 159 11 40 9 128 117 6 6 4 4 160 37 6 6 128 117 129 33 160 37 128 117 161 35 160 37 129 33 162 34 161 35 129 33 163 36 161 35 162 34 164 133 163 36 162 34 165 135 163 36 164 133 166 134 165 135 164 133 167 136 165 135 166 134 168 132 167 136 166 134 169 139 167 136 168 132 172 142 171 141 170 140 173 143 171 141 172 142 174 144 173 143 172 142 175 145 173 143 174 144 176 146 175 145 174 144 177 147 175 145 176 146 178 148 177 147 176 146 179 149 177 147 178 148 180 150 179 149 178 148 181 151 179 149 180 150 182 152 181 151 180 150 183 153 181 151 182 152 184 53 51 47 49 45 53 49 51 47 184 53 185 52 53 49 184 53 55 51 53 49 185 52 186 154 55 51 185 52 57 52 55 51 186 154 187 49 57 52 186 154 59 47 57 52 187 49 188 46 59 47 187 49 61 55 59 47 188 46 151 155 61 55 188 46 44 40 189 156 43 39 190 157 189 156 44 40 191 158 190 157 44 40 192 40 190 157 191 158 193 126 192 40 191 158 194 42 192 40 193 126 195 46 194 42 193 126 196 44 194 42 195 46 150 45 196 44 195 46 93 43 196 44 150 45 94 130 93 43 150 45 199 161 198 160 197 159 200 162 198 160 199 161 201 163 200 162 199 161 202 164 200 162 201 163 203 165 202 164 201 163 204 163 202 164 203 165 205 166 204 163 203 165 206 167 204 163 205 166 207 168 206 167 205 166 208 169 206 167 207 168 200 162 209 155 198 160 210 46 209 155 200 162 211 127 210 46 200 162 212 48 210 46 211 127 213 50 212 48 211 127 214 51 212 48 213 50 215 48 214 51 213 50 187 49 214 51 215 48 188 46 187 49 215 48 26 26 216 121 24 24 217 120 216 121 26 26 218 119 217 120 26 26 219 170 217 120 218 119 220 171 219 170 218 119 221 172 219 170 220 171 152 133 221 172 220 171 222 173 221 172 152 133 151 131 222 173 152 133 18 18 81 73 20 20 223 174 81 73 18 18 224 175 223 174 18 18 225 176 223 174 224 175 226 138 225 176 224 175 227 177 225 176 226 138 167 136 227 177 226 138 228 178 227 177 167 136 169 139 228 178 167 136 160 37 8 8 6 6 10 10 8 8 160 37 163 36 10 10 160 37 12 12 10 10 163 36 226 138 12 12 163 36 14 14 12 12 226 138 224 175 14 14 226 138 16 16 14 14 224 175 18 18 16 16 224 175 231 181 230 180 229 179 232 182 230 180 231 181 233 180 232 182 231 181 234 183 232 182 233 180 216 121 234 183 233 180 235 123 234 183 216 121 236 122 235 123 216 121 205 124 235 123 236 122 207 184 205 124 236 122 143 126 44 40 46 42 191 158 44 40 143 126 145 128 191 158 143 126 193 126 191 158 145 128 147 127 193 126 145 128 195 46 193 126 147 127 148 48 195 46 147 127 149 47 195 46 148 48 239 94 238 99 237 100 240 185 238 99 239 94 241 96 240 185 239 94 242 186 240 185 241 96 243 98 242 186 241 96 244 187 242 186 243 98 245 99 244 187 243 98 246 188 244 187 245 99 249 190 248 87 247 189 250 92 248 87 249 190 251 94 250 92 249 190 252 93 250 92 251 94 239 94 252 93 251 94 253 191 252 93 239 94 237 100 253 191 239 94 254 192 253 191 237 100 230 180 256 24 255 193 138 121 256 24 230 180 257 183 138 121 230 180 140 123 138 121 257 183 258 194 140 123 257 183 142 125 140 123 258 194 235 123 142 125 258 194 205 124 142 125 235 123 259 29 132 30 130 31 134 28 132 30 259 29 260 27 134 28 259 29 136 26 134 28 260 27 261 25 136 26 260 27 256 24 136 26 261 25 262 23 256 24 261 25 255 193 256 24 262 23 86 78 82 74 84 76 263 195 82 74 86 78 264 74 263 195 86 78 265 196 263 195 264 74 266 72 265 196 264 74 267 197 265 196 266 72 268 71 267 197 266 72 269 198 267 197 268 71 272 200 271 57 270 199 273 62 271 57 272 200 274 64 273 62 272 200 275 63 273 62 274 64 276 64 275 63 274 64 277 201 275 63 276 64 278 70 277 201 276 64 279 202 277 201 278 70 276 64 280 69 278 70 281 203 280 69 276 64 282 66 281 203 276 64 283 204 281 203 282 66 284 68 283 204 282 66 285 205 283 204 284 68 286 69 285 205 284 68 287 206 285 205 286 69 288 73 266 72 264 74 289 20 266 72 288 73 290 18 289 20 288 73 291 19 289 20 290 18 292 17 291 19 290 18 170 207 291 19 292 17 172 208 170 207 292 17 293 190 253 191 254 192 294 92 253 191 293 190 295 209 294 92 293 190 296 90 294 92 295 209 297 210 296 90 295 209 298 88 296 90 297 210 299 211 298 88 297 210 300 174 290 18 288 73 301 175 290 18 300 174 302 176 301 175 300 174 157 138 301 175 302 176 303 177 157 138 302 176 155 136 157 138 303 177 304 178 155 136 303 177 271 57 306 58 305 56 307 59 306 58 271 57 308 61 307 59 271 57 309 60 307 59 308 61 310 62 309 60 308 61 311 212 309 60 310 62 312 200 311 212 310 62 315 70 314 201 313 202 72 64 314 201 315 70 316 69 72 64 315 70 317 203 72 64 316 69 318 213 317 203 316 69 283 204 317 203 318 213 281 203 283 204 318 213 217 120 236 122 216 121 319 214 236 122 217 120 219 170 319 214 217 120 320 215 319 214 219 170 221 172 320 215 219 170 222 173 320 215 221 172 310 62 275 63 277 201 273 62 275 63 310 62 308 61 273 62 310 62 321 216 273 62 308 61 271 57 321 216 308 61 273 62 321 216 271 57 284 68 274 64 286 69 322 67 274 64 284 68 282 66 322 67 284 68 323 65 322 67 282 66 276 64 323 65 282 66 274 64 323 65 276 64 118 107 122 111 120 109 324 217 122 111 118 107 116 105 324 217 118 107 325 218 324 217 116 105 114 103 325 218 116 105 326 219 325 218 114 103 294 92 252 93 253 191 250 92 252 93 294 92 327 91 250 92 294 92 328 220 250 92 327 91 248 87 328 220 327 91 250 92 328 220 248 87 329 214 137 120 139 122 330 170 137 120 329 214 331 215 330 170 329 214 332 172 330 170 331 215 198 173 332 172 331 215 164 133 332 172 198 173 243 98 251 94 245 99 333 97 251 94 243 98 241 96 333 97 243 98 334 95 333 97 241 96 239 94 334 95 241 96 251 94 334 95 239 94 335 184 139 122 141 124 329 214 139 122 335 184 336 221 329 214 335 184 331 215 329 214 336 221 197 222 331 215 336 221 198 173 331 215 197 222 339 225 338 224 337 223 340 226 338 224 339 225 341 227 340 226 339 225 342 228 340 226 341 227 343 229 342 228 341 227 344 230 342 228 343 229 345 200 71 64 78 70 69 62 71 64 345 200 63 57 69 62 345 200 346 216 69 62 63 57 67 61 346 216 63 57 69 62 346 216 67 61 348 232 337 223 347 231 339 225 337 223 348 232 349 233 339 225 348 232 341 227 339 225 349 233 350 234 341 227 349 233 343 229 341 227 350 234 171 141 351 235 170 140 352 236 351 235 171 141 173 143 352 236 171 141 353 237 352 236 173 143 175 145 353 237 173 143 354 238 353 237 175 145 357 241 356 240 355 239 358 242 356 240 357 241 359 243 358 242 357 241 340 226 358 242 359 243 338 224 340 226 359 243 361 245 112 101 360 244 114 103 112 101 361 245 362 246 114 103 361 245 326 219 114 103 362 246 363 247 326 219 362 246 364 197 79 71 80 72 365 198 79 71 364 197 366 248 365 198 364 197 367 249 365 198 366 248 368 250 367 249 366 248 369 251 342 228 344 230 356 240 342 228 369 251 370 252 356 240 369 251 355 239 356 240 370 252 371 253 355 239 370 252 11 11 373 254 372 38 374 255 373 254 11 11 13 13 374 255 11 11 375 256 374 255 13 13 376 257 375 256 13 13 248 87 298 88 299 86 377 89 298 88 248 87 327 91 377 89 248 87 296 90 377 89 327 91 294 92 296 90 327 91 210 46 168 55 209 155 378 47 168 55 210 46 379 49 378 47 210 46 185 52 378 47 379 49 186 154 185 52 379 49 363 247 381 258 380 116 382 259 381 258 363 247 183 153 382 259 363 247 383 260 382 259 183 153 182 152 383 260 183 153 202 164 211 127 200 162 384 129 211 127 202 164 385 127 384 129 202 164 213 50 384 129 385 127 215 48 213 50 385 127 388 263 387 262 386 261 389 264 387 262 388 263 369 251 389 264 388 263 390 265 389 264 369 251 344 230 390 265 369 251 393 15 392 257 391 266 394 13 392 257 393 15 395 14 394 13 393 15 158 12 394 13 395 14 157 138 158 12 395 14 100 91 96 87 98 89 396 220 96 87 100 91 102 92 396 220 100 91 96 87 396 220 102 92 397 190 96 87 102 92 398 248 265 196 267 197 399 267 265 196 398 248 400 268 399 267 398 248 366 248 399 267 400 268 368 250 366 248 400 268 401 269 181 151 183 153 179 149 181 151 401 269 354 238 179 149 401 269 177 147 179 149 354 238 175 145 177 147 354 238 402 117 33 33 31 31 37 37 33 33 402 117 403 6 37 37 402 117 39 8 37 37 403 6 41 7 39 8 403 6 223 174 83 75 81 73 404 81 83 75 223 174 405 83 404 81 223 174 45 82 404 81 405 83 47 84 45 82 405 83 407 99 105 94 406 100 408 185 105 94 407 99 409 270 408 185 407 99 242 186 408 185 409 270 240 185 242 186 409 270 410 162 151 155 188 46 222 160 151 155 410 162 411 161 222 160 410 162 412 159 222 160 411 161 208 169 412 159 411 161 17 17 337 208 15 15 347 207 337 208 17 17 19 19 347 207 17 17 413 271 347 207 19 19 21 21 413 271 19 19 141 166 203 165 201 163 414 272 203 165 141 166 142 273 414 272 141 166 205 166 414 272 142 273 28 28 218 119 26 26 415 118 218 119 28 28 30 30 415 118 28 28 32 32 415 118 30 30 336 169 199 161 197 159 416 167 199 161 336 169 335 168 416 167 336 169 141 166 416 167 335 168 395 14 301 175 157 138 417 16 301 175 395 14 393 15 417 16 395 14 292 17 417 16 393 15 418 75 288 73 264 74 300 174 288 73 418 75 90 81 300 174 418 75 92 83 300 174 90 81 419 130 49 45 47 43 184 53 49 45 419 130 228 274 184 53 419 130 169 54 184 53 228 274 420 196 366 248 364 197 399 267 366 248 420 196 263 195 399 267 420 196 265 196 399 267 263 195 421 76 264 74 86 78 418 75 264 74 421 76 88 77 418 75 421 76 90 81 418 75 88 77 424 277 423 276 422 275 425 278 423 276 424 277 324 112 425 278 424 277 325 218 425 278 324 112 125 114 426 218 123 112 427 279 426 218 125 114 127 116 427 279 125 114 387 262 427 279 127 116 124 113 422 275 126 115 424 277 422 275 124 113 122 111 424 277 124 113 324 112 424 277 122 111 385 127 188 46 215 48 410 162 188 46 385 127 202 164 410 162 385 127 204 163 410 162 202 164 121 110 428 280 119 108 429 281 428 280 121 110 123 112 429 281 121 110 426 282 429 281 123 112 330 170 135 119 137 120 430 171 135 119 330 170 332 172 430 171 330 170 164 133 430 171 332 172 309 60 306 58 307 59 431 283 306 58 309 60 311 212 431 283 309 60 432 284 431 283 311 212 362 246 183 153 363 247 401 269 183 153 362 246 361 245 401 269 362 246 433 285 401 269 361 245 435 287 390 265 434 286 436 288 390 265 435 287 437 289 436 288 435 287 438 290 436 288 437 289 429 281 438 290 428 280 436 288 438 290 429 281 426 282 436 288 429 281 439 291 436 288 426 282 258 194 234 183 235 123 232 182 234 183 258 194 257 183 232 182 258 194 230 180 232 182 257 183 349 233 440 292 350 234 21 293 440 292 349 233 413 294 21 293 349 233 43 80 404 81 45 82 85 77 404 81 43 80 87 79 85 77 43 80 155 136 61 132 153 134 60 139 61 132 155 136 304 178 60 139 155 136 225 176 405 83 223 174 419 85 405 83 225 176 228 178 419 85 225 176 378 47 169 54 168 55 184 53 169 54 378 47 185 52 184 53 378 47 34 34 415 118 32 32 220 171 415 118 34 34 152 133 220 171 34 34 389 264 439 291 387 262 436 288 439 291 389 264 390 265 436 288 389 264 352 236 441 295 351 235 442 296 441 295 352 236 443 297 442 296 352 236 446 210 445 299 444 298 95 211 445 299 446 210 97 88 95 211 446 210 446 210 99 90 97 88 447 209 99 90 446 210 444 298 447 209 446 210 164 133 168 132 166 134 209 131 168 132 164 133 198 173 209 131 164 133 24 24 448 193 23 23 233 180 448 193 24 24 216 121 233 180 24 24 449 137 167 136 226 138 165 135 167 136 449 137 163 36 165 135 449 137 450 191 103 93 101 92 105 94 103 93 450 191 406 100 105 94 450 191 450 191 451 192 406 100 452 190 451 192 450 191 101 92 452 190 450 191 398 248 368 250 400 268 453 249 368 250 398 248 269 198 453 249 398 248 314 201 454 200 313 202 68 62 454 200 314 201 70 63 68 62 314 201 302 176 304 178 303 177 94 85 304 178 302 176 92 83 94 85 302 176 457 283 456 300 455 284 62 301 456 300 457 283 64 58 62 301 457 283 394 13 458 256 392 257 459 255 458 256 394 13 159 11 459 255 394 13 420 196 82 74 263 195 80 72 82 74 420 196 364 197 80 72 420 196 96 87 445 302 95 210 460 189 445 302 96 87 397 190 460 189 96 87 15 15 376 257 13 13 461 266 376 257 15 15 337 208 461 266 15 15 289 20 268 71 266 72 462 22 268 71 289 20 441 21 462 22 289 20 63 57 456 303 62 283 463 199 456 303 63 57 345 200 463 199 63 57 466 3 465 4 464 2 467 5 465 4 466 3 468 304 318 213 316 69 280 69 318 213 468 304 469 305 353 237 354 238 443 297 353 237 469 305 208 221 319 214 320 215 207 184 319 214 208 221 290 18 417 16 292 17 301 175 417 16 290 18 470 70 274 64 272 200 286 69 274 64 470 70 471 303 271 57 305 283 270 199 271 57 471 303 471 300 431 283 432 284 305 301 431 283 471 300 68 62 472 212 454 200 66 60 472 212 68 62 172 208 393 15 391 266 292 17 393 15 172 208 465 4 403 6 402 117 467 5 403 6 465 4 473 307 387 262 127 306 386 261 387 262 473 307 433 285 354 238 401 269 469 305 354 238 433 285 412 222 320 215 222 173 208 221 320 215 412 222 312 200 277 201 279 202 310 62 277 201 312 200 110 99 244 187 246 188 109 98 244 187 110 99 351 271 291 19 170 207 441 21 291 19 351 271 317 203 74 66 72 64 283 204 74 66 317 203 154 135 36 36 156 137 152 133 36 36 154 135 474 254 159 11 42 38 459 255 159 11 474 254 189 156 192 40 89 39 190 157 192 40 189 156 91 41 192 40 194 42 89 39 192 40 91 41 475 100 251 94 249 190 245 99 251 94 475 100 93 43 194 42 196 44 91 41 194 42 93 43 58 53 304 274 94 130 60 54 304 274 58 53 104 94 397 190 102 92 111 100 397 190 104 94 52 48 144 127 50 46 54 50 144 127 52 48 388 263 370 252 369 251 371 253 370 252 388 263 1 1 464 2 0 0 466 3 464 2 1 1 189 308 87 79 43 80 89 80 87 79 189 308 472 212 457 283 455 284 66 60 457 283 472 212 380 116 425 278 363 262 423 276 425 278 380 116 326 219 425 278 325 218 363 262 425 278 326 219 413 294 348 232 347 231 349 233 348 232 413 294 342 228 358 242 340 226 356 240 358 242 342 228 439 219 427 279 387 262 426 218 427 279 439 219 162 34 430 171 164 133 133 118 430 171 162 34 476 309 409 270 407 99 238 99 409 270 476 309 408 185 107 96 105 94 242 186 107 96 408 185 77 69 285 205 287 206 76 68 285 205 77 69 447 209 101 92 99 90 452 190 101 92 447 209 76 68 283 204 285 205 74 66 283 204 76 68 477 310 388 263 386 261 371 253 388 263 477 310 186 154 214 51 187 49 379 49 214 51 186 154 212 48 379 49 210 46 214 51 379 49 212 48 204 163 411 161 410 162 206 167 411 161 204 163 478 302 248 87 299 210 247 189 248 87 478 302 109 98 242 186 244 187 107 96 242 186 109 98 131 32 162 34 129 33 133 118 162 34 131 32 416 167 201 163 199 161 141 166 201 163 416 167 479 298 297 210 295 209 478 299 297 210 479 298 9 9 372 38 7 7 11 11 372 38 9 9 269 198 398 248 267 197 66 60 64 58 457 283 85 77 83 75 404 81 72 64 70 63 314 201 280 69 281 203 318 213 63 57 65 59 67 61 443 297 352 236 353 237 419 85 47 84 405 83 430 171 133 118 135 119 251 94 333 97 334 95 228 178 225 176 227 177 136 26 256 24 138 121 480 179 233 180 231 181 296 90 298 88 377 89 54 50 146 129 144 127 297 210 478 299 299 211 150 45 195 46 149 47 274 64 322 67 323 65 206 167 208 169 411 161 211 127 384 129 213 50 205 166 203 165 414 272 238 99 240 185 409 270 226 138 163 36 449 137 37 37 35 35 33 33 467 5 41 7 403 6 160 37 161 35 163 36 104 94 106 95 108 97 152 133 34 34 36 36 319 214 207 184 236 122 220 171 218 119 415 118 291 19 441 21 289 20 158 12 159 11 394 13 431 283 305 301 306 58 88 77 421 76 86 78 302 176 300 174 92 83 71 64 73 65 75 67</p>
                </polylist>
            </mesh>
        </geometry>
        <geometry id="mesh1">
            <mesh>
                <source id="points1">
                    <float_array id="pointarray1" count="363">68.4296875 4.72265625 16.06640625 53.5546875 5.70703125 16.37890625 71.66015625 6.21875 0.54296875 51.15234375 4.8359375 -0.1640625 54.78515625 5.59375 -16.51171875 41.62890625 0.2734375 -0.45703125 43.68359375 -2.28515625 -18.2734375 38.58984375 -3.86328125 -15.78125 37.65625 -6.23046875 -22.41015625 33.50390625 -5.953125 -0.6875 35.59375 -9.83984375 -10.74609375 34.1796875 -7.26953125 -0.65234375 37.328125 -9.03515625 -0.5234375 34.83203125 -9.76953125 9.5625 37.7109375 -10.04296875 8.19921875 36.79296875 -7.3515625 22.17578125 39.5625 -9.2890625 18.921875 44.32421875 -4.890625 26.58203125 46.3125 -7.08984375 22.5078125 55.6640625 1.96875 25.56640625 57.66796875 -0.2265625 21.0390625 73.234375 2.02734375 16.91796875 70.10546875 -1.078125 14.27734375 74.296875 0.5078125 0.69140625 56.66796875 -2.26171875 8 56.0859375 -0.98828125 0.05859375 45.88671875 -8.98828125 8.75390625 45.09375 -7.3203125 -0.265625 46.55859375 -9.05078125 -9.12890625 38.359375 -10.10546875 -9.1328125 41.01171875 -9.421875 -19.7578125 38.4921875 -7.5078125 -23.234375 46.3359375 -5.07421875 -27.14453125 45.28125 -3.86328125 -26.125 63.67578125 -53.38671875 -8.703125 63.86328125 -52.6328125 -11.46484375 63.0234375 -56.7265625 -10.69921875 63.43359375 -54.8359375 -12.75 61.84375 -58.62109375 -14.0078125 62.65234375 -56.0859375 -14.8828125 60.44921875 -58.55859375 -18.25 61.734375 -56.046875 -17.77734375 59.21484375 -56.55859375 -21.41796875 60.91796875 -54.7265625 -19.8203125 58.46875 -53.15625 -23.1640625 60.42578125 -52.48046875 -20.9453125 58.4140625 -49.26171875 -23.0234375 60.390625 -49.91015625 -20.8515625 59.06640625 -45.91796875 -21.02734375 60.8203125 -47.70703125 -19.56640625 60.24609375 -44.02734375 -17.21875 61.59765625 -46.45703125 -16.94921875 61.640625 -44.0859375 -13.4765625 62.51953125 -46.49609375 -14.5390625 62.875 -46.0859375 -10.30859375 63.33203125 -47.81640625 -12.49609375 63.62109375 -49.4921875 -8.5625 63.82421875 -50.0625 -11.37109375 63.67578125 -53.38671875 8.703125 63.82421875 -50.0625 11.37109375 63.62109375 -49.4921875 8.5625 63.33203125 -47.81640625 12.49609375 62.875 -46.0859375 10.30859375 62.51953125 -46.49609375 14.5390625 61.640625 -44.0859375 13.4765625 61.59765625 -46.45703125 16.94921875 60.24609375 -44.02734375 17.21875 60.8203125 -47.70703125 19.56640625 59.06640625 -45.91796875 21.02734375 60.390625 -49.91015625 20.8515625 58.4140625 -49.26171875 23.0234375 60.42578125 -52.48046875 20.9453125 58.46875 -53.15625 23.1640625 60.91796875 -54.7265625 19.8203125 59.21484375 -56.55859375 21.41796875 61.734375 -56.046875 17.77734375 60.44921875 -58.55859375 18.25 62.65234375 -56.0859375 14.8828125 61.84375 -58.62109375 14.0078125 64.3671875 -54.3125 12.75 63.0234375 -56.7265625 10.69921875 63.86328125 -52.6328125 11.46484375 57.2578125 -2.31640625 -7.7890625 48.01171875 -7.24609375 -22.8984375 59.23046875 -0.37109375 -20.76171875 57.5703125 1.79296875 -25.45703125 74.453125 1.9140625 -15.59375 56.39453125 4.01171875 -24.546875 69.59765625 4.6171875 -15.1328125 60.34765625 -40.109375 20.67578125 62.1640625 -41.6640625 16.1875 63.359375 -43.171875 11.03515625 64.4375 -44.1796875 5.05078125 64.69140625 -48.69140625 0 64.9140625 -52.68359375 0 57.39453125 -37.87890625 -25.07421875 55.90234375 -39.74609375 -28.3203125 60.34765625 -40.109375 -20.67578125 54.38671875 -43.08984375 -31.234375 53.91015625 -47.02734375 -32.19921875 54.62890625 -49.484375 -31.39453125 57.03515625 -51.3515625 -28.9921875 42.34375 -2.16015625 17.5 37.44921875 -3.7578125 14.6796875 36.01953125 -6.078125 21.2734375 54.5546875 4.1796875 24.53125 43.3515625 -3.6875 25.46875 57.03515625 -51.3515625 28.9921875 54.62890625 -49.484375 31.39453125 53.91015625 -47.02734375 32.19921875 54.38671875 -43.08984375 31.234375 64.58203125 -44.34375 0 64.4375 -44.1796875 -5.05078125 71.1328125 -1.17578125 -13.125 77.46875 3.25390625 0.77734375 63.10546875 -51.24609375 16.26953125 63.10546875 -51.24609375 -16.26953125 62.1640625 -41.6640625 -16.1875 63.359375 -43.171875 -11.03515625 57.39453125 -37.87890625 25.07421875 55.90234375 -39.74609375 28.3203125</float_array>
                    <technique_common>
                        <accessor count="121" source="#pointarray1" stride="3">
                            <param name="X" type="float"/>
                            <param name="Y" type="float"/>
                            <param name="Z" type="float"/>
                        </accessor>
                    </technique_common>
                </source>
                <source id="uvs1">
                    <float_array id="uvarray1" count="198">0.56634521484375 0.27252197265625 0.56402587890625 0.29986572265625 0.5391845703125 0.2596435546875 0.5391845703125 0.29986572265625 0.5391845703125 0.32537841796875 0.5662841796875 0.32537841796875 0.56207275390625 0.3280029296875 0.57257080078125 0.32928466796875 0.5391845703125 0.33062744140625 0.5540771484375 0.330810546875 0.5391845703125 0.330810546875 0.5391845703125 0.330078125 0.54888916015625 0.330078125 0.57391357421875 0.32940673828125 0.568603515625 0.3289794921875 0.58050537109375 0.32537841796875 0.57391357421875 0.32537841796875 0.578369140625 0.29986572265625 0.57110595703125 0.29986572265625 0.56756591796875 0.26995849609375 0.5628662109375 0.2799072265625 0.5391845703125 0.268798828125 0.55047607421875 0.29986572265625 0.5491943359375 0.32672119140625 0.5391845703125 0.32757568359375 0.57879638671875 0.32537841796875 0.13232421875 0.4674072265625 0.13134765625 0.46771240234375 0.13153076171875 0.46600341796875 0.13079833984375 0.466796875 0.130126953125 0.4652099609375 0.1298828125 0.46630859375 0.12835693359375 0.46527099609375 0.12860107421875 0.46630859375 0.12701416015625 0.466064453125 0.12774658203125 0.46685791015625 0.12628173828125 0.467529296875 0.12725830078125 0.4677734375 0.1263427734375 0.4691162109375 0.1273193359375 0.4688720703125 0.127197265625 0.47052001953125 0.12786865234375 0.46978759765625 0.1287841796875 0.4713134765625 0.12896728515625 0.47027587890625 0.13037109375 0.4713134765625 0.1300048828125 0.47027587890625 0.13165283203125 0.470458984375 0.130859375 0.4697265625 0.13238525390625 0.46905517578125 0.13134765625 0.46881103515625 0.1278076171875 0.46978759765625 0.12725830078125 0.4688720703125 0.12982177734375 0.46630859375 0.1307373046875 0.466796875 0.13128662109375 0.46771240234375 0.57684326171875 0.29986572265625 0.1414794921875 0.4951171875 0.143310546875 0.4287109375 0.11749267578125 0.47698974609375 0.1109619140625 0.44989013671875 0.0938720703125 0.47760009765625 0.0784912109375 0.46429443359375 0.07391357421875 0.49676513671875 0.04071044921875 0.47393798828125 0.0628662109375 0.529296875 0.00885009765625 0.51715087890625 0.06378173828125 0.56658935546875 0.00885009765625 0.555419921875 0.1668701171875 0.41363525390625 0.18731689453125 0.4315185546875 0.14312744140625 0.4287109375 0.2056884765625 0.4635009765625 0.14129638671875 0.4951171875 0.2117919921875 0.501220703125 0.1588134765625 0.527099609375 0.20672607421875 0.54449462890625 0.18902587890625 0.5740966796875 0.189208984375 0.5740966796875 0.20684814453125 0.54449462890625 0.15899658203125 0.527099609375 0.21197509765625 0.501220703125 0.20587158203125 0.4635009765625 0.00885009765625 0.49859619140625 0.04052734375 0.47393798828125 0.06268310546875 0.529296875 0.07373046875 0.49676513671875 0.5391845703125 0.2564697265625 0.1292724609375 0.46832275390625 0.11077880859375 0.44989013671875 0.1173095703125 0.47698974609375 0.07830810546875 0.46429443359375 0.09368896484375 0.47760009765625 0.1588134765625 0.58551025390625 0.162109375 0.56439208984375 0.0635986328125 0.56658935546875 0.15899658203125 0.58551025390625 0.16229248046875 0.56439208984375 0.16705322265625 0.41363525390625 0.1875 0.4315185546875</float_array>
                    <technique_common>
                        <accessor count="99" source="#uvarray1" stride="2">
                            <param name="S" type="float"/>
                            <param name="T" type="float"/>
                        </accessor>
                    </technique_common>
                </source>
                <vertices id="vertices1">
                    <input semantic="POSITION" source="#points1"/>
                </vertices>
                <polylist count="204" material="Material1">
                    <input offset="0" semantic="VERTEX" source="#vertices1"/>
                    <input offset="1" semantic="TEXCOORD" source="#uvs1" set="0"/>
                    <vcount>3 3 3 3 3 3 3 3 3 3 3 3 3 3 3 3 3 3 3 3 3 3 3 3 3 3 3 3 3 3 3 3 3 3 3 3 3 3 3 3 3 3 3 3 3 3 3 3 3 3 3 3 3 3 3 3 3 3 3 3 3 3 3 3 3 3 3 3 3 3 3 3 3 3 3 3 3 3 3 3 3 3 3 3 3 3 3 3 3 3 3 3 3 3 3 3 3 3 3 3 3 3 3 3 3 3 3 3 3 3 3 3 3 3 3 3 3 3 3 3 3 3 3 3 3 3 3 3 3 3 3 3 3 3 3 3 3 3 3 3 3 3 3 3 3 3 3 3 3 3 3 3 3 3 3 3 3 3 3 3 3 3 3 3 3 3 3 3 3 3 3 3 3 3 3 3 3 3 3 3 3 3 3 3 3 3 3 3 3 3 3 3 3 3 3 3 3 3 3 3 3 3 3 3</vcount>
                    <p>2 2 1 1 0 0 3 3 1 1 2 2 4 1 3 3 2 2 5 4 3 3 4 1 6 5 5 4 4 1 7 6 5 4 6 5 8 7 7 6 6 5 9 8 7 6 8 7 10 9 9 8 8 7 11 10 9 8 10 9 12 11 11 10 10 9 13 9 11 10 12 11 14 12 13 9 12 11 15 13 13 9 14 12 16 14 15 13 14 12 17 15 15 13 16 14 18 16 17 15 16 14 19 17 17 15 18 16 20 18 19 17 18 16 21 19 19 17 20 18 22 20 21 19 20 18 23 21 21 19 22 20 24 22 23 21 22 20 25 3 23 21 24 22 26 23 25 3 24 22 27 24 25 3 26 23 12 11 27 24 26 23 28 23 27 24 12 11 29 12 28 23 12 11 30 14 28 23 29 12 31 13 30 14 29 12 32 15 30 14 31 13 8 7 32 15 31 13 33 25 32 15 8 7 6 5 33 25 8 7 4 1 33 25 6 5 36 28 35 27 34 26 37 29 35 27 36 28 38 30 37 29 36 28 39 31 37 29 38 30 40 32 39 31 38 30 41 33 39 31 40 32 42 34 41 33 40 32 43 35 41 33 42 34 44 36 43 35 42 34 45 37 43 35 44 36 46 38 45 37 44 36 47 39 45 37 46 38 48 40 47 39 46 38 49 41 47 39 48 40 50 42 49 41 48 40 51 43 49 41 50 42 52 44 51 43 50 42 53 45 51 43 52 44 54 46 53 45 52 44 55 47 53 45 54 46 56 48 55 47 54 46 57 49 55 47 56 48 34 26 57 49 56 48 35 27 57 49 34 26 60 48 59 49 58 26 61 47 59 49 60 48 62 46 61 47 60 48 63 45 61 47 62 46 64 44 63 45 62 46 65 43 63 45 64 44 66 42 65 43 64 44 67 50 65 43 66 42 68 40 67 50 66 42 69 51 67 50 68 40 70 38 69 51 68 40 71 37 69 51 70 38 72 36 71 37 70 38 73 35 71 37 72 36 74 34 73 35 72 36 75 33 73 35 74 34 76 32 75 33 74 34 77 52 75 33 76 32 78 30 77 52 76 32 79 53 77 52 78 30 80 28 79 53 78 30 81 54 79 53 80 28 58 26 81 54 80 28 59 49 81 54 58 26 28 23 25 3 27 24 82 22 25 3 28 23 83 16 82 22 28 23 84 18 82 22 83 16 85 17 84 18 83 16 86 19 84 18 85 17 87 55 86 19 85 17 88 0 86 19 87 55 4 1 88 0 87 55 2 2 88 0 4 1 66 58 89 57 68 56 90 59 89 57 66 58 64 60 90 59 66 58 91 61 90 59 64 60 62 62 91 61 64 60 92 63 91 61 62 62 60 64 92 63 62 62 93 65 92 63 60 64 58 66 93 65 60 64 94 67 93 65 58 66 97 70 96 69 95 68 98 71 96 69 97 70 48 72 98 71 97 70 99 73 98 71 48 72 46 74 99 73 48 72 100 75 99 73 46 74 101 76 100 75 46 74 5 4 1 1 3 3 102 5 1 1 5 4 103 6 102 5 5 4 104 7 102 5 103 6 9 8 104 7 103 6 105 55 21 19 0 0 19 17 21 19 105 55 106 25 19 17 105 55 17 15 19 17 106 25 104 7 17 15 106 25 70 79 108 78 107 77 109 80 108 78 70 79 68 56 109 80 70 79 110 81 109 80 68 56 89 57 110 81 68 56 13 9 9 8 11 10 104 7 9 8 13 9 15 13 104 7 13 9 17 15 104 7 15 13 1 1 105 55 0 0 106 25 105 55 1 1 102 5 106 25 1 1 104 7 106 25 102 5 93 65 111 82 92 63 112 83 111 82 93 65 56 84 112 83 93 65 54 85 112 83 56 84 82 22 23 21 25 3 113 20 23 21 82 22 84 18 113 20 82 22 86 19 113 20 84 18 86 19 23 21 113 20 114 86 23 21 86 19 88 0 114 86 86 19 2 2 114 86 88 0 115 87 71 37 73 35 69 51 71 37 115 87 67 50 69 51 115 87 115 87 65 43 67 50 63 45 65 43 115 87 61 47 63 45 115 87 115 87 59 49 61 47 81 54 59 49 115 87 79 53 81 54 115 87 115 87 77 52 79 53 75 33 77 52 115 87 73 35 75 33 115 87 114 86 21 19 23 21 0 0 21 19 114 86 2 2 0 0 114 86 116 87 53 45 55 47 51 43 53 45 116 87 49 41 51 43 116 87 116 87 47 39 49 41 45 37 47 39 116 87 43 35 45 37 116 87 30 14 83 16 28 23 32 15 83 16 30 14 31 13 10 9 8 7 29 12 10 9 31 13 32 15 85 17 83 16 33 25 85 17 32 15 33 25 87 55 85 17 4 1 87 55 33 25 5 4 9 8 103 6 7 6 9 8 5 4 14 12 26 23 16 14 12 11 26 23 14 12 18 16 26 23 24 22 16 14 26 23 18 16 20 18 24 22 22 20 18 16 24 22 20 18 41 33 116 87 39 31 43 35 116 87 41 33 37 29 116 87 35 27 39 31 116 87 37 29 57 49 116 87 55 47 35 27 116 87 57 49 50 89 97 70 117 88 48 72 97 70 50 89 52 91 117 88 118 90 50 89 117 88 52 91 54 85 118 90 112 83 52 91 118 90 54 85 101 76 44 93 42 92 46 74 44 93 101 76 34 94 93 65 94 67 56 84 93 65 34 94 72 96 107 77 74 95 70 79 107 77 72 96 120 98 89 57 119 97 110 81 89 57 120 98 10 9 29 12 12 11</p>
                </polylist>
            </mesh>
        </geometry>
    </library_geometries>
    <library_visual_scenes>
        <visual_scene id="VisualSceneNode">
            <node id="node0" name="m0" type="NODE">
                <instance_geometry url="#mesh0">
                    <bind_material>
                        <technique_common>
                            <instance_material symbol="Material1" target="#mat1">
                                <bind_vertex_input semantic="UVSET0" input_semantic="TEXCOORD" input_set="0"></bind_vertex_input>
                            </instance_material>
                        </technique_common>
                    </bind_material>
                </instance_geometry>
            </node>
            <node id="node1" name="m1" type="NODE">
                <instance_geometry url="#mesh1">
                    <bind_material>
                        <technique_common>
                            <instance_material symbol="Material1" target="#mat0">
                                <bind_vertex_input semantic="UVSET0" input_semantic="TEXCOORD" input_set="0"></bind_vertex_input>
                            </instance_material>
                        </technique_common>
                    </bind_material>
                </instance_geometry>
            </node>
        </visual_scene>
    </library_visual_scenes>
    <scene>
        <instance_visual_scene url="#VisualSceneNode"></instance_visual_scene>
    </scene>
</COLLADA>
