<?xml version="1.0"?>
<COLLADA xmlns="http://www.collada.org/2005/11/COLLADASchema" version="1.4.1">
    <asset>
        <contributor>
            <authoring_tool>J3D Ripoff Exporter</authoring_tool>
        </contributor>
        <created>2024-08-19T02:28:17.802Z</created>
        <modified>2024-08-19T02:28:17.802Z</modified>
		<unit meter="0.01" name="centimeter" ></unit>
        <up_axis>Y_UP</up_axis>
    </asset>
    <library_images>
        <image id="tex0">
            <init_from>konfu_body.png</init_from>
        </image>
    </library_images>
    <library_effects>
        <effect id="effect0">
            <profile_COMMON>
                <newparam sid="surface0">
                    <surface type="2D">
                        <init_from>tex0</init_from>
                    </surface>
                </newparam>
                <newparam sid="sampler0">
                    <sampler2D>
                        <source>surface0</source>
                    </sampler2D>
                </newparam>
                <technique sid="COMMON">
                    <blinn>
                        <diffuse>
                            <texture texture="sampler0" texcoord="UVSET0"></texture>
                        </diffuse>
                    </blinn>
                </technique>
            </profile_COMMON>
        </effect>
    </library_effects>
    <library_materials>
        <material id="mat0" name="Skin_etc">
            <instance_effect url="#effect0"></instance_effect>
        </material>
    </library_materials>
    <library_geometries>
        <geometry id="mesh0">
            <mesh>
                <source id="points0">
                    <float_array id="pointarray0" count="777">-24.62471846425408 -12.26171875 -413.2976801958981 -9.919640917928536 -23.55078125 -413.2852565085449 -23.843132990243422 -11.900390625 -420.29568961101126 -8.868483839863783 -23.58984375 -421.125049876804 -22.843586731745443 -10.63671875 -451.5729854803393 -6.073993518209638 -22.072265625 -452.86515032498454 -24.935734164859802 -9.75 -485.0027733128737 -5.904456378732059 -21.947265625 -485.5819391102446 -6.704679782569414 -20.640625 -497.21869623501544 21.01744490025518 -16.931640625 -486.1294766440093 19.15477280666737 -15.921875 -498.83659720206055 31.56890045861469 2.591796875 -500.19537709066947 15.585110193923267 -16.41796875 -512.3934089664184 27.552028586412376 1.0078125 -514.9279915448581 9.889487868831763 -18.287109375 -546.6729789196152 22.32493716748459 -1.892578125 -544.637226532199 8.330165109203383 -16.248046875 -572.2082099503361 16.90459442235399 -5.287109375 -576.6003770362817 13.309593898111961 -3.67578125 -591.2567993915611 11.578298868753386 10.564453125 -574.0205542422048 8.180450396562442 8.173828125 -586.3078265186153 -1.323377017623507 -0.349609375 -628.6950009152445 1.7152424235492036 3.0625 -619.4526677381841 -3.4411573779090596 6.279296875 -616.3279149239569 5.224354697067144 6.962890625 -605.8235932514273 -3.6902005653507257 12.181640625 -595.5447237137987 -6.18508554291922 13.388671875 -580.0174995466579 -5.560763515675142 15.93359375 -565.8748914764316 -21.400548541706254 7.54296875 -567.1002601861971 -4.032552090551948 19.69921875 -543.2322400654609 -21.684816047837185 8.9453125 -544.8971487880036 -3.6220478085049006 23.890625 -509.74979847308504 -24.223360949169702 10.90234375 -514.9519579472811 -22.657742032396943 10.884765625 -498.5280547502021 -26.750640091831748 -8.044921875 -516.2997353524537 -25.870700160657165 -7.8828125 -497.1200056475359 -6.92366941422626 3.65625 -614.4472224927205 -12.53198806722968 6.404296875 -595.7404600748386 -19.372677003899465 5.64453125 -578.1099286110067 -23.13684763953068 -6.458984375 -567.7058121722287 -24.864572549209385 -8.689453125 -543.4578480936699 9.706818138465435 -2.939453125 -606.6905658704658 5.745155107134846 -14.39453125 -591.5559901437143 4.484130622175289 -10.015625 -606.0384724868042 -8.374246634636172 -15.37890625 -586.1094013734559 -3.7290487471185116 -9.43359375 -600.0154287062539 -12.143091575231367 -2.0546875 -600.4259883121614 -2.9274988925341483 -5.9453125 -616.0485934246892 -7.271387365742669 -1.693359375 -613.1601297852708 14.322128310728678 12.6171875 -404.559485012796 15.619935672938569 13.51171875 -424.00864157038404 20.613047770886055 -4.1796875 -402.5533240591129 23.234827635688525 -3.6328125 -416.8656983917247 10.331657057389231 -18.375 -399.61827005377614 10.930067680505609 -19.224609375 -415.3545695100324 -9.146978203876294 -22.90234375 -397.1231100747885 -23.79536971490394 -12.185546875 -398.0827966707945 12.237313151313156 -20.30859375 -427.9716943573227 18.477050990056107 -18.904296875 -458.35616089442095 24.921248166683593 -4.15234375 -435.0902269434266 30.5533929761894 -2.5390625 -461.9044101034374 22.256566111344664 15.546875 -462.9087140908858 24.614974839771513 18.794921875 -483.49453855628707 -21.547069596863455 8.869140625 -484.85026711566786 -20.32585084373801 8.177734375 -454.8638804129848 0.23885093788835302 20.568359375 -460.0503945808143 -4.483163277177604 17.943359375 -432.70101154001816 16.593213528830855 12.736328125 -436.9753918029367 4.309064140853492 -1.9453125 -620.9486371463371 1.9906334227512255 -6.181640625 -619.4604670363995 0.43136473237699224 22.611328125 -483.1539010035652 23.45361946539148 20.529296875 -499.2231098728349 -0.6909587589318312 24.41015625 -498.24379857325454 -22.282356537222086 5.90234375 -425.08467729544657 -22.589490589937554 6.341796875 -414.79172325712307 32.2576326347917 1.125 -485.1562815566962 -20.405778820469504 -7.06640625 -580.2232593886445 -8.679673620980495 -17.046875 -570.6836347474004 -9.925075809975162 -20.064453125 -544.3672881697037 -8.096394079146956 -20.716796875 -515.2382942222252 -5.306804975675417 18.087890625 -403.99597286606917 -4.673402703461528 18.642578125 -416.29867689093777 16.34426112839016 14.46484375 -540.3132944810469 19.90750904889807 19.36328125 -515.1724986358884 -22.160440895364484 6.666015625 -401.48701517389554 -7.580363727110091 13.197265625 -75.52733147932824 6.282353575792951 5.828125 -63.7629950348423 -8.215457804067984 13.283203125 -68.67579941682565 -5.772535120397007 12.0078125 -59.56630729664513 -17.852350694077735 12.115234375 -65.0434488895173 -2.7913103970734796 8.330078125 -34.59350810291862 -12.314452952845322 8.046875 -40.74630838384906 3.0732181155369833 10.6328125 -19.868993322786068 -7.717775306845063 8.80078125 -20.33240125087367 3.539618562213303 11.017578125 -11.59943970481028 -6.751334693638693 9.44140625 -12.900714287753825 2.6408031741219844 10.59765625 -3.7166702834905894 -7.915622746042191 8.1875 -8.195691971410337 1.2694284432246576 9.662109375 2.144592106785192 -10.130674538500404 7.134765625 -3.85595440237972 -8.422055882737896 7.158203125 3.773033764766924 -13.593751388824408 0.78515625 0.0286452128502093 -3.7317970271609244 14.205078125 -94.51933450716506 -8.02853607202354 10.267578125 -97.35547798905809 -15.895842098075615 12.18359375 -94.88319888198602 -14.29786882003708 1.640625 -101.49640353536252 -16.46035776700944 2.43359375 -93.57853844244373 -18.085248873900717 3.375 -95.85010071467286 -10.591199640015448 -6.359375 -93.94349146003282 -21.038759905407563 4.228515625 -87.79750791690276 -13.034958904290967 -4.578125 -85.6018117252655 -21.021635135020617 3.453125 -78.34047583510275 -11.283423837532272 -4.890625 -76.88102462452187 -18.578710204238895 1.359375 -69.27785871486837 -6.430410353731123 -5.736328125 -66.4061825919659 -1.0916205048063647 -8.919921875 -44.421551633861164 9.624137245177453 -8.86328125 -63.48744420988852 12.898198794037675 -9.9140625 -35.76267784988197 12.99350621769399 -5.0859375 -108.9931421151451 11.267091841727845 -12.26171875 -112.08306863017386 11.707917306722612 -3.74609375 -99.96781310880195 12.608382928009148 -12.1015625 -101.53222306875209 10.91402855304281 1.228515625 -80.77644489447714 14.589390057257885 -5.41015625 -72.02040931860373 6.98789310672248 4.275390625 -73.38796122349196 -5.374970634621026 12.26171875 -82.09753826394403 -17.61315983264777 13.486328125 -84.01804681990168 -18.369492223591134 13.1640625 -74.15089556590029 10.684310656606698 11.533203125 -300.15145615884836 10.309909605680817 14.123046875 -312.645614746378 17.023787558492778 3.779296875 -292.4988084959129 15.43098350031821 2.75 -312.2313067500048 9.776743464991172 -10.080078125 -313.4171246813762 15.88667761402835 1.03125 -325.08089429454 8.816349766895687 -11.9375 -324.76092073411206 15.526629780790648 -4.482421875 -351.7879428353311 6.475939923694028 -16.96875 -353.6946267127738 6.9809106482009735 -16.953125 -375.89968065581866 -8.197669465665902 -20.298828125 -358.2578301468241 -10.518919019422201 -20.29296875 -379.4532539480813 -20.340134659398604 -8.2734375 -360.61388098943024 -23.180921173964418 -8.0859375 -381.69018907130175 8.21829033352489 3.1484375 -31.153527191734412 18.178634977373775 6.240234375 -18.786237942591708 23.194219149098735 -1.306640625 -17.934435002720445 19.94975213499064 7.294921875 -11.12599677933331 25.541522319125328 0.224609375 -10.569088093386926 23.671995286854475 0.01171875 -2.5086308311898113 19.594256607329374 -5.47265625 -10.567420070564976 19.152545218923287 -5.4921875 -4.2022068631717575 -10.504823913022816 -2.712890625 -21.600112983876894 -13.312139071794292 -2.16015625 -48.271746844935016 17.860250041854858 -6.81640625 -18.253050079831524 2.5576068796827736 -8.72265625 -20.156127415674366 4.703755683678411 -8.455078125 -13.156024524771459 -8.7414901365869 -2.966796875 -14.547294069439003 -18.423250621926755 9.8046875 -378.72902349296334 -17.269713271684996 7.884765625 -362.88521817606636 -2.9430268247857208 18.25390625 -373.61890639051063 -3.5198878130855564 17.328125 -359.2439340277644 10.911527241590807 11.3984375 -354.53816407895 11.11349423028668 13.689453125 -330.3819043692267 16.56983231904303 -5.251953125 -30.725392456994783 15.196333671489647 -4.30859375 -62.043817711257155 8.583615330330282 -8.609375 -73.78632222763919 -2.3486888090062976 11.029296875 -304.40012781938395 -3.166573012772958 16.275390625 -314.3122764138029 -2.597285768947461 18.078125 -333.6677178953449 -14.829641527384121 9.373046875 -335.0472105460354 -4.068141789417852 -15.767578125 -330.4783352771093 -2.9144480777200643 -14.052734375 -317.8962487064645 -16.09584328435448 -4.603515625 -323.0160212318499 -1.0681595712500538 -12.07421875 -289.364910165633 -14.358830717626775 -6.93359375 -296.5510941819024 -1.8698381215875517 13.189453125 -107.6774483880232 -14.56325787310361 12.314453125 -106.41829126333462 -17.00861858954525 2.69921875 -105.4125491137676 -0.537744703054161 -10.236328125 -108.97425953113601 3.3602822266072825 -12.521484375 -100.40961953126663 -0.11495624177930118 9.783203125 -87.28673923842958 5.58069912332442 7.26171875 -94.43880995625568 7.395817297390519 5.962890625 -108.31176983340318 -2.5993550770550087 11.955078125 -290.5017023199445 -13.167640566145757 5.208984375 -292.0432245730172 -12.89371216639172 4.9609375 -302.28344582810473 -13.478836586147125 8.21875 -319.24441139750024 17.316673329834476 -4.99609375 -372.2527007970893 12.67402732869857 11.44921875 -370.83690773130974 3.8089398943081463 -9.552734375 -7.220520538955046 16.970648425805123 -7.072265625 1.1414385464087733 14.94870723423931 -7.12109375 10.67063850380831 1.6680856914718 -11.099609375 -2.439373162506277 0.3340122762413245 -18.1015625 -0.5820152386671609 -14.27910753951218 -11.435546875 -3.9499032715729534 20.10137821382132 -1.53515625 3.844713631574627 13.691213263632731 6.380859375 4.026046963971498 14.948566883447345 2.630859375 13.598372875444214 -10.786798137766926 -3.3671875 -6.49270460890045 -9.253420957075498 -2.927734375 -10.123490480481143 0.33354094476250484 12.03515625 9.25001600003541 9.091196885984145 9.720703125 12.516060831473972 18.021581729091494 7.640625 -2.030386077214065 -16.55821370268507 -5.064453125 -333.8676059095996 12.482578125408823 -7.109375 -288.4560574394119 -13.345603771719091 -5.6171875 -287.2697955987971 -13.366721717805003 12.234375 -91.20143701086575 8.055870426701548 7.076171875 -228.38791020450964 9.824409564032582 7.771484375 -248.4347004466739 17.512812904960573 -1.3671875 -226.53589435204432 18.388791895203177 0.025390625 -246.95772738251145 15.999996806375334 -8.6796875 -244.38752939448324 13.77249013666062 -8.587890625 -265.4345112016895 3.2011532471953688 -10.64453125 -244.0658773247166 0.862099921088598 -9.8203125 -260.5542707240489 -12.589141037110839 -4.515625 -259.11350930285937 0.11698235430548166 -10.1171875 -280.91758771716326 3.16865556147329 10.57421875 -136.55416000906683 4.57642357679549 9.56640625 -168.22010818435885 12.573071241648002 3.203125 -139.03222480462563 13.924081782276529 2.10546875 -168.26067569797726 13.835035955195226 -5.701171875 -144.16302368899917 14.400686227796184 -7.154296875 -169.13565285134595 6.774571014220687 -9.92578125 -145.87234653309147 5.4222135891058905 -9.78125 -170.03256764065316 -6.409208388156121 -5.103515625 -141.99993166243888 -7.312155216707211 -4.873046875 -170.16208435559085 13.921559917276008 -5.751953125 -278.62395719568354 17.605266112210277 4.984375 -280.9694837325355 9.21522466657497 -12.009765625 -130.17301076411258 14.144870402102528 -6.5625 -129.3016806939668 11.20123145245602 2.93359375 -123.46979055049692 2.679516477507341 10.439453125 -118.65965218703202 -8.605507389734106 -3.39453125 -202.90628701940076 -9.348591029162252 -4.53125 -224.9551507919488 -13.920760304035317 4.794921875 -226.96513560156674 -9.417874071471285 -4.791015625 -246.42976351293964 -13.800519905721636 4.1171875 -249.9065361137996 -14.510796473456786 5.10546875 -263.69367955413725 -4.978299326703321 9.330078125 -248.96666006491088 -6.533904780898021 8.439453125 -270.5604846629014 15.650059739368361 0.134765625 -196.80942111522393 15.257505022223047 -8.01171875 -197.29772118421536 4.5115826267651 -9.34375 -200.8724550802468 3.6591341930906 -10.408203125 -223.1342147208086 7.852968347805138 7.939453125 -273.7804981084611 15.649729578864713 -0.12890625 -271.4070774667672 -6.071082775695586 9.39453125 -228.38663430251273 -13.888759757840646 5.763671875 -201.87919653868815 15.879870355302362 -9.392578125 -223.82308200451914 6.470435262646701 8.44140625 -198.12431429790118 -15.272546648406989 4.5859375 -140.8109034299957 -14.329676219578936 4.30859375 -171.35382701542636 -9.710153392558942 12.833984375 -138.58407427541235 -8.101157699217723 11.435546875 -171.41407530551652 -6.752115919732553 10.8515625 -200.31635441787256 -4.353409121234164 -8.408203125 -124.44905184062154 -14.27166736260567 2.32421875 -118.41046479874254 -9.60373344818592 10.697265625 -117.68367852479899 10.927788851804387 12.88671875 -286.33308509602443</float_array>
                    <technique_common>
                        <accessor count="259" source="#pointarray0" stride="3">
                            <param name="X" type="float"/>
                            <param name="Y" type="float"/>
                            <param name="Z" type="float"/>
                        </accessor>
                    </technique_common>
                </source>
                <source id="uvs0">
                    <float_array id="uvarray0" count="690">0.5203857421875 0.3218994140625 0.5087890625 0.324462890625 0.5196533203125 0.34588623046875 0.50860595703125 0.3505859375 0.5096435546875 0.38409423828125 0.49658203125 0.39007568359375 0.50457763671875 0.42059326171875 0.49200439453125 0.42706298828125 0.49359130859375 0.44366455078125 0.46661376953125 0.4315185546875 0.46966552734375 0.45074462890625 0.45318603515625 0.45281982421875 0.47271728515625 0.469970703125 0.4560546875 0.477294921875 0.4866943359375 0.50225830078125 0.4716796875 0.51385498046875 0.4908447265625 0.54547119140625 0.47918701171875 0.5518798828125 0.47637939453125 0.575439453125 0.46942138671875 0.5589599609375 0.4683837890625 0.5765380859375 0.57525634765625 0.408203125 0.56561279296875 0.4285888671875 0.56085205078125 0.42724609375 0.55596923828125 0.448974609375 0.54638671875 0.44635009765625 0.5548095703125 0.46661376953125 0.54388427734375 0.46368408203125 0.54132080078125 0.48101806640625 0.52947998046875 0.481689453125 0.54278564453125 0.523193359375 0.5306396484375 0.52886962890625 0.55096435546875 0.563720703125 0.53375244140625 0.56512451171875 0.53387451171875 0.58544921875 0.52862548828125 0.56787109375 0.5284423828125 0.58453369140625 0.5714111328125 0.401611328125 0.55889892578125 0.42401123046875 0.55682373046875 0.4202880859375 0.542236328125 0.43890380859375 0.535888671875 0.4603271484375 0.5255126953125 0.48333740234375 0.52557373046875 0.534912109375 0.46728515625 0.59417724609375 0.4735107421875 0.59893798828125 0.48541259765625 0.5733642578125 0.47991943359375 0.60125732421875 0.49957275390625 0.5712890625 0.49200439453125 0.6026611328125 0.5042724609375 0.598388671875 0.4727783203125 0.62982177734375 0.48260498046875 0.62799072265625 0.4505615234375 0.64849853515625 0.4666748046875 0.31158447265625 0.46258544921875 0.32940673828125 0.47808837890625 0.30548095703125 0.47357177734375 0.32708740234375 0.48944091796875 0.3018798828125 0.48846435546875 0.3272705078125 0.50897216796875 0.29827880859375 0.52117919921875 0.2978515625 0.48748779296875 0.3526611328125 0.4715576171875 0.39453125 0.46905517578125 0.34869384765625 0.45794677734375 0.385498046875 0.4495849609375 0.3817138671875 0.44134521484375 0.42376708984375 0.52825927734375 0.60125732421875 0.5340576171875 0.60577392578125 0.52655029296875 0.64312744140625 0.5426025390625 0.65460205078125 0.532470703125 0.68402099609375 0.55615234375 0.65802001953125 0.54571533203125 0.68707275390625 0.4571533203125 0.61553955078125 0.46136474609375 0.6240234375 0.466796875 0.629150390625 0.56463623046875 0.62158203125 0.55035400390625 0.61419677734375 0.564697265625 0.59246826171875 0.5506591796875 0.5889892578125 0.52239990234375 0.6336669921875 0.5179443359375 0.674072265625 0.512939453125 0.66583251953125 0.51556396484375 0.6912841796875 0.5108642578125 0.68817138671875 0.50885009765625 0.71044921875 0.45025634765625 0.4283447265625 0.4437255859375 0.453857421875 0.5115966796875 0.5694580078125 0.50714111328125 0.53997802734375 0.5189208984375 0.54058837890625 0.503173828125 0.49169921875 0.4951171875 0.46026611328125 0.50714111328125 0.4552001953125 0.51422119140625 0.48748779296875 0.5694580078125 0.3927001953125 0.55584716796875 0.41583251953125 0.5545654296875 0.41357421875 0.53961181640625 0.4344482421875 0.5325927734375 0.4588623046875 0.45855712890625 0.3472900390625 0.5390625 0.71759033203125 0.52618408203125 0.71343994140625 0.529296875 0.69873046875 0.4625244140625 0.52337646484375 0.446044921875 0.48394775390625 0.55364990234375 0.48431396484375 0.5555419921875 0.520263671875 0.54241943359375 0.70233154296875 0.5648193359375 0.5633544921875 0.51324462890625 0.70855712890625 0.505859375 0.43792724609375 0.56884765625 0.064697265625 0.54229736328125 0.0826416015625 0.5665283203125 0.074462890625 0.564208984375 0.08416748046875 0.5731201171875 0.0849609375 0.5592041015625 0.116943359375 0.5633544921875 0.1171875 0.5577392578125 0.14752197265625 0.55743408203125 0.14923095703125 0.55706787109375 0.16192626953125 0.5587158203125 0.16217041015625 0.55609130859375 0.16973876953125 0.55938720703125 0.16864013671875 0.55450439453125 0.18963623046875 0.56195068359375 0.18408203125 0.56103515625 0.21185302734375 0.567626953125 0.2110595703125 0.46051025390625 0.95050048828125 0.45587158203125 0.94110107421875 0.4591064453125 0.93817138671875 0.4552001953125 0.93048095703125 0.46044921875 0.92205810546875 0.45489501953125 0.92291259765625 0.46136474609375 0.91595458984375 0.45458984375 0.91534423828125 0.46221923828125 0.90985107421875 0.45758056640625 0.90966796875 0.46588134765625 0.90673828125 0.4605712890625 0.90399169921875 0.46954345703125 0.90362548828125 0.481689453125 0.89508056640625 0.48272705078125 0.912353515625 0.49322509765625 0.90460205078125 0.5362548828125 0.047119140625 0.53485107421875 0.05804443359375 0.5400390625 0.05523681640625 0.5374755859375 0.06414794921875 0.5445556640625 0.06011962890625 0.53692626953125 0.0751953125 0.54339599609375 0.0714111328125 0.56463623046875 0.055908203125 0.57550048828125 0.0634765625 0.57427978515625 0.07421875 0.43548583984375 0.17156982421875 0.44769287109375 0.205078125 0.4412841796875 0.169677734375 0.45574951171875 0.1986083984375 0.46258544921875 0.18975830078125 0.4600830078125 0.21099853515625 0.468017578125 0.2025146484375 0.47100830078125 0.24365234375 0.48138427734375 0.2373046875 0.48944091796875 0.25933837890625 0.4949951171875 0.23114013671875 0.50439453125 0.25439453125 0.50701904296875 0.22711181640625 0.5162353515625 0.25262451171875 0.5333251953125 0.11737060546875 0.527587890625 0.147705078125 0.520751953125 0.1533203125 0.52752685546875 0.16033935546875 0.52099609375 0.16595458984375 0.52130126953125 0.17852783203125 0.51531982421875 0.169677734375 0.51519775390625 0.18243408203125 0.47723388671875 0.88629150390625 0.4769287109375 0.88458251953125 0.47003173828125 0.90179443359375 0.47113037109375 0.89532470703125 0.45989990234375 0.91168212890625 0.45782470703125 0.918212890625 0.50128173828125 0.89208984375 0.48809814453125 0.88671875 0.48883056640625 0.87811279296875 0.4769287109375 0.8773193359375 0.47705078125 0.87969970703125 0.50958251953125 0.75469970703125 0.5130615234375 0.75067138671875 0.5181884765625 0.779052734375 0.525634765625 0.75048828125 0.5296630859375 0.77581787109375 0.53900146484375 0.77618408203125 0.54486083984375 0.81158447265625 0.5155029296875 0.156982421875 0.520263671875 0.121826171875 0.5269775390625 0.11907958984375 0.52874755859375 0.0894775390625 0.536376953125 0.08624267578125 0.52850341796875 0.08050537109375 0.55401611328125 0.860595703125 0.5455322265625 0.86260986328125 0.54718017578125 0.8245849609375 0.5386962890625 0.826171875 0.53619384765625 0.8135986328125 0.52630615234375 0.8194580078125 0.47943115234375 0.1951904296875 0.4732666015625 0.18255615234375 0.48687744140625 0.17694091796875 0.4599609375 0.15447998046875 0.47467041015625 0.1473388671875 0.465087890625 0.9599609375 0.46295166015625 0.94580078125 0.464111328125 0.9278564453125 0.480224609375 0.92535400390625 0.47882080078125 0.921142578125 0.5604248046875 0.04705810546875 0.5404052734375 0.0535888671875 0.55523681640625 0.039306640625 0.550048828125 0.031494140625 0.48077392578125 0.916748046875 0.545654296875 0.88128662109375 0.536865234375 0.8807373046875 0.5367431640625 0.86541748046875 0.52935791015625 0.83154296875 0.5325927734375 0.868896484375 0.5257568359375 0.8365478515625 0.47760009765625 0.26397705078125 0.468505859375 0.27227783203125 0.5020751953125 0.88629150390625 0.489501953125 0.86944580078125 0.5029296875 0.8804931640625 0.503173828125 0.87548828125 0.4962158203125 0.8603515625 0.48687744140625 0.86578369140625 0.48431396484375 0.8621826171875 0.47235107421875 0.8603515625 0.517578125 0.19305419921875 0.52069091796875 0.19110107421875 0.5301513671875 0.197998046875 0.53076171875 0.22979736328125 0.474609375 0.865234375 0.47686767578125 0.87005615234375 0.47686767578125 0.8731689453125 0.47698974609375 0.87646484375 0.556640625 0.2158203125 0.543701171875 0.22283935546875 0.52886962890625 0.17535400390625 0.49237060546875 0.18927001953125 0.45196533203125 0.21728515625 0.46234130859375 0.25091552734375 0.4473876953125 0.1646728515625 0.56451416015625 0.02587890625 0.5716552734375 0.0380859375 0.5283203125 0.071533203125 0.52740478515625 0.06634521484375 0.53277587890625 0.8802490234375 0.52203369140625 0.2122802734375 0.53533935546875 0.75384521484375 0.5145263671875 0.78204345703125 0.52264404296875 0.822998046875 0.55743408203125 0.013671875 0.455810546875 0.932861328125 0.57354736328125 0.05078125 0.47576904296875 0.8699951171875 0.455810546875 0.9246826171875 0.452880859375 0.06475830078125 0.4381103515625 0.0860595703125 0.453857421875 0.07794189453125 0.44305419921875 0.09613037109375 0.44952392578125 0.1038818359375 0.443603515625 0.14056396484375 0.46173095703125 0.10791015625 0.45721435546875 0.1385498046875 0.469482421875 0.12945556640625 0.4586181640625 0.146484375 0.47210693359375 0.13836669921875 0.5311279296875 0.0062255859375 0.51348876953125 0.01300048828125 0.5284423828125 0.026123046875 0.51153564453125 0.031982421875 0.5196533203125 0.04473876953125 0.50616455078125 0.048583984375 0.51751708984375 0.05322265625 0.5052490234375 0.05963134765625 0.5189208984375 0.06219482421875 0.5072021484375 0.06842041015625 0.44549560546875 0.15264892578125 0.4381103515625 0.15399169921875 0.52117919921875 0.05291748046875 0.5322265625 0.05194091796875 0.5279541015625 0.04595947265625 0.53924560546875 0.02880859375 0.54425048828125 0.00994873046875 0.51934814453125 0.93194580078125 0.52801513671875 0.918212890625 0.52874755859375 0.928955078125 0.53057861328125 0.90966796875 0.533447265625 0.9202880859375 0.53692626953125 0.89599609375 0.5389404296875 0.92889404296875 0.5457763671875 0.89996337890625 0.47967529296875 0.048828125 0.47967529296875 0.06201171875 0.482421875 0.0755615234375 0.466796875 0.096435546875 0.486572265625 0.08343505859375 0.47412109375 0.1004638671875 0.42822265625 0.13360595703125 0.43499755859375 0.1383056640625 0.54827880859375 0.93389892578125 0.53973388671875 0.9471435546875 0.5328369140625 0.93988037109375 0.51739501953125 0.94232177734375 0.4581298828125 0.08770751953125 0.48175048828125 0.0316162109375 0.48822021484375 0.9473876953125 0.49774169921875 0.9495849609375 0.4815673828125 0.962646484375 0.495361328125 0.9632568359375 0.483642578125 0.97198486328125 0.49658203125 0.9720458984375 0.52032470703125 0.96624755859375 0.5179443359375 0.9573974609375 0.55682373046875 0.89886474609375 0.4815673828125 0.9295654296875 0.48907470703125 0.93505859375 0.46771240234375 0.9337158203125 0.48309326171875 0.9439697265625 0.47222900390625 0.9542236328125 0.431884765625 0.152587890625 0.47052001953125 0.10870361328125 0.555419921875 0.8797607421875 0.53302001953125 0.89154052734375 0.52642822265625 0.0611572265625 0.52081298828125 0.06195068359375 0.474365234375 0.9659423828125 0.47332763671875 0.9613037109375 0.50244140625 0.93701171875 0.49951171875 0.947265625 0.49163818359375 0.9368896484375 0.47235107421875 0.95751953125</float_array>
                    <technique_common>
                        <accessor count="345" source="#uvarray0" stride="2">
                            <param name="S" type="float"/>
                            <param name="T" type="float"/>
                        </accessor>
                    </technique_common>
                </source>
                <vertices id="vertices0">
                    <input semantic="POSITION" source="#points0"/>
                </vertices>
                <polylist count="508" material="Material1">
                    <input offset="0" semantic="VERTEX" source="#vertices0"/>
                    <input offset="1" semantic="TEXCOORD" source="#uvs0" set="0"/>
                    <vcount>3 3 3 3 3 3 3 3 3 3 3 3 3 3 3 3 3 3 3 3 3 3 3 3 3 3 3 3 3 3 3 3 3 3 3 3 3 3 3 3 3 3 3 3 3 3 3 3 3 3 3 3 3 3 3 3 3 3 3 3 3 3 3 3 3 3 3 3 3 3 3 3 3 3 3 3 3 3 3 3 3 3 3 3 3 3 3 3 3 3 3 3 3 3 3 3 3 3 3 3 3 3 3 3 3 3 3 3 3 3 3 3 3 3 3 3 3 3 3 3 3 3 3 3 3 3 3 3 3 3 3 3 3 3 3 3 3 3 3 3 3 3 3 3 3 3 3 3 3 3 3 3 3 3 3 3 3 3 3 3 3 3 3 3 3 3 3 3 3 3 3 3 3 3 3 3 3 3 3 3 3 3 3 3 3 3 3 3 3 3 3 3 3 3 3 3 3 3 3 3 3 3 3 3 3 3 3 3 3 3 3 3 3 3 3 3 3 3 3 3 3 3 3 3 3 3 3 3 3 3 3 3 3 3 3 3 3 3 3 3 3 3 3 3 3 3 3 3 3 3 3 3 3 3 3 3 3 3 3 3 3 3 3 3 3 3 3 3 3 3 3 3 3 3 3 3 3 3 3 3 3 3 3 3 3 3 3 3 3 3 3 3 3 3 3 3 3 3 3 3 3 3 3 3 3 3 3 3 3 3 3 3 3 3 3 3 3 3 3 3 3 3 3 3 3 3 3 3 3 3 3 3 3 3 3 3 3 3 3 3 3 3 3 3 3 3 3 3 3 3 3 3 3 3 3 3 3 3 3 3 3 3 3 3 3 3 3 3 3 3 3 3 3 3 3 3 3 3 3 3 3 3 3 3 3 3 3 3 3 3 3 3 3 3 3 3 3 3 3 3 3 3 3 3 3 3 3 3 3 3 3 3 3 3 3 3 3 3 3 3 3 3 3 3 3 3 3 3 3 3 3 3 3 3 3 3 3 3 3 3 3 3 3 3 3 3 3 3 3 3 3 3 3 3 3 3 3 3 3 3 3 3 3 3 3 3 3 3 3 3 3 3 3 3 3 3 3 3 3 3 3 3 3 3 3 3 3 3 3 3 3 3 3 3 3 3 3 3 3 3 3 3 3 3 3 3 3 3</vcount>
                    <p>2 2 1 1 0 0 3 3 1 1 2 2 4 4 3 3 2 2 5 5 3 3 4 4 6 6 5 5 4 4 7 7 5 5 6 6 8 8 7 7 6 6 9 9 7 7 8 8 10 10 9 9 8 8 11 11 9 9 10 10 12 12 11 11 10 10 13 13 11 11 12 12 14 14 13 13 12 12 15 15 13 13 14 14 16 16 15 15 14 14 17 17 15 15 16 16 18 18 17 17 16 16 19 19 17 17 18 18 20 20 19 19 18 18 23 23 22 22 21 21 24 24 22 22 23 23 25 25 24 24 23 23 20 26 24 24 25 25 26 27 20 26 25 25 27 28 20 26 26 27 28 29 27 28 26 27 29 30 27 28 28 29 30 31 29 30 28 29 31 32 29 30 30 31 32 33 31 32 30 31 33 34 31 32 32 33 34 35 33 34 32 33 35 36 33 34 34 35 36 39 23 38 21 37 25 25 23 38 36 39 37 40 25 25 36 39 26 27 25 25 37 40 38 41 26 27 37 40 28 29 26 27 38 41 39 42 28 29 38 41 30 31 28 29 39 42 40 43 30 31 39 42 34 35 30 31 40 43 18 18 24 44 20 20 41 45 24 44 18 18 42 46 41 45 18 18 43 47 41 45 42 46 44 48 43 47 42 46 45 49 43 47 44 48 46 50 45 49 44 48 47 51 45 49 46 50 48 52 47 51 46 50 21 53 47 51 48 52 51 56 50 55 49 54 52 57 50 55 51 56 53 58 52 57 51 56 54 59 52 57 53 58 55 60 54 59 53 58 1 1 54 59 55 60 56 61 1 1 55 60 0 0 1 1 56 61 3 3 54 59 1 1 57 62 54 59 3 3 58 63 57 62 3 3 59 64 57 62 58 63 60 65 59 64 58 63 61 66 59 64 60 65 62 67 61 66 60 65 6 68 33 34 35 36 63 69 33 34 6 68 64 70 63 69 6 68 65 71 63 69 64 70 66 72 65 71 64 70 61 73 65 71 66 72 67 74 61 73 66 72 41 45 22 75 24 44 68 76 22 75 41 45 43 47 68 76 41 45 69 77 68 76 43 47 45 49 69 77 43 47 47 51 69 77 45 49 62 78 65 71 61 73 70 79 65 71 62 78 71 80 70 79 62 78 72 81 70 79 71 80 31 32 72 81 71 80 33 34 72 81 31 32 4 82 64 70 6 68 73 83 64 70 4 82 2 84 73 83 4 82 74 85 73 83 2 84 0 86 74 85 2 84 56 87 74 85 0 86 9 9 60 65 58 63 75 88 60 65 9 9 11 11 75 88 9 9 62 67 75 88 11 11 71 89 62 67 11 11 44 48 76 90 46 50 77 91 76 90 44 48 42 46 77 91 44 48 16 16 77 91 42 46 18 18 16 16 42 46 77 91 39 92 76 90 78 93 39 92 77 91 16 16 78 93 77 91 14 14 78 93 16 16 8 8 12 12 10 10 79 94 12 12 8 8 34 95 79 94 8 8 40 96 79 94 34 95 48 99 36 98 21 97 37 40 36 98 48 99 46 100 37 40 48 99 76 101 37 40 46 100 79 94 14 14 12 12 78 93 14 14 79 94 40 96 78 93 79 94 39 92 78 93 40 96 5 5 58 63 3 3 9 9 58 63 5 5 7 7 9 9 5 5 59 64 50 55 52 57 67 102 50 55 59 64 61 66 67 102 59 64 21 53 69 77 47 51 68 76 69 77 21 53 22 75 68 76 21 53 81 105 80 104 49 103 74 85 80 104 81 105 66 72 74 85 81 105 82 106 13 13 15 15 83 107 13 13 82 106 19 108 27 28 29 30 20 26 27 28 19 108 19 19 15 15 17 17 82 106 15 15 19 19 57 62 52 57 54 59 59 64 52 57 57 62 76 101 38 41 37 40 39 42 38 41 76 101 82 109 29 30 31 32 19 108 29 30 82 109 50 110 81 105 49 103 67 74 81 105 50 110 33 34 70 79 72 81 63 69 70 79 33 34 83 111 31 32 71 80 82 109 31 32 83 111 73 83 66 72 64 70 74 85 66 72 73 83 84 112 74 85 56 87 80 104 74 85 84 112 35 113 8 8 6 6 34 95 8 8 35 113 11 11 83 107 71 89 13 13 83 107 11 11 81 105 67 74 66 72 30 31 34 35 32 33 63 69 65 71 70 79 62 67 60 65 75 88 87 116 86 115 85 114 88 117 86 115 87 116 89 118 88 117 87 116 90 119 88 117 89 118 91 120 90 119 89 118 92 121 90 119 91 120 93 122 92 121 91 120 94 123 92 121 93 122 95 124 94 123 93 122 96 125 94 123 95 124 97 126 96 125 95 124 98 127 96 125 97 126 99 128 98 127 97 126 100 129 98 127 99 128 101 130 100 129 99 128 104 133 103 132 102 131 105 134 103 132 104 133 106 135 105 134 104 133 107 136 105 134 106 135 108 137 107 136 106 135 109 138 107 136 108 137 110 139 109 138 108 137 111 140 109 138 110 139 112 141 111 140 110 139 113 142 111 140 112 141 114 143 113 142 112 141 115 144 113 142 114 143 116 145 115 144 114 143 117 146 115 144 116 145 120 149 119 148 118 147 121 150 119 148 120 149 122 151 121 150 120 149 123 152 121 150 122 151 124 153 123 152 122 151 86 115 123 152 124 153 125 154 86 115 124 153 85 114 86 115 125 154 126 155 85 114 125 154 87 116 85 114 126 155 127 156 87 116 126 155 89 118 87 116 127 156 130 159 129 158 128 157 131 160 129 158 130 159 132 161 131 160 130 159 133 162 131 160 132 161 134 163 133 162 132 161 135 164 133 162 134 163 136 165 135 164 134 163 137 166 135 164 136 165 138 167 137 166 136 165 139 168 137 166 138 167 140 169 139 168 138 167 141 170 139 168 140 169 90 119 86 115 88 117 142 171 86 115 90 119 143 172 142 171 90 119 144 173 142 171 143 172 145 174 144 173 143 172 146 175 144 173 145 174 147 176 146 175 145 174 148 177 146 175 147 176 149 178 148 177 147 176 91 181 150 180 93 179 151 182 150 180 91 181 89 183 151 182 91 181 113 142 151 182 89 183 127 184 113 142 89 183 111 140 113 142 127 184 109 138 111 140 127 184 152 185 115 144 117 146 153 186 115 144 152 185 154 187 153 186 152 185 150 180 153 186 154 187 155 188 150 180 154 187 93 179 150 180 155 188 95 189 93 179 155 188 141 190 84 112 56 87 156 191 84 112 141 190 157 192 156 191 141 190 158 193 156 191 157 192 159 194 158 193 157 192 160 195 158 193 159 194 161 196 160 195 159 194 117 198 144 173 152 197 162 199 144 173 117 198 116 200 162 199 117 198 163 201 162 199 116 200 164 202 163 201 116 200 123 152 163 201 164 202 121 150 123 152 164 202 129 205 165 204 128 203 166 206 165 204 129 205 167 207 166 206 129 205 168 208 166 206 167 207 159 194 168 208 167 207 157 192 168 208 159 194 134 163 138 167 136 165 169 209 138 167 134 163 170 210 169 209 134 163 171 211 169 209 170 210 172 212 171 211 170 210 173 213 171 211 172 212 175 215 102 131 174 214 104 133 102 131 175 215 176 216 104 133 175 215 106 135 104 133 176 216 177 217 106 135 176 216 178 218 106 135 177 217 122 151 125 154 124 153 179 219 125 154 122 151 120 220 179 219 122 151 180 221 179 219 120 220 118 147 180 221 120 220 181 222 180 221 118 147 178 218 108 137 106 135 110 139 108 137 178 218 164 223 110 139 178 218 112 141 110 139 164 223 114 143 112 141 164 223 165 204 183 225 182 224 184 226 183 225 165 204 185 227 184 226 165 204 173 228 184 226 185 227 171 229 173 228 185 227 53 58 139 168 55 60 137 166 139 168 53 58 186 230 137 166 53 58 135 164 137 166 186 230 187 231 135 164 186 230 148 232 154 187 152 185 188 233 154 187 148 232 149 234 188 233 148 232 189 235 188 233 149 234 92 121 143 172 90 119 145 174 143 172 92 121 94 123 145 174 92 121 96 125 145 174 94 123 190 236 188 233 189 235 191 237 188 233 190 236 192 238 191 237 190 236 193 239 191 237 192 238 147 176 189 240 149 178 194 241 189 240 147 176 195 242 194 241 147 176 196 243 194 241 195 242 197 244 191 237 193 239 198 245 191 237 197 244 99 246 198 245 197 244 97 247 198 245 99 246 199 248 98 127 100 129 195 242 98 127 199 248 200 249 195 242 199 248 196 243 195 242 200 249 162 199 142 171 144 173 86 115 142 171 162 199 163 201 86 115 162 199 123 152 86 115 163 201 195 242 96 125 98 127 201 250 96 125 195 242 147 176 201 250 195 242 145 174 201 250 147 176 202 251 169 209 171 211 138 167 169 209 202 251 140 169 138 167 202 251 198 245 188 233 191 237 154 187 188 233 198 245 155 188 154 187 198 245 135 164 161 252 133 162 160 253 161 252 135 164 187 231 160 253 135 164 132 161 170 210 134 163 172 212 170 210 132 161 203 254 172 212 132 161 186 230 49 54 187 231 51 56 49 54 186 230 53 58 51 56 186 230 185 227 168 208 171 229 166 206 168 208 185 227 165 204 166 206 185 227 158 193 84 112 156 191 80 104 84 112 158 193 49 103 80 104 158 193 103 256 180 221 102 255 179 219 180 221 103 256 125 154 179 219 103 256 178 257 121 150 164 202 177 258 121 150 178 257 183 225 173 228 204 259 184 226 173 228 183 225 56 61 139 168 141 170 55 60 139 168 56 61 194 241 190 260 189 240 196 243 190 260 194 241 131 160 161 252 129 158 133 162 161 252 131 160 158 193 187 261 49 103 160 195 187 261 158 193 140 262 157 192 141 190 202 263 157 192 140 262 174 264 180 221 181 222 102 255 180 221 174 264 148 177 144 173 146 175 152 197 144 173 148 177 167 207 161 196 159 194 129 205 161 196 167 207 202 263 168 208 157 192 171 229 168 208 202 263 105 134 205 265 103 132 107 136 205 265 105 134 95 189 198 245 97 247 155 188 198 245 95 189 205 266 125 154 103 256 126 155 125 154 205 266 99 267 193 239 101 239 197 244 193 239 99 267 150 180 115 144 153 186 151 182 115 144 150 180 126 268 109 138 127 184 205 265 109 138 126 268 145 174 96 125 201 250 130 159 203 254 132 161 177 258 119 148 121 150 205 265 107 136 109 138 164 223 116 145 114 143 115 144 151 182 113 142 208 271 207 270 206 269 209 272 207 270 208 271 210 273 209 272 208 271 211 274 209 272 210 273 212 275 211 274 210 273 213 276 211 274 212 275 214 277 213 276 212 275 215 278 213 276 214 277 204 279 215 278 214 277 173 213 215 278 204 279 218 282 217 281 216 280 219 283 217 281 218 282 220 284 219 283 218 282 221 285 219 283 220 284 222 286 221 285 220 284 223 287 221 285 222 286 224 288 223 287 222 286 225 289 223 287 224 288 215 278 211 274 213 276 226 290 211 274 215 278 203 254 226 290 215 278 227 291 226 290 203 254 130 159 227 291 203 254 128 157 227 291 130 159 220 284 228 293 222 292 229 294 228 293 220 284 218 282 229 294 220 284 230 295 229 294 218 282 216 280 230 295 218 282 231 296 230 295 216 280 234 299 233 298 232 297 235 300 233 298 234 299 236 301 235 300 234 299 237 302 235 300 236 301 238 303 237 302 236 301 239 304 237 302 238 303 221 285 240 305 219 283 241 306 240 305 221 285 242 307 241 306 221 285 243 308 241 306 242 307 232 309 243 308 242 307 233 310 243 308 232 309 209 272 244 311 207 270 245 312 244 311 209 272 211 274 245 312 209 272 227 291 245 312 211 274 226 290 227 291 211 274 238 303 206 314 207 313 246 315 206 314 238 303 234 299 246 315 238 303 247 316 246 315 234 299 232 297 247 316 234 299 210 273 243 308 212 275 248 317 243 308 210 273 208 271 248 317 210 273 241 306 248 317 208 271 240 305 241 306 208 271 249 318 208 271 206 269 240 305 208 271 249 318 217 281 240 305 249 318 219 283 240 305 217 281 252 321 251 320 250 319 253 322 251 320 252 321 216 323 253 322 252 321 217 324 253 322 216 323 246 315 249 325 206 314 254 326 249 325 246 315 247 316 254 326 246 315 251 320 254 326 247 316 244 327 238 303 207 313 239 304 238 303 244 327 182 224 239 304 244 327 183 225 239 304 182 224 256 330 224 329 255 328 250 331 224 329 256 330 257 332 250 331 256 330 252 321 250 331 257 332 176 216 255 328 177 217 256 330 255 328 176 216 175 215 256 330 176 216 257 332 256 330 175 215 227 291 244 311 245 312 258 333 244 311 227 291 128 157 258 333 227 291 235 334 243 308 233 310 212 275 243 308 235 334 214 277 212 275 235 334 242 307 225 289 232 309 223 287 225 289 242 307 221 285 223 287 242 307 118 147 230 295 181 222 229 294 230 295 118 147 228 293 229 294 118 147 182 224 128 203 165 204 258 335 128 203 182 224 244 327 258 335 182 224 254 326 217 324 249 325 253 322 217 324 254 326 251 320 253 322 254 326 183 225 237 302 239 304 204 259 237 302 183 225 214 336 237 302 204 259 235 300 237 302 214 336 172 212 215 278 173 213 203 254 215 278 172 212 255 337 228 293 177 258 224 338 228 293 255 337 119 148 228 293 118 147 177 258 228 293 119 148 174 264 230 295 231 296 181 222 230 295 174 264 216 323 257 340 231 339 252 321 257 340 216 323 251 342 232 297 225 341 247 316 232 297 251 342 250 319 225 341 224 343 251 342 225 341 250 319 174 214 257 344 175 215 231 339 257 344 174 214 241 306 243 308 248 317 224 338 222 292 228 293 234 299 238 303 236 301</p>
                </polylist>
            </mesh>
        </geometry>
    </library_geometries>
    <library_controllers>
        <controller id="controller0">
            <skin source="#mesh0">
                <bind_shape_matrix>1 0 0 0 0 1 0 0 0 0 1 0 0 0 0 1</bind_shape_matrix>
                <source id="joints0">
                    <Name_array id="JointArr0" count="23">jointnode-1 jointnode0 jointnode1 jointnode2 jointnode3 jointnode4 jointnode5 jointnode6 jointnode7 jointnode8 jointnode9 jointnode10 jointnode11 jointnode12 jointnode13 jointnode14 jointnode15 jointnode16 jointnode17 jointnode18 jointnode19 jointnode20 jointnode21</Name_array>
                    <technique_common>
                        <accessor source="#JointArr0" count="23">
                            <param name="JOINT" type="Name" />
                        </accessor>
                    </technique_common>
                </source>
                <source id="matrices0">
                    <float_array id="MatArr0" count="368">1 0 0 0 0 1 0 0 0 0 1 0 0 0 0 1 0.00004793836256600237 0 -0.9999999988509567 0 0 1 0 0 0.9999999988509567 0 0.00004793836256600237 0 0 0 0 1 0.00004793836256600237 0 -0.9999999988509567 0 0 1 0 0 0.9999999988509567 0 0.00004793836256600237 0 0 0 0 1 0.00004793836256600237 0 -0.9999999988509567 -29.63829612731934 0 1 0 0 0.9999999988509567 0 0.00004793836256600237 0 0 0 0 1 0.00004793836256600237 0 -0.9999999988509567 -59.63829612731933 0 1 0 0 0.9999999988509567 0 0.00004793836256600237 -4.336808689942018e-19 0 0 0 1 0.00004793836256600237 0 -0.9999999988509567 -89.63829612731934 0 1 0 0 0.9999999988509567 0 0.00004793836256600237 0 0 0 0 1 0.00004793836256600237 0 -0.9999999988509567 -119.63829612731934 0 1 0 0 0.9999999988509567 0 0.00004793836256600237 0 0 0 0 1 0.00004793836256600237 0 -0.9999999988509567 -149.63829612731934 0 1 0 0 0.9999999988509567 0 0.00004793836256600237 0 0 0 0 1 0.00004793836256600237 0 -0.9999999988509567 -179.63829612731934 0 1 0 0 0.9999999988509567 0 0.00004793836256600237 0 0 0 0 1 0.00004793836256600237 0 -0.9999999988509567 -209.63829612731934 0 1 0 0 0.9999999988509567 0 0.00004793836256600237 0 0 0 0 1 0.00004793836256600237 0 -0.9999999988509567 -239.63829612731934 0 1 0 0 0.9999999988509567 0 0.00004793836256600237 0 0 0 0 1 0.00004793836256600237 0 -0.9999999988509567 -269.63829612731934 0 1 0 0 0.9999999988509567 0 0.00004793836256600237 0 0 0 0 1 0.00004793836256600237 0 -0.9999999988509567 -299.6382961273193 0 1 0 0 0.9999999988509567 0 0.00004793836256600237 0 0 0 0 1 0.00004793836256600237 0 -0.9999999988509567 -329.6382961273193 0 1 0 0 0.9999999988509567 0 0.00004793836256600237 0 0 0 0 1 0.00004793836256600237 0 -0.9999999988509567 -359.6382961273192 0 1 0 0 0.9999999988509567 0 0.00004793836256600237 0 0 0 0 1 0.00004793836256600237 0 -0.9999999988509567 -389.6382961273192 0 1 0 0 0.9999999988509567 0 0.00004793836256600237 -3.469446951953614e-18 0 0 0 1 0.00004793836256600237 0 -0.9999999988509567 -419.63829612731917 0 1 0 0 0.9999999988509567 0 0.00004793836256600237 -3.469446951953614e-18 0 0 0 1 0.00004793836256600237 0 -0.9999999988509567 -449.63829612731917 0 1 0 0 0.9999999988509567 0 0.00004793836256600237 -6.938893903907228e-18 0 0 0 1 0.00004793836256600237 0 -0.9999999988509567 -479.6382961273191 0 1 0 0 0.9999999988509567 0 0.00004793836256600237 -6.938893903907228e-18 0 0 0 1 0.00004793836256600237 0 -0.9999999988509567 -509.6382961273191 0 1 0 0 0.9999999988509567 0 0.00004793836256600237 -1.0408340855860843e-17 0 0 0 1 0.00004793836256600237 0 -0.9999999988509567 -539.6382961273191 0 1 0 0 0.9999999988509567 0 0.00004793836256600237 -1.0408340855860843e-17 0 0 0 1 0.00004793836256600237 0 -0.9999999988509567 -569.638296127319 0 1 0 0 0.9999999988509567 0 0.00004793836256600237 -1.0408340855860843e-17 0 0 0 1 0.00004793836256600237 0 -0.9999999988509567 -599.6382961273191 0 1 0 0 0.9999999988509567 0 0.00004793836256600237 -1.3877787807814457e-17 0 0 0 1</float_array>
                    <technique_common>
                        <accessor source="#MatArr0" count="23" stride="16">
                            <param type="float4x4" />
                        </accessor>
                    </technique_common>
                </source>
                <source id="weights0">
                    <float_array id="WeightArr0" count="1">1</float_array>
                    <technique_common>
                        <accessor source="#WeightArr0" count="1">
                            <param type="float" />
                        </accessor>
                    </technique_common>
                </source>
                <joints>
                    <input semantic="JOINT" source="#joints0" />
                    <input semantic="INV_BIND_MATRIX" source="#matrices0" />
                </joints>
                <vertex_weights count="259">
                    <input semantic="JOINT" offset="0" source="#joints0" />
                    <input semantic="WEIGHT" offset="1" source="#weights0" />
                    <vcount>1 1 1 1 1 1 1 1 1 1 1 1 1 1 1 1 1 1 1 1 1 1 1 1 1 1 1 1 1 1 1 1 1 1 1 1 1 1 1 1 1 1 1 1 1 1 1 1 1 1 1 1 1 1 1 1 1 1 1 1 1 1 1 1 1 1 1 1 1 1 1 1 1 1 1 1 1 1 1 1 1 1 1 1 1 1 1 1 1 1 1 1 1 1 1 1 1 1 1 1 1 1 1 1 1 1 1 1 1 1 1 1 1 1 1 1 1 1 1 1 1 1 1 1 1 1 1 1 1 1 1 1 1 1 1 1 1 1 1 1 1 1 1 1 1 1 1 1 1 1 1 1 1 1 1 1 1 1 1 1 1 1 1 1 1 1 1 1 1 1 1 1 1 1 1 1 1 1 1 1 1 1 1 1 1 1 1 1 1 1 1 1 1 1 1 1 1 1 1 1 1 1 1 1 1 1 1 1 1 1 1 1 1 1 1 1 1 1 1 1 1 1 1 1 1 1 1 1 1 1 1 1 1 1 1 1 1 1 1 1 1 1 1 1 1 1 1 1 1 1 1 1 1 1 1 1 1 1 1</vcount>
                    <v>15 0 15 0 16 0 16 0 17 0 17 0 18 0 18 0 18 0 18 0 18 0 18 0 19 0 19 0 20 0 20 0 20 0 21 0 21 0 21 0 21 0 22 0 22 0 22 0 22 0 21 0 21 0 21 0 20 0 20 0 20 0 19 0 19 0 18 0 19 0 18 0 22 0 21 0 21 0 20 0 20 0 22 0 21 0 22 0 21 0 22 0 22 0 22 0 22 0 15 0 16 0 15 0 15 0 15 0 15 0 15 0 15 0 16 0 17 0 16 0 17 0 17 0 18 0 18 0 17 0 17 0 16 0 16 0 22 0 22 0 18 0 18 0 18 0 16 0 15 0 18 0 21 0 20 0 20 0 19 0 15 0 15 0 20 0 19 0 15 0 4 0 4 0 4 0 3 0 4 0 3 0 3 0 2 0 2 0 2 0 2 0 2 0 2 0 2 0 2 0 1 0 1 0 5 0 4 0 5 0 4 0 5 0 4 0 4 0 4 0 4 0 4 0 4 0 4 0 4 0 3 0 4 0 3 0 5 0 5 0 5 0 5 0 4 0 4 0 4 0 4 0 4 0 4 0 11 0 12 0 11 0 12 0 12 0 12 0 12 0 13 0 13 0 14 0 13 0 14 0 14 0 14 0 3 0 2 0 2 0 2 0 2 0 2 0 2 0 2 0 2 0 3 0 2 0 2 0 2 0 2 0 14 0 14 0 14 0 13 0 13 0 13 0 3 0 4 0 4 0 11 0 12 0 13 0 13 0 13 0 12 0 12 0 11 0 11 0 5 0 5 0 5 0 5 0 5 0 4 0 5 0 5 0 11 0 11 0 12 0 12 0 14 0 14 0 2 0 2 0 1 0 2 0 1 0 1 0 2 0 2 0 1 0 2 0 2 0 1 0 1 0 2 0 13 0 11 0 11 0 4 0 9 0 10 0 9 0 10 0 10 0 10 0 10 0 10 0 10 0 11 0 7 0 7 0 7 0 7 0 7 0 7 0 7 0 7 0 7 0 7 0 11 0 11 0 6 0 6 0 6 0 6 0 8 0 9 0 9 0 10 0 10 0 10 0 10 0 11 0 8 0 8 0 8 0 9 0 10 0 10 0 9 0 8 0 9 0 8 0 7 0 7 0 7 0 7 0 8 0 6 0 6 0 6 0 11 0</v>
                </vertex_weights>
            </skin>
        </controller>
    </library_controllers>
    <library_visual_scenes>
        <visual_scene id="VisualSceneNode">
            <node id="node0" name="m0" type="NODE">
                <instance_controller url="#controller0">
                    <skeleton>#jointnode-1</skeleton>
                    <bind_material>
                        <technique_common>
                            <instance_material symbol="Material1" target="#mat0">
                                <bind_vertex_input semantic="UVSET0" input_semantic="TEXCOORD" input_set="0"></bind_vertex_input>
                            </instance_material>
                        </technique_common>
                    </bind_material>
                </instance_controller>
            </node>
            <node id="jointnode-1" name="root" sid="jointnode-1" type="JOINT">
                <node id="jointnode0" name="HairModel_Root" sid="jointnode0" type="JOINT">
                    <rotate>0 1 0 89.99725333414716</rotate>
                    <node id="jointnode1" name="Hair1" sid="jointnode1" type="JOINT">
                        <node id="jointnode2" name="Hair2" sid="jointnode2" type="JOINT">
                            <translate>29.638296127319336 0 0</translate>
                            <node id="jointnode3" name="Hair3" sid="jointnode3" type="JOINT">
                                <translate>30 0 0</translate>
                                <node id="jointnode4" name="Hair4" sid="jointnode4" type="JOINT">
                                    <translate>30 0 0</translate>
                                    <node id="jointnode5" name="Hair5" sid="jointnode5" type="JOINT">
                                        <translate>30 0 0</translate>
                                        <node id="jointnode6" name="Hair6" sid="jointnode6" type="JOINT">
                                            <translate>30 0 0</translate>
                                            <node id="jointnode7" name="Hair7" sid="jointnode7" type="JOINT">
                                                <translate>30 0 0</translate>
                                                <node id="jointnode8" name="Hair8" sid="jointnode8" type="JOINT">
                                                    <translate>30 0 0</translate>
                                                    <node id="jointnode9" name="Hair9" sid="jointnode9" type="JOINT">
                                                        <translate>30 0 0</translate>
                                                        <node id="jointnode10" name="Hair10" sid="jointnode10" type="JOINT">
                                                            <translate>30 0 0</translate>
                                                            <node id="jointnode11" name="Hair11" sid="jointnode11" type="JOINT">
                                                                <translate>30 0 0</translate>
                                                                <node id="jointnode12" name="Hair12" sid="jointnode12" type="JOINT">
                                                                    <translate>30 0 0</translate>
                                                                    <node id="jointnode13" name="Hair13" sid="jointnode13" type="JOINT">
                                                                        <translate>30 0 0</translate>
                                                                        <node id="jointnode14" name="Hair14" sid="jointnode14" type="JOINT">
                                                                            <translate>30 0 0</translate>
                                                                            <node id="jointnode15" name="Hair15" sid="jointnode15" type="JOINT">
                                                                                <translate>30 0 0</translate>
                                                                                <node id="jointnode16" name="Hair16" sid="jointnode16" type="JOINT">
                                                                                    <translate>30 0 0</translate>
                                                                                    <node id="jointnode17" name="Hair17" sid="jointnode17" type="JOINT">
                                                                                        <translate>30 0 0</translate>
                                                                                        <node id="jointnode18" name="Hair18" sid="jointnode18" type="JOINT">
                                                                                            <translate>30 0 0</translate>
                                                                                            <node id="jointnode19" name="Hair19" sid="jointnode19" type="JOINT">
                                                                                                <translate>30 0 0</translate>
                                                                                                <node id="jointnode20" name="Hair20" sid="jointnode20" type="JOINT">
                                                                                                    <translate>30 0 0</translate>
                                                                                                    <node id="jointnode21" name="Hair21" sid="jointnode21" type="JOINT">
                                                                                                        <translate>30 0 0</translate>
                                                                                                    </node>
                                                                                                </node>
                                                                                            </node>
                                                                                        </node>
                                                                                    </node>
                                                                                </node>
                                                                            </node>
                                                                        </node>
                                                                    </node>
                                                                </node>
                                                            </node>
                                                        </node>
                                                    </node>
                                                </node>
                                            </node>
                                        </node>
                                    </node>
                                </node>
                            </node>
                        </node>
                    </node>
                </node>
            </node>
        </visual_scene>
    </library_visual_scenes>
    <scene>
        <instance_visual_scene url="#VisualSceneNode"></instance_visual_scene>
    </scene>
</COLLADA>
