<?xml version="1.0"?>
<COLLADA xmlns="http://www.collada.org/2005/11/COLLADASchema" version="1.4.1">
    <asset>
        <contributor>
            <authoring_tool>J3D Ripoff Exporter</authoring_tool>
        </contributor>
        <created>2024-08-19T02:25:59.021Z</created>
        <modified>2024-08-19T02:25:59.021Z</modified>
		<unit meter="0.01" name="centimeter" ></unit>
        <up_axis>Y_UP</up_axis>
    </asset>
    <library_images>
        <image id="tex0">
            <init_from>konfu_body.png</init_from>
        </image>
        <image id="tex1">
            <init_from>konfu_eye.png</init_from>
        </image>
    </library_images>
    <library_effects>
        <effect id="effect0">
            <profile_COMMON>
                <newparam sid="surface0">
                    <surface type="2D">
                        <init_from>tex1</init_from>
                    </surface>
                </newparam>
                <newparam sid="sampler0">
                    <sampler2D>
                        <source>surface0</source>
                    </sampler2D>
                </newparam>
                <technique sid="COMMON">
                    <blinn>
                        <diffuse>
                            <texture texture="sampler0" texcoord="UVSET0"></texture>
                        </diffuse>
                    </blinn>
                </technique>
            </profile_COMMON>
        </effect>
        <effect id="effect1">
            <profile_COMMON>
                <newparam sid="surface1">
                    <surface type="2D">
                        <init_from>tex0</init_from>
                    </surface>
                </newparam>
                <newparam sid="sampler1">
                    <sampler2D>
                        <source>surface1</source>
                    </sampler2D>
                </newparam>
                <technique sid="COMMON">
                    <blinn>
                        <diffuse>
                            <texture texture="sampler1" texcoord="UVSET0"></texture>
                        </diffuse>
                    </blinn>
                </technique>
            </profile_COMMON>
        </effect>
        <effect id="effect2">
            <profile_COMMON>
                <newparam sid="surface2">
                    <surface type="2D">
                        <init_from>tex0</init_from>
                    </surface>
                </newparam>
                <newparam sid="sampler2">
                    <sampler2D>
                        <source>surface2</source>
                    </sampler2D>
                </newparam>
                <technique sid="COMMON">
                    <blinn>
                        <diffuse>
                            <texture texture="sampler2" texcoord="UVSET0"></texture>
                        </diffuse>
                    </blinn>
                </technique>
            </profile_COMMON>
        </effect>
    </library_effects>
    <library_materials>
        <material id="mat0" name="Eye">
            <instance_effect url="#effect0"></instance_effect>
        </material>
        <material id="mat1" name="Skin_etc">
            <instance_effect url="#effect1"></instance_effect>
        </material>
        <material id="mat2" name="Skin_spc">
            <instance_effect url="#effect2"></instance_effect>
        </material>
    </library_materials>
    <library_geometries>
        <geometry id="mesh0">
            <mesh>
                <source id="points0">
                    <float_array id="pointarray0" count="45">58.46875 -53.15625 -23.50390625 60.91015625 -52.48046875 -21.24609375 58.4140625 -48.75 -22.9375 60.875 -49.91015625 -21.15234375 59.06640625 -45.91796875 -21.1953125 61.3046875 -47.70703125 -19.8359375 60.24609375 -44.02734375 -17.21875 62.08203125 -46.45703125 -17.15234375 61.640625 -44.0859375 -13.4765625 63.00390625 -46.49609375 -14.68359375 62.875 -46.0859375 -10.30859375 63.81640625 -47.81640625 -12.59375 63.62109375 -49.4921875 -8.5625 64.30859375 -50.0625 -11.44140625 63.0625 -51.24609375 -16.4609375</float_array>
                    <technique_common>
                        <accessor count="15" source="#pointarray0" stride="3">
                            <param name="X" type="float"/>
                            <param name="Y" type="float"/>
                            <param name="Z" type="float"/>
                        </accessor>
                    </technique_common>
                </source>
                <source id="uvs0">
                    <float_array id="uvarray0" count="30">-0.1221923828125 0.59320068359375 -0.24017333984375 0.55853271484375 -0.12957763671875 0.39312744140625 -0.24505615234375 0.426513671875 -0.232421875 0.22149658203125 -0.31292724609375 0.313232421875 -0.42901611328125 0.12420654296875 -0.45147705078125 0.2490234375 -0.6219482421875 0.12738037109375 -0.57879638671875 0.2510986328125 -0.78533935546875 0.23016357421875 -0.6866455078125 0.3189697265625 -0.87542724609375 0.40496826171875 -0.74609375 0.434326171875 -0.4871826171875 0.49505615234375</float_array>
                    <technique_common>
                        <accessor count="15" source="#uvarray0" stride="2">
                            <param name="S" type="float"/>
                            <param name="T" type="float"/>
                        </accessor>
                    </technique_common>
                </source>
                <vertices id="vertices0">
                    <input semantic="POSITION" source="#points0"/>
                </vertices>
                <polylist count="18" material="Material1">
                    <input offset="0" semantic="VERTEX" source="#vertices0"/>
                    <input offset="1" semantic="TEXCOORD" source="#uvs0" set="0"/>
                    <vcount>3 3 3 3 3 3 3 3 3 3 3 3 3 3 3 3 3 3</vcount>
                    <p>2 2 1 1 0 0 3 3 1 1 2 2 4 4 3 3 2 2 5 5 3 3 4 4 6 6 5 5 4 4 7 7 5 5 6 6 8 8 7 7 6 6 9 9 7 7 8 8 10 10 9 9 8 8 11 11 9 9 10 10 12 12 11 11 10 10 13 13 11 11 12 12 3 3 14 14 1 1 5 5 14 14 3 3 7 7 14 14 5 5 9 9 14 14 7 7 11 11 14 14 9 9 13 13 14 14 11 11</p>
                </polylist>
            </mesh>
        </geometry>
        <geometry id="mesh1">
            <mesh>
                <source id="points1">
                    <float_array id="pointarray1" count="1485">71.109375 3.86328125 -30 64.671875 2.9296875 -33.890625 71.21484375 5.2578125 -26.19140625 50.5390625 7.890625 -27.8671875 57.3671875 8.51171875 -14.5 46.56640625 5.49609375 -9.3359375 57.3828125 8.8828125 -0.3125 44.2421875 5.0234375 0.140625 46.66796875 4.04296875 9.32421875 34.85546875 -1.33203125 -1.5625 39.3046875 -0.52734375 15.85546875 27.90625 -6.85546875 -1.75390625 33.73828125 -6.15234375 20.9921875 25.7109375 -13.65234375 -1.96875 31.953125 -10.97265625 22.69921875 28.609375 -20.07421875 -2.171875 34.4453125 -18.1796875 20.57421875 36.16015625 -24.2109375 -2.7890625 40.609375 -23.3828125 15.08203125 48.3671875 -28.41015625 5.31640625 49.62890625 -25.76171875 22.92578125 61.12109375 -28.79296875 10.08984375 66.28515625 -23.94921875 21.34765625 75.88671875 -25.32421875 10.4296875 74.73828125 -21.12890625 20.7109375 79.63671875 -22.5 13.8359375 63.359375 -43.42578125 -11.03515625 64.4375 -44.75 -5.05078125 70.93359375 -42.14453125 -8.19921875 64.58203125 -44.9140625 0 72.234375 -42.5390625 0 70.93359375 -42.14453125 8.19921875 76.66796875 -40.3125 0.39453125 75.15625 -39.96875 8.79296875 84.18359375 -32.203125 0.53125 81.6015625 -31.859375 9.78515625 85.61328125 -28.515625 4.49609375 82.65234375 -27.72265625 13.03125 81.91796875 -24.10546875 13.828125 76.65234375 -26.13671875 21.859375 76.05078125 -22.34375 21.7734375 68.3828125 -22.88671875 30.37890625 67.55859375 -18.8671875 30.1796875 60.80859375 -15.08203125 35.66015625 59.9375 -13.9375 34.28125 52.0078125 -8.328125 40.4375 52.53125 -8.0078125 37.41796875 50.9296875 -2.546875 39.9375 51.36328125 -2.50390625 37.08203125 52.35546875 0.796875 36.28125 39.18359375 2.6953125 -17.3984375 33.65625 -4.88671875 -24.35546875 31.953125 -11.09375 -26.4375 34.36328125 -17.30078125 -24.7734375 40.609375 -22.171875 -19.66015625 48.390625 -28.16796875 -13.41796875 49.2421875 -20.40625 -25.65625 61.08203125 -27.546875 -17.82421875 67.99609375 -19.2578125 -26.94921875 75.734375 -23.16015625 -17.2109375 74.484375 -15.5546875 -26.47265625 79.4453125 -18.921875 -18.796875 67.265625 -25.515625 29.97265625 58.4609375 -20.98046875 35.77734375 60.125 -18.2734375 36.03125 51.07421875 -15.44921875 39.34375 40.85546875 -9.58203125 43.91796875 48.30078125 -3.23828125 41.83984375 48.82421875 0.9453125 42.12890625 52.05078125 0.87109375 39.20703125 55.98828125 3.06640625 38.62109375 55.39453125 2.55859375 35.46484375 64.7421875 4.3984375 38.01953125 65.1171875 3.375 32.57421875 72.39453125 5.29296875 33.53515625 71.4375 3.69921875 29.4765625 77.24609375 4.3984375 23.6328125 77.05859375 -21.4453125 4.21484375 75.984375 -19.5859375 8.671875 75.8359375 -23.9609375 8.91796875 73.64453125 -20.98046875 12.58203125 72.1015625 -22.40625 16.79296875 72.01171875 -18.73828125 15.7890625 62.50390625 -20.546875 23.59765625 66.90234375 -12.09765625 20.6796875 57.02734375 -7.0625 24.7421875 67.19140625 -8.83203125 21 68.44921875 -7.37890625 24.953125 68.67578125 -10.40234375 25.80859375 74.79296875 -4.71484375 19.90234375 74.5234375 -12.30859375 22.74609375 76.33203125 -11.23046875 19.77734375 74.83203125 -22.34375 18.87109375 76.0234375 -17.85546875 18.0546875 68.34375 -36.12109375 24.08203125 63.22265625 -32.7421875 29.44921875 55.09765625 -28.31640625 35.0078125 47.90234375 -24.80078125 38.2890625 38.0546875 -16.70703125 42.5703125 27.69140625 -16.84375 42.34765625 29.58984375 -6.2890625 43.7578125 22.328125 -8.01953125 40.65625 21.59765625 0.14453125 40.0859375 11.03125 -0.37109375 32.59375 23.40625 9.46484375 38.41015625 10.7578125 8.59765625 24.80078125 28.765625 23.1328125 30.93359375 60.44921875 -58.55859375 18.25 61.84375 -58.62109375 14.0078125 61.6171875 -48.2109375 20.71484375 63.0234375 -56.7265625 10.69921875 64.1953125 -47.23828125 12.73828125 63.67578125 -53.38671875 8.703125 64.67578125 -46.55078125 6.609375 64.9140625 -52.68359375 0 65.11328125 -46.3671875 0 64.67578125 -47.015625 -5.83203125 68.453125 -48.609375 0 68.0390625 -49.1015625 -6.3515625 68.9921875 -53.80078125 0 68.2734375 -54.2734375 -6.08984375 65.37890625 -57.5546875 -3.734375 63.765625 -60.47265625 -9.7265625 55.1328125 1.06640625 -37.96875 52.390625 -0.390625 -39.04296875 43.4296875 0.25 -37.12890625 52.96875 -3.76953125 -39.01171875 47.08203125 -5.62109375 -40.90234375 56.37109375 -5.81640625 -38.046875 48.1875 -11.01171875 -38.55859375 54.5625 -12.234375 -37.2734375 59.45703125 -14.26953125 -33.421875 64.71875 -9.890625 -34.18359375 64.4375 -44.75 5.05078125 63.359375 -43.84375 11.03515625 67.515625 -41.6015625 13.859375 62.1640625 -42.16015625 16.1875 72.0625 -38.34765625 18.1796875 76.28125 -30.04296875 20.27734375 69.58984375 -33.63671875 -25.25390625 75.71875 -24.2890625 -27.75390625 63.01171875 -27.515625 -34.2109375 66.76953125 -19.203125 -36.03515625 59.921875 -14.703125 -40.47265625 59.703125 -11.33984375 -41.0546875 52.10546875 -7.125 -43.85546875 52.0703125 -3.55078125 -44.046875 37.68359375 -5.34375 -47.3359375 37.08984375 6.578125 -47.0625 30.04296875 -5.22265625 -46.8515625 23.875 4.16015625 -43.0234375 22.3984375 -5.1015625 -43.58203125 57.39453125 -37.87890625 -25.07421875 58.55078125 -35.70703125 -28.2265625 55.24609375 -33.2578125 -30.67578125 57.5546875 -23.2734375 -38.72265625 53.91796875 -29.61328125 -34.0625 49.98046875 -19.88671875 -42.109375 45.859375 -26.46875 -37.578125 39.78515625 -17.84765625 -44.1328125 39.14453125 -24.94921875 -39.109375 27.69140625 -22.8125 -39.33203125 32.45703125 -25.19921875 -38.69140625 49.80859375 4.53515625 26.07421875 71.5 4.640625 25.8046875 57.53125 6.4609375 16.22265625 72.63671875 6.8203125 9.78125 72.6953125 7.53515625 1.02734375 72.54296875 7.2421875 -8.6953125 79.5859375 5.375 -16.7578125 77.484375 4.76171875 -24.17578125 41.3828125 -1.5 44.5234375 36.5546875 9.44921875 42.87890625 45.03515625 7.37109375 44.25 49.1484375 13.51953125 42.6953125 53.62109375 8.12109375 43.1484375 56.41796875 13.6484375 41.359375 63.6015625 7.98828125 38.6328125 62.68359375 13.44921875 38.23828125 69.1328125 11.67578125 33.51171875 61.1171875 20.8671875 37.71875 67.125 20.703125 32.6171875 28.765625 21.40234375 -34.55859375 38.88671875 20.58984375 -40.6796875 52.72265625 20.74609375 -40.234375 55.40234375 2.671875 -42.35546875 65.40234375 6.04296875 -38.5390625 65.31640625 4.54296875 -38.1328125 72.53125 7.2734375 -34.26171875 72.828125 5.84375 -33.375 79.453125 6.73828125 -26.30078125 82.21484375 5.21875 -16.56640625 21.26171875 28.01171875 1.0859375 12.7265625 21.4453125 1.0859375 24.09765625 23.625 -20.59765625 11.94921875 16.22265625 -14.56640625 10.7578125 8.34765625 -24.80078125 11.03125 -0.37109375 -32.59375 14.4296875 -9.08984375 -36.41796875 24.890625 -13.2890625 -42.99609375 20.40625 -16.921875 -37.4609375 57.1875 -59.796875 29.96875 45.953125 -58.55859375 36.5 52.35546875 -56.03515625 35.80078125 43.43359375 -53.12109375 39.96484375 50.7109375 -52.80078125 38.23046875 42.40234375 -48.05078125 41.25390625 49.58984375 -48.1953125 39.78515625 42.93359375 -42.28515625 40.75390625 49.91796875 -44.61328125 39.4765625 45.13671875 -36.25390625 38.05859375 51.140625 -40.1953125 38.15625 49.36328125 -32.34375 32.53125 53.26953125 -35.75390625 34.39453125 62.1640625 -41.7421875 -16.1875 73.1875 -37.3359375 -16.4921875 81.46484375 -28.51171875 -18.7421875 76.33984375 -20.03515625 -29.03125 67.8828125 -15.06640625 -35.9921875 75.7265625 -16.3984375 -28 67.20703125 -11.6328125 -35.08984375 55.85546875 -63.9296875 -23.73828125 63.2421875 -58.6875 -21.24609375 55.98046875 -60.8359375 -30.4921875 59.3515625 -52.2578125 -28.78515625 56.51953125 -49.93359375 -33.3828125 54.62890625 -48.078125 -29.9921875 55.18359375 -46.38671875 -35.25 54.12109375 -45.4140625 -31.33203125 55.37109375 -42.51953125 -34.84375 54.38671875 -42.4296875 -31.234375 56.33203125 -38.921875 -32.84765625 55.90234375 -39.0859375 -28.3203125 83.53125 -22.6640625 -2.71875 83.16015625 -22.171875 -5.98046875 85.890625 -24.54296875 -2.6484375 85.51953125 -24.06640625 -5.9296875 86.57421875 -27.98828125 -2.87109375 86.203125 -27.68359375 -6.15234375 84.25 -31.453125 -2.984375 83.8828125 -31.1484375 -6.265625 76.53515625 -39.83203125 -3.17578125 76.1640625 -39.52734375 -6.45703125 72.16796875 -42.390625 -3.49609375 69.37109375 -43.375 -6.6484375 78.01953125 7.2109375 1.765625 76.89453125 6.60546875 10.41796875 79.60546875 -4.7265625 1.66796875 78.33203125 -5 10.7421875 82.03515625 -4.046875 1.78515625 80.640625 -4.23046875 11.51171875 81.10546875 -2.390625 11.93359375 76.02734375 -2.89453125 21.765625 74.8828125 5.296875 21.82421875 73.28125 1.36328125 26.9140625 71.44140625 5.609375 26.80859375 65.76171875 5.84765625 30.08203125 63.2421875 -58.6875 21.24609375 59.53125 -50.8671875 30.1875 56.43359375 -49.75390625 34.10546875 54.62890625 -47.19921875 31.171875 54.89453125 -47.4765625 35.88671875 53.91015625 -44.63671875 32.19921875 55.09375 -42.51953125 35.23046875 54.38671875 -42.5859375 31.234375 56.33203125 -38.921875 32.84765625 55.90234375 -39.74609375 28.3203125 57.39453125 -37.87890625 25.07421875 81.30859375 16.890625 -3.671875 84.42578125 12.125 -7.25390625 84.70703125 12.02734375 0 87.73046875 10.2109375 0.8515625 84.42578125 12.125 7.25390625 87.265625 9.75390625 8.78125 84.1875 8.8359375 18.33203125 87.19921875 7.42578125 8.3359375 83.93359375 6.9921875 17.890625 84.03125 5.4296875 7.78515625 81.890625 4.8203125 16.14453125 62.1328125 -4.0703125 24.5859375 73.109375 -6.984375 25.80078125 73.0625 -3.18359375 19.390625 76.03515625 -4.5703125 20.66796875 74.20703125 -5.19140625 19.0703125 71.89453125 6.64453125 18.5390625 84.57421875 5.83203125 0.59375 87.5546875 7.76171875 0.81640625 87 7.7265625 -8.671875 87.1875 9.953125 -7.99609375 84.1796875 9.20703125 -17.60546875 82.22265625 11.375 -17.07421875 81.49609375 14.9296875 -10.45703125 76.88671875 18.0546875 -16.67578125 73.12109375 -21.65234375 -16.9375 66.4140625 -19.56640625 -24.42578125 72.671875 -17.41796875 -16.5703125 68.140625 -9.0703125 -21.265625 70.95703125 -9.20703125 -17.8203125 72.62109375 -2.64453125 -20.31640625 75.7265625 -9.22265625 -20.05078125 73.2734375 -8.95703125 -22.7734375 75.5859375 -21 -18.984375 72.71875 -19.578125 -23.75390625 86.1484375 -28 -4.23046875 84.87890625 -24.8359375 4.453125 65.06640625 -16.953125 29.76953125 61.30078125 -21.3984375 26.96875 57.203125 -17.98046875 32.48828125 48.46484375 -16.80078125 32.18359375 47.390625 -12.03125 34.703125 80.15234375 -20.16796875 10.3203125 81.36328125 -21.9453125 5.1171875 82.58203125 -20.6640625 -0.21484375 78.140625 -20.16796875 -0.37890625 81.74609375 -21.3359375 -5.84765625 77.3828125 -20.96484375 -5.15234375 80.875 -19.34375 -10.66796875 76.58984375 -19.32421875 -9.1015625 70.63671875 -22.234375 23.60546875 65.53125 -20.2421875 27.32421875 58.38671875 -17.8359375 30.46875 59.18359375 -8.53515625 29.5859375 50.28515625 -6.78515625 33.46875 50.64453125 -4.921875 32.34765625 49.3515625 -6.99609375 26.73828125 69.30078125 -7.96484375 -27.16015625 68.97265625 -5.015625 -26.1328125 68.48828125 -6.69140625 -21.23828125 59.125 -5.53125 -26.4765625 67.84765625 -17.84375 -28.26171875 61.3203125 -16.28515625 -33.18359375 60.4609375 -6.53125 -31.39453125 52.6640625 -5.12890625 -34.61328125 52.9375 -3.34765625 -33.3125 53.51171875 -5.453125 -28.24609375 64.02734375 6.16796875 38.9609375 70.19140625 8.9765625 33.921875 72.109375 6.8359375 34.1015625 79.07421875 7.9140625 27.19921875 79.4375 6.125 26.3984375 48.3671875 -3.65234375 28.18359375 49.3828125 -3.8984375 32.71875 54.33203125 -3.01953125 27.86328125 55.875 -3.40234375 30.9609375 64.94140625 -3.625 27.92578125 56.25390625 -1.765625 32.12890625 65.86328125 -2.08984375 28.640625 56.8515625 5.38671875 33.87109375 71.8046875 19.79296875 -25.89453125 77.234375 10.33984375 -26.30859375 79.45703125 8.44140625 -27.06640625 84.1796875 7.34765625 -17.88671875 82.05859375 -20.671875 -19.34765625 84.7890625 -22.82421875 -11.859375 85.52734375 -26.3828125 -12.109375 51.140625 -40.1953125 -38.15625 49.91796875 -44.61328125 -39.4765625 49.58984375 -47.8671875 -39.78515625 50.7109375 -52.80078125 -38.23046875 42.40234375 -48.05078125 -41.25390625 43.43359375 -53.12109375 -39.96484375 52.12109375 -2.33203125 -29.98828125 56.07421875 -1.90625 -28.84375 52.2109375 -2.65625 -35.70703125 58.55859375 -2.515625 -31.1875 58.37890625 -0.87890625 -32.3203125 67.46484375 -2.9375 -26.98046875 68.14453125 -1.40625 -27.63671875 64.99609375 -2.4609375 -23.94921875 73.6171875 -5.375 -25.70703125 71.484375 -27.69921875 -3.84765625 58.796875 -30.9609375 -4.33984375 47.3046875 -28.52734375 -3.9375 80.0546875 -23.1640625 -11.09765625 78.796875 -18.90234375 -15.6953125 76.640625 -16.6953125 -18.89453125 63.41015625 -4.07421875 25.6484375 68.0390625 -49.1015625 6.3515625 66.8828125 -50.26171875 13.1796875 64.640625 -50.86328125 21.55078125 68.30078125 5.53125 -28.92578125 58.73828125 5.31640625 -33.58203125 51.8125 -1.07421875 -36.32421875 67.125 20.703125 -32.6171875 70.79296875 8.68359375 -33.3515625 59.21484375 -56.55859375 21.41796875 56.58984375 -47.91015625 28.3671875 60.34765625 -40.52734375 20.67578125 58.55078125 -35.70703125 28.2265625 55.24609375 -33.2578125 30.67578125 59.390625 -6.015625 28.60546875 76.60546875 9.87890625 27.1796875 71.8046875 19.79296875 25.89453125 81.48828125 11.0390625 18.3515625 76.88671875 18.0546875 16.67578125 81.49609375 14.9296875 10.45703125 82.36328125 -21.21484375 -11.87109375 78.71875 -22.58203125 -3.59375 63.765625 -60.47265625 9.7265625 59.7109375 -63.3671875 17.33203125 55.85546875 -63.9296875 23.73828125 50.94921875 -62.828125 30.7890625 53.26953125 -35.75390625 -34.39453125 49.36328125 -32.34375 -32.53125 45.13671875 -36.25390625 -38.05859375 42.609375 -2.0625 33.609375 82.8046875 -24.4765625 -19.578125 60.59375 -4.08984375 -30.1875 73.5 -2.59765625 -18.55078125 76.68359375 -2.3125 -20.63671875 74.375 2.15234375 -25.6796875 75.453125 6.22265625 -19.4375 73.30078125 5.55859375 -25.04296875 58.09765625 -7.37109375 -40.37109375 51.7265625 0.71484375 -43.48828125 38.88671875 20.58984375 39.5390625 14.4296875 -9.08984375 36.41796875 20.921875 -17.61328125 37.4609375 27.69140625 -23.0703125 39.33203125 32.45703125 -25.45703125 38.69140625 38.15234375 -27.98046875 36.8828125 44.44140625 -30.1875 34.859375 65.82421875 -56.83203125 0 68.2734375 -54.2734375 6.08984375 52.72265625 20.74609375 40.234375 55.23046875 3.96484375 41.7734375 65.37890625 -57.5546875 3.734375 67.04296875 -55.734375 12.1796875 48.89453125 -2.31640625 33.87890625 48.73046875 4.6328125 35.97265625 42.93359375 -42.28515625 -40.75390625 63.67578125 -53.38671875 -8.703125 63.0234375 -56.7265625 -10.69921875 64.03515625 -48.83203125 -12.73828125 61.625 -50.10546875 -20.46484375 66.8828125 -50.26171875 -13.1796875 63.69140625 -51.9765625 -21.30078125 77.734375 -20.79296875 14.5390625 55.24609375 -33.26171875 30.67578125 82.45703125 -23.28515625 4.89453125 83.203125 -22.79296875 -3.546875 74.6328125 -18.99609375 -12.9140625 67.04296875 -55.734375 -12.1796875 52.3046875 -56.24609375 -36.16796875 45.953125 -58.55859375 -36.5 78.0546875 -24.0859375 -0.51953125 76.5625 -23.2578125 -9.47265625 85.53125 -24.4140625 -3.76953125 31.32421875 -16.4296875 -44.33203125 81.75 -24.77734375 -0.26171875 79.1875 -24.26953125 10.765625 38.15234375 -27.98046875 -36.8828125 43.5703125 -30.1875 -34.859375 59.21484375 -56.55859375 -21.41796875 56.4140625 -49.87890625 -27.0703125 60.44921875 -58.55859375 -18.25 61.84375 -58.62109375 -14.0078125 75.57421875 -39.2421875 -8 78.22265625 -4.83984375 -9.02734375 80.6171875 -4.0625 -10.0625 74.4140625 -4.66015625 -17.84375 76.58984375 -3.98828125 -19.57421875 64.7890625 -3.58203125 -24.02734375 84.46875 5.69921875 -8.54296875 51.32421875 -16.14453125 -30.26171875 50.0625 -14.76953125 -37.13671875 59.3046875 -17.91796875 -27.80078125 80.0859375 7.1328125 12.32421875 82.66796875 -2.51953125 1.83984375 64.21875 5.17578125 25.52734375 55.265625 5.73046875 29.61328125 49.16796875 5.54296875 30.47265625 79.76171875 4.74609375 16.46484375 83.140625 5.44140625 0.7421875 49.1484375 -16.140625 34.75 48.7578125 -16.609375 29.0078125 81.58203125 7.2109375 1.859375 24.09765625 27.6171875 21.6875 11.94921875 16.21484375 15.65625 60.7421875 20.9296875 -36.8671875 73.15234375 -11.0390625 17.53515625 81.03125 6.01171875 -10.25390625 81.1171875 -2.22265625 -10.40625 77.3203125 7.04296875 -8.59375 73.9609375 6.4453125 -16.23828125 66.33203125 5.73046875 -24.59765625 56.75 6.27734375 -29.48046875 49.41796875 5 -34.30078125 49.48046875 4.078125 -39.22265625 55.24609375 -33.26171875 -30.67578125 60.34765625 -40.109375 -20.67578125 59.7109375 -63.3671875 -17.33203125 56.3671875 -18.4609375 26.52734375 50.94921875 -62.828125 -30.7890625 81.30859375 16.890625 3.671875</float_array>
                    <technique_common>
                        <accessor count="495" source="#pointarray1" stride="3">
                            <param name="X" type="float"/>
                            <param name="Y" type="float"/>
                            <param name="Z" type="float"/>
                        </accessor>
                    </technique_common>
                </source>
                <source id="uvs1">
                    <float_array id="uvarray1" count="966">0.27001953125 0.47991943359375 0.27752685546875 0.49884033203125 0.26275634765625 0.48138427734375 0.26275634765625 0.5299072265625 0.245361328125 0.50701904296875 0.23583984375 0.53875732421875 0.22216796875 0.50701904296875 0.22216796875 0.5458984375 0.2357177734375 0.53875732421875 0.22216796875 0.577392578125 0.2471923828125 0.56427001953125 0.22216796875 0.5985107421875 0.25482177734375 0.58135986328125 0.22216796875 0.60589599609375 0.25750732421875 0.58734130859375 0.26263427734375 0.5299072265625 0.24407958984375 0.4971923828125 0.259765625 0.4776611328125 0.24365234375 0.44793701171875 0.25885009765625 0.457763671875 0.24639892578125 0.4403076171875 0.04962158203125 0.44866943359375 0.02587890625 0.4468994140625 0.04010009765625 0.41943359375 0.00848388671875 0.447998046875 0.00848388671875 0.42059326171875 0.0399169921875 0.41943359375 0.0081787109375 0.4034423828125 0.045654296875 0.40106201171875 0.00848388671875 0.3663330078125 0.038818359375 0.33160400390625 0.02423095703125 0.16876220703125 0.039794921875 0.16864013671875 0.040771484375 0.1431884765625 0.06488037109375 0.165283203125 0.06475830078125 0.1402587890625 0.08837890625 0.1556396484375 0.0887451171875 0.1290283203125 0.10650634765625 0.1187744140625 0.10906982421875 0.10101318359375 0.1173095703125 0.09490966796875 0.11181640625 0.0914306640625 0.11834716796875 0.07958984375 0.11456298828125 0.08184814453125 0.1162109375 0.076171875 0.247314453125 0.56427001953125 0.2550048828125 0.58135986328125 0.2576904296875 0.58734130859375 0.24420166015625 0.4971923828125 0.2598876953125 0.4776611328125 0.24383544921875 0.44793701171875 0.259033203125 0.457763671875 0.24652099609375 0.4403076171875 0.08978271484375 0.23785400390625 0.1038818359375 0.1971435546875 0.1103515625 0.138916015625 0.13006591796875 0.1046142578125 0.146484375 0.09710693359375 0.1214599609375 0.077392578125 0.12689208984375 0.05560302734375 0.12158203125 0.06585693359375 0.11505126953125 0.05242919921875 0.1148681640625 0.05706787109375 0.09796142578125 0.06463623046875 0.10052490234375 0.07037353515625 0.08282470703125 0.0703125 0.085693359375 0.0782470703125 0.06634521484375 0.082763671875 0.3016357421875 0.982666015625 0.31536865234375 0.9739990234375 0.3157958984375 0.9884033203125 0.3292236328125 0.98236083984375 0.3455810546875 0.9888916015625 0.349853515625 0.97222900390625 0.37432861328125 0.98736572265625 0.37298583984375 0.938232421875 0.40057373046875 0.90423583984375 0.37237548828125 0.90625 0.37298583984375 0.93182373046875 0.3551025390625 0.9222412109375 0.3568115234375 0.9439697265625 0.34912109375 0.937744140625 0.34521484375 0.97222900390625 0.06915283203125 0.3316650390625 0.08917236328125 0.30938720703125 0.10821533203125 0.2841796875 0.1229248046875 0.26483154296875 0.1400146484375 0.2662353515625 0.1578369140625 0.1920166015625 0.1512451171875 0.120361328125 0.16412353515625 0.1435546875 0.16326904296875 0.0816650390625 0.18310546875 0.14697265625 0.16668701171875 0.04449462890625 0.192626953125 0.08740234375 0.1802978515625 0.00689697265625 0.0711669921875 0.6258544921875 0.05645751953125 0.61749267578125 0.06976318359375 0.63043212890625 0.048828125 0.61431884765625 0.04931640625 0.61944580078125 0.0313720703125 0.61102294921875 0.03143310546875 0.6156005859375 0.00518798828125 0.60797119140625 0.00506591796875 0.61151123046875 0.0313720703125 0.6156005859375 0.00506591796875 0.6156005859375 0.0308837890625 0.61920166015625 0.00396728515625 0.65911865234375 0.02593994140625 0.66265869140625 0.01397705078125 0.68402099609375 0.03143310546875 0.69073486328125 0.280029296875 0.5135498046875 0.28228759765625 0.52362060546875 0.275146484375 0.53643798828125 0.2823486328125 0.52081298828125 0.27947998046875 0.5386962890625 0.28045654296875 0.511962890625 0.27691650390625 0.5126953125 0.2684326171875 0.49517822265625 0.27203369140625 0.48895263671875 0.025634765625 0.4468994140625 0.0494384765625 0.44866943359375 0.0631103515625 0.424560546875 0.07440185546875 0.42120361328125 0.0489501953125 0.34967041015625 0.063720703125 0.28460693359375 0.06939697265625 0.3316650390625 0.06396484375 0.28460693359375 0.08819580078125 0.27960205078125 0.09002685546875 0.23785400390625 0.1041259765625 0.1971435546875 0.110595703125 0.138916015625 0.13031005859375 0.1046142578125 0.1192626953125 0.083984375 0.146728515625 0.09710693359375 0.15350341796875 0.04583740234375 0.1514892578125 0.120361328125 0.16351318359375 0.0816650390625 0.164306640625 0.1435546875 0.1002197265625 0.39605712890625 0.0958251953125 0.375244140625 0.108642578125 0.3653564453125 0.10638427734375 0.2557373046875 0.112548828125 0.34112548828125 0.120361328125 0.23712158203125 0.1287841796875 0.32025146484375 0.13995361328125 0.2222900390625 0.14056396484375 0.3101806640625 0.1566162109375 0.27532958984375 0.1512451171875 0.3118896484375 0.2821044921875 0.52362060546875 0.2799072265625 0.5135498046875 0.26263427734375 0.48138427734375 0.24517822265625 0.50701904296875 0.2357177734375 0.4769287109375 0.22216796875 0.4766845703125 0.23583984375 0.4769287109375 0.247314453125 0.45782470703125 0.25909423828125 0.46051025390625 0.13714599609375 0.04876708984375 0.15325927734375 0.04583740234375 0.1361083984375 0.04168701171875 0.1380615234375 0.03656005859375 0.1190185546875 0.03753662109375 0.12286376953125 0.02728271484375 0.10882568359375 0.0333251953125 0.11138916015625 0.0240478515625 0.09698486328125 0.022705078125 0.11639404296875 0.0054931640625 0.09368896484375 0.005859375 0.1805419921875 0.00689697265625 0.16021728515625 0.00775146484375 0.1307373046875 0.0067138671875 0.11541748046875 0.0478515625 0.09954833984375 0.03558349609375 0.09820556640625 0.06463623046875 0.090087890625 0.05169677734375 0.08306884765625 0.0703125 0.06683349609375 0.07269287109375 0.0665283203125 0.082763671875 0.04681396484375 0.08551025390625 0.2332763671875 0.0078125 0.2332763671875 0.04345703125 0.2054443359375 0.00714111328125 0.20703125 0.06146240234375 0.19287109375 0.08740234375 0.183349609375 0.14697265625 0.175048828125 0.20489501953125 0.16455078125 0.19775390625 0.16864013671875 0.25689697265625 0.09527587890625 0.69781494140625 0.11962890625 0.68280029296875 0.1148681640625 0.66619873046875 0.13238525390625 0.64703369140625 0.12384033203125 0.6448974609375 0.13714599609375 0.6136474609375 0.12957763671875 0.6168212890625 0.13531494140625 0.57568359375 0.12841796875 0.59100341796875 0.1253662109375 0.5360107421875 0.12353515625 0.56195068359375 0.10498046875 0.51025390625 0.10968017578125 0.53265380859375 0.06463623046875 0.4405517578125 0.05120849609375 0.3614501953125 0.0390625 0.33160400390625 0.06512451171875 0.165283203125 0.088623046875 0.1556396484375 0.06500244140625 0.1402587890625 0.0889892578125 0.1290283203125 0.06512451171875 0.12725830078125 0.09246826171875 0.1158447265625 0.0723876953125 0.70526123046875 0.0665283203125 0.67608642578125 0.09515380859375 0.69781494140625 0.093994140625 0.65850830078125 0.1131591796875 0.642333984375 0.10064697265625 0.63665771484375 0.1180419921875 0.61328125 0.1036376953125 0.60687255859375 0.11480712890625 0.57720947265625 0.10009765625 0.58099365234375 0.10601806640625 0.55352783203125 0.08929443359375 0.5589599609375 0.07733154296875 0.54669189453125 0.30535888671875 0.179931640625 0.30535888671875 0.17620849609375 0.29443359375 0.179931640625 0.29443359375 0.17620849609375 0.28350830078125 0.179931640625 0.28350830078125 0.17620849609375 0.275146484375 0.179931640625 0.275146484375 0.17620849609375 0.26971435546875 0.179931640625 0.26971435546875 0.17620849609375 0.26422119140625 0.179931640625 0.26422119140625 0.17620849609375 0.28948974609375 0.98089599609375 0.316650390625 0.98907470703125 0.29107666015625 0.937744140625 0.31640625 0.920654296875 0.290771484375 0.94940185546875 0.3167724609375 0.934326171875 0.31671142578125 0.94049072265625 0.34466552734375 0.93878173828125 0.345458984375 0.9793701171875 0.3531494140625 0.96044921875 0.359619140625 0.98779296875 0.3760986328125 0.98809814453125 0.066650390625 0.67608642578125 0.0941162109375 0.65850830078125 0.11328125 0.642333984375 0.10076904296875 0.63665771484375 0.1181640625 0.61328125 0.103759765625 0.60687255859375 0.11492919921875 0.57720947265625 0.10015869140625 0.58099365234375 0.10614013671875 0.55352783203125 0.08941650390625 0.5589599609375 0.07745361328125 0.54669189453125 0.01983642578125 0.00518798828125 0.0279541015625 0.03387451171875 0.01263427734375 0.034423828125 0.00848388671875 0.06298828125 0.02777099609375 0.03387451171875 0.02423095703125 0.06268310546875 0.046142578125 0.0625 0.0250244140625 0.0755615234375 0.044677734375 0.0748291015625 0.02703857421875 0.086669921875 0.046630859375 0.08551025390625 0.37335205078125 0.93731689453125 0.3543701171875 0.9205322265625 0.3447265625 0.93255615234375 0.34454345703125 0.91864013671875 0.345458984375 0.983154296875 0.00848388671875 0.08746337890625 0.00848388671875 0.07550048828125 0.0252685546875 0.0755615234375 0.0244140625 0.06268310546875 0.04638671875 0.0625 0.047119140625 0.04046630859375 0.03485107421875 0.0181884765625 0.0478515625 0.01129150390625 0.34893798828125 0.97222900390625 0.349365234375 0.93963623046875 0.348388671875 0.93756103515625 0.3582763671875 0.9818115234375 0.00848388671875 0.1685791015625 0.02490234375 0.14385986328125 0.043701171875 0.13134765625 0.06488037109375 0.12725830078125 0.09222412109375 0.1158447265625 0.27191162109375 0.48895263671875 0.26824951171875 0.49517822265625 0.27679443359375 0.5126953125 0.2750244140625 0.53643798828125 0.27935791015625 0.5386962890625 0.3155517578125 0.97869873046875 0.301513671875 0.982666015625 0.3013916015625 0.98590087890625 0.2894287109375 0.981689453125 0.28973388671875 0.98248291015625 0.31536865234375 0.973388671875 0.31561279296875 0.97869873046875 0.3582763671875 0.98712158203125 0.40167236328125 0.9796142578125 0.4019775390625 0.93707275390625 0.43048095703125 0.93603515625 0.4302978515625 0.92938232421875 0.43682861328125 0.93048095703125 0.09088134765625 0.03955078125 0.10028076171875 0.03961181640625 0.09490966796875 0.0540771484375 0.06781005859375 0.06024169921875 0.066650390625 0.07269287109375 0.43023681640625 0.8988037109375 0.43072509765625 0.92791748046875 0.40106201171875 0.9019775390625 0.4024658203125 0.92913818359375 0.3734130859375 0.93048095703125 0.40240478515625 0.93585205078125 0.40423583984375 0.98004150390625 0.0654296875 0.0091552734375 0.07000732421875 0.04180908203125 0.06805419921875 0.06024169921875 0.04486083984375 0.0748291015625 0.0439453125 0.13134765625 0.041015625 0.1431884765625 0.025146484375 0.14385986328125 0.0244140625 0.16876220703125 0.12347412109375 0.56195068359375 0.1282958984375 0.59100341796875 0.12945556640625 0.6168212890625 0.12371826171875 0.6448974609375 0.13702392578125 0.6136474609375 0.13226318359375 0.64703369140625 0.37335205078125 0.93682861328125 0.22216796875 0.471435546875 0.22216796875 0.5086669921875 0.32928466796875 0.9822998046875 0.3492431640625 0.93963623046875 0.37152099609375 0.90399169921875 0.031005859375 0.61920166015625 0.04901123046875 0.6239013671875 0.0687255859375 0.63397216796875 0.3760986328125 0.98162841796875 0.43096923828125 0.934814453125 0.440673828125 0.9290771484375 0.09393310546875 0.005859375 0.092041015625 0.0372314453125 0.0816650390625 0.63861083984375 0.08984375 0.64764404296875 0.0872802734375 0.410888671875 0.0999755859375 0.39605712890625 0.0994873046875 0.381591796875 0.1083984375 0.3653564453125 0.4298095703125 0.90118408203125 0.40191650390625 0.9302978515625 0.06976318359375 0.04180908203125 0.065185546875 0.0091552734375 0.046875 0.04046630859375 0.047607421875 0.01129150390625 0.03466796875 0.0181884765625 0.2353515625 0.43017578125 0.22216796875 0.4383544921875 0.04888916015625 0.70025634765625 0.072509765625 0.70526123046875 0.10479736328125 0.70281982421875 0.0889892578125 0.5323486328125 0.10955810546875 0.53265380859375 0.1048583984375 0.51025390625 0.125244140625 0.5360107421875 0.28033447265625 0.511962890625 0.28125 0.51641845703125 0.28216552734375 0.52081298828125 0.0400390625 0.16864013671875 0.3531494140625 0.952880859375 0.345458984375 0.98394775390625 0.10931396484375 0.10101318359375 0.10675048828125 0.1187744140625 0.11480712890625 0.08184814453125 0.116455078125 0.076171875 0.12713623046875 0.05560302734375 0.15997314453125 0.00775146484375 0.1748046875 0.20489501953125 0.16778564453125 0.261474609375 0.1563720703125 0.27532958984375 0.1510009765625 0.3118896484375 0.14276123046875 0.330322265625 0.1318359375 0.344970703125 0.12188720703125 0.35931396484375 0.00360107421875 0.68267822265625 0.02587890625 0.66259765625 0.1304931640625 0.0067138671875 0.11517333984375 0.0478515625 0.01397705078125 0.6839599609375 0.04522705078125 0.66790771484375 0.4332275390625 0.9881591796875 0.13519287109375 0.57568359375 0.03131103515625 0.61102294921875 0.04876708984375 0.61431884765625 0.04925537109375 0.61944580078125 0.0697021484375 0.63043212890625 0.04888916015625 0.6239013671875 0.068603515625 0.63397216796875 0.32940673828125 0.98626708984375 0.34539794921875 0.97930908203125 0.089111328125 0.5323486328125 0.095947265625 0.51629638671875 0.2352294921875 0.43017578125 0.22216796875 0.42742919921875 0.31561279296875 0.978271484375 0.32928466796875 0.98236083984375 0.34521484375 0.9793701171875 0.0452880859375 0.6680908203125 0.11474609375 0.66619873046875 0.1195068359375 0.68280029296875 0.2896728515625 0.9814453125 0.28924560546875 0.97998046875 0.02691650390625 0.13232421875 0.00848388671875 0.14434814453125 0.00848388671875 0.132568359375 0.02667236328125 0.13232421875 0.151611328125 0.186279296875 0.28961181640625 0.98065185546875 0.14300537109375 0.330322265625 0.1337890625 0.344970703125 0.12213134765625 0.35931396484375 0.08154296875 0.63861083984375 0.08978271484375 0.64764404296875 0.071044921875 0.6258544921875 0.05633544921875 0.61749267578125 0.04180908203125 0.40423583984375 0.31744384765625 0.920654296875 0.31781005859375 0.934326171875 0.1007080078125 0.07037353515625 0.1151123046875 0.05706787109375 0.0272216796875 0.086669921875 0.4407958984375 0.98797607421875 0.43292236328125 0.98773193359375 0.401611328125 0.9796142578125 0.432861328125 0.98773193359375 0.27740478515625 0.49884033203125 0.2698974609375 0.47991943359375 0.2589111328125 0.46051025390625 0.316650390625 0.98529052734375 0.29058837890625 0.94390869140625 0.37335205078125 0.93719482421875 0.2471923828125 0.45782470703125 0.23406982421875 0.4410400390625 0.22216796875 0.44793701171875 0.22216796875 0.439453125 0.23419189453125 0.4410400390625 0.24676513671875 0.44720458984375 0.292724609375 0.98089599609375 0.28961181640625 0.98052978515625 0.2052001953125 0.00714111328125 0.206787109375 0.06146240234375 0.2330322265625 0.0078125 0.2330322265625 0.04345703125 0.10906982421875 0.0045166015625 0.2469482421875 0.44720458984375 0.2894287109375 0.9815673828125 0.28924560546875 0.980224609375 0.31768798828125 0.97918701171875 0.3177490234375 0.92596435546875 0.316650390625 0.97918701171875 0.2943115234375 0.93695068359375 0.44232177734375 0.9884033203125 0.3187255859375 0.920654296875 0.317626953125 0.92828369140625 0.31768798828125 0.97216796875 0.0958251953125 0.51629638671875 0.0875244140625 0.410888671875 0.0313720703125 0.69073486328125 0.04876708984375 0.70025634765625 0.0859375 0.0782470703125 0.10467529296875 0.70281982421875 0.01959228515625 0.00518798828125 0.3494873046875 0.96319580078125 0.3189697265625 0.97918701171875</float_array>
                    <technique_common>
                        <accessor count="483" source="#uvarray1" stride="2">
                            <param name="S" type="float"/>
                            <param name="T" type="float"/>
                        </accessor>
                    </technique_common>
                </source>
                <vertices id="vertices1">
                    <input semantic="POSITION" source="#points1"/>
                </vertices>
                <polylist count="822" material="Material1">
                    <input offset="0" semantic="VERTEX" source="#vertices1"/>
                    <input offset="1" semantic="TEXCOORD" source="#uvs1" set="0"/>
                    <vcount>3 3 3 3 3 3 3 3 3 3 3 3 3 3 3 3 3 3 3 3 3 3 3 3 3 3 3 3 3 3 3 3 3 3 3 3 3 3 3 3 3 3 3 3 3 3 3 3 3 3 3 3 3 3 3 3 3 3 3 3 3 3 3 3 3 3 3 3 3 3 3 3 3 3 3 3 3 3 3 3 3 3 3 3 3 3 3 3 3 3 3 3 3 3 3 3 3 3 3 3 3 3 3 3 3 3 3 3 3 3 3 3 3 3 3 3 3 3 3 3 3 3 3 3 3 3 3 3 3 3 3 3 3 3 3 3 3 3 3 3 3 3 3 3 3 3 3 3 3 3 3 3 3 3 3 3 3 3 3 3 3 3 3 3 3 3 3 3 3 3 3 3 3 3 3 3 3 3 3 3 3 3 3 3 3 3 3 3 3 3 3 3 3 3 3 3 3 3 3 3 3 3 3 3 3 3 3 3 3 3 3 3 3 3 3 3 3 3 3 3 3 3 3 3 3 3 3 3 3 3 3 3 3 3 3 3 3 3 3 3 3 3 3 3 3 3 3 3 3 3 3 3 3 3 3 3 3 3 3 3 3 3 3 3 3 3 3 3 3 3 3 3 3 3 3 3 3 3 3 3 3 3 3 3 3 3 3 3 3 3 3 3 3 3 3 3 3 3 3 3 3 3 3 3 3 3 3 3 3 3 3 3 3 3 3 3 3 3 3 3 3 3 3 3 3 3 3 3 3 3 3 3 3 3 3 3 3 3 3 3 3 3 3 3 3 3 3 3 3 3 3 3 3 3 3 3 3 3 3 3 3 3 3 3 3 3 3 3 3 3 3 3 3 3 3 3 3 3 3 3 3 3 3 3 3 3 3 3 3 3 3 3 3 3 3 3 3 3 3 3 3 3 3 3 3 3 3 3 3 3 3 3 3 3 3 3 3 3 3 3 3 3 3 3 3 3 3 3 3 3 3 3 3 3 3 3 3 3 3 3 3 3 3 3 3 3 3 3 3 3 3 3 3 3 3 3 3 3 3 3 3 3 3 3 3 3 3 3 3 3 3 3 3 3 3 3 3 3 3 3 3 3 3 3 3 3 3 3 3 3 3 3 3 3 3 3 3 3 3 3 3 3 3 3 3 3 3 3 3 3 3 3 3 3 3 3 3 3 3 3 3 3 3 3 3 3 3 3 3 3 3 3 3 3 3 3 3 3 3 3 3 3 3 3 3 3 3 3 3 3 3 3 3 3 3 3 3 3 3 3 3 3 3 3 3 3 3 3 3 3 3 3 3 3 3 3 3 3 3 3 3 3 3 3 3 3 3 3 3 3 3 3 3 3 3 3 3 3 3 3 3 3 3 3 3 3 3 3 3 3 3 3 3 3 3 3 3 3 3 3 3 3 3 3 3 3 3 3 3 3 3 3 3 3 3 3 3 3 3 3 3 3 3 3 3 3 3 3 3 3 3 3 3 3 3 3 3 3 3 3 3 3 3 3 3 3 3 3 3 3 3 3 3 3 3 3 3 3 3 3 3 3 3 3 3 3 3 3 3 3 3 3 3 3 3 3 3 3 3 3 3 3 3 3 3 3 3 3 3 3 3 3 3 3 3 3 3 3 3 3 3 3 3 3 3 3 3 3 3 3 3 3 3 3 3 3 3 3 3 3 3 3 3 3 3 3 3 3 3 3 3 3 3 3 3 3 3 3 3 3 3 3 3 3 3 3 3 3 3 3 3 3 3 3 3 3 3 3 3 3 3 3 3 3 3 3 3 3 3 3 3 3 3 3 3 3 3 3 3 3 3 3 3 3 3 3 3 3 3 3 3 3 3 3 3 3 3 3 3 3 3 3</vcount>
                    <p>2 2 1 1 0 0 3 3 1 1 2 2 4 4 3 3 2 2 5 5 3 3 4 4 6 6 5 5 4 4 7 7 5 5 6 6 8 8 7 7 6 6 9 9 7 7 8 8 10 10 9 9 8 8 11 11 9 9 10 10 12 12 11 11 10 10 13 13 11 11 12 12 14 14 13 13 12 12 15 11 13 13 14 14 16 12 15 11 14 14 17 9 15 11 16 12 18 10 17 9 16 12 19 8 17 9 18 10 20 15 19 8 18 10 21 16 19 8 20 15 22 17 21 16 20 15 23 18 21 16 22 17 24 19 23 18 22 17 25 20 23 18 24 19 28 23 27 22 26 21 29 24 27 22 28 23 30 25 29 24 28 23 31 26 29 24 30 25 32 27 31 26 30 25 33 28 31 26 32 27 34 29 33 28 32 27 35 30 33 28 34 29 36 31 35 30 34 29 37 32 35 30 36 31 38 33 37 32 36 31 39 34 37 32 38 33 40 35 39 34 38 33 41 36 39 34 40 35 42 37 41 36 40 35 43 38 41 36 42 37 44 39 43 38 42 37 45 40 43 38 44 39 46 41 45 40 44 39 47 42 45 40 46 41 48 43 47 42 46 41 49 44 47 42 48 43 9 9 5 5 7 7 50 45 5 5 9 9 11 11 50 45 9 9 51 46 50 45 11 11 13 13 51 46 11 11 52 47 51 46 13 13 15 11 52 47 13 13 53 46 52 47 15 11 17 9 53 46 15 11 54 45 53 46 17 9 55 5 54 45 17 9 56 3 54 45 55 5 57 48 56 3 55 5 58 49 56 3 57 48 59 50 58 49 57 48 60 51 58 49 59 50 61 52 60 51 59 50 64 55 63 54 62 53 65 56 63 54 64 55 45 40 65 56 64 55 66 57 65 56 45 40 67 58 66 57 45 40 68 59 66 57 67 58 47 42 68 59 67 58 69 60 68 59 47 42 49 44 69 60 47 42 70 61 69 60 49 44 71 62 70 61 49 44 72 63 70 61 71 62 73 64 72 63 71 62 74 65 72 63 73 64 75 66 74 65 73 64 76 67 74 65 75 66 79 70 78 69 77 68 80 71 78 69 79 70 81 72 80 71 79 70 82 73 80 71 81 72 83 74 82 73 81 72 84 75 82 73 83 74 85 76 84 75 83 74 86 77 84 75 85 76 87 78 86 77 85 76 84 75 86 77 87 78 88 75 84 75 87 78 89 79 84 75 88 75 90 80 89 79 88 75 91 81 89 79 90 80 92 72 91 81 90 80 93 82 91 81 92 72 62 53 95 84 94 83 96 85 95 84 62 53 63 54 96 85 62 53 97 86 96 85 63 54 65 56 97 86 63 54 98 87 97 86 65 56 66 57 98 87 65 56 99 88 98 87 66 57 100 89 99 88 66 57 101 90 99 88 100 89 102 91 101 90 100 89 103 92 101 90 102 91 104 93 103 92 102 91 105 94 103 92 104 93 106 95 105 94 104 93 109 98 108 97 107 96 110 99 108 97 109 98 111 100 110 99 109 98 112 101 110 99 111 100 113 102 112 101 111 100 114 103 112 101 113 102 115 104 114 103 113 102 116 105 114 103 115 104 117 106 116 105 115 104 118 107 116 105 117 106 119 108 118 107 117 106 120 109 118 107 119 108 121 110 120 109 119 108 122 111 120 109 121 110 3 3 123 112 1 1 124 113 123 112 3 3 125 114 124 113 3 3 126 115 124 113 125 114 127 116 126 115 125 114 128 117 126 115 127 116 129 114 128 117 127 116 130 118 128 117 129 114 56 3 130 118 129 114 131 119 130 118 56 3 58 49 131 119 56 3 132 120 131 119 58 49 60 51 132 120 58 49 31 26 133 121 29 24 134 122 133 121 31 26 135 123 134 122 31 26 136 124 134 122 135 123 137 125 136 124 135 123 94 83 136 124 137 125 138 126 94 83 137 125 62 53 94 83 138 126 41 36 62 53 138 126 64 55 62 53 41 36 43 38 64 55 41 36 45 40 64 55 43 38 141 129 140 128 139 127 142 130 140 128 141 129 143 131 142 130 141 129 144 132 142 130 143 131 145 133 144 132 143 131 146 134 144 132 145 133 147 135 146 134 145 133 148 136 146 134 147 135 149 137 148 136 147 135 150 138 148 136 149 137 151 139 150 138 149 137 153 141 139 127 152 140 141 129 139 127 153 141 154 142 141 129 153 141 155 143 141 129 154 142 156 144 155 143 154 142 157 145 155 143 156 144 158 146 157 145 156 144 159 147 157 145 158 146 160 148 159 147 158 146 161 149 159 147 160 148 162 150 161 149 160 148 163 15 71 152 49 151 164 153 71 152 163 15 165 154 164 153 163 15 166 155 164 153 165 154 6 6 166 155 165 154 167 156 166 155 6 6 168 157 167 156 6 6 169 158 167 156 168 157 2 2 169 158 168 157 170 159 169 158 2 2 0 0 170 159 2 2 171 160 100 89 66 57 172 161 100 89 171 160 173 162 172 161 171 160 174 163 172 161 173 162 175 164 174 163 173 162 176 165 174 163 175 164 177 166 176 165 175 164 178 167 176 165 177 166 179 168 178 167 177 166 180 169 178 167 179 168 181 170 180 169 179 168 183 172 150 138 182 171 148 136 150 138 183 172 184 173 148 136 183 172 185 174 148 136 184 173 186 175 185 174 184 173 187 176 185 174 186 175 188 177 187 176 186 175 189 178 187 176 188 177 190 179 189 178 188 177 170 180 189 178 190 179 191 181 170 180 190 179 194 184 193 183 192 182 195 185 193 183 194 184 182 171 195 185 194 184 196 186 195 185 182 171 150 138 196 186 182 171 197 187 196 186 150 138 151 139 197 187 150 138 198 188 197 187 151 139 199 189 198 188 151 139 200 190 198 188 199 189 161 149 200 190 199 189 203 193 202 192 201 191 204 194 202 192 203 193 205 195 204 194 203 193 206 196 204 194 205 195 207 197 206 196 205 195 208 198 206 196 207 197 209 199 208 198 207 197 210 200 208 198 209 199 211 201 210 200 209 199 212 202 210 200 211 201 213 203 212 202 211 201 214 204 28 23 26 21 215 205 28 23 214 204 139 127 215 205 214 204 216 206 215 205 139 127 140 128 216 206 139 127 217 207 216 206 140 128 218 208 217 207 140 128 219 209 217 207 218 208 220 210 219 209 218 208 60 211 219 209 220 210 132 212 60 211 220 210 223 215 222 214 221 213 224 216 222 214 223 215 225 217 224 216 223 215 226 218 224 216 225 217 227 219 226 218 225 217 228 220 226 218 227 219 229 221 228 220 227 219 230 222 228 220 229 221 231 223 230 222 229 221 232 224 230 222 231 223 152 225 232 224 231 223 235 228 234 227 233 226 236 229 234 227 235 228 237 230 236 229 235 228 238 231 236 229 237 230 239 232 238 231 237 230 240 233 238 231 239 232 241 234 240 233 239 232 242 235 240 233 241 234 243 236 242 235 241 234 244 237 242 235 243 236 247 240 246 239 245 238 248 241 246 239 247 240 249 242 248 241 247 240 250 243 248 241 249 242 251 244 250 243 249 242 252 245 250 243 251 244 253 246 252 245 251 244 254 247 252 245 253 246 255 248 254 247 253 246 256 249 254 247 255 248 258 251 201 191 257 250 259 252 201 191 258 251 260 253 259 252 258 251 261 254 259 252 260 253 262 255 261 254 260 253 263 256 261 254 262 255 264 257 263 256 262 255 265 258 263 256 264 257 266 259 265 258 264 257 267 260 265 258 266 259 270 263 269 262 268 261 271 264 269 262 270 263 272 265 271 264 270 263 273 266 271 264 272 265 274 267 273 266 272 265 275 268 273 266 274 267 276 269 275 268 274 267 277 270 275 268 276 269 278 271 277 270 276 269 281 245 280 273 279 272 252 245 280 273 281 245 282 274 252 245 281 245 250 243 252 245 282 274 283 275 250 243 282 274 248 241 250 243 283 275 281 245 248 241 283 275 246 239 248 241 281 245 284 276 246 239 281 245 285 277 275 268 277 270 286 278 275 268 285 277 287 279 286 278 285 277 288 280 286 278 287 279 289 281 288 280 287 279 269 262 288 280 289 281 290 282 269 262 289 281 291 283 269 262 290 282 292 284 291 283 290 282 295 285 294 74 293 72 296 75 294 74 295 285 297 286 296 75 295 285 298 79 296 75 297 286 299 287 298 79 297 286 300 80 298 79 299 287 301 72 300 80 299 287 302 288 300 80 301 72 304 290 36 31 303 289 38 33 36 31 304 290 25 291 38 33 304 290 40 35 38 33 25 291 24 292 40 35 25 291 42 37 40 35 24 292 305 293 42 37 24 292 44 39 42 37 305 293 22 17 305 294 24 19 306 295 305 294 22 17 20 15 306 295 22 17 307 296 306 295 20 15 308 297 307 296 20 15 309 298 307 296 308 297 16 12 309 298 308 297 14 14 309 298 16 12 311 300 78 299 310 69 77 301 78 299 311 300 312 302 77 301 311 300 313 303 77 301 312 302 314 300 313 303 312 302 315 301 313 303 314 300 316 304 315 301 314 300 317 305 315 301 316 304 90 80 318 306 92 72 319 74 318 306 90 80 88 75 319 74 90 80 320 307 319 74 88 75 321 308 320 307 88 75 322 309 320 307 321 308 323 310 322 309 321 308 324 311 322 309 323 310 325 75 298 79 300 80 296 75 298 79 325 75 326 78 296 75 325 75 327 77 296 75 326 78 328 76 327 77 326 78 296 75 327 77 328 76 294 74 296 75 328 76 329 74 300 80 302 288 325 75 300 80 329 74 330 307 325 75 329 74 331 308 325 75 330 307 332 309 331 308 330 307 333 310 331 308 332 309 334 311 333 310 332 309 335 312 177 166 175 164 336 313 177 166 335 312 337 314 336 313 335 312 338 315 336 313 337 314 339 316 338 315 337 314 276 269 338 315 339 316 278 271 276 269 339 316 342 319 341 318 340 317 343 320 341 318 342 319 344 321 343 320 342 319 345 322 343 320 344 321 346 272 345 322 344 321 347 323 345 322 346 272 256 249 347 323 346 272 290 282 348 324 292 284 349 325 348 324 290 282 289 281 349 325 290 282 350 326 349 325 289 281 351 327 350 326 289 281 190 179 350 326 351 327 191 181 190 179 351 327 61 328 219 209 60 211 352 329 219 209 61 328 353 330 352 329 61 328 354 331 352 329 353 330 303 289 354 331 353 330 34 29 354 331 303 289 36 31 34 29 303 289 229 221 355 332 231 223 356 333 355 332 229 221 227 219 356 333 229 221 357 334 356 333 227 219 358 335 357 334 227 219 359 336 357 334 358 335 360 337 359 336 358 335 363 318 362 319 361 317 364 320 362 319 363 318 365 322 364 320 363 318 366 321 364 320 365 322 367 272 366 321 365 322 368 338 366 321 367 272 369 273 368 338 367 272 57 48 370 339 59 50 371 340 370 339 57 48 55 5 371 340 57 48 372 7 371 340 55 5 17 9 372 7 55 5 19 8 372 7 17 9 373 70 316 304 314 300 374 341 316 304 373 70 301 72 374 341 373 70 375 82 374 341 301 72 299 287 375 82 301 72 297 342 375 82 299 287 346 272 280 273 256 249 279 338 280 273 346 272 344 321 279 338 346 272 376 343 279 338 344 321 342 319 376 343 344 321 279 338 376 343 342 319 33 28 135 123 31 26 137 125 135 123 33 28 35 30 137 125 33 28 138 126 137 125 35 30 39 34 138 126 35 30 41 36 138 126 39 34 113 102 117 106 115 104 377 344 117 106 113 102 111 100 377 344 113 102 378 345 377 344 111 100 109 98 378 345 111 100 379 346 378 345 109 98 211 201 265 258 213 203 263 256 265 258 211 201 209 199 263 256 211 201 261 254 263 256 209 199 207 197 261 254 209 199 205 195 261 254 207 197 367 272 380 347 369 273 381 323 380 347 367 272 365 322 381 323 367 272 382 348 381 323 365 322 363 318 382 348 365 322 361 349 382 348 363 318 349 325 383 350 348 324 384 351 383 350 349 325 350 326 384 351 349 325 188 177 384 351 350 326 190 179 188 177 350 326 386 353 107 96 385 352 109 98 107 96 386 353 258 251 109 98 386 353 379 346 109 98 258 251 257 250 379 346 258 251 94 83 387 354 136 124 267 355 387 354 94 83 95 84 267 355 94 83 388 356 267 355 95 84 389 357 388 356 95 84 323 310 85 76 324 358 390 359 85 76 323 310 321 308 390 359 323 310 87 78 390 359 321 308 88 75 87 78 321 308 339 316 76 67 278 271 74 65 76 67 339 316 337 314 74 65 339 316 72 63 74 65 337 314 335 312 72 63 337 314 391 360 181 170 179 168 392 361 181 170 391 360 393 362 392 361 391 360 394 363 392 361 393 362 395 364 394 363 393 362 336 313 179 168 177 166 391 360 179 168 336 313 338 315 391 360 336 313 274 267 391 360 338 315 276 269 274 267 338 315 59 50 396 365 61 52 397 366 396 365 59 50 370 339 397 366 59 50 23 18 397 366 370 339 21 16 23 18 370 339 257 250 399 367 398 111 400 368 399 367 257 250 201 191 400 368 257 250 401 369 400 368 201 191 202 192 401 369 201 191 231 223 153 370 152 225 402 371 153 370 231 223 355 332 402 371 231 223 403 372 402 371 355 332 404 373 403 372 355 332 163 15 10 10 8 8 12 12 10 10 163 15 405 297 12 12 163 15 14 14 12 12 405 297 309 298 14 14 405 297 307 296 305 294 306 295 44 374 305 294 307 296 309 298 44 374 307 296 46 375 44 374 309 298 48 376 46 375 309 298 216 206 354 331 34 29 406 377 354 331 216 206 217 207 406 377 216 206 352 329 406 377 217 207 219 209 352 329 217 207 328 76 333 310 334 358 407 359 333 310 328 76 326 78 407 359 328 76 331 308 407 359 326 78 325 75 331 308 326 78 369 273 408 245 368 272 409 245 408 245 369 273 410 378 409 245 369 273 411 379 409 245 410 378 412 248 411 379 410 378 220 210 128 380 132 212 413 381 128 380 220 210 218 208 413 381 220 210 144 132 413 381 218 208 146 134 124 383 126 382 414 384 124 383 146 134 148 136 414 384 146 134 185 174 414 384 148 136 104 93 415 385 106 95 172 161 415 385 104 93 102 91 172 161 104 93 100 89 172 161 102 91 416 386 101 90 103 92 99 88 101 90 416 386 417 387 99 88 416 386 418 388 99 88 417 387 420 390 98 87 419 389 97 86 98 87 420 390 421 391 97 86 420 390 212 392 97 86 421 391 119 108 422 393 121 110 423 394 422 393 119 108 117 106 423 394 119 108 377 107 423 394 117 106 174 163 415 385 172 161 424 395 415 385 174 163 176 165 424 395 174 163 178 167 424 395 176 165 171 160 175 164 173 162 425 396 175 164 171 160 68 59 425 396 171 160 69 60 425 396 68 59 423 394 426 397 422 393 427 398 426 397 423 394 377 107 427 398 423 394 378 345 427 398 377 107 345 322 341 318 343 320 428 348 341 318 345 322 347 323 428 348 345 322 429 399 428 348 347 323 430 400 357 334 359 336 356 333 357 334 430 400 404 373 356 333 430 400 355 332 356 333 404 373 433 403 432 402 431 401 434 404 432 402 433 403 435 405 434 404 433 403 436 406 434 404 435 405 80 407 310 304 78 299 437 71 310 304 80 407 82 408 437 71 80 407 93 82 437 71 82 408 388 409 265 258 267 260 213 203 265 258 388 409 438 410 213 203 388 409 212 202 213 203 438 410 439 411 23 18 25 20 397 366 23 18 439 411 440 412 397 366 439 411 396 365 397 366 440 412 374 71 317 413 316 69 441 414 317 413 374 71 375 82 441 414 374 71 295 415 441 414 375 82 120 109 435 345 118 107 442 416 435 345 120 109 122 111 442 416 120 109 222 214 442 416 122 111 225 217 358 335 227 219 443 417 358 335 225 217 223 215 443 417 225 217 444 418 443 417 223 215 315 68 445 420 313 419 446 70 445 420 315 68 317 69 446 70 315 68 441 71 446 70 317 69 396 421 353 330 61 328 447 422 353 330 396 421 440 423 447 422 396 421 439 424 447 422 440 423 271 264 288 280 269 262 286 278 288 280 271 264 273 266 286 278 271 264 275 268 286 278 273 266 149 137 199 189 151 139 448 425 199 189 149 137 159 147 448 425 149 137 161 149 448 425 159 147 311 68 449 426 312 419 450 70 449 426 311 68 310 304 450 70 311 68 437 341 450 70 310 304 116 105 431 401 114 103 433 403 431 401 116 105 118 107 433 403 116 105 435 405 433 403 118 107 158 146 452 428 451 427 403 429 452 428 158 146 156 144 403 429 158 146 154 142 403 429 156 144 455 432 454 431 453 430 434 404 454 431 455 432 456 433 434 404 455 432 432 402 434 404 456 433 28 23 32 27 30 25 457 434 32 27 28 23 215 205 457 434 28 23 216 206 457 434 215 205 447 422 303 289 353 330 304 290 303 289 447 422 439 424 304 290 447 422 25 291 304 290 439 424 460 275 459 436 458 435 461 274 459 436 460 275 408 245 461 274 460 275 409 245 461 274 408 245 366 321 362 319 364 320 462 343 362 319 366 321 368 338 462 343 366 321 362 319 462 343 368 338 1 437 187 176 189 178 185 174 187 176 1 437 123 438 185 174 1 437 124 383 185 174 123 438 463 439 287 279 285 277 351 327 287 279 463 439 191 181 351 327 463 439 224 216 436 406 222 214 434 404 436 406 224 216 454 431 434 404 224 216 413 381 126 382 128 380 146 134 126 382 413 381 144 132 146 134 413 381 332 309 464 440 334 311 465 441 464 440 332 309 330 307 465 441 332 309 328 76 466 442 294 74 464 443 466 442 328 76 334 309 464 443 328 76 164 153 73 444 71 152 75 445 73 444 164 153 76 446 75 445 164 153 393 362 272 265 395 364 274 267 272 265 393 362 391 360 274 267 393 362 251 244 467 447 253 246 468 448 467 447 251 244 249 242 468 448 251 244 342 322 469 249 279 449 470 323 469 249 342 322 471 399 470 323 342 322 473 452 277 451 472 450 285 453 277 451 473 452 463 454 285 453 473 452 472 450 76 446 164 153 278 455 76 446 472 450 277 451 278 455 472 450 129 114 54 45 56 3 53 46 54 45 129 114 127 116 53 46 129 114 473 452 169 158 463 454 167 156 169 158 473 452 472 450 167 156 473 452 96 85 389 357 95 84 212 392 389 357 96 85 97 86 212 392 96 85 322 309 474 441 320 307 475 440 474 441 322 309 324 311 475 440 322 309 371 340 21 16 370 339 19 8 21 16 371 340 372 7 19 8 371 340 476 238 468 448 245 456 467 447 468 448 476 238 445 457 77 68 313 419 79 70 77 68 445 457 441 71 293 72 446 70 295 285 293 72 441 71 478 459 106 95 477 458 105 94 106 95 478 459 193 461 477 458 192 460 478 459 477 458 193 461 457 434 34 29 32 27 216 206 34 29 457 434 479 462 186 175 184 173 383 350 186 175 479 462 70 61 425 396 69 60 72 63 425 396 70 61 166 155 472 450 164 153 167 156 472 450 166 155 165 154 8 8 6 6 163 15 8 8 165 154 91 81 480 342 89 79 93 82 480 342 91 81 49 151 405 297 163 15 48 376 405 297 49 151 425 396 335 312 175 164 72 63 335 312 425 396 4 4 168 157 6 6 2 2 168 157 4 4 191 463 169 158 170 159 463 454 169 158 191 463 18 10 308 297 20 15 16 12 308 297 18 10 84 75 480 342 82 73 89 79 480 342 84 75 130 118 132 120 128 117 131 119 132 120 130 118 52 47 127 116 125 114 53 46 127 116 52 47 437 341 92 72 450 70 93 82 92 72 437 341 51 46 125 114 3 3 52 47 125 114 51 46 449 465 314 300 312 464 373 70 314 300 449 465 50 45 3 3 5 5 51 46 3 3 50 45 481 466 409 245 411 379 482 467 409 245 481 466 484 379 408 245 483 468 485 347 408 245 484 379 418 388 98 87 99 88 419 389 98 87 418 388 487 399 362 322 486 323 361 348 362 322 487 399 409 245 459 436 461 274 482 467 459 436 409 245 443 417 360 337 358 335 444 418 360 337 443 417 247 469 468 448 249 240 245 456 468 448 247 469 458 241 408 245 460 275 483 468 408 245 458 241 254 247 280 273 252 245 256 249 280 273 254 247 487 470 382 348 361 349 488 399 382 348 487 470 471 470 428 348 429 399 340 349 428 348 471 470 482 472 458 471 459 435 481 473 458 471 482 472 485 347 362 322 368 449 486 323 362 322 485 347 489 474 402 371 403 372 153 370 402 371 489 474 410 378 380 347 412 248 369 273 380 347 410 378 281 245 469 249 284 276 279 338 469 249 281 245 442 416 436 346 435 345 222 214 436 346 442 416 490 475 139 127 214 204 152 140 139 127 490 475 398 111 427 398 257 214 426 397 427 398 398 111 379 346 427 398 378 345 257 214 427 398 379 346 147 135 159 147 149 137 145 133 159 147 147 135 160 148 451 427 162 150 158 146 451 427 160 148 491 477 222 214 122 476 221 213 222 214 491 477 205 195 259 252 261 254 203 193 259 252 205 195 145 133 157 145 159 147 143 131 157 145 145 133 143 131 155 143 157 145 141 129 155 143 143 131 0 478 189 178 170 180 1 437 189 178 0 478 492 442 85 76 83 74 475 443 85 76 492 442 493 479 223 215 221 213 444 418 223 215 493 479 142 130 218 208 140 128 144 132 218 208 142 130 384 351 186 175 383 350 188 177 186 175 384 351 259 252 203 193 201 191 494 480 272 265 270 263 226 218 454 431 224 216 381 323 382 348 488 399 45 40 47 42 67 58 485 347 368 338 408 245 342 322 340 348 471 399 260 253 258 251 386 353 352 329 354 331 406 377 93 82 82 481 480 342 375 82 297 342 295 481 428 348 340 349 341 318 281 245 283 275 282 274 85 76 390 359 87 78 161 149 199 189 448 425 85 76 475 443 324 309 289 281 287 279 351 327 124 383 414 384 185 174 39 34 35 30 37 32 331 308 333 310 407 359 458 471 481 473 483 482 48 376 309 298 405 297 171 160 66 57 68 59 424 395 178 167 180 169</p>
                </polylist>
            </mesh>
        </geometry>
        <geometry id="mesh2">
            <mesh>
                <source id="points2">
                    <float_array id="pointarray2" count="291">56.6328125 4.0078125 -15.890625 55.27734375 3.90625 0.3359375 42.51171875 0.12109375 -0.22265625 57.39453125 5.06640625 16.71875 42.625 -3.59765625 17.5625 43.21875 -5.9140625 25.7890625 36.32421875 -9.3203125 21.38671875 43.9140625 -7.71484375 26.92578125 36.83203125 -11.21484375 22.30078125 39.09765625 -14.10546875 18.9140625 37.58984375 -15.91796875 7.78125 45.1015625 -14.484375 8.39453125 38.01171875 -13.59765625 -0.58203125 44.5625 -11.16796875 -0.1328125 45.8515625 -14.484375 -8.5859375 58.90234375 -4.78125 0.49609375 59.8359375 -6.71875 -6.8828125 75.77734375 -1.015625 1.23828125 72.82421875 -3.37890625 -12.33203125 76.6875 1.203125 -14.8125 62.05078125 -3.80078125 -20.2734375 60.9140625 -0.5390625 -25.1015625 47.44921875 -10.9765625 -22.78515625 46.296875 -7.71484375 -27.1484375 40.796875 -14.10546875 -19.58984375 38.8359375 -11.21484375 -23.1640625 38.31640625 -15.91796875 -8.6328125 35.7421875 -13.53125 -10.2890625 35.42578125 -10.9375 -0.6953125 34.8828125 -13.53125 9.203125 34.3125 -8.96875 -0.5859375 38.01953125 -5.87109375 14.60546875 38.25 -9.3203125 -22.296875 45.50390625 -5.9140625 -26.078125 59.09375 2.76953125 -24.12890625 72.27734375 5.22265625 -14.328125 79.0234375 2.99609375 1.3828125 74.20703125 7.46875 1.16796875 70.921875 5.22265625 16.4375 57.98046875 2.75 25.13671875 58.65625 -0.5390625 26.17578125 45.4453125 -10.9765625 22.68359375 59.06640625 -45.91796875 21.02734375 60.34765625 -40.52734375 20.67578125 60.24609375 -44.02734375 17.21875 62.1640625 -42.16015625 16.1875 61.640625 -44.37109375 13.4765625 63.359375 -43.84375 11.03515625 62.875 -46.0859375 10.30859375 64.4375 -44.75 5.05078125 63.62109375 -49.4921875 8.5625 64.69140625 -46.40625 0 63.67578125 -53.38671875 8.703125 64.9140625 -52.68359375 0 59.18359375 -6.71875 7.9296875 71.640625 -3.37890625 14.50390625 74.8671875 1.15625 17.29296875 60.2109375 -3.80078125 21.46484375 57.39453125 -37.87890625 -25.07421875 55.90234375 -39.0859375 -28.3203125 60.34765625 -40.109375 -20.67578125 54.38671875 -42.4296875 -31.234375 59.06640625 -45.91796875 -21.1953125 54.12109375 -45.4140625 -31.33203125 58.4140625 -48.75 -22.9375 54.62890625 -48.078125 -29.9921875 56.4140625 -49.87890625 -27.0703125 58.46875 -53.15625 23.1640625 58.4140625 -49.26171875 23.0234375 61.203125 -52.48046875 21.45703125 61.16796875 -49.91015625 21.36328125 63.8828125 -51.24609375 16.671875 61.59375 -47.70703125 20.046875 62.375 -46.45703125 17.36328125 39.34375 -5.87109375 -15.39453125 44.1875 -3.59765625 -17.93359375 56.58984375 -47.91015625 28.3671875 54.62890625 -47.19921875 31.171875 53.91015625 -44.63671875 32.19921875 54.38671875 -42.5859375 31.234375 64.6015625 -50.0625 11.65234375 64.109375 -47.81640625 12.8046875 63.29296875 -46.49609375 14.89453125 64.58203125 -44.9140625 0 64.4375 -44.75 -5.05078125 63.62109375 -49.4921875 -8.5625 62.875 -46.0859375 -10.30859375 61.640625 -44.0859375 -13.4765625 63.359375 -43.42578125 -11.03515625 60.24609375 -44.02734375 -17.21875 62.1640625 -41.7421875 -16.1875 59.21484375 -56.55859375 -21.41796875 58.46875 -53.15625 -23.50390625 63.67578125 -53.38671875 -8.703125 59.21484375 -56.55859375 21.41796875 57.39453125 -37.87890625 25.07421875 55.90234375 -39.74609375 28.3203125</float_array>
                    <technique_common>
                        <accessor count="97" source="#pointarray2" stride="3">
                            <param name="X" type="float"/>
                            <param name="Y" type="float"/>
                            <param name="Z" type="float"/>
                        </accessor>
                    </technique_common>
                </source>
                <source id="uvs2">
                    <float_array id="uvarray2" count="206">0.56439208984375 0.29791259765625 0.53961181640625 0.29791259765625 0.53961181640625 0.321533203125 0.56427001953125 0.29791259765625 0.5665283203125 0.321533203125 0.5789794921875 0.321533203125 0.57275390625 0.32513427734375 0.58062744140625 0.321533203125 0.5740966796875 0.32525634765625 0.56878662109375 0.3248291015625 0.54925537109375 0.32586669921875 0.549560546875 0.32275390625 0.53961181640625 0.32586669921875 0.53961181640625 0.32354736328125 0.5496826171875 0.32275390625 0.55096435546875 0.29791259765625 0.53961181640625 0.2691650390625 0.56329345703125 0.2794189453125 0.56787109375 0.27020263671875 0.5714111328125 0.29791259765625 0.57861328125 0.29791259765625 0.57421875 0.321533203125 0.58074951171875 0.321533203125 0.56890869140625 0.3248291015625 0.57421875 0.32525634765625 0.54937744140625 0.32586669921875 0.55450439453125 0.3265380859375 0.53961181640625 0.3265380859375 0.55438232421875 0.3265380859375 0.53961181640625 0.32635498046875 0.5623779296875 0.32391357421875 0.5728759765625 0.32513427734375 0.57904052734375 0.321533203125 0.57708740234375 0.29791259765625 0.56671142578125 0.2725830078125 0.53961181640625 0.2578125 0.53961181640625 0.26068115234375 0.56658935546875 0.2725830078125 0.57696533203125 0.29791259765625 0.5784912109375 0.29791259765625 0.5740966796875 0.321533203125 0.1414794921875 0.4951171875 0.143310546875 0.4287109375 0.11749267578125 0.47698974609375 0.1109619140625 0.44989013671875 0.0938720703125 0.47760009765625 0.0784912109375 0.46429443359375 0.07391357421875 0.49676513671875 0.04071044921875 0.47393798828125 0.0628662109375 0.529296875 0.00885009765625 0.51715087890625 0.06378173828125 0.56658935546875 0.00885009765625 0.555419921875 0.55084228515625 0.29791259765625 0.56317138671875 0.2794189453125 0.56781005859375 0.27020263671875 0.5712890625 0.29791259765625 0.1668701171875 0.41363525390625 0.18731689453125 0.4315185546875 0.14312744140625 0.4287109375 0.2056884765625 0.4635009765625 0.14129638671875 0.4951171875 0.2117919921875 0.501220703125 0.1588134765625 0.527099609375 0.20672607421875 0.54449462890625 0.18902587890625 0.5740966796875 0.12896728515625 0.461181640625 0.1290283203125 0.46368408203125 0.13043212890625 0.46160888671875 0.1304931640625 0.4632568359375 0.133544921875 0.46240234375 0.13134765625 0.4647216796875 0.13311767578125 0.46551513671875 0.1328125 0.46710205078125 0.13525390625 0.467041015625 0.5625 0.32391357421875 0.566650390625 0.321533203125 0.189208984375 0.5740966796875 0.20684814453125 0.54449462890625 0.15899658203125 0.527099609375 0.21197509765625 0.501220703125 0.20587158203125 0.4635009765625 0.13677978515625 0.46319580078125 0.13604736328125 0.46466064453125 0.13470458984375 0.46551513671875 0.1373291015625 0.46575927734375 0.00885009765625 0.49859619140625 0.04052734375 0.47393798828125 0.06268310546875 0.529296875 0.07373046875 0.49676513671875 0.13037109375 0.46588134765625 0.138427734375 0.46356201171875 0.09368896484375 0.47760009765625 0.07830810546875 0.46429443359375 0.1173095703125 0.47698974609375 0.11077880859375 0.44989013671875 0.1588134765625 0.58551025390625 0.162109375 0.56439208984375 0.0635986328125 0.56658935546875 0.15899658203125 0.58551025390625 0.16229248046875 0.56439208984375 0.16705322265625 0.41363525390625 0.1875 0.4315185546875</float_array>
                    <technique_common>
                        <accessor count="103" source="#uvarray2" stride="2">
                            <param name="S" type="float"/>
                            <param name="T" type="float"/>
                        </accessor>
                    </technique_common>
                </source>
                <vertices id="vertices2">
                    <input semantic="POSITION" source="#points2"/>
                </vertices>
                <polylist count="150" material="Material1">
                    <input offset="0" semantic="VERTEX" source="#vertices2"/>
                    <input offset="1" semantic="TEXCOORD" source="#uvs2" set="0"/>
                    <vcount>3 3 3 3 3 3 3 3 3 3 3 3 3 3 3 3 3 3 3 3 3 3 3 3 3 3 3 3 3 3 3 3 3 3 3 3 3 3 3 3 3 3 3 3 3 3 3 3 3 3 3 3 3 3 3 3 3 3 3 3 3 3 3 3 3 3 3 3 3 3 3 3 3 3 3 3 3 3 3 3 3 3 3 3 3 3 3 3 3 3 3 3 3 3 3 3 3 3 3 3 3 3 3 3 3 3 3 3 3 3 3 3 3 3 3 3 3 3 3 3 3 3 3 3 3 3 3 3 3 3 3 3 3 3 3 3 3 3 3 3 3 3 3 3 3 3 3 3 3 3</vcount>
                    <p>2 2 1 1 0 0 3 3 1 1 2 2 4 4 3 3 2 2 5 5 3 3 4 4 6 6 5 5 4 4 7 7 5 5 6 6 8 8 7 7 6 6 9 9 7 7 8 8 10 10 9 9 8 8 11 11 9 9 10 10 12 12 11 11 10 10 13 13 11 11 12 12 14 14 13 13 12 12 15 1 13 13 14 14 16 15 15 1 14 14 17 16 15 1 16 15 18 17 17 16 16 15 19 18 17 16 18 17 20 19 19 18 18 17 21 20 19 18 20 19 22 21 21 20 20 19 23 22 21 20 22 21 24 23 23 22 22 21 25 24 23 22 24 23 26 25 25 24 24 23 27 26 25 24 26 25 12 12 27 26 26 25 28 27 27 26 12 12 29 28 28 27 12 12 30 29 28 27 29 28 6 6 30 29 29 28 31 30 30 29 6 6 4 4 31 30 6 6 2 2 31 30 4 4 32 31 25 24 27 26 23 22 25 24 32 31 33 32 23 22 32 31 21 20 23 22 33 32 34 33 21 20 33 32 19 18 21 20 34 33 35 34 19 18 34 33 36 35 19 18 35 34 37 36 36 35 35 34 38 37 36 35 37 36 3 3 38 37 37 36 39 38 38 37 3 3 5 5 39 38 3 3 40 39 39 38 5 5 7 7 40 39 5 5 41 40 40 39 7 7 9 9 41 40 7 7 11 11 41 40 9 9 44 43 43 42 42 41 45 44 43 42 44 43 46 45 45 44 44 43 47 46 45 44 46 45 48 47 47 46 46 45 49 48 47 46 48 47 50 49 49 48 48 47 51 50 49 48 50 49 52 51 51 50 50 49 53 52 51 50 52 51 15 1 11 11 13 13 54 53 11 11 15 1 17 16 54 53 15 1 55 54 54 53 17 16 56 55 55 54 17 16 57 56 55 54 56 55 40 39 57 56 56 55 41 40 57 56 40 39 60 59 59 58 58 57 61 60 59 58 60 59 62 61 61 60 60 59 63 62 61 60 62 61 64 63 63 62 62 61 65 64 63 62 64 63 66 65 65 64 64 63 69 68 68 67 67 66 70 69 68 67 69 68 71 70 70 69 69 68 72 71 70 69 71 70 73 72 72 71 71 70 44 73 72 71 73 72 46 74 44 73 73 72 30 29 27 26 28 27 32 31 27 26 30 29 74 75 32 31 30 29 75 76 32 31 74 75 2 2 75 76 74 75 0 0 75 76 2 2 68 79 77 78 76 77 78 80 77 78 68 79 42 41 78 80 68 79 79 81 78 80 42 41 43 42 79 81 42 41 16 15 20 19 18 17 22 21 20 19 16 15 14 14 22 21 16 15 24 23 22 21 14 14 26 25 24 23 14 14 81 83 71 70 80 82 82 84 71 70 81 83 48 85 82 84 81 83 46 74 82 84 48 85 37 36 1 1 3 3 0 0 1 1 37 36 35 34 0 0 37 36 34 33 0 0 35 34 51 50 83 86 49 48 84 87 83 86 51 50 85 88 84 87 51 50 86 89 84 87 85 88 36 35 17 16 19 18 56 55 17 16 36 35 38 37 56 55 36 35 39 38 56 55 38 37 29 28 8 8 6 6 10 10 8 8 29 28 12 12 10 10 29 28 42 90 72 71 44 73 70 69 72 71 42 90 68 67 70 69 42 90 75 76 33 32 32 31 0 0 33 32 75 76 30 29 2 2 74 75 31 30 2 2 30 29 57 56 54 53 55 54 41 40 54 53 57 56 81 83 50 91 48 85 80 82 50 91 81 83 82 84 73 72 71 70 46 74 73 72 82 84 88 93 86 89 87 92 84 87 86 89 88 93 90 95 87 92 89 94 88 93 87 92 90 95 60 59 89 94 62 61 90 95 89 94 60 59 66 65 92 97 91 96 64 63 92 97 66 65 93 98 51 50 53 52 85 88 51 50 93 98 67 100 76 77 94 99 68 79 76 77 67 100 96 102 43 42 95 101 79 81 43 42 96 102 14 14 12 12 26 25 11 11 54 53 41 40 39 38 40 39 56 55 0 0 34 33 33 32</p>
                </polylist>
            </mesh>
        </geometry>
    </library_geometries>
    <library_visual_scenes>
        <visual_scene id="VisualSceneNode">
            <node id="node0" name="m0" type="NODE">
                <instance_geometry url="#mesh0">
                    <bind_material>
                        <technique_common>
                            <instance_material symbol="Material1" target="#mat0">
                                <bind_vertex_input semantic="UVSET0" input_semantic="TEXCOORD" input_set="0"></bind_vertex_input>
                            </instance_material>
                        </technique_common>
                    </bind_material>
                </instance_geometry>
            </node>
            <node id="node1" name="m1" type="NODE">
                <instance_geometry url="#mesh1">
                    <bind_material>
                        <technique_common>
                            <instance_material symbol="Material1" target="#mat2">
                                <bind_vertex_input semantic="UVSET0" input_semantic="TEXCOORD" input_set="0"></bind_vertex_input>
                            </instance_material>
                        </technique_common>
                    </bind_material>
                </instance_geometry>
            </node>
            <node id="node2" name="m2" type="NODE">
                <instance_geometry url="#mesh2">
                    <bind_material>
                        <technique_common>
                            <instance_material symbol="Material1" target="#mat1">
                                <bind_vertex_input semantic="UVSET0" input_semantic="TEXCOORD" input_set="0"></bind_vertex_input>
                            </instance_material>
                        </technique_common>
                    </bind_material>
                </instance_geometry>
            </node>
        </visual_scene>
    </library_visual_scenes>
    <scene>
        <instance_visual_scene url="#VisualSceneNode"></instance_visual_scene>
    </scene>
</COLLADA>
