<?xml version="1.0"?>
<COLLADA xmlns="http://www.collada.org/2005/11/COLLADASchema" version="1.4.1">
    <asset>
        <contributor>
            <authoring_tool>J3D Ripoff Exporter</authoring_tool>
        </contributor>
        <created>2024-08-19T02:24:34.400Z</created>
        <modified>2024-08-19T02:24:34.400Z</modified>
		<unit meter="0.01" name="centimeter" ></unit>
        <up_axis>Y_UP</up_axis>
    </asset>
    <library_images>
        <image id="tex0">
            <init_from>konfu_body.png</init_from>
        </image>
    </library_images>
    <library_effects>
        <effect id="effect0">
            <profile_COMMON>
                <newparam sid="surface0">
                    <surface type="2D">
                        <init_from>tex0</init_from>
                    </surface>
                </newparam>
                <newparam sid="sampler0">
                    <sampler2D>
                        <source>surface0</source>
                    </sampler2D>
                </newparam>
                <technique sid="COMMON">
                    <blinn>
                        <diffuse>
                            <texture texture="sampler0" texcoord="UVSET0"></texture>
                        </diffuse>
                    </blinn>
                </technique>
            </profile_COMMON>
        </effect>
    </library_effects>
    <library_materials>
        <material id="mat0" name="Skin_etc">
            <instance_effect url="#effect0"></instance_effect>
        </material>
    </library_materials>
    <library_geometries>
        <geometry id="mesh0">
            <mesh>
                <source id="points0">
                    <float_array id="pointarray0" count="342">-20.60055537521839 246.5148468017578 58.921653747558594 -25.15719600021839 237.3742218017578 72.3142318725586 1.4678039997816086 234.5460968017578 67.4822006225586 -6.118133500218391 223.5187530517578 81.3767318725586 8.782257124781609 225.6925811767578 77.7575912475586 3.7072678059339523 211.11725997924805 88.89631175994873 24.623283430933952 214.33600997924805 84.56623363494873 4.170158430933952 201.86530685424805 93.51545238494873 22.787345930933952 199.90827560424805 92.22248363494873 -1.7920677214860916 190.39846801757812 97.42378807067871 12.469651028513908 186.54104614257812 95.22456932067871 -15.481387332081795 176.99910354614258 94.31340312957764 -8.221621707081795 173.18465042114258 92.82707500457764 -31.164981082081795 160.36043167114258 84.09465312957764 -24.215762332081795 157.79207229614258 82.20598125457764 -39.52114601433277 143.48087120056152 73.88865375518799 -32.09341163933277 142.72305870056152 72.57810688018799 -37.64614601433277 126.94376182556152 69.27341938018799 -32.00356788933277 127.44571495056152 67.88865375518799 -23.63052101433277 109.37344932556152 74.50388813018799 -33.10641475021839 240.8566436767578 88.0915756225586 -28.25094600021839 242.7687530517578 102.2029037475586 -10.694305375218391 225.3937530517578 96.1404037475586 -7.477508500218391 227.3273468017578 107.9489974975586 -1.3259353190660477 212.37897872924805 102.28303050994873 0.5881271809339523 214.26374435424805 114.01740550994873 -0.38648219406604767 204.03718185424805 106.03888988494873 2.6857834309339523 205.13483810424805 118.68928050994873 -5.442458346486092 191.50979614257812 107.78120994567871 -2.1436302214860916 192.14260864257812 118.81245994567871 -18.791934207081795 178.64754104614258 102.15324687957764 -17.459902957081795 177.57332229614258 111.13371562957764 -35.293887332081795 161.39558792114258 89.84855937957764 -33.360293582081795 159.63777542114258 97.27629375457764 -43.06802101433277 143.98087120056152 80.48826313018799 -41.29067726433277 141.00430870056152 85.07029438018799 -39.69106788933277 126.49454307556152 74.30466938018799 4.012619778513908 190.73831176757812 122.59175682067871 10.441642805933952 205.27546310424805 123.56232738494873 22.033439680933952 204.07233810424805 124.90998363494873 24.310783430933952 212.91218185424805 123.19513988494873 34.85375218093395 213.43366622924805 121.38849925994873 32.26781468093395 222.90436935424805 119.42170238494873 42.30492405593395 224.26569747924805 113.08185863494873 33.57717899978161 233.6652374267578 108.4978256225586 37.95022587478161 232.9328155517578 95.6931381225586 35.67483524978161 237.2179718017578 92.6189193725586 -9.416934207081795 172.46004104614258 115.07121562957764 12.457932278513908 188.65628051757812 123.14839744567871 33.23656468093395 202.07819747924805 123.35529613494873 44.61351780593395 213.71296310424805 116.02131175994873 47.55883030593395 223.95319747924805 102.86506175994873 -25.401309207081795 156.23933792114258 102.32902812957764 -0.7782623320817947 168.82918167114258 111.29191875457764 21.07902602851391 187.16018676757812 122.23042869567871 40.30883030593395 200.64460372924805 118.31623363494873 50.65843968093395 213.33796310424805 105.74982738494873 8.885002180933952 217.10554122924805 119.42170238494873 22.385002180933952 220.91804122924805 121.48029613494873 25.35842899978161 233.1417999267578 113.7361068725586 31.04983524978161 238.2179718017578 105.9861068725586 35.59866337478161 241.5011749267578 89.5447006225586 25.15725712478161 237.3742218017578 72.3142318725586 30.63186649978161 229.4738311767578 80.3572006225586 41.67406468093395 220.14069747924805 89.07209300994873 43.56859593093395 210.18171310424805 91.82795238494873 40.46703343093395 198.33405685424805 94.58576488494873 25.50871352851391 185.20706176757812 97.60542869567871 31.12199477851391 186.04104614257812 109.20699119567871 0.25103454291820526 168.88972854614258 103.63957500457764 0.9365539997816086 229.2023468017578 114.6325912475586 13.538116499781609 231.3937530517578 116.6560287475586 0.0010071247816085815 243.1789093017578 112.9294662475586 17.04788212478161 243.3273468017578 110.9665756225586 7.889678999781609 253.3195343017578 115.6677474975586 16.67874149978161 252.0832061767578 111.7087631225586 10.458038374781609 255.2101593017578 116.3181381225586 -38.71841163933277 124.70548057556152 77.55857563018799 -33.66177101433277 139.61563682556152 88.49607563018799 -17.663027957081795 152.89754104614258 99.68059062957764 40.23342899978161 249.3937530517578 87.5486068725586 39.53811649978161 249.5500030517578 73.7107162475586 -33.71645851433277 124.71915245056152 78.52146625518799 -26.68911476433277 138.88321495056152 86.70115375518799 -17.727481082081795 154.05379104614258 87.04387187957764 0.0010071247816085815 253.1808624267578 116.3591537475586 -3.6747741252183914 253.2511749267578 116.1325912475586 -17.04782100021839 243.3273468017578 110.9665756225586 -7.889617875218391 253.3195343017578 115.6677474975586 -16.67868037521839 252.0832061767578 111.7087631225586 -10.457977250218391 255.2101593017578 116.3181381225586 30.93460087478161 248.7394561767578 63.591575622558594 20.59866337478161 246.5148468017578 58.921653747558594 0.0010071247816085815 245.0285186767578 56.083763122558594 -40.23336787521839 249.3937530517578 87.5486068725586 -36.86813350021839 249.2101593017578 95.5642318725586 -32.61813350021839 249.4386749267578 101.9470443725586 -25.89547725021839 250.3468780517578 106.6247787475586 46.12718968093395 199.59382247924805 108.63459300994873 26.76847915351391 186.92385864257812 118.16206932067871 3.6748352497816086 253.2511749267578 116.1325912475586 0.0010071247816085815 258.1105499267578 119.5310287475586 -1.7177154570817947 170.37996292114258 95.37199687957764 -28.77700538933277 125.19766807556152 78.41990375518799 -25.20864601433277 140.29141807556152 77.78709125518799 31.46780399978161 242.7687530517578 103.4743881225586 25.89553837478161 250.3468780517578 106.6247787475586 -40.68063350021839 249.5500030517578 73.7107162475586 -34.55758662521839 248.7394561767578 63.591575622558594 37.72171024978161 249.2726593017578 95.9411849975586 32.61819462478161 249.4386749267578 101.9470443725586 -7.254852250218391 258.0148468017578 119.2458724975586 7.254913374781609 258.0148468017578 119.2458724975586 -26.99966163933277 126.14493370056152 72.40037250518799</float_array>
                    <technique_common>
                        <accessor count="114" source="#pointarray0" stride="3">
                            <param name="X" type="float"/>
                            <param name="Y" type="float"/>
                            <param name="Z" type="float"/>
                        </accessor>
                    </technique_common>
                </source>
                <source id="uvs0">
                    <float_array id="uvarray0" count="282">0.43316650390625 0.34576416015625 0.43133544921875 0.359619140625 0.42242431640625 0.359619140625 0.42437744140625 0.38275146484375 0.4180908203125 0.381103515625 0.42230224609375 0.396484375 0.415283203125 0.38946533203125 0.4210205078125 0.4112548828125 0.4141845703125 0.4127197265625 0.4217529296875 0.43011474609375 0.41619873046875 0.43499755859375 0.4249267578125 0.4527587890625 0.42193603515625 0.45819091796875 0.42901611328125 0.48785400390625 0.42626953125 0.48944091796875 0.42913818359375 0.51171875 0.4263916015625 0.51226806640625 0.42706298828125 0.53900146484375 0.42474365234375 0.5357666015625 0.41802978515625 0.57171630859375 0.35247802734375 0.831298828125 0.36322021484375 0.83843994140625 0.37408447265625 0.77374267578125 0.38323974609375 0.78094482421875 0.38311767578125 0.72528076171875 0.39105224609375 0.7322998046875 0.384033203125 0.6942138671875 0.39306640625 0.69830322265625 0.379150390625 0.6475830078125 0.388427734375 0.64996337890625 0.36627197265625 0.5997314453125 0.37359619140625 0.595703125 0.347412109375 0.51708984375 0.3555908203125 0.51177978515625 0.34283447265625 0.463134765625 0.35064697265625 0.4595947265625 0.34375 0.39923095703125 0.39434814453125 0.64471435546875 0.4005126953125 0.6988525390625 0.41827392578125 0.69439697265625 0.42047119140625 0.727294921875 0.43341064453125 0.729248046875 0.430908203125 0.76446533203125 0.44061279296875 0.76953125 0.43218994140625 0.8045654296875 0.4423828125 0.80181884765625 0.44122314453125 0.81640625 0.38140869140625 0.57666015625 0.40899658203125 0.636962890625 0.43182373046875 0.68695068359375 0.44281005859375 0.73028564453125 0.44989013671875 0.76837158203125 0.36370849609375 0.5040283203125 0.396240234375 0.56317138671875 0.42010498046875 0.63140869140625 0.43865966796875 0.681640625 0.452880859375 0.7288818359375 0.3990478515625 0.742919921875 0.4185791015625 0.757080078125 0.42425537109375 0.8026123046875 0.42962646484375 0.82147216796875 0.44012451171875 0.83099365234375 0.41632080078125 0.357177734375 0.40985107421875 0.3763427734375 0.40814208984375 0.3836669921875 0.4080810546875 0.3944091796875 0.40771484375 0.41363525390625 0.41143798828125 0.43597412109375 0.406982421875 0.4334716796875 0.415771484375 0.463623046875 0.391357421875 0.78790283203125 0.4100341796875 0.79608154296875 0.39697265625 0.8399658203125 0.41461181640625 0.84051513671875 0.4036865234375 0.86602783203125 0.42022705078125 0.865966796875 0.4110107421875 0.868896484375 0.36968994140625 0.33392333984375 0.35101318359375 0.39825439453125 0.35797119140625 0.45440673828125 0.38525390625 0.496337890625 0.4044189453125 0.56341552734375 0.43402099609375 0.62725830078125 0.41400146484375 0.336669921875 0.41387939453125 0.33636474609375 0.41021728515625 0.35284423828125 0.40826416015625 0.3614501953125 0.407470703125 0.36529541015625 0.40447998046875 0.38055419921875 0.37237548828125 0.334228515625 0.357177734375 0.3983154296875 0.37982177734375 0.45166015625 0.37786865234375 0.50054931640625 0.39892578125 0.865966796875 0.39532470703125 0.865966796875 0.3740234375 0.84051513671875 0.39178466796875 0.865966796875 0.3743896484375 0.865966796875 0.38299560546875 0.868896484375 0.4288330078125 0.39605712890625 0.427490234375 0.4093017578125 0.42779541015625 0.4298095703125 0.43096923828125 0.4515380859375 0.41815185546875 0.339599609375 0.4212646484375 0.34295654296875 0.4267578125 0.34552001953125 0.3455810546875 0.865966796875 0.35406494140625 0.865966796875 0.3590087890625 0.865966796875 0.365478515625 0.865966796875 0.448486328125 0.67767333984375 0.42559814453125 0.63055419921875 0.39764404296875 0.88336181640625 0.41925048828125 0.46209716796875 0.4234619140625 0.49310302734375 0.38262939453125 0.33758544921875 0.37890625 0.40057373046875 0.3726806640625 0.4569091796875 0.42706298828125 0.83843994140625 0.42303466796875 0.865966796875 0.4437255859375 0.34588623046875 0.4384765625 0.359619140625 0.44384765625 0.34564208984375 0.437744140625 0.3460693359375 0.4320068359375 0.865966796875 0.42535400390625 0.865966796875 0.42657470703125 0.865966796875 0.390625 0.8824462890625 0.4046630859375 0.8824462890625 0.4351806640625 0.48876953125 0.43505859375 0.51239013671875 0.4239501953125 0.5123291015625 0.42254638671875 0.53466796875 0.43060302734375 0.38262939453125 0.4033203125 0.41046142578125 0.40386962890625 0.38824462890625 0.38665771484375 0.34423828125 0.37188720703125 0.405029296875 0.4168701171875 0.571533203125 0.4248046875 0.5777587890625 0.4326171875 0.53973388671875</float_array>
                    <technique_common>
                        <accessor count="141" source="#uvarray0" stride="2">
                            <param name="S" type="float"/>
                            <param name="T" type="float"/>
                        </accessor>
                    </technique_common>
                </source>
                <vertices id="vertices0">
                    <input semantic="POSITION" source="#points0"/>
                </vertices>
                <polylist count="202" material="Material1">
                    <input offset="0" semantic="VERTEX" source="#vertices0"/>
                    <input offset="1" semantic="TEXCOORD" source="#uvs0" set="0"/>
                    <vcount>3 3 3 3 3 3 3 3 3 3 3 3 3 3 3 3 3 3 3 3 3 3 3 3 3 3 3 3 3 3 3 3 3 3 3 3 3 3 3 3 3 3 3 3 3 3 3 3 3 3 3 3 3 3 3 3 3 3 3 3 3 3 3 3 3 3 3 3 3 3 3 3 3 3 3 3 3 3 3 3 3 3 3 3 3 3 3 3 3 3 3 3 3 3 3 3 3 3 3 3 3 3 3 3 3 3 3 3 3 3 3 3 3 3 3 3 3 3 3 3 3 3 3 3 3 3 3 3 3 3 3 3 3 3 3 3 3 3 3 3 3 3 3 3 3 3 3 3 3 3 3 3 3 3 3 3 3 3 3 3 3 3 3 3 3 3 3 3 3 3 3 3 3 3 3 3 3 3 3 3 3 3 3 3 3 3 3 3 3 3 3 3 3 3 3 3 3 3 3 3 3 3</vcount>
                    <p>2 2 1 1 0 0 3 3 1 1 2 2 4 4 3 3 2 2 5 5 3 3 4 4 6 6 5 5 4 4 7 7 5 5 6 6 8 8 7 7 6 6 9 9 7 7 8 8 10 10 9 9 8 8 11 11 9 9 10 10 12 12 11 11 10 10 13 13 11 11 12 12 14 14 13 13 12 12 15 15 13 13 14 14 16 16 15 15 14 14 17 17 15 15 16 16 18 18 17 17 16 16 19 19 17 17 18 18 22 22 21 21 20 20 23 23 21 21 22 22 24 24 23 23 22 22 25 25 23 23 24 24 26 26 25 25 24 24 27 27 25 25 26 26 28 28 27 27 26 26 29 29 27 27 28 28 30 30 29 29 28 28 31 31 29 29 30 30 32 32 31 31 30 30 33 33 31 31 32 32 34 34 33 33 32 32 35 35 33 33 34 34 36 36 35 35 34 34 37 37 29 29 31 31 38 38 29 29 37 37 39 39 38 38 37 37 40 40 38 38 39 39 41 41 40 40 39 39 42 42 40 40 41 41 43 43 42 42 41 41 44 44 42 42 43 43 45 45 44 44 43 43 46 46 44 44 45 45 47 47 31 31 33 33 37 37 31 31 47 47 48 48 37 37 47 47 39 39 37 37 48 48 49 49 39 39 48 48 41 41 39 39 49 49 50 50 41 41 49 49 43 43 41 41 50 50 51 51 43 43 50 50 45 45 43 43 51 51 52 52 33 33 35 35 47 47 33 33 52 52 53 53 47 47 52 52 48 48 47 47 53 53 54 54 48 48 53 53 49 49 48 48 54 54 55 55 49 49 54 54 50 50 49 49 55 55 56 56 50 50 55 55 51 51 50 50 56 56 38 38 27 27 29 29 57 57 27 27 38 38 40 40 57 57 38 38 58 58 57 57 40 40 42 42 58 58 40 40 59 59 58 58 42 42 44 44 59 59 42 42 60 60 59 59 44 44 46 46 60 60 44 44 61 61 60 60 46 46 63 63 2 2 62 62 4 4 2 2 63 63 64 64 4 4 63 63 6 6 4 4 64 64 65 65 6 6 64 64 8 8 6 6 65 65 66 66 8 8 65 65 67 67 8 8 66 66 68 68 67 67 66 66 69 69 67 67 68 68 57 57 25 25 27 27 70 70 25 25 57 57 71 71 70 70 57 57 72 72 70 70 71 71 73 73 72 72 71 71 74 74 72 72 73 73 75 75 74 74 73 73 76 76 74 74 75 75 77 78 36 36 19 77 35 35 36 36 77 78 78 79 35 35 77 78 52 52 35 35 78 79 79 80 52 52 78 79 53 53 52 52 79 80 69 81 53 53 79 80 68 82 53 53 69 81 61 85 81 84 80 83 62 62 81 84 61 85 46 86 62 62 61 85 63 63 62 62 46 86 45 87 63 63 46 86 51 88 63 63 45 87 82 90 77 78 19 89 78 79 77 78 82 90 83 91 78 79 82 90 79 80 78 79 83 91 84 92 79 80 83 91 69 81 79 80 84 92 86 94 72 72 85 93 87 95 72 72 86 94 88 96 87 95 86 94 89 97 87 95 88 96 90 98 89 97 88 96 7 7 24 99 5 5 26 100 24 99 7 7 9 9 26 100 7 7 28 101 26 100 9 9 30 102 28 101 9 9 62 62 91 103 81 84 92 104 91 103 62 62 2 2 92 104 62 62 93 105 92 104 2 2 0 0 93 105 2 2 20 20 95 107 94 106 96 108 95 107 20 20 21 21 96 108 20 20 97 109 96 108 21 21 89 97 97 109 21 21 55 55 98 110 56 56 99 111 98 110 55 55 54 54 99 111 55 55 53 53 99 111 54 54 100 74 72 72 74 74 85 93 72 72 100 74 101 112 85 93 100 74 86 94 85 93 101 112 67 67 10 10 8 8 102 113 10 10 67 67 69 69 102 113 67 67 84 114 102 113 69 69 103 116 82 90 19 115 83 91 82 90 103 116 104 117 83 91 103 116 84 92 83 91 104 117 105 118 60 60 61 61 73 73 60 60 105 118 106 119 73 73 105 118 75 75 73 73 106 119 107 122 20 121 94 120 1 1 20 121 107 122 108 123 1 1 107 122 0 0 1 1 108 123 109 125 61 61 80 124 105 118 61 61 109 125 110 126 105 118 109 125 106 119 105 118 110 126 70 70 23 23 25 25 87 95 23 23 70 70 72 72 87 95 70 70 88 96 111 127 90 98 86 94 111 127 88 96 112 128 74 74 76 76 100 74 74 74 112 128 58 58 71 71 57 57 59 59 71 71 58 58 12 12 102 113 84 114 10 10 102 113 12 12 73 73 59 59 60 60 71 71 59 59 73 73 87 95 21 21 23 23 89 97 21 21 87 95 68 82 99 111 53 53 98 110 99 111 68 82 30 102 11 11 13 13 9 9 11 11 30 102 32 129 13 13 15 15 30 102 13 13 32 129 34 130 15 15 17 17 32 129 15 15 34 130 14 14 84 114 104 131 12 12 84 114 14 14 16 16 104 131 113 132 14 14 104 131 16 16 3 3 24 99 22 133 5 5 24 99 3 3 1 1 22 133 20 121 3 3 22 133 1 1 98 134 66 66 65 65 68 68 66 66 98 134 56 135 65 65 64 64 98 134 65 65 56 135 51 88 64 64 63 63 56 135 64 64 51 88 113 137 103 116 19 136 104 117 103 116 113 137 18 18 113 132 19 138 16 16 113 132 18 18 36 140 17 17 19 139 34 130 17 17 36 140</p>
                </polylist>
            </mesh>
        </geometry>
    </library_geometries>
    <library_controllers>
        <controller id="controller0">
            <skin source="#mesh0">
                <bind_shape_matrix>1 0 0 0 0 1 0 0 0 0 1 0 0 0 0 1</bind_shape_matrix>
                <source id="joints0">
                    <Name_array id="JointArr0" count="7">jointnode-1 jointnode0 jointnode1 jointnode2 jointnode3 jointnode4 jointnode5</Name_array>
                    <technique_common>
                        <accessor source="#JointArr0" count="7">
                            <param name="JOINT" type="Name" />
                        </accessor>
                    </technique_common>
                </source>
                <source id="matrices0">
                    <float_array id="MatArr0" count="112">1 0 0 0 0 1 0 0 0 0 1 0 0 0 0 1 1 0 0 -0.23342899978160858 0 1 0 -250.3390655517578 0 0 1 -89.5407943725586 0 0 0 1 1 0 0 -0.23342899978160858 0 1 0 -250.3390655517578 0 0 1 -89.5407943725586 0 0 0 1 1 0 0 -16.301017805933952 0 1 0 -228.30671310424805 0 0 1 -98.79084300994873 0 0 0 1 1 0 0 -18.98136977851391 0 1 0 -196.35549926757812 0 0 1 -108.45113182067871 0 0 0 1 1 0 0 8.077090457081795 0 1 0 -173.85847854614258 0 0 1 -104.82512187957764 0 0 0 1 1 0 0 31.40981788933277 0 1 0 -147.27383995056152 0 0 1 -83.96873188018799 0 0 0 1</float_array>
                    <technique_common>
                        <accessor source="#MatArr0" count="7" stride="16">
                            <param type="float4x4" />
                        </accessor>
                    </technique_common>
                </source>
                <source id="weights0">
                    <float_array id="WeightArr0" count="1">1</float_array>
                    <technique_common>
                        <accessor source="#WeightArr0" count="1">
                            <param type="float" />
                        </accessor>
                    </technique_common>
                </source>
                <joints>
                    <input semantic="JOINT" source="#joints0" />
                    <input semantic="INV_BIND_MATRIX" source="#matrices0" />
                </joints>
                <vertex_weights count="114">
                    <input semantic="JOINT" offset="0" source="#joints0" />
                    <input semantic="WEIGHT" offset="1" source="#weights0" />
                    <vcount>1 1 1 1 1 1 1 1 1 1 1 1 1 1 1 1 1 1 1 1 1 1 1 1 1 1 1 1 1 1 1 1 1 1 1 1 1 1 1 1 1 1 1 1 1 1 1 1 1 1 1 1 1 1 1 1 1 1 1 1 1 1 1 1 1 1 1 1 1 1 1 1 1 1 1 1 1 1 1 1 1 1 1 1 1 1 1 1 1 1 1 1 1 1 1 1 1 1 1 1 1 1 1 1 1 1 1 1 1 1 1 1 1 1</vcount>
                    <v>1 0 2 0 2 0 2 0 2 0 3 0 3 0 3 0 3 0 4 0 4 0 5 0 5 0 5 0 5 0 6 0 6 0 6 0 6 0 6 0 2 0 2 0 2 0 2 0 3 0 3 0 3 0 3 0 4 0 4 0 5 0 5 0 5 0 5 0 6 0 6 0 6 0 4 0 3 0 3 0 3 0 3 0 3 0 3 0 2 0 2 0 2 0 5 0 4 0 3 0 3 0 3 0 5 0 5 0 4 0 3 0 3 0 3 0 3 0 2 0 2 0 2 0 2 0 2 0 3 0 3 0 3 0 4 0 4 0 5 0 2 0 2 0 2 0 2 0 1 0 1 0 1 0 6 0 6 0 5 0 1 0 1 0 6 0 6 0 5 0 1 0 1 0 2 0 1 0 1 0 1 0 1 0 1 0 1 0 1 0 1 0 1 0 1 0 3 0 4 0 1 0 1 0 5 0 6 0 6 0 2 0 1 0 1 0 1 0 1 0 1 0 1 0 1 0 6 0</v>
                </vertex_weights>
            </skin>
        </controller>
    </library_controllers>
    <library_visual_scenes>
        <visual_scene id="VisualSceneNode">
            <node id="node0" name="m0" type="NODE">
                <instance_controller url="#controller0">
                    <skeleton>#jointnode-1</skeleton>
                    <bind_material>
                        <technique_common>
                            <instance_material symbol="Material1" target="#mat0">
                                <bind_vertex_input semantic="UVSET0" input_semantic="TEXCOORD" input_set="0"></bind_vertex_input>
                            </instance_material>
                        </technique_common>
                    </bind_material>
                </instance_controller>
            </node>
            <node id="jointnode-1" name="root" sid="jointnode-1" type="JOINT">
                <node id="jointnode0" name="Dum" sid="jointnode0" type="JOINT">
                    <translate>0.23342899978160858 250.3390655517578 89.5407943725586</translate>
                    <node id="jointnode1" name="Beard1" sid="jointnode1" type="JOINT">
                        <node id="jointnode2" name="Beard2" sid="jointnode2" type="JOINT">
                            <translate>16.067588806152344 -22.032352447509766 9.250048637390137</translate>
                            <node id="jointnode3" name="Beard3" sid="jointnode3" type="JOINT">
                                <translate>2.680351972579956 -31.951213836669922 9.66028881072998</translate>
                                <node id="jointnode4" name="Beard4" sid="jointnode4" type="JOINT">
                                    <translate>-27.058460235595703 -22.497020721435547 -3.626009941101074</translate>
                                    <node id="jointnode5" name="Beard5" sid="jointnode5" type="JOINT">
                                        <translate>-23.332727432250977 -26.584638595581055 -20.85638999938965</translate>
                                    </node>
                                </node>
                            </node>
                        </node>
                    </node>
                </node>
            </node>
        </visual_scene>
    </library_visual_scenes>
    <scene>
        <instance_visual_scene url="#VisualSceneNode"></instance_visual_scene>
    </scene>
</COLLADA>
