<?xml version="1.0"?>
<COLLADA xmlns="http://www.collada.org/2005/11/COLLADASchema" version="1.4.1">
    <asset>
        <contributor>
            <authoring_tool>J3D Ripoff Exporter</authoring_tool>
        </contributor>
        <created>2024-08-19T02:25:55.056Z</created>
        <modified>2024-08-19T02:25:55.056Z</modified>
		<unit meter="0.01" name="centimeter" ></unit>
        <up_axis>Y_UP</up_axis>
    </asset>
    <library_images>
        <image id="tex0">
            <init_from>konfu_body.png</init_from>
        </image>
        <image id="tex1">
            <init_from>konfu_eye.png</init_from>
        </image>
    </library_images>
    <library_effects>
        <effect id="effect0">
            <profile_COMMON>
                <newparam sid="surface0">
                    <surface type="2D">
                        <init_from>tex1</init_from>
                    </surface>
                </newparam>
                <newparam sid="sampler0">
                    <sampler2D>
                        <source>surface0</source>
                    </sampler2D>
                </newparam>
                <technique sid="COMMON">
                    <blinn>
                        <diffuse>
                            <texture texture="sampler0" texcoord="UVSET0"></texture>
                        </diffuse>
                    </blinn>
                </technique>
            </profile_COMMON>
        </effect>
        <effect id="effect1">
            <profile_COMMON>
                <newparam sid="surface1">
                    <surface type="2D">
                        <init_from>tex0</init_from>
                    </surface>
                </newparam>
                <newparam sid="sampler1">
                    <sampler2D>
                        <source>surface1</source>
                    </sampler2D>
                </newparam>
                <technique sid="COMMON">
                    <blinn>
                        <diffuse>
                            <texture texture="sampler1" texcoord="UVSET0"></texture>
                        </diffuse>
                    </blinn>
                </technique>
            </profile_COMMON>
        </effect>
        <effect id="effect2">
            <profile_COMMON>
                <newparam sid="surface2">
                    <surface type="2D">
                        <init_from>tex0</init_from>
                    </surface>
                </newparam>
                <newparam sid="sampler2">
                    <sampler2D>
                        <source>surface2</source>
                    </sampler2D>
                </newparam>
                <technique sid="COMMON">
                    <blinn>
                        <diffuse>
                            <texture texture="sampler2" texcoord="UVSET0"></texture>
                        </diffuse>
                    </blinn>
                </technique>
            </profile_COMMON>
        </effect>
    </library_effects>
    <library_materials>
        <material id="mat0" name="Eye">
            <instance_effect url="#effect0"></instance_effect>
        </material>
        <material id="mat1" name="Skin_etc">
            <instance_effect url="#effect1"></instance_effect>
        </material>
        <material id="mat2" name="Skin_spc">
            <instance_effect url="#effect2"></instance_effect>
        </material>
    </library_materials>
    <library_geometries>
        <geometry id="mesh0">
            <mesh>
                <source id="points0">
                    <float_array id="pointarray0" count="75">59.546875 -55.92578125 -21.7890625 60.85546875 -54.7265625 -19.51171875 58.46875 -53.15625 -22.91796875 60.25390625 -52.48046875 -20.62109375 58.4140625 -49.26171875 -23.0234375 60.21875 -49.91015625 -20.53125 59.06640625 -45.91796875 -21.02734375 60.64453125 -47.70703125 -19.265625 60.76953125 -44.02734375 -17.21875 61.85546875 -46.45703125 -16.68359375 62.1640625 -44.0859375 -13.4765625 62.77734375 -46.49609375 -14.3125 62.875 -46.0859375 -10.00390625 63.16015625 -47.81640625 -12.3046875 63.62109375 -49.4921875 -7.81640625 63.65234375 -50.0625 -11.1953125 63.67578125 -53.38671875 -7.9609375 63.6875 -52.6328125 -11.28515625 63.0234375 -56.7265625 -10.69921875 63.26171875 -54.8359375 -12.55078125 61.84375 -58.62109375 -14.0078125 62.48046875 -56.0859375 -14.65234375 60.44921875 -58.55859375 -18.25 61.5625 -56.046875 -17.50390625 62.93359375 -51.24609375 -16.01953125</float_array>
                    <technique_common>
                        <accessor count="25" source="#pointarray0" stride="3">
                            <param name="X" type="float"/>
                            <param name="Y" type="float"/>
                            <param name="Z" type="float"/>
                        </accessor>
                    </technique_common>
                </source>
                <source id="uvs0">
                    <float_array id="uvarray0" count="50">-0.2122802734375 0.76800537109375 -0.2996826171875 0.6739501953125 -0.1221923828125 0.59320068359375 -0.24017333984375 0.55853271484375 -0.12957763671875 0.39312744140625 -0.24505615234375 0.426513671875 -0.232421875 0.22149658203125 -0.31292724609375 0.313232421875 -0.42901611328125 0.12420654296875 -0.45147705078125 0.2490234375 -0.6219482421875 0.12738037109375 -0.57879638671875 0.2510986328125 -0.78533935546875 0.23016357421875 -0.6866455078125 0.3189697265625 -0.87542724609375 0.40496826171875 -0.74609375 0.434326171875 -0.86810302734375 0.60504150390625 -0.7412109375 0.56634521484375 -0.76519775390625 0.77667236328125 -0.67333984375 0.67962646484375 -0.59442138671875 0.87396240234375 -0.5606689453125 0.74383544921875 -0.37567138671875 0.87078857421875 -0.40753173828125 0.74176025390625 -0.4871826171875 0.49505615234375</float_array>
                    <technique_common>
                        <accessor count="25" source="#uvarray0" stride="2">
                            <param name="S" type="float"/>
                            <param name="T" type="float"/>
                        </accessor>
                    </technique_common>
                </source>
                <vertices id="vertices0">
                    <input semantic="POSITION" source="#points0"/>
                </vertices>
                <polylist count="36" material="Material1">
                    <input offset="0" semantic="VERTEX" source="#vertices0"/>
                    <input offset="1" semantic="TEXCOORD" source="#uvs0" set="0"/>
                    <vcount>3 3 3 3 3 3 3 3 3 3 3 3 3 3 3 3 3 3 3 3 3 3 3 3 3 3 3 3 3 3 3 3 3 3 3 3</vcount>
                    <p>2 2 1 1 0 0 3 3 1 1 2 2 4 4 3 3 2 2 5 5 3 3 4 4 6 6 5 5 4 4 7 7 5 5 6 6 8 8 7 7 6 6 9 9 7 7 8 8 10 10 9 9 8 8 11 11 9 9 10 10 12 12 11 11 10 10 13 13 11 11 12 12 14 14 13 13 12 12 15 15 13 13 14 14 16 16 15 15 14 14 17 17 15 15 16 16 18 18 17 17 16 16 19 19 17 17 18 18 20 20 19 19 18 18 21 21 19 19 20 20 22 22 21 21 20 20 23 23 21 21 22 22 0 0 23 23 22 22 1 1 23 23 0 0 24 24 1 1 3 3 23 23 1 1 24 24 21 21 23 23 24 24 5 5 24 24 3 3 7 7 24 24 5 5 9 9 24 24 7 7 11 11 24 24 9 9 13 13 24 24 11 11 15 15 24 24 13 13 17 17 24 24 15 15 19 19 24 24 17 17 21 21 24 24 19 19</p>
                </polylist>
            </mesh>
        </geometry>
        <geometry id="mesh1">
            <mesh>
                <source id="points1">
                    <float_array id="pointarray1" count="1428">52.16015625 -2.921875 36.28125 55.19921875 -0.17578125 35.46484375 49.80859375 -1.23046875 26.07421875 57.53125 4.24609375 15.1328125 46.66796875 0.7734375 9.32421875 57.3828125 3.97265625 -1.40234375 44.2421875 3.0234375 0.140625 46.56640625 3.16796875 -9.3359375 34.85546875 -1.33203125 -1.5625 39.18359375 2.6953125 -17.3984375 27.90625 -6.85546875 -1.75390625 33.65625 -3.44140625 -24.35546875 25.7109375 -13.65234375 -1.96875 31.953125 -9.26171875 -26.4375 28.609375 -20.07421875 -2.171875 34.36328125 -15.85546875 -24.7734375 36.16015625 -24.2109375 -2.7890625 40.609375 -22.171875 -19.66015625 48.390625 -28.16796875 -13.41796875 49.2421875 -20.01953125 -25.65625 61.08203125 -27.546875 -17.82421875 67.23046875 -17.19140625 -26.94921875 75.734375 -22.9296875 -17.2109375 74.2890625 -17.8515625 -26.47265625 79.25 -22.4140625 -18.796875 63.359375 -43.42578125 -11.03515625 64.4375 -44.75 -5.05078125 70.93359375 -42.14453125 -8.19921875 64.58203125 -44.9140625 0 72.234375 -42.5390625 0 70.93359375 -42.14453125 8.19921875 76.66796875 -40.3125 0.39453125 75.15625 -39.96875 8.79296875 83.98828125 -35.9296875 0.53125 81.40625 -35.58203125 9.78515625 85.41796875 -33.453125 4.49609375 82.45703125 -32.34765625 13.03125 81.72265625 -28.73046875 12.8828125 76.45703125 -29.28515625 21.859375 75.85546875 -25.80859375 21.7734375 68.1875 -25.0625 30.37890625 67.36328125 -21.04296875 30.1796875 58.36328125 -15.99609375 36.66796875 56.5859375 -13.30078125 34.171875 50.47265625 -12.05078125 40.4375 50.01171875 -6.26953125 39.4765625 48.10546875 -6.1796875 41.83984375 48.62890625 -2.77734375 42.12890625 40.85546875 -9.58203125 44.078125 64.87109375 -19.12890625 29.76953125 74.54296875 -24.0703125 20.7109375 79.44140625 -27.12890625 13.36328125 84.68359375 -29.7734375 4.453125 85.953125 -32.8046875 -4.23046875 85.33203125 -30.8359375 -12.109375 81.26953125 -32.234375 -18.7421875 82.609375 -27.96875 -19.578125 76.14453125 -22.33203125 -29.03125 81.86328125 -24.1640625 -19.34765625 75.53125 -18.6953125 -28 76.88671875 18.0546875 16.67578125 81.90625 7.34375 18.39453125 71.8046875 19.79296875 25.89453125 75.8203125 8.18359375 27.90234375 67.125 20.703125 32.6171875 69.3203125 11.140625 35.3671875 61.1171875 20.8671875 37.71875 63.6640625 11.58203125 38.76953125 52.72265625 20.74609375 40.234375 56.60546875 11.40625 42.05859375 49.1484375 13.51953125 43.921875 53.80859375 5.87890625 43.8515625 42.16796875 7.37109375 44.54296875 41.3828125 -1.5 45.2265625 36.5546875 9.44921875 43.58203125 29.58984375 -6.2890625 44.4609375 21.59765625 0.14453125 40.7890625 22.328125 -8.01953125 41.359375 11.03125 -0.37109375 32.59375 49.87109375 -5.6875 24.12890625 58.1171875 -6.59375 22.48828125 48.984375 -4.42578125 30.80078125 59.08203125 -5.83984375 27.81640625 59.015625 -8.27734375 28.74609375 68.8984375 -9.34765625 22.640625 69.28515625 -12.2578125 23.421875 67.4375 -13.69140625 18.36328125 74.63671875 -7.6796875 17.19140625 73.3671875 -13.625 13.9765625 76.6015625 -13.87109375 16.2890625 76.30078125 -12.00390625 15.3671875 80.02734375 -13.890625 7.5078125 74.21484375 -11.3828125 13.8046875 77.6875 -13.19921875 6.453125 75.5234375 -27.76171875 6.41796875 72.33203125 -26.6640625 13.94921875 82.16796875 -25.515625 -11.87109375 78.5234375 -25.9375 -3.59375 71.484375 -28.765625 -3.84765625 75.88671875 -26.2265625 10.4296875 61.12109375 -28.79296875 10.08984375 67.49609375 -22.6796875 21.34765625 61.30078125 -20.36328125 26.96875 54.94921875 -15.40625 33.49609375 48.46484375 -16.80078125 32.18359375 47.390625 -12.03125 34.703125 34.4453125 -18.1796875 20.57421875 31.953125 -10.97265625 22.69921875 81.30859375 16.890625 -3.671875 84.42578125 12.125 -7.25390625 84.70703125 12.02734375 0 85.66015625 7.98046875 0.34375 84.42578125 12.125 7.25390625 86.015625 6.94921875 8.203125 84.96875 3.90234375 17.8046875 79.8515625 4.921875 26.9453125 70.37890625 8.01171875 35.77734375 71.515625 4.28125 35.95703125 65.203125 3.47265625 40.37109375 65.78515625 1.16796875 38.33984375 55.41796875 1.72265625 41.7734375 64.921875 -1.0078125 32.57421875 64.5234375 -10.2890625 -34.18359375 56.17578125 -3.6640625 -38.7421875 67.01171875 -12.03515625 -35.08984375 57.90234375 -5.40625 -40.37109375 67.6875 -15.88671875 -35.9921875 59.5078125 -10.16015625 -41.0546875 66.57421875 -20.01953125 -36.03515625 59.7265625 -14.13671875 -40.47265625 63.01171875 -27.515625 -34.2109375 57.5546875 -23.2734375 -38.72265625 55.24609375 -33.26171875 -30.67578125 53.91796875 -29.61328125 -34.0625 49.36328125 -32.34375 -32.53125 45.859375 -26.46875 -37.578125 43.5703125 -30.1875 -34.859375 38.15234375 -27.98046875 -36.8828125 60.44921875 -58.55859375 18.25 61.84375 -58.62109375 14.0078125 61.6171875 -47.94921875 20.71484375 63.0234375 -56.7265625 10.69921875 63.91015625 -46.9765625 12.73828125 63.67578125 -53.38671875 8.703125 64.67578125 -45.86328125 6.609375 64.9140625 -52.68359375 0 64.73828125 -45.8984375 -0.30078125 64.67578125 -47.26953125 -6.98046875 68.453125 -48.609375 0 68.0390625 -49.1015625 -6.3515625 68.9921875 -53.80078125 0 68.2734375 -54.2734375 -6.08984375 65.37890625 -57.5546875 -3.734375 63.765625 -60.47265625 -9.7265625 64.4375 -44.75 5.05078125 63.359375 -43.84375 11.03515625 67.515625 -41.6015625 13.859375 62.1640625 -42.16015625 16.1875 72.0625 -38.34765625 18.1796875 68.34375 -36.12109375 24.08203125 76.0859375 -32.734375 20.27734375 67.0703125 -29.2421875 29.97265625 59.9296875 -20.09765625 36.03125 62.1640625 -41.7421875 -16.1875 73.1875 -37.3359375 -16.4921875 69.58984375 -33.63671875 -25.25390625 75.5234375 -27.11328125 -27.75390625 81.49609375 14.9296875 -10.45703125 82.22265625 11.58203125 -17.07421875 85.13671875 8.80859375 -7.36328125 88.51171875 4.5546875 -0.234375 88.046875 3.57421875 7.69140625 87.00390625 -1.80859375 7.25 83.98828125 -0.69921875 16.80078125 83.8359375 -3.80859375 6.69921875 81.6953125 -3.41015625 15.0546875 28.765625 21.40234375 -34.55859375 23.875 4.98046875 -43.0234375 38.88671875 20.58984375 -40.6796875 37.08984375 6.578125 -47.0625 52.72265625 20.74609375 -40.234375 55.20703125 9.23828125 -41.921875 65.58984375 12.671875 -39.21484375 65.12109375 9.390625 -38.80859375 72.71875 12.1796875 -34.9375 72.9296875 7.82421875 -34.046875 79.5078125 5.91796875 -26.30078125 77.2890625 3.85546875 -24.17578125 82.01953125 0.64453125 -16.56640625 21.26171875 25.11328125 0 12.7265625 19.7421875 0 24.09765625 23.625 -20.59765625 11.94921875 15.453125 -14.56640625 10.7578125 8.34765625 -24.80078125 11.03125 -0.37109375 -32.59375 22.3984375 -5.1015625 -43.58203125 14.4296875 -9.08984375 -36.41796875 24.890625 -13.2890625 -42.99609375 20.40625 -16.921875 -37.4609375 27.69140625 -22.8125 -39.33203125 58.796875 -30.9609375 -4.33984375 47.3046875 -28.52734375 -3.9375 48.3671875 -28.41015625 5.31640625 40.609375 -23.3828125 15.08203125 49.62890625 -25.76171875 22.92578125 63.2421875 -58.6875 21.24609375 55.98046875 -60.8359375 30.4921875 59.53125 -50.8671875 30.1875 56.2109375 -49.75390625 34.10546875 54.62890625 -46.859375 31.42578125 54.89453125 -47.72265625 35.88671875 53.91015625 -44.63671875 32.19921875 55.37109375 -42.51953125 35.23046875 54.38671875 -42.5859375 31.234375 56.33203125 -38.921875 32.84765625 55.90234375 -39.74609375 28.3203125 57.39453125 -37.87890625 25.07421875 64.43359375 -8.89453125 20.84375 71.453125 -11.75390625 22.81640625 71.03125 -8.96875 16.42578125 74 -9.45703125 18.53515625 73.59765625 -11.046875 17.38671875 79.59375 -13.25 7.53125 71.6640625 -11.17578125 15.9296875 77.2109375 -13.47265625 6.41015625 76.56640625 2.234375 8.453125 71.9453125 3.21875 16.34765625 45.13671875 -36.25390625 -38.05859375 42.93359375 -42.28515625 -40.75390625 49.91796875 -44.61328125 -39.4765625 49.58984375 -48.53125 -39.78515625 54.89453125 -48 -36.10546875 50.7109375 -52.80078125 -38.23046875 55.76171875 -52.41015625 -34.78515625 51.640625 -56.55078125 -36.81640625 56.03515625 -62.14453125 -29.96875 45.953125 -58.55859375 -36.5 50.94921875 -62.828125 -30.7890625 27.69140625 -16.84375 42.34765625 14.4296875 -9.08984375 36.41796875 71.3046875 -0.8125 25.8046875 72.63671875 2.375 8.69140625 72.6953125 3.0390625 -0.05859375 72.54296875 4.60546875 -8.6953125 79.390625 1.71875 -16.7578125 71.01953125 5.6640625 -26.19140625 70.9140625 5.99609375 -30 55.91796875 -16.80859375 -31.37109375 58.0859375 -3.1484375 -24.21484375 64.46484375 -20.4921875 -27.71484375 67.41015625 -10.78515625 -21.0859375 73.34765625 -11.36328125 -16.7421875 74.61328125 -5 -19.13671875 76.578125 -11.26171875 -19.0703125 74.8515625 -12.85546875 -23.87890625 75.24609375 -24.07421875 -21.328125 72.3984375 -21.2109375 -26.4453125 30.04296875 -5.22265625 -46.8515625 31.32421875 -16.4296875 -44.33203125 39.78515625 -17.84765625 -44.1328125 39.14453125 -24.94921875 -39.109375 78.9140625 -26.421875 -12.890625 80.68359375 -14.46484375 -10.875 80.015625 -12.5703125 -10.3828125 81.94140625 -14.2890625 -1.51953125 77.6796875 -12.04296875 -9.2421875 79.52734375 -13.79296875 -1.484375 75.51171875 -26.46875 -11.140625 77.2734375 -27.84375 -2.41015625 54.62890625 -51.546875 -31.39453125 53.91015625 -47.02734375 -32.19921875 55.37109375 -42.51953125 -35.23046875 51.140625 -40.1953125 -38.15625 53.26953125 -35.75390625 -34.39453125 49.8359375 -2.01171875 -25.70703125 48.9375 0.38671875 -34.52734375 59.04296875 -1.62109375 -29.390625 68.86328125 -5.8515625 -24.74609375 58.9765625 -3.8984375 -30.6328125 69.25 -8.62109375 -25.91015625 57.78515625 -16.19921875 -34.5390625 67.0078125 -18.5625 -29.33203125 67.72265625 9.41796875 -28.2578125 59.203125 10.16015625 -32.26171875 68.7734375 -3.63671875 -26.484375 59.265625 0.07421875 -30.37890625 67.54296875 -5.015625 -25.94921875 59.1328125 -1.6796875 -29.41015625 56.78515625 -2.00390625 -24.9296875 49.02734375 -0.3125 -34.60546875 49.25390625 -0.6171875 -27.51171875 76.88671875 18.0546875 -16.67578125 71.8046875 19.79296875 -25.89453125 76.46875 14.04296875 -26.30859375 67.125 20.703125 -32.6171875 70.98046875 14.6015625 -34.02734375 60.95703125 -11.73828125 -31.8046875 54.5625 -5.69140625 -36.734375 48.1875 -8.953125 -38.55859375 73.328125 5.875 -19.91015625 74.0390625 -6.703125 -20.734375 79.921875 2.43359375 -10.93359375 80.46484375 -10.234375 -10.59765625 82.03515625 -12.05078125 -1.3671875 81.10546875 -13.4453125 -1.48046875 80.4453125 -11.5390625 8.01953125 84.37890625 -3.1484375 -0.98046875 87.359375 -0.6875 -0.7578125 86.8046875 0.57421875 -8.671875 87.96875 5.44921875 -7.99609375 84.95703125 7.80859375 -17.60546875 49.203125 -4.2421875 24.14453125 48.9609375 -4.89453125 30.7265625 56.73828125 -5.38671875 23.3125 59.07421875 -5.69140625 27.80078125 67.4921875 -8.51171875 23.921875 59.20703125 -4.0859375 29.00390625 68.72265625 -7.22265625 24.64453125 59.140625 5.6328125 32.27734375 67.66796875 5.45703125 28.22265625 67.5859375 -10.58984375 18.734375 64.5 -24.27734375 23.640625 55.95703125 -21.16796875 27.765625 52.1875 -6.2265625 35.73046875 46.7109375 -5.7578125 33.609375 33.73828125 -6.15234375 20.9921875 39.3046875 -0.52734375 15.85546875 79.2421875 0.55859375 25.8671875 72.19921875 0.828125 33.53515625 74.1953125 -9.1640625 -16.2734375 76.27734375 -9.55078125 -17.91015625 79.7734375 1.9765625 10.1171875 74.796875 1.80859375 19.29296875 73.24609375 -4.28515625 23.43359375 72.65234375 3.4921875 24.734375 37.68359375 -5.34375 -47.3359375 49.66796875 1.328125 -43.65625 51.91015625 -7.94140625 -43.85546875 42.93359375 -42.28515625 40.75390625 49.58984375 -48.1953125 39.78515625 42.40234375 -48.05078125 41.25390625 50.7109375 -52.80078125 38.23046875 43.43359375 -53.12109375 39.96484375 52.35546875 -56.03515625 35.80078125 45.953125 -58.55859375 36.5 47.08203125 -4.17578125 -40.90234375 51.87890625 0.55859375 -39.36328125 47.53515625 1.44921875 -37.12890625 51.0234375 4.96875 -39.39453125 50.5390625 7.36328125 -27.8671875 53.90234375 8.21484375 -37.24609375 64.4765625 7.22265625 -33.890625 50.87890625 -19.17578125 39.34375 38.0546875 -16.70703125 42.5703125 47.90234375 -24.80078125 38.2890625 38.15234375 -27.98046875 36.8828125 44.44140625 -30.1875 34.859375 49.36328125 -32.34375 32.53125 55.09765625 -28.31640625 35.0078125 55.24609375 -33.26171875 30.67578125 63.22265625 -32.7421875 29.44921875 58.55078125 -35.70703125 28.2265625 63.765625 -60.47265625 9.7265625 59.7109375 -63.3671875 17.33203125 55.85546875 -63.9296875 23.73828125 50.94921875 -62.828125 30.7890625 59.21484375 -56.55859375 21.41796875 57.4140625 -48.15234375 28.3671875 64.640625 -50.86328125 21.55078125 49.91796875 -44.61328125 39.4765625 45.13671875 -36.25390625 38.05859375 64.5625 -4.09375 -22.83984375 71.0625 -6.51171875 -18.5859375 71.5 -8.37890625 -25.30078125 73.29296875 -0.8984375 -24.86328125 72.69921875 6.984375 -25.06640625 76.58203125 3.46875 -9.11328125 77.2265625 -12.37109375 -9.28515625 78.66015625 -13.625 -1.49609375 57.3671875 6.671875 -14.5 55.85546875 -63.9296875 -23.73828125 62.26953125 -61.39453125 -21.24609375 60.69921875 -58.3125 -26.6796875 63.3125 -58.015625 -22.55859375 59.546875 -55.92578125 -21.7890625 56.33203125 -38.921875 -32.84765625 54.38671875 -43.08984375 -31.234375 60.34765625 -40.52734375 20.67578125 83.984375 3.11328125 -17.88671875 79.64453125 10.27734375 -27.06640625 66.56640625 -56.83203125 0 68.2734375 -54.2734375 6.08984375 68.0390625 -49.1015625 6.3515625 66.8828125 -52.67578125 -14.16796875 67.04296875 -55.734375 -12.1796875 83.75390625 -1.73046875 -8.54296875 58.08203125 -57.33984375 -30.80078125 56.00390625 -55.17578125 -28.13671875 57.78515625 -56.18359375 -24.9609375 65.37890625 -57.5546875 3.734375 67.04296875 -55.734375 12.1796875 67.3203125 -49.73828125 13.1796875 48.69921875 -1.24609375 -35.93359375 46.18359375 -9.828125 -37.5703125 58.55078125 -35.70703125 -28.2265625 57.39453125 -37.87890625 -25.07421875 55.90234375 -39.74609375 -28.3203125 53.26953125 -35.75390625 34.39453125 84.59375 -27.12109375 -11.859375 85.3359375 -29.22265625 -3.76953125 83.0078125 -27.59765625 -3.546875 48.89453125 -3.3125 32.04296875 48.875 6.33203125 35.52734375 48.9609375 1.44140625 -35.77734375 49.3046875 11.97265625 -32.37109375 58.265625 -24.703125 35.77734375 57.83203125 -21.03125 30.98046875 48.74609375 -6.24609375 31.88671875 64.453125 7.28125 40.76953125 67.29296875 -7.48828125 -20.890625 65.1796875 -22.7265625 24.77734375 74.8828125 -16.15234375 20.84375 70.55078125 -24.48828125 21.5859375 73.390625 -26.5703125 16.13671875 78.9296875 -27.97265625 8.15234375 82.26171875 -28.22265625 4.89453125 75.57421875 -39.2421875 -8 80.6953125 -15.83984375 7.7421875 82.6796875 -16.2265625 -1.6484375 80.9609375 -27.98828125 -2.421875 65.89453125 -5.2734375 -23.86328125 51.140625 -40.1953125 38.15625 49.98046875 -19.88671875 -42.109375 49.6171875 6.578125 -43.48828125 63.67578125 -53.38671875 -7.9609375 63.42578125 -51.203125 -14.30078125 82.9453125 -2.96484375 -0.828125 79.56640625 -2.40234375 15.375 10.7578125 8.59765625 24.80078125 28.765625 21.40234375 30.93359375 23.40625 9.46484375 39.11328125 38.88671875 20.58984375 39.5390625 77.05078125 -2.20703125 23.09765625 71.2421875 -1.42578125 29.4765625 47.5859375 -19.1953125 34.49609375 47.84375 -19.84375 30.16015625 65.8515625 -8.4765625 21.81640625 57.5859375 10.58984375 -28.2265625 65.73046875 7.96484375 -24.09765625 71.98046875 5.54296875 -16.80078125 60.34765625 -40.109375 -20.67578125 77.91796875 2.23046875 -0.37109375 65.68359375 4.59765625 23.8984375 57.53125 6.625 28.3359375 49.2421875 7.578125 30.32421875 79.609375 -11.99609375 -10.35546875 32.45703125 -25.19921875 -38.69140625 81.49609375 14.9296875 10.45703125 59.7109375 -63.3671875 -17.33203125 20.921875 -17.61328125 37.4609375 27.69140625 -23.0703125 39.33203125 24.09765625 23.625 20.59765625 11.94921875 15.453125 14.56640625 32.45703125 -25.45703125 38.69140625 60.7421875 20.9296875 -36.8671875 48.9453125 11.42578125 -37.1171875 73.6328125 -8.4375 -19.8203125 81.4140625 2.11328125 -0.4453125 63.0234375 -56.7265625 -10.69921875 42.40234375 -48.05078125 -41.25390625 60.44921875 -58.55859375 -18.25 43.43359375 -53.12109375 -39.96484375 46.38671875 -11.14453125 -33.046875 72.30859375 -24.27734375 -18.4453125 61.84375 -58.62109375 -14.0078125 81.30859375 16.890625 3.671875</float_array>
                    <technique_common>
                        <accessor count="476" source="#pointarray1" stride="3">
                            <param name="X" type="float"/>
                            <param name="Y" type="float"/>
                            <param name="Z" type="float"/>
                        </accessor>
                    </technique_common>
                </source>
                <source id="uvs1">
                    <float_array id="uvarray1" count="850">0.2821044921875 0.52362060546875 0.2799072265625 0.5135498046875 0.26263427734375 0.5299072265625 0.24517822265625 0.50701904296875 0.2357177734375 0.53875732421875 0.22216796875 0.50701904296875 0.22216796875 0.5458984375 0.23583984375 0.53875732421875 0.22216796875 0.577392578125 0.247314453125 0.56427001953125 0.22216796875 0.5985107421875 0.2550048828125 0.58135986328125 0.22216796875 0.60589599609375 0.2576904296875 0.58734130859375 0.26275634765625 0.5299072265625 0.24420166015625 0.4971923828125 0.2598876953125 0.4776611328125 0.24383544921875 0.44793701171875 0.259033203125 0.457763671875 0.24652099609375 0.4403076171875 0.04962158203125 0.44866943359375 0.02587890625 0.4468994140625 0.04010009765625 0.41943359375 0.00848388671875 0.447998046875 0.00848388671875 0.42059326171875 0.0399169921875 0.41943359375 0.0081787109375 0.4034423828125 0.045654296875 0.40106201171875 0.00848388671875 0.3663330078125 0.038818359375 0.33160400390625 0.02423095703125 0.16876220703125 0.039794921875 0.16864013671875 0.040771484375 0.1431884765625 0.06488037109375 0.165283203125 0.06475830078125 0.1402587890625 0.08837890625 0.1556396484375 0.0887451171875 0.1290283203125 0.10650634765625 0.1187744140625 0.10906982421875 0.10101318359375 0.1173095703125 0.09490966796875 0.11834716796875 0.07958984375 0.1214599609375 0.077392578125 0.12689208984375 0.05560302734375 0.146484375 0.09710693359375 0.09222412109375 0.1158447265625 0.06488037109375 0.12725830078125 0.043701171875 0.13134765625 0.02490234375 0.14385986328125 0.00848388671875 0.1685791015625 0.0244140625 0.16876220703125 0.0390625 0.33160400390625 0.0400390625 0.16864013671875 0.06512451171875 0.165283203125 0.041015625 0.1431884765625 0.06500244140625 0.1402587890625 0.0439453125 0.13134765625 0.06512451171875 0.12725830078125 0.047607421875 0.01129150390625 0.046875 0.04046630859375 0.065185546875 0.0091552734375 0.06976318359375 0.04180908203125 0.09368896484375 0.005859375 0.09698486328125 0.022705078125 0.11639404296875 0.0054931640625 0.11138916015625 0.0240478515625 0.1304931640625 0.0067138671875 0.12286376953125 0.02728271484375 0.1380615234375 0.03656005859375 0.1190185546875 0.03753662109375 0.1361083984375 0.04168701171875 0.13714599609375 0.04876708984375 0.15325927734375 0.04583740234375 0.1512451171875 0.120361328125 0.16326904296875 0.0816650390625 0.16412353515625 0.1435546875 0.18310546875 0.14697265625 0.42999267578125 0.89923095703125 0.400146484375 0.9024658203125 0.4305419921875 0.92889404296875 0.40155029296875 0.92987060546875 0.4027099609375 0.93695068359375 0.37225341796875 0.93145751953125 0.37225341796875 0.93817138671875 0.35595703125 0.92138671875 0.34423828125 0.93963623046875 0.34429931640625 0.93365478515625 0.31817626953125 0.93511962890625 0.34417724609375 0.91943359375 0.31781005859375 0.9215087890625 0.31903076171875 0.9815673828125 0.3450927734375 0.98309326171875 0.2353515625 0.43017578125 0.22216796875 0.4383544921875 0.22216796875 0.471435546875 0.24365234375 0.44793701171875 0.24407958984375 0.4971923828125 0.259765625 0.4776611328125 0.26824951171875 0.49517822265625 0.27191162109375 0.48895263671875 0.27679443359375 0.5126953125 0.28033447265625 0.511962890625 0.2750244140625 0.53643798828125 0.27935791015625 0.5386962890625 0.25482177734375 0.58135986328125 0.25750732421875 0.58734130859375 0.01983642578125 0.00518798828125 0.0291748046875 0.0247802734375 0.0140380859375 0.025390625 0.01123046875 0.04345703125 0.0289306640625 0.0247802734375 0.02655029296875 0.04302978515625 0.046142578125 0.0625 0.06781005859375 0.06024169921875 0.10028076171875 0.03961181640625 0.09490966796875 0.0540771484375 0.1063232421875 0.0426025390625 0.09796142578125 0.06463623046875 0.11517333984375 0.0478515625 0.10052490234375 0.07037353515625 0.1148681640625 0.05706787109375 0.09246826171875 0.1158447265625 0.10931396484375 0.10101318359375 0.0889892578125 0.1290283203125 0.10675048828125 0.1187744140625 0.088623046875 0.1556396484375 0.10467529296875 0.1317138671875 0.09002685546875 0.23785400390625 0.1041259765625 0.1971435546875 0.08819580078125 0.27960205078125 0.10638427734375 0.2557373046875 0.108642578125 0.3653564453125 0.112548828125 0.34112548828125 0.12213134765625 0.35931396484375 0.1287841796875 0.32025146484375 0.1337890625 0.344970703125 0.14300537109375 0.330322265625 0.0711669921875 0.6258544921875 0.05645751953125 0.61749267578125 0.06976318359375 0.63043212890625 0.048828125 0.61431884765625 0.04931640625 0.61944580078125 0.0313720703125 0.61102294921875 0.03143310546875 0.6156005859375 0.00518798828125 0.60797119140625 0.00506591796875 0.61151123046875 0.0313720703125 0.6156005859375 0.00506591796875 0.6156005859375 0.0308837890625 0.61920166015625 0.00396728515625 0.65911865234375 0.02593994140625 0.66265869140625 0.01397705078125 0.68402099609375 0.03143310546875 0.69073486328125 0.025634765625 0.4468994140625 0.0494384765625 0.44866943359375 0.0631103515625 0.424560546875 0.07440185546875 0.42120361328125 0.0489501953125 0.34967041015625 0.06915283203125 0.3316650390625 0.063720703125 0.28460693359375 0.08978271484375 0.23785400390625 0.10443115234375 0.1317138671875 0.06463623046875 0.4405517578125 0.05120849609375 0.3614501953125 0.06939697265625 0.3316650390625 0.06396484375 0.28460693359375 0.03485107421875 0.0181884765625 0.047119140625 0.04046630859375 0.02679443359375 0.04302978515625 0.00848388671875 0.06298828125 0.02423095703125 0.06268310546875 0.0250244140625 0.0755615234375 0.044677734375 0.0748291015625 0.02703857421875 0.086669921875 0.046630859375 0.08551025390625 0.1805419921875 0.00689697265625 0.16351318359375 0.0816650390625 0.16021728515625 0.00775146484375 0.15350341796875 0.04583740234375 0.1307373046875 0.0067138671875 0.11541748046875 0.0478515625 0.1065673828125 0.0426025390625 0.09820556640625 0.06463623046875 0.090087890625 0.05169677734375 0.08306884765625 0.0703125 0.06683349609375 0.07269287109375 0.0665283203125 0.082763671875 0.04681396484375 0.08551025390625 0.2332763671875 0.0078125 0.2332763671875 0.04345703125 0.2054443359375 0.00714111328125 0.20703125 0.06146240234375 0.19287109375 0.08740234375 0.183349609375 0.14697265625 0.164306640625 0.1435546875 0.175048828125 0.20489501953125 0.16455078125 0.19775390625 0.16864013671875 0.25689697265625 0.1566162109375 0.27532958984375 0.22216796875 0.5086669921875 0.2471923828125 0.56427001953125 0.066650390625 0.67608642578125 0.09527587890625 0.69781494140625 0.0941162109375 0.65850830078125 0.11328125 0.642333984375 0.10076904296875 0.63665771484375 0.1181640625 0.61328125 0.103759765625 0.60687255859375 0.11492919921875 0.57720947265625 0.10015869140625 0.58099365234375 0.10614013671875 0.55352783203125 0.08941650390625 0.5589599609375 0.07745361328125 0.54669189453125 0.3721923828125 0.9384765625 0.34423828125 0.93994140625 0.31817626953125 0.9354248046875 0.3189697265625 0.98907470703125 0.3450927734375 0.98968505859375 0.125244140625 0.5360107421875 0.13519287109375 0.57568359375 0.1282958984375 0.59100341796875 0.12945556640625 0.6168212890625 0.1180419921875 0.61328125 0.12371826171875 0.6448974609375 0.1131591796875 0.642333984375 0.11474609375 0.66619873046875 0.09515380859375 0.69781494140625 0.1195068359375 0.68280029296875 0.10467529296875 0.70281982421875 0.1162109375 0.076171875 0.1578369140625 0.1920166015625 0.1748046875 0.20489501953125 0.26263427734375 0.48138427734375 0.2357177734375 0.4769287109375 0.22216796875 0.4766845703125 0.23583984375 0.4769287109375 0.247314453125 0.45782470703125 0.26275634765625 0.48138427734375 0.25909423828125 0.46051025390625 0.27001953125 0.47991943359375 0.40447998046875 0.98858642578125 0.376220703125 0.986083984375 0.357666015625 0.95489501953125 0.3612060546875 0.98382568359375 0.1514892578125 0.120361328125 0.151611328125 0.186279296875 0.13995361328125 0.2222900390625 0.14056396484375 0.3101806640625 0.31805419921875 0.94134521484375 0.289306640625 0.93646240234375 0.28955078125 0.924560546875 0.28814697265625 0.979248046875 0.10064697265625 0.63665771484375 0.1036376953125 0.60687255859375 0.11480712890625 0.57720947265625 0.12347412109375 0.56195068359375 0.10955810546875 0.53265380859375 0.1048583984375 0.51025390625 0.0958251953125 0.51629638671875 0.40460205078125 0.98858642578125 0.376220703125 0.9901123046875 0.404541015625 0.99005126953125 0.40155029296875 0.93017578125 0.0478515625 0.01129150390625 0.0654296875 0.0091552734375 0.07000732421875 0.04180908203125 0.09393310546875 0.005859375 0.092041015625 0.0372314453125 0.27203369140625 0.48895263671875 0.2684326171875 0.49517822265625 0.27691650390625 0.5126953125 0.275146484375 0.53643798828125 0.31805419921875 0.941650390625 0.28912353515625 0.94287109375 0.289306640625 0.936767578125 0.00848388671875 0.08746337890625 0.00848388671875 0.07550048828125 0.0252685546875 0.0755615234375 0.0244140625 0.06268310546875 0.04638671875 0.0625 0.37164306640625 0.904541015625 0.28216552734375 0.52081298828125 0.066650390625 0.07269287109375 0.08282470703125 0.0703125 0.357666015625 0.95513916015625 0.36126708984375 0.9898681640625 0.146728515625 0.09710693359375 0.1192626953125 0.083984375 0.1175537109375 0.1361083984375 0.13531494140625 0.57568359375 0.12957763671875 0.6168212890625 0.13714599609375 0.6136474609375 0.12384033203125 0.6448974609375 0.13238525390625 0.64703369140625 0.1148681640625 0.66619873046875 0.11962890625 0.68280029296875 0.28045654296875 0.511962890625 0.27947998046875 0.5386962890625 0.2823486328125 0.52081298828125 0.28228759765625 0.52362060546875 0.280029296875 0.5135498046875 0.27752685546875 0.49884033203125 0.1173095703125 0.1361083984375 0.1400146484375 0.2662353515625 0.1229248046875 0.26483154296875 0.14276123046875 0.330322265625 0.1318359375 0.344970703125 0.12188720703125 0.35931396484375 0.10821533203125 0.2841796875 0.1083984375 0.3653564453125 0.08917236328125 0.30938720703125 0.0994873046875 0.381591796875 0.0999755859375 0.39605712890625 0.04888916015625 0.70025634765625 0.072509765625 0.70526123046875 0.10479736328125 0.70281982421875 0.0816650390625 0.63861083984375 0.08984375 0.64764404296875 0.0687255859375 0.63397216796875 0.12841796875 0.59100341796875 0.1253662109375 0.5360107421875 0.28955078125 0.92486572265625 0.245361328125 0.50701904296875 0.0723876953125 0.70526123046875 0.0665283203125 0.67608642578125 0.081298828125 0.646240234375 0.068603515625 0.63397216796875 0.0697021484375 0.63043212890625 0.10601806640625 0.55352783203125 0.10009765625 0.58099365234375 0.0872802734375 0.410888671875 0.04486083984375 0.0748291015625 0.06805419921875 0.06024169921875 0.00360107421875 0.68267822265625 0.02587890625 0.66259765625 0.04901123046875 0.6239013671875 0.0452880859375 0.6680908203125 0.0272216796875 0.086669921875 0.093994140625 0.65850830078125 0.08978271484375 0.64764404296875 0.0797119140625 0.6390380859375 0.01397705078125 0.6839599609375 0.04522705078125 0.66790771484375 0.43072509765625 0.9359130859375 0.434326171875 0.9898681640625 0.0889892578125 0.5323486328125 0.07733154296875 0.54669189453125 0.08929443359375 0.5589599609375 0.031005859375 0.61920166015625 0.089111328125 0.5323486328125 0.10968017578125 0.53265380859375 0.095947265625 0.51629638671875 0.10498046875 0.51025390625 0.025146484375 0.14385986328125 0.00848388671875 0.14434814453125 0.02691650390625 0.13232421875 0.00848388671875 0.132568359375 0.43426513671875 0.990234375 0.37225341796875 0.93792724609375 0.44287109375 0.9300537109375 0.447021484375 0.990478515625 0.1038818359375 0.1971435546875 0.10882568359375 0.0333251953125 0.25885009765625 0.457763671875 0.24639892578125 0.4403076171875 0.2352294921875 0.43017578125 0.04180908203125 0.40423583984375 0.28912353515625 0.94256591796875 0.28814697265625 0.97955322265625 0.12353515625 0.56195068359375 0.1007080078125 0.07037353515625 0.1151123046875 0.05706787109375 0.116455078125 0.076171875 0.120361328125 0.23712158203125 0.11480712890625 0.08184814453125 0.12713623046875 0.05560302734375 0.03131103515625 0.61102294921875 0.04925537109375 0.61944580078125 0.04888916015625 0.6239013671875 0.23419189453125 0.4410400390625 0.22216796875 0.44793701171875 0.2471923828125 0.45782470703125 0.23406982421875 0.4410400390625 0.22216796875 0.439453125 0.192626953125 0.08740234375 0.1802978515625 0.00689697265625 0.16668701171875 0.04449462890625 0.15997314453125 0.00775146484375 0.2589111328125 0.46051025390625 0.24676513671875 0.44720458984375 0.27740478515625 0.49884033203125 0.2698974609375 0.47991943359375 0.4468994140625 0.99053955078125 0.0958251953125 0.375244140625 0.1002197265625 0.39605712890625 0.0875244140625 0.410888671875 0.28802490234375 0.98822021484375 0.02667236328125 0.13232421875 0.3721923828125 0.9383544921875 0.0859375 0.0782470703125 0.22216796875 0.42742919921875 0.1512451171875 0.3118896484375 0.03466796875 0.0181884765625 0.0313720703125 0.69073486328125 0.04876708984375 0.70025634765625 0.16778564453125 0.261474609375 0.1563720703125 0.27532958984375 0.2330322265625 0.0078125 0.2052001953125 0.00714111328125 0.2330322265625 0.04345703125 0.206787109375 0.06146240234375 0.11456298828125 0.08184814453125 0.1510009765625 0.3118896484375 0.10906982421875 0.0045166015625 0.2469482421875 0.44720458984375 0.4342041015625 0.9898681640625 0.04876708984375 0.61431884765625 0.13702392578125 0.6136474609375 0.071044921875 0.6258544921875 0.13226318359375 0.64703369140625 0.08563232421875 0.64312744140625 0.08154296875 0.63861083984375 0.06634521484375 0.082763671875 0.085693359375 0.0782470703125 0.05633544921875 0.61749267578125 0.01959228515625 0.00518798828125</float_array>
                    <technique_common>
                        <accessor count="425" source="#uvarray1" stride="2">
                            <param name="S" type="float"/>
                            <param name="T" type="float"/>
                        </accessor>
                    </technique_common>
                </source>
                <vertices id="vertices1">
                    <input semantic="POSITION" source="#points1"/>
                </vertices>
                <polylist count="804" material="Material1">
                    <input offset="0" semantic="VERTEX" source="#vertices1"/>
                    <input offset="1" semantic="TEXCOORD" source="#uvs1" set="0"/>
                    <vcount>3 3 3 3 3 3 3 3 3 3 3 3 3 3 3 3 3 3 3 3 3 3 3 3 3 3 3 3 3 3 3 3 3 3 3 3 3 3 3 3 3 3 3 3 3 3 3 3 3 3 3 3 3 3 3 3 3 3 3 3 3 3 3 3 3 3 3 3 3 3 3 3 3 3 3 3 3 3 3 3 3 3 3 3 3 3 3 3 3 3 3 3 3 3 3 3 3 3 3 3 3 3 3 3 3 3 3 3 3 3 3 3 3 3 3 3 3 3 3 3 3 3 3 3 3 3 3 3 3 3 3 3 3 3 3 3 3 3 3 3 3 3 3 3 3 3 3 3 3 3 3 3 3 3 3 3 3 3 3 3 3 3 3 3 3 3 3 3 3 3 3 3 3 3 3 3 3 3 3 3 3 3 3 3 3 3 3 3 3 3 3 3 3 3 3 3 3 3 3 3 3 3 3 3 3 3 3 3 3 3 3 3 3 3 3 3 3 3 3 3 3 3 3 3 3 3 3 3 3 3 3 3 3 3 3 3 3 3 3 3 3 3 3 3 3 3 3 3 3 3 3 3 3 3 3 3 3 3 3 3 3 3 3 3 3 3 3 3 3 3 3 3 3 3 3 3 3 3 3 3 3 3 3 3 3 3 3 3 3 3 3 3 3 3 3 3 3 3 3 3 3 3 3 3 3 3 3 3 3 3 3 3 3 3 3 3 3 3 3 3 3 3 3 3 3 3 3 3 3 3 3 3 3 3 3 3 3 3 3 3 3 3 3 3 3 3 3 3 3 3 3 3 3 3 3 3 3 3 3 3 3 3 3 3 3 3 3 3 3 3 3 3 3 3 3 3 3 3 3 3 3 3 3 3 3 3 3 3 3 3 3 3 3 3 3 3 3 3 3 3 3 3 3 3 3 3 3 3 3 3 3 3 3 3 3 3 3 3 3 3 3 3 3 3 3 3 3 3 3 3 3 3 3 3 3 3 3 3 3 3 3 3 3 3 3 3 3 3 3 3 3 3 3 3 3 3 3 3 3 3 3 3 3 3 3 3 3 3 3 3 3 3 3 3 3 3 3 3 3 3 3 3 3 3 3 3 3 3 3 3 3 3 3 3 3 3 3 3 3 3 3 3 3 3 3 3 3 3 3 3 3 3 3 3 3 3 3 3 3 3 3 3 3 3 3 3 3 3 3 3 3 3 3 3 3 3 3 3 3 3 3 3 3 3 3 3 3 3 3 3 3 3 3 3 3 3 3 3 3 3 3 3 3 3 3 3 3 3 3 3 3 3 3 3 3 3 3 3 3 3 3 3 3 3 3 3 3 3 3 3 3 3 3 3 3 3 3 3 3 3 3 3 3 3 3 3 3 3 3 3 3 3 3 3 3 3 3 3 3 3 3 3 3 3 3 3 3 3 3 3 3 3 3 3 3 3 3 3 3 3 3 3 3 3 3 3 3 3 3 3 3 3 3 3 3 3 3 3 3 3 3 3 3 3 3 3 3 3 3 3 3 3 3 3 3 3 3 3 3 3 3 3 3 3 3 3 3 3 3 3 3 3 3 3 3 3 3 3 3 3 3 3 3 3 3 3 3 3 3 3 3 3 3 3 3 3 3 3 3 3 3 3 3 3 3 3 3 3 3 3 3 3 3 3 3 3 3 3 3 3 3 3 3 3 3 3 3 3 3 3 3 3 3 3 3 3 3 3 3 3 3 3 3 3 3 3 3 3 3 3 3 3 3 3 3 3 3 3 3 3 3 3 3 3 3 3 3 3 3 3 3 3 3 3 3 3 3 3 3 3 3 3 3 3</vcount>
                    <p>2 2 1 1 0 0 3 3 1 1 2 2 4 4 3 3 2 2 5 5 3 3 4 4 6 6 5 5 4 4 7 7 5 5 6 6 8 8 7 7 6 6 9 9 7 7 8 8 10 10 9 9 8 8 11 11 9 9 10 10 12 12 11 11 10 10 13 13 11 11 12 12 14 10 13 13 12 12 15 11 13 13 14 10 16 8 15 11 14 10 17 9 15 11 16 8 18 7 17 9 16 8 19 14 17 9 18 7 20 15 19 14 18 7 21 16 19 14 20 15 22 17 21 16 20 15 23 18 21 16 22 17 24 19 23 18 22 17 27 22 26 21 25 20 28 23 26 21 27 22 29 24 28 23 27 22 30 25 28 23 29 24 31 26 30 25 29 24 32 27 30 25 31 26 33 28 32 27 31 26 34 29 32 27 33 28 35 30 34 29 33 28 36 31 34 29 35 30 37 32 36 31 35 30 38 33 36 31 37 32 39 34 38 33 37 32 40 35 38 33 39 34 41 36 40 35 39 34 42 37 40 35 41 36 43 38 42 37 41 36 44 39 42 37 43 38 45 40 44 39 43 38 46 41 44 39 45 40 47 42 46 41 45 40 48 43 46 41 47 42 41 36 49 44 43 38 50 45 49 44 41 36 39 34 50 45 41 36 51 46 50 45 39 34 37 32 51 46 39 34 52 47 51 46 37 32 35 30 52 47 37 32 53 48 52 47 35 30 33 28 53 48 35 30 54 49 53 48 33 28 55 50 54 49 33 28 56 51 54 49 55 50 57 52 56 51 55 50 58 53 56 51 57 52 59 54 58 53 57 52 24 55 58 53 59 54 23 56 24 55 59 54 62 59 61 58 60 57 63 60 61 58 62 59 64 61 63 60 62 59 65 62 63 60 64 61 66 63 65 62 64 61 67 64 65 62 66 63 68 65 67 64 66 63 69 66 67 64 68 65 70 67 69 66 68 65 71 68 69 66 70 67 72 69 71 68 70 67 73 70 71 68 72 69 74 71 73 70 72 69 75 72 73 70 74 71 76 73 75 72 74 71 77 74 75 72 76 73 78 75 77 74 76 73 81 78 80 77 79 76 82 79 80 77 81 78 83 80 82 79 81 78 84 81 82 79 83 80 85 82 84 81 83 80 86 82 84 81 85 82 87 83 86 82 85 82 88 84 86 82 87 83 89 84 88 84 87 83 90 85 88 84 89 84 91 86 90 85 89 84 92 87 90 85 91 86 93 88 92 87 91 86 88 84 92 87 93 88 94 89 88 84 93 88 95 90 88 84 94 89 22 17 96 91 24 19 97 92 96 91 22 17 98 93 97 92 22 17 99 94 97 92 98 93 100 95 99 94 98 93 101 96 99 94 100 95 102 97 101 96 100 95 49 98 101 96 102 97 103 99 49 98 102 97 43 100 49 98 103 99 104 101 43 100 103 99 105 102 43 100 104 101 106 103 105 102 104 101 107 104 105 102 106 103 14 10 107 104 106 103 12 12 107 104 14 10 110 107 109 106 108 105 111 108 109 106 110 107 112 109 111 108 110 107 113 110 111 108 112 109 61 58 113 110 112 109 114 111 113 110 61 58 63 60 114 111 61 58 115 112 114 111 63 60 116 113 115 112 63 60 117 114 115 112 116 113 118 115 117 114 116 113 119 116 117 114 118 115 120 117 119 116 118 115 121 118 119 116 120 117 1 119 121 118 120 117 124 122 123 121 122 120 125 123 123 121 124 122 126 124 125 123 124 122 127 125 125 123 126 124 128 126 127 125 126 124 129 127 127 125 128 126 130 128 129 127 128 126 131 129 129 127 130 128 132 130 131 129 130 128 133 131 131 129 132 130 134 132 133 131 132 130 135 133 133 131 134 132 136 134 135 133 134 132 137 135 135 133 136 134 140 138 139 137 138 136 141 139 139 137 140 138 142 140 141 139 140 138 143 141 141 139 142 140 144 142 143 141 142 140 145 143 143 141 144 142 146 144 145 143 144 142 147 145 145 143 146 144 148 146 147 145 146 144 149 147 147 145 148 146 150 148 149 147 148 146 151 149 149 147 150 148 152 150 151 149 150 148 153 151 151 149 152 150 30 25 154 152 28 23 155 153 154 152 30 25 156 154 155 153 30 25 157 155 155 153 156 154 158 156 157 155 156 154 159 157 157 155 158 156 160 158 159 157 158 156 161 159 159 157 160 158 40 35 161 159 160 158 162 160 161 159 40 35 42 37 162 160 40 35 44 39 162 160 42 37 163 161 27 22 25 20 164 162 27 22 163 161 165 163 164 162 163 161 55 50 164 162 165 163 166 164 55 50 165 163 57 52 55 50 166 164 126 124 57 52 166 164 59 54 57 52 126 124 124 122 59 54 126 124 23 56 59 54 124 122 122 120 23 56 124 122 109 106 168 166 167 165 169 167 168 166 109 106 111 108 169 167 109 106 170 168 169 167 111 108 113 110 170 168 111 108 171 169 170 168 113 110 114 111 171 169 113 110 172 170 171 169 114 111 173 171 172 170 114 111 174 172 172 170 173 171 175 173 174 172 173 171 178 176 177 175 176 174 179 177 177 175 178 176 180 178 179 177 178 176 181 179 179 177 180 178 182 180 181 179 180 178 183 181 181 179 182 180 184 182 183 181 182 180 185 183 183 181 184 182 186 184 185 183 184 182 187 185 185 183 186 184 188 186 187 185 186 184 191 189 190 188 189 187 192 190 190 188 191 189 176 174 192 190 191 189 193 191 192 190 176 174 177 175 193 191 176 174 194 192 193 191 177 175 195 193 194 192 177 175 196 194 194 192 195 193 197 195 196 194 195 193 198 196 196 194 197 195 199 197 198 196 197 195 20 15 98 93 22 17 200 198 98 93 20 15 18 7 200 198 20 15 201 6 200 198 18 7 16 8 201 6 18 7 202 4 201 6 16 8 203 199 202 4 16 8 204 2 202 4 203 199 104 101 204 2 203 199 103 99 204 2 104 101 207 202 206 201 205 200 208 203 206 201 207 202 209 204 208 203 207 202 210 205 208 203 209 204 211 206 210 205 209 204 212 207 210 205 211 206 213 208 212 207 211 206 214 209 212 207 213 208 215 210 214 209 213 208 216 211 214 209 215 210 219 213 218 83 217 212 220 213 218 83 219 213 221 85 220 213 219 213 222 214 220 213 221 85 223 87 222 214 221 85 224 88 222 214 223 87 219 213 224 88 223 87 225 215 224 88 219 213 226 216 225 215 219 213 229 219 228 218 227 217 230 220 228 218 229 219 231 221 230 220 229 219 232 222 230 220 231 221 233 223 232 222 231 221 234 224 232 222 233 223 235 225 234 224 233 223 236 226 234 224 235 225 237 227 236 226 235 225 120 117 0 228 1 119 47 42 0 228 120 117 73 70 47 42 120 117 48 43 47 42 73 70 75 72 48 43 73 70 238 229 48 43 75 72 77 74 238 229 75 72 239 230 238 229 77 74 78 75 239 230 77 74 3 3 240 231 1 1 241 232 240 231 3 3 5 5 241 232 3 3 242 233 241 232 5 5 243 234 242 233 5 5 244 235 242 233 243 234 245 236 244 235 243 234 187 237 244 235 245 236 246 238 187 237 245 236 249 240 248 77 247 239 250 82 248 77 249 240 251 84 250 82 249 240 252 83 250 82 251 84 253 84 252 83 251 84 254 241 252 83 253 84 255 90 254 241 253 84 256 242 254 241 255 90 257 243 195 193 177 175 197 195 195 193 257 243 258 244 197 195 257 243 199 197 197 195 258 244 259 245 199 197 258 244 260 246 199 197 259 245 135 133 260 246 259 245 137 135 260 246 135 133 253 84 261 89 255 90 262 247 261 89 253 84 263 86 262 247 253 84 264 248 262 247 263 86 265 88 264 248 263 86 266 249 264 248 265 88 267 89 266 249 265 88 268 250 266 249 267 89 231 221 270 252 269 251 271 253 270 252 231 221 229 219 271 253 231 221 272 254 271 253 229 219 227 217 272 254 229 219 273 255 272 254 227 217 134 256 273 255 227 217 132 257 273 255 134 256 248 77 275 78 274 76 276 79 275 78 248 77 277 81 276 79 248 77 278 80 276 79 277 81 279 82 278 80 277 81 280 258 278 80 279 82 281 240 280 258 279 82 284 212 283 260 282 259 285 80 283 260 284 212 286 81 285 80 284 212 287 261 285 80 286 81 288 77 287 261 286 81 289 78 287 261 288 77 290 76 289 78 288 77 168 166 291 262 167 165 292 263 291 262 168 166 293 264 292 263 168 166 294 265 292 263 293 264 295 266 294 265 293 264 182 180 294 265 295 266 184 182 182 180 295 266 122 267 21 16 23 18 296 268 21 16 122 267 297 269 296 268 122 267 19 14 296 268 297 269 298 270 19 14 297 269 17 9 19 14 298 270 15 11 17 9 298 270 301 215 300 213 299 216 302 271 300 213 301 215 303 272 302 271 301 215 304 273 302 271 303 272 305 271 304 273 303 272 222 214 304 273 305 271 220 213 222 214 305 271 306 274 172 170 174 172 307 275 172 170 306 274 308 276 307 275 306 274 309 277 307 275 308 276 310 278 309 277 308 276 169 167 309 277 310 278 168 166 169 167 310 278 313 77 312 78 311 76 314 261 312 78 313 77 315 81 314 261 313 77 316 80 314 261 315 81 317 212 316 80 315 81 318 260 316 80 317 212 319 259 318 260 317 212 84 81 80 77 82 79 320 279 80 77 84 81 86 82 320 279 84 81 80 77 320 279 86 82 321 240 80 77 86 82 322 239 80 77 321 240 32 27 156 154 30 25 158 156 156 154 32 27 34 29 158 156 32 27 160 158 158 156 34 29 38 33 160 158 34 29 40 35 160 158 38 33 324 101 0 0 323 280 2 2 0 0 324 101 325 103 2 2 324 101 326 199 2 2 325 103 10 10 326 199 325 103 8 8 326 199 10 10 105 102 323 280 43 100 324 101 323 280 105 102 107 104 324 101 105 102 325 103 324 101 107 104 12 12 325 103 107 104 10 10 325 103 12 12 115 112 173 171 114 111 327 281 173 171 115 112 117 114 327 281 115 112 328 282 327 281 117 114 119 116 328 282 117 114 121 118 328 282 119 116 265 88 251 84 267 89 329 87 251 84 265 88 263 86 329 87 265 88 330 85 329 87 263 86 253 84 330 85 263 86 251 84 330 85 253 84 331 215 305 271 303 272 220 213 305 271 331 215 332 216 220 213 331 215 333 283 220 213 332 216 334 284 333 283 332 216 319 259 333 283 334 284 179 177 257 243 177 175 335 285 257 243 179 177 336 286 335 285 179 177 337 287 335 285 336 286 127 125 337 287 336 286 129 127 337 287 127 125 340 290 339 289 338 288 341 291 339 289 340 290 342 292 341 291 340 290 343 293 341 291 342 292 344 294 343 293 342 292 206 201 343 293 344 294 346 297 345 296 123 295 347 270 345 296 346 297 348 298 347 270 346 297 349 14 347 270 348 298 350 299 349 14 348 298 351 300 349 14 350 299 48 43 44 39 46 41 352 301 44 39 48 43 353 302 352 301 48 43 354 303 352 301 353 302 355 304 354 303 353 302 356 305 354 303 355 304 357 306 354 303 356 305 358 307 354 303 357 306 359 308 358 307 357 306 360 309 358 307 359 308 361 310 360 309 359 308 216 311 360 309 361 310 205 200 363 312 362 151 364 313 363 312 205 200 206 201 364 313 205 200 365 314 364 313 206 201 344 294 365 314 206 201 367 316 138 136 366 315 140 138 138 136 367 316 207 202 140 138 367 316 368 317 140 138 207 202 205 200 368 317 207 202 210 205 341 291 208 203 339 289 341 291 210 205 369 318 339 289 210 205 338 288 339 289 369 318 370 319 338 288 369 318 373 83 372 213 371 212 300 213 372 213 373 83 374 283 300 213 373 83 299 216 300 213 374 283 375 284 299 216 374 283 377 88 376 215 372 213 378 320 376 215 377 88 304 273 378 320 377 88 224 88 378 320 304 273 222 214 224 88 304 273 245 236 351 300 246 238 349 14 351 300 245 236 379 321 349 14 245 236 7 7 349 14 379 321 5 5 7 7 379 321 347 270 13 13 345 296 11 11 13 13 347 270 349 14 11 11 347 270 9 9 11 11 349 14 7 7 9 9 349 14 235 225 380 322 237 227 381 323 380 322 235 225 382 324 381 323 235 225 383 325 381 323 382 324 384 326 383 325 382 324 123 295 297 269 122 267 298 270 297 269 123 295 345 296 298 270 123 295 15 11 298 270 345 296 13 13 15 11 345 296 385 327 272 254 273 255 271 253 272 254 385 327 386 328 271 253 385 327 270 252 271 253 386 328 360 309 161 159 358 307 159 157 161 159 360 309 216 311 159 157 360 309 387 329 159 157 216 311 388 330 310 278 308 276 389 331 310 278 388 330 186 184 389 331 388 330 184 182 389 331 186 184 150 148 390 332 152 150 391 333 390 332 150 148 148 146 391 333 150 148 392 147 391 333 148 146 151 149 393 334 149 147 394 335 393 334 151 149 153 151 394 335 151 149 381 323 394 335 153 151 395 336 308 276 306 274 388 330 308 276 395 336 188 186 388 330 395 336 186 184 388 330 188 186 170 168 309 277 169 167 307 275 309 277 170 168 171 169 307 275 170 168 172 170 307 275 171 169 269 251 233 223 231 221 396 337 233 223 269 251 397 338 396 337 269 251 398 339 396 337 397 338 391 333 399 340 390 332 400 341 399 340 391 333 392 147 400 341 391 333 401 334 400 341 392 147 278 80 275 78 276 79 402 342 275 78 278 80 280 258 402 342 278 80 403 343 402 342 280 258 404 344 273 255 132 257 385 327 273 255 404 344 405 345 385 327 404 344 406 346 385 327 405 345 144 142 148 146 146 144 392 347 148 146 144 142 142 140 392 347 144 142 401 334 392 347 142 140 361 348 214 209 216 211 407 349 214 209 361 348 359 350 407 349 361 348 357 351 407 349 359 350 408 352 53 48 54 49 409 353 53 48 408 352 96 354 409 353 408 352 410 355 409 353 96 354 316 80 312 78 314 261 411 342 312 78 316 80 318 260 411 342 316 80 412 356 411 342 318 260 382 324 398 339 384 326 396 337 398 339 382 324 235 225 396 337 382 324 233 223 396 337 235 225 374 283 282 259 375 284 284 212 282 259 374 283 373 83 284 212 374 283 371 357 284 212 373 83 289 78 285 80 287 261 413 342 285 80 289 78 290 358 413 342 289 78 414 359 413 342 290 358 352 301 162 160 44 39 415 360 162 160 352 301 354 303 415 360 352 301 358 307 415 360 354 303 83 80 416 258 85 82 417 342 416 258 83 80 81 78 417 342 83 80 79 358 417 342 81 78 65 62 116 113 63 60 418 361 116 113 65 62 67 64 418 361 65 62 69 66 418 361 67 64 277 81 250 357 279 357 419 279 250 357 277 81 248 77 419 279 277 81 250 357 419 279 248 77 420 240 85 82 416 258 421 241 85 82 420 240 422 242 421 241 420 240 423 90 421 241 422 242 421 241 87 83 85 82 89 84 87 83 421 241 423 90 89 84 421 241 424 89 89 84 423 90 50 362 101 96 49 98 99 94 101 96 50 362 51 363 99 94 50 362 425 364 99 94 51 363 27 22 31 26 29 24 426 365 31 26 27 22 164 162 426 365 27 22 55 50 426 365 164 162 424 89 427 247 89 84 428 366 427 247 424 89 429 367 428 366 424 89 261 89 428 366 429 367 371 357 286 81 284 212 430 279 286 81 371 357 288 77 430 279 371 357 286 81 430 279 288 77 212 207 369 318 210 205 431 368 369 318 212 207 214 209 431 368 212 207 407 349 431 368 214 209 58 53 54 49 56 51 408 352 54 49 58 53 24 55 408 352 58 53 96 354 408 352 24 55 351 369 183 181 185 183 181 179 183 181 351 369 350 370 181 179 351 369 348 371 181 179 350 370 337 287 259 245 335 285 432 372 259 245 337 287 129 127 432 372 337 287 131 129 432 372 129 127 336 286 348 371 346 373 433 374 348 371 336 286 179 177 433 374 336 286 181 179 433 374 179 177 147 145 434 375 145 143 435 376 434 375 147 145 149 147 435 376 147 145 393 377 435 376 149 147 436 379 244 235 395 378 242 233 244 235 436 379 437 380 242 233 436 379 400 341 362 151 399 340 205 323 362 151 400 341 368 317 205 323 400 341 401 334 368 317 400 341 140 138 368 317 401 334 142 140 140 138 401 334 431 368 370 319 369 318 357 351 370 319 431 368 407 349 357 351 431 368 436 379 174 381 437 380 306 382 174 381 436 379 395 378 306 382 436 379 440 385 439 384 438 383 441 386 439 384 440 385 74 71 441 386 440 385 437 380 442 387 240 231 175 388 442 387 437 380 174 381 175 388 437 380 440 385 76 73 74 71 78 75 76 73 440 385 438 383 78 75 440 385 240 231 121 389 1 1 443 390 121 389 240 231 442 387 443 390 240 231 200 198 100 95 98 93 202 4 100 95 200 198 201 6 202 4 200 198 427 247 91 86 89 84 264 248 91 86 427 247 428 366 264 248 427 247 417 342 444 343 416 258 445 391 444 343 417 342 79 358 445 391 417 342 446 279 313 77 217 357 315 81 313 77 446 279 217 357 315 81 446 279 432 372 135 133 259 245 133 131 135 133 432 372 131 129 133 131 432 372 336 286 125 123 127 125 123 121 125 123 336 286 346 373 123 121 336 286 70 67 74 71 72 69 441 386 74 71 70 67 68 65 441 386 70 67 71 68 418 361 69 66 118 115 418 361 71 68 120 117 118 115 71 68 288 80 414 356 290 342 447 260 414 356 288 80 448 259 447 260 288 80 130 128 404 392 132 130 165 163 404 392 130 128 166 164 165 163 130 128 372 213 448 259 371 357 449 216 448 259 372 213 376 215 449 216 372 213 165 163 405 393 404 392 450 394 405 393 165 163 163 161 450 394 165 163 378 320 451 395 376 215 225 215 451 395 378 320 224 88 225 215 378 320 333 283 218 83 220 213 317 212 218 83 333 283 319 259 317 212 333 283 409 353 52 47 53 48 425 396 52 47 409 353 410 355 425 396 409 353 313 80 452 259 217 397 453 260 452 259 313 80 454 356 453 260 313 80 246 398 185 183 187 185 351 369 185 183 246 398 455 214 304 273 377 88 302 271 304 273 455 214 33 28 426 365 55 50 31 26 426 365 33 28 128 126 166 164 130 128 126 124 166 164 128 126 326 199 4 4 2 2 8 8 4 4 326 199 425 364 97 92 99 94 410 399 97 92 425 364 257 243 259 245 258 244 335 285 259 245 257 243 456 400 260 246 137 135 199 197 260 246 456 400 102 97 204 2 103 99 100 95 204 2 102 97 317 212 217 357 218 83 315 81 217 357 317 212 457 401 61 58 112 109 60 57 61 58 457 401 262 247 428 366 261 89 264 248 428 366 262 247 458 403 381 323 153 402 380 322 381 323 458 403 459 404 238 229 239 230 460 405 238 229 459 404 190 408 461 407 189 406 462 409 461 407 190 408 343 293 208 203 341 291 206 201 208 203 343 293 462 409 439 384 461 407 438 383 439 384 462 409 323 410 45 40 43 38 0 228 45 40 323 410 238 229 353 302 48 43 460 405 353 302 238 229 353 302 463 411 355 304 460 405 463 411 353 302 464 412 182 180 180 178 294 265 182 180 464 412 241 232 437 380 240 231 242 233 437 380 241 232 188 413 244 235 187 237 395 378 244 235 188 413 379 321 243 234 5 5 245 236 243 234 379 321 465 356 413 342 414 359 283 260 413 342 465 356 300 213 455 214 466 85 302 271 455 214 300 213 203 199 106 103 104 101 16 8 106 103 203 199 467 395 303 272 301 215 331 215 303 272 467 395 219 213 452 259 226 216 217 357 452 259 219 213 93 88 264 248 266 249 91 86 264 248 93 88 94 89 266 249 268 250 93 88 266 249 94 89 454 359 411 342 412 356 311 358 411 342 454 359 88 84 321 240 86 82 95 90 321 240 88 84 445 414 80 77 322 239 79 342 80 77 445 414 393 377 384 326 435 376 383 325 384 326 393 377 435 376 468 415 434 375 384 326 468 415 435 376 230 220 469 416 228 218 232 222 469 416 230 220 398 339 470 417 384 326 397 338 470 417 398 339 232 222 471 418 469 416 234 224 471 418 232 222 383 317 394 335 381 323 393 334 394 335 383 317 384 420 397 338 398 419 470 417 397 338 384 420 415 360 161 159 162 160 358 307 161 159 415 360 472 414 248 77 274 342 247 239 248 77 472 414 442 421 327 281 328 282 175 173 327 281 442 421 443 422 328 282 121 118 442 421 328 282 443 422 389 331 295 266 293 264 184 182 295 266 389 331 310 278 293 264 168 166 389 331 293 264 310 278 281 240 254 241 256 242 279 82 254 241 281 240 279 82 252 83 254 241 250 82 252 83 279 82 473 90 251 84 249 240 267 89 251 84 473 90 472 391 402 342 403 343 274 358 402 342 472 391 51 46 52 47 425 396 468 415 384 326 474 423 47 42 45 40 0 228 209 204 207 202 367 316 411 342 311 358 312 78 38 33 34 29 36 31 475 424 112 109 110 107 474 423 384 326 470 417 118 115 116 113 418 361 313 80 311 342 454 356 159 157 387 329 157 155 88 84 90 85 92 87 283 260 285 80 413 342 106 103 16 8 14 10 4 4 8 8 6 6 386 328 385 327 406 346 410 399 96 91 97 92 296 268 19 14 21 16 100 95 202 4 204 2 120 117 71 68 73 70 471 418 234 224 236 226 402 342 274 358 275 78 251 84 329 87 330 85 288 80 371 397 448 259 327 281 175 173 173 171 348 371 433 374 181 179 219 213 223 87 221 85</p>
                </polylist>
            </mesh>
        </geometry>
        <geometry id="mesh2">
            <mesh>
                <source id="points2">
                    <float_array id="pointarray2" count="174">60.76953125 -44.02734375 17.21875 60.64453125 -47.70703125 19.265625 59.06640625 -45.91796875 21.02734375 60.21875 -49.91015625 20.53125 58.4140625 -49.26171875 23.0234375 60.25390625 -52.48046875 20.62109375 58.46875 -53.15625 23.1640625 60.74609375 -54.7265625 19.51171875 59.21484375 -56.55859375 21.41796875 61.5625 -56.046875 17.50390625 60.44921875 -58.55859375 18.25 62.48046875 -56.0859375 14.65234375 61.84375 -58.62109375 14.0078125 63.26171875 -54.8359375 12.55078125 63.0234375 -56.7265625 10.69921875 63.6875 -52.6328125 11.28515625 63.67578125 -53.38671875 8.703125 63.65234375 -50.0625 11.1953125 63.62109375 -49.4921875 8.2734375 63.16015625 -47.81640625 12.3046875 62.875 -46.0859375 9.921875 62.77734375 -46.49609375 14.3125 62.1640625 -44.0859375 13.4765625 61.85546875 -46.45703125 16.68359375 57.4140625 -48.15234375 28.3671875 54.62890625 -46.859375 31.42578125 53.91015625 -44.63671875 32.19921875 60.34765625 -40.52734375 20.67578125 62.1640625 -42.16015625 16.1875 63.359375 -43.84375 11.03515625 64.4375 -44.75 5.05078125 63.53515625 -48.69140625 0 64.9140625 -52.68359375 0 64.58203125 -44.9140625 0 64.4375 -44.75 -5.05078125 63.62109375 -49.4921875 -7.81640625 62.875 -46.0859375 -10.00390625 62.93359375 -51.24609375 16.01953125 57.39453125 -37.87890625 -25.07421875 55.90234375 -39.74609375 -28.3203125 60.34765625 -40.109375 -20.67578125 54.38671875 -43.08984375 -31.234375 53.91015625 -47.02734375 -32.19921875 59.06640625 -45.91796875 -21.02734375 58.4140625 -49.26171875 -23.0234375 62.1640625 -41.7421875 -16.1875 60.76953125 -44.02734375 -17.21875 63.359375 -43.42578125 -11.03515625 62.1640625 -44.0859375 -13.4765625 58.46875 -53.15625 -22.91796875 56.00390625 -55.17578125 -28.13671875 54.62890625 -51.546875 -31.39453125 59.546875 -55.92578125 -21.7890625 57.78515625 -56.18359375 -24.9609375 63.67578125 -53.38671875 -7.9609375 57.39453125 -37.87890625 25.07421875 55.90234375 -39.74609375 28.3203125 54.38671875 -42.5859375 31.234375</float_array>
                    <technique_common>
                        <accessor count="58" source="#pointarray2" stride="3">
                            <param name="X" type="float"/>
                            <param name="Y" type="float"/>
                            <param name="Z" type="float"/>
                        </accessor>
                    </technique_common>
                </source>
                <source id="uvs2">
                    <float_array id="uvarray2" count="134">0.1424560546875 0.47076416015625 0.14361572265625 0.47259521484375 0.1444091796875 0.47174072265625 0.144287109375 0.47369384765625 0.1453857421875 0.473388671875 0.144287109375 0.4749755859375 0.14544677734375 0.475341796875 0.14373779296875 0.47613525390625 0.14459228515625 0.47705078125 0.1427001953125 0.476806640625 0.14300537109375 0.47802734375 0.14117431640625 0.476806640625 0.140869140625 0.47808837890625 0.14007568359375 0.4761962890625 0.13922119140625 0.47711181640625 0.13946533203125 0.47509765625 0.13824462890625 0.4754638671875 0.139404296875 0.47381591796875 0.13812255859375 0.4735107421875 0.13995361328125 0.47265625 0.1390380859375 0.4718017578125 0.14105224609375 0.47198486328125 0.140625 0.4708251953125 0.14227294921875 0.47198486328125 0.189208984375 0.5740966796875 0.20684814453125 0.54449462890625 0.15899658203125 0.527099609375 0.21197509765625 0.501220703125 0.1414794921875 0.4951171875 0.143310546875 0.4287109375 0.11749267578125 0.47698974609375 0.1109619140625 0.44989013671875 0.0938720703125 0.47760009765625 0.0784912109375 0.46429443359375 0.07391357421875 0.49676513671875 0.04071044921875 0.47393798828125 0.0628662109375 0.529296875 0.00885009765625 0.51715087890625 0.06378173828125 0.56658935546875 0.00885009765625 0.555419921875 0.00885009765625 0.49859619140625 0.04052734375 0.47393798828125 0.06268310546875 0.529296875 0.07373046875 0.49676513671875 0.14190673828125 0.474365234375 0.1668701171875 0.41363525390625 0.18731689453125 0.4315185546875 0.14312744140625 0.4287109375 0.2056884765625 0.4635009765625 0.2117919921875 0.501220703125 0.14129638671875 0.4951171875 0.1588134765625 0.527099609375 0.11077880859375 0.44989013671875 0.1173095703125 0.47698974609375 0.07830810546875 0.46429443359375 0.09368896484375 0.47760009765625 0.162109375 0.56439208984375 0.18902587890625 0.5740966796875 0.20672607421875 0.54449462890625 0.1588134765625 0.58551025390625 0.17388916015625 0.579833984375 0.0635986328125 0.56658935546875 0.15899658203125 0.58551025390625 0.16229248046875 0.56439208984375 0.16705322265625 0.41363525390625 0.1875 0.4315185546875 0.20587158203125 0.4635009765625</float_array>
                    <technique_common>
                        <accessor count="67" source="#uvarray2" stride="2">
                            <param name="S" type="float"/>
                            <param name="T" type="float"/>
                        </accessor>
                    </technique_common>
                </source>
                <vertices id="vertices2">
                    <input semantic="POSITION" source="#points2"/>
                </vertices>
                <polylist count="77" material="Material1">
                    <input offset="0" semantic="VERTEX" source="#vertices2"/>
                    <input offset="1" semantic="TEXCOORD" source="#uvs2" set="0"/>
                    <vcount>3 3 3 3 3 3 3 3 3 3 3 3 3 3 3 3 3 3 3 3 3 3 3 3 3 3 3 3 3 3 3 3 3 3 3 3 3 3 3 3 3 3 3 3 3 3 3 3 3 3 3 3 3 3 3 3 3 3 3 3 3 3 3 3 3 3 3 3 3 3 3 3 3 3 3 3 3</vcount>
                    <p>2 2 1 1 0 0 3 3 1 1 2 2 4 4 3 3 2 2 5 5 3 3 4 4 6 6 5 5 4 4 7 7 5 5 6 6 8 8 7 7 6 6 9 9 7 7 8 8 10 10 9 9 8 8 11 11 9 9 10 10 12 12 11 11 10 10 13 13 11 11 12 12 14 14 13 13 12 12 15 15 13 13 14 14 16 16 15 15 14 14 17 17 15 15 16 16 18 18 17 17 16 16 19 19 17 17 18 18 20 20 19 19 18 18 21 21 19 19 20 20 22 22 21 21 20 20 23 23 21 21 22 22 0 0 23 23 22 22 1 1 23 23 0 0 4 26 25 25 24 24 26 27 25 25 4 26 2 28 26 27 4 26 27 29 26 27 2 28 0 30 27 29 2 28 28 31 27 29 0 30 22 32 28 31 0 30 29 33 28 31 22 32 20 34 29 33 22 32 30 35 29 33 20 34 18 36 30 35 20 34 31 37 30 35 18 36 16 38 31 37 18 36 32 39 31 37 16 38 31 37 33 40 30 35 34 41 33 40 31 37 35 42 34 41 31 37 36 43 34 41 35 42 37 44 11 11 13 13 9 9 11 11 37 44 7 7 9 9 37 44 37 44 17 17 19 19 15 15 17 17 37 44 13 13 15 15 37 44 37 44 23 23 1 1 21 21 23 23 37 44 19 19 21 21 37 44 37 44 5 5 7 7 3 3 5 5 37 44 1 1 3 3 37 44 40 47 39 46 38 45 41 48 39 46 40 47 42 49 41 48 40 47 43 50 42 49 40 47 44 51 42 49 43 50 46 53 40 47 45 52 43 50 40 47 46 53 48 55 45 52 47 54 46 53 45 52 48 55 36 43 47 54 34 41 48 55 47 54 36 43 50 57 44 51 49 56 51 58 44 51 50 57 53 60 49 56 52 59 50 57 49 56 53 60 54 61 31 37 32 39 35 42 31 37 54 61 6 63 24 24 8 62 4 26 24 24 6 63 56 65 27 29 55 64 57 66 27 29 56 65 44 51 51 58 42 49 27 29 57 66 26 27</p>
                </polylist>
            </mesh>
        </geometry>
    </library_geometries>
    <library_visual_scenes>
        <visual_scene id="VisualSceneNode">
            <node id="node0" name="m0" type="NODE">
                <instance_geometry url="#mesh0">
                    <bind_material>
                        <technique_common>
                            <instance_material symbol="Material1" target="#mat0">
                                <bind_vertex_input semantic="UVSET0" input_semantic="TEXCOORD" input_set="0"></bind_vertex_input>
                            </instance_material>
                        </technique_common>
                    </bind_material>
                </instance_geometry>
            </node>
            <node id="node1" name="m1" type="NODE">
                <instance_geometry url="#mesh1">
                    <bind_material>
                        <technique_common>
                            <instance_material symbol="Material1" target="#mat2">
                                <bind_vertex_input semantic="UVSET0" input_semantic="TEXCOORD" input_set="0"></bind_vertex_input>
                            </instance_material>
                        </technique_common>
                    </bind_material>
                </instance_geometry>
            </node>
            <node id="node2" name="m2" type="NODE">
                <instance_geometry url="#mesh2">
                    <bind_material>
                        <technique_common>
                            <instance_material symbol="Material1" target="#mat1">
                                <bind_vertex_input semantic="UVSET0" input_semantic="TEXCOORD" input_set="0"></bind_vertex_input>
                            </instance_material>
                        </technique_common>
                    </bind_material>
                </instance_geometry>
            </node>
        </visual_scene>
    </library_visual_scenes>
    <scene>
        <instance_visual_scene url="#VisualSceneNode"></instance_visual_scene>
    </scene>
</COLLADA>
