<?xml version="1.0"?>
<COLLADA xmlns="http://www.collada.org/2005/11/COLLADASchema" version="1.4.1">
    <asset>
        <contributor>
            <authoring_tool>J3D Ripoff Exporter</authoring_tool>
        </contributor>
        <created>2024-08-19T02:25:42.780Z</created>
        <modified>2024-08-19T02:25:42.780Z</modified>
		<unit meter="0.01" name="centimeter" ></unit>
        <up_axis>Y_UP</up_axis>
    </asset>
    <library_images>
        <image id="tex0">
            <init_from>konfu_body.png</init_from>
        </image>
        <image id="tex1">
            <init_from>konfu_eye.png</init_from>
        </image>
    </library_images>
    <library_effects>
        <effect id="effect0">
            <profile_COMMON>
                <newparam sid="surface0">
                    <surface type="2D">
                        <init_from>tex1</init_from>
                    </surface>
                </newparam>
                <newparam sid="sampler0">
                    <sampler2D>
                        <source>surface0</source>
                    </sampler2D>
                </newparam>
                <technique sid="COMMON">
                    <blinn>
                        <diffuse>
                            <texture texture="sampler0" texcoord="UVSET0"></texture>
                        </diffuse>
                    </blinn>
                </technique>
            </profile_COMMON>
        </effect>
        <effect id="effect1">
            <profile_COMMON>
                <newparam sid="surface1">
                    <surface type="2D">
                        <init_from>tex0</init_from>
                    </surface>
                </newparam>
                <newparam sid="sampler1">
                    <sampler2D>
                        <source>surface1</source>
                    </sampler2D>
                </newparam>
                <technique sid="COMMON">
                    <blinn>
                        <diffuse>
                            <texture texture="sampler1" texcoord="UVSET0"></texture>
                        </diffuse>
                    </blinn>
                </technique>
            </profile_COMMON>
        </effect>
        <effect id="effect2">
            <profile_COMMON>
                <newparam sid="surface2">
                    <surface type="2D">
                        <init_from>tex0</init_from>
                    </surface>
                </newparam>
                <newparam sid="sampler2">
                    <sampler2D>
                        <source>surface2</source>
                    </sampler2D>
                </newparam>
                <technique sid="COMMON">
                    <blinn>
                        <diffuse>
                            <texture texture="sampler2" texcoord="UVSET0"></texture>
                        </diffuse>
                    </blinn>
                </technique>
            </profile_COMMON>
        </effect>
    </library_effects>
    <library_materials>
        <material id="mat0" name="Eye">
            <instance_effect url="#effect0"></instance_effect>
        </material>
        <material id="mat1" name="Skin_etc">
            <instance_effect url="#effect1"></instance_effect>
        </material>
        <material id="mat2" name="Skin_spc">
            <instance_effect url="#effect2"></instance_effect>
        </material>
    </library_materials>
    <library_geometries>
        <geometry id="mesh0">
            <mesh>
                <source id="points0">
                    <float_array id="pointarray0" count="150">60.45180892944336 -58.560791015625 -18.252105712890625 62.511409759521484 -56.04888916015625 -18.217191696166992 59.21628189086914 -56.56028747558594 -21.420211791992188 61.6960334777832 -54.72858428955078 -20.308055877685547 58.47138214111328 -53.157310485839844 -23.166828155517578 61.20438766479492 -52.48252868652344 -21.460771560668945 58.41651916503906 -49.2628288269043 -23.0239200592041 61.168174743652344 -49.91249084472656 -21.366453170776367 59.06637954711914 -45.92124938964844 -21.02980613708496 61.59711837768555 -47.70711898803711 -20.050382614135742 60.24704360961914 -44.0275764465332 -17.21877098083496 62.37626647949219 -46.45734786987305 -17.365198135375977 61.64188003540039 -44.089107513427734 -13.478031158447266 63.29686737060547 -46.498050689697266 -14.896411895751953 62.877410888671875 -46.089744567871094 -10.309915542602539 64.11223602294922 -47.81831741333008 -12.805538177490234 63.62238311767578 -49.49331283569336 -8.563318252563477 64.60389709472656 -50.064430236816406 -11.65283203125 63.677249908447266 -53.387184143066406 -8.706226348876953 64.64010620117188 -52.634429931640625 -11.747150421142578 63.0272331237793 -56.729087829589844 -10.700359344482422 64.21116638183594 -54.839820861816406 -13.063220977783203 61.846717834472656 -58.622474670410156 -14.011383056640625 63.432010650634766 -56.08959197998047 -15.2484130859375 59.216346740722656 -56.56028747558594 21.420249938964844 62.51140213012695 -56.04888916015625 18.217191696166992 60.45180892944336 -58.560791015625 18.25213050842285 63.432003021240234 -56.08959197998047 15.2484130859375 61.846710205078125 -58.622474670410156 14.011392593383789 64.21115112304688 -54.839820861816406 13.063220977783203 63.02730178833008 -56.728782653808594 10.700368881225586 64.64009857177734 -52.634429931640625 11.747150421142578 63.67723846435547 -53.387184143066406 8.706235885620117 64.60388946533203 -50.064430236816406 11.65283203125 63.62237548828125 -49.49300765991211 8.56332778930664 64.11222839355469 -47.818336486816406 12.805538177490234 62.877403259277344 -46.089744567871094 10.309925079345703 63.29685592651367 -46.498050689697266 14.896411895751953 61.641944885253906 -44.08926010131836 13.47804069519043 62.37625503540039 -46.45734786987305 17.365198135375977 60.24711227416992 -44.02742385864258 17.21879005432129 61.597110748291016 -47.70711898803711 20.050382614135742 59.066444396972656 -45.92124938964844 21.02980613708496 61.16816329956055 -49.91249084472656 21.366453170776367 58.41650390625 -49.2628288269043 23.02393913269043 61.204376220703125 -52.48252868652344 21.460771560668945 58.47138214111328 -53.157005310058594 23.166852951049805 61.6960334777832 -54.72858428955078 20.308061599731445 63.885807037353516 -51.24622344970703 -16.67241096496582 63.885799407958984 -51.24622344970703 16.67241096496582</float_array>
                    <technique_common>
                        <accessor count="50" source="#pointarray0" stride="3">
                            <param name="X" type="float"/>
                            <param name="Y" type="float"/>
                            <param name="Z" type="float"/>
                        </accessor>
                    </technique_common>
                </source>
                <source id="uvs0">
                    <float_array id="uvarray0" count="100">-0.37567138671875 0.87078857421875 -0.40753173828125 0.74176025390625 -0.2122802734375 0.76800537109375 -0.2996826171875 0.6739501953125 -0.1221923828125 0.59320068359375 -0.24017333984375 0.55853271484375 -0.12957763671875 0.39312744140625 -0.24505615234375 0.426513671875 -0.232421875 0.22149658203125 -0.31292724609375 0.313232421875 -0.42901611328125 0.12420654296875 -0.45147705078125 0.2490234375 -0.6219482421875 0.12738037109375 -0.57879638671875 0.2510986328125 -0.78533935546875 0.23016357421875 -0.6866455078125 0.3189697265625 -0.87542724609375 0.40496826171875 -0.74609375 0.434326171875 -0.86810302734375 0.60504150390625 -0.7412109375 0.56634521484375 -0.76519775390625 0.77667236328125 -0.67333984375 0.67962646484375 -0.59442138671875 0.87396240234375 -0.5606689453125 0.74383544921875 -0.21099853515625 0.76800537109375 -0.40618896484375 0.74176025390625 -0.3743896484375 0.87078857421875 -0.559326171875 0.74383544921875 -0.5931396484375 0.87396240234375 -0.67205810546875 0.67962646484375 -0.763916015625 0.77667236328125 -0.73992919921875 0.56634521484375 -0.86676025390625 0.60504150390625 -0.74481201171875 0.434326171875 -0.8741455078125 0.40496826171875 -0.68536376953125 0.3189697265625 -0.7840576171875 0.23016357421875 -0.5775146484375 0.2510986328125 -0.62066650390625 0.12738037109375 -0.45013427734375 0.2490234375 -0.42767333984375 0.12420654296875 -0.3116455078125 0.313232421875 -0.23114013671875 0.22149658203125 -0.2437744140625 0.426513671875 -0.12823486328125 0.39312744140625 -0.2388916015625 0.55853271484375 -0.12091064453125 0.59320068359375 -0.29833984375 0.6739501953125 -0.4871826171875 0.49505615234375 -0.48590087890625 0.49505615234375</float_array>
                    <technique_common>
                        <accessor count="50" source="#uvarray0" stride="2">
                            <param name="S" type="float"/>
                            <param name="T" type="float"/>
                        </accessor>
                    </technique_common>
                </source>
                <vertices id="vertices0">
                    <input semantic="POSITION" source="#points0"/>
                </vertices>
                <polylist count="72" material="Material1">
                    <input offset="0" semantic="VERTEX" source="#vertices0"/>
                    <input offset="1" semantic="TEXCOORD" source="#uvs0" set="0"/>
                    <vcount>3 3 3 3 3 3 3 3 3 3 3 3 3 3 3 3 3 3 3 3 3 3 3 3 3 3 3 3 3 3 3 3 3 3 3 3 3 3 3 3 3 3 3 3 3 3 3 3 3 3 3 3 3 3 3 3 3 3 3 3 3 3 3 3 3 3 3 3 3 3 3 3</vcount>
                    <p>2 2 1 1 0 0 3 3 1 1 2 2 4 4 3 3 2 2 5 5 3 3 4 4 6 6 5 5 4 4 7 7 5 5 6 6 8 8 7 7 6 6 9 9 7 7 8 8 10 10 9 9 8 8 11 11 9 9 10 10 12 12 11 11 10 10 13 13 11 11 12 12 14 14 13 13 12 12 15 15 13 13 14 14 16 16 15 15 14 14 17 17 15 15 16 16 18 18 17 17 16 16 19 19 17 17 18 18 20 20 19 19 18 18 21 21 19 19 20 20 22 22 21 21 20 20 23 23 21 21 22 22 0 0 23 23 22 22 1 1 23 23 0 0 26 26 25 25 24 24 27 27 25 25 26 26 28 28 27 27 26 26 29 29 27 27 28 28 30 30 29 29 28 28 31 31 29 29 30 30 32 32 31 31 30 30 33 33 31 31 32 32 34 34 33 33 32 32 35 35 33 33 34 34 36 36 35 35 34 34 37 37 35 35 36 36 38 38 37 37 36 36 39 39 37 37 38 38 40 40 39 39 38 38 41 41 39 39 40 40 42 42 41 41 40 40 43 43 41 41 42 42 44 44 43 43 42 42 45 45 43 43 44 44 46 46 45 45 44 44 47 47 45 45 46 46 24 24 47 47 46 46 25 25 47 47 24 24 48 48 1 1 3 3 23 23 1 1 48 48 21 21 23 23 48 48 48 48 19 19 21 21 17 17 19 19 48 48 15 15 17 17 48 48 48 48 13 13 15 15 11 11 13 13 48 48 9 9 11 11 48 48 48 48 7 7 9 9 5 5 7 7 48 48 3 3 5 5 48 48 49 49 47 47 25 25 45 45 47 47 49 49 43 43 45 45 49 49 27 27 49 49 25 25 29 29 49 49 27 27 31 31 49 49 29 29 33 33 49 49 31 31 35 35 49 49 33 33 37 37 49 49 35 35 39 39 49 49 37 37 41 41 49 49 39 39 41 41 43 43 49 49</p>
                </polylist>
            </mesh>
        </geometry>
        <geometry id="mesh1">
            <mesh>
                <source id="points1">
                    <float_array id="pointarray1" count="936">51.42451477050781 -12.876605987548828 -41.971004486083984 49.868778228759766 -19.40969467163086 -40.35809326171875 59.04620361328125 -15.537394523620605 -39.64302062988281 57.636165618896484 -22.346763610839844 -37.883338928222656 64.97563934326172 -26.051406860351562 -31.904382705688477 61.333255767822266 -33.092002868652344 -28.978052139282227 70.35529327392578 -29.423809051513672 -25.36418914794922 65.66944885253906 -35.57130813598633 -23.278636932373047 76.07329559326172 -32.15147018432617 -16.615514755249023 68.91032409667969 -37.88463592529297 -17.02916145324707 79.480224609375 -33.81723403930664 -8.394832611083984 73.246826171875 -40.33395767211914 -8.040714263916016 75.15900421142578 -40.67827224731445 0 69.02803802490234 -43.5127067565918 -7.141886234283447 70.23532104492188 -43.76497268676758 0 64.5848617553711 -46.44155502319336 0 68.59417724609375 -43.369102478027344 7.141894817352295 64.44109344482422 -45.79488754272461 5.051718235015869 63.36051559448242 -43.9906120300293 11.038780212402344 21.262603759765625 25.114498138427734 0 12.72887134552002 19.74283218383789 0 24.099037170410156 23.627662658691406 -20.600576400756836 11.951269149780273 15.454463958740234 -14.569621086120605 28.76894187927246 21.403121948242188 -34.5594482421875 10.758428573608398 8.59964370727539 -24.80136489868164 23.4071044921875 9.465007781982422 -39.11484146118164 11.034934997558594 -0.3726010024547577 -32.5948486328125 21.599746704101562 0.14461499452590942 -40.79063415527344 14.433358192443848 -9.093265533447266 -36.41904830932617 20.99671745300293 -8.02042007446289 -41.360408782958984 20.92372703552246 -17.61423110961914 -37.46336364746094 27.692245483398438 -16.587238311767578 -42.3507194519043 27.695167541503906 -22.813644409179688 -39.332496643066406 38.056678771972656 -16.70980453491211 -42.57196044921875 39.14795684814453 -24.949932098388672 -38.258628845214844 45.861053466796875 -26.470203399658203 -36.726646423339844 38.155399322509766 -27.98086166381836 -36.8841667175293 44.443939208984375 -30.18960952758789 -34.86273193359375 69.34420776367188 -38.17760467529297 17.029170989990234 73.24683380126953 -40.33395767211914 8.040714263916016 79.48023986816406 -33.81723403930664 8.394832611083984 80.67737579345703 -34.72503662109375 0 82.89800262451172 -24.581336975097656 -8.95380973815918 80.32019805908203 -23.44451904296875 -16.88934326171875 80.8134994506836 -14.167060852050781 -16.934661865234375 74.32585144042969 -21.034908294677734 -26.23988151550293 74.8945083618164 -11.980246543884277 -26.19110107421875 66.80286407470703 -18.46996307373047 -34.023677825927734 65.88726806640625 -9.032478332519531 -35.70793914794922 58.50353240966797 -6.60032320022583 -40.69752883911133 50.941925048828125 -4.358500957489014 -43.02324295043945 10.758426666259766 8.59964370727539 24.801366806030273 28.76894187927246 21.403121948242188 30.934917449951172 23.407102584838867 9.465007781982422 39.11484146118164 38.8896598815918 20.593414306640625 39.53961944580078 36.55565643310547 9.452266693115234 43.5827522277832 49.149356842041016 13.05196762084961 43.922813415527344 42.17128372192383 7.374916076660156 44.54331588745117 49.80901336669922 5.341681957244873 43.84718322753906 41.3846549987793 -1.5032390356063843 44.69919204711914 50.941959381103516 -4.358500957489014 43.02324295043945 40.85564041137695 -9.584197998046875 44.078330993652344 51.42454528808594 -12.876605987548828 41.971004486083984 38.05668258666992 -16.70980453491211 42.57197570800781 49.868797302246094 -19.40969467163086 40.35808563232422 45.86105728149414 -26.470203399658203 36.72665023803711 53.91985321044922 -29.613494873046875 34.06425857543945 49.366241455078125 -32.344970703125 32.533145904541016 55.246910095214844 -33.26171875 30.675859451293945 38.8896598815918 20.593414306640625 -40.6810188293457 36.5556526184082 9.452266693115234 -44.593841552734375 49.14934158325195 13.05196762084961 -43.907127380371094 42.17128372192383 7.374916076660156 -44.543304443359375 49.808998107910156 5.341681957244873 -43.8471794128418 41.3846435546875 -1.5032390356063843 -44.699188232421875 40.85563659667969 -9.584197998046875 -44.07831573486328 53.91984939575195 -29.613494873046875 -34.06425476074219 49.36623764038086 -32.344970703125 -32.533138275146484 55.24689865112305 -33.26171875 -30.67584991455078 50.9512825012207 -62.828521728515625 -30.78939437866211 55.98185348510742 -60.83820343017578 -30.49297332763672 45.9533805847168 -58.559303283691406 -36.50087356567383 52.35667037963867 -56.03809356689453 -35.8009033203125 43.436309814453125 -53.12416076660156 -39.967437744140625 50.711631774902344 -52.802276611328125 -38.23060989379883 42.405887603759766 -48.05208206176758 -41.254676818847656 49.59270477294922 -48.53309631347656 -39.78611755371094 42.93613815307617 -42.28538513183594 -40.75558090209961 49.91967010498047 -44.6148681640625 -39.4769287109375 45.13765335083008 -36.25679016113281 -38.06076431274414 51.1407585144043 -40.19746780395508 -38.15996170043945 49.36624526977539 -32.34498977661133 -32.53313064575195 53.2728271484375 -35.754032135009766 -34.39531326293945 55.246917724609375 -33.261756896972656 -30.67584991455078 58.21145248413086 -35.27406692504883 -28.229475021362305 62.16600036621094 -42.017574310302734 16.190881729125977 66.10333251953125 -35.864295959472656 23.278642654418945 76.50680541992188 -32.15147018432617 16.615524291992188 70.78881072998047 -29.423809051513672 25.364198684692383 80.32019805908203 -23.44451904296875 16.889352798461914 74.32585906982422 -21.034908294677734 26.239891052246094 80.8134994506836 -14.167060852050781 16.93467140197754 74.8945083618164 -11.980246543884277 26.19110107421875 79.94551849365234 -5.649775981903076 17.080183029174805 74.63988494873047 -3.833159923553467 26.435136795043945 78.36113739013672 1.7973140478134155 16.96852684020996 73.26565551757812 4.0142059326171875 26.258115768432617 76.87646484375 4.183139801025391 17.01918601989746 72.11676788330078 6.025084972381592 25.428810119628906 82.89801788330078 -24.581336975097656 8.953819274902344 83.15799713134766 -14.927749633789062 8.640937805175781 82.15442657470703 -6.356505870819092 8.747310638427734 84.7314224243164 -15.688819885253906 0 83.9305419921875 -7.063236236572266 0 82.15442657470703 -6.356505870819092 -8.74730110168457 80.80097198486328 0.6505969762802124 -8.82822036743164 79.94551849365234 -5.649775981903076 -17.080183029174805 78.36113739013672 1.7973140478134155 -16.968517303466797 74.66156005859375 -3.833159923553467 -26.435136795043945 11.034936904907227 -0.3726010024547577 32.594852447509766 21.599746704101562 0.14461499452590942 40.790645599365234 14.433355331420898 -9.093265533447266 36.4190559387207 20.99671745300293 -8.02042007446289 41.360416412353516 20.923734664916992 -17.61423110961914 37.46337890625 27.692245483398438 -16.587238311767578 42.3507194519043 27.695165634155273 -22.813644409179688 39.332496643066406 39.147953033447266 -24.949817657470703 38.258636474609375 38.155399322509766 -27.98074722290039 36.88417434692383 44.443939208984375 -30.18960952758789 34.86274337768555 83.80758666992188 14.224404335021973 -7.255049228668213 81.49787139892578 17.029977798461914 -9.739354133605957 81.49787902832031 14.931468963623047 -10.45832633972168 76.889404296875 20.28400993347168 -15.960009574890137 76.88941192626953 18.057498931884766 -16.67898178100586 71.80481719970703 22.020233154296875 -24.699003219604492 71.80481719970703 19.793739318847656 -25.896596908569336 67.12644958496094 22.93114471435547 -31.421567916870117 67.12644958496094 20.70465087890625 -32.619163513183594 60.74347686767578 23.15890121459961 -35.67228698730469 60.74347686767578 20.93240737915039 -36.86988067626953 52.72608947753906 20.748462677001953 -40.23467254638672 61.05863571166992 17.182388305664062 -38.776588439941406 54.108848571777344 13.895416259765625 -41.61949920654297 62.88924026489258 12.565555572509766 -37.1909065246582 67.72899627685547 16.21746063232422 -34.01993942260742 68.37722778320312 11.997833251953125 -33.56077194213867 74.71401977539062 10.633125305175781 -26.819515228271484 73.8168716430664 7.527503967285156 -26.124162673950195 78.84100341796875 5.476626873016357 -17.243146896362305 76.87648010253906 4.183139801025391 -17.01918601989746 79.2744369506836 3.1165120601654053 -8.552284240722656 60.45180892944336 -58.560791015625 18.25213050842285 61.846717834472656 -58.622474670410156 14.011392593383789 61.251686096191406 -51.70234680175781 20.718421936035156 63.02729034423828 -56.72874450683594 10.700368881225586 63.82917785644531 -50.10459899902344 12.740058898925781 63.67723846435547 -53.387184143066406 8.706235885620117 64.67601013183594 -49.270687103271484 7.1564202308654785 64.91468048095703 -52.6873779296875 0 65.1135025024414 -48.65131378173828 0 64.67601013183594 -49.270687103271484 -7.156410217285156 68.45362091064453 -48.61076354980469 0 68.04084014892578 -49.1041374206543 -6.352519989013672 43.43629455566406 -53.12408447265625 39.96744918823242 42.40587615966797 -48.052005767822266 41.25467300415039 50.71161651611328 -52.802276611328125 38.23061752319336 49.592689514160156 -48.53309631347656 39.786128997802734 54.89472961425781 -48.002986907958984 36.1077880859375 49.919677734375 -44.6148681640625 39.47694396972656 55.37205123901367 -42.52124786376953 35.23340606689453 51.140750885009766 -40.19746780395508 38.159976959228516 56.33295440673828 -38.92210006713867 32.85043716430664 53.272823333740234 -35.754032135009766 34.39531707763672 58.211463928222656 -35.27406692504883 28.22948455810547 55.246910095214844 -33.26173782348633 30.675859451293945 57.04045867919922 2.057837963104248 41.60904312133789 58.50356674194336 -6.60032320022583 40.69752883911133 59.046207427978516 -15.537394523620605 39.64302444458008 57.63616943359375 -22.346763610839844 37.88334274291992 61.33325958251953 -33.092002868652344 28.978057861328125 64.57388305664062 -0.6170459985733032 36.63559341430664 65.80366516113281 -9.032478332519531 35.70794677734375 66.8028793334961 -18.46996307373047 34.023677825927734 64.97564697265625 -26.051406860351562 31.904386520385742 57.39749526977539 -37.88177490234375 25.07781982421875 60.34859085083008 -40.111656188964844 20.6791934967041 70.00423431396484 -2.2947499752044678 -32.206764221191406 73.26567077636719 4.0142059326171875 -26.258115768432617 82.24241638183594 0.21108600497245789 0 80.70415496826172 2.80275297164917 0 79.27442932128906 3.1165120601654053 8.55229377746582 52.72609329223633 20.748462677001953 40.234676361083984 61.12070846557617 20.870361328125 37.72197341918945 61.058624267578125 17.182388305664062 38.79228210449219 67.12645721435547 20.70465087890625 32.61916732788086 67.72898864746094 16.21746063232422 34.01993942260742 74.59563446044922 14.497432708740234 26.82938575744629 74.7140121459961 10.633125305175781 26.819515228271484 81.14402770996094 8.343734741210938 17.467117309570312 78.84099578857422 5.476626873016357 17.24315643310547 81.30885314941406 4.518527984619141 8.28730583190918 74.59564208984375 14.497432708740234 -26.829376220703125 81.14403533935547 8.343734741210938 -17.467117309570312 81.3088607788086 4.518527984619141 -8.28730583190918 68.04084014892578 -49.1041374206543 6.352519989013672 66.88636016845703 -50.2655029296875 13.181600570678711 64.2087631225586 -52.50751495361328 21.553878784179688 58.08511734008789 -57.343482971191406 30.803808212280273 63.244789123535156 -58.68919372558594 21.247468948364258 55.98184585571289 -60.83820343017578 30.492977142333984 67.94205474853516 9.601554870605469 -32.708614349365234 60.74939727783203 10.175304412841797 -36.460960388183594 55.00359344482422 11.029014587402344 -41.80248260498047 56.819297790527344 2.2926900386810303 -41.609039306640625 64.2087631225586 -52.50751495361328 -21.553869247436523 63.24480056762695 -58.68919372558594 -21.24746322631836 67.04519653320312 -55.73455810546875 -12.181940078735352 63.7668571472168 -60.473175048828125 -9.729852676391602 68.27649688720703 -54.27661895751953 -6.090974807739258 65.37923431396484 -57.55638122558594 -3.7375829219818115 68.99285888671875 -53.802337646484375 0 65.8245620727539 -56.83238983154297 0 68.27649688720703 -54.27661895751953 6.090974807739258 65.37923431396484 -57.55638122558594 3.7375829219818115 67.04519653320312 -55.73455810546875 12.181940078735352 81.31195068359375 17.788612365722656 3.6751270294189453 84.0912857055664 14.128312110900879 0 83.80760192871094 14.224404335021973 7.255049228668213 84.71038818359375 12.029818534851074 0 84.42669677734375 12.125911712646484 7.255049228668213 84.65579223632812 7.330303192138672 0 83.77456665039062 7.581634998321533 8.022317886352539 82.44900512695312 4.234886169433594 0 67.07041931152344 7.869948863983154 31.856464385986328 68.21947479248047 5.946751117706299 32.027374267578125 60.927215576171875 8.470916748046875 37.36898422241211 55.00360870361328 11.029014587402344 41.818172454833984 66.88636016845703 -50.2655029296875 -13.181591033935547 49.366241455078125 -32.34498977661133 32.533145904541016 45.13764953613281 -36.25679016113281 38.0607795715332 42.936119079589844 -42.285308837890625 40.755577087402344 73.81686401367188 7.527503967285156 26.124162673950195 68.3772201538086 11.997833251953125 33.56077194213867 62.88923645019531 12.565555572509766 37.20659255981445 53.913883209228516 -47.02821731567383 32.20085525512695 54.631832122802734 -51.5496826171875 31.394710540771484 55.7652587890625 -52.412681579589844 34.786529541015625 52.3566780090332 -56.03809356689453 35.80091857910156 45.953372955322266 -58.559303283691406 36.500877380371094 54.894744873046875 -48.002986907958984 -36.10778045654297 55.3720588684082 -42.52124786376953 -35.233394622802734 56.33295822143555 -38.92210006713867 -32.85042953491211 54.108863830566406 13.895416259765625 41.63519287109375 60.755332946777344 10.184707641601562 36.460968017578125 67.94205474853516 9.601554870605469 32.708614349365234 64.59556579589844 -0.5799480080604553 -36.635589599609375 60.92127990722656 8.473548889160156 -37.36898422241211 67.07042694091797 7.869948863983154 -31.856460571289062 68.21949005126953 5.946751117706299 -32.02737045288086 72.11677551269531 6.025084972381592 -25.428810119628906 32.42090606689453 0.33330899477005005 44.36537551879883 29.590831756591797 -6.290339946746826 44.46116256713867 80.80096435546875 0.6505969762802124 8.82822036743164 81.60635375976562 12.78604507446289 -17.840051651000977 83.77458953857422 7.581634998321533 -8.022317886352539 84.42668914794922 12.125911712646484 -7.255049228668213 63.7668571472168 -60.473175048828125 9.729852676391602 59.71124267578125 -63.36872100830078 17.332429885864258 55.859012603759766 -63.92982482910156 23.740386962890625 50.951271057128906 -62.828521728515625 30.789403915405273 84.39010620117188 -25.506954193115234 0 83.15801239013672 -14.927749633789062 -8.640928268432617 69.98257446289062 -2.2947499752044678 32.206764221191406 62.16598892211914 -42.017574310302734 -16.190881729125977 63.360504150390625 -43.9906120300293 -11.038780212402344 59.216346740722656 -56.56028747558594 -21.42024040222168 55.61676025390625 -55.17829895019531 -28.13727378845215 60.45180892944336 -58.560791015625 -18.252124786376953 61.2516975402832 -51.70234680175781 -20.718412399291992 61.846717834472656 -58.622474670410156 -14.011392593383789 63.02730178833008 -56.72882080078125 -10.700368881225586 63.677249908447266 -53.387184143066406 -8.706235885620117 63.82918930053711 -50.10459899902344 -12.740058898925781 58.08511734008789 -57.343482971191406 -30.803794860839844 55.85901641845703 -63.92982482910156 -23.74037742614746 55.76527786254883 -52.412681579589844 -34.78651809692383 54.63184356689453 -51.5496826171875 -31.39470100402832 32.42090606689453 0.33330899477005005 -44.3653678894043 71.8048095703125 19.793739318847656 25.896596908569336 81.60636901855469 12.78604507446289 17.840051651000977 57.39749526977539 -37.88179397583008 25.07781982421875 55.90359115600586 -39.74739074707031 28.321704864501953 54.38705062866211 -43.090763092041016 31.235265731811523 57.397491455078125 -37.88177490234375 -25.077810287475586 60.34858703613281 -40.111656188964844 -20.679187774658203 54.38706588745117 -43.090763092041016 -31.23525619506836 55.90360641479492 -39.74739074707031 -28.32169532775879 57.397491455078125 -37.88179397583008 -25.077810287475586 29.590831756591797 -6.290339946746826 -44.46116256713867 32.45947265625 -25.202102661132812 38.69194793701172 53.91389083862305 -47.02821731567383 -32.200843811035156 55.61675262451172 -55.17829895019531 28.137283325195312 81.31193542480469 17.788612365722656 -3.6751270294189453 59.21635437011719 -56.56028747558594 21.420249938964844 24.099027633666992 23.627662658691406 20.60057830810547 11.951269149780273 15.454463958740234 14.569625854492188 32.459476470947266 -25.20221710205078 -38.69194030761719 59.71125030517578 -63.36872100830078 -17.332429885864258 64.44108581542969 -45.79488754272461 -5.051718235015869 81.49788665771484 17.02996063232422 10.458335876464844 76.8894271850586 18.057498931884766 16.678991317749023 21.262603759765625 24.596424102783203 0</float_array>
                    <technique_common>
                        <accessor count="312" source="#pointarray1" stride="3">
                            <param name="X" type="float"/>
                            <param name="Y" type="float"/>
                            <param name="Z" type="float"/>
                        </accessor>
                    </technique_common>
                </source>
                <source id="uvs1">
                    <float_array id="uvarray1" count="442">0.1195068359375 0.200927734375 0.12078857421875 0.27337646484375 0.10595703125 0.21856689453125 0.1063232421875 0.29290771484375 0.0888671875 0.3175048828125 0.0916748046875 0.368896484375 0.068115234375 0.343505859375 0.07550048828125 0.38494873046875 0.05023193359375 0.3662109375 0.05706787109375 0.4134521484375 0.0352783203125 0.37908935546875 0.0322265625 0.40252685546875 0.0081787109375 0.39813232421875 0.03033447265625 0.4283447265625 0.0076904296875 0.42572021484375 0.00848388671875 0.447998046875 0.01983642578125 0.44940185546875 0.04278564453125 0.44830322265625 0.2156982421875 0.00714111328125 0.2330322265625 0.04345703125 0.17242431640625 0.00701904296875 0.206787109375 0.06146240234375 0.15997314453125 0.00689697265625 0.192626953125 0.08740234375 0.17803955078125 0.094970703125 0.18310546875 0.14697265625 0.16412353515625 0.1435546875 0.1748046875 0.20489501953125 0.164306640625 0.19775390625 0.16778564453125 0.261474609375 0.1552734375 0.254638671875 0.157470703125 0.2960205078125 0.13995361328125 0.2554931640625 0.14031982421875 0.3101806640625 0.1285400390625 0.32025146484375 0.14276123046875 0.330322265625 0.1318359375 0.344970703125 0.00848388671875 0.38043212890625 0.0230712890625 0.29461669921875 0.03955078125 0.28607177734375 0.0391845703125 0.23956298828125 0.0638427734375 0.26666259765625 0.06378173828125 0.22698974609375 0.08709716796875 0.24169921875 0.08843994140625 0.20977783203125 0.10491943359375 0.18988037109375 0.120849609375 0.16851806640625 0.1396484375 0.00775146484375 0.1595458984375 0.09228515625 0.1444091796875 0.0914306640625 0.14678955078125 0.10992431640625 0.125244140625 0.13995361328125 0.13897705078125 0.14312744140625 0.1395263671875 0.1890869140625 0.11236572265625 0.34112548828125 0.12188720703125 0.35931396484375 0.1083984375 0.3653564453125 0.10467529296875 0.70281982421875 0.09515380859375 0.69781494140625 0.1195068359375 0.68280029296875 0.11474609375 0.66619873046875 0.13226318359375 0.64703369140625 0.12371826171875 0.6448974609375 0.13702392578125 0.6136474609375 0.12945556640625 0.6168212890625 0.13519287109375 0.57568359375 0.1282958984375 0.59100341796875 0.125244140625 0.5360107421875 0.12347412109375 0.56195068359375 0.1048583984375 0.51025390625 0.10955810546875 0.53265380859375 0.0958251953125 0.51629638671875 0.0889892578125 0.5323486328125 0.07440185546875 0.42120361328125 0.03900146484375 0.19189453125 0.063720703125 0.182861328125 0.040771484375 0.1446533203125 0.06475830078125 0.1417236328125 0.043701171875 0.135986328125 0.06488037109375 0.13189697265625 0.02386474609375 0.24273681640625 0.02374267578125 0.19384765625 0.00848388671875 0.2459716796875 0.00848388671875 0.19580078125 0.02490234375 0.145263671875 0.02337646484375 0.04718017578125 0.0318603515625 0.03204345703125 0.03424072265625 0.034423828125 0.047607421875 0.01129150390625 0.04736328125 0.01708984375 0.069580078125 0.0091552734375 0.06890869140625 0.01544189453125 0.08740234375 0.007568359375 0.08673095703125 0.013671875 0.10009765625 0.0069580078125 0.09967041015625 0.01202392578125 0.11572265625 0.0067138671875 0.09759521484375 0.03741455078125 0.12188720703125 0.04388427734375 0.09796142578125 0.05194091796875 0.08355712890625 0.0443115234375 0.08282470703125 0.0594482421875 0.06268310546875 0.0638427734375 0.06451416015625 0.07501220703125 0.045654296875 0.076904296875 0.046630859375 0.08551025390625 0.02703857421875 0.086669921875 0.0711669921875 0.6258544921875 0.05645751953125 0.61749267578125 0.06976318359375 0.63043212890625 0.048828125 0.61431884765625 0.04931640625 0.61944580078125 0.0313720703125 0.61102294921875 0.03143310546875 0.6156005859375 0.00518798828125 0.60797119140625 0.00506591796875 0.61151123046875 0.0313720703125 0.6156005859375 0.00506591796875 0.6156005859375 0.0308837890625 0.61920166015625 0.13238525390625 0.64703369140625 0.13714599609375 0.6136474609375 0.12384033203125 0.6448974609375 0.12957763671875 0.6168212890625 0.1181640625 0.61328125 0.12841796875 0.59100341796875 0.11492919921875 0.57720947265625 0.12353515625 0.56195068359375 0.10614013671875 0.55352783203125 0.10968017578125 0.53265380859375 0.089111328125 0.5323486328125 0.095947265625 0.51629638671875 0.1082763671875 0.1568603515625 0.0994873046875 0.381591796875 0.089111328125 0.16949462890625 0.0999755859375 0.39605712890625 0.0872802734375 0.410888671875 0.076416015625 0.1761474609375 0.02667236328125 0.136962890625 0.00848388671875 0.14581298828125 0.00848388671875 0.13720703125 0.06561279296875 0.04681396484375 0.044677734375 0.06488037109375 0.0260009765625 0.077880859375 0.00848388671875 0.08746337890625 0.031005859375 0.61920166015625 0.04901123046875 0.6239013671875 0.0687255859375 0.63397216796875 0.0941162109375 0.65850830078125 0.066650390625 0.67608642578125 0.09527587890625 0.69781494140625 0.08428955078125 0.07012939453125 0.10052490234375 0.07269287109375 0.117431640625 0.10198974609375 0.0665283203125 0.67608642578125 0.0452880859375 0.6680908203125 0.03143310546875 0.69073486328125 0.02593994140625 0.66265869140625 0.01397705078125 0.68402099609375 0.00396728515625 0.65911865234375 0.00360107421875 0.68267822265625 0.02587890625 0.66259765625 0.01397705078125 0.6839599609375 0.04522705078125 0.66790771484375 0.016845703125 0.01904296875 0.00848388671875 0.04779052734375 0.00848388671875 0.0537109375 0.02392578125 0.0533447265625 0.00848388671875 0.06561279296875 0.0250244140625 0.065673828125 0.00848388671875 0.0782470703125 0.07855224609375 0.12615966796875 0.0767822265625 0.1361083984375 0.09197998046875 0.12799072265625 0.10498046875 0.51025390625 0.1253662109375 0.5360107421875 0.13531494140625 0.57568359375 0.103759765625 0.60687255859375 0.10076904296875 0.63665771484375 0.11328125 0.642333984375 0.1148681640625 0.66619873046875 0.11962890625 0.68280029296875 0.1180419921875 0.61328125 0.11480712890625 0.57720947265625 0.10601806640625 0.55352783203125 0.085693359375 0.0782470703125 0.06634521484375 0.082763671875 0.095458984375 0.117919921875 0.1466064453125 0.134033203125 0.1513671875 0.186279296875 0.046142578125 0.04632568359375 0.04888916015625 0.70025634765625 0.072509765625 0.70526123046875 0.10479736328125 0.70281982421875 0.00848388671875 0.297607421875 0.08154296875 0.63861083984375 0.08978271484375 0.64764404296875 0.071044921875 0.6258544921875 0.0697021484375 0.63043212890625 0.05633544921875 0.61749267578125 0.04876708984375 0.61431884765625 0.03131103515625 0.61102294921875 0.04925537109375 0.61944580078125 0.04888916015625 0.6239013671875 0.068603515625 0.63397216796875 0.093994140625 0.65850830078125 0.0723876953125 0.70526123046875 0.1131591796875 0.642333984375 0.10064697265625 0.63665771484375 0.07745361328125 0.54669189453125 0.08941650390625 0.5589599609375 0.10015869140625 0.58099365234375 0.10009765625 0.58099365234375 0.08929443359375 0.5589599609375 0.07733154296875 0.54669189453125 0.1510009765625 0.3118896484375 0.1036376953125 0.60687255859375 0.08984375 0.64764404296875 0.0816650390625 0.63861083984375 0.0313720703125 0.69073486328125 0.04876708984375 0.70025634765625 0.2330322265625 0.0078125</float_array>
                    <technique_common>
                        <accessor count="221" source="#uvarray1" stride="2">
                            <param name="S" type="float"/>
                            <param name="T" type="float"/>
                        </accessor>
                    </technique_common>
                </source>
                <vertices id="vertices1">
                    <input semantic="POSITION" source="#points1"/>
                </vertices>
                <polylist count="516" material="Material1">
                    <input offset="0" semantic="VERTEX" source="#vertices1"/>
                    <input offset="1" semantic="TEXCOORD" source="#uvs1" set="0"/>
                    <vcount>3 3 3 3 3 3 3 3 3 3 3 3 3 3 3 3 3 3 3 3 3 3 3 3 3 3 3 3 3 3 3 3 3 3 3 3 3 3 3 3 3 3 3 3 3 3 3 3 3 3 3 3 3 3 3 3 3 3 3 3 3 3 3 3 3 3 3 3 3 3 3 3 3 3 3 3 3 3 3 3 3 3 3 3 3 3 3 3 3 3 3 3 3 3 3 3 3 3 3 3 3 3 3 3 3 3 3 3 3 3 3 3 3 3 3 3 3 3 3 3 3 3 3 3 3 3 3 3 3 3 3 3 3 3 3 3 3 3 3 3 3 3 3 3 3 3 3 3 3 3 3 3 3 3 3 3 3 3 3 3 3 3 3 3 3 3 3 3 3 3 3 3 3 3 3 3 3 3 3 3 3 3 3 3 3 3 3 3 3 3 3 3 3 3 3 3 3 3 3 3 3 3 3 3 3 3 3 3 3 3 3 3 3 3 3 3 3 3 3 3 3 3 3 3 3 3 3 3 3 3 3 3 3 3 3 3 3 3 3 3 3 3 3 3 3 3 3 3 3 3 3 3 3 3 3 3 3 3 3 3 3 3 3 3 3 3 3 3 3 3 3 3 3 3 3 3 3 3 3 3 3 3 3 3 3 3 3 3 3 3 3 3 3 3 3 3 3 3 3 3 3 3 3 3 3 3 3 3 3 3 3 3 3 3 3 3 3 3 3 3 3 3 3 3 3 3 3 3 3 3 3 3 3 3 3 3 3 3 3 3 3 3 3 3 3 3 3 3 3 3 3 3 3 3 3 3 3 3 3 3 3 3 3 3 3 3 3 3 3 3 3 3 3 3 3 3 3 3 3 3 3 3 3 3 3 3 3 3 3 3 3 3 3 3 3 3 3 3 3 3 3 3 3 3 3 3 3 3 3 3 3 3 3 3 3 3 3 3 3 3 3 3 3 3 3 3 3 3 3 3 3 3 3 3 3 3 3 3 3 3 3 3 3 3 3 3 3 3 3 3 3 3 3 3 3 3 3 3 3 3 3 3 3 3 3 3 3 3 3 3 3 3 3 3 3 3 3 3 3 3 3 3 3 3 3 3 3 3 3 3 3 3 3 3 3 3 3 3 3 3 3 3 3 3 3 3 3 3 3 3 3 3 3 3 3 3</vcount>
                    <p>2 2 1 1 0 0 3 3 1 1 2 2 4 4 3 3 2 2 5 5 3 3 4 4 6 6 5 5 4 4 7 7 5 5 6 6 8 8 7 7 6 6 9 9 7 7 8 8 10 10 9 9 8 8 11 11 9 9 10 10 12 12 11 11 10 10 13 13 11 11 12 12 14 14 13 13 12 12 15 15 13 13 14 14 16 13 15 15 14 14 17 16 15 15 16 13 18 17 17 16 16 13 21 20 20 19 19 18 22 21 20 19 21 20 23 22 22 21 21 20 24 23 22 21 23 22 25 24 24 23 23 22 26 25 24 23 25 24 27 26 26 25 25 24 28 27 26 25 27 26 29 28 28 27 27 26 30 29 28 27 29 28 31 30 30 29 29 28 32 31 30 29 31 30 33 32 32 31 31 30 34 33 32 31 33 32 35 34 34 33 33 32 36 35 34 33 35 34 37 36 36 35 35 34 39 11 38 9 18 17 40 10 38 9 39 11 12 12 40 10 39 11 41 37 40 10 12 12 10 10 41 37 12 12 42 38 41 37 10 10 43 39 42 38 10 10 44 40 42 38 43 39 45 41 44 40 43 39 46 42 44 40 45 41 47 43 46 42 45 41 48 44 46 42 47 43 2 2 48 44 47 43 49 45 48 44 2 2 0 0 49 45 2 2 50 46 49 45 0 0 53 24 52 22 51 23 54 47 52 22 53 24 55 48 54 47 53 24 56 49 54 47 55 48 57 50 56 49 55 48 58 51 56 49 57 50 59 52 58 51 57 50 60 46 58 51 59 52 61 53 60 46 59 52 62 0 60 46 61 53 63 32 62 0 61 53 64 1 62 0 63 32 65 34 64 1 63 32 66 54 64 1 65 34 67 55 66 54 65 34 68 56 66 54 67 55 69 47 25 24 23 22 70 48 25 24 69 47 71 49 70 48 69 47 72 50 70 48 71 49 73 51 72 50 71 49 74 52 72 50 73 51 50 46 74 52 73 51 75 53 74 52 50 46 0 0 75 53 50 46 33 32 75 53 0 0 1 1 33 32 0 0 35 34 33 32 1 1 76 54 35 34 1 1 77 55 35 34 76 54 78 56 77 55 76 54 81 59 80 58 79 57 82 60 80 58 81 59 83 61 82 60 81 59 84 62 82 60 83 61 85 63 84 62 83 61 86 64 84 62 85 63 87 65 86 64 85 63 88 66 86 64 87 65 89 67 88 66 87 65 90 68 88 66 89 67 91 69 90 68 89 67 92 70 90 68 91 69 93 71 92 70 91 69 94 72 92 70 93 71 38 9 95 73 18 17 96 7 95 73 38 9 97 8 96 7 38 9 98 6 96 7 97 8 99 39 98 6 97 8 100 41 98 6 99 39 101 40 100 41 99 39 102 42 100 41 101 40 103 74 102 42 101 40 104 75 102 42 103 74 105 76 104 75 103 74 106 77 104 75 105 76 107 78 106 77 105 76 108 79 106 77 107 78 40 10 97 8 38 9 99 39 97 8 40 10 109 38 99 39 40 10 101 40 99 39 109 38 110 80 101 40 109 38 111 81 101 40 110 80 112 82 111 81 110 80 113 83 111 81 112 82 114 81 113 83 112 82 115 84 113 83 114 81 116 74 115 84 114 81 117 76 115 84 116 74 118 75 117 76 116 74 119 25 53 24 51 23 120 26 53 24 119 25 121 27 120 26 119 25 122 28 120 26 121 27 123 29 122 28 121 27 124 30 122 28 123 29 125 31 124 30 123 29 63 32 124 30 125 31 126 33 63 32 125 31 65 34 63 32 126 33 127 35 65 34 126 33 128 36 65 34 127 35 131 87 130 86 129 85 132 88 130 86 131 87 133 89 132 88 131 87 134 90 132 88 133 89 135 91 134 90 133 89 136 92 134 90 135 91 137 93 136 92 135 91 138 94 136 92 137 93 139 95 138 94 137 93 140 96 138 94 139 95 141 97 140 96 139 95 140 96 71 49 69 47 142 98 71 49 140 96 141 97 142 98 140 96 143 99 142 98 141 97 144 100 143 99 141 97 145 101 143 99 144 100 146 102 145 101 144 100 147 103 145 101 146 102 148 104 147 103 146 102 149 105 147 103 148 104 150 106 149 105 148 104 153 109 152 108 151 107 154 110 152 108 153 109 155 111 154 110 153 109 156 112 154 110 155 111 157 113 156 112 155 111 158 114 156 112 157 113 159 115 158 114 157 113 160 116 158 114 159 115 161 117 160 116 159 115 162 118 160 116 161 117 165 121 164 120 163 119 166 122 164 120 165 121 167 123 166 122 165 121 168 124 166 122 167 123 169 125 168 124 167 123 170 126 168 124 169 125 171 127 170 126 169 125 172 128 170 126 171 127 173 129 172 128 171 127 174 130 172 128 173 129 60 46 175 131 58 51 176 45 175 131 60 46 62 0 176 45 60 46 177 2 176 45 62 0 64 1 177 2 62 0 178 3 177 2 64 1 66 54 178 3 64 1 179 5 178 3 66 54 68 56 179 5 66 54 173 132 179 5 68 56 176 45 180 133 175 131 181 44 180 133 176 45 177 2 181 44 176 45 182 43 181 44 177 2 183 4 182 43 177 2 98 6 182 43 183 4 179 5 98 6 183 4 96 7 98 6 179 5 184 134 96 7 179 5 185 135 96 7 184 134 186 136 46 42 48 44 118 75 46 42 186 136 187 77 118 75 186 136 117 76 118 75 187 77 149 78 117 76 187 77 115 84 117 76 149 78 150 137 115 84 149 78 188 138 115 84 150 137 189 139 188 138 150 137 190 137 188 138 189 139 193 97 192 94 191 96 194 92 192 94 193 97 195 100 194 92 193 97 196 140 194 92 195 100 197 102 196 140 195 100 198 141 196 140 197 102 199 104 198 141 197 102 200 142 198 141 199 104 190 106 200 142 199 104 137 93 141 97 139 95 144 100 141 97 137 93 201 140 144 100 137 93 146 102 144 100 201 140 202 141 146 102 201 140 148 104 146 102 202 141 203 142 148 104 202 141 150 106 148 104 203 142 189 143 150 106 203 142 157 113 161 117 159 115 204 144 161 117 157 113 155 111 204 144 157 113 205 145 204 144 155 111 153 109 205 145 155 111 206 146 205 145 153 109 207 147 206 146 153 109 208 148 206 146 207 147 209 149 208 148 207 147 210 150 145 101 147 103 143 99 145 101 210 150 211 151 143 99 210 150 142 98 143 99 211 151 212 152 142 98 211 151 71 49 142 98 212 152 213 131 71 49 212 152 73 51 71 49 213 131 50 46 73 51 213 131 216 154 215 153 214 146 217 155 215 153 216 154 218 156 217 155 216 154 219 157 217 155 218 156 220 158 219 157 218 156 221 159 219 157 220 158 222 160 221 159 220 158 223 161 221 159 222 160 224 162 223 161 222 160 227 85 226 164 225 163 228 165 226 164 227 85 229 166 228 165 227 85 230 167 228 165 229 166 231 168 230 167 229 166 232 169 230 167 231 168 200 142 232 169 231 168 189 143 232 169 200 142 190 106 189 143 200 142 233 170 106 77 108 79 234 171 106 77 233 170 235 172 234 171 233 170 180 133 234 171 235 172 236 152 180 133 235 172 175 131 180 133 236 152 56 49 175 131 236 152 58 51 175 131 56 49 237 145 216 154 214 146 218 156 216 154 237 145 162 118 218 156 237 145 220 158 218 156 162 118 161 117 220 158 162 118 222 160 220 158 161 117 204 118 222 160 161 117 224 162 222 160 204 118 238 173 172 128 174 130 170 126 172 128 238 173 239 174 170 126 238 173 168 124 170 126 239 174 240 175 168 124 239 174 166 122 168 124 240 175 164 120 166 122 240 175 199 104 107 105 190 106 241 103 107 105 199 104 197 102 241 103 199 104 242 101 241 103 197 102 195 100 242 101 197 102 243 99 242 101 195 100 193 97 243 99 195 100 167 123 245 177 244 176 246 178 245 177 167 123 165 121 246 178 167 123 247 179 246 178 165 121 163 119 247 179 165 121 248 180 247 179 163 119 88 66 249 181 86 64 250 182 249 181 88 66 90 68 250 182 88 66 251 183 250 182 90 68 92 70 251 183 90 68 94 72 251 183 92 70 252 98 193 97 191 96 243 99 193 97 252 98 253 151 243 99 252 98 254 150 243 99 253 151 233 184 254 150 253 151 108 185 254 150 233 184 213 131 49 45 50 46 255 133 49 45 213 131 212 152 255 133 213 131 256 172 255 133 212 152 211 186 256 172 212 152 257 170 256 172 211 186 255 133 48 44 49 45 186 136 48 44 255 133 258 171 186 136 255 133 187 77 186 136 258 171 257 170 187 77 258 171 259 79 187 77 257 170 120 26 55 48 53 24 260 187 55 48 120 26 261 188 260 187 120 26 59 52 260 187 261 188 61 53 59 52 261 188 111 81 103 74 101 40 262 84 103 74 111 81 113 83 262 84 111 81 188 138 262 84 113 83 115 84 188 138 113 83 263 189 202 141 201 140 264 168 202 141 263 189 265 166 264 168 263 189 230 167 264 168 265 166 228 165 230 167 265 166 208 148 267 190 266 155 268 191 267 190 208 148 209 149 268 191 208 148 269 192 268 191 209 149 248 180 269 192 209 149 42 38 112 82 270 193 271 80 112 82 42 38 44 40 271 80 42 38 114 81 271 80 44 40 116 74 114 81 44 40 102 42 181 44 182 43 272 136 181 44 102 42 104 75 272 136 102 42 106 77 272 136 104 75 9 9 273 73 7 7 274 17 273 73 9 9 11 11 274 17 9 9 13 13 274 17 11 11 109 38 112 82 110 80 270 193 112 82 109 38 41 37 270 193 109 38 42 38 270 193 41 37 277 196 276 195 275 194 278 197 276 195 277 196 279 198 278 197 277 196 280 199 278 197 279 198 252 98 236 152 253 151 56 49 236 152 252 98 191 96 56 49 252 98 54 47 56 49 191 96 47 43 4 4 2 2 6 6 4 4 47 43 45 41 6 6 47 43 43 39 6 6 45 41 259 185 147 103 149 105 210 150 147 103 259 185 257 184 210 150 259 185 211 151 210 150 257 184 282 201 280 199 281 200 278 197 280 199 282 201 237 202 278 197 282 201 214 203 278 197 237 202 215 153 283 204 214 203 80 58 283 204 215 153 284 205 80 58 215 153 79 57 80 58 284 205 209 149 247 179 248 180 246 178 247 179 209 149 207 147 246 178 209 149 245 177 246 178 207 147 160 116 281 200 158 114 282 201 281 200 160 116 162 118 282 201 160 116 237 202 282 201 162 118 249 181 84 62 86 64 285 206 84 62 249 181 286 207 285 206 249 181 283 204 285 206 286 207 135 91 201 140 137 93 263 189 201 140 135 91 133 89 263 189 135 91 131 87 263 189 133 89 70 48 27 26 25 24 287 187 27 26 70 48 72 50 287 187 70 48 74 52 287 187 72 50 254 150 242 101 243 99 241 103 242 101 254 150 108 185 241 103 254 150 107 105 241 103 108 185 196 140 288 90 194 92 289 189 288 90 196 140 198 141 289 189 196 140 229 166 289 189 198 141 264 168 203 142 202 141 232 169 203 142 264 168 230 167 232 169 264 168 171 127 290 208 173 129 291 209 290 208 171 127 292 210 291 209 171 127 224 162 206 146 208 153 205 145 206 146 224 162 204 118 205 145 224 162 262 84 105 76 103 74 107 78 105 76 262 84 190 137 107 78 262 84 7 7 293 134 5 5 294 135 293 134 7 7 273 73 294 135 7 7 285 206 82 60 84 62 80 58 82 60 285 206 283 204 80 58 285 206 5 5 78 56 76 54 94 132 78 56 5 5 293 134 94 132 5 5 251 183 296 212 295 211 297 213 296 212 251 183 94 72 297 213 251 183 298 188 33 32 31 30 75 53 33 32 298 188 74 52 75 53 298 188 16 13 39 11 18 17 12 12 39 11 16 13 14 14 12 12 16 13 272 136 180 133 181 44 234 171 180 133 272 136 106 77 234 171 272 136 283 204 278 197 214 203 276 195 278 197 283 204 286 207 276 195 283 204 131 87 265 166 263 189 129 85 265 166 131 87 261 188 63 32 61 53 124 30 63 32 261 188 126 33 299 214 127 35 125 31 299 214 126 33 122 28 261 188 120 26 124 30 261 188 122 28 249 181 300 215 286 207 250 182 300 215 249 181 250 182 295 211 300 215 251 183 295 211 250 182 301 216 207 147 153 109 245 177 207 147 301 216 29 28 298 188 31 30 27 26 298 188 29 28 287 187 298 188 27 26 74 52 298 188 287 187 226 164 129 85 302 163 228 165 129 85 226 164 301 216 151 107 303 217 153 109 151 107 301 216 244 176 169 125 167 123 292 210 169 125 244 176 305 21 52 22 304 20 51 23 52 22 305 21 34 33 306 214 32 31 36 35 306 214 34 33 266 155 224 162 208 153 223 161 224 162 266 155 20 19 304 20 19 18 305 21 304 20 20 19 307 219 215 153 217 218 284 205 215 153 307 219 256 172 258 171 255 133 257 170 258 171 256 172 3 3 76 54 1 1 5 5 76 54 3 3 13 13 308 16 274 17 15 15 308 16 13 13 8 8 43 39 10 10 6 6 43 39 8 8 100 41 182 43 98 6 102 42 182 43 100 41 183 4 178 3 179 5 177 2 178 3 183 4 235 172 253 186 236 152 233 170 253 186 235 172 310 88 289 189 309 86 288 90 289 189 310 88 57 50 260 187 59 52 55 48 260 187 57 50 231 168 198 141 200 142 229 166 198 141 231 168 227 85 289 189 229 166 309 86 289 189 227 85 116 74 46 42 118 75 44 40 46 42 116 74 35 34 77 55 37 36 190 137 262 84 188 138 109 38 40 10 41 37 19 18 20 19 311 220 203 142 232 169 189 143 179 5 173 132 184 134 19 18 311 220 20 19 114 81 112 82 271 80 129 85 228 165 265 166 292 210 171 127 169 125 96 7 185 135 95 73 65 34 128 36 67 55 149 78 187 77 259 79</p>
                </polylist>
            </mesh>
        </geometry>
        <geometry id="mesh2">
            <mesh>
                <source id="points2">
                    <float_array id="pointarray2" count="123">59.06643295288086 -45.92124938964844 21.02980613708496 60.34859085083008 -40.11167526245117 20.6791934967041 60.24704360961914 -44.027557373046875 17.218780517578125 62.1660041809082 -42.017574310302734 16.190881729125977 61.641937255859375 -44.08927917480469 13.47804069519043 63.36051559448242 -43.9906120300293 11.038780212402344 62.87739181518555 -46.089744567871094 10.309925079345703 64.44109344482422 -45.79488754272461 5.051718235015869 63.62238311767578 -49.49300765991211 8.56332778930664 64.6952896118164 -48.691864013671875 0 63.67723846435547 -53.387184143066406 8.706235885620117 64.91468048095703 -52.6873779296875 0 57.397491455078125 -37.88179397583008 -25.077810287475586 55.90360641479492 -39.74739074707031 -28.32169532775879 60.34860610961914 -40.11167526245117 -20.679187774658203 54.38706588745117 -43.090763092041016 -31.23525619506836 59.06644821166992 -45.92124938964844 -21.02980613708496 53.91389083862305 -47.02821731567383 -32.200843811035156 58.41651916503906 -49.2628288269043 -23.02393913269043 54.63184356689453 -51.5496826171875 -31.39470100402832 55.61676025390625 -55.17829895019531 -28.13727378845215 55.61675262451172 -55.17829895019531 28.137283325195312 54.631832122802734 -51.5496826171875 31.394710540771484 58.41650390625 -49.26280975341797 23.02393913269043 53.913883209228516 -47.02821731567383 32.20085525512695 54.38705062866211 -43.090763092041016 31.235265731811523 64.5848617553711 -46.44155502319336 0 64.44108581542969 -45.79488754272461 -5.051718235015869 63.62238311767578 -49.493045806884766 -8.563318252563477 62.877410888671875 -46.089744567871094 -10.309925079345703 57.39749526977539 -37.88179397583008 25.07781982421875 55.90359115600586 -39.74739074707031 28.321704864501953 59.21635437011719 -56.56028747558594 21.420249938964844 58.47138214111328 -53.15704345703125 23.166852951049805 63.677249908447266 -53.387184143066406 -8.706235885620117 59.216346740722656 -56.56028747558594 -21.42024040222168 58.47138214111328 -53.15704345703125 -23.166847229003906 63.360504150390625 -43.9906120300293 -11.038780212402344 61.641944885253906 -44.08924102783203 -13.47804069519043 62.16599655151367 -42.017574310302734 -16.190881729125977 60.24704360961914 -44.0275764465332 -17.21877098083496</float_array>
                    <technique_common>
                        <accessor count="41" source="#pointarray2" stride="3">
                            <param name="X" type="float"/>
                            <param name="Y" type="float"/>
                            <param name="Z" type="float"/>
                        </accessor>
                    </technique_common>
                </source>
                <source id="uvs2">
                    <float_array id="uvarray2" count="82">0.1414794921875 0.4951171875 0.143310546875 0.4287109375 0.11749267578125 0.47698974609375 0.1109619140625 0.44989013671875 0.0938720703125 0.47760009765625 0.0784912109375 0.46429443359375 0.07391357421875 0.49676513671875 0.04071044921875 0.47393798828125 0.0628662109375 0.529296875 0.00885009765625 0.51715087890625 0.06378173828125 0.56658935546875 0.00885009765625 0.555419921875 0.1668701171875 0.41363525390625 0.18731689453125 0.4315185546875 0.14312744140625 0.4287109375 0.2056884765625 0.4635009765625 0.14129638671875 0.4951171875 0.2117919921875 0.501220703125 0.1588134765625 0.527099609375 0.20672607421875 0.54449462890625 0.18902587890625 0.5740966796875 0.189208984375 0.5740966796875 0.20684814453125 0.54449462890625 0.15899658203125 0.527099609375 0.21197509765625 0.501220703125 0.20587158203125 0.4635009765625 0.00885009765625 0.49859619140625 0.04052734375 0.47393798828125 0.06268310546875 0.529296875 0.07373046875 0.49676513671875 0.16705322265625 0.41363525390625 0.1875 0.4315185546875 0.15899658203125 0.58551025390625 0.16229248046875 0.56439208984375 0.0635986328125 0.56658935546875 0.1588134765625 0.58551025390625 0.162109375 0.56439208984375 0.07830810546875 0.46429443359375 0.09368896484375 0.47760009765625 0.11077880859375 0.44989013671875 0.1173095703125 0.47698974609375</float_array>
                    <technique_common>
                        <accessor count="41" source="#uvarray2" stride="2">
                            <param name="S" type="float"/>
                            <param name="T" type="float"/>
                        </accessor>
                    </technique_common>
                </source>
                <vertices id="vertices2">
                    <input semantic="POSITION" source="#points2"/>
                </vertices>
                <polylist count="40" material="Material1">
                    <input offset="0" semantic="VERTEX" source="#vertices2"/>
                    <input offset="1" semantic="TEXCOORD" source="#uvs2" set="0"/>
                    <vcount>3 3 3 3 3 3 3 3 3 3 3 3 3 3 3 3 3 3 3 3 3 3 3 3 3 3 3 3 3 3 3 3 3 3 3 3 3 3 3 3</vcount>
                    <p>2 2 1 1 0 0 3 3 1 1 2 2 4 4 3 3 2 2 5 5 3 3 4 4 6 6 5 5 4 4 7 7 5 5 6 6 8 8 7 7 6 6 9 9 7 7 8 8 10 10 9 9 8 8 11 11 9 9 10 10 14 14 13 13 12 12 15 15 13 13 14 14 16 16 15 15 14 14 17 17 15 15 16 16 18 18 17 17 16 16 19 19 17 17 18 18 20 20 19 19 18 18 23 23 22 22 21 21 24 24 22 22 23 23 0 0 24 24 23 23 25 25 24 24 0 0 1 1 25 25 0 0 9 9 26 26 7 7 27 27 26 26 9 9 28 28 27 27 9 9 29 29 27 27 28 28 31 31 1 1 30 30 25 25 1 1 31 31 33 33 21 21 32 32 23 23 21 21 33 33 34 34 9 9 11 11 28 28 9 9 34 34 20 20 36 36 35 35 18 18 36 36 20 20 29 29 37 37 27 27 38 38 37 37 29 29 38 38 39 39 37 37 40 40 39 39 38 38 40 40 14 14 39 39 16 16 14 14 40 40</p>
                </polylist>
            </mesh>
        </geometry>
    </library_geometries>
    <library_visual_scenes>
        <visual_scene id="VisualSceneNode">
            <node id="node0" name="m0" type="NODE">
                <instance_geometry url="#mesh0">
                    <bind_material>
                        <technique_common>
                            <instance_material symbol="Material1" target="#mat0">
                                <bind_vertex_input semantic="UVSET0" input_semantic="TEXCOORD" input_set="0"></bind_vertex_input>
                            </instance_material>
                        </technique_common>
                    </bind_material>
                </instance_geometry>
            </node>
            <node id="node1" name="m1" type="NODE">
                <instance_geometry url="#mesh1">
                    <bind_material>
                        <technique_common>
                            <instance_material symbol="Material1" target="#mat2">
                                <bind_vertex_input semantic="UVSET0" input_semantic="TEXCOORD" input_set="0"></bind_vertex_input>
                            </instance_material>
                        </technique_common>
                    </bind_material>
                </instance_geometry>
            </node>
            <node id="node2" name="m2" type="NODE">
                <instance_geometry url="#mesh2">
                    <bind_material>
                        <technique_common>
                            <instance_material symbol="Material1" target="#mat1">
                                <bind_vertex_input semantic="UVSET0" input_semantic="TEXCOORD" input_set="0"></bind_vertex_input>
                            </instance_material>
                        </technique_common>
                    </bind_material>
                </instance_geometry>
            </node>
        </visual_scene>
    </library_visual_scenes>
    <scene>
        <instance_visual_scene url="#VisualSceneNode"></instance_visual_scene>
    </scene>
</COLLADA>
