<?xml version="1.0"?>
<COLLADA xmlns="http://www.collada.org/2005/11/COLLADASchema" version="1.4.1">
    <asset>
        <contributor>
            <authoring_tool>J3D Ripoff Exporter</authoring_tool>
        </contributor>
        <created>2024-08-19T02:26:03.516Z</created>
        <modified>2024-08-19T02:26:03.516Z</modified>
		<unit meter="0.01" name="centimeter" ></unit>
        <up_axis>Y_UP</up_axis>
    </asset>
    <library_images>
        <image id="tex0">
            <init_from>konfu_body.png</init_from>
        </image>
        <image id="tex1">
            <init_from>konfu_eye.png</init_from>
        </image>
    </library_images>
    <library_effects>
        <effect id="effect0">
            <profile_COMMON>
                <newparam sid="surface0">
                    <surface type="2D">
                        <init_from>tex1</init_from>
                    </surface>
                </newparam>
                <newparam sid="sampler0">
                    <sampler2D>
                        <source>surface0</source>
                    </sampler2D>
                </newparam>
                <technique sid="COMMON">
                    <blinn>
                        <diffuse>
                            <texture texture="sampler0" texcoord="UVSET0"></texture>
                        </diffuse>
                    </blinn>
                </technique>
            </profile_COMMON>
        </effect>
        <effect id="effect1">
            <profile_COMMON>
                <newparam sid="surface1">
                    <surface type="2D">
                        <init_from>tex0</init_from>
                    </surface>
                </newparam>
                <newparam sid="sampler1">
                    <sampler2D>
                        <source>surface1</source>
                    </sampler2D>
                </newparam>
                <technique sid="COMMON">
                    <blinn>
                        <diffuse>
                            <texture texture="sampler1" texcoord="UVSET0"></texture>
                        </diffuse>
                    </blinn>
                </technique>
            </profile_COMMON>
        </effect>
        <effect id="effect2">
            <profile_COMMON>
                <newparam sid="surface2">
                    <surface type="2D">
                        <init_from>tex0</init_from>
                    </surface>
                </newparam>
                <newparam sid="sampler2">
                    <sampler2D>
                        <source>surface2</source>
                    </sampler2D>
                </newparam>
                <technique sid="COMMON">
                    <blinn>
                        <diffuse>
                            <texture texture="sampler2" texcoord="UVSET0"></texture>
                        </diffuse>
                    </blinn>
                </technique>
            </profile_COMMON>
        </effect>
    </library_effects>
    <library_materials>
        <material id="mat0" name="Eye">
            <instance_effect url="#effect0"></instance_effect>
        </material>
        <material id="mat1" name="Skin_etc">
            <instance_effect url="#effect1"></instance_effect>
        </material>
        <material id="mat2" name="Skin_spc">
            <instance_effect url="#effect2"></instance_effect>
        </material>
    </library_materials>
    <library_geometries>
        <geometry id="mesh0">
            <mesh>
                <source id="points0">
                    <float_array id="pointarray0" count="156">60.46875 -55.6640625 18.41015625 61.95703125 -54.27734375 16.2734375 61.81640625 -55.90625 15.27734375 62.78515625 -53.7265625 14.140625 62.59765625 -54.84375 11.859375 63.4921875 -52.10546875 12.56640625 62.9296875 -52.203125 9.96875 63.890625 -49.859375 11.97265625 63.0625 -48.828125 9.32421875 63.8671875 -47.58203125 12.51953125 63.03125 -45.44921875 10.43359375 63.4296875 -45.88671875 14.0625 62.5859375 -43.30078125 13.21875 62.69921875 -45.2265625 16.18359375 61.5 -42.74609375 16.6875 61.890625 -45.6875 18.75 60.40625 -43.84765625 19.734375 61.18359375 -47.3046875 20.32421875 59.1875 -45.87890625 21.734375 60.7890625 -49.5546875 20.91796875 58.80859375 -48.5390625 22.44921875 60.80859375 -51.83203125 20.37109375 58.84765625 -51.6328125 22.13671875 61.24609375 -53.52734375 18.828125 59.4609375 -54.15625 20.65234375 60.46875 -55.6640625 -18.41015625 61.95703125 -54.27734375 -16.2734375 59.4609375 -54.15625 -20.65234375 61.24609375 -53.52734375 -18.828125 58.84765625 -51.6328125 -22.13671875 60.80859375 -51.83203125 -20.37109375 58.80859375 -48.5390625 -22.44921875 60.7890625 -49.5546875 -20.91796875 59.1875 -45.87890625 -21.734375 61.18359375 -47.3046875 -20.32421875 60.40625 -43.84765625 -19.734375 61.890625 -45.6875 -18.75 61.5 -42.74609375 -16.6875 62.69921875 -45.2265625 -16.18359375 62.5859375 -43.30078125 -13.21875 63.4296875 -45.88671875 -14.0625 63.03125 -45.44921875 -10.43359375 63.8671875 -47.58203125 -12.51953125 63.0625 -48.828125 -9.32421875 63.890625 -49.859375 -11.97265625 61.56640625 -55.953125 -15.27734375 62.78515625 -53.7265625 -14.140625 63.23046875 -49.828125 -16.5390625 63.4921875 -52.10546875 -12.56640625 62.9296875 -52.203125 -9.96875 63.23046875 -49.828125 16.5390625 62.59765625 -54.84375 -11.859375</float_array>
                    <technique_common>
                        <accessor count="52" source="#pointarray0" stride="3">
                            <param name="X" type="float"/>
                            <param name="Y" type="float"/>
                            <param name="Z" type="float"/>
                        </accessor>
                    </technique_common>
                </source>
                <source id="uvs0">
                    <float_array id="uvarray0" count="52">-0.4837646484375 0.87237548828125 -0.559326171875 0.74383544921875 -0.5931396484375 0.87396240234375 -0.67205810546875 0.67962646484375 -0.763916015625 0.77667236328125 -0.73992919921875 0.56634521484375 -0.86676025390625 0.60504150390625 -0.74481201171875 0.434326171875 -0.8741455078125 0.40496826171875 -0.68536376953125 0.3189697265625 -0.7840576171875 0.23016357421875 -0.5775146484375 0.2510986328125 -0.62066650390625 0.12738037109375 -0.45013427734375 0.2490234375 -0.42767333984375 0.12420654296875 -0.3116455078125 0.313232421875 -0.23114013671875 0.22149658203125 -0.2437744140625 0.426513671875 -0.12823486328125 0.39312744140625 -0.2388916015625 0.55853271484375 -0.12091064453125 0.59320068359375 -0.29833984375 0.6739501953125 -0.21099853515625 0.76800537109375 -0.40618896484375 0.74176025390625 -0.3743896484375 0.87078857421875 -0.48590087890625 0.49505615234375</float_array>
                    <technique_common>
                        <accessor count="26" source="#uvarray0" stride="2">
                            <param name="S" type="float"/>
                            <param name="T" type="float"/>
                        </accessor>
                    </technique_common>
                </source>
                <vertices id="vertices0">
                    <input semantic="POSITION" source="#points0"/>
                </vertices>
                <polylist count="74" material="Material1">
                    <input offset="0" semantic="VERTEX" source="#vertices0"/>
                    <input offset="1" semantic="TEXCOORD" source="#uvs0" set="0"/>
                    <vcount>3 3 3 3 3 3 3 3 3 3 3 3 3 3 3 3 3 3 3 3 3 3 3 3 3 3 3 3 3 3 3 3 3 3 3 3 3 3 3 3 3 3 3 3 3 3 3 3 3 3 3 3 3 3 3 3 3 3 3 3 3 3 3 3 3 3 3 3 3 3 3 3 3 3</vcount>
                    <p>2 2 1 1 0 0 3 3 1 1 2 2 4 4 3 3 2 2 5 5 3 3 4 4 6 6 5 5 4 4 7 7 5 5 6 6 8 8 7 7 6 6 9 9 7 7 8 8 10 10 9 9 8 8 11 11 9 9 10 10 12 12 11 11 10 10 13 13 11 11 12 12 14 14 13 13 12 12 15 15 13 13 14 14 16 16 15 15 14 14 17 17 15 15 16 16 18 18 17 17 16 16 19 19 17 17 18 18 20 20 19 19 18 18 21 21 19 19 20 20 22 22 21 21 20 20 23 23 21 21 22 22 24 24 23 23 22 22 1 1 23 23 24 24 0 0 1 1 24 24 27 24 26 1 25 0 28 23 26 1 27 24 29 22 28 23 27 24 30 21 28 23 29 22 31 20 30 21 29 22 32 19 30 21 31 20 33 18 32 19 31 20 34 17 32 19 33 18 35 16 34 17 33 18 36 15 34 17 35 16 37 14 36 15 35 16 38 13 36 15 37 14 39 12 38 13 37 14 40 11 38 13 39 12 41 10 40 11 39 12 42 9 40 11 41 10 43 8 42 9 41 10 44 7 42 9 43 8 26 1 45 2 25 0 46 3 45 2 26 1 47 25 46 3 26 1 48 5 46 3 47 25 44 7 48 5 47 25 49 6 48 5 44 7 43 8 49 6 44 7 47 25 42 9 44 7 40 11 42 9 47 25 38 13 40 11 47 25 47 25 36 15 38 13 34 17 36 15 47 25 32 19 34 17 47 25 47 25 30 21 32 19 28 23 30 21 47 25 26 1 28 23 47 25 50 25 23 23 1 1 21 21 23 23 50 25 19 19 21 21 50 25 50 25 17 17 19 19 15 15 17 17 50 25 13 13 15 15 50 25 50 25 11 11 13 13 9 9 11 11 50 25 7 7 9 9 50 25 50 25 5 5 7 7 3 3 5 5 50 25 1 1 3 3 50 25 46 3 51 4 45 2 48 5 51 4 46 3 51 4 48 5 49 6</p>
                </polylist>
            </mesh>
        </geometry>
        <geometry id="mesh1">
            <mesh>
                <source id="points1">
                    <float_array id="pointarray1" count="1086">38.88671875 20.58984375 -40.6796875 49.1484375 13.05078125 -43.34765625 52.72265625 20.74609375 -40.234375 55.078125 13.89453125 -41.6171875 60.6640625 17.1796875 -38.7734375 64.5546875 12.5625 -38.39453125 67.8671875 16.21484375 -34.01953125 71.74609375 11.99609375 -33.55859375 78.37890625 11.32421875 -26.81640625 80.9765625 6.25 -26.12109375 86.66796875 4.61328125 -16.92578125 83.0078125 1.2890625 -21.9453125 88.58203125 -0.40625 -13.72265625 91.50390625 -2.640625 -16.109375 96.00390625 -4.71484375 -8.75390625 95.07421875 -8.44140625 -8.9296875 97.078125 -10.03515625 -0.10546875 92.30078125 -12.62890625 -0.04296875 96.640625 -11.06640625 8.74609375 91.28125 -13.44921875 8.55078125 93.0625 -11.578125 17.49609375 88.48046875 -14.0390625 16.65234375 41.3828125 -1.5 -44.6953125 40.85546875 -9.58203125 -44.078125 50.94140625 -4.35546875 -43.40625 51.421875 -12.875 -41.96875 63.515625 -5.29296875 -38.92578125 57.6328125 -22.34375 -37.15234375 70.078125 -14.64453125 -33.72265625 64.97265625 -26.05078125 -31.90234375 75.265625 -20.03515625 -25.81640625 70.3515625 -29.421875 -25.36328125 80.9765625 -22.3671875 -16.2890625 76.0703125 -32.1484375 -16.61328125 79.4765625 -33.81640625 -8.39453125 68.91015625 -37.8828125 -17.02734375 73.24609375 -40.33203125 -8.0390625 63.359375 -43.640625 -11.03515625 69.02734375 -43.51171875 -7.140625 64.4375 -44.984375 -5.05078125 64.58203125 -45.54296875 0 21.26171875 25.11328125 0 12.7265625 19.7421875 0 24.09765625 23.625 -20.59765625 11.94921875 15.453125 -14.56640625 28.765625 21.40234375 -34.55859375 10.7578125 8.59765625 -24.80078125 23.40625 10.5078125 -39.11328125 11.03125 -0.37109375 -32.59375 20.88671875 0.14453125 -40.7890625 14.4296875 -9.08984375 -36.41796875 20.4609375 -7.671875 -41.359375 20.40625 -16.921875 -37.4609375 27.69140625 -16.5859375 -42.34765625 27.69140625 -22.8125 -39.33203125 38.0546875 -16.70703125 -42.5703125 39.14453125 -24.94921875 -38.2578125 45.859375 -26.46875 -36.7265625 38.15234375 -27.98046875 -36.8828125 44.44140625 -30.1875 -34.859375 81.6171875 -13.16796875 25.41796875 70.0234375 -11.56640625 32.51171875 86.0625 -10.81640625 26.35546875 74.0234375 -9.5859375 34.96875 73.625 -5.32421875 35.00390625 61.5078125 -5.91015625 39.23046875 59.421875 0.4296875 40.44921875 51.24609375 -7.94140625 41.96875 50.765625 0.203125 43.64453125 40.85546875 -9.58203125 44.078125 41.3828125 -1.5 44.6953125 29.58984375 -6.2890625 44.4609375 32.41796875 0.33203125 45.0078125 21.59765625 1.4453125 40.7890625 35.35546875 9.44921875 44.0703125 23.40625 9.46484375 39.11328125 38.88671875 20.58984375 39.5390625 28.765625 21.40234375 30.93359375 81.30859375 16.890625 3.671875 84.70703125 12.02734375 0 84.42578125 12.125 7.25390625 88.73046875 8.24609375 0 87.77734375 8.5 8.01953125 91.171875 3.546875 0 89.94140625 3.828125 8.28515625 91.66796875 -3.203125 7.63671875 87.27734375 4.44140625 18.078125 89.29296875 -3.3046875 14.6640625 82.57421875 -2.59765625 25.77734375 93.984375 -7.13671875 17.5 86.67578125 -6.30859375 26.5546875 73.87890625 -8.01953125 -27.92578125 72.96875 -9.9453125 -31.31640625 80.98828125 -11.91796875 -22.57421875 79.3125 -15.6640625 -24.57421875 85.90625 -14.3671875 -15.171875 85.234375 -18.2734375 -15.3984375 87.73046875 -19.27734375 -7.75 85.4140625 -23.4453125 -0.06640625 80.67578125 -34.72265625 0 75.15625 -40.67578125 0 79.234375 -33.859375 8.39453125 73.24609375 -40.33203125 8.0390625 69.34375 -38.17578125 17.02734375 63.359375 -43.640625 11.03515625 62.1640625 -42.015625 16.1875 80 -1.1484375 -16.63671875 78.6484375 -13.4921875 -17.35546875 86.9296875 -2.4140625 -8.68359375 84.53125 -13.80078125 -8.3046875 85.91015625 -14.06640625 0.8828125 85.22265625 -15.70703125 0.8359375 85.24609375 -14.41015625 10.28125 84.546875 -15.94921875 9.87890625 80.00390625 -15.3671875 19.1171875 79.671875 -16.765625 18.078125 77.10546875 -15.25390625 17.328125 77.4140625 -17.98828125 16.8359375 82.296875 -16.37109375 8.98046875 97.5234375 -6.9765625 8.53515625 98.171875 -6.23046875 -0.125 92.37890625 -2.7578125 -0.0390625 90.8984375 -1.5 -7.484375 89.94140625 3.828125 -8.28515625 87.77734375 8.5 -8.01953125 84.546875 9.96484375 -17.46484375 82.35546875 12.78515625 -17.83984375 75.28125 14.49609375 -26.828125 71.8046875 19.79296875 -25.89453125 67.125 20.703125 -32.6171875 36.5546875 9.44921875 -43.9765625 32.41796875 0.33203125 -44.2734375 29.58984375 -6.2890625 -43.75 49.8671875 -19.40625 -40.35546875 53.91796875 -29.61328125 -34.0625 61.33203125 -33.08984375 -28.9765625 55.24609375 -33.2578125 -30.67578125 58.55078125 -35.70703125 -28.2265625 43.43359375 -53.12109375 39.96484375 42.40234375 -48.05078125 41.25390625 50.7109375 -52.80078125 38.23046875 49.58984375 -48.53125 39.78515625 54.89453125 -48 36.10546875 49.91796875 -44.61328125 39.4765625 55.37109375 -42.51953125 35.23046875 51.140625 -40.1953125 38.15625 56.33203125 -38.921875 32.84765625 53.26953125 -35.75390625 34.39453125 58.2109375 -35.2734375 28.2265625 55.24609375 -33.26171875 30.67578125 84.49609375 -19.0078125 17.2265625 80.296875 -22.43359375 16.56640625 76.703125 -17.23046875 27.5859375 73.57421875 -20.2265625 25.984375 67.37890625 -13.609375 34.37890625 64.97265625 -26.5234375 31.90234375 57.6328125 -22.34375 37.8828125 61.33203125 -33.08984375 28.9765625 53.91796875 -29.61328125 34.0625 55.24609375 -33.2578125 30.67578125 49.36328125 -32.34375 32.53125 45.13671875 -36.25390625 -38.05859375 42.93359375 -42.28515625 -40.75390625 49.91796875 -44.61328125 -39.4765625 49.58984375 -48.53125 -39.78515625 54.89453125 -48 -36.10546875 50.7109375 -52.80078125 -38.23046875 55.76171875 -52.41015625 -34.78515625 52.35546875 -56.03515625 -35.80078125 55.98046875 -60.8359375 -30.4921875 45.953125 -58.55859375 -36.5 90.828125 -6.30078125 -16.07421875 85.2734375 -0.546875 -23.0625 84.3671875 -3.63671875 -23.30078125 75.99609375 1.4375 -30.2890625 76.14453125 -0.9453125 -29.7578125 71.82421875 -0.35546875 -33.37109375 76.27734375 -4.01171875 -25.91015625 72.62890625 -3.3984375 -28.33203125 87.58984375 -19.58203125 9.01171875 85.18359375 -15.140625 17.78125 77.4140625 -13.578125 26.94140625 68.578125 -11.296875 33.70703125 64.20703125 -57.48046875 21.55078125 60.61328125 -55.27734375 20.71484375 66.8828125 -55.9765625 13.1796875 62.98046875 -54.21875 12.73828125 68.0390625 -55.171875 6.3515625 63.8125 -53.7421875 7.15625 68.5546875 -54.6796875 0 64.25 -53.29296875 0 63.8125 -53.7421875 -7.15625 49.8671875 -19.40625 40.35546875 38.0546875 -15.40625 42.5703125 45.859375 -26.46875 36.7265625 39.14453125 -24.94921875 38.2578125 38.15234375 -27.98046875 36.8828125 32.45703125 -25.19921875 38.69140625 45.13671875 -36.25390625 38.05859375 42.93359375 -42.28515625 40.75390625 70.234375 -43.76171875 0 68.59375 -43.3671875 7.140625 64.4375 -44.984375 5.05078125 71.50390625 -0.8671875 34.54296875 70.859375 6.75 35.28125 80.9609375 5.39453125 27.31640625 69.86328125 11.99609375 35.27734375 78.37890625 10.92578125 28.01171875 73.8359375 -0.80078125 -24.6953125 64.0390625 0.390625 -31.9296875 73.73046875 -11.71484375 -25.32421875 64.53515625 -7.0390625 -30.22265625 72.72265625 -13 -24.75390625 64.92578125 -8.49609375 -29.30859375 62.86328125 -11.10546875 -24.73046875 56.2578125 -6.91015625 -33.68359375 56.546875 -7.1328125 -26.9140625 60.6640625 17.1796875 38.7890625 68.62890625 16.21484375 34.01953125 67.125 20.703125 32.6171875 76.1953125 14.49609375 27.5 71.8046875 19.79296875 25.89453125 82.84765625 12.78515625 17.83984375 76.88671875 18.0546875 16.67578125 81.49609375 14.9296875 10.45703125 74.23828125 -17.03515625 23.2890625 70.453125 -14.15234375 21.8203125 71.59375 -14.03515625 25.13671875 69.9453125 -15.2578125 24.5390625 65.0625 -12.47265625 30.37890625 65.28125 -13.8203125 29.21875 56.08984375 -16.48046875 32.59765625 63.828125 -11.77734375 24.4296875 55.73828125 -16.68359375 26.30078125 49.80859375 5.33984375 -43.5703125 64.80859375 3.3359375 -38.94140625 70.30859375 -4.12109375 -33.66796875 72.29296875 -5.25390625 -29.3125 90.03515625 -10.98828125 -8.59375 87.734375 -9.4765625 -14.05078125 81.953125 -6.49609375 -21.44140625 81.375 -16.83203125 -6.890625 77.03515625 -15.40625 -15.29296875 76.44140625 -13.5 -15.19140625 78.44921875 -14.99609375 -16.48046875 83.48046875 -16.29296875 -8.0234375 54.62890625 -51.546875 -31.39453125 53.91015625 -47.02734375 -32.19921875 55.37109375 -42.51953125 -35.23046875 51.140625 -40.1953125 -38.15625 49.36328125 -32.34375 -32.53125 87.53125 -2.3046875 10.875 83.30859375 -4.27734375 19.6796875 77.32421875 -9.69140625 23.71875 79.25390625 -5.15234375 25.52734375 74.61328125 -5.03515625 28.4140625 63.23046875 -61.296875 -9.7265625 66.64453125 -59.15234375 -12.1796875 59.7109375 -63.3671875 -17.33203125 63.2421875 -61.09375 -21.24609375 55.85546875 -63.9296875 -23.73828125 50.94921875 -62.828125 -30.7890625 54.38671875 -43.08984375 -31.234375 56.33203125 -38.921875 -32.84765625 53.26953125 -35.75390625 -34.39453125 55.24609375 -33.26171875 -30.67578125 53.91015625 -47.02734375 32.19921875 54.62890625 -51.546875 31.39453125 55.76171875 -52.41015625 34.78515625 52.35546875 -56.03515625 35.80078125 45.953125 -58.55859375 36.5 64.4140625 9.06640625 -38.66796875 74.7109375 7.5 -32.28125 60.34765625 -40.109375 20.67578125 57.39453125 -37.87890625 25.07421875 66.1015625 -35.86328125 23.27734375 70.78515625 -29.4765625 25.36328125 75.75390625 -31.84375 16.61328125 52.72265625 20.74609375 40.234375 49.1484375 13.05078125 43.515625 57.96484375 13.89453125 40.7265625 59.55859375 8.296875 40.9296875 85.30078125 9.26171875 18.30078125 70.0859375 -12.4765625 -22.3671875 76.22265625 -13.32421875 -21.37109375 77.2578125 -5.109375 -21.1640625 78.2265625 -0.7890625 -21.37890625 55.98046875 -60.8359375 30.4921875 58.828125 -57.43359375 29.70703125 55.61328125 -55.30859375 27.59375 84.42578125 12.125 -7.25390625 81.49609375 14.9296875 -10.45703125 76.88671875 18.0546875 -16.67578125 68.0390625 -55.171875 -6.3515625 67.91015625 -57.5234375 0 67.54296875 -58 6.08984375 63.734375 -60.76953125 0 63.765625 -60.62890625 6.37890625 66.64453125 -59.15234375 12.1796875 59.7109375 -63.3671875 17.33203125 63.2421875 -61.09375 21.24609375 55.85546875 -63.9296875 23.73828125 50.94921875 -62.828125 30.7890625 70.7734375 -13.359375 -23.421875 58.828125 -57.43359375 -29.70703125 55.61328125 -55.30859375 -27.59375 60.61328125 -55.27734375 -20.71484375 63.765625 -60.62890625 -6.37890625 67.54296875 -58 -6.08984375 66.8828125 -55.9765625 -13.1796875 66.109375 -8.1015625 33.58984375 42.16796875 7.37109375 44.54296875 88.390625 -15.39453125 -8.25 88.5390625 -19.70703125 0.00390625 89.4453125 -15.97265625 -0.00390625 88.265625 -15.69921875 9.49609375 27.69140625 -22.8125 39.33203125 20.921875 -16.3125 37.4609375 27.69140625 -15.28515625 42.34765625 20.99609375 -6.71875 40.89453125 55.70703125 -15.19921875 33.87890625 60.4921875 -9.3125 36.609375 56.65234375 -12.18359375 32.30859375 57.39453125 -37.87890625 -25.07421875 55.90234375 -39.74609375 -28.3203125 50.21484375 9.34375 43.84375 62.1640625 -42.015625 -16.1875 65.66796875 -35.5703125 -23.27734375 60.34765625 -40.109375 -20.67578125 71.7890625 -13.65234375 22.640625 53.54296875 -12.55859375 -35.515625 54.58984375 -1.40625 -31.453125 63.23046875 -61.296875 9.7265625 59.34765625 -12.8984375 36.8046875 61.7734375 -8.86328125 38.1328125 62.9765625 -54.21875 -12.73828125 62.59765625 -54.84375 -11.859375 61.56640625 -55.953125 -15.27734375 14.4296875 -7.7890625 36.41796875 64.20703125 -57.48046875 -21.55078125 42.40234375 -48.05078125 -41.25390625 43.43359375 -53.12109375 -39.96484375 54.38671875 -43.08984375 31.234375 55.90234375 -39.74609375 28.3203125 61.1171875 20.8671875 37.71875 57.953125 -12.31640625 36.66796875 54.125 -1.984375 -35.97265625 82.9765625 -16.09375 0.96484375 89.91796875 -1.6875 0.94921875 60.7421875 20.9296875 -36.8671875 32.45703125 -25.19921875 -38.69140625 81.30859375 16.890625 -3.671875 24.09765625 23.625 20.59765625 11.94921875 15.453125 14.56640625 10.7578125 8.59765625 24.80078125 61.81640625 -55.90625 15.27734375 62.59765625 -54.84375 11.859375 11.03125 0.92578125 32.59375 44.44140625 -30.1875 34.859375 21.26171875 24.59375 0 60.46875 -55.6640625 -18.41015625 60.46875 -55.6640625 18.41015625</float_array>
                    <technique_common>
                        <accessor count="362" source="#pointarray1" stride="3">
                            <param name="X" type="float"/>
                            <param name="Y" type="float"/>
                            <param name="Z" type="float"/>
                        </accessor>
                    </technique_common>
                </source>
                <source id="uvs1">
                    <float_array id="uvarray1" count="570">0.1396484375 0.003173828125 0.15185546875 0.00732421875 0.11572265625 0.003173828125 0.11505126953125 0.00970458984375 0.10076904296875 0.00616455078125 0.1014404296875 0.012451171875 0.0999755859375 0.00787353515625 0.09954833984375 0.0177001953125 0.06658935546875 0.02398681640625 0.06414794921875 0.0330810546875 0.049072265625 0.0272216796875 0.06024169921875 0.040283203125 0.04437255859375 0.041259765625 0.0440673828125 0.05841064453125 0.02874755859375 0.0574951171875 0.02825927734375 0.0692138671875 0.0108642578125 0.0689697265625 0.0106201171875 0.09161376953125 0.0291748046875 0.09088134765625 0.04376220703125 0.069091796875 0.04412841796875 0.0916748046875 0.17205810546875 0.05718994140625 0.168212890625 0.1209716796875 0.15020751953125 0.06207275390625 0.158447265625 0.11602783203125 0.139404296875 0.10009765625 0.14202880859375 0.19195556640625 0.1256103515625 0.1702880859375 0.0888671875 0.3175048828125 0.08880615234375 0.2647705078125 0.068115234375 0.343505859375 0.04296875 0.3145751953125 0.0517578125 0.36273193359375 0.0352783203125 0.37908935546875 0.05706787109375 0.4134521484375 0.0322265625 0.40252685546875 0.04278564453125 0.44830322265625 0.03033447265625 0.4283447265625 0.01983642578125 0.44940185546875 0.00848388671875 0.447998046875 0.21307373046875 0.00543212890625 0.22845458984375 0.04571533203125 0.17242431640625 0.003173828125 0.2161865234375 0.043212890625 0.15997314453125 0.003173828125 0.20086669921875 0.046875 0.1732177734375 0.0347900390625 0.19610595703125 0.053466796875 0.17645263671875 0.04583740234375 0.190185546875 0.06854248046875 0.17974853515625 0.085205078125 0.18603515625 0.11407470703125 0.17669677734375 0.11480712890625 0.157470703125 0.2960205078125 0.16546630859375 0.1640625 0.14031982421875 0.3101806640625 0.1285400390625 0.32025146484375 0.14276123046875 0.330322265625 0.1318359375 0.344970703125 0.059814453125 0.08984375 0.08526611328125 0.08099365234375 0.06005859375 0.06854248046875 0.0865478515625 0.0638427734375 0.08734130859375 0.0450439453125 0.11810302734375 0.03131103515625 0.1134033203125 0.01251220703125 0.14166259765625 0.0526123046875 0.144775390625 0.02972412109375 0.14794921875 0.036376953125 0.14794921875 0.01629638671875 0.166748046875 0.052978515625 0.1470947265625 0.016357421875 0.1502685546875 0.02593994140625 0.0191650390625 0.00201416015625 0.01776123046875 0.00872802734375 0.0260009765625 0.008544921875 0.01605224609375 0.0155029296875 0.02850341796875 0.0155029296875 0.01348876953125 0.028564453125 0.0294189453125 0.0281982421875 0.02947998046875 0.04144287109375 0.05926513671875 0.05767822265625 0.10882568359375 0.14825439453125 0.1131591796875 0.158203125 0.06573486328125 0.23956298828125 0.07159423828125 0.24969482421875 0.04522705078125 0.26202392578125 0.04541015625 0.27508544921875 0.02740478515625 0.28692626953125 0.00958251953125 0.32952880859375 0.00848388671875 0.38043212890625 0.0081787109375 0.39813232421875 0.07440185546875 0.42120361328125 0.34466552734375 0.98712158203125 0.3438720703125 0.9490966796875 0.3177490234375 0.986572265625 0.31781005859375 0.95074462890625 0.28851318359375 0.951904296875 0.2886962890625 0.946044921875 0.31787109375 0.9447021484375 0.3438720703125 0.9429931640625 0.34375 0.92919921875 0.3175048828125 0.93115234375 0.01129150390625 0.05804443359375 0.01214599609375 0.0418701171875 0.04815673828125 0.02069091796875 0.04498291015625 0.00836181640625 0.06878662109375 0.00848388671875 0.069580078125 0.002685546875 0.10064697265625 0.002685546875 0.185546875 0.02099609375 0.18792724609375 0.05096435546875 0.17584228515625 0.0888671875 0.15509033203125 0.15301513671875 0.11236572265625 0.34112548828125 0.0916748046875 0.368896484375 0.1083984375 0.3653564453125 0.0994873046875 0.381591796875 0.13238525390625 0.64703369140625 0.13714599609375 0.6136474609375 0.12384033203125 0.6448974609375 0.12957763671875 0.6168212890625 0.1181640625 0.61328125 0.12841796875 0.59100341796875 0.11492919921875 0.57720947265625 0.12353515625 0.56195068359375 0.10614013671875 0.55352783203125 0.10968017578125 0.53265380859375 0.089111328125 0.5323486328125 0.095947265625 0.51629638671875 0.0667724609375 0.255615234375 0.06243896484375 0.30267333984375 0.12237548828125 0.12042236328125 0.10552978515625 0.20086669921875 0.12237548828125 0.16900634765625 0.12030029296875 0.26202392578125 0.12188720703125 0.35931396484375 0.125244140625 0.5360107421875 0.13519287109375 0.57568359375 0.1282958984375 0.59100341796875 0.12945556640625 0.6168212890625 0.1180419921875 0.61328125 0.12371826171875 0.6448974609375 0.1131591796875 0.642333984375 0.11474609375 0.66619873046875 0.09515380859375 0.69781494140625 0.1195068359375 0.68280029296875 0.05975341796875 0.0675048828125 0.10809326171875 0.02935791015625 0.09649658203125 0.052001953125 0.123291015625 0.02569580078125 0.09893798828125 0.06781005859375 0.1258544921875 0.04290771484375 0.06500244140625 0.2440185546875 0.118408203125 0.11553955078125 0.0687255859375 0.63397216796875 0.06976318359375 0.63043212890625 0.04901123046875 0.6239013671875 0.04931640625 0.61944580078125 0.031005859375 0.61920166015625 0.03143310546875 0.6156005859375 0.00506591796875 0.6156005859375 0.00506591796875 0.61151123046875 0.0313720703125 0.6156005859375 0.1402587890625 0.1307373046875 0.158447265625 0.1187744140625 0.13824462890625 0.20477294921875 0.1510009765625 0.3118896484375 0.10498046875 0.51025390625 0.1253662109375 0.5360107421875 0.13531494140625 0.57568359375 0.0076904296875 0.42572021484375 0.0872802734375 0.02667236328125 0.0863037109375 0.01629638671875 0.06414794921875 0.02862548828125 0.0863037109375 0.01348876953125 0.06658935546875 0.014892578125 0.37493896484375 0.97967529296875 0.40283203125 0.98748779296875 0.37225341796875 0.9476318359375 0.4010009765625 0.94622802734375 0.372314453125 0.94085693359375 0.40106201171875 0.9395751953125 0.39971923828125 0.91265869140625 0.4295654296875 0.9383544921875 0.42901611328125 0.9095458984375 0.0938720703125 0.01300048828125 0.08673095703125 0.00787353515625 0.08740234375 0.002685546875 0.047607421875 0.002685546875 0.0419921875 0.005126953125 0.35504150390625 0.93109130859375 0.37225341796875 0.9471435546875 0.153076171875 0.02178955078125 0.1397705078125 0.020263671875 0.13470458984375 0.0987548828125 0.12847900390625 0.097900390625 0.10064697265625 0.63665771484375 0.1036376953125 0.60687255859375 0.11480712890625 0.57720947265625 0.12347412109375 0.56195068359375 0.1048583984375 0.51025390625 0.35675048828125 0.9638671875 0.3602294921875 0.9873046875 0.0313720703125 0.69073486328125 0.0452880859375 0.6680908203125 0.04876708984375 0.70025634765625 0.0665283203125 0.67608642578125 0.0723876953125 0.70526123046875 0.10467529296875 0.70281982421875 0.10009765625 0.58099365234375 0.10601806640625 0.55352783203125 0.10955810546875 0.53265380859375 0.0958251953125 0.51629638671875 0.103759765625 0.60687255859375 0.10076904296875 0.63665771484375 0.11328125 0.642333984375 0.1148681640625 0.66619873046875 0.11962890625 0.68280029296875 0.12060546875 0.016357421875 0.1097412109375 0.0140380859375 0.0872802734375 0.410888671875 0.0999755859375 0.39605712890625 0.07550048828125 0.38494873046875 0.1290283203125 0.0120849609375 0.11102294921875 0.01507568359375 0.04815673828125 0.0152587890625 0.09527587890625 0.69781494140625 0.0941162109375 0.65850830078125 0.08984375 0.64764404296875 0.0308837890625 0.61920166015625 0.00396728515625 0.65911865234375 0.02587890625 0.66259765625 0.00360107421875 0.68267822265625 0.01397705078125 0.6839599609375 0.04522705078125 0.66790771484375 0.04888916015625 0.70025634765625 0.066650390625 0.67608642578125 0.072509765625 0.70526123046875 0.10479736328125 0.70281982421875 0.3704833984375 0.91473388671875 0.093994140625 0.65850830078125 0.08978271484375 0.64764404296875 0.0697021484375 0.63043212890625 0.03143310546875 0.69073486328125 0.01397705078125 0.68402099609375 0.02593994140625 0.66265869140625 0.145263671875 0.0069580078125 0.02886962890625 0.2740478515625 0.01025390625 0.29547119140625 0.00994873046875 0.28466796875 0.17364501953125 0.11785888671875 0.17974853515625 0.0614013671875 0.42974853515625 0.9451904296875 0.43206787109375 0.9876708984375 0.44207763671875 0.9879150390625 0.0889892578125 0.5323486328125 0.07733154296875 0.54669189453125 0.08929443359375 0.5589599609375 0.16436767578125 0.0238037109375 0.4404296875 0.93951416015625 0.12042236328125 0.0535888671875 0.11865234375 0.04583740234375 0.04925537109375 0.61944580078125 0.04876708984375 0.61431884765625 0.05633544921875 0.61749267578125 0.068603515625 0.63397216796875 0.13702392578125 0.6136474609375 0.13226318359375 0.64703369140625 0.10015869140625 0.58099365234375 0.08941650390625 0.5589599609375 0.07745361328125 0.54669189453125 0.10009765625 0.002685546875 0.13018798828125 0.06695556640625 0.120361328125 0.052734375 0.2889404296875 0.9344482421875 0.28741455078125 0.9857177734375 0.2156982421875 0.003173828125 0.23114013671875 0.04345703125 0.05645751953125 0.61749267578125 0.048828125 0.61431884765625 0.04888916015625 0.6239013671875 0.23114013671875 0.003173828125 0.071044921875 0.6258544921875 0.0711669921875 0.6258544921875</float_array>
                    <technique_common>
                        <accessor count="285" source="#uvarray1" stride="2">
                            <param name="S" type="float"/>
                            <param name="T" type="float"/>
                        </accessor>
                    </technique_common>
                </source>
                <vertices id="vertices1">
                    <input semantic="POSITION" source="#points1"/>
                </vertices>
                <polylist count="574" material="Material1">
                    <input offset="0" semantic="VERTEX" source="#vertices1"/>
                    <input offset="1" semantic="TEXCOORD" source="#uvs1" set="0"/>
                    <vcount>3 3 3 3 3 3 3 3 3 3 3 3 3 3 3 3 3 3 3 3 3 3 3 3 3 3 3 3 3 3 3 3 3 3 3 3 3 3 3 3 3 3 3 3 3 3 3 3 3 3 3 3 3 3 3 3 3 3 3 3 3 3 3 3 3 3 3 3 3 3 3 3 3 3 3 3 3 3 3 3 3 3 3 3 3 3 3 3 3 3 3 3 3 3 3 3 3 3 3 3 3 3 3 3 3 3 3 3 3 3 3 3 3 3 3 3 3 3 3 3 3 3 3 3 3 3 3 3 3 3 3 3 3 3 3 3 3 3 3 3 3 3 3 3 3 3 3 3 3 3 3 3 3 3 3 3 3 3 3 3 3 3 3 3 3 3 3 3 3 3 3 3 3 3 3 3 3 3 3 3 3 3 3 3 3 3 3 3 3 3 3 3 3 3 3 3 3 3 3 3 3 3 3 3 3 3 3 3 3 3 3 3 3 3 3 3 3 3 3 3 3 3 3 3 3 3 3 3 3 3 3 3 3 3 3 3 3 3 3 3 3 3 3 3 3 3 3 3 3 3 3 3 3 3 3 3 3 3 3 3 3 3 3 3 3 3 3 3 3 3 3 3 3 3 3 3 3 3 3 3 3 3 3 3 3 3 3 3 3 3 3 3 3 3 3 3 3 3 3 3 3 3 3 3 3 3 3 3 3 3 3 3 3 3 3 3 3 3 3 3 3 3 3 3 3 3 3 3 3 3 3 3 3 3 3 3 3 3 3 3 3 3 3 3 3 3 3 3 3 3 3 3 3 3 3 3 3 3 3 3 3 3 3 3 3 3 3 3 3 3 3 3 3 3 3 3 3 3 3 3 3 3 3 3 3 3 3 3 3 3 3 3 3 3 3 3 3 3 3 3 3 3 3 3 3 3 3 3 3 3 3 3 3 3 3 3 3 3 3 3 3 3 3 3 3 3 3 3 3 3 3 3 3 3 3 3 3 3 3 3 3 3 3 3 3 3 3 3 3 3 3 3 3 3 3 3 3 3 3 3 3 3 3 3 3 3 3 3 3 3 3 3 3 3 3 3 3 3 3 3 3 3 3 3 3 3 3 3 3 3 3 3 3 3 3 3 3 3 3 3 3 3 3 3 3 3 3 3 3 3 3 3 3 3 3 3 3 3 3 3 3 3 3 3 3 3 3 3 3 3 3 3 3 3 3 3 3 3 3 3 3 3 3 3 3 3 3 3 3 3 3 3 3 3 3 3 3 3 3 3 3 3 3 3 3 3 3 3 3 3 3 3 3 3</vcount>
                    <p>2 2 1 1 0 0 3 3 1 1 2 2 4 4 3 3 2 2 5 5 3 3 4 4 6 6 5 5 4 4 7 7 5 5 6 6 8 8 7 7 6 6 9 9 7 7 8 8 10 10 9 9 8 8 11 11 9 9 10 10 12 12 11 11 10 10 13 13 11 11 12 12 14 14 13 13 12 12 15 15 13 13 14 14 16 16 15 15 14 14 17 17 15 15 16 16 18 15 17 17 16 16 19 18 17 17 18 15 20 19 19 18 18 15 21 20 19 18 20 19 24 23 23 22 22 21 25 24 23 22 24 23 26 25 25 24 24 23 27 26 25 24 26 25 28 27 27 26 26 25 29 28 27 26 28 27 30 29 29 28 28 27 31 30 29 28 30 29 32 31 31 30 30 29 33 32 31 30 32 31 34 33 33 32 32 31 35 34 33 32 34 33 36 35 35 34 34 33 37 36 35 34 36 35 38 37 37 36 36 35 39 38 37 36 38 37 40 39 39 38 38 37 43 42 42 41 41 40 44 43 42 41 43 42 45 44 44 43 43 42 46 45 44 43 45 44 47 46 46 45 45 44 48 47 46 45 47 46 49 48 48 47 47 46 50 49 48 47 49 48 51 50 50 49 49 48 52 51 50 49 51 50 53 52 52 51 51 50 54 53 52 51 53 52 55 54 54 53 53 52 56 55 54 53 55 54 57 56 56 55 55 54 58 57 56 55 57 56 59 58 58 57 57 56 62 61 61 60 60 59 63 62 61 60 62 61 64 63 63 62 62 61 65 64 63 62 64 63 66 65 65 64 64 63 67 66 65 64 66 65 68 67 67 66 66 65 69 68 67 66 68 67 70 69 69 68 68 67 71 70 69 68 70 69 72 71 71 70 70 69 73 48 71 70 72 71 74 72 73 48 72 71 75 46 73 48 74 72 76 0 75 46 74 72 77 44 75 46 76 0 80 75 79 74 78 73 81 76 79 74 80 75 82 77 81 76 80 75 83 78 81 76 82 77 84 79 83 78 82 77 85 80 83 78 84 79 86 10 85 80 84 79 87 12 85 80 86 10 88 11 87 12 86 10 89 13 87 12 88 11 90 81 89 13 88 11 20 19 89 13 90 81 62 61 20 19 90 81 21 20 20 19 62 61 60 59 21 20 62 61 93 84 92 83 91 82 94 85 92 83 93 84 95 86 94 85 93 84 96 87 94 85 95 86 97 88 96 87 95 86 32 31 96 87 97 88 98 89 32 31 97 88 34 33 32 31 98 89 99 90 34 33 98 89 100 91 34 33 99 90 101 33 100 91 99 90 102 35 100 91 101 33 103 34 102 35 101 33 104 36 102 35 103 34 105 92 104 36 103 34 108 95 107 94 106 93 109 96 107 94 108 95 110 97 109 96 108 95 111 98 109 96 110 97 112 96 111 98 110 97 113 99 111 98 112 96 114 94 113 99 112 96 115 100 113 99 114 94 116 94 115 100 114 94 117 101 115 100 116 94 118 102 117 101 116 94 113 99 117 101 118 102 111 98 113 99 118 102 119 14 87 12 89 13 85 80 87 12 119 14 120 103 85 80 119 14 121 104 85 80 120 103 122 80 121 104 120 103 83 78 121 104 122 80 123 79 83 78 122 80 124 77 83 78 123 79 125 105 124 77 123 79 126 106 124 77 125 105 127 107 126 106 125 105 128 108 126 106 127 107 129 109 128 108 127 107 130 110 49 48 47 46 131 111 49 48 130 110 22 21 131 111 130 110 132 112 131 111 22 21 23 22 132 112 22 21 55 54 132 112 23 22 25 24 55 54 23 22 133 113 55 54 25 24 27 26 133 113 25 24 134 114 133 113 27 26 135 115 134 114 27 26 136 116 134 114 135 115 137 117 136 116 135 115 140 120 139 119 138 118 141 121 139 119 140 120 142 122 141 121 140 120 143 123 141 121 142 122 144 124 143 123 142 122 145 125 143 123 144 124 146 126 145 125 144 124 147 127 145 125 146 126 148 128 147 127 146 126 149 129 147 127 148 128 152 130 151 31 150 87 153 131 151 31 152 130 154 132 153 131 152 130 155 133 153 131 154 132 156 134 155 133 154 132 157 115 155 133 156 134 158 135 157 115 156 134 159 116 157 115 158 135 160 136 159 116 158 135 163 139 162 138 161 137 164 140 162 138 163 139 165 141 164 140 163 139 166 142 164 140 165 141 167 143 166 142 165 141 168 144 166 142 167 143 169 145 168 144 167 143 170 146 168 144 169 145 171 19 13 13 15 15 172 81 13 13 171 19 173 147 172 81 171 19 174 148 172 81 173 147 175 149 174 148 173 147 176 150 174 148 175 149 177 151 176 150 175 149 178 152 176 150 177 151 98 89 101 33 99 90 151 31 101 33 98 89 179 88 151 31 98 89 150 87 151 31 179 88 180 86 150 87 179 88 152 130 150 87 180 86 181 153 152 130 180 86 182 154 152 130 181 153 18 15 89 13 20 19 119 14 89 13 18 15 16 16 119 14 18 15 120 103 119 14 16 16 14 14 120 103 16 16 122 80 120 103 14 14 12 12 122 80 14 14 10 10 122 80 12 12 185 157 184 156 183 155 186 158 184 156 185 157 187 159 186 158 185 157 188 160 186 158 187 159 189 161 188 160 187 159 190 162 188 160 189 161 191 163 190 162 189 161 10 10 123 79 122 80 125 105 123 79 10 10 8 8 125 105 10 10 127 107 125 105 8 8 6 6 127 107 8 8 129 109 127 107 6 6 4 4 129 109 6 6 67 66 156 134 154 132 192 164 156 134 67 66 193 165 192 164 67 66 194 166 192 164 193 165 195 55 194 166 193 165 196 57 194 166 195 55 197 167 196 57 195 55 160 168 147 127 149 129 145 125 147 127 160 168 198 169 145 125 160 168 143 123 145 125 198 169 199 170 143 123 198 169 141 121 143 123 199 170 139 119 141 121 199 170 100 91 36 35 34 33 38 37 36 35 100 91 200 171 38 37 100 91 40 39 38 37 200 171 201 37 40 39 200 171 202 38 40 39 201 37 104 36 202 38 201 37 90 81 64 63 62 61 203 172 64 63 90 81 88 11 203 172 90 81 204 173 203 172 88 11 205 174 204 173 88 11 206 175 204 173 205 174 207 176 206 175 205 174 210 179 209 178 208 177 211 180 209 178 210 179 212 181 211 180 210 179 213 182 211 180 212 181 214 183 213 182 212 181 215 184 213 182 214 183 216 185 215 184 214 183 218 187 217 4 206 186 219 188 217 4 218 187 220 107 219 188 218 187 221 108 219 188 220 107 222 106 221 108 220 107 223 189 221 108 222 106 224 190 223 189 222 106 227 179 226 192 225 191 228 181 226 192 227 179 229 180 228 181 227 179 230 182 228 181 229 180 231 184 230 182 229 180 232 183 230 182 231 184 233 185 232 183 231 184 235 194 24 23 234 193 26 25 24 23 235 194 236 195 26 25 235 194 92 83 26 25 236 195 237 196 92 83 236 195 91 82 92 83 237 196 238 18 15 15 17 17 171 19 15 15 238 18 239 20 171 19 238 18 173 147 171 19 239 20 240 59 173 147 239 20 177 151 173 147 240 59 243 94 242 101 241 102 244 100 242 101 243 94 107 94 244 100 243 94 245 99 244 100 107 94 109 96 245 99 107 94 111 98 245 99 109 96 165 141 247 198 246 197 248 199 247 198 165 141 163 139 248 199 165 141 249 200 248 199 163 139 161 137 249 200 163 139 250 201 249 200 161 137 251 95 112 96 110 97 114 94 112 96 251 95 252 93 114 94 251 95 253 202 114 94 252 93 254 203 253 202 252 93 255 177 253 202 254 203 258 206 257 205 256 204 259 207 257 205 258 206 260 208 259 207 258 206 169 145 259 207 260 208 261 209 169 145 260 208 170 146 169 145 261 209 248 199 262 210 247 198 263 211 262 210 248 199 249 200 263 211 248 199 264 212 263 211 249 200 250 201 264 212 249 200 265 213 264 212 250 201 142 122 267 215 266 214 268 216 267 215 142 122 140 120 268 216 142 122 269 217 268 216 140 120 138 118 269 217 140 120 270 218 269 217 138 118 3 3 234 193 1 1 271 219 234 193 3 3 5 5 271 219 3 3 272 220 271 219 5 5 7 7 272 220 5 5 9 9 272 220 7 7 275 223 274 222 273 221 157 115 274 222 275 223 276 30 157 115 275 223 155 133 157 115 276 30 153 131 155 133 276 30 276 30 151 31 153 131 277 32 151 31 276 30 275 223 277 32 276 30 103 34 277 32 275 223 105 92 103 34 275 223 279 224 278 2 76 0 280 3 278 2 279 224 281 225 280 3 279 224 206 5 280 3 281 225 204 173 206 5 281 225 222 106 80 75 224 190 82 77 80 75 222 106 282 226 82 77 222 106 84 79 82 77 282 226 86 10 84 79 282 226 284 191 243 94 283 179 107 94 243 94 284 191 285 202 107 94 284 191 106 93 107 94 285 202 286 203 106 93 285 202 30 29 96 87 32 31 94 85 96 87 30 29 28 27 94 85 30 29 92 83 94 85 28 27 26 25 92 83 28 27 287 227 269 217 270 218 268 216 269 217 287 227 288 228 268 216 287 227 267 215 268 216 288 228 289 229 267 215 288 228 174 148 9 9 11 11 272 220 9 9 174 148 235 194 272 220 174 148 271 219 272 220 235 194 234 193 271 219 235 194 124 77 81 76 83 78 290 75 81 76 124 77 126 106 290 75 124 77 291 190 290 75 126 106 292 189 291 190 126 106 189 161 293 230 191 163 294 231 293 230 189 161 295 232 294 231 189 161 296 233 294 231 295 232 297 234 296 233 295 232 300 237 299 236 298 235 301 238 299 236 300 237 287 227 301 238 300 237 302 239 301 238 287 227 270 218 302 239 287 227 283 192 212 181 210 179 303 240 212 181 283 192 214 183 303 240 283 192 212 181 303 240 214 183 246 197 167 143 165 141 304 241 167 143 246 197 305 242 304 241 246 197 306 243 304 241 305 242 257 205 307 245 256 244 308 246 307 245 257 205 309 157 308 246 257 205 293 230 308 246 309 157 253 202 225 191 114 94 227 179 225 191 253 202 255 177 227 179 253 202 310 178 227 179 255 177 74 72 279 224 76 0 311 247 279 224 74 72 72 71 311 247 74 72 70 69 311 247 72 71 312 248 97 88 95 86 313 249 97 88 312 248 314 250 313 249 312 248 315 248 313 249 314 250 318 251 317 51 316 53 319 252 317 51 318 251 71 70 319 252 318 251 73 48 319 252 71 70 310 178 229 180 227 179 320 253 229 180 310 178 321 254 320 253 310 178 322 255 320 253 321 254 137 256 264 212 265 213 263 211 264 212 137 256 323 257 263 211 137 256 324 258 263 211 323 257 313 249 98 89 97 88 179 88 98 89 313 249 315 248 179 88 313 249 180 86 179 88 315 248 176 150 235 194 174 148 236 195 235 194 176 150 178 152 236 195 176 150 237 196 236 195 178 152 281 225 66 65 204 173 325 71 66 65 281 225 279 224 325 71 281 225 311 247 325 71 279 224 220 107 282 226 222 106 207 176 282 226 220 107 218 187 207 176 220 107 206 175 207 176 218 187 0 0 47 46 45 44 130 110 47 46 0 0 1 1 130 110 0 0 234 259 130 110 1 1 326 92 35 34 37 36 327 223 35 34 326 92 328 221 327 223 326 92 323 222 327 223 328 221 232 183 228 181 230 182 329 240 228 181 232 183 226 192 329 240 232 183 228 181 329 240 226 192 285 202 208 177 286 203 210 179 208 177 285 202 284 191 210 179 285 202 283 192 210 179 284 191 215 184 211 180 213 182 330 253 211 180 215 184 216 260 330 253 215 184 331 255 330 253 216 260 86 10 205 174 88 11 207 176 205 174 86 10 282 226 207 176 86 10 298 235 297 234 295 232 332 244 297 234 298 235 299 236 332 244 298 235 294 231 308 246 293 230 307 245 308 246 294 231 296 233 307 245 294 231 250 136 134 114 136 116 57 56 134 114 250 136 59 58 57 56 250 136 325 71 68 67 66 65 70 69 68 67 325 71 311 247 70 69 325 71 334 262 333 261 61 60 67 66 333 261 334 262 65 64 67 66 334 262 327 223 33 32 35 34 31 30 33 32 327 223 135 115 31 30 327 223 245 99 242 101 244 100 241 102 242 101 245 99 111 98 241 102 245 99 201 37 102 35 104 36 100 91 102 35 201 37 200 171 100 91 201 37 298 235 183 155 300 207 185 157 183 155 298 235 187 230 185 157 298 235 69 68 193 165 67 66 71 70 193 165 69 68 306 243 336 264 335 263 337 265 336 264 306 243 193 165 318 251 316 53 71 70 318 251 193 165 319 252 338 49 317 51 73 48 338 49 319 252 277 32 101 33 151 31 103 34 101 33 277 32 280 3 217 4 278 2 206 5 217 4 280 3 63 62 334 262 61 60 65 64 334 262 63 62 339 266 304 241 306 243 259 207 304 241 339 266 169 145 304 241 259 207 167 143 304 241 169 145 164 140 340 267 162 138 166 142 340 267 164 140 166 142 341 268 340 267 168 144 341 268 166 142 300 237 288 228 287 227 183 155 288 228 300 237 184 156 288 228 183 155 289 229 288 228 184 156 266 214 144 124 142 122 342 269 144 124 266 214 342 269 146 126 144 124 343 270 146 126 342 269 274 271 146 126 343 270 148 128 146 126 274 271 172 81 11 11 13 13 174 148 11 11 172 81 344 272 217 4 219 188 278 2 217 4 344 272 333 274 182 154 345 273 67 66 182 154 333 274 346 254 330 253 331 255 209 178 330 253 346 254 29 28 135 115 27 26 31 30 135 115 29 28 233 260 320 253 322 255 231 184 320 253 233 260 347 275 111 98 118 102 241 102 111 98 347 275 348 276 110 97 108 95 251 95 110 97 348 276 257 205 339 155 309 157 259 207 339 155 257 205 116 94 225 191 226 179 114 94 225 191 116 94 349 272 4 4 2 2 129 109 4 4 349 272 133 113 57 56 55 54 134 114 57 56 133 113 49 48 132 112 51 50 131 111 132 112 49 48 53 52 132 112 55 54 51 50 132 112 53 52 56 55 350 167 54 53 58 57 350 167 56 55 234 259 22 21 130 110 24 23 22 21 234 259 79 74 290 75 351 73 81 76 290 75 79 74 353 43 77 44 352 42 354 45 77 44 353 43 42 278 352 42 41 277 353 43 352 42 42 278 187 230 295 232 189 161 298 235 295 232 187 230 184 156 356 280 355 279 186 158 356 280 184 156 323 222 135 115 327 223 137 117 135 115 323 222 335 263 293 230 309 281 191 163 293 230 335 263 306 243 309 281 339 266 335 263 309 281 306 243 203 172 66 65 64 63 204 173 66 65 203 172 357 47 73 48 75 46 338 49 73 48 357 47 354 45 75 46 77 44 357 47 75 46 354 45 148 117 157 115 159 116 274 222 157 115 148 117 192 164 158 135 156 134 194 166 158 135 192 164 358 58 194 166 196 57 160 136 194 166 358 58 182 154 154 132 152 130 67 66 154 132 182 154 195 55 316 53 197 167 193 165 316 53 195 55 41 277 359 282 42 278 128 108 292 189 126 106 275 223 273 221 105 92 209 178 211 180 330 253 194 166 160 136 158 135 41 277 42 278 359 282 341 268 168 144 170 146 117 101 113 99 115 100 229 180 320 253 231 184 262 210 263 211 324 258 85 80 121 104 83 78 337 265 306 243 360 283 355 279 361 284 184 156 177 151 175 149 173 147</p>
                </polylist>
            </mesh>
        </geometry>
        <geometry id="mesh2">
            <mesh>
                <source id="points2">
                    <float_array id="pointarray2" count="279">53.796875 -12.44921875 33.37109375 57.9453125 -10.96875 30.26171875 54.91015625 -15.2890625 28.796875 69.05859375 -8.140625 24.94921875 65.06640625 -13.77734375 23.2265625 77.59375 -10.24609375 15.9765625 72.1640625 -15.30859375 15.60546875 80.76953125 -9.9453125 8.55859375 77.28515625 -16.6875 8.67578125 81.8125 -9.15625 0.421875 77.0703125 -15.8671875 0.765625 80.27734375 -7.21484375 -6.5 75.03515625 -14.734375 -7.69921875 77.2890625 -4.61328125 -13.2265625 72.48828125 -15.37109375 -15.7578125 69.73828125 0.17578125 -28.7265625 57.953125 -12.31640625 36.66796875 68.578125 -11.296875 33.70703125 77.4140625 -13.578125 26.94140625 85.18359375 -15.140625 17.78125 88.265625 -15.69921875 9.49609375 89.4453125 -15.97265625 -0.00390625 88.390625 -15.39453125 -8.25 85.90625 -14.3671875 -15.171875 81.6171875 -13.16796875 25.41796875 88.48046875 -14.0390625 16.65234375 91.28125 -13.44921875 8.55078125 92.30078125 -12.62890625 -0.04296875 90.03515625 -10.98828125 -8.59375 87.734375 -9.4765625 -14.05078125 81.953125 -6.49609375 -21.44140625 59.1875 -45.87890625 -21.734375 60.40625 -43.84765625 -19.734375 60.34765625 -40.109375 -20.67578125 61.5 -42.74609375 -16.6875 62.1640625 -42.015625 -16.1875 62.5859375 -43.30078125 -13.21875 63.359375 -43.640625 -11.03515625 63.03125 -45.44921875 -10.43359375 64.4375 -44.984375 -5.05078125 63.0625 -48.828125 -9.32421875 64.69140625 -48.69140625 0 62.9296875 -52.203125 -9.96875 64.25 -53.29296875 0 57.39453125 -37.87890625 -25.07421875 55.90234375 -39.74609375 -28.3203125 54.38671875 -43.08984375 -31.234375 53.91015625 -47.02734375 -32.19921875 58.80859375 -48.5390625 -22.44921875 59.34765625 -12.8984375 36.8046875 58.78125 -12.8359375 33.484375 70.0234375 -11.56640625 32.51171875 72.62890625 -3.3984375 -28.33203125 72.29296875 -5.25390625 -29.3125 65.75 -8.7578125 -28.91015625 80.98828125 -11.91796875 -22.57421875 55.61328125 -55.30859375 27.59375 54.62890625 -51.546875 31.39453125 58.80859375 -48.5390625 22.44921875 53.91015625 -47.02734375 32.19921875 59.1875 -45.87890625 21.734375 54.38671875 -43.08984375 31.234375 60.34765625 -40.109375 20.67578125 59.4609375 -54.15625 -20.65234375 58.84765625 -51.6328125 -22.13671875 55.61328125 -55.30859375 -27.59375 54.62890625 -51.546875 -31.39453125 62.9296875 -52.203125 9.96875 63.8125 -53.7421875 7.15625 62.98046875 -54.21875 12.73828125 76.27734375 -4.01171875 -25.91015625 73.87890625 -8.01953125 -27.92578125 64.4375 -44.984375 5.05078125 63.0625 -48.828125 9.32421875 63.359375 -43.640625 11.03515625 63.03125 -45.44921875 10.43359375 62.1640625 -42.015625 16.1875 62.5859375 -43.30078125 13.21875 61.5 -42.74609375 16.6875 60.40625 -43.84765625 19.734375 59.4609375 -54.15625 20.65234375 58.84765625 -51.6328125 22.13671875 57.39453125 -37.87890625 25.07421875 55.90234375 -39.74609375 28.3203125 63.8125 -53.7421875 -7.15625 62.9765625 -54.21875 -12.73828125 64.58203125 -45.54296875 0 62.59765625 -54.84375 -11.859375 62.59765625 -54.84375 11.859375 60.61328125 -55.27734375 20.71484375 60.46875 -55.6640625 18.41015625 60.61328125 -55.27734375 -20.71484375 60.46875 -55.6640625 -18.41015625</float_array>
                    <technique_common>
                        <accessor count="93" source="#pointarray2" stride="3">
                            <param name="X" type="float"/>
                            <param name="Y" type="float"/>
                            <param name="Z" type="float"/>
                        </accessor>
                    </technique_common>
                </source>
                <source id="uvs2">
                    <float_array id="uvarray2" count="178">0.25811767578125 0.5845947265625 0.2593994140625 0.5806884765625 0.25823974609375 0.58807373046875 0.25433349609375 0.58404541015625 0.25518798828125 0.58935546875 0.24200439453125 0.5966796875 0.24102783203125 0.59783935546875 0.2327880859375 0.594970703125 0.232177734375 0.5924072265625 0.221923828125 0.596435546875 0.22235107421875 0.59661865234375 0.23114013671875 0.5958251953125 0.23211669921875 0.5966796875 0.240966796875 0.59564208984375 0.24224853515625 0.597412109375 0.25146484375 0.56964111328125 0.278564453125 0.52117919921875 0.2835693359375 0.5316162109375 0.2769775390625 0.50897216796875 0.26055908203125 0.4554443359375 0.23883056640625 0.42889404296875 0.22283935546875 0.42303466796875 0.2376708984375 0.4306640625 0.25592041015625 0.45013427734375 0.2696533203125 0.47894287109375 0.15264892578125 0.4951171875 0.12933349609375 0.486083984375 0.14312744140625 0.4287109375 0.1173095703125 0.47698974609375 0.11077880859375 0.44989013671875 0.09368896484375 0.47760009765625 0.07830810546875 0.46429443359375 0.07373046875 0.49676513671875 0.04052734375 0.47393798828125 0.06268310546875 0.529296875 0.00885009765625 0.51715087890625 0.0635986328125 0.56658935546875 0.00885009765625 0.555419921875 0.1668701171875 0.41363525390625 0.18731689453125 0.4315185546875 0.20501708984375 0.4635009765625 0.2076416015625 0.501220703125 0.1588134765625 0.527099609375 0.28271484375 0.52685546875 0.25836181640625 0.58807373046875 0.2669677734375 0.56842041015625 0.27337646484375 0.5482177734375 0.2545166015625 0.58892822265625 0.189208984375 0.5740966796875 0.2061767578125 0.54449462890625 0.15899658203125 0.527099609375 0.20782470703125 0.501220703125 0.15283203125 0.4951171875 0.2052001953125 0.4635009765625 0.143310546875 0.4287109375 0.1588134765625 0.58551025390625 0.162109375 0.56439208984375 0.18902587890625 0.5740966796875 0.20599365234375 0.54449462890625 0.06378173828125 0.56658935546875 0.0404052734375 0.5635986328125 0.06298828125 0.56744384765625 0.2843017578125 0.52862548828125 0.27752685546875 0.50189208984375 0.04071044921875 0.47393798828125 0.0628662109375 0.529296875 0.0784912109375 0.46429443359375 0.07391357421875 0.49676513671875 0.1109619140625 0.44989013671875 0.0938720703125 0.47760009765625 0.11749267578125 0.47698974609375 0.12945556640625 0.486083984375 0.15899658203125 0.58551025390625 0.16229248046875 0.56439208984375 0.16705322265625 0.41363525390625 0.1875 0.4315185546875 0.040283203125 0.5635986328125 0.0628662109375 0.56744384765625 0.00885009765625 0.49859619140625 0.0628662109375 0.5675048828125 0.06292724609375 0.5675048828125 0.06976318359375 0.63043212890625 0.08984375 0.64764404296875 0.0711669921875 0.6258544921875 0.17010498046875 0.58612060546875 0.08978271484375 0.64764404296875 0.0697021484375 0.63043212890625 0.071044921875 0.6258544921875 0.16998291015625 0.58612060546875</float_array>
                    <technique_common>
                        <accessor count="89" source="#uvarray2" stride="2">
                            <param name="S" type="float"/>
                            <param name="T" type="float"/>
                        </accessor>
                    </technique_common>
                </source>
                <vertices id="vertices2">
                    <input semantic="POSITION" source="#points2"/>
                </vertices>
                <polylist count="108" material="Material1">
                    <input offset="0" semantic="VERTEX" source="#vertices2"/>
                    <input offset="1" semantic="TEXCOORD" source="#uvs2" set="0"/>
                    <vcount>3 3 3 3 3 3 3 3 3 3 3 3 3 3 3 3 3 3 3 3 3 3 3 3 3 3 3 3 3 3 3 3 3 3 3 3 3 3 3 3 3 3 3 3 3 3 3 3 3 3 3 3 3 3 3 3 3 3 3 3 3 3 3 3 3 3 3 3 3 3 3 3 3 3 3 3 3 3 3 3 3 3 3 3 3 3 3 3 3 3 3 3 3 3 3 3 3 3 3 3 3 3 3 3 3 3 3 3</vcount>
                    <p>2 2 1 1 0 0 3 3 1 1 2 2 4 4 3 3 2 2 5 5 3 3 4 4 6 6 5 5 4 4 7 7 5 5 6 6 8 8 7 7 6 6 9 9 7 7 8 8 10 10 9 9 8 8 11 11 9 9 10 10 12 12 11 11 10 10 13 13 11 11 12 12 14 14 13 13 12 12 15 15 13 13 14 14 17 17 0 0 16 16 2 2 0 0 17 17 18 18 2 2 17 17 4 4 2 2 18 18 19 19 4 4 18 18 6 6 4 4 19 19 20 20 6 6 19 19 8 8 6 6 20 20 21 21 8 8 20 20 10 10 8 8 21 21 22 22 10 10 21 21 12 12 10 10 22 22 23 23 12 12 22 22 14 14 12 12 23 23 3 3 24 18 1 1 25 19 24 18 3 3 5 5 25 19 3 3 26 20 25 19 5 5 7 7 26 20 5 5 27 21 26 20 7 7 9 9 27 21 7 7 28 22 27 21 9 9 11 11 28 22 9 9 29 23 28 22 11 11 13 13 29 23 11 11 30 24 29 23 13 13 15 15 30 24 13 13 33 27 32 26 31 25 34 28 32 26 33 27 35 29 34 28 33 27 36 30 34 28 35 29 37 31 36 30 35 29 38 32 36 30 37 31 39 33 38 32 37 31 40 34 38 32 39 33 41 35 40 34 39 33 42 36 40 34 41 35 43 37 42 36 41 35 33 27 45 39 44 38 46 40 45 39 33 27 31 25 46 40 33 27 47 41 46 40 31 25 48 42 47 41 31 25 0 0 49 43 16 16 50 44 49 43 0 0 1 1 50 44 0 0 51 17 50 44 1 1 24 18 51 17 1 1 15 15 53 46 52 45 54 47 53 46 15 15 14 14 54 47 15 15 55 24 54 47 14 14 23 23 55 24 14 14 58 50 57 49 56 48 59 51 57 49 58 50 60 52 59 51 58 50 61 53 59 51 60 52 62 54 61 53 60 52 65 57 64 56 63 55 48 42 64 56 65 57 66 58 48 42 65 57 47 41 48 42 66 58 67 59 43 37 41 35 68 60 43 37 67 59 69 61 68 60 67 59 70 62 15 15 52 45 30 24 15 15 70 62 54 47 71 63 53 46 55 24 71 63 54 47 73 65 41 35 72 64 67 59 41 35 73 65 75 67 72 64 74 66 73 65 72 64 75 67 77 69 74 66 76 68 75 67 74 66 77 69 78 70 76 68 62 54 77 69 76 68 78 70 79 71 62 54 60 52 78 70 62 54 79 71 81 73 56 48 80 72 58 50 56 48 81 73 83 75 62 54 82 74 61 53 62 54 83 75 84 76 42 59 43 37 85 77 42 59 84 76 86 78 41 35 39 33 72 64 41 35 86 78 42 59 85 77 87 79 67 59 88 80 69 61 90 83 56 82 89 81 56 57 90 84 80 72 50 44 51 17 49 43 92 87 91 86 65 85 65 57 63 72 92 88</p>
                </polylist>
            </mesh>
        </geometry>
    </library_geometries>
    <library_visual_scenes>
        <visual_scene id="VisualSceneNode">
            <node id="node0" name="m0" type="NODE">
                <instance_geometry url="#mesh0">
                    <bind_material>
                        <technique_common>
                            <instance_material symbol="Material1" target="#mat0">
                                <bind_vertex_input semantic="UVSET0" input_semantic="TEXCOORD" input_set="0"></bind_vertex_input>
                            </instance_material>
                        </technique_common>
                    </bind_material>
                </instance_geometry>
            </node>
            <node id="node1" name="m1" type="NODE">
                <instance_geometry url="#mesh1">
                    <bind_material>
                        <technique_common>
                            <instance_material symbol="Material1" target="#mat2">
                                <bind_vertex_input semantic="UVSET0" input_semantic="TEXCOORD" input_set="0"></bind_vertex_input>
                            </instance_material>
                        </technique_common>
                    </bind_material>
                </instance_geometry>
            </node>
            <node id="node2" name="m2" type="NODE">
                <instance_geometry url="#mesh2">
                    <bind_material>
                        <technique_common>
                            <instance_material symbol="Material1" target="#mat1">
                                <bind_vertex_input semantic="UVSET0" input_semantic="TEXCOORD" input_set="0"></bind_vertex_input>
                            </instance_material>
                        </technique_common>
                    </bind_material>
                </instance_geometry>
            </node>
        </visual_scene>
    </library_visual_scenes>
    <scene>
        <instance_visual_scene url="#VisualSceneNode"></instance_visual_scene>
    </scene>
</COLLADA>
