<?xml version="1.0"?>
<COLLADA xmlns="http://www.collada.org/2005/11/COLLADASchema" version="1.4.1">
    <asset>
        <contributor>
            <authoring_tool>J3D Ripoff Exporter</authoring_tool>
        </contributor>
        <created>2024-08-19T02:28:49.496Z</created>
        <modified>2024-08-19T02:28:49.496Z</modified>
		<unit meter="0.01" name="centimeter" ></unit>
        <up_axis>Y_UP</up_axis>
    </asset>
    <library_images>
    </library_images>
    <library_effects>
        <effect id="effect0">
            <profile_COMMON>
                <technique sid="COMMON">
                    <blinn>
                        <diffuse>
                            <color>1 1 1 1</color>
                        </diffuse>
                    </blinn>
                </technique>
            </profile_COMMON>
        </effect>
    </library_effects>
    <library_materials>
        <material id="mat0" name="Konfu_Shadow_m">
            <instance_effect url="#effect0"></instance_effect>
        </material>
    </library_materials>
    <library_geometries>
        <geometry id="mesh0">
            <mesh>
                <source id="points0">
                    <float_array id="pointarray0" count="1800">-55.56045570590879 202.228630522454 58.07331391099776 -55.84843514242328 189.7051705315041 48.003925710397965 -73.63068207685708 216.29907468253953 42.205341148499684 -71.31746808497286 207.65306563542376 35.95750462990637 38.66659489964473 295.9148803520939 -45.79035918291989 61.603277151529035 293.9252231334814 -26.74127852353947 13.313263752246176 304.9245483747351 -17.90704546305178 36.46920446836841 301.62487246938633 -8.154560671784171 -0.004848917327941493 296.8517902618154 -55.72365266772287 -0.006993487710720525 306.31803613781267 -20.45390291113195 46.69414877469482 307.26671869056054 19.959797639488286 60.0786298726846 250.3337428209223 42.08626062628648 -0.008922192977023631 319.8747411376882 6.222415483871519 -0.007952768027157156 250.03252783510402 55.842307880992465 -13.01170288379209 32.38186117541858 25.843420083378238 -3.3453974149595878 1.4995120267896596 9.937633380987187 -10.707997928113128 17.115311413652847 61.586179032616734 -1.066951190921716 1.498259135033578 68.40620501032392 -38.55223547879009 20.37927053217939 68.49125078167798 -38.55165716322392 1.4961311052890949 75.31065805489345 -68.12169927768586 17.11292013061164 54.052176713779716 -79.2539072365099 1.495054781183427 57.058706855669726 -69.50373707591923 32.9494655404536 22.075086944738604 -38.55138702574015 36.57594934959957 34.615633272459476 73.61931758474967 216.30613360641922 42.21240007238748 55.54891903875225 202.23395692395107 58.07864031250096 80.06367640590776 239.54149843622218 38.87119937001225 60.45404095614603 232.44637891640514 51.39839213448304 -0.0029296785085698245 277.16776920611926 -76.07518379459228 45.14512823058061 274.8463538795769 -65.83329216226738 94.37831068455515 269.28893118974827 -35.39685601773957 48.74185935189503 217.35124144203223 -70.52455598867618 0.00013793120884763362 216.18944290814474 -79.08756451176204 47.47679102080076 189.09537520870418 -53.880930656621594 0.0006339833397579673 188.4651669272116 -61.710995560199905 -0.003630800289853229 164.09359778652092 51.62447201619595 -0.005263104554280827 178.4001622554722 71.36797046351111 28.590406175018686 165.95562175846658 43.777479398911765 30.81539535543046 181.03322799012147 61.51961539601604 60.94082670741751 89.93260884878876 -19.325203730949692 40.340058608409265 89.25974628092536 -35.224628817854246 75.55296861620786 38.84737177224629 -25.957315873812696 46.335281566736384 38.84597112416958 -48.130591547367466 0.004350406400494729 89.257812653119 -40.00781245115668 0.007618079941592227 38.843750251837974 -57.75781243076116 0.0027489654758926984 125.24218761769615 -42.58593744819431 31.744661870500533 125.24370927302726 -36.85785328628137 0.0018639783610478414 137.66406258954459 -36.54687495513345 30.517204274206044 138.51708794597167 -31.45947459188224 0.0005598946244679604 164.4306211249062 -36.13095029085862 32.562804980428844 166.14329466158756 -32.52452211168013 30.17781221672963 138.64207167621578 40.478009221164776 -0.00224036941059727 140.0546873955358 46.67968744923562 47.3814719895521 138.9710213918734 28.994458924004338 50.153533217927425 166.00560787355528 30.648336607634832 0.0035418210506975986 105.37500013287608 -39.25781245201846 29.823680850475395 105.37642966151428 -35.63919541922232 30.439323153980638 194.42409873609182 70.4949776402262 25.273852369432245 227.47919671453846 66.81661687485702 -36.48392036397899 301.6213752160338 -8.15805792514072 -61.615472565303605 293.9193162283758 -26.747185428651864 -13.32736118653136 304.9232712667963 -17.90832257099201 -38.67715492261264 295.9111726193685 -45.79406691564958 -49.671838564817676 297.25548482184246 4.930919973302172 -62.53066707969007 292.95333074470386 -2.1672877746157324 -40.33181620619978 89.25587900333718 -35.22849609544685 -29.816944012465285 105.37357058761268 -35.64205449312722 -60.93417301250318 89.92676636085778 -19.331046218887384 -57.91201075479921 115.9972237683239 -18.799651280854746 -100.88899051087917 271.0159270650456 -2.167574632734217 -94.3873138816451 269.2798820747875 -35.405905132710764 -45.15174656190935 274.84202519524956 -65.83762084659968 -46.77482305991022 244.21849276553178 -75.33864895341874 -0.0009413785330010353 244.22163184457727 -84.60522263931499 -94.6747096482053 244.2200742192049 -45.11437079401251 -93.15453527724183 236.10565265031613 31.06938720899481 -87.59885757838366 219.21604717922287 27.303591897322562 -83.75148966626311 219.8417876101148 -48.792045403319314 -48.74251542407744 217.34656820072436 -70.52922922998943 -55.49394422767307 165.92758885615 10.694440991833615 -52.39889766276772 139.0209255843934 10.575613095423135 -52.93019214824623 166.0537791201164 -15.550153574825174 -52.06951053632129 138.64594137424203 -15.377496144980384 -50.15896655154576 166.00079905656594 30.64352779063996 -47.38415279266829 138.9664784829886 28.98991601511432 -28.597093693559486 165.9528802833605 43.77473792380254 -30.181562644559296 138.6391781466161 40.47511569156179 -32.56219486990827 166.14017267572905 -32.527644097542215 -30.514045585538856 138.5141622077847 -31.462400330072583 -30.82522950291404 181.03027303949483 61.516660445386016 -70.03195985165728 190.06466861966325 -35.28129508059815 -47.47633376098873 189.09082331137643 -53.88548255395459 -71.65167037489728 191.5578821530683 15.855981515907564 19.526248557604873 296.294567946611 111.00674547074966 -0.013380533881663766 300.01980574766367 119.09973742679126 18.284095459315147 308.30293099039335 98.28069908643025 -0.013437515303231397 312.4969094241038 107.8112730587105 -15.896583409569754 339.7627467600871 87.49931877878156 -18.64658934552544 328.9417777289457 98.44398071506812 -28.41945800653398 339.762709335226 75.75653095267867 -38.661238353192225 329.3715023530606 77.6539793450701 -2.8556524377718935 141.17759508938343 84.13886109860945 -14.582158335106254 135.4893168427412 88.64583878660856 4.66534838203936 176.5600277108566 99.5862304184817 -14.530395850413635 171.6600033554536 113.49132537160114 -0.010213538897838808 333.91522286315404 19.140424817577124 18.864438874005685 335.49398078268524 24.813280293864434 -0.011101515749562163 341.7818994774092 29.797051933174462 10.527812656108033 342.157274363275 32.516325129211694 -14.582096220304871 146.8649243146577 75.9745091146032 -11.71699335519102 181.34900521773423 84.97629966666403 24.93704648182169 214.26419266523038 98.16713472322067 -1.2513938170179766 211.70718685089912 120.3376318188626 -34.94948337488018 339.7636209718595 50.2093429139571 -44.90180497140562 323.00533137385787 50.20806243535167 -31.393965604087327 337.29575337714834 35.35783250615301 -39.34619470871958 321.6548932225045 32.30982646741407 36.3642029493607 245.18151851553074 -24.25006259837652 48.457733471941694 260.6133976114566 -35.21921274767318 40.4850880520937 259.70357122880785 -5.753896796748553 54.58227010128504 270.81437007117745 -6.7458519530614875 82.83585520739952 211.93890215368774 25.90364491291346 82.84538116168956 203.73682593436365 14.973104695669827 52.007947699720795 214.72524736937538 23.940904179791332 54.2874037232803 205.29081353585138 -5.800316851278035 40.995079536258274 246.31095973292463 15.465997946179568 52.437847355839935 261.8430908954757 17.525385243347444 82.8331183542713 272.55245119865344 -17.630010139272372 82.83560806446047 259.50800102709115 -42.920559872485555 138.18493611910424 266.9171965820076 -19.232166202183336 130.27271700658684 255.7313667955105 -44.43216119768562 82.83187467859852 254.17327677200183 25.907694100580393 82.83147939627342 268.34619961743454 14.979264890942348 153.29629297592078 249.82823675345276 27.145241214336714 153.29844459060917 261.274647523029 15.693118109052318 153.30715743439944 217.4454252791398 27.1421707155359 153.30351781359084 207.44652300949144 15.687957379672902 82.8396038329393 203.73995182053454 -17.63660748388397 138.19081929060258 204.49532214613455 -19.23815085062188 82.84739931326648 211.9460047381219 -48.167325557201025 130.27644792398135 216.1454296532616 -44.435956468478885 149.74307266078858 217.4521547202724 -47.793000310698176 150.8268048103719 207.44967216177284 -20.834675620040873 149.7400206275144 249.83496692761832 -47.78989563387993 55.839064600909175 189.71052464736698 48.00927982626702 71.30753158726253 207.65990284437683 35.9643418388673 70.03053982646696 190.07138298656238 -35.27458071369129 71.64520429579407 191.56475157060868 15.862850933455844 83.74850994880738 219.84981728583534 -48.78401572758956 87.5886420190203 219.22444538110517 27.311990099214537 46.772051725110956 244.22297724953725 -75.33416446940811 94.66903991666636 244.2291510485315 -45.10529396467546 93.14233929463181 236.1145834174445 31.078317976133416 100.87663402544594 271.02559937871905 -2.1579023190496747 62.51620763294138 292.9593252871284 -2.161293232184276 -64.49155170992063 1.4965807802721827 -37.69029792025682 -38.54548349129874 1.4978245922990254 -53.45467912634393 -62.76717977234583 33.387288480483136 -23.885527667539883 -38.54770251315901 35.46657452495434 -41.1343666405005 1.3897475841070166 23.62473904731027 -28.249639616948446 6.218920475655657 3.781220527150168 -30.26503316222565 9.818561313174285 26.023580613595172 -12.42111052971996 14.374349886972361 3.7816114850826352 -13.147454684624366 -11.858720604952524 1.4991039120154426 -38.0783997889595 -14.697006703681696 34.87396788757657 -22.461348257104422 5.567993178441899 22.617126844404666 2.8364982147072477 9.326576054273442 3.781369503070181 5.602303354907503 57.91611397901772 116.00277637896909 -18.79409867020319 49.656286206917684 297.2602464495062 4.9356816009713915 -28.32211234145742 321.0622881563444 19.45095147910688 -31.688304329440538 303.23414260555245 16.512435417283164 -0.009285833752820771 319.2513851187015 14.452221857205403 -0.008441262117789344 303.3686558022865 12.717085465167829 -0.0132311848805734 316.7082551591142 99.29584994372857 -21.38778545832846 311.9574484677231 94.74772256445591 -18.30965445658925 308.3011767459402 98.27894484197512 35.7089951243074 256.3121110022809 87.17747936777081 -0.01000411244699756 234.87943445851982 113.80755220405054 165.83511118355784 213.0628636202606 -45.8872562956864 162.23828014678102 204.2242707235761 -21.727260687996 244.73375321618232 214.52537677211572 -66.24784651663713 240.55783079163203 184.81013192056972 -25.428651982850464 165.8315373130509 253.85179020292173 -44.46926162725486 246.2873166777416 258.9156410468869 -60.95395707749 164.26362483450652 267.45883705895056 -21.72598916195773 245.162691691535 275.7793877026606 -26.168772624775873 256.10567956260945 253.47643993401343 47.92755944996959 255.34169351004928 208.1327112087633 46.95035077530993 246.27770246837028 254.7338952047848 41.992365850510836 244.96778289254476 214.5151407711678 40.74711052967735 245.1585724305917 275.77411715564057 28.800737005058284 255.60541737001094 262.13433808940846 30.245786617696247 253.3495482363885 216.47844726100357 -57.20938956094431 251.4248076767527 192.04581767999207 -28.416912775820503 253.9739770477233 256.478282574763 -54.874045916434724 73.73213725009344 285.7916141620866 -99.1083476136861 100.88003350503274 292.1989315137454 -94.22392656813243 114.22841833659893 201.14515356674764 -99.85265189029788 139.68071745860613 211.13040152968193 -92.6087655912182 26.299718766779247 428.1059319887293 -21.486611016361163 -0.9669013023870326 446.3779432747394 -19.00266709281608 60.18386777535538 429.38239154223675 -50.64117561629866 40.21487841333742 451.5931972002649 -67.85981808993238 4.761908328911868 415.60555228703475 -35.10543026198648 44.9433952284045 411.9294141847212 -68.96305543394087 -48.54304334412482 311.96495166303714 74.0432961603935 -52.6825162721717 290.4492488184263 71.52644124756122 -44.8552014278946 310.7154104645391 68.16060052367153 -48.31494941283938 290.37170883444355 63.690709376202086 -40.41826506134919 310.71505951372427 79.91862572313494 -44.901571126676416 288.97268368218295 79.3626809659489 -5.888034385630683 360.55402232496306 51.34454521363026 -0.012521336674716008 361.25797578438676 39.938610584384016 -26.41159020680191 366.248505635425 48.11727188501244 -4.567177020344574 367.0627550429342 33.46992052220265 -0.013706258456225197 361.73337609680846 64.18082087429924 0.18117926175853458 372.34284208432507 62.47821383723938 -16.911643396609563 363.8347296394955 51.641049065156395 -20.64576857224157 358.6236131316487 51.640620241522804 -13.020609076500905 363.83532551798424 43.102173094971754 -14.35617392147978 358.62444683524666 40.53935925439346 -13.021427360099704 363.8345071559264 60.172485555742696 -14.357341239547264 358.6232794052538 64.89092169843147 -0.013839588211846322 363.3817592852405 65.31371239509042 -0.013815223811166562 358.6237430483674 69.56348430358315 -0.012546437975394231 363.3830525594674 38.337149957084875 -0.012197381638715643 358.6253610456625 35.813484381143574 -21.496928443571047 350.2095090794013 51.6558010625967 -15.199485715279446 350.21037873847666 39.812352951691445 -15.200738044961085 350.20912628871855 65.93735289165392 290.0632974443544 198.10621533258924 -49.99180600551912 290.9810804665009 188.5031044858856 -32.94071888087016 254.2095862288191 192.04080630935755 26.590909602936666 300.6190103875142 188.4983445178577 26.181838576445756 287.66651290940626 198.09661058728258 47.832739090002825 254.8003873266201 263.64001666081236 -29.774840901594814 -1.249555941122939 213.25893395729338 80.4267128027856 -0.008439564179847132 259.86657198166773 56.183750046503654 -22.664515908785795 214.2619107242712 98.16485278225886 -31.63933903452932 176.5582873235864 99.5844900312095 -37.47850470750138 256.3086025133747 87.17397087886054 52.397977096399984 139.02594937497713 10.580636886012636 55.49043051727523 165.93290926535175 10.69976140104149 52.07111422435454 138.65093370527535 -15.372503813941314 52.929182608479756 166.0588538452103 -15.545078849725446 325.86807684310514 263.5060241349082 -29.091114711938157 298.1081444947136 246.51425008671038 -60.69438547393613 309.73401933812767 263.4988678476925 29.69085692028464 298.10298942165707 246.503764709775 48.66651701131379 150.82141202588454 264.66842164466823 -20.829189817141767 240.55002960060665 186.7425789951663 27.267554913228544 -32.19054874445652 310.77129794997086 55.79402276814129 -36.26108404721 307.3566538121248 63.85616396093083 -42.73734059550637 313.9038381790379 50.92647986131012 -47.25307380888006 312.40344155880337 54.68400397346211 -37.47128820213458 292.0597207969192 63.855372603430865 -50.54935628419877 299.93452829716034 54.79262319496412 104.56870567939814 293.0128195353427 -119.48933578743835 142.5884680777405 210.63201764876533 -123.41333766874142 -31.73971298360688 125.24066593604476 -36.86089662326738 -46.32096822033153 38.841529335268206 -48.13503333627394 -75.5407810365656 38.84012858528571 -25.964559060781603 -30.451301706087428 194.4211797392371 70.4920586433681 -25.288647514370748 227.47677283108402 66.81419299139979 -60.467833765965025 232.44058211972592 51.39259533779717 -80.07694822607522 239.53382155688828 38.8635224906695 -60.093244851150025 250.32798197801498 42.08049978337253 -46.712101010649526 307.2622409478873 19.955319896809886 -0.013468772173048458 350.20962363817006 70.75058094447586 -0.011737081847721362 350.21135549453413 34.62558102749423 -18.840314400355744 342.6315121821655 51.63994011600477 -12.29292560071108 342.6323398925884 40.92150398710481 -12.29406108623582 342.6312042981905 64.60900393266888 -0.012980763187000484 342.6316233762109 68.14865516755107 -0.011462912648819103 342.6331413722844 36.48459274031784 -32.419948498869836 400.7649515537205 24.98582605602336 -11.286073559309532 394.19639971592306 9.39277419426434 -9.35865302638752 418.3672589131903 32.51121290730438 -65.89753397684177 383.25367171279663 63.83494435928612 -55.670102520356146 353.05045799357845 75.91211168783524 -65.8973044080335 383.25390130361654 59.0458818702918 -55.669939987137894 353.0506205423808 72.52148669562719 -0.013737144001067542 318.6531549155186 107.90531817903927 -0.013357400491145036 318.65353469543925 99.98344319724443 -66.16186452988345 345.698465566786 74.38781879117958 -66.16165256259882 345.6986775543946 69.96594380134144 15.197374205238878 374.9067547952707 48.02593153698326 15.899965410096176 403.2591764150241 30.80857441069548 -0.013816209569458594 328.65355527195993 99.55423508185699 -0.014270104178951769 328.65310133382985 109.02298506009699 -21.129298656253173 431.02634340271794 -38.38718210917985 -36.26000504795533 293.58363507548626 55.121128704963276 70.35861277880709 288.1914805207382 -132.28808185224366 114.6912085068351 197.38122297706548 -134.7356227314415 -49.38487807921469 297.3020611231068 48.753490299372544 146.35842422573754 116.46013986024582 -119.5895466051243 126.60133457050695 113.54571336295662 -131.75469592973388 -19.551876352590213 296.2926946052885 111.00487212942504 125.85065002850861 104.14610471092273 -108.07549498362769 146.52932666093025 113.54497323320854 -96.38655311442554 -0.0140049638195528 329.958116550191 102.18711012038892 -34.69500367909344 275.39783962890004 21.12814430780361 -0.007335992098652952 277.47008203055265 15.559593929947303 -42.18884358642977 303.31904154001734 27.675998658523266 -47.45320485820801 270.37316095609765 34.26010437361417 -44.706721551687416 298.09766755569734 79.89437776524737 -49.06531412472937 279.5192253760717 82.1510906738684 -46.877380937956964 302.42711166798085 50.20698120056587 -51.134339485155245 284.6144075963584 50.205923185924284 -0.012787244004758721 282.3789283506643 124.36451675201421 -20.488675204773102 278.7300088777452 113.94148526296787 -58.52585951220001 281.9645936981192 71.52575438071057 -46.92349335119478 279.879916116738 56.84652307792716 -46.92475354538698 279.87865580171524 83.13558551751262 -65.75905582948964 257.3783094505312 71.52422896703432 -50.930222308614496 257.37972890945224 56.743689837035326 12.269574342842168 342.63351737861757 40.92268147313533 15.175514214916175 350.21183486623795 39.81380907945438 12.26843885731743 342.63238178421966 64.6101814186994 15.174261885234536 350.21058241647984 65.93880901941685 18.81593551310693 342.63331736112883 51.64174529497014 21.471821457683042 350.2115689309154 51.65786091411319 14.33132601259386 358.6258220670212 40.54073448616957 14.330158694526377 358.62465463702836 64.89229693020758 41.34398269516617 259.6037765098332 38.51384467968339 42.523362377279696 254.3298348932325 50.20896090513508 47.437419923725116 270.37770985727775 34.26465327479951 49.77290205536955 263.9317449242944 50.209768741447476 69.11689971251815 392.7906599825336 -83.81437670992298 94.42041977306427 406.5491776448249 -73.21875414198136 -10.550312295452612 342.1562639124777 32.51531467841324 -18.88556103924155 335.4921711095005 24.81147062067758 -21.706888463558844 342.9835675778634 38.49138205127768 -22.371516083614793 343.0532864390166 50.21010356094419 -19.856798143618033 346.0995209689704 66.08537018160368 -7.95080133902895 347.34208559691984 70.12506298688554 -0.013431308944511937 347.3423361435377 72.83638099140843 -0.01403122391933663 339.76324785330485 92.92976766232783 86.97543490263557 422.97181068588986 -96.47613626682609 -0.01164532324349485 267.4262284838559 115.49661244406487 -0.011717582845201371 263.29314557806526 121.1370393108384 -20.6205697486524 266.7459709883627 106.77684190130455 -21.089262057800493 263.1130195447804 109.2063327735309 25.912230184719757 433.47649479942737 -92.28324728540663 62.27404622011324 406.35437870857305 -116.07967954990106 47.23130097398666 312.40797098502367 54.68853339968766 36.23891578617872 307.3601293434068 63.85963949221684 42.71578420811495 313.9079346619218 50.93057634419875 32.16882610764006 310.77438323302056 55.79710805119454 5.861965587366799 360.5545856007226 51.345108489390405 105.42483944348848 359.71594213285255 -118.57984695390378 73.86319489096995 356.27761973132755 -132.98777476348658 73.93219891815308 349.29160465227403 -98.70685629110244 -0.011016848165611548 253.66838492895198 116.14439041557172 -0.009690321529844132 243.69267077685078 98.44859969616736 -23.596593279069104 254.4489027626757 107.83079721529695 -22.907688852989274 243.40293566274372 89.58030064576292 103.47858435615473 354.0661978927666 -93.26771104401452 37.450586625688466 292.0633124289229 63.85896423543872 36.239994785433396 293.5871106067683 55.12460423624929 46.904631433180064 279.88441408340793 56.85102104460226 58.505390218852035 281.97020398460677 71.53136466720457 48.2944253651439 290.3763401296842 63.695340671448086 52.66123348573923 290.4542988253021 71.53149125444276 46.90337123898786 279.88315376838517 83.14008348418773 44.87967866699849 288.97698764829204 79.36698493206299 50.91352745733974 257.3846111320592 56.74857205964788 65.74094386831197 257.38461334520133 71.5305328617117 50.912190490544454 257.38327403707217 84.63919699555281 33.01060844709533 317.94467467465375 89.67249222928389 18.619035568834928 328.9435641819861 98.4457671681106 43.690962530072255 318.68026352093096 75.03241443439576 38.63563646917286 329.37520783867524 77.65768483068905 31.339192272152676 305.3038223639451 92.74211860441451 41.9416632933346 303.7114128090592 75.3831754640895 65.86809072034941 383.25998834109436 63.84126098759106 65.86832028915768 383.2602179319142 59.052198498596745 66.1352221333715 345.70501964994736 69.9722858969015 66.13501016608687 345.7048076623388 74.39416088673964 50.52876848351494 299.93937381695844 54.79746871476783 20.619856332926457 358.6255913381392 51.642598448015555 12.995015863712934 363.8365726644464 43.10342024143538 12.994197580114136 363.8357543023886 60.17373270220632 16.88523152572229 363.836349806341 51.642669232003726 55.64255975705635 353.05595668135777 72.52682283461029 55.642397223838095 353.05579413255543 75.91744782681833 35.84301132165462 244.77370546535948 73.60662010200919 22.889186041765537 243.40513108993932 89.58249607296105 44.55301699508323 255.50026792068925 82.31848938391248 39.35676111192431 261.6634334037581 95.83416079314081 -39.377613707137286 261.65965900674735 95.83038639612569 -44.5719828000998 255.4959954141305 82.31421687734881 31.671070524954132 303.2371799502397 16.51547276197385 42.170531219705076 303.3230855903173 27.68004270882783 28.30288752841343 321.0650026661216 19.453665988887163 39.325680110485635 321.65866462336766 32.31359786828153 21.362214443428336 311.9594978327204 94.7497719294556 46.85699384663333 302.43160514042927 50.21147467301949 44.879444822269285 323.0096353399671 50.212366401465765 31.371659251671833 337.2987622584328 35.36084138744092 15.869041517430087 339.7642695521338 87.50084157082993 28.393041862905978 339.76543283344614 75.75925445090195 34.6799961614768 275.40116535279924 21.131470031706606 34.925516464541026 339.76697066494 50.212692607041376 34.88334104616454 263.7914634087264 28.15436071861876 -0.007064057873576754 267.2745526974016 20.082542672965516 23.57528161252584 254.45116410511974 107.8330585577436 21.066987845320796 263.115040446375 109.20835367512782 51.1156602798654 284.6193092939251 50.21082488349662 49.04406064980679 279.52392857885616 82.15579387665824 44.68390324288519 298.1019527958837 79.89866300543859 49.365121693849254 297.30679503640476 48.7582242126759 44.83229836599577 310.71970993642674 68.16489999556414 48.51945643281715 311.9696046803483 74.04794917771004 40.39423475293668 310.71893353264466 79.92249974205978 -35.86011351356538 244.77026813496008 73.60318277160586 -49.7895977158272 263.9269720610769 50.20499587822454 -42.53913742723931 254.32575713627142 50.20488314816934 -41.35914211477488 259.5998118574462 38.50988002729183 -149.74116981521422 249.82265296390923 -47.805191337767035 -130.28023150566918 255.71890049929982 -44.448278540211206 -150.82808950133597 264.6560036412672 -20.84287011137474 -138.1952077603474 266.90397107338265 -19.244362209406642 -149.7489292928149 217.43984060003038 -47.808296435924426 -130.28016668914987 216.13296318130404 -44.45207398675134 -150.83580830071844 207.42944139161241 -20.848357194927388 -138.1951055531263 204.48209636037967 -19.250347134975165 -54.59409554403435 270.80915992178575 -6.748829956125045 -48.46025459806446 260.6087752856762 -35.226152675565366 -40.50036233673157 259.6997136208167 -5.76501937425177 -36.366869327956564 245.17805519855628 -24.250639929991532 -52.45431799355697 261.83808690375133 17.516011059907143 -41.00890706953255 246.30705267709195 15.460241097491746 -82.85141126201485 203.73203323731164 -17.646890235862426 -82.85034022645377 211.93808474757722 -48.16954107168895 -82.8427915755817 259.5000826765129 -42.9306055928368 -82.8437114330089 272.5445329336977 -17.64029230817734 -153.31362676694206 261.2677856339461 15.676435440693757 -82.8448631292813 268.33828140803314 14.968679531374576 -153.314015209615 249.81356182663785 27.136274770533255 -82.8452285231675 254.16535779974004 25.904820693850485 -153.31396218722065 217.43074947552427 27.133169949947337 -82.84515937019663 211.93098299392102 25.900771318678604 -153.3135386180109 207.43184838146755 15.67127372328542 -82.85256984032539 203.72890669232237 14.96248459367146 -162.2420211026632 204.21075891013686 -21.74750855404358 -165.84273982073816 213.04900655494015 -45.903039210401474 -165.8350443346409 253.83012080170937 -44.48506638872418 -164.27337463895634 267.44513030043163 -21.741517895654876 -240.5543576713859 184.78129859117678 -25.45527880371336 -244.73264380200638 214.5039546751921 -66.26507769726548 -246.2875916220593 258.89407057134036 -60.97962684807408 20.464449701113068 278.7319721034974 113.94344848872232 20.598180156623343 266.74794694774243 106.77881786068656 21.683736436725745 342.98564765337426 38.49346212679089 22.34723381361765 343.0554301826651 50.21224730459518 -34.897908793472105 263.78811820986743 28.151015519755973 19.83070176517666 346.10142352273255 66.087272735368 7.924198624488926 347.3428466184247 70.12582400839126 -26.31658988385663 141.17647041045672 84.13773641968145 -253.97530357579726 256.45597525869454 -54.90200871442717 -254.8121446387142 263.6176296543011 -29.799789165101977 -245.17166776087794 275.757924288598 -26.188907633918717 -255.61896225455286 262.11187337628456 30.223475613274157 -245.1736207453037 275.75265395545364 28.77984207873112 -256.11957649991297 253.45392674432458 47.910127806608386 -246.29905483464282 254.71232531342363 41.965284842431956 -244.9786326267125 214.493696005959 40.72710063871447 -255.353842282399 208.11027258440947 46.92143251588856 -254.21246784847443 192.01066330384194 26.568366851520317 -240.5562333328224 186.71374547433925 27.248031685678818 -251.4214509779614 192.01594193945337 -28.43934626790121 -54.2971468446225 205.28563257277514 -5.809789212566752 -52.016969008692655 214.72028461411134 23.933384037661632 -50.93155927540979 257.37839181446526 84.63431477294027 -43.71528726906061 318.6760734084328 75.02822432189275 -33.03626640112323 317.9415084956173 89.66932605024381 -41.96458651384158 303.7073904808298 75.37915313585549 -31.36393258375011 305.3008164788083 92.73911271927426 -287.6741699673855 198.0710719286243 47.80994666611941 -298.1195908642233 246.47722598837956 48.63452917500164 -309.751756948252 263.4634013512273 29.65918190931645 -325.8824809993302 263.4690108616727 -29.12264096854281 -298.1157054355719 246.4877112247859 -60.724845253320176 -290.9837844450242 188.4772485137275 -32.96452868687187 -290.069131730937 198.08044764465137 -50.01826303693153 -253.35796786575733 216.45619966869413 -57.23394692040538 -300.6265098131661 188.47156468136941 26.1523159808658 -0.012428029889333914 349.03873329708756 50.21146231390784 -0.007563176447950076 247.56217103030068 50.20659769366835 -0.007636366247648145 228.5934324457602 70.68122414387426 -0.006241083462655091 192.70952272182822 77.45936744010912 -58.640236047945606 275.8153803671489 19.01705018821405 -93.93661747859477 254.4784304914083 30.05639205799428 93.9227570896881 254.48743616222805 30.065397728824394 58.62538868256783 275.82100188919014 19.022671710261793 -38.972900793220724 291.05017532270915 98.50368980338095 38.94897402770806 291.0539107698004 98.5074252504765 39.63707479025146 276.8429257347558 100.18646445516718 -39.659800027517456 276.8391243724161 100.18266309282312 -39.322907861190906 262.62847642094926 94.47887296114956 -0.013293576963789924 365.66366471871686 51.64194678589904 54.747578357166425 307.9322066151318 45.555866608355885 54.482213665609564 301.4087039613989 46.649291149303096 51.70819564492703 312.5647752882652 47.60281800541707 -0.012671473349764248 352.9839914802409 51.34446394312538 -0.010868169670565656 253.2778898939843 113.43343419587883 2.4042783774550096 108.00650031287998 73.12189796947735 -54.76804639115718 307.92695661539994 45.55061660861803 -54.5021610839349 301.40347942892214 46.64406661682035 -51.72930411736464 312.559816663893 47.59785938103918 44.050522545708965 315.8053279469751 74.04791884171476 57.67877124473395 247.7122155331279 74.37343269827844 148.47082204088483 67.19527715021658 -133.38086966684293 52.68091950023425 245.7170725617995 28.384374890367535 47.51112278305608 245.14535425882488 -43.521797797736966 49.42771890384326 214.44240160707022 -43.438243569528964 26.532266420941415 220.1865591569217 -5.006235044413141 -80.79056142767455 1.4957994324339836 6.840170783072413 337.77137405399776 238.99586541427703 7.079899380659546 335.87314342440874 240.76581263922168 -39.86822229507773 311.84568532717145 242.5996515610939 39.887750469400544 -26.53938706848581 220.18403895596276 -5.010499563021848 -49.4286372582205 214.42987366924268 -43.441552197945505 -311.85364774817594 242.5717947508965 39.86022922416936 -335.8820609991945 240.73565256999026 -39.89861344509165 -337.7821635267837 238.96552341988246 7.0464620738728145 -47.522434478290734 245.13300988238421 -43.52447819564771 -52.69686519118443 245.71204465018664 28.381643855031474 -44.07447725177215 315.80110337877886 74.04369427351367 -57.6962284901243 247.70668464455323 74.36790180969743 39.30209195812203 262.63224557470164 94.4826421149063 38.55798584194119 36.579659500955586 34.618379801532214 69.5118856494962 32.95614337606381 22.08080115806892 38.557139296239875 20.38298068362687 68.49399731084215 68.12830036143382 17.119465386779453 54.05775834766749 56.09543727138426 91.29278928264591 13.513216088830152 56.237777860481145 90.95781866730765 -21.939201057251804 60.61230190762564 66.89879929892204 12.048461713684402 60.09054188365382 67.33728830450953 -23.38240369840838 15.243837361641653 89.8274594760174 15.756959258443295 14.377738050828565 66.34485190019006 16.53976816915734 16.089309941788468 90.51316696907654 -20.861936429292086 16.06692950890277 68.83252944963529 -21.23184695429489 34.84471516237145 101.71698251955225 18.151284863973803 34.847056398153086 100.6103827014133 -29.580574769156883 36.22903363897176 38.846951124081656 49.60652981532074 67.01893452106104 37.83237451208052 33.13383138029752 0.0023173002492547787 38.84509834399532 52.81574017168738 0.0002269368438796793 89.2430240590827 46.02304608050036 32.46148084074101 89.2443817638729 39.42302122416093 56.89943803654661 89.20715762394332 29.924257470387264 -16.05807057580837 68.83674506746361 -21.235835507556086 -37.041818158978025 68.07397698912291 -33.54120366341199 -60.60644776059957 66.8941220437027 12.040407078372487 -36.903866480860195 66.61738670672487 23.681208729804638 -60.08133299757402 67.32928371473513 -23.382637552971023 -56.89743553133974 89.20175029156582 29.91519562449212 -54.40647544794664 115.58557000704388 29.114693051298573 -32.460393214879396 89.24133614485007 39.42411484328496 -33.87582985156209 116.11666091634893 41.19251834891877 -66.05290624753842 90.3626928963782 12.49786044326559 -61.265174435728746 116.32169339965404 14.27654481754695 -14.372261853085826 66.34503827222004 16.53619921181614 -36.22409039934119 38.84354446926618 49.6072623986517 -67.01231400032498 37.82599717689912 33.12379953159735 -78.01918496096195 37.66159868092346 13.647046194551514 -0.001238158018041812 116.12499991608394 49.703124945761566 36.90863255432878 66.62085852775188 23.680541312685296 13.019545101271202 32.38312272510201 25.843718010775564 37.051930875564615 68.0774622928144 -33.54185759786687 62.77969298402194 33.39332064627328 -23.88045912403038 38.56167035452231 35.47028467631037 -41.131620111427765 14.709241273625553 34.87539122923346 -22.46088853773344 61.266075388006676 116.32620022431915 14.281588840817227 66.05646727826424 90.36897810001918 12.50780016042521 54.406024103485734 115.58801530503915 29.126821220885297 33.874169849104405 116.12377360658914 41.19489761542623 78.02768888524533 37.66901268323004 13.650320958716264 79.26171735144146 1.5026674149540042 57.0653558671615 38.55771761180605 1.499841256736545 75.31340458405762 1.0736737563929275 1.4983754073665523 68.4053576603695 10.713876974891532 17.116351997537976 61.586255994215534 38.5638893763826 1.5015347436550712 -53.45193259727119 64.50844603851158 1.5027784832203963 -37.68506383958907 -9.314050858003432 3.7804895562158265 5.600459785764589 -14.3600270021082 3.7802476603816615 -13.149782131614424 -5.557008751106531 22.616607184306048 2.8350149323204907 -9.806440596840408 26.022653477415204 -12.423001288188527 -6.20295645091244 3.7806386969876655 -30.266578614676362 -1.375879364651981 23.624620121960774 -28.25072216458564 11.875652385389182 1.500255353272479 -38.07821196998871 3.3577256145214074 1.4998470178101684 9.937004749720545 -56.23097193651279 90.95032163141747 -21.941330320046582 -56.092061938619395 91.28087283953786 13.503275028436741 -16.082564671278597 90.50960323013535 -20.867986424838683 -15.240537428621128 89.81969453908881 15.758887680736322 -34.83263091768743 100.60420432717416 -29.58157831378432 -34.84278486773813 101.71538014008956 18.150174628267024 80.80318624585439 1.5035596263852256 6.846967354745027</float_array>
                    <technique_common>
                        <accessor count="600" source="#pointarray0" stride="3">
                            <param name="X" type="float"/>
                            <param name="Y" type="float"/>
                            <param name="Z" type="float"/>
                        </accessor>
                    </technique_common>
                </source>
                <source id="uvs0">
                    <float_array id="uvarray0" count="2">0 1</float_array>
                    <technique_common>
                        <accessor count="1" source="#uvarray0" stride="2">
                            <param name="S" type="float"/>
                            <param name="T" type="float"/>
                        </accessor>
                    </technique_common>
                </source>
                <vertices id="vertices0">
                    <input semantic="POSITION" source="#points0"/>
                </vertices>
                <polylist count="1120" material="Material1">
                    <input offset="0" semantic="VERTEX" source="#vertices0"/>
                    <input offset="1" semantic="TEXCOORD" source="#uvs0" set="0"/>
                    <vcount>3 3 3 3 3 3 3 3 3 3 3 3 3 3 3 3 3 3 3 3 3 3 3 3 3 3 3 3 3 3 3 3 3 3 3 3 3 3 3 3 3 3 3 3 3 3 3 3 3 3 3 3 3 3 3 3 3 3 3 3 3 3 3 3 3 3 3 3 3 3 3 3 3 3 3 3 3 3 3 3 3 3 3 3 3 3 3 3 3 3 3 3 3 3 3 3 3 3 3 3 3 3 3 3 3 3 3 3 3 3 3 3 3 3 3 3 3 3 3 3 3 3 3 3 3 3 3 3 3 3 3 3 3 3 3 3 3 3 3 3 3 3 3 3 3 3 3 3 3 3 3 3 3 3 3 3 3 3 3 3 3 3 3 3 3 3 3 3 3 3 3 3 3 3 3 3 3 3 3 3 3 3 3 3 3 3 3 3 3 3 3 3 3 3 3 3 3 3 3 3 3 3 3 3 3 3 3 3 3 3 3 3 3 3 3 3 3 3 3 3 3 3 3 3 3 3 3 3 3 3 3 3 3 3 3 3 3 3 3 3 3 3 3 3 3 3 3 3 3 3 3 3 3 3 3 3 3 3 3 3 3 3 3 3 3 3 3 3 3 3 3 3 3 3 3 3 3 3 3 3 3 3 3 3 3 3 3 3 3 3 3 3 3 3 3 3 3 3 3 3 3 3 3 3 3 3 3 3 3 3 3 3 3 3 3 3 3 3 3 3 3 3 3 3 3 3 3 3 3 3 3 3 3 3 3 3 3 3 3 3 3 3 3 3 3 3 3 3 3 3 3 3 3 3 3 3 3 3 3 3 3 3 3 3 3 3 3 3 3 3 3 3 3 3 3 3 3 3 3 3 3 3 3 3 3 3 3 3 3 3 3 3 3 3 3 3 3 3 3 3 3 3 3 3 3 3 3 3 3 3 3 3 3 3 3 3 3 3 3 3 3 3 3 3 3 3 3 3 3 3 3 3 3 3 3 3 3 3 3 3 3 3 3 3 3 3 3 3 3 3 3 3 3 3 3 3 3 3 3 3 3 3 3 3 3 3 3 3 3 3 3 3 3 3 3 3 3 3 3 3 3 3 3 3 3 3 3 3 3 3 3 3 3 3 3 3 3 3 3 3 3 3 3 3 3 3 3 3 3 3 3 3 3 3 3 3 3 3 3 3 3 3 3 3 3 3 3 3 3 3 3 3 3 3 3 3 3 3 3 3 3 3 3 3 3 3 3 3 3 3 3 3 3 3 3 3 3 3 3 3 3 3 3 3 3 3 3 3 3 3 3 3 3 3 3 3 3 3 3 3 3 3 3 3 3 3 3 3 3 3 3 3 3 3 3 3 3 3 3 3 3 3 3 3 3 3 3 3 3 3 3 3 3 3 3 3 3 3 3 3 3 3 3 3 3 3 3 3 3 3 3 3 3 3 3 3 3 3 3 3 3 3 3 3 3 3 3 3 3 3 3 3 3 3 3 3 3 3 3 3 3 3 3 3 3 3 3 3 3 3 3 3 3 3 3 3 3 3 3 3 3 3 3 3 3 3 3 3 3 3 3 3 3 3 3 3 3 3 3 3 3 3 3 3 3 3 3 3 3 3 3 3 3 3 3 3 3 3 3 3 3 3 3 3 3 3 3 3 3 3 3 3 3 3 3 3 3 3 3 3 3 3 3 3 3 3 3 3 3 3 3 3 3 3 3 3 3 3 3 3 3 3 3 3 3 3 3 3 3 3 3 3 3 3 3 3 3 3 3 3 3 3 3 3 3 3 3 3 3 3 3 3 3 3 3 3 3 3 3 3 3 3 3 3 3 3 3 3 3 3 3 3 3 3 3 3 3 3 3 3 3 3 3 3 3 3 3 3 3 3 3 3 3 3 3 3 3 3 3 3 3 3 3 3 3 3 3 3 3 3 3 3 3 3 3 3 3 3 3 3 3 3 3 3 3 3 3 3 3 3 3 3 3 3 3 3 3 3 3 3 3 3 3 3 3 3 3 3 3 3 3 3 3 3 3 3 3 3 3 3 3 3 3 3 3 3 3 3 3 3 3 3 3 3 3 3 3 3 3 3 3 3 3 3 3 3 3 3 3 3 3 3 3 3 3 3 3 3 3 3 3 3 3 3 3 3 3 3 3 3 3 3 3 3 3 3 3 3 3 3 3 3 3 3 3 3 3 3 3 3 3 3 3 3 3 3 3 3 3 3 3 3 3 3 3 3 3 3 3 3 3 3 3 3 3 3 3 3 3 3 3 3 3 3 3 3 3 3 3 3 3 3 3 3 3 3 3 3 3 3 3 3 3 3 3 3 3 3 3 3 3 3 3 3 3 3 3 3 3 3 3 3 3 3 3 3 3 3 3 3 3 3 3 3 3 3 3 3 3 3 3 3 3 3 3 3 3 3 3 3 3 3 3 3 3 3 3 3 3 3 3 3 3 3 3 3 3 3 3 3 3 3 3 3 3 3 3 3 3 3 3 3 3 3 3 3 3 3 3 3 3 3 3 3 3 3 3 3 3 3</vcount>
                    <p>2 0 1 0 0 0 3 0 1 0 2 0 6 0 5 0 4 0 7 0 5 0 6 0 9 0 4 0 8 0 6 0 4 0 9 0 12 0 11 0 10 0 13 0 11 0 12 0 16 0 15 0 14 0 17 0 15 0 16 0 20 0 19 0 18 0 21 0 19 0 20 0 18 0 17 0 16 0 19 0 17 0 18 0 18 0 22 0 20 0 23 0 22 0 18 0 23 0 16 0 14 0 18 0 16 0 23 0 26 0 25 0 24 0 27 0 25 0 26 0 8 0 29 0 28 0 4 0 29 0 8 0 4 0 30 0 29 0 5 0 30 0 4 0 33 0 32 0 31 0 34 0 32 0 33 0 37 0 36 0 35 0 38 0 36 0 37 0 41 0 40 0 39 0 42 0 40 0 41 0 42 0 43 0 40 0 44 0 43 0 42 0 47 0 46 0 45 0 48 0 46 0 47 0 49 0 48 0 47 0 50 0 48 0 49 0 37 0 52 0 51 0 35 0 52 0 37 0 54 0 51 0 53 0 37 0 51 0 54 0 45 0 56 0 55 0 46 0 56 0 45 0 27 0 57 0 25 0 58 0 57 0 27 0 61 0 60 0 59 0 62 0 60 0 61 0 59 0 64 0 63 0 60 0 64 0 59 0 65 0 55 0 43 0 66 0 55 0 65 0 67 0 66 0 65 0 68 0 66 0 67 0 60 0 69 0 64 0 70 0 69 0 60 0 28 0 72 0 71 0 73 0 72 0 28 0 71 0 74 0 70 0 72 0 74 0 71 0 74 0 76 0 75 0 77 0 76 0 74 0 72 0 32 0 78 0 73 0 32 0 72 0 72 0 77 0 74 0 78 0 77 0 72 0 81 0 80 0 79 0 82 0 80 0 81 0 79 0 84 0 83 0 80 0 84 0 79 0 83 0 86 0 85 0 84 0 86 0 83 0 85 0 52 0 35 0 86 0 52 0 85 0 49 0 88 0 87 0 47 0 88 0 49 0 85 0 1 0 83 0 89 0 1 0 85 0 78 0 90 0 77 0 91 0 90 0 78 0 77 0 92 0 76 0 90 0 92 0 77 0 95 0 94 0 93 0 96 0 94 0 95 0 99 0 98 0 97 0 100 0 98 0 99 0 103 0 102 0 101 0 104 0 102 0 103 0 107 0 106 0 105 0 108 0 106 0 107 0 110 0 101 0 109 0 103 0 101 0 110 0 111 0 104 0 103 0 112 0 104 0 111 0 115 0 114 0 113 0 116 0 114 0 115 0 119 0 118 0 117 0 120 0 118 0 119 0 123 0 122 0 121 0 124 0 122 0 123 0 125 0 120 0 119 0 126 0 120 0 125 0 129 0 128 0 127 0 130 0 128 0 129 0 133 0 132 0 131 0 134 0 132 0 133 0 121 0 133 0 131 0 135 0 133 0 121 0 136 0 121 0 122 0 135 0 121 0 136 0 137 0 136 0 122 0 138 0 136 0 137 0 140 0 137 0 139 0 138 0 137 0 140 0 128 0 140 0 139 0 130 0 140 0 128 0 132 0 129 0 127 0 134 0 129 0 132 0 141 0 138 0 140 0 142 0 138 0 141 0 130 0 141 0 140 0 143 0 141 0 130 0 25 0 38 0 144 0 57 0 38 0 25 0 24 0 144 0 145 0 25 0 144 0 24 0 148 0 147 0 146 0 149 0 147 0 148 0 31 0 146 0 33 0 148 0 146 0 31 0 37 0 144 0 38 0 54 0 144 0 37 0 150 0 148 0 31 0 151 0 148 0 150 0 150 0 32 0 73 0 31 0 32 0 150 0 151 0 149 0 148 0 152 0 149 0 151 0 29 0 151 0 150 0 30 0 151 0 29 0 28 0 150 0 73 0 29 0 150 0 28 0 5 0 153 0 30 0 154 0 153 0 5 0 157 0 156 0 155 0 158 0 156 0 157 0 161 0 160 0 159 0 162 0 160 0 161 0 156 0 164 0 163 0 158 0 164 0 156 0 165 0 162 0 161 0 166 0 162 0 165 0 39 0 56 0 167 0 40 0 56 0 39 0 40 0 55 0 56 0 43 0 55 0 40 0 7 0 154 0 5 0 168 0 154 0 7 0 171 0 170 0 169 0 172 0 170 0 171 0 174 0 96 0 173 0 175 0 96 0 174 0 176 0 112 0 111 0 177 0 112 0 176 0 180 0 179 0 178 0 181 0 179 0 180 0 182 0 180 0 178 0 183 0 180 0 182 0 185 0 182 0 184 0 183 0 182 0 185 0 188 0 187 0 186 0 189 0 187 0 188 0 186 0 190 0 188 0 191 0 190 0 186 0 192 0 181 0 180 0 193 0 181 0 192 0 183 0 192 0 180 0 194 0 192 0 183 0 197 0 196 0 195 0 198 0 196 0 197 0 201 0 200 0 199 0 202 0 200 0 201 0 204 0 199 0 203 0 201 0 199 0 204 0 207 0 206 0 205 0 208 0 206 0 207 0 205 0 210 0 209 0 206 0 210 0 205 0 213 0 212 0 211 0 214 0 212 0 213 0 216 0 211 0 215 0 213 0 211 0 216 0 219 0 218 0 217 0 220 0 218 0 219 0 217 0 222 0 221 0 218 0 222 0 217 0 221 0 224 0 223 0 222 0 224 0 221 0 225 0 220 0 219 0 226 0 220 0 225 0 220 0 227 0 218 0 228 0 227 0 220 0 218 0 229 0 222 0 227 0 229 0 218 0 230 0 193 0 192 0 231 0 193 0 230 0 193 0 233 0 232 0 231 0 233 0 193 0 233 0 187 0 232 0 234 0 187 0 233 0 190 0 235 0 185 0 191 0 235 0 190 0 235 0 183 0 185 0 194 0 183 0 235 0 236 0 103 0 110 0 111 0 103 0 236 0 237 0 111 0 236 0 176 0 111 0 237 0 236 0 239 0 238 0 110 0 239 0 236 0 237 0 238 0 240 0 236 0 238 0 237 0 242 0 53 0 241 0 54 0 53 0 242 0 244 0 241 0 243 0 242 0 241 0 244 0 245 0 194 0 235 0 246 0 194 0 245 0 191 0 245 0 235 0 247 0 245 0 191 0 248 0 191 0 186 0 247 0 191 0 248 0 186 0 234 0 248 0 187 0 234 0 186 0 178 0 142 0 141 0 179 0 142 0 178 0 143 0 178 0 141 0 182 0 178 0 143 0 184 0 143 0 249 0 182 0 143 0 184 0 181 0 232 0 250 0 193 0 232 0 181 0 232 0 189 0 250 0 187 0 189 0 232 0 253 0 252 0 251 0 254 0 252 0 253 0 254 0 255 0 252 0 256 0 255 0 254 0 198 0 257 0 196 0 258 0 257 0 198 0 9 0 62 0 61 0 8 0 62 0 9 0 47 0 259 0 88 0 45 0 259 0 47 0 91 0 32 0 34 0 78 0 32 0 91 0 85 0 36 0 89 0 35 0 36 0 85 0 261 0 65 0 260 0 67 0 65 0 261 0 260 0 43 0 44 0 65 0 43 0 260 0 146 0 242 0 244 0 147 0 242 0 146 0 0 0 89 0 262 0 1 0 89 0 0 0 264 0 262 0 263 0 0 0 262 0 264 0 45 0 66 0 259 0 55 0 66 0 45 0 34 0 87 0 91 0 49 0 87 0 34 0 90 0 79 0 92 0 81 0 79 0 90 0 62 0 70 0 60 0 71 0 70 0 62 0 8 0 71 0 62 0 28 0 71 0 8 0 265 0 0 0 264 0 2 0 0 0 265 0 12 0 266 0 13 0 267 0 266 0 12 0 34 0 50 0 49 0 33 0 50 0 34 0 222 0 268 0 224 0 229 0 268 0 222 0 226 0 228 0 220 0 269 0 228 0 226 0 228 0 270 0 227 0 271 0 270 0 228 0 227 0 272 0 229 0 270 0 272 0 227 0 229 0 273 0 268 0 272 0 273 0 229 0 269 0 271 0 228 0 274 0 271 0 269 0 275 0 214 0 213 0 276 0 214 0 275 0 277 0 213 0 216 0 275 0 213 0 277 0 280 0 279 0 278 0 281 0 279 0 280 0 284 0 283 0 282 0 285 0 283 0 284 0 287 0 216 0 286 0 277 0 216 0 287 0 280 0 289 0 288 0 278 0 289 0 280 0 276 0 286 0 214 0 287 0 286 0 276 0 290 0 276 0 275 0 203 0 276 0 290 0 200 0 275 0 277 0 290 0 275 0 200 0 199 0 277 0 287 0 200 0 277 0 199 0 203 0 287 0 276 0 199 0 287 0 203 0 252 0 291 0 251 0 255 0 291 0 252 0 293 0 195 0 292 0 197 0 195 0 293 0 258 0 292 0 257 0 293 0 292 0 258 0 294 0 251 0 291 0 253 0 251 0 294 0 295 0 293 0 258 0 296 0 293 0 295 0 175 0 94 0 96 0 297 0 94 0 175 0 296 0 197 0 293 0 298 0 197 0 296 0 298 0 198 0 197 0 299 0 198 0 298 0 299 0 258 0 198 0 295 0 258 0 299 0 98 0 173 0 300 0 174 0 173 0 98 0 172 0 301 0 170 0 302 0 301 0 172 0 170 0 304 0 303 0 301 0 304 0 170 0 307 0 306 0 305 0 308 0 306 0 307 0 297 0 309 0 94 0 310 0 309 0 297 0 208 0 311 0 206 0 312 0 311 0 208 0 206 0 313 0 210 0 311 0 313 0 206 0 312 0 314 0 311 0 315 0 314 0 312 0 269 0 316 0 274 0 317 0 316 0 269 0 319 0 273 0 318 0 268 0 273 0 319 0 321 0 318 0 320 0 319 0 318 0 321 0 317 0 320 0 316 0 321 0 320 0 317 0 226 0 317 0 269 0 322 0 317 0 226 0 323 0 268 0 319 0 224 0 268 0 323 0 326 0 325 0 324 0 327 0 325 0 326 0 328 0 201 0 204 0 329 0 201 0 328 0 107 0 331 0 330 0 105 0 331 0 107 0 330 0 115 0 332 0 331 0 115 0 330 0 332 0 113 0 333 0 115 0 113 0 332 0 333 0 99 0 334 0 113 0 99 0 333 0 334 0 97 0 335 0 99 0 97 0 334 0 335 0 337 0 336 0 97 0 337 0 335 0 329 0 202 0 201 0 338 0 202 0 329 0 341 0 340 0 339 0 342 0 340 0 341 0 338 0 343 0 202 0 344 0 343 0 338 0 347 0 346 0 345 0 348 0 346 0 347 0 286 0 215 0 349 0 216 0 215 0 286 0 214 0 349 0 212 0 286 0 349 0 214 0 281 0 284 0 279 0 285 0 284 0 281 0 310 0 339 0 309 0 341 0 339 0 310 0 257 0 351 0 350 0 292 0 351 0 257 0 292 0 352 0 351 0 195 0 352 0 292 0 355 0 354 0 353 0 356 0 354 0 355 0 195 0 357 0 352 0 196 0 357 0 195 0 196 0 350 0 357 0 257 0 350 0 196 0 346 0 359 0 358 0 348 0 359 0 346 0 362 0 361 0 360 0 363 0 361 0 362 0 363 0 364 0 361 0 365 0 364 0 363 0 360 0 367 0 366 0 361 0 367 0 360 0 361 0 368 0 367 0 364 0 368 0 361 0 371 0 370 0 369 0 372 0 370 0 371 0 374 0 369 0 373 0 371 0 369 0 374 0 376 0 289 0 375 0 288 0 289 0 376 0 378 0 283 0 377 0 282 0 283 0 378 0 345 0 358 0 379 0 346 0 358 0 345 0 380 0 319 0 321 0 323 0 319 0 380 0 322 0 321 0 317 0 380 0 321 0 322 0 225 0 322 0 226 0 381 0 322 0 225 0 382 0 224 0 323 0 223 0 224 0 382 0 383 0 323 0 380 0 382 0 323 0 383 0 381 0 380 0 322 0 383 0 380 0 381 0 376 0 385 0 384 0 375 0 385 0 376 0 384 0 378 0 377 0 385 0 378 0 384 0 388 0 387 0 386 0 389 0 387 0 388 0 390 0 356 0 355 0 391 0 356 0 390 0 394 0 393 0 392 0 395 0 393 0 394 0 171 0 392 0 172 0 394 0 392 0 171 0 396 0 96 0 95 0 173 0 96 0 396 0 370 0 173 0 396 0 300 0 173 0 370 0 395 0 397 0 393 0 398 0 397 0 395 0 106 0 395 0 394 0 399 0 395 0 106 0 105 0 394 0 171 0 106 0 394 0 105 0 400 0 300 0 370 0 337 0 300 0 400 0 401 0 370 0 372 0 400 0 370 0 401 0 172 0 402 0 302 0 392 0 402 0 172 0 399 0 398 0 395 0 403 0 398 0 399 0 402 0 324 0 404 0 326 0 324 0 402 0 302 0 404 0 405 0 402 0 404 0 302 0 407 0 353 0 406 0 340 0 353 0 407 0 327 0 386 0 325 0 388 0 386 0 327 0 392 0 326 0 402 0 393 0 326 0 392 0 397 0 409 0 408 0 410 0 409 0 397 0 411 0 348 0 347 0 359 0 348 0 411 0 412 0 363 0 362 0 413 0 363 0 412 0 413 0 365 0 363 0 414 0 365 0 413 0 416 0 415 0 391 0 417 0 415 0 416 0 304 0 417 0 416 0 418 0 417 0 304 0 169 0 303 0 116 0 170 0 303 0 169 0 421 0 420 0 419 0 422 0 420 0 421 0 420 0 423 0 419 0 424 0 423 0 420 0 423 0 426 0 425 0 424 0 426 0 423 0 429 0 428 0 427 0 430 0 428 0 429 0 432 0 427 0 431 0 429 0 427 0 432 0 424 0 433 0 426 0 434 0 433 0 424 0 435 0 424 0 420 0 434 0 424 0 435 0 422 0 435 0 420 0 436 0 435 0 422 0 439 0 438 0 437 0 440 0 438 0 439 0 442 0 439 0 441 0 440 0 439 0 442 0 443 0 442 0 441 0 444 0 442 0 443 0 433 0 443 0 426 0 444 0 443 0 433 0 446 0 425 0 445 0 423 0 425 0 446 0 419 0 446 0 447 0 423 0 446 0 419 0 448 0 419 0 447 0 421 0 419 0 448 0 450 0 445 0 449 0 446 0 445 0 450 0 447 0 450 0 451 0 446 0 450 0 447 0 93 0 309 0 452 0 94 0 309 0 93 0 452 0 339 0 453 0 309 0 339 0 452 0 454 0 403 0 399 0 455 0 403 0 454 0 108 0 399 0 106 0 454 0 399 0 108 0 116 0 307 0 114 0 303 0 307 0 116 0 331 0 116 0 115 0 169 0 116 0 331 0 105 0 169 0 331 0 171 0 169 0 105 0 406 0 354 0 387 0 353 0 354 0 406 0 97 0 300 0 337 0 98 0 300 0 97 0 342 0 353 0 340 0 355 0 353 0 342 0 302 0 456 0 301 0 405 0 456 0 302 0 301 0 418 0 304 0 456 0 418 0 301 0 457 0 400 0 401 0 458 0 400 0 457 0 458 0 337 0 400 0 336 0 337 0 458 0 240 0 112 0 177 0 238 0 112 0 240 0 238 0 104 0 112 0 239 0 104 0 238 0 110 0 459 0 239 0 109 0 459 0 110 0 239 0 102 0 104 0 459 0 102 0 239 0 453 0 340 0 407 0 339 0 340 0 453 0 455 0 401 0 403 0 457 0 401 0 455 0 461 0 451 0 460 0 462 0 451 0 461 0 464 0 461 0 463 0 462 0 461 0 464 0 465 0 464 0 463 0 466 0 464 0 465 0 466 0 468 0 467 0 465 0 468 0 466 0 469 0 467 0 468 0 470 0 467 0 469 0 449 0 469 0 471 0 470 0 469 0 449 0 473 0 444 0 472 0 442 0 444 0 473 0 438 0 422 0 437 0 436 0 422 0 438 0 311 0 474 0 313 0 314 0 474 0 311 0 343 0 203 0 290 0 204 0 203 0 343 0 202 0 290 0 200 0 343 0 290 0 202 0 475 0 98 0 100 0 476 0 98 0 475 0 477 0 476 0 475 0 478 0 476 0 477 0 351 0 328 0 344 0 352 0 328 0 351 0 352 0 329 0 328 0 357 0 329 0 352 0 357 0 338 0 329 0 350 0 338 0 357 0 350 0 344 0 338 0 351 0 344 0 350 0 408 0 388 0 327 0 409 0 388 0 408 0 308 0 391 0 306 0 416 0 391 0 308 0 344 0 204 0 343 0 328 0 204 0 344 0 462 0 447 0 451 0 448 0 447 0 462 0 437 0 462 0 464 0 448 0 462 0 437 0 466 0 437 0 464 0 439 0 437 0 466 0 441 0 466 0 467 0 439 0 466 0 441 0 470 0 441 0 467 0 443 0 441 0 470 0 445 0 470 0 449 0 443 0 470 0 445 0 134 0 185 0 184 0 190 0 185 0 134 0 188 0 134 0 133 0 190 0 134 0 188 0 135 0 188 0 133 0 189 0 188 0 135 0 250 0 135 0 136 0 189 0 135 0 250 0 179 0 250 0 136 0 181 0 250 0 179 0 249 0 130 0 129 0 143 0 130 0 249 0 465 0 479 0 468 0 480 0 479 0 465 0 480 0 463 0 481 0 465 0 463 0 480 0 463 0 482 0 481 0 461 0 482 0 463 0 482 0 460 0 483 0 461 0 460 0 482 0 485 0 471 0 484 0 486 0 471 0 485 0 471 0 487 0 484 0 469 0 487 0 471 0 487 0 468 0 479 0 469 0 468 0 487 0 486 0 449 0 471 0 450 0 449 0 486 0 451 0 486 0 460 0 450 0 486 0 451 0 387 0 389 0 406 0 356 0 391 0 415 0 454 0 108 0 488 0 324 0 325 0 489 0 325 0 386 0 489 0 61 0 12 0 9 0 59 0 12 0 61 0 13 0 263 0 490 0 491 0 89 0 36 0 82 0 81 0 87 0 82 0 88 0 259 0 64 0 493 0 492 0 493 0 266 0 492 0 492 0 266 0 267 0 12 0 59 0 267 0 63 0 64 0 492 0 68 0 259 0 66 0 243 0 46 0 48 0 154 0 495 0 494 0 7 0 6 0 12 0 13 0 490 0 58 0 491 0 36 0 38 0 174 0 476 0 478 0 478 0 477 0 305 0 305 0 477 0 307 0 475 0 307 0 477 0 305 0 496 0 478 0 475 0 100 0 114 0 100 0 113 0 114 0 174 0 98 0 476 0 308 0 307 0 303 0 297 0 496 0 310 0 333 0 488 0 332 0 334 0 488 0 333 0 335 0 488 0 334 0 336 0 488 0 335 0 330 0 488 0 107 0 332 0 488 0 330 0 418 0 489 0 417 0 417 0 489 0 415 0 336 0 458 0 488 0 108 0 107 0 488 0 69 0 74 0 75 0 69 0 70 0 74 0 265 0 493 0 75 0 491 0 490 0 262 0 490 0 263 0 262 0 493 0 265 0 266 0 266 0 265 0 264 0 2 0 75 0 76 0 83 0 92 0 79 0 68 0 82 0 259 0 81 0 90 0 91 0 491 0 262 0 89 0 267 0 59 0 63 0 492 0 267 0 63 0 455 0 454 0 488 0 410 0 497 0 409 0 371 0 398 0 372 0 410 0 373 0 497 0 372 0 398 0 403 0 497 0 498 0 409 0 243 0 50 0 244 0 494 0 495 0 11 0 495 0 10 0 11 0 12 0 10 0 7 0 168 0 495 0 154 0 167 0 56 0 46 0 13 0 58 0 11 0 11 0 58 0 27 0 494 0 152 0 153 0 13 0 266 0 263 0 266 0 264 0 263 0 493 0 69 0 75 0 2 0 265 0 75 0 493 0 64 0 69 0 3 0 2 0 76 0 3 0 76 0 92 0 81 0 91 0 87 0 82 0 87 0 88 0 3 0 92 0 83 0 3 0 83 0 1 0 478 0 297 0 175 0 499 0 310 0 496 0 416 0 308 0 304 0 308 0 303 0 304 0 500 0 306 0 391 0 341 0 310 0 500 0 381 0 225 0 501 0 283 0 384 0 377 0 288 0 384 0 283 0 282 0 378 0 385 0 289 0 385 0 375 0 288 0 376 0 384 0 282 0 385 0 289 0 503 0 411 0 502 0 502 0 411 0 347 0 358 0 411 0 379 0 379 0 411 0 503 0 502 0 347 0 504 0 347 0 345 0 504 0 345 0 502 0 504 0 349 0 215 0 505 0 215 0 211 0 505 0 211 0 212 0 505 0 383 0 381 0 501 0 382 0 383 0 501 0 415 0 489 0 356 0 356 0 489 0 354 0 405 0 489 0 456 0 456 0 489 0 418 0 100 0 99 0 113 0 475 0 114 0 307 0 175 0 174 0 478 0 355 0 342 0 390 0 177 0 506 0 240 0 109 0 507 0 459 0 459 0 507 0 102 0 500 0 391 0 390 0 496 0 297 0 478 0 305 0 306 0 496 0 496 0 306 0 499 0 177 0 176 0 506 0 109 0 101 0 507 0 101 0 102 0 507 0 217 0 501 0 219 0 221 0 501 0 217 0 223 0 501 0 221 0 219 0 501 0 225 0 283 0 285 0 281 0 288 0 283 0 281 0 282 0 279 0 284 0 289 0 278 0 279 0 288 0 281 0 280 0 282 0 289 0 279 0 509 0 508 0 294 0 508 0 253 0 294 0 255 0 256 0 294 0 256 0 509 0 294 0 508 0 510 0 253 0 341 0 500 0 342 0 500 0 390 0 342 0 379 0 503 0 502 0 379 0 502 0 345 0 359 0 411 0 358 0 413 0 412 0 511 0 414 0 413 0 511 0 366 0 367 0 512 0 367 0 368 0 512 0 295 0 299 0 513 0 299 0 298 0 513 0 298 0 296 0 513 0 296 0 295 0 513 0 212 0 349 0 505 0 386 0 387 0 489 0 387 0 354 0 489 0 405 0 404 0 489 0 404 0 324 0 489 0 372 0 403 0 401 0 371 0 397 0 398 0 95 0 373 0 396 0 406 0 389 0 407 0 123 0 121 0 514 0 118 0 515 0 117 0 516 0 139 0 124 0 124 0 517 0 516 0 15 0 166 0 14 0 164 0 159 0 163 0 14 0 165 0 161 0 161 0 159 0 164 0 163 0 160 0 162 0 163 0 162 0 15 0 518 0 157 0 155 0 518 0 22 0 157 0 518 0 155 0 156 0 21 0 22 0 518 0 15 0 19 0 156 0 21 0 20 0 22 0 19 0 21 0 518 0 19 0 518 0 156 0 15 0 17 0 19 0 230 0 192 0 246 0 421 0 437 0 422 0 136 0 138 0 142 0 136 0 142 0 179 0 184 0 249 0 134 0 519 0 233 0 231 0 246 0 192 0 194 0 519 0 231 0 520 0 521 0 247 0 248 0 519 0 521 0 233 0 519 0 520 0 245 0 521 0 234 0 233 0 521 0 248 0 234 0 520 0 246 0 245 0 520 0 231 0 230 0 515 0 516 0 117 0 119 0 117 0 517 0 123 0 514 0 125 0 517 0 123 0 125 0 122 0 124 0 137 0 137 0 124 0 139 0 472 0 522 0 473 0 523 0 430 0 522 0 522 0 429 0 432 0 485 0 483 0 486 0 524 0 487 0 479 0 526 0 482 0 525 0 526 0 487 0 524 0 524 0 480 0 481 0 524 0 479 0 480 0 525 0 482 0 483 0 525 0 485 0 484 0 443 0 425 0 426 0 527 0 523 0 434 0 527 0 430 0 523 0 429 0 522 0 430 0 473 0 432 0 528 0 526 0 525 0 484 0 483 0 460 0 486 0 500 0 310 0 499 0 526 0 484 0 487 0 519 0 247 0 521 0 519 0 245 0 247 0 520 0 230 0 246 0 253 0 510 0 254 0 254 0 510 0 508 0 256 0 508 0 509 0 522 0 432 0 473 0 444 0 433 0 472 0 433 0 434 0 472 0 473 0 528 0 442 0 256 0 254 0 508 0 291 0 255 0 294 0 205 0 529 0 207 0 209 0 529 0 205 0 315 0 530 0 314 0 314 0 530 0 474 0 306 0 500 0 499 0 428 0 430 0 527 0 523 0 472 0 434 0 472 0 523 0 522 0 24 0 152 0 26 0 494 0 153 0 154 0 145 0 149 0 24 0 145 0 147 0 149 0 244 0 50 0 33 0 243 0 48 0 50 0 145 0 54 0 147 0 145 0 144 0 54 0 153 0 152 0 151 0 153 0 151 0 30 0 26 0 152 0 494 0 491 0 57 0 490 0 490 0 57 0 58 0 494 0 11 0 26 0 11 0 27 0 26 0 24 0 149 0 152 0 54 0 242 0 147 0 167 0 46 0 243 0 244 0 33 0 146 0 491 0 38 0 57 0 373 0 95 0 93 0 498 0 497 0 452 0 327 0 326 0 408 0 396 0 369 0 370 0 371 0 374 0 397 0 410 0 397 0 374 0 373 0 410 0 374 0 408 0 393 0 397 0 396 0 373 0 369 0 497 0 373 0 93 0 531 0 389 0 388 0 531 0 498 0 452 0 409 0 498 0 531 0 408 0 326 0 393 0 531 0 388 0 409 0 453 0 531 0 452 0 93 0 452 0 497 0 531 0 407 0 389 0 453 0 407 0 531 0 223 0 382 0 501 0 163 0 15 0 156 0 162 0 166 0 15 0 166 0 165 0 14 0 14 0 161 0 164 0 159 0 160 0 163 0 525 0 483 0 485 0 526 0 481 0 482 0 526 0 524 0 481 0 440 0 442 0 528 0 527 0 434 0 435 0 436 0 428 0 435 0 438 0 440 0 431 0 428 0 527 0 435 0 438 0 431 0 427 0 436 0 427 0 428 0 438 0 427 0 436 0 440 0 528 0 431 0 431 0 528 0 432 0 443 0 445 0 425 0 448 0 437 0 421 0 10 0 168 0 7 0 495 0 168 0 10 0 6 0 9 0 12 0 457 0 455 0 488 0 458 0 457 0 488 0 249 0 129 0 134 0 515 0 139 0 516 0 131 0 514 0 121 0 515 0 128 0 139 0 127 0 128 0 118 0 132 0 126 0 131 0 118 0 128 0 515 0 132 0 120 0 126 0 127 0 118 0 120 0 132 0 127 0 120 0 131 0 126 0 514 0 126 0 125 0 514 0 517 0 125 0 119 0 516 0 517 0 117 0 124 0 123 0 517 0 534 0 533 0 532 0 535 0 533 0 534 0 538 0 537 0 536 0 539 0 537 0 538 0 542 0 541 0 540 0 543 0 541 0 542 0 536 0 545 0 544 0 537 0 545 0 536 0 545 0 540 0 544 0 542 0 540 0 545 0 41 0 546 0 42 0 547 0 546 0 41 0 42 0 548 0 44 0 546 0 548 0 42 0 548 0 550 0 549 0 546 0 550 0 548 0 546 0 551 0 550 0 547 0 551 0 546 0 158 0 552 0 164 0 553 0 552 0 158 0 23 0 554 0 22 0 555 0 554 0 23 0 157 0 553 0 158 0 556 0 553 0 157 0 559 0 558 0 557 0 560 0 558 0 559 0 557 0 562 0 561 0 558 0 562 0 557 0 14 0 555 0 23 0 563 0 555 0 14 0 548 0 559 0 564 0 549 0 559 0 548 0 565 0 260 0 564 0 261 0 260 0 565 0 564 0 557 0 565 0 559 0 557 0 564 0 565 0 561 0 566 0 557 0 561 0 565 0 566 0 67 0 261 0 561 0 67 0 566 0 260 0 548 0 564 0 44 0 548 0 260 0 86 0 567 0 52 0 560 0 567 0 86 0 84 0 560 0 86 0 558 0 560 0 84 0 569 0 568 0 541 0 532 0 568 0 569 0 571 0 570 0 539 0 572 0 570 0 571 0 532 0 538 0 568 0 533 0 538 0 532 0 572 0 543 0 570 0 573 0 543 0 572 0 541 0 573 0 569 0 543 0 573 0 541 0 539 0 533 0 571 0 538 0 533 0 539 0 575 0 167 0 574 0 39 0 167 0 575 0 551 0 574 0 576 0 575 0 574 0 551 0 550 0 576 0 577 0 551 0 576 0 550 0 549 0 577 0 567 0 550 0 577 0 549 0 243 0 574 0 167 0 241 0 574 0 243 0 241 0 576 0 574 0 53 0 576 0 241 0 53 0 577 0 576 0 51 0 577 0 53 0 51 0 567 0 577 0 52 0 567 0 51 0 578 0 39 0 575 0 41 0 39 0 578 0 547 0 575 0 551 0 578 0 575 0 547 0 535 0 580 0 579 0 534 0 580 0 535 0 534 0 581 0 580 0 582 0 581 0 534 0 571 0 583 0 572 0 584 0 583 0 571 0 587 0 586 0 585 0 588 0 586 0 587 0 588 0 589 0 586 0 590 0 589 0 588 0 583 0 573 0 572 0 591 0 573 0 583 0 582 0 592 0 581 0 569 0 592 0 582 0 532 0 582 0 534 0 569 0 582 0 532 0 554 0 593 0 556 0 594 0 593 0 554 0 595 0 563 0 552 0 596 0 563 0 595 0 556 0 22 0 554 0 157 0 22 0 556 0 563 0 164 0 552 0 14 0 164 0 563 0 597 0 596 0 595 0 598 0 596 0 597 0 594 0 597 0 593 0 598 0 597 0 594 0 549 0 560 0 559 0 567 0 560 0 549 0 561 0 68 0 67 0 562 0 68 0 561 0 82 0 562 0 80 0 68 0 562 0 82 0 80 0 558 0 84 0 562 0 558 0 80 0 544 0 540 0 568 0 568 0 540 0 541 0 536 0 568 0 538 0 570 0 537 0 539 0 542 0 570 0 543 0 595 0 552 0 553 0 553 0 556 0 593 0 547 0 41 0 578 0 594 0 554 0 555 0 261 0 565 0 566 0 555 0 563 0 596 0 597 0 595 0 553 0 598 0 594 0 555 0 597 0 553 0 593 0 598 0 555 0 596 0 579 0 599 0 533 0 592 0 580 0 581 0 580 0 583 0 599 0 580 0 599 0 579 0 579 0 533 0 535 0 592 0 583 0 580 0 599 0 584 0 571 0 591 0 592 0 586 0 591 0 586 0 589 0 588 0 573 0 590 0 569 0 588 0 587 0 573 0 591 0 590 0 592 0 569 0 585 0 590 0 591 0 589 0 569 0 573 0 588 0 585 0 569 0 587 0 586 0 592 0 585 0 591 0 583 0 592 0 599 0 583 0 584 0 599 0 571 0 533 0 545 0 570 0 542 0 544 0 568 0 536 0 545 0 537 0 570 0</p>
                </polylist>
            </mesh>
        </geometry>
    </library_geometries>
    <library_controllers>
        <controller id="controller0">
            <skin source="#mesh0">
                <bind_shape_matrix>1 0 0 0 0 1 0 0 0 0 1 0 0 0 0 1</bind_shape_matrix>
                <source id="joints0">
                    <Name_array id="JointArr0" count="35">jointnode-1 jointnode0 jointnode1 jointnode2 jointnode3 jointnode4 jointnode5 jointnode6 jointnode7 jointnode8 jointnode9 jointnode10 jointnode11 jointnode12 jointnode13 jointnode14 jointnode15 jointnode16 jointnode17 jointnode18 jointnode19 jointnode20 jointnode21 jointnode22 jointnode23 jointnode24 jointnode25 jointnode26 jointnode27 jointnode28 jointnode29 jointnode30 jointnode31 jointnode32 jointnode33</Name_array>
                    <technique_common>
                        <accessor source="#JointArr0" count="35">
                            <param name="JOINT" type="Name" />
                        </accessor>
                    </technique_common>
                </source>
                <source id="matrices0">
                    <float_array id="MatArr0" count="560">1 0 0 0 0 1 0 0 0 0 1 0 0 0 0 1 1 0 0 0 0 1 0 0 0 0 1 0 0 0 0 1 1 0 0 0 0 1 0 -125.14652252197266 0 0 1 0 0 0 0 1 1 0 0 0 0 1 0 0 0 0 1 -100 0 0 0 1 1 0 0 -100 0 1 0 0 0 0 1 0 0 0 0 1 1 0 0 100 0 1 0 0 0 0 1 0 0 0 0 1 1 0 0 0 0 1 0 -93 0 0 1 0 0 0 0 1 0.00004793836256601856 -0.9999999988509567 -4.386559881474326e-18 137.49999984200656 0.00004793836251091911 2.2980866055094973e-9 -0.9999999988509567 2.499999681140483 0.9999999977019134 0.00004793836251091911 0.00004793836256601856 -0.006711370751666425 0 0 0 1 0.00004782332063778632 -0.9999971262495844 0.0023969158313184714 124.99964171829647 -0.0000480531290230205 0.0023969135332384717 0.9999971262440761 -0.29961511597924 -0.9999999977019134 -0.00004793836251091881 -0.00004793836256589609 37.00671137075166 0 0 0 1 0.00004782332063778632 -0.9999971262495844 0.0023969158313184714 67.49964171829649 -0.0000480531290230205 0.0023969135332384717 0.9999971262440761 -1.4008841227083664 -0.9999999977019134 -0.00004793836251091881 -0.00004793836256589609 37.00671137075167 0 0 0 1 0.00004793836256601826 -0.9999999988509566 -4.826125313346229e-18 22.49968605221886 -0.000047938362510796644 -2.298086605503612e-9 0.9999999988509567 0.008468729012002334 -0.9999999977019135 -0.00004793836251091881 -0.000047938362565896096 37.00671137075167 0 0 0 1 -0.00004793606436910788 -0.00004794066059752197 0.9999999977019134 -39.991171702366906 -0.00004794066059753787 0.9999999977018031 0.00004793836251092393 -7.501603172127032 -0.9999999977019135 -0.00004793836251091881 -0.0000479383625658961 35.13171232442598 0 0 0 1 0.000047818713241344304 -0.999996891845205 0.0024927922697969397 124.99961051507236 -0.00004805771394552241 0.002492789971717479 0.9999968918394764 -0.31159775878161794 -0.9999999977019135 -0.00004793836251091882 -0.00004793836256589611 -36.993288629248326 0 0 0 1 0.000047823320637786314 -0.9999971262495845 0.002396915831318472 67.4996982663124 -0.00004805312902302051 0.0023969135332384717 0.9999971262440762 -1.3894651377945462 -0.9999999977019134 -0.000047938362510918806 -0.0000479383625658961 -36.99328762924834 0 0 0 1 0.00004793836256601825 -0.9999999988509567 -4.392444444352028e-18 22.499672397940877 -0.00004793836251079665 -2.2980866059372924e-9 0.9999999988509568 0.00751876100357246 -0.9999999977019135 -0.000047938362510918806 -0.00004793836256589611 -36.99328662924834 0 0 0 1 -0.000047936064369107886 -0.00004794066059752241 0.9999999977019135 -39.9921216710288 -0.000047940660597537865 0.9999999977018033 0.0000479383625109235 -7.501589563388977 -0.9999999977019135 -0.000047938362510918806 -0.000047938362565896116 -35.11828758292266 0 0 0 1 -0.000058713617795048536 0.965915484345868 0.25885763201729006 -170.51237327745616 -0.00003389519569432086 -0.2588576342370475 0.9659154849407453 37.651065971063886 0.9999999977019135 0.00004793836251091912 0.000047938362566018563 -0.006710370751668949 0 0 0 1 -0.00006370548882742022 0.42257722554517396 0.9063269191589503 -129.44816341383935 0.000023190168153741 -0.9063269201300692 0.42257722762799177 229.209894998565 0.9999999977019134 0.00004793836251091912 0.000047938362566018563 -0.006711370751666424 0 0 0 1 -0.00004793606436923036 -0.000047940660597482686 0.9999999977019136 -34.81191714682002 0.00004794066059753818 -0.9999999977018035 -0.00004793836251077582 270.14270264601845 0.9999999977019134 0.00004793836251091912 0.00004793836256601857 -0.006711370751666424 0 0 0 1 -0.00004793606436923036 -0.000047940660597482686 0.9999999977019136 -34.81191714682002 0.00004794066059753818 -0.9999999977018035 -0.00004793836251077582 270.14270264601845 0.9999999977019134 0.00004793836251091912 0.00004793836256601857 -0.006711370751666424 0 0 0 1 -0.00006779508197298451 0.7070220298179067 0.7071915191488048 -257.6505723683458 8.125002052705607e-9 -0.7071915207736028 0.7070220314430941 187.92557142714367 0.9999999977019134 0.000047938362510919124 0.00004793836256601857 -0.006714370751772538 0 0 0 1 0.9999999937382356 0.00009424276915255065 0.00006034757352756114 -42.088198092327026 -0.00006033853753039688 -0.00009587990486030716 0.9999999935831527 -5.030414436130113 0.00009424855466745052 -0.9999999909626723 -0.00009587421778905237 232.32624308908066 0 0 0 1 0.9999904261750173 0.0000938282239882645 0.004374786231528593 -91.31202091131395 0.004374777196284624 0.00009628561718526283 -0.9999904259809506 -8.205960667471855 -0.00009424855466744996 0.9999999909626722 0.00009587421778892991 -233.1288890703924 0 0 0 1 0.9999857721696648 0.00009373586538076876 0.005333542146341052 -162.28766922620122 0.005333533111287301 0.00009637553234538999 -0.9999857719669354 -9.315062013702452 -0.00009424855466744996 0.9999999909626722 0.00009587421778892991 -233.12877007039577 0 0 0 1 0.9999999937382356 0.00009424276915255062 0.00006034757352756202 -237.22348335051322 -0.00009424566202846592 0.9999999944099547 0.000047935855420453135 -233.12910166890552 -0.00006034305558245018 -0.00004794154261732291 0.9999999970301623 7.057617663067584 0 0 0 1 0.9999999937382356 0.00009424276915255062 0.00006034757352756202 -237.22348335051322 -0.00009424566202846592 0.9999999944099547 0.000047935855420453135 -233.12910166890552 -0.00006034305558245018 -0.00004794154261732291 0.9999999970301623 7.057617663067584 0 0 0 1 -0.9999999993675048 -0.0000016339557591210803 -0.000035529151494309486 -41.640237556599395 -0.00003552899466944897 -0.00009587871553144504 0.9999999947724816 -5.0304209800884125 -0.000001637362239988157 0.9999999954023013 0.00009587865741798285 -232.32626751693024 0 0 0 1 -0.9999999993675048 -0.0000016339557591210805 -0.00003552915149430949 -91.53920529951932 0.00003552899466944897 0.0000958787155315675 -0.9999999947724816 -7.811917581923337 0.0000016373622399881615 -0.9999999954023013 -0.00009587865741810531 233.12891349824204 0 0 0 1 -0.9999999993675048 -0.0000016339557591210805 -0.00003552915149430949 -162.52370999922638 0.00003552899466944897 0.0000958787155315675 -0.9999999947724816 -8.620698609717222 0.0000016373622399881615 -0.9999999954023013 -0.00009587865741810531 233.1308134982741 0 0 0 1 -0.9999999993675048 -0.0000016339557591210803 -0.000035529151494309486 -237.41895078291776 -0.0000016356590362786915 0.9999999988495266 0.000047940294992532895 -233.13150534563925 0.00003552907312108933 0.000047940353075802494 -0.9999999982197041 -7.3548506250633725 0 0 0 1 -0.9999999993675048 -0.0000016339557591210803 -0.000035529151494309486 -237.41895078291776 -0.0000016356590362786915 0.9999999988495266 0.000047940294992532895 -233.13150534563925 0.00003552907312108933 0.000047940353075802494 -0.9999999982197041 -7.3548506250633725 0 0 0 1 -0.00006497993935398544 0.47609605501609975 0.8793932807201308 -142.93448219390152 0.000019333408579237113 -0.8793932818142407 0.4760960570370218 173.42021039154895 0.9999999977019134 0.00004793836251091911 0.000047938362566018563 -0.006711370751666424 0 0 0 1 0.00004609846769127282 -0.9992902085644959 0.03767063766460643 171.2799142706723 0.00004971020501120493 -0.037670635368150955 -0.9992902084779256 69.1570749074872 0.9999999977019134 0.00004793836251091911 0.000047938362566018563 -0.006710370751668949 0 0 0 1 0.00005095541360545738 -0.9978817226805179 -0.06505432302090859 147.02613604652703 0.00004471821809996589 0.06505432531412722 -0.9978817228300183 55.23939033760153 0.9999999977019135 0.00004793836251091912 0.00004793836256601857 -0.00671037075166895 0 0 0 1 0.000048222476669046967 -0.999982331199505 -0.0059443219459814406 116.86617214785487 -0.0000476525544921875 -0.005944324244027465 0.9999823312131657 -61.46379175371459 -0.9999999977019137 -0.00004793836251091985 -0.00004793836256589611 0.006710370751661424 0 0 0 1</float_array>
                    <technique_common>
                        <accessor source="#MatArr0" count="35" stride="16">
                            <param type="float4x4" />
                        </accessor>
                    </technique_common>
                </source>
                <source id="weights0">
                    <float_array id="WeightArr0" count="1">1</float_array>
                    <technique_common>
                        <accessor source="#WeightArr0" count="1">
                            <param type="float" />
                        </accessor>
                    </technique_common>
                </source>
                <joints>
                    <input semantic="JOINT" source="#joints0" />
                    <input semantic="INV_BIND_MATRIX" source="#matrices0" />
                </joints>
                <vertex_weights count="600">
                    <input semantic="JOINT" offset="0" source="#joints0" />
                    <input semantic="WEIGHT" offset="1" source="#weights0" />
                    <vcount>1 1 1 1 1 1 1 1 1 1 1 1 1 1 1 1 1 1 1 1 1 1 1 1 1 1 1 1 1 1 1 1 1 1 1 1 1 1 1 1 1 1 1 1 1 1 1 1 1 1 1 1 1 1 1 1 1 1 1 1 1 1 1 1 1 1 1 1 1 1 1 1 1 1 1 1 1 1 1 1 1 1 1 1 1 1 1 1 1 1 1 1 1 1 1 1 1 1 1 1 1 1 1 1 1 1 1 1 1 1 1 1 1 1 1 1 1 1 1 1 1 1 1 1 1 1 1 1 1 1 1 1 1 1 1 1 1 1 1 1 1 1 1 1 1 1 1 1 1 1 1 1 1 1 1 1 1 1 1 1 1 1 1 1 1 1 1 1 1 1 1 1 1 1 1 1 1 1 1 1 1 1 1 1 1 1 1 1 1 1 1 1 1 1 1 1 1 1 1 1 1 1 1 1 1 1 1 1 1 1 1 1 1 1 1 1 1 1 1 1 1 1 1 1 1 1 1 1 1 1 1 1 1 1 1 1 1 1 1 1 1 1 1 1 1 1 1 1 1 1 1 1 1 1 1 1 1 1 1 1 1 1 1 1 1 1 1 1 1 1 1 1 1 1 1 1 1 1 1 1 1 1 1 1 1 1 1 1 1 1 1 1 1 1 1 1 1 1 1 1 1 1 1 1 1 1 1 1 1 1 1 1 1 1 1 1 1 1 1 1 1 1 1 1 1 1 1 1 1 1 1 1 1 1 1 1 1 1 1 1 1 1 1 1 1 1 1 1 1 1 1 1 1 1 1 1 1 1 1 1 1 1 1 1 1 1 1 1 1 1 1 1 1 1 1 1 1 1 1 1 1 1 1 1 1 1 1 1 1 1 1 1 1 1 1 1 1 1 1 1 1 1 1 1 1 1 1 1 1 1 1 1 1 1 1 1 1 1 1 1 1 1 1 1 1 1 1 1 1 1 1 1 1 1 1 1 1 1 1 1 1 1 1 1 1 1 1 1 1 1 1 1 1 1 1 1 1 1 1 1 1 1 1 1 1 1 1 1 1 1 1 1 1 1 1 1 1 1 1 1 1 1 1 1 1 1 1 1 1 1 1 1 1 1 1 1 1 1 1 1 1 1 1 1 1 1 1 1 1 1 1 1 1 1 1 1 1 1 1 1 1 1 1 1 1 1 1 1 1 1 1 1 1 1 1 1 1 1 1 1 1 1 1 1 1 1 1 1 1 1 1 1 1 1 1 1 1 1 1 1 1 1 1 1 1 1 1 1 1 1 1 1 1 1 1 1 1 1 1 1 1 1 1 1 1 1 1 1 1 1 1 1 1 1 1 1 1 1 1 1</vcount>
                    <v>16 0 16 0 16 0 16 0 16 0 16 0 16 0 16 0 16 0 16 0 16 0 16 0 16 0 16 0 14 0 14 0 15 0 15 0 15 0 15 0 15 0 15 0 14 0 14 0 16 0 16 0 16 0 16 0 16 0 16 0 16 0 16 0 16 0 16 0 16 0 16 0 16 0 16 0 16 0 7 0 7 0 7 0 7 0 7 0 7 0 7 0 7 0 7 0 7 0 16 0 16 0 7 0 7 0 7 0 16 0 7 0 7 0 16 0 16 0 16 0 16 0 16 0 16 0 16 0 16 0 7 0 7 0 7 0 7 0 16 0 16 0 16 0 16 0 16 0 16 0 16 0 16 0 16 0 16 0 16 0 7 0 16 0 7 0 16 0 7 0 16 0 7 0 16 0 7 0 16 0 16 0 16 0 16 0 18 0 18 0 18 0 18 0 18 0 18 0 18 0 18 0 18 0 18 0 18 0 18 0 18 0 18 0 18 0 18 0 18 0 18 0 18 0 18 0 18 0 18 0 18 0 18 0 22 0 22 0 22 0 22 0 22 0 22 0 22 0 22 0 22 0 22 0 22 0 22 0 22 0 22 0 22 0 22 0 22 0 22 0 22 0 22 0 22 0 22 0 22 0 22 0 23 0 23 0 23 0 16 0 16 0 16 0 16 0 16 0 16 0 16 0 16 0 16 0 16 0 16 0 14 0 14 0 14 0 14 0 14 0 14 0 14 0 14 0 14 0 14 0 14 0 14 0 7 0 16 0 18 0 18 0 18 0 18 0 18 0 18 0 18 0 18 0 18 0 23 0 23 0 23 0 23 0 23 0 23 0 23 0 23 0 23 0 23 0 23 0 23 0 23 0 23 0 23 0 23 0 23 0 18 0 18 0 18 0 18 0 18 0 18 0 18 0 18 0 18 0 18 0 18 0 18 0 18 0 18 0 18 0 18 0 18 0 18 0 18 0 18 0 18 0 18 0 18 0 18 0 18 0 18 0 18 0 18 0 18 0 18 0 18 0 18 0 18 0 18 0 18 0 23 0 23 0 23 0 23 0 23 0 23 0 16 0 18 0 18 0 18 0 18 0 7 0 16 0 7 0 16 0 23 0 23 0 23 0 23 0 23 0 23 0 18 0 18 0 18 0 18 0 18 0 18 0 18 0 18 0 7 0 7 0 7 0 16 0 16 0 16 0 16 0 16 0 16 0 18 0 18 0 18 0 18 0 18 0 18 0 18 0 18 0 18 0 18 0 18 0 18 0 18 0 18 0 18 0 18 0 18 0 18 0 18 0 18 0 18 0 18 0 18 0 18 0 18 0 18 0 18 0 18 0 18 0 18 0 18 0 18 0 18 0 18 0 18 0 18 0 18 0 18 0 18 0 18 0 18 0 18 0 18 0 18 0 18 0 18 0 18 0 18 0 18 0 18 0 18 0 18 0 18 0 18 0 18 0 18 0 18 0 18 0 18 0 18 0 18 0 18 0 18 0 18 0 18 0 18 0 18 0 18 0 18 0 18 0 18 0 18 0 18 0 18 0 18 0 18 0 18 0 18 0 18 0 18 0 18 0 18 0 18 0 18 0 18 0 18 0 18 0 18 0 18 0 18 0 18 0 18 0 18 0 18 0 18 0 18 0 18 0 18 0 18 0 18 0 18 0 18 0 18 0 18 0 18 0 18 0 18 0 18 0 18 0 18 0 18 0 18 0 18 0 18 0 18 0 18 0 18 0 18 0 18 0 18 0 18 0 18 0 18 0 18 0 18 0 18 0 18 0 18 0 18 0 18 0 18 0 18 0 18 0 18 0 18 0 18 0 18 0 18 0 18 0 18 0 18 0 18 0 18 0 18 0 18 0 18 0 18 0 18 0 18 0 18 0 18 0 28 0 27 0 28 0 27 0 28 0 27 0 28 0 27 0 27 0 27 0 27 0 27 0 27 0 27 0 27 0 27 0 27 0 27 0 27 0 27 0 27 0 27 0 27 0 27 0 27 0 27 0 28 0 28 0 28 0 28 0 28 0 28 0 28 0 18 0 18 0 18 0 18 0 18 0 18 0 18 0 18 0 28 0 28 0 28 0 28 0 28 0 28 0 28 0 28 0 28 0 28 0 28 0 28 0 27 0 27 0 18 0 18 0 18 0 18 0 18 0 28 0 28 0 28 0 28 0 28 0 28 0 28 0 28 0 28 0 18 0 18 0 16 0 16 0 16 0 16 0 16 0 16 0 18 0 18 0 18 0 18 0 18 0 18 0 18 0 18 0 18 0 18 0 18 0 18 0 18 0 18 0 18 0 18 0 18 0 18 0 22 0 22 0 22 0 22 0 14 0 23 0 23 0 23 0 27 0 27 0 28 0 28 0 28 0 27 0 27 0 18 0 18 0 18 0 10 0 10 0 11 0 11 0 8 0 8 0 8 0 8 0 8 0 8 0 8 0 8 0 8 0 8 0 9 0 9 0 9 0 9 0 9 0 9 0 12 0 13 0 12 0 13 0 12 0 13 0 12 0 13 0 12 0 13 0 12 0 12 0 13 0 13 0 13 0 7 0 9 0 10 0 9 0 10 0 10 0 10 0 8 0 9 0 8 0 8 0 9 0 11 0 11 0 11 0 11 0 10 0 10 0 10 0 10 0 10 0 10 0 10 0 10 0 10 0 10 0 12 0 12 0 12 0 12 0 12 0 12 0 10 0</v>
                </vertex_weights>
            </skin>
        </controller>
    </library_controllers>
    <library_visual_scenes>
        <visual_scene id="VisualSceneNode">
            <node id="node0" name="m0" type="NODE">
                <instance_controller url="#controller0">
                    <skeleton>#jointnode-1</skeleton>
                    <bind_material>
                        <technique_common>
                            <instance_material symbol="Material1" target="#mat0">
                                <bind_vertex_input semantic="UVSET0" input_semantic="TEXCOORD" input_set="0"></bind_vertex_input>
                            </instance_material>
                        </technique_common>
                    </bind_material>
                </instance_controller>
            </node>
            <node id="jointnode-1" name="root" sid="jointnode-1" type="JOINT">
                <node id="jointnode0" name="world_root" sid="jointnode0" type="JOINT">
                    <node id="jointnode1" name="ColPos" sid="jointnode1" type="JOINT">
                        <translate>0 125.14652252197266 0</translate>
                    </node>
                    <node id="jointnode2" name="FaceVisiblity" sid="jointnode2" type="JOINT">
                        <translate>0 0 100</translate>
                    </node>
                    <node id="jointnode3" name="LHandVisiblity" sid="jointnode3" type="JOINT">
                        <translate>100 0 0</translate>
                    </node>
                    <node id="jointnode4" name="RHandVisiblity" sid="jointnode4" type="JOINT">
                        <translate>-100 0 0</translate>
                    </node>
                    <node id="jointnode5" name="RotCenter" sid="jointnode5" type="JOINT">
                        <translate>0 93 0</translate>
                    </node>
                    <node id="jointnode6" name="hip" sid="jointnode6" type="JOINT">
                        <translate>0 137.5 2.5</translate>
                        <rotate>0 0 1 -89.99725333414716</rotate>
                        <rotate>1 0 0 -89.99725333414716</rotate>
                        <node id="jointnode7" name="legL1" sid="jointnode7" type="JOINT">
                            <translate>12.499999046325684 2.4999990463256836 37</translate>
                            <rotate>0 0 1 -0.13733329264198738</rotate>
                            <rotate>1 0 0 180</rotate>
                            <node id="jointnode8" name="legL2" sid="jointnode8" type="JOINT">
                                <translate>57.5 1.101269006729126 0</translate>
                                <node id="jointnode9" name="footL" sid="jointnode9" type="JOINT">
                                    <translate>45 -1.3554229736328125 0</translate>
                                    <rotate>0 0 1 -0.13733329264198738</rotate>
                                    <node id="jointnode10" name="toeL" sid="jointnode10" type="JOINT">
                                        <translate>15 40 1.8749990463256836</translate>
                                        <rotate>0 0 1 89.99725333414716</rotate>
                                    </node>
                                </node>
                            </node>
                        </node>
                        <node id="jointnode11" name="legR1" sid="jointnode11" type="JOINT">
                            <translate>12.500000953674316 2.5000009536743164 -37</translate>
                            <rotate>0 0 1 -0.14282662434766685</rotate>
                            <rotate>1 0 0 180</rotate>
                            <node id="jointnode12" name="legR2" sid="jointnode12" type="JOINT">
                                <translate>57.50004577636719 1.0843390226364136 -9.999999974752427e-7</translate>
                                <rotate>0 0 1 -0.005493331705679495</rotate>
                                <node id="jointnode13" name="footR" sid="jointnode13" type="JOINT">
                                    <translate>45.00007247924805 -1.3430540561676025 -9.999999974752427e-7</translate>
                                    <rotate>0 0 1 -0.13733329264198738</rotate>
                                    <node id="jointnode14" name="toeR" sid="jointnode14" type="JOINT">
                                        <translate>15 40 -1.8749990463256836</translate>
                                        <rotate>0 0 1 89.99725333414716</rotate>
                                    </node>
                                </node>
                            </node>
                        </node>
                        <node id="jointnode15" name="spin" sid="jointnode15" type="JOINT">
                            <translate>-36.946807861328125 -5.270681858062744 -9.999999974752427e-7</translate>
                            <rotate>0 0 1 -164.9977111117893</rotate>
                            <node id="jointnode16" name="neck" sid="jointnode16" type="JOINT">
                                <translate>88.28052520751953 -10.517789840698242 9.999999974752427e-7</translate>
                                <rotate>0 0 1 50.00030518509476</rotate>
                                <node id="jointnode17" name="head" sid="jointnode17" type="JOINT">
                                    <translate>16.270000457763672 -0.9100000262260437 0</translate>
                                    <rotate>0 0 1 25.00015259254738</rotate>
                                    <node id="jointnode18" name="Face00" sid="jointnode18" type="JOINT">
                                    </node>
                                    <node id="jointnode19" name="hair1" sid="jointnode19" type="JOINT">
                                        <translate>14.51375961303711 -44.92366409301758 0.000003000000106112566</translate>
                                        <rotate>0 0 1 -44.99588000122074</rotate>
                                    </node>
                                </node>
                            </node>
                            <node id="jointnode20" name="shoulderL" sid="jointnode20" type="JOINT">
                                <translate>55.204620361328125 -17.607759475708008 42.0706672668457</translate>
                                <rotate>0 1 0 -89.99725333414716</rotate>
                                <rotate>1 0 0 -14.99679555650502</rotate>
                                <node id="jointnode21" name="armL1" sid="jointnode21" type="JOINT">
                                    <translate>49.25837707519531 -12.842338562011719 -0.8026459813117981</translate>
                                    <rotate>0 0 1 0.24719992675557725</rotate>
                                    <rotate>1 0 0 180</rotate>
                                    <node id="jointnode22" name="armL2" sid="jointnode22" type="JOINT">
                                        <translate>70.98450469970703 0.9535009860992432 -0.00011899999663000926</translate>
                                        <rotate>0 0 1 -0.054933317056794946</rotate>
                                        <node id="jointnode23" name="wristL" sid="jointnode23" type="JOINT">
                                            <translate>74.8952407836914 -0.9954410195350647 -0.000007000000096013537</translate>
                                            <rotate>0 0 1 0.3021332438123722</rotate>
                                            <rotate>1 0 0 89.99725333414716</rotate>
                                            <node id="jointnode24" name="LHand00" sid="jointnode24" type="JOINT">
                                            </node>
                                        </node>
                                    </node>
                                </node>
                            </node>
                            <node id="jointnode25" name="shoulderR" sid="jointnode25" type="JOINT">
                                <translate>55.20462417602539 -17.607759475708008 -41.63612747192383</translate>
                                <rotate>0 1 0 89.99725333414716</rotate>
                                <rotate>1 0 0 14.99679555650502</rotate>
                                <node id="jointnode26" name="armR1" sid="jointnode26" type="JOINT">
                                    <translate>49.89896774291992 -12.842338562011719 0.8026459813117981</translate>
                                    <rotate>1 0 0 180</rotate>
                                    <node id="jointnode27" name="armR2" sid="jointnode27" type="JOINT">
                                        <translate>70.98450469970703 0.8087810277938843 -0.0019000000320374966</translate>
                                        <node id="jointnode28" name="wristR" sid="jointnode28" type="JOINT">
                                            <translate>74.8952407836914 -1.2546720504760742 -0.0003389999910723418</translate>
                                            <rotate>1 0 0 -89.99725333414716</rotate>
                                            <node id="jointnode29" name="RHand00" sid="jointnode29" type="JOINT">
                                            </node>
                                        </node>
                                    </node>
                                </node>
                            </node>
                            <node id="jointnode30" name="tie1" sid="jointnode30" type="JOINT">
                                <translate>53.689998626708984 22.219539642333984 9.999999974752427e-7</translate>
                                <rotate>0 0 1 46.566972869045074</rotate>
                                <node id="jointnode31" name="tie2" sid="jointnode31" type="JOINT">
                                    <translate>-5.107291221618652 50.44388961791992 -9.999999974752427e-7</translate>
                                    <rotate>0 0 1 116.27185888241218</rotate>
                                    <node id="jointnode32" name="tie3" sid="jointnode32" type="JOINT">
                                        <translate>30.69717025756836 -0.8755390048027039 0</translate>
                                        <rotate>0 0 1 5.888851588488418</rotate>
                                        <node id="jointnode33" name="tie4" sid="jointnode33" type="JOINT">
                                            <translate>26.730558395385742 0.7924079895019531 0</translate>
                                            <rotate>0 0 1 -3.389385662404248</rotate>
                                            <rotate>1 0 0 180</rotate>
                                        </node>
                                    </node>
                                </node>
                            </node>
                        </node>
                    </node>
                </node>
            </node>
        </visual_scene>
    </library_visual_scenes>
    <scene>
        <instance_visual_scene url="#VisualSceneNode"></instance_visual_scene>
    </scene>
</COLLADA>
