<?xml version="1.0"?>
<COLLADA xmlns="http://www.collada.org/2005/11/COLLADASchema" version="1.4.1">
    <asset>
        <contributor>
            <authoring_tool>J3D Ripoff Exporter</authoring_tool>
        </contributor>
        <created>2024-08-19T02:25:09.505Z</created>
        <modified>2024-08-19T02:25:09.505Z</modified>
		<unit meter="0.01" name="centimeter" ></unit>
        <up_axis>Y_UP</up_axis>
    </asset>
    <library_images>
        <image id="tex0">
            <init_from>konfu_body.png</init_from>
        </image>
    </library_images>
    <library_effects>
        <effect id="effect0">
            <profile_COMMON>
                <newparam sid="surface0">
                    <surface type="2D">
                        <init_from>tex0</init_from>
                    </surface>
                </newparam>
                <newparam sid="sampler0">
                    <sampler2D>
                        <source>surface0</source>
                    </sampler2D>
                </newparam>
                <technique sid="COMMON">
                    <blinn>
                        <diffuse>
                            <texture texture="sampler0" texcoord="UVSET0"></texture>
                        </diffuse>
                    </blinn>
                </technique>
            </profile_COMMON>
        </effect>
    </library_effects>
    <library_materials>
        <material id="mat0" name="Skin_etc">
            <instance_effect url="#effect0"></instance_effect>
        </material>
    </library_materials>
    <library_geometries>
        <geometry id="mesh0">
            <mesh>
                <source id="points0">
                    <float_array id="pointarray0" count="219">72.04559501075002 351.9825482635151 60.64807439983258 56.9882861135148 345.83406211299877 82.72965295044011 55.40380323132202 347.0927210236406 76.87929120305904 70.95350924081944 360.74701754312963 58.16689323219157 54.75482213509679 356.2894482421183 74.06794070327115 56.234241507137206 354.6872865691978 81.00648100373928 70.76338879293179 376.73577434191054 52.549490705938965 55.0479309092501 363.47080019562435 78.7069145359886 52.899085748341726 364.58690438460525 73.12798502920937 66.47348784103295 390.61598344792526 49.93766766222385 51.05435324381451 372.2646481579863 73.98318879835206 52.248162802888736 370.83330407836786 76.31932702757292 35.72885749431531 354.45476022770544 86.35863148160408 37.65920345269285 350.9723013437332 93.2413096184436 18.071441500236823 337.1419256606005 95.4474486382855 19.378003747335853 335.57850141382636 101.32902809071872 9.728515625 330.6136779785156 98.58942413330078 11.095703125 329.7132873535156 104.17731475830078 3.736328125 327.6976623535156 100.20075225830078 4.51953125 327.0472717285156 105.24958038330078 0 326.9730529785156 100.64606475830078 0 326.3285217285156 105.53278350830078 -4.51953125 327.0472717285156 105.24958038330078 0 324.8500061035156 108.67536163330078 -5.19921875 325.6996154785156 108.35504913330078 -5.38671875 322.4203186035156 108.93708038330078 -13.19921875 323.9808654785156 107.92926788330078 -13.1796875 320.4085998535156 101.70856475830078 -21.552734375 322.6507873535156 99.03083038330078 -9.728515625 330.6136779785156 98.58942413330078 -18.07077523250182 337.1414670909589 95.4474486382855 -19.377487369592263 335.5781681202798 101.32902809071872 -37.65721108380277 350.9737207209913 93.2413096184436 -21.321132356313868 332.4308643874541 105.33012282266176 -41.127943737979294 342.27067666314014 96.68429050749401 -42.41843386439851 334.14740391723967 97.36332008844445 -56.231892872256125 354.690486843197 81.00648100373928 -56.986786293334745 345.8373347230163 82.72965295044011 -70.95057955112577 360.75162902446226 58.16689323219157 -55.40218274233026 347.0958417128435 76.87929120305904 -54.752319897001215 356.2925066668693 74.06794070327115 -41.52703839195235 330.7826095464887 89.29912988784329 -35.72653124754462 354.45599451370884 86.35863148160408 -22.201171875 326.4554748535156 105.31598663330078 -12.712890625 328.3832092285156 107.30622100830078 -11.095703125 329.7132873535156 104.17731475830078 -3.736328125 327.6976623535156 100.20075225830078 -6.3515625 319.2464904785156 102.86286163330078 0 318.7543029785156 103.27497100830078 0 321.8968811035156 109.42340850830078 6.3515625 319.2464904785156 102.86286163330078 5.38671875 322.4203186035156 108.93708038330078 13.1796875 320.4085998535156 101.70856475830078 13.19921875 323.9808654785156 107.92926788330078 21.552734375 322.6507873535156 99.03083038330078 22.201171875 326.4554748535156 105.31598663330078 41.527094885442054 330.7808192356637 89.29912988784329 42.418812959255845 334.14552812687094 97.36332008844445 58.16911166621249 340.548600062659 82.22308371173554 -70.7589261544729 376.74036752163016 52.54949070593896 -55.04474014530081 363.473886689678 78.7069145359886 -52.89578798585448 364.58978484929247 73.12798502920937 -66.46769443329949 390.62016526219514 49.937667662223845 -51.050319372877425 372.26735172047427 73.98318879835205 -52.24426615904743 370.8361221059853 76.31932702757291 -58.16811859339676 340.5519859106562 82.22308371173554 -72.04350562464802 351.98726449073786 60.64807439983258 -56.05359701032031 339.92639870439734 77.64401564230043 41.12910167155529 342.26892456340244 96.68429050749401 21.321346971949573 332.43101134515035 105.33012282266176 12.712890625 328.3832092285156 107.30622100830078 5.19921875 325.6996154785156 108.35504913330078 56.05453011360218 339.9232155926798 77.64401564230042</float_array>
                    <technique_common>
                        <accessor count="73" source="#pointarray0" stride="3">
                            <param name="X" type="float"/>
                            <param name="Y" type="float"/>
                            <param name="Z" type="float"/>
                        </accessor>
                    </technique_common>
                </source>
                <source id="uvs0">
                    <float_array id="uvarray0" count="146">0.78973388671875 0.50616455078125 0.80657958984375 0.51904296875 0.8079833984375 0.51470947265625 0.7890625 0.4796142578125 0.8067626953125 0.487060546875 0.8055419921875 0.49237060546875 0.78594970703125 0.4317626953125 0.804931640625 0.4656982421875 0.80694580078125 0.46160888671875 0.78753662109375 0.3887939453125 0.8072509765625 0.43798828125 0.80633544921875 0.44268798828125 0.8267822265625 0.48565673828125 0.82550048828125 0.4967041015625 0.84796142578125 0.5302734375 0.846923828125 0.53558349609375 0.85821533203125 0.5472412109375 0.85699462890625 0.550537109375 0.865234375 0.55401611328125 0.86456298828125 0.5562744140625 0.869384765625 0.55487060546875 0.8695068359375 0.55682373046875 0.864501953125 0.55633544921875 0.869873046875 0.5614013671875 0.86407470703125 0.56072998046875 0.86456298828125 0.5709228515625 0.85589599609375 0.56903076171875 0.856689453125 0.58001708984375 0.8472900390625 0.57623291015625 0.858154296875 0.54730224609375 0.847900390625 0.5302734375 0.8468017578125 0.53558349609375 0.825439453125 0.49676513671875 0.84539794921875 0.5460205078125 0.82366943359375 0.52398681640625 0.823974609375 0.5487060546875 0.80548095703125 0.49237060546875 0.8065185546875 0.51910400390625 0.78900146484375 0.4796142578125 0.80792236328125 0.5147705078125 0.806640625 0.487060546875 0.82562255859375 0.55841064453125 0.82672119140625 0.48565673828125 0.84576416015625 0.56475830078125 0.85546875 0.55523681640625 0.85693359375 0.550537109375 0.86517333984375 0.55401611328125 0.86572265625 0.5806884765625 0.87115478515625 0.58013916015625 0.8704833984375 0.57049560546875 0.86578369140625 0.5806884765625 0.8646240234375 0.57086181640625 0.85675048828125 0.5799560546875 0.85595703125 0.5689697265625 0.84735107421875 0.576171875 0.8458251953125 0.564697265625 0.82568359375 0.55841064453125 0.82403564453125 0.5487060546875 0.80645751953125 0.5352783203125 0.785888671875 0.43182373046875 0.80487060546875 0.46575927734375 0.806884765625 0.46160888671875 0.7874755859375 0.38885498046875 0.80718994140625 0.43804931640625 0.8062744140625 0.4427490234375 0.806396484375 0.5352783203125 0.7896728515625 0.50616455078125 0.8087158203125 0.536376953125 0.82373046875 0.52398681640625 0.84552001953125 0.54595947265625 0.85552978515625 0.55523681640625 0.8641357421875 0.56072998046875 0.80877685546875 0.536376953125</float_array>
                    <technique_common>
                        <accessor count="73" source="#uvarray0" stride="2">
                            <param name="S" type="float"/>
                            <param name="T" type="float"/>
                        </accessor>
                    </technique_common>
                </source>
                <vertices id="vertices0">
                    <input semantic="POSITION" source="#points0"/>
                </vertices>
                <polylist count="142" material="Material1">
                    <input offset="0" semantic="VERTEX" source="#vertices0"/>
                    <input offset="1" semantic="TEXCOORD" source="#uvs0" set="0"/>
                    <vcount>3 3 3 3 3 3 3 3 3 3 3 3 3 3 3 3 3 3 3 3 3 3 3 3 3 3 3 3 3 3 3 3 3 3 3 3 3 3 3 3 3 3 3 3 3 3 3 3 3 3 3 3 3 3 3 3 3 3 3 3 3 3 3 3 3 3 3 3 3 3 3 3 3 3 3 3 3 3 3 3 3 3 3 3 3 3 3 3 3 3 3 3 3 3 3 3 3 3 3 3 3 3 3 3 3 3 3 3 3 3 3 3 3 3 3 3 3 3 3 3 3 3 3 3 3 3 3 3 3 3 3 3 3 3 3 3 3 3 3 3 3 3</vcount>
                    <p>2 2 1 1 0 0 3 3 1 1 2 2 4 4 3 3 2 2 5 5 3 3 4 4 6 6 5 5 4 4 7 7 5 5 6 6 8 8 7 7 6 6 9 9 7 7 8 8 10 10 9 9 8 8 11 11 9 9 10 10 12 12 11 11 10 10 13 13 11 11 12 12 14 14 13 13 12 12 15 15 13 13 14 14 16 16 15 15 14 14 17 17 15 15 16 16 18 18 17 17 16 16 19 19 17 17 18 18 20 20 19 19 18 18 21 21 19 19 20 20 22 22 21 21 20 20 23 23 21 21 22 22 24 24 23 23 22 22 25 25 23 23 24 24 26 26 25 25 24 24 27 27 25 25 26 26 28 28 27 27 26 26 29 29 27 27 28 28 30 30 29 29 28 28 31 31 29 29 30 30 32 32 31 31 30 30 33 33 31 31 32 32 34 34 33 33 32 32 35 35 33 33 34 34 36 36 35 35 34 34 37 37 35 35 36 36 38 38 37 37 36 36 39 39 37 37 38 38 40 40 39 39 38 38 41 41 39 39 40 40 42 42 41 41 40 40 30 30 41 41 42 42 32 32 30 30 42 42 28 28 41 41 30 30 43 43 41 41 28 28 26 26 43 43 28 28 44 44 43 43 26 26 24 24 44 44 26 26 45 45 44 44 24 24 22 22 45 45 24 24 46 46 45 45 22 22 20 20 46 46 22 22 47 47 46 46 20 20 48 48 47 47 20 20 49 49 47 47 48 48 50 50 49 49 48 48 51 51 49 49 50 50 52 52 51 51 50 50 53 53 51 51 52 52 54 54 53 53 52 52 55 55 53 53 54 54 56 56 55 55 54 54 57 57 55 55 56 56 58 58 57 57 56 56 1 1 57 57 58 58 0 0 1 1 58 58 36 36 40 40 38 38 59 59 40 40 36 36 60 60 59 59 36 36 61 61 59 59 60 60 62 62 61 61 60 60 63 63 61 61 62 62 64 64 63 63 62 62 42 42 63 63 64 64 32 32 42 42 64 64 35 35 41 41 43 43 65 65 41 41 35 35 37 37 65 65 35 35 66 66 65 65 37 37 39 39 66 66 37 37 67 67 66 66 39 39 41 41 67 67 39 39 65 65 67 67 41 41 5 5 1 1 3 3 57 57 1 1 5 5 68 68 57 57 5 5 69 69 57 57 68 68 13 13 69 69 68 68 15 15 69 69 13 13 18 18 48 48 20 20 50 50 48 48 18 18 16 16 50 50 18 18 52 52 50 50 16 16 54 54 52 52 16 16 69 69 55 55 57 57 70 70 55 55 69 69 15 15 70 70 69 69 17 17 70 70 15 15 70 70 53 53 55 55 71 71 53 53 70 70 17 17 71 71 70 70 19 19 71 71 17 17 14 14 54 54 16 16 56 56 54 54 14 14 12 12 56 56 14 14 4 4 56 56 12 12 2 2 56 56 4 4 72 72 56 56 2 2 0 0 72 72 2 2 58 58 72 72 0 0 71 71 51 51 53 53 23 23 51 51 71 71 19 19 23 23 71 71 21 21 23 23 19 19 60 60 64 64 62 62 32 32 64 64 60 60 34 34 32 32 60 60 8 8 12 12 10 10 4 4 12 12 8 8 6 6 4 4 8 8 31 31 44 44 45 45 33 33 44 44 31 31 29 29 45 45 46 46 31 31 45 45 29 29 27 27 46 46 47 47 29 29 46 46 27 27 25 25 47 47 49 49 27 27 47 47 25 25 23 23 49 49 51 51 25 25 49 49 23 23 33 33 43 43 44 44 35 35 43 43 33 33 68 68 7 7 13 13 5 5 7 7 68 68 11 11 7 7 9 9 13 13 7 7 11 11 42 42 61 61 63 63 40 40 61 61 42 42 66 66 67 67 65 65 72 72 58 58 56 56 36 36 34 34 60 60 40 40 59 59 61 61</p>
                </polylist>
            </mesh>
        </geometry>
    </library_geometries>
    <library_controllers>
        <controller id="controller0">
            <skin source="#mesh0">
                <bind_shape_matrix>1 0 0 0 0 1 0 0 0 0 1 0 0 0 0 1</bind_shape_matrix>
                <source id="joints0">
                    <Name_array id="JointArr0" count="8">jointnode-1 jointnode0 jointnode1 jointnode2 jointnode3 jointnode4 jointnode5 jointnode6</Name_array>
                    <technique_common>
                        <accessor source="#JointArr0" count="8">
                            <param name="JOINT" type="Name" />
                        </accessor>
                    </technique_common>
                </source>
                <source id="matrices0">
                    <float_array id="MatArr0" count="128">1 0 0 0 0 1 0 0 0 0 1 0 0 0 0 1 1 0 0 0 0 1 0 -323.6156311035156 0 0 1 -105.19293975830078 0 0 0 1 0.7553007051967624 0.5260273622302669 -0.39091694631256596 -151.38830333152526 -0.6540835382120077 0.6425068230969406 -0.3991988318043254 -156.8006670718042 0.04117729677061078 0.5572074985666872 0.8293516948627528 -268.8632079675148 0 0 0 1 0.5812346720998898 0.5229226065597844 -0.6234726966737636 -146.6734934201157 -0.6991776101683832 0.712915615450146 -0.05387016508762353 -210.6844563553912 0.4163134941221124 0.46722935780627106 0.7799870523385486 -249.08101803534336 0 0 0 1 0.48877725849382825 0.6083554714835727 -0.6253002573926049 -194.31407911117003 -0.7666680286741423 0.6415608681332892 0.0248955074052501 -187.75710201549597 0.4163134941221123 0.4672293578062711 0.7799870523385484 -249.0810180353434 0 0 0 1 -0.7552502679445066 0.5260997755705745 -0.3909169463125657 -151.4110609783956 0.6541451366557287 0.6424441087563334 -0.3991988318043255 -156.77855149600697 0.04112387335123252 -0.5572114439500245 -0.8293516948627523 268.86328976369043 0 0 0 1 -0.5811845333214775 0.5229783310331714 -0.6234726966737636 -146.69074734989036 0.699245958969268 0.7128485773139911 -0.053870165087623885 -210.66075882202304 0.4162686957880027 -0.4672692704332027 -0.7799870523385483 249.0931730628681 0 0 0 1 -0.48871892911706805 0.6084023310502747 -0.6253002573926045 -194.32821872731083 0.7667295359053418 0.6414873595647962 0.024895507405249723 -187.7314243513539 0.41626869578800263 -0.4672692704332027 -0.779987052338548 249.0931730628681 0 0 0 0.9999999999999998</float_array>
                    <technique_common>
                        <accessor source="#MatArr0" count="8" stride="16">
                            <param type="float4x4" />
                        </accessor>
                    </technique_common>
                </source>
                <source id="weights0">
                    <float_array id="WeightArr0" count="1">1</float_array>
                    <technique_common>
                        <accessor source="#WeightArr0" count="1">
                            <param type="float" />
                        </accessor>
                    </technique_common>
                </source>
                <joints>
                    <input semantic="JOINT" source="#joints0" />
                    <input semantic="INV_BIND_MATRIX" source="#matrices0" />
                </joints>
                <vertex_weights count="73">
                    <input semantic="JOINT" offset="0" source="#joints0" />
                    <input semantic="WEIGHT" offset="1" source="#weights0" />
                    <vcount>1 1 1 1 1 1 1 1 1 1 1 1 1 1 1 1 1 1 1 1 1 1 1 1 1 1 1 1 1 1 1 1 1 1 1 1 1 1 1 1 1 1 1 1 1 1 1 1 1 1 1 1 1 1 1 1 1 1 1 1 1 1 1 1 1 1 1 1 1 1 1 1 1</vcount>
                    <v>4 0 3 0 3 0 4 0 4 0 3 0 4 0 4 0 4 0 4 0 4 0 4 0 3 0 3 0 2 0 2 0 1 0 1 0 1 0 1 0 1 0 1 0 1 0 1 0 1 0 1 0 1 0 1 0 1 0 1 0 5 0 5 0 6 0 5 0 5 0 5 0 6 0 6 0 7 0 6 0 7 0 5 0 6 0 1 0 1 0 1 0 1 0 1 0 1 0 1 0 1 0 1 0 1 0 1 0 1 0 1 0 2 0 2 0 3 0 7 0 7 0 7 0 7 0 7 0 7 0 6 0 7 0 6 0 2 0 2 0 1 0 1 0 3 0</v>
                </vertex_weights>
            </skin>
        </controller>
    </library_controllers>
    <library_visual_scenes>
        <visual_scene id="VisualSceneNode">
            <node id="node0" name="m0" type="NODE">
                <instance_controller url="#controller0">
                    <skeleton>#jointnode-1</skeleton>
                    <bind_material>
                        <technique_common>
                            <instance_material symbol="Material1" target="#mat0">
                                <bind_vertex_input semantic="UVSET0" input_semantic="TEXCOORD" input_set="0"></bind_vertex_input>
                            </instance_material>
                        </technique_common>
                    </bind_material>
                </instance_controller>
            </node>
            <node id="jointnode-1" name="root" sid="jointnode-1" type="JOINT">
                <node id="jointnode0" name="Dum1" sid="jointnode0" type="JOINT">
                    <translate>0 323.6156311035156 105.19293975830078</translate>
                    <node id="jointnode1" name="LEyeBrow1" sid="jointnode1" type="JOINT">
                        <translate>22.85401725769043 6.576852798461914 -3.9856789112091064</translate>
                        <rotate>0 0 1 34.85518967253639</rotate>
                        <rotate>0 1 0 23.011566515091403</rotate>
                        <rotate>1 0 0 -25.703299050874353</rotate>
                        <node id="jointnode2" name="LEyeBrow2" sid="jointnode2" type="JOINT">
                            <translate>24.874380111694336 0 0</translate>
                            <rotate>0 0 1 12.06335642567217</rotate>
                            <rotate>0 1 0 11.640369884334849</rotate>
                            <rotate>1 0 0 19.303567613757746</rotate>
                            <node id="jointnode3" name="LEyeBrow3" sid="jointnode3" type="JOINT">
                                <translate>22.50910186767578 0 0</translate>
                                <rotate>0 0 1 7.218237861262856</rotate>
                            </node>
                        </node>
                    </node>
                    <node id="jointnode4" name="REyeBrow1" sid="jointnode4" type="JOINT">
                        <translate>-22.85401725769043 6.576852798461914 -3.9856789112091064</translate>
                        <rotate>0 0 1 145.13931699575792</rotate>
                        <rotate>0 1 0 23.011566515091403</rotate>
                        <rotate>1 0 0 -154.29670094912564</rotate>
                        <node id="jointnode5" name="REyeBrow2" sid="jointnode5" type="JOINT">
                            <translate>24.874380111694336 0 0</translate>
                            <rotate>0 0 1 12.06335642567217</rotate>
                            <rotate>0 1 0 -11.640369884334849</rotate>
                            <rotate>1 0 0 -19.303567613757746</rotate>
                            <node id="jointnode6" name="REyeBrow3" sid="jointnode6" type="JOINT">
                                <translate>22.50910186767578 0 0</translate>
                                <rotate>0 0 1 7.218237861262856</rotate>
                            </node>
                        </node>
                    </node>
                </node>
            </node>
        </visual_scene>
    </library_visual_scenes>
    <scene>
        <instance_visual_scene url="#VisualSceneNode"></instance_visual_scene>
    </scene>
</COLLADA>
