<?xml version="1.0"?>
<COLLADA xmlns="http://www.collada.org/2005/11/COLLADASchema" version="1.4.1">
    <asset>
        <contributor>
            <authoring_tool>J3D Ripoff Exporter</authoring_tool>
        </contributor>
        <created>2024-08-02T13:58:10.684Z</created>
        <modified>2024-08-02T13:58:10.684Z</modified>
		<unit meter="0.01" name="centimeter" ></unit>
        <up_axis>Y_UP</up_axis>
    </asset>
    <library_images>
        <image id="tex0">
            <init_from>donkey_all.png</init_from>
        </image>
    </library_images>
    <library_effects>
        <effect id="effect0">
            <profile_COMMON>
                <newparam sid="surface0">
                    <surface type="2D">
                        <init_from>tex0</init_from>
                    </surface>
                </newparam>
                <newparam sid="sampler0">
                    <sampler2D>
                        <source>surface0</source>
                    </sampler2D>
                </newparam>
                <technique sid="COMMON">
                    <blinn>
                        <diffuse>
                            <texture texture="sampler0" texcoord="UVSET0"></texture>
                        </diffuse>
                    </blinn>
                </technique>
            </profile_COMMON>
        </effect>
    </library_effects>
    <library_materials>
        <material id="mat0" name="donkey_All">
            <instance_effect url="#effect0"></instance_effect>
        </material>
    </library_materials>
    <library_geometries>
        <geometry id="mesh0">
            <mesh>
                <source id="points0">
                    <float_array id="pointarray0" count="981">8.84765625 14.87890625 -5.9296875 20.95703125 16.14453125 -4.15625 8.84765625 14.87890625 3.47265625 20.95703125 16.6796875 1.703125 36.1484375 -1.5234375 6.66015625 45.015625 0.01953125 6.10546875 36.2265625 -1.59765625 0.89453125 45.44921875 0.26953125 1.890625 43.1328125 14.26953125 4.24609375 42.64453125 13.05078125 9.0390625 38.2734375 14.578125 3.7109375 38.3046875 13.203125 8.40234375 43.5703125 13.33984375 -0.07421875 38.44140625 13.84765625 -0.875 46.3359375 6.49609375 10.11328125 51.98828125 -0.8671875 6.10546875 55.3671875 4.6796875 10.7578125 52.26171875 -0.71484375 2.37109375 56.0859375 4.97265625 -0.7265625 47.13671875 6.90234375 -1.4375 72.8984375 -6.21875 -10.453125 69.7578125 -1.55078125 -9.78515625 73.796875 -5.953125 -13.79296875 69.953125 -1.12890625 -13.6171875 67.86328125 -2.6640625 -16.72265625 70.98046875 -7.16015625 -16.2421875 58.234375 -11.3203125 -12.54296875 63.78125 -13.1484375 -13.05859375 58.92578125 -6.46484375 -16.43359375 65.59765625 -9.3359375 -16.51953125 67.45703125 -9.08203125 -7.89453125 65.12890625 -12.4921875 -9.00390625 61.73828125 -5.84375 -6.515625 59.53125 -10.6875 -8.4765625 65.7734375 0.8984375 -8.89453125 65.6484375 1.7578125 -13.390625 63.14453125 -0.359375 -17.01953125 60.76171875 3.76953125 -12.5 60.2734375 2.89453125 -8.1875 57.67578125 2.171875 -16.2265625 55.02734375 -7.328125 -7.41015625 54.5625 -2.1640625 -5.0859375 49.76171875 7.1015625 -6.265625 49.48046875 7.95703125 -10.66796875 55.5390625 4.91015625 -7.2890625 55.859375 5.66015625 -11.8359375 53.05078125 4.21875 -15.5390625 47.46875 6.30859375 -14.65625 44.90625 9.08203125 -9.921875 45.63671875 8.8671875 -5.3359375 43.3203125 7.99609375 -13.7890625 54.05859375 -7.77734375 -11.625 51.62109375 -3.15234375 -15.578125 0.38671875 -9.12109375 8.50390625 0.3125 -4.3515625 17.3984375 3.54296875 -11.26953125 9.046875 2.81640625 -11.328125 19.56640625 44.62890625 7.30078125 21.69140625 42.125 11.69140625 24.796875 49.3671875 8.12890625 23.46484375 50.46875 13.50390625 27.90234375 51.51171875 8.2109375 19.50390625 46.66796875 7.54296875 17.34765625 56.4140625 15.0625 17.7265625 47.41796875 12.25 14.78515625 14.13671875 -12.1015625 8.34375 14.30859375 -12.30859375 -1.40234375 7.34765625 -11.58203125 8.453125 7.2578125 -10.58203125 -1.40234375 75.328125 6.79296875 9.4609375 69.5859375 9.5546875 9.640625 76.78125 8.28515625 6.171875 70.62109375 10.86328125 5.70703125 70.34375 9.37109375 1.77734375 75.98828125 6.66796875 2.82421875 67.71484375 -1.609375 3.6953125 73.43359375 -1.2578125 4.06640625 67.10546875 3.046875 0.046875 73.6796875 2.7578125 1.58984375 72.77734375 2.9296875 10.640625 73.015625 -1.1796875 8.2890625 66.046875 3.296875 11.2734375 67.31640625 -1.515625 7.921875 64.12890625 10.23046875 9.9453125 63.51171875 12.03515625 5.57421875 64.984375 10.03125 0.89453125 58.37890625 13.29296875 5.30859375 57.23046875 10.9765625 9.83203125 58.375 11.71875 0.4609375 59.421875 0.2421875 6.87890625 59.66015625 0.3515625 3.3046875 14.07421875 -15.5546875 14.9609375 7.54296875 -14.1484375 18.16796875 48.18359375 12.22265625 9.2109375 48.5 13.7578125 4.61328125 53.0625 11.84765625 9.828125 53.49609375 13.82421875 5.0234375 53.6640625 12.08984375 0.4375 48.83203125 12.55859375 0.15625 31.1875 -5.41796875 0.9140625 32.1640625 -5.89453125 7.578125 33.6953125 -4.16015625 -8.89453125 28.75390625 -7.8046875 -10.78125 33.89453125 -3.7890625 -6.33984375 31.17578125 -4.796875 -4.5859375 41.95703125 0.4375 -23.6953125 44.69921875 -2.1328125 -25.234375 43.65625 -0.64453125 -19.53125 46.0078125 -3.609375 -20.921875 41.09765625 -2.796875 -28.35546875 38.51953125 -0.85546875 -27.1640625 22.109375 -5.56640625 -21.42578125 14.3828125 -5.28125 -20.515625 23.796875 -10.234375 -14.21875 14.625 -11.5 -13.7734375 28.296875 -8.0625 8.27734375 25.65234375 -6.6015625 0.60546875 23.88671875 -9.953125 8.7890625 21.03125 -9.69140625 0.1875 39.31640625 -17.71484375 -26.9453125 43.12109375 -13.9921875 -30.11328125 38.2265625 -14.6640625 -25.7265625 39.47265625 -9.46484375 -28.75390625 26.41015625 -9.66015625 -14.2890625 24.88671875 -5.68359375 -21.02734375 21.44921875 12.9765625 -12.953125 21.9453125 9.6796875 -18.61328125 33.16015625 8.7109375 -18.01953125 30.49609375 7.28125 -20.99609375 45.2890625 -20.359375 -24.25390625 42.3359375 -20.0703125 -28.06640625 42.140625 -17.921875 -22.9765625 29.640625 14.16015625 20.13671875 32.48828125 14.99609375 20.4375 31.73828125 7.984375 21.8203125 34.2109375 8.91015625 22.27734375 40.7890625 -14.8984375 -21.44140625 49.484375 -6.77734375 -27.70703125 50.26171875 -7.72265625 -22.88671875 47.74609375 -4.73828125 -26.82421875 48.26171875 -6.2421875 -22.08984375 44.9921875 -7.55078125 -30.41015625 43.55859375 -5.921875 -29.72265625 38.0078125 -13.71484375 -20.7578125 35.5703125 -13.33984375 -24.81640625 31.97265625 -8.28125 -17.74609375 35.48828125 -10.21875 -19.8125 29.96875 -8.01171875 -21.49609375 34.19921875 -9.98828125 -23.4296875 38.35546875 4.04296875 -21.58984375 40.375 3.1484375 -17.77734375 35.14453125 2.5703125 -25.75390625 30.59375 -2.265625 19.08984375 33.9921875 2.91015625 18.69921875 26.88671875 -6.3359375 -21.6953125 26.30859375 -2.6015625 -23.54296875 33.65625 -3.1953125 -25.6328125 24.3984375 -0.56640625 -23.265625 22.0546875 2.0234375 -22.3671875 28.8671875 15.86328125 17.99609375 20.95703125 14.69140625 15.78125 29.46484375 16.61328125 11.3671875 20.95703125 16.94140625 10.5 8.84765625 14.875 11.3671875 20.95703125 16.9140625 6.1015625 8.67578125 13.0859375 -12.41015625 20.95703125 15.04296875 -8.5546875 37.21875 -6.390625 -27.8046875 48.81640625 -7.02734375 -6.98828125 47.64453125 -7.4296875 -11.32421875 43.76171875 -5.01953125 -6.49609375 43.28125 -5.25390625 -10.62890625 40.83203125 10.87890625 -9.140625 41.7578125 11.08203125 -4.64453125 39.8359375 9.39453125 -12.99609375 1.30859375 5.8515625 -15.8515625 0.6875 -2.3203125 -15.8515625 7.87890625 6.15625 -19.19140625 8.59375 -4.3828125 -19.19140625 0.953125 11.44921875 -9.35546875 0.640625 11.47265625 7.33203125 29.12109375 2.7890625 -24.23046875 31.08984375 15.39453125 6.55859375 31.8125 16.44140625 1.17578125 49.80859375 0.18359375 -4.38671875 42.9375 -0.27734375 -14.0625 33.69921875 14.44921875 -4.81640625 33.72265625 13.39453125 -9.8203125 0.38671875 -10.2890625 -1.40234375 0.6875 -9.12109375 -10.7734375 7.2578125 -11.109375 -12.0390625 53.40625 -18.33984375 -26.46875 54.48046875 -14.453125 -25.77734375 53.49609375 -18.15625 -29.5703125 53.6640625 -14.359375 -29.5546875 49.640625 -14.16015625 -32.1328125 49.84375 -18.08984375 -31.15625 43.828125 -18.6015625 -30.09765625 49.53515625 -19.0078125 -23.3671875 49.32421875 -13.65234375 -22.48828125 52.8828125 -10.375 -24.61328125 51.390625 -9.4375 -28.5 47.52734375 -10.78125 -31.40625 45.3671875 -9.67578125 -20.5546875 54.4765625 10.0078125 24.66796875 56.75 10.27734375 20.9296875 11.40234375 -14.40625 27.12109375 6.890625 -11.96875 24.99609375 17.984375 -7.78515625 29.03125 14.6953125 -4.55859375 27.35546875 55.57421875 21.4921875 19.359375 53.0234375 23.0625 23.2421875 51.40625 20.265625 17.85546875 48.91796875 21.953125 21.99609375 51.21875 20.59375 27.19921875 47.359375 19.2265625 26.02734375 21.2421875 -10.03125 30.4453125 15.32421875 -16.0703125 28.6875 23.09375 -5.3203125 25.765625 19.6015625 -1.15625 24.8125 59.34765625 10.4296875 26.1796875 61.59765625 10.94140625 22.35546875 30.375 -24.45703125 27.25390625 25.421875 -21.0859375 25.25390625 24.73828125 -24.48828125 32.22265625 20.265625 -21.74609375 28.58203125 56.58203125 15.09765625 29.95703125 64.77734375 20.5859375 30.25390625 60.03515625 22.07421875 30.1171875 66.875 22.4296875 27.171875 62.34765625 23.57421875 25.96875 63.44140625 22.8046875 22.29296875 67.8125 21.328125 23.68359375 43.92578125 -7.359375 -19.26171875 66.5703125 12.796875 23.5859375 61.33984375 16.7578125 18.96484375 67.08203125 15.9609375 21.51953125 34.81640625 -26.5234375 38.3984375 40.921875 -22.4140625 36.2734375 36.21875 -27.12890625 33.70703125 40.95703125 -23.9375 32.05859375 33.13671875 -25.828125 29.6640625 38.8125 -22.01171875 27.69140625 36.4921875 -20.1640625 25.48828125 32.3046875 -17.41796875 22.875 17.96484375 -17.234375 20.26171875 28.34375 -14.66796875 19.7578125 64.3828125 12.22265625 27.421875 23.6953125 -11.625 31.63671875 26.1640625 -13.2109375 33.7734375 18.45703125 -17.60546875 29.78515625 20.546875 -19 31.90234375 34.48046875 -13.13671875 34.7578125 38.44921875 -16.3828125 30.13671875 39.01171875 -16.8046875 36.7109375 40.9609375 -18.72265625 33.1171875 59.6484375 22.15625 20.76171875 57.23046875 23.64453125 24.4453125 62.39453125 14.734375 29.73828125 31.578125 -11.44921875 31.76953125 28.5078125 -9.5703125 29.16796875 55.4375 21.28515625 27.9921875 24.45703125 -21.7265625 35.21484375 29.57421875 -24.38671875 38.86328125 30.3515625 -26.59765625 36.12890625 22.234375 -13.94140625 14.83984375 33.80078125 -19.875 39.4453125 29.12109375 -15.30859375 37.19921875 42.59375 20.421875 19.7265625 45.21484375 18.78515625 15.6796875 -5.0234375 1.9296875 4.3125 -5.0390625 1.9140625 -5.8203125 -3.37890625 7.796875 4.3125 -3.38671875 7.796875 -5.66796875 36.99609375 18.640625 17.5390625 36.15234375 16.76171875 21.94140625 41.21875 17.83203125 24.171875 40.125 17.578125 13.5234375 29.3828125 -8.9765625 22.5234375 33.796875 -13.26953125 25.91015625 24.71875 -7.18359375 27.140625 -3.31640625 -5.08984375 4.3125 -3.33984375 -5.125 -5.97265625 28.3828125 -6.0546875 14.3515625 37.234375 2.859375 12.890625 33.92578125 17.015625 15.35546875 36.38671875 15.91015625 11.95703125 15.125 -18.86328125 25.57421875 78.546875 3.62109375 8.4921875 77.1484375 0.2109375 6.3671875 78.96875 3.5390625 4.26953125 37.98046875 6.1171875 10.86328125 37.83203125 1.32421875 -2.53515625 72.21875 -10.75 -14.78515625 69.17578125 -13.21484375 -11.78515625 73.2109375 -10.734375 -11.2109375 27.125 -5.3671875 21.08984375 68.55078125 17.37890625 29.265625 68.6875 14.31640625 26.64453125 70.73828125 17.94921875 25.42578125 47.19140625 -22.30859375 -27.12890625 52.0078125 -21.67578125 -27.01953125 34.75390625 -3.390625 -13.48828125 19.26953125 -10.9140625 8.4453125 28.37109375 -8.078125 -16.78125 30.69921875 14.76953125 -1.67578125 30.23828125 13.26171875 9.41015625 35.46875 9.4765625 8.94140625 34.109375 -2.0703125 9.078125 33.5 -2.1328125 14.26953125 -1.53125 -0.53125 13.91796875 0.40625 6.84375 12.97265625 6.84375 7.7890625 16.953125 -2.98828125 1.7890625 -11.078125 -2.98046875 1.7890625 9.75390625 36.55859375 8.1171875 -2.375 36.69140625 3.52734375 -14.484375 32.66796875 10.72265625 -13.46875 30.5078125 -6.98046875 -14.0859375 22.1953125 3.32421875 21.78125 19.50390625 9.4140625 19.55078125 25.9609375 5.05859375 20.65625 27.16796875 -4.390625 19.7109375 34.6015625 -3.66015625 -2.3515625 7.51171875 1.296875 21.94921875 49.6328125 -21.51171875 -30.14453125 15.984375 3.8671875 21.89453125</float_array>
                    <technique_common>
                        <accessor count="327" source="#pointarray0" stride="3">
                            <param name="X" type="float"/>
                            <param name="Y" type="float"/>
                            <param name="Z" type="float"/>
                        </accessor>
                    </technique_common>
                </source>
                <source id="uvs0">
                    <float_array id="uvarray0" count="868">0.5954020023345947 0.3827049732208252 0.6032260060310364 0.4068149924278259 0.6383609771728516 0.3829209804534912 0.6300129890441895 0.406948983669281 0.8978800177574158 0.46097302436828613 0.8978800177574158 0.464493989944458 0.882652997970581 0.46097302436828613 0.882652997970581 0.464493989944458 0.6407899856567383 0.46094197034835815 0.6550880074501038 0.46347397565841675 0.6407899856567383 0.45840901136398315 0.6550880074501038 0.45840901136398315 0.6264910101890564 0.46347397565841675 0.6264910101890564 0.45840901136398315 0.9131079912185669 0.464493989944458 0.8978800177574158 0.46889400482177734 0.9131079912185669 0.4715350270271301 0.882652997970581 0.46889400482177734 0.8674250245094299 0.4715350270271301 0.8674250245094299 0.464493989944458 0.6010720133781433 0.49285101890563965 0.6010720133781433 0.485759973526001 0.5867739915847778 0.49285101890563965 0.5867739915847778 0.48829197883605957 0.5724760293960571 0.485759973526001 0.5724760293960571 0.49285101890563965 0.8308780193328857 0.47681599855422974 0.8308780193328857 0.4856169819831848 0.815650999546051 0.47681599855422974 0.815650999546051 0.4803360104560852 0.8613340258598328 0.4803360104560852 0.8461059927940369 0.4856169819831848 0.8613340258598328 0.47681599855422974 0.8461059927940369 0.47681599855422974 0.6010720133781433 0.48170799016952515 0.5867739915847778 0.48170799016952515 0.5724760293960571 0.48170799016952515 0.5867739915847778 0.4751240015029907 0.6010720133781433 0.4776560068130493 0.5724760293960571 0.4776560068130493 0.8461059927940369 0.4724149703979492 0.8613340258598328 0.4702150225639343 0.6010720133781433 0.4665129780769348 0.5867739915847778 0.4665129780769348 0.6010720133781433 0.4705650210380554 0.5867739915847778 0.473097026348114 0.5724760293960571 0.4705650210380554 0.5724760293960571 0.4665129780769348 0.5867739915847778 0.4599289894104004 0.6010720133781433 0.462460994720459 0.5724760293960571 0.462460994720459 0.8308780193328857 0.4724149703979492 0.815650999546051 0.4702150225639343 0.819832980632782 0.36555302143096924 0.7948290109634399 0.3689489960670471 0.8209919929504395 0.37308698892593384 0.7825790047645569 0.3749449849128723 0.9496539831161499 0.464493989944458 0.9648820161819458 0.464493989944458 0.9496539831161499 0.46889400482177734 0.9648820161819458 0.4715350270271301 0.93442702293396 0.46889400482177734 0.93442702293396 0.464493989944458 0.9191989898681641 0.4715350270271301 0.9191989898681641 0.464493989944458 0.8334770202636719 0.38019198179244995 0.871425986289978 0.3881160020828247 0.8255559802055359 0.3816850185394287 0.8714330196380615 0.38197600841522217 0.6550880074501038 0.49343299865722656 0.6550880074501038 0.4877859950065613 0.6407899856567383 0.49343299865722656 0.6407899856567383 0.49031901359558105 0.6264910101890564 0.4877859950065613 0.6264910101890564 0.49343299865722656 0.882652997970581 0.47857600450515747 0.882652997970581 0.48913800716400146 0.8674250245094299 0.47857600450515747 0.8674250245094299 0.48209601640701294 0.9131079912185669 0.48209601640701294 0.8978800177574158 0.48913800716400146 0.9131079912185669 0.47857600450515747 0.8978800177574158 0.47857600450515747 0.6550880074501038 0.48373401165008545 0.6407899856567383 0.48373401165008545 0.6264910101890564 0.48373401165008545 0.6407899856567383 0.477150022983551 0.6550880074501038 0.4796820282936096 0.6264910101890564 0.4796820282936096 0.8978800177574158 0.47417497634887695 0.882652997970581 0.47417497634887695 0.8038970232009888 0.3875430226325989 0.7878209948539734 0.38263100385665894 0.6550880074501038 0.46752601861953735 0.6407899856567383 0.46752601861953735 0.6550880074501038 0.4715780019760132 0.6407899856567383 0.47411102056503296 0.6264910101890564 0.4715780019760132 0.6264910101890564 0.46752601861953735 0.8574000000953674 0.44396501779556274 0.8573150038719177 0.43731701374053955 0.8370199799537659 0.44389599561691284 0.8358389735221863 0.437296986579895 0.9072359800338745 0.44295400381088257 0.907817006111145 0.4371830224990845 0.8870059847831726 0.4435639977455139 0.886372983455658 0.43730199337005615 0.5391129851341248 0.4589160084724426 0.5391129851341248 0.46549999713897705 0.5534110069274902 0.4614480137825012 0.5534110069274902 0.46549999713897705 0.524815022945404 0.46549999713897705 0.524815022945404 0.4614480137825012 0.9655799865722656 0.4067729711532593 0.9660500288009644 0.3883259892463684 0.931693971157074 0.41079801321029663 0.929606020450592 0.38889098167419434 0.8330399990081787 0.425229012966156 0.8687949776649475 0.4250919818878174 0.8357269763946533 0.4089009761810303 0.8639199733734131 0.4107769727706909 0.785194993019104 0.475055992603302 0.7699679732322693 0.475055992603302 0.785194993019104 0.4715350270271301 0.7699679732322693 0.46889400482177734 0.9306269884109497 0.4248179793357849 0.9643009901046753 0.42907601594924927 0.5576210021972656 0.4080290198326111 0.5317540168762207 0.4093160033226013 0.556164026260376 0.43644702434539795 0.5240110158920288 0.43390601873397827 0.8004230260848999 0.4838569760322571 0.785194993019104 0.4838569760322571 0.8004230260848999 0.475055992603302 0.7136849761009216 0.43551599979400635 0.7089110016822815 0.45292001962661743 0.7198230028152466 0.44679999351501465 0.7165539860725403 0.45358699560165405 0.8004230260848999 0.4715350270271301 0.5391129851341248 0.473097026348114 0.5534110069274902 0.475629985332489 0.5391129851341248 0.47208499908447266 0.5534110069274902 0.4695519804954529 0.524815022945404 0.475629985332489 0.524815022945404 0.4695519804954529 0.8004230260848999 0.46625399589538574 0.785194993019104 0.46625399589538574 0.8004230260848999 0.4592130184173584 0.8004230260848999 0.4627329707145691 0.785194993019104 0.4592130184173584 0.785194993019104 0.4627329707145691 0.5391129851341248 0.4542980194091797 0.5534110069274902 0.4573959708213806 0.524815022945404 0.4573959708213806 0.7777130007743835 0.4362580180168152 0.767982006072998 0.4390559792518616 0.7880340218544006 0.4418179988861084 0.771291971206665 0.4447169899940491 0.9627460241317749 0.436460018157959 0.9467809796333313 0.4425309896469116 0.9645980000495911 0.4410160183906555 0.9618669748306274 0.44557297229766846 0.9688259959220886 0.4292449951171875 0.9700189828872681 0.4066479802131653 0.7039399743080139 0.43701398372650146 0.6943179965019226 0.40727299451828003 0.6738399863243103 0.44050300121307373 0.6701939702033997 0.4071509838104248 0.6744170188903809 0.3831019997596741 0.6501039862632751 0.4070500135421753 0.56038498878479 0.382066011428833 0.5831350088119507 0.40671300888061523 0.7699679732322693 0.4627329707145691 0.8461059927940369 0.4680140018463135 0.8308780193328857 0.4680140018463135 0.8461059927940369 0.46009302139282227 0.8461059927940369 0.46361398696899414 0.8308780193328857 0.46009302139282227 0.8308780193328857 0.46361398696899414 0.5867739915847778 0.4573959708213806 0.6010720133781433 0.4573959708213806 0.5724760293960571 0.4573959708213806 0.9393939971923828 0.3677840232849121 0.9393939971923828 0.366303026676178 0.9550880193710327 0.38348299264907837 0.9550889730453491 0.38200199604034424 0.5799210071563721 0.3599569797515869 0.6561710238456726 0.3594520092010498 0.5176309943199158 0.43313902616500854 0.5129709839820862 0.44248902797698975 0.5221620202064514 0.44851797819137573 0.5150949954986572 0.4490079879760742 0.6559590101242065 0.4403889775276184 0.6231549978256226 0.4436429738998413 0.8613340258598328 0.46361398696899414 0.815650999546051 0.46361398696899414 0.6052780151367188 0.4435669779777527 0.5740119814872742 0.4400479793548584 0.8714410066604614 0.36556899547576904 0.9155160188674927 0.3662949800491333 0.9266030192375183 0.38199299573898315 0.5534110069274902 0.4898120164871216 0.5534110069274902 0.48373401165008545 0.5391129851341248 0.4898120164871216 0.5391129851341248 0.48626601696014404 0.524815022945404 0.48373401165008545 0.524815022945404 0.4898120164871216 0.7699679732322693 0.47857600450515747 0.815650999546051 0.47857600450515747 0.815650999546051 0.475055992603302 0.5534110069274902 0.4796820282936096 0.5391129851341248 0.4796820282936096 0.524815022945404 0.4796820282936096 0.815650999546051 0.46889400482177734 0.9496539831161499 0.47417497634887695 0.93442702293396 0.47417497634887695 0.7002310156822205 0.39514100551605225 0.7002310156822205 0.38328200578689575 0.7155699729919434 0.394228994846344 0.7155699729919434 0.3791769742965698 0.6805070042610168 0.4796820282936096 0.6948059797286987 0.477150022983551 0.6805070042610168 0.4715780019760132 0.6948059797286987 0.47411102056503296 0.7091040015220642 0.4796820282936096 0.7091040015220642 0.4715780019760132 0.7155699729919434 0.40061497688293457 0.7002310156822205 0.40061497688293457 0.7309079766273499 0.39514100551605225 0.7309079766273499 0.38328200578689575 0.9496539831161499 0.47857600450515747 0.93442702293396 0.47857600450515747 0.6695550084114075 0.41247397661209106 0.6695550084114075 0.4060879945755005 0.6876819729804993 0.41247397661209106 0.6876819729804993 0.4060879945755005 0.9648820161819458 0.47857600450515747 0.7091040015220642 0.49343299865722656 0.7091040015220642 0.4877859950065613 0.6948059797286987 0.49343299865722656 0.6948059797286987 0.49031901359558105 0.6805070042610168 0.4877859950065613 0.6805070042610168 0.49343299865722656 0.815650999546051 0.4627329707145691 0.93442702293396 0.48913800716400146 0.9191989898681641 0.47857600450515747 0.9191989898681641 0.48209601640701294 0.6779209971427917 0.42615699768066406 0.6416670083999634 0.42615699768066406 0.6695550084114075 0.4215959906578064 0.6500329971313477 0.4215959906578064 0.6695550084114075 0.417946994304657 0.6500329971313477 0.417946994304657 0.6500329971313477 0.41247397661209106 0.6500329971313477 0.4060879945755005 0.6695550084114075 0.40061497688293457 0.6500329971313477 0.40061497688293457 0.9496539831161499 0.48913800716400146 0.7155699729919434 0.4033510088920593 0.7155699729919434 0.4097369909286499 0.7002310156822205 0.4033510088920593 0.7002310156822205 0.4097369909286499 0.7309079766273499 0.41247397661209106 0.743457019329071 0.41247397661209106 0.7309079766273499 0.4215959906578064 0.7408130168914795 0.4215959906578064 0.6805070042610168 0.48373401165008545 0.6948059797286987 0.48373401165008545 0.9648820161819458 0.48209601640701294 0.7309079766273499 0.4097369909286499 0.7309079766273499 0.4033510088920593 0.7091040015220642 0.48373401165008545 0.7002310156822205 0.41247397661209106 0.7002310156822205 0.4215959906578064 0.6876819729804993 0.4215959906578064 0.6834989786148071 0.38328200578689575 0.6681600213050842 0.3860189914703369 0.7155699729919434 0.4215959906578064 0.7155699729919434 0.41247397661209106 0.6948059797286987 0.46752601861953735 0.6805070042610168 0.46752601861953735 0.844539999961853 0.35263001918792725 0.8922240138053894 0.3526039719581604 0.8445379734039307 0.35655999183654785 0.8915039896965027 0.35655200481414795 0.6948059797286987 0.46094197034835815 0.7091040015220642 0.46347397565841675 0.7091040015220642 0.46752601861953735 0.6805070042610168 0.46347397565841675 0.6319059729576111 0.40061497688293457 0.6319059729576111 0.4060879945755005 0.7309079766273499 0.40061497688293457 0.8445379734039307 0.35670799016952515 0.8929399847984314 0.3566640019416809 0.6319059729576111 0.41247397661209106 0.7972850203514099 0.42536598443984985 0.8075349926948547 0.4070240259170532 0.9496539831161499 0.46097302436828613 0.93442702293396 0.46097302436828613 0.6948059797286987 0.45840901136398315 0.7091040015220642 0.45840901136398315 0.6805070042610168 0.45840901136398315 0.6876819729804993 0.40061497688293457 0.9039710164070129 0.4935380220413208 0.8902660012245178 0.49177801609039307 0.6264910101890564 0.49849700927734375 0.6550880074501038 0.49849700927734375 0.6709750294685364 0.46752601861953735 0.6709750294685364 0.475629985332489 0.7186359763145447 0.475629985332489 0.6709750294685364 0.46549999713897705 0.7186359763145447 0.46752601861953735 0.743457019329071 0.40061497688293457 0.6319059729576111 0.4215959906578064 0.6646199822425842 0.46752601861953735 0.6169589757919312 0.46549999713897705 0.6169589757919312 0.46752601861953735 0.6646199822425842 0.48373401165008545 0.6646199822425842 0.475629985332489 0.6169589757919312 0.475629985332489 0.6169589757919312 0.48373401165008545 0.6646199822425842 0.4877859950065613 0.8674250245094299 0.4625539779663086 0.6106039881706238 0.4644870162010193 0.5724760293960571 0.4989290237426758 0.8384919762611389 0.49001801013946533 0.852196991443634 0.49177801609039307 0.8247870206832886 0.49177801609039307 0.8765619993209839 0.4935380220413208 0.6169589757919312 0.4877859950065613 0.9648820161819458 0.4627060294151306 0.743457019329071 0.4063349962234497 0.6918650269508362 0.38328200578689575 0.7002310156822205 0.42615699768066406 0.7309079766273499 0.42615699768066406 0.6542159914970398 0.394228994846344 0.7186359763145447 0.48373401165008545 0.7186359763145447 0.4877859950065613 0.7091040015220642 0.49849700927734375 0.9191989898681641 0.4626380205154419 0.9420409798622131 0.49177801609039307 0.6709750294685364 0.48373401165008545 0.9283360242843628 0.4935380220413208 0.6709750294685364 0.4877859950065613 0.5629439949989319 0.4796820282936096 0.5629439949989319 0.48373401165008545 0.5152829885482788 0.4796820282936096 0.792809009552002 0.48737698793411255 0.7699679732322693 0.46097302436828613 0.5534110069274902 0.4958900213241577 0.5629439949989319 0.46347397565841675 0.850167989730835 0.39844799041748047 0.5294280052185059 0.3796190023422241 0.5146070122718811 0.4095500111579895 0.9421390295028687 0.43911802768707275 0.6209200024604797 0.456866979598999 0.6142169833183289 0.4436119794845581 0.664900004863739 0.44045400619506836 0.6564030051231384 0.45759397745132446 0.6660829782485962 0.45456600189208984 0.8177610039710999 0.4403979778289795 0.7982569932937622 0.43907397985458374 0.8213440179824829 0.4474160075187683 0.808230996131897 0.44284701347351074 0.6757280230522156 0.4550439715385437 0.8053230047225952 0.36305201053619385 0.8038039803504944 0.36559098958969116 0.7850810289382935 0.3809570074081421 0.9169449806213379 0.35751497745513916 0.8189489841461182 0.3575029969215393 0.6136400103569031 0.45635998249053955 0.5645470023155212 0.4520050287246704 0.5727750062942505 0.45636701583862305 0.5665670037269592 0.4399399757385254 0.607545018196106 0.4556419849395752 0.5552170276641846 0.45303601026535034 0.9223020076751709 0.44054198265075684 0.9293869733810425 0.44336998462677 0.9557459950447083 0.4935380220413208 0.6927340030670166 0.45448899269104004 0.550233006477356 0.3608279824256897 0.5968499779701233 0.3475779891014099 0.9199730157852173 0.4469969868659973 0.7208870053291321 0.40850400924682617 0.7140300273895264 0.40810102224349976 0.7214040160179138 0.4307199716567993 0.815650999546051 0.46097302436828613 0.5629439949989319 0.46549999713897705 0.5152829885482788 0.46347397565841675 0.6819390058517456 0.35890400409698486 0.7782689929008484 0.4259840250015259 0.762499988079071 0.4275779724121094 0.6137819886207581 0.46296799182891846 0.5629439949989319 0.459089994430542 0.7859990000724792 0.4057270288467407 0.7632129788398743 0.4048740267753601 0.6424639821052551 0.3478339910507202 0.5407940149307251 0.45138901472091675 0.589684009552002 0.4590659737586975 0.8740010261535645 0.44049400091171265 0.8735730051994324 0.44771498441696167 0.6386989951133728 0.4602530002593994 0.6999769806861877 0.3774759769439697 0.6805070042610168 0.49849700927734375 0.7186359763145447 0.46549999713897705 0.7692139744758606 0.3770869970321655 0.752236008644104 0.3837429881095886 0.7658720016479492 0.38319700956344604 0.6677979826927185 0.46161001920700073 0.6010720133781433 0.4989290237426758 0.6106039881706238 0.4665129780769348 0.6106039881706238 0.48170799016952515 0.5629439949989319 0.48170799016952515 0.5629439949989319 0.485759973526001 0.5629439949989319 0.4665129780769348 0.524815022945404 0.4958900213241577 0.5152829885482788 0.48373401165008545 0.8065140247344971 0.48913800716400146 0.7791039943695068 0.48913800716400146 0.5629439949989319 0.47259098291397095 0.5152829885482788 0.46549999713897705 0.5152829885482788 0.47259098291397095 0.6106039881706238 0.485759973526001 0.6106039881706238 0.47411102056503296 0.5629439949989319 0.47411102056503296 0.8613340258598328 0.46185302734375 0.5629439949989319 0.4644870162010193 0.6646199822425842 0.46549999713897705 0.9131079912185669 0.46262097358703613 0.815650999546051 0.46185302734375 0.5107830166816711 0.4332280158996582 0.7650780081748962 0.3973590135574341 0.7741469740867615 0.38757097721099854 0.7166540026664734 0.3828880190849304</float_array>
                    <technique_common>
                        <accessor count="434" source="#uvarray0" stride="2">
                            <param name="S" type="float"/>
                            <param name="T" type="float"/>
                        </accessor>
                    </technique_common>
                </source>
                <vertices id="vertices0">
                    <input semantic="POSITION" source="#points0"/>
                </vertices>
                <polylist count="650" material="Material1">
                    <input offset="0" semantic="VERTEX" source="#vertices0"/>
                    <input offset="1" semantic="TEXCOORD" source="#uvs0" set="0"/>
                    <vcount>3 3 3 3 3 3 3 3 3 3 3 3 3 3 3 3 3 3 3 3 3 3 3 3 3 3 3 3 3 3 3 3 3 3 3 3 3 3 3 3 3 3 3 3 3 3 3 3 3 3 3 3 3 3 3 3 3 3 3 3 3 3 3 3 3 3 3 3 3 3 3 3 3 3 3 3 3 3 3 3 3 3 3 3 3 3 3 3 3 3 3 3 3 3 3 3 3 3 3 3 3 3 3 3 3 3 3 3 3 3 3 3 3 3 3 3 3 3 3 3 3 3 3 3 3 3 3 3 3 3 3 3 3 3 3 3 3 3 3 3 3 3 3 3 3 3 3 3 3 3 3 3 3 3 3 3 3 3 3 3 3 3 3 3 3 3 3 3 3 3 3 3 3 3 3 3 3 3 3 3 3 3 3 3 3 3 3 3 3 3 3 3 3 3 3 3 3 3 3 3 3 3 3 3 3 3 3 3 3 3 3 3 3 3 3 3 3 3 3 3 3 3 3 3 3 3 3 3 3 3 3 3 3 3 3 3 3 3 3 3 3 3 3 3 3 3 3 3 3 3 3 3 3 3 3 3 3 3 3 3 3 3 3 3 3 3 3 3 3 3 3 3 3 3 3 3 3 3 3 3 3 3 3 3 3 3 3 3 3 3 3 3 3 3 3 3 3 3 3 3 3 3 3 3 3 3 3 3 3 3 3 3 3 3 3 3 3 3 3 3 3 3 3 3 3 3 3 3 3 3 3 3 3 3 3 3 3 3 3 3 3 3 3 3 3 3 3 3 3 3 3 3 3 3 3 3 3 3 3 3 3 3 3 3 3 3 3 3 3 3 3 3 3 3 3 3 3 3 3 3 3 3 3 3 3 3 3 3 3 3 3 3 3 3 3 3 3 3 3 3 3 3 3 3 3 3 3 3 3 3 3 3 3 3 3 3 3 3 3 3 3 3 3 3 3 3 3 3 3 3 3 3 3 3 3 3 3 3 3 3 3 3 3 3 3 3 3 3 3 3 3 3 3 3 3 3 3 3 3 3 3 3 3 3 3 3 3 3 3 3 3 3 3 3 3 3 3 3 3 3 3 3 3 3 3 3 3 3 3 3 3 3 3 3 3 3 3 3 3 3 3 3 3 3 3 3 3 3 3 3 3 3 3 3 3 3 3 3 3 3 3 3 3 3 3 3 3 3 3 3 3 3 3 3 3 3 3 3 3 3 3 3 3 3 3 3 3 3 3 3 3 3 3 3 3 3 3 3 3 3 3 3 3 3 3 3 3 3 3 3 3 3 3 3 3 3 3 3 3 3 3 3 3 3 3 3 3 3 3 3 3 3 3 3 3 3 3 3 3 3 3 3 3 3 3 3 3 3 3 3 3 3 3 3 3 3 3 3 3 3 3 3 3 3 3 3 3 3 3 3 3 3 3 3 3 3 3 3 3 3 3 3 3 3 3 3 3 3 3 3</vcount>
                    <p>2 2 1 1 0 0 3 3 1 1 2 2 6 6 5 5 4 4 7 7 5 5 6 6 10 10 9 9 8 8 11 11 9 9 10 10 13 13 8 8 12 12 10 10 8 8 13 13 15 15 14 14 5 5 16 16 14 14 15 15 5 5 17 17 15 15 7 7 17 17 5 5 7 7 18 18 17 17 19 19 18 18 7 7 22 22 21 21 20 20 23 23 21 21 22 22 22 22 24 24 23 23 25 25 24 24 22 22 28 28 27 27 26 26 29 29 27 27 28 28 32 32 31 31 30 30 33 33 31 31 32 32 21 21 35 35 34 34 23 23 35 35 21 21 24 24 35 35 23 23 36 36 35 35 24 24 38 38 35 35 37 37 34 34 35 35 38 38 39 39 35 35 36 36 37 37 35 35 39 39 32 32 40 40 33 33 41 41 40 40 32 32 44 44 43 43 42 42 45 45 43 43 44 44 46 46 43 43 45 45 47 47 43 43 46 46 49 49 43 43 48 48 42 42 43 43 49 49 50 50 43 43 47 47 48 48 43 43 50 50 51 51 28 28 26 26 52 52 28 28 51 51 33 33 27 27 31 31 26 26 27 27 33 33 51 51 33 33 40 40 26 26 33 33 51 51 45 45 38 38 37 37 44 44 38 38 45 45 46 46 37 37 39 39 45 45 37 37 46 46 55 55 54 54 53 53 56 56 54 54 55 55 59 59 58 58 57 57 60 60 58 58 59 59 57 57 61 61 59 59 62 62 61 61 57 57 62 62 63 63 61 61 64 64 63 63 62 62 67 67 66 66 65 65 68 68 66 66 67 67 71 71 70 70 69 69 72 72 70 70 71 71 71 71 73 73 72 72 74 74 73 73 71 71 77 77 76 76 75 75 78 78 76 76 77 77 81 81 80 80 79 79 82 82 80 80 81 81 70 70 84 84 83 83 72 72 84 84 70 70 73 73 84 84 72 72 85 85 84 84 73 73 87 87 84 84 86 86 83 83 84 84 87 87 88 88 84 84 85 85 86 86 84 84 88 88 15 15 90 90 89 89 17 17 90 90 15 15 81 81 89 89 82 82 16 16 89 89 81 81 91 91 67 67 65 65 92 92 67 67 91 91 95 95 94 94 93 93 96 96 94 94 95 95 97 97 94 94 96 96 98 98 94 94 97 97 9 9 94 94 8 8 93 93 94 94 9 9 12 12 94 94 98 98 8 8 94 94 12 12 90 90 77 77 75 75 18 18 77 77 90 90 92 92 55 55 67 67 56 56 55 55 92 92 82 82 76 76 80 80 75 75 76 76 82 82 4 101 99 100 6 99 100 102 99 100 4 101 90 90 82 82 89 89 75 75 82 82 90 90 96 96 87 87 86 86 95 95 87 87 96 96 97 97 86 86 88 88 96 96 86 86 97 97 103 105 102 104 101 103 104 106 102 104 103 105 107 109 106 108 105 107 108 110 106 108 107 109 110 112 106 108 109 111 105 107 106 108 110 112 113 115 112 114 111 113 114 116 112 114 113 115 117 119 116 118 115 117 118 120 116 118 117 119 121 123 120 122 119 121 122 124 120 122 121 123 113 115 116 118 118 120 123 125 116 118 113 115 111 113 123 125 113 115 124 126 123 125 111 113 127 129 126 128 125 127 128 130 126 128 127 129 131 133 130 132 129 131 119 121 130 132 131 133 134 136 133 135 132 134 135 137 133 135 134 136 121 123 131 133 136 138 119 121 131 133 121 123 139 141 138 140 137 139 140 142 138 140 139 141 142 144 137 139 141 143 139 141 137 139 142 144 143 145 121 123 136 138 144 146 121 123 143 145 147 149 146 148 145 147 148 150 146 148 147 149 149 151 107 109 105 107 150 152 107 109 149 151 151 153 105 107 110 112 149 151 105 107 151 153 153 156 134 155 152 154 135 157 134 155 153 156 155 160 147 159 154 158 156 161 147 159 155 160 154 158 157 162 155 160 124 126 157 162 154 158 158 163 124 126 111 113 157 162 124 126 158 163 161 166 160 165 159 164 162 167 160 165 161 166 164 169 163 168 162 167 2 2 163 168 164 169 166 171 165 170 0 0 125 127 165 170 166 171 148 150 122 124 144 146 167 172 122 124 148 150 146 148 144 146 143 145 148 150 144 146 146 148 168 173 51 51 40 40 169 174 51 51 168 173 101 177 170 176 103 175 171 178 170 176 101 177 172 179 49 49 48 48 173 180 49 49 172 179 174 181 48 48 50 50 172 179 48 48 174 181 177 184 176 183 175 182 178 185 176 183 177 184 180 187 0 0 179 186 2 2 0 0 180 187 151 190 155 189 181 188 156 191 155 189 151 190 183 193 164 169 182 192 3 3 164 169 183 193 168 173 184 194 170 176 41 41 184 194 168 173 170 176 169 174 168 173 171 178 169 174 170 176 171 178 52 52 169 174 185 195 52 52 171 178 186 196 166 171 1 1 187 197 166 171 186 196 189 199 68 68 188 198 190 200 68 68 189 199 176 183 190 200 189 199 178 185 190 200 176 183 193 203 192 202 191 201 194 204 192 202 193 203 193 203 195 205 194 204 196 206 195 205 193 203 120 122 130 132 119 121 197 207 130 132 120 122 199 209 129 131 198 208 131 133 129 131 199 209 192 202 201 211 200 210 194 204 201 211 192 202 195 205 201 211 194 204 202 212 201 211 195 205 138 140 201 211 137 139 200 210 201 211 138 140 141 143 201 211 202 212 137 139 201 211 141 143 199 209 136 138 131 133 203 213 136 138 199 209 190 200 66 66 68 68 114 116 66 66 190 200 178 185 114 116 190 200 112 114 114 116 178 185 140 142 106 108 108 110 139 141 106 108 140 142 142 144 106 108 139 141 109 111 106 108 142 144 59 59 205 215 204 214 61 61 205 215 59 59 208 218 207 217 206 216 209 219 207 217 208 218 212 222 211 221 210 220 213 223 211 221 212 222 213 223 214 224 211 221 215 225 214 224 213 223 208 218 217 227 216 226 206 216 217 227 208 218 218 228 209 219 208 218 219 229 209 219 218 228 205 215 220 230 204 214 221 231 220 230 205 215 224 234 223 233 222 232 225 235 223 233 224 234 226 236 204 214 220 230 60 60 204 214 226 236 229 239 228 238 227 237 230 240 228 238 229 239 229 239 231 241 230 240 232 242 231 241 229 239 143 145 233 243 146 148 203 213 233 243 143 145 235 245 234 244 221 231 236 246 234 244 235 245 239 249 238 248 237 247 240 250 238 248 239 249 241 251 240 250 239 249 242 252 240 250 241 251 222 232 242 252 241 251 243 253 242 252 222 232 245 255 244 254 223 233 246 256 244 254 245 255 220 230 234 244 247 257 221 231 234 244 220 230 223 233 243 253 222 232 244 254 243 253 223 233 250 260 249 259 248 258 251 261 249 259 250 260 254 264 253 263 252 262 255 265 253 263 254 264 210 220 257 267 256 266 211 221 257 267 210 220 205 215 235 245 221 231 63 63 235 245 205 215 226 236 247 257 258 268 220 230 247 257 226 236 260 270 249 259 259 269 248 258 249 259 260 270 228 238 257 267 261 271 230 240 257 267 228 238 231 241 257 267 230 240 256 266 257 267 231 241 214 224 257 267 211 221 261 271 257 267 214 224 224 234 263 273 262 272 264 274 263 273 224 234 265 276 245 255 91 275 246 256 245 255 265 276 252 262 266 277 254 264 267 278 266 277 252 262 259 269 267 278 252 262 249 259 267 278 259 269 212 222 268 279 213 223 269 280 268 279 212 222 272 283 271 282 270 281 273 284 271 282 272 283 275 286 268 279 274 285 276 287 268 279 275 286 277 288 268 279 269 280 274 285 268 279 277 288 278 289 244 254 246 256 279 290 244 254 278 289 260 270 216 226 248 258 280 291 216 226 260 270 218 228 216 226 280 291 208 218 216 226 218 228 270 281 282 293 281 292 271 282 282 293 270 281 244 254 253 294 243 253 279 290 253 294 244 254 283 295 117 119 115 117 265 296 117 119 283 295 250 260 216 226 217 227 248 258 216 226 250 260 215 225 268 279 276 287 213 223 268 279 215 225 284 298 57 57 153 297 62 62 57 57 284 298 285 299 275 286 274 285 133 300 275 286 285 299 286 301 274 285 277 288 285 299 274 285 286 301 223 233 287 302 245 255 225 235 287 302 223 233 123 125 104 106 116 118 102 104 104 106 123 125 116 118 100 102 115 117 99 100 100 102 116 118 251 261 267 278 249 259 262 272 267 278 251 261 267 278 263 273 266 277 262 272 263 273 267 278 80 80 289 304 288 303 288 306 290 305 71 71 212 222 63 308 64 307 60 309 214 224 215 225 212 222 64 307 269 280 277 288 64 307 291 310 58 311 276 287 275 286 260 270 278 312 280 291 240 250 255 313 238 248 252 262 253 263 259 269 224 234 251 261 225 235 14 314 93 93 9 9 12 12 19 316 292 315 97 97 19 316 98 98 87 87 16 318 81 317 97 97 18 319 19 316 81 317 83 83 87 87 88 88 77 320 18 319 79 321 70 70 81 317 73 73 77 320 85 85 80 80 76 76 289 304 19 19 6 6 292 322 81 317 70 70 83 83 14 314 95 95 93 93 292 323 49 49 173 180 293 324 25 25 22 22 293 327 295 326 294 325 90 90 17 17 18 18 69 69 79 321 288 306 76 76 78 78 290 328 74 74 78 329 73 73 286 301 277 288 291 310 58 58 135 330 153 297 62 62 284 298 64 64 287 302 225 235 250 260 251 261 250 260 225 235 259 269 279 331 260 270 218 228 280 291 278 312 207 217 92 332 287 302 263 273 264 274 237 333 238 334 254 264 266 277 262 272 251 261 224 234 239 249 237 247 264 274 250 260 217 227 287 302 203 213 143 145 136 138 121 123 144 146 122 124 260 270 279 331 278 312 259 269 253 263 279 331 238 334 266 277 237 333 246 256 265 276 296 335 263 273 237 333 266 277 241 251 239 249 264 274 287 302 217 227 206 216 238 334 255 265 254 264 255 313 240 250 242 252 226 336 261 271 214 224 227 237 228 238 258 337 205 215 61 61 63 63 60 60 59 59 204 214 58 58 153 297 57 57 227 237 297 338 229 239 64 64 284 298 291 339 247 257 234 244 298 340 231 241 235 341 256 266 258 337 228 238 226 336 210 220 235 341 63 308 69 69 288 306 71 71 14 14 4 4 5 5 16 16 15 15 89 89 234 244 236 246 299 342 232 242 236 343 231 241 92 332 91 275 245 255 92 332 245 255 287 302 287 302 206 216 207 217 296 335 218 228 278 289 296 335 278 289 246 256 296 335 219 229 218 228 255 313 242 252 253 294 241 251 264 274 224 234 241 251 224 234 222 232 253 294 242 252 243 253 198 345 192 202 199 344 195 205 120 346 202 212 129 131 130 132 300 347 167 172 147 149 156 348 191 201 301 349 193 203 302 350 107 109 150 152 146 148 233 243 145 147 100 102 283 295 115 117 128 130 181 188 126 128 65 65 303 351 91 91 126 128 158 353 177 352 102 104 123 125 304 354 2 2 164 169 3 3 165 170 125 127 126 128 166 171 0 0 1 1 305 356 183 193 13 355 307 359 11 358 306 357 4 101 308 360 100 102 100 102 308 360 309 361 291 362 308 360 4 101 308 360 284 363 309 361 306 357 161 166 286 364 162 167 306 357 164 169 305 356 186 196 1 1 312 367 311 366 310 365 175 182 313 368 273 284 310 365 311 366 314 369 305 356 13 355 315 370 317 373 174 372 316 371 286 364 307 359 306 357 305 356 173 374 186 196 3 3 305 356 1 1 166 171 317 373 125 127 127 129 317 373 150 375 304 354 145 377 318 376 175 182 176 183 313 368 247 257 298 340 297 378 162 167 161 166 306 357 304 354 147 159 145 377 152 154 309 361 153 156 182 192 164 169 306 357 127 129 125 127 317 373 161 166 159 164 285 379 273 381 179 186 175 380 313 368 176 183 282 293 158 163 111 113 112 114 302 382 318 376 145 377 101 103 318 376 302 382 188 198 53 53 281 292 282 293 189 199 188 198 273 284 313 368 271 282 188 198 281 292 282 293 159 164 133 135 285 379 162 167 163 168 160 165 270 281 314 369 272 283 321 385 320 384 319 383 148 150 147 149 167 172 145 147 233 243 302 386 233 387 107 109 302 350 151 153 110 112 156 388 163 168 180 187 311 389 177 352 165 170 126 128 181 188 128 130 151 190 321 391 322 390 152 154 303 351 117 119 265 296 321 391 152 154 134 155 132 134 160 165 320 384 124 126 154 158 304 354 173 374 315 370 292 392 302 393 316 371 174 372 91 91 303 351 265 296 65 65 66 66 303 351 302 393 150 375 316 371 310 365 53 53 54 54 113 115 118 120 66 66 322 390 321 391 296 394 296 394 321 391 319 395 315 370 13 355 292 392 273 381 272 396 180 187 154 158 147 159 304 354 114 116 113 115 66 66 127 129 149 397 128 130 149 397 127 129 150 375 187 197 174 372 317 373 315 370 173 374 305 356 165 170 175 380 179 186 174 372 187 197 172 398 318 376 101 103 102 104 318 376 102 104 304 354 165 170 179 186 0 0 104 106 103 105 323 399 6 99 323 399 292 400 163 168 2 2 180 187 104 106 323 399 99 100 183 193 10 401 13 355 312 402 163 168 311 389 68 68 55 55 188 198 11 358 10 401 182 192 159 164 160 165 132 134 297 338 299 403 229 239 58 311 275 286 135 404 58 311 215 225 276 287 226 336 228 238 261 271 231 241 236 343 235 341 256 266 235 341 210 220 269 280 64 307 277 288 299 342 297 378 298 340 299 403 232 242 229 239 135 404 275 286 133 300 227 237 258 337 297 338 236 343 232 242 299 403 247 257 297 378 258 268 234 244 299 342 298 340 58 311 60 309 215 225 214 224 60 309 226 336 210 220 63 308 212 222 161 166 285 379 286 364 284 363 308 360 291 362 323 399 6 99 99 100 124 126 304 354 123 125 152 154 283 295 309 361 116 118 104 106 99 100 309 361 283 295 100 102 324 405 54 54 56 56 324 405 207 407 209 406 307 359 291 408 11 358 55 55 68 68 67 67 303 351 118 120 117 119 265 296 322 390 296 394 307 359 286 364 291 408 295 409 293 324 22 22 184 410 44 44 42 42 32 411 21 21 34 34 24 24 29 413 28 412 36 36 28 412 39 39 47 47 185 414 50 50 191 201 198 345 301 349 197 416 196 206 325 415 129 131 301 417 198 208 130 132 325 418 300 347 233 387 203 419 140 142 203 419 138 140 140 142 142 144 122 421 167 420 20 20 30 422 295 409 29 413 25 25 293 324 31 31 295 326 30 30 27 27 293 327 294 325 184 410 41 423 44 44 38 38 41 423 32 411 39 39 52 424 46 46 171 178 101 177 185 195 103 175 184 194 292 425 184 410 49 49 292 323 174 181 50 50 302 426 196 206 197 416 195 205 130 132 197 207 325 418 191 201 192 202 198 345 13 13 12 12 292 315 25 25 29 413 24 24 27 27 29 29 293 327 73 73 78 329 77 320 85 85 77 320 88 88 98 98 19 316 12 12 290 328 288 303 289 304 290 305 74 74 71 71 291 427 9 9 11 11 69 69 70 70 79 321 78 329 74 74 290 305 80 80 288 303 79 79 76 76 290 328 289 304 14 314 16 318 95 95 16 318 87 87 95 95 88 88 18 319 97 97 7 7 6 6 19 19 14 14 291 428 4 4 14 314 9 9 291 427 41 41 168 173 40 40 170 176 184 194 103 175 20 20 295 409 22 22 185 195 101 177 302 429 31 31 27 27 294 325 24 24 28 412 36 36 30 422 21 21 32 411 39 39 28 412 52 424 32 411 34 34 38 38 46 46 52 424 185 414 41 423 38 38 44 44 46 46 185 414 47 47 50 50 185 414 302 426 184 410 42 42 49 49 31 31 294 325 295 326 281 292 310 365 314 369 312 402 160 165 163 168 165 170 177 352 175 380 313 368 282 293 271 282 53 53 188 198 55 55 272 283 314 369 311 366 281 292 314 369 270 281 306 357 11 358 182 192 151 190 128 130 149 397 132 134 133 135 159 164 157 430 181 188 155 189 153 156 309 361 284 363 158 353 126 128 181 188 324 405 312 367 54 54 54 54 312 367 310 365 103 105 292 400 323 399 160 165 312 402 320 384 158 163 112 114 177 184 316 371 150 375 317 373 172 398 187 197 186 196 173 374 172 398 186 196 112 114 178 185 177 184 182 192 10 401 183 193 319 395 219 431 296 394 158 353 181 188 157 430 324 405 209 406 219 431 324 405 56 56 207 407 132 134 321 385 134 136 281 292 53 53 310 365 166 171 187 197 317 373 3 3 183 193 305 356 20 20 21 21 30 422 51 51 169 174 52 52 141 143 120 346 122 421 199 344 200 210 138 140 141 143 122 421 142 144 138 140 203 419 199 344 142 144 167 420 109 111 110 112 167 420 156 388 233 387 108 110 107 109 129 131 300 347 301 417 301 349 325 415 193 203 233 387 140 142 108 110 199 344 192 202 200 210 195 205 197 416 120 346 202 212 120 346 141 143 109 111 167 420 110 112 325 418 301 417 300 347 325 415 196 206 193 203 92 92 207 407 56 56 152 154 322 390 283 295 66 66 118 120 303 351 265 296 283 295 322 390 324 405 326 432 312 367 219 431 326 432 324 405 320 384 326 433 319 383 132 134 320 384 321 385 320 384 312 402 326 433 319 395 326 432 219 431 179 186 273 381 180 187 272 396 311 389 180 187 176 183 189 199 282 293</p>
                </polylist>
            </mesh>
        </geometry>
    </library_geometries>
    <library_visual_scenes>
        <visual_scene id="VisualSceneNode">
            <node id="node0" name="m0" type="NODE">
                <instance_geometry url="#mesh0">
                    <bind_material>
                        <technique_common>
                            <instance_material symbol="Material1" target="#mat0">
                                <bind_vertex_input semantic="UVSET0" input_semantic="TEXCOORD" input_set="0"></bind_vertex_input>
                            </instance_material>
                        </technique_common>
                    </bind_material>
                </instance_geometry>
            </node>
        </visual_scene>
    </library_visual_scenes>
    <scene>
        <instance_visual_scene url="#VisualSceneNode"></instance_visual_scene>
    </scene>
</COLLADA>
