<?xml version="1.0"?>
<COLLADA xmlns="http://www.collada.org/2005/11/COLLADASchema" version="1.4.1">
    <asset>
        <contributor>
            <authoring_tool>J3D Ripoff Exporter</authoring_tool>
        </contributor>
        <created>2024-08-02T13:58:08.068Z</created>
        <modified>2024-08-02T13:58:08.068Z</modified>
		<unit meter="0.01" name="centimeter" ></unit>
        <up_axis>Y_UP</up_axis>
    </asset>
    <library_images>
        <image id="tex0">
            <init_from>donkey_all.png</init_from>
        </image>
    </library_images>
    <library_effects>
        <effect id="effect0">
            <profile_COMMON>
                <newparam sid="surface0">
                    <surface type="2D">
                        <init_from>tex0</init_from>
                    </surface>
                </newparam>
                <newparam sid="sampler0">
                    <sampler2D>
                        <source>surface0</source>
                    </sampler2D>
                </newparam>
                <technique sid="COMMON">
                    <blinn>
                        <diffuse>
                            <texture texture="sampler0" texcoord="UVSET0"></texture>
                        </diffuse>
                    </blinn>
                </technique>
            </profile_COMMON>
        </effect>
    </library_effects>
    <library_materials>
        <material id="mat0" name="donkey_All">
            <instance_effect url="#effect0"></instance_effect>
        </material>
    </library_materials>
    <library_geometries>
        <geometry id="mesh0">
            <mesh>
                <source id="points0">
                    <float_array id="pointarray0" count="981">8.85546875 14.87890625 -5.89453125 20.9609375 16.6796875 -4.1171875 8.84375 14.87890625 3.5078125 20.953125 16.6796875 1.74609375 38.1328125 -1.40625 7.04296875 45.0390625 0.015625 5.8125 38.21875 -1.4765625 1.2734375 45.4765625 0.26953125 1.59765625 43.15625 14.26953125 3.94921875 42.5625 12.70703125 8.7109375 38.26953125 14.578125 3.765625 38.29296875 13.19921875 8.45703125 43.6015625 13.3359375 -0.37109375 38.4453125 13.84765625 -0.8203125 46.3515625 5.109375 9.8203125 50.41796875 -1.921875 6.3359375 54.875 2.8515625 10.19921875 50.93359375 -1.5390625 1.63671875 56.07421875 3.87890625 -1.6796875 47.16796875 5.328125 -1.73046875 72.00390625 -0.578125 -12.5 69.0703125 4.140625 -11.65625 72.4921875 -0.3046875 -16.15234375 68.81640625 4.58203125 -15.765625 66.22265625 3.1015625 -19.1796875 69.23828125 -1.44921875 -18.875 56.68359375 -5.40625 -14.70703125 62.1484375 -7.328125 -15.890625 57.46875 -0.5390625 -17.9765625 63.78125 -3.52734375 -18.890625 66.953125 -3.35546875 -9.20703125 64.18359375 -6.71484375 -10.6875 61.5390625 -0.08984375 -7.6875 58.69921875 -4.81640625 -9.87109375 65.2421875 6.65625 -10.55859375 64.6875 7.56640625 -14.98046875 61.71875 5.484375 -18.67578125 59.3828125 9.33203125 -14.1015625 60.06640625 8.00390625 -9.2109375 56.65625 7.5234375 -17.58203125 55.66796875 -2.75 -9.51171875 56.5 2.609375 -6.375 48.796875 10.73046875 -6.18359375 47.60546875 12.90234375 -10.9296875 55.14453125 9.69921875 -7.82421875 54.3984375 11.01171875 -12.6796875 51.77734375 9.40625 -16.6328125 45.3828125 10.33203125 -15.2421875 42.91015625 13.51953125 -9.81640625 44.578125 12.1328125 -4.98046875 41.50390625 11.54296875 -14.484375 53.83203125 -2.953125 -14.37109375 52.79296875 2.0234375 -17.05078125 0.375 -9.12109375 8.53125 0.29296875 -2.5859375 17.421875 3.53125 -11.26953125 10.03515625 2.7890625 -4.1953125 20.234375 39.58203125 -0.375 19.70703125 39.984375 3.7109375 23.49609375 43.1484375 -1.640625 20.96484375 45.57421875 2.43359375 25.484375 45.53125 -2.046875 17.109375 42.06640625 -0.04296875 15.51171875 51.73046875 2.578125 16.14453125 46.25390625 4.29296875 13.82421875 13.984375 -13.12890625 10.20703125 14.30859375 -12.30859375 -1.3671875 7.1953125 -12.609375 10.30859375 7.2578125 -10.58203125 -1.37109375 73.6171875 -0.453125 8.8203125 70.53515625 4.23046875 9.18359375 75.71875 0.38671875 5.109375 72.3125 5.1171875 4.89453125 70.93359375 4.16015625 0.4140625 73.8203125 -0.48828125 1.22265625 61.1640625 -4.0390625 2.0625 66.15234375 -6.1640625 2.0859375 63.8515625 0.25 -0.96875 69.13671875 -2.77734375 -0.09765625 68.78515625 -2.71875 9.9140625 66.1015625 -6.1484375 7.265625 63.22265625 0.3515625 10.27734375 60.91015625 -4.0625 6.71484375 66.4296875 7.0546875 9.2578125 67.12890625 9.04296875 4.9765625 66.93359375 6.97265625 0.1875 59.7890625 11.3828125 4.53515625 58.78515625 9.10546875 9.27734375 59.609375 9.93359375 0.04296875 56.89453125 -0.31640625 6.69921875 57.3515625 0.078125 1.984375 16.55078125 -13.22265625 16.515625 7.51953125 -11.6484375 18.83984375 48.625 11.1484375 8.7265625 49.25390625 12.90234375 4.125 53.296875 10.140625 9.26953125 54.32421875 12.0078125 4.234375 54.26171875 10.734375 -0.0234375 49.421875 11.59375 -0.30078125 33.6328125 -5.26953125 1.0546875 33.78515625 -5.796875 7.734375 37.3828125 -1.4765625 -10.72265625 32.05078125 -4.25 -10.52734375 37.98828125 -1.375 -6.4453125 32.6484375 -4.7109375 -4.4921875 39.96875 10.93359375 -23.01953125 44.7421875 9.10546875 -25.0078125 42.953125 10.078125 -19.72265625 46.55859375 8.546875 -21.35546875 41.20703125 7.71875 -28.43359375 37.921875 8.89453125 -26.9140625 20.8984375 -3.9921875 -21.3828125 14.40625 -5.28125 -20.48046875 23.8125 -8.66015625 -14.17578125 14.640625 -11.50390625 -13.73828125 28.28515625 -8.0625 9.234375 25.6484375 -6.6015625 0.6484375 23.875 -9.953125 9.796875 21.02734375 -9.69140625 0.2265625 47.453125 -6.73828125 -27.8828125 49.19921875 -1.62109375 -31.09765625 45.19921875 -4.46875 -26.87890625 43.0859375 -0.16796875 -29.375 26.42578125 -7.37109375 -14.24609375 24.5 -3.39453125 -21.19140625 21.46484375 15.109375 -12.91015625 20.73046875 12.12890625 -18.5703125 31.2578125 14.38671875 -16.5546875 28.5546875 11.93359375 -21.21875 54.75 -8.1484375 -25.32421875 51.6796875 -8.6015625 -29.5703125 50.35546875 -6.26953125 -23.62109375 28.3203125 8.91015625 19.72265625 32.78515625 10.59765625 20.34375 29.05078125 3.06640625 20.7734375 33.0078125 4.2109375 21.4765625 47.2109375 -4.6015625 -22.42578125 51.37109375 6.7890625 -27.74609375 52.51171875 6.19921875 -23.70703125 48.265625 7.7890625 -26.4453125 49.30859375 7.0078125 -22.76171875 47.5390625 4.890625 -30.9140625 44.609375 6.546875 -29.94140625 42.4296875 -3.5 -20.7421875 39.9453125 -3.6484375 -24.73828125 34.76953125 -1.01171875 -18.11328125 39.24609375 -1.828125 -19.67578125 32.63671875 -1.1328125 -21.83203125 36.73828125 -2.078125 -23.44140625 35.5546875 11.9375 -21.24609375 38.44140625 10.96875 -17.4609375 33.3359375 9.51171875 -25.140625 29.38671875 -2.265625 19.09765625 33.90234375 -0.96875 17.77734375 29.19921875 -1.4765625 -22.03125 27.6328125 2.23046875 -23.51953125 34.18359375 3.21875 -25.8828125 25.50390625 2.38671875 -23.765625 19.796875 3.59765625 -22.32421875 29.05859375 12.20703125 17.98828125 20.9375 12.75 15.82421875 30.15234375 14.67578125 11.5078125 20.9453125 14.99609375 10.54296875 8.8359375 12.20703125 11.3984375 20.94921875 16.15234375 6.14453125 8.69140625 13.78515625 -12.375 20.96875 16.15234375 -8.515625 38.8984375 2.22265625 -27.93359375 49.78125 -2.6640625 -8.3515625 48.21875 -2.890625 -12.9296875 44.66015625 -0.2109375 -7.58984375 43.7109375 -0.2421875 -11.67578125 38.68359375 14.76953125 -8.8359375 40.03125 13.5078125 -4.171875 38.21875 12.73828125 -13.54296875 1.32421875 5.8515625 -15.82421875 0.70703125 -2.3203125 -15.82421875 7.90234375 6.15625 -19.15625 8.6171875 -4.3828125 -19.15625 0.96484375 11.44921875 -9.328125 0.6328125 11.47265625 7.359375 27.59765625 8.08203125 -23.703125 30.13671875 15.39453125 7.50390625 30.8671875 16.4375 0.328125 48.55859375 5.17578125 -4.85546875 44.5390625 5.12890625 -15.6640625 30.88671875 16.44140625 -3.58203125 31.18359375 15.3828125 -10.43359375 0.38671875 -10.2890625 -1.375 0.69921875 -9.12109375 -10.74609375 7.2734375 -11.109375 -12.0078125 61.0703125 -2.78125 -27.01953125 59.8984375 0.99609375 -26.45703125 60.5234375 -2.5078125 -30.890625 59.12890625 1.046875 -30.33984375 55.3203125 -0.06640625 -32.8828125 56.8203125 -3.68359375 -32.578125 52.39453125 -6.765625 -31.5546875 57.48046875 -4.69921875 -24.2109375 55.0546875 0.2109375 -22.70703125 56.5078125 4.328125 -25.328125 55.3671875 4.62109375 -29.27734375 51.77734375 2.63671875 -32.26953125 49.13671875 2 -20.73828125 46.875 -1.83984375 22.48828125 49.48828125 -2.125 18.88671875 9.92578125 -7.57421875 26.3125 5.8671875 -5.8359375 23.12890625 13.3515625 0.609375 27.34765625 10.140625 2.6328125 24.2734375 57.84765625 6.40234375 19.87109375 56.8203125 8.1015625 24.1015625 52.53515625 8.80859375 17.4375 51.1484375 10.69921875 21.79296875 52.5625 6.703125 27.4140625 47.23046875 8.6640625 25.2421875 16.328125 -0.77734375 29.90234375 13.078125 -8.8125 28.74609375 19.4765625 3.5703125 24.51171875 18 5.51171875 23.06640625 50.0859375 -4.50390625 23.953125 52.81640625 -4.671875 20.28515625 28.3359375 -16.0703125 30.1875 23.2578125 -13.734375 27.6640625 23.78125 -15.88671875 34.75 18.8828125 -13.88671875 30.94921875 51.4375 -0.33203125 27.95703125 61.8515625 -1.55078125 30.26953125 60.21875 1.86328125 30.17578125 65.57421875 -0.8984375 27.64453125 63.73828125 2.61328125 26.90625 64.75 2.20703125 22.9296875 66.1328125 -1.46875 23.77734375 43.64453125 3.3984375 -18.42578125 57.12109375 -6.3984375 21.8828125 57.87109375 0.07421875 18.796875 60.78125 -4.1875 20.61328125 34.421875 -16.12890625 40.81640625 39.33984375 -12.22265625 38.76171875 35.9453125 -16.89453125 36.171875 39.66796875 -14.0078125 34.66015625 31.63671875 -16.67578125 32.48046875 36.3984375 -12.9765625 30.1640625 33.78515625 -11.546875 27.8515625 29.37109375 -9.3359375 25.484375 20.1875 -13.00390625 22.87109375 26.8203125 -8.7265625 21.03125 54.375 -6.30859375 25.54296875 18.84375 -2.04296875 32.48046875 22.41015625 -3.66796875 35.39453125 15.60546875 -10.203125 31.4140625 18.9375 -11.6171875 34.08203125 31.4140625 -3.47265625 36.47265625 35.94140625 -6.578125 32.0703125 36.45703125 -6.84765625 38.82421875 38.7421875 -8.77734375 35.36328125 61.53515625 4.19921875 21.609375 60.5625 5.80859375 25.62109375 54.89453125 -3.99609375 28.45703125 27.47265625 -1.5 33.25390625 24.078125 -0.00390625 29.7890625 56.4375 4.28125 28.89453125 23 -12.98046875 37.55078125 28.8515625 -14.53125 41.15625 30.0234375 -16.8203125 38.57421875 22.2109375 -10.16015625 15.5234375 31.90625 -9.88671875 41.60546875 26.47265625 -6.015625 39.078125 45.43359375 12.22265625 19.73046875 47.44921875 10.00390625 15.34765625 -5.02734375 1.9296875 4.3359375 -5.03515625 1.9140625 -5.796875 -3.3828125 7.796875 4.3359375 -3.37890625 7.796875 -5.64453125 39.81640625 12.8359375 17.7265625 37.26953125 10.65234375 21.9921875 42.828125 9.59765625 23.5546875 42.5703125 11.6015625 13.59765625 27.546875 -2.078125 24.078125 30.80859375 -4.27734375 27.65625 21.78515625 1.70703125 27.31640625 -3.3203125 -5.08984375 4.3359375 -3.33203125 -5.125 -5.94921875 27.62890625 -7.37109375 14.3984375 36.359375 -0.88671875 12.62890625 34.8828125 12.94921875 15.546875 37 11.94140625 11.49609375 14.05859375 -12.18359375 26.3046875 74.1171875 -4.41015625 7.65625 70.40234375 -6.578125 4.99609375 74.16796875 -4.42578125 2.4765625 38.2421875 4.14453125 10.05859375 39.8671875 3.84765625 -2.94921875 69.57421875 -4.890625 -18.30859375 67.765625 -7.49609375 -14.23828125 72.21875 -4.890625 -12.1953125 26.75390625 -2.14453125 21.80078125 61.6640625 -5.58203125 28.4140625 59.4140625 -7.171875 25.13671875 64.4140625 -5.671875 24.75390625 56.55078125 -8.2734375 -28.65625 61.3828125 -6.31640625 -27.546875 37.45703125 4.3125 -14.9921875 19.25390625 -10.9140625 9.44921875 31.65625 -3.0859375 -17.3046875 30.703125 14.76953125 -1.625 30.2265625 13.2578125 9.4609375 35.65234375 9.46484375 9.59765625 36.08984375 -3.18359375 9.45703125 31.73046875 -4.72265625 14.1953125 -1.55078125 -0.53125 13.94140625 0.390625 6.84375 13 6.8203125 7.7890625 16.984375 -2.97265625 1.7890625 -11.0546875 -2.9921875 1.7890625 9.77734375 36.53515625 9.125 -2.6328125 35.81640625 9.1875 -14.21484375 31.35546875 13.30859375 -13.41796875 34.1640625 -2.6015625 -14.546875 22.16796875 5.08984375 21.82421875 19.4765625 9.4140625 19.59375 25.93359375 5.05859375 20.703125 27.359375 -2.625 20.25390625 36.59765625 -2.52734375 -1.97265625 7.484375 5.234375 20.7734375 58.19921875 -6.84765625 -31.83203125 17.48828125 7.4453125 20.94140625</float_array>
                    <technique_common>
                        <accessor count="327" source="#pointarray0" stride="3">
                            <param name="X" type="float"/>
                            <param name="Y" type="float"/>
                            <param name="Z" type="float"/>
                        </accessor>
                    </technique_common>
                </source>
                <source id="uvs0">
                    <float_array id="uvarray0" count="868">0.5954020023345947 0.3827049732208252 0.6032260060310364 0.4068149924278259 0.6383609771728516 0.3829209804534912 0.6300129890441895 0.406948983669281 0.8978800177574158 0.46097302436828613 0.8978800177574158 0.464493989944458 0.882652997970581 0.46097302436828613 0.882652997970581 0.464493989944458 0.6407899856567383 0.46094197034835815 0.6550880074501038 0.46347397565841675 0.6407899856567383 0.45840901136398315 0.6550880074501038 0.45840901136398315 0.6264910101890564 0.46347397565841675 0.6264910101890564 0.45840901136398315 0.9131079912185669 0.464493989944458 0.8978800177574158 0.46889400482177734 0.9131079912185669 0.4715350270271301 0.882652997970581 0.46889400482177734 0.8674250245094299 0.4715350270271301 0.8674250245094299 0.464493989944458 0.6010720133781433 0.4907349944114685 0.6010720133781433 0.485759973526001 0.5867739915847778 0.4907349944114685 0.5867739915847778 0.4861760139465332 0.5724760293960571 0.485759973526001 0.5724760293960571 0.4907349944114685 0.8308780193328857 0.47681599855422974 0.8308780193328857 0.4856169819831848 0.815650999546051 0.47681599855422974 0.815650999546051 0.4803360104560852 0.8613340258598328 0.4803360104560852 0.8461059927940369 0.4856169819831848 0.8613340258598328 0.47681599855422974 0.8461059927940369 0.47681599855422974 0.6010720133781433 0.48170799016952515 0.5867739915847778 0.48170799016952515 0.5724760293960571 0.48170799016952515 0.5867739915847778 0.4751240015029907 0.6010720133781433 0.4776560068130493 0.5724760293960571 0.4776560068130493 0.8461059927940369 0.4724149703979492 0.8613340258598328 0.4702150225639343 0.6010720133781433 0.4665129780769348 0.5867739915847778 0.4665129780769348 0.6010720133781433 0.4705650210380554 0.5867739915847778 0.473097026348114 0.5724760293960571 0.4705650210380554 0.5724760293960571 0.4665129780769348 0.5867739915847778 0.4599289894104004 0.6010720133781433 0.462460994720459 0.5724760293960571 0.462460994720459 0.8308780193328857 0.4724149703979492 0.815650999546051 0.4702150225639343 0.819832980632782 0.36555302143096924 0.7948290109634399 0.3689489960670471 0.8209919929504395 0.37308698892593384 0.7825790047645569 0.3749449849128723 0.9496539831161499 0.464493989944458 0.9648820161819458 0.464493989944458 0.9496539831161499 0.46889400482177734 0.9648820161819458 0.4715350270271301 0.93442702293396 0.46889400482177734 0.93442702293396 0.464493989944458 0.9191989898681641 0.4715350270271301 0.9191989898681641 0.464493989944458 0.8334770202636719 0.38019198179244995 0.871425986289978 0.3881160020828247 0.8255559802055359 0.3816850185394287 0.8714330196380615 0.38197600841522217 0.6550880074501038 0.49286699295043945 0.6550880074501038 0.4877859950065613 0.6407899856567383 0.49286699295043945 0.6407899856567383 0.48820197582244873 0.6264910101890564 0.4877859950065613 0.6264910101890564 0.49286699295043945 0.882652997970581 0.47857600450515747 0.882652997970581 0.48913800716400146 0.8674250245094299 0.47857600450515747 0.8674250245094299 0.48209601640701294 0.9131079912185669 0.48209601640701294 0.8978800177574158 0.48913800716400146 0.9131079912185669 0.47857600450515747 0.8978800177574158 0.47857600450515747 0.6550880074501038 0.48373401165008545 0.6407899856567383 0.48373401165008545 0.6264910101890564 0.48373401165008545 0.6407899856567383 0.477150022983551 0.6550880074501038 0.4796820282936096 0.6264910101890564 0.4796820282936096 0.8978800177574158 0.47417497634887695 0.882652997970581 0.47417497634887695 0.8038970232009888 0.3875430226325989 0.7878209948539734 0.38263100385665894 0.6550880074501038 0.46752601861953735 0.6407899856567383 0.46752601861953735 0.6550880074501038 0.4715780019760132 0.6407899856567383 0.47411102056503296 0.6264910101890564 0.4715780019760132 0.6264910101890564 0.46752601861953735 0.8574000000953674 0.44396501779556274 0.8573150038719177 0.43731701374053955 0.8370199799537659 0.44389599561691284 0.8358389735221863 0.437296986579895 0.9072359800338745 0.44295400381088257 0.907817006111145 0.4371830224990845 0.8870059847831726 0.4435639977455139 0.886372983455658 0.43730199337005615 0.5391129851341248 0.4589160084724426 0.5391129851341248 0.46549999713897705 0.5534110069274902 0.4614480137825012 0.5534110069274902 0.46549999713897705 0.524815022945404 0.46549999713897705 0.524815022945404 0.4614480137825012 0.9655799865722656 0.4067729711532593 0.9660500288009644 0.3883259892463684 0.931693971157074 0.41079801321029663 0.929606020450592 0.38889098167419434 0.8330399990081787 0.425229012966156 0.8687949776649475 0.4250919818878174 0.8357269763946533 0.4089009761810303 0.8639199733734131 0.4107769727706909 0.785194993019104 0.475055992603302 0.7699679732322693 0.475055992603302 0.785194993019104 0.4715350270271301 0.7699679732322693 0.46889400482177734 0.9306269884109497 0.4248179793357849 0.9643009901046753 0.42907601594924927 0.5576210021972656 0.4080290198326111 0.5317540168762207 0.4093160033226013 0.556164026260376 0.43644702434539795 0.5240110158920288 0.43390601873397827 0.8004230260848999 0.4838569760322571 0.785194993019104 0.4838569760322571 0.8004230260848999 0.475055992603302 0.7136849761009216 0.43551599979400635 0.7089110016822815 0.45292001962661743 0.7198230028152466 0.44679999351501465 0.7165539860725403 0.45358699560165405 0.8004230260848999 0.4715350270271301 0.5391129851341248 0.473097026348114 0.5534110069274902 0.475629985332489 0.5391129851341248 0.47208499908447266 0.5534110069274902 0.4695519804954529 0.524815022945404 0.475629985332489 0.524815022945404 0.4695519804954529 0.8004230260848999 0.46625399589538574 0.785194993019104 0.46625399589538574 0.8004230260848999 0.4592130184173584 0.8004230260848999 0.4627329707145691 0.785194993019104 0.4592130184173584 0.785194993019104 0.4627329707145691 0.5391129851341248 0.4542980194091797 0.5534110069274902 0.4573959708213806 0.524815022945404 0.4573959708213806 0.7777130007743835 0.4362580180168152 0.767982006072998 0.4390559792518616 0.7880340218544006 0.4418179988861084 0.771291971206665 0.4447169899940491 0.9627460241317749 0.436460018157959 0.9467809796333313 0.4425309896469116 0.9645980000495911 0.4410160183906555 0.9618669748306274 0.44557297229766846 0.9688259959220886 0.4292449951171875 0.9700189828872681 0.4066479802131653 0.7039399743080139 0.43701398372650146 0.6943179965019226 0.40727299451828003 0.6738399863243103 0.44050300121307373 0.6701939702033997 0.4071509838104248 0.6744170188903809 0.3831019997596741 0.6501039862632751 0.4070500135421753 0.56038498878479 0.382066011428833 0.5831350088119507 0.40671300888061523 0.7699679732322693 0.4627329707145691 0.8461059927940369 0.4680140018463135 0.8308780193328857 0.4680140018463135 0.8461059927940369 0.46009302139282227 0.8461059927940369 0.46361398696899414 0.8308780193328857 0.46009302139282227 0.8308780193328857 0.46361398696899414 0.5867739915847778 0.4573959708213806 0.6010720133781433 0.4573959708213806 0.5724760293960571 0.4573959708213806 0.9393939971923828 0.3677840232849121 0.9393939971923828 0.366303026676178 0.9550880193710327 0.38348299264907837 0.9550889730453491 0.38200199604034424 0.5799210071563721 0.3599569797515869 0.6561710238456726 0.3594520092010498 0.5176309943199158 0.43313902616500854 0.5129709839820862 0.44248902797698975 0.5221620202064514 0.44851797819137573 0.5150949954986572 0.4490079879760742 0.6559590101242065 0.4403889775276184 0.6231549978256226 0.4436429738998413 0.8613340258598328 0.46361398696899414 0.815650999546051 0.46361398696899414 0.6052780151367188 0.4435669779777527 0.5740119814872742 0.4400479793548584 0.8714410066604614 0.36556899547576904 0.9155160188674927 0.3662949800491333 0.9266030192375183 0.38199299573898315 0.5534110069274902 0.4898120164871216 0.5534110069274902 0.48373401165008545 0.5391129851341248 0.4898120164871216 0.5391129851341248 0.48626601696014404 0.524815022945404 0.48373401165008545 0.524815022945404 0.4898120164871216 0.7699679732322693 0.47857600450515747 0.815650999546051 0.47857600450515747 0.815650999546051 0.475055992603302 0.5534110069274902 0.4796820282936096 0.5391129851341248 0.4796820282936096 0.524815022945404 0.4796820282936096 0.815650999546051 0.46889400482177734 0.9496539831161499 0.47417497634887695 0.93442702293396 0.47417497634887695 0.7002310156822205 0.39514100551605225 0.7002310156822205 0.38328200578689575 0.7155699729919434 0.394228994846344 0.7155699729919434 0.3791769742965698 0.6805070042610168 0.4796820282936096 0.6948059797286987 0.477150022983551 0.6805070042610168 0.4715780019760132 0.6948059797286987 0.47411102056503296 0.7091040015220642 0.4796820282936096 0.7091040015220642 0.4715780019760132 0.7155699729919434 0.40061497688293457 0.7002310156822205 0.40061497688293457 0.7309079766273499 0.39514100551605225 0.7309079766273499 0.38328200578689575 0.9496539831161499 0.47857600450515747 0.93442702293396 0.47857600450515747 0.6695550084114075 0.41247397661209106 0.6695550084114075 0.4060879945755005 0.6876819729804993 0.41247397661209106 0.6876819729804993 0.4060879945755005 0.9648820161819458 0.47857600450515747 0.7091040015220642 0.49286699295043945 0.7091040015220642 0.4877859950065613 0.6948059797286987 0.49286699295043945 0.6948059797286987 0.48820197582244873 0.6805070042610168 0.4877859950065613 0.6805070042610168 0.49286699295043945 0.815650999546051 0.4627329707145691 0.93442702293396 0.48913800716400146 0.9191989898681641 0.47857600450515747 0.9191989898681641 0.48209601640701294 0.6779209971427917 0.42615699768066406 0.6416670083999634 0.42615699768066406 0.6695550084114075 0.4215959906578064 0.6500329971313477 0.4215959906578064 0.6695550084114075 0.417946994304657 0.6500329971313477 0.417946994304657 0.6500329971313477 0.41247397661209106 0.6500329971313477 0.4060879945755005 0.6695550084114075 0.40061497688293457 0.6500329971313477 0.40061497688293457 0.9496539831161499 0.48913800716400146 0.7155699729919434 0.4033510088920593 0.7155699729919434 0.4097369909286499 0.7002310156822205 0.4033510088920593 0.7002310156822205 0.4097369909286499 0.7309079766273499 0.41247397661209106 0.743457019329071 0.41247397661209106 0.7309079766273499 0.4215959906578064 0.7408130168914795 0.4215959906578064 0.6805070042610168 0.48373401165008545 0.6948059797286987 0.48373401165008545 0.9648820161819458 0.48209601640701294 0.7309079766273499 0.4097369909286499 0.7309079766273499 0.4033510088920593 0.7091040015220642 0.48373401165008545 0.7002310156822205 0.41247397661209106 0.7002310156822205 0.4215959906578064 0.6876819729804993 0.4215959906578064 0.6834989786148071 0.38328200578689575 0.6681600213050842 0.3860189914703369 0.7155699729919434 0.4215959906578064 0.7155699729919434 0.41247397661209106 0.6948059797286987 0.46752601861953735 0.6805070042610168 0.46752601861953735 0.844539999961853 0.35263001918792725 0.8922240138053894 0.3526039719581604 0.8445379734039307 0.35655999183654785 0.8915039896965027 0.35655200481414795 0.6948059797286987 0.46094197034835815 0.7091040015220642 0.46347397565841675 0.7091040015220642 0.46752601861953735 0.6805070042610168 0.46347397565841675 0.6319059729576111 0.40061497688293457 0.6319059729576111 0.4060879945755005 0.7309079766273499 0.40061497688293457 0.8445379734039307 0.35670799016952515 0.8929399847984314 0.3566640019416809 0.6319059729576111 0.41247397661209106 0.7972850203514099 0.42536598443984985 0.8075349926948547 0.4070240259170532 0.9496539831161499 0.46097302436828613 0.93442702293396 0.46097302436828613 0.6948059797286987 0.45840901136398315 0.7091040015220642 0.45840901136398315 0.6805070042610168 0.45840901136398315 0.6876819729804993 0.40061497688293457 0.9039710164070129 0.4935380220413208 0.8902660012245178 0.49177801609039307 0.6264910101890564 0.4979320168495178 0.6550880074501038 0.4979320168495178 0.6709750294685364 0.46752601861953735 0.6709750294685364 0.475629985332489 0.7186359763145447 0.475629985332489 0.6709750294685364 0.46549999713897705 0.7186359763145447 0.46752601861953735 0.743457019329071 0.40061497688293457 0.6319059729576111 0.4215959906578064 0.6646199822425842 0.46752601861953735 0.6169589757919312 0.46549999713897705 0.6169589757919312 0.46752601861953735 0.6646199822425842 0.48373401165008545 0.6646199822425842 0.475629985332489 0.6169589757919312 0.475629985332489 0.6169589757919312 0.48373401165008545 0.6646199822425842 0.4877859950065613 0.8674250245094299 0.4625539779663086 0.6106039881706238 0.4644870162010193 0.5724760293960571 0.49681299924850464 0.8384919762611389 0.49001801013946533 0.852196991443634 0.49177801609039307 0.8247870206832886 0.49177801609039307 0.8765619993209839 0.4935380220413208 0.6169589757919312 0.4877859950065613 0.9648820161819458 0.4627060294151306 0.743457019329071 0.4063349962234497 0.6918650269508362 0.38328200578689575 0.7002310156822205 0.42615699768066406 0.7309079766273499 0.42615699768066406 0.6542159914970398 0.394228994846344 0.7186359763145447 0.48373401165008545 0.7186359763145447 0.4877859950065613 0.7091040015220642 0.4979320168495178 0.9191989898681641 0.4626380205154419 0.9420409798622131 0.49177801609039307 0.6709750294685364 0.48373401165008545 0.9283360242843628 0.4935380220413208 0.6709750294685364 0.4877859950065613 0.5629439949989319 0.4796820282936096 0.5629439949989319 0.48373401165008545 0.5152829885482788 0.4796820282936096 0.792809009552002 0.48737698793411255 0.7699679732322693 0.46097302436828613 0.5534110069274902 0.4958900213241577 0.5629439949989319 0.46347397565841675 0.850167989730835 0.39844799041748047 0.5294280052185059 0.3796190023422241 0.5146070122718811 0.4095500111579895 0.9421390295028687 0.43911802768707275 0.6209200024604797 0.456866979598999 0.6142169833183289 0.4436119794845581 0.664900004863739 0.44045400619506836 0.6564030051231384 0.45759397745132446 0.6660829782485962 0.45456600189208984 0.8177610039710999 0.4403979778289795 0.7982569932937622 0.43907397985458374 0.8213440179824829 0.4474160075187683 0.808230996131897 0.44284701347351074 0.6757280230522156 0.4550439715385437 0.8053230047225952 0.36305201053619385 0.8038039803504944 0.36559098958969116 0.7850810289382935 0.3809570074081421 0.9169449806213379 0.35751497745513916 0.8189489841461182 0.3575029969215393 0.6136400103569031 0.45635998249053955 0.5645470023155212 0.4520050287246704 0.5727750062942505 0.45636701583862305 0.5665670037269592 0.4399399757385254 0.607545018196106 0.4556419849395752 0.5552170276641846 0.45303601026535034 0.9223020076751709 0.44054198265075684 0.9293869733810425 0.44336998462677 0.9557459950447083 0.4935380220413208 0.6927340030670166 0.45448899269104004 0.550233006477356 0.3608279824256897 0.5968499779701233 0.3475779891014099 0.9199730157852173 0.4469969868659973 0.7208870053291321 0.40850400924682617 0.7140300273895264 0.40810102224349976 0.7214040160179138 0.4307199716567993 0.815650999546051 0.46097302436828613 0.5629439949989319 0.46549999713897705 0.5152829885482788 0.46347397565841675 0.6819390058517456 0.35890400409698486 0.7782689929008484 0.4259840250015259 0.762499988079071 0.4275779724121094 0.6137819886207581 0.46296799182891846 0.5629439949989319 0.459089994430542 0.7859990000724792 0.4057270288467407 0.7632129788398743 0.4048740267753601 0.6424639821052551 0.3478339910507202 0.5407940149307251 0.45138901472091675 0.589684009552002 0.4590659737586975 0.8740010261535645 0.44049400091171265 0.8735730051994324 0.44771498441696167 0.6386989951133728 0.4602530002593994 0.6999769806861877 0.3774759769439697 0.6805070042610168 0.4979320168495178 0.7186359763145447 0.46549999713897705 0.7692139744758606 0.3770869970321655 0.752236008644104 0.3837429881095886 0.7658720016479492 0.38319700956344604 0.6677979826927185 0.46161001920700073 0.6010720133781433 0.49681299924850464 0.6106039881706238 0.4665129780769348 0.6106039881706238 0.48170799016952515 0.5629439949989319 0.48170799016952515 0.5629439949989319 0.485759973526001 0.5629439949989319 0.4665129780769348 0.524815022945404 0.4958900213241577 0.5152829885482788 0.48373401165008545 0.8065140247344971 0.48913800716400146 0.7791039943695068 0.48913800716400146 0.5629439949989319 0.47259098291397095 0.5152829885482788 0.46549999713897705 0.5152829885482788 0.47259098291397095 0.6106039881706238 0.485759973526001 0.6106039881706238 0.47411102056503296 0.5629439949989319 0.47411102056503296 0.8613340258598328 0.46185302734375 0.5629439949989319 0.4644870162010193 0.6646199822425842 0.46549999713897705 0.9131079912185669 0.46262097358703613 0.815650999546051 0.46185302734375 0.5107830166816711 0.4332280158996582 0.7650780081748962 0.3973590135574341 0.7741469740867615 0.38757097721099854 0.7166540026664734 0.3828880190849304</float_array>
                    <technique_common>
                        <accessor count="434" source="#uvarray0" stride="2">
                            <param name="S" type="float"/>
                            <param name="T" type="float"/>
                        </accessor>
                    </technique_common>
                </source>
                <vertices id="vertices0">
                    <input semantic="POSITION" source="#points0"/>
                </vertices>
                <polylist count="650" material="Material1">
                    <input offset="0" semantic="VERTEX" source="#vertices0"/>
                    <input offset="1" semantic="TEXCOORD" source="#uvs0" set="0"/>
                    <vcount>3 3 3 3 3 3 3 3 3 3 3 3 3 3 3 3 3 3 3 3 3 3 3 3 3 3 3 3 3 3 3 3 3 3 3 3 3 3 3 3 3 3 3 3 3 3 3 3 3 3 3 3 3 3 3 3 3 3 3 3 3 3 3 3 3 3 3 3 3 3 3 3 3 3 3 3 3 3 3 3 3 3 3 3 3 3 3 3 3 3 3 3 3 3 3 3 3 3 3 3 3 3 3 3 3 3 3 3 3 3 3 3 3 3 3 3 3 3 3 3 3 3 3 3 3 3 3 3 3 3 3 3 3 3 3 3 3 3 3 3 3 3 3 3 3 3 3 3 3 3 3 3 3 3 3 3 3 3 3 3 3 3 3 3 3 3 3 3 3 3 3 3 3 3 3 3 3 3 3 3 3 3 3 3 3 3 3 3 3 3 3 3 3 3 3 3 3 3 3 3 3 3 3 3 3 3 3 3 3 3 3 3 3 3 3 3 3 3 3 3 3 3 3 3 3 3 3 3 3 3 3 3 3 3 3 3 3 3 3 3 3 3 3 3 3 3 3 3 3 3 3 3 3 3 3 3 3 3 3 3 3 3 3 3 3 3 3 3 3 3 3 3 3 3 3 3 3 3 3 3 3 3 3 3 3 3 3 3 3 3 3 3 3 3 3 3 3 3 3 3 3 3 3 3 3 3 3 3 3 3 3 3 3 3 3 3 3 3 3 3 3 3 3 3 3 3 3 3 3 3 3 3 3 3 3 3 3 3 3 3 3 3 3 3 3 3 3 3 3 3 3 3 3 3 3 3 3 3 3 3 3 3 3 3 3 3 3 3 3 3 3 3 3 3 3 3 3 3 3 3 3 3 3 3 3 3 3 3 3 3 3 3 3 3 3 3 3 3 3 3 3 3 3 3 3 3 3 3 3 3 3 3 3 3 3 3 3 3 3 3 3 3 3 3 3 3 3 3 3 3 3 3 3 3 3 3 3 3 3 3 3 3 3 3 3 3 3 3 3 3 3 3 3 3 3 3 3 3 3 3 3 3 3 3 3 3 3 3 3 3 3 3 3 3 3 3 3 3 3 3 3 3 3 3 3 3 3 3 3 3 3 3 3 3 3 3 3 3 3 3 3 3 3 3 3 3 3 3 3 3 3 3 3 3 3 3 3 3 3 3 3 3 3 3 3 3 3 3 3 3 3 3 3 3 3 3 3 3 3 3 3 3 3 3 3 3 3 3 3 3 3 3 3 3 3 3 3 3 3 3 3 3 3 3 3 3 3 3 3 3 3 3 3 3 3 3 3 3 3 3 3 3 3 3 3 3 3 3 3 3 3 3 3 3 3 3 3 3 3 3 3 3 3 3 3 3 3 3 3 3 3 3 3 3 3 3 3 3 3 3 3 3 3 3 3 3 3 3 3 3 3 3 3 3 3 3 3 3 3 3 3 3 3 3 3 3 3 3 3 3</vcount>
                    <p>2 2 1 1 0 0 3 3 1 1 2 2 6 6 5 5 4 4 7 7 5 5 6 6 10 10 9 9 8 8 11 11 9 9 10 10 13 13 8 8 12 12 10 10 8 8 13 13 15 15 14 14 5 5 16 16 14 14 15 15 5 5 17 17 15 15 7 7 17 17 5 5 7 7 18 18 17 17 19 19 18 18 7 7 22 22 21 21 20 20 23 23 21 21 22 22 22 22 24 24 23 23 25 25 24 24 22 22 28 28 27 27 26 26 29 29 27 27 28 28 32 32 31 31 30 30 33 33 31 31 32 32 21 21 35 35 34 34 23 23 35 35 21 21 24 24 35 35 23 23 36 36 35 35 24 24 38 38 35 35 37 37 34 34 35 35 38 38 39 39 35 35 36 36 37 37 35 35 39 39 32 32 40 40 33 33 41 41 40 40 32 32 44 44 43 43 42 42 45 45 43 43 44 44 46 46 43 43 45 45 47 47 43 43 46 46 49 49 43 43 48 48 42 42 43 43 49 49 50 50 43 43 47 47 48 48 43 43 50 50 51 51 28 28 26 26 52 52 28 28 51 51 33 33 27 27 31 31 26 26 27 27 33 33 51 51 33 33 40 40 26 26 33 33 51 51 45 45 38 38 37 37 44 44 38 38 45 45 46 46 37 37 39 39 45 45 37 37 46 46 55 55 54 54 53 53 56 56 54 54 55 55 59 59 58 58 57 57 60 60 58 58 59 59 57 57 61 61 59 59 62 62 61 61 57 57 62 62 63 63 61 61 64 64 63 63 62 62 67 67 66 66 65 65 68 68 66 66 67 67 71 71 70 70 69 69 72 72 70 70 71 71 71 71 73 73 72 72 74 74 73 73 71 71 77 77 76 76 75 75 78 78 76 76 77 77 81 81 80 80 79 79 82 82 80 80 81 81 70 70 84 84 83 83 72 72 84 84 70 70 73 73 84 84 72 72 85 85 84 84 73 73 87 87 84 84 86 86 83 83 84 84 87 87 88 88 84 84 85 85 86 86 84 84 88 88 15 15 90 90 89 89 17 17 90 90 15 15 81 81 89 89 82 82 16 16 89 89 81 81 91 91 67 67 65 65 92 92 67 67 91 91 95 95 94 94 93 93 96 96 94 94 95 95 97 97 94 94 96 96 98 98 94 94 97 97 9 9 94 94 8 8 93 93 94 94 9 9 12 12 94 94 98 98 8 8 94 94 12 12 90 90 77 77 75 75 18 18 77 77 90 90 92 92 55 55 67 67 56 56 55 55 92 92 82 82 76 76 80 80 75 75 76 76 82 82 4 101 99 100 6 99 100 102 99 100 4 101 90 90 82 82 89 89 75 75 82 82 90 90 96 96 87 87 86 86 95 95 87 87 96 96 97 97 86 86 88 88 96 96 86 86 97 97 103 105 102 104 101 103 104 106 102 104 103 105 107 109 106 108 105 107 108 110 106 108 107 109 110 112 106 108 109 111 105 107 106 108 110 112 113 115 112 114 111 113 114 116 112 114 113 115 117 119 116 118 115 117 118 120 116 118 117 119 121 123 120 122 119 121 122 124 120 122 121 123 113 115 116 118 118 120 123 125 116 118 113 115 111 113 123 125 113 115 124 126 123 125 111 113 127 129 126 128 125 127 128 130 126 128 127 129 131 133 130 132 129 131 119 121 130 132 131 133 134 136 133 135 132 134 135 137 133 135 134 136 121 123 131 133 136 138 119 121 131 133 121 123 139 141 138 140 137 139 140 142 138 140 139 141 142 144 137 139 141 143 139 141 137 139 142 144 143 145 121 123 136 138 144 146 121 123 143 145 147 149 146 148 145 147 148 150 146 148 147 149 149 151 107 109 105 107 150 152 107 109 149 151 151 153 105 107 110 112 149 151 105 107 151 153 153 156 134 155 152 154 135 157 134 155 153 156 155 160 147 159 154 158 156 161 147 159 155 160 154 158 157 162 155 160 124 126 157 162 154 158 158 163 124 126 111 113 157 162 124 126 158 163 161 166 160 165 159 164 162 167 160 165 161 166 164 169 163 168 162 167 2 2 163 168 164 169 166 171 165 170 0 0 125 127 165 170 166 171 148 150 122 124 144 146 167 172 122 124 148 150 146 148 144 146 143 145 148 150 144 146 146 148 168 173 51 51 40 40 169 174 51 51 168 173 101 177 170 176 103 175 171 178 170 176 101 177 172 179 49 49 48 48 173 180 49 49 172 179 174 181 48 48 50 50 172 179 48 48 174 181 177 184 176 183 175 182 178 185 176 183 177 184 180 187 0 0 179 186 2 2 0 0 180 187 151 190 155 189 181 188 156 191 155 189 151 190 183 193 164 169 182 192 3 3 164 169 183 193 168 173 184 194 170 176 41 41 184 194 168 173 170 176 169 174 168 173 171 178 169 174 170 176 171 178 52 52 169 174 185 195 52 52 171 178 186 196 166 171 1 1 187 197 166 171 186 196 189 199 68 68 188 198 190 200 68 68 189 199 176 183 190 200 189 199 178 185 190 200 176 183 193 203 192 202 191 201 194 204 192 202 193 203 193 203 195 205 194 204 196 206 195 205 193 203 120 122 130 132 119 121 197 207 130 132 120 122 199 209 129 131 198 208 131 133 129 131 199 209 192 202 201 211 200 210 194 204 201 211 192 202 195 205 201 211 194 204 202 212 201 211 195 205 138 140 201 211 137 139 200 210 201 211 138 140 141 143 201 211 202 212 137 139 201 211 141 143 199 209 136 138 131 133 203 213 136 138 199 209 190 200 66 66 68 68 114 116 66 66 190 200 178 185 114 116 190 200 112 114 114 116 178 185 140 142 106 108 108 110 139 141 106 108 140 142 142 144 106 108 139 141 109 111 106 108 142 144 59 59 205 215 204 214 61 61 205 215 59 59 208 218 207 217 206 216 209 219 207 217 208 218 212 222 211 221 210 220 213 223 211 221 212 222 213 223 214 224 211 221 215 225 214 224 213 223 208 218 217 227 216 226 206 216 217 227 208 218 218 228 209 219 208 218 219 229 209 219 218 228 205 215 220 230 204 214 221 231 220 230 205 215 224 234 223 233 222 232 225 235 223 233 224 234 226 236 204 214 220 230 60 60 204 214 226 236 229 239 228 238 227 237 230 240 228 238 229 239 229 239 231 241 230 240 232 242 231 241 229 239 143 145 233 243 146 148 203 213 233 243 143 145 235 245 234 244 221 231 236 246 234 244 235 245 239 249 238 248 237 247 240 250 238 248 239 249 241 251 240 250 239 249 242 252 240 250 241 251 222 232 242 252 241 251 243 253 242 252 222 232 245 255 244 254 223 233 246 256 244 254 245 255 220 230 234 244 247 257 221 231 234 244 220 230 223 233 243 253 222 232 244 254 243 253 223 233 250 260 249 259 248 258 251 261 249 259 250 260 254 264 253 263 252 262 255 265 253 263 254 264 210 220 257 267 256 266 211 221 257 267 210 220 205 215 235 245 221 231 63 63 235 245 205 215 226 236 247 257 258 268 220 230 247 257 226 236 260 270 249 259 259 269 248 258 249 259 260 270 228 238 257 267 261 271 230 240 257 267 228 238 231 241 257 267 230 240 256 266 257 267 231 241 214 224 257 267 211 221 261 271 257 267 214 224 224 234 263 273 262 272 264 274 263 273 224 234 265 276 245 255 91 275 246 256 245 255 265 276 252 262 266 277 254 264 267 278 266 277 252 262 259 269 267 278 252 262 249 259 267 278 259 269 212 222 268 279 213 223 269 280 268 279 212 222 272 283 271 282 270 281 273 284 271 282 272 283 275 286 268 279 274 285 276 287 268 279 275 286 277 288 268 279 269 280 274 285 268 279 277 288 278 289 244 254 246 256 279 290 244 254 278 289 260 270 216 226 248 258 280 291 216 226 260 270 218 228 216 226 280 291 208 218 216 226 218 228 270 281 282 293 281 292 271 282 282 293 270 281 244 254 253 294 243 253 279 290 253 294 244 254 283 295 117 119 115 117 265 296 117 119 283 295 250 260 216 226 217 227 248 258 216 226 250 260 215 225 268 279 276 287 213 223 268 279 215 225 284 298 57 57 153 297 62 62 57 57 284 298 285 299 275 286 274 285 133 300 275 286 285 299 286 301 274 285 277 288 285 299 274 285 286 301 223 233 287 302 245 255 225 235 287 302 223 233 123 125 104 106 116 118 102 104 104 106 123 125 116 118 100 102 115 117 99 100 100 102 116 118 251 261 267 278 249 259 262 272 267 278 251 261 267 278 263 273 266 277 262 272 263 273 267 278 80 80 289 304 288 303 288 306 290 305 71 71 212 222 63 308 64 307 60 309 214 224 215 225 212 222 64 307 269 280 277 288 64 307 291 310 58 311 276 287 275 286 260 270 278 312 280 291 240 250 255 313 238 248 252 262 253 263 259 269 224 234 251 261 225 235 14 314 93 93 9 9 12 12 19 316 292 315 97 97 19 316 98 98 87 87 16 318 81 317 97 97 18 319 19 316 81 317 83 83 87 87 88 88 77 320 18 319 79 321 70 70 81 317 73 73 77 320 85 85 80 80 76 76 289 304 19 19 6 6 292 322 81 317 70 70 83 83 14 314 95 95 93 93 292 323 49 49 173 180 293 324 25 25 22 22 293 327 295 326 294 325 90 90 17 17 18 18 69 69 79 321 288 306 76 76 78 78 290 328 74 74 78 329 73 73 286 301 277 288 291 310 58 58 135 330 153 297 62 62 284 298 64 64 287 302 225 235 250 260 251 261 250 260 225 235 259 269 279 331 260 270 218 228 280 291 278 312 207 217 92 332 287 302 263 273 264 274 237 333 238 334 254 264 266 277 262 272 251 261 224 234 239 249 237 247 264 274 250 260 217 227 287 302 203 213 143 145 136 138 121 123 144 146 122 124 260 270 279 331 278 312 259 269 253 263 279 331 238 334 266 277 237 333 246 256 265 276 296 335 263 273 237 333 266 277 241 251 239 249 264 274 287 302 217 227 206 216 238 334 255 265 254 264 255 313 240 250 242 252 226 336 261 271 214 224 227 237 228 238 258 337 205 215 61 61 63 63 60 60 59 59 204 214 58 58 153 297 57 57 227 237 297 338 229 239 64 64 284 298 291 339 247 257 234 244 298 340 231 241 235 341 256 266 258 337 228 238 226 336 210 220 235 341 63 308 69 69 288 306 71 71 14 14 4 4 5 5 16 16 15 15 89 89 234 244 236 246 299 342 232 242 236 343 231 241 92 332 91 275 245 255 92 332 245 255 287 302 287 302 206 216 207 217 296 335 218 228 278 289 296 335 278 289 246 256 296 335 219 229 218 228 255 313 242 252 253 294 241 251 264 274 224 234 241 251 224 234 222 232 253 294 242 252 243 253 198 345 192 202 199 344 195 205 120 346 202 212 129 131 130 132 300 347 167 172 147 149 156 348 191 201 301 349 193 203 302 350 107 109 150 152 146 148 233 243 145 147 100 102 283 295 115 117 128 130 181 188 126 128 65 65 303 351 91 91 126 128 158 353 177 352 102 104 123 125 304 354 2 2 164 169 3 3 165 170 125 127 126 128 166 171 0 0 1 1 305 356 183 193 13 355 307 359 11 358 306 357 4 101 308 360 100 102 100 102 308 360 309 361 291 362 308 360 4 101 308 360 284 363 309 361 306 357 161 166 286 364 162 167 306 357 164 169 305 356 186 196 1 1 312 367 311 366 310 365 175 182 313 368 273 284 310 365 311 366 314 369 305 356 13 355 315 370 317 373 174 372 316 371 286 364 307 359 306 357 305 356 173 374 186 196 3 3 305 356 1 1 166 171 317 373 125 127 127 129 317 373 150 375 304 354 145 377 318 376 175 182 176 183 313 368 247 257 298 340 297 378 162 167 161 166 306 357 304 354 147 159 145 377 152 154 309 361 153 156 182 192 164 169 306 357 127 129 125 127 317 373 161 166 159 164 285 379 273 381 179 186 175 380 313 368 176 183 282 293 158 163 111 113 112 114 302 382 318 376 145 377 101 103 318 376 302 382 188 198 53 53 281 292 282 293 189 199 188 198 273 284 313 368 271 282 188 198 281 292 282 293 159 164 133 135 285 379 162 167 163 168 160 165 270 281 314 369 272 283 321 385 320 384 319 383 148 150 147 149 167 172 145 147 233 243 302 386 233 387 107 109 302 350 151 153 110 112 156 388 163 168 180 187 311 389 177 352 165 170 126 128 181 188 128 130 151 190 321 391 322 390 152 154 303 351 117 119 265 296 321 391 152 154 134 155 132 134 160 165 320 384 124 126 154 158 304 354 173 374 315 370 292 392 302 393 316 371 174 372 91 91 303 351 265 296 65 65 66 66 303 351 302 393 150 375 316 371 310 365 53 53 54 54 113 115 118 120 66 66 322 390 321 391 296 394 296 394 321 391 319 395 315 370 13 355 292 392 273 381 272 396 180 187 154 158 147 159 304 354 114 116 113 115 66 66 127 129 149 397 128 130 149 397 127 129 150 375 187 197 174 372 317 373 315 370 173 374 305 356 165 170 175 380 179 186 174 372 187 197 172 398 318 376 101 103 102 104 318 376 102 104 304 354 165 170 179 186 0 0 104 106 103 105 323 399 6 99 323 399 292 400 163 168 2 2 180 187 104 106 323 399 99 100 183 193 10 401 13 355 312 402 163 168 311 389 68 68 55 55 188 198 11 358 10 401 182 192 159 164 160 165 132 134 297 338 299 403 229 239 58 311 275 286 135 404 58 311 215 225 276 287 226 336 228 238 261 271 231 241 236 343 235 341 256 266 235 341 210 220 269 280 64 307 277 288 299 342 297 378 298 340 299 403 232 242 229 239 135 404 275 286 133 300 227 237 258 337 297 338 236 343 232 242 299 403 247 257 297 378 258 268 234 244 299 342 298 340 58 311 60 309 215 225 214 224 60 309 226 336 210 220 63 308 212 222 161 166 285 379 286 364 284 363 308 360 291 362 323 399 6 99 99 100 124 126 304 354 123 125 152 154 283 295 309 361 116 118 104 106 99 100 309 361 283 295 100 102 324 405 54 54 56 56 324 405 207 407 209 406 307 359 291 408 11 358 55 55 68 68 67 67 303 351 118 120 117 119 265 296 322 390 296 394 307 359 286 364 291 408 295 409 293 324 22 22 184 410 44 44 42 42 32 411 21 21 34 34 24 24 29 413 28 412 36 36 28 412 39 39 47 47 185 414 50 50 191 201 198 345 301 349 197 416 196 206 325 415 129 131 301 417 198 208 130 132 325 418 300 347 233 387 203 419 140 142 203 419 138 140 140 142 142 144 122 421 167 420 20 20 30 422 295 409 29 413 25 25 293 324 31 31 295 326 30 30 27 27 293 327 294 325 184 410 41 423 44 44 38 38 41 423 32 411 39 39 52 424 46 46 171 178 101 177 185 195 103 175 184 194 292 425 184 410 49 49 292 323 174 181 50 50 302 426 196 206 197 416 195 205 130 132 197 207 325 418 191 201 192 202 198 345 13 13 12 12 292 315 25 25 29 413 24 24 27 27 29 29 293 327 73 73 78 329 77 320 85 85 77 320 88 88 98 98 19 316 12 12 290 328 288 303 289 304 290 305 74 74 71 71 291 427 9 9 11 11 69 69 70 70 79 321 78 329 74 74 290 305 80 80 288 303 79 79 76 76 290 328 289 304 14 314 16 318 95 95 16 318 87 87 95 95 88 88 18 319 97 97 7 7 6 6 19 19 14 14 291 428 4 4 14 314 9 9 291 427 41 41 168 173 40 40 170 176 184 194 103 175 20 20 295 409 22 22 185 195 101 177 302 429 31 31 27 27 294 325 24 24 28 412 36 36 30 422 21 21 32 411 39 39 28 412 52 424 32 411 34 34 38 38 46 46 52 424 185 414 41 423 38 38 44 44 46 46 185 414 47 47 50 50 185 414 302 426 184 410 42 42 49 49 31 31 294 325 295 326 281 292 310 365 314 369 312 402 160 165 163 168 165 170 177 352 175 380 313 368 282 293 271 282 53 53 188 198 55 55 272 283 314 369 311 366 281 292 314 369 270 281 306 357 11 358 182 192 151 190 128 130 149 397 132 134 133 135 159 164 157 430 181 188 155 189 153 156 309 361 284 363 158 353 126 128 181 188 324 405 312 367 54 54 54 54 312 367 310 365 103 105 292 400 323 399 160 165 312 402 320 384 158 163 112 114 177 184 316 371 150 375 317 373 172 398 187 197 186 196 173 374 172 398 186 196 112 114 178 185 177 184 182 192 10 401 183 193 319 395 219 431 296 394 158 353 181 188 157 430 324 405 209 406 219 431 324 405 56 56 207 407 132 134 321 385 134 136 281 292 53 53 310 365 166 171 187 197 317 373 3 3 183 193 305 356 20 20 21 21 30 422 51 51 169 174 52 52 141 143 120 346 122 421 199 344 200 210 138 140 141 143 122 421 142 144 138 140 203 419 199 344 142 144 167 420 109 111 110 112 167 420 156 388 233 387 108 110 107 109 129 131 300 347 301 417 301 349 325 415 193 203 233 387 140 142 108 110 199 344 192 202 200 210 195 205 197 416 120 346 202 212 120 346 141 143 109 111 167 420 110 112 325 418 301 417 300 347 325 415 196 206 193 203 92 92 207 407 56 56 152 154 322 390 283 295 66 66 118 120 303 351 265 296 283 295 322 390 324 405 326 432 312 367 219 431 326 432 324 405 320 384 326 433 319 383 132 134 320 384 321 385 320 384 312 402 326 433 319 395 326 432 219 431 179 186 273 381 180 187 272 396 311 389 180 187 176 183 189 199 282 293</p>
                </polylist>
            </mesh>
        </geometry>
    </library_geometries>
    <library_visual_scenes>
        <visual_scene id="VisualSceneNode">
            <node id="node0" name="m0" type="NODE">
                <instance_geometry url="#mesh0">
                    <bind_material>
                        <technique_common>
                            <instance_material symbol="Material1" target="#mat0">
                                <bind_vertex_input semantic="UVSET0" input_semantic="TEXCOORD" input_set="0"></bind_vertex_input>
                            </instance_material>
                        </technique_common>
                    </bind_material>
                </instance_geometry>
            </node>
        </visual_scene>
    </library_visual_scenes>
    <scene>
        <instance_visual_scene url="#VisualSceneNode"></instance_visual_scene>
    </scene>
</COLLADA>
