<?xml version="1.0"?>
<COLLADA xmlns="http://www.collada.org/2005/11/COLLADASchema" version="1.4.1">
    <asset>
        <contributor>
            <authoring_tool>J3D Ripoff Exporter</authoring_tool>
        </contributor>
        <created>2024-08-02T13:58:13.716Z</created>
        <modified>2024-08-02T13:58:13.716Z</modified>
		<unit meter="0.01" name="centimeter" ></unit>
        <up_axis>Y_UP</up_axis>
    </asset>
    <library_images>
        <image id="tex0">
            <init_from>donkey_all.png</init_from>
        </image>
    </library_images>
    <library_effects>
        <effect id="effect0">
            <profile_COMMON>
                <newparam sid="surface0">
                    <surface type="2D">
                        <init_from>tex0</init_from>
                    </surface>
                </newparam>
                <newparam sid="sampler0">
                    <sampler2D>
                        <source>surface0</source>
                    </sampler2D>
                </newparam>
                <technique sid="COMMON">
                    <blinn>
                        <diffuse>
                            <texture texture="sampler0" texcoord="UVSET0"></texture>
                        </diffuse>
                    </blinn>
                </technique>
            </profile_COMMON>
        </effect>
    </library_effects>
    <library_materials>
        <material id="mat0" name="donkey_All">
            <instance_effect url="#effect0"></instance_effect>
        </material>
    </library_materials>
    <library_geometries>
        <geometry id="mesh0">
            <mesh>
                <source id="points0">
                    <float_array id="pointarray0" count="981">1.30859375 5.8515625 -15.8515625 0.6875 -2.3203125 -15.8515625 7.87890625 6.15625 -19.19140625 7.2578125 -4.9921875 -19.19140625 47.82421875 35.03515625 4.91015625 58.5859375 32.1796875 5.83203125 47.46484375 33.1640625 9.64453125 56.890625 30.359375 10.30078125 58.203125 30.18359375 1.28125 48.50390625 32.828125 0.25 43.84765625 16.93359375 24.03515625 41.2109375 15.625 22.73046875 43.65234375 20.3046875 28.4375 37.05859375 19.8203125 26.8046875 51.7578125 28.38671875 21.984375 50.11328125 28.17578125 26.30078125 44.12109375 28.7265625 20.08203125 42.57421875 29.18359375 24.73046875 39.9140625 26.1640625 28.3046875 47.1328125 24.625 29.67578125 55.25 24.640625 27.2890625 55.72265625 25.046875 22.92578125 52.2734375 22.515625 30.16796875 41.2421875 15.85546875 -12.859375 42.40234375 20.90625 -16.41796875 40.39453125 12.6015625 -12.19921875 35.91796875 17.28125 -15.7109375 42.38671875 16.77734375 -8.11328125 41.41015625 13.51171875 -7.76953125 37.85546875 19.42578125 -4.29296875 46.39453125 22.90234375 -6.0390625 48.39453125 16.65234375 28.17578125 48.0390625 15.09375 25.00390625 46.56640625 17.81640625 19.890625 50.76171875 16.31640625 21.3984375 47.4765625 23.50390625 18.390625 53.22265625 18.53125 20.125 57.984375 21.41015625 27.3515625 57.93359375 21.4453125 23.625 54.3671875 20.05859375 29.56640625 51.33203125 19.44921875 7.46484375 46.6953125 18.0859375 7.3046875 54.796875 23.58203125 10.92578125 44.6640625 24.1640625 10.44140625 28.765625 -3.90625 6.75 35.21875 1.96484375 6.80078125 29.94921875 -4.140625 0.60546875 35.1328125 1.03515625 0.9140625 31.296875 30.1640625 8.953125 29.73046875 31.5625 4.43359375 39.98828125 32.8984375 9.015625 39.60546875 34.26171875 4.71484375 41.30078125 32.5546875 0.12109375 31.3515625 30.50390625 -0.11328125 25.72265625 20.6875 18.10546875 28.453125 24.88671875 20.06640625 27.0703125 17.8984375 22.39453125 29.2578125 22.390625 24.52734375 0.6875 -9.12109375 -10.7734375 7.2578125 -11.109375 -12.0390625 0.38671875 -10.2890625 -1.40234375 7.2578125 -10.58203125 -1.40234375 32.13671875 18.09375 -27.4140625 33.87109375 20.609375 -23.84375 27.91015625 15.8671875 -25.45703125 29.27734375 18.47265625 -22.05859375 31.4765625 18.125 -18.0390625 36.62109375 20.3671875 -19.76171875 16.9296875 18.0546875 -4.15625 16.671875 17.421875 -9.8984375 21.23828125 20.859375 -5.859375 20.49609375 19.6171875 -10.98046875 20.83984375 19.609375 6.94140625 17.14453125 17.1328125 5.83203125 21.31640625 20.39453125 1.390625 16.9296875 18.0546875 1.703125 22.140625 6.81640625 -23.2421875 28.0703125 3.41015625 -23.6875 23.51171875 12.4609375 -23.515625 29.54296875 7.75390625 -24.24609375 40.06640625 20.92578125 -25.76953125 38.35546875 18.015625 -28.90625 42.89453125 19.94140625 -21.76953125 34.578125 28.2109375 22.1640625 36.84375 28.0234375 17.859375 30.5546875 25.18359375 15.72265625 34.1328125 25.17578125 26.6484375 46.35546875 6.66015625 -22.49609375 44.03515625 9.3984375 -22.1015625 50.42578125 12.59765625 -21.83984375 45.9609375 13.98046875 -20.609375 0.953125 11.44921875 -9.35546875 8.84765625 14.87890625 -5.9296875 0.640625 11.47265625 7.33203125 8.84765625 14.87890625 3.47265625 49.46484375 14.22265625 -31.140625 52.5625 16.4921875 -28.16796875 44.23828125 17.4453125 -30.15234375 46.98046875 19.90234375 -27.5625 48.10546875 19.0546875 -23.30859375 53.35546875 16.16796875 -24.59375 55.8046875 12.55078125 -28.60546875 52.515625 11.68359375 -31.2578125 55.8203125 12.75390625 -25.3515625 53.40234375 6.7890625 -21.84765625 50.1015625 4.40625 -23.33984375 57.29296875 8.11328125 -25.2421875 57.69140625 8.12890625 -28.3359375 44.42578125 6.07421875 -25.75 48.171875 3.8203125 -26.59375 45.73046875 10.375 -29.79296875 48.66796875 5.296875 -29.859375 54.40234375 7.234375 -30.12890625 62.4375 22.94921875 -14.07421875 57.1171875 27.3203125 -14.5390625 59.71875 21.36328125 -17.96875 55.890625 24.83984375 -18.328125 37.46484375 6.5390625 -11.15625 35 -0.0078125 -9.55859375 38.08203125 7.84765625 -5.87109375 35.33984375 0.6875 -3.7890625 47.09765625 17.96875 2.26171875 52 19.36328125 2.40625 38.61328125 8.30859375 1.64453125 38.51171875 8.36328125 6.66015625 48.60546875 30.4609375 -14.203125 49.6953125 29.578125 -8.9765625 57.53125 26.734375 -9.2109375 53.890625 13.2265625 -9.609375 52.921875 12.390625 -13.69140625 50.63671875 16.67578125 -9.48046875 49.65234375 16.39453125 -13.71875 -3.31640625 -5.08984375 4.3125 -3.33984375 -5.125 -5.97265625 -5.0234375 1.9296875 4.3125 -5.0390625 1.9140625 -5.8203125 8.76171875 -15.3984375 8.984375 3.54296875 -13.16796875 9.80078125 10.1484375 -15.91796875 18.04296875 3.73046875 -8.48046875 18.28515625 50.90234375 18.61328125 -17.28125 45.625 15.22265625 -13.25 47.7109375 27.67578125 -18.42578125 42.17578125 19.13671875 7.140625 42.6015625 19.04296875 2.20703125 15.45703125 -16.37890625 6.78515625 21.0234375 -15.92578125 14.69140625 30.66015625 25.34375 -15.7890625 29.75390625 27.4140625 -11.53125 27.359375 21.09765625 -14.31640625 26.125 23.4765625 -10.08984375 28.26953125 23.91796875 -5.53125 31.453125 27.73046875 -6.82421875 14.30859375 -12.30859375 -1.40234375 36.5078125 30.41796875 -12.90234375 37.00390625 27.890625 -17.0703125 38.6953125 29.94921875 -8.00390625 0.38671875 -9.12109375 9.56640625 1.8125 -2.64453125 15.28125 46.45703125 15.90625 -8.6875 52.94140625 21.2421875 -6.8046875 26.44140625 27.96484375 4.15234375 28.046875 26.84375 8.84375 26.73828125 -8.578125 6.79296875 28.1171875 -3.12890625 14.3515625 25.46875 -8.31640625 17.0234375 28.25390625 27.01953125 -0.28515625 26.8359375 21.2734375 -0.03515625 23.68359375 22.68359375 4.5 25.71484375 20.875 8.609375 56.421875 23.359375 -0.2578125 45.18359375 24.28515625 -0.63671875 41.40234375 14.3046875 6.80078125 41.41796875 14.58984375 2 63.1640625 17.73828125 -9.81640625 61.53515625 22.890625 -9.84375 64.35546875 17.3046875 -13.5390625 24.25390625 18.140625 -13.4609375 24.05078125 21.7421875 -9.3203125 24.87890625 21.33203125 -4.5859375 61.55078125 16.375 -16.55078125 55.26171875 16.7890625 7.9765625 55.86328125 16.93359375 2.8984375 54.703125 13.72265625 -16.37109375 31.32421875 -16.89453125 24.33203125 33.21875 -8.546875 23.7890625 26.7734375 -15.34375 24.00390625 31.4609375 -8.265625 24.53125 34.82421875 -7.59375 32.953125 35.12890625 -6.5859375 28.30078125 43.265625 -10.6875 31.20703125 42.29296875 -8.93359375 27.890625 30.6171875 -6.53515625 32.75390625 27.109375 -10.15625 35.9765625 25.22265625 -4.97265625 31.8203125 20.17578125 -8.15625 34.828125 36.43359375 21.234375 10.09765625 38.0546875 12.21484375 20.52734375 32.91796875 15.078125 23.828125 38.17578125 15.82421875 21.8359375 31.7890625 -18.578125 33.953125 41 -19.6328125 32.05859375 30.3984375 -19.84375 29.29296875 39.36328125 -19.76171875 28.62890625 40.26953125 17.77734375 16.93359375 39.62890625 15 15.33984375 17.44140625 -15.1796875 31.99609375 25.125 -17.375 32.9296875 28.6796875 20.78515625 13.80078125 27.015625 18.078125 12.40234375 23.63671875 18.75390625 16.64453125 25.08984375 13.1796875 20.31640625 36.0546875 6.671875 17.60546875 38.0703125 8.09375 12.91015625 13.10546875 -2.37890625 27.140625 10.7578125 -0.03125 23.0703125 19.89453125 -0.4765625 26.5625 18.09765625 1.7578125 23.7265625 8.6875 -11.8828125 25.51171875 6.4609375 -10.1015625 22.0546875 43.25390625 23.95703125 17.2734375 35.46484375 19.5703125 13.51953125 43.69921875 17.015625 17.79296875 37.33984375 20.5078125 -1.48828125 42.796875 -14.68359375 33.69921875 34.24609375 -12.0703125 36.12109375 27.7265625 -7.04296875 22.25 26.1328125 -5.12890625 24.4921875 30.84765625 -5.328125 28.09765625 16.1328125 -5.58203125 31.76953125 21.80078125 -3.3359375 29.94140625 23.4140625 -17.1796875 20.96875 16.234375 -16.81640625 25.3125 23.71484375 -18.875 28.86328125 13.06640625 -13.73828125 29.4765625 39.42578125 7.55078125 -24.3515625 41.3984375 12.08203125 -28.7109375 35.828125 8.171875 -23.375 32.9375 11.17578125 -26.44140625 41.10546875 8.2890625 -20.94140625 37.82421875 9.27734375 -19.60546875 38.15625 12.97265625 -17.80078125 44.53125 -18.71484375 28.84765625 46.1640625 -12.2734375 28.234375 41.46484375 -18.49609375 24.94921875 43.578125 -11.1484375 24.52734375 56.734375 16.02734375 -7.640625 34.46484375 -17.6640625 23.9140625 37.26953125 -9.796875 23.37890625 22.453125 -7.390625 -19.76953125 14.3828125 -5.38671875 -21.5234375 24.27734375 -10.30859375 -12.05078125 14.625 -11.5 -13.7734375 64.91015625 26.85546875 5.9609375 63.73046875 26.15625 1.9140625 27.27734375 -5.47265625 -18.8828125 21.97265625 -1.23046875 -21.6484375 25.20703125 1.04296875 -22.78515625 30.93359375 -0.5703125 -20.2578125 33.328125 4.078125 -21.53125 32.60546875 2.90234375 19.14453125 28.66796875 5.2890625 20.765625 31.4296875 8.55859375 21.546875 66.79296875 21.6484375 6.2890625 65.078125 21.1171875 2.8046875 58.73046875 18.76171875 0.1796875 57.2109375 18.96484375 10.77734375 23.84765625 10.859375 20.62109375 62.58984375 26.32421875 9.75 42.23046875 8.734375 -25.37890625 15.57421875 16.00390625 -14.703125 15.58984375 12.04296875 -19.91796875 22.4765625 16.46484375 -17.3203125 20.4375 14.3515625 -21.3203125 29.79296875 -6.87890625 -12.65625 23.796875 -9.1875 0.1875 25.02734375 16.2109375 -19.796875 26.73046875 15.27734375 -16.1796875 35.4140625 4.6328125 -17.13671875 -3.37890625 7.796875 4.3125 -3.38671875 7.796875 -5.66796875 8.67578125 13.78515625 -12.41015625 16.80859375 15.91015625 11.6171875 8.84765625 12.20703125 11.3671875 64.07421875 21.25 9.4140625 20.98828125 15.03515625 18.01953125 17.71484375 12.64453125 17.21484375 21.01171875 17.45703125 13.09765625 36.38671875 5.74609375 9.859375 34.46875 2.08984375 14.3125 33.90625 11.75390625 10.51953125 23.609375 16.75390625 10.0625 25.37109375 18.3671875 -2.47265625 30.03125 15.640625 10.359375 36.66796875 3.96875 -1.625 -0.65234375 -1.5546875 12.65234375 -2.98828125 1.7890625 -11.078125 23.80859375 -3.203125 20.46875 -2.98046875 1.7890625 9.75390625 0.40625 6.84375 12.97265625 6.84375 7.0859375 16.953125 27.61328125 -1.71875 19.01953125 33.9140625 -0.359375 -14.140625 25.4609375 2.86328125 20.6015625 19.30078125 9.08203125 19.55078125 57.6484375 17.03515625 23.77734375 21.984375 1.47265625 21.92578125 22.73828125 -12.81640625 6.578125 15.359375 5.14453125 20.20703125 9.23046875 2.6796875 19.73046875 33.12109375 14.9765625 -2.2734375 63.4921875 17.3125 8.21875 64.12890625 17.2265625 4.015625 22.63671875 16.01171875 -14.171875 34.97265625 3.90625 -12.6015625 32.640625 11.3671875 -14.63671875 28.1796875 17.3046875 -2.1953125 53.171875 14.76171875 24.16015625 55.39453125 16.16015625 27.53515625 59.57421875 15.80078125 5.78515625 60.7734375 12.1484375 -14.58984375 61.53515625 12.91796875 -10.6875 57.296875 11.33984375 -11.8203125 27.54296875 14.703125 -14.828125 57.30859375 4.546875 -25.74609375 53.02734375 2.83203125 -25.91796875 55.4140625 3.9921875 -28.84375</float_array>
                    <technique_common>
                        <accessor count="327" source="#pointarray0" stride="3">
                            <param name="X" type="float"/>
                            <param name="Y" type="float"/>
                            <param name="Z" type="float"/>
                        </accessor>
                    </technique_common>
                </source>
                <source id="uvs0">
                    <float_array id="uvarray0" count="868">0.9393939971923828 0.3677840232849121 0.9393939971923828 0.366303026676178 0.9550880193710327 0.38348299264907837 0.9550889730453491 0.38200199604034424 0.6407899856567383 0.477150022983551 0.6407899856567383 0.48373401165008545 0.6550880074501038 0.4796820282936096 0.6550880074501038 0.48373401165008545 0.6264910101890564 0.48373401165008545 0.6264910101890564 0.4796820282936096 0.9496539831161499 0.47857600450515747 0.9496539831161499 0.47417497634887695 0.9648820161819458 0.47857600450515747 0.9648820161819458 0.4715350270271301 0.6805070042610168 0.48373401165008545 0.6948059797286987 0.48373401165008545 0.6805070042610168 0.4796820282936096 0.6948059797286987 0.477150022983551 0.7091040015220642 0.4796820282936096 0.7091040015220642 0.48373401165008545 0.6948059797286987 0.49031901359558105 0.6805070042610168 0.4877859950065613 0.7091040015220642 0.4877859950065613 0.8308780193328857 0.4680140018463135 0.815650999546051 0.4702150225639343 0.8308780193328857 0.46361398696899414 0.815650999546051 0.46361398696899414 0.8461059927940369 0.4680140018463135 0.8461059927940369 0.46361398696899414 0.8613340258598328 0.46361398696899414 0.8613340258598328 0.4702150225639343 0.9648820161819458 0.48209601640701294 0.9496539831161499 0.48913800716400146 0.93442702293396 0.47857600450515747 0.93442702293396 0.48913800716400146 0.9191989898681641 0.47857600450515747 0.9191989898681641 0.48209601640701294 0.6948059797286987 0.4938979744911194 0.6805070042610168 0.4938979744911194 0.7091040015220642 0.4938979744911194 0.8978800177574158 0.47857600450515747 0.8978800177574158 0.47417497634887695 0.9131079912185669 0.47857600450515747 0.9131079912185669 0.4715350270271301 0.8330399990081787 0.425229012966156 0.8358389735221863 0.437296986579895 0.8687949776649475 0.4250919818878174 0.8573150038719177 0.43731701374053955 0.6550880074501038 0.46752601861953735 0.6407899856567383 0.46752601861953735 0.6550880074501038 0.4715780019760132 0.6407899856567383 0.47411102056503296 0.6264910101890564 0.4715780019760132 0.6264910101890564 0.46752601861953735 0.6948059797286987 0.46094197034835815 0.6948059797286987 0.46752601861953735 0.7091040015220642 0.46347397565841675 0.7091040015220642 0.46752601861953735 0.9155160188674927 0.3662949800491333 0.9266030192375183 0.38199299573898315 0.8714410066604614 0.36556899547576904 0.8714330196380615 0.38197600841522217 0.524815022945404 0.46549999713897705 0.5391129851341248 0.46549999713897705 0.524815022945404 0.4614480137825012 0.5391129851341248 0.4589160084724426 0.5534110069274902 0.4614480137825012 0.5534110069274902 0.46549999713897705 0.6032260060310364 0.4068149924278259 0.5831350088119507 0.40671300888061523 0.6052780151367188 0.4435669779777527 0.5740119814872742 0.4400479793548584 0.6559590101242065 0.4403889775276184 0.6501039862632751 0.4070500135421753 0.6231549978256226 0.4436429738998413 0.6300129890441895 0.406948983669281 0.5176309943199158 0.43313902616500854 0.5129709839820862 0.44248902797698975 0.5221620202064514 0.44851797819137573 0.5150949954986572 0.4490079879760742 0.5391129851341248 0.47208499908447266 0.524815022945404 0.4695519804954529 0.5534110069274902 0.4695519804954529 0.6948059797286987 0.47411102056503296 0.6805070042610168 0.4715780019760132 0.6805070042610168 0.46752601861953735 0.7091040015220642 0.4715780019760132 0.8004230260848999 0.475055992603302 0.8004230260848999 0.4715350270271301 0.815650999546051 0.475055992603302 0.815650999546051 0.46889400482177734 0.5799210071563721 0.3599569797515869 0.5954020023345947 0.3827049732208252 0.6561710238456726 0.3594520092010498 0.6383609771728516 0.3829209804534912 0.524815022945404 0.4796820282936096 0.5391129851341248 0.4796820282936096 0.524815022945404 0.475629985332489 0.5391129851341248 0.473097026348114 0.5534110069274902 0.475629985332489 0.5534110069274902 0.4796820282936096 0.5391129851341248 0.48626601696014404 0.524815022945404 0.48373401165008545 0.5534110069274902 0.48373401165008545 0.815650999546051 0.47857600450515747 0.8004230260848999 0.4838569760322571 0.5534110069274902 0.4898120164871216 0.5391129851341248 0.4898120164871216 0.785194993019104 0.475055992603302 0.785194993019104 0.4838569760322571 0.7699679732322693 0.475055992603302 0.7699679732322693 0.47857600450515747 0.524815022945404 0.4898120164871216 0.5867739915847778 0.48829197883605957 0.5867739915847778 0.48170799016952515 0.5724760293960571 0.485759973526001 0.5724760293960571 0.48170799016952515 0.9072359800338745 0.44295400381088257 0.907817006111145 0.4371830224990845 0.8870059847831726 0.4435639977455139 0.886372983455658 0.43730199337005615 0.882652997970581 0.47417497634887695 0.882652997970581 0.47857600450515747 0.8574000000953674 0.44396501779556274 0.8370199799537659 0.44389599561691284 0.5867739915847778 0.4751240015029907 0.6010720133781433 0.4776560068130493 0.6010720133781433 0.48170799016952515 0.8461059927940369 0.4856169819831848 0.8308780193328857 0.4856169819831848 0.8461059927940369 0.47681599855422974 0.8308780193328857 0.47681599855422974 0.8445379734039307 0.35670799016952515 0.8929399847984314 0.3566640019416809 0.844539999961853 0.35263001918792725 0.8922240138053894 0.3526039719581604 0.8255559802055359 0.3816850185394287 0.8209919929504395 0.37308698892593384 0.7878209948539734 0.38263100385665894 0.7825790047645569 0.3749449849128723 0.815650999546051 0.47681599855422974 0.8308780193328857 0.4724149703979492 0.5724760293960571 0.4776560068130493 0.8978800177574158 0.46889400482177734 0.882652997970581 0.46889400482177734 0.8334770202636719 0.38019198179244995 0.8038970232009888 0.3875430226325989 0.5724760293960571 0.4665129780769348 0.5867739915847778 0.4665129780769348 0.5724760293960571 0.462460994720459 0.5867739915847778 0.4599289894104004 0.6010720133781433 0.462460994720459 0.6010720133781433 0.4665129780769348 0.871425986289978 0.3881160020828247 0.5867739915847778 0.473097026348114 0.5724760293960571 0.4705650210380554 0.6010720133781433 0.4705650210380554 0.819832980632782 0.36555302143096924 0.7948290109634399 0.3689489960670471 0.8461059927940369 0.4724149703979492 0.8613340258598328 0.47681599855422974 0.6407899856567383 0.46094197034835815 0.6550880074501038 0.46347397565841675 0.8357269763946533 0.4089009761810303 0.7972850203514099 0.42536598443984985 0.8075349926948547 0.4070240259170532 0.6264910101890564 0.46347397565841675 0.6264910101890564 0.45840901136398315 0.6407899856567383 0.45840901136398315 0.6550880074501038 0.45840901136398315 0.8674250245094299 0.47857600450515747 0.8674250245094299 0.4715350270271301 0.8978800177574158 0.46097302436828613 0.8978800177574158 0.464493989944458 0.882652997970581 0.46097302436828613 0.882652997970581 0.464493989944458 0.6010720133781433 0.49285101890563965 0.6010720133781433 0.485759973526001 0.5867739915847778 0.49285101890563965 0.5724760293960571 0.4573959708213806 0.5867739915847778 0.4573959708213806 0.6010720133781433 0.4573959708213806 0.8461059927940369 0.46009302139282227 0.8308780193328857 0.46009302139282227 0.5724760293960571 0.49285101890563965 0.8978800177574158 0.48913800716400146 0.882652997970581 0.48913800716400146 0.815650999546051 0.4803360104560852 0.6695550084114075 0.41247397661209106 0.6500329971313477 0.41247397661209106 0.6695550084114075 0.4060879945755005 0.6500329971313477 0.4060879945755005 0.7309079766273499 0.41247397661209106 0.743457019329071 0.41247397661209106 0.7309079766273499 0.4215959906578064 0.7408130168914795 0.4215959906578064 0.7309079766273499 0.4097369909286499 0.7155699729919434 0.4097369909286499 0.7309079766273499 0.4033510088920593 0.7155699729919434 0.4033510088920593 0.9131079912185669 0.464493989944458 0.9496539831161499 0.464493989944458 0.9648820161819458 0.464493989944458 0.9496539831161499 0.46889400482177734 0.7002310156822205 0.41247397661209106 0.7002310156822205 0.4215959906578064 0.6876819729804993 0.41247397661209106 0.6876819729804993 0.4215959906578064 0.93442702293396 0.46889400482177734 0.93442702293396 0.464493989944458 0.7002310156822205 0.4033510088920593 0.7002310156822205 0.4097369909286499 0.6805070042610168 0.46347397565841675 0.6805070042610168 0.45840901136398315 0.6948059797286987 0.45840901136398315 0.7091040015220642 0.45840901136398315 0.9496539831161499 0.46097302436828613 0.93442702293396 0.46097302436828613 0.7155699729919434 0.394228994846344 0.7155699729919434 0.3791769742965698 0.7309079766273499 0.39514100551605225 0.7309079766273499 0.38328200578689575 0.7002310156822205 0.39514100551605225 0.7002310156822205 0.38328200578689575 0.9191989898681641 0.4715350270271301 0.9191989898681641 0.464493989944458 0.93442702293396 0.47417497634887695 0.8674250245094299 0.464493989944458 0.7155699729919434 0.4215959906578064 0.7155699729919434 0.41247397661209106 0.6500329971313477 0.40061497688293457 0.6319059729576111 0.40061497688293457 0.6319059729576111 0.4060879945755005 0.7155699729919434 0.40061497688293457 0.7309079766273499 0.40061497688293457 0.6319059729576111 0.41247397661209106 0.6695550084114075 0.40061497688293457 0.6876819729804993 0.40061497688293457 0.6876819729804993 0.4060879945755005 0.7002310156822205 0.40061497688293457 0.785194993019104 0.46625399589538574 0.7699679732322693 0.46889400482177734 0.785194993019104 0.4627329707145691 0.7699679732322693 0.4627329707145691 0.8004230260848999 0.46625399589538574 0.8004230260848999 0.4627329707145691 0.815650999546051 0.4627329707145691 0.6779209971427917 0.42615699768066406 0.6416670083999634 0.42615699768066406 0.6695550084114075 0.4215959906578064 0.6500329971313477 0.4215959906578064 0.8613340258598328 0.4803360104560852 0.6695550084114075 0.417946994304657 0.6500329971313477 0.417946994304657 0.9655799865722656 0.4067729711532593 0.9660500288009644 0.3883259892463684 0.931693971157074 0.41079801321029663 0.929606020450592 0.38889098167419434 0.6407899856567383 0.49031901359558105 0.6264910101890564 0.4877859950065613 0.9643009901046753 0.42907601594924927 0.9700189828872681 0.4066479802131653 0.9688259959220886 0.4292449951171875 0.9645980000495911 0.4410160183906555 0.9627460241317749 0.436460018157959 0.9467809796333313 0.4425309896469116 0.9618669748306274 0.44557297229766846 0.7777130007743835 0.4362580180168152 0.767982006072998 0.4390559792518616 0.7880340218544006 0.4418179988861084 0.771291971206665 0.4447169899940491 0.6407899856567383 0.4938979744911194 0.6264910101890564 0.4938979744911194 0.8674250245094299 0.48209601640701294 0.9131079912185669 0.48209601640701294 0.7136849761009216 0.43551599979400635 0.7089110016822815 0.45292001962661743 0.7198230028152466 0.44679999351501465 0.7165539860725403 0.45358699560165405 0.6550880074501038 0.4877859950065613 0.785194993019104 0.4715350270271301 0.5576210021972656 0.4080290198326111 0.5317540168762207 0.4093160033226013 0.556164026260376 0.43644702434539795 0.5240110158920288 0.43390601873397827 0.9306269884109497 0.4248179793357849 0.8639199733734131 0.4107769727706909 0.524815022945404 0.4573959708213806 0.5391129851341248 0.4542980194091797 0.5534110069274902 0.4573959708213806 0.8004230260848999 0.4592130184173584 0.785194993019104 0.4592130184173584 0.8445379734039307 0.35655999183654785 0.8915039896965027 0.35655200481414795 0.6834989786148071 0.38328200578689575 0.6681600213050842 0.3860189914703369 0.56038498878479 0.382066011428833 0.6701939702033997 0.4071509838104248 0.6744170188903809 0.3831019997596741 0.6550880074501038 0.4938979744911194 0.7039399743080139 0.43701398372650146 0.6943179965019226 0.40727299451828003 0.6738399863243103 0.44050300121307373 0.8177610039710999 0.4403979778289795 0.7982569932937622 0.43907397985458374 0.8213440179824829 0.4474160075187683 0.808230996131897 0.44284701347351074 0.6757280230522156 0.4550439715385437 0.664900004863739 0.44045400619506836 0.6142169833183289 0.4436119794845581 0.6927340030670166 0.45448899269104004 0.6564030051231384 0.45759397745132446 0.6660829782485962 0.45456600189208984 0.6209200024604797 0.456866979598999 0.8740010261535645 0.44049400091171265 0.743457019329071 0.4063349962234497 0.8053230047225952 0.36305201053619385 0.550233006477356 0.3608279824256897 0.5968499779701233 0.3475779891014099 0.9169449806213379 0.35751497745513916 0.7309079766273499 0.42615699768066406 0.6319059729576111 0.4215959906578064 0.743457019329071 0.40061497688293457 0.7002310156822205 0.42615699768066406 0.6542159914970398 0.394228994846344 0.8189489841461182 0.3575029969215393 0.8038039803504944 0.36559098958969116 0.5294280052185059 0.3796190023422241 0.6999769806861877 0.3774759769439697 0.7782689929008484 0.4259840250015259 0.9421390295028687 0.43911802768707275 0.5146070122718811 0.4095500111579895 0.6918650269508362 0.38328200578689575 0.6819390058517456 0.35890400409698486 0.762499988079071 0.4275779724121094 0.7140300273895264 0.40810102224349976 0.9283360242843628 0.4935380220413208 0.6709750294685364 0.4877859950065613 0.7208870053291321 0.40850400924682617 0.7214040160179138 0.4307199716567993 0.850167989730835 0.39844799041748047 0.7850810289382935 0.3809570074081421 0.7741469740867615 0.38757097721099854 0.7692139744758606 0.3770869970321655 0.7650780081748962 0.3973590135574341 0.7166540026664734 0.3828880190849304 0.7632129788398743 0.4048740267753601 0.6424639821052551 0.3478339910507202 0.8674250245094299 0.4625539779663086 0.6550880074501038 0.49896299839019775 0.6646199822425842 0.4877859950065613 0.8765619993209839 0.4935380220413208 0.6169589757919312 0.4877859950065613 0.5665670037269592 0.4399399757385254 0.9293869733810425 0.44336998462677 0.9223020076751709 0.44054198265075684 0.9199730157852173 0.4469969868659973 0.5407940149307251 0.45138901472091675 0.5552170276641846 0.45303601026535034 0.5727750062942505 0.45636701583862305 0.607545018196106 0.4556419849395752 0.6136400103569031 0.45635998249053955 0.589684009552002 0.4590659737586975 0.8735730051994324 0.44771498441696167 0.6386989951133728 0.4602530002593994 0.5629439949989319 0.47411102056503296 0.5629439949989319 0.48170799016952515 0.6106039881706238 0.48170799016952515 0.5629439949989319 0.4665129780769348 0.6709750294685364 0.475629985332489 0.7186359763145447 0.48373401165008545 0.7186359763145447 0.475629985332489 0.7186359763145447 0.46752601861953735 0.9420409798622131 0.49177801609039307 0.9557459950447083 0.4935380220413208 0.6805070042610168 0.49896299839019775 0.7091040015220642 0.49896299839019775 0.7186359763145447 0.4877859950065613 0.7186359763145447 0.46549999713897705 0.6646199822425842 0.46752601861953735 0.9039710164070129 0.4935380220413208 0.8902660012245178 0.49177801609039307 0.6264910101890564 0.49896299839019775 0.6646199822425842 0.48373401165008545 0.6169589757919312 0.48373401165008545 0.6169589757919312 0.46752601861953735 0.6646199822425842 0.46549999713897705 0.5152829885482788 0.47259098291397095 0.5629439949989319 0.4796820282936096 0.5629439949989319 0.47259098291397095 0.5152829885482788 0.46549999713897705 0.6169589757919312 0.46549999713897705 0.6646199822425842 0.475629985332489 0.6169589757919312 0.475629985332489 0.8247870206832886 0.49177801609039307 0.6106039881706238 0.485759973526001 0.6010720133781433 0.4989290237426758 0.815650999546051 0.46185302734375 0.8384919762611389 0.49001801013946533 0.6106039881706238 0.47411102056503296 0.5629439949989319 0.4644870162010193 0.6106039881706238 0.4665129780769348 0.852196991443634 0.49177801609039307 0.5724760293960571 0.4989290237426758 0.5629439949989319 0.485759973526001 0.6106039881706238 0.4644870162010193 0.5645470023155212 0.4520050287246704 0.9131079912185669 0.46262097358703613 0.6709750294685364 0.46752601861953735 0.6709750294685364 0.46549999713897705 0.6709750294685364 0.48373401165008545 0.7859990000724792 0.4057270288467407 0.6137819886207581 0.46296799182891846 0.752236008644104 0.3837429881095886 0.7658720016479492 0.38319700956344604 0.5107830166816711 0.4332280158996582 0.5534110069274902 0.4958900213241577 0.7699679732322693 0.46097302436828613 0.792809009552002 0.48737698793411255 0.5152829885482788 0.4796820282936096 0.5629439949989319 0.48373401165008545 0.5152829885482788 0.46347397565841675 0.5629439949989319 0.46549999713897705 0.8065140247344971 0.48913800716400146 0.524815022945404 0.4958900213241577 0.5152829885482788 0.48373401165008545 0.7791039943695068 0.48913800716400146 0.815650999546051 0.46097302436828613 0.5629439949989319 0.46347397565841675 0.9648820161819458 0.4627060294151306 0.5629439949989319 0.459089994430542 0.6677979826927185 0.46161001920700073 0.9191989898681641 0.4626380205154419 0.8613340258598328 0.46185302734375</float_array>
                    <technique_common>
                        <accessor count="434" source="#uvarray0" stride="2">
                            <param name="S" type="float"/>
                            <param name="T" type="float"/>
                        </accessor>
                    </technique_common>
                </source>
                <vertices id="vertices0">
                    <input semantic="POSITION" source="#points0"/>
                </vertices>
                <polylist count="650" material="Material1">
                    <input offset="0" semantic="VERTEX" source="#vertices0"/>
                    <input offset="1" semantic="TEXCOORD" source="#uvs0" set="0"/>
                    <vcount>3 3 3 3 3 3 3 3 3 3 3 3 3 3 3 3 3 3 3 3 3 3 3 3 3 3 3 3 3 3 3 3 3 3 3 3 3 3 3 3 3 3 3 3 3 3 3 3 3 3 3 3 3 3 3 3 3 3 3 3 3 3 3 3 3 3 3 3 3 3 3 3 3 3 3 3 3 3 3 3 3 3 3 3 3 3 3 3 3 3 3 3 3 3 3 3 3 3 3 3 3 3 3 3 3 3 3 3 3 3 3 3 3 3 3 3 3 3 3 3 3 3 3 3 3 3 3 3 3 3 3 3 3 3 3 3 3 3 3 3 3 3 3 3 3 3 3 3 3 3 3 3 3 3 3 3 3 3 3 3 3 3 3 3 3 3 3 3 3 3 3 3 3 3 3 3 3 3 3 3 3 3 3 3 3 3 3 3 3 3 3 3 3 3 3 3 3 3 3 3 3 3 3 3 3 3 3 3 3 3 3 3 3 3 3 3 3 3 3 3 3 3 3 3 3 3 3 3 3 3 3 3 3 3 3 3 3 3 3 3 3 3 3 3 3 3 3 3 3 3 3 3 3 3 3 3 3 3 3 3 3 3 3 3 3 3 3 3 3 3 3 3 3 3 3 3 3 3 3 3 3 3 3 3 3 3 3 3 3 3 3 3 3 3 3 3 3 3 3 3 3 3 3 3 3 3 3 3 3 3 3 3 3 3 3 3 3 3 3 3 3 3 3 3 3 3 3 3 3 3 3 3 3 3 3 3 3 3 3 3 3 3 3 3 3 3 3 3 3 3 3 3 3 3 3 3 3 3 3 3 3 3 3 3 3 3 3 3 3 3 3 3 3 3 3 3 3 3 3 3 3 3 3 3 3 3 3 3 3 3 3 3 3 3 3 3 3 3 3 3 3 3 3 3 3 3 3 3 3 3 3 3 3 3 3 3 3 3 3 3 3 3 3 3 3 3 3 3 3 3 3 3 3 3 3 3 3 3 3 3 3 3 3 3 3 3 3 3 3 3 3 3 3 3 3 3 3 3 3 3 3 3 3 3 3 3 3 3 3 3 3 3 3 3 3 3 3 3 3 3 3 3 3 3 3 3 3 3 3 3 3 3 3 3 3 3 3 3 3 3 3 3 3 3 3 3 3 3 3 3 3 3 3 3 3 3 3 3 3 3 3 3 3 3 3 3 3 3 3 3 3 3 3 3 3 3 3 3 3 3 3 3 3 3 3 3 3 3 3 3 3 3 3 3 3 3 3 3 3 3 3 3 3 3 3 3 3 3 3 3 3 3 3 3 3 3 3 3 3 3 3 3 3 3 3 3 3 3 3 3 3 3 3 3 3 3 3 3 3 3 3 3 3 3 3 3 3 3 3 3 3 3 3 3 3 3 3 3 3 3 3 3 3 3 3 3 3 3 3 3 3 3 3 3 3 3 3 3 3 3 3 3 3 3 3 3 3 3 3 3</vcount>
                    <p>2 2 1 1 0 0 3 3 1 1 2 2 6 6 5 5 4 4 7 7 5 5 6 6 9 9 5 5 8 8 4 4 5 5 9 9 12 12 11 11 10 10 13 13 11 11 12 12 16 16 15 15 14 14 17 17 15 15 16 16 18 18 15 15 17 17 19 19 15 15 18 18 21 21 15 15 20 20 14 14 15 15 21 21 22 22 15 15 19 19 20 20 15 15 22 22 25 25 24 24 23 23 26 26 24 24 25 25 28 28 23 23 27 27 25 25 23 23 28 28 27 27 29 29 28 28 30 30 29 29 27 27 12 12 32 32 31 31 10 10 32 32 12 12 35 35 34 34 33 33 36 36 34 34 35 35 37 37 21 21 20 20 38 38 21 21 37 37 37 37 22 22 39 39 20 20 22 22 37 37 42 42 41 41 40 40 43 43 41 41 42 42 46 46 45 45 44 44 47 47 45 45 46 46 50 50 49 49 48 48 51 51 49 49 50 50 52 52 49 49 51 51 53 53 49 49 52 52 56 56 55 55 54 54 57 57 55 55 56 56 1 1 59 59 58 58 3 3 59 59 1 1 58 58 61 61 60 60 59 59 61 61 58 58 64 64 63 63 62 62 65 65 63 63 64 64 66 66 63 63 65 65 67 67 63 63 66 66 70 70 69 69 68 68 71 71 69 69 70 70 74 74 73 73 72 72 75 75 73 73 74 74 78 78 77 77 76 76 79 79 77 77 78 78 81 81 63 63 80 80 62 62 63 63 81 81 82 82 63 63 67 67 80 80 63 63 82 82 84 84 55 55 83 83 85 85 55 55 84 84 86 86 55 55 57 57 83 83 55 55 86 86 89 89 88 88 87 87 90 90 88 88 89 89 93 93 92 92 91 91 94 94 92 92 93 93 97 97 96 96 95 95 98 98 96 96 97 97 99 99 96 96 98 98 100 100 96 96 99 99 102 102 96 96 101 101 95 95 96 96 102 102 103 103 96 96 100 100 101 101 96 96 103 103 89 89 105 105 104 104 87 87 105 105 89 89 107 107 103 103 106 106 101 101 103 103 107 107 110 110 109 109 108 108 111 111 109 109 110 110 107 107 102 102 101 101 112 112 102 102 107 107 115 115 114 114 113 113 116 116 114 114 115 115 119 119 118 118 117 117 120 120 118 118 119 119 121 121 40 40 41 41 122 122 40 40 121 121 124 124 47 47 123 123 45 45 47 47 124 124 126 126 114 114 125 125 127 127 114 114 126 126 130 130 129 129 128 128 131 131 129 129 130 130 134 134 133 133 132 132 135 135 133 133 134 134 51 51 6 6 4 4 50 50 6 6 51 51 52 52 4 4 9 9 51 51 4 4 52 52 138 138 137 137 136 136 139 139 137 137 138 138 141 141 140 140 131 131 24 24 140 140 141 141 142 142 114 114 116 116 125 125 114 114 142 142 143 143 121 121 41 41 144 144 121 121 143 143 146 146 136 136 145 145 138 138 136 136 146 146 149 149 148 148 147 147 150 150 148 148 149 149 151 151 148 148 150 150 152 152 148 148 151 151 136 136 153 153 145 145 61 61 153 153 136 136 155 155 148 148 154 154 147 147 148 148 155 155 156 156 148 148 152 152 154 154 148 148 156 156 137 137 158 158 157 157 139 139 158 158 137 137 160 160 159 159 130 130 30 30 159 159 160 160 162 162 49 49 161 161 48 48 49 49 162 162 164 164 163 163 44 44 165 165 163 163 164 164 166 166 49 49 53 53 161 161 49 49 166 166 167 167 161 161 166 166 168 168 161 161 167 167 168 168 162 162 161 161 169 169 162 162 168 168 121 121 170 170 122 122 171 171 170 170 121 121 123 174 172 173 124 172 173 175 172 173 123 174 176 178 175 177 174 176 113 113 175 177 176 178 177 179 150 150 149 149 178 180 150 150 177 179 178 180 151 151 150 150 179 181 151 151 178 180 117 183 28 28 119 182 25 25 28 28 117 183 176 178 115 115 113 113 180 184 115 115 176 178 40 40 182 186 181 185 122 122 182 186 40 40 27 27 141 141 159 159 23 23 141 141 27 27 140 140 129 129 131 131 183 187 129 129 140 140 155 155 125 125 142 142 154 154 125 125 155 155 154 154 126 126 125 125 156 156 126 126 154 154 141 141 130 130 159 159 131 131 130 130 141 141 175 177 114 114 127 127 113 113 114 114 175 177 94 94 68 68 92 92 75 75 68 68 94 94 186 190 185 189 184 188 187 191 185 189 186 190 190 194 189 193 188 192 191 195 189 193 190 194 194 198 193 197 192 196 195 199 193 197 194 198 143 143 196 200 172 173 43 43 196 200 143 143 199 203 198 202 197 201 13 13 198 202 199 203 202 206 201 205 200 204 203 207 201 205 202 206 197 201 204 208 199 203 205 209 204 208 197 201 206 210 193 197 195 199 207 211 193 197 206 210 209 213 54 54 208 212 210 214 54 54 209 213 210 214 56 56 54 54 211 215 56 56 210 214 213 217 197 201 212 216 205 209 197 201 213 217 216 220 215 219 214 218 217 221 215 219 216 220 214 218 219 223 218 222 215 219 219 223 214 218 205 209 220 224 204 208 221 225 220 224 205 209 172 173 144 144 143 143 173 175 144 144 172 173 199 203 222 226 11 11 204 208 222 226 199 203 173 175 171 171 144 144 223 227 171 171 173 175 84 84 17 17 16 16 83 83 17 17 84 84 83 83 18 18 17 17 86 86 18 18 83 83 188 192 224 228 190 194 225 229 224 228 188 192 192 196 225 229 188 192 193 197 225 229 192 196 227 231 187 191 226 230 228 232 187 191 227 231 194 198 229 233 195 199 230 234 229 233 194 198 216 220 229 233 230 234 214 218 229 233 216 220 187 191 189 235 185 189 228 232 189 235 187 191 225 229 201 205 224 228 200 204 201 205 225 229 207 211 225 229 193 197 200 204 225 229 207 211 186 190 232 237 231 236 233 238 232 237 186 190 206 210 229 233 234 239 195 199 229 233 206 210 214 218 234 239 229 233 218 222 234 239 214 218 237 242 236 241 235 240 238 243 236 241 237 242 202 206 186 190 184 188 233 238 186 190 202 206 240 245 235 240 239 244 237 242 235 240 240 245 239 244 241 246 240 245 90 90 241 246 239 244 244 249 243 248 242 247 245 250 243 248 244 249 160 160 128 128 246 251 130 130 128 128 160 160 247 252 245 250 244 249 248 253 245 250 247 252 184 188 248 253 247 252 185 189 248 253 184 188 231 236 187 191 186 190 226 230 187 191 231 236 10 10 34 34 32 32 33 33 34 34 10 10 251 256 250 255 249 254 252 257 250 255 251 256 254 259 5 5 253 258 8 8 5 5 254 259 256 261 255 260 249 254 257 262 255 260 256 261 258 264 257 262 77 263 255 260 257 262 258 264 77 263 259 265 258 264 79 266 259 265 77 263 212 269 261 268 260 267 262 270 261 268 212 269 263 271 254 259 253 258 264 272 254 259 263 271 170 170 182 186 122 122 265 273 182 186 170 170 87 87 109 109 105 105 108 108 109 109 87 87 42 42 181 185 266 274 40 40 181 185 42 42 261 277 211 276 267 275 262 278 211 276 261 277 222 226 35 35 33 33 220 224 35 35 222 226 268 279 5 5 7 7 253 258 5 5 268 279 269 280 110 110 108 108 236 241 110 110 269 280 272 283 271 282 270 281 273 284 271 282 272 283 249 254 274 285 251 256 255 260 274 285 249 254 251 256 46 46 275 286 274 285 46 46 251 256 163 163 46 46 44 44 275 286 46 46 163 163 78 287 65 65 64 64 276 288 65 65 78 287 208 212 55 55 85 85 54 54 55 55 208 212 276 288 66 66 65 65 277 289 66 66 276 288 259 291 240 245 278 290 237 242 240 245 259 291 222 226 10 10 11 11 33 33 10 10 222 226 59 59 153 153 61 61 252 257 153 153 59 59 239 244 269 280 88 88 235 240 269 280 239 244 279 292 135 135 134 134 280 293 135 135 279 292 165 295 231 236 146 294 226 230 231 236 165 295 81 81 98 98 97 97 80 80 98 98 81 81 80 80 99 99 98 98 82 82 99 99 80 80 274 285 120 120 46 46 118 118 120 120 274 285 269 280 87 87 88 88 108 108 87 87 269 280 69 69 281 296 92 92 270 281 281 296 69 69 73 73 283 298 282 297 94 94 283 298 73 73 263 271 268 279 284 299 253 258 268 279 263 271 287 302 286 301 285 300 282 297 286 301 287 302 3 3 252 257 59 59 250 255 252 257 3 3 124 124 288 303 45 45 45 45 288 303 289 304 290 305 288 303 124 124 288 303 213 306 289 304 291 308 287 302 209 307 282 297 291 308 73 73 292 309 70 70 68 68 285 300 211 276 210 310 282 297 283 298 286 301 94 94 73 73 75 75 281 296 270 281 271 282 293 312 169 311 291 308 292 309 74 74 167 313 294 314 123 123 47 47 213 306 288 303 290 305 287 302 210 310 209 307 247 252 203 207 202 206 247 252 202 206 184 188 189 235 248 253 185 189 232 237 233 238 206 210 207 211 206 210 233 238 192 196 228 315 194 198 132 132 157 157 295 316 280 318 91 91 0 317 296 319 1 1 133 133 256 261 249 254 250 255 0 0 1 1 296 319 243 320 190 194 224 228 200 204 207 211 202 206 244 249 242 247 203 207 206 210 234 239 232 237 202 206 207 211 233 238 188 192 189 193 192 196 245 250 191 321 243 248 194 198 227 322 230 234 194 198 228 315 227 322 192 196 189 193 228 315 243 320 224 228 242 323 226 230 165 295 297 324 201 205 242 323 224 228 247 252 244 249 203 207 232 237 234 239 218 222 243 320 191 195 190 194 191 321 245 250 248 253 132 132 295 316 298 325 296 319 133 133 135 135 279 292 298 325 299 326 157 157 60 60 137 137 281 296 2 327 0 317 300 328 286 301 283 298 165 165 164 164 301 329 260 267 301 329 164 164 118 118 274 285 302 330 271 282 256 331 2 327 273 284 76 76 271 282 255 260 258 264 302 330 297 324 227 231 226 230 297 324 216 220 227 231 232 237 218 222 219 223 138 332 231 236 232 237 138 332 146 294 231 236 283 298 93 93 299 333 2 327 281 296 271 282 76 76 273 284 78 78 303 334 260 267 261 268 267 275 286 301 304 335 216 220 230 234 227 322 219 223 138 332 232 237 201 205 203 207 242 323 297 324 217 221 216 220 191 321 248 253 189 235 34 34 36 36 305 336 38 38 36 337 21 21 303 339 304 335 306 338 303 334 301 329 260 267 307 340 163 163 165 165 45 45 164 164 44 44 145 145 307 340 146 146 153 153 275 286 307 340 309 343 308 342 300 341 217 344 308 342 309 343 304 335 308 345 306 338 267 275 304 335 303 339 304 335 300 328 308 345 306 346 308 342 217 344 91 91 280 318 93 93 279 347 299 333 93 93 1 1 58 58 133 133 223 227 123 174 310 348 284 299 311 349 263 271 196 200 124 172 172 173 43 43 143 143 41 41 121 121 144 144 171 171 284 299 266 350 311 349 182 186 265 273 312 351 264 272 265 352 254 259 272 283 270 281 313 353 287 302 285 300 210 310 315 356 314 355 278 354 117 117 314 355 315 356 302 330 278 354 314 355 258 264 259 265 302 330 272 283 276 357 273 284 276 357 272 283 277 358 71 71 177 359 313 353 316 361 179 360 292 309 177 359 71 71 178 362 314 355 117 117 118 118 314 355 118 118 302 330 120 120 119 119 294 314 123 123 294 314 310 363 120 120 294 314 47 47 74 74 168 364 167 313 169 311 168 364 72 72 142 142 140 366 24 365 160 367 127 127 126 126 155 155 24 365 26 368 300 341 299 326 295 316 16 16 220 369 84 84 18 18 13 371 12 370 198 372 13 371 86 86 34 34 305 336 317 373 32 32 318 374 31 31 36 337 38 38 305 375 39 39 31 377 318 376 262 378 56 56 211 215 196 379 50 50 48 48 181 185 319 381 311 380 311 349 312 382 263 271 42 383 268 279 7 7 254 259 265 352 170 384 8 8 170 384 9 9 53 53 223 385 166 166 312 351 311 380 319 381 290 386 162 162 169 169 312 382 264 272 263 271 97 97 236 387 81 81 99 99 90 389 89 388 81 81 238 390 62 62 196 379 48 48 162 162 166 166 223 385 310 391 52 52 223 385 53 53 6 6 43 392 42 383 52 52 171 393 223 385 42 383 7 7 6 6 9 9 170 384 171 393 266 350 268 279 42 383 254 259 170 384 8 8 181 185 182 186 319 381 129 129 183 187 320 394 174 176 175 177 246 395 141 141 23 23 24 24 30 30 27 27 159 159 28 28 29 29 119 182 174 176 321 396 176 178 26 26 117 183 315 397 128 128 129 129 322 398 115 115 140 366 116 116 246 395 175 177 160 367 30 399 126 126 156 156 155 155 26 368 147 147 149 149 26 368 315 400 29 401 152 152 151 151 128 128 322 398 321 402 321 396 320 403 176 178 29 401 156 156 152 152 160 367 175 177 127 127 115 115 183 404 140 366 116 116 140 366 142 142 147 147 26 368 149 149 320 394 321 402 322 398 320 403 180 184 176 178 310 405 151 151 179 181 174 176 246 395 321 396 183 404 180 184 320 403 128 128 321 402 246 251 129 129 320 394 322 398 29 401 30 399 156 156 126 126 30 399 160 367 284 299 268 279 266 350 0 0 296 319 280 293 295 316 299 326 298 325 292 309 167 313 316 361 313 353 177 359 323 406 209 307 293 312 291 308 292 309 179 360 70 70 75 75 292 309 68 68 69 69 313 353 270 281 272 283 313 353 277 358 291 308 169 311 72 72 212 269 289 304 213 306 119 119 310 363 294 314 323 406 277 358 313 353 69 69 92 92 68 68 69 69 71 71 313 353 75 75 74 74 292 309 282 297 287 302 291 308 302 330 259 265 278 354 260 267 289 304 212 269 72 72 73 73 291 308 265 352 264 272 312 382 181 185 311 380 266 274 182 186 312 351 319 381 196 379 43 392 50 50 43 392 6 6 50 50 9 9 171 393 52 52 173 175 123 174 223 227 196 200 290 407 124 172 196 379 162 162 290 386 167 167 166 166 310 391 180 184 183 404 115 115 300 328 283 298 299 333 283 298 94 94 93 93 281 296 91 91 92 92 281 296 0 317 91 91 252 257 251 256 153 153 280 318 279 347 93 93 84 84 220 369 221 408 13 371 18 18 86 86 84 84 221 408 85 85 208 212 221 408 290 409 198 372 57 57 56 56 32 32 317 373 318 374 318 376 305 375 37 37 198 372 56 56 262 378 198 372 86 86 57 57 12 370 22 22 19 19 21 21 36 337 35 410 14 14 35 410 16 16 85 85 221 408 208 212 305 336 318 374 317 373 305 375 38 38 37 37 133 133 58 58 60 60 60 60 157 157 132 132 60 60 132 132 133 133 134 134 298 325 279 292 280 293 296 319 135 135 132 132 298 325 134 134 301 329 303 334 297 411 297 411 303 334 306 346 316 361 167 313 310 412 178 362 71 71 70 70 179 360 178 362 70 70 72 72 168 364 74 74 306 346 217 344 297 411 309 343 215 413 217 344 309 343 139 139 219 414 138 138 219 414 139 139 309 343 158 158 139 139 309 343 219 414 215 413 137 137 61 61 136 136 307 340 275 286 163 163 165 165 301 329 297 411 146 146 307 340 165 165 145 145 153 153 307 340 295 316 157 157 158 158 251 256 275 286 153 153 260 267 164 164 289 304 255 260 302 330 274 285 285 300 286 301 267 275 267 275 303 339 261 277 256 331 76 76 257 415 250 255 3 3 2 2 256 261 250 255 2 2 286 301 300 328 304 335 158 158 300 341 295 316 309 343 300 341 158 158 256 331 271 282 76 76 257 415 76 76 77 77 267 275 211 276 285 300 78 78 273 284 276 357 61 61 137 137 60 60 106 106 324 416 107 107 238 243 259 291 79 417 105 105 109 109 325 418 102 102 110 419 95 95 104 420 103 103 89 388 97 97 110 419 236 387 89 388 100 100 99 99 64 64 238 390 79 421 241 422 67 67 66 66 105 105 325 418 324 423 324 416 326 424 107 107 241 422 82 82 67 67 89 388 103 103 100 100 102 102 111 425 110 419 95 95 110 419 97 97 62 62 238 390 64 64 326 426 324 423 325 418 326 424 112 112 107 107 106 106 104 420 324 416 111 425 112 112 326 424 105 105 324 423 104 104 109 109 326 426 325 418 241 422 90 389 82 82 90 389 99 99 82 82 81 81 236 387 238 390 237 242 259 291 238 243 278 290 241 246 315 427 241 422 66 66 315 428 209 213 208 212 290 409 198 202 262 429 212 216 205 209 213 217 221 225 315 430 277 358 323 406 315 430 323 406 177 359 179 360 316 361 310 412 293 312 209 307 290 431 293 312 290 431 169 311 289 304 164 164 45 45 46 46 120 120 47 47 39 39 22 22 31 377 222 226 204 208 220 224 13 13 199 203 11 11 198 202 212 216 197 201 39 39 318 376 37 37 221 225 213 217 290 432 32 32 34 34 317 373 21 21 35 410 14 14 31 377 22 22 12 370 16 16 35 410 220 369 12 370 19 19 18 18 78 287 64 64 79 421 142 142 24 365 155 155 25 25 117 183 26 26 119 182 29 29 310 433 29 401 151 151 310 405 177 179 149 149 315 400 112 112 111 425 102 102 109 109 111 111 326 426 106 106 103 103 104 420 269 280 235 240 236 241 90 90 239 244 88 88 240 245 241 246 278 290 315 428 66 66 277 289</p>
                </polylist>
            </mesh>
        </geometry>
    </library_geometries>
    <library_visual_scenes>
        <visual_scene id="VisualSceneNode">
            <node id="node0" name="m0" type="NODE">
                <instance_geometry url="#mesh0">
                    <bind_material>
                        <technique_common>
                            <instance_material symbol="Material1" target="#mat0">
                                <bind_vertex_input semantic="UVSET0" input_semantic="TEXCOORD" input_set="0"></bind_vertex_input>
                            </instance_material>
                        </technique_common>
                    </bind_material>
                </instance_geometry>
            </node>
        </visual_scene>
    </library_visual_scenes>
    <scene>
        <instance_visual_scene url="#VisualSceneNode"></instance_visual_scene>
    </scene>
</COLLADA>
