<?xml version="1.0"?>
<COLLADA xmlns="http://www.collada.org/2005/11/COLLADASchema" version="1.4.1">
    <asset>
        <contributor>
            <authoring_tool>J3D Ripoff Exporter</authoring_tool>
        </contributor>
        <created>2024-08-02T13:58:16.013Z</created>
        <modified>2024-08-02T13:58:16.013Z</modified>
		<unit meter="0.01" name="centimeter" ></unit>
        <up_axis>Y_UP</up_axis>
    </asset>
    <library_images>
        <image id="tex0">
            <init_from>donkey_all.png</init_from>
        </image>
    </library_images>
    <library_effects>
        <effect id="effect0">
            <profile_COMMON>
                <newparam sid="surface0">
                    <surface type="2D">
                        <init_from>tex0</init_from>
                    </surface>
                </newparam>
                <newparam sid="sampler0">
                    <sampler2D>
                        <source>surface0</source>
                    </sampler2D>
                </newparam>
                <technique sid="COMMON">
                    <blinn>
                        <diffuse>
                            <texture texture="sampler0" texcoord="UVSET0"></texture>
                        </diffuse>
                    </blinn>
                </technique>
            </profile_COMMON>
        </effect>
    </library_effects>
    <library_materials>
        <material id="mat0" name="donkey_All">
            <instance_effect url="#effect0"></instance_effect>
        </material>
    </library_materials>
    <library_geometries>
        <geometry id="mesh0">
            <mesh>
                <source id="points0">
                    <float_array id="pointarray0" count="981">1.30859375 5.8515625 -15.8515625 0.6875 -2.3203125 -15.8515625 7.87890625 6.15625 -19.19140625 7.2578125 -4.9921875 -19.19140625 65.77734375 -0.1015625 4.1015625 68.68359375 -4.71875 3.8828125 63.71875 -1.515625 8.84375 67.203125 -5.296875 8.77734375 67.23828125 -5.66015625 -0.2890625 64.4296875 -1.43359375 -0.578125 52.515625 -10.47265625 15.17578125 51.0703125 -7.30078125 15.52734375 57.3515625 -7.80859375 18.65625 52.3203125 -3.3046875 19.12109375 64.484375 -3.43359375 9.49609375 66.4296875 -2.55859375 13.953125 61.59765625 -0.31640625 9.89453125 63.69140625 0.37890625 14.140625 61.2421875 -0.8203125 18.4609375 64.1953125 -3.71484375 17.94140625 68.4765625 -7.2734375 13.62890625 66.88671875 -6.87109375 9.25 66.39453125 -7.21875 17.24609375 46.0546875 -6.2109375 -7.88671875 52.7109375 -0.81640625 -11.19921875 43.26953125 -3.9296875 -8.31640625 46.25 1.10546875 -11.4453125 45.92578125 -6.0859375 -3.80859375 43.27734375 -3.953125 -4.08203125 45.31640625 2.43359375 -0.4140625 51.81640625 -0.5078125 -0.0703125 58.9609375 -11.953125 17.7421875 55.73046875 -13.44921875 14.98828125 52.84765625 -10.203125 9.98046875 56.08203125 -13.15625 9.59765625 58.99609375 -5.1953125 8.234375 59.5625 -11.54296875 7.9375 68.8515625 -11.11328125 13.3671875 66.87109375 -10.796875 9.23828125 66.40625 -11.125 16.67578125 53.28515625 -10.5546875 6.58203125 52.58203125 -8.078125 6.46875 62.27734375 -7.8203125 8.0234375 56.87890625 -2.58203125 9.85546875 25.390625 -11.07421875 9.1875 31.2734375 -7.8515625 6.80078125 25.328125 -9.30859375 0.60546875 31.1875 -6.421875 0.9140625 51.7578125 8.12890625 8.40234375 52.33203125 9.34375 3.83984375 58.5703125 3.86328125 8.671875 59.22265625 5.49609375 3.92578125 58.61328125 3.546875 -0.7265625 51.91796875 7.93359375 -0.66796875 45.171875 10.39453125 14.84765625 51.45703125 7.48828125 14.73828125 44.68359375 8.28515625 19.08984375 50.046875 6.01953125 19.078125 0.6875 -9.12109375 -10.7734375 7.2578125 -11.109375 -12.0390625 0.38671875 -10.2890625 -1.40234375 7.2578125 -10.58203125 -1.40234375 47.80078125 5.1015625 -19.31640625 48.0859375 7.3125 -15.65234375 42.2421875 7.5625 -19.68359375 43.015625 9.68359375 -16.0234375 42.0859375 8.76171875 -12.19921875 47.46484375 5.9140625 -11.80859375 20.95703125 16.6796875 -4.15625 20.95703125 16.15234375 -8.5546875 29.78125 16.44140625 -3.6328125 29.08984375 15.38671875 -10.48046875 29.73046875 15.39453125 7.453125 20.95703125 16.15234375 6.1015625 29.77734375 16.44140625 0.27734375 20.95703125 16.6796875 1.703125 29.24609375 7.078125 -20.9921875 30.23046875 0.3515625 -21.21875 38.33203125 8.921875 -19.77734375 36.10546875 2.3671875 -20.63671875 53.51171875 4.3828125 -15.18359375 53.01171875 2.39453125 -18.8671875 52.3828125 2.609375 -11.21484375 59.0625 4.0546875 14.5 56.984375 3.0859375 10.01171875 50.28125 6.67578125 10.04296875 57.01171875 1.95703125 18.765625 50.19140625 -10.4765625 -12.4921875 48.7109375 -7.13671875 -12.984375 53.97265625 -4.953125 -9.91015625 49.89453125 -3.4453125 -10.69140625 0.953125 11.44921875 -9.35546875 8.84765625 14.87890625 -5.9296875 0.640625 11.47265625 7.33203125 8.84765625 14.87890625 3.47265625 59.0703125 -3.14453125 -18.01171875 59.80078125 -2 -14.234375 56.21875 0.0703125 -18.46875 57.4765625 1.25 -14.65625 55.3359375 0.50390625 -10.84765625 58.0546875 -2.4453125 -10.66015625 61.3671875 -6.0234375 -13.80859375 60.48828125 -6.9609375 -17.14453125 59.58984375 -5.84375 -10.671875 55.0078125 -11.1328125 -9.8828125 53.24609375 -12.7109375 -11.97265625 59.74609375 -10.60546875 -10.90234375 61.74609375 -10.65625 -13.43359375 50.58984375 -10.71484375 -16.484375 53.64453125 -12.94921875 -15.96484375 54.8828125 -6.13671875 -18.81640625 56.05078125 -11.60546875 -17.7890625 60.3828125 -10.8671875 -16.30859375 66.63671875 -9.1875 -4.37109375 64.890625 -3.10546875 -4.91796875 65.265625 -9.16015625 -8.33984375 63.25390625 -4.35546875 -9.23046875 37.73046875 -3.00390625 -9.0234375 31.125 -6.27734375 -9.14453125 37.88671875 -2.84765625 -4.71875 31.17578125 -6.37890625 -4.5859375 52.61328125 -8.18359375 1.91796875 53.3046875 -10.72265625 1.7265625 38.94140625 -3.84375 0.89453125 38.8359375 -3.796875 6.6640625 61.89453125 1.72265625 -5.3984375 60.05859375 0.36328125 -1.26171875 62.42578125 -4 -0.79296875 53.08984375 -12.91796875 -3.12109375 53.45703125 -13.09765625 -7.34375 50.96875 -10.10546875 -3.40234375 51.3515625 -10.2890625 -7.40625 -3.31640625 -5.08984375 4.3125 -3.33984375 -5.125 -5.97265625 -5.0234375 1.9296875 4.3125 -5.0390625 1.9140625 -5.8203125 7.34765625 -13.16015625 10.828125 3.54296875 -10.1328125 9.80078125 6.98046875 -11.0625 23.0703125 1.78125 -6.8125 20.203125 58.55859375 -4.61328125 -10.27734375 50.296875 -7.640625 -7.47265625 60.6796875 0.1015625 -9.6953125 50.453125 -6.8203125 6.5078125 50.515625 -6.8984375 1.7890625 14.01171875 -15.1953125 10.71875 14.0625 -15.15625 19.5390625 48.1328125 8.42578125 -10.6484375 48.78515625 9.86328125 -6.32421875 43.72265625 10.89453125 -10.8515625 44.53515625 11.65234375 -6.5078125 44.04296875 10.609375 -2.19921875 47.84765625 8.703125 -2.04296875 14.30859375 -12.30859375 -1.40234375 56.328125 6.16796875 -5.91015625 55.1484375 4.73828125 -10.1796875 54.83984375 4.9375 -1.734375 0.38671875 -9.12109375 9.56640625 0.3125 -3.265625 17.3984375 50.00390625 -7.484375 -3.5546875 57.84375 -5.515625 0.0078125 46.1953125 11.61328125 3.8671875 45.45703125 10.7890625 8.5859375 23.88671875 -12.203125 9.75390625 24.7421875 -9.94140625 14.3515625 22.40234375 -12.62109375 15.9375 45.83984375 10.66015625 -0.5625 40.78125 12.26171875 -0.875 40.61328125 14.18359375 3.7109375 40.1328125 12.6875 8.34375 61.7578125 -9.02734375 -1.1875 56.93359375 -2.953125 -1.296875 45.16015625 -4.64453125 6.28515625 45.39453125 -4.671875 1.69921875 63.65234375 -13.14453125 -1.55078125 64.4296875 -8.890625 -0.91796875 65.92578125 -13.87890625 -4.39453125 40.328125 12.1796875 -10.9296875 40.4609375 13.890625 -6.59375 40.828125 12.4453125 -2.5078125 64.17578125 -13.3984375 -7.578125 56.34765625 -15.33203125 6.79296875 56.38671875 -15.51171875 2.12890625 56.9296875 -12.69140625 -9.7578125 33.8828125 -10.546875 17.91796875 33.921875 -1.046875 19.109375 29.828125 -10.11328125 19.6953125 30.234375 -2.0859375 19.6953125 38.26171875 -2.5390625 28.35546875 36.2421875 -0.0859375 24.98828125 46.10546875 -3.03515625 24.296875 43.7890625 -0.84765625 21.71484375 32.9453125 -2.2578125 29.76953125 33.22265625 -8.91796875 30.44140625 28.05859375 -2.38671875 29.51953125 29.078125 -9.21484375 30.98828125 47.62890625 1.9609375 9.546875 43.609375 -2.890625 15.65234375 45.61328125 1.05078125 19.234375 47.4140625 -5.43359375 15.5703125 38.56640625 -13.14453125 26.0390625 46.53125 -11.70703125 23.06640625 36.35546875 -13.6171875 21.52734375 44.31640625 -11.47265625 18.4140625 47.6171875 -5.0078125 10.21875 43.8125 -2.4921875 10.09375 29.8125 -13.96875 27.82421875 33.18359375 -13.68359375 27.1484375 44.625 9.6875 10.13671875 39.2265625 11.140625 10.265625 38.18359375 12.48828125 15.18359375 37.578125 10.015625 19.06640625 37.51171875 -2.59765625 15.7734375 37.98046875 -1.890625 10.33984375 15.14453125 -10.30859375 28.6640625 15.45703125 -2.671875 28.03125 9.47265625 -0.41796875 25.6796875 16.9140625 -14.46875 25.99609375 53.60546875 -2.53125 8.47265625 45.890625 1.83984375 8.38671875 51.328125 -6.9140625 10.40234375 47.82421875 1.71484375 -1.69921875 47.2578125 -7.609375 25.37890625 38.6171875 -8.5625 29.390625 22.609375 0.30859375 21.34765625 21.6484375 1.40625 25.66015625 30.89453125 0.38671875 25.10546875 22.05078125 -9.609375 30.47265625 21.42578125 -2.359375 29.22265625 25.51171875 -10.50390625 18.8046875 24.0078125 -13.8203125 22.68359375 30.71484375 -13.2421875 22.62890625 23.6484375 -14.28515625 27.2265625 45.69921875 -6.32421875 -17.3828125 50.9609375 -2.953125 -19.6953125 42.61328125 -3.68359375 -17.6796875 44.75 2.515625 -20.00390625 45.37109375 -6.30078125 -13.2109375 42.35546875 -3.53125 -13.296875 46.0078125 3.28125 -11.35546875 48.76953125 -9.47265625 19.81640625 48.46484375 -3.3359375 20.703125 44.6015625 -9.83203125 16.921875 43.78125 -3.1015625 17.06640625 56.4140625 -11.859375 -0.1484375 38.29296875 -10.47265625 17.078125 38.0078125 -1.36328125 17.90234375 22.109375 -5.8046875 -21.42578125 14.3828125 -5.38671875 -21.5234375 23.796875 -9.86328125 -14.21875 14.625 -11.5 -13.7734375 70.7109375 -10.08203125 4.4375 68.79296875 -10.15625 0.49609375 25.453125 -6.6640625 -20.37109375 22.0546875 2.1796875 -22.3671875 27.359375 -0.12109375 -22.1171875 31.3671875 -4.7890625 -19.3984375 37.08203125 -2.46875 -18.0859375 30.59375 -4.50390625 19.08984375 30.2578125 3.06640625 20.765625 35.82421875 2.64453125 19.3359375 69.2265625 -15.3671875 4.70703125 67.00390625 -15.1171875 1.36328125 59.73828125 -14.8671875 -0.30859375 59.65234375 -14.48046875 9.18359375 29.5234375 8.91015625 19.71484375 68.76953125 -9.828125 8.37890625 49.21875 -7.28515625 -17.171875 21.44921875 15.11328125 -12.953125 21.94140625 12.12890625 -18.61328125 28.34765625 14.32421875 -14.39453125 28.75390625 11.6875 -19.3984375 25.20703125 -9.609375 -14.2890625 23.796875 -9.61328125 0.1875 38.3515625 11.08203125 -16.46875 38.55859375 10.35546875 -12.4140625 36.94140625 -2.33984375 -14.01953125 -3.37890625 7.796875 4.3125 -3.38671875 7.796875 -5.66796875 24.15625 -2.484375 21.21875 18.0234375 3.5703125 22.0859375 8.67578125 13.78515625 -12.41015625 20.95703125 14.99609375 10.5 8.84765625 12.20703125 11.3671875 66.9453125 -14.83203125 8.01171875 29.44140625 12.20703125 17.953125 20.95703125 12.75 15.78125 29.46484375 14.671875 11.3671875 36.328125 -4.65625 8.67578125 30.859375 -6.86328125 14.14453125 38.359375 5.1640625 8.33984375 30.23828125 13.26171875 9.41015625 30.69921875 14.76953125 -1.67578125 38.46875 8.65234375 8.87890625 35.14453125 -4.32421875 -1.95703125 -1.53125 -0.53125 13.91796875 -2.98828125 1.7890625 -11.078125 18.66796875 2.6953125 24.2421875 -2.98046875 1.7890625 9.75390625 0.40625 6.84375 12.97265625 6.84375 6.34765625 16.953125 24.4453125 -6.4453125 18.96875 31.1875 -5.98046875 -14.25390625 25.9609375 4.51953125 21.9296875 21.1015625 8.4375 19.55078125 64.22265625 -14.60546875 10.15625 22.1953125 4.73046875 21.78125 19.86328125 -14.41796875 9.8828125 13.77734375 5.953125 20 7.51171875 3.73828125 20.7421875 37.9453125 4.34375 -1.86328125 63.8984375 -18.0703125 6.91796875 63.9375 -18.25 2.6875 30.23046875 13.265625 -12.11328125 34.98828125 -4.03515625 -11.65625 37.8046875 2.6171875 -11.828125 38.21875 7.75 -1.859375 59.5546875 -15.07421875 12.41015625 63.90625 -14.8515625 15.13671875 59.26171875 -17.91796875 4.78515625 59.890625 -16.62890625 -6.71484375 59.83203125 -16.2890625 -3.01171875 55.43359375 -15.88671875 -4.92578125 38.0859375 6.53515625 -11.7265625 58.58984375 -13.66015625 -11.3828125 55.62109375 -14.55859375 -14.234375 59.05859375 -13.8984375 -15.75</float_array>
                    <technique_common>
                        <accessor count="327" source="#pointarray0" stride="3">
                            <param name="X" type="float"/>
                            <param name="Y" type="float"/>
                            <param name="Z" type="float"/>
                        </accessor>
                    </technique_common>
                </source>
                <source id="uvs0">
                    <float_array id="uvarray0" count="868">0.9393939971923828 0.3677840232849121 0.9393939971923828 0.366303026676178 0.9550880193710327 0.38348299264907837 0.9550889730453491 0.38200199604034424 0.6407899856567383 0.477150022983551 0.6407899856567383 0.48373401165008545 0.6550880074501038 0.4796820282936096 0.6550880074501038 0.48373401165008545 0.6264910101890564 0.48373401165008545 0.6264910101890564 0.4796820282936096 0.9496539831161499 0.47857600450515747 0.9496539831161499 0.47417497634887695 0.9648820161819458 0.47857600450515747 0.9648820161819458 0.4715350270271301 0.6805070042610168 0.48373401165008545 0.6948059797286987 0.48373401165008545 0.6805070042610168 0.4796820282936096 0.6948059797286987 0.477150022983551 0.7091040015220642 0.4796820282936096 0.7091040015220642 0.48373401165008545 0.6948059797286987 0.49031901359558105 0.6805070042610168 0.4877859950065613 0.7091040015220642 0.4877859950065613 0.8308780193328857 0.4680140018463135 0.815650999546051 0.4702150225639343 0.8308780193328857 0.46361398696899414 0.815650999546051 0.46361398696899414 0.8461059927940369 0.4680140018463135 0.8461059927940369 0.46361398696899414 0.8613340258598328 0.46361398696899414 0.8613340258598328 0.4702150225639343 0.9648820161819458 0.48209601640701294 0.9496539831161499 0.48913800716400146 0.93442702293396 0.47857600450515747 0.93442702293396 0.48913800716400146 0.9191989898681641 0.47857600450515747 0.9191989898681641 0.48209601640701294 0.6948059797286987 0.49319398403167725 0.6805070042610168 0.49319398403167725 0.7091040015220642 0.49319398403167725 0.8978800177574158 0.47857600450515747 0.8978800177574158 0.47417497634887695 0.9131079912185669 0.47857600450515747 0.9131079912185669 0.4715350270271301 0.8330399990081787 0.425229012966156 0.8358389735221863 0.437296986579895 0.8687949776649475 0.4250919818878174 0.8573150038719177 0.43731701374053955 0.6550880074501038 0.46752601861953735 0.6407899856567383 0.46752601861953735 0.6550880074501038 0.4715780019760132 0.6407899856567383 0.47411102056503296 0.6264910101890564 0.4715780019760132 0.6264910101890564 0.46752601861953735 0.6948059797286987 0.46094197034835815 0.6948059797286987 0.46752601861953735 0.7091040015220642 0.46347397565841675 0.7091040015220642 0.46752601861953735 0.9155160188674927 0.3662949800491333 0.9266030192375183 0.38199299573898315 0.8714410066604614 0.36556899547576904 0.8714330196380615 0.38197600841522217 0.524815022945404 0.46549999713897705 0.5391129851341248 0.46549999713897705 0.524815022945404 0.4614480137825012 0.5391129851341248 0.4589160084724426 0.5534110069274902 0.4614480137825012 0.5534110069274902 0.46549999713897705 0.6032260060310364 0.4068149924278259 0.5831350088119507 0.40671300888061523 0.6052780151367188 0.4435669779777527 0.5740119814872742 0.4400479793548584 0.6559590101242065 0.4403889775276184 0.6501039862632751 0.4070500135421753 0.6231549978256226 0.4436429738998413 0.6300129890441895 0.406948983669281 0.5176309943199158 0.43313902616500854 0.5129709839820862 0.44248902797698975 0.5221620202064514 0.44851797819137573 0.5150949954986572 0.4490079879760742 0.5391129851341248 0.47208499908447266 0.524815022945404 0.4695519804954529 0.5534110069274902 0.4695519804954529 0.6948059797286987 0.47411102056503296 0.6805070042610168 0.4715780019760132 0.6805070042610168 0.46752601861953735 0.7091040015220642 0.4715780019760132 0.8004230260848999 0.475055992603302 0.8004230260848999 0.4715350270271301 0.815650999546051 0.475055992603302 0.815650999546051 0.46889400482177734 0.5799210071563721 0.3599569797515869 0.5954020023345947 0.3827049732208252 0.6561710238456726 0.3594520092010498 0.6383609771728516 0.3829209804534912 0.524815022945404 0.4796820282936096 0.5391129851341248 0.4796820282936096 0.524815022945404 0.475629985332489 0.5391129851341248 0.473097026348114 0.5534110069274902 0.475629985332489 0.5534110069274902 0.4796820282936096 0.5391129851341248 0.48626601696014404 0.524815022945404 0.48373401165008545 0.5534110069274902 0.48373401165008545 0.815650999546051 0.47857600450515747 0.8004230260848999 0.4838569760322571 0.5534110069274902 0.48860299587249756 0.5391129851341248 0.48860299587249756 0.785194993019104 0.475055992603302 0.785194993019104 0.4838569760322571 0.7699679732322693 0.475055992603302 0.7699679732322693 0.47857600450515747 0.524815022945404 0.48860299587249756 0.5867739915847778 0.48829197883605957 0.5867739915847778 0.48170799016952515 0.5724760293960571 0.485759973526001 0.5724760293960571 0.48170799016952515 0.9072359800338745 0.44295400381088257 0.907817006111145 0.4371830224990845 0.8870059847831726 0.4435639977455139 0.886372983455658 0.43730199337005615 0.882652997970581 0.47417497634887695 0.882652997970581 0.47857600450515747 0.8574000000953674 0.44396501779556274 0.8370199799537659 0.44389599561691284 0.5867739915847778 0.4751240015029907 0.6010720133781433 0.4776560068130493 0.6010720133781433 0.48170799016952515 0.8461059927940369 0.4856169819831848 0.8308780193328857 0.4856169819831848 0.8461059927940369 0.47681599855422974 0.8308780193328857 0.47681599855422974 0.8445379734039307 0.35670799016952515 0.8929399847984314 0.3566640019416809 0.844539999961853 0.35263001918792725 0.8922240138053894 0.3526039719581604 0.8255559802055359 0.3816850185394287 0.8209919929504395 0.37308698892593384 0.7878209948539734 0.38263100385665894 0.7825790047645569 0.3749449849128723 0.815650999546051 0.47681599855422974 0.8308780193328857 0.4724149703979492 0.5724760293960571 0.4776560068130493 0.8978800177574158 0.46889400482177734 0.882652997970581 0.46889400482177734 0.8334770202636719 0.38019198179244995 0.8038970232009888 0.3875430226325989 0.5724760293960571 0.4665129780769348 0.5867739915847778 0.4665129780769348 0.5724760293960571 0.462460994720459 0.5867739915847778 0.4599289894104004 0.6010720133781433 0.462460994720459 0.6010720133781433 0.4665129780769348 0.871425986289978 0.3881160020828247 0.5867739915847778 0.473097026348114 0.5724760293960571 0.4705650210380554 0.6010720133781433 0.4705650210380554 0.819832980632782 0.36555302143096924 0.7948290109634399 0.3689489960670471 0.8461059927940369 0.4724149703979492 0.8613340258598328 0.47681599855422974 0.6407899856567383 0.46094197034835815 0.6550880074501038 0.46347397565841675 0.8357269763946533 0.4089009761810303 0.7972850203514099 0.42536598443984985 0.8075349926948547 0.4070240259170532 0.6264910101890564 0.46347397565841675 0.6264910101890564 0.45840901136398315 0.6407899856567383 0.45840901136398315 0.6550880074501038 0.45840901136398315 0.8674250245094299 0.47857600450515747 0.8674250245094299 0.4715350270271301 0.8978800177574158 0.46097302436828613 0.8978800177574158 0.464493989944458 0.882652997970581 0.46097302436828613 0.882652997970581 0.464493989944458 0.6010720133781433 0.4916419982910156 0.6010720133781433 0.485759973526001 0.5867739915847778 0.4916419982910156 0.5724760293960571 0.4573959708213806 0.5867739915847778 0.4573959708213806 0.6010720133781433 0.4573959708213806 0.8461059927940369 0.46009302139282227 0.8308780193328857 0.46009302139282227 0.5724760293960571 0.4916419982910156 0.8978800177574158 0.48913800716400146 0.882652997970581 0.48913800716400146 0.815650999546051 0.4803360104560852 0.6695550084114075 0.41247397661209106 0.6500329971313477 0.41247397661209106 0.6695550084114075 0.4060879945755005 0.6500329971313477 0.4060879945755005 0.7309079766273499 0.41247397661209106 0.743457019329071 0.41247397661209106 0.7309079766273499 0.4215959906578064 0.7408130168914795 0.4215959906578064 0.7309079766273499 0.4097369909286499 0.7155699729919434 0.4097369909286499 0.7309079766273499 0.4033510088920593 0.7155699729919434 0.4033510088920593 0.9131079912185669 0.464493989944458 0.9496539831161499 0.464493989944458 0.9648820161819458 0.464493989944458 0.9496539831161499 0.46889400482177734 0.7002310156822205 0.41247397661209106 0.7002310156822205 0.4215959906578064 0.6876819729804993 0.41247397661209106 0.6876819729804993 0.4215959906578064 0.93442702293396 0.46889400482177734 0.93442702293396 0.464493989944458 0.7002310156822205 0.4033510088920593 0.7002310156822205 0.4097369909286499 0.6805070042610168 0.46347397565841675 0.6805070042610168 0.45840901136398315 0.6948059797286987 0.45840901136398315 0.7091040015220642 0.45840901136398315 0.9496539831161499 0.46097302436828613 0.93442702293396 0.46097302436828613 0.7155699729919434 0.394228994846344 0.7155699729919434 0.3791769742965698 0.7309079766273499 0.39514100551605225 0.7309079766273499 0.38328200578689575 0.7002310156822205 0.39514100551605225 0.7002310156822205 0.38328200578689575 0.9191989898681641 0.4715350270271301 0.9191989898681641 0.464493989944458 0.93442702293396 0.47417497634887695 0.8674250245094299 0.464493989944458 0.7155699729919434 0.4215959906578064 0.7155699729919434 0.41247397661209106 0.6500329971313477 0.40061497688293457 0.6319059729576111 0.40061497688293457 0.6319059729576111 0.4060879945755005 0.7155699729919434 0.40061497688293457 0.7309079766273499 0.40061497688293457 0.6319059729576111 0.41247397661209106 0.6695550084114075 0.40061497688293457 0.6876819729804993 0.40061497688293457 0.6876819729804993 0.4060879945755005 0.7002310156822205 0.40061497688293457 0.785194993019104 0.46625399589538574 0.7699679732322693 0.46889400482177734 0.785194993019104 0.4627329707145691 0.7699679732322693 0.4627329707145691 0.8004230260848999 0.46625399589538574 0.8004230260848999 0.4627329707145691 0.815650999546051 0.4627329707145691 0.6779209971427917 0.42615699768066406 0.6416670083999634 0.42615699768066406 0.6695550084114075 0.4215959906578064 0.6500329971313477 0.4215959906578064 0.8613340258598328 0.4803360104560852 0.6695550084114075 0.417946994304657 0.6500329971313477 0.417946994304657 0.9655799865722656 0.4067729711532593 0.9660500288009644 0.3883259892463684 0.931693971157074 0.41079801321029663 0.929606020450592 0.38889098167419434 0.6407899856567383 0.49031901359558105 0.6264910101890564 0.4877859950065613 0.9643009901046753 0.42907601594924927 0.9700189828872681 0.4066479802131653 0.9688259959220886 0.4292449951171875 0.9645980000495911 0.4410160183906555 0.9627460241317749 0.436460018157959 0.9467809796333313 0.4425309896469116 0.9618669748306274 0.44557297229766846 0.7777130007743835 0.4362580180168152 0.767982006072998 0.4390559792518616 0.7880340218544006 0.4418179988861084 0.771291971206665 0.4447169899940491 0.6407899856567383 0.49319398403167725 0.6264910101890564 0.49319398403167725 0.8674250245094299 0.48209601640701294 0.9131079912185669 0.48209601640701294 0.7136849761009216 0.43551599979400635 0.7089110016822815 0.45292001962661743 0.7198230028152466 0.44679999351501465 0.7165539860725403 0.45358699560165405 0.6550880074501038 0.4877859950065613 0.785194993019104 0.4715350270271301 0.5576210021972656 0.4080290198326111 0.5317540168762207 0.4093160033226013 0.556164026260376 0.43644702434539795 0.5240110158920288 0.43390601873397827 0.9306269884109497 0.4248179793357849 0.8639199733734131 0.4107769727706909 0.524815022945404 0.4573959708213806 0.5391129851341248 0.4542980194091797 0.5534110069274902 0.4573959708213806 0.8004230260848999 0.4592130184173584 0.785194993019104 0.4592130184173584 0.8445379734039307 0.35655999183654785 0.8915039896965027 0.35655200481414795 0.6834989786148071 0.38328200578689575 0.6681600213050842 0.3860189914703369 0.56038498878479 0.382066011428833 0.6701939702033997 0.4071509838104248 0.6744170188903809 0.3831019997596741 0.6550880074501038 0.49319398403167725 0.7039399743080139 0.43701398372650146 0.6943179965019226 0.40727299451828003 0.6738399863243103 0.44050300121307373 0.8177610039710999 0.4403979778289795 0.7982569932937622 0.43907397985458374 0.8213440179824829 0.4474160075187683 0.808230996131897 0.44284701347351074 0.6757280230522156 0.4550439715385437 0.664900004863739 0.44045400619506836 0.6142169833183289 0.4436119794845581 0.6927340030670166 0.45448899269104004 0.6564030051231384 0.45759397745132446 0.6660829782485962 0.45456600189208984 0.6209200024604797 0.456866979598999 0.8740010261535645 0.44049400091171265 0.743457019329071 0.4063349962234497 0.8053230047225952 0.36305201053619385 0.550233006477356 0.3608279824256897 0.5968499779701233 0.3475779891014099 0.9169449806213379 0.35751497745513916 0.7309079766273499 0.42615699768066406 0.6319059729576111 0.4215959906578064 0.743457019329071 0.40061497688293457 0.7002310156822205 0.42615699768066406 0.6542159914970398 0.394228994846344 0.8189489841461182 0.3575029969215393 0.8038039803504944 0.36559098958969116 0.5294280052185059 0.3796190023422241 0.6999769806861877 0.3774759769439697 0.7782689929008484 0.4259840250015259 0.9421390295028687 0.43911802768707275 0.5146070122718811 0.4095500111579895 0.6918650269508362 0.38328200578689575 0.6819390058517456 0.35890400409698486 0.762499988079071 0.4275779724121094 0.7140300273895264 0.40810102224349976 0.9283360242843628 0.4935380220413208 0.6709750294685364 0.4877859950065613 0.7208870053291321 0.40850400924682617 0.7214040160179138 0.4307199716567993 0.850167989730835 0.39844799041748047 0.7850810289382935 0.3809570074081421 0.7741469740867615 0.38757097721099854 0.7692139744758606 0.3770869970321655 0.7650780081748962 0.3973590135574341 0.7166540026664734 0.3828880190849304 0.7632129788398743 0.4048740267753601 0.6424639821052551 0.3478339910507202 0.8674250245094299 0.4625539779663086 0.6550880074501038 0.4982590079307556 0.6646199822425842 0.4877859950065613 0.8765619993209839 0.4935380220413208 0.6169589757919312 0.4877859950065613 0.5665670037269592 0.4399399757385254 0.9293869733810425 0.44336998462677 0.9223020076751709 0.44054198265075684 0.9199730157852173 0.4469969868659973 0.5407940149307251 0.45138901472091675 0.5552170276641846 0.45303601026535034 0.5727750062942505 0.45636701583862305 0.607545018196106 0.4556419849395752 0.6136400103569031 0.45635998249053955 0.589684009552002 0.4590659737586975 0.8735730051994324 0.44771498441696167 0.6386989951133728 0.4602530002593994 0.5629439949989319 0.47411102056503296 0.5629439949989319 0.48170799016952515 0.6106039881706238 0.48170799016952515 0.5629439949989319 0.4665129780769348 0.6709750294685364 0.475629985332489 0.7186359763145447 0.48373401165008545 0.7186359763145447 0.475629985332489 0.7186359763145447 0.46752601861953735 0.9420409798622131 0.49177801609039307 0.9557459950447083 0.4935380220413208 0.6805070042610168 0.4982590079307556 0.7091040015220642 0.4982590079307556 0.7186359763145447 0.4877859950065613 0.7186359763145447 0.46549999713897705 0.6646199822425842 0.46752601861953735 0.9039710164070129 0.4935380220413208 0.8902660012245178 0.49177801609039307 0.6264910101890564 0.4982590079307556 0.6646199822425842 0.48373401165008545 0.6169589757919312 0.48373401165008545 0.6169589757919312 0.46752601861953735 0.6646199822425842 0.46549999713897705 0.5152829885482788 0.47259098291397095 0.5629439949989319 0.4796820282936096 0.5629439949989319 0.47259098291397095 0.5152829885482788 0.46549999713897705 0.6169589757919312 0.46549999713897705 0.6646199822425842 0.475629985332489 0.6169589757919312 0.475629985332489 0.8247870206832886 0.49177801609039307 0.6106039881706238 0.485759973526001 0.6010720133781433 0.49772000312805176 0.815650999546051 0.46185302734375 0.8384919762611389 0.49001801013946533 0.6106039881706238 0.47411102056503296 0.5629439949989319 0.4644870162010193 0.6106039881706238 0.4665129780769348 0.852196991443634 0.49177801609039307 0.5724760293960571 0.49772000312805176 0.5629439949989319 0.485759973526001 0.6106039881706238 0.4644870162010193 0.5645470023155212 0.4520050287246704 0.9131079912185669 0.46262097358703613 0.6709750294685364 0.46752601861953735 0.6709750294685364 0.46549999713897705 0.6709750294685364 0.48373401165008545 0.7859990000724792 0.4057270288467407 0.6137819886207581 0.46296799182891846 0.752236008644104 0.3837429881095886 0.7658720016479492 0.38319700956344604 0.5107830166816711 0.4332280158996582 0.5534110069274902 0.4946810007095337 0.7699679732322693 0.46097302436828613 0.792809009552002 0.48737698793411255 0.5152829885482788 0.4796820282936096 0.5629439949989319 0.48373401165008545 0.5152829885482788 0.46347397565841675 0.5629439949989319 0.46549999713897705 0.8065140247344971 0.48913800716400146 0.524815022945404 0.4946810007095337 0.5152829885482788 0.48373401165008545 0.7791039943695068 0.48913800716400146 0.815650999546051 0.46097302436828613 0.5629439949989319 0.46347397565841675 0.9648820161819458 0.4627060294151306 0.5629439949989319 0.459089994430542 0.6677979826927185 0.46161001920700073 0.9191989898681641 0.4626380205154419 0.8613340258598328 0.46185302734375</float_array>
                    <technique_common>
                        <accessor count="434" source="#uvarray0" stride="2">
                            <param name="S" type="float"/>
                            <param name="T" type="float"/>
                        </accessor>
                    </technique_common>
                </source>
                <vertices id="vertices0">
                    <input semantic="POSITION" source="#points0"/>
                </vertices>
                <polylist count="650" material="Material1">
                    <input offset="0" semantic="VERTEX" source="#vertices0"/>
                    <input offset="1" semantic="TEXCOORD" source="#uvs0" set="0"/>
                    <vcount>3 3 3 3 3 3 3 3 3 3 3 3 3 3 3 3 3 3 3 3 3 3 3 3 3 3 3 3 3 3 3 3 3 3 3 3 3 3 3 3 3 3 3 3 3 3 3 3 3 3 3 3 3 3 3 3 3 3 3 3 3 3 3 3 3 3 3 3 3 3 3 3 3 3 3 3 3 3 3 3 3 3 3 3 3 3 3 3 3 3 3 3 3 3 3 3 3 3 3 3 3 3 3 3 3 3 3 3 3 3 3 3 3 3 3 3 3 3 3 3 3 3 3 3 3 3 3 3 3 3 3 3 3 3 3 3 3 3 3 3 3 3 3 3 3 3 3 3 3 3 3 3 3 3 3 3 3 3 3 3 3 3 3 3 3 3 3 3 3 3 3 3 3 3 3 3 3 3 3 3 3 3 3 3 3 3 3 3 3 3 3 3 3 3 3 3 3 3 3 3 3 3 3 3 3 3 3 3 3 3 3 3 3 3 3 3 3 3 3 3 3 3 3 3 3 3 3 3 3 3 3 3 3 3 3 3 3 3 3 3 3 3 3 3 3 3 3 3 3 3 3 3 3 3 3 3 3 3 3 3 3 3 3 3 3 3 3 3 3 3 3 3 3 3 3 3 3 3 3 3 3 3 3 3 3 3 3 3 3 3 3 3 3 3 3 3 3 3 3 3 3 3 3 3 3 3 3 3 3 3 3 3 3 3 3 3 3 3 3 3 3 3 3 3 3 3 3 3 3 3 3 3 3 3 3 3 3 3 3 3 3 3 3 3 3 3 3 3 3 3 3 3 3 3 3 3 3 3 3 3 3 3 3 3 3 3 3 3 3 3 3 3 3 3 3 3 3 3 3 3 3 3 3 3 3 3 3 3 3 3 3 3 3 3 3 3 3 3 3 3 3 3 3 3 3 3 3 3 3 3 3 3 3 3 3 3 3 3 3 3 3 3 3 3 3 3 3 3 3 3 3 3 3 3 3 3 3 3 3 3 3 3 3 3 3 3 3 3 3 3 3 3 3 3 3 3 3 3 3 3 3 3 3 3 3 3 3 3 3 3 3 3 3 3 3 3 3 3 3 3 3 3 3 3 3 3 3 3 3 3 3 3 3 3 3 3 3 3 3 3 3 3 3 3 3 3 3 3 3 3 3 3 3 3 3 3 3 3 3 3 3 3 3 3 3 3 3 3 3 3 3 3 3 3 3 3 3 3 3 3 3 3 3 3 3 3 3 3 3 3 3 3 3 3 3 3 3 3 3 3 3 3 3 3 3 3 3 3 3 3 3 3 3 3 3 3 3 3 3 3 3 3 3 3 3 3 3 3 3 3 3 3 3 3 3 3 3 3 3 3 3 3 3 3 3 3 3 3 3 3 3 3 3 3 3 3 3 3 3 3 3 3 3 3 3 3 3 3 3 3 3 3 3 3 3 3 3 3 3 3 3 3 3 3 3 3 3 3 3 3</vcount>
                    <p>2 2 1 1 0 0 3 3 1 1 2 2 6 6 5 5 4 4 7 7 5 5 6 6 9 9 5 5 8 8 4 4 5 5 9 9 12 12 11 11 10 10 13 13 11 11 12 12 16 16 15 15 14 14 17 17 15 15 16 16 18 18 15 15 17 17 19 19 15 15 18 18 21 21 15 15 20 20 14 14 15 15 21 21 22 22 15 15 19 19 20 20 15 15 22 22 25 25 24 24 23 23 26 26 24 24 25 25 28 28 23 23 27 27 25 25 23 23 28 28 27 27 29 29 28 28 30 30 29 29 27 27 12 12 32 32 31 31 10 10 32 32 12 12 35 35 34 34 33 33 36 36 34 34 35 35 37 37 21 21 20 20 38 38 21 21 37 37 37 37 22 22 39 39 20 20 22 22 37 37 42 42 41 41 40 40 43 43 41 41 42 42 46 46 45 45 44 44 47 47 45 45 46 46 50 50 49 49 48 48 51 51 49 49 50 50 52 52 49 49 51 51 53 53 49 49 52 52 56 56 55 55 54 54 57 57 55 55 56 56 1 1 59 59 58 58 3 3 59 59 1 1 58 58 61 61 60 60 59 59 61 61 58 58 64 64 63 63 62 62 65 65 63 63 64 64 66 66 63 63 65 65 67 67 63 63 66 66 70 70 69 69 68 68 71 71 69 69 70 70 74 74 73 73 72 72 75 75 73 73 74 74 78 78 77 77 76 76 79 79 77 77 78 78 81 81 63 63 80 80 62 62 63 63 81 81 82 82 63 63 67 67 80 80 63 63 82 82 84 84 55 55 83 83 85 85 55 55 84 84 86 86 55 55 57 57 83 83 55 55 86 86 89 89 88 88 87 87 90 90 88 88 89 89 93 93 92 92 91 91 94 94 92 92 93 93 97 97 96 96 95 95 98 98 96 96 97 97 99 99 96 96 98 98 100 100 96 96 99 99 102 102 96 96 101 101 95 95 96 96 102 102 103 103 96 96 100 100 101 101 96 96 103 103 89 89 105 105 104 104 87 87 105 105 89 89 107 107 103 103 106 106 101 101 103 103 107 107 110 110 109 109 108 108 111 111 109 109 110 110 107 107 102 102 101 101 112 112 102 102 107 107 115 115 114 114 113 113 116 116 114 114 115 115 119 119 118 118 117 117 120 120 118 118 119 119 121 121 40 40 41 41 122 122 40 40 121 121 124 124 47 47 123 123 45 45 47 47 124 124 126 126 114 114 125 125 127 127 114 114 126 126 130 130 129 129 128 128 131 131 129 129 130 130 134 134 133 133 132 132 135 135 133 133 134 134 51 51 6 6 4 4 50 50 6 6 51 51 52 52 4 4 9 9 51 51 4 4 52 52 138 138 137 137 136 136 139 139 137 137 138 138 141 141 140 140 131 131 24 24 140 140 141 141 142 142 114 114 116 116 125 125 114 114 142 142 143 143 121 121 41 41 144 144 121 121 143 143 146 146 136 136 145 145 138 138 136 136 146 146 149 149 148 148 147 147 150 150 148 148 149 149 151 151 148 148 150 150 152 152 148 148 151 151 136 136 153 153 145 145 61 61 153 153 136 136 155 155 148 148 154 154 147 147 148 148 155 155 156 156 148 148 152 152 154 154 148 148 156 156 137 137 158 158 157 157 139 139 158 158 137 137 160 160 159 159 130 130 30 30 159 159 160 160 162 162 49 49 161 161 48 48 49 49 162 162 164 164 163 163 44 44 165 165 163 163 164 164 166 166 49 49 53 53 161 161 49 49 166 166 167 167 161 161 166 166 168 168 161 161 167 167 168 168 162 162 161 161 169 169 162 162 168 168 121 121 170 170 122 122 171 171 170 170 121 121 123 174 172 173 124 172 173 175 172 173 123 174 176 178 175 177 174 176 113 113 175 177 176 178 177 179 150 150 149 149 178 180 150 150 177 179 178 180 151 151 150 150 179 181 151 151 178 180 117 183 28 28 119 182 25 25 28 28 117 183 176 178 115 115 113 113 180 184 115 115 176 178 40 40 182 186 181 185 122 122 182 186 40 40 27 27 141 141 159 159 23 23 141 141 27 27 140 140 129 129 131 131 183 187 129 129 140 140 155 155 125 125 142 142 154 154 125 125 155 155 154 154 126 126 125 125 156 156 126 126 154 154 141 141 130 130 159 159 131 131 130 130 141 141 175 177 114 114 127 127 113 113 114 114 175 177 94 94 68 68 92 92 75 75 68 68 94 94 186 190 185 189 184 188 187 191 185 189 186 190 190 194 189 193 188 192 191 195 189 193 190 194 194 198 193 197 192 196 195 199 193 197 194 198 143 143 196 200 172 173 43 43 196 200 143 143 199 203 198 202 197 201 13 13 198 202 199 203 202 206 201 205 200 204 203 207 201 205 202 206 197 201 204 208 199 203 205 209 204 208 197 201 206 210 193 197 195 199 207 211 193 197 206 210 209 213 54 54 208 212 210 214 54 54 209 213 210 214 56 56 54 54 211 215 56 56 210 214 213 217 197 201 212 216 205 209 197 201 213 217 215 220 138 219 214 218 216 221 138 219 215 220 214 218 146 223 217 222 138 219 146 223 214 218 205 209 218 224 204 208 219 225 218 224 205 209 172 173 144 144 143 143 173 175 144 144 172 173 199 203 220 226 11 11 204 208 220 226 199 203 173 175 171 171 144 144 221 227 171 171 173 175 84 84 17 17 16 16 83 83 17 17 84 84 83 83 18 18 17 17 86 86 18 18 83 83 188 192 222 228 190 194 223 229 222 228 188 192 192 196 223 229 188 192 193 197 223 229 192 196 225 231 187 191 224 230 226 232 187 191 225 231 194 198 227 233 195 199 228 234 227 233 194 198 215 220 227 233 228 234 214 218 227 233 215 220 187 191 189 235 185 189 226 232 189 235 187 191 223 229 201 205 222 228 200 204 201 205 223 229 207 211 223 229 193 197 200 204 223 229 207 211 186 190 230 237 229 236 231 238 230 237 186 190 206 210 227 233 232 239 195 199 227 233 206 210 214 218 232 239 227 233 217 222 232 239 214 218 235 242 234 241 233 240 236 243 234 241 235 242 202 206 186 190 184 188 231 238 186 190 202 206 238 245 233 240 237 244 235 242 233 240 238 245 237 244 239 246 238 245 90 90 239 246 237 244 242 249 241 248 240 247 243 250 241 248 242 249 160 160 128 128 244 251 130 130 128 128 160 160 245 252 243 250 242 249 246 253 243 250 245 252 184 188 246 253 245 252 185 189 246 253 184 188 229 236 187 191 186 190 224 230 187 191 229 236 10 10 34 34 32 32 33 33 34 34 10 10 249 256 248 255 247 254 250 257 248 255 249 256 252 259 5 5 251 258 8 8 5 5 252 259 254 261 253 260 247 254 255 262 253 260 254 261 256 264 255 262 77 263 253 260 255 262 256 264 77 263 257 265 256 264 79 266 257 265 77 263 212 269 259 268 258 267 260 270 259 268 212 269 261 271 252 259 251 258 262 272 252 259 261 271 170 170 182 186 122 122 263 273 182 186 170 170 87 87 109 109 105 105 108 108 109 109 87 87 42 42 181 185 264 274 40 40 181 185 42 42 259 277 211 276 265 275 260 278 211 276 259 277 220 226 35 35 33 33 218 224 35 35 220 226 266 279 5 5 7 7 251 258 5 5 266 279 267 280 110 110 108 108 234 241 110 110 267 280 270 283 269 282 268 281 271 284 269 282 270 283 247 254 272 285 249 256 253 260 272 285 247 254 249 256 46 46 273 286 272 285 46 46 249 256 163 163 46 46 44 44 273 286 46 46 163 163 78 287 65 65 64 64 274 288 65 65 78 287 208 212 55 55 85 85 54 54 55 55 208 212 274 288 66 66 65 65 275 289 66 66 274 288 257 291 238 245 276 290 235 242 238 245 257 291 220 226 10 10 11 11 33 33 10 10 220 226 59 59 153 153 61 61 250 257 153 153 59 59 237 244 267 280 88 88 233 240 267 280 237 244 277 292 135 135 134 134 278 293 135 135 277 292 280 295 229 236 279 294 224 230 229 236 280 295 81 81 98 98 97 97 80 80 98 98 81 81 80 80 99 99 98 98 82 82 99 99 80 80 272 285 120 120 46 46 118 118 120 120 272 285 267 280 87 87 88 88 108 108 87 87 267 280 69 69 281 296 92 92 268 281 281 296 69 69 73 73 283 298 282 297 94 94 283 298 73 73 261 271 266 279 284 299 251 258 266 279 261 271 287 302 286 301 285 300 282 297 286 301 287 302 3 3 250 257 59 59 248 255 250 257 3 3 124 124 288 303 45 45 45 45 288 303 289 304 290 305 288 303 124 124 288 303 213 306 289 304 291 308 287 302 209 307 282 297 291 308 73 73 292 309 70 70 68 68 285 300 211 276 210 310 282 297 283 298 286 301 94 94 73 73 75 75 281 296 268 281 269 282 293 312 169 311 291 308 292 309 74 74 167 313 294 314 123 123 47 47 213 306 288 303 290 305 287 302 210 310 209 307 245 252 203 207 202 206 245 252 202 206 184 188 189 235 246 253 185 189 230 237 231 238 206 210 207 211 206 210 231 238 192 196 226 315 194 198 132 132 157 157 295 316 278 318 91 91 0 317 296 319 1 1 133 133 254 261 247 254 248 255 0 0 1 1 296 319 241 320 190 194 222 228 200 204 207 211 202 206 242 249 240 247 203 207 206 210 232 239 230 237 202 206 207 211 231 238 188 192 189 193 192 196 243 250 191 321 241 248 194 198 225 322 228 234 194 198 226 315 225 322 192 196 189 193 226 315 241 320 222 228 240 323 224 230 280 295 297 324 201 205 240 323 222 228 245 252 242 249 203 207 230 237 232 239 217 222 241 320 191 195 190 194 191 321 243 250 246 253 132 132 295 316 298 325 296 319 133 133 135 135 277 292 298 325 299 326 157 157 60 60 137 137 281 296 2 327 0 317 300 328 286 301 283 298 165 165 164 164 301 329 258 267 301 329 164 164 118 118 272 285 302 330 269 282 254 331 2 327 271 284 76 76 269 282 253 260 256 264 302 330 297 324 225 231 224 230 297 324 215 220 225 231 230 237 217 222 146 223 165 332 229 236 230 237 165 332 279 294 229 236 283 298 93 93 299 333 2 327 281 296 269 282 76 76 271 284 78 78 303 334 258 267 259 268 265 275 286 301 304 335 215 220 228 234 225 322 146 223 165 332 230 237 201 205 203 207 240 323 297 324 216 221 215 220 191 321 246 253 189 235 34 34 36 36 305 336 38 38 36 337 21 21 303 339 304 335 306 338 303 334 301 329 258 267 307 340 163 163 165 165 45 45 164 164 44 44 145 145 307 340 146 146 153 153 273 286 307 340 309 343 308 342 300 341 280 344 308 342 309 343 304 335 308 345 306 338 265 275 304 335 303 339 304 335 300 328 308 345 306 346 308 342 280 344 91 91 278 318 93 93 277 347 299 333 93 93 1 1 58 58 133 133 221 227 123 174 310 348 284 299 311 349 261 271 196 200 124 172 172 173 43 43 143 143 41 41 121 121 144 144 171 171 284 299 264 350 311 349 182 186 263 273 312 351 262 272 263 352 252 259 270 283 268 281 313 353 287 302 285 300 210 310 315 356 314 355 276 354 117 117 314 355 315 356 302 330 276 354 314 355 256 264 257 265 302 330 270 283 274 357 271 284 274 357 270 283 275 358 71 71 177 359 313 353 316 361 179 360 292 309 177 359 71 71 178 362 314 355 117 117 118 118 314 355 118 118 302 330 120 120 119 119 294 314 123 123 294 314 310 363 120 120 294 314 47 47 74 74 168 364 167 313 169 311 168 364 72 72 142 142 140 366 24 365 160 367 127 127 126 126 155 155 24 365 26 368 300 341 299 326 295 316 16 16 218 369 84 84 18 18 13 371 12 370 198 372 13 371 86 86 34 34 305 336 317 373 32 32 318 374 31 31 36 337 38 38 305 375 39 39 31 377 318 376 260 378 56 56 211 215 196 379 50 50 48 48 181 185 319 381 311 380 311 349 312 382 261 271 42 383 266 279 7 7 252 259 263 352 170 384 8 8 170 384 9 9 53 53 221 385 166 166 312 351 311 380 319 381 290 386 162 162 169 169 312 382 262 272 261 271 97 97 234 387 81 81 99 99 90 389 89 388 81 81 236 390 62 62 196 379 48 48 162 162 166 166 221 385 310 391 52 52 221 385 53 53 6 6 43 392 42 383 52 52 171 393 221 385 42 383 7 7 6 6 9 9 170 384 171 393 264 350 266 279 42 383 252 259 170 384 8 8 181 185 182 186 319 381 129 129 183 187 320 394 174 176 175 177 244 395 141 141 23 23 24 24 30 30 27 27 159 159 28 28 29 29 119 182 174 176 321 396 176 178 26 26 117 183 315 397 128 128 129 129 322 398 115 115 140 366 116 116 244 395 175 177 160 367 30 399 126 126 156 156 155 155 26 368 147 147 149 149 26 368 315 400 29 401 152 152 151 151 128 128 322 398 321 402 321 396 320 403 176 178 29 401 156 156 152 152 160 367 175 177 127 127 115 115 183 404 140 366 116 116 140 366 142 142 147 147 26 368 149 149 320 394 321 402 322 398 320 403 180 184 176 178 310 405 151 151 179 181 174 176 244 395 321 396 183 404 180 184 320 403 128 128 321 402 244 251 129 129 320 394 322 398 29 401 30 399 156 156 126 126 30 399 160 367 284 299 266 279 264 350 0 0 296 319 278 293 295 316 299 326 298 325 292 309 167 313 316 361 313 353 177 359 323 406 209 307 293 312 291 308 292 309 179 360 70 70 75 75 292 309 68 68 69 69 313 353 268 281 270 283 313 353 275 358 291 308 169 311 72 72 212 269 289 304 213 306 119 119 310 363 294 314 323 406 275 358 313 353 69 69 92 92 68 68 69 69 71 71 313 353 75 75 74 74 292 309 282 297 287 302 291 308 302 330 257 265 276 354 258 267 289 304 212 269 72 72 73 73 291 308 263 352 262 272 312 382 181 185 311 380 264 274 182 186 312 351 319 381 196 379 43 392 50 50 43 392 6 6 50 50 9 9 171 393 52 52 173 175 123 174 221 227 196 200 290 407 124 172 196 379 162 162 290 386 167 167 166 166 310 391 180 184 183 404 115 115 300 328 283 298 299 333 283 298 94 94 93 93 281 296 91 91 92 92 281 296 0 317 91 91 250 257 249 256 153 153 278 318 277 347 93 93 84 84 218 369 219 408 13 371 18 18 86 86 84 84 219 408 85 85 208 212 219 408 290 409 198 372 57 57 56 56 32 32 317 373 318 374 318 376 305 375 37 37 198 372 56 56 260 378 198 372 86 86 57 57 12 370 22 22 19 19 21 21 36 337 35 410 14 14 35 410 16 16 85 85 219 408 208 212 305 336 318 374 317 373 305 375 38 38 37 37 133 133 58 58 60 60 60 60 157 157 132 132 60 60 132 132 133 133 134 134 298 325 277 292 278 293 296 319 135 135 132 132 298 325 134 134 301 329 303 334 279 411 279 411 303 334 306 346 316 361 167 313 310 412 178 362 71 71 70 70 179 360 178 362 70 70 72 72 168 364 74 74 306 346 280 344 279 411 309 343 297 413 280 344 309 343 139 139 216 414 138 138 216 414 139 139 309 343 158 158 139 139 309 343 216 414 297 413 137 137 61 61 136 136 307 340 273 286 163 163 165 165 301 329 279 411 146 146 307 340 165 165 145 145 153 153 307 340 295 316 157 157 158 158 249 256 273 286 153 153 258 267 164 164 289 304 253 260 302 330 272 285 285 300 286 301 265 275 265 275 303 339 259 277 254 331 76 76 255 415 248 255 3 3 2 2 254 261 248 255 2 2 286 301 300 328 304 335 158 158 300 341 295 316 309 343 300 341 158 158 254 331 269 282 76 76 255 415 76 76 77 77 265 275 211 276 285 300 78 78 271 284 274 357 61 61 137 137 60 60 106 106 324 416 107 107 236 243 257 291 79 417 105 105 109 109 325 418 102 102 110 419 95 95 104 420 103 103 89 388 97 97 110 419 234 387 89 388 100 100 99 99 64 64 236 390 79 421 239 422 67 67 66 66 105 105 325 418 324 423 324 416 326 424 107 107 239 422 82 82 67 67 89 388 103 103 100 100 102 102 111 425 110 419 95 95 110 419 97 97 62 62 236 390 64 64 326 426 324 423 325 418 326 424 112 112 107 107 106 106 104 420 324 416 111 425 112 112 326 424 105 105 324 423 104 104 109 109 326 426 325 418 239 422 90 389 82 82 90 389 99 99 82 82 81 81 234 387 236 390 235 242 257 291 236 243 276 290 239 246 315 427 239 422 66 66 315 428 209 213 208 212 290 409 198 202 260 429 212 216 205 209 213 217 219 225 315 430 275 358 323 406 315 430 323 406 177 359 179 360 316 361 310 412 293 312 209 307 290 431 293 312 290 431 169 311 289 304 164 164 45 45 46 46 120 120 47 47 39 39 22 22 31 377 220 226 204 208 218 224 13 13 199 203 11 11 198 202 212 216 197 201 39 39 318 376 37 37 219 225 213 217 290 432 32 32 34 34 317 373 21 21 35 410 14 14 31 377 22 22 12 370 16 16 35 410 218 369 12 370 19 19 18 18 78 287 64 64 79 421 142 142 24 365 155 155 25 25 117 183 26 26 119 182 29 29 310 433 29 401 151 151 310 405 177 179 149 149 315 400 112 112 111 425 102 102 109 109 111 111 326 426 106 106 103 103 104 420 267 280 233 240 234 241 90 90 237 244 88 88 238 245 239 246 276 290 315 428 66 66 275 289</p>
                </polylist>
            </mesh>
        </geometry>
    </library_geometries>
    <library_visual_scenes>
        <visual_scene id="VisualSceneNode">
            <node id="node0" name="m0" type="NODE">
                <instance_geometry url="#mesh0">
                    <bind_material>
                        <technique_common>
                            <instance_material symbol="Material1" target="#mat0">
                                <bind_vertex_input semantic="UVSET0" input_semantic="TEXCOORD" input_set="0"></bind_vertex_input>
                            </instance_material>
                        </technique_common>
                    </bind_material>
                </instance_geometry>
            </node>
        </visual_scene>
    </library_visual_scenes>
    <scene>
        <instance_visual_scene url="#VisualSceneNode"></instance_visual_scene>
    </scene>
</COLLADA>
