<?xml version="1.0"?>
<COLLADA xmlns="http://www.collada.org/2005/11/COLLADASchema" version="1.4.1">
    <asset>
        <contributor>
            <authoring_tool>J3D Ripoff Exporter</authoring_tool>
        </contributor>
        <created>2024-08-02T13:58:05.711Z</created>
        <modified>2024-08-02T13:58:05.711Z</modified>
		<unit meter="0.01" name="centimeter" ></unit>
        <up_axis>Y_UP</up_axis>
    </asset>
    <library_images>
        <image id="tex0">
            <init_from>donkey_all.png</init_from>
        </image>
    </library_images>
    <library_effects>
        <effect id="effect0">
            <profile_COMMON>
                <newparam sid="surface0">
                    <surface type="2D">
                        <init_from>tex0</init_from>
                    </surface>
                </newparam>
                <newparam sid="sampler0">
                    <sampler2D>
                        <source>surface0</source>
                    </sampler2D>
                </newparam>
                <technique sid="COMMON">
                    <blinn>
                        <diffuse>
                            <texture texture="sampler0" texcoord="UVSET0"></texture>
                        </diffuse>
                    </blinn>
                </technique>
            </profile_COMMON>
        </effect>
    </library_effects>
    <library_materials>
        <material id="mat0" name="donkey_All">
            <instance_effect url="#effect0"></instance_effect>
        </material>
    </library_materials>
    <library_geometries>
        <geometry id="mesh0">
            <mesh>
                <source id="points0">
                    <float_array id="pointarray0" count="978">1.30859375 5.8515625 -15.8515625 0.6875 -2.3203125 -15.8515625 7.87890625 6.15625 -19.19140625 7.2578125 -4.9921875 -19.19140625 47.75390625 6.77734375 20.51953125 49.359375 9.1484375 15.94921875 52.91015625 3.80078125 20.8515625 54.87890625 6.1640625 16.66015625 45.39453125 -14.78515625 6.19140625 46.07421875 -11.28125 5.91796875 51.2265625 -13.09375 9.3671875 48.83984375 -6.76953125 9.65234375 53.5390625 -11.25390625 16.96875 50.80078125 -6.6328125 17.23828125 58.5 -7.37890625 20.63671875 52.49609375 -1.91796875 21.078125 63.2265625 -2.09375 12.30078125 63.99609375 -0.609375 16.96484375 59.76953125 1.28515625 12.19921875 60.2578125 2.5859375 17.0078125 58.1015625 0.6796875 21.08984375 62.0390625 -2.61328125 20.96875 68.78515625 -6.5 16.87109375 67.25 -6.375 12.34375 39.86328125 -6.94140625 -7.9921875 48.3046875 -7.390625 -11.22265625 40.625 -5.08984375 -8.0078125 42.328125 -1.46484375 -11.51953125 39.97265625 -6.84375 -3.71875 40.75390625 -4.984375 -3.77734375 46.32421875 -2.71875 -0.27734375 48.421875 -7.15234375 -0.0703125 66.10546875 -7.21484375 20.5703125 61.31640625 -12.85546875 20.18359375 58.21875 -14.99609375 17.25 54.203125 -10.81640625 12.79296875 58.8828125 -14.5546875 13.078125 61.4140625 -5.953125 10.7109375 62.7421875 -11.9140625 11.2421875 69.66796875 -10.67578125 16.37109375 68.37890625 -10.45703125 12.953125 67.32421875 -11.15234375 19.5546875 25.328125 -9.30859375 0.60546875 29.9140625 -7.203125 -4.41015625 25.55078125 -10.08203125 -14.46484375 30.0234375 -6.57421875 -8.96875 52.9765625 2.71484375 8.48828125 54.859375 3.85546875 3.97265625 56.65234375 -1.76953125 8.59375 58.140625 -0.72265625 4.1953125 56.00390625 -1.84765625 -0.48046875 53.1875 2.58984375 -0.58203125 49.11328125 9.3515625 3.859375 47.64453125 8.07421875 8.578125 49.171875 7.1015625 11.17578125 44.3671875 9.16015625 10.65625 44.109375 10.7265625 15.41796875 0.6875 -9.12109375 -10.7734375 7.2578125 -11.109375 -12.0390625 0.38671875 -10.2890625 -1.40234375 7.2578125 -10.58203125 -1.40234375 47.1484375 1.609375 -20.125 48.80859375 3.28515625 -16.00390625 44.625 4.75390625 -20.36328125 45.48828125 7.25390625 -16.0625 44.421875 6.65625 -12.32421875 46.82421875 2.98046875 -12.25390625 20.95703125 16.6796875 -4.15625 20.95703125 16.15234375 -8.5546875 34.4765625 15.47265625 -3.6328125 33.3046875 14.70703125 -10.48046875 33.27734375 14.7265625 7.453125 20.95703125 16.15234375 6.1015625 34.46875 15.47265625 0.27734375 20.95703125 16.6796875 1.703125 30.51171875 8.11328125 -20.9921875 30.23046875 2.01171875 -21.21875 36.5625 7.87109375 -20.22265625 37.13671875 2.83984375 -20.5625 49.8203125 -1.6796875 -16 48.109375 -2.59375 -19.8984375 47.9765625 -1.85546875 -12.0703125 42.28515625 8.80859375 19.859375 54.4921875 5.02734375 11.828125 36.09765625 -2.16015625 -13.93359375 38.6484375 -3.12109375 -13.58203125 40.58203125 -6.078125 -10.453125 45.8671875 -0.21875 -11.28125 0.953125 11.44921875 -9.35546875 8.84765625 14.87890625 -5.9296875 0.640625 11.47265625 7.33203125 8.84765625 14.87890625 3.47265625 42.796875 -10.46484375 -18.81640625 43.5390625 -11.32421875 -14.69140625 46.14453125 -8.15234375 -18.91015625 47.57421875 -8.2578125 -15.02734375 46.54296875 -7.46875 -11.21484375 43.09765625 -10.140625 -11.37109375 36.875 -12.0703125 -14.609375 37.8359375 -11.015625 -18.484375 37.44921875 -10.3984375 -11.90234375 32.33984375 -4.71875 -11.39453125 31.859375 -2.10546875 -14.3125 31.65625 -8.7890625 -12.5 30.96484375 -10.46875 -14.98828125 36.23046875 -2.41015625 -18.03125 32.1171875 -2.46484375 -17.9140625 40.16015625 -6.84375 -19.77734375 33.29296875 -5.0078125 -19.6875 32.0390625 -9.328125 -17.90234375 46.03125 -11.390625 1.91796875 45.5546875 -14.78515625 1.95703125 34.73046875 -3.39453125 -8.30078125 35.0078125 -3.39453125 -4.1484375 55.34375 -10.82421875 -5.7421875 52.75 -14.85546875 -5.78515625 53.20703125 -9.8984375 -1.88671875 50.90625 -13.515625 -1.515625 34.86328125 -2.140625 0.89453125 30.15625 -8.41015625 0.9140625 34.84375 -2.046875 6.66015625 30.19140625 -8.515625 6.80078125 60.55078125 -6.51171875 4.09765625 58.4453125 -7.36328125 8.359375 33.94140625 -11.83984375 -3.23046875 33.6796875 -11.8203125 -7.61328125 37.00390625 -9.4375 -3.40234375 36.82421875 -9.50390625 -7.63671875 58.0703125 -7.5078125 -0.5390625 -3.31640625 -5.08984375 4.3125 -3.33984375 -5.125 -5.97265625 -5.0234375 1.9296875 4.3125 -5.0390625 1.9140625 -5.8203125 50.55859375 -13.61328125 -9.98046875 53.05078125 -10.078125 -9.84765625 7.34765625 -15.81640625 8.34765625 3.54296875 -12.7890625 9.31640625 9.2890625 -16.47265625 16.37109375 4.32421875 -8.59375 17.55078125 46.51171875 -11.65234375 -10.8359375 40.71484375 -8.765625 -7.796875 42.83984375 -8.27734375 6.1875 42.80078125 -8.39453125 2.02734375 0.38671875 -9.12109375 9.56640625 1.8125 -5.53515625 15.28125 14.13671875 -16.6171875 6.66015625 18.91015625 -16.1171875 12.828125 52.04296875 2.9140625 -10.65234375 54.02734375 3.66015625 -6.23046875 47.46484375 7.66796875 -10.8125 49.1171875 8.66796875 -6.36328125 47.5546875 7.8359375 -1.93359375 52.34375 3.4921875 -2.04296875 14.30859375 -12.30859375 -1.40234375 56.21875 -3.1640625 -6.05859375 53.984375 -3.515625 -10.12109375 54.1328125 -3.33984375 -2.1640625 40.8203125 -8.67578125 -3.67578125 45.05078125 -10.63671875 -0.28125 40.70703125 -4.3125 6.11328125 40.8046875 -4.37109375 1.875 47.7734375 7.98828125 -0.57421875 25.390625 -11.07421875 6.75 23.88671875 -11.38671875 6.1796875 24.7421875 -9.94140625 14.3515625 22.234375 -10.2578125 12.17578125 37.95703125 12.1484375 -0.9765625 40.8046875 13.2265625 3.61328125 52.1015625 -12.875 -1.19921875 50.375 -6.53125 -1.2578125 37.8671875 12.23828125 8.30078125 40.25 -18.49609375 -2.42578125 46.7578125 -16.83203125 -1.875 41.21484375 -19.12890625 -5.23046875 47.55859375 -18.06640625 -5.48046875 46.47265625 -16.89453125 -9.32421875 40.421875 -17.515625 -8.265625 37.98828125 11.55859375 -10.89453125 39.890625 12.8203125 -6.59375 38.21875 11.4375 -2.0078125 46.77734375 -19.97265625 6.0859375 46.90234375 -19.94921875 1.8515625 36.38671875 -14.046875 -10.19140625 37.2578125 -13.4453125 -0.48046875 36.9765625 -18.06640625 23 36.01171875 -14.19921875 20.19140625 40.58203125 -19.87109375 19.6640625 39.640625 -17.12109375 17.48828125 32.9921875 -16.39453125 24.69140625 28.7421875 -21.1953125 25.10546875 28.96875 -13.86328125 25.953125 24.6328125 -18.87890625 26.0859375 47.00390625 -1.75 9.61328125 43.6640625 -3.79296875 16.80078125 43.77734375 1.63671875 20.421875 46.4296875 -5.72265625 16.67578125 46.984375 -5.47265625 12.3203125 44.67578125 -3.4296875 12.03125 30.61328125 -25.69140625 19.99609375 35.09765625 -26.23046875 18.12890625 25.0859375 -24.0078125 16.46875 32.79296875 -25.296875 14.9921875 55.78515625 -1.6015625 10.1484375 45.7578125 2.41015625 9.3515625 21.52734375 -22.43359375 22.484375 25.37109375 -24.46875 21.66796875 37.4140625 10.72265625 9.75390625 39.6484375 11.890625 14.93359375 36.19140625 9.67578125 19.25 14.68359375 -10.23046875 25.1484375 11.2421875 -5.55078125 22.90234375 21.1796875 -6.67578125 25 17.29296875 -0.98046875 22.0859375 12.67578125 -15.515625 23.23828125 7.78515625 -11.30859375 21.10546875 35.3359375 -2.9921875 16.91015625 35.2734375 -2.7734375 11.42578125 47.25390625 -1.8984375 -1.6328125 51.2109375 -6.359375 12.90625 -3.37890625 7.796875 4.3125 -3.38671875 7.796875 -5.66796875 38.390625 -23.76171875 20.7734375 33.453125 -22.55859375 23.6875 23.9140625 -10.71875 15.19140625 28.0625 -11.734375 16.80859375 27.5 -9.203125 22.0390625 31.44140625 -11.65625 20.8125 18.984375 -14.78515625 26.296875 24.4140625 -10.7578125 26.12890625 31.234375 -12.98046875 15.140625 19.96875 -16.32421875 15 16.015625 -19.57421875 18.63671875 22.64453125 -17.0546875 16.0234375 21.31640625 -22.0703125 17.3984375 16.46484375 -19.0234375 23.34765625 38.73046875 -0.4921875 -17.91015625 41.58203125 -3.89453125 -20.625 39.921875 -2.109375 -18.02734375 41.73828125 -0.37109375 -21 26.6953125 -18.3125 13.390625 38.54296875 -0.35546875 -13.6171875 39.8125 -1.9609375 -13.66015625 43.59375 1.1015625 -10.7421875 38.796875 -24.7890625 15.6953125 41.28125 -21.25390625 14.453125 36.2109375 -21.77734375 12.30859375 38.90234375 -18.921875 13.4140625 30.515625 -19.953125 12.4453125 34.48828125 -14.8203125 13.80078125 22.109375 -5.8046875 -21.42578125 25.453125 -5.6015625 -20.37109375 22.0546875 2.1796875 -22.3671875 27.359375 1.8828125 -22.1171875 31.05078125 -4.1953125 -19.4375 36.01953125 -1.76171875 -18.046875 30.09375 -4.58984375 19.08984375 30.2578125 1.42578125 20.58203125 35.1953125 2.22265625 20.33984375 50.9375 -18.015625 9.046875 58.75 -11.91015625 8.46484375 61.2734375 -12.1640625 4.25 58.984375 -16.9453125 8.07421875 61.43359375 -17.28125 4.19921875 31.00390625 9.31640625 19.71484375 59.16796875 -16.89453125 -0.0625 58.671875 -12.1328125 -0.34375 38.7578125 -3.2734375 -17.81640625 21.44921875 15.11328125 -12.953125 21.94140625 12.12890625 -18.61328125 32.08203125 13.953125 -14.39453125 31.12109375 11.40234375 -19.3984375 20.34765625 -11.26171875 -14.88671875 23.796875 -9.61328125 0.1875 14.3828125 -5.38671875 -21.5234375 14.625 -11.5 -13.7734375 35.95703125 -1.625 -13.984375 57.30859375 -20.80859375 7.44921875 59.55078125 -21.44921875 4.14453125 38.8125 10.8984375 -16.46875 37.24609375 10.421875 -12.33203125 8.67578125 13.78515625 -12.41015625 20.95703125 14.99609375 10.5 8.84765625 12.20703125 11.3671875 57.50390625 -20.7734375 0.79296875 31.88671875 12.3515625 17.15625 20.95703125 12.75 15.78125 33.63671875 13.8125 11.44140625 52.6953125 -17.2734375 -1.0546875 33.28515625 12.40625 9.41015625 35.12109375 9.58984375 8.94140625 32.41796875 -5.171875 9.3359375 30.359375 -6.94921875 14.14453125 37.1171875 2.8203125 8.80859375 0.40625 6.84375 12.97265625 -2.98046875 1.7890625 9.75390625 34.4765625 13.66015625 -1.67578125 35.25390625 -2.46484375 -1.76953125 -0.65234375 -1.5546875 12.65234375 -2.98828125 1.7890625 -11.078125 21.69140625 -5.015625 18.47265625 6.84375 6.34765625 16.953125 24.4453125 -6.4453125 18.96875 29.74609375 -6.15234375 -14.41796875 21.1015625 8.4375 19.55078125 25.9609375 1.265625 21.09375 67.03515625 -14.7109375 13.53515625 21.33984375 1.69140625 21.59765625 19.98828125 -14.796875 5.82421875 13.77734375 3.40234375 20.33203125 8 -1.0703125 20.234375 49.19140625 -22.77734375 3.98046875 36.203125 4.03515625 -1.86328125 53.6796875 -23.58203125 6.15625 53.8046875 -23.55859375 1.91796875 33.27734375 12.4140625 -12.11328125 35.64453125 -1.75390625 -11.67578125 36.9140625 3.15625 -11.828125 62.48828125 -16.18359375 15.203125 66.3671875 -15.15234375 17.70703125 34.73828125 -17.9296875 -7.53125 34.59375 -17.98828125 -3.27734375 32.59375 -14.35546875 -5.3984375 35.28125 4.56640625 -11.7265625 27.8203125 -7.2109375 -13.6875 28.36328125 -4.20703125 -15.91015625 28.07421875 -7.5703125 -17.2890625</float_array>
                    <technique_common>
                        <accessor count="326" source="#pointarray0" stride="3">
                            <param name="X" type="float"/>
                            <param name="Y" type="float"/>
                            <param name="Z" type="float"/>
                        </accessor>
                    </technique_common>
                </source>
                <source id="uvs0">
                    <float_array id="uvarray0" count="866">0.9393939971923828 0.3677840232849121 0.9393939971923828 0.366303026676178 0.9550880193710327 0.38348299264907837 0.9550889730453491 0.38200199604034424 0.7091040015220642 0.46752601861953735 0.6948059797286987 0.46752601861953735 0.7091040015220642 0.4715780019760132 0.6948059797286987 0.47411102056503296 0.8978800177574158 0.47857600450515747 0.8978800177574158 0.47417497634887695 0.9131079912185669 0.47857600450515747 0.9131079912185669 0.4715350270271301 0.9496539831161499 0.47857600450515747 0.9496539831161499 0.47417497634887695 0.9648820161819458 0.47857600450515747 0.9648820161819458 0.4715350270271301 0.6805070042610168 0.48373401165008545 0.6948059797286987 0.48373401165008545 0.6805070042610168 0.4796820282936096 0.6948059797286987 0.477150022983551 0.7091040015220642 0.4796820282936096 0.7091040015220642 0.48373401165008545 0.6948059797286987 0.4875980019569397 0.6805070042610168 0.4877859950065613 0.8308780193328857 0.4680140018463135 0.815650999546051 0.4702150225639343 0.8308780193328857 0.46361398696899414 0.815650999546051 0.46361398696899414 0.8461059927940369 0.4680140018463135 0.8461059927940369 0.46361398696899414 0.8613340258598328 0.46361398696899414 0.8613340258598328 0.4702150225639343 0.7091040015220642 0.4877859950065613 0.9648820161819458 0.48209601640701294 0.9496539831161499 0.48913800716400146 0.93442702293396 0.47857600450515747 0.93442702293396 0.48913800716400146 0.9191989898681641 0.47857600450515747 0.9191989898681641 0.48209601640701294 0.6948059797286987 0.49316900968551636 0.6805070042610168 0.49316900968551636 0.7091040015220642 0.49316900968551636 0.8687949776649475 0.4250919818878174 0.886372983455658 0.43730199337005615 0.9306269884109497 0.4248179793357849 0.907817006111145 0.4371830224990845 0.6550880074501038 0.46752601861953735 0.6407899856567383 0.46752601861953735 0.6550880074501038 0.4715780019760132 0.6407899856567383 0.47411102056503296 0.6264910101890564 0.4715780019760132 0.6264910101890564 0.46752601861953735 0.6407899856567383 0.46094197034835815 0.6550880074501038 0.46347397565841675 0.6805070042610168 0.46752601861953735 0.6805070042610168 0.46347397565841675 0.6948059797286987 0.46094197034835815 0.9155160188674927 0.3662949800491333 0.9266030192375183 0.38199299573898315 0.8714410066604614 0.36556899547576904 0.8714330196380615 0.38197600841522217 0.524815022945404 0.46549999713897705 0.5391129851341248 0.46549999713897705 0.524815022945404 0.4614480137825012 0.5391129851341248 0.4589160084724426 0.5534110069274902 0.4614480137825012 0.5534110069274902 0.46549999713897705 0.6032260060310364 0.4068149924278259 0.5831350088119507 0.40671300888061523 0.6052780151367188 0.4435669779777527 0.5740119814872742 0.4400479793548584 0.6559590101242065 0.4403889775276184 0.6501039862632751 0.4070500135421753 0.6231549978256226 0.4436429738998413 0.6300129890441895 0.406948983669281 0.5176309943199158 0.43313902616500854 0.5129709839820862 0.44248902797698975 0.5221620202064514 0.44851797819137573 0.5150949954986572 0.4490079879760742 0.5391129851341248 0.47208499908447266 0.524815022945404 0.4695519804954529 0.5534110069274902 0.4695519804954529 0.7091040015220642 0.46347397565841675 0.6805070042610168 0.4715780019760132 0.8004230260848999 0.475055992603302 0.8004230260848999 0.4715350270271301 0.815650999546051 0.475055992603302 0.815650999546051 0.46889400482177734 0.5799210071563721 0.3599569797515869 0.5954020023345947 0.3827049732208252 0.6561710238456726 0.3594520092010498 0.6383609771728516 0.3829209804534912 0.524815022945404 0.4796820282936096 0.5391129851341248 0.4796820282936096 0.524815022945404 0.475629985332489 0.5391129851341248 0.473097026348114 0.5534110069274902 0.475629985332489 0.5534110069274902 0.4796820282936096 0.5391129851341248 0.4835450053215027 0.524815022945404 0.48373401165008545 0.5534110069274902 0.48373401165008545 0.815650999546051 0.47857600450515747 0.8004230260848999 0.4838569760322571 0.5534110069274902 0.4898120164871216 0.5391129851341248 0.4898120164871216 0.785194993019104 0.475055992603302 0.785194993019104 0.4838569760322571 0.7699679732322693 0.475055992603302 0.7699679732322693 0.47857600450515747 0.524815022945404 0.4898120164871216 0.882652997970581 0.47417497634887695 0.882652997970581 0.47857600450515747 0.9072359800338745 0.44295400381088257 0.8870059847831726 0.4435639977455139 0.5867739915847778 0.4751240015029907 0.5867739915847778 0.48170799016952515 0.6010720133781433 0.4776560068130493 0.6010720133781433 0.48170799016952515 0.8574000000953674 0.44396501779556274 0.8573150038719177 0.43731701374053955 0.8370199799537659 0.44389599561691284 0.8358389735221863 0.437296986579895 0.6407899856567383 0.477150022983551 0.6550880074501038 0.4796820282936096 0.8461059927940369 0.4856169819831848 0.8308780193328857 0.4856169819831848 0.8461059927940369 0.47681599855422974 0.8308780193328857 0.47681599855422974 0.6264910101890564 0.4796820282936096 0.8445379734039307 0.35670799016952515 0.8929399847984314 0.3566640019416809 0.844539999961853 0.35263001918792725 0.8922240138053894 0.3526039719581604 0.5724760293960571 0.48170799016952515 0.5724760293960571 0.4776560068130493 0.8255559802055359 0.3816850185394287 0.8209919929504395 0.37308698892593384 0.7878209948539734 0.38263100385665894 0.7825790047645569 0.3749449849128723 0.815650999546051 0.47681599855422974 0.8308780193328857 0.4724149703979492 0.8978800177574158 0.46889400482177734 0.882652997970581 0.46889400482177734 0.819832980632782 0.36555302143096924 0.7948290109634399 0.3689489960670471 0.8334770202636719 0.38019198179244995 0.8038970232009888 0.3875430226325989 0.5724760293960571 0.4665129780769348 0.5867739915847778 0.4665129780769348 0.5724760293960571 0.462460994720459 0.5867739915847778 0.4599289894104004 0.6010720133781433 0.462460994720459 0.6010720133781433 0.4665129780769348 0.871425986289978 0.3881160020828247 0.5867739915847778 0.473097026348114 0.5724760293960571 0.4705650210380554 0.6010720133781433 0.4705650210380554 0.8461059927940369 0.4724149703979492 0.8613340258598328 0.47681599855422974 0.8978800177574158 0.46097302436828613 0.8978800177574158 0.464493989944458 0.882652997970581 0.46097302436828613 0.882652997970581 0.464493989944458 0.6264910101890564 0.46347397565841675 0.8330399990081787 0.425229012966156 0.8357269763946533 0.4089009761810303 0.7972850203514099 0.42536598443984985 0.8075349926948547 0.4070240259170532 0.6264910101890564 0.45840901136398315 0.6407899856567383 0.45840901136398315 0.8674250245094299 0.47857600450515747 0.8674250245094299 0.4715350270271301 0.6550880074501038 0.45840901136398315 0.6010720133781433 0.4901300072669983 0.6010720133781433 0.485759973526001 0.5867739915847778 0.4901300072669983 0.5867739915847778 0.485571026802063 0.5724760293960571 0.485759973526001 0.5724760293960571 0.4901300072669983 0.5724760293960571 0.4573959708213806 0.5867739915847778 0.4573959708213806 0.6010720133781433 0.4573959708213806 0.8461059927940369 0.46009302139282227 0.8308780193328857 0.46009302139282227 0.8978800177574158 0.48913800716400146 0.882652997970581 0.48913800716400146 0.815650999546051 0.4803360104560852 0.8613340258598328 0.4803360104560852 0.7309079766273499 0.41247397661209106 0.743457019329071 0.41247397661209106 0.7309079766273499 0.4215959906578064 0.7408130168914795 0.4215959906578064 0.7309079766273499 0.4097369909286499 0.7155699729919434 0.4097369909286499 0.7309079766273499 0.4033510088920593 0.7155699729919434 0.4033510088920593 0.9131079912185669 0.464493989944458 0.9496539831161499 0.464493989944458 0.9648820161819458 0.464493989944458 0.9496539831161499 0.46889400482177734 0.93442702293396 0.46889400482177734 0.93442702293396 0.464493989944458 0.7002310156822205 0.41247397661209106 0.7002310156822205 0.4215959906578064 0.6876819729804993 0.41247397661209106 0.6876819729804993 0.4215959906578064 0.9191989898681641 0.4715350270271301 0.9191989898681641 0.464493989944458 0.7002310156822205 0.4033510088920593 0.7002310156822205 0.4097369909286499 0.6805070042610168 0.45840901136398315 0.6948059797286987 0.45840901136398315 0.7091040015220642 0.45840901136398315 0.7155699729919434 0.394228994846344 0.7155699729919434 0.3791769742965698 0.7309079766273499 0.39514100551605225 0.7309079766273499 0.38328200578689575 0.7002310156822205 0.39514100551605225 0.7002310156822205 0.38328200578689575 0.9496539831161499 0.46097302436828613 0.93442702293396 0.46097302436828613 0.8674250245094299 0.464493989944458 0.93442702293396 0.47417497634887695 0.8445379734039307 0.35655999183654785 0.8915039896965027 0.35655200481414795 0.7155699729919434 0.4215959906578064 0.7155699729919434 0.41247397661209106 0.6500329971313477 0.40061497688293457 0.6500329971313477 0.4060879945755005 0.6319059729576111 0.40061497688293457 0.6319059729576111 0.4060879945755005 0.7155699729919434 0.40061497688293457 0.7309079766273499 0.40061497688293457 0.6500329971313477 0.41247397661209106 0.6319059729576111 0.41247397661209106 0.6695550084114075 0.40061497688293457 0.6876819729804993 0.40061497688293457 0.6695550084114075 0.4060879945755005 0.6876819729804993 0.4060879945755005 0.7002310156822205 0.40061497688293457 0.785194993019104 0.46625399589538574 0.7699679732322693 0.46889400482177734 0.785194993019104 0.4627329707145691 0.7699679732322693 0.4627329707145691 0.6695550084114075 0.41247397661209106 0.8004230260848999 0.46625399589538574 0.8004230260848999 0.4627329707145691 0.815650999546051 0.4627329707145691 0.6779209971427917 0.42615699768066406 0.6416670083999634 0.42615699768066406 0.6695550084114075 0.4215959906578064 0.6500329971313477 0.4215959906578064 0.6695550084114075 0.417946994304657 0.6500329971313477 0.417946994304657 0.9655799865722656 0.4067729711532593 0.9643009901046753 0.42907601594924927 0.9700189828872681 0.4066479802131653 0.9688259959220886 0.4292449951171875 0.9645980000495911 0.4410160183906555 0.9627460241317749 0.436460018157959 0.9467809796333313 0.4425309896469116 0.9618669748306274 0.44557297229766846 0.7777130007743835 0.4362580180168152 0.767982006072998 0.4390559792518616 0.7880340218544006 0.4418179988861084 0.771291971206665 0.4447169899940491 0.9131079912185669 0.48209601640701294 0.6550880074501038 0.48373401165008545 0.6407899856567383 0.48373401165008545 0.6550880074501038 0.4877859950065613 0.6407899856567383 0.4875980019569397 0.7136849761009216 0.43551599979400635 0.7089110016822815 0.45292001962661743 0.7198230028152466 0.44679999351501465 0.7165539860725403 0.45358699560165405 0.6264910101890564 0.4877859950065613 0.6264910101890564 0.48373401165008545 0.785194993019104 0.4715350270271301 0.5576210021972656 0.4080290198326111 0.5317540168762207 0.4093160033226013 0.556164026260376 0.43644702434539795 0.5240110158920288 0.43390601873397827 0.931693971157074 0.41079801321029663 0.8639199733734131 0.4107769727706909 0.9660500288009644 0.3883259892463684 0.929606020450592 0.38889098167419434 0.8004230260848999 0.4592130184173584 0.785194993019104 0.4592130184173584 0.6834989786148071 0.38328200578689575 0.6681600213050842 0.3860189914703369 0.6550880074501038 0.49316900968551636 0.6407899856567383 0.49316900968551636 0.5391129851341248 0.4542980194091797 0.5534110069274902 0.4573959708213806 0.56038498878479 0.382066011428833 0.6701939702033997 0.4071509838104248 0.6744170188903809 0.3831019997596741 0.6264910101890564 0.49316900968551636 0.7039399743080139 0.43701398372650146 0.6943179965019226 0.40727299451828003 0.6738399863243103 0.44050300121307373 0.8674250245094299 0.48209601640701294 0.524815022945404 0.4573959708213806 0.664900004863739 0.44045400619506836 0.6564030051231384 0.45759397745132446 0.6660829782485962 0.45456600189208984 0.8177610039710999 0.4403979778289795 0.7982569932937622 0.43907397985458374 0.8213440179824829 0.4474160075187683 0.808230996131897 0.44284701347351074 0.6757280230522156 0.4550439715385437 0.8038039803504944 0.36559098958969116 0.8189489841461182 0.3575029969215393 0.6927340030670166 0.45448899269104004 0.6209200024604797 0.456866979598999 0.6142169833183289 0.4436119794845581 0.8740010261535645 0.44049400091171265 0.6386989951133728 0.4602530002593994 0.743457019329071 0.4063349962234497 0.743457019329071 0.40061497688293457 0.8053230047225952 0.36305201053619385 0.550233006477356 0.3608279824256897 0.5968499779701233 0.3475779891014099 0.9169449806213379 0.35751497745513916 0.6319059729576111 0.4215959906578064 0.7002310156822205 0.42615699768066406 0.7309079766273499 0.42615699768066406 0.6542159914970398 0.394228994846344 0.5294280052185059 0.3796190023422241 0.6999769806861877 0.3774759769439697 0.7782689929008484 0.4259840250015259 0.9421390295028687 0.43911802768707275 0.5146070122718811 0.4095500111579895 0.7140300273895264 0.40810102224349976 0.762499988079071 0.4275779724121094 0.6918650269508362 0.38328200578689575 0.6819390058517456 0.35890400409698486 0.7186359763145447 0.4877859950065613 0.9283360242843628 0.4935380220413208 0.6709750294685364 0.4877859950065613 0.7208870053291321 0.40850400924682617 0.7214040160179138 0.4307199716567993 0.850167989730835 0.39844799041748047 0.7850810289382935 0.3809570074081421 0.7741469740867615 0.38757097721099854 0.7692139744758606 0.3770869970321655 0.7650780081748962 0.3973590135574341 0.7166540026664734 0.3828880190849304 0.7632129788398743 0.4048740267753601 0.6424639821052551 0.3478339910507202 0.8902660012245178 0.49177801609039307 0.8674250245094299 0.4625539779663086 0.6550880074501038 0.49823397397994995 0.6646199822425842 0.4877859950065613 0.8765619993209839 0.4935380220413208 0.5665670037269592 0.4399399757385254 0.9293869733810425 0.44336998462677 0.9223020076751709 0.44054198265075684 0.9199730157852173 0.4469969868659973 0.5407940149307251 0.45138901472091675 0.5552170276641846 0.45303601026535034 0.5727750062942505 0.45636701583862305 0.607545018196106 0.4556419849395752 0.6137109994888306 0.459663987159729 0.589684009552002 0.4590659737586975 0.8735730051994324 0.44771498441696167 0.5629439949989319 0.47411102056503296 0.5629439949989319 0.48170799016952515 0.6106039881706238 0.48170799016952515 0.6709750294685364 0.475629985332489 0.7186359763145447 0.48373401165008545 0.7186359763145447 0.475629985332489 0.7186359763145447 0.46752601861953735 0.9420409798622131 0.49177801609039307 0.9557459950447083 0.4935380220413208 0.6805070042610168 0.49823397397994995 0.7091040015220642 0.49823397397994995 0.6169589757919312 0.48373401165008545 0.6169589757919312 0.4877859950065613 0.9039710164070129 0.4935380220413208 0.6264910101890564 0.49823397397994995 0.6169589757919312 0.46752601861953735 0.6646199822425842 0.46549999713897705 0.6646199822425842 0.48373401165008545 0.6646199822425842 0.46752601861953735 0.5629439949989319 0.4796820282936096 0.5152829885482788 0.47259098291397095 0.5629439949989319 0.47259098291397095 0.5152829885482788 0.46549999713897705 0.6169589757919312 0.46549999713897705 0.6646199822425842 0.475629985332489 0.6169589757919312 0.475629985332489 0.8247870206832886 0.49177801609039307 0.6106039881706238 0.485759973526001 0.6010720133781433 0.4962080121040344 0.815650999546051 0.46185302734375 0.8384919762611389 0.49001801013946533 0.5629439949989319 0.4665129780769348 0.6106039881706238 0.47411102056503296 0.5629439949989319 0.4644870162010193 0.6106039881706238 0.4665129780769348 0.852196991443634 0.49177801609039307 0.5724760293960571 0.4962080121040344 0.5629439949989319 0.485759973526001 0.6106039881706238 0.4644870162010193 0.5645470023155212 0.4520050287246704 0.9131079912185669 0.46262097358703613 0.6709750294685364 0.46752601861953735 0.6709750294685364 0.46549999713897705 0.7186359763145447 0.46549999713897705 0.6709750294685364 0.48373401165008545 0.7859990000724792 0.4057270288467407 0.752236008644104 0.3837429881095886 0.7658720016479492 0.38319700956344604 0.5107830166816711 0.4332280158996582 0.5629439949989319 0.46347397565841675 0.5534110069274902 0.4958900213241577 0.7699679732322693 0.46097302436828613 0.792809009552002 0.48737698793411255 0.5152829885482788 0.4796820282936096 0.5629439949989319 0.48373401165008545 0.5152829885482788 0.46347397565841675 0.5629439949989319 0.46549999713897705 0.8065140247344971 0.48913800716400146 0.524815022945404 0.4958900213241577 0.5152829885482788 0.48373401165008545 0.7791039943695068 0.48913800716400146 0.815650999546051 0.46097302436828613 0.9648820161819458 0.4627060294151306 0.5629439949989319 0.459089994430542 0.6677979826927185 0.46161001920700073 0.9191989898681641 0.4626380205154419 0.8613340258598328 0.46185302734375</float_array>
                    <technique_common>
                        <accessor count="433" source="#uvarray0" stride="2">
                            <param name="S" type="float"/>
                            <param name="T" type="float"/>
                        </accessor>
                    </technique_common>
                </source>
                <vertices id="vertices0">
                    <input semantic="POSITION" source="#points0"/>
                </vertices>
                <polylist count="648" material="Material1">
                    <input offset="0" semantic="VERTEX" source="#vertices0"/>
                    <input offset="1" semantic="TEXCOORD" source="#uvs0" set="0"/>
                    <vcount>3 3 3 3 3 3 3 3 3 3 3 3 3 3 3 3 3 3 3 3 3 3 3 3 3 3 3 3 3 3 3 3 3 3 3 3 3 3 3 3 3 3 3 3 3 3 3 3 3 3 3 3 3 3 3 3 3 3 3 3 3 3 3 3 3 3 3 3 3 3 3 3 3 3 3 3 3 3 3 3 3 3 3 3 3 3 3 3 3 3 3 3 3 3 3 3 3 3 3 3 3 3 3 3 3 3 3 3 3 3 3 3 3 3 3 3 3 3 3 3 3 3 3 3 3 3 3 3 3 3 3 3 3 3 3 3 3 3 3 3 3 3 3 3 3 3 3 3 3 3 3 3 3 3 3 3 3 3 3 3 3 3 3 3 3 3 3 3 3 3 3 3 3 3 3 3 3 3 3 3 3 3 3 3 3 3 3 3 3 3 3 3 3 3 3 3 3 3 3 3 3 3 3 3 3 3 3 3 3 3 3 3 3 3 3 3 3 3 3 3 3 3 3 3 3 3 3 3 3 3 3 3 3 3 3 3 3 3 3 3 3 3 3 3 3 3 3 3 3 3 3 3 3 3 3 3 3 3 3 3 3 3 3 3 3 3 3 3 3 3 3 3 3 3 3 3 3 3 3 3 3 3 3 3 3 3 3 3 3 3 3 3 3 3 3 3 3 3 3 3 3 3 3 3 3 3 3 3 3 3 3 3 3 3 3 3 3 3 3 3 3 3 3 3 3 3 3 3 3 3 3 3 3 3 3 3 3 3 3 3 3 3 3 3 3 3 3 3 3 3 3 3 3 3 3 3 3 3 3 3 3 3 3 3 3 3 3 3 3 3 3 3 3 3 3 3 3 3 3 3 3 3 3 3 3 3 3 3 3 3 3 3 3 3 3 3 3 3 3 3 3 3 3 3 3 3 3 3 3 3 3 3 3 3 3 3 3 3 3 3 3 3 3 3 3 3 3 3 3 3 3 3 3 3 3 3 3 3 3 3 3 3 3 3 3 3 3 3 3 3 3 3 3 3 3 3 3 3 3 3 3 3 3 3 3 3 3 3 3 3 3 3 3 3 3 3 3 3 3 3 3 3 3 3 3 3 3 3 3 3 3 3 3 3 3 3 3 3 3 3 3 3 3 3 3 3 3 3 3 3 3 3 3 3 3 3 3 3 3 3 3 3 3 3 3 3 3 3 3 3 3 3 3 3 3 3 3 3 3 3 3 3 3 3 3 3 3 3 3 3 3 3 3 3 3 3 3 3 3 3 3 3 3 3 3 3 3 3 3 3 3 3 3 3 3 3 3 3 3 3 3 3 3 3 3 3 3 3 3 3 3 3 3 3 3 3 3 3 3 3 3 3 3 3 3 3 3 3 3 3 3 3 3 3 3 3 3 3 3 3 3 3 3 3 3 3 3 3 3 3 3 3 3 3 3 3 3 3 3 3 3 3 3 3 3 3 3 3</vcount>
                    <p>2 2 1 1 0 0 3 3 1 1 2 2 6 6 5 5 4 4 7 7 5 5 6 6 10 10 9 9 8 8 11 11 9 9 10 10 14 14 13 13 12 12 15 15 13 13 14 14 18 18 17 17 16 16 19 19 17 17 18 18 20 20 17 17 19 19 21 21 17 17 20 20 23 23 17 17 22 22 16 16 17 17 23 23 26 26 25 25 24 24 27 27 25 25 26 26 29 29 24 24 28 28 26 26 24 24 29 29 28 28 30 30 29 29 31 31 30 30 28 28 32 32 17 17 21 21 22 22 17 17 32 32 14 14 34 34 33 33 12 12 34 34 14 14 37 37 36 36 35 35 38 38 36 36 37 37 39 39 23 23 22 22 40 40 23 23 39 39 39 39 32 32 41 41 22 22 32 32 39 39 44 44 43 43 42 42 45 45 43 43 44 44 48 48 47 47 46 46 49 49 47 47 48 48 50 50 47 47 49 49 51 51 47 47 50 50 53 53 47 47 52 52 46 46 47 47 53 53 55 55 5 5 54 54 56 56 5 5 55 55 1 1 58 58 57 57 3 3 58 58 1 1 57 57 60 60 59 59 58 58 60 60 57 57 63 63 62 62 61 61 64 64 62 62 63 63 65 65 62 62 64 64 66 66 62 62 65 65 69 69 68 68 67 67 70 70 68 68 69 69 73 73 72 72 71 71 74 74 72 72 73 73 77 77 76 76 75 75 78 78 76 76 77 77 80 80 62 62 79 79 61 61 62 62 80 80 81 81 62 62 66 66 79 79 62 62 81 81 82 82 5 5 56 56 4 4 5 5 82 82 83 83 5 5 7 7 54 54 5 5 83 83 86 86 85 85 84 84 87 87 85 85 86 86 90 90 89 89 88 88 91 91 89 89 90 90 94 94 93 93 92 92 95 95 93 93 94 94 96 96 93 93 95 95 97 97 93 93 96 96 99 99 93 93 98 98 92 92 93 93 99 99 100 100 93 93 97 97 98 98 93 93 100 100 86 86 102 102 101 101 84 84 102 102 86 86 104 104 100 100 103 103 98 98 100 100 104 104 107 107 106 106 105 105 108 108 106 106 107 107 104 104 99 99 98 98 109 109 99 99 104 104 110 110 8 8 9 9 111 111 8 8 110 110 113 113 45 45 112 112 43 43 45 45 113 113 116 116 115 115 114 114 117 117 115 115 116 116 120 120 119 119 118 118 121 121 119 119 120 120 49 49 123 123 122 122 48 48 123 123 49 49 126 126 125 125 124 124 127 127 125 125 126 126 50 50 122 122 128 128 49 49 122 122 50 50 131 131 130 130 129 129 132 132 130 130 131 131 134 134 115 115 133 133 114 114 115 115 134 134 137 137 136 136 135 135 138 138 136 136 137 137 140 140 139 139 127 127 25 25 139 139 140 140 141 141 110 110 9 9 142 142 110 110 141 141 136 136 144 144 143 143 138 138 144 144 136 136 146 146 135 135 145 145 137 137 135 135 146 146 149 149 148 148 147 147 150 150 148 148 149 149 151 151 148 148 150 150 152 152 148 148 151 151 135 135 153 153 145 145 60 60 153 153 135 135 155 155 148 148 154 154 147 147 148 148 155 155 156 156 148 148 152 152 154 154 148 148 156 156 158 158 157 157 126 126 31 31 157 157 158 158 118 161 159 160 120 159 160 162 159 160 118 161 161 163 47 47 51 51 52 52 47 47 161 163 42 42 121 121 162 164 119 119 121 121 42 42 164 166 163 165 162 164 165 167 163 165 164 166 166 168 52 52 161 163 167 169 52 52 166 168 110 110 168 170 111 111 169 171 168 170 110 110 167 169 53 53 52 52 170 172 53 53 167 169 173 175 172 174 171 173 174 176 172 174 173 175 173 175 175 177 174 176 176 178 175 177 173 175 177 179 150 150 149 149 178 180 150 150 177 179 178 180 151 151 150 150 179 181 151 151 178 180 112 183 29 29 113 182 26 26 29 29 112 183 8 8 181 185 180 184 111 111 181 185 8 8 139 139 125 125 127 127 182 186 125 125 139 139 28 28 140 140 157 157 24 24 140 140 28 28 158 158 124 124 183 187 126 126 124 124 158 158 155 155 114 114 134 134 154 154 114 114 155 155 154 154 116 116 114 114 156 156 116 116 154 154 140 140 126 126 157 157 127 127 126 126 140 140 175 177 115 115 174 176 133 133 115 115 175 177 91 91 67 67 89 89 74 74 67 67 91 91 186 190 185 189 184 188 187 191 185 189 186 190 190 194 189 193 188 192 191 195 189 193 190 194 141 141 192 196 159 160 11 11 192 196 141 141 195 199 194 198 193 197 15 15 194 198 195 199 193 197 196 200 195 199 197 201 196 200 193 197 200 204 199 203 198 202 201 205 199 203 200 204 197 201 202 206 196 200 203 207 202 206 197 201 204 208 189 193 191 195 205 209 189 193 204 208 159 160 142 142 141 141 160 162 142 142 159 160 206 210 56 56 55 55 207 211 56 56 206 210 207 211 82 82 56 56 208 212 82 82 207 211 211 215 210 214 209 213 212 216 210 214 211 215 209 213 214 218 213 217 210 214 214 218 209 213 216 220 193 197 215 219 197 201 193 197 216 220 160 162 169 171 142 142 217 221 169 171 160 162 195 199 218 222 13 13 196 200 218 222 195 199 219 223 132 132 131 131 220 224 132 132 219 223 83 83 19 19 18 18 7 7 19 19 83 83 7 7 20 20 19 19 6 6 20 20 7 7 184 188 221 225 186 190 222 226 221 225 184 188 188 192 222 226 184 188 189 193 222 226 188 192 225 229 224 228 223 227 226 230 224 228 225 229 190 194 227 231 191 195 228 232 227 231 190 194 211 215 227 231 228 232 209 213 227 231 211 215 224 228 185 234 229 233 226 230 185 234 224 228 222 226 199 203 221 225 198 202 199 203 222 226 205 209 222 226 189 193 198 202 222 226 205 209 232 237 231 236 230 235 233 238 231 236 232 237 204 208 227 231 234 239 191 195 227 231 204 208 209 213 234 239 227 231 213 217 234 239 209 213 237 242 236 241 235 240 238 243 236 241 237 242 200 204 232 237 239 244 233 238 232 237 200 204 241 246 235 240 240 245 237 242 235 240 241 246 240 245 242 247 241 246 87 87 242 247 240 245 245 250 244 249 243 248 246 251 244 249 245 250 172 174 115 115 117 117 174 176 115 115 172 174 247 252 246 251 245 250 248 253 246 251 247 252 239 244 248 253 247 252 229 233 248 253 239 244 230 235 224 228 232 237 223 227 224 228 230 235 232 237 229 233 239 244 224 228 229 233 232 237 251 256 250 255 249 254 252 257 250 255 251 256 253 259 252 257 76 258 250 255 252 257 253 259 76 258 254 260 253 259 78 261 254 260 76 258 215 264 256 263 255 262 257 265 256 263 215 264 12 12 36 36 34 34 35 35 36 36 12 12 10 10 180 184 258 266 8 8 180 184 10 10 84 84 106 106 102 102 105 105 106 106 84 84 261 269 260 268 259 267 262 270 260 268 261 269 256 273 208 272 263 271 257 274 208 272 256 273 264 275 260 268 262 270 265 276 260 268 264 275 218 222 37 37 35 35 202 206 37 37 218 222 266 277 107 107 105 105 236 241 107 107 266 277 269 280 268 279 267 278 270 281 268 279 269 280 249 254 44 44 271 282 250 255 44 44 249 254 271 282 42 42 272 283 44 44 42 42 271 282 163 165 42 42 162 164 272 283 42 42 163 165 123 123 260 268 122 122 259 267 260 268 123 123 271 282 273 284 249 254 274 285 273 284 271 282 3 3 274 285 58 58 273 284 274 285 3 3 58 58 153 153 60 60 274 285 153 153 58 58 128 128 260 268 265 276 122 122 260 268 128 128 218 222 12 12 13 13 35 35 12 12 218 222 240 245 266 277 85 85 235 240 266 277 240 245 254 287 241 246 275 286 237 242 241 246 254 287 165 289 230 235 146 288 223 227 230 235 165 289 80 80 95 95 94 94 79 79 95 95 80 80 79 79 96 96 95 95 81 81 96 96 79 79 277 291 261 269 276 290 262 270 261 269 277 291 266 277 84 84 85 85 105 105 84 84 266 277 278 292 65 65 64 64 279 293 65 65 278 292 68 68 280 294 89 89 267 278 280 294 68 68 72 72 282 296 281 295 91 91 282 296 72 72 277 291 264 275 262 270 283 297 264 275 277 291 286 300 285 299 284 298 281 295 285 299 286 300 168 170 181 185 111 111 287 301 181 185 168 170 77 302 64 64 63 63 278 292 64 64 77 302 289 305 170 304 288 303 120 120 290 306 121 121 121 121 290 306 291 307 292 308 290 306 120 120 290 306 216 309 291 307 288 303 286 300 206 310 281 295 288 303 72 72 143 143 59 59 136 136 219 223 294 312 293 311 284 298 208 272 207 313 295 315 73 73 166 314 296 316 118 118 119 119 216 309 290 306 292 308 286 300 207 313 206 310 170 304 167 317 71 71 247 252 200 204 239 244 185 234 248 253 229 233 231 236 233 238 204 208 205 209 204 208 233 238 188 192 226 318 190 194 211 215 228 232 225 319 129 129 143 143 297 320 220 322 88 88 0 321 298 323 1 1 130 130 251 256 249 254 273 284 198 202 205 209 200 204 245 250 243 248 201 205 204 208 234 239 231 236 200 204 205 209 233 238 184 188 185 189 188 192 246 251 187 324 244 249 190 194 225 319 228 232 190 194 226 318 225 319 188 192 185 189 226 318 244 326 221 225 243 325 223 227 165 289 299 327 199 203 243 325 221 225 247 252 245 250 201 205 231 236 234 239 213 217 244 326 187 191 186 190 187 324 246 251 248 253 91 91 72 72 74 74 281 295 282 296 285 299 129 129 297 320 294 312 298 323 130 130 132 132 280 294 2 328 0 321 300 329 285 299 282 296 165 167 164 166 301 330 255 262 301 330 164 166 45 45 44 44 302 331 268 279 251 332 2 328 270 281 75 75 268 279 250 255 253 259 302 331 263 271 285 299 303 333 304 334 255 262 256 263 187 324 248 253 185 234 299 327 212 216 211 215 299 327 225 229 223 227 299 327 211 215 225 229 231 236 213 217 214 218 137 335 230 235 231 236 137 335 146 288 230 235 282 296 90 90 293 336 2 328 280 294 268 279 75 75 270 281 77 77 214 218 137 335 231 236 199 203 201 205 243 325 244 326 186 190 221 225 247 252 201 205 200 204 41 41 32 32 33 337 36 36 38 38 305 338 40 40 38 339 23 23 304 341 303 333 306 340 304 334 301 330 255 262 307 342 163 165 165 167 121 121 164 166 162 164 145 145 307 342 146 146 153 153 272 283 307 342 309 345 308 344 300 343 212 346 308 344 309 345 303 333 308 347 306 340 263 271 303 333 304 341 303 333 300 329 308 347 306 348 308 344 212 346 88 88 220 322 90 90 219 349 293 336 90 90 1 1 57 57 130 130 180 184 181 185 310 350 217 221 118 161 311 351 276 290 312 352 277 291 192 196 120 159 159 160 11 11 141 141 9 9 110 110 142 142 169 171 276 290 258 353 312 352 181 185 287 301 313 354 71 71 72 72 288 303 269 280 267 278 314 355 286 300 284 298 207 313 316 358 315 357 275 356 112 112 315 357 316 358 302 331 275 356 315 357 253 259 254 260 302 331 269 280 278 359 270 281 278 359 269 280 279 360 70 70 177 361 314 355 311 363 179 362 295 315 177 361 70 70 178 364 315 357 112 112 45 45 315 357 45 45 302 331 43 43 113 113 296 316 118 118 296 316 311 365 43 43 296 316 119 119 73 73 167 317 166 314 134 134 139 367 25 366 158 368 117 117 116 116 295 315 69 69 67 67 300 343 293 311 297 320 197 201 216 220 203 207 18 18 202 369 83 83 20 20 15 371 14 370 194 372 15 371 6 6 36 36 305 338 317 373 34 34 318 374 33 33 38 339 40 40 305 375 41 41 33 337 318 376 265 276 168 377 128 128 264 275 287 378 168 377 180 184 310 350 312 379 312 352 313 380 277 291 51 51 217 381 161 163 313 354 312 379 310 350 313 380 283 297 277 291 292 382 53 53 170 172 10 383 261 269 259 267 192 384 48 48 46 46 86 385 97 97 96 96 94 94 236 386 80 80 96 96 87 387 86 385 80 80 238 388 61 61 192 384 46 46 53 53 161 163 217 381 311 389 50 50 217 381 51 51 123 123 11 390 10 383 50 50 169 391 217 381 10 383 259 267 123 123 128 128 168 377 169 391 258 353 261 269 10 383 264 275 168 377 265 276 125 125 182 186 319 392 171 173 172 174 183 393 140 140 24 24 25 25 31 31 28 28 157 157 29 29 30 30 113 182 171 173 320 394 173 175 27 27 112 183 316 395 124 124 125 125 321 396 175 177 139 367 133 133 155 155 25 366 27 397 31 398 116 116 156 156 155 155 27 397 147 147 149 149 27 397 316 399 30 400 152 152 151 151 124 124 321 396 320 401 320 394 319 402 173 175 30 400 156 156 152 152 158 368 172 174 117 117 175 177 182 403 139 367 133 133 139 367 134 134 147 147 27 397 149 149 319 392 320 401 321 396 319 402 176 178 173 175 311 404 151 151 179 181 171 173 183 393 320 394 182 403 176 178 319 402 124 124 320 401 183 187 125 125 319 392 321 396 30 400 31 398 156 156 116 116 31 398 158 368 0 0 298 323 220 224 297 320 293 311 294 312 295 315 166 314 311 363 314 355 177 361 322 405 206 310 289 305 288 303 295 315 179 362 69 69 74 74 295 315 67 67 68 68 314 355 267 278 269 280 314 355 279 360 288 303 170 304 71 71 215 264 291 307 216 309 113 113 311 365 296 316 280 294 267 278 268 279 68 68 89 89 67 67 68 68 70 70 314 355 74 74 73 73 295 315 281 295 286 300 288 303 302 331 254 260 275 356 255 262 291 307 215 264 276 290 261 269 258 353 287 378 283 297 313 380 180 184 312 379 258 266 181 185 313 354 310 350 192 384 11 390 48 48 11 390 123 123 48 48 128 128 169 391 50 50 160 162 118 161 217 221 192 196 292 406 120 159 192 384 53 53 292 382 166 168 161 163 311 389 176 178 182 403 175 177 282 296 91 91 90 90 280 294 88 88 89 89 280 294 0 321 88 88 274 285 271 282 153 153 220 322 219 349 90 90 0 0 1 1 298 323 83 83 202 369 203 407 15 371 20 20 6 6 83 83 203 407 54 54 55 55 203 407 292 408 194 372 4 4 82 82 34 34 317 373 318 374 318 376 305 375 39 39 194 372 82 82 257 409 194 372 6 6 4 4 14 370 32 32 21 21 23 23 38 339 37 410 16 16 37 410 18 18 54 54 203 407 55 55 305 338 318 374 317 373 305 375 40 40 39 39 257 409 82 82 208 212 59 59 143 143 129 129 59 59 129 129 130 130 131 131 294 312 219 223 220 224 298 323 132 132 129 129 294 312 131 131 297 320 143 143 144 144 271 282 272 283 153 153 301 330 304 334 299 411 130 130 57 57 59 59 322 405 279 360 314 355 178 364 70 70 69 69 179 362 178 364 69 69 71 71 167 317 73 73 306 348 212 346 299 411 309 345 210 412 212 346 309 345 138 138 214 413 137 137 214 413 138 138 309 345 144 144 138 138 309 345 214 413 210 412 136 136 60 60 135 135 307 342 272 283 163 165 165 167 301 330 299 411 146 146 307 342 165 167 145 145 153 153 307 342 250 255 302 331 44 44 284 298 285 299 263 271 263 271 304 341 256 273 251 332 75 75 252 414 273 284 3 3 2 2 251 256 273 284 2 2 285 299 300 329 303 333 144 144 300 343 297 320 309 345 300 343 144 144 251 332 268 279 75 75 252 414 75 75 76 76 263 271 208 272 284 298 77 77 270 281 278 359 60 60 136 136 59 59 300 329 282 296 293 336 316 415 65 65 279 293 103 103 323 416 104 104 238 243 254 287 78 417 102 102 106 106 324 418 99 99 107 419 92 92 101 420 100 100 86 385 94 94 107 419 236 386 183 393 172 174 158 368 63 63 238 388 78 421 242 422 66 66 65 65 102 102 324 418 323 423 323 416 325 424 104 104 242 422 81 81 66 66 86 385 100 100 97 97 99 99 108 425 107 419 92 92 107 419 94 94 61 61 238 388 63 63 325 426 323 423 324 418 325 424 109 109 104 104 103 103 101 420 323 416 108 425 109 109 325 424 102 102 323 423 101 101 106 106 325 426 324 418 242 422 87 387 81 81 87 387 96 96 81 81 80 80 236 386 238 388 237 242 254 287 238 243 275 286 242 247 316 427 283 297 287 378 264 275 206 210 55 55 292 408 194 198 257 428 215 219 299 411 304 334 306 348 316 429 279 360 322 405 316 429 322 405 177 361 289 305 206 310 292 430 289 305 292 430 170 304 291 307 164 166 121 121 42 42 43 43 119 119 255 262 164 166 291 307 218 222 196 200 202 206 15 15 195 199 13 13 194 198 215 219 193 197 41 41 318 376 39 39 203 207 216 220 292 431 34 34 36 36 317 373 23 23 37 410 16 16 33 337 32 32 14 370 18 18 37 410 202 369 14 370 21 21 20 20 242 422 65 65 316 415 77 302 63 63 78 421 134 134 25 366 155 155 26 26 112 183 27 27 113 182 30 30 311 432 30 400 151 151 311 404 177 179 149 149 316 399 109 109 108 425 99 99 106 106 108 108 325 426 103 103 100 100 101 420 266 277 235 240 236 241 87 87 240 245 85 85 241 246 242 247 275 286</p>
                </polylist>
            </mesh>
        </geometry>
    </library_geometries>
    <library_visual_scenes>
        <visual_scene id="VisualSceneNode">
            <node id="node0" name="m0" type="NODE">
                <instance_geometry url="#mesh0">
                    <bind_material>
                        <technique_common>
                            <instance_material symbol="Material1" target="#mat0">
                                <bind_vertex_input semantic="UVSET0" input_semantic="TEXCOORD" input_set="0"></bind_vertex_input>
                            </instance_material>
                        </technique_common>
                    </bind_material>
                </instance_geometry>
            </node>
        </visual_scene>
    </library_visual_scenes>
    <scene>
        <instance_visual_scene url="#VisualSceneNode"></instance_visual_scene>
    </scene>
</COLLADA>
