<?xml version="1.0"?>
<COLLADA xmlns="http://www.collada.org/2005/11/COLLADASchema" version="1.4.1">
    <asset>
        <contributor>
            <authoring_tool>J3D Ripoff Exporter</authoring_tool>
        </contributor>
        <created>2024-08-19T02:41:00.386Z</created>
        <modified>2024-08-19T02:41:00.386Z</modified>
		<unit meter="0.01" name="centimeter" ></unit>
        <up_axis>Y_UP</up_axis>
    </asset>
    <library_images>
        <image id="tex0">
            <init_from>miyamoto_skin.png</init_from>
        </image>
        <image id="tex1">
            <init_from>miyamoto_eye.png</init_from>
        </image>
    </library_images>
    <library_effects>
        <effect id="effect0">
            <profile_COMMON>
                <newparam sid="surface0">
                    <surface type="2D">
                        <init_from>tex1</init_from>
                    </surface>
                </newparam>
                <newparam sid="sampler0">
                    <sampler2D>
                        <source>surface0</source>
                    </sampler2D>
                </newparam>
                <technique sid="COMMON">
                    <blinn>
                        <diffuse>
                            <texture texture="sampler0" texcoord="UVSET0"></texture>
                        </diffuse>
                    </blinn>
                </technique>
            </profile_COMMON>
        </effect>
        <effect id="effect1">
            <profile_COMMON>
                <newparam sid="surface1">
                    <surface type="2D">
                        <init_from>tex0</init_from>
                    </surface>
                </newparam>
                <newparam sid="sampler1">
                    <sampler2D>
                        <source>surface1</source>
                    </sampler2D>
                </newparam>
                <technique sid="COMMON">
                    <blinn>
                        <diffuse>
                            <texture texture="sampler1" texcoord="UVSET0"></texture>
                        </diffuse>
                    </blinn>
                </technique>
            </profile_COMMON>
        </effect>
        <effect id="effect2">
            <profile_COMMON>
                <newparam sid="surface2">
                    <surface type="2D">
                        <init_from>tex0</init_from>
                    </surface>
                </newparam>
                <newparam sid="sampler2">
                    <sampler2D>
                        <source>surface2</source>
                    </sampler2D>
                </newparam>
                <technique sid="COMMON">
                    <blinn>
                        <diffuse>
                            <texture texture="sampler2" texcoord="UVSET0"></texture>
                        </diffuse>
                    </blinn>
                </technique>
            </profile_COMMON>
        </effect>
    </library_effects>
    <library_materials>
        <material id="mat0" name="Eye">
            <instance_effect url="#effect0"></instance_effect>
        </material>
        <material id="mat1" name="Skin_etc">
            <instance_effect url="#effect1"></instance_effect>
        </material>
        <material id="mat2" name="Skin_spc">
            <instance_effect url="#effect2"></instance_effect>
        </material>
    </library_materials>
    <library_geometries>
        <geometry id="mesh0">
            <mesh>
                <source id="points0">
                    <float_array id="pointarray0" count="909">61.12890625 8.0625 30.07421875 61.13671875 13.0703125 30.359375 60.7265625 14.171875 27.66015625 70.59765625 10.84765625 26.9765625 66.2265625 12.76171875 25.04296875 80.953125 8.23046875 21.171875 75.421875 10.5078125 19.66015625 86.1953125 7.0625 13.92578125 80.95703125 9.390625 13.25390625 88.64453125 7.01171875 7.1953125 83.65234375 9.1796875 7.09375 89.703125 7.69140625 0.03125 84.71875 9.66015625 0.3125 88.26171875 9.56640625 -7.12890625 83.3203125 11.375 -6.5 85.03125 11.84765625 -13.859375 80.21875 13.56640625 -12.8359375 80.046875 14.9609375 -20.40625 75.21484375 16.68359375 -19.17578125 71.7109375 18.8515625 -25.95703125 66.93359375 21.02734375 -25.26953125 63.2109375 22.890625 -30.7734375 66.65625 15.625 -24.58203125 70.47265625 16.484375 -27.29296875 74.703125 8.9296875 -17.9375 78.578125 9.484375 -21.98046875 79.7265625 4.30078125 -11.80859375 83.640625 4.01953125 -14.87109375 82.640625 1.41796875 -5.86328125 86.37109375 0.6015625 -7.8828125 83.9921875 -0.33203125 0.60546875 87.62890625 -1.65625 0.03125 82.91796875 -0.61328125 7.00390625 86.53515625 -2.16796875 7.94921875 79.98046875 -0.04296875 12.5859375 83.109375 -1.6328125 14.46875 74.35546875 1.625 18.69140625 77.3046875 0.45703125 22.3984375 66.11328125 4.5390625 23.1171875 70.3828125 3.1015625 26.83984375 59.8828125 6.73046875 27.51953125 63.22265625 6.078125 29.1875 54.13671875 13.7734375 33.37890625 62.19140625 14.2734375 30.65234375 62.49609375 16.9296875 30.79296875 71.9765625 11.9296875 27.9609375 72.4140625 15.2578125 27.9921875 82.33203125 9.55078125 22.0078125 83.63671875 13.7421875 21.63671875 87.3671875 8.765625 14.68359375 88.90625 13.25 14.69921875 90.4375 8.65625 7.41796875 91.8828125 13.56640625 7.2578125 91.0703125 9.46875 0.03125 92.62890625 14.2421875 0.03125 90.7421875 15.47265625 -7.1875 88.55078125 19.14453125 -5.2109375 85.453125 19.921875 -11.41015625 87.484375 21.9296875 -2.1328125 83.03515625 25.18359375 -12.65234375 86.125 25.06640625 -1.3828125 83.94140625 29.48828125 -2.3515625 63.5625 4.5859375 30.50390625 70.68359375 1.79296875 28.45703125 61.80078125 -1.32421875 29.25 69.56640625 -2.78125 26.12109375 68.390625 -8.5703125 20.82421875 76.3046875 -4.67578125 21.85546875 73.6171875 -12.328125 12.2265625 80.59765625 -7.2265625 13.87109375 73.37109375 -14.41015625 6.91796875 77.453125 -13.83984375 0.03125 72.75390625 -17.78515625 0.03125 73.37109375 -14.41015625 -6.8515625 65.16796875 -19.25390625 -5 63.90625 -16.73046875 -8.390625 51.3359375 -0.92578125 31.16796875 47.7890625 4.18359375 33.58984375 55.5 6.64453125 32.59375 44.234375 9.98828125 35.4609375 52.06640625 18.6796875 32.77734375 60.58984375 20.2890625 29.7265625 71.33984375 18.70703125 26.66015625 60.296875 26.03515625 28.09375 70.859375 26.69140625 24.45703125 68.203125 33.828125 20.296875 78.1796875 33.01171875 13.61328125 72.125 38.15234375 11.6640625 79.12109375 34.46875 5.4921875 47.7890625 4.18359375 -33.796875 55.5 6.64453125 -33.12109375 44.234375 9.98828125 -35.4609375 53.19921875 13.7734375 -33.90625 40.66015625 20.16796875 -34.79296875 52.06640625 21.9609375 -33.16015625 40.046875 27.3046875 -30.75 60.296875 27.5859375 -29.1875 58.0703125 34.12890625 -23.21875 69.671875 33.1484375 -21.140625 63.953125 39.26953125 -13.37890625 72.76953125 37.921875 -11.59765625 61.95703125 41.96484375 0.02734375 66.93359375 41.515625 0.03125 51.3359375 -0.92578125 -30.765625 61.80078125 -0.94921875 -28.80078125 69.5625 -2.109375 -26.2265625 68.390625 -8.5703125 -20.7578125 74.6640625 -3.484375 -22.1875 80.1640625 -6.81640625 -13.8046875 77.30859375 1.69140625 -23.375 85.01953125 2.16015625 -14.3984375 79.625 8.23046875 -22.515625 85.16015625 -3.640625 1.0703125 83.62109375 -4.38671875 8.5 87.5 7.37109375 1.12109375 86.13671875 7.55859375 8.01171875 87.19140625 9.20703125 1.1640625 85.87890625 9.32421875 7.8671875 84.21875 10.1640625 7.046875 81.62109375 11.46484375 13.12109375 80.71875 9.59765625 13.22265625 83.10546875 10.70703125 14.36328125 83.109375 9.046875 15.0703125 89.328125 11.25390625 -7.3515625 87.2265625 17.3671875 -14.6328125 86.02734375 13.484375 -14.6171875 80.61328125 19.58984375 -21.5625 80.94140625 16.49609375 -21.7734375 72.453125 21.5625 -27.0234375 71.44140625 19.796875 -27.62890625 65.4296875 15.28515625 20.1796875 71.0546875 14.6015625 19.18359375 64.9921875 16.42578125 25.640625 72.27734375 15.16015625 23.16796875 71.9375 13.03515625 23.87109375 78.015625 12.63671875 20.30859375 77.953125 10.05859375 20.8828125 76.35546875 9.02734375 16.75390625 82.421875 14.625 15.953125 82.44140625 -3.03125 -1.7109375 81.19140625 -1.5 -8.42578125 85.46484375 9.87890625 -1.52734375 84.1171875 11.21484375 -7.55078125 87.19140625 9.20703125 -1.5859375 85.77734375 10.5234375 -8.5 86.0390625 8.80859375 -8.9453125 83.01171875 11.28125 -15.58984375 83.7265625 -1.6796875 -9.85546875 80.38671875 0.87109375 -15.96484375 59.09765625 -10.11328125 20.46875 62.25 -14.80859375 11.4609375 63.90625 -16.73046875 8.390625 65.16796875 -19.25390625 5 65.46484375 -20.52734375 0 68.37890625 5.32421875 -21.60546875 71.41796875 17.8203125 -18.8515625 73.5859375 3.1484375 -19.19921875 76.2578125 11.55078125 -17.25 80.6171875 11.51171875 -13.67578125 82.3203125 16.9296875 -15.50390625 80.82421875 11.88671875 -18.6796875 78.25 2.52734375 -18.8828125 69.75390625 6.12109375 -29.29296875 61.125 14.92578125 -32.20703125 74.67578125 4.61328125 -22.27734375 77.8515625 13.26953125 -21.14453125 69.84765625 6.73046875 -25.94921875 71.9375 17.10546875 -24.09375 64.6015625 19.34375 -26.359375 64.9921875 20.74609375 -25.2578125 65.4296875 18.69140625 -20.0703125 81.6015625 7.203125 18.73828125 74.77734375 -2.44921875 21.859375 69.1875 -1.19921875 25.98828125 64.6015625 14.85546875 26.484375 41.53125 33.4453125 -22.34765625 56.90234375 38.87890625 -12.87890625 46.11328125 38.0390625 -11.98828125 56.83984375 41.92578125 0.02734375 50.05859375 43.26171875 0 46.11328125 38.0390625 11.98828125 76.8515625 11.70703125 17.12109375 72.41015625 -2.26171875 18.953125 66.78515625 -1.26953125 21.51953125 80.0703125 21.82421875 -19.140625 72.0625 22.84765625 -25.98828125 88.87109375 18.09765625 5.48046875 85.83984375 17.85546875 12.2890625 87.484375 21.9296875 2.22265625 83.03515625 25.515625 12.88671875 86.56640625 25.3984375 1.6171875 83.32421875 30.49609375 2.41796875 77.9140625 15.71484375 -20.140625 76.75 14.2578125 -17.15625 81.51953125 13.3359375 -13.2578125 83.0078125 12.80078125 -14.60546875 54.9375 -5.40234375 27.28125 60.2265625 7.99609375 30.96875 60.26953125 -17.94140625 12.08984375 59.64453125 -18.9140625 15.36328125 59.6015625 -15.79296875 11.21875 57.88671875 -17.61328125 18.58203125 57.65234375 -17.15234375 21.3203125 55.55078125 -21.69140625 21.03125 54.51171875 -22.1796875 23.3828125 52.81640625 -27.71875 23.015625 63.953125 38.78515625 13.4375 56.90234375 38.41015625 12.9375 58.0703125 34.04296875 22.97265625 41.53125 33.4453125 22.34765625 40.046875 27.3046875 30.75 80.3515625 18.12890625 19.21875 87.44140625 -4.046875 7.5390625 84.4921875 -3.4921875 13.99609375 78.3828125 -1.19921875 22.93359375 83.4296875 -8.81640625 0.03125 88.37109375 -3.3515625 0.03125 72.27734375 19.078125 -23.0390625 53.29296875 -40.1328125 19.75 52.53515625 -31.81640625 22.34765625 56.96484375 -30.4296875 21.296875 63.609375 -28.59765625 16.5859375 58.58203125 -25.96875 18.19140625 61.28125 -25.0859375 14.39453125 80.30078125 -3.765625 15.2734375 78.0078125 -3.11328125 19.2109375 66.859375 -27.01953125 8.3046875 59.41796875 -36.0390625 11.07421875 67.8203125 -25.8671875 0 61.921875 -36.421875 0 59.41796875 -36.0390625 -11.07421875 57.2578125 -42.28125 -11.1640625 54.9375 -5.40234375 -27.10546875 59.09765625 -10.11328125 -20.46875 62.25 -14.80859375 -11.453125 73.40234375 -12.328125 -12.15625 33.3203125 -45.9296875 27.3984375 43.78515625 -38.17578125 26.203125 48.8984375 -43.58984375 20.02734375 52.6796875 -43.16796875 17.1796875 55.52734375 -42.67578125 13.65625 53.2734375 -48.546875 11.25 40.04296875 -35.76171875 29.41796875 60.8828125 -14.3046875 15.41015625 54.53515625 -13.6171875 28.71875 50.68359375 -7.734375 29.1875 42.16796875 -23.3984375 32.37109375 57.2578125 -42.28125 11.1640625 60.8828125 -14.3046875 -15.72265625 54.53515625 -13.6171875 -28.71875 57.65234375 -17.15234375 -21.3203125 54.51171875 -22.1796875 -23.3828125 59.6015625 -15.79296875 -11.21875 57.88671875 -17.61328125 -18.58203125 60.64453125 -18.9140625 -15.36328125 58.79296875 -21.37890625 -17.66796875 58.58203125 -25.96875 -18.19140625 63.609375 -28.59765625 -16.5859375 61.57421875 -25.0859375 -14.39453125 66.859375 -27.01953125 -8.3046875 63.3125 -24.07421875 -9.30078125 62.9921875 -23.453125 -5.79296875 70.69140625 16.265625 -28.87890625 71.890625 27.40234375 -24.7109375 87.27734375 -1.26953125 -7.47265625 56.96484375 -30.4296875 -21.296875 53.29296875 -40.1328125 -19.75 61.77734375 -20.7265625 -6.52734375 60.79296875 -18.71484375 -8.72265625 60.26953125 -17.94140625 -12.08984375 55.55078125 -21.69140625 -21.03125 52.81640625 -27.71875 -23.015625 40.66015625 20.16796875 34.79296875 78.95703125 31.75 -13.203125 79.6875 34.02734375 -5.1171875 87.5 7.44921875 -1.73828125 85.16015625 -3.5234375 -1.7578125 85.46484375 9.87890625 1.26953125 82.44140625 -3.109375 1.01171875 63.95703125 -23.1328125 0 61.77734375 -20.7265625 6.52734375 60.79296875 -18.71484375 8.72265625 50.68359375 -7.734375 -29.1875 47.02734375 -13.39453125 -32.1640625 33.3203125 -45.9296875 -27.3984375 48.8984375 -43.58984375 -20.02734375 43.78515625 -38.17578125 -26.203125 52.53515625 -31.81640625 -22.34765625 60.09765625 -41.296875 0 61.8125 0.1953125 29.16015625 62.13671875 -1.2109375 22.62109375 78.22265625 -3.4765625 13.6953125 81.12109375 -3.7421875 7.14453125 63.3125 -24.07421875 9.30078125 62.9921875 -23.453125 5.79296875 62.5703125 7.65234375 -23.23828125 62.54296875 9.078125 -28.67578125 40.04296875 -35.76171875 -29.41796875 58.79296875 -21.37890625 17.66796875 42.16796875 -23.3984375 -32.390625 89.4921875 18.4296875 0.046875 47.02734375 -13.39453125 32.1640625 78.5703125 0.46875 -14.25390625</float_array>
                    <technique_common>
                        <accessor count="303" source="#pointarray0" stride="3">
                            <param name="X" type="float"/>
                            <param name="Y" type="float"/>
                            <param name="Z" type="float"/>
                        </accessor>
                    </technique_common>
                </source>
                <source id="uvs0">
                    <float_array id="uvarray0" count="562">0.69451904296875 0.08624267578125 0.69451904296875 0.08612060546875 0.664306640625 0.1175537109375 0.6954345703125 0.088134765625 0.66546630859375 0.114501953125 0.68707275390625 0.07708740234375 0.659912109375 0.11590576171875 0.66912841796875 0.0467529296875 0.64892578125 0.10650634765625 0.64544677734375 0.0277099609375 0.63885498046875 0.09881591796875 0.62799072265625 0.020751953125 0.62701416015625 0.091552734375 0.6441650390625 0.0284423828125 0.63702392578125 0.09918212890625 0.6640625 0.03973388671875 0.64776611328125 0.1060791015625 0.6790771484375 0.0584716796875 0.65679931640625 0.11004638671875 0.69622802734375 0.0869140625 0.66290283203125 0.11456298828125 0.692626953125 0.0838623046875 0.66253662109375 0.1175537109375 0.66009521484375 0.11785888671875 0.649169921875 0.10675048828125 0.63812255859375 0.0994873046875 0.62750244140625 0.091552734375 0.63824462890625 0.0977783203125 0.6478271484375 0.10693359375 0.660888671875 0.1180419921875 0.6641845703125 0.1175537109375 0.6640625 0.11614990234375 0.69000244140625 0.0838623046875 0.41815185546875 0.788330078125 0.44769287109375 0.788330078125 0.419189453125 0.78338623046875 0.4146728515625 0.77264404296875 0.38836669921875 0.794921875 0.38177490234375 0.78179931640625 0.3555908203125 0.805419921875 0.34539794921875 0.790771484375 0.32513427734375 0.81024169921875 0.31719970703125 0.79266357421875 0.29156494140625 0.81005859375 0.287841796875 0.79083251953125 0.257568359375 0.80657958984375 0.2578125 0.78729248046875 0.2259521484375 0.7799072265625 0.23004150390625 0.761962890625 0.20550537109375 0.757080078125 0.245849609375 0.7432861328125 0.20123291015625 0.73895263671875 0.249755859375 0.73028564453125 0.2459716796875 0.7109375 0.41143798828125 0.832763671875 0.394775390625 0.8421630859375 0.4132080078125 0.8367919921875 0.3919677734375 0.85040283203125 0.41375732421875 0.87158203125 0.3828125 0.87176513671875 0.36663818359375 0.90380859375 0.3524169921875 0.8770751953125 0.3260498046875 0.91259765625 0.320556640625 0.88653564453125 0.29351806640625 0.9310302734375 0.25775146484375 0.9217529296875 0.25750732421875 0.949951171875 0.22119140625 0.93017578125 0.2265625 0.98370361328125 0.20147705078125 0.9654541015625 0.47052001953125 0.87225341796875 0.485595703125 0.84051513671875 0.44573974609375 0.82733154296875 0.49420166015625 0.80615234375 0.45098876953125 0.762939453125 0.41375732421875 0.75537109375 0.3782958984375 0.76617431640625 0.4017333984375 0.73101806640625 0.3656005859375 0.73443603515625 0.3507080078125 0.7010498046875 0.315185546875 0.70989990234375 0.31695556640625 0.6788330078125 0.28094482421875 0.6925048828125 0.02740478515625 0.84051513671875 0.0631103515625 0.82708740234375 0.01458740234375 0.80615234375 0.0570068359375 0.7880859375 0.0123291015625 0.75201416015625 0.062255859375 0.74810791015625 0.02587890625 0.714111328125 0.10565185546875 0.724365234375 0.12579345703125 0.68896484375 0.1571044921875 0.7076416015625 0.18426513671875 0.6688232421875 0.1971435546875 0.68621826171875 0.25653076171875 0.64447021484375 0.257080078125 0.67633056640625 0.046142578125 0.8739013671875 0.09527587890625 0.8651123046875 0.1270751953125 0.866943359375 0.145751953125 0.90203857421875 0.15216064453125 0.87030029296875 0.194091796875 0.882568359375 0.149169921875 0.84600830078125 0.18896484375 0.8450927734375 0.1478271484375 0.8173828125 0.18267822265625 0.8363037109375 0.14593505859375 0.8092041015625 0.5325927734375 0.65350341796875 0.53228759765625 0.697021484375 0.5743408203125 0.6536865234375 0.5675048828125 0.69561767578125 0.57891845703125 0.65386962890625 0.5721435546875 0.69580078125 0.582275390625 0.6951904296875 0.583740234375 0.73870849609375 0.56878662109375 0.7388916015625 0.5732421875 0.73895263671875 0.22210693359375 0.7977294921875 0.195068359375 0.7713623046875 0.18798828125 0.78558349609375 0.16253662109375 0.7603759765625 0.15838623046875 0.7723388671875 0.12408447265625 0.7493896484375 0.11590576171875 0.7540283203125 0.0931396484375 0.7398681640625 0.12451171875 0.759033203125 0.5987548828125 0.8721923828125 0.59637451171875 0.82598876953125 0.5767822265625 0.8729248046875 0.5760498046875 0.82806396484375 0.57073974609375 0.828125 0.5748291015625 0.783203125 0.56988525390625 0.78314208984375 0.58233642578125 0.75799560546875 0.257080078125 0.816162109375 0.22015380859375 0.80621337890625 0.18548583984375 0.794189453125 0.15545654296875 0.77972412109375 0.53314208984375 0.6529541015625 0.5799560546875 0.6541748046875 0.57843017578125 0.65374755859375 0.5318603515625 0.7401123046875 0.39666748046875 0.93212890625 0.35833740234375 0.95111083984375 0.31158447265625 0.9654541015625 0.28814697265625 0.98370361328125 0.25701904296875 0.99188232421875 0.5313720703125 0.82757568359375 0.53155517578125 0.7852783203125 0.56231689453125 0.76055908203125 0.53173828125 0.76287841796875 0.1175537109375 0.8260498046875 0.085205078125 0.7830810546875 0.5313720703125 0.82769775390625 0.571533203125 0.873291015625 0.57586669921875 0.884765625 0.05157470703125 0.6636962890625 0.172607421875 0.641845703125 0.14019775390625 0.5966796875 0.25665283203125 0.60614013671875 0.257080078125 0.57562255859375 0.36492919921875 0.59539794921875 0.5948486328125 0.78228759765625 0.17059326171875 0.750732421875 0.128173828125 0.74432373046875 0.28509521484375 0.7705078125 0.31103515625 0.7708740234375 0.26837158203125 0.7432861328125 0.3111572265625 0.73931884765625 0.26446533203125 0.72857666015625 0.26812744140625 0.70556640625 0.43829345703125 0.904296875 0.41741943359375 0.81048583984375 0.414794921875 0.810546875 0.86737060546875 0.76318359375 0.83349609375 0.77130126953125 0.86834716796875 0.74737548828125 0.80010986328125 0.7607421875 0.77899169921875 0.75128173828125 0.775390625 0.793701171875 0.75604248046875 0.7965087890625 0.76385498046875 0.84710693359375 0.3272705078125 0.66595458984375 0.33734130859375 0.64031982421875 0.38018798828125 0.686279296875 0.44140625 0.64947509765625 0.48681640625 0.71044921875 0.34051513671875 0.76885986328125 0.2978515625 0.8653564453125 0.2926025390625 0.87078857421875 0.3314208984375 0.86224365234375 0.3228759765625 0.86871337890625 0.3543701171875 0.8631591796875 0.25799560546875 0.89337158203125 0.25762939453125 0.8704833984375 0.257080078125 0.8658447265625 0.8017578125 0.94317626953125 0.7738037109375 0.8798828125 0.797607421875 0.86761474609375 0.8502197265625 0.849365234375 0.80426025390625 0.82769775390625 0.843505859375 0.8197021484375 0.92431640625 0.83892822265625 0.88665771484375 0.91436767578125 0.992431640625 0.8291015625 0.992431640625 0.9166259765625 0.88720703125 0.91424560546875 0.87640380859375 0.9671630859375 0.07513427734375 0.90478515625 0.11444091796875 0.9312744140625 0.15716552734375 0.952880859375 0.18743896484375 0.9110107421875 0.7147216796875 0.99688720703125 0.72869873046875 0.918212890625 0.79156494140625 0.9793701171875 0.81634521484375 0.97406005859375 0.84918212890625 0.96905517578125 0.842041015625 0.99786376953125 0.687255859375 0.9073486328125 0.8629150390625 0.72125244140625 0.81695556640625 0.72515869140625 0.76837158203125 0.68914794921875 0.714111328125 0.72491455078125 0.72271728515625 0.65985107421875 0.6759033203125 0.681884765625 0.66131591796875 0.81475830078125 0.876953125 0.9671630859375 0.81689453125 0.72515869140625 0.714111328125 0.7249755859375 0.7789306640625 0.75128173828125 0.7562255859375 0.79644775390625 0.80963134765625 0.791748046875 0.85040283203125 0.84930419921875 0.92437744140625 0.83892822265625 0.89727783203125 0.81060791015625 0.93353271484375 0.80755615234375 0.11566162109375 0.77996826171875 0.142822265625 0.73077392578125 0.22137451171875 0.86041259765625 0.79840087890625 0.867431640625 0.80462646484375 0.9425048828125 0.92486572265625 0.786376953125 0.9449462890625 0.7669677734375 0.8985595703125 0.7705078125 0.77545166015625 0.793701171875 0.21624755859375 0.85382080078125 0.7642822265625 0.8470458984375 0.38958740234375 0.80474853515625 0.11767578125 0.77392578125 0.4981689453125 0.74761962890625 0.1971435546875 0.71484375 0.233154296875 0.69677734375 0.5789794921875 0.6534423828125 0.57293701171875 0.65313720703125 0.57989501953125 0.65435791015625 0.53302001953125 0.65313720703125 0.53240966796875 0.65447998046875 0.57916259765625 0.654052734375 0.57989501953125 0.65313720703125 0.57293701171875 0.6544189453125 0.53240966796875 0.65313720703125 0.53314208984375 0.65447998046875 0.992431640625 0.784912109375 0.992431640625 0.8035888671875 0.65447998046875 0.73406982421875 0.77471923828125 0.87969970703125 0.992431640625 0.9571533203125 0.53125 0.87872314453125 0.53106689453125 0.8909912109375 0.58111572265625 0.65380859375 0.90948486328125 0.7396240234375 0.57391357421875 0.65350341796875 0.532958984375 0.6529541015625 0.35687255859375 0.85626220703125 0.53125 0.87860107421875 0.25714111328125 0.76776123046875 0.2939453125 0.81976318359375 0.32861328125 0.81964111328125 0.358642578125 0.81549072265625 0.53271484375 0.653564453125</float_array>
                    <technique_common>
                        <accessor count="281" source="#uvarray0" stride="2">
                            <param name="S" type="float"/>
                            <param name="T" type="float"/>
                        </accessor>
                    </technique_common>
                </source>
                <vertices id="vertices0">
                    <input semantic="POSITION" source="#points0"/>
                </vertices>
                <polylist count="511" material="Material1">
                    <input offset="0" semantic="VERTEX" source="#vertices0"/>
                    <input offset="1" semantic="TEXCOORD" source="#uvs0" set="0"/>
                    <vcount>3 3 3 3 3 3 3 3 3 3 3 3 3 3 3 3 3 3 3 3 3 3 3 3 3 3 3 3 3 3 3 3 3 3 3 3 3 3 3 3 3 3 3 3 3 3 3 3 3 3 3 3 3 3 3 3 3 3 3 3 3 3 3 3 3 3 3 3 3 3 3 3 3 3 3 3 3 3 3 3 3 3 3 3 3 3 3 3 3 3 3 3 3 3 3 3 3 3 3 3 3 3 3 3 3 3 3 3 3 3 3 3 3 3 3 3 3 3 3 3 3 3 3 3 3 3 3 3 3 3 3 3 3 3 3 3 3 3 3 3 3 3 3 3 3 3 3 3 3 3 3 3 3 3 3 3 3 3 3 3 3 3 3 3 3 3 3 3 3 3 3 3 3 3 3 3 3 3 3 3 3 3 3 3 3 3 3 3 3 3 3 3 3 3 3 3 3 3 3 3 3 3 3 3 3 3 3 3 3 3 3 3 3 3 3 3 3 3 3 3 3 3 3 3 3 3 3 3 3 3 3 3 3 3 3 3 3 3 3 3 3 3 3 3 3 3 3 3 3 3 3 3 3 3 3 3 3 3 3 3 3 3 3 3 3 3 3 3 3 3 3 3 3 3 3 3 3 3 3 3 3 3 3 3 3 3 3 3 3 3 3 3 3 3 3 3 3 3 3 3 3 3 3 3 3 3 3 3 3 3 3 3 3 3 3 3 3 3 3 3 3 3 3 3 3 3 3 3 3 3 3 3 3 3 3 3 3 3 3 3 3 3 3 3 3 3 3 3 3 3 3 3 3 3 3 3 3 3 3 3 3 3 3 3 3 3 3 3 3 3 3 3 3 3 3 3 3 3 3 3 3 3 3 3 3 3 3 3 3 3 3 3 3 3 3 3 3 3 3 3 3 3 3 3 3 3 3 3 3 3 3 3 3 3 3 3 3 3 3 3 3 3 3 3 3 3 3 3 3 3 3 3 3 3 3 3 3 3 3 3 3 3 3 3 3 3 3 3 3 3 3 3 3 3 3 3 3 3 3 3 3 3 3 3 3 3 3 3 3 3 3 3 3 3 3 3 3 3 3 3 3 3 3 3 3 3 3 3 3 3 3 3 3 3 3 3 3 3 3 3 3 3 3 3 3 3 3 3 3 3 3</vcount>
                    <p>2 2 1 1 0 0 3 3 1 1 2 2 4 4 3 3 2 2 5 5 3 3 4 4 6 6 5 5 4 4 7 7 5 5 6 6 8 8 7 7 6 6 9 9 7 7 8 8 10 10 9 9 8 8 11 11 9 9 10 10 12 12 11 11 10 10 13 13 11 11 12 12 14 14 13 13 12 12 15 15 13 13 14 14 16 16 15 15 14 14 17 17 15 15 16 16 18 18 17 17 16 16 19 19 17 17 18 18 20 20 19 19 18 18 21 21 19 19 20 20 22 22 21 21 20 20 23 19 21 21 22 22 24 23 23 19 22 22 25 17 23 19 24 23 26 24 25 17 24 23 27 15 25 17 26 24 28 25 27 15 26 24 29 13 27 15 28 25 30 26 29 13 28 25 31 11 29 13 30 26 32 27 31 11 30 26 33 9 31 11 32 27 34 28 33 9 32 27 35 7 33 9 34 28 36 29 35 7 34 28 37 5 35 7 36 29 38 30 37 5 36 29 39 3 37 5 38 30 40 31 39 3 38 30 41 32 39 3 40 31 0 0 41 32 40 31 40 31 2 2 0 0 4 4 2 2 40 31 38 30 4 4 40 31 6 6 4 4 38 30 36 29 6 6 38 30 8 8 6 6 36 29 34 28 8 8 36 29 10 10 8 8 34 28 32 27 10 10 34 28 12 12 10 10 32 27 30 26 12 12 32 27 14 14 12 12 30 26 28 25 14 14 30 26 16 16 14 14 28 25 26 24 16 16 28 25 18 18 16 16 26 24 24 23 18 18 26 24 20 20 18 18 24 23 22 22 20 20 24 23 43 35 42 34 1 33 44 36 42 34 43 35 45 37 44 36 43 35 46 38 44 36 45 37 47 39 46 38 45 37 48 40 46 38 47 39 49 41 48 40 47 39 50 42 48 40 49 41 51 43 50 42 49 41 52 44 50 42 51 43 53 45 52 44 51 43 54 46 52 44 53 45 55 47 54 46 53 45 56 48 54 46 55 47 57 49 56 48 55 47 58 50 56 48 57 49 59 51 58 50 57 49 60 52 58 50 59 51 61 53 60 52 59 51 62 56 39 55 41 54 63 57 39 55 62 56 64 58 63 57 62 56 65 59 63 57 64 58 66 60 65 59 64 58 67 61 65 59 66 60 68 62 67 61 66 60 69 63 67 61 68 62 70 64 69 63 68 62 71 65 69 63 70 64 72 66 71 65 70 64 73 67 71 65 72 66 74 68 73 67 72 66 75 69 73 67 74 68 78 72 77 71 76 70 79 73 77 71 78 72 42 34 79 73 78 72 80 74 79 73 42 34 44 36 80 74 42 34 81 75 80 74 44 36 82 76 81 75 44 36 83 77 81 75 82 76 84 78 83 77 82 76 85 79 83 77 84 78 86 80 85 79 84 78 87 81 85 79 86 80 88 82 87 81 86 80 91 85 90 84 89 83 92 86 90 84 91 85 93 87 92 86 91 85 94 88 92 86 93 87 95 89 94 88 93 87 96 90 94 88 95 89 97 91 96 90 95 89 98 92 96 90 97 91 99 93 98 92 97 91 100 94 98 92 99 93 101 95 100 94 99 93 102 96 100 94 101 95 87 81 102 96 101 95 90 84 103 97 89 83 104 98 103 97 90 84 105 99 104 98 90 84 106 100 104 98 105 99 107 101 106 100 105 99 108 102 106 100 107 101 109 103 108 102 107 101 110 104 108 102 109 103 111 105 110 104 109 103 27 106 110 104 111 105 25 107 27 106 111 105 114 110 113 109 112 108 115 111 113 109 114 110 116 112 115 111 114 110 117 113 115 111 116 112 118 114 117 113 116 112 119 115 117 113 118 114 120 116 119 115 118 114 121 117 119 115 120 116 122 116 121 117 120 116 117 113 121 117 122 116 115 111 117 113 122 116 123 118 55 47 53 45 124 119 55 47 123 118 125 120 124 119 123 118 126 121 124 119 125 120 127 122 126 121 125 120 128 123 126 121 127 122 129 124 128 123 127 122 21 125 128 123 129 124 19 126 21 125 129 124 132 129 131 128 130 127 133 130 131 128 132 129 134 131 133 130 132 129 135 132 133 130 134 131 136 133 135 132 134 131 137 133 135 132 136 133 138 134 137 133 136 133 120 116 137 133 138 134 122 116 120 116 138 134 11 135 53 45 51 43 123 118 53 45 11 135 13 136 123 118 11 135 125 120 123 118 13 136 15 137 125 120 13 136 127 122 125 120 15 137 17 138 127 122 15 137 19 126 127 122 17 138 141 140 140 109 139 139 142 114 140 109 141 140 143 141 142 114 141 140 144 113 142 114 143 141 145 111 144 113 143 141 146 116 144 113 145 111 147 109 146 116 145 111 148 142 146 116 147 109 150 144 66 60 149 143 68 62 66 60 150 144 151 145 68 62 150 144 70 64 68 62 151 145 152 146 70 64 151 145 72 66 70 64 152 146 153 147 72 66 152 146 74 68 72 66 153 147 156 149 155 128 154 148 157 133 155 128 156 149 158 116 157 133 156 149 159 134 157 133 158 116 146 116 159 134 158 116 160 150 159 134 146 116 148 142 160 150 146 116 161 151 160 150 148 142 105 99 109 103 107 101 162 152 109 103 105 99 90 84 162 152 105 99 163 153 162 152 90 84 92 86 163 153 90 84 21 125 163 153 92 86 94 88 21 125 92 86 96 90 21 125 94 88 164 149 160 150 161 151 165 133 160 150 164 149 166 154 165 133 164 149 167 131 165 133 166 154 168 155 167 131 166 154 169 129 167 131 168 155 170 156 169 129 168 155 136 133 172 149 171 150 173 154 172 149 136 133 134 131 173 154 136 133 174 155 173 154 134 131 132 129 174 155 134 131 130 156 174 155 132 129 175 157 97 91 95 89 176 158 97 91 175 157 177 159 176 158 175 157 178 160 176 158 177 159 179 161 178 160 177 159 180 162 178 160 179 161 135 132 131 128 133 130 181 163 131 128 135 132 137 133 181 163 135 132 131 128 181 163 137 133 182 149 131 128 137 133 183 148 131 128 182 149 124 119 57 49 55 47 184 164 57 49 124 119 126 121 184 164 124 119 185 165 184 164 126 121 128 123 185 165 126 121 21 125 185 165 128 123 186 166 52 44 54 46 187 167 52 44 186 166 188 168 187 167 186 166 189 169 187 167 188 168 190 170 189 169 188 168 191 171 189 169 190 170 165 133 159 134 160 150 157 133 159 134 165 133 192 132 157 133 165 133 193 163 157 133 192 132 155 128 193 163 192 132 157 133 193 163 155 128 142 114 158 116 140 109 194 115 158 116 142 114 144 113 194 115 142 114 195 117 194 115 144 113 146 116 195 117 144 113 158 116 195 117 146 116 64 58 76 70 196 172 78 72 76 70 64 58 62 56 78 72 64 58 197 173 78 72 62 56 41 54 197 173 62 56 0 174 197 173 41 54 200 177 199 176 198 175 201 178 199 176 200 177 202 179 201 178 200 177 203 180 201 178 202 179 204 181 203 180 202 179 205 182 203 180 204 181 178 160 101 95 99 93 206 183 101 95 178 160 207 184 206 183 178 160 208 185 206 183 207 184 209 186 208 185 207 184 210 187 208 185 209 186 84 78 189 169 86 80 211 188 189 169 84 78 82 76 211 188 84 78 48 40 211 188 82 76 46 38 48 40 82 76 35 191 212 190 33 189 213 192 212 190 35 191 214 193 213 192 35 191 69 63 213 192 214 193 67 61 69 63 214 193 215 194 69 63 71 65 212 190 69 63 215 194 216 195 212 190 215 194 33 189 212 190 216 195 31 196 33 189 216 195 167 131 192 132 165 133 217 130 192 132 167 131 169 129 217 130 167 131 155 128 217 130 169 129 170 127 155 128 169 129 220 199 219 198 218 197 205 182 219 198 220 199 221 200 205 182 220 199 222 201 205 182 221 200 223 202 222 201 221 200 122 116 113 109 115 111 224 142 113 109 122 116 171 150 224 142 122 116 225 151 224 142 171 150 172 149 225 151 171 150 227 204 226 203 221 200 228 205 226 203 227 204 229 206 228 205 227 204 230 207 228 205 229 206 231 208 230 207 229 206 106 100 233 210 232 209 234 211 233 210 106 100 235 212 234 211 106 100 75 69 234 211 235 212 73 67 75 69 235 212 238 215 237 214 236 213 218 197 237 214 238 215 239 216 218 197 238 215 240 217 218 197 239 216 241 218 240 217 239 216 219 198 237 214 218 197 242 219 237 214 219 198 205 182 242 219 219 198 204 181 242 219 205 182 149 222 243 221 150 220 244 223 243 221 149 222 196 224 244 223 149 222 245 225 244 223 196 224 204 181 246 226 242 219 244 223 246 226 204 181 202 179 244 223 204 181 243 221 244 223 202 179 218 197 221 200 220 199 227 204 221 200 218 197 240 217 227 204 218 197 247 227 227 204 240 217 248 228 233 222 234 220 249 229 233 222 248 228 250 230 249 229 248 228 251 231 249 229 250 230 252 177 250 230 248 228 253 178 250 230 252 177 254 176 253 178 252 177 255 232 253 178 254 176 258 202 257 233 256 201 259 234 257 233 258 202 260 235 259 234 258 202 261 236 259 234 260 235 162 152 111 105 109 103 262 237 111 105 162 152 163 153 262 237 162 152 21 125 262 237 163 153 184 164 59 51 57 49 263 238 59 51 184 164 185 165 263 238 184 164 21 125 263 238 185 165 108 102 215 194 71 65 264 239 215 194 108 102 110 104 264 239 108 102 27 106 264 239 110 104 257 233 266 241 265 240 230 207 266 241 257 233 259 234 230 207 257 233 228 205 230 207 259 234 268 244 74 243 267 242 252 177 74 243 268 244 269 175 252 177 268 244 254 176 252 177 269 175 270 245 253 178 255 232 250 230 253 178 270 245 251 231 250 230 270 245 264 239 216 195 215 194 29 246 216 195 264 239 27 106 29 246 264 239 270 245 271 247 251 231 256 201 271 247 270 245 255 232 256 201 270 245 3 248 43 35 1 33 45 37 43 35 3 248 47 39 45 37 3 248 197 173 42 34 78 72 1 33 42 34 197 173 0 174 1 33 197 173 23 249 262 237 21 125 111 105 262 237 23 249 25 107 111 105 23 249 83 77 80 74 81 75 272 250 80 74 83 77 210 187 272 250 83 77 211 188 187 167 189 169 50 42 187 167 211 188 48 40 50 42 211 188 108 102 235 212 106 100 73 67 235 212 108 102 71 65 73 67 108 102 273 251 59 51 263 238 61 53 59 51 273 251 274 252 61 53 273 251 273 251 100 94 274 252 98 92 100 94 273 251 263 238 98 92 273 251 141 255 275 254 143 253 276 256 275 254 141 255 139 257 276 256 141 255 114 260 277 259 116 258 278 261 277 259 114 260 112 262 278 261 114 260 152 243 279 264 153 263 280 242 279 264 152 243 281 244 280 242 152 243 249 229 232 224 233 222 282 225 232 224 249 229 283 265 282 225 249 229 286 214 285 215 284 213 266 241 285 215 286 214 287 266 266 241 286 214 279 264 74 243 153 263 267 242 74 243 279 264 261 236 267 242 279 264 279 264 259 234 261 236 228 205 259 234 279 264 226 203 228 205 279 264 229 206 288 267 231 208 247 227 288 267 229 206 227 204 247 227 229 206 174 155 289 268 173 154 290 269 289 268 174 155 130 156 290 269 174 155 120 116 182 149 137 133 291 142 182 149 120 116 292 109 291 142 120 116 118 114 292 109 120 116 277 270 292 109 118 114 116 112 277 270 118 114 226 203 223 202 221 200 293 235 223 202 226 203 294 236 293 235 226 203 252 177 75 271 74 243 234 220 75 271 252 177 248 228 234 220 252 177 168 155 295 269 170 156 296 268 295 269 168 155 166 154 296 268 168 155 275 272 145 111 143 141 147 109 145 111 275 272 276 273 147 109 275 272 176 158 99 93 97 91 178 160 99 93 176 158 271 247 257 233 265 240 256 201 257 233 271 247 196 172 66 60 64 58 149 143 66 60 196 172 297 219 287 266 286 214 271 247 287 266 297 219 266 241 231 208 285 215 230 207 231 208 266 241 287 266 265 240 266 241 271 247 265 240 287 266 207 184 180 162 209 186 178 160 180 162 207 184 83 77 208 185 210 187 85 79 208 185 83 77 85 79 206 183 208 185 87 81 206 183 85 79 37 274 214 193 35 191 39 55 214 193 37 274 201 178 298 232 199 176 203 180 298 232 201 178 281 244 200 177 198 175 152 243 200 177 281 244 151 271 200 177 152 243 150 220 200 177 151 271 243 221 200 177 150 220 202 179 200 177 243 221 222 201 203 180 205 182 298 232 203 180 222 201 295 275 155 128 170 155 154 148 155 128 295 275 96 90 263 238 21 125 98 92 263 238 96 90 63 57 214 193 39 55 65 59 214 193 63 57 138 134 171 150 122 116 136 133 171 150 138 134 104 98 232 209 103 97 106 100 232 209 104 98 251 231 297 219 299 226 271 247 297 219 251 231 290 275 131 128 183 148 130 155 131 128 290 275 300 276 54 46 56 48 186 166 54 46 300 276 249 229 299 226 283 265 251 231 299 226 249 229 88 82 189 169 191 171 86 80 189 169 88 82 9 277 51 43 49 41 11 135 51 43 9 277 7 278 49 41 47 39 9 277 49 41 7 278 244 223 301 265 246 226 245 225 301 265 244 223 302 142 158 116 156 149 140 109 158 116 302 142 5 279 47 39 3 248 7 278 47 39 5 279 213 192 69 63 212 190 214 193 65 59 67 61 79 73 80 74 272 250 158 116 194 115 195 117 155 128 192 132 217 130 294 236 279 264 280 242 29 246 31 196 216 195 87 81 101 95 206 183 292 109 277 270 278 280 119 115 121 117 117 113 19 126 129 124 127 122 44 36 46 38 82 76 187 167 50 42 52 44 226 203 279 264 294 236</p>
                </polylist>
            </mesh>
        </geometry>
        <geometry id="mesh1">
            <mesh>
                <source id="points1">
                    <float_array id="pointarray1" count="66">58.58203125 -25.96875 18.19140625 58.79296875 -21.37890625 17.66796875 60.515625 -20.9453125 14.921875 59.64453125 -18.9140625 15.36328125 63.03515625 -20.41796875 10.4375 60.26953125 -17.94140625 12.08984375 60.79296875 -18.71484375 8.72265625 58.79296875 -21.37890625 -17.66796875 61.515625 -20.9453125 -14.921875 60.64453125 -18.9140625 -15.36328125 63.03515625 -20.41796875 -10.4375 60.26953125 -17.94140625 -12.08984375 60.79296875 -18.71484375 -8.72265625 61.77734375 -20.7265625 6.52734375 62.9921875 -23.453125 5.79296875 63.3125 -24.07421875 9.30078125 58.58203125 -25.96875 -18.19140625 61.57421875 -25.0859375 -14.39453125 63.3125 -24.07421875 -9.30078125 61.28125 -25.0859375 14.39453125 61.77734375 -20.7265625 -6.52734375 62.9921875 -23.453125 -5.79296875</float_array>
                    <technique_common>
                        <accessor count="22" source="#pointarray1" stride="3">
                            <param name="X" type="float"/>
                            <param name="Y" type="float"/>
                            <param name="Z" type="float"/>
                        </accessor>
                    </technique_common>
                </source>
                <source id="uvs1">
                    <float_array id="uvarray1" count="22">0.8660888671875 0.63818359375 0.827392578125 0.36566162109375 0.63311767578125 0.314697265625 0.6593017578125 0.15032958984375 0.37677001953125 0.3052978515625 0.46856689453125 0.11029052734375 0.29083251953125 0.18475341796875 0.17169189453125 0.35443115234375 0.1234130859375 0.5323486328125 0.33111572265625 0.5323486328125 0.63616943359375 0.5828857421875</float_array>
                    <technique_common>
                        <accessor count="11" source="#uvarray1" stride="2">
                            <param name="S" type="float"/>
                            <param name="T" type="float"/>
                        </accessor>
                    </technique_common>
                </source>
                <vertices id="vertices1">
                    <input semantic="POSITION" source="#points1"/>
                </vertices>
                <polylist count="22" material="Material1">
                    <input offset="0" semantic="VERTEX" source="#vertices1"/>
                    <input offset="1" semantic="TEXCOORD" source="#uvs1" set="0"/>
                    <vcount>3 3 3 3 3 3 3 3 3 3 3 3 3 3 3 3 3 3 3 3 3 3</vcount>
                    <p>2 2 1 1 0 0 3 3 1 1 2 2 4 4 3 3 2 2 5 5 3 3 4 4 6 6 5 5 4 4 9 3 8 2 7 1 10 4 8 2 9 3 11 5 10 4 9 3 12 6 10 4 11 5 4 4 13 7 6 6 14 8 13 7 4 4 15 9 14 8 4 4 8 2 16 0 7 1 17 10 16 0 8 2 18 9 17 10 8 2 19 10 2 2 0 0 15 9 2 2 19 10 20 7 10 4 12 6 21 8 10 4 20 7 18 9 10 4 21 8 8 2 10 4 18 9 2 2 15 9 4 4</p>
                </polylist>
            </mesh>
        </geometry>
        <geometry id="mesh2">
            <mesh>
                <source id="points2">
                    <float_array id="pointarray2" count="51">87.484375 21.9296875 2.22265625 86.56640625 25.3984375 1.6171875 87.55859375 26.0390625 0.03125 83.32421875 30.49609375 2.41796875 85.01171875 34.82421875 0.03125 79.12109375 34.46875 5.4921875 86.95703125 48.29296875 0.03125 72.125 38.15234375 11.6640625 66.93359375 41.515625 0.03125 72.76953125 37.921875 -11.59765625 79.6875 34.02734375 -5.1171875 83.94140625 29.48828125 -2.3515625 88.55078125 19.14453125 -5.2109375 89.4921875 18.4296875 0.046875 87.484375 21.9296875 -2.1328125 86.125 25.06640625 -1.3828125 88.87109375 18.09765625 5.48046875</float_array>
                    <technique_common>
                        <accessor count="17" source="#pointarray2" stride="3">
                            <param name="X" type="float"/>
                            <param name="Y" type="float"/>
                            <param name="Z" type="float"/>
                        </accessor>
                    </technique_common>
                </source>
                <source id="uvs2">
                    <float_array id="uvarray2" count="22">0.09967041015625 0.978759765625 0.09014892578125 0.984130859375 0.0771484375 0.9962158203125 0.0771484375 0.9833984375 0.047119140625 0.9962158203125 0.062744140625 0.97393798828125 0.02862548828125 0.9962158203125 0.04229736328125 0.95245361328125 0.0111083984375 0.9962158203125 0.1083984375 0.96649169921875 0.10772705078125 0.9962158203125</float_array>
                    <technique_common>
                        <accessor count="11" source="#uvarray2" stride="2">
                            <param name="S" type="float"/>
                            <param name="T" type="float"/>
                        </accessor>
                    </technique_common>
                </source>
                <vertices id="vertices2">
                    <input semantic="POSITION" source="#points2"/>
                </vertices>
                <polylist count="18" material="Material1">
                    <input offset="0" semantic="VERTEX" source="#vertices2"/>
                    <input offset="1" semantic="TEXCOORD" source="#uvs2" set="0"/>
                    <vcount>3 3 3 3 3 3 3 3 3 3 3 3 3 3 3 3 3 3</vcount>
                    <p>2 2 1 1 0 0 3 3 1 1 2 2 4 4 3 3 2 2 5 5 3 3 4 4 6 6 5 5 4 4 7 7 5 5 6 6 8 8 7 7 6 6 6 6 9 7 8 8 10 5 9 7 6 6 4 4 10 5 6 6 11 3 10 5 4 4 2 2 11 3 4 4 14 0 13 10 12 9 2 2 13 10 14 0 15 1 2 2 14 0 11 3 2 2 15 1 13 10 0 0 16 9 2 2 0 0 13 10</p>
                </polylist>
            </mesh>
        </geometry>
    </library_geometries>
    <library_visual_scenes>
        <visual_scene id="VisualSceneNode">
            <node id="node0" name="m0" type="NODE">
                <instance_geometry url="#mesh0">
                    <bind_material>
                        <technique_common>
                            <instance_material symbol="Material1" target="#mat2">
                                <bind_vertex_input semantic="UVSET0" input_semantic="TEXCOORD" input_set="0"></bind_vertex_input>
                            </instance_material>
                        </technique_common>
                    </bind_material>
                </instance_geometry>
            </node>
            <node id="node1" name="m1" type="NODE">
                <instance_geometry url="#mesh1">
                    <bind_material>
                        <technique_common>
                            <instance_material symbol="Material1" target="#mat0">
                                <bind_vertex_input semantic="UVSET0" input_semantic="TEXCOORD" input_set="0"></bind_vertex_input>
                            </instance_material>
                        </technique_common>
                    </bind_material>
                </instance_geometry>
            </node>
            <node id="node2" name="m2" type="NODE">
                <instance_geometry url="#mesh2">
                    <bind_material>
                        <technique_common>
                            <instance_material symbol="Material1" target="#mat1">
                                <bind_vertex_input semantic="UVSET0" input_semantic="TEXCOORD" input_set="0"></bind_vertex_input>
                            </instance_material>
                        </technique_common>
                    </bind_material>
                </instance_geometry>
            </node>
        </visual_scene>
    </library_visual_scenes>
    <scene>
        <instance_visual_scene url="#VisualSceneNode"></instance_visual_scene>
    </scene>
</COLLADA>
