<?xml version="1.0"?>
<COLLADA xmlns="http://www.collada.org/2005/11/COLLADASchema" version="1.4.1">
    <asset>
        <contributor>
            <authoring_tool>J3D Ripoff Exporter</authoring_tool>
        </contributor>
        <created>2024-08-19T02:41:58.467Z</created>
        <modified>2024-08-19T02:41:58.467Z</modified>
		<unit meter="0.01" name="centimeter" ></unit>
        <up_axis>Y_UP</up_axis>
    </asset>
    <library_images>
        <image id="tex0">
            <init_from>miyamoto_skin.png</init_from>
        </image>
        <image id="tex1">
            <init_from>miyamoto_fur.png</init_from>
        </image>
    </library_images>
    <library_effects>
        <effect id="effect0">
            <profile_COMMON>
                <newparam sid="surface0">
                    <surface type="2D">
                        <init_from>tex1</init_from>
                    </surface>
                </newparam>
                <newparam sid="sampler0">
                    <sampler2D>
                        <source>surface0</source>
                    </sampler2D>
                </newparam>
                <technique sid="COMMON">
                    <blinn>
                        <diffuse>
                            <texture texture="sampler0" texcoord="UVSET0"></texture>
                        </diffuse>
                    </blinn>
                </technique>
            </profile_COMMON>
        </effect>
        <effect id="effect1">
            <profile_COMMON>
                <newparam sid="surface1">
                    <surface type="2D">
                        <init_from>tex0</init_from>
                    </surface>
                </newparam>
                <newparam sid="sampler1">
                    <sampler2D>
                        <source>surface1</source>
                    </sampler2D>
                </newparam>
                <technique sid="COMMON">
                    <blinn>
                        <diffuse>
                            <texture texture="sampler1" texcoord="UVSET0"></texture>
                        </diffuse>
                    </blinn>
                </technique>
            </profile_COMMON>
        </effect>
    </library_effects>
    <library_materials>
        <material id="mat0" name="FurBody">
            <instance_effect url="#effect0"></instance_effect>
        </material>
        <material id="mat1" name="Skin_spc">
            <instance_effect url="#effect1"></instance_effect>
        </material>
    </library_materials>
    <library_geometries>
        <geometry id="mesh0">
            <mesh>
                <source id="points0">
                    <float_array id="pointarray0" count="198">0.0034485659570691897 0.2421875 -71.9374999173407 24.89740649322329 0.287109375 -59.97732215301712 17.604441403158187 19.703125 -60.05384364090971 36.94755273333165 17.21875 -46.730650723516696 28.27763348992297 31.52734375 -46.785753845312115 30.88464760495628 34.435546875 -38.27976948455051 16.714727712460036 44.876953125 -38.32146439235575 15.157539824152595 40.775390625 -26.905523403275918 0.0012904033454693628 44.1015625 -26.91796871907009 0.0007099933658898692 28.623046875 -14.81054685798204 -15.15496014101703 40.77734375 -26.90697653489119 -18.052025952594178 20.375 -14.778209151545964 -28.004571280214947 31.306640625 -26.870483149166876 -36.59051139197854 17.1328125 -26.816207245014557 -30.880977324072344 34.435546875 -38.282730427475855 -40.34777709071263 18.806640625 -38.22263737528636 -28.273147695097734 31.52734375 -46.78846479716705 -36.94307218176482 17.21875 -46.73419291908815 -17.5986835563919 19.703125 -60.05553122107941 -24.89165594956692 0.287109375 -59.979708959147054 39.99051839005787 0.337890625 -46.66605172365154 40.351441566560474 18.806640625 -38.21876878687916 28.007147405425165 31.306640625 -26.86779803908551 18.05344275591907 20.375 -14.77647831449442 0.0005718896846703575 0.47265625 -11.929687486292272 -25.530545220556004 0.462890625 -14.702395784426972 -39.60613947829072 0.416015625 -26.751898684213227 -43.671999207559075 0.37109375 -38.152484232970835 -39.98604401804559 0.337890625 -46.669885669101426 0.0028702158290061903 -27.169921875 -59.87304680620328 -17.598690765872206 -19.126953125 -59.90514059625222 -15.300504755409118 -40.41015625 -46.51049915958698 -28.273159211540303 -30.84765625 -46.54823042244309 -16.711069977944426 -44.1328125 -37.97931676997135 -30.880989870440672 -33.689453125 -38.021011677776585 -15.154975121755331 -39.943359375 -26.594476535250266 -28.0045827030279 -30.47265625 -26.632201899440673 -18.052033255704103 -19.44921875 -14.625865401721013 -36.590517571533084 -16.30078125 -26.687300995162673 0.0006996004786930111 -27.697265625 -14.593749983231149 0.001274299051794952 -43.26953125 -26.582031219456095 0.0018199724444371988 -47.798828125 -37.96484370637675 0.002229040229690112 -43.767578125 -46.498046821571734 15.304963959423873 -40.41015625 -46.509031983529546 -36.94307845494898 -16.5390625 -46.60333354423852 17.604434193677882 -19.126953125 -59.903453016082516 28.2776219734804 -30.84765625 -46.545519470588154 30.884635058587953 -33.689453125 -38.01805073485124 40.35143473159862 -18.060546875 -38.07619066204298 36.5930760943758 -16.30078125 -26.683792693511627 0.0028804214569742763 27.74609375 -60.08593743095866 15.304979033791788 41.08984375 -46.82348510816823 0.002245331782593295 44.447265625 -46.837890571181234 0.0018377620711705596 48.544921875 -38.33593745595035 -16.711053499132294 44.876953125 -38.32306676957636 18.053435452809147 -19.44921875 -14.62413456466947 28.007135982612212 -30.47265625 -26.629516789359307 16.714711233647904 -44.1328125 -37.97771439275074 25.531954720770973 0.462890625 -14.699947931788461 36.59308227393035 17.1328125 -26.81269894336351 39.60870418068799 0.416015625 -26.748101254312953 43.67565694207469 0.37109375 -38.14829692935626 -15.300489681041203 41.08984375 -46.82495228422566 15.157524843414294 -39.943359375 -26.593023403634994 -40.347783925674484 -18.060546875 -38.080059250450184 36.9475465537771 -16.5390625 -46.601744473664816</float_array>
                    <technique_common>
                        <accessor count="66" source="#pointarray0" stride="3">
                            <param name="X" type="float"/>
                            <param name="Y" type="float"/>
                            <param name="Z" type="float"/>
                        </accessor>
                    </technique_common>
                </source>
                <source id="uvs0">
                    <float_array id="uvarray0" count="114">0.07684326171875 0.09039306640625 0.1505126953125 0.13934326171875 0.1505126953125 0.04180908203125 0.21905517578125 0.0899658203125 0.21905517578125 0.02764892578125 0.2462158203125 0.02764892578125 0.2462158203125 0.09033203125 0.27337646484375 0.09033203125 0.27337646484375 0.15460205078125 0.3419189453125 0.1395263671875 0.27337646484375 0.08990478515625 0.3419189453125 0.04180908203125 0.27337646484375 0.02764892578125 0.21905517578125 0.09033203125 0.1505126953125 0.1396484375 0.21905517578125 0.15423583984375 0.2462158203125 0.0899658203125 0.41558837890625 0.09039306640625 0.3419189453125 0.1396484375 0.27337646484375 0.1546630859375 0.2462158203125 0.1546630859375 0.21905517578125 0.1546630859375 0.1505126953125 0.139404296875 0.21905517578125 0.09002685546875 0.2462158203125 0.09002685546875 0.27337646484375 0.09002685546875 0.27337646484375 0.0904541015625 0.3419189453125 0.1397705078125 0.27337646484375 0.15484619140625 0.3419189453125 0.139404296875 0.27337646484375 0.1544189453125 0.2462158203125 0.1544189453125 0.21905517578125 0.1544189453125 0.21905517578125 0.09014892578125 0.21905517578125 0.15484619140625 0.21905517578125 0.0904541015625 0.1505126953125 0.1397705078125 0.1505126953125 0.1395263671875 0.21905517578125 0.15460205078125 0.2462158203125 0.15460205078125 0.2462158203125 0.08990478515625 0.2462158203125 0.09014892578125 0.27337646484375 0.0899658203125 0.27337646484375 0.15423583984375 0.2462158203125 0.15423583984375 0.21905517578125 0.08990478515625 0.27337646484375 0.09014892578125 0.2462158203125 0.15484619140625 0.2462158203125 0.0904541015625 0.1505126953125 0.13983154296875 0.27337646484375 0.09051513671875 0.3419189453125 0.13983154296875 0.2462158203125 0.09051513671875 0.27337646484375 0.1549072265625 0.21905517578125 0.09051513671875 0.2462158203125 0.1549072265625 0.21905517578125 0.1549072265625</float_array>
                    <technique_common>
                        <accessor count="57" source="#uvarray0" stride="2">
                            <param name="S" type="float"/>
                            <param name="T" type="float"/>
                        </accessor>
                    </technique_common>
                </source>
                <vertices id="vertices0">
                    <input semantic="POSITION" source="#points0"/>
                </vertices>
                <polylist count="128" material="Material1">
                    <input offset="0" semantic="VERTEX" source="#vertices0"/>
                    <input offset="1" semantic="TEXCOORD" source="#uvs0" set="0"/>
                    <vcount>3 3 3 3 3 3 3 3 3 3 3 3 3 3 3 3 3 3 3 3 3 3 3 3 3 3 3 3 3 3 3 3 3 3 3 3 3 3 3 3 3 3 3 3 3 3 3 3 3 3 3 3 3 3 3 3 3 3 3 3 3 3 3 3 3 3 3 3 3 3 3 3 3 3 3 3 3 3 3 3 3 3 3 3 3 3 3 3 3 3 3 3 3 3 3 3 3 3 3 3 3 3 3 3 3 3 3 3 3 3 3 3 3 3 3 3 3 3 3 3 3 3 3 3 3 3 3 3</vcount>
                    <p>2 2 1 1 0 0 3 3 1 1 2 2 4 4 3 3 2 2 5 5 3 3 4 4 6 6 5 5 4 4 7 7 5 5 6 6 8 8 7 7 6 6 9 9 7 7 8 8 10 10 9 9 8 8 11 11 9 9 10 10 12 12 11 11 10 10 13 7 11 11 12 12 14 5 13 7 12 12 15 6 13 7 14 5 16 4 15 6 14 5 17 13 15 6 16 4 18 2 17 13 16 4 19 14 17 13 18 2 0 0 19 14 18 2 3 3 20 15 1 1 21 16 20 15 3 3 5 5 21 16 3 3 22 12 21 16 5 5 7 7 22 12 5 5 23 11 22 12 7 7 9 9 23 11 7 7 24 17 23 11 9 9 11 11 24 17 9 9 25 18 24 17 11 11 13 7 25 18 11 11 26 19 25 18 13 7 15 6 26 19 13 7 27 20 26 19 15 6 17 13 27 20 15 6 28 21 27 20 17 13 19 14 28 21 17 13 31 23 30 2 29 22 32 4 30 2 31 23 33 24 32 4 31 23 34 5 32 4 33 24 35 25 34 5 33 24 36 12 34 5 35 25 37 11 36 12 35 25 38 26 36 12 37 11 25 27 38 26 37 11 26 28 38 26 25 27 37 11 24 17 25 27 39 29 24 17 37 11 35 25 39 29 37 11 40 30 39 29 35 25 33 24 40 30 35 25 41 31 40 30 33 24 31 23 41 31 33 24 42 32 41 31 31 23 29 22 42 32 31 23 43 33 42 32 29 22 19 36 44 35 28 34 30 2 44 35 19 36 0 0 30 2 19 36 29 22 30 2 0 0 45 2 29 22 0 0 43 33 29 22 45 2 46 4 43 33 45 2 47 5 43 33 46 4 48 6 47 5 46 4 49 7 47 5 48 6 50 37 2 2 0 0 51 13 2 2 50 37 52 38 51 13 50 37 53 39 51 13 52 38 54 40 53 39 52 38 10 10 53 39 54 40 12 12 10 10 54 40 56 12 49 7 55 11 47 5 49 7 56 12 57 41 47 5 56 12 43 33 47 5 57 41 42 32 43 33 57 41 51 13 4 4 2 2 6 6 4 4 51 13 53 39 6 6 51 13 8 8 6 6 53 39 10 10 8 8 53 39 58 18 23 11 24 17 59 42 23 11 58 18 60 43 59 42 58 18 61 44 59 42 60 43 59 42 22 12 23 11 21 16 22 12 59 42 61 44 21 16 59 42 20 15 21 16 61 44 18 2 50 37 0 0 62 45 50 37 18 2 16 4 62 45 18 2 14 5 62 45 16 4 62 45 52 38 50 37 54 40 52 38 62 45 14 5 54 40 62 45 12 12 54 40 14 5 39 29 55 11 24 17 63 46 55 11 39 29 40 30 63 46 39 29 41 31 63 46 40 30 27 47 38 26 26 28 64 48 38 26 27 47 28 34 64 48 27 47 44 35 64 48 28 34 63 46 56 12 55 11 57 41 56 12 63 46 41 31 57 41 63 46 42 32 57 41 41 31 65 13 46 4 45 2 48 6 46 4 65 13 1 49 45 2 0 0 65 13 45 2 1 49 58 51 55 11 49 50 24 17 55 11 58 51 60 53 49 50 48 52 58 51 49 50 60 53 61 55 48 52 65 54 60 53 48 52 61 55 32 4 44 35 30 2 34 5 44 35 32 4 34 5 64 48 44 35 36 12 64 48 34 5 20 56 65 54 1 49 61 55 65 54 20 56 36 12 38 26 64 48</p>
                </polylist>
            </mesh>
        </geometry>
        <geometry id="mesh1">
            <mesh>
                <source id="points1">
                    <float_array id="pointarray1" count="96">-0.027407137217520243 7.607421875 1.3222643126660583 -5.918025950894387 5.171875 1.1930756758971885 -0.027122877708244016 7.689453125 -4.607423180520475 -5.917741691385111 5.25390625 -4.7366118172893446 -0.0268385245693534 7.771484375 -10.539063798704763 -5.917457338246221 5.3359375 -10.668252435473631 -0.026553984171234012 7.853515625 -16.474610666884562 -5.9171728914777155 5.41796875 -16.601846178655673 -8.357464279612277 -0.70703125 0.8843649828634078 -8.357180020103 -0.625 -5.045322510323124 -8.35689566696411 -0.544921875 -10.976963128507412 -8.356611220195605 -0.462890625 -16.910556871689458 -5.917996363936242 -6.58984375 0.5758881766063637 -5.917712104426966 -6.5078125 -5.353799316580169 -5.917427751288074 -6.42578125 -11.285439934764456 -5.91714330451957 -6.345703125 -17.2190336779465 -0.027365284779889653 -9.02734375 0.4492174386692268 -0.027081025270613426 -8.9453125 -5.480470054517306 -0.02679667213172281 -8.86328125 -11.412110672701594 -0.026512131733603422 -8.78125 -17.347657540881393 5.85934737253108 -6.58984375 0.5764527631811119 5.859631632040356 -6.5078125 -5.35323473000542 5.8599159851792475 -6.42578125 -11.284875348189708 5.860200431947752 -6.345703125 -17.21846909137175 8.300738826246725 -0.70703125 0.885163549844507 8.301023085756002 -0.625 -5.044523943342025 8.301307438894892 -0.544921875 -10.976164561526314 8.301591885663397 -0.462890625 -16.909758304708358 5.859317785572935 5.171875 1.1936402624719367 5.859602045082211 5.25390625 -4.736047230714596 5.859886398221101 5.3359375 -10.667687848898883 5.860170844989606 5.41796875 -16.601281592080927</float_array>
                    <technique_common>
                        <accessor count="32" source="#pointarray1" stride="3">
                            <param name="X" type="float"/>
                            <param name="Y" type="float"/>
                            <param name="Z" type="float"/>
                        </accessor>
                    </technique_common>
                </source>
                <source id="uvs1">
                    <float_array id="uvarray1" count="16">0.5797119140625 1.3572998046875 0.5797119140625 1.293701171875 0.539306640625 1.3572998046875 0.539306640625 1.293701171875 0.49884033203125 1.3572998046875 0.49884033203125 1.293701171875 0.4583740234375 1.3572998046875 0.4583740234375 1.293701171875</float_array>
                    <technique_common>
                        <accessor count="8" source="#uvarray1" stride="2">
                            <param name="S" type="float"/>
                            <param name="T" type="float"/>
                        </accessor>
                    </technique_common>
                </source>
                <vertices id="vertices1">
                    <input semantic="POSITION" source="#points1"/>
                </vertices>
                <polylist count="48" material="Material1">
                    <input offset="0" semantic="VERTEX" source="#vertices1"/>
                    <input offset="1" semantic="TEXCOORD" source="#uvs1" set="0"/>
                    <vcount>3 3 3 3 3 3 3 3 3 3 3 3 3 3 3 3 3 3 3 3 3 3 3 3 3 3 3 3 3 3 3 3 3 3 3 3 3 3 3 3 3 3 3 3 3 3 3 3</vcount>
                    <p>2 2 1 1 0 0 3 3 1 1 2 2 4 4 3 3 2 2 5 5 3 3 4 4 6 6 5 5 4 4 7 7 5 5 6 6 3 2 8 1 1 0 9 3 8 1 3 2 5 4 9 3 3 2 10 5 9 3 5 4 7 6 10 5 5 4 11 7 10 5 7 6 9 2 12 1 8 0 13 3 12 1 9 2 10 4 13 3 9 2 14 5 13 3 10 4 11 6 14 5 10 4 15 7 14 5 11 6 13 2 16 1 12 0 17 3 16 1 13 2 14 4 17 3 13 2 18 5 17 3 14 4 15 6 18 5 14 4 19 7 18 5 15 6 17 2 20 1 16 0 21 3 20 1 17 2 18 4 21 3 17 2 22 5 21 3 18 4 19 6 22 5 18 4 23 7 22 5 19 6 21 2 24 1 20 0 25 3 24 1 21 2 22 4 25 3 21 2 26 5 25 3 22 4 23 6 26 5 22 4 27 7 26 5 23 6 25 2 28 1 24 0 29 3 28 1 25 2 26 4 29 3 25 2 30 5 29 3 26 4 27 6 30 5 26 4 31 7 30 5 27 6 29 2 0 1 28 0 2 3 0 1 29 2 30 4 2 3 29 2 4 5 2 3 30 4 31 6 4 5 30 4 6 7 4 5 31 6</p>
                </polylist>
            </mesh>
        </geometry>
    </library_geometries>
    <library_controllers>
        <controller id="controller0">
            <skin source="#mesh0">
                <bind_shape_matrix>1 0 0 0 0 1 0 0 0 0 1 0 0 0 0 1</bind_shape_matrix>
                <source id="joints0">
                    <Name_array id="JointArr0" count="4">jointnode-1 jointnode0 jointnode1 jointnode2</Name_array>
                    <technique_common>
                        <accessor source="#JointArr0" count="4">
                            <param name="JOINT" type="Name" />
                        </accessor>
                    </technique_common>
                </source>
                <source id="matrices0">
                    <float_array id="MatArr0" count="64">1 0 0 0 0 1 0 0 0 0 1 0 0 0 0 1 0.00004793836256600237 0 -0.9999999988509567 0 0 1 0 0 0.9999999988509567 0 0.00004793836256600237 0 0 0 0 1 0.00004793836256600237 0 -0.9999999988509567 0 0 1 0 0 0.9999999988509567 0 0.00004793836256600237 0 0 0 0 1 0.00004793836256600237 0 -0.9999999988509567 -19.999999999999996 0 1 0 0 0.9999999988509567 0 0.00004793836256600237 0 0 0 0 1</float_array>
                    <technique_common>
                        <accessor source="#MatArr0" count="4" stride="16">
                            <param type="float4x4" />
                        </accessor>
                    </technique_common>
                </source>
                <source id="weights0">
                    <float_array id="WeightArr0" count="1">1</float_array>
                    <technique_common>
                        <accessor source="#WeightArr0" count="1">
                            <param type="float" />
                        </accessor>
                    </technique_common>
                </source>
                <joints>
                    <input semantic="JOINT" source="#joints0" />
                    <input semantic="INV_BIND_MATRIX" source="#matrices0" />
                </joints>
                <vertex_weights count="66">
                    <input semantic="JOINT" offset="0" source="#joints0" />
                    <input semantic="WEIGHT" offset="1" source="#weights0" />
                    <vcount>1 1 1 1 1 1 1 1 1 1 1 1 1 1 1 1 1 1 1 1 1 1 1 1 1 1 1 1 1 1 1 1 1 1 1 1 1 1 1 1 1 1 1 1 1 1 1 1 1 1 1 1 1 1 1 1 1 1 1 1 1 1 1 1 1 1</vcount>
                    <v>3 0 3 0 3 0 3 0 3 0 3 0 3 0 3 0 3 0 3 0 3 0 3 0 3 0 3 0 3 0 3 0 3 0 3 0 3 0 3 0 3 0 3 0 3 0 3 0 3 0 3 0 3 0 3 0 3 0 3 0 3 0 3 0 3 0 3 0 3 0 3 0 3 0 3 0 3 0 3 0 3 0 3 0 3 0 3 0 3 0 3 0 3 0 3 0 3 0 3 0 3 0 3 0 3 0 3 0 3 0 3 0 3 0 3 0 3 0 3 0 3 0 3 0 3 0 3 0 3 0 3 0</v>
                </vertex_weights>
            </skin>
        </controller>
        <controller id="controller1">
            <skin source="#mesh1">
                <bind_shape_matrix>1 0 0 0 0 1 0 0 0 0 1 0 0 0 0 1</bind_shape_matrix>
                <source id="joints1">
                    <Name_array id="JointArr1" count="4">jointnode-1 jointnode0 jointnode1 jointnode2</Name_array>
                    <technique_common>
                        <accessor source="#JointArr1" count="4">
                            <param name="JOINT" type="Name" />
                        </accessor>
                    </technique_common>
                </source>
                <source id="matrices1">
                    <float_array id="MatArr1" count="64">1 0 0 0 0 1 0 0 0 0 1 0 0 0 0 1 0.00004793836256600237 0 -0.9999999988509567 0 0 1 0 0 0.9999999988509567 0 0.00004793836256600237 0 0 0 0 1 0.00004793836256600237 0 -0.9999999988509567 0 0 1 0 0 0.9999999988509567 0 0.00004793836256600237 0 0 0 0 1 0.00004793836256600237 0 -0.9999999988509567 -19.999999999999996 0 1 0 0 0.9999999988509567 0 0.00004793836256600237 0 0 0 0 1</float_array>
                    <technique_common>
                        <accessor source="#MatArr1" count="4" stride="16">
                            <param type="float4x4" />
                        </accessor>
                    </technique_common>
                </source>
                <source id="weights1">
                    <float_array id="WeightArr1" count="1">1</float_array>
                    <technique_common>
                        <accessor source="#WeightArr1" count="1">
                            <param type="float" />
                        </accessor>
                    </technique_common>
                </source>
                <joints>
                    <input semantic="JOINT" source="#joints1" />
                    <input semantic="INV_BIND_MATRIX" source="#matrices1" />
                </joints>
                <vertex_weights count="32">
                    <input semantic="JOINT" offset="0" source="#joints1" />
                    <input semantic="WEIGHT" offset="1" source="#weights1" />
                    <vcount>1 1 1 1 1 1 1 1 1 1 1 1 1 1 1 1 1 1 1 1 1 1 1 1 1 1 1 1 1 1 1 1</vcount>
                    <v>1 0 1 0 2 0 2 0 2 0 2 0 3 0 3 0 1 0 2 0 2 0 3 0 1 0 2 0 2 0 3 0 1 0 2 0 2 0 3 0 1 0 2 0 2 0 3 0 1 0 2 0 2 0 3 0 1 0 2 0 2 0 3 0</v>
                </vertex_weights>
            </skin>
        </controller>
    </library_controllers>
    <library_visual_scenes>
        <visual_scene id="VisualSceneNode">
            <node id="node0" name="m0" type="NODE">
                <instance_controller url="#controller0">
                    <skeleton>#jointnode-1</skeleton>
                    <bind_material>
                        <technique_common>
                            <instance_material symbol="Material1" target="#mat0">
                                <bind_vertex_input semantic="UVSET0" input_semantic="TEXCOORD" input_set="0"></bind_vertex_input>
                            </instance_material>
                        </technique_common>
                    </bind_material>
                </instance_controller>
            </node>
            <node id="node1" name="m1" type="NODE">
                <instance_controller url="#controller1">
                    <skeleton>#jointnode-1</skeleton>
                    <bind_material>
                        <technique_common>
                            <instance_material symbol="Material1" target="#mat1">
                                <bind_vertex_input semantic="UVSET0" input_semantic="TEXCOORD" input_set="0"></bind_vertex_input>
                            </instance_material>
                        </technique_common>
                    </bind_material>
                </instance_controller>
            </node>
            <node id="jointnode-1" name="root" sid="jointnode-1" type="JOINT">
                <node id="jointnode0" name="Dum" sid="jointnode0" type="JOINT">
                    <rotate>0 1 0 89.99725333414716</rotate>
                    <node id="jointnode1" name="Hair1" sid="jointnode1" type="JOINT">
                        <node id="jointnode2" name="Hair2" sid="jointnode2" type="JOINT">
                            <translate>20 0 0</translate>
                        </node>
                    </node>
                </node>
            </node>
        </visual_scene>
    </library_visual_scenes>
    <scene>
        <instance_visual_scene url="#VisualSceneNode"></instance_visual_scene>
    </scene>
</COLLADA>
