<?xml version="1.0"?>
<COLLADA xmlns="http://www.collada.org/2005/11/COLLADASchema" version="1.4.1">
    <asset>
        <contributor>
            <authoring_tool>J3D Ripoff Exporter</authoring_tool>
        </contributor>
        <created>2024-08-19T02:40:37.954Z</created>
        <modified>2024-08-19T02:40:37.954Z</modified>
		<unit meter="0.01" name="centimeter" ></unit>
        <up_axis>Y_UP</up_axis>
    </asset>
    <library_images>
        <image id="tex0">
            <init_from>miyamoto_skin.png</init_from>
        </image>
        <image id="tex1">
            <init_from>miyamoto_eye.png</init_from>
        </image>
    </library_images>
    <library_effects>
        <effect id="effect0">
            <profile_COMMON>
                <newparam sid="surface0">
                    <surface type="2D">
                        <init_from>tex1</init_from>
                    </surface>
                </newparam>
                <newparam sid="sampler0">
                    <sampler2D>
                        <source>surface0</source>
                    </sampler2D>
                </newparam>
                <technique sid="COMMON">
                    <blinn>
                        <diffuse>
                            <texture texture="sampler0" texcoord="UVSET0"></texture>
                        </diffuse>
                    </blinn>
                </technique>
            </profile_COMMON>
        </effect>
        <effect id="effect1">
            <profile_COMMON>
                <newparam sid="surface1">
                    <surface type="2D">
                        <init_from>tex0</init_from>
                    </surface>
                </newparam>
                <newparam sid="sampler1">
                    <sampler2D>
                        <source>surface1</source>
                    </sampler2D>
                </newparam>
                <technique sid="COMMON">
                    <blinn>
                        <diffuse>
                            <texture texture="sampler1" texcoord="UVSET0"></texture>
                        </diffuse>
                    </blinn>
                </technique>
            </profile_COMMON>
        </effect>
        <effect id="effect2">
            <profile_COMMON>
                <newparam sid="surface2">
                    <surface type="2D">
                        <init_from>tex0</init_from>
                    </surface>
                </newparam>
                <newparam sid="sampler2">
                    <sampler2D>
                        <source>surface2</source>
                    </sampler2D>
                </newparam>
                <technique sid="COMMON">
                    <blinn>
                        <diffuse>
                            <texture texture="sampler2" texcoord="UVSET0"></texture>
                        </diffuse>
                    </blinn>
                </technique>
            </profile_COMMON>
        </effect>
    </library_effects>
    <library_materials>
        <material id="mat0" name="Eye">
            <instance_effect url="#effect0"></instance_effect>
        </material>
        <material id="mat1" name="Skin_etc">
            <instance_effect url="#effect1"></instance_effect>
        </material>
        <material id="mat2" name="Skin_spc">
            <instance_effect url="#effect2"></instance_effect>
        </material>
    </library_materials>
    <library_geometries>
        <geometry id="mesh0">
            <mesh>
                <source id="points0">
                    <float_array id="pointarray0" count="36">62.125 -26.99609375 -14.05859375 64.19140625 -23.5859375 -9.30078125 60.9921875 -20.9453125 -14.921875 63.03515625 -20.69921875 -10.4375 60.3671875 -18.86328125 -15.0390625 61.4765625 -17.83203125 -11.60546875 58.0625 -24.703125 -18.44921875 58.79296875 -21.37890625 -17.66796875 58.609375 -28.234375 -17.83203125 62.82421875 -18.39453125 -8.19140625 63.53125 -19.44921875 -6.16796875 64.51171875 -20.94140625 -4.54296875</float_array>
                    <technique_common>
                        <accessor count="12" source="#pointarray0" stride="3">
                            <param name="X" type="float"/>
                            <param name="Y" type="float"/>
                            <param name="Z" type="float"/>
                        </accessor>
                    </technique_common>
                </source>
                <source id="uvs0">
                    <float_array id="uvarray0" count="24">0.63616943359375 0.5828857421875 0.33111572265625 0.5323486328125 0.63311767578125 0.314697265625 0.37677001953125 0.3052978515625 0.6593017578125 0.15032958984375 0.46856689453125 0.11029052734375 0.84674072265625 0.50189208984375 0.827392578125 0.36566162109375 0.8660888671875 0.63818359375 0.29083251953125 0.18475341796875 0.17169189453125 0.35443115234375 0.1234130859375 0.5323486328125</float_array>
                    <technique_common>
                        <accessor count="12" source="#uvarray0" stride="2">
                            <param name="S" type="float"/>
                            <param name="T" type="float"/>
                        </accessor>
                    </technique_common>
                </source>
                <vertices id="vertices0">
                    <input semantic="POSITION" source="#points0"/>
                </vertices>
                <polylist count="12" material="Material1">
                    <input offset="0" semantic="VERTEX" source="#vertices0"/>
                    <input offset="1" semantic="TEXCOORD" source="#uvs0" set="0"/>
                    <vcount>3 3 3 3 3 3 3 3 3 3 3 3</vcount>
                    <p>2 2 1 1 0 0 3 3 1 1 2 2 4 4 3 3 2 2 5 5 3 3 4 4 7 7 2 2 6 6 4 4 2 2 7 7 6 6 0 0 8 8 2 2 0 0 6 6 9 9 3 3 5 5 10 10 3 3 9 9 11 11 3 3 10 10 1 1 3 3 11 11</p>
                </polylist>
            </mesh>
        </geometry>
        <geometry id="mesh1">
            <mesh>
                <source id="points1">
                    <float_array id="pointarray1" count="621">63.953125 38.78515625 13.4375 56.83984375 41.92578125 0.02734375 61.95703125 41.96484375 0.02734375 63.953125 39.26953125 -13.37890625 72.76953125 37.921875 -11.59765625 69.671875 33.1484375 -21.140625 78.95703125 31.75 -13.203125 71.8046875 27.5 -24.36328125 83.03515625 25.18359375 -12.65234375 80.19140625 22.70703125 -19.140625 83.984375 20.61328125 -11.41015625 85.7578125 18.05859375 -14.6328125 88.765625 15.078125 -7.1875 87.3515625 11.46484375 -7.3515625 88.9140625 9.68359375 0.03125 85.875 8.22265625 0.03125 88.28125 9.03515625 7.41796875 85.31640625 7.7109375 7.1953125 85.9609375 9.734375 14.6953125 83.1171875 8.484375 13.9375 81.6796875 11.77734375 22.0078125 72.125 38.15234375 11.6640625 79.12109375 34.46875 5.4921875 78.1796875 33.01171875 13.61328125 83.03515625 25.515625 12.88671875 69.73046875 26.69140625 24.45703125 79.69921875 20.35546875 19.21875 71.33984375 21.07421875 26.66015625 82.984375 15.96875 21.63671875 72.4140625 17.625 27.9921875 71.9765625 14.296875 27.9609375 68.92578125 13.53515625 26.9765625 63.45703125 15.42578125 30.37890625 62.2421875 14.0859375 29.1484375 59.16796875 15.078125 31.875 59.87890625 11.33203125 30.359375 54.13671875 13.7734375 33.37890625 47.7890625 4.18359375 33.58984375 54.65625 5.34375 32.59375 51.3359375 -0.92578125 31.16796875 60.95703125 -2.62890625 29.25 54.9375 -5.40234375 27.28125 68.72265625 -7.01953125 25.83203125 67.546875 -12.0625 20.82421875 72.23828125 -9.98046875 21.85546875 71.203125 -14.19921875 12.2265625 76.2421875 -12.2265625 13.87109375 72.52734375 -15.71484375 6.91796875 76.609375 -15.58203125 0.03125 72.75390625 -17.78515625 0.03125 72.52734375 -15.71484375 -6.8515625 65.16796875 -19.25390625 -5 63.90625 -16.73046875 -8.390625 58.48046875 17.3359375 32.015625 52.06640625 18.6796875 32.77734375 57.5703125 20.77734375 30.9453125 40.66015625 20.16796875 34.79296875 60.296875 26.03515625 28.09375 40.046875 27.3046875 30.75 58.0703125 34.04296875 22.97265625 41.53125 33.4453125 22.34765625 56.90234375 38.41015625 12.9375 46.11328125 38.0390625 11.98828125 50.05859375 43.26171875 0 46.11328125 38.0390625 -11.98828125 79.79296875 17.73046875 -21.91796875 73.65625 20.546875 -27.30859375 71.984375 18.87890625 -24.73828125 69.93359375 20.0078125 -28.87890625 69.53125 16.1171875 -27.5 67.5546875 17.2578125 -30.33984375 68.33203125 9.5546875 -29.4921875 60.27734375 13.921875 -33.6015625 68.8203125 2.07421875 -28.9453125 54.65625 5.34375 -33.12109375 68.71875 -3.41015625 -26.2265625 60.95703125 -2.25390625 -28.80078125 67.546875 -9.6484375 -20.7578125 54.9375 -5.40234375 -27.10546875 59.09765625 -9.58203125 -20.46875 85.3125 25.06640625 -1.3828125 87.484375 21.9296875 -2.1328125 86.57421875 18.5546875 -5.2109375 90.47265625 13.5859375 0.03125 89.7265625 13.2890625 7.2578125 87.49609375 14.21875 14.7109375 64.6015625 18.67578125 30.46484375 62.33984375 21.31640625 29.265625 68.203125 33.828125 20.296875 77.2265625 -10.97265625 -13.8046875 80.49609375 -13.96484375 0.03125 83.2890625 -12.32421875 7.5390625 80.81640625 -10.96484375 14.72265625 80.015625 -8.18359375 15.19140625 75.30859375 -7.734375 22.80078125 75.0390625 -4.8203125 22.265625 68.12109375 -0.19140625 26.83984375 75.3046875 -2.9609375 -23.375 76.81640625 -0.796875 -22.41015625 80.86328125 -6.28515625 -14.3984375 80.0625 -3.62109375 -14.39453125 83.12109375 -10.09375 -7.47265625 82.79296875 -7.296875 -7.8828125 84.21484375 -12.08203125 0.03125 84.05078125 -9.46484375 0.03125 82.9609375 -9.52734375 7.94921875 56.96484375 -31.1953125 -21.296875 53.29296875 -40.1328125 -19.75 62.47265625 -30.65234375 -16.5859375 58.1328125 -37.41796875 -15.4140625 61.140625 -36.0390625 -8.55859375 57.2578125 -42.28125 -11.1640625 61.921875 -36.421875 0 60.09765625 -41.296875 0 57.2578125 -42.28125 11.1640625 84.4296875 18.82421875 12.296875 87.2109375 17.8203125 5.48046875 87.3359375 17.7734375 0.046875 74.13671875 23.07421875 -26.546875 60.296875 27.5859375 -29.1875 59.85546875 21.15625 -32.6328125 52.06640625 21.9609375 -33.5625 52.35546875 12.47265625 -35.30078125 40.66015625 20.16796875 -34.79296875 44.234375 9.98828125 -35.4609375 84.61328125 10.09765625 -7.12890625 84.55859375 14.37109375 -14.6171875 81.89453125 13.05078125 -13.859375 77.73046875 16.328125 -20.40625 80.58203125 20.86328125 -21.5625 69.08203125 10.59375 -27.16796875 71.3359375 4.87890625 -26.84375 71.3046875 5.97265625 -24.5546875 75.8671875 1.7109375 -20.81640625 62.25 -14.2734375 -11.453125 70.98828125 -13.62890625 -12.15625 44.234375 9.98828125 35.4609375 59.3828125 6.69140625 30.96875 60.28515625 6.76171875 29.83203125 40.046875 27.3046875 -30.75 58.0703125 34.12890625 -23.21875 33.3203125 -45.9296875 27.3984375 43.78515625 -38.17578125 26.203125 48.8984375 -43.58984375 20.02734375 53.29296875 -40.1328125 19.75 52.6796875 -43.16796875 17.1796875 55.52734375 -42.67578125 13.65625 53.2734375 -48.546875 11.25 62.37890625 4.77734375 29.1875 62.71875 3.28125 30.50390625 68.41796875 -3.21875 27.8515625 63.046875 -16.6953125 8.8515625 60.83203125 -16.6015625 15.41015625 59.09765625 -11.49609375 20.46875 54.53515625 -13.6171875 28.71875 50.68359375 -7.734375 29.1875 60.8828125 -13.76953125 -15.72265625 54.53515625 -13.6171875 -28.71875 57.65234375 -16.62109375 -21.3203125 54.51171875 -22.1796875 -23.7265625 65.46484375 -20.52734375 0 65.16796875 -19.25390625 5 66.93359375 41.515625 0.03125 52.81640625 -28.48046875 -23.015625 40.04296875 -35.76171875 -29.41796875 52.53515625 -32.58203125 -22.34765625 43.78515625 -38.17578125 -26.203125 48.8984375 -43.58984375 -20.02734375 58.10546875 -17.5625 21.3203125 54.8828125 -21.39453125 25.109375 42.16796875 -23.3984375 32.37109375 40.04296875 -35.76171875 29.41796875 41.53125 33.4453125 -22.34765625 56.90234375 38.87890625 -12.87890625 73.0078125 -6.26171875 -22.65625 51.3359375 -0.92578125 -30.765625 47.7890625 4.18359375 -33.796875 59.41796875 -36.0390625 11.07421875 64.40625 -23.4765625 17.2265625 67.65625 -22.54296875 8.94140625 65.02734375 -29.06640625 2.3359375 50.68359375 -7.734375 -29.1875 47.02734375 -13.39453125 -32.1640625 83.32421875 30.49609375 2.41796875 86.56640625 25.3984375 1.6171875 87.484375 21.9296875 2.22265625 68.51171875 -24.4375 2.24609375 68.26171875 -21.75390625 2.9375 69.05859375 -24.40234375 -0.0390625 67.8203125 -21.51171875 0 67.27734375 -22.5703125 -3.53515625 66.23046875 -26.4453125 -8.3046875 66.328125 -25.546875 -3.421875 64.59375 -29.625 -2.40625 65.1640625 -29.0859375 0 68.0703125 -25.19921875 -2.33984375 66.96484375 -25.046875 3.3203125 42.16796875 -23.3984375 -32.390625 53.36328125 -29.3125 22.4765625 58.84375 -23.171875 23.5625 56.859375 -29.97265625 21.34765625 78.6328125 10.77734375 21.171875 47.02734375 -13.39453125 32.1640625 79.6875 34.02734375 -5.1171875 83.94140625 29.48828125 -2.3515625 64.6640625 -28.6953125 -12.21484375 33.3203125 -45.9296875 -27.3984375</float_array>
                    <technique_common>
                        <accessor count="207" source="#pointarray1" stride="3">
                            <param name="X" type="float"/>
                            <param name="Y" type="float"/>
                            <param name="Z" type="float"/>
                        </accessor>
                    </technique_common>
                </source>
                <source id="uvs1">
                    <float_array id="uvarray1" count="414">0.3272705078125 0.66595458984375 0.25665283203125 0.60614013671875 0.25653076171875 0.64447021484375 0.18426513671875 0.6688232421875 0.1971435546875 0.68621826171875 0.1571044921875 0.7076416015625 0.1971435546875 0.71484375 0.142822265625 0.73077392578125 0.20123291015625 0.73895263671875 0.17059326171875 0.750732421875 0.20550537109375 0.757080078125 0.195068359375 0.7713623046875 0.2259521484375 0.7799072265625 0.22210693359375 0.7977294921875 0.257568359375 0.80657958984375 0.257080078125 0.816162109375 0.29156494140625 0.81005859375 0.2939453125 0.81976318359375 0.32513427734375 0.81024169921875 0.32861328125 0.81964111328125 0.3555908203125 0.805419921875 0.31695556640625 0.6788330078125 0.28094482421875 0.6925048828125 0.315185546875 0.70989990234375 0.3111572265625 0.73931884765625 0.3656005859375 0.73443603515625 0.34051513671875 0.76885986328125 0.3782958984375 0.76617431640625 0.34539794921875 0.790771484375 0.38177490234375 0.78179931640625 0.38836669921875 0.794921875 0.38958740234375 0.80474853515625 0.40374755859375 0.78912353515625 0.40386962890625 0.79656982421875 0.419189453125 0.78338623046875 0.41815185546875 0.788330078125 0.44769287109375 0.788330078125 0.485595703125 0.84051513671875 0.44573974609375 0.82733154296875 0.47052001953125 0.87225341796875 0.41375732421875 0.87158203125 0.43829345703125 0.904296875 0.3828125 0.87176513671875 0.36663818359375 0.90380859375 0.3524169921875 0.8770751953125 0.3260498046875 0.91259765625 0.320556640625 0.88653564453125 0.29302978515625 0.92578125 0.25775146484375 0.9217529296875 0.25750732421875 0.949951171875 0.22119140625 0.93017578125 0.2265625 0.98370361328125 0.20147705078125 0.9654541015625 0.4146728515625 0.77264404296875 0.45098876953125 0.762939453125 0.41375732421875 0.75537109375 0.4981689453125 0.74761962890625 0.4017333984375 0.73101806640625 0.48681640625 0.71044921875 0.38018798828125 0.686279296875 0.44140625 0.64947509765625 0.33734130859375 0.64031982421875 0.36492919921875 0.59539794921875 0.257080078125 0.57562255859375 0.14019775390625 0.5966796875 0.15838623046875 0.7723388671875 0.09844970703125 0.7352294921875 0.098388671875 0.7388916015625 0.08599853515625 0.7352294921875 0.09283447265625 0.7432861328125 0.07574462890625 0.74005126953125 0.0887451171875 0.7633056640625 0.085205078125 0.7830810546875 0.1175537109375 0.8260498046875 0.0631103515625 0.82708740234375 0.1270751953125 0.866943359375 0.09527587890625 0.8651123046875 0.145751953125 0.90203857421875 0.07513427734375 0.90478515625 0.11444091796875 0.9312744140625 0.249755859375 0.73028564453125 0.245849609375 0.7432861328125 0.23004150390625 0.761962890625 0.2578125 0.78729248046875 0.287841796875 0.79083251953125 0.31719970703125 0.79266357421875 0.398193359375 0.7772216796875 0.39599609375 0.7607421875 0.3507080078125 0.7010498046875 0.194091796875 0.882568359375 0.25799560546875 0.89337158203125 0.2926025390625 0.87078857421875 0.3228759765625 0.86871337890625 0.3314208984375 0.86224365234375 0.3543701171875 0.8631591796875 0.35687255859375 0.85626220703125 0.394775390625 0.8421630859375 0.149169921875 0.84600830078125 0.1478271484375 0.8173828125 0.18896484375 0.8450927734375 0.18267822265625 0.8363037109375 0.22137451171875 0.86041259765625 0.21624755859375 0.85382080078125 0.25762939453125 0.8704833984375 0.257080078125 0.8658447265625 0.2978515625 0.8653564453125 0.79840087890625 0.867431640625 0.80462646484375 0.9425048828125 0.85040283203125 0.84930419921875 0.845947265625 0.92840576171875 0.88720703125 0.91424560546875 0.87640380859375 0.9671630859375 0.992431640625 0.9166259765625 0.992431640625 0.9571533203125 0.876953125 0.9671630859375 0.31103515625 0.7708740234375 0.28509521484375 0.7705078125 0.25714111328125 0.76776123046875 0.10528564453125 0.7286376953125 0.087158203125 0.712158203125 0.06494140625 0.74298095703125 0.0526123046875 0.74810791015625 0.0570068359375 0.7880859375 0.0123291015625 0.75201416015625 0.01458740234375 0.80615234375 0.22015380859375 0.80621337890625 0.18798828125 0.78558349609375 0.18548583984375 0.794189453125 0.15545654296875 0.77972412109375 0.16253662109375 0.7603759765625 0.08551025390625 0.7314453125 0.09442138671875 0.74993896484375 0.1231689453125 0.7939453125 0.1263427734375 0.78924560546875 0.14593505859375 0.8092041015625 0.15716552734375 0.952880859375 0.18743896484375 0.9110107421875 0.49420166015625 0.80615234375 0.41741943359375 0.81048583984375 0.414794921875 0.810546875 0.02587890625 0.714111328125 0.12579345703125 0.68896484375 0.7147216796875 0.99688720703125 0.72869873046875 0.918212890625 0.79156494140625 0.9793701171875 0.8017578125 0.94317626953125 0.81634521484375 0.97406005859375 0.84918212890625 0.96905517578125 0.842041015625 0.99786376953125 0.41143798828125 0.832763671875 0.4132080078125 0.8367919921875 0.3919677734375 0.85040283203125 0.8629150390625 0.72125244140625 0.81695556640625 0.72515869140625 0.76837158203125 0.68914794921875 0.714111328125 0.72491455078125 0.72271728515625 0.65985107421875 0.6759033203125 0.681884765625 0.81689453125 0.72515869140625 0.714111328125 0.7249755859375 0.7789306640625 0.75128173828125 0.7562255859375 0.79644775390625 0.25701904296875 0.99188232421875 0.29034423828125 0.98095703125 0.257080078125 0.67633056640625 0.7642822265625 0.8470458984375 0.687255859375 0.9073486328125 0.77471923828125 0.87969970703125 0.77899169921875 0.75128173828125 0.75994873046875 0.82177734375 0.66131591796875 0.81475830078125 0.05157470703125 0.6636962890625 0.172607421875 0.641845703125 0.15216064453125 0.87030029296875 0.046142578125 0.8739013671875 0.02740478515625 0.84051513671875 0.88665771484375 0.91436767578125 0.8502197265625 0.85211181640625 0.92431640625 0.83892822265625 0.97540283203125 0.87530517578125 0.65447998046875 0.73406982421875 0.26812744140625 0.70556640625 0.26446533203125 0.72857666015625 0.26837158203125 0.7432861328125 0.97613525390625 0.68212890625 0.96160888671875 0.66888427734375 0.99749755859375 0.67926025390625 0.997314453125 0.66595458984375 0.961669921875 0.66888427734375 0.95843505859375 0.833984375 0.92437744140625 0.83892822265625 0.9669189453125 0.85467529296875 0.97613525390625 0.68218994140625 0.962646484375 0.7210693359375 0.99749755859375 0.7186279296875 0.9583740234375 0.83404541015625 0.7738037109375 0.8798828125 0.39666748046875 0.93212890625 0.35833740234375 0.95111083984375 0.797607421875 0.8681640625 0.7996826171875 0.9053955078125 0.358642578125 0.81549072265625 0.992431640625 0.87286376953125 0.233154296875 0.69677734375 0.2459716796875 0.7109375 0.88739013671875 0.8441162109375 0.958740234375 0.687255859375</float_array>
                    <technique_common>
                        <accessor count="207" source="#uvarray1" stride="2">
                            <param name="S" type="float"/>
                            <param name="T" type="float"/>
                        </accessor>
                    </technique_common>
                </source>
                <vertices id="vertices1">
                    <input semantic="POSITION" source="#points1"/>
                </vertices>
                <polylist count="315" material="Material1">
                    <input offset="0" semantic="VERTEX" source="#vertices1"/>
                    <input offset="1" semantic="TEXCOORD" source="#uvs1" set="0"/>
                    <vcount>3 3 3 3 3 3 3 3 3 3 3 3 3 3 3 3 3 3 3 3 3 3 3 3 3 3 3 3 3 3 3 3 3 3 3 3 3 3 3 3 3 3 3 3 3 3 3 3 3 3 3 3 3 3 3 3 3 3 3 3 3 3 3 3 3 3 3 3 3 3 3 3 3 3 3 3 3 3 3 3 3 3 3 3 3 3 3 3 3 3 3 3 3 3 3 3 3 3 3 3 3 3 3 3 3 3 3 3 3 3 3 3 3 3 3 3 3 3 3 3 3 3 3 3 3 3 3 3 3 3 3 3 3 3 3 3 3 3 3 3 3 3 3 3 3 3 3 3 3 3 3 3 3 3 3 3 3 3 3 3 3 3 3 3 3 3 3 3 3 3 3 3 3 3 3 3 3 3 3 3 3 3 3 3 3 3 3 3 3 3 3 3 3 3 3 3 3 3 3 3 3 3 3 3 3 3 3 3 3 3 3 3 3 3 3 3 3 3 3 3 3 3 3 3 3 3 3 3 3 3 3 3 3 3 3 3 3 3 3 3 3 3 3 3 3 3 3 3 3 3 3 3 3 3 3 3 3 3 3 3 3 3 3 3 3 3 3 3 3 3 3 3 3 3 3 3 3 3 3 3 3 3 3 3 3 3 3 3 3 3 3 3 3 3 3 3 3 3 3 3 3 3 3 3 3 3 3 3 3 3 3 3 3 3 3</vcount>
                    <p>2 2 1 1 0 0 3 3 1 1 2 2 4 4 3 3 2 2 5 5 3 3 4 4 6 6 5 5 4 4 7 7 5 5 6 6 8 8 7 7 6 6 9 9 7 7 8 8 10 10 9 9 8 8 11 11 9 9 10 10 12 12 11 11 10 10 13 13 11 11 12 12 14 14 13 13 12 12 15 15 13 13 14 14 16 16 15 15 14 14 17 17 15 15 16 16 18 18 17 17 16 16 19 19 17 17 18 18 20 20 19 19 18 18 23 23 22 22 21 21 24 24 22 22 23 23 25 25 24 24 23 23 26 26 24 24 25 25 27 27 26 26 25 25 28 28 26 26 27 27 29 29 28 28 27 27 20 20 28 28 29 29 30 30 20 20 29 29 31 31 20 20 30 30 32 32 31 31 30 30 33 33 31 31 32 32 34 34 33 33 32 32 35 35 33 33 34 34 36 36 35 35 34 34 39 39 38 38 37 37 40 40 38 38 39 39 41 41 40 40 39 39 42 42 40 40 41 41 43 43 42 42 41 41 44 44 42 42 43 43 45 45 44 44 43 43 46 46 44 44 45 45 47 47 46 46 45 45 48 48 46 46 47 47 49 49 48 48 47 47 50 50 48 48 49 49 51 51 50 50 49 49 52 52 50 50 51 51 53 53 36 36 34 34 54 54 36 36 53 53 55 55 54 54 53 53 56 56 54 54 55 55 57 57 56 56 55 55 58 58 56 56 57 57 59 59 58 58 57 57 60 60 58 58 59 59 61 61 60 60 59 59 62 62 60 60 61 61 1 1 62 62 61 61 63 63 62 62 1 1 64 64 63 63 1 1 67 67 66 66 65 65 68 68 66 66 67 67 69 69 68 68 67 67 70 70 68 68 69 69 71 71 70 70 69 69 72 72 70 70 71 71 73 73 72 72 71 71 74 74 72 72 73 73 75 75 74 74 73 73 76 76 74 74 75 75 77 77 76 76 75 75 78 78 76 76 77 77 79 79 78 78 77 77 81 81 8 8 80 80 10 10 8 8 81 81 82 82 10 10 81 81 12 12 10 10 82 82 83 83 12 12 82 82 14 14 12 12 83 83 84 84 14 14 83 83 16 16 14 14 84 84 85 85 16 16 84 84 18 18 16 16 85 85 28 28 18 18 85 85 20 20 18 18 28 28 27 27 86 86 29 29 87 87 86 86 27 27 25 25 87 87 27 27 57 57 87 87 25 25 88 88 57 57 25 25 59 59 57 57 88 88 0 0 59 59 88 88 61 61 59 59 0 0 1 1 61 61 0 0 90 90 48 48 89 89 46 46 48 48 90 90 91 91 46 46 90 90 92 92 46 46 91 91 93 93 92 92 91 91 94 94 92 92 93 93 95 95 94 94 93 93 96 96 94 94 95 95 98 98 97 97 73 73 99 99 97 97 98 98 100 100 99 99 98 98 101 101 99 99 100 100 102 102 101 101 100 100 103 103 101 101 102 102 104 104 103 103 102 102 105 105 103 103 104 104 108 108 107 107 106 106 109 109 107 107 108 108 110 110 109 109 108 108 111 111 109 109 110 110 112 112 111 111 110 110 113 113 111 111 112 112 114 114 113 113 112 112 85 85 26 26 28 28 115 115 26 26 85 85 84 84 115 115 85 85 116 116 115 115 84 84 83 83 116 116 84 84 117 117 116 116 83 83 82 82 117 117 83 83 118 118 7 7 9 9 119 119 7 7 118 118 120 120 119 119 118 118 121 121 119 119 120 120 122 122 121 121 120 120 123 123 121 121 122 122 124 124 123 123 122 122 125 125 13 13 15 15 126 126 13 13 125 125 127 127 126 126 125 125 65 65 126 126 127 127 128 128 65 65 127 127 67 67 65 65 128 128 126 126 11 11 13 13 129 129 11 11 126 126 65 65 129 129 126 126 118 118 129 129 65 65 66 66 118 118 65 65 68 130 118 118 66 66 130 131 71 71 69 69 131 132 71 71 130 131 132 133 131 132 130 131 98 98 131 132 132 133 133 134 98 98 132 133 100 100 98 98 133 134 77 77 134 135 79 79 135 136 134 135 77 77 89 89 135 136 77 77 50 50 135 136 89 89 48 48 50 50 89 89 38 38 136 137 37 37 36 36 136 137 38 38 137 138 36 36 38 38 35 35 36 36 137 138 138 139 35 35 137 138 139 140 121 121 123 123 119 119 121 121 139 140 140 141 119 119 139 140 5 5 119 119 140 141 3 3 5 5 140 141 143 144 142 143 141 142 144 145 142 143 143 144 145 146 144 145 143 144 146 147 144 145 145 146 147 148 146 147 145 146 149 150 96 96 148 149 150 151 96 96 149 150 40 40 150 151 149 150 42 42 150 151 40 40 137 138 148 149 138 139 149 150 148 149 137 138 38 38 149 150 137 138 40 40 149 150 38 38 32 32 53 53 34 34 86 86 53 53 32 32 30 30 86 86 32 32 29 29 86 86 30 30 153 154 152 153 151 152 154 155 152 153 153 154 41 156 154 155 153 154 155 157 154 155 41 156 156 158 79 154 134 152 157 159 79 154 156 158 158 160 157 159 156 158 159 161 157 159 158 160 49 49 160 162 51 51 161 163 160 162 49 49 47 47 161 163 49 49 45 45 161 163 47 47 21 21 0 0 88 88 2 2 0 0 21 21 162 164 2 2 21 21 4 4 2 2 162 164 165 167 164 166 163 165 166 143 164 166 165 167 107 107 166 143 165 167 167 144 166 143 107 107 154 155 168 168 152 153 169 169 168 168 154 155 170 170 169 169 154 155 171 166 169 169 170 170 72 72 120 120 70 70 122 122 120 120 72 72 74 74 122 122 72 72 124 124 122 122 74 74 172 171 140 141 139 140 173 172 140 141 172 171 64 64 173 172 172 171 1 1 173 172 64 64 174 173 89 89 77 77 97 97 89 89 174 173 75 75 97 97 174 173 73 73 97 97 75 75 175 174 76 76 78 78 74 74 76 76 175 174 176 175 74 74 175 174 124 124 74 74 176 175 177 176 146 147 114 114 144 145 146 147 177 176 178 177 144 145 177 176 177 176 180 179 179 178 112 112 180 179 177 176 114 114 112 112 177 176 157 159 78 156 79 154 181 157 78 156 157 159 182 180 181 157 157 159 24 24 183 181 22 22 184 182 183 181 24 24 185 183 184 182 24 24 188 186 187 185 186 184 189 187 187 185 188 186 190 188 189 187 188 186 192 191 191 190 190 189 193 179 191 190 192 191 131 132 73 73 71 71 98 98 73 73 131 132 180 193 188 186 186 192 194 194 188 186 180 193 193 193 188 186 194 194 195 184 188 186 193 193 185 183 115 115 116 116 24 24 115 115 185 183 135 136 52 52 134 135 50 50 52 52 135 136 129 129 9 9 11 11 118 118 9 9 129 129 68 130 120 120 118 118 70 70 120 120 68 130 173 172 3 3 140 141 1 1 3 3 173 172 179 178 196 191 187 195 180 179 196 191 179 178 99 99 89 89 97 97 101 101 89 89 99 99 101 101 90 90 89 89 103 103 90 90 101 101 103 103 91 91 90 90 105 105 91 91 103 103 150 151 94 94 96 96 42 42 94 94 150 151 44 44 94 94 42 42 46 46 94 94 44 44 159 161 164 166 197 170 163 165 164 166 159 161 171 166 198 196 169 169 142 143 198 196 171 166 153 197 43 43 41 41 151 198 43 43 153 197 157 159 197 170 182 180 159 161 197 170 157 159 45 45 151 198 161 163 43 43 151 198 45 45 200 200 178 177 199 199 144 145 178 177 200 200 201 201 20 20 31 31 19 19 20 20 201 201 202 180 154 155 155 157 170 170 154 155 202 180 54 54 136 137 36 36 56 56 136 137 54 54 23 23 88 88 25 25 21 21 88 88 23 23 55 55 87 87 57 57 53 53 87 87 55 55 193 179 110 110 191 190 112 112 110 110 193 179 194 202 112 112 193 179 180 179 112 112 194 202 203 203 6 6 4 4 204 204 6 6 203 203 205 205 110 110 108 108 191 190 110 110 205 205 204 204 8 8 6 6 80 80 8 8 204 204 111 111 107 107 109 109 167 144 107 107 111 111 166 143 167 144 206 142 75 75 174 173 77 77 93 93 91 91 105 105 94 94 46 46 92 92 177 176 179 178 178 177 119 119 5 5 7 7 142 143 144 145 198 196 187 185 196 206 186 192 195 192 192 206 190 185 53 53 86 86 87 87 196 206 180 193 186 192 24 24 26 26 115 115 190 188 188 186 195 184 193 193 192 206 195 192</p>
                </polylist>
            </mesh>
        </geometry>
        <geometry id="mesh2">
            <mesh>
                <source id="points2">
                    <float_array id="pointarray2" count="768">61.40234375 7.328125 20.359375 67.02734375 6.7265625 19.3671875 60.96484375 8.33984375 25.8046875 68.25 7.21875 23.33984375 67.9140625 5.33984375 24.04296875 73.98828125 4.984375 20.48828125 73.92578125 2.703125 21.05859375 72.33203125 1.79296875 16.94140625 78.3984375 6.74609375 16.14453125 76.6953125 2.296875 13.421875 79.0859375 1.80859375 15.26171875 79.08203125 3.28125 14.55859375 81.8515625 2.0546875 8.08203125 77.59375 3.94921875 13.3203125 80.19140625 2.80078125 7.26171875 77.09765625 -8.66796875 7.359375 74.19921875 -7.453125 13.89453125 81.1328125 -9.3125 -1.51953125 83.4765625 0.39453125 -1.49609375 79.703125 -7.6796875 -9.59375 82.01171875 1.6015625 -8.6875 78.98828125 3.7890625 -15.3125 81.75390625 3.1171875 -8.2421875 78.98046875 5.12890625 -14.33203125 77.49609375 5.60546875 -12.984375 76.59375 3.98828125 -13.40234375 80.09375 3.7265625 -7.296875 77.16796875 -7.51953125 -8.16796875 81.44140625 2.546875 -1.2890625 78.41796875 -8.875 -1.47265625 69.84375 5.8984375 18.3984375 75.14453125 4.0390625 20.04296875 74.90234375 6.19140625 14.71484375 77.16796875 5.72265625 16.47265625 76.80859375 4.515625 15.515625 81.34375 2.63671875 8.4609375 75.3203125 4.4765625 14.30078125 79.5078125 2.5390625 7.52734375 79.8984375 14.609375 8.0703125 76.3828125 15.50390625 14.6484375 85.875 8.22265625 0.03125 84.61328125 10.09765625 -7.12890625 80.89453125 10.19140625 0.3125 79.9921875 11.90625 -6.5 76.5 3.87890625 0.4609375 75.375 5.1328125 -6.18359375 80.4140625 -8.140625 0.60546875 79.06640625 -6.48046875 -5.86328125 82.79296875 -7.296875 -7.8828125 80.0625 -3.62109375 -14.39453125 81.89453125 13.05078125 -13.859375 76.88671875 15.08203125 -12.8359375 72.36328125 7.59375 -12.859375 76.1484375 -2.75390625 -12.87890625 75.8671875 1.7109375 -20.81640625 77.73046875 16.328125 -20.40625 73.546875 18.37109375 -19.17578125 68.5703125 11.79296875 -19.05078125 71.90625 2.48046875 -18.9296875 71.3046875 5.97265625 -24.5546875 85.31640625 7.7109375 7.1953125 80.32421875 9.875 7.09375 75.67578125 3.9140625 7.05078125 79.33984375 -7.96875 7.00390625 84.05078125 -9.46484375 0.03125 83.1171875 8.484375 13.9375 77.6875 10.67578125 13.26171875 72.890625 5.00390625 12.92578125 76.40234375 -6.59375 12.5859375 82.9609375 -9.52734375 7.94921875 80.93359375 14.5625 0.7109375 80.6171875 2.37890625 0.40234375 79.94921875 15.5546875 -6.578125 79.5546875 3.38671875 -6.71875 75.0078125 8.07421875 -14.47265625 75.27734375 6.296875 -14.05859375 76.91796875 6.51953125 -15.50390625 81.3984375 3.59765625 -7.61328125 77.28515625 7.8359375 -16.265625 82.109375 4.92578125 -7.81640625 78.6328125 10.77734375 21.171875 73.75390625 13.0546875 19.66015625 68.76953125 7.46484375 19.87890625 72.09375 -3.7734375 20.09765625 80.015625 -8.18359375 15.19140625 68.92578125 13.53515625 26.9765625 65.3359375 14.4609375 24.609375 60.4375 10.7734375 24.52734375 63.8515625 1.4375 24.44140625 75.0390625 -4.8203125 22.265625 77.5234375 17.50390625 -15.57421875 82.48046875 14.65625 -8.09375 83.2578125 3.48046875 0.5078125 82.5 2.44140625 0.4140625 82.0546875 3.92578125 8.8671875 62.37890625 4.77734375 29.1875 60.28515625 6.76171875 29.83203125 59.0390625 6.515625 27.51953125 59.3046875 11.3203125 28.58203125 60.7265625 14.52734375 27.66015625 62.2421875 14.0859375 29.1484375 58.68359375 9.109375 21.1484375 58.48046875 8.6171875 26.63671875 64.43359375 7.99609375 20.45703125 66.21875 7.6875 24.1953125 72.203125 6.09765625 20.96484375 66.37109375 8.91796875 25.19921875 73.1875 7.05078125 21.5703125 66.625 17.76171875 27.9296875 73.16796875 17.359375 24.55078125 71.984375 18.87890625 -24.73828125 70.08203125 19.30859375 -22.47265625 66.17578125 13.8359375 -21.3359375 65.34375 15.91796875 -24.48828125 64.1796875 11.0078125 -24.23828125 69.53125 16.1171875 -27.5 69.08203125 10.59375 -27.16796875 65.46484375 -20.52734375 0 63.7890625 -20.140625 6.0625 65.16796875 -19.25390625 5 63.484375 -20.4765625 9.9375 60.59375 -17.453125 12.6484375 62.078125 -21.0625 15.03515625 58.55859375 -18.0234375 18.58203125 59.52734375 -21.296875 19.09765625 56.140625 -21.33203125 22.59765625 61.40234375 10.34375 -19.78125 60.96484375 12.16015625 -24.953125 67.19921875 9.5703125 -18.56640625 68.25 10.68359375 -22.7421875 73.890625 7.70703125 -19.8515625 67.9140625 8.94140625 -23.79296875 73.828125 5.546875 -20.8515625 65.82421875 -0.23828125 -25.64453125 70.65234375 -2.109375 -21.98046875 73.33203125 20.3984375 -22.53515625 66.8125 21.234375 -25.875 73.33984375 9.828125 -21.05859375 66.546875 12.60546875 -24.3046875 72.3515625 8.80859375 -20.61328125 66.38671875 11.26171875 -23.49609375 64.578125 11.0859375 -19.76171875 58.671875 12.625 -27.828125 58.8359375 12.3828125 -21.9140625 87.484375 21.9296875 2.22265625 86.56640625 25.3984375 1.6171875 86.07421875 26.0390625 0.03125 83.32421875 30.49609375 2.41796875 85.6796875 34.82421875 0.03125 79.12109375 34.46875 5.4921875 86.95703125 48.29296875 0.03125 72.125 38.15234375 11.6640625 66.93359375 41.515625 0.03125 76.80078125 4.32421875 -18.39453125 78.296875 8.78515625 -15.23046875 72.23046875 4.0234375 -16.96875 69.55859375 -3.40625 -18.9140625 74.546875 -5.7734375 -13.98046875 72.82421875 4.1640625 17.30859375 68.38671875 -4.8515625 19.13671875 63.8671875 -2.1953125 21.6953125 82.3515625 14.30859375 9.45703125 78.5234375 14.3359375 17.10546875 76.75390625 9.71875 20.55859375 76.9296875 15.6953125 21.640625 58.0625 -24.703125 -18.44921875 58.79296875 -21.37890625 -17.66796875 55.55078125 -21.69140625 -21.03125 58.30078125 -17.08203125 -18.58203125 57.65234375 -16.62109375 -21.3203125 61.12890625 -15.8984375 -12.3515625 60.8828125 -13.76953125 -15.72265625 62.25 -14.2734375 -11.453125 72.76953125 37.921875 -11.59765625 79.6875 34.02734375 -5.1171875 83.94140625 29.48828125 -2.3515625 70.08984375 9.609375 -18.01953125 75.28515625 6.62890625 -20.0703125 76.89453125 12.31640625 -19.70703125 77.078125 18.375 -19.875 81.1328125 -9.4140625 1.3046875 79.59765625 -9.23828125 8.7109375 83.4765625 0.328125 1.3515625 82.11328125 0.4921875 8.2265625 83.16796875 1.953125 1.39453125 63.90625 -16.73046875 -8.390625 62.82421875 -18.39453125 -8.19140625 65.16796875 -19.25390625 -5 63.53125 -19.44921875 -6.16796875 64.51171875 -20.94140625 -4.54296875 53.36328125 -29.3125 22.4765625 54.8828125 -21.39453125 25.109375 58.84375 -23.171875 23.5625 64.40625 -23.4765625 17.2265625 72.7265625 6.41796875 -16.875 76.359375 -5.41796875 -15.6875 74.2265625 -3.95703125 -18.59765625 58.67578125 13.9765625 -28.8046875 59.26953125 22.9375 -25.96484375 71.078125 8.66015625 -18.87109375 60.578125 10.921875 -26.05078125 58.51953125 1.8359375 -28.36328125 67.65625 -22.54296875 8.94140625 68.26171875 -21.75390625 2.9375 67.8203125 -21.51171875 0 67.27734375 -22.5703125 -3.53515625 58.609375 -28.234375 -17.83203125 52.81640625 -28.48046875 -23.015625 54.51171875 -22.1796875 -23.7265625 86.57421875 18.5546875 -5.2109375 87.3359375 17.7734375 0.046875 87.484375 21.9296875 -2.1328125 85.3125 25.06640625 -1.3828125 58.4765625 9.83203125 27.734375 58.765625 18.6171875 30.640625 71.7578125 19.34375 -19.06640625 76.48046875 17.2890625 -12.984375 62.47265625 -30.65234375 -16.5859375 62.125 -26.99609375 -14.05859375 64.6640625 -28.6953125 -12.21484375 66.23046875 -26.4453125 -8.3046875 67.12109375 6.56640625 -22.0703125 83.16796875 1.953125 -1.34765625 70.94140625 6.17578125 19.20703125 81.44140625 2.546875 1.5 78.41796875 -8.9453125 1.2421875 76.27734375 -7.7109375 15.46484375 77.578125 0.17578125 18.921875 73.984375 -6.1484375 19.39453125 70.75390625 -5.01171875 22.03515625 60.83203125 -16.6015625 15.41015625 58.10546875 -17.5625 21.3203125 68.12109375 -0.19140625 26.83984375 58.89453125 -0.8984375 29.31640625 59.21875 -2.14453125 22.79296875 60.578125 6.94921875 26.6484375 66.26953125 -2.1328125 26.15234375 56.96484375 -31.1953125 -21.296875 64.19140625 -23.5859375 -9.30078125 65.5859375 21.61328125 -22.5078125 58.9765625 22.5234375 -29.921875 59.87890625 11.33203125 30.359375 53.29296875 -40.1328125 -19.75 52.53515625 -32.58203125 -22.34765625 53.29296875 -40.1328125 19.75 56.859375 -29.97265625 21.34765625 63.046875 -16.6953125 8.8515625 60.3671875 -18.86328125 -15.0390625 61.4765625 -17.83203125 -11.60546875 87.2109375 17.8203125 5.48046875 58.546875 0.57421875 -22.94140625 64.35546875 -1.48046875 -21.3125 59.0859375 19.5625 26.30078125 65.41796875 18.5703125 24.64453125 71.61328125 16.76171875 20.9453125 83.6171875 14.36328125 0.64453125</float_array>
                    <technique_common>
                        <accessor count="256" source="#pointarray2" stride="3">
                            <param name="X" type="float"/>
                            <param name="Y" type="float"/>
                            <param name="Z" type="float"/>
                        </accessor>
                    </technique_common>
                </source>
                <source id="uvs2">
                    <float_array id="uvarray2" count="370">0.5987548828125 0.8721923828125 0.59637451171875 0.82598876953125 0.5767822265625 0.8729248046875 0.5760498046875 0.82806396484375 0.57073974609375 0.828125 0.5748291015625 0.783203125 0.56988525390625 0.78314208984375 0.58233642578125 0.75799560546875 0.56878662109375 0.7388916015625 0.5732421875 0.73895263671875 0.5721435546875 0.69580078125 0.583740234375 0.73870849609375 0.582275390625 0.6951904296875 0.53228759765625 0.697021484375 0.5318603515625 0.7401123046875 0.532958984375 0.6529541015625 0.57391357421875 0.65350341796875 0.5675048828125 0.69561767578125 0.5799560546875 0.6541748046875 0.53314208984375 0.6529541015625 0.570556640625 0.78375244140625 0.5836181640625 0.7568359375 0.56939697265625 0.7392578125 0.57427978515625 0.73931884765625 0.5728759765625 0.69854736328125 0.58514404296875 0.73907470703125 0.58355712890625 0.69793701171875 0.53173828125 0.69830322265625 0.53131103515625 0.740478515625 0.62799072265625 0.020751953125 0.6441650390625 0.0284423828125 0.62701416015625 0.091552734375 0.63702392578125 0.09918212890625 0.62725830078125 0.091552734375 0.6375732421875 0.09930419921875 0.62750244140625 0.091552734375 0.63812255859375 0.0994873046875 0.6640625 0.03973388671875 0.64776611328125 0.1060791015625 0.6484375 0.10638427734375 0.649169921875 0.10675048828125 0.6790771484375 0.0584716796875 0.65679931640625 0.11004638671875 0.658447265625 0.11395263671875 0.66009521484375 0.11785888671875 0.6876220703125 0.07269287109375 0.64544677734375 0.0277099609375 0.63885498046875 0.09881591796875 0.6385498046875 0.0982666015625 0.63824462890625 0.0977783203125 0.66912841796875 0.0467529296875 0.64892578125 0.10650634765625 0.64837646484375 0.10675048828125 0.6478271484375 0.10693359375 0.53240966796875 0.65203857421875 0.58099365234375 0.6544189453125 0.568115234375 0.6983642578125 0.68707275390625 0.07708740234375 0.659912109375 0.11590576171875 0.660400390625 0.11700439453125 0.660888671875 0.1180419921875 0.6954345703125 0.088134765625 0.66546630859375 0.114501953125 0.664794921875 0.11602783203125 0.6641845703125 0.1175537109375 0.56719970703125 0.65374755859375 0.57183837890625 0.65399169921875 0.69000244140625 0.0838623046875 0.69451904296875 0.08624267578125 0.6640625 0.11614990234375 0.6641845703125 0.1168212890625 0.664306640625 0.1175537109375 0.6949462890625 0.087158203125 0.6005859375 0.87286376953125 0.577880859375 0.8736572265625 0.59814453125 0.8267822265625 0.576904296875 0.8289794921875 0.575927734375 0.78387451171875 0.57171630859375 0.828857421875 0.531005859375 0.83172607421875 0.531005859375 0.78802490234375 0.69622802734375 0.0869140625 0.65985107421875 0.1123046875 0.6590576171875 0.1138916015625 0.66290283203125 0.11456298828125 0.66253662109375 0.1175537109375 0.68609619140625 0.09234619140625 0.6868896484375 0.09381103515625 0.992431640625 0.80035400390625 0.94134521484375 0.7841796875 0.92718505859375 0.7532958984375 0.8985595703125 0.764404296875 0.86834716796875 0.74188232421875 0.84710693359375 0.76031494140625 0.80010986328125 0.7607421875 0.808837890625 0.78125 0.77972412109375 0.83551025390625 0.5313720703125 0.82769775390625 0.53155517578125 0.7852783203125 0.09967041015625 0.978759765625 0.09014892578125 0.984130859375 0.0771484375 0.9962158203125 0.0771484375 0.9833984375 0.047119140625 0.9962158203125 0.062744140625 0.97393798828125 0.02862548828125 0.9962158203125 0.04229736328125 0.95245361328125 0.0111083984375 0.9962158203125 0.56231689453125 0.76055908203125 0.5948486328125 0.78228759765625 0.5313720703125 0.82757568359375 0.5577392578125 0.75946044921875 0.53118896484375 0.76495361328125 0.80694580078125 0.8096923828125 0.80963134765625 0.791748046875 0.77545166015625 0.793701171875 0.7789306640625 0.75128173828125 0.86834716796875 0.74737548828125 0.81689453125 0.72515869140625 0.8629150390625 0.72125244140625 0.5325927734375 0.65350341796875 0.5743408203125 0.6536865234375 0.57891845703125 0.65386962890625 0.90948486328125 0.7396240234375 0.8985595703125 0.7705078125 0.9449462890625 0.7669677734375 0.92486572265625 0.786376953125 0.93353271484375 0.80755615234375 0.7738037109375 0.8798828125 0.75994873046875 0.82177734375 0.797607421875 0.8681640625 0.8502197265625 0.85211181640625 0.808837890625 0.82659912109375 0.843505859375 0.8197021484375 0.53173828125 0.76287841796875 0.572509765625 0.8740234375 0.5770263671875 0.8907470703125 0.53070068359375 0.893310546875 0.57098388671875 0.7838134765625 0.5965576171875 0.78094482421875 0.571533203125 0.873291015625 0.53125 0.87872314453125 0.92431640625 0.83892822265625 0.92919921875 0.80743408203125 0.9583740234375 0.83404541015625 0.992431640625 0.8291015625 0.95843505859375 0.833984375 0.80426025390625 0.82769775390625 0.7642822265625 0.8470458984375 0.7562255859375 0.79644775390625 0.1083984375 0.96649169921875 0.10772705078125 0.9962158203125 0.5308837890625 0.8775634765625 0.89727783203125 0.81060791015625 0.85040283203125 0.84930419921875 0.88739013671875 0.8441162109375 0.92437744140625 0.83892822265625 0.66131591796875 0.11773681640625 0.57843017578125 0.65374755859375 0.57916259765625 0.654052734375 0.57989501953125 0.65313720703125 0.57293701171875 0.6544189453125 0.53240966796875 0.65313720703125 0.53314208984375 0.65447998046875 0.5789794921875 0.6534423828125 0.57293701171875 0.65313720703125 0.57989501953125 0.65435791015625 0.53302001953125 0.65313720703125 0.53240966796875 0.65447998046875 0.81695556640625 0.72515869140625 0.77899169921875 0.75128173828125 0.58111572265625 0.65380859375 0.53271484375 0.653564453125 0.53106689453125 0.8909912109375 0.57586669921875 0.884765625 0.79840087890625 0.867431640625 0.69451904296875 0.08612060546875 0.80462646484375 0.9425048828125 0.77471923828125 0.87969970703125 0.8017578125 0.94317626953125 0.7996826171875 0.9053955078125 0.83349609375 0.77130126953125 0.86737060546875 0.76318359375 0.53125 0.87860107421875 0.5706787109375 0.78375244140625</float_array>
                    <technique_common>
                        <accessor count="185" source="#uvarray2" stride="2">
                            <param name="S" type="float"/>
                            <param name="T" type="float"/>
                        </accessor>
                    </technique_common>
                </source>
                <vertices id="vertices2">
                    <input semantic="POSITION" source="#points2"/>
                </vertices>
                <polylist count="376" material="Material1">
                    <input offset="0" semantic="VERTEX" source="#vertices2"/>
                    <input offset="1" semantic="TEXCOORD" source="#uvs2" set="0"/>
                    <vcount>3 3 3 3 3 3 3 3 3 3 3 3 3 3 3 3 3 3 3 3 3 3 3 3 3 3 3 3 3 3 3 3 3 3 3 3 3 3 3 3 3 3 3 3 3 3 3 3 3 3 3 3 3 3 3 3 3 3 3 3 3 3 3 3 3 3 3 3 3 3 3 3 3 3 3 3 3 3 3 3 3 3 3 3 3 3 3 3 3 3 3 3 3 3 3 3 3 3 3 3 3 3 3 3 3 3 3 3 3 3 3 3 3 3 3 3 3 3 3 3 3 3 3 3 3 3 3 3 3 3 3 3 3 3 3 3 3 3 3 3 3 3 3 3 3 3 3 3 3 3 3 3 3 3 3 3 3 3 3 3 3 3 3 3 3 3 3 3 3 3 3 3 3 3 3 3 3 3 3 3 3 3 3 3 3 3 3 3 3 3 3 3 3 3 3 3 3 3 3 3 3 3 3 3 3 3 3 3 3 3 3 3 3 3 3 3 3 3 3 3 3 3 3 3 3 3 3 3 3 3 3 3 3 3 3 3 3 3 3 3 3 3 3 3 3 3 3 3 3 3 3 3 3 3 3 3 3 3 3 3 3 3 3 3 3 3 3 3 3 3 3 3 3 3 3 3 3 3 3 3 3 3 3 3 3 3 3 3 3 3 3 3 3 3 3 3 3 3 3 3 3 3 3 3 3 3 3 3 3 3 3 3 3 3 3 3 3 3 3 3 3 3 3 3 3 3 3 3 3 3 3 3 3 3 3 3 3 3 3 3 3 3 3 3 3 3 3 3 3 3 3 3 3 3 3 3 3 3 3 3 3 3 3 3 3 3 3 3 3 3 3 3 3 3 3 3</vcount>
                    <p>2 2 1 1 0 0 3 3 1 1 2 2 4 4 3 3 2 2 5 5 3 3 4 4 6 6 5 5 4 4 7 6 5 5 6 6 8 7 7 6 6 6 9 8 7 6 8 7 10 8 9 8 8 7 11 9 9 8 10 8 12 10 11 9 10 8 13 11 11 9 12 10 14 12 13 11 12 10 9 8 13 11 14 12 15 13 9 8 14 12 16 14 9 8 15 13 19 13 18 16 17 15 20 17 18 16 19 13 21 8 20 17 19 13 22 10 20 17 21 8 23 9 22 10 21 8 24 11 22 10 23 9 25 8 24 11 23 9 26 12 24 11 25 8 27 13 26 12 25 8 28 18 26 12 27 13 29 19 28 18 27 13 32 22 31 21 30 20 33 22 31 21 32 22 34 23 33 22 32 22 35 24 33 22 34 23 36 25 35 24 34 23 37 26 35 24 36 25 32 22 37 26 36 25 38 27 37 26 32 22 39 28 38 27 32 22 42 31 41 30 40 29 43 32 41 30 42 31 44 33 43 32 42 31 45 34 43 32 44 33 46 35 45 34 44 33 47 36 45 34 46 35 48 30 47 36 46 35 49 37 47 36 48 30 43 32 50 37 41 30 51 38 50 37 43 32 45 34 51 38 43 32 52 39 51 38 45 34 47 36 52 39 45 34 53 40 52 39 47 36 49 37 53 40 47 36 54 41 53 40 49 37 51 38 55 41 50 37 56 42 55 41 51 38 52 39 56 42 51 38 57 43 56 42 52 39 53 40 57 43 52 39 58 44 57 43 53 40 54 41 58 44 53 40 59 45 58 44 54 41 61 47 40 29 60 46 42 31 40 29 61 47 62 48 42 31 61 47 44 33 42 31 62 48 63 49 44 33 62 48 46 35 44 33 63 49 64 29 46 35 63 49 48 30 46 35 64 29 66 51 60 46 65 50 61 47 60 46 66 51 67 52 61 47 66 51 62 48 61 47 67 52 68 53 62 48 67 52 63 49 62 48 68 53 69 46 63 49 68 53 64 29 63 49 69 46 72 27 71 55 70 54 73 26 71 55 72 27 74 22 73 26 72 27 75 25 73 26 74 22 76 23 75 25 74 22 77 24 75 25 76 23 78 22 77 24 76 23 79 56 77 24 78 22 81 58 65 50 80 57 66 51 65 50 81 58 82 59 66 51 81 58 67 52 66 51 82 59 83 60 67 52 82 59 68 53 67 52 83 60 84 50 68 53 83 60 69 46 68 53 84 50 86 62 80 57 85 61 81 58 80 57 86 62 87 63 81 58 86 62 82 59 81 58 87 63 88 64 82 59 87 63 83 60 82 59 88 64 89 57 83 60 88 64 84 50 83 60 89 57 91 27 78 22 90 28 79 56 78 22 91 27 92 65 79 56 91 27 93 66 79 56 92 65 94 56 93 66 92 65 35 24 93 66 94 56 33 22 35 24 94 56 97 69 96 68 95 67 98 70 96 68 97 69 87 63 98 70 97 69 99 71 98 70 87 63 86 62 99 71 87 63 100 72 99 71 86 62 85 61 100 72 86 62 103 75 102 74 101 73 104 76 102 74 103 75 105 77 104 76 103 75 106 78 104 76 105 77 107 20 106 78 105 77 108 79 106 78 107 20 109 80 108 79 107 20 56 42 110 81 55 41 111 82 110 81 56 42 112 83 111 82 56 42 113 84 111 82 112 83 114 85 113 84 112 83 115 86 113 84 114 85 116 87 115 86 114 85 119 90 118 89 117 88 120 91 118 89 119 90 121 92 120 91 119 90 122 93 120 91 121 92 123 94 122 93 121 92 124 95 122 93 123 94 125 96 124 95 123 94 128 1 127 2 126 0 129 3 127 2 128 1 130 5 129 3 128 1 131 4 129 3 130 5 132 6 131 4 130 5 133 97 131 4 132 6 134 98 133 97 132 6 137 20 136 79 135 80 138 78 136 79 137 20 139 77 138 78 137 20 140 76 138 78 139 77 141 75 140 76 139 77 142 74 140 76 141 75 143 73 142 74 141 75 146 101 145 100 144 99 147 102 145 100 146 101 148 103 147 102 146 101 149 104 147 102 148 103 150 105 149 104 148 103 151 106 149 104 150 105 152 107 151 106 150 105 132 6 153 108 134 98 154 7 153 108 132 6 155 6 154 7 132 6 25 8 154 7 155 6 156 98 25 8 155 6 157 14 25 8 156 98 5 5 1 1 3 3 158 109 1 1 5 5 7 6 158 109 5 5 1 1 158 109 7 6 159 98 1 1 7 6 160 110 1 1 159 98 161 27 94 56 92 65 33 22 94 56 161 27 162 28 33 22 161 27 163 111 33 22 162 28 164 112 163 111 162 28 109 80 163 111 164 112 167 115 166 114 165 113 168 94 166 114 167 115 169 116 168 94 167 115 170 117 168 94 169 116 171 118 170 117 169 116 172 119 170 117 171 118 150 105 173 106 152 107 174 104 173 106 150 105 148 103 174 104 150 105 175 102 174 104 148 103 146 101 175 102 148 103 177 21 74 22 176 20 78 22 74 22 177 21 178 111 78 22 177 21 90 28 78 22 178 111 179 112 90 28 178 111 182 121 181 13 180 120 183 17 181 13 182 121 184 122 183 17 182 121 12 10 183 17 184 122 14 12 12 10 184 122 185 123 170 117 172 119 186 124 170 117 185 123 187 125 186 124 185 123 188 126 186 124 187 125 189 127 188 126 187 125 192 130 191 129 190 128 125 96 191 129 192 130 193 131 125 96 192 130 124 132 125 96 193 131 122 133 124 132 193 131 130 5 155 6 132 6 194 109 155 6 130 5 128 1 194 109 130 5 155 6 194 109 128 1 156 98 155 6 128 1 195 14 21 8 19 13 153 108 21 8 195 14 196 134 153 108 195 14 134 98 153 108 196 134 37 26 93 66 35 24 71 55 93 66 37 26 38 27 71 55 37 26 70 54 71 55 38 27 142 74 138 78 140 76 197 135 138 78 142 74 143 136 197 135 142 74 198 137 197 135 143 136 176 138 139 77 137 20 199 139 139 77 176 138 141 75 199 139 176 138 139 77 199 139 141 75 131 4 127 2 129 3 200 140 127 2 131 4 133 97 200 140 131 4 201 141 200 140 133 97 203 144 118 143 202 142 117 88 118 143 203 144 204 145 117 88 203 144 205 146 117 88 204 145 178 111 135 80 179 112 137 20 135 80 178 111 177 21 137 20 178 111 176 138 137 20 177 21 207 148 165 113 206 147 167 115 165 113 207 148 208 149 167 115 207 148 169 116 167 115 208 149 211 99 210 151 209 150 146 101 210 151 211 99 212 100 146 101 211 99 175 102 146 101 212 100 106 78 102 74 104 76 213 135 102 74 106 78 108 79 213 135 106 78 214 152 213 135 108 79 202 142 122 133 193 131 120 153 122 133 202 142 118 143 120 153 202 142 74 22 215 80 176 138 216 28 215 80 74 22 72 27 216 28 74 22 218 133 217 154 206 147 219 155 217 154 218 133 220 156 219 155 218 133 221 157 114 85 112 83 116 87 114 85 221 157 59 45 116 87 221 157 26 12 22 10 24 11 222 158 22 10 26 12 28 18 222 158 26 12 223 139 103 75 30 138 105 77 103 75 223 139 30 138 105 77 223 139 182 161 224 160 184 159 225 162 224 160 182 161 180 163 225 162 182 161 28 166 18 165 222 164 17 167 18 165 28 166 29 168 17 167 28 166 227 108 226 14 10 8 228 134 226 14 227 108 229 98 228 134 227 108 227 108 6 6 229 98 8 7 6 6 227 108 10 8 8 7 227 108 231 170 121 92 230 169 123 94 121 92 231 170 125 96 123 94 231 170 10 8 183 17 12 10 181 13 183 17 10 8 226 14 181 13 10 8 224 171 14 12 184 122 15 13 14 12 224 171 225 172 15 13 224 171 97 69 88 64 87 63 232 61 88 64 97 69 95 67 232 61 97 69 163 111 31 21 33 22 107 20 31 21 163 111 109 80 107 20 163 111 235 140 234 173 233 141 0 174 234 173 235 140 2 2 0 174 235 140 235 140 4 4 2 2 236 97 4 4 235 140 233 141 236 97 235 140 93 66 77 24 79 56 73 26 77 24 93 66 71 55 73 26 93 66 221 157 58 44 59 45 112 83 58 44 221 157 207 148 217 154 237 175 206 147 217 154 207 148 238 153 220 156 218 133 189 127 220 156 238 153 189 127 205 146 220 156 117 88 205 146 189 127 198 152 141 78 239 79 143 135 141 78 198 152 57 43 112 83 56 42 58 44 112 83 57 43 240 152 197 135 198 137 136 79 197 135 240 152 236 97 6 6 4 4 229 98 6 6 236 97 110 81 113 84 115 86 111 82 113 84 110 81 100 72 98 70 99 71 241 176 98 70 100 72 243 178 237 175 242 177 207 148 237 175 243 178 245 180 190 128 244 179 192 130 190 128 245 180 246 119 121 92 119 90 230 169 121 92 246 119 168 94 247 181 166 114 170 117 247 181 168 94 170 117 248 182 247 181 186 124 248 182 170 117 210 151 144 99 249 150 146 101 144 99 210 151 9 8 159 98 7 6 16 14 159 98 9 8 234 183 1 1 160 110 0 140 1 1 234 183 250 183 128 1 126 140 251 110 128 1 250 183 252 152 103 78 101 135 253 79 103 78 252 152 32 22 254 80 39 28 30 138 254 80 32 22 252 137 213 135 214 152 101 136 213 135 252 137 255 54 92 65 91 27 161 27 92 65 255 54 215 80 141 78 176 184 239 79 141 78 215 80 20 17 222 158 18 16 22 10 222 158 20 17 154 7 21 8 153 108 25 8 21 8 154 7 250 173 200 140 201 141 126 174 200 140 250 173 254 80 103 78 253 79 30 184 103 78 254 80 107 20 30 138 31 21 105 77 30 138 107 20 96 68 98 70 241 176 200 140 126 174 127 2 75 25 77 24 73 26 9 8 11 9 13 11 136 79 138 78 197 135 74 22 78 22 76 23 89 57 88 64 232 61 25 8 23 9 21 8 25 8 157 14 27 13 117 88 189 127 187 125 128 1 251 110 156 98 231 170 191 129 125 96 32 22 36 25 34 23 213 135 101 136 102 74</p>
                </polylist>
            </mesh>
        </geometry>
    </library_geometries>
    <library_visual_scenes>
        <visual_scene id="VisualSceneNode">
            <node id="node0" name="m0" type="NODE">
                <instance_geometry url="#mesh0">
                    <bind_material>
                        <technique_common>
                            <instance_material symbol="Material1" target="#mat0">
                                <bind_vertex_input semantic="UVSET0" input_semantic="TEXCOORD" input_set="0"></bind_vertex_input>
                            </instance_material>
                        </technique_common>
                    </bind_material>
                </instance_geometry>
            </node>
            <node id="node1" name="m1" type="NODE">
                <instance_geometry url="#mesh1">
                    <bind_material>
                        <technique_common>
                            <instance_material symbol="Material1" target="#mat2">
                                <bind_vertex_input semantic="UVSET0" input_semantic="TEXCOORD" input_set="0"></bind_vertex_input>
                            </instance_material>
                        </technique_common>
                    </bind_material>
                </instance_geometry>
            </node>
            <node id="node2" name="m2" type="NODE">
                <instance_geometry url="#mesh2">
                    <bind_material>
                        <technique_common>
                            <instance_material symbol="Material1" target="#mat1">
                                <bind_vertex_input semantic="UVSET0" input_semantic="TEXCOORD" input_set="0"></bind_vertex_input>
                            </instance_material>
                        </technique_common>
                    </bind_material>
                </instance_geometry>
            </node>
        </visual_scene>
    </library_visual_scenes>
    <scene>
        <instance_visual_scene url="#VisualSceneNode"></instance_visual_scene>
    </scene>
</COLLADA>
