<?xml version="1.0"?>
<COLLADA xmlns="http://www.collada.org/2005/11/COLLADASchema" version="1.4.1">
    <asset>
        <contributor>
            <authoring_tool>J3D Ripoff Exporter</authoring_tool>
        </contributor>
        <created>2024-08-19T02:40:16.828Z</created>
        <modified>2024-08-19T02:40:16.828Z</modified>
		<unit meter="0.01" name="centimeter" ></unit>
        <up_axis>Y_UP</up_axis>
    </asset>
    <library_images>
        <image id="tex0">
            <init_from>miyamoto_skin.png</init_from>
        </image>
        <image id="tex1">
            <init_from>miyamoto_eye.png</init_from>
        </image>
    </library_images>
    <library_effects>
        <effect id="effect0">
            <profile_COMMON>
                <newparam sid="surface0">
                    <surface type="2D">
                        <init_from>tex1</init_from>
                    </surface>
                </newparam>
                <newparam sid="sampler0">
                    <sampler2D>
                        <source>surface0</source>
                    </sampler2D>
                </newparam>
                <technique sid="COMMON">
                    <blinn>
                        <diffuse>
                            <texture texture="sampler0" texcoord="UVSET0"></texture>
                        </diffuse>
                    </blinn>
                </technique>
            </profile_COMMON>
        </effect>
        <effect id="effect1">
            <profile_COMMON>
                <newparam sid="surface1">
                    <surface type="2D">
                        <init_from>tex0</init_from>
                    </surface>
                </newparam>
                <newparam sid="sampler1">
                    <sampler2D>
                        <source>surface1</source>
                    </sampler2D>
                </newparam>
                <technique sid="COMMON">
                    <blinn>
                        <diffuse>
                            <texture texture="sampler1" texcoord="UVSET0"></texture>
                        </diffuse>
                    </blinn>
                </technique>
            </profile_COMMON>
        </effect>
        <effect id="effect2">
            <profile_COMMON>
                <newparam sid="surface2">
                    <surface type="2D">
                        <init_from>tex0</init_from>
                    </surface>
                </newparam>
                <newparam sid="sampler2">
                    <sampler2D>
                        <source>surface2</source>
                    </sampler2D>
                </newparam>
                <technique sid="COMMON">
                    <blinn>
                        <diffuse>
                            <texture texture="sampler2" texcoord="UVSET0"></texture>
                        </diffuse>
                    </blinn>
                </technique>
            </profile_COMMON>
        </effect>
    </library_effects>
    <library_materials>
        <material id="mat0" name="Eye">
            <instance_effect url="#effect0"></instance_effect>
        </material>
        <material id="mat1" name="Skin_etc">
            <instance_effect url="#effect1"></instance_effect>
        </material>
        <material id="mat2" name="Skin_spc">
            <instance_effect url="#effect2"></instance_effect>
        </material>
    </library_materials>
    <library_geometries>
        <geometry id="mesh0">
            <mesh>
                <source id="points0">
                    <float_array id="pointarray0" count="210">58.48828125 -24 18.09765625 55.96484375 -21.69140625 21.30859375 58.79296875 -21.37890625 17.66796875 57.88671875 -17.61328125 18.58203125 59.64453125 -18.9140625 15.36328125 59.6015625 -15.79296875 11.21875 60.26953125 -17.94140625 12.08984375 60.79296875 -18.71484375 8.72265625 58.4921875 -24 -18.09765625 58.79296875 -21.37890625 -17.66796875 55.55078125 -21.69140625 -21.03125 57.88671875 -17.61328125 -18.58203125 57.65234375 -17.15234375 -21.3203125 59.6015625 -15.79296875 -11.21875 60.8828125 -14.3046875 -15.72265625 62.25 -14.80859375 -11.453125 83.81640625 27.15234375 6.70703125 82.46875 30.828125 2.51953125 84.6796875 27.56640625 0.2890625 83.39453125 31.11328125 0.03125 82.46875 30.828125 -2.390625 82.5078125 36.39453125 0.03125 81.33984375 33.62109375 -2.65625 78.296875 36.53515625 -5.1171875 60.64453125 -18.9140625 -15.36328125 60.26953125 -17.94140625 -12.08984375 60.79296875 -18.71484375 -8.72265625 65.16796875 -19.25390625 -5 61.77734375 -20.7265625 -6.52734375 63.95703125 -23.92578125 0 62.38671875 -22.56640625 -5.89453125 53.70703125 -40.1328125 20.02734375 52.53515625 -32.609375 22.34765625 56.96484375 -31.22265625 21.296875 52.81640625 -28.51171875 23.015625 63.609375 -29.390625 16.5859375 59.13671875 -26.625 17.21875 61.28125 -25.87890625 14.39453125 61.77734375 -20.7265625 6.52734375 65.16796875 -19.25390625 5 63.90625 -16.73046875 8.390625 62.25 -14.80859375 11.4609375 59.13671875 -26.625 -17.21875 63.609375 -29.390625 -16.5859375 61.57421875 -25.87890625 -14.39453125 66.859375 -27.8125 -8.3046875 63.3125 -24.8671875 -9.30078125 62.9921875 -24.40625 -5.98046875 77.09375 36.8828125 5.6171875 69.62109375 38.78515625 11.6640625 84.453125 48.29296875 0.03125 64.43359375 41.515625 0.03125 70.01171875 38.92578125 -11.59765625 66.859375 -27.8125 8.3046875 63.3125 -24.8671875 9.30078125 62.9921875 -24.40625 5.98046875 80.72265625 33.28515625 2.71875 62.38671875 -22.56640625 5.89453125 65.46484375 -20.52734375 0 54.51171875 -22.1796875 23.3828125 57.65234375 -17.15234375 21.3203125 67.8203125 -26.66015625 0 60.8828125 -14.3046875 15.41015625 56.96484375 -31.22265625 -21.296875 52.81640625 -28.51171875 -23.015625 54.51171875 -22.1796875 -23.3828125 63.90625 -16.73046875 -8.390625 53.29296875 -40.1328125 -19.75 52.53515625 -32.609375 -22.34765625 83.47265625 27.9765625 -5.19140625</float_array>
                    <technique_common>
                        <accessor count="70" source="#pointarray0" stride="3">
                            <param name="X" type="float"/>
                            <param name="Y" type="float"/>
                            <param name="Z" type="float"/>
                        </accessor>
                    </technique_common>
                </source>
                <source id="uvs0">
                    <float_array id="uvarray0" count="98">0.80694580078125 0.8096923828125 0.775390625 0.793701171875 0.80963134765625 0.791748046875 0.80010986328125 0.7607421875 0.83349609375 0.77130126953125 0.86834716796875 0.74737548828125 0.86737060546875 0.76318359375 0.8985595703125 0.7705078125 0.77545166015625 0.793701171875 0.7789306640625 0.75128173828125 0.81689453125 0.72515869140625 0.8629150390625 0.72125244140625 0.1083984375 0.96649169921875 0.09967041015625 0.978759765625 0.10772705078125 0.9962158203125 0.0771484375 0.9962158203125 0.047119140625 0.9962158203125 0.08367919921875 0.9837646484375 0.062744140625 0.97393798828125 0.9449462890625 0.7669677734375 0.92486572265625 0.786376953125 0.992431640625 0.8035888671875 0.92919921875 0.79693603515625 0.8017578125 0.94317626953125 0.7738037109375 0.8798828125 0.797607421875 0.86761474609375 0.76385498046875 0.84710693359375 0.8502197265625 0.849365234375 0.80426025390625 0.82769775390625 0.843505859375 0.8197021484375 0.90948486328125 0.7396240234375 0.85040283203125 0.84930419921875 0.92437744140625 0.83892822265625 0.89727783203125 0.81060791015625 0.93353271484375 0.80755615234375 0.04229736328125 0.95245361328125 0.02862548828125 0.9962158203125 0.0111083984375 0.9962158203125 0.92431640625 0.83892822265625 0.992431640625 0.784912109375 0.75604248046875 0.7965087890625 0.77899169921875 0.75128173828125 0.992431640625 0.8291015625 0.81695556640625 0.72515869140625 0.79840087890625 0.867431640625 0.7642822265625 0.8470458984375 0.7562255859375 0.79644775390625 0.80462646484375 0.9425048828125 0.77471923828125 0.87969970703125</float_array>
                    <technique_common>
                        <accessor count="49" source="#uvarray0" stride="2">
                            <param name="S" type="float"/>
                            <param name="T" type="float"/>
                        </accessor>
                    </technique_common>
                </source>
                <vertices id="vertices0">
                    <input semantic="POSITION" source="#points0"/>
                </vertices>
                <polylist count="80" material="Material1">
                    <input offset="0" semantic="VERTEX" source="#vertices0"/>
                    <input offset="1" semantic="TEXCOORD" source="#uvs0" set="0"/>
                    <vcount>3 3 3 3 3 3 3 3 3 3 3 3 3 3 3 3 3 3 3 3 3 3 3 3 3 3 3 3 3 3 3 3 3 3 3 3 3 3 3 3 3 3 3 3 3 3 3 3 3 3 3 3 3 3 3 3 3 3 3 3 3 3 3 3 3 3 3 3 3 3 3 3 3 3 3 3 3 3 3 3</vcount>
                    <p>2 2 1 1 0 0 3 3 1 1 2 2 4 4 3 3 2 2 5 5 3 3 4 4 6 6 5 5 4 4 7 7 5 5 6 6 10 8 9 2 8 0 11 3 9 2 10 8 12 9 11 3 10 8 13 5 11 3 12 9 14 10 13 5 12 9 15 11 13 5 14 10 18 14 17 13 16 12 19 15 17 13 18 14 20 13 19 15 18 14 21 16 19 15 20 13 22 17 21 16 20 13 23 18 21 16 22 17 13 5 25 6 24 4 26 7 25 6 13 5 27 19 26 7 13 5 28 20 26 7 27 19 29 21 28 20 27 19 30 22 28 20 29 21 33 25 32 24 31 23 34 26 32 24 33 25 35 27 34 26 33 25 36 28 34 26 35 27 37 29 36 28 35 27 39 19 7 7 38 20 5 5 7 7 39 19 40 30 5 5 39 19 41 11 5 5 40 30 44 29 43 31 42 28 45 32 43 31 44 29 46 33 45 32 44 29 47 34 45 32 46 33 50 36 49 35 48 18 51 37 49 35 50 36 52 35 51 37 50 36 53 38 37 29 35 27 54 33 37 29 53 38 55 34 54 33 53 38 21 16 17 13 19 15 56 17 17 13 21 16 48 18 56 17 21 16 29 21 38 20 57 22 39 19 38 20 29 21 58 39 39 19 29 21 1 1 34 26 0 0 59 40 34 26 1 1 60 41 59 40 1 1 21 16 50 36 48 18 23 18 50 36 21 16 3 3 60 41 1 1 5 5 60 41 3 3 29 21 45 32 47 34 61 42 45 32 29 21 62 43 5 5 41 11 60 41 5 5 62 43 64 45 43 31 63 44 42 28 43 31 64 45 53 38 29 21 55 34 61 42 29 21 53 38 64 45 10 8 8 0 65 46 10 8 64 45 66 30 13 5 15 11 27 19 13 5 66 30 68 48 63 44 67 47 64 45 63 44 68 48 11 3 24 4 9 2 13 5 24 4 11 3 27 19 58 39 29 21 69 12 20 13 18 14 55 34 29 21 57 22 12 9 10 8 65 46 47 34 30 22 29 21 0 0 34 26 36 28 64 45 8 0 42 28 50 36 23 18 52 35</p>
                </polylist>
            </mesh>
        </geometry>
        <geometry id="mesh1">
            <mesh>
                <source id="points1">
                    <float_array id="pointarray1" count="588">65.4921875 21.34765625 26.84375 74.2578125 19.79296875 21.83984375 75.43359375 18.27734375 22.9296875 80.2265625 19.08984375 13.92578125 82.1875 17.43359375 13.99609375 85.23828125 17.30859375 7.5390625 86.93359375 8.26171875 7.76953125 87.78125 8.11328125 0.00390625 87.453125 -0.5234375 0.01953125 86.44140625 9.21875 -7.8515625 86.29296875 0.46875 -7.4296875 83.55859375 10.66796875 -14.48046875 84 2.22265625 -14.140625 76.87890625 7.10546875 -23.4609375 77.30859375 1.69140625 -23.375 67.97265625 11.87109375 -29.7109375 69.75390625 6.12109375 -29.29296875 59.71484375 15.55859375 -32.32421875 55.5 6.64453125 -33.12109375 53.19921875 13.7734375 -33.90625 44.234375 9.98828125 -35.4609375 52.06640625 21.9609375 -33.8125 40.66015625 20.16796875 -34.79296875 50.171875 29.1953125 -31.6640625 40.046875 27.3046875 -30.75 49.80078125 35.41796875 -23.44921875 41.53125 33.4453125 -22.34765625 46.11328125 38.0390625 -11.98828125 54.953125 24.6015625 32.1328125 67.3359375 19.84765625 28.4609375 69.58203125 11.09765625 27.94140625 77.33203125 9.60546875 22.91796875 70.859375 3.69140625 27.03125 78.1015625 2 22.38671875 69.56640625 -2.78125 26.12109375 76.3046875 -4.67578125 20.59765625 68.390625 -8.5703125 20.82421875 73.6171875 -12.328125 12.2265625 62.25 -14.80859375 11.4609375 63.90625 -16.73046875 8.390625 83.33203125 18.99609375 7.1953125 87.61328125 20.96875 7.41796875 84.421875 19.18359375 0.03125 88.23828125 21.18359375 0.03125 87.04296875 22.05859375 -7.3515625 87.265625 25.89453125 -7.1875 84.01953125 27.08203125 -15.10546875 81.02734375 28.828125 -11.41015625 75.5078125 30.48828125 -19.140625 79.09375 33.3203125 -12.65234375 68.9921875 33.015625 -24.58984375 74.859375 36.84375 -13.0078125 67.22265625 37.33203125 -20.21875 70.01171875 38.92578125 -11.59765625 86.046875 17.453125 0.03125 84.46484375 18.4140625 -7.47265625 81.55078125 19.515625 -14.3984375 76.69140625 13.9765625 -23.54296875 82.79296875 20.0859375 -7.12890625 79.578125 21.2890625 -13.9765625 75.1953125 21.828125 -23 67.6015625 17.6484375 -29.25390625 56.9453125 29.96875 -30.46484375 57.796875 33.62890625 -28.421875 55.5703125 36.1640625 -23.21875 61.453125 39.90234375 -13.37890625 59.45703125 41.96484375 0.02734375 64.43359375 41.515625 0.03125 69.62109375 38.78515625 11.6640625 61.453125 39.41796875 13.4375 65.703125 35.8515625 19.9921875 55.984375 35.84375 22.9453125 57.8359375 31.90625 28.59375 50.171875 28.8046875 31.01953125 57.57421875 27.86328125 31.3984375 50.6875 20.80859375 33.99609375 52.5234375 13.7734375 34.11328125 68.3828125 32.18359375 24.1640625 69.484375 27.95703125 26.3046875 70.08203125 26.14453125 28.0078125 78.9375 25.328125 23.0234375 79.09765625 21.24609375 22.67578125 85.02734375 20.8125 14.68359375 59.5078125 22.2578125 -31.671875 66.0859375 25.01953125 -27.81640625 64.9609375 26.21875 -26.0859375 73.99609375 23.40234375 -21.26953125 65.46484375 -20.52734375 0 65.16796875 -19.25390625 5 72.75390625 -17.78515625 0.03125 73.37109375 -14.41015625 6.91796875 77.453125 -13.83984375 0.03125 80.3046875 -7.2265625 13.87109375 83.4296875 -8.81640625 0.03125 86.7578125 0.0625 7.9765625 55.234375 41.92578125 0.02734375 55.30078125 39.03125 12.9375 48.890625 35.140625 23.83984375 40.046875 27.3046875 30.75 40.66015625 20.16796875 34.79296875 47.7890625 4.18359375 -33.796875 51.3359375 -0.92578125 -30.765625 61.80078125 -0.94921875 -28.80078125 54.9375 -5.40234375 -27.10546875 68.390625 -8.5703125 -20.7578125 59.09765625 -10.11328125 -20.46875 62.25 -14.80859375 -11.453125 59.09765625 -10.11328125 20.46875 54.9375 -5.40234375 27.28125 61.80078125 -1.32421875 29.25 51.3359375 -0.92578125 31.16796875 55.5 6.64453125 32.59375 47.7890625 4.18359375 33.58984375 44.234375 9.98828125 35.4609375 70.0078125 30.44140625 -27.265625 77.61328125 28.6953125 -23.01171875 77.140625 25.14453125 -22.92578125 83.47265625 23.34375 -15.6796875 80.1640625 -6.81640625 -13.8046875 73.37109375 -14.41015625 -6.8515625 65.16796875 -19.25390625 -5 84.21484375 0.4296875 14.0625 78.296875 36.53515625 -5.1171875 81.33984375 33.62109375 -2.65625 82.46875 30.828125 -2.390625 83.47265625 27.9765625 -5.19140625 74.6640625 -3.484375 -22.1875 69.5625 -2.109375 -26.2265625 55.30078125 40.1328125 -12.87890625 50.05859375 43.26171875 0 46.11328125 38.0390625 11.98828125 82.46875 30.828125 2.51953125 83.81640625 27.15234375 6.70703125 81.90625 27.1796875 12.2890625 87.625 25.01953125 7.2578125 85.3046875 24.8671875 14.69921875 80.72265625 33.28515625 2.71875 79.2578125 32.28515625 12.88671875 77.2890625 27.609375 20.31640625 68.93359375 27.09765625 -27.7890625 41.53125 33.4453125 22.34765625 48.44921875 36.7421875 16.8984375 73.40234375 -12.328125 -12.15625 63.90625 -16.73046875 -8.390625 74.86328125 36.3359375 13.14453125 77.09375 36.8828125 5.6171875 33.3203125 -45.9296875 27.3984375 43.78515625 -38.17578125 26.203125 48.8984375 -43.58984375 20.02734375 53.70703125 -40.1328125 20.02734375 52.6796875 -43.16796875 17.1796875 55.52734375 -42.67578125 13.65625 53.2734375 -48.546875 11.25 63.609375 -29.390625 16.5859375 66.859375 -27.8125 8.3046875 59.41796875 -36.0390625 11.07421875 67.8203125 -26.66015625 0 61.921875 -36.421875 0 59.41796875 -36.0390625 -11.07421875 57.2578125 -42.28125 -11.1640625 60.8828125 -14.3046875 15.41015625 54.53515625 -13.6171875 28.71875 50.68359375 -7.734375 29.1875 52.53515625 -32.609375 22.34765625 40.04296875 -35.76171875 29.41796875 52.81640625 -28.51171875 23.015625 54.51171875 -22.1796875 23.3828125 84.1328125 8.4296875 14.25390625 42.16796875 -23.3984375 32.37109375 57.65234375 -17.15234375 21.3203125 56.96484375 -31.22265625 21.296875 57.2578125 -42.28125 11.1640625 60.8828125 -14.3046875 -15.72265625 54.53515625 -13.6171875 -28.71875 57.65234375 -17.15234375 -21.3203125 54.51171875 -22.1796875 -23.3828125 59.53515625 13.12890625 31.828125 61.71484375 5.43359375 30.7421875 48.8984375 -43.58984375 -20.02734375 53.29296875 -40.1328125 -19.75 63.609375 -29.390625 -16.5859375 66.859375 -27.8125 -8.3046875 68.6484375 22.45703125 28.1875 88.41796875 25.27734375 0.03125 84.6796875 27.56640625 0.2890625 33.3203125 -45.9296875 -27.3984375 43.78515625 -38.17578125 -26.203125 52.53515625 -32.609375 -22.34765625 50.68359375 -7.734375 -29.1875 47.02734375 -13.39453125 -32.1640625 47.02734375 -13.39453125 32.1640625 42.16796875 -23.3984375 -32.390625 40.04296875 -35.76171875 -29.41796875 52.81640625 -28.51171875 -23.015625 60.09765625 -41.296875 0 56.96484375 -31.22265625 -21.296875</float_array>
                    <technique_common>
                        <accessor count="196" source="#pointarray1" stride="3">
                            <param name="X" type="float"/>
                            <param name="Y" type="float"/>
                            <param name="Z" type="float"/>
                        </accessor>
                    </technique_common>
                </source>
                <source id="uvs1">
                    <float_array id="uvarray1" count="404">0.394775390625 0.8421630859375 0.35687255859375 0.85626220703125 0.3543701171875 0.8638916015625 0.3314208984375 0.85833740234375 0.3228759765625 0.86944580078125 0.2926025390625 0.87152099609375 0.30657958984375 0.88909912109375 0.2578125 0.89239501953125 0.2579345703125 0.9107666015625 0.207763671875 0.8819580078125 0.200927734375 0.900146484375 0.1915283203125 0.874267578125 0.19281005859375 0.89630126953125 0.1488037109375 0.8619384765625 0.149169921875 0.86907958984375 0.1170654296875 0.83758544921875 0.1175537109375 0.84912109375 0.0714111328125 0.80804443359375 0.0631103515625 0.82708740234375 0.0546875 0.79193115234375 0.01458740234375 0.80615234375 0.062255859375 0.74810791015625 0.0123291015625 0.75201416015625 0.0657958984375 0.71923828125 0.02587890625 0.714111328125 0.08868408203125 0.67633056640625 0.05157470703125 0.6636962890625 0.14019775390625 0.5966796875 0.4248046875 0.82916259765625 0.3919677734375 0.85113525390625 0.38739013671875 0.87152099609375 0.3533935546875 0.88055419921875 0.38507080078125 0.8895263671875 0.3529052734375 0.896728515625 0.3828125 0.8948974609375 0.3524169921875 0.90020751953125 0.36663818359375 0.9127197265625 0.3260498046875 0.9215087890625 0.35833740234375 0.95111083984375 0.31158447265625 0.9654541015625 0.2939453125 0.816650390625 0.29156494140625 0.806884765625 0.257080078125 0.81304931640625 0.257568359375 0.803466796875 0.22210693359375 0.79461669921875 0.2259521484375 0.7799072265625 0.195068359375 0.7713623046875 0.20550537109375 0.757080078125 0.17059326171875 0.750732421875 0.20123291015625 0.73895263671875 0.135498046875 0.737548828125 0.1971435546875 0.71484375 0.1571044921875 0.7076416015625 0.1971435546875 0.68621826171875 0.2978515625 0.8614501953125 0.25762939453125 0.8712158203125 0.22137451171875 0.8612060546875 0.18896484375 0.84588623046875 0.1407470703125 0.84161376953125 0.257080078125 0.86102294921875 0.21624755859375 0.8499755859375 0.18267822265625 0.8323974609375 0.146728515625 0.820068359375 0.11517333984375 0.81634521484375 0.08819580078125 0.7373046875 0.10528564453125 0.72760009765625 0.12579345703125 0.68896484375 0.18426513671875 0.6688232421875 0.25653076171875 0.64447021484375 0.257080078125 0.67633056640625 0.31695556640625 0.6788330078125 0.3272705078125 0.66595458984375 0.3507080078125 0.7010498046875 0.38018798828125 0.686279296875 0.4017333984375 0.73101806640625 0.4471435546875 0.73004150390625 0.4141845703125 0.7640380859375 0.45098876953125 0.762939453125 0.42315673828125 0.798583984375 0.435546875 0.81549072265625 0.3656005859375 0.73443603515625 0.3782958984375 0.76617431640625 0.38177490234375 0.78179931640625 0.34539794921875 0.790771484375 0.3555908203125 0.80230712890625 0.32513427734375 0.80712890625 0.32861328125 0.8165283203125 0.07611083984375 0.78302001953125 0.11370849609375 0.78302001953125 0.11767578125 0.77392578125 0.14593505859375 0.8072509765625 0.25701904296875 0.99188232421875 0.28814697265625 0.98370361328125 0.25750732421875 0.949951171875 0.29351806640625 0.9310302734375 0.25775146484375 0.9217529296875 0.320556640625 0.90966796875 0.25799560546875 0.91644287109375 0.3135986328125 0.90570068359375 0.25665283203125 0.60614013671875 0.33734130859375 0.64031982421875 0.42218017578125 0.68310546875 0.48681640625 0.71044921875 0.4981689453125 0.74761962890625 0.02740478515625 0.84051513671875 0.046142578125 0.8739013671875 0.09527587890625 0.8740234375 0.07513427734375 0.90478515625 0.145751953125 0.91094970703125 0.11444091796875 0.9312744140625 0.15716552734375 0.952880859375 0.39666748046875 0.93212890625 0.43829345703125 0.904296875 0.41180419921875 0.88690185546875 0.47052001953125 0.87225341796875 0.43988037109375 0.8515625 0.485595703125 0.84051513671875 0.49420166015625 0.80615234375 0.12994384765625 0.744873046875 0.16253662109375 0.7603759765625 0.15838623046875 0.7701416015625 0.18798828125 0.78240966796875 0.18548583984375 0.791015625 0.22015380859375 0.80303955078125 0.194091796875 0.90570068359375 0.22119140625 0.93017578125 0.2265625 0.98370361328125 0.3211669921875 0.90521240234375 0.233154296875 0.69677734375 0.24786376953125 0.72064208984375 0.245849609375 0.7432861328125 0.23004150390625 0.75762939453125 0.15216064453125 0.89337158203125 0.1270751953125 0.8758544921875 0.172607421875 0.641845703125 0.257080078125 0.57562255859375 0.36492919921875 0.59539794921875 0.26837158203125 0.7432861328125 0.28509521484375 0.76611328125 0.31103515625 0.7708740234375 0.287841796875 0.79083251953125 0.31719970703125 0.79266357421875 0.26629638671875 0.717041015625 0.3111572265625 0.73931884765625 0.34051513671875 0.76885986328125 0.11590576171875 0.7498779296875 0.15545654296875 0.77752685546875 0.44140625 0.64947509765625 0.389404296875 0.6448974609375 0.18743896484375 0.919921875 0.20147705078125 0.9654541015625 0.315185546875 0.70989990234375 0.28094482421875 0.6925048828125 0.7147216796875 0.99688720703125 0.72869873046875 0.918212890625 0.79156494140625 0.9793701171875 0.8017578125 0.94317626953125 0.81634521484375 0.97406005859375 0.84918212890625 0.96905517578125 0.842041015625 0.99786376953125 0.8502197265625 0.849365234375 0.92431640625 0.83892822265625 0.88665771484375 0.91436767578125 0.992431640625 0.8291015625 0.992431640625 0.9166259765625 0.88720703125 0.91424560546875 0.87640380859375 0.9671630859375 0.8629150390625 0.72125244140625 0.81695556640625 0.72515869140625 0.76837158203125 0.68914794921875 0.714111328125 0.72491455078125 0.72271728515625 0.65985107421875 0.6759033203125 0.681884765625 0.7738037109375 0.8798828125 0.687255859375 0.9073486328125 0.76385498046875 0.84710693359375 0.75604248046875 0.7965087890625 0.32171630859375 0.8880615234375 0.66131591796875 0.81475830078125 0.77899169921875 0.75128173828125 0.797607421875 0.86761474609375 0.876953125 0.9671630859375 0.81689453125 0.72515869140625 0.714111328125 0.7249755859375 0.7789306640625 0.75128173828125 0.7562255859375 0.79644775390625 0.41387939453125 0.85955810546875 0.412841796875 0.87957763671875 0.80462646484375 0.9425048828125 0.85040283203125 0.84930419921875 0.92437744140625 0.83892822265625 0.358642578125 0.8123779296875 0.38836669921875 0.791748046875 0.2578125 0.78729248046875 0.25714111328125 0.76336669921875 0.77471923828125 0.87969970703125 0.38958740234375 0.8016357421875 0.65447998046875 0.73406982421875 0.11767578125 0.757568359375 0.7642822265625 0.8470458984375 0.992431640625 0.9571533203125 0.79840087890625 0.867431640625</float_array>
                    <technique_common>
                        <accessor count="202" source="#uvarray1" stride="2">
                            <param name="S" type="float"/>
                            <param name="T" type="float"/>
                        </accessor>
                    </technique_common>
                </source>
                <vertices id="vertices1">
                    <input semantic="POSITION" source="#points1"/>
                </vertices>
                <polylist count="319" material="Material1">
                    <input offset="0" semantic="VERTEX" source="#vertices1"/>
                    <input offset="1" semantic="TEXCOORD" source="#uvs1" set="0"/>
                    <vcount>3 3 3 3 3 3 3 3 3 3 3 3 3 3 3 3 3 3 3 3 3 3 3 3 3 3 3 3 3 3 3 3 3 3 3 3 3 3 3 3 3 3 3 3 3 3 3 3 3 3 3 3 3 3 3 3 3 3 3 3 3 3 3 3 3 3 3 3 3 3 3 3 3 3 3 3 3 3 3 3 3 3 3 3 3 3 3 3 3 3 3 3 3 3 3 3 3 3 3 3 3 3 3 3 3 3 3 3 3 3 3 3 3 3 3 3 3 3 3 3 3 3 3 3 3 3 3 3 3 3 3 3 3 3 3 3 3 3 3 3 3 3 3 3 3 3 3 3 3 3 3 3 3 3 3 3 3 3 3 3 3 3 3 3 3 3 3 3 3 3 3 3 3 3 3 3 3 3 3 3 3 3 3 3 3 3 3 3 3 3 3 3 3 3 3 3 3 3 3 3 3 3 3 3 3 3 3 3 3 3 3 3 3 3 3 3 3 3 3 3 3 3 3 3 3 3 3 3 3 3 3 3 3 3 3 3 3 3 3 3 3 3 3 3 3 3 3 3 3 3 3 3 3 3 3 3 3 3 3 3 3 3 3 3 3 3 3 3 3 3 3 3 3 3 3 3 3 3 3 3 3 3 3 3 3 3 3 3 3 3 3 3 3 3 3 3 3 3 3 3 3 3 3 3 3 3 3 3 3 3 3 3 3 3 3 3 3 3 3</vcount>
                    <p>2 2 1 1 0 0 3 3 1 1 2 2 4 4 3 3 2 2 5 5 3 3 4 4 6 6 5 5 4 4 7 7 5 5 6 6 8 8 7 7 6 6 9 9 7 7 8 8 10 10 9 9 8 8 11 11 9 9 10 10 12 12 11 11 10 10 13 13 11 11 12 12 14 14 13 13 12 12 15 15 13 13 14 14 16 16 15 15 14 14 17 17 15 15 16 16 18 18 17 17 16 16 19 19 17 17 18 18 20 20 19 19 18 18 21 21 19 19 20 20 22 22 21 21 20 20 23 23 21 21 22 22 24 24 23 23 22 22 25 25 23 23 24 24 26 26 25 25 24 24 27 27 25 25 26 26 29 29 0 0 28 28 2 2 0 0 29 29 30 30 2 2 29 29 31 31 2 2 30 30 32 32 31 31 30 30 33 33 31 31 32 32 34 34 33 33 32 32 35 35 33 33 34 34 36 36 35 35 34 34 37 37 35 35 36 36 38 38 37 37 36 36 39 39 37 37 38 38 42 42 41 41 40 40 43 43 41 41 42 42 44 44 43 43 42 42 45 45 43 43 44 44 46 46 45 45 44 44 47 47 45 45 46 46 48 48 47 47 46 46 49 49 47 47 48 48 50 50 49 49 48 48 51 51 49 49 50 50 52 52 51 51 50 50 53 53 51 51 52 52 5 5 40 54 3 3 54 55 40 54 5 5 7 7 54 55 5 5 55 56 54 55 7 7 9 9 55 56 7 7 56 57 55 56 9 9 11 11 56 57 9 9 57 58 56 57 11 11 13 13 57 58 11 11 15 15 57 58 13 13 54 55 42 59 40 54 58 60 42 59 54 55 55 56 58 60 54 55 59 61 58 60 55 56 56 57 59 61 55 56 60 62 59 61 56 57 57 58 60 62 56 57 61 63 60 62 57 58 15 15 61 63 57 58 17 17 61 63 15 15 23 23 62 64 21 21 63 65 62 64 23 23 64 66 63 65 23 23 52 52 63 65 64 66 65 67 52 52 64 66 53 53 52 52 65 67 66 68 53 53 65 67 67 69 53 53 66 68 68 70 67 69 66 68 69 71 68 70 66 68 70 72 68 70 69 71 71 73 70 72 69 71 72 74 70 72 71 73 73 75 72 74 71 73 74 76 72 74 73 75 75 77 74 76 73 75 28 78 74 76 75 77 76 79 28 78 75 77 74 76 77 80 72 74 78 81 77 80 74 76 79 82 78 81 74 76 80 83 78 81 79 82 81 84 80 83 79 82 82 85 80 83 81 84 3 86 82 85 81 84 40 40 82 85 3 86 21 21 17 17 19 19 83 87 17 17 21 21 62 64 83 87 21 21 84 88 83 87 62 64 85 89 84 88 62 64 60 62 84 88 85 89 86 90 60 62 85 89 59 61 60 62 86 90 89 93 88 92 87 91 90 94 88 92 89 93 91 95 90 94 89 93 92 96 90 94 91 95 93 97 92 96 91 95 94 98 92 96 93 97 8 8 94 98 93 97 6 6 94 98 8 8 95 99 66 68 65 67 69 71 66 68 95 99 96 100 69 71 95 99 71 73 69 71 96 100 97 101 71 73 96 100 73 75 71 73 97 101 98 102 73 75 97 101 99 103 73 75 98 102 18 18 100 104 20 20 101 105 100 104 18 18 102 106 101 105 18 18 103 107 101 105 102 106 104 108 103 107 102 106 105 109 103 107 104 108 106 110 105 109 104 108 36 36 107 111 38 38 108 112 107 111 36 36 109 113 108 112 36 36 110 114 108 112 109 113 111 115 110 114 109 113 112 116 110 114 111 115 113 117 112 116 111 115 50 50 63 65 52 52 114 118 63 65 50 50 115 119 114 118 50 50 116 120 114 118 115 119 117 121 116 120 115 119 59 122 116 120 117 121 58 123 59 122 117 121 93 97 10 10 8 8 118 124 10 10 93 97 91 95 118 124 93 97 119 125 118 124 91 95 89 93 119 125 91 95 120 126 119 125 89 93 87 91 120 126 89 93 90 94 39 39 88 92 37 37 39 39 90 94 92 96 37 37 90 94 35 35 37 37 92 96 121 127 35 35 92 96 33 33 35 35 121 127 31 31 33 33 121 127 122 128 51 51 53 53 49 49 51 51 122 128 123 129 49 49 122 128 47 47 49 49 123 129 124 130 47 47 123 129 125 131 47 47 124 130 118 124 12 12 10 10 14 14 12 12 118 124 126 132 14 14 118 124 127 133 14 14 126 132 104 108 127 133 126 132 102 106 127 133 104 108 25 25 64 66 23 23 128 134 64 66 25 25 27 27 128 134 25 25 95 99 128 134 27 27 129 135 95 99 27 27 130 136 95 99 129 135 133 139 132 138 131 137 134 140 132 138 133 139 135 141 134 140 133 139 41 41 134 140 135 141 82 85 41 41 135 141 40 40 41 41 82 85 137 143 131 137 136 142 133 139 131 137 137 143 138 144 133 139 137 143 135 141 133 139 138 144 80 83 135 141 138 144 82 85 135 141 80 83 114 118 62 64 63 65 139 145 62 64 114 118 116 120 139 145 114 118 86 146 139 145 116 120 59 122 86 146 116 120 97 101 140 147 98 102 141 148 140 147 97 101 96 100 141 148 97 101 130 136 141 148 96 100 95 99 130 136 96 100 118 124 104 108 126 132 142 149 104 108 118 124 119 125 142 149 118 124 143 150 142 149 119 125 120 126 143 150 119 125 77 80 70 72 72 74 144 151 70 72 77 80 137 143 144 151 77 80 145 152 144 151 137 143 136 142 145 152 137 143 148 155 147 154 146 153 149 156 147 154 148 155 150 157 149 156 148 155 151 158 149 156 150 157 152 159 151 158 150 157 155 162 154 161 153 160 156 163 154 161 155 162 157 164 156 163 155 162 158 165 156 163 157 164 159 166 158 165 157 164 107 169 160 168 38 167 161 170 160 168 107 169 108 171 161 170 107 169 162 172 161 170 108 171 163 173 147 154 149 156 164 174 147 154 163 173 165 175 164 174 163 173 166 176 164 174 165 175 94 98 121 127 92 96 167 177 121 127 94 98 6 6 167 177 94 98 4 4 167 177 6 6 166 176 168 178 164 174 161 170 168 178 166 176 169 179 161 170 166 176 160 168 161 170 169 179 149 156 153 160 170 180 155 162 153 160 149 156 151 158 155 162 149 156 171 181 155 162 151 158 172 182 105 169 106 167 173 183 105 169 172 182 174 184 173 183 172 182 175 185 173 183 174 184 111 115 176 186 76 79 177 187 176 186 111 115 109 113 177 187 111 115 32 32 177 187 109 113 179 188 159 166 178 155 158 165 159 166 179 188 180 189 158 165 179 188 181 190 158 165 180 189 81 84 1 191 3 86 182 192 1 191 81 84 79 82 182 192 81 84 74 76 182 192 79 82 125 131 45 45 47 47 183 193 45 45 125 131 184 194 183 193 125 131 132 138 183 193 184 194 186 154 178 155 185 153 179 188 178 155 186 154 187 195 179 188 186 154 176 186 28 28 76 79 29 29 28 28 176 186 30 30 29 29 176 186 182 192 0 196 1 191 28 78 0 196 182 192 74 76 28 78 182 192 173 183 103 171 105 169 188 172 103 171 173 183 189 197 188 172 173 183 134 140 183 193 132 138 43 43 183 193 134 140 41 41 43 43 134 140 127 133 16 16 14 14 18 18 16 16 127 133 102 106 18 18 127 133 177 187 30 30 176 186 32 32 30 30 177 187 139 145 85 198 62 64 86 146 85 198 139 145 44 44 58 123 117 121 42 42 58 123 44 44 77 80 138 144 137 143 78 81 138 144 77 80 46 46 117 121 115 119 44 44 117 121 46 46 48 48 115 119 50 50 46 46 115 119 48 48 161 170 190 197 168 178 162 172 190 197 161 170 173 183 191 178 189 197 175 185 191 178 173 183 175 185 192 174 191 178 193 199 192 174 175 185 192 174 187 195 186 154 193 199 187 195 192 174 171 181 157 164 155 162 194 200 157 164 171 181 34 34 109 113 36 36 32 32 109 113 34 34 128 134 65 67 64 66 95 99 65 67 128 134 83 87 61 63 17 17 84 88 61 63 83 87 99 103 75 77 73 75 113 117 75 77 99 103 113 117 76 79 75 77 111 115 76 79 113 117 142 149 106 110 104 108 143 150 106 110 142 149 2 2 167 177 4 4 31 31 167 177 2 2 144 151 68 70 70 72 145 152 68 70 144 151 141 148 130 136 140 147 60 62 61 63 84 88 157 164 194 200 159 166 158 165 181 190 156 163 195 201 180 189 179 188 78 81 80 83 138 144 45 45 183 193 43 43 31 31 121 127 167 177</p>
                </polylist>
            </mesh>
        </geometry>
        <geometry id="mesh2">
            <mesh>
                <source id="points2">
                    <float_array id="pointarray2" count="78">59.13671875 -26.625 17.21875 58.48828125 -24 18.09765625 61.28125 -25.87890625 14.39453125 60.515625 -20.9453125 14.921875 63.3125 -24.8671875 9.30078125 63.03515625 -20.41796875 10.4375 62.9921875 -24.40625 5.98046875 62.38671875 -22.56640625 5.89453125 58.79296875 -21.37890625 17.66796875 59.64453125 -18.9140625 15.36328125 60.26953125 -17.94140625 12.08984375 60.79296875 -18.71484375 8.72265625 59.13671875 -26.625 -17.21875 61.57421875 -25.87890625 -14.39453125 58.4921875 -24 -18.09765625 61.515625 -20.9453125 -14.921875 58.79296875 -21.37890625 -17.66796875 60.64453125 -18.9140625 -15.36328125 63.3125 -24.8671875 -9.30078125 63.03515625 -20.41796875 -10.4375 60.26953125 -17.94140625 -12.08984375 61.77734375 -20.7265625 6.52734375 60.79296875 -18.71484375 -8.72265625 61.77734375 -20.7265625 -6.52734375 62.38671875 -22.56640625 -5.89453125 62.9921875 -24.40625 -5.98046875</float_array>
                    <technique_common>
                        <accessor count="26" source="#pointarray2" stride="3">
                            <param name="X" type="float"/>
                            <param name="Y" type="float"/>
                            <param name="Z" type="float"/>
                        </accessor>
                    </technique_common>
                </source>
                <source id="uvs2">
                    <float_array id="uvarray2" count="26">0.8660888671875 0.63818359375 0.84674072265625 0.50189208984375 0.63616943359375 0.5828857421875 0.63311767578125 0.314697265625 0.33111572265625 0.5323486328125 0.37677001953125 0.3052978515625 0.1234130859375 0.5323486328125 0.1475830078125 0.443359375 0.827392578125 0.36566162109375 0.6593017578125 0.15032958984375 0.46856689453125 0.11029052734375 0.29083251953125 0.18475341796875 0.17169189453125 0.35443115234375</float_array>
                    <technique_common>
                        <accessor count="13" source="#uvarray2" stride="2">
                            <param name="S" type="float"/>
                            <param name="T" type="float"/>
                        </accessor>
                    </technique_common>
                </source>
                <vertices id="vertices2">
                    <input semantic="POSITION" source="#points2"/>
                </vertices>
                <polylist count="26" material="Material1">
                    <input offset="0" semantic="VERTEX" source="#vertices2"/>
                    <input offset="1" semantic="TEXCOORD" source="#uvs2" set="0"/>
                    <vcount>3 3 3 3 3 3 3 3 3 3 3 3 3 3 3 3 3 3 3 3 3 3 3 3 3 3</vcount>
                    <p>2 2 1 1 0 0 3 3 1 1 2 2 4 4 3 3 2 2 5 5 3 3 4 4 6 6 5 5 4 4 7 7 5 5 6 6 3 3 8 8 1 1 9 9 8 8 3 3 5 5 9 9 3 3 10 10 9 9 5 5 11 11 10 10 5 5 14 1 13 2 12 0 15 3 13 2 14 1 16 8 15 3 14 1 17 9 15 3 16 8 15 3 18 4 13 2 19 5 18 4 15 3 17 9 19 5 15 3 20 10 19 5 17 9 21 12 5 5 7 7 11 11 5 5 21 12 22 11 19 5 20 10 23 12 19 5 22 11 24 7 19 5 23 12 25 6 19 5 24 7 18 4 19 5 25 6</p>
                </polylist>
            </mesh>
        </geometry>
    </library_geometries>
    <library_visual_scenes>
        <visual_scene id="VisualSceneNode">
            <node id="node0" name="m0" type="NODE">
                <instance_geometry url="#mesh0">
                    <bind_material>
                        <technique_common>
                            <instance_material symbol="Material1" target="#mat1">
                                <bind_vertex_input semantic="UVSET0" input_semantic="TEXCOORD" input_set="0"></bind_vertex_input>
                            </instance_material>
                        </technique_common>
                    </bind_material>
                </instance_geometry>
            </node>
            <node id="node1" name="m1" type="NODE">
                <instance_geometry url="#mesh1">
                    <bind_material>
                        <technique_common>
                            <instance_material symbol="Material1" target="#mat2">
                                <bind_vertex_input semantic="UVSET0" input_semantic="TEXCOORD" input_set="0"></bind_vertex_input>
                            </instance_material>
                        </technique_common>
                    </bind_material>
                </instance_geometry>
            </node>
            <node id="node2" name="m2" type="NODE">
                <instance_geometry url="#mesh2">
                    <bind_material>
                        <technique_common>
                            <instance_material symbol="Material1" target="#mat0">
                                <bind_vertex_input semantic="UVSET0" input_semantic="TEXCOORD" input_set="0"></bind_vertex_input>
                            </instance_material>
                        </technique_common>
                    </bind_material>
                </instance_geometry>
            </node>
        </visual_scene>
    </library_visual_scenes>
    <scene>
        <instance_visual_scene url="#VisualSceneNode"></instance_visual_scene>
    </scene>
</COLLADA>
