<?xml version="1.0"?>
<COLLADA xmlns="http://www.collada.org/2005/11/COLLADASchema" version="1.4.1">
    <asset>
        <contributor>
            <authoring_tool>J3D Ripoff Exporter</authoring_tool>
        </contributor>
        <created>2024-08-19T02:42:22.538Z</created>
        <modified>2024-08-19T02:42:22.538Z</modified>
		<unit meter="0.01" name="centimeter" ></unit>
        <up_axis>Y_UP</up_axis>
    </asset>
    <library_images>
    </library_images>
    <library_effects>
        <effect id="effect0">
            <profile_COMMON>
                <technique sid="COMMON">
                    <blinn>
                        <diffuse>
                            <color>1 1 1 1</color>
                        </diffuse>
                    </blinn>
                </technique>
            </profile_COMMON>
        </effect>
    </library_effects>
    <library_materials>
        <material id="mat0" name="Miyamoto_Shadow_m">
            <instance_effect url="#effect0"></instance_effect>
        </material>
    </library_materials>
    <library_geometries>
        <geometry id="mesh0">
            <mesh>
                <source id="points0">
                    <float_array id="pointarray0" count="1677">82.84147531724577 203.73291931788248 14.973087232152446 82.8358384865845 211.93499552760733 25.907550751006283 153.3074243943515 207.44261712604322 15.687974094172956 153.30714034542603 217.44542490302413 27.146076928137393 82.83185758962512 254.17327639588615 25.91160031318188 153.30018209954957 249.82823674385355 27.149164515946918 52.007948067879205 214.72134111941068 23.940903805282673 54.2874037232803 205.29081353585138 -5.800316851278035 40.4850880520937 259.70357122880785 -5.753896796748553 54.58227010128504 270.81437007117745 -6.7458519530614875 40.995079168099856 246.31486598288933 15.465998320688225 52.437847355839935 261.8430908954757 17.525385243347444 36.360296368600046 245.1854243989789 -24.25007931287658 48.451078698968544 260.61316553847536 -32.80515627094481 130.28087546699527 216.14102159776925 -39.197606121331006 138.1947258713632 204.49141626268636 -19.238134136121822 149.7424774752532 217.45165244121844 -42.55464775209392 150.82682601264406 207.44576628827505 -20.838582188971284 130.2771441814423 255.73086498998285 -39.1938104760291 149.7355192475565 249.83446428240862 -42.551563909424715 138.1849357509458 266.92110283197235 -19.232165827674677 150.8175262974173 264.6723279049441 -20.83311647120386 82.82922886248407 272.55635745821735 -17.633933066373913 82.83147939627342 268.34619961743454 14.979264890942348 153.302350435053 261.2785541395102 15.693135572569698 82.83285950408957 259.50776932062644 -40.50648630674848 82.84072781947833 211.94186603906027 -45.74936324237984 82.83962129007115 203.73604594668552 -17.64051407099413 -10.707998115363381 17.115311226384634 61.59008528260775 -1.0669513781719675 1.4982589477653505 68.41011126031492 -38.55223566604034 20.37927034491119 68.49515703166898 -38.55165735047417 1.4961309180208673 75.31456430488447 -68.12560571492713 17.112919756084196 54.056082776511495 -79.25390742376014 1.4950545939151993 57.062613105660745 -13.007100216730066 32.38576764606739 11.3121702873345 -3.341491164968565 1.499512214048906 9.937633568246415 -38.55023875215065 36.5798556546504 10.658602049987131 -74.17491564811183 32.95314786180583 7.54361299939803 -17.35210869927016 128.7937973150507 22.599153211534915 -22.037228522780183 83.98838623966756 17.753572223950485 -35.91115107603627 128.79280117544474 31.957667877317938 -36.236776514314236 83.98919905707058 24.620096642212022 -1.7143066076570848 128.79679953327903 -0.001735502535031408 -7.266715393122993 81.26123262345504 -0.0006936508771935301 -17.349995822311282 128.79720070498294 -21.47911717320131 -20.42936606166721 72.14554594790592 -20.31575157512551 -280.35025234915304 264.39507735601126 33.26505154290308 -268.18598262978753 268.2860104309946 27.25395150013527 -271.0734085298731 253.46080008416664 47.83907572339849 -255.04184998915696 254.7151516306327 39.09751792830758 -225.15900571993976 214.49249837368535 40.05368260157015 -259.12426254566105 193.57777683913983 52.64131696075169 -255.6860213510375 182.58266456687238 32.28544322247056 -219.85383999386409 200.16890198176247 27.252403138132735 -255.68402145282005 182.58536308440296 -24.003619177318235 -219.8519643315929 198.2339285904122 -25.450814652361643 -292.33897358782906 198.0700990147937 48.69894597934702 -294.04203106665994 246.47654411749613 44.57229983601606 -295.6978976698939 259.8403694655351 33.16663165081059 -295.6958183800143 259.83926884979655 -25.356805932267132 -278.60196509634847 264.3980399640526 -28.473167559955137 -294.0386993833422 246.48103964919903 -49.20113749703944 -275.9761637641687 253.46160138800852 -50.524379853652015 -11.858720417693295 1.4991039120244238 -38.08230603895501 -14.69276451063464 34.873968090940366 -29.46916056179291 -38.545483304039514 1.4978245923080067 -53.458585376339435 -38.54736657010299 35.46657454105889 -48.14217913244822 259.12228450794623 193.60901861353216 -49.43504341444809 255.68428470855446 182.61138051613327 -23.978746791995544 292.3328273204718 198.10045238902833 -49.9054803139506 306.96845224018836 193.93658856945333 -25.275890454531467 255.68088805452743 182.60868193164453 32.31031554083508 306.96888428588164 193.93382874072728 32.29832836021515 259.1161233876852 193.60412370712226 52.66651878232682 292.32687575089983 198.09572396711604 48.72342564313753 227.04205122726532 214.51994868591996 -47.15863297474223 219.8469604540335 198.25260387847695 -25.42937821557667 255.02992834915622 258.91311093416243 -45.05715956779654 275.96826792547625 253.48956379188155 -50.497562363781284 268.17634055825533 268.3118822556246 -26.173103125435468 278.59481273556764 264.42625433767626 -28.446098232736645 268.1731150333624 268.30931963035437 27.280021715817416 280.337180998097 264.42345906594477 33.292288206431635 255.02524210643085 254.73720044067926 39.118421449818214 271.0599889009409 253.48438628126286 47.86151649955743 225.1500685003402 214.5155887258136 40.075627907287334 219.84359758546216 200.18757719853298 27.27383950362349 294.0295938262375 246.50233233073823 44.60084906558343 295.68527290827103 259.8663166161154 33.19143338045636 295.6888041555979 259.8691221327168 -25.328097695750127 294.0352526377038 246.5068281612602 -49.17649440591305 162.23830134905313 204.2203648500783 -21.73116725692641 164.26362483450652 267.45883705895056 -21.72598916195773 165.83092129340184 253.85128754740083 -39.227002874228866 165.83840135833134 213.06236133089544 -40.6449767085114 -268.1840836285864 268.28857280541314 -26.195267154709295 -153.31362690572723 261.2677852594199 15.680341690673341 -164.27337463895634 267.44513030043163 -21.741517895654876 -153.31401521601097 249.8174680766199 27.13627514505926 -153.31786843721818 217.43074946914163 27.13316981116159 -153.3174450003976 207.42794175057662 15.675179459953245 -162.24202109626722 204.20685266015482 -21.747508928569587 -71.40623368146487 58.19955796468038 -0.007371734464178825 -77.38548272187212 32.75778832595739 -0.009177339322053335 -64.59252401182484 57.74985279089468 -24.791193882632996 -67.76696235289099 32.75423629836567 -27.78811110486875 -17.416742870238874 57.75211432059797 -24.78893235292712 -14.071649976287484 32.756810363721414 -27.785537039510054 -7.996077577186909 58.20259774373754 -0.004331955403527488 -3.280014142172902 32.76134082078235 -0.005624844493024916 -36.279181685686176 55.904916919799234 -40.515925125223305 -36.65273495351012 32.7557278634814 -47.52490081243145 9.818561313174285 26.023580613595172 -12.42111052971996 14.374350261490816 3.7777052350960787 -13.151360934619873 5.567992616664213 22.624939344386718 2.8404044647027593 9.32657624153267 3.7774632530746715 5.602303354907503 -64.49545795991165 1.4965805930129648 -37.69029810751605 -62.76684401654902 33.391194746583224 -30.893340159487614 1.3897477713662454 23.62473904731924 -28.25354586694396 6.218920850174116 3.7773142771636685 -30.268939412221158 -35.9082022474008 128.79570515669164 -29.558155421036993 -36.234486697725735 89.11128270736211 -28.267835910686518 -138.19520776674335 266.9078773233647 -19.244361834880642 -82.8448631292813 268.33828140803314 14.968679531374576 -82.83980518301138 272.5445329400804 -17.640292169391593 -149.74135592608081 249.8221507242314 -42.56691011515022 -130.28432400531847 255.7183978787131 -39.20609120640058 -150.82808936894676 264.65991026577547 -20.84677598682831 -149.745209147288 217.43543211675313 -42.57001544904791 -130.28425918240325 216.12855431073527 -39.20988702746672 -150.83190191193577 207.42944177252127 -20.85226330612122 -138.19901179672792 204.47819010401497 -19.250347648286912 -54.59409554403435 270.80915992178575 -6.748829956125045 -48.46034050606329 260.60854345393824 -32.80818393820533 -40.49645622551918 259.6997132526731 -5.761112985486443 -36.366869195567375 245.18196182306454 -24.25454580544512 -52.45041188234457 261.8380865356078 17.519917448672473 -41.0050009647161 246.3109585589304 15.464147860783081 -54.2932407334101 205.28563220463155 -5.80588282380142 -82.84866358393191 203.72500044872297 14.962484357931203 -52.016969141081844 214.71637798960307 23.93728991311521 -82.8451593638007 211.92707674393898 25.900770944152594 -82.84750500562137 203.72812699371224 -17.646890471602685 -82.84651973927394 211.93394704676615 -45.75547882004876 -82.84287748358054 259.49985084477487 -40.51263685547677 -82.8452285231675 254.16535779974004 25.904820693850485 -165.8429260703899 213.04850394073608 -40.66085173780511 -292.3354692490323 198.07092125665434 -49.933866532324146 -259.1206349717812 193.58267162409572 -49.4602453574773 -306.97305622099924 193.90565412723257 -25.305679982753347 -306.9751019184125 193.90289381159062 32.27244491474054 -227.04262511225843 214.49667733760828 -47.18075927664313 -255.03886598026017 258.8871559797782 -45.08196960817625 -36.2821261010939 55.89980589396502 20.91004475722013 -36.65602112807081 32.75931368395119 21.00064905971279 -64.25446580831513 55.898266511230204 14.307122813352372 -67.76898620348967 32.75764247068359 14.405389036973881 -60.18729430407494 74.51484867781136 -20.272559707635786 -36.280718472699405 74.61275003348962 -27.1661966435772 -10.926392880668505 71.27664503231513 -0.0033238049670347714 -20.02115560235397 73.83032516185492 18.56805605613955 -17.156809666549627 55.90052429574892 14.309380597873673 -36.28324826873775 73.82946012166414 26.368082187238862 -57.048499267261924 73.82855013162742 18.566281025910026 -63.571077928037255 74.48506833452274 -0.006039222054496918 -165.83913684068617 253.83352443110465 -39.24287868038758 -55.727108611081086 128.79195768038934 22.59731357687146 -53.693478450031385 83.98686869087933 17.752054675160522 -61.46430647034641 128.79393521611902 -0.004599819698324126 -62.4620789472459 82.3288958238586 -0.006007690506005581 -55.724995546396755 128.79535133286075 -21.48486304572351 -14.073673826886166 32.76021653603934 14.407963102332577 -80.79446767766557 1.4957992451747373 6.840170595813184 -47.51861400390285 245.1366846815372 -41.11041519495551 -52.69295908636797 245.7159505320251 28.385550618322807 52.680902043102414 245.72097843564853 28.388281477477683 47.512263346314 245.14512254276093 -41.10380093038968 49.42495362265733 214.4382632745251 -41.020264165699075 26.528360576497597 220.18265254044053 -5.006252507930518 302.4761668198662 241.66312014871448 -33.45746722351055 302.47184686994575 241.65968802116936 38.13237631387922 307.1536597198576 238.99364912241646 7.077843422527845 -26.53548081209233 220.18013271236336 -5.0104997987621065 -49.42872302743419 214.42964221203096 -41.02748971056508 -307.16177934240636 238.96269657369834 7.048035920211717 -302.484562421506 241.63261604308423 -33.48291997788136 -302.4871059422993 241.62918400069822 38.1069236446675 -55.54700570999937 142.72785699323148 -0.0038935360284946263 -35.91126670494062 142.16006485269585 21.002437040301107 -36.654380399294304 19.540953961773937 -0.006790466393537198 -12.91028705798224 142.72990092771118 -0.0018496015464513071 -35.909235674408606 142.17550677634455 -21.38054558867811 -35.910585875818384 148.9631929178142 -0.002868234257482616 89.40842813861013 219.84973323190556 -43.81769604349472 93.24879789425957 219.22747866445434 27.317045707825148 94.67285615980346 244.2268259238324 -43.225414688089714 95.33734798688708 236.1149019015677 37.41557075624737 -0.005028087784255184 167.77556328766823 77.09009138466179 -0.006736248253131481 199.6181543629426 80.87993277647814 38.28440605936002 169.63847654675794 67.47640959999772 30.814218515532332 191.51458155699217 75.58728338548465 -0.0010815998937002457 244.22254408836523 -81.6811004665669 0.0001377018587781242 216.19321601550547 -79.08655334913698 45.21720243007597 244.22476913262904 -71.96096702978251 48.74568269050087 217.35338253116862 -68.79715525551195 -0.009746427125564379 310.0590775679522 33.252562443034776 39.104377592599114 295.7711523851607 29.94122489218529 -0.007952900430265336 250.0315166724703 55.84608098835552 58.52016160038198 246.37497194900328 43.42747694719566 69.23066473830859 277.09031861920766 21.77348876947908 93.92666320727601 254.48642518685352 30.069171023446675 47.48091713833759 189.09500918496212 -58.46702765708137 0.0010152877401801534 188.46569624867254 -69.66558044672942 80.45220842843656 190.07032998705964 -30.96754041627665 84.5787977867215 191.56914469327518 15.864482111387376 78.28823691539705 198.26310904323324 40.42642197609608 58.67852248749456 187.45997785171875 58.30911990526708 81.58025418124203 206.69238154916798 51.84538103075057 60.59972650055858 194.84359266967869 64.92246525801559 30.44260143942813 197.05899288831668 80.95949962524041 60.45399891803209 226.37969364035825 58.341997506715295 25.273852369432245 227.47919671453846 66.81661687485702 65.56255217007873 166.05445275053253 -27.160443983985655 69.41621183221955 165.9287925745071 10.703190924930047 39.51659561420104 268.72186271628493 -67.50311302009214 94.38225252249767 268.17402843226466 -35.02432182710603 20.334833306771145 292.3268550824467 -47.82829275187079 41.92013957236087 292.04327201024466 -34.37604931279061 -0.0025846325258764976 267.46633322584 -73.57144844419928 -0.0046275337426222255 292.1891447541841 -55.679095330374615 80.06331958220133 239.54008995634763 46.3159931995452 -0.006552642487824957 302.6408375653078 -25.972788612071874 8.344872359015646 301.5636851112106 -22.027000655852973 24.911064540566638 300.3940000616706 -16.391027897911844 62.519830488211575 290.82818770868903 5.881492614121399 32.69904129720776 298.57758183317696 8.07450052358666 102.98984351897143 272.52185551017044 -2.1572084694738525 -62.534856724401926 290.82219279174603 5.875497697171484 -103.00234350764067 272.5119805820117 -2.1670833976439265 -41.93142273494098 292.0392523036444 -34.380069019395435 -94.39118454368463 268.1649789427854 -35.03337131659568 -39.52246670416035 268.7180737130543 -67.50690202332713 -45.22029736209082 244.2204337069695 -71.96530245544704 -94.67870590505025 244.2177487199873 -43.23449189194522 25.781010162526126 289.1977266672966 18.776236110191803 39.33120678570526 289.28373323792596 30.88626480433104 22.393051745706174 306.1541687403345 27.679230378293266 30.393019924241276 299.7440568692464 34.75352532654257 38.27056825662358 245.5568850695784 35.782555178759296 42.52794148195088 240.290772425488 50.21219433271789 42.62558434690126 259.88545310321445 30.89673210087984 51.67573101293611 253.80683595553973 50.2132808107625 34.05046935421611 237.1330550185636 72.34444912387167 45.002763058407744 251.66078897694587 75.15817060935677 23.575557301379295 242.1617881463865 114.37153192518322 -0.010526000711894214 239.62523381199335 119.94840470990158 21.06673602084317 257.21606830920416 120.36041463806365 -0.011774105292617246 257.3904623243735 128.21878759586895 -8.252793508423022 336.5122160094098 24.72999796514546 -8.252859160439785 320.6676407548404 41.944082152153236 -5.83833589620874 332.2195523236349 20.780689152532307 -5.8384019227439605 316.3788831317883 37.99867977679032 -5.839125757214292 340.80120508486846 28.67563179291514 -5.839191783749514 324.96053589302187 45.89362241717315 -0.011164248246414344 342.57874994344286 30.308808882881113 -0.011230274781635068 326.73808075159627 47.52679950713913 -0.010047431963689667 330.4425662465984 19.148070844104986 -0.01011327124865895 314.6018972420201 36.362155218371974 15.525875428959642 320.8498677439193 12.749918180096644 24.24716260368773 335.7832264179557 26.376052190673846 28.542391146214552 321.3475000584442 -6.327559046387874 42.649551206770354 345.5072758787695 15.717244231618428 -0.007472465925073385 311.3348502995477 -15.458313898514753 -0.007609033299731767 324.81192232536296 -26.086574079750072 28.542289592985146 335.18399933126284 -18.04564574726962 28.53796133215732 369.669605375687 37.7567886862243 -0.013737237210511975 379.6756115291894 46.884805995685745 28.53815621112141 380.23280667084174 23.128388818796804 -0.013472699483163502 389.87558382300836 31.16654496565455 42.64960657760026 357.5274387568033 2.542039208543777 -0.008568788831390794 346.1322971366771 -27.38633326589129 15.526020403284903 352.3163649998611 -21.740760867551288 15.52328248008217 382.1822462354873 5.506764603896393 -0.012440943667472688 388.36873088875836 11.15084772958998 24.24730757801299 367.2497236738975 -8.114626856974086 36.96242536382522 300.85289289370235 52.5663934372516 23.884243693284894 292.9690188184165 61.63179483339504 33.66495785431489 313.3175836245083 52.461364184903225 22.66866641651593 308.26974179563217 61.632470090173165 29.145535212970607 314.8136410514244 48.699500504904826 18.602483175218538 311.6839960597734 53.566032586419084 35.798778761427734 298.21640786315754 46.52714874790044 22.66974541575264 294.50062949625294 52.89352877147382 5.817848050468968 316.37944191332633 37.999238558328976 5.817914077004189 332.2201111051729 20.781247934070965 5.817058189463415 324.96109467455983 45.894181198711806 5.8171242159986365 340.8017638664064 28.6761905744538 8.231515801677693 320.66843098878496 41.94487238609866 8.231581453694456 336.5130062433543 24.730788199090878 -0.006345186491541955 263.4313373569618 8.930014685513669 27.64171906404304 262.6002184160325 17.54848770031619 -0.007628404741463247 289.3315094535129 9.777069231185866 -0.008975504751903236 307.2120557891768 20.018050961470905 62.46760827385122 82.33489650372513 -0.0002014982472609006 53.697146198565264 83.99423226340923 17.757169549618716 61.46538072950976 128.79983031235977 0.0016591682633961824 55.72601603223574 128.79904187673984 22.603012714416735 36.2397859328853 83.99032426269878 24.623547268266908 35.9091612013802 128.79708809062706 31.961467029504625 22.040896271314068 83.992714714621 17.755652000828754 17.351016120424823 128.7972022420785 22.60117307975328 7.272347086592702 81.26194110663661 -0.0002820221740975626 1.7153808668204371 128.79696599519977 -0.0012051488998965354 -25.797114718942872 289.1952540964427 18.773763539335093 -27.655155808879954 262.59756757439305 17.54583685867369 -22.411635651328776 306.152020876983 27.677082514939247 -58.53452563061621 246.36936053896034 43.42186553714627 -39.122184727629474 295.76740233184967 29.9374748388699 -93.9405238609889 254.47741914151533 30.0601649780981 -69.24589744346028 277.0836802795553 21.766850429819105 -47.480020143433954 189.0904569131159 -58.47157992893282 -48.74650458545364 217.34870891534229 -68.80182887134364 36.667575422878805 32.759256373385696 -47.52233592481062 67.7799103804959 32.76074784778089 -27.78256317773359 36.29112966464993 55.90833855533505 -40.512745852003015 64.60278720838211 57.75598893620766 -24.785300099632437 -9.314050670744203 3.7765833062202887 5.600459785764589 -14.360026627589743 3.776341410395105 -13.153688381609934 -5.5570091256249885 22.62051343429259 2.8389211823160028 -9.806440596840408 26.022653477415204 -12.423001288188527 38.56200629757835 35.47028469241492 -48.13943260337549 38.56388956364183 1.5015347436640525 -53.4558388472667 62.780028739818746 33.39722691237337 -30.888271615978105 64.5123522885026 1.5027786704796142 -37.685063652329845 38.559134115530696 36.58356580600645 10.661348579059874 74.18445705583082 32.960273621490714 7.549775136803567 -6.202956076393983 3.7767324470011374 -30.27048486467187 -1.3758791773927523 23.62462012196974 -28.25462841458115 14.705670966690558 34.87539105807879 -29.46870121694039 11.875652572648411 1.5002553532814886 -38.08211821998422 -20.34485409974341 292.32490496484047 -47.83024286947923 -25.288647514370748 227.47677283108402 66.81419299139979 -30.455835920621986 197.05607351694346 80.95658025386385 -60.467875804078965 226.37389684367906 58.33620071002942 -60.61121072088818 194.83778201581654 64.9166546041468 -24.92487284490606 300.39161100843273 -16.393416951152517 -8.358252602599126 301.56288439074933 -22.027801376315203 -32.715021052465055 298.5744459901356 8.07136468054164 13.01633526835118 32.38702882123236 11.312467840213365 77.39576593953613 32.76515101921743 -0.0020570083730344635 71.41407750743065 58.20634727018256 -0.0008247912736591978 14.084598003892374 32.758173782425146 -27.785137243092286 17.427006066796142 57.75372740650438 -24.78756162933831 3.2902973598369196 32.76159852439247 -0.005609503202063326 8.003921403152674 58.2033074911254 -0.0038645703343109794 -84.58526432452483 191.56103524512326 15.856372663226166 -69.41972534872346 165.92213700700572 10.696535357421025 -80.45404120178694 190.06261640491692 -30.975253998428236 -65.56244752858464 166.04816683274834 -27.16672990177708 -95.35015157489653 236.10576065506643 37.406429509735624 -93.25901417712933 219.21853778532764 27.308104828688187 -89.4118839504453 219.84116087894068 -43.82626839646945 -30.82640634281217 191.51162660636555 75.58432843485463 -38.293718764656816 169.6348055168413 67.47273857007687 67.77788750212082 32.764083099502216 14.41158730348043 64.26115810116133 55.90436071049392 14.309077774472739 36.66429022054173 32.76277127325889 21.003864286705006 36.288185249242204 55.90322752950084 20.91322403044042 14.082575125517304 32.76150903414647 14.409013238121734 17.163501959395823 55.902102925975214 14.306819989951437 20.43782036152542 72.14744778754276 -20.314092097805936 36.28959287763671 74.61617166902545 -27.163017370356915 60.1955169363839 74.52056236630472 -20.267088381455334 38.557139108989624 20.38298049635864 68.49790356083315 68.13220642417458 17.119465386770486 54.06166478491773 10.713876787641281 17.116351810269776 61.59016224420656 1.073673569142676 1.4983752200983531 68.40926391036052 3.353819364530384 1.4998468305509505 9.937004562461317 79.26171716419121 1.5026672276857767 57.06926211715253 38.55771742455579 1.4998410694683173 75.31731083404864 55.72812908109529 128.80275574514764 -21.47915401725388 17.353129169284365 128.8009161104863 -21.480993651917334 36.24207585735657 89.11356300949564 -28.267790828777443 35.91210993406124 128.801983768761 -29.554346344749803 63.577359324010715 74.49117541160842 -0.0008787019463398771 57.05306291634205 73.83615738142461 18.57074367708749 36.287064046164616 73.83432851564152 26.37055385424834 20.0257192514341 73.83438235119712 18.568968646857964 10.932982128101083 71.27770472053116 -0.0035185251941549645 16.13836499625248 318.0716284823343 32.04278314414713 23.473950257074677 319.0716758420334 38.390838990753814 10.532118005741243 327.06710648668184 39.281226918523025 16.621743405403603 327.6218941599019 43.28154543727878 -0.009803384847829884 317.3796840622113 27.12010088092284 -0.010702228821214993 326.6839187263065 36.56585941069912 -15.5394033410733 331.2210969588747 60.34267634584592 -22.04334062736922 324.19307345638566 68.01780891223825 -18.05444541592335 329.1902119550565 50.21355214938087 -26.53847432478183 321.97105524460216 50.21279936728158 -16.643881518149108 327.62029946031157 43.27995073768656 -23.49479963498707 319.06942423706926 38.388587385787055 -10.553819445801446 327.0660956613661 39.280216093206114 -16.1585099295265 318.07008022303256 32.04123488484364 -80.07730504978164 239.5324130770137 46.30831632020245 -81.59162044377487 206.6845593566727 51.8375588382463 -58.68866474278548 187.45435146093752 58.30349351447939 -78.29770022475489 198.2556025697973 40.418915502651515 -7.9537008615398355 332.0845482289881 64.3821438782756 -15.899388932993038 324.6224965185713 79.6782802927242 -0.012424581464375218 332.0847989628652 67.09346207005774 -0.012928997751677973 324.2753263811227 85.42511894673123 -0.011709335718922386 261.5274441766952 122.73070466600453 -20.620727198985342 260.8431867971082 115.96405893149651 -21.08951388227812 257.2140474076096 120.35839373646672 -0.012066842034171969 271.4455308828712 120.27024262284128 -20.492077894347947 269.0503607263231 113.11680229923441 -34.01808333776065 269.49638450103106 84.75289398325853 -41.565389434161034 283.34781814601547 79.89382123082028 -27.42887366922338 277.5394206339567 89.93718919441672 -30.53071428509472 289.8052068508204 83.47278476942353 -0.012301906757569828 285.7311369182706 110.88811495140263 -0.012414023803624222 275.7539839845469 123.20404291302874 -17.76924907467281 284.0201314846531 94.54733793895691 -19.550931571692466 273.80037363474946 113.78895013438645 -18.645047964607663 301.94202479776004 93.29034264112086 -22.284978035978657 294.4187470631961 86.31715122026922 -29.543113809359365 315.3331409965342 72.14593091110004 -30.8083210033822 304.9423750103637 73.82115337571088 -0.012527227950584668 298.59871596651686 102.72076305207221 -0.011955143458007515 290.98954828990816 98.3961795310324 -39.34848053348199 289.2799614625444 30.882493028945113 -42.640040457150945 259.8813656087735 30.8926446064342 -46.48283963560069 274.3593887988237 78.06502959216752 -46.263666350720946 293.3841721511941 50.2104833451417 -53.07548767508865 279.2275956036333 50.20947813760242 -22.690708479244297 308.26756734147017 61.63029563600866 -23.904818696891702 292.96672788901435 61.62950390399025 -33.68660449090539 313.3143549008895 52.45813546128074 -36.982886966242056 300.84934807650575 52.562848620050936 -18.624079239231595 311.68221147932525 53.56424800596888 -29.166964653022216 314.8108456456605 48.69670509913771 -22.689629480007586 294.49845504209094 52.891354317309315 -35.818408573989764 298.2129746524612 46.52371553720013 -24.268317310493902 367.24739791427885 -8.116952616595436 -42.67070572632627 357.52334864073316 2.5379490924689336 -15.544292025312828 352.31487553995714 -21.742250327456944 -28.559272775790518 335.1812619758598 -18.04838310267581 -15.547029948515561 382.18075677558335 5.505275143990739 -28.56340615765425 380.23006931543864 23.125651463390614 -42.67076109715618 345.5031857626994 15.713154115543587 -28.55917122256111 321.34476270304117 -6.330296401794067 -28.563601036618344 369.66686802028397 37.7540513308181 -24.26846228481916 335.78090065833703 26.373726431052496 -15.544436999638089 320.8483782840153 12.748428720190992 -15.547174735590572 350.7142597069098 39.992047941647634 -0.012585543474277589 356.8983275700938 45.63762033998764 -0.008713763138698578 314.66189344347606 7.108251844488426 -34.99727307443736 249.5122835225969 78.05657647836519 -22.699653898776333 233.97380980128742 78.07204605317027 -45.020674234710604 251.65647340076453 75.15385503317049 -34.066717989244694 237.12978959213604 72.34118369744033 -31.022784294623666 271.65208672968936 99.17501594503845 -51.691456249517145 253.80188070183362 50.20832555705073 22.261896861648765 294.42088256743864 86.31928672451413 18.620576949752706 301.9438112508005 93.29212909416334 30.785428855070027 304.9453277138796 73.82410607923015 29.51938605490989 315.33597235607 72.14876227063908 19.527193338502617 273.80224697607196 113.79082347571108 17.746375843709206 284.0218340455591 94.54904049986492 30.508348074632224 289.80813296352585 83.47571088213232 41.543985374846415 283.35180227336224 79.89780535817162 27.407063704758887 277.54204937900715 89.93981793947022 33.997541505933555 269.49964505871867 84.75615454094992 20.5980227062904 260.8451627564879 115.96603489087852 20.468859511520275 269.05232432659375 113.11876589950732 15.87404849398885 324.62401968513643 79.67980345929104 7.929111601960085 332.0853096250114 64.38290527429979 22.019159271371336 324.1951857404838 68.0199211963388 15.51528408756034 331.2225856697417 60.344165056714665 26.5162130532939 321.9735985994444 50.21534272212677 18.03149200114804 329.1919418558099 50.21528205013626 0.0032352776933823055 108.41406262167291 -35.902343705874046 29.823314945942627 108.41549214746543 -31.045445424500734 0.0028236819083795914 119.92968761517363 -38.83203120250771 31.748704257951008 119.9312094607084 -34.385196851863334 56.502454838646095 108.41677110174803 -19.622291457092455 55.98524581401487 141.39330884548573 -19.55590992538696 -53.7048261266773 142.7278942345807 32.7552380253553 -49.10145845828736 116.65389613252884 21.17342738003505 -57.543628893801475 143.18864770919126 10.579272725014352 -57.022742824475316 116.32148514874496 9.184766382094157 -55.98350392867126 141.38794124695838 -19.561277523920484 -56.497544901670125 108.41135406678433 -19.62770849206238 -35.56930325579063 143.0607948722339 57.36938869167277 -22.31321565349433 116.49111781683789 38.43643033399151 -31.743483096138444 119.92816574920744 -34.388240563367795 -29.817309916998056 108.41263307356382 -31.048304498405635 -0.003388268481742144 141.69140609238806 68.98828117360209 -0.0011892833593634621 115.67187491790625 49.13671869641239 -32.56491652799666 142.17031389659095 -33.24765488911646 0.0017098640157908976 140.4687500853793 -36.136718705604736 -65.74943263170806 171.71626153891947 37.90919985436552 32.56789582232249 142.1734362569679 -33.24453252873592 22.311784243953554 116.49325706626492 38.438569583421 35.563509080740005 143.06420486278594 57.372798682228705 49.10166631603335 116.65860382953477 21.178135077046385 53.701423626493835 142.7330431143291 32.76038690510963 57.024131913435085 116.32695236918191 9.19023360253739 57.542308341721075 143.194164740583 10.584789756412441 53.05732458100895 279.2326834368732 50.214565970848156 46.46247265080294 274.36384444490795 78.06948523825693 46.244145936688085 293.3886068242448 50.21491801819748 36.66568687222091 300.3568976486008 50.214792929032285 -38.28411906744712 245.55321516321715 35.77888527239382 -25.287654985598536 249.74972220759196 23.857834427656925 -0.006184853380416605 253.22788353744187 15.788900548645234 -23.596317590215648 242.15952680394244 114.36927058273658 -42.54237082255016 240.2866942940085 50.208116201233686 -30.411667436024285 299.74114199209464 34.75061044938751 -36.68587545921084 300.3533812948069 50.21127657523439 65.7427545661115 171.72256505907117 37.91550337452445 25.274844898204464 249.75214609104643 23.86025831111415 31.000653062841106 271.6550600317204 99.17798924707289 34.97928926475044 249.51563808441728 78.05993104018943 22.683158496930034 233.97598537900478 78.07422163089014 15.52313769300716 350.71574916681374 39.99353740155329 0.0016508773608644915 102.90625003939064 2.656249999820462 33.61916135321373 245.46775091219126 97.81357807802085 34.28686135456798 254.82343143949583 94.06405859381918 -33.638650992222 245.46452668279395 97.81035384861984 34.57514882154794 296.34028557192113 68.71450020034334 25.107770175081956 234.2366632861427 102.21106915977127 -34.306888487797636 254.82014316744238 94.06077032176195 -0.007636728000825836 228.59619439048714 70.68600841386237 -0.006780723724003875 231.21651998462073 50.209330852397756 -10.500539266765253 229.36469452484675 84.85365988226813 -0.008916529304892326 227.55204581394514 98.44782594103494 -0.007893958359162529 303.4851878733892 1.162871170171947 10.483835685010837 229.36570048142255 84.8546658388451 -0.008975892197252207 310.02859667854386 17.209592231829085 55.54674395302042 142.7331845894491 0.0031339680547901594 35.90904564749584 142.16149581931705 21.00752721525386 35.90972634880255 148.96663777304335 0.0028742988734418162 35.91107648314801 142.18100128446588 -21.375453738414105 12.910025301003282 142.7311406549694 0.0010900335727463961 80.80709249584542 1.5035598136444719 6.846967542004256 36.66593094931824 19.544411551081666 -0.00357523940132376 41.17732898750363 308.8418190673572 43.32869720631222 40.911964295946774 302.3183164136243 44.42212174725944 -0.009752573633402555 221.44935466249342 121.99050213801613 -0.010666863264327728 332.0670246632137 30.445023717982867 -0.01165517398745538 332.9137331468778 50.21459555780338 -34.5967260194891 296.33696958550183 68.71118421392023 -25.1266047094751 234.23425513246343 102.20866100608926 -0.010481300232280855 373.2371527082787 -14.595971403494715 38.134040025273215 313.4743875532314 45.375648416114174 -41.197670823191494 308.8378701447454 43.324748283695875 -40.93178551596921 302.31439295826755 44.41819829189821 -38.15502229940792 313.4707303804977 45.37199124337626</float_array>
                    <technique_common>
                        <accessor count="559" source="#pointarray0" stride="3">
                            <param name="X" type="float"/>
                            <param name="Y" type="float"/>
                            <param name="Z" type="float"/>
                        </accessor>
                    </technique_common>
                </source>
                <source id="uvs0">
                    <float_array id="uvarray0" count="2">0 1</float_array>
                    <technique_common>
                        <accessor count="1" source="#uvarray0" stride="2">
                            <param name="S" type="float"/>
                            <param name="T" type="float"/>
                        </accessor>
                    </technique_common>
                </source>
                <vertices id="vertices0">
                    <input semantic="POSITION" source="#points0"/>
                </vertices>
                <polylist count="1058" material="Material1">
                    <input offset="0" semantic="VERTEX" source="#vertices0"/>
                    <input offset="1" semantic="TEXCOORD" source="#uvs0" set="0"/>
                    <vcount>3 3 3 3 3 3 3 3 3 3 3 3 3 3 3 3 3 3 3 3 3 3 3 3 3 3 3 3 3 3 3 3 3 3 3 3 3 3 3 3 3 3 3 3 3 3 3 3 3 3 3 3 3 3 3 3 3 3 3 3 3 3 3 3 3 3 3 3 3 3 3 3 3 3 3 3 3 3 3 3 3 3 3 3 3 3 3 3 3 3 3 3 3 3 3 3 3 3 3 3 3 3 3 3 3 3 3 3 3 3 3 3 3 3 3 3 3 3 3 3 3 3 3 3 3 3 3 3 3 3 3 3 3 3 3 3 3 3 3 3 3 3 3 3 3 3 3 3 3 3 3 3 3 3 3 3 3 3 3 3 3 3 3 3 3 3 3 3 3 3 3 3 3 3 3 3 3 3 3 3 3 3 3 3 3 3 3 3 3 3 3 3 3 3 3 3 3 3 3 3 3 3 3 3 3 3 3 3 3 3 3 3 3 3 3 3 3 3 3 3 3 3 3 3 3 3 3 3 3 3 3 3 3 3 3 3 3 3 3 3 3 3 3 3 3 3 3 3 3 3 3 3 3 3 3 3 3 3 3 3 3 3 3 3 3 3 3 3 3 3 3 3 3 3 3 3 3 3 3 3 3 3 3 3 3 3 3 3 3 3 3 3 3 3 3 3 3 3 3 3 3 3 3 3 3 3 3 3 3 3 3 3 3 3 3 3 3 3 3 3 3 3 3 3 3 3 3 3 3 3 3 3 3 3 3 3 3 3 3 3 3 3 3 3 3 3 3 3 3 3 3 3 3 3 3 3 3 3 3 3 3 3 3 3 3 3 3 3 3 3 3 3 3 3 3 3 3 3 3 3 3 3 3 3 3 3 3 3 3 3 3 3 3 3 3 3 3 3 3 3 3 3 3 3 3 3 3 3 3 3 3 3 3 3 3 3 3 3 3 3 3 3 3 3 3 3 3 3 3 3 3 3 3 3 3 3 3 3 3 3 3 3 3 3 3 3 3 3 3 3 3 3 3 3 3 3 3 3 3 3 3 3 3 3 3 3 3 3 3 3 3 3 3 3 3 3 3 3 3 3 3 3 3 3 3 3 3 3 3 3 3 3 3 3 3 3 3 3 3 3 3 3 3 3 3 3 3 3 3 3 3 3 3 3 3 3 3 3 3 3 3 3 3 3 3 3 3 3 3 3 3 3 3 3 3 3 3 3 3 3 3 3 3 3 3 3 3 3 3 3 3 3 3 3 3 3 3 3 3 3 3 3 3 3 3 3 3 3 3 3 3 3 3 3 3 3 3 3 3 3 3 3 3 3 3 3 3 3 3 3 3 3 3 3 3 3 3 3 3 3 3 3 3 3 3 3 3 3 3 3 3 3 3 3 3 3 3 3 3 3 3 3 3 3 3 3 3 3 3 3 3 3 3 3 3 3 3 3 3 3 3 3 3 3 3 3 3 3 3 3 3 3 3 3 3 3 3 3 3 3 3 3 3 3 3 3 3 3 3 3 3 3 3 3 3 3 3 3 3 3 3 3 3 3 3 3 3 3 3 3 3 3 3 3 3 3 3 3 3 3 3 3 3 3 3 3 3 3 3 3 3 3 3 3 3 3 3 3 3 3 3 3 3 3 3 3 3 3 3 3 3 3 3 3 3 3 3 3 3 3 3 3 3 3 3 3 3 3 3 3 3 3 3 3 3 3 3 3 3 3 3 3 3 3 3 3 3 3 3 3 3 3 3 3 3 3 3 3 3 3 3 3 3 3 3 3 3 3 3 3 3 3 3 3 3 3 3 3 3 3 3 3 3 3 3 3 3 3 3 3 3 3 3 3 3 3 3 3 3 3 3 3 3 3 3 3 3 3 3 3 3 3 3 3 3 3 3 3 3 3 3 3 3 3 3 3 3 3 3 3 3 3 3 3 3 3 3 3 3 3 3 3 3 3 3 3 3 3 3 3 3 3 3 3 3 3 3 3 3 3 3 3 3 3 3 3 3 3 3 3 3 3 3 3 3 3 3 3 3 3 3 3 3 3 3 3 3 3 3 3 3 3 3 3 3 3 3 3 3 3 3 3 3 3 3 3 3 3 3 3 3 3 3 3 3 3 3 3 3 3 3 3 3 3 3 3 3 3 3 3 3 3 3 3 3 3 3 3 3 3 3 3 3 3 3 3 3 3 3 3 3 3 3 3 3 3 3 3 3 3 3 3 3 3 3 3 3 3 3 3 3 3 3 3 3 3 3 3 3 3 3 3 3 3 3 3 3 3 3 3 3 3 3 3 3 3 3 3 3 3 3 3 3 3 3 3 3 3 3 3 3 3 3 3 3 3 3 3 3 3 3 3 3 3 3 3 3 3 3 3 3 3 3 3 3 3 3 3</vcount>
                    <p>2 0 1 0 0 0 3 0 1 0 2 0 1 0 5 0 4 0 3 0 5 0 1 0 6 0 0 0 1 0 7 0 0 0 6 0 10 0 9 0 8 0 11 0 9 0 10 0 8 0 13 0 12 0 9 0 13 0 8 0 16 0 15 0 14 0 17 0 15 0 16 0 18 0 16 0 14 0 19 0 16 0 18 0 21 0 18 0 20 0 19 0 18 0 21 0 23 0 20 0 22 0 24 0 20 0 23 0 5 0 23 0 4 0 24 0 23 0 5 0 20 0 25 0 22 0 18 0 25 0 20 0 25 0 14 0 26 0 18 0 14 0 25 0 14 0 27 0 26 0 15 0 27 0 14 0 30 0 29 0 28 0 31 0 29 0 30 0 32 0 31 0 30 0 33 0 31 0 32 0 28 0 35 0 34 0 29 0 35 0 28 0 36 0 28 0 34 0 30 0 28 0 36 0 30 0 37 0 32 0 36 0 37 0 30 0 40 0 39 0 38 0 41 0 39 0 40 0 38 0 43 0 42 0 39 0 43 0 38 0 42 0 45 0 44 0 43 0 45 0 42 0 48 0 47 0 46 0 49 0 47 0 48 0 49 0 51 0 50 0 48 0 51 0 49 0 52 0 50 0 51 0 53 0 50 0 52 0 55 0 52 0 54 0 53 0 52 0 55 0 48 0 56 0 51 0 57 0 56 0 48 0 57 0 46 0 58 0 48 0 46 0 57 0 46 0 59 0 58 0 60 0 59 0 46 0 59 0 62 0 61 0 60 0 62 0 59 0 65 0 64 0 63 0 66 0 64 0 65 0 66 0 34 0 64 0 36 0 34 0 66 0 69 0 68 0 67 0 70 0 68 0 69 0 68 0 72 0 71 0 70 0 72 0 68 0 72 0 73 0 71 0 74 0 73 0 72 0 67 0 76 0 75 0 68 0 76 0 67 0 77 0 67 0 75 0 78 0 67 0 77 0 80 0 77 0 79 0 78 0 77 0 80 0 81 0 80 0 79 0 82 0 80 0 81 0 84 0 81 0 83 0 82 0 81 0 84 0 83 0 73 0 84 0 85 0 73 0 83 0 71 0 85 0 86 0 73 0 85 0 71 0 76 0 71 0 86 0 68 0 71 0 76 0 84 0 74 0 87 0 73 0 74 0 84 0 87 0 82 0 84 0 88 0 82 0 87 0 82 0 89 0 80 0 88 0 89 0 82 0 89 0 78 0 80 0 90 0 78 0 89 0 78 0 69 0 67 0 90 0 69 0 78 0 91 0 86 0 2 0 76 0 86 0 91 0 86 0 3 0 2 0 85 0 3 0 86 0 3 0 83 0 5 0 85 0 83 0 3 0 83 0 24 0 5 0 81 0 24 0 83 0 24 0 79 0 92 0 81 0 79 0 24 0 79 0 93 0 92 0 77 0 93 0 79 0 93 0 75 0 94 0 77 0 75 0 93 0 75 0 91 0 94 0 76 0 91 0 75 0 92 0 19 0 21 0 93 0 19 0 92 0 19 0 94 0 16 0 93 0 94 0 19 0 94 0 17 0 16 0 91 0 17 0 94 0 27 0 2 0 0 0 15 0 2 0 27 0 96 0 95 0 47 0 97 0 95 0 96 0 49 0 96 0 47 0 98 0 96 0 49 0 99 0 49 0 50 0 98 0 49 0 99 0 53 0 99 0 50 0 100 0 99 0 53 0 101 0 53 0 55 0 100 0 53 0 101 0 104 0 103 0 102 0 105 0 103 0 104 0 108 0 107 0 106 0 109 0 107 0 108 0 106 0 111 0 110 0 107 0 111 0 106 0 110 0 105 0 104 0 111 0 105 0 110 0 114 0 113 0 112 0 115 0 113 0 114 0 117 0 65 0 116 0 66 0 65 0 117 0 37 0 66 0 117 0 36 0 66 0 37 0 112 0 119 0 118 0 113 0 119 0 112 0 47 0 60 0 46 0 95 0 60 0 47 0 44 0 121 0 120 0 45 0 121 0 44 0 123 0 122 0 96 0 124 0 122 0 123 0 127 0 126 0 125 0 122 0 126 0 127 0 126 0 128 0 125 0 129 0 128 0 126 0 128 0 131 0 130 0 129 0 131 0 128 0 134 0 133 0 132 0 135 0 133 0 134 0 137 0 132 0 136 0 134 0 132 0 137 0 140 0 139 0 138 0 141 0 139 0 140 0 129 0 142 0 131 0 143 0 142 0 129 0 144 0 129 0 126 0 143 0 129 0 144 0 122 0 144 0 126 0 124 0 144 0 122 0 98 0 123 0 96 0 145 0 123 0 98 0 141 0 98 0 99 0 145 0 98 0 141 0 100 0 141 0 99 0 139 0 141 0 100 0 142 0 100 0 131 0 139 0 100 0 142 0 146 0 130 0 101 0 128 0 130 0 146 0 62 0 147 0 61 0 148 0 147 0 62 0 147 0 54 0 149 0 148 0 54 0 147 0 54 0 150 0 149 0 52 0 150 0 54 0 150 0 51 0 56 0 52 0 51 0 150 0 148 0 55 0 54 0 151 0 55 0 148 0 152 0 148 0 62 0 151 0 148 0 152 0 60 0 152 0 62 0 95 0 152 0 60 0 155 0 154 0 153 0 156 0 154 0 155 0 102 0 156 0 155 0 103 0 156 0 102 0 158 0 104 0 157 0 110 0 104 0 158 0 45 0 110 0 158 0 106 0 110 0 45 0 160 0 108 0 159 0 161 0 108 0 160 0 162 0 161 0 160 0 153 0 161 0 162 0 163 0 153 0 162 0 155 0 153 0 163 0 164 0 155 0 163 0 102 0 155 0 164 0 95 0 165 0 152 0 97 0 165 0 95 0 165 0 151 0 152 0 146 0 151 0 165 0 151 0 101 0 55 0 146 0 101 0 151 0 97 0 125 0 165 0 127 0 125 0 97 0 125 0 146 0 165 0 128 0 146 0 125 0 166 0 41 0 40 0 167 0 41 0 166 0 168 0 167 0 166 0 169 0 167 0 168 0 170 0 169 0 168 0 157 0 169 0 170 0 167 0 162 0 41 0 163 0 162 0 167 0 169 0 163 0 167 0 164 0 163 0 169 0 39 0 159 0 43 0 160 0 159 0 39 0 41 0 160 0 39 0 162 0 160 0 41 0 161 0 109 0 108 0 171 0 109 0 161 0 153 0 171 0 161 0 154 0 171 0 153 0 120 0 157 0 170 0 121 0 157 0 120 0 34 0 112 0 64 0 115 0 114 0 34 0 113 0 115 0 35 0 63 0 35 0 65 0 35 0 31 0 65 0 31 0 172 0 65 0 123 0 145 0 136 0 133 0 173 0 144 0 123 0 136 0 132 0 124 0 132 0 133 0 123 0 132 0 124 0 145 0 141 0 174 0 173 0 143 0 144 0 124 0 133 0 144 0 6 0 1 0 175 0 13 0 176 0 12 0 177 0 26 0 7 0 7 0 178 0 177 0 7 0 6 0 178 0 177 0 178 0 12 0 178 0 10 0 8 0 21 0 20 0 24 0 22 0 13 0 9 0 23 0 9 0 11 0 13 0 25 0 176 0 23 0 11 0 4 0 22 0 25 0 13 0 176 0 25 0 26 0 4 0 175 0 1 0 92 0 21 0 24 0 2 0 17 0 91 0 11 0 10 0 175 0 4 0 11 0 175 0 23 0 22 0 9 0 179 0 90 0 89 0 179 0 70 0 69 0 181 0 88 0 180 0 97 0 96 0 127 0 127 0 96 0 122 0 145 0 174 0 136 0 136 0 174 0 137 0 100 0 101 0 130 0 183 0 135 0 182 0 138 0 182 0 140 0 138 0 183 0 182 0 183 0 138 0 143 0 133 0 135 0 173 0 140 0 174 0 141 0 142 0 143 0 138 0 139 0 142 0 138 0 182 0 137 0 140 0 140 0 137 0 174 0 134 0 182 0 135 0 173 0 135 0 183 0 173 0 183 0 143 0 100 0 130 0 131 0 182 0 134 0 137 0 184 0 149 0 150 0 185 0 61 0 147 0 184 0 58 0 59 0 184 0 186 0 58 0 184 0 185 0 149 0 186 0 57 0 58 0 185 0 147 0 149 0 185 0 59 0 61 0 186 0 56 0 57 0 186 0 150 0 56 0 184 0 59 0 185 0 184 0 150 0 186 0 63 0 113 0 35 0 172 0 117 0 116 0 118 0 119 0 63 0 35 0 115 0 34 0 64 0 118 0 63 0 34 0 114 0 112 0 112 0 118 0 64 0 63 0 119 0 113 0 102 0 164 0 157 0 187 0 168 0 166 0 188 0 166 0 40 0 188 0 40 0 38 0 103 0 189 0 156 0 156 0 189 0 154 0 154 0 189 0 171 0 171 0 189 0 109 0 188 0 38 0 190 0 190 0 42 0 44 0 191 0 44 0 120 0 187 0 170 0 168 0 106 0 45 0 108 0 172 0 37 0 117 0 172 0 116 0 65 0 111 0 189 0 105 0 107 0 189 0 111 0 109 0 189 0 107 0 105 0 189 0 103 0 31 0 33 0 172 0 33 0 32 0 37 0 33 0 37 0 172 0 35 0 29 0 31 0 181 0 89 0 88 0 179 0 69 0 90 0 181 0 72 0 70 0 181 0 70 0 179 0 180 0 88 0 87 0 181 0 180 0 72 0 181 0 179 0 89 0 180 0 74 0 72 0 180 0 87 0 74 0 2 0 15 0 17 0 176 0 26 0 177 0 176 0 177 0 12 0 8 0 12 0 178 0 6 0 175 0 10 0 178 0 6 0 10 0 0 0 7 0 27 0 27 0 7 0 26 0 191 0 120 0 170 0 192 0 188 0 190 0 192 0 187 0 188 0 192 0 191 0 187 0 192 0 190 0 191 0 45 0 159 0 108 0 102 0 157 0 104 0 45 0 43 0 159 0 158 0 121 0 45 0 157 0 121 0 158 0 164 0 169 0 157 0 187 0 191 0 170 0 188 0 187 0 166 0 38 0 42 0 190 0 191 0 190 0 44 0 195 0 194 0 193 0 196 0 194 0 195 0 199 0 198 0 197 0 200 0 198 0 199 0 203 0 202 0 201 0 204 0 202 0 203 0 203 0 193 0 204 0 195 0 193 0 203 0 207 0 206 0 205 0 208 0 206 0 207 0 206 0 210 0 209 0 208 0 210 0 206 0 211 0 202 0 204 0 212 0 202 0 211 0 204 0 213 0 211 0 193 0 213 0 204 0 193 0 214 0 213 0 194 0 214 0 193 0 217 0 216 0 215 0 218 0 216 0 217 0 218 0 200 0 216 0 219 0 200 0 218 0 220 0 219 0 218 0 221 0 219 0 220 0 213 0 223 0 222 0 214 0 223 0 213 0 226 0 225 0 224 0 227 0 225 0 226 0 229 0 224 0 228 0 226 0 224 0 229 0 230 0 218 0 217 0 220 0 218 0 230 0 231 0 226 0 229 0 232 0 226 0 231 0 232 0 227 0 226 0 233 0 227 0 232 0 233 0 234 0 227 0 235 0 234 0 233 0 235 0 209 0 234 0 206 0 209 0 235 0 227 0 236 0 225 0 234 0 236 0 227 0 228 0 203 0 201 0 224 0 203 0 228 0 224 0 195 0 203 0 225 0 195 0 224 0 239 0 238 0 237 0 240 0 238 0 239 0 228 0 242 0 241 0 201 0 242 0 228 0 241 0 243 0 240 0 242 0 243 0 241 0 246 0 245 0 244 0 247 0 245 0 246 0 250 0 249 0 248 0 251 0 249 0 250 0 251 0 252 0 249 0 253 0 252 0 251 0 256 0 255 0 254 0 257 0 255 0 256 0 260 0 259 0 258 0 261 0 259 0 260 0 258 0 263 0 262 0 259 0 263 0 258 0 262 0 265 0 264 0 263 0 265 0 262 0 266 0 261 0 260 0 267 0 261 0 266 0 270 0 269 0 268 0 271 0 269 0 270 0 273 0 270 0 272 0 274 0 270 0 273 0 277 0 276 0 275 0 278 0 276 0 277 0 279 0 275 0 271 0 277 0 275 0 279 0 274 0 271 0 270 0 279 0 271 0 274 0 280 0 274 0 273 0 281 0 274 0 280 0 282 0 278 0 277 0 283 0 278 0 282 0 284 0 277 0 279 0 282 0 277 0 284 0 281 0 279 0 274 0 284 0 279 0 281 0 287 0 286 0 285 0 288 0 286 0 287 0 289 0 288 0 287 0 290 0 288 0 289 0 291 0 290 0 289 0 292 0 290 0 291 0 288 0 292 0 286 0 290 0 292 0 288 0 266 0 293 0 267 0 294 0 293 0 266 0 296 0 265 0 295 0 264 0 265 0 296 0 298 0 295 0 297 0 296 0 295 0 298 0 294 0 297 0 293 0 298 0 297 0 294 0 301 0 300 0 299 0 244 0 300 0 301 0 302 0 244 0 301 0 246 0 244 0 302 0 305 0 304 0 303 0 306 0 304 0 305 0 306 0 307 0 304 0 308 0 307 0 306 0 308 0 309 0 307 0 310 0 309 0 308 0 310 0 311 0 309 0 312 0 311 0 310 0 301 0 314 0 313 0 299 0 314 0 301 0 302 0 313 0 315 0 301 0 313 0 302 0 207 0 317 0 316 0 205 0 317 0 207 0 317 0 318 0 316 0 319 0 318 0 317 0 320 0 202 0 212 0 321 0 202 0 320 0 324 0 323 0 322 0 325 0 323 0 324 0 328 0 327 0 326 0 329 0 327 0 328 0 332 0 331 0 330 0 333 0 331 0 332 0 335 0 330 0 334 0 332 0 330 0 335 0 329 0 336 0 327 0 337 0 336 0 329 0 331 0 338 0 330 0 339 0 338 0 331 0 229 0 241 0 340 0 228 0 241 0 229 0 343 0 342 0 341 0 344 0 342 0 343 0 340 0 240 0 239 0 241 0 240 0 340 0 346 0 239 0 345 0 340 0 239 0 346 0 345 0 237 0 347 0 239 0 237 0 345 0 347 0 319 0 317 0 237 0 319 0 347 0 330 0 348 0 334 0 338 0 348 0 330 0 325 0 349 0 323 0 350 0 349 0 325 0 352 0 322 0 351 0 324 0 322 0 352 0 354 0 351 0 353 0 352 0 351 0 354 0 357 0 356 0 355 0 358 0 356 0 357 0 243 0 360 0 359 0 361 0 360 0 243 0 363 0 198 0 362 0 197 0 198 0 363 0 242 0 202 0 321 0 201 0 202 0 242 0 242 0 361 0 243 0 321 0 361 0 242 0 350 0 364 0 349 0 365 0 364 0 350 0 365 0 366 0 364 0 367 0 366 0 365 0 367 0 368 0 366 0 369 0 368 0 367 0 369 0 353 0 368 0 354 0 353 0 369 0 370 0 324 0 352 0 371 0 324 0 370 0 371 0 325 0 324 0 372 0 325 0 371 0 373 0 335 0 334 0 374 0 335 0 373 0 334 0 375 0 373 0 348 0 375 0 334 0 375 0 377 0 376 0 348 0 377 0 375 0 374 0 379 0 378 0 373 0 379 0 374 0 373 0 376 0 379 0 375 0 376 0 373 0 380 0 303 0 372 0 305 0 303 0 380 0 312 0 370 0 311 0 381 0 370 0 312 0 381 0 382 0 370 0 383 0 382 0 381 0 383 0 372 0 382 0 380 0 372 0 383 0 384 0 365 0 350 0 385 0 365 0 384 0 385 0 367 0 365 0 386 0 367 0 385 0 386 0 369 0 367 0 387 0 369 0 386 0 387 0 354 0 369 0 388 0 354 0 387 0 307 0 387 0 386 0 309 0 387 0 307 0 309 0 388 0 387 0 311 0 388 0 309 0 303 0 385 0 384 0 304 0 385 0 303 0 304 0 386 0 385 0 307 0 386 0 304 0 391 0 390 0 389 0 392 0 390 0 391 0 394 0 389 0 393 0 391 0 389 0 394 0 397 0 396 0 395 0 398 0 396 0 397 0 399 0 398 0 397 0 400 0 398 0 399 0 401 0 400 0 399 0 402 0 400 0 401 0 394 0 402 0 401 0 393 0 402 0 394 0 403 0 344 0 343 0 404 0 344 0 403 0 231 0 340 0 346 0 229 0 340 0 231 0 344 0 362 0 342 0 405 0 362 0 344 0 321 0 357 0 361 0 320 0 357 0 321 0 361 0 355 0 360 0 357 0 355 0 361 0 404 0 405 0 344 0 406 0 405 0 404 0 395 0 408 0 407 0 396 0 408 0 395 0 407 0 410 0 409 0 408 0 410 0 407 0 412 0 257 0 411 0 413 0 257 0 412 0 415 0 411 0 414 0 412 0 411 0 415 0 418 0 417 0 416 0 419 0 417 0 418 0 422 0 421 0 420 0 423 0 421 0 422 0 426 0 425 0 424 0 427 0 425 0 426 0 424 0 429 0 428 0 425 0 429 0 424 0 313 0 431 0 430 0 314 0 431 0 313 0 433 0 432 0 417 0 434 0 432 0 433 0 437 0 436 0 435 0 438 0 436 0 437 0 440 0 435 0 439 0 437 0 435 0 440 0 442 0 439 0 441 0 440 0 439 0 442 0 435 0 441 0 439 0 436 0 441 0 435 0 445 0 444 0 443 0 446 0 444 0 445 0 443 0 448 0 447 0 444 0 448 0 443 0 447 0 278 0 283 0 448 0 278 0 447 0 280 0 446 0 445 0 273 0 446 0 280 0 446 0 449 0 444 0 450 0 449 0 446 0 444 0 451 0 448 0 449 0 451 0 444 0 448 0 276 0 278 0 451 0 276 0 448 0 273 0 450 0 446 0 272 0 450 0 273 0 450 0 452 0 449 0 453 0 452 0 450 0 449 0 454 0 451 0 452 0 454 0 449 0 451 0 455 0 276 0 454 0 455 0 451 0 272 0 453 0 450 0 456 0 453 0 272 0 459 0 458 0 457 0 460 0 458 0 459 0 416 0 459 0 457 0 432 0 459 0 416 0 418 0 423 0 422 0 461 0 423 0 418 0 459 0 434 0 462 0 432 0 434 0 459 0 244 0 250 0 300 0 245 0 250 0 244 0 464 0 429 0 463 0 428 0 429 0 464 0 466 0 463 0 465 0 464 0 463 0 466 0 468 0 421 0 467 0 420 0 421 0 468 0 471 0 470 0 469 0 472 0 470 0 471 0 474 0 411 0 473 0 414 0 411 0 474 0 473 0 257 0 256 0 411 0 257 0 473 0 476 0 410 0 475 0 409 0 410 0 476 0 478 0 475 0 477 0 476 0 475 0 478 0 480 0 477 0 479 0 478 0 477 0 480 0 392 0 479 0 390 0 480 0 479 0 392 0 483 0 482 0 481 0 484 0 482 0 483 0 484 0 485 0 482 0 486 0 485 0 484 0 489 0 488 0 487 0 490 0 488 0 489 0 491 0 490 0 489 0 492 0 490 0 491 0 487 0 494 0 493 0 488 0 494 0 487 0 495 0 492 0 491 0 496 0 492 0 495 0 493 0 498 0 497 0 494 0 498 0 493 0 483 0 496 0 495 0 481 0 496 0 483 0 212 0 499 0 320 0 500 0 499 0 212 0 500 0 495 0 499 0 483 0 495 0 500 0 363 0 497 0 197 0 493 0 497 0 363 0 501 0 493 0 363 0 487 0 493 0 501 0 356 0 487 0 501 0 489 0 487 0 356 0 358 0 489 0 356 0 491 0 489 0 358 0 212 0 502 0 500 0 211 0 502 0 212 0 504 0 498 0 503 0 497 0 498 0 504 0 506 0 503 0 505 0 504 0 503 0 506 0 508 0 505 0 507 0 506 0 505 0 508 0 486 0 507 0 485 0 508 0 507 0 486 0 511 0 510 0 509 0 470 0 510 0 511 0 467 0 414 0 474 0 421 0 414 0 467 0 390 0 512 0 247 0 479 0 512 0 390 0 477 0 464 0 466 0 475 0 464 0 477 0 475 0 428 0 464 0 410 0 428 0 475 0 393 0 246 0 302 0 389 0 246 0 393 0 389 0 247 0 246 0 390 0 247 0 389 0 247 0 511 0 245 0 512 0 511 0 247 0 314 0 513 0 431 0 514 0 513 0 314 0 299 0 514 0 314 0 515 0 514 0 299 0 413 0 255 0 257 0 516 0 255 0 413 0 462 0 460 0 459 0 517 0 460 0 462 0 431 0 517 0 462 0 513 0 517 0 431 0 315 0 430 0 518 0 313 0 430 0 315 0 518 0 433 0 519 0 430 0 433 0 518 0 402 0 518 0 400 0 315 0 518 0 402 0 393 0 315 0 402 0 302 0 315 0 393 0 408 0 428 0 410 0 424 0 428 0 408 0 396 0 424 0 408 0 426 0 424 0 396 0 400 0 519 0 398 0 518 0 519 0 400 0 423 0 414 0 421 0 415 0 414 0 423 0 500 0 484 0 483 0 502 0 484 0 500 0 199 0 497 0 504 0 197 0 497 0 199 0 520 0 504 0 506 0 199 0 504 0 520 0 223 0 506 0 508 0 520 0 506 0 223 0 222 0 508 0 486 0 223 0 508 0 222 0 300 0 248 0 521 0 250 0 248 0 300 0 299 0 521 0 515 0 300 0 521 0 299 0 253 0 509 0 510 0 251 0 509 0 253 0 471 0 467 0 522 0 468 0 467 0 471 0 472 0 253 0 510 0 523 0 253 0 472 0 253 0 524 0 252 0 523 0 524 0 253 0 272 0 268 0 456 0 270 0 268 0 272 0 275 0 455 0 525 0 276 0 455 0 275 0 271 0 525 0 269 0 275 0 525 0 271 0 482 0 485 0 526 0 486 0 502 0 222 0 491 0 499 0 495 0 358 0 320 0 499 0 492 0 526 0 490 0 496 0 526 0 492 0 481 0 526 0 496 0 528 0 256 0 527 0 473 0 256 0 528 0 516 0 413 0 529 0 473 0 528 0 474 0 528 0 523 0 472 0 481 0 482 0 526 0 463 0 469 0 465 0 469 0 470 0 530 0 531 0 527 0 254 0 532 0 416 0 457 0 434 0 430 0 431 0 462 0 434 0 431 0 503 0 498 0 526 0 490 0 526 0 488 0 488 0 526 0 494 0 494 0 526 0 498 0 509 0 250 0 245 0 215 0 214 0 194 0 215 0 194 0 217 0 209 0 236 0 234 0 217 0 196 0 230 0 198 0 200 0 219 0 222 0 211 0 213 0 520 0 223 0 214 0 217 0 194 0 196 0 216 0 200 0 199 0 208 0 220 0 230 0 210 0 208 0 230 0 533 0 219 0 221 0 513 0 534 0 517 0 517 0 534 0 460 0 458 0 534 0 535 0 535 0 534 0 536 0 515 0 534 0 514 0 207 0 533 0 221 0 233 0 232 0 537 0 210 0 196 0 236 0 208 0 221 0 220 0 530 0 512 0 465 0 468 0 469 0 463 0 420 0 468 0 429 0 254 0 527 0 256 0 466 0 479 0 477 0 420 0 429 0 422 0 422 0 425 0 419 0 327 0 377 0 326 0 347 0 537 0 345 0 404 0 359 0 360 0 405 0 363 0 362 0 316 0 403 0 343 0 515 0 521 0 534 0 538 0 536 0 534 0 524 0 538 0 534 0 249 0 252 0 534 0 248 0 249 0 534 0 501 0 355 0 356 0 319 0 237 0 238 0 406 0 404 0 360 0 406 0 360 0 355 0 406 0 355 0 501 0 406 0 501 0 405 0 238 0 243 0 359 0 238 0 240 0 243 0 207 0 221 0 208 0 210 0 236 0 209 0 539 0 235 0 537 0 206 0 539 0 205 0 206 0 235 0 539 0 216 0 199 0 520 0 198 0 219 0 533 0 230 0 196 0 210 0 236 0 195 0 225 0 236 0 196 0 195 0 521 0 248 0 534 0 215 0 216 0 520 0 215 0 520 0 214 0 542 0 541 0 540 0 542 0 540 0 543 0 542 0 543 0 544 0 540 0 380 0 543 0 541 0 306 0 540 0 310 0 544 0 312 0 543 0 381 0 544 0 358 0 357 0 320 0 198 0 342 0 362 0 345 0 537 0 346 0 346 0 537 0 231 0 534 0 458 0 460 0 207 0 341 0 533 0 378 0 545 0 335 0 377 0 379 0 376 0 379 0 331 0 545 0 379 0 545 0 378 0 378 0 335 0 374 0 377 0 331 0 379 0 350 0 372 0 384 0 370 0 354 0 388 0 370 0 388 0 311 0 371 0 370 0 382 0 372 0 371 0 382 0 384 0 372 0 303 0 540 0 306 0 305 0 541 0 308 0 306 0 541 0 310 0 308 0 541 0 544 0 310 0 544 0 381 0 312 0 339 0 331 0 377 0 545 0 331 0 333 0 545 0 332 0 335 0 366 0 368 0 546 0 368 0 353 0 546 0 352 0 354 0 370 0 350 0 325 0 372 0 349 0 364 0 546 0 364 0 366 0 546 0 547 0 291 0 289 0 548 0 291 0 547 0 531 0 255 0 549 0 472 0 471 0 522 0 538 0 524 0 531 0 429 0 468 0 463 0 472 0 510 0 470 0 465 0 469 0 530 0 456 0 268 0 550 0 525 0 455 0 550 0 269 0 525 0 550 0 268 0 269 0 550 0 426 0 396 0 398 0 409 0 551 0 407 0 401 0 551 0 394 0 399 0 551 0 401 0 552 0 427 0 519 0 543 0 383 0 381 0 540 0 305 0 380 0 543 0 380 0 383 0 542 0 544 0 541 0 476 0 478 0 551 0 478 0 480 0 551 0 480 0 392 0 551 0 474 0 528 0 467 0 509 0 245 0 511 0 326 0 348 0 328 0 417 0 552 0 433 0 552 0 519 0 433 0 427 0 426 0 519 0 426 0 398 0 519 0 412 0 532 0 413 0 532 0 529 0 413 0 425 0 427 0 419 0 419 0 552 0 417 0 553 0 516 0 529 0 255 0 516 0 553 0 395 0 551 0 397 0 407 0 551 0 395 0 434 0 433 0 430 0 415 0 423 0 532 0 397 0 551 0 399 0 456 0 550 0 453 0 454 0 550 0 455 0 452 0 550 0 454 0 453 0 550 0 452 0 445 0 554 0 280 0 283 0 554 0 447 0 447 0 554 0 443 0 443 0 554 0 445 0 466 0 512 0 479 0 465 0 512 0 466 0 530 0 511 0 512 0 470 0 511 0 530 0 255 0 531 0 254 0 281 0 280 0 554 0 283 0 282 0 554 0 282 0 284 0 554 0 284 0 281 0 554 0 292 0 291 0 286 0 285 0 547 0 287 0 285 0 548 0 547 0 287 0 547 0 555 0 289 0 287 0 555 0 547 0 289 0 555 0 285 0 291 0 548 0 286 0 291 0 285 0 491 0 358 0 499 0 251 0 250 0 509 0 522 0 467 0 528 0 522 0 528 0 472 0 468 0 471 0 469 0 528 0 527 0 523 0 536 0 538 0 531 0 527 0 524 0 523 0 531 0 524 0 527 0 536 0 531 0 549 0 392 0 391 0 551 0 391 0 394 0 551 0 409 0 476 0 551 0 348 0 329 0 328 0 329 0 338 0 337 0 339 0 327 0 336 0 339 0 377 0 327 0 545 0 333 0 332 0 323 0 349 0 546 0 322 0 323 0 546 0 351 0 322 0 546 0 353 0 351 0 546 0 556 0 440 0 442 0 557 0 556 0 442 0 529 0 457 0 458 0 553 0 529 0 458 0 403 0 318 0 359 0 405 0 501 0 363 0 317 0 539 0 347 0 317 0 205 0 539 0 534 0 252 0 524 0 318 0 403 0 316 0 539 0 537 0 347 0 318 0 319 0 238 0 533 0 341 0 342 0 207 0 316 0 341 0 316 0 343 0 341 0 198 0 533 0 342 0 318 0 238 0 359 0 404 0 403 0 359 0 232 0 231 0 537 0 235 0 233 0 537 0 514 0 534 0 513 0 412 0 415 0 532 0 441 0 436 0 442 0 438 0 437 0 556 0 438 0 556 0 557 0 437 0 558 0 556 0 440 0 558 0 437 0 556 0 558 0 440 0 438 0 557 0 442 0 436 0 438 0 442 0 536 0 549 0 553 0 553 0 549 0 255 0 416 0 461 0 418 0 535 0 553 0 458 0 429 0 425 0 422 0 416 0 417 0 432 0 427 0 552 0 419 0 536 0 553 0 535 0 532 0 457 0 529 0 422 0 419 0 418 0 461 0 416 0 532 0 461 0 532 0 423 0 222 0 502 0 211 0 486 0 484 0 502 0 485 0 507 0 526 0 507 0 505 0 526 0 505 0 503 0 526 0 348 0 338 0 329 0 337 0 339 0 336 0 377 0 348 0 326 0 338 0 339 0 337 0</p>
                </polylist>
            </mesh>
        </geometry>
    </library_geometries>
    <library_controllers>
        <controller id="controller0">
            <skin source="#mesh0">
                <bind_shape_matrix>1 0 0 0 0 1 0 0 0 0 1 0 0 0 0 1</bind_shape_matrix>
                <source id="joints0">
                    <Name_array id="JointArr0" count="35">jointnode-1 jointnode0 jointnode1 jointnode2 jointnode3 jointnode4 jointnode5 jointnode6 jointnode7 jointnode8 jointnode9 jointnode10 jointnode11 jointnode12 jointnode13 jointnode14 jointnode15 jointnode16 jointnode17 jointnode18 jointnode19 jointnode20 jointnode21 jointnode22 jointnode23 jointnode24 jointnode25 jointnode26 jointnode27 jointnode28 jointnode29 jointnode30 jointnode31 jointnode32 jointnode33</Name_array>
                    <technique_common>
                        <accessor source="#JointArr0" count="35">
                            <param name="JOINT" type="Name" />
                        </accessor>
                    </technique_common>
                </source>
                <source id="matrices0">
                    <float_array id="MatArr0" count="560">1 0 0 0 0 1 0 0 0 0 1 0 0 0 0 1 1 0 0 0 0 1 0 0 0 0 1 0 0 0 0 1 1 0 0 0 0 1 0 -125.14652252197266 0 0 1 0 0 0 0 1 1 0 0 0 0 1 0 0 0 0 1 -100 0 0 0 1 1 0 0 -100 0 1 0 0 0 0 1 0 0 0 0 1 1 0 0 100 0 1 0 0 0 0 1 0 0 0 0 1 1 0 0 0 0 1 0 -93 0 0 1 0 0 0 0 1 0.00004793836256601856 -0.9999999988509567 -4.386559881474326e-18 137.49999984200656 0.00004793836251091911 2.2980866055094973e-9 -0.9999999988509567 2.499999681140483 0.9999999977019134 0.00004793836251091911 0.00004793836256601856 -0.006711370751666425 0 0 0 1 0.00004782332063778632 -0.9999971262495844 0.0023969158313184714 124.99964171829647 -0.0000480531290230205 0.0023969135332384717 0.9999971262440761 -0.29961511597924 -0.9999999977019134 -0.00004793836251091881 -0.00004793836256589609 37.00671137075166 0 0 0 1 0.00004782332063778632 -0.9999971262495844 0.0023969158313184714 67.49964171829649 -0.0000480531290230205 0.0023969135332384717 0.9999971262440761 -1.4008841227083664 -0.9999999977019134 -0.00004793836251091881 -0.00004793836256589609 37.00671137075167 0 0 0 1 0.00004793836256601826 -0.9999999988509566 -4.826125313346229e-18 22.49968605221886 -0.000047938362510796644 -2.298086605503612e-9 0.9999999988509567 0.008468729012002334 -0.9999999977019135 -0.00004793836251091881 -0.000047938362565896096 37.00671137075167 0 0 0 1 -0.00004793606436910788 -0.00004794066059752197 0.9999999977019134 -39.991171702366906 -0.00004794066059753787 0.9999999977018031 0.00004793836251092393 -7.501603172127032 -0.9999999977019135 -0.00004793836251091881 -0.0000479383625658961 35.13171232442598 0 0 0 1 0.000047818713241344304 -0.999996891845205 0.0024927922697969397 124.99961051507236 -0.00004805771394552241 0.002492789971717479 0.9999968918394764 -0.31159775878161794 -0.9999999977019135 -0.00004793836251091882 -0.00004793836256589611 -36.993288629248326 0 0 0 1 0.000047823320637786314 -0.9999971262495845 0.002396915831318472 67.4996982663124 -0.00004805312902302051 0.0023969135332384717 0.9999971262440762 -1.3894651377945462 -0.9999999977019134 -0.000047938362510918806 -0.0000479383625658961 -36.99328762924834 0 0 0 1 0.00004793836256601825 -0.9999999988509567 -4.392444444352028e-18 22.499672397940877 -0.00004793836251079665 -2.2980866059372924e-9 0.9999999988509568 0.00751876100357246 -0.9999999977019135 -0.000047938362510918806 -0.00004793836256589611 -36.99328662924834 0 0 0 1 -0.000047936064369107886 -0.00004794066059752241 0.9999999977019135 -39.9921216710288 -0.000047940660597537865 0.9999999977018033 0.0000479383625109235 -7.501589563388977 -0.9999999977019135 -0.000047938362510918806 -0.000047938362565896116 -35.11828758292266 0 0 0 1 -0.000058713617795048536 0.965915484345868 0.25885763201729006 -170.51237327745616 -0.00003389519569432086 -0.2588576342370475 0.9659154849407453 37.651065971063886 0.9999999977019135 0.00004793836251091912 0.000047938362566018563 -0.006710370751668949 0 0 0 1 -0.00006370548882742022 0.42257722554517396 0.9063269191589503 -129.44816341383935 0.000023190168153741 -0.9063269201300692 0.42257722762799177 229.209894998565 0.9999999977019134 0.00004793836251091912 0.000047938362566018563 -0.006711370751666424 0 0 0 1 -0.00004793606436923036 -0.000047940660597482686 0.9999999977019136 -34.81191714682002 0.00004794066059753818 -0.9999999977018035 -0.00004793836251077582 270.14270264601845 0.9999999977019134 0.00004793836251091912 0.00004793836256601857 -0.006711370751666424 0 0 0 1 -0.00004793606436923036 -0.000047940660597482686 0.9999999977019136 -34.81191714682002 0.00004794066059753818 -0.9999999977018035 -0.00004793836251077582 270.14270264601845 0.9999999977019134 0.00004793836251091912 0.00004793836256601857 -0.006711370751666424 0 0 0 1 -0.00006779508197298451 0.7070220298179067 0.7071915191488048 -257.6505723683458 8.125002052705607e-9 -0.7071915207736028 0.7070220314430941 187.92557142714367 0.9999999977019134 0.000047938362510919124 0.00004793836256601857 -0.006714370751772538 0 0 0 1 0.9999999937382356 0.00009424276915255065 0.00006034757352756114 -42.088198092327026 -0.00006033853753039688 -0.00009587990486030716 0.9999999935831527 -5.030414436130113 0.00009424855466745052 -0.9999999909626723 -0.00009587421778905237 232.32624308908066 0 0 0 1 0.9999904261750173 0.0000938282239882645 0.004374786231528593 -91.31202091131395 0.004374777196284624 0.00009628561718526283 -0.9999904259809506 -8.205960667471855 -0.00009424855466744996 0.9999999909626722 0.00009587421778892991 -233.1288890703924 0 0 0 1 0.9999857721696648 0.00009373586538076876 0.005333542146341052 -162.28766922620122 0.005333533111287301 0.00009637553234538999 -0.9999857719669354 -9.315062013702452 -0.00009424855466744996 0.9999999909626722 0.00009587421778892991 -233.12877007039577 0 0 0 1 0.9999999937382356 0.00009424276915255062 0.00006034757352756202 -237.22348335051322 -0.00009424566202846592 0.9999999944099547 0.000047935855420453135 -233.12910166890552 -0.00006034305558245018 -0.00004794154261732291 0.9999999970301623 7.057617663067584 0 0 0 1 0.9999999937382356 0.00009424276915255062 0.00006034757352756202 -237.22348335051322 -0.00009424566202846592 0.9999999944099547 0.000047935855420453135 -233.12910166890552 -0.00006034305558245018 -0.00004794154261732291 0.9999999970301623 7.057617663067584 0 0 0 1 -0.9999999993675048 -0.0000016339557591210803 -0.000035529151494309486 -41.640237556599395 -0.00003552899466944897 -0.00009587871553144504 0.9999999947724816 -5.0304209800884125 -0.000001637362239988157 0.9999999954023013 0.00009587865741798285 -232.32626751693024 0 0 0 1 -0.9999999993675048 -0.0000016339557591210805 -0.00003552915149430949 -91.53920529951932 0.00003552899466944897 0.0000958787155315675 -0.9999999947724816 -7.811917581923337 0.0000016373622399881615 -0.9999999954023013 -0.00009587865741810531 233.12891349824204 0 0 0 1 -0.9999999993675048 -0.0000016339557591210805 -0.00003552915149430949 -162.52370999922638 0.00003552899466944897 0.0000958787155315675 -0.9999999947724816 -8.620698609717222 0.0000016373622399881615 -0.9999999954023013 -0.00009587865741810531 233.1308134982741 0 0 0 1 -0.9999999993675048 -0.0000016339557591210803 -0.000035529151494309486 -237.41895078291776 -0.0000016356590362786915 0.9999999988495266 0.000047940294992532895 -233.13150534563925 0.00003552907312108933 0.000047940353075802494 -0.9999999982197041 -7.3548506250633725 0 0 0 1 -0.9999999993675048 -0.0000016339557591210803 -0.000035529151494309486 -237.41895078291776 -0.0000016356590362786915 0.9999999988495266 0.000047940294992532895 -233.13150534563925 0.00003552907312108933 0.000047940353075802494 -0.9999999982197041 -7.3548506250633725 0 0 0 1 -0.00006497993935398544 0.47609605501609975 0.8793932807201308 -142.93448219390152 0.000019333408579237113 -0.8793932818142407 0.4760960570370218 173.42021039154895 0.9999999977019134 0.00004793836251091911 0.000047938362566018563 -0.006711370751666424 0 0 0 1 0.00004609846769127282 -0.9992902085644959 0.03767063766460643 171.2799142706723 0.00004971020501120493 -0.037670635368150955 -0.9992902084779256 69.1570749074872 0.9999999977019134 0.00004793836251091911 0.000047938362566018563 -0.006710370751668949 0 0 0 1 0.00005095541360545738 -0.9978817226805179 -0.06505432302090859 147.02613604652703 0.00004471821809996589 0.06505432531412722 -0.9978817228300183 55.23939033760153 0.9999999977019135 0.00004793836251091912 0.00004793836256601857 -0.00671037075166895 0 0 0 1 0.000048222476669046967 -0.999982331199505 -0.0059443219459814406 116.86617214785487 -0.0000476525544921875 -0.005944324244027465 0.9999823312131657 -61.46379175371459 -0.9999999977019137 -0.00004793836251091985 -0.00004793836256589611 0.006710370751661424 0 0 0 1</float_array>
                    <technique_common>
                        <accessor source="#MatArr0" count="35" stride="16">
                            <param type="float4x4" />
                        </accessor>
                    </technique_common>
                </source>
                <source id="weights0">
                    <float_array id="WeightArr0" count="1">1</float_array>
                    <technique_common>
                        <accessor source="#WeightArr0" count="1">
                            <param type="float" />
                        </accessor>
                    </technique_common>
                </source>
                <joints>
                    <input semantic="JOINT" source="#joints0" />
                    <input semantic="INV_BIND_MATRIX" source="#matrices0" />
                </joints>
                <vertex_weights count="559">
                    <input semantic="JOINT" offset="0" source="#joints0" />
                    <input semantic="WEIGHT" offset="1" source="#weights0" />
                    <vcount>1 1 1 1 1 1 1 1 1 1 1 1 1 1 1 1 1 1 1 1 1 1 1 1 1 1 1 1 1 1 1 1 1 1 1 1 1 1 1 1 1 1 1 1 1 1 1 1 1 1 1 1 1 1 1 1 1 1 1 1 1 1 1 1 1 1 1 1 1 1 1 1 1 1 1 1 1 1 1 1 1 1 1 1 1 1 1 1 1 1 1 1 1 1 1 1 1 1 1 1 1 1 1 1 1 1 1 1 1 1 1 1 1 1 1 1 1 1 1 1 1 1 1 1 1 1 1 1 1 1 1 1 1 1 1 1 1 1 1 1 1 1 1 1 1 1 1 1 1 1 1 1 1 1 1 1 1 1 1 1 1 1 1 1 1 1 1 1 1 1 1 1 1 1 1 1 1 1 1 1 1 1 1 1 1 1 1 1 1 1 1 1 1 1 1 1 1 1 1 1 1 1 1 1 1 1 1 1 1 1 1 1 1 1 1 1 1 1 1 1 1 1 1 1 1 1 1 1 1 1 1 1 1 1 1 1 1 1 1 1 1 1 1 1 1 1 1 1 1 1 1 1 1 1 1 1 1 1 1 1 1 1 1 1 1 1 1 1 1 1 1 1 1 1 1 1 1 1 1 1 1 1 1 1 1 1 1 1 1 1 1 1 1 1 1 1 1 1 1 1 1 1 1 1 1 1 1 1 1 1 1 1 1 1 1 1 1 1 1 1 1 1 1 1 1 1 1 1 1 1 1 1 1 1 1 1 1 1 1 1 1 1 1 1 1 1 1 1 1 1 1 1 1 1 1 1 1 1 1 1 1 1 1 1 1 1 1 1 1 1 1 1 1 1 1 1 1 1 1 1 1 1 1 1 1 1 1 1 1 1 1 1 1 1 1 1 1 1 1 1 1 1 1 1 1 1 1 1 1 1 1 1 1 1 1 1 1 1 1 1 1 1 1 1 1 1 1 1 1 1 1 1 1 1 1 1 1 1 1 1 1 1 1 1 1 1 1 1 1 1 1 1 1 1 1 1 1 1 1 1 1 1 1 1 1 1 1 1 1 1 1 1 1 1 1 1 1 1 1 1 1 1 1 1 1 1 1 1 1 1 1 1 1 1 1 1 1 1 1 1 1 1 1 1 1 1 1 1 1 1 1 1 1 1 1 1 1 1 1 1 1 1 1 1 1 1 1 1 1 1 1 1 1 1 1 1 1 1 1 1 1 1 1 1 1 1 1 1 1 1 1 1 1 1 1 1 1 1 1</vcount>
                    <v>22 0 22 0 22 0 22 0 22 0 22 0 22 0 22 0 22 0 22 0 22 0 22 0 22 0 22 0 22 0 22 0 23 0 23 0 22 0 23 0 22 0 23 0 22 0 22 0 22 0 22 0 22 0 22 0 15 0 15 0 15 0 15 0 15 0 15 0 14 0 14 0 14 0 14 0 12 0 12 0 12 0 12 0 12 0 12 0 12 0 13 0 29 0 29 0 29 0 29 0 29 0 29 0 29 0 29 0 29 0 29 0 29 0 29 0 29 0 29 0 29 0 29 0 29 0 14 0 14 0 14 0 14 0 24 0 24 0 24 0 24 0 24 0 24 0 24 0 24 0 24 0 24 0 24 0 24 0 24 0 24 0 24 0 24 0 24 0 24 0 24 0 24 0 24 0 24 0 24 0 24 0 23 0 23 0 23 0 23 0 29 0 27 0 28 0 27 0 27 0 27 0 28 0 13 0 13 0 13 0 14 0 13 0 14 0 13 0 13 0 13 0 14 0 14 0 14 0 14 0 14 0 14 0 14 0 14 0 14 0 12 0 12 0 27 0 27 0 27 0 28 0 27 0 28 0 28 0 27 0 28 0 27 0 27 0 27 0 27 0 27 0 27 0 27 0 27 0 27 0 27 0 27 0 27 0 27 0 27 0 27 0 28 0 29 0 29 0 29 0 29 0 29 0 29 0 13 0 13 0 13 0 13 0 13 0 13 0 12 0 12 0 13 0 12 0 12 0 12 0 28 0 12 0 12 0 12 0 12 0 12 0 13 0 14 0 27 0 27 0 22 0 22 0 22 0 22 0 24 0 24 0 24 0 27 0 27 0 29 0 29 0 29 0 12 0 12 0 13 0 12 0 12 0 12 0 16 0 16 0 16 0 16 0 16 0 16 0 16 0 16 0 16 0 16 0 16 0 16 0 18 0 16 0 16 0 16 0 16 0 16 0 16 0 16 0 16 0 16 0 16 0 16 0 16 0 16 0 16 0 16 0 16 0 16 0 16 0 16 0 16 0 16 0 16 0 16 0 16 0 16 0 16 0 16 0 16 0 16 0 16 0 16 0 16 0 16 0 16 0 16 0 16 0 16 0 16 0 18 0 18 0 18 0 18 0 18 0 18 0 18 0 18 0 18 0 18 0 18 0 18 0 18 0 18 0 18 0 18 0 18 0 18 0 18 0 18 0 18 0 18 0 18 0 18 0 18 0 18 0 18 0 18 0 18 0 18 0 18 0 18 0 18 0 18 0 18 0 18 0 18 0 18 0 18 0 18 0 18 0 18 0 18 0 18 0 18 0 18 0 18 0 18 0 18 0 18 0 18 0 18 0 18 0 18 0 18 0 18 0 18 0 16 0 18 0 8 0 8 0 8 0 8 0 8 0 8 0 8 0 8 0 8 0 8 0 18 0 18 0 18 0 16 0 16 0 16 0 16 0 16 0 16 0 10 0 10 0 9 0 9 0 10 0 10 0 10 0 10 0 10 0 10 0 10 0 10 0 10 0 10 0 10 0 10 0 10 0 10 0 16 0 16 0 16 0 16 0 16 0 16 0 16 0 16 0 10 0 9 0 9 0 10 0 9 0 9 0 9 0 16 0 16 0 16 0 16 0 16 0 16 0 16 0 16 0 16 0 9 0 9 0 9 0 9 0 9 0 9 0 9 0 9 0 9 0 11 0 11 0 11 0 11 0 10 0 11 0 11 0 8 0 8 0 8 0 8 0 8 0 8 0 8 0 8 0 8 0 18 0 18 0 18 0 18 0 18 0 18 0 18 0 18 0 18 0 18 0 18 0 18 0 18 0 18 0 16 0 16 0 16 0 16 0 18 0 18 0 18 0 18 0 18 0 18 0 18 0 18 0 18 0 18 0 18 0 18 0 18 0 18 0 18 0 18 0 18 0 18 0 18 0 18 0 18 0 18 0 18 0 18 0 18 0 18 0 18 0 18 0 18 0 18 0 18 0 18 0 18 0 18 0 18 0 18 0 18 0 18 0 18 0 18 0 18 0 18 0 18 0 18 0 18 0 18 0 18 0 18 0 18 0 18 0 18 0 18 0 18 0 18 0 18 0 18 0 18 0 18 0 18 0 18 0 18 0 18 0 18 0 18 0 18 0 18 0 18 0 18 0 18 0 18 0 18 0 18 0 18 0 18 0 7 0 7 0 7 0 7 0 7 0 7 0 7 0 7 0 7 0 7 0 7 0 7 0 7 0 7 0 7 0 7 0 7 0 7 0 7 0 7 0 16 0 7 0 7 0 7 0 7 0 7 0 7 0 7 0 18 0 18 0 18 0 18 0 18 0 18 0 18 0 18 0 18 0 18 0 18 0 16 0 18 0 18 0 18 0 18 0 18 0 7 0 18 0 18 0 18 0 18 0 18 0 18 0 16 0 16 0 18 0 18 0 16 0 18 0 18 0 8 0 8 0 8 0 8 0 8 0 10 0 9 0 18 0 18 0 18 0 18 0 18 0 18 0 18 0 18 0 18 0 18 0 18 0 18 0</v>
                </vertex_weights>
            </skin>
        </controller>
    </library_controllers>
    <library_visual_scenes>
        <visual_scene id="VisualSceneNode">
            <node id="node0" name="m0" type="NODE">
                <instance_controller url="#controller0">
                    <skeleton>#jointnode-1</skeleton>
                    <bind_material>
                        <technique_common>
                            <instance_material symbol="Material1" target="#mat0">
                                <bind_vertex_input semantic="UVSET0" input_semantic="TEXCOORD" input_set="0"></bind_vertex_input>
                            </instance_material>
                        </technique_common>
                    </bind_material>
                </instance_controller>
            </node>
            <node id="jointnode-1" name="root" sid="jointnode-1" type="JOINT">
                <node id="jointnode0" name="world_root" sid="jointnode0" type="JOINT">
                    <node id="jointnode1" name="ColPos" sid="jointnode1" type="JOINT">
                        <translate>0 125.14652252197266 0</translate>
                    </node>
                    <node id="jointnode2" name="FaceVisiblity" sid="jointnode2" type="JOINT">
                        <translate>0 0 100</translate>
                    </node>
                    <node id="jointnode3" name="LHandVisiblity" sid="jointnode3" type="JOINT">
                        <translate>100 0 0</translate>
                    </node>
                    <node id="jointnode4" name="RHandVisiblity" sid="jointnode4" type="JOINT">
                        <translate>-100 0 0</translate>
                    </node>
                    <node id="jointnode5" name="RotCenter" sid="jointnode5" type="JOINT">
                        <translate>0 93 0</translate>
                    </node>
                    <node id="jointnode6" name="hip" sid="jointnode6" type="JOINT">
                        <translate>0 137.5 2.5</translate>
                        <rotate>0 0 1 -89.99725333414716</rotate>
                        <rotate>1 0 0 -89.99725333414716</rotate>
                        <node id="jointnode7" name="legL1" sid="jointnode7" type="JOINT">
                            <translate>12.499999046325684 2.4999990463256836 37</translate>
                            <rotate>0 0 1 -0.13733329264198738</rotate>
                            <rotate>1 0 0 180</rotate>
                            <node id="jointnode8" name="legL2" sid="jointnode8" type="JOINT">
                                <translate>57.5 1.101269006729126 0</translate>
                                <node id="jointnode9" name="footL" sid="jointnode9" type="JOINT">
                                    <translate>45 -1.3554229736328125 0</translate>
                                    <rotate>0 0 1 -0.13733329264198738</rotate>
                                    <node id="jointnode10" name="toeL" sid="jointnode10" type="JOINT">
                                        <translate>15 40 1.8749990463256836</translate>
                                        <rotate>0 0 1 89.99725333414716</rotate>
                                    </node>
                                </node>
                            </node>
                        </node>
                        <node id="jointnode11" name="legR1" sid="jointnode11" type="JOINT">
                            <translate>12.500000953674316 2.5000009536743164 -37</translate>
                            <rotate>0 0 1 -0.14282662434766685</rotate>
                            <rotate>1 0 0 180</rotate>
                            <node id="jointnode12" name="legR2" sid="jointnode12" type="JOINT">
                                <translate>57.50004577636719 1.0843390226364136 -9.999999974752427e-7</translate>
                                <rotate>0 0 1 -0.005493331705679495</rotate>
                                <node id="jointnode13" name="footR" sid="jointnode13" type="JOINT">
                                    <translate>45.00007247924805 -1.3430540561676025 -9.999999974752427e-7</translate>
                                    <rotate>0 0 1 -0.13733329264198738</rotate>
                                    <node id="jointnode14" name="toeR" sid="jointnode14" type="JOINT">
                                        <translate>15 40 -1.8749990463256836</translate>
                                        <rotate>0 0 1 89.99725333414716</rotate>
                                    </node>
                                </node>
                            </node>
                        </node>
                        <node id="jointnode15" name="spin" sid="jointnode15" type="JOINT">
                            <translate>-36.946807861328125 -5.270681858062744 -9.999999974752427e-7</translate>
                            <rotate>0 0 1 -164.9977111117893</rotate>
                            <node id="jointnode16" name="neck" sid="jointnode16" type="JOINT">
                                <translate>88.28052520751953 -10.517789840698242 9.999999974752427e-7</translate>
                                <rotate>0 0 1 50.00030518509476</rotate>
                                <node id="jointnode17" name="head" sid="jointnode17" type="JOINT">
                                    <translate>16.270000457763672 -0.9100000262260437 0</translate>
                                    <rotate>0 0 1 25.00015259254738</rotate>
                                    <node id="jointnode18" name="Face00" sid="jointnode18" type="JOINT">
                                    </node>
                                    <node id="jointnode19" name="hair1" sid="jointnode19" type="JOINT">
                                        <translate>14.51375961303711 -44.92366409301758 0.000003000000106112566</translate>
                                        <rotate>0 0 1 -44.99588000122074</rotate>
                                    </node>
                                </node>
                            </node>
                            <node id="jointnode20" name="shoulderL" sid="jointnode20" type="JOINT">
                                <translate>55.204620361328125 -17.607759475708008 42.0706672668457</translate>
                                <rotate>0 1 0 -89.99725333414716</rotate>
                                <rotate>1 0 0 -14.99679555650502</rotate>
                                <node id="jointnode21" name="armL1" sid="jointnode21" type="JOINT">
                                    <translate>49.25837707519531 -12.842338562011719 -0.8026459813117981</translate>
                                    <rotate>0 0 1 0.24719992675557725</rotate>
                                    <rotate>1 0 0 180</rotate>
                                    <node id="jointnode22" name="armL2" sid="jointnode22" type="JOINT">
                                        <translate>70.98450469970703 0.9535009860992432 -0.00011899999663000926</translate>
                                        <rotate>0 0 1 -0.054933317056794946</rotate>
                                        <node id="jointnode23" name="wristL" sid="jointnode23" type="JOINT">
                                            <translate>74.8952407836914 -0.9954410195350647 -0.000007000000096013537</translate>
                                            <rotate>0 0 1 0.3021332438123722</rotate>
                                            <rotate>1 0 0 89.99725333414716</rotate>
                                            <node id="jointnode24" name="LHand00" sid="jointnode24" type="JOINT">
                                            </node>
                                        </node>
                                    </node>
                                </node>
                            </node>
                            <node id="jointnode25" name="shoulderR" sid="jointnode25" type="JOINT">
                                <translate>55.20462417602539 -17.607759475708008 -41.63612747192383</translate>
                                <rotate>0 1 0 89.99725333414716</rotate>
                                <rotate>1 0 0 14.99679555650502</rotate>
                                <node id="jointnode26" name="armR1" sid="jointnode26" type="JOINT">
                                    <translate>49.89896774291992 -12.842338562011719 0.8026459813117981</translate>
                                    <rotate>1 0 0 180</rotate>
                                    <node id="jointnode27" name="armR2" sid="jointnode27" type="JOINT">
                                        <translate>70.98450469970703 0.8087810277938843 -0.0019000000320374966</translate>
                                        <node id="jointnode28" name="wristR" sid="jointnode28" type="JOINT">
                                            <translate>74.8952407836914 -1.2546720504760742 -0.0003389999910723418</translate>
                                            <rotate>1 0 0 -89.99725333414716</rotate>
                                            <node id="jointnode29" name="RHand00" sid="jointnode29" type="JOINT">
                                            </node>
                                        </node>
                                    </node>
                                </node>
                            </node>
                            <node id="jointnode30" name="tie1" sid="jointnode30" type="JOINT">
                                <translate>53.689998626708984 22.219539642333984 9.999999974752427e-7</translate>
                                <rotate>0 0 1 46.566972869045074</rotate>
                                <node id="jointnode31" name="tie2" sid="jointnode31" type="JOINT">
                                    <translate>-5.107291221618652 50.44388961791992 -9.999999974752427e-7</translate>
                                    <rotate>0 0 1 116.27185888241218</rotate>
                                    <node id="jointnode32" name="tie3" sid="jointnode32" type="JOINT">
                                        <translate>30.69717025756836 -0.8755390048027039 0</translate>
                                        <rotate>0 0 1 5.888851588488418</rotate>
                                        <node id="jointnode33" name="tie4" sid="jointnode33" type="JOINT">
                                            <translate>26.730558395385742 0.7924079895019531 0</translate>
                                            <rotate>0 0 1 -3.389385662404248</rotate>
                                            <rotate>1 0 0 180</rotate>
                                        </node>
                                    </node>
                                </node>
                            </node>
                        </node>
                    </node>
                </node>
            </node>
        </visual_scene>
    </library_visual_scenes>
    <scene>
        <instance_visual_scene url="#VisualSceneNode"></instance_visual_scene>
    </scene>
</COLLADA>
