<?xml version="1.0"?>
<COLLADA xmlns="http://www.collada.org/2005/11/COLLADASchema" version="1.4.1">
    <asset>
        <contributor>
            <authoring_tool>J3D Ripoff Exporter</authoring_tool>
        </contributor>
        <created>2024-08-19T02:40:46.852Z</created>
        <modified>2024-08-19T02:40:46.852Z</modified>
		<unit meter="0.01" name="centimeter" ></unit>
        <up_axis>Y_UP</up_axis>
    </asset>
    <library_images>
        <image id="tex0">
            <init_from>miyamoto_skin.png</init_from>
        </image>
        <image id="tex1">
            <init_from>miyamoto_eye.png</init_from>
        </image>
    </library_images>
    <library_effects>
        <effect id="effect0">
            <profile_COMMON>
                <newparam sid="surface0">
                    <surface type="2D">
                        <init_from>tex1</init_from>
                    </surface>
                </newparam>
                <newparam sid="sampler0">
                    <sampler2D>
                        <source>surface0</source>
                    </sampler2D>
                </newparam>
                <technique sid="COMMON">
                    <blinn>
                        <diffuse>
                            <texture texture="sampler0" texcoord="UVSET0"></texture>
                        </diffuse>
                    </blinn>
                </technique>
            </profile_COMMON>
        </effect>
        <effect id="effect1">
            <profile_COMMON>
                <newparam sid="surface1">
                    <surface type="2D">
                        <init_from>tex0</init_from>
                    </surface>
                </newparam>
                <newparam sid="sampler1">
                    <sampler2D>
                        <source>surface1</source>
                    </sampler2D>
                </newparam>
                <technique sid="COMMON">
                    <blinn>
                        <diffuse>
                            <texture texture="sampler1" texcoord="UVSET0"></texture>
                        </diffuse>
                    </blinn>
                </technique>
            </profile_COMMON>
        </effect>
        <effect id="effect2">
            <profile_COMMON>
                <newparam sid="surface2">
                    <surface type="2D">
                        <init_from>tex0</init_from>
                    </surface>
                </newparam>
                <newparam sid="sampler2">
                    <sampler2D>
                        <source>surface2</source>
                    </sampler2D>
                </newparam>
                <technique sid="COMMON">
                    <blinn>
                        <diffuse>
                            <texture texture="sampler2" texcoord="UVSET0"></texture>
                        </diffuse>
                    </blinn>
                </technique>
            </profile_COMMON>
        </effect>
    </library_effects>
    <library_materials>
        <material id="mat0" name="Eye">
            <instance_effect url="#effect0"></instance_effect>
        </material>
        <material id="mat1" name="Skin_etc">
            <instance_effect url="#effect1"></instance_effect>
        </material>
        <material id="mat2" name="Skin_spc">
            <instance_effect url="#effect2"></instance_effect>
        </material>
    </library_materials>
    <library_geometries>
        <geometry id="mesh0">
            <mesh>
                <source id="points0">
                    <float_array id="pointarray0" count="384">73.265625 5.71875 -25.28515625 74.75390625 1.91796875 -23.765625 69.234375 -0.87109375 -17.01171875 79.5390625 -3.125 -18.84765625 71.203125 -3.19921875 -12.84765625 83.69140625 -6.47265625 -12.6640625 74.30078125 -4.66015625 -6.27734375 85.5390625 -7.34375 -6.86328125 75.6484375 -5.1953125 0.60546875 86.2890625 -7.625 0.03125 74.57421875 -5.265625 7.00390625 85.19921875 -7.56640625 7.94921875 71.63671875 -4.578125 12.5859375 82.14453125 -6.96875 14.83203125 66.01171875 -2.3203125 18.69140625 75.9609375 -4.5546875 22.3984375 59.11328125 1.4921875 23.1171875 69.04296875 -1.46875 27.2265625 58.54296875 3.55859375 26.81640625 61.8828125 2.87109375 29.53125 62.90234375 0.8046875 29.65625 58.58203125 -24.15625 17.98046875 54.94140625 -21.69140625 22.125 59.1953125 -20.953125 17.7109375 57.88671875 -17.61328125 19.546875 60.1640625 -18.9140625 15.9609375 60.5234375 -15.79296875 13.15234375 61.07421875 -17.94140625 12.71875 61.71484375 -18.71484375 9.17578125 58.58203125 -24.15625 -17.98046875 59.1953125 -20.953125 -17.7109375 54.94140625 -21.69140625 -22.125 57.88671875 -17.61328125 -19.546875 57.65234375 -16.68359375 -22.42578125 60.5234375 -15.79296875 -13.15234375 60.8828125 -14.625 -18.1953125 62.25 -14.80859375 -11.453125 58.97265625 -27.22265625 16.6796875 58.3359375 -30.0078125 17.96484375 52.81640625 -27.71875 24.2109375 53.90625 -22.1796875 24.59765625 57.65234375 -16.68359375 22.42578125 61.7265625 -27.33984375 6.7265625 61.91015625 -23.859375 6.01953125 63.8515625 -24.68359375 0 61.98828125 -20.7265625 6.80859375 65.16796875 -19.25390625 5 63.90625 -16.73046875 8.390625 53.29296875 -40.1328125 21.4765625 52.53515625 -31.81640625 23.51171875 56.96484375 -30.4296875 22.40234375 61.55078125 -32.40234375 17.44921875 61.04296875 -31.19921875 12.5078125 63.01953125 -32.4375 0 62.0703125 -31.828125 -8.88671875 64.796875 -34.0234375 -8.73828125 61.1171875 -31.19921875 -12.5078125 61.55078125 -32.40234375 -17.44921875 58.3359375 -30.0078125 -17.96484375 52.81640625 -27.71875 -24.2109375 62.921875 -28.9375 0 62.0703125 -31.828125 8.88671875 61.25 -29.0546875 9.03515625 60.67578125 -29.60546875 11.6796875 53.90625 -22.1796875 -24.59765625 74.171875 8.24609375 -25.37890625 74.04296875 6.21875 -17.390625 76.90234375 5.59765625 -22.9921875 81.4921875 1.22265625 -17.9296875 89.79296875 12.40234375 1.41796875 89.1015625 18.90234375 1.37890625 90.34765625 19.03515625 0.05078125 87.55859375 26.0390625 0.03125 86.125 25.06640625 -1.3828125 83.94140625 29.48828125 -2.3515625 89.73828125 6.55859375 2.22265625 91.29296875 12.03125 0.0390625 88.76953125 18.7734375 -1.1796875 77.75 2.65234375 -11.12109375 85.54296875 -2.51953125 -11.703125 79.7890625 0.60546875 -5.4765625 87.0703125 -4.29296875 -7.12890625 80.67578125 -1.0625 0.3125 88.51171875 -6.16796875 0.03125 79.609375 -1.54296875 7.09375 87.45703125 -6.68359375 7.1953125 76.9140625 -1.1796875 13.25390625 85.0078125 -6.64453125 13.92578125 70.21875 1.86328125 20.65625 79.44140625 -5.01171875 21.171875 65.46484375 -20.52734375 0 65.16796875 -19.25390625 -5 61.98828125 -20.7265625 -6.80859375 61.71484375 -18.71484375 -9.17578125 62.18359375 4.05078125 24.33984375 62.48828125 2.24609375 26.95703125 70.171875 -1.98828125 26.2734375 85.01171875 34.82421875 0.03125 78.515625 34.453125 -5.1171875 86.95703125 48.29296875 0.03125 72.76953125 37.921875 -11.59765625 66.93359375 41.515625 0.03125 89.61328125 3.89453125 -6.1796875 91.25390625 2.5078125 0.046875 89.73828125 6.55859375 -2.1328125 89.57421875 12.4765625 -1.2578125 64.796875 -34.0234375 8.73828125 61.7265625 -27.33984375 -6.7265625 61.25 -29.0546875 -9.03515625 59.87109375 -28.89453125 14.47265625 62.25 -14.80859375 11.4609375 60.8828125 -14.625 17.8671875 60.41015625 -18.9140625 -15.9609375 61.07421875 -17.94140625 -12.71875 63.90625 -16.73046875 -8.390625 60.70703125 -29.60546875 -11.6796875 59.86328125 -28.89453125 -14.47265625 58.98046875 -27.22265625 -16.6796875 83.32421875 30.49609375 3.01171875 86.56640625 25.3984375 1.6171875 53.29296875 -40.1328125 -21.4765625 56.96484375 -30.4296875 -22.40234375 52.53515625 -31.81640625 -23.51171875 65.6015625 -34.58203125 0 79.12109375 34.46875 5.4921875 72.125 38.15234375 11.6640625 89.93359375 2.265625 6.4453125 61.91015625 -23.859375 -6.01953125</float_array>
                    <technique_common>
                        <accessor count="128" source="#pointarray0" stride="3">
                            <param name="X" type="float"/>
                            <param name="Y" type="float"/>
                            <param name="Z" type="float"/>
                        </accessor>
                    </technique_common>
                </source>
                <source id="uvs0">
                    <float_array id="uvarray0" count="200">0.68310546875 0.08673095703125 0.6876220703125 0.07269287109375 0.66009521484375 0.11785888671875 0.6790771484375 0.0584716796875 0.649169921875 0.10675048828125 0.6640625 0.03973388671875 0.63812255859375 0.0994873046875 0.6441650390625 0.0284423828125 0.62750244140625 0.091552734375 0.62799072265625 0.020751953125 0.63824462890625 0.0977783203125 0.64544677734375 0.0277099609375 0.6478271484375 0.10693359375 0.66912841796875 0.0467529296875 0.660888671875 0.1180419921875 0.68707275390625 0.07708740234375 0.6641845703125 0.1175537109375 0.6954345703125 0.088134765625 0.6640625 0.11614990234375 0.69000244140625 0.0838623046875 0.69451904296875 0.086181640625 0.78997802734375 0.83258056640625 0.775390625 0.793701171875 0.80963134765625 0.791748046875 0.80010986328125 0.7607421875 0.83349609375 0.77130126953125 0.86834716796875 0.74737548828125 0.86737060546875 0.76318359375 0.91522216796875 0.77313232421875 0.77545166015625 0.793701171875 0.7789306640625 0.75128173828125 0.81689453125 0.72515869140625 0.8629150390625 0.72125244140625 0.80975341796875 0.83502197265625 0.790283203125 0.837646484375 0.7633056640625 0.82708740234375 0.75604248046875 0.7965087890625 0.77899169921875 0.75128173828125 0.9154052734375 0.80908203125 0.92401123046875 0.81195068359375 0.935302734375 0.80560302734375 0.941162109375 0.795166015625 0.94189453125 0.792236328125 0.91546630859375 0.77142333984375 0.842041015625 0.8125 0.83526611328125 0.797119140625 0.84100341796875 0.79412841796875 0.8333740234375 0.78363037109375 0.853759765625 0.79010009765625 0.83831787109375 0.7886962890625 0.859130859375 0.78509521484375 0.8883056640625 0.78082275390625 0.8685302734375 0.78363037109375 0.87176513671875 0.7867431640625 0.85382080078125 0.79010009765625 0.83349609375 0.7835693359375 0.96142578125 0.80841064453125 0.90802001953125 0.8204345703125 0.89727783203125 0.81060791015625 0.870361328125 0.81512451171875 0.7904052734375 0.837646484375 0.76373291015625 0.8270263671875 0.7562255859375 0.79644775390625 0.6785888671875 0.1007080078125 0.65679931640625 0.11004638671875 0.69622802734375 0.0869140625 0.09490966796875 0.9814453125 0.092529296875 0.9827880859375 0.08477783203125 0.9962158203125 0.0771484375 0.9962158203125 0.09014892578125 0.984130859375 0.0771484375 0.9833984375 0.09967041015625 0.978759765625 0.0924072265625 0.9962158203125 0.64776611328125 0.1060791015625 0.63702392578125 0.09918212890625 0.62701416015625 0.091552734375 0.63885498046875 0.09881591796875 0.64892578125 0.10650634765625 0.659912109375 0.11590576171875 0.958984375 0.8046875 0.66546630859375 0.114501953125 0.664306640625 0.1175537109375 0.047119140625 0.9962158203125 0.062744140625 0.97393798828125 0.02862548828125 0.9962158203125 0.04229736328125 0.95245361328125 0.0111083984375 0.9962158203125 0.1083984375 0.96649169921875 0.10772705078125 0.9962158203125 0.86846923828125 0.78363037109375 0.871337890625 0.82623291015625 0.843505859375 0.8197021484375 0.81695556640625 0.72515869140625 0.95941162109375 0.8104248046875 0.87139892578125 0.826171875 0.84271240234375 0.81231689453125 0.8411865234375 0.79412841796875 0.83544921875 0.79705810546875 0.8883056640625 0.7843017578125</float_array>
                    <technique_common>
                        <accessor count="100" source="#uvarray0" stride="2">
                            <param name="S" type="float"/>
                            <param name="T" type="float"/>
                        </accessor>
                    </technique_common>
                </source>
                <vertices id="vertices0">
                    <input semantic="POSITION" source="#points0"/>
                </vertices>
                <polylist count="164" material="Material1">
                    <input offset="0" semantic="VERTEX" source="#vertices0"/>
                    <input offset="1" semantic="TEXCOORD" source="#uvs0" set="0"/>
                    <vcount>3 3 3 3 3 3 3 3 3 3 3 3 3 3 3 3 3 3 3 3 3 3 3 3 3 3 3 3 3 3 3 3 3 3 3 3 3 3 3 3 3 3 3 3 3 3 3 3 3 3 3 3 3 3 3 3 3 3 3 3 3 3 3 3 3 3 3 3 3 3 3 3 3 3 3 3 3 3 3 3 3 3 3 3 3 3 3 3 3 3 3 3 3 3 3 3 3 3 3 3 3 3 3 3 3 3 3 3 3 3 3 3 3 3 3 3 3 3 3 3 3 3 3 3 3 3 3 3 3 3 3 3 3 3 3 3 3 3 3 3 3 3 3 3 3 3 3 3 3 3 3 3 3 3 3 3 3 3 3 3 3 3 3 3</vcount>
                    <p>2 2 1 1 0 0 3 3 1 1 2 2 4 4 3 3 2 2 5 5 3 3 4 4 6 6 5 5 4 4 7 7 5 5 6 6 8 8 7 7 6 6 9 9 7 7 8 8 10 10 9 9 8 8 11 11 9 9 10 10 12 12 11 11 10 10 13 13 11 11 12 12 14 14 13 13 12 12 15 15 13 13 14 14 16 16 15 15 14 14 17 17 15 15 16 16 18 18 17 17 16 16 19 19 17 17 18 18 20 20 19 19 18 18 23 23 22 22 21 21 24 24 22 22 23 23 25 25 24 24 23 23 26 26 24 24 25 25 27 27 26 26 25 25 28 28 26 26 27 27 31 29 30 23 29 21 32 24 30 23 31 29 33 30 32 24 31 29 34 26 32 24 33 30 35 31 34 26 33 30 36 32 34 26 35 31 21 21 38 34 37 33 39 35 38 34 21 21 22 22 39 35 21 21 40 36 39 35 22 22 41 37 40 36 22 22 44 40 43 39 42 38 45 41 43 39 44 40 46 42 45 41 44 40 28 28 45 41 46 42 47 43 28 28 46 42 50 46 49 45 48 44 39 47 49 45 50 46 51 48 39 47 50 46 38 49 39 47 51 48 52 50 38 49 51 48 55 53 54 52 53 51 56 50 54 52 55 53 57 54 56 50 55 53 58 49 56 50 57 54 59 55 58 49 57 54 42 38 60 56 44 40 61 57 60 56 42 38 62 58 61 57 42 38 63 59 61 57 62 58 59 61 29 21 58 60 31 29 29 21 59 61 64 62 31 29 59 61 33 30 31 29 64 62 65 63 2 2 0 0 66 64 2 2 65 63 67 65 66 64 65 63 68 3 66 64 67 65 71 68 70 67 69 66 72 69 70 67 71 68 73 70 72 69 71 68 74 71 72 69 73 70 76 73 69 66 75 72 71 68 69 66 76 73 77 67 71 68 76 73 73 70 71 68 77 67 66 64 4 4 2 2 78 74 4 4 66 64 68 3 78 74 66 64 79 5 78 74 68 3 78 74 6 6 4 4 80 75 6 6 78 74 79 5 80 75 78 74 81 7 80 75 79 5 80 75 8 8 6 6 82 76 8 8 80 75 81 7 82 76 80 75 83 9 82 76 81 7 82 76 10 10 8 8 84 77 10 10 82 76 83 9 84 77 82 76 85 11 84 77 83 9 84 77 12 12 10 10 86 78 12 12 84 77 85 11 86 78 84 77 87 13 86 78 85 11 86 78 14 14 12 12 88 79 14 14 86 78 87 13 88 79 86 78 89 15 88 79 87 13 44 40 90 80 46 42 91 42 90 80 44 40 92 41 91 42 44 40 93 28 91 42 92 41 94 81 18 18 16 16 95 82 18 18 94 81 96 17 95 82 94 81 20 20 95 82 96 17 98 84 97 83 74 71 99 85 97 83 98 84 100 86 99 85 98 84 101 87 99 85 100 86 88 79 16 16 14 14 94 81 16 16 88 79 89 15 94 81 88 79 96 17 94 81 89 15 104 72 103 89 102 88 76 73 103 89 104 72 105 66 76 73 104 72 77 67 76 73 105 66 106 53 52 50 51 48 61 90 52 50 106 53 53 51 61 90 106 53 60 56 107 38 44 40 108 58 107 38 60 56 54 57 108 58 60 56 63 59 52 91 61 57 109 92 52 91 63 59 109 92 38 34 52 91 37 33 38 34 109 92 47 43 26 26 28 28 110 32 26 26 47 43 111 93 26 26 110 32 41 37 26 26 111 93 24 24 41 37 22 22 26 26 41 37 24 24 60 56 53 94 54 57 61 57 53 94 60 56 34 26 113 27 112 25 93 28 113 27 34 26 32 24 112 25 30 23 34 26 112 25 32 24 114 43 34 26 36 32 93 28 34 26 114 43 115 59 54 57 56 95 108 58 54 57 115 59 116 92 56 95 58 60 115 59 56 95 116 92 117 33 58 60 29 21 116 92 58 60 117 33 119 70 72 69 118 71 70 67 72 69 119 70 97 83 72 69 74 71 118 71 72 69 97 83 122 98 121 97 120 96 59 55 121 97 122 98 123 99 53 51 106 53 55 53 53 51 123 99 124 84 97 83 99 85 118 71 97 83 124 84 125 86 99 85 101 87 124 84 99 85 125 86 103 89 75 72 126 88 76 73 75 72 103 89 127 39 44 40 107 38 92 41 44 40 127 39 20 20 18 18 95 82 57 54 121 97 59 55 91 42 93 28 114 43</p>
                </polylist>
            </mesh>
        </geometry>
        <geometry id="mesh1">
            <mesh>
                <source id="points1">
                    <float_array id="pointarray1" count="765">77.9609375 7.59765625 -24.12890625 78.19921875 9.3671875 -24.55859375 74.171875 8.24609375 -25.37890625 69.578125 13.21875 -28.8671875 72.64453125 5.57421875 -26.3203125 67.00390625 5.86328125 -29.53515625 74.22265625 0.61328125 -24.81640625 69.5625 -2.109375 -26.2265625 78.55859375 -4.87890625 -19.84375 68.390625 -8.5703125 -20.7578125 82.94921875 -8.3671875 -12.859375 73.40234375 -12.703125 -12.15625 84.8046875 -9.21875 -6.44921875 77.453125 -14.21875 0.03125 85.38671875 -9.3203125 0.03125 84.4609375 -9.44140625 7.5390625 85.19921875 -7.56640625 7.94921875 82.14453125 -6.96875 14.83203125 62.90234375 0.8046875 29.65625 55.5 3.3515625 32.59375 55.47265625 6.08203125 33.37890625 44.234375 9.98828125 35.4609375 53.18359375 11.43359375 32.77734375 40.66015625 20.16796875 34.79296875 61.32421875 15.9609375 30.7890625 60.296875 26.68359375 28.6484375 71.4140625 20.46484375 26.70703125 69.8828125 26.69140625 24.6796875 79.44140625 19.91796875 21.640625 77.875 26.1015625 19.86328125 83.41015625 25.515625 12.88671875 77.0078125 33.4375 13.61328125 83.32421875 30.49609375 3.01171875 79.12109375 34.46875 5.4921875 89.61328125 3.89453125 -6.1796875 89.73828125 6.55859375 -2.1328125 87.84375 5.3046875 -11.41015625 87.01171875 13.58203125 -12.03125 83.73828125 7.87890625 -18.33203125 82.1484375 14.65234375 -19.3671875 74.75 15.91796875 -26.33984375 62.45703125 17.26953125 -31.453125 60.265625 9.5390625 -32.20703125 52.06640625 22.59765625 -33.16015625 53.19921875 13.7734375 -33.90625 40.66015625 20.16796875 -34.79296875 44.234375 9.98828125 -35.4609375 63.953125 2.00390625 29.94921875 64.2578125 4.66015625 30.83984375 73.73828125 -1.0234375 27.2578125 74.17578125 2.8046875 27.2890625 83.43359375 -3.80859375 22.0078125 84.73828125 0.0390625 21.63671875 89.1328125 -5.37109375 14.68359375 90.66796875 -1.63671875 14.69921875 92.19921875 -5.6328125 7.41796875 93.64453125 -2.19921875 7.2578125 92.83203125 -4.81640625 0.03125 94.390625 -1.6796875 0.03125 93.0078125 0.0625 -7.1875 76.90234375 5.59765625 -22.9921875 83.96875 3.265625 -19.453125 85.25 5.8125 -19.2421875 89.82421875 2.76171875 -13.375 91.25390625 2.5078125 0.046875 89.93359375 2.265625 6.4453125 86.0390625 18.9296875 12.73828125 80.63671875 13.1484375 21.8359375 72.43359375 14.23828125 26.82421875 73.1015625 6.25390625 25.95703125 62.35546875 8.0234375 30.0703125 86.56640625 25.3984375 1.6171875 89.1015625 18.90234375 1.37890625 89.79296875 12.40234375 1.41796875 87.203125 12.34375 12.5859375 89.73828125 6.55859375 2.22265625 87.6015625 2.64453125 12.2890625 40.046875 27.3046875 -30.75 60.296875 27.5859375 -29.1875 58.0703125 34.12890625 -23.21875 69.41796875 33.1484375 -21.140625 63.953125 39.26953125 -13.37890625 72.76953125 37.921875 -11.59765625 61.95703125 41.96484375 0.02734375 66.93359375 41.515625 0.03125 72.125 38.15234375 11.6640625 61.55078125 -32.40234375 17.44921875 64.796875 -34.0234375 8.73828125 60.64453125 -38.00390625 11.65234375 65.6015625 -34.58203125 0 63.1484375 -38.3828125 0 60.64453125 -38.00390625 -11.65234375 57.2578125 -42.28125 -11.1640625 53.29296875 -40.1328125 -21.4765625 48.8984375 -43.58984375 -20.02734375 43.78515625 -38.17578125 -26.203125 33.3203125 -45.9296875 -27.3984375 81.4921875 1.22265625 -17.9296875 85.54296875 -2.51953125 -11.703125 88.625 -0.328125 -13.35546875 87.0703125 -4.29296875 -7.12890625 91.58984375 -3.03515625 -7.3515625 88.51171875 -6.16796875 0.03125 65.46484375 -20.52734375 0 72.75390625 -17.78515625 0.03125 65.16796875 -19.25390625 -5 73.37109375 -14.41015625 -6.8515625 63.90625 -16.73046875 -8.390625 62.25 -14.80859375 -11.453125 59.09765625 -10.11328125 -20.46875 54.9375 -5.40234375 -27.10546875 73.765625 21.95703125 -25.8984375 72.390625 27.40234375 -24.7109375 78.87109375 26.29296875 -19.640625 79.91015625 31.75 -13.66796875 78.515625 34.453125 -5.1171875 77.828125 7.96484375 -21.0390625 70.6875 9.56640625 -23.79296875 75.3203125 -1.515625 -19.515625 69.7421875 2.921875 -22.38671875 74.26953125 -2.44921875 -19.04296875 69.78515625 1.56640625 -21.6328125 67.609375 -0.3203125 -17.88671875 61.765625 2.015625 -25.32421875 61.88671875 1.76953125 -19.74609375 82.19921875 6.5703125 -14.14453125 78.91015625 -4.03515625 -14.78515625 87.47265625 4.11328125 -7.328125 83.5 -5.4453125 -7.04296875 84.46484375 -5.9375 0.76171875 83.6171875 -7.25 0.71484375 83.76953125 -6.09765625 8.7265625 82.93359375 -7.31640625 8.37890625 79.28125 -5.90625 16.1640625 59.55859375 -2.27734375 21.45703125 59.6796875 -2.81640625 26.6484375 65.359375 -2.6953125 20.50390625 67.34765625 -2.80078125 23.9453125 71.484375 -4.43359375 20.6640625 67.3984375 -1.5703125 24.8984375 72.57421875 -3.5703125 21.18359375 68.98828125 2.07421875 27.5625 76.44921875 3.109375 24.00390625 80.93359375 20.91015625 -19.4921875 85.94140625 19.3828125 -12.33984375 83.03515625 25.18359375 -12.65234375 88.76953125 18.7734375 -1.1796875 86.125 25.06640625 -1.3828125 71.66796875 -3.45703125 18.359375 74.1875 -6.73046875 19.640625 76.98046875 -5.2421875 14.6171875 78.7734375 -7.078125 15.27734375 77.23046875 -6.984375 14.20703125 81.0546875 -7.25390625 7.58984375 51.3359375 -0.92578125 31.16796875 68.1484375 -2.58203125 27.75390625 54.9375 -5.40234375 27.28125 75.7109375 -6.21484375 22.93359375 68.390625 -9.05859375 20.82421875 73.6171875 -12.328125 12.2265625 62.25 -14.80859375 11.4609375 63.90625 -16.73046875 8.390625 87.765625 4.1171875 9.26953125 83.91796875 3.21484375 16.69140625 77.984375 -0.86328125 20.046875 80.33984375 2.75390625 21.05859375 81.73828125 -7.15234375 0.796875 80.8828125 -6.76953125 -5.87890625 82.69140625 -6.70703125 -6.81640625 77.2421875 -5.40625 -12.59765625 78.47265625 -5.3203125 -14.046875 77.10546875 -3.609375 -12.97265625 83.69140625 -6.47265625 -12.6640625 85.5390625 -7.34375 -6.86328125 86.2890625 -7.625 0.03125 56.83984375 41.92578125 0.02734375 63.953125 38.78515625 13.4375 56.90234375 38.41015625 12.9375 58.0703125 34.04296875 22.97265625 41.53125 33.4453125 22.34765625 40.046875 27.3046875 30.75 81.87890625 -8.828125 14.36328125 73.37109375 -14.41015625 6.91796875 65.16796875 -19.25390625 5 61.80078125 -0.94921875 -28.80078125 51.3359375 -0.92578125 -30.765625 55.5 6.64453125 -33.12109375 47.7890625 4.18359375 -33.796875 41.53125 33.4453125 -22.34765625 56.90234375 38.87890625 -12.87890625 46.11328125 38.0390625 -11.98828125 50.05859375 43.26171875 0 46.11328125 38.0390625 11.98828125 73.265625 5.71875 -25.28515625 74.75390625 1.91796875 -23.765625 79.5390625 -3.125 -18.84765625 61.8828125 2.87109375 29.53125 69.04296875 -1.46875 27.2265625 47.7890625 4.18359375 33.58984375 72.21484375 -1.47265625 -16.4765625 77.0234375 -3.41796875 -18.21875 79.328125 3.61328125 -18.01953125 80.8828125 7.2265625 -18.1875 33.3203125 -45.9296875 27.3984375 43.78515625 -38.17578125 26.203125 48.8984375 -43.58984375 20.02734375 53.29296875 -40.1328125 21.4765625 52.6796875 -43.16796875 17.1796875 55.52734375 -42.67578125 13.65625 53.2734375 -48.546875 11.25 52.53515625 -31.81640625 23.51171875 40.04296875 -35.76171875 29.41796875 52.81640625 -27.71875 24.2109375 53.90625 -22.1796875 24.59765625 60.8828125 -14.625 -18.1953125 54.53515625 -13.6171875 -28.71875 57.65234375 -16.68359375 -22.42578125 53.90625 -22.1796875 -24.59765625 56.96484375 -30.4296875 -22.40234375 61.55078125 -32.40234375 -17.44921875 64.796875 -34.0234375 -8.73828125 67.390625 33.828125 20.296875 59.5859375 -1.61328125 27.69921875 64.22265625 2.109375 29.19140625 60.8828125 -14.625 17.8671875 59.09765625 -10.11328125 20.46875 54.53515625 -13.6171875 28.71875 50.68359375 -7.734375 29.1875 73.07421875 -2.49609375 -17.33203125 82.11328125 4.109375 20.29296875 42.16796875 -23.3984375 32.37109375 57.65234375 -16.68359375 22.42578125 56.96484375 -30.4296875 22.40234375 57.2578125 -42.28125 11.1640625 61.5625 3.359375 -26.234375 62.99609375 10.35546875 -23.484375 75.9609375 -4.5546875 22.3984375 70.171875 -1.98828125 26.2734375 72.828125 -3.27734375 19.06640625 50.68359375 -7.734375 -29.1875 47.02734375 -13.39453125 -32.1640625 60.09765625 -41.296875 0 89.57421875 12.4765625 -1.2578125 83.94140625 29.48828125 -2.3515625 85.0078125 -6.64453125 13.92578125 79.44140625 -5.01171875 21.171875 87.45703125 -6.68359375 7.1953125 62.56640625 9.9296875 -27.2109375 42.16796875 -23.3984375 -32.390625 40.04296875 -35.76171875 -29.41796875 52.81640625 -27.71875 -24.2109375 89.91015625 4.18359375 0.875 47.02734375 -13.39453125 32.1640625 62.26953125 3.48828125 26.421875 52.53515625 -31.81640625 -23.51171875</float_array>
                    <technique_common>
                        <accessor count="255" source="#pointarray1" stride="3">
                            <param name="X" type="float"/>
                            <param name="Y" type="float"/>
                            <param name="Z" type="float"/>
                        </accessor>
                    </technique_common>
                </source>
                <source id="uvs1">
                    <float_array id="uvarray1" count="452">0.09625244140625 0.73724365234375 0.1064453125 0.7301025390625 0.07666015625 0.73175048828125 0.0789794921875 0.7257080078125 0.091552734375 0.76141357421875 0.0833740234375 0.77362060546875 0.1064453125 0.7911376953125 0.0999755859375 0.8204345703125 0.14031982421875 0.827392578125 0.14892578125 0.88616943359375 0.18310546875 0.8538818359375 0.1907958984375 0.89678955078125 0.21929931640625 0.868408203125 0.25787353515625 0.90753173828125 0.25762939453125 0.87799072265625 0.2926025390625 0.8782958984375 0.2978515625 0.8653564453125 0.3314208984375 0.86224365234375 0.41802978515625 0.82830810546875 0.44354248046875 0.83599853515625 0.44769287109375 0.788330078125 0.49420166015625 0.80615234375 0.45098876953125 0.762939453125 0.4981689453125 0.74761962890625 0.40771484375 0.7286376953125 0.4017333984375 0.71649169921875 0.3687744140625 0.727783203125 0.3656005859375 0.7198486328125 0.35931396484375 0.72845458984375 0.33837890625 0.7222900390625 0.3111572265625 0.72479248046875 0.315185546875 0.70989990234375 0.26812744140625 0.70556640625 0.28094482421875 0.6925048828125 0.23004150390625 0.76007080078125 0.24053955078125 0.75396728515625 0.20550537109375 0.757080078125 0.203369140625 0.74169921875 0.17059326171875 0.750732421875 0.15673828125 0.73443603515625 0.12567138671875 0.714599609375 0.081298828125 0.71966552734375 0.070068359375 0.75604248046875 0.038330078125 0.7296142578125 0.0421142578125 0.75457763671875 0.0123291015625 0.75201416015625 0.01458740234375 0.80615234375 0.41802978515625 0.8038330078125 0.419189453125 0.78338623046875 0.4146728515625 0.77264404296875 0.38836669921875 0.794921875 0.38177490234375 0.78179931640625 0.3555908203125 0.805419921875 0.34539794921875 0.790771484375 0.32513427734375 0.81024169921875 0.31719970703125 0.79266357421875 0.29156494140625 0.81005859375 0.287841796875 0.79083251953125 0.257568359375 0.80657958984375 0.2578125 0.78729248046875 0.2259521484375 0.7799072265625 0.10479736328125 0.74224853515625 0.15838623046875 0.7723388671875 0.16253662109375 0.7603759765625 0.195068359375 0.7713623046875 0.25714111328125 0.76434326171875 0.28509521484375 0.7685546875 0.31109619140625 0.732666015625 0.35302734375 0.75262451171875 0.3719482421875 0.75128173828125 0.3782958984375 0.76617431640625 0.41375732421875 0.75537109375 0.26446533203125 0.72857666015625 0.26544189453125 0.73223876953125 0.27081298828125 0.75146484375 0.31109619140625 0.75604248046875 0.273681640625 0.7587890625 0.31103515625 0.7708740234375 0.02587890625 0.714111328125 0.0859375 0.7076416015625 0.12579345703125 0.68896484375 0.1571044921875 0.70037841796875 0.18426513671875 0.6688232421875 0.1971435546875 0.68621826171875 0.25653076171875 0.64447021484375 0.257080078125 0.67633056640625 0.31695556640625 0.6788330078125 0.8502197265625 0.8509521484375 0.92431640625 0.837158203125 0.88665771484375 0.8885498046875 0.992431640625 0.82696533203125 0.992431640625 0.87237548828125 0.88720703125 0.888427734375 0.87640380859375 0.9671630859375 0.80316162109375 0.93896484375 0.79156494140625 0.9793701171875 0.72869873046875 0.918212890625 0.7147216796875 0.99688720703125 0.15545654296875 0.77972412109375 0.18548583984375 0.794189453125 0.18798828125 0.78558349609375 0.22015380859375 0.80621337890625 0.22210693359375 0.7977294921875 0.257080078125 0.816162109375 0.25701904296875 0.99188232421875 0.25750732421875 0.949951171875 0.2265625 0.98370361328125 0.22119140625 0.93017578125 0.20147705078125 0.9654541015625 0.15716552734375 0.952880859375 0.11444091796875 0.9312744140625 0.07513427734375 0.90478515625 0.13427734375 0.71539306640625 0.142822265625 0.70892333984375 0.17205810546875 0.7130126953125 0.1971435546875 0.70758056640625 0.233154296875 0.69677734375 0.531005859375 0.78802490234375 0.531005859375 0.83172607421875 0.570556640625 0.78375244140625 0.57171630859375 0.828857421875 0.575927734375 0.78387451171875 0.576904296875 0.8289794921875 0.59814453125 0.8267822265625 0.577880859375 0.8736572265625 0.6005859375 0.87286376953125 0.53131103515625 0.740478515625 0.56939697265625 0.7392578125 0.53173828125 0.69830322265625 0.568115234375 0.6983642578125 0.56719970703125 0.65374755859375 0.57183837890625 0.65399169921875 0.5728759765625 0.69854736328125 0.1497802734375 0.71392822265625 0.2022705078125 0.7216796875 0.20123291015625 0.7171630859375 0.248779296875 0.73358154296875 0.249755859375 0.73028564453125 0.5836181640625 0.7568359375 0.57427978515625 0.73931884765625 0.58514404296875 0.73907470703125 0.58355712890625 0.69793701171875 0.45208740234375 0.864501953125 0.40093994140625 0.85772705078125 0.426025390625 0.887939453125 0.35565185546875 0.86859130859375 0.3673095703125 0.88421630859375 0.32330322265625 0.89959716796875 0.35833740234375 0.95111083984375 0.31158447265625 0.9654541015625 0.5577392578125 0.75946044921875 0.53118896484375 0.76495361328125 0.58099365234375 0.6544189453125 0.18267822265625 0.8363037109375 0.21624755859375 0.85382080078125 0.257080078125 0.8658447265625 0.25665283203125 0.60614013671875 0.3272705078125 0.66595458984375 0.33734130859375 0.64031982421875 0.38018798828125 0.686279296875 0.44140625 0.64947509765625 0.48681640625 0.71044921875 0.32373046875 0.875 0.29351806640625 0.9310302734375 0.28814697265625 0.98370361328125 0.09088134765625 0.8468017578125 0.046142578125 0.8739013671875 0.0631103515625 0.82708740234375 0.02740478515625 0.84051513671875 0.05157470703125 0.6636962890625 0.172607421875 0.641845703125 0.14019775390625 0.5966796875 0.257080078125 0.57562255859375 0.36492919921875 0.59539794921875 0.09796142578125 0.75726318359375 0.1192626953125 0.78277587890625 0.14593505859375 0.8092041015625 0.41143798828125 0.832763671875 0.394775390625 0.8421630859375 0.4671630859375 0.832763671875 0.81634521484375 0.97406005859375 0.84918212890625 0.96905517578125 0.842041015625 0.99786376953125 0.776611328125 0.8798828125 0.687255859375 0.9073486328125 0.7633056640625 0.82708740234375 0.75604248046875 0.7965087890625 0.8629150390625 0.72125244140625 0.76837158203125 0.68914794921875 0.81689453125 0.72515869140625 0.714111328125 0.7249755859375 0.7789306640625 0.75128173828125 0.7562255859375 0.79644775390625 0.79840087890625 0.867431640625 0.85040283203125 0.85089111328125 0.92437744140625 0.83709716796875 0.3507080078125 0.7010498046875 0.57098388671875 0.7838134765625 0.572509765625 0.8740234375 0.5308837890625 0.8775634765625 0.81695556640625 0.72515869140625 0.714111328125 0.72491455078125 0.72271728515625 0.65985107421875 0.6759033203125 0.681884765625 0.5965576171875 0.78094482421875 0.34051513671875 0.76885986328125 0.66131591796875 0.81475830078125 0.77899169921875 0.75128173828125 0.797607421875 0.86761474609375 0.876953125 0.9671630859375 0.5770263671875 0.8907470703125 0.53070068359375 0.893310546875 0.35687255859375 0.85626220703125 0.41802978515625 0.802490234375 0.38958740234375 0.80474853515625 0.65447998046875 0.73406982421875 0.992431640625 0.9571533203125 0.243408203125 0.74749755859375 0.2459716796875 0.7109375 0.32861328125 0.81964111328125 0.358642578125 0.81549072265625 0.2939453125 0.81976318359375 0.76373291015625 0.8270263671875 0.53240966796875 0.65203857421875 0.39666748046875 0.93212890625 0.77752685546875 0.87969970703125</float_array>
                    <technique_common>
                        <accessor count="226" source="#uvarray1" stride="2">
                            <param name="S" type="float"/>
                            <param name="T" type="float"/>
                        </accessor>
                    </technique_common>
                </source>
                <vertices id="vertices1">
                    <input semantic="POSITION" source="#points1"/>
                </vertices>
                <polylist count="383" material="Material1">
                    <input offset="0" semantic="VERTEX" source="#vertices1"/>
                    <input offset="1" semantic="TEXCOORD" source="#uvs1" set="0"/>
                    <vcount>3 3 3 3 3 3 3 3 3 3 3 3 3 3 3 3 3 3 3 3 3 3 3 3 3 3 3 3 3 3 3 3 3 3 3 3 3 3 3 3 3 3 3 3 3 3 3 3 3 3 3 3 3 3 3 3 3 3 3 3 3 3 3 3 3 3 3 3 3 3 3 3 3 3 3 3 3 3 3 3 3 3 3 3 3 3 3 3 3 3 3 3 3 3 3 3 3 3 3 3 3 3 3 3 3 3 3 3 3 3 3 3 3 3 3 3 3 3 3 3 3 3 3 3 3 3 3 3 3 3 3 3 3 3 3 3 3 3 3 3 3 3 3 3 3 3 3 3 3 3 3 3 3 3 3 3 3 3 3 3 3 3 3 3 3 3 3 3 3 3 3 3 3 3 3 3 3 3 3 3 3 3 3 3 3 3 3 3 3 3 3 3 3 3 3 3 3 3 3 3 3 3 3 3 3 3 3 3 3 3 3 3 3 3 3 3 3 3 3 3 3 3 3 3 3 3 3 3 3 3 3 3 3 3 3 3 3 3 3 3 3 3 3 3 3 3 3 3 3 3 3 3 3 3 3 3 3 3 3 3 3 3 3 3 3 3 3 3 3 3 3 3 3 3 3 3 3 3 3 3 3 3 3 3 3 3 3 3 3 3 3 3 3 3 3 3 3 3 3 3 3 3 3 3 3 3 3 3 3 3 3 3 3 3 3 3 3 3 3 3 3 3 3 3 3 3 3 3 3 3 3 3 3 3 3 3 3 3 3 3 3 3 3 3 3 3 3 3 3 3 3 3 3 3 3 3 3 3 3 3 3 3 3 3 3 3 3 3 3 3 3 3 3 3 3 3 3 3 3 3 3 3 3</vcount>
                    <p>2 2 1 1 0 0 3 3 1 1 2 2 4 4 3 3 2 2 5 5 3 3 4 4 6 6 5 5 4 4 7 7 5 5 6 6 8 8 7 7 6 6 9 9 7 7 8 8 10 10 9 9 8 8 11 11 9 9 10 10 12 12 11 11 10 10 13 13 11 11 12 12 14 14 13 13 12 12 15 15 13 13 14 14 16 16 15 15 14 14 17 17 15 15 16 16 20 20 19 19 18 18 21 21 19 19 20 20 22 22 21 21 20 20 23 23 21 21 22 22 24 24 23 23 22 22 25 25 23 23 24 24 26 26 25 25 24 24 27 27 25 25 26 26 28 28 27 27 26 26 29 29 27 27 28 28 30 30 29 29 28 28 31 31 29 29 30 30 32 32 31 31 30 30 33 33 31 31 32 32 36 36 35 35 34 34 37 37 35 35 36 36 38 38 37 37 36 36 39 39 37 37 38 38 1 1 39 39 38 38 40 40 39 39 1 1 3 3 40 40 1 1 41 41 40 40 3 3 42 42 41 41 3 3 43 43 41 41 42 42 44 44 43 43 42 42 45 45 43 43 44 44 46 46 45 45 44 44 47 48 20 20 18 47 48 49 20 20 47 48 49 50 48 49 47 48 50 51 48 49 49 50 51 52 50 51 49 50 52 53 50 51 51 52 53 54 52 53 51 52 54 55 52 53 53 54 55 56 54 55 53 54 56 57 54 55 55 56 57 58 56 57 55 56 58 59 56 57 57 58 59 60 58 59 57 58 0 0 60 61 2 0 61 62 60 61 0 0 1 1 61 62 0 0 62 63 61 62 1 1 38 38 62 63 1 1 63 64 62 63 38 38 36 36 63 64 38 38 59 60 63 64 36 36 34 34 59 60 36 36 58 59 59 60 34 34 64 65 58 59 34 34 65 66 58 59 64 65 28 28 66 67 30 30 67 68 66 67 28 28 26 26 67 68 28 28 68 69 67 68 26 26 24 24 68 69 26 26 69 70 68 69 24 24 70 71 69 70 24 24 48 49 69 70 70 71 22 22 48 49 70 71 20 20 48 49 22 22 30 30 71 72 32 32 72 73 71 72 30 30 66 67 72 73 30 30 73 74 72 73 66 67 74 75 73 74 66 67 75 76 73 74 74 75 76 77 75 76 74 75 65 66 75 76 76 77 56 57 65 66 76 77 58 59 65 66 56 57 77 78 43 43 45 45 78 79 43 43 77 78 79 80 78 79 77 78 80 81 78 79 79 80 81 82 80 81 79 80 82 83 80 81 81 82 83 84 82 83 81 82 84 85 82 83 83 84 85 86 84 85 83 84 88 89 87 88 86 87 89 90 87 88 88 89 90 91 89 90 88 89 91 92 89 90 90 91 92 93 91 92 90 91 93 94 91 92 92 93 94 95 93 94 92 93 95 96 93 94 94 95 96 97 95 96 94 95 61 62 97 98 60 61 98 99 97 98 61 62 99 100 98 99 61 62 100 101 98 99 99 100 101 102 100 101 99 100 102 103 100 101 101 102 57 58 102 103 101 102 55 56 102 103 57 58 105 106 104 105 103 104 106 107 104 105 105 106 107 108 106 107 105 106 11 11 106 107 107 108 108 109 11 11 107 108 9 9 11 11 108 109 109 110 9 9 108 109 110 111 9 9 109 110 78 79 41 41 43 43 111 112 41 41 78 79 112 113 111 112 78 79 113 114 111 112 112 113 80 81 113 114 112 113 114 115 113 114 80 81 82 83 114 115 80 81 115 116 114 115 82 83 118 119 117 118 116 117 119 120 117 118 118 119 120 121 119 120 118 119 121 122 119 120 120 121 122 123 121 122 120 121 123 124 121 122 122 123 124 125 123 124 122 123 127 128 126 127 125 126 128 129 126 127 127 128 129 130 128 129 127 128 130 131 128 129 129 130 131 129 130 131 129 130 132 132 130 131 131 129 133 127 132 132 131 129 136 123 135 124 134 125 137 122 135 124 136 123 138 121 137 122 136 123 139 120 137 122 138 121 140 119 139 120 138 121 141 118 139 120 140 119 142 117 141 118 140 119 111 112 40 40 41 41 143 133 40 40 111 112 113 114 143 133 111 112 144 134 143 133 113 114 145 135 144 134 113 114 146 136 144 134 145 135 147 137 146 136 145 135 150 127 149 138 148 119 133 127 149 138 150 127 151 139 133 127 150 127 132 132 133 127 151 139 152 140 132 132 151 139 153 141 132 132 152 140 150 127 153 141 152 140 156 144 155 143 154 142 157 145 155 143 156 144 158 146 157 145 156 144 159 147 157 145 158 146 160 148 159 147 158 146 161 149 159 147 160 148 162 128 131 129 129 130 133 127 131 129 162 128 163 126 133 127 162 128 164 150 133 127 163 126 165 151 164 150 163 126 142 117 164 150 165 151 167 141 130 131 166 152 168 132 130 131 167 141 169 140 168 132 167 141 170 139 168 132 169 140 171 127 170 139 169 140 126 127 170 139 171 127 172 153 10 10 8 8 12 12 10 10 172 153 173 154 12 12 172 153 14 14 12 12 173 154 174 155 14 14 173 154 16 16 14 14 174 155 175 156 83 84 81 82 176 157 83 84 175 156 177 158 176 157 175 156 178 159 176 157 177 158 179 160 178 159 177 158 180 161 178 159 179 160 159 147 15 15 181 162 13 13 15 15 159 147 182 163 13 13 159 147 104 105 13 13 182 163 183 164 104 105 182 163 103 104 104 105 183 164 110 111 7 7 9 9 184 165 7 7 110 111 185 166 184 165 110 111 186 167 184 165 185 166 187 168 186 167 185 166 46 46 186 167 187 168 188 169 79 80 77 78 189 170 79 80 188 169 190 171 189 170 188 169 175 156 189 170 190 171 191 172 175 156 190 171 192 173 175 156 191 172 193 174 4 4 2 2 6 6 4 4 193 174 194 175 6 6 193 174 8 8 6 6 194 175 195 176 8 8 194 175 172 153 8 8 195 176 101 102 59 60 57 58 63 64 59 60 101 102 99 100 63 64 101 102 62 63 63 64 99 100 61 62 62 63 99 100 18 18 197 178 196 177 155 143 197 178 18 18 19 19 155 143 18 18 154 142 155 143 19 19 198 179 154 142 19 19 200 138 171 127 199 119 126 127 171 127 200 138 201 150 126 127 200 138 125 126 126 127 201 150 202 151 125 126 201 150 205 95 204 96 203 97 206 94 204 96 205 95 207 180 206 94 205 95 208 181 206 94 207 180 209 182 208 181 207 180 210 183 204 96 206 94 211 184 204 96 210 183 212 185 211 184 210 183 213 186 211 184 212 185 214 189 109 188 108 187 215 190 109 188 214 189 216 191 215 190 214 189 217 192 215 190 216 191 219 194 93 94 218 193 91 92 93 94 219 194 220 195 91 92 219 194 89 90 91 92 220 195 85 86 31 31 33 33 221 196 31 31 85 86 176 157 221 196 85 86 178 159 221 196 176 157 201 150 116 117 202 151 118 119 116 117 201 150 200 138 118 119 201 150 199 197 118 119 200 138 139 120 135 124 137 122 222 198 135 124 139 120 141 118 222 198 139 120 223 199 222 198 141 118 225 188 224 200 160 187 226 201 224 200 225 188 156 202 226 201 225 188 227 203 226 201 156 202 199 197 120 121 118 119 228 204 120 121 199 197 122 123 228 204 199 197 120 121 228 204 122 123 67 68 74 75 66 67 229 205 74 75 67 68 68 69 229 205 67 68 69 70 229 205 68 69 213 186 230 206 211 184 226 201 230 206 213 186 231 207 226 201 213 186 224 200 226 201 231 207 206 94 86 87 232 208 88 89 86 87 206 94 208 181 88 89 206 94 233 209 88 89 208 181 123 124 119 120 121 122 234 198 119 120 123 124 124 210 234 198 123 124 235 211 234 198 124 210 181 162 157 145 159 147 17 17 157 145 181 162 15 15 17 17 181 162 157 145 197 178 155 143 236 212 197 178 157 145 17 17 236 212 157 145 221 196 29 29 31 31 27 27 29 29 221 196 25 25 27 27 221 196 164 150 149 138 133 127 140 119 149 138 164 150 142 117 140 119 164 150 229 205 76 77 74 75 54 55 76 77 229 205 52 53 54 55 229 205 237 214 47 48 18 213 49 50 47 48 237 214 51 52 49 50 237 214 168 132 128 129 130 131 126 127 128 129 168 132 170 139 126 127 168 132 238 204 136 123 148 197 138 121 136 123 238 204 148 197 138 121 238 204 215 190 110 202 109 188 239 203 110 202 215 190 240 215 239 203 215 190 90 91 241 216 92 93 233 209 241 216 90 91 88 89 233 209 90 91 37 37 242 217 35 35 144 134 242 217 37 37 143 133 144 134 37 37 114 115 145 135 113 114 243 218 145 135 114 115 115 116 243 218 114 115 50 51 69 70 48 49 52 53 69 70 50 51 51 52 245 220 244 219 237 214 245 220 51 52 53 54 244 219 246 221 51 52 244 219 53 54 247 199 234 198 235 211 117 118 234 198 247 199 217 192 249 184 248 206 250 222 249 184 217 192 55 56 246 221 102 103 53 54 246 221 55 56 42 42 184 165 186 167 7 7 184 165 42 42 39 39 143 133 37 37 40 40 143 133 39 39 140 119 148 197 149 138 138 121 148 197 140 119 44 44 186 167 46 46 42 42 186 167 44 44 189 170 81 82 79 80 175 156 81 82 189 170 251 223 129 130 127 128 162 128 129 130 251 223 5 5 42 42 3 3 7 7 42 42 5 5 215 190 248 206 240 215 217 192 248 206 215 190 177 158 192 173 179 160 175 156 192 173 177 158 226 201 252 215 230 206 227 203 252 215 226 201 225 224 158 146 156 144 160 148 158 146 225 224 253 211 222 198 223 199 134 210 222 198 253 211 178 159 25 25 221 196 180 161 25 25 178 159 182 163 161 149 183 164 159 147 161 149 182 163 95 96 254 225 93 94 249 184 254 225 95 96 153 141 130 131 132 132 166 152 130 131 153 141 106 107 13 13 104 105 11 11 13 13 106 107 117 118 119 120 234 198 85 86 83 84 176 157 76 77 54 55 56 57 69 70 52 53 229 205 70 71 24 24 22 22 19 19 21 21 198 179 25 25 180 161 23 23 169 140 167 141 171 127 150 127 152 140 151 139 222 198 134 210 135 124 144 134 146 136 242 217 145 135 243 218 147 137 78 79 80 81 112 113 250 222 254 225 249 184</p>
                </polylist>
            </mesh>
        </geometry>
        <geometry id="mesh2">
            <mesh>
                <source id="points2">
                    <float_array id="pointarray2" count="84">60.67578125 -29.60546875 11.6796875 60.515625 -23.84375 15.328125 61.25 -29.0546875 9.03515625 63.03515625 -23.9375 11.43359375 61.7265625 -27.33984375 6.7265625 61.91015625 -23.859375 6.01953125 60.70703125 -29.60546875 -11.6796875 61.25 -29.0546875 -9.03515625 61.515625 -23.84375 -15.328125 63.03515625 -23.9375 -11.43359375 60.41015625 -18.9140625 -15.9609375 61.07421875 -17.94140625 -12.71875 58.97265625 -27.22265625 16.6796875 58.58203125 -24.15625 17.98046875 59.1953125 -20.953125 17.7109375 60.1640625 -18.9140625 15.9609375 61.07421875 -17.94140625 12.71875 61.71484375 -18.71484375 9.17578125 58.58203125 -24.15625 -17.98046875 58.98046875 -27.22265625 -16.6796875 59.86328125 -28.89453125 -14.47265625 59.87109375 -28.89453125 14.47265625 61.98828125 -20.7265625 6.80859375 59.1953125 -20.953125 -17.7109375 61.71484375 -18.71484375 -9.17578125 61.98828125 -20.7265625 -6.80859375 61.91015625 -23.859375 -6.01953125 61.7265625 -27.33984375 -6.7265625</float_array>
                    <technique_common>
                        <accessor count="28" source="#pointarray2" stride="3">
                            <param name="X" type="float"/>
                            <param name="Y" type="float"/>
                            <param name="Z" type="float"/>
                        </accessor>
                    </technique_common>
                </source>
                <source id="uvs2">
                    <float_array id="uvarray2" count="28">0.510498046875 0.8663330078125 0.6917724609375 0.499267578125 0.33349609375 0.8350830078125 0.446533203125 0.49072265625 0.20849609375 0.695556640625 0.16473388671875 0.497802734375 0.65362548828125 0.1820068359375 0.48333740234375 0.1639404296875 0.788330078125 0.7681884765625 0.8607177734375 0.5205078125 0.8193359375 0.305908203125 0.31103515625 0.21478271484375 0.68255615234375 0.8297119140625 0.2086181640625 0.3360595703125</float_array>
                    <technique_common>
                        <accessor count="14" source="#uvarray2" stride="2">
                            <param name="S" type="float"/>
                            <param name="T" type="float"/>
                        </accessor>
                    </technique_common>
                </source>
                <vertices id="vertices2">
                    <input semantic="POSITION" source="#points2"/>
                </vertices>
                <polylist count="28" material="Material1">
                    <input offset="0" semantic="VERTEX" source="#vertices2"/>
                    <input offset="1" semantic="TEXCOORD" source="#uvs2" set="0"/>
                    <vcount>3 3 3 3 3 3 3 3 3 3 3 3 3 3 3 3 3 3 3 3 3 3 3 3 3 3 3 3</vcount>
                    <p>2 2 1 1 0 0 3 3 1 1 2 2 4 4 3 3 2 2 5 5 3 3 4 4 8 1 7 2 6 0 9 3 7 2 8 1 10 6 9 3 8 1 11 7 9 3 10 6 1 1 13 9 12 8 14 10 13 9 1 1 15 6 14 10 1 1 3 3 15 6 1 1 16 7 15 6 3 3 17 11 16 7 3 3 8 1 19 8 18 9 20 12 19 8 8 1 6 0 20 12 8 1 21 12 1 1 12 8 0 0 1 1 21 12 3 3 22 13 17 11 5 5 22 13 3 3 23 10 8 1 18 9 10 6 8 1 23 10 24 11 9 3 11 7 25 13 9 3 24 11 26 5 9 3 25 13 27 4 9 3 26 5 7 2 9 3 27 4</p>
                </polylist>
            </mesh>
        </geometry>
    </library_geometries>
    <library_visual_scenes>
        <visual_scene id="VisualSceneNode">
            <node id="node0" name="m0" type="NODE">
                <instance_geometry url="#mesh0">
                    <bind_material>
                        <technique_common>
                            <instance_material symbol="Material1" target="#mat1">
                                <bind_vertex_input semantic="UVSET0" input_semantic="TEXCOORD" input_set="0"></bind_vertex_input>
                            </instance_material>
                        </technique_common>
                    </bind_material>
                </instance_geometry>
            </node>
            <node id="node1" name="m1" type="NODE">
                <instance_geometry url="#mesh1">
                    <bind_material>
                        <technique_common>
                            <instance_material symbol="Material1" target="#mat2">
                                <bind_vertex_input semantic="UVSET0" input_semantic="TEXCOORD" input_set="0"></bind_vertex_input>
                            </instance_material>
                        </technique_common>
                    </bind_material>
                </instance_geometry>
            </node>
            <node id="node2" name="m2" type="NODE">
                <instance_geometry url="#mesh2">
                    <bind_material>
                        <technique_common>
                            <instance_material symbol="Material1" target="#mat0">
                                <bind_vertex_input semantic="UVSET0" input_semantic="TEXCOORD" input_set="0"></bind_vertex_input>
                            </instance_material>
                        </technique_common>
                    </bind_material>
                </instance_geometry>
            </node>
        </visual_scene>
    </library_visual_scenes>
    <scene>
        <instance_visual_scene url="#VisualSceneNode"></instance_visual_scene>
    </scene>
</COLLADA>
