<?xml version="1.0"?>
<COLLADA xmlns="http://www.collada.org/2005/11/COLLADASchema" version="1.4.1">
    <asset>
        <contributor>
            <authoring_tool>J3D Ripoff Exporter</authoring_tool>
        </contributor>
        <created>2024-08-19T02:40:54.897Z</created>
        <modified>2024-08-19T02:40:54.897Z</modified>
		<unit meter="0.01" name="centimeter" ></unit>
        <up_axis>Y_UP</up_axis>
    </asset>
    <library_images>
        <image id="tex0">
            <init_from>miyamoto_skin.png</init_from>
        </image>
    </library_images>
    <library_effects>
        <effect id="effect0">
            <profile_COMMON>
                <newparam sid="surface0">
                    <surface type="2D">
                        <init_from>tex0</init_from>
                    </surface>
                </newparam>
                <newparam sid="sampler0">
                    <sampler2D>
                        <source>surface0</source>
                    </sampler2D>
                </newparam>
                <technique sid="COMMON">
                    <blinn>
                        <diffuse>
                            <texture texture="sampler0" texcoord="UVSET0"></texture>
                        </diffuse>
                    </blinn>
                </technique>
            </profile_COMMON>
        </effect>
        <effect id="effect1">
            <profile_COMMON>
                <newparam sid="surface1">
                    <surface type="2D">
                        <init_from>tex0</init_from>
                    </surface>
                </newparam>
                <newparam sid="sampler1">
                    <sampler2D>
                        <source>surface1</source>
                    </sampler2D>
                </newparam>
                <technique sid="COMMON">
                    <blinn>
                        <diffuse>
                            <texture texture="sampler1" texcoord="UVSET0"></texture>
                        </diffuse>
                    </blinn>
                </technique>
            </profile_COMMON>
        </effect>
    </library_effects>
    <library_materials>
        <material id="mat0" name="Skin_etc">
            <instance_effect url="#effect0"></instance_effect>
        </material>
        <material id="mat1" name="Skin_spc">
            <instance_effect url="#effect1"></instance_effect>
        </material>
    </library_materials>
    <library_geometries>
        <geometry id="mesh0">
            <mesh>
                <source id="points0">
                    <float_array id="pointarray0" count="531">69.4375 32.8984375 10.30078125 60.375 28.87890625 10.859375 70.30859375 35.21875 0.484375 58.96875 27.1171875 0.484375 59.33984375 27.421875 -9.88671875 55.39453125 19.71484375 0.484375 57.28125 17.84765625 -10.8359375 55.05859375 14.70703125 -9.08203125 55.38671875 12.13671875 -13.44921875 53.35546875 11.21875 0.484375 56.015625 8.203125 -5.73046875 54.3203125 10.21875 0.484375 56.9140625 9.62109375 0.484375 56.015625 8.203125 6.703125 58.55078125 7.7890625 5.72265625 56.40625 11.21875 14.98828125 58.77734375 10.3046875 12.76953125 59.8203125 16.046875 17.734375 61.83203125 14.625 14.98828125 63.42578125 26.1875 16.84375 65.43359375 24.765625 13.80078125 73.4140625 31.9921875 10.73046875 72.875 28.03515625 9.046875 74.30859375 30.77734375 0.484375 65.4296875 22.41796875 5.2109375 64.35546875 23.3359375 0.484375 62.859375 11.48828125 5.90234375 60.6953125 13.796875 0.484375 62.859375 11.48828125 -4.9296875 58.55078125 7.7890625 -4.75 58.77734375 10.3046875 -11.796875 56.40625 11.21875 -14.015625 59.8203125 16.046875 -16.76171875 58.7109375 16.8359375 -16.05859375 55.05859375 14.70703125 10.0546875 55.38671875 12.13671875 14.421875 57.28125 17.84765625 11.80859375 58.7109375 16.8359375 17.03125 61.80078125 27.8671875 16.203125 74.96875 34.390625 0.484375 73.65625 32.171875 -9.7578125 72.875 28.03515625 -8.07421875 65.43359375 24.765625 -12.828125 65.4296875 22.41796875 -4.23828125 61.83203125 14.625 -14.015625 67.34765625 31.96875 -22.75390625 61.21484375 31.546875 -21.30078125 73.34765625 35.24609375 -18.35546875 63.70703125 34.74609375 -17.3671875 77.83984375 36.97265625 -12.3671875 68.12890625 36.31640625 -11.76953125 80.38671875 38.046875 -6.3828125 70.37109375 37.20703125 -6.296875 81.16796875 38.37890625 0 70.76953125 37.5546875 0 70.37109375 37.20703125 6.296875 50.8359375 23.1796875 6.2734375 45.0625 18.4921875 11.6171875 58.49609375 2.984375 12.92578125 48.22265625 4.35546875 19.87890625 71.28515625 -0.3125 19.70703125 65.52734375 1.84765625 24.44140625 79.72265625 -0.7109375 20.9765625 74.56640625 1.08984375 25.23828125 83.375 -1.9453125 15.19140625 76.47265625 -1.18359375 12.5859375 86.55859375 -2.6171875 7.94921875 79.16015625 -1.578125 7.00390625 87.671875 -2.91015625 0 80.2734375 -2.1015625 0 79.16015625 -1.578125 -7.00390625 61.7265625 2.07421875 0 61.109375 2.0703125 -7.05078125 51.34375 23.359375 0 50.8359375 23.1796875 -6.2734375 63.42578125 26.1875 -15.87109375 61.80078125 27.8671875 -15.2265625 69.4375 32.8984375 -9.328125 86.55859375 -2.6171875 -7.94921875 76.47265625 -1.18359375 -12.5859375 83.375 -1.9453125 -15.19140625 71.28515625 -0.3125 -19.70703125 79.72265625 -0.7109375 -20.9765625 65.52734375 1.84765625 -24.44140625 74.56640625 1.08984375 -25.23828125 61.00390625 8.38671875 -27.140625 69.53125 3.95703125 -28.44140625 58.49609375 2.984375 -12.92578125 48.22265625 4.35546875 -19.87890625 46.953125 7.66796875 -24.375 58.20703125 24.515625 -23.84375 45.0625 18.4921875 -11.6171875 41.8125 19.0859375 -19.56640625 41.77734375 19.23046875 -24.19140625 77.296875 47.44921875 1.97265625 75.3984375 49.5546875 1.43359375 76.21484375 49.94140625 0 72.8125 51.48828125 2.14453125 73.97265625 54.89453125 0 68.69921875 52.5078125 4.875 72.63671875 63.5859375 0 63.17578125 50.61328125 10.3515625 58.671875 52.734375 0 65.01953125 -18.9140625 0 63.34765625 -18.87890625 6.0625 64.72265625 -18.33984375 5 63.484375 -19.0625 9.9375 60.59375 -17.73046875 12.6484375 61.5703125 -20.30859375 15.03515625 58.55859375 -18.50390625 18.58203125 59.52734375 -20.890625 19.09765625 56.140625 -21.80859375 22.59765625 58.10546875 -17.265625 21.3203125 54.46484375 -22.515625 25.109375 58.84375 -24.140625 23.5625 53.36328125 -29.3125 21.7578125 56.859375 -29.69921875 20.59765625 53 -34.72265625 20.28125 54.7734375 -35.0546875 19.47265625 80.38671875 38.046875 6.3828125 68.12890625 36.31640625 11.76953125 77.83984375 36.97265625 12.3671875 63.70703125 34.74609375 17.3671875 73.34765625 35.24609375 18.35546875 61.21484375 31.546875 21.30078125 41.8125 19.0859375 19.90625 41.77734375 19.23046875 24.19140625 58.20703125 24.515625 23.84375 75.3984375 49.5546875 -1.43359375 72.8125 51.48828125 -2.14453125 68.69921875 52.5078125 -4.875 63.17578125 50.61328125 -10.3515625 64.76953125 28.53125 -24.66796875 63.921875 25.03515625 -25.2734375 63.89453125 17.0078125 -27.3203125 66.19140625 9.09765625 -29.06640625 54.46484375 -22.515625 -25.109375 56.140625 -21.80859375 -22.59765625 58.10546875 -17.265625 -21.3203125 58.55859375 -18.50390625 -18.58203125 60.59375 -17.73046875 -12.6484375 61.5703125 -20.30859375 -15.03515625 63.484375 -19.0625 -9.9375 61.109375 2.0703125 7.05078125 63.34765625 -18.87890625 -6.0625 67.2109375 -20.4296875 -8.94140625 64.40625 -22.546875 -17.2265625 59.52734375 -20.890625 -19.09765625 46.953125 7.66796875 24.375 61.00390625 8.38671875 27.140625 63.89453125 17.0078125 27.3203125 67.2109375 -20.4296875 8.94140625 67.81640625 -19.9296875 3.30859375 67.375 -19.4609375 0 67.81640625 -19.9296875 -3.30859375 77.4140625 45.78125 4.859375 78.8359375 46.078125 0 77.296875 47.44921875 -1.97265625 64.40625 -22.546875 17.2265625 60.83203125 -16 15.41015625 64.72265625 -18.33984375 -5 62.6015625 -17.09765625 -8.8515625 60.83203125 -16 -15.41015625 64.76953125 28.53125 24.66796875 67.34765625 31.96875 22.75390625 63.921875 25.03515625 25.2734375 58.84375 -24.140625 -23.5625 56.859375 -29.69921875 -20.59765625 53.36328125 -29.3125 -21.7578125 54.7734375 -35.0546875 -19.47265625 53 -34.72265625 -20.28125 62.6015625 -17.09765625 8.8515625 66.19140625 9.09765625 29.06640625 69.53125 3.95703125 28.44140625 52.57421875 -40.1328125 -19.75 77.4140625 45.78125 -4.859375 52.57421875 -40.1328125 19.75</float_array>
                    <technique_common>
                        <accessor count="177" source="#pointarray0" stride="3">
                            <param name="X" type="float"/>
                            <param name="Y" type="float"/>
                            <param name="Z" type="float"/>
                        </accessor>
                    </technique_common>
                </source>
                <source id="uvs0">
                    <float_array id="uvarray0" count="236">0.47442626953125 0.9503173828125 0.4705810546875 0.97259521484375 0.43011474609375 0.9398193359375 0.43011474609375 0.97259521484375 0.47076416015625 0.97259521484375 0.43011474609375 0.99334716796875 0.4744873046875 0.99334716796875 0.4676513671875 0.9954833984375 0.48468017578125 0.99658203125 0.43011474609375 0.99761962890625 0.45458984375 0.997802734375 0.43011474609375 0.997802734375 0.43011474609375 0.9971923828125 0.45440673828125 0.997802734375 0.4459228515625 0.9971923828125 0.4866943359375 0.99664306640625 0.47802734375 0.996337890625 0.4974365234375 0.99334716796875 0.4866943359375 0.99334716796875 0.49395751953125 0.97259521484375 0.4820556640625 0.97259521484375 0.47637939453125 0.9482421875 0.46875 0.956298828125 0.43011474609375 0.947265625 0.44854736328125 0.97259521484375 0.44647216796875 0.9945068359375 0.43011474609375 0.99517822265625 0.4466552734375 0.9945068359375 0.44610595703125 0.9971923828125 0.47821044921875 0.996337890625 0.48687744140625 0.99664306640625 0.49761962890625 0.99334716796875 0.494873046875 0.99334716796875 0.46746826171875 0.9954833984375 0.4844970703125 0.99658203125 0.47430419921875 0.99334716796875 0.49468994140625 0.99334716796875 0.491455078125 0.97259521484375 0.43011474609375 0.937255859375 0.4765625 0.9482421875 0.46893310546875 0.956298828125 0.48223876953125 0.97259521484375 0.44879150390625 0.97259521484375 0.48687744140625 0.99334716796875 0.6954345703125 0.088134765625 0.66546630859375 0.114501953125 0.68707275390625 0.07708740234375 0.659912109375 0.11590576171875 0.66912841796875 0.0467529296875 0.64892578125 0.10650634765625 0.64544677734375 0.0277099609375 0.63885498046875 0.09881591796875 0.62799072265625 0.020751953125 0.62701416015625 0.091552734375 0.63873291015625 0.09857177734375 0.64862060546875 0.10662841796875 0.64837646484375 0.10675048828125 0.660400390625 0.11700439453125 0.660888671875 0.1180419921875 0.6641845703125 0.1175537109375 0.6478271484375 0.10693359375 0.63824462890625 0.0977783203125 0.62750244140625 0.091552734375 0.62725830078125 0.091552734375 0.6385498046875 0.0982666015625 0.62713623046875 0.091552734375 0.494140625 0.97259521484375 0.49163818359375 0.97259521484375 0.474609375 0.9503173828125 0.6640625 0.11614990234375 0.69000244140625 0.0838623046875 0.664794921875 0.11602783203125 0.6641845703125 0.1168212890625 0.66015625 0.116455078125 0.66510009765625 0.11529541015625 0.09967041015625 0.978759765625 0.09014892578125 0.984130859375 0.0771484375 0.9962158203125 0.0771484375 0.9833984375 0.047119140625 0.9962158203125 0.062744140625 0.97393798828125 0.02862548828125 0.9962158203125 0.04229736328125 0.95245361328125 0.0111083984375 0.9962158203125 0.992431640625 0.80035400390625 0.94134521484375 0.7841796875 0.92718505859375 0.7532958984375 0.8985595703125 0.764404296875 0.86834716796875 0.74188232421875 0.84710693359375 0.76031494140625 0.80010986328125 0.7607421875 0.808837890625 0.78125 0.77972412109375 0.83551025390625 0.77899169921875 0.75128173828125 0.75994873046875 0.82177734375 0.797607421875 0.8681640625 0.7738037109375 0.8798828125 0.7996826171875 0.9053955078125 0.78778076171875 0.9114990234375 0.80072021484375 0.92425537109375 0.6949462890625 0.087158203125 0.69451904296875 0.08612060546875 0.69451904296875 0.086181640625 0.69451904296875 0.08624267578125 0.92919921875 0.80743408203125 0.89727783203125 0.81060791015625 0.92431640625 0.83892822265625 0.843505859375 0.8197021484375 0.8502197265625 0.85211181640625 0.808837890625 0.82659912109375 0.9583740234375 0.83404541015625 0.992431640625 0.8291015625 0.1083984375 0.96649169921875 0.10772705078125 0.9962158203125 0.81695556640625 0.72515869140625 0.8629150390625 0.72125244140625 0.664306640625 0.1175537109375 0.8017578125 0.94317626953125</float_array>
                    <technique_common>
                        <accessor count="118" source="#uvarray0" stride="2">
                            <param name="S" type="float"/>
                            <param name="T" type="float"/>
                        </accessor>
                    </technique_common>
                </source>
                <vertices id="vertices0">
                    <input semantic="POSITION" source="#points0"/>
                </vertices>
                <polylist count="272" material="Material1">
                    <input offset="0" semantic="VERTEX" source="#vertices0"/>
                    <input offset="1" semantic="TEXCOORD" source="#uvs0" set="0"/>
                    <vcount>3 3 3 3 3 3 3 3 3 3 3 3 3 3 3 3 3 3 3 3 3 3 3 3 3 3 3 3 3 3 3 3 3 3 3 3 3 3 3 3 3 3 3 3 3 3 3 3 3 3 3 3 3 3 3 3 3 3 3 3 3 3 3 3 3 3 3 3 3 3 3 3 3 3 3 3 3 3 3 3 3 3 3 3 3 3 3 3 3 3 3 3 3 3 3 3 3 3 3 3 3 3 3 3 3 3 3 3 3 3 3 3 3 3 3 3 3 3 3 3 3 3 3 3 3 3 3 3 3 3 3 3 3 3 3 3 3 3 3 3 3 3 3 3 3 3 3 3 3 3 3 3 3 3 3 3 3 3 3 3 3 3 3 3 3 3 3 3 3 3 3 3 3 3 3 3 3 3 3 3 3 3 3 3 3 3 3 3 3 3 3 3 3 3 3 3 3 3 3 3 3 3 3 3 3 3 3 3 3 3 3 3 3 3 3 3 3 3 3 3 3 3 3 3 3 3 3 3 3 3 3 3 3 3 3 3 3 3 3 3 3 3 3 3 3 3 3 3 3 3 3 3 3 3 3 3 3 3 3 3 3 3 3 3 3 3 3 3 3 3 3 3</vcount>
                    <p>2 2 1 1 0 0 3 3 1 1 2 2 4 4 3 3 2 2 5 5 3 3 4 4 6 6 5 5 4 4 7 7 5 5 6 6 8 8 7 7 6 6 9 9 7 7 8 8 10 10 9 9 8 8 11 11 9 9 10 10 12 12 11 11 10 10 13 13 11 11 12 12 14 14 13 13 12 12 15 15 13 13 14 14 16 16 15 15 14 14 17 17 15 15 16 16 18 18 17 17 16 16 19 19 17 17 18 18 20 20 19 19 18 18 21 21 19 19 20 20 22 22 21 21 20 20 23 23 21 21 22 22 24 24 23 23 22 22 25 3 23 23 24 24 26 25 25 3 24 24 27 26 25 3 26 25 12 12 27 26 26 25 28 27 27 26 12 12 29 28 28 27 12 12 30 29 28 27 29 28 31 30 30 29 29 28 32 31 30 29 31 30 8 8 32 31 31 30 33 32 32 31 8 8 6 6 33 32 8 8 4 4 33 32 6 6 9 9 5 5 7 7 34 33 5 5 9 9 35 34 34 33 9 9 36 35 34 33 35 34 37 36 36 35 35 34 1 1 36 35 37 36 38 37 1 1 37 36 0 0 1 1 38 37 21 21 0 0 38 37 39 38 0 0 21 21 23 23 39 38 21 21 40 39 39 38 23 23 41 40 40 39 23 23 42 41 40 39 41 40 43 42 42 41 41 40 44 43 42 41 43 42 28 27 44 43 43 42 30 29 44 43 28 27 47 46 46 45 45 44 48 47 46 45 47 46 49 48 48 47 47 46 50 49 48 47 49 48 51 50 50 49 49 48 52 51 50 49 51 50 53 52 52 51 51 50 54 53 52 51 53 52 55 51 54 53 53 52 56 54 54 53 55 51 57 55 56 54 55 51 58 56 56 54 57 55 59 57 58 56 57 55 60 58 58 56 59 57 61 59 60 58 59 57 62 46 60 58 61 59 63 44 62 46 61 59 64 48 60 58 62 46 65 60 60 58 64 48 66 50 65 60 64 48 67 61 65 60 66 50 68 52 67 61 66 50 69 62 67 61 68 52 70 61 69 62 68 52 71 63 69 62 70 61 72 64 71 63 70 61 73 65 71 63 72 64 74 54 73 65 72 64 54 53 73 65 74 54 52 51 54 53 74 54 32 31 44 43 30 29 75 66 44 43 32 31 33 32 75 66 32 31 76 67 75 66 33 32 4 4 76 67 33 32 77 68 76 67 4 4 2 2 77 68 4 4 39 38 77 68 2 2 0 0 39 38 2 2 78 50 70 61 68 52 79 60 70 61 78 50 80 48 79 60 78 50 81 58 79 60 80 48 82 46 81 58 80 48 83 59 81 58 82 46 84 44 83 59 82 46 85 69 83 59 84 44 86 70 85 69 84 44 79 60 72 64 70 61 87 56 72 64 79 60 81 58 87 56 79 60 88 57 87 56 81 58 83 59 88 57 81 58 89 71 88 57 83 59 85 69 89 71 83 59 90 72 89 71 85 69 87 56 74 54 72 64 91 55 74 54 87 56 88 57 91 55 87 56 92 73 91 55 88 57 89 71 92 73 88 57 93 74 92 73 89 71 90 72 93 74 89 71 46 45 93 74 90 72 96 77 95 76 94 75 97 78 95 76 96 77 98 79 97 78 96 77 99 80 97 78 98 79 100 81 99 80 98 79 101 82 99 80 100 81 102 83 101 82 100 81 105 86 104 85 103 84 106 87 104 85 105 86 107 88 106 87 105 86 108 89 106 87 107 88 109 90 108 89 107 88 110 91 108 89 109 90 111 92 110 91 109 90 113 94 111 92 112 93 114 95 111 92 113 94 115 96 114 95 113 94 116 97 114 95 115 96 117 98 116 97 115 96 118 99 116 97 117 98 119 50 55 51 53 52 120 49 55 51 119 50 121 48 120 49 119 50 122 47 120 49 121 48 123 46 122 47 121 48 124 45 122 47 123 46 91 55 52 51 74 54 50 49 52 51 91 55 92 73 50 49 91 55 48 47 50 49 92 73 93 74 48 47 92 73 46 45 48 47 93 74 120 49 57 55 55 51 125 73 57 55 120 49 122 47 125 73 120 49 126 74 125 73 122 47 124 45 126 74 122 47 127 72 126 74 124 45 129 78 96 77 128 76 98 79 96 77 129 78 130 80 98 79 129 78 100 81 98 79 130 80 131 82 100 81 130 80 102 83 100 81 131 82 90 72 133 101 132 100 134 102 133 101 90 72 85 69 134 102 90 72 135 103 134 102 85 69 86 70 135 103 85 69 138 93 137 92 136 94 139 90 137 92 138 93 140 88 139 90 138 93 141 89 139 90 140 88 142 87 141 89 140 88 71 63 67 61 69 62 143 64 67 61 71 63 73 65 143 64 71 63 56 54 143 64 73 65 54 53 56 54 73 65 145 106 142 105 144 104 141 107 142 105 145 106 146 108 141 107 145 106 147 109 141 107 146 108 137 92 147 109 146 108 125 73 59 57 57 55 148 71 59 57 125 73 126 74 148 71 125 73 127 72 148 71 126 74 148 71 61 59 59 57 149 69 61 59 148 71 127 72 149 69 148 71 150 102 149 69 127 72 13 13 9 9 11 11 35 34 9 9 13 13 15 15 35 34 13 13 17 17 35 34 15 15 152 110 104 104 151 106 103 84 104 104 152 110 153 111 103 84 152 110 154 110 103 84 153 111 156 113 94 75 155 112 96 77 94 75 156 113 157 75 96 77 156 113 128 76 96 77 157 75 158 108 111 92 114 95 110 109 111 92 158 108 108 107 110 109 158 108 151 106 108 107 158 108 106 105 108 107 151 106 104 104 106 105 151 106 40 39 77 68 39 38 76 67 77 68 40 39 75 66 76 67 40 39 143 64 65 60 67 61 58 56 65 60 143 64 56 54 58 56 143 64 112 93 107 88 159 114 109 90 107 88 112 93 111 92 109 90 112 93 140 88 160 86 142 87 161 115 160 86 140 88 162 114 161 115 140 88 124 45 163 100 127 116 164 44 163 100 124 45 123 46 164 44 124 45 165 101 127 72 163 100 150 102 127 72 165 101 31 30 10 10 8 8 29 28 10 10 31 30 23 23 43 42 41 40 25 3 43 42 23 23 36 35 5 5 34 33 1 1 5 5 36 35 20 20 24 24 22 22 18 18 24 24 20 20 18 18 26 25 24 24 16 16 26 25 18 18 14 14 26 25 16 16 12 12 26 25 14 14 28 27 25 3 27 26 43 42 25 3 28 27 38 37 19 19 21 21 37 36 19 19 38 37 37 36 17 17 19 19 35 34 17 17 37 36 42 41 75 66 40 39 44 43 75 66 42 41 154 110 144 104 103 84 145 106 144 104 154 110 166 95 137 92 146 108 136 94 137 92 166 95 139 90 147 91 137 92 141 89 147 91 139 90 168 96 166 95 167 97 136 94 166 95 168 96 170 98 167 97 169 99 168 96 167 97 170 98 144 85 160 86 103 84 142 87 160 86 144 85 132 100 46 45 90 116 45 44 46 45 132 100 171 115 107 88 105 86 159 114 107 88 171 115 172 103 149 69 150 102 173 70 149 69 172 103 149 69 63 44 61 59 173 70 63 44 149 69 3 3 5 5 1 1 169 99 174 117 170 98 175 112 157 75 156 113 118 99 117 98 176 117 138 93 162 114 140 88 60 58 65 60 58 56 10 10 29 28 12 12</p>
                </polylist>
            </mesh>
        </geometry>
        <geometry id="mesh1">
            <mesh>
                <source id="points1">
                    <float_array id="pointarray1" count="1077">75.3984375 49.5546875 -1.43359375 71.9765625 47.16796875 -11.77734375 77.296875 47.44921875 -1.97265625 74.9765625 45.01953125 -10.9140625 77.4140625 45.78125 -4.859375 82.2578125 44.04296875 -6.4375 83.28515625 44.484375 0 84.0078125 40.6953125 0 82.2578125 44.04296875 6.4375 83.21875 40.23828125 6.58203125 79.609375 43.19921875 13.05078125 80.5859375 39.05859375 13.0390625 74.88671875 41.0625 19.0859375 75.95703125 37.19921875 19.0078125 67.3671875 36.9921875 24.80859375 68.8046875 33.75390625 24.37890625 63.64453125 32.16015625 27.52734375 64.9609375 29.9765625 26.734375 60.859375 28.6328125 28.53125 63.3984375 26.23046875 27.62109375 79.72265625 -0.7109375 -20.9765625 80.859375 -3.5546875 -21.484375 83.375 -1.9453125 -15.19140625 85.06640625 -4.62109375 -14.72265625 88.2421875 -5.3125 -7.5390625 82.8125 -8.8984375 -13.87109375 86.09375 -9.87109375 0 80.2421875 -13.05859375 -6.93359375 82.10546875 -13.54296875 0 76.16796875 -15.96484375 0 80.2421875 -13.05859375 6.93359375 72.2890625 -15.71484375 6.91796875 76.12109375 -11.93359375 13.72265625 71.203125 -14.19921875 12.2265625 67.546875 -11.58203125 20.82421875 62.6015625 -17.09765625 8.8515625 59.09765625 -11.49609375 20.46875 83.21875 40.23828125 -6.58203125 79.609375 43.19921875 -13.05078125 80.5859375 39.05859375 -13.0390625 74.88671875 41.0625 -19.0859375 75.95703125 37.19921875 -19.0078125 67.3671875 36.9921875 -24.80859375 68.8046875 33.75390625 -24.37890625 63.64453125 32.16015625 -27.52734375 64.9609375 29.9765625 -26.734375 60.859375 28.6328125 -28.53125 63.3984375 26.23046875 -27.62109375 62.69140625 17.25 -29.45703125 63.921875 25.03515625 -25.2734375 63.89453125 17.0078125 -27.3203125 71.18359375 42.8671875 -16.65234375 65.08984375 40.9296875 -20.58984375 65.44140625 38.2734375 -22.92578125 56.9453125 38.91796875 -23.8984375 60.1015625 33.46875 -26.671875 50.09765625 29.6953125 -29.234375 52.9140625 23.6796875 -30.75390625 57.79296875 18.9921875 -30.11328125 60.57421875 6.58203125 -32.59375 64.83984375 8.38671875 -30.96875 66.19140625 9.09765625 -29.06640625 83.94921875 -6.453125 9.4375 80.53125 -4.53515625 16.0703125 82.8359375 5.81640625 15.203125 81.40234375 4.2265625 18.96875 81.8828125 11.14453125 15.734375 77.6171875 6.8984375 20.92578125 76.08203125 5.57421875 16.87890625 77.55859375 9.31640625 20.1953125 76.453125 8.17578125 17.078125 70.5703125 9.73828125 19.01953125 72.48828125 -1.61328125 19.53125 80.42578125 6.10546875 13.328125 78.4453125 -4.46484375 14.48046875 81.42578125 -6.05078125 8.046875 82.8125 -8.8984375 13.87109375 78.94140625 -7.546875 20.01171875 80.859375 -3.5546875 21.484375 72.9453125 -5.30859375 25.140625 75.73828125 -1.86328125 26.203125 66.6328125 -0.95703125 29.66015625 68.609375 1.96875 30.140625 60.57421875 6.58203125 32.59375 64.83984375 8.38671875 30.96875 62.69140625 17.25 29.45703125 63.89453125 17.0078125 27.3203125 63.921875 25.03515625 25.2734375 64.72265625 -18.33984375 5 72.30859375 -18.1640625 0 72.2890625 -15.71484375 -6.91796875 71.203125 -14.19921875 -12.2265625 76.12109375 -11.93359375 -13.72265625 67.546875 -11.58203125 -20.82421875 78.94140625 -7.546875 -20.01171875 72.9453125 -5.30859375 -25.140625 74.9765625 45.01953125 10.9140625 71.18359375 42.8671875 16.65234375 71.9765625 47.16796875 11.77734375 65.08984375 40.9296875 20.58984375 61.65625 46.2734375 16.9609375 56.9453125 38.91796875 23.8984375 52.859375 42.83203125 19.734375 48.0546875 35.58984375 26.359375 47.9375 40.30859375 19.91015625 40.046875 27.3046875 30.75 41.53125 33.4453125 22.63671875 82.77734375 -6.6796875 1.52734375 85.171875 6.21875 1.390625 83.90234375 6.609375 7.13671875 81.23828125 7.91796875 13.11328125 82.75390625 7.3515625 14.39453125 85.59765625 5.9453125 8.00390625 85.94140625 4.2890625 8.2578125 87.32421875 3.92578125 1.3984375 85.515625 -7.046875 1.62109375 69.24609375 25.6328125 15.90625 74.72265625 23.91015625 15.703125 73.9375 28.37109375 12.32421875 76.359375 29.53515625 13.51953125 76.72265625 28.30859375 12.99609375 82.1484375 29.46484375 7.41015625 75.3359375 27.26171875 11.9765625 80.46484375 28.1328125 6.62890625 75.7734375 38.046875 6.7578125 71.9140625 36.375 12.26953125 44.234375 9.98828125 35.4609375 40.66015625 20.16796875 34.79296875 52.9140625 23.6796875 30.75390625 57.79296875 18.9921875 30.11328125 64.76953125 28.53125 24.66796875 81.16796875 38.37890625 0 80.38671875 38.046875 -6.3828125 77.83984375 36.97265625 -12.3671875 73.34765625 35.24609375 -18.35546875 67.34765625 31.96875 -22.75390625 82.78515625 -6.77734375 -1.1875 81.484375 -5.81640625 -7.53125 85.1796875 6.03515625 -1.390625 83.80078125 6.66015625 -7.45703125 86.9375 5.48046875 -1.41015625 85.49609375 6.0234375 -8.359375 85.8359375 4.37890625 -8.6953125 82.7265625 5.9609375 -15.4453125 84.02734375 -5.95703125 -8.94140625 80.59375 -4.0859375 -15.1796875 76.78515625 38.71484375 0 81.609375 28.7578125 0 75.7734375 38.046875 -6.7578125 80.46484375 28.1328125 -6.62890625 73.9375 28.37109375 -13.890625 75.3359375 27.26171875 -13.5 76.72265625 28.30859375 -12.99609375 82.1484375 29.46484375 -7.41015625 76.359375 29.53515625 -13.51953125 82.0703125 30.9921875 -7.75 68.41015625 -0.80078125 -21.06640625 70.7109375 10.35546875 -19.03125 73.703125 -2.4609375 -18.5390625 75.97265625 5.77734375 -17.1171875 80.3203125 6.18359375 -13.5546875 81.77734375 11.3046875 -15.71484375 80.52734375 6.23046875 -18.55859375 78.39453125 -2.8046875 -18.18359375 78.14453125 -2.71484375 19.87890625 74.84765625 -1.484375 22.43359375 70.20703125 1.65234375 26.34375 71.51171875 8.59765625 23.78125 64.04296875 11.171875 26.203125 64.359375 12.62890625 25.265625 64.8671875 11.2109375 19.90234375 88.2421875 -5.3125 7.5390625 85.06640625 -4.62109375 14.72265625 83.375 -1.9453125 15.19140625 79.72265625 -0.7109375 20.9765625 74.56640625 1.08984375 25.23828125 74.734375 -1.21484375 -21.69140625 77.5 7.2421875 -21.09765625 69.828125 0.3203125 -25.4765625 71.47265625 9.375 -24.203125 64 12.03125 -26.6640625 64.3203125 13.453125 -25.65234375 64.8359375 11.85546875 -20.3671875 53.2734375 -48.546875 11.25 52.6796875 -43.16796875 17.1796875 55.52734375 -42.67578125 13.65625 52.57421875 -40.1328125 19.75 57.2578125 -42.28125 11.1640625 59.41796875 -36.0390625 11.07421875 61.4765625 -36.421875 0 64.5859375 -29.6171875 2.70703125 64.71875 -29.640625 0 74.62890625 36.88671875 -14.32421875 78.27734375 39.4765625 -7.91796875 83.46875 31.45703125 0 83.359375 30.09375 0 82.0703125 30.9921875 7.75 67.78515625 35.68359375 -20.55859375 60.1953125 31.46875 -24.14453125 71.85546875 27.203125 -18.6484375 64.30078125 24.0625 -21.78515625 71.48046875 25.7578125 -18.125 64.87890625 22.96484375 -20.91796875 63.0078125 21.99609375 -17.6875 57 18.43359375 -22.3046875 56.90234375 18.9765625 -17.7109375 56.90234375 18.9765625 17.7109375 57 18.43359375 22.3046875 63.0078125 21.99609375 17.6875 64.87890625 22.96484375 20.91796875 71.48046875 25.7578125 18.125 64.30078125 24.0625 21.78515625 71.85546875 27.203125 18.6484375 60.1953125 31.46875 24.14453125 67.78515625 35.68359375 20.55859375 40.66015625 20.16796875 -34.79296875 48.0546875 35.58984375 -26.359375 52.859375 42.83203125 -19.734375 61.65625 46.2734375 -16.9609375 58.44140625 49.26171875 -10.2578125 51.3359375 -0.92578125 -31.16796875 54.9375 -5.40234375 -27.28125 66.6328125 -0.95703125 -29.66015625 75.73828125 -1.86328125 -26.203125 74.56640625 1.08984375 -25.23828125 69.53125 3.95703125 28.44140625 66.19140625 9.09765625 29.06640625 58.671875 52.734375 0 63.17578125 50.61328125 -10.3515625 67.54296875 49.47265625 -11.47265625 72.8125 51.48828125 -2.14453125 77.4140625 45.78125 4.859375 77.296875 47.44921875 1.97265625 75.3984375 49.5546875 1.43359375 72.8125 51.48828125 2.14453125 50.86328125 44.69921875 -9.8125 55.10546875 49.83203125 0 50.05859375 43.26171875 0 50.86328125 44.69921875 9.8125 46.11328125 38.0390625 11.98828125 58.84375 -24.140625 -23.5625 56.859375 -29.69921875 -20.59765625 64.40625 -22.546875 -17.2265625 54.7734375 -35.0546875 -19.47265625 59.41796875 -36.0390625 -11.07421875 52.57421875 -40.1328125 -19.75 57.2578125 -42.28125 -11.1640625 48.8984375 -43.58984375 -20.02734375 40.046875 27.3046875 -30.75 47.9375 40.30859375 -19.91015625 41.53125 33.4453125 -22.63671875 46.11328125 38.0390625 -11.98828125 78.27734375 39.4765625 7.91796875 74.62890625 36.88671875 14.32421875 73.67578125 31.80078125 17.21484375 72.32421875 36.90234375 18.12109375 77.4453125 9.6328125 -20.25 76.33984375 8.3828125 -17.19140625 81.13671875 7.9921875 -13.25390625 82.6484375 7.46875 -14.5625 58.44140625 49.26171875 10.2578125 54.9375 -5.40234375 27.28125 51.3359375 -0.92578125 31.16796875 47.7890625 4.18359375 33.58984375 69.24609375 25.6328125 -15.90625 74.72265625 23.91015625 -15.703125 73.67578125 31.80078125 -17.21484375 72.32421875 36.90234375 -18.12109375 71.71484375 11.33203125 -23.2734375 64.76953125 28.53125 -24.66796875 71.75390625 10.5859375 22.953125 60.1015625 33.46875 26.671875 65.44140625 38.2734375 22.92578125 86.9296875 5.65625 1.328125 56.28515625 19.421875 23.2265625 51.42578125 26.74609375 25.66015625 60.83203125 -16 15.41015625 54.53515625 -13.6171875 28.71875 50.68359375 -7.734375 29.1875 58.10546875 -17.265625 21.3203125 54.46484375 -22.515625 25.109375 42.16796875 -23.3984375 32.37109375 40.04296875 -35.76171875 29.41796875 53.36328125 -29.3125 21.7578125 53 -34.72265625 20.28125 43.78515625 -38.17578125 26.203125 48.8984375 -43.58984375 20.02734375 69.53125 3.95703125 -28.44140625 68.609375 1.96875 -30.140625 62.6015625 -17.09765625 -8.8515625 59.09765625 -11.49609375 -20.46875 60.83203125 -16 -15.41015625 54.53515625 -13.6171875 -28.71875 58.10546875 -17.265625 -21.3203125 54.46484375 -22.515625 -25.109375 67.34765625 31.96875 22.75390625 73.34765625 35.24609375 18.35546875 77.83984375 36.97265625 12.3671875 50.09765625 29.6953125 29.234375 89.1796875 -5.4375 0 86.55859375 -2.6171875 7.94921875 86.55859375 -2.6171875 -7.94921875 87.671875 -2.91015625 0 64.72265625 -18.33984375 -5 70.23828125 24.9609375 -16.60546875 56.28515625 19.421875 -23.2265625 51.17578125 27.73046875 -22.02734375 63.17578125 50.61328125 10.3515625 67.54296875 49.47265625 11.47265625 68.69921875 52.5078125 4.875 70.23828125 24.9609375 16.60546875 87.328125 3.8125 -1.44921875 85.51953125 -7.1171875 -1.203125 64.5859375 -29.6171875 -2.70703125 50.68359375 -7.734375 -29.1875 47.02734375 -13.39453125 -32.1640625 33.3203125 -45.9296875 -27.3984375 43.78515625 -38.17578125 -26.203125 53 -34.72265625 -20.28125 54.7734375 -35.0546875 19.47265625 64.40625 -22.546875 17.2265625 67.2109375 -20.4296875 8.94140625 68.06640625 -23.39453125 2.6171875 67.81640625 -19.9296875 3.30859375 68.61328125 -23.359375 0 67.375 -19.4609375 0 67.81640625 -19.9296875 -3.30859375 58.578125 31.3046875 -21.3046875 65.51171875 34.06640625 -17.5390625 71.9140625 36.375 -12.26953125 68.69921875 52.5078125 -4.875 40.04296875 -35.76171875 -29.41796875 53.36328125 -29.3125 -21.7578125 78.8359375 46.078125 0 42.16796875 -23.3984375 -32.390625 60.09765625 -41.296875 0 67.2109375 -20.4296875 -8.94140625 66.51953125 -24 -3.69140625 80.38671875 38.046875 6.3828125 68.06640625 -23.39453125 -2.6171875 47.7890625 4.18359375 -33.796875 44.234375 9.98828125 -35.4609375 47.02734375 -13.39453125 32.1640625 58.84375 -24.140625 23.5625 56.859375 -29.69921875 20.59765625 66.51953125 -24 3.69140625 51.17578125 27.73046875 22.02734375 62.4296875 2.01953125 -28.3359375 62.5078125 1.015625 -22.8359375 78.79296875 -4.4453125 -13.44921875 58.578125 31.3046875 21.3046875 65.51171875 34.06640625 17.5390625 67.828125 1.18359375 21.8984375 63.17578125 1.078125 22.9921875 51.42578125 26.74609375 -25.66015625 65.01953125 -18.9140625 0 79.44140625 40.38671875 0 62.765625 2.82421875 29.4140625 33.3203125 -45.9296875 27.3984375</float_array>
                    <technique_common>
                        <accessor count="359" source="#pointarray1" stride="3">
                            <param name="X" type="float"/>
                            <param name="Y" type="float"/>
                            <param name="Z" type="float"/>
                        </accessor>
                    </technique_common>
                </source>
                <source id="uvs1">
                    <float_array id="uvarray1" count="420">0.26446533203125 0.72857666015625 0.3111572265625 0.73931884765625 0.26837158203125 0.7432861328125 0.31103515625 0.7708740234375 0.28509521484375 0.7705078125 0.287841796875 0.79083251953125 0.2578125 0.78729248046875 0.257568359375 0.80657958984375 0.29156494140625 0.81005859375 0.31719970703125 0.79266357421875 0.32513427734375 0.81024169921875 0.34539794921875 0.790771484375 0.3555908203125 0.805419921875 0.38177490234375 0.78179931640625 0.38836669921875 0.794921875 0.3970947265625 0.76898193359375 0.40374755859375 0.78912353515625 0.4146728515625 0.77264404296875 0.419189453125 0.78338623046875 0.35687255859375 0.85626220703125 0.3543701171875 0.8631591796875 0.3314208984375 0.86224365234375 0.3228759765625 0.86871337890625 0.2926025390625 0.87078857421875 0.320556640625 0.88653564453125 0.25799560546875 0.89337158203125 0.2979736328125 0.9051513671875 0.25787353515625 0.90753173828125 0.25775146484375 0.9217529296875 0.29302978515625 0.92578125 0.32330322265625 0.89959716796875 0.3260498046875 0.91259765625 0.36663818359375 0.90380859375 0.35833740234375 0.95111083984375 0.39666748046875 0.93212890625 0.398193359375 0.7772216796875 0.4183349609375 0.79693603515625 0.41815185546875 0.788330078125 0.41644287109375 0.7994384765625 0.34051513671875 0.76885986328125 0.3656005859375 0.73443603515625 0.3782958984375 0.76617431640625 0.4017333984375 0.73101806640625 0.40484619140625 0.758056640625 0.4559326171875 0.75146484375 0.45098876953125 0.762939453125 0.44769287109375 0.788330078125 0.44573974609375 0.82733154296875 0.41741943359375 0.81048583984375 0.414794921875 0.810546875 0.53228759765625 0.697021484375 0.5318603515625 0.7401123046875 0.56878662109375 0.7388916015625 0.56427001953125 0.76055908203125 0.58233642578125 0.75799560546875 0.56988525390625 0.78314208984375 0.5748291015625 0.783203125 0.5948486328125 0.78228759765625 0.59637451171875 0.82598876953125 0.53411865234375 0.7852783203125 0.3524169921875 0.8770751953125 0.3828125 0.87176513671875 0.3919677734375 0.85040283203125 0.41375732421875 0.87158203125 0.4132080078125 0.8367919921875 0.29034423828125 0.98095703125 0.25750732421875 0.949951171875 0.3507080078125 0.7010498046875 0.38018798828125 0.686279296875 0.44427490234375 0.72076416015625 0.41082763671875 0.6678466796875 0.48681640625 0.71044921875 0.44140625 0.64947509765625 0.53271484375 0.653564453125 0.58111572265625 0.65380859375 0.582275390625 0.6951904296875 0.583740234375 0.73870849609375 0.5732421875 0.73895263671875 0.5721435546875 0.69580078125 0.5675048828125 0.69561767578125 0.5743408203125 0.6536865234375 0.5325927734375 0.65350341796875 0.570556640625 0.78375244140625 0.5836181640625 0.7568359375 0.56939697265625 0.7392578125 0.57427978515625 0.73931884765625 0.5728759765625 0.69854736328125 0.58514404296875 0.73907470703125 0.58355712890625 0.69793701171875 0.53173828125 0.69830322265625 0.53131103515625 0.740478515625 0.49420166015625 0.80615234375 0.4981689453125 0.74761962890625 0.40386962890625 0.79656982421875 0.257080078125 0.816162109375 0.2939453125 0.81976318359375 0.32861328125 0.81964111328125 0.358642578125 0.81549072265625 0.38958740234375 0.80474853515625 0.53314208984375 0.6529541015625 0.5799560546875 0.6541748046875 0.57843017578125 0.65374755859375 0.53240966796875 0.65203857421875 0.58099365234375 0.6544189453125 0.568115234375 0.6983642578125 0.5361328125 0.82757568359375 0.535888671875 0.76287841796875 0.5361328125 0.82769775390625 0.57073974609375 0.828125 0.571533203125 0.873291015625 0.5767822265625 0.8729248046875 0.57586669921875 0.884765625 0.394775390625 0.8421630859375 0.842041015625 0.99786376953125 0.81634521484375 0.97406005859375 0.84918212890625 0.96905517578125 0.8017578125 0.94317626953125 0.88665771484375 0.91436767578125 0.992431640625 0.9166259765625 0.97540283203125 0.87530517578125 0.992431640625 0.87286376953125 0.56719970703125 0.65374755859375 0.57183837890625 0.65399169921875 0.5335693359375 0.78802490234375 0.5357666015625 0.83172607421875 0.57171630859375 0.828857421875 0.575927734375 0.78387451171875 0.576904296875 0.8289794921875 0.59814453125 0.8267822265625 0.577880859375 0.8736572265625 0.6005859375 0.87286376953125 0.3272705078125 0.66595458984375 0.47052001953125 0.87225341796875 0.43829345703125 0.904296875 0.41143798828125 0.832763671875 0.257080078125 0.67633056640625 0.31695556640625 0.6788330078125 0.315185546875 0.70989990234375 0.26812744140625 0.70556640625 0.33734130859375 0.64031982421875 0.25653076171875 0.64447021484375 0.2568359375 0.59088134765625 0.36492919921875 0.59539794921875 0.797607421875 0.8681640625 0.7996826171875 0.9053955078125 0.8502197265625 0.85211181640625 0.80072021484375 0.92425537109375 0.5577392578125 0.75946044921875 0.53118896484375 0.76495361328125 0.485595703125 0.84051513671875 0.5987548828125 0.8721923828125 0.5760498046875 0.82806396484375 0.41375732421875 0.75537109375 0.57891845703125 0.65386962890625 0.572509765625 0.8740234375 0.5316162109375 0.8775634765625 0.8629150390625 0.72125244140625 0.81695556640625 0.72515869140625 0.76837158203125 0.68914794921875 0.714111328125 0.72491455078125 0.72271728515625 0.65985107421875 0.6759033203125 0.681884765625 0.77899169921875 0.75128173828125 0.75994873046875 0.82177734375 0.66131591796875 0.81475830078125 0.687255859375 0.9073486328125 0.7738037109375 0.8798828125 0.78778076171875 0.9114990234375 0.72869873046875 0.918212890625 0.79156494140625 0.9793701171875 0.57098388671875 0.7838134765625 0.25762939453125 0.8704833984375 0.2978515625 0.8653564453125 0.257080078125 0.8658447265625 0.5965576171875 0.78094482421875 0.5770263671875 0.8907470703125 0.53143310546875 0.893310546875 0.28094482421875 0.6925048828125 0.57391357421875 0.65350341796875 0.532958984375 0.6529541015625 0.65447998046875 0.73406982421875 0.7147216796875 0.99688720703125 0.92431640625 0.83892822265625 0.5789794921875 0.6534423828125 0.57293701171875 0.65313720703125 0.57989501953125 0.65435791015625 0.53302001953125 0.65313720703125 0.53240966796875 0.65447998046875 0.57916259765625 0.654052734375 0.57989501953125 0.65313720703125 0.57293701171875 0.6544189453125 0.53240966796875 0.65313720703125 0.53314208984375 0.65447998046875 0.97613525390625 0.68212890625 0.96160888671875 0.66888427734375 0.99749755859375 0.67926025390625 0.997314453125 0.66595458984375 0.25714111328125 0.76776123046875 0.992431640625 0.9571533203125 0.9669189453125 0.85467529296875 0.9583740234375 0.83404541015625 0.97613525390625 0.68218994140625 0.962646484375 0.7210693359375 0.99749755859375 0.7186279296875 0.53192138671875 0.87872314453125 0.53173828125 0.8909912109375 0.5706787109375 0.78375244140625 0.53192138671875 0.87860107421875 0.25701904296875 0.99188232421875 0.958740234375 0.687255859375</float_array>
                    <technique_common>
                        <accessor count="210" source="#uvarray1" stride="2">
                            <param name="S" type="float"/>
                            <param name="T" type="float"/>
                        </accessor>
                    </technique_common>
                </source>
                <vertices id="vertices1">
                    <input semantic="POSITION" source="#points1"/>
                </vertices>
                <polylist count="557" material="Material1">
                    <input offset="0" semantic="VERTEX" source="#vertices1"/>
                    <input offset="1" semantic="TEXCOORD" source="#uvs1" set="0"/>
                    <vcount>3 3 3 3 3 3 3 3 3 3 3 3 3 3 3 3 3 3 3 3 3 3 3 3 3 3 3 3 3 3 3 3 3 3 3 3 3 3 3 3 3 3 3 3 3 3 3 3 3 3 3 3 3 3 3 3 3 3 3 3 3 3 3 3 3 3 3 3 3 3 3 3 3 3 3 3 3 3 3 3 3 3 3 3 3 3 3 3 3 3 3 3 3 3 3 3 3 3 3 3 3 3 3 3 3 3 3 3 3 3 3 3 3 3 3 3 3 3 3 3 3 3 3 3 3 3 3 3 3 3 3 3 3 3 3 3 3 3 3 3 3 3 3 3 3 3 3 3 3 3 3 3 3 3 3 3 3 3 3 3 3 3 3 3 3 3 3 3 3 3 3 3 3 3 3 3 3 3 3 3 3 3 3 3 3 3 3 3 3 3 3 3 3 3 3 3 3 3 3 3 3 3 3 3 3 3 3 3 3 3 3 3 3 3 3 3 3 3 3 3 3 3 3 3 3 3 3 3 3 3 3 3 3 3 3 3 3 3 3 3 3 3 3 3 3 3 3 3 3 3 3 3 3 3 3 3 3 3 3 3 3 3 3 3 3 3 3 3 3 3 3 3 3 3 3 3 3 3 3 3 3 3 3 3 3 3 3 3 3 3 3 3 3 3 3 3 3 3 3 3 3 3 3 3 3 3 3 3 3 3 3 3 3 3 3 3 3 3 3 3 3 3 3 3 3 3 3 3 3 3 3 3 3 3 3 3 3 3 3 3 3 3 3 3 3 3 3 3 3 3 3 3 3 3 3 3 3 3 3 3 3 3 3 3 3 3 3 3 3 3 3 3 3 3 3 3 3 3 3 3 3 3 3 3 3 3 3 3 3 3 3 3 3 3 3 3 3 3 3 3 3 3 3 3 3 3 3 3 3 3 3 3 3 3 3 3 3 3 3 3 3 3 3 3 3 3 3 3 3 3 3 3 3 3 3 3 3 3 3 3 3 3 3 3 3 3 3 3 3 3 3 3 3 3 3 3 3 3 3 3 3 3 3 3 3 3 3 3 3 3 3 3 3 3 3 3 3 3 3 3 3 3 3 3 3 3 3 3 3 3 3 3 3 3 3 3 3 3 3 3 3 3 3 3 3 3 3 3 3 3 3 3 3 3 3 3 3 3 3 3 3 3 3 3 3 3 3 3 3 3 3 3 3 3 3 3 3 3 3 3 3 3 3 3 3 3 3 3 3 3 3 3 3 3 3 3 3</vcount>
                    <p>2 2 1 1 0 0 3 3 1 1 2 2 4 4 3 3 2 2 5 5 3 3 4 4 6 6 5 5 4 4 7 7 5 5 6 6 8 5 7 7 6 6 9 8 7 7 8 5 10 9 9 8 8 5 11 10 9 8 10 9 12 11 11 10 10 9 13 12 11 10 12 11 14 13 13 12 12 11 15 14 13 12 14 13 16 15 15 14 14 13 17 16 15 14 16 15 18 17 17 16 16 15 19 18 17 16 18 17 22 21 21 20 20 19 23 22 21 20 22 21 24 23 23 22 22 21 25 24 23 22 24 23 26 25 25 24 24 23 27 26 25 24 26 25 28 27 27 26 26 25 29 28 27 26 28 27 30 26 29 28 28 27 31 29 29 28 30 26 32 30 31 29 30 26 33 31 31 29 32 30 34 32 33 31 32 30 35 33 33 31 34 32 36 34 35 33 34 32 37 8 5 5 7 7 38 9 5 5 37 8 39 10 38 9 37 8 40 11 38 9 39 10 41 12 40 11 39 10 42 13 40 11 41 12 43 14 42 13 41 12 44 35 42 13 43 14 45 16 44 35 43 14 46 17 44 35 45 16 47 18 46 17 45 16 48 36 46 17 47 18 49 37 48 36 47 18 50 38 48 36 49 37 51 39 1 1 3 3 52 40 1 1 51 39 53 41 52 40 51 39 54 42 52 40 53 41 55 43 54 42 53 41 56 44 54 42 55 43 46 17 56 44 55 43 57 45 56 44 46 17 58 46 57 45 46 17 59 47 57 45 58 46 48 36 59 47 58 46 60 48 59 47 48 36 50 38 60 48 48 36 61 49 60 48 50 38 64 52 63 51 62 50 65 53 63 51 64 52 66 54 65 53 64 52 67 55 65 53 66 54 68 55 67 55 66 54 69 56 67 55 68 55 70 57 69 56 68 55 71 58 69 56 70 57 68 55 71 58 70 57 72 59 71 58 68 55 73 52 72 59 68 55 74 51 72 59 73 52 75 50 74 51 73 52 76 24 32 30 30 26 77 60 32 30 76 24 78 20 77 60 76 24 79 61 77 60 78 20 80 62 79 61 78 20 81 63 79 61 80 62 82 64 81 63 80 62 83 47 81 63 82 64 84 48 83 47 82 64 85 36 83 47 84 48 86 38 85 36 84 48 87 37 85 36 86 38 88 65 33 31 35 33 31 29 33 31 88 65 89 66 31 29 88 65 29 28 31 29 89 66 90 29 29 28 89 66 27 26 29 28 90 29 91 31 27 26 90 29 92 30 27 26 91 31 93 32 92 30 91 31 94 60 92 30 93 32 95 61 94 60 93 32 21 20 94 60 95 61 96 3 10 9 8 5 97 39 10 9 96 3 98 1 97 39 96 3 99 40 97 39 98 1 100 67 99 40 98 1 101 42 99 40 100 67 102 68 101 42 100 67 103 69 101 42 102 68 104 70 103 69 102 68 105 71 103 69 104 70 106 72 105 71 104 70 75 50 108 74 107 73 109 75 108 74 75 50 73 52 109 75 75 50 110 76 109 75 73 52 111 77 110 76 73 52 112 78 110 76 111 77 64 52 112 78 111 77 113 79 112 78 64 52 62 50 113 79 64 52 114 80 113 79 62 50 115 81 114 80 62 50 118 84 117 83 116 82 119 84 117 83 118 84 120 85 119 84 118 84 121 86 119 84 120 85 122 87 121 86 120 85 123 88 121 86 122 87 118 84 123 88 122 87 124 89 123 88 118 84 125 90 124 89 118 84 83 47 127 92 126 91 128 45 127 92 83 47 129 46 128 45 83 47 18 17 128 45 129 46 85 36 18 17 129 46 19 18 18 17 85 36 87 37 19 18 85 36 130 93 19 18 87 37 131 94 7 7 9 8 37 8 7 7 131 94 132 95 37 8 131 94 39 10 37 8 132 95 133 96 39 10 132 95 41 12 39 10 133 96 134 97 41 12 133 96 135 98 41 12 134 97 138 100 137 50 136 99 139 75 137 50 138 100 140 101 139 75 138 100 141 78 139 75 140 101 142 79 141 78 140 101 143 52 141 78 142 79 144 50 143 52 142 79 145 51 143 52 144 50 148 89 147 103 146 102 149 88 147 103 148 89 150 84 149 88 148 89 151 87 149 88 150 84 152 85 151 87 150 84 153 86 151 87 152 85 154 84 153 86 152 85 155 104 153 86 154 84 158 59 157 58 156 105 159 55 157 58 158 59 160 52 159 55 158 59 161 54 159 55 160 52 143 52 161 54 160 52 162 53 161 54 143 52 145 51 162 53 143 52 163 106 162 53 145 51 65 53 164 106 63 51 165 59 164 106 65 53 67 55 165 59 65 53 166 107 165 59 67 55 167 108 166 107 67 55 168 109 166 107 167 108 169 110 168 109 167 108 170 111 168 109 169 110 26 25 30 26 28 27 76 24 30 26 26 25 171 23 76 24 26 25 172 22 76 24 171 23 173 21 172 22 171 23 78 20 172 22 173 21 174 19 78 20 173 21 175 112 78 20 174 19 176 59 162 53 163 106 177 55 162 53 176 59 178 107 177 55 176 59 179 108 177 55 178 107 180 109 179 108 178 107 181 110 179 108 180 109 182 111 181 110 180 109 185 115 184 114 183 113 186 116 184 114 185 115 187 115 186 116 185 115 188 117 186 116 187 115 189 118 188 117 187 115 190 119 188 117 189 118 191 120 190 119 189 118 193 89 154 84 192 90 155 104 154 84 193 89 194 121 155 104 193 89 195 122 155 104 194 121 196 104 195 122 194 121 121 86 195 122 196 104 119 84 121 86 196 104 199 82 198 124 197 123 200 125 198 124 199 82 201 126 200 125 199 82 202 127 200 125 201 126 203 128 202 127 201 126 204 129 202 127 203 128 205 130 204 129 203 128 208 128 207 129 206 130 209 127 207 129 208 128 210 126 209 127 208 128 211 125 209 127 210 126 212 82 211 125 210 126 213 124 211 125 212 82 214 123 213 124 212 82 215 92 57 45 59 47 56 44 57 45 215 92 216 69 56 44 215 92 54 42 56 44 216 69 217 68 54 42 216 69 218 67 54 42 217 68 219 131 218 67 217 68 222 63 221 133 220 132 95 61 221 133 222 63 223 62 95 61 222 63 21 20 95 61 223 62 224 112 21 20 223 62 20 19 21 20 224 112 175 112 80 62 78 20 82 64 80 62 175 112 225 134 82 64 175 112 84 48 82 64 225 134 226 49 84 48 225 134 86 38 84 48 226 49 228 136 219 131 227 135 218 67 219 131 228 136 229 137 218 67 228 136 1 1 218 67 229 137 230 138 1 1 229 137 0 0 1 1 230 138 231 4 8 5 6 6 96 3 8 5 231 4 232 2 96 3 231 4 98 1 96 3 232 2 233 0 98 1 232 2 234 138 98 1 233 0 235 139 219 131 217 68 236 140 219 131 235 139 237 141 236 140 235 139 238 139 236 140 237 141 239 142 238 139 237 141 106 72 238 139 239 142 242 145 241 144 240 143 243 146 241 144 242 145 244 117 243 146 242 145 245 116 243 146 244 117 246 115 245 116 244 117 247 114 245 116 246 115 248 71 216 69 215 92 249 70 216 69 248 71 250 72 249 70 248 71 235 139 249 70 250 72 251 142 235 139 250 72 237 141 235 139 251 142 252 89 196 104 194 121 119 84 196 104 252 89 253 90 119 84 252 89 254 147 119 84 253 90 255 148 254 147 253 90 214 123 254 147 255 148 38 9 3 3 5 5 51 39 3 3 38 9 40 11 51 39 38 9 53 41 51 39 40 11 42 13 53 41 40 11 44 35 53 41 42 13 177 55 161 54 162 53 159 55 161 54 177 55 256 56 159 55 177 55 257 57 159 55 256 56 157 58 257 57 256 56 159 55 257 57 157 58 139 75 160 52 137 50 258 76 160 52 139 75 141 78 258 76 139 75 259 77 258 76 141 78 143 52 259 77 141 78 160 52 259 77 143 52 236 140 227 135 219 131 260 131 227 135 236 140 238 139 260 131 236 140 102 68 260 131 238 139 104 70 102 68 238 139 81 63 261 133 79 61 262 132 261 133 81 63 83 47 262 132 81 63 263 149 262 132 83 47 126 91 263 149 83 47 265 83 150 84 264 82 154 84 150 84 265 83 266 147 154 84 265 83 192 90 154 84 266 147 267 148 192 90 266 147 157 58 181 110 182 150 268 151 181 110 157 58 256 56 268 151 157 58 179 108 268 151 256 56 177 55 179 108 256 56 135 98 43 14 41 12 45 16 43 14 135 98 269 93 45 16 135 98 47 18 45 16 269 93 49 37 47 18 269 93 169 110 71 58 170 150 270 151 71 58 169 110 167 108 270 151 169 110 69 56 270 151 167 108 67 55 69 56 167 108 14 13 271 152 16 15 272 41 271 152 14 13 12 11 272 41 14 13 97 39 272 41 12 11 10 9 97 39 12 11 123 88 195 122 121 86 147 103 195 122 123 88 124 89 147 103 123 88 146 102 147 103 124 89 112 78 109 75 110 76 273 153 109 75 112 78 113 79 273 153 112 78 114 80 273 153 113 79 211 125 207 129 209 127 274 154 207 129 211 125 213 124 274 154 211 125 275 155 274 154 213 124 36 158 276 157 35 156 277 159 276 157 36 158 261 160 277 159 36 158 278 161 277 159 261 160 277 159 279 162 276 157 280 163 279 162 277 159 281 164 280 163 277 159 282 165 280 163 281 164 285 168 284 167 283 166 186 116 284 167 285 168 286 169 186 116 285 168 184 114 186 116 286 169 287 134 60 48 61 49 288 64 60 48 287 134 224 112 288 64 287 134 223 62 288 64 224 112 266 147 197 123 267 148 199 82 197 123 266 147 265 83 199 82 266 147 264 170 199 82 265 83 291 157 290 158 289 156 292 159 290 158 291 157 293 162 292 159 291 157 294 163 292 159 293 162 295 98 15 14 17 16 13 12 15 14 295 98 296 97 13 12 295 98 297 96 13 12 296 97 298 44 101 42 103 69 271 152 101 42 298 44 18 17 271 152 298 44 16 15 271 152 18 17 127 92 103 69 105 71 298 44 103 69 127 92 128 45 298 44 127 92 18 17 298 44 128 45 299 171 26 25 24 23 171 23 26 25 299 171 300 172 171 23 299 171 173 21 171 23 300 172 301 172 24 23 22 21 299 171 24 23 301 172 302 173 299 171 301 172 300 172 299 171 302 173 303 65 90 29 89 66 91 31 90 29 303 65 289 33 91 31 303 65 93 32 91 31 289 33 264 170 201 126 199 82 304 174 201 126 264 170 203 128 304 174 264 170 201 126 304 174 203 128 204 129 200 125 202 127 305 154 200 125 204 129 205 175 305 154 204 129 306 176 305 154 205 175 272 41 101 42 271 152 99 40 101 42 272 41 97 39 99 40 272 41 260 131 307 136 227 135 100 67 307 136 260 131 102 68 100 67 260 131 308 137 100 67 98 1 307 136 100 67 308 137 309 177 307 136 308 137 288 64 59 47 60 48 222 63 59 47 288 64 223 62 222 63 288 64 93 32 221 133 95 61 290 34 221 133 93 32 289 33 290 34 93 32 310 174 208 128 116 170 210 126 208 128 310 174 116 170 210 126 310 174 311 178 142 79 140 101 144 50 142 79 311 178 312 179 144 50 311 178 189 118 313 119 191 120 244 117 313 119 189 118 246 115 244 117 189 118 292 159 221 160 290 158 314 161 221 160 292 159 315 180 314 161 292 159 317 168 247 114 316 181 245 116 247 114 317 168 318 167 245 116 317 168 188 117 319 146 186 116 320 145 319 146 188 117 321 182 320 145 188 117 254 147 117 83 119 84 212 82 117 83 254 147 214 123 212 82 254 147 138 185 311 184 140 183 312 186 311 184 138 185 136 187 312 186 138 185 153 86 149 88 151 87 195 122 149 88 153 86 155 104 195 122 153 86 114 190 108 189 273 188 107 191 108 189 114 190 115 192 107 191 114 190 324 195 323 194 322 193 325 196 323 194 324 195 326 194 325 196 324 195 203 125 306 155 205 154 327 124 306 155 203 125 328 123 327 124 203 125 150 84 328 123 264 170 329 90 328 123 150 84 148 89 329 90 150 84 229 137 330 177 230 138 228 136 330 177 229 137 332 166 317 168 331 165 318 167 317 168 332 166 130 93 17 16 19 18 295 98 17 16 130 93 25 24 21 20 23 22 94 60 21 20 25 24 333 197 6 6 4 4 231 4 6 6 333 197 294 163 331 165 334 164 332 166 331 165 294 163 292 159 334 164 315 180 294 163 334 164 292 159 189 118 335 198 246 115 187 115 335 198 189 118 244 117 336 182 313 119 242 145 336 182 244 117 336 182 337 199 313 119 326 200 337 199 336 182 297 96 11 10 13 12 338 95 11 10 297 96 338 95 9 8 11 10 131 94 9 8 338 95 324 195 313 202 339 201 191 203 313 202 324 195 52 40 218 67 1 1 54 42 218 67 52 40 55 43 44 35 46 17 53 41 44 35 55 43 220 132 59 47 222 63 340 149 59 47 220 132 341 91 59 47 340 149 215 92 59 47 341 91 282 165 283 166 280 163 285 168 283 166 282 165 342 180 277 159 278 161 281 164 277 159 342 180 249 70 217 68 216 69 235 139 217 68 249 70 190 202 324 195 322 201 191 203 324 195 190 202 344 144 320 145 343 143 319 146 320 145 344 144 234 138 308 137 98 1 309 177 308 137 234 138 345 199 321 182 190 119 323 200 321 182 345 199 346 176 274 154 275 155 206 175 274 154 346 176 347 204 180 109 178 107 348 205 180 109 347 204 349 51 160 52 158 59 137 50 160 52 349 51 212 82 116 170 117 83 210 126 116 170 212 82 351 123 208 125 350 124 116 206 208 125 351 123 352 105 71 58 72 59 353 207 71 58 352 105 348 207 157 58 182 109 156 105 157 58 348 207 346 155 208 125 206 154 350 124 208 125 346 155 354 155 305 154 306 176 198 124 305 154 354 155 355 208 89 66 88 65 303 65 89 66 355 208 92 30 25 24 27 26 94 60 25 24 92 30 356 102 194 121 193 89 252 89 194 121 356 102 66 54 73 52 68 55 64 52 73 52 66 54 353 205 168 109 170 111 357 204 168 109 353 205 118 84 351 123 125 90 116 170 351 123 118 84 34 32 261 133 36 34 79 61 261 133 34 32 77 60 34 32 32 30 79 61 34 32 77 60 345 209 190 202 322 201 323 194 345 209 322 201 73 52 64 52 111 77 149 88 195 122 147 103 150 84 154 84 152 85 238 139 106 72 104 70 160 52 258 76 259 77 274 154 206 175 207 129 188 117 190 119 321 182 46 17 48 36 58 46 71 58 270 151 69 56 285 168 358 181 286 169 109 75 273 153 108 74 71 58 353 207 170 109 324 195 339 193 326 194 166 107 168 109 357 204 337 209 339 201 313 202 118 84 122 87 120 85 180 109 348 205 182 111 179 108 181 110 268 151 198 124 200 125 305 154 326 194 339 201 337 209 78 20 76 24 172 22 203 125 264 206 328 123 85 36 129 46 83 47</p>
                </polylist>
            </mesh>
        </geometry>
    </library_geometries>
    <library_visual_scenes>
        <visual_scene id="VisualSceneNode">
            <node id="node0" name="m0" type="NODE">
                <instance_geometry url="#mesh0">
                    <bind_material>
                        <technique_common>
                            <instance_material symbol="Material1" target="#mat0">
                                <bind_vertex_input semantic="UVSET0" input_semantic="TEXCOORD" input_set="0"></bind_vertex_input>
                            </instance_material>
                        </technique_common>
                    </bind_material>
                </instance_geometry>
            </node>
            <node id="node1" name="m1" type="NODE">
                <instance_geometry url="#mesh1">
                    <bind_material>
                        <technique_common>
                            <instance_material symbol="Material1" target="#mat1">
                                <bind_vertex_input semantic="UVSET0" input_semantic="TEXCOORD" input_set="0"></bind_vertex_input>
                            </instance_material>
                        </technique_common>
                    </bind_material>
                </instance_geometry>
            </node>
        </visual_scene>
    </library_visual_scenes>
    <scene>
        <instance_visual_scene url="#VisualSceneNode"></instance_visual_scene>
    </scene>
</COLLADA>
