<?xml version="1.0"?>
<COLLADA xmlns="http://www.collada.org/2005/11/COLLADASchema" version="1.4.1">
    <asset>
        <contributor>
            <authoring_tool>J3D Ripoff Exporter</authoring_tool>
        </contributor>
        <created>2024-08-19T02:40:42.688Z</created>
        <modified>2024-08-19T02:40:42.688Z</modified>
		<unit meter="0.01" name="centimeter" ></unit>
        <up_axis>Y_UP</up_axis>
    </asset>
    <library_images>
        <image id="tex0">
            <init_from>miyamoto_skin.png</init_from>
        </image>
        <image id="tex1">
            <init_from>miyamoto_eye.png</init_from>
        </image>
    </library_images>
    <library_effects>
        <effect id="effect0">
            <profile_COMMON>
                <newparam sid="surface0">
                    <surface type="2D">
                        <init_from>tex1</init_from>
                    </surface>
                </newparam>
                <newparam sid="sampler0">
                    <sampler2D>
                        <source>surface0</source>
                    </sampler2D>
                </newparam>
                <technique sid="COMMON">
                    <blinn>
                        <diffuse>
                            <texture texture="sampler0" texcoord="UVSET0"></texture>
                        </diffuse>
                    </blinn>
                </technique>
            </profile_COMMON>
        </effect>
        <effect id="effect1">
            <profile_COMMON>
                <newparam sid="surface1">
                    <surface type="2D">
                        <init_from>tex0</init_from>
                    </surface>
                </newparam>
                <newparam sid="sampler1">
                    <sampler2D>
                        <source>surface1</source>
                    </sampler2D>
                </newparam>
                <technique sid="COMMON">
                    <blinn>
                        <diffuse>
                            <texture texture="sampler1" texcoord="UVSET0"></texture>
                        </diffuse>
                    </blinn>
                </technique>
            </profile_COMMON>
        </effect>
        <effect id="effect2">
            <profile_COMMON>
                <newparam sid="surface2">
                    <surface type="2D">
                        <init_from>tex0</init_from>
                    </surface>
                </newparam>
                <newparam sid="sampler2">
                    <sampler2D>
                        <source>surface2</source>
                    </sampler2D>
                </newparam>
                <technique sid="COMMON">
                    <blinn>
                        <diffuse>
                            <texture texture="sampler2" texcoord="UVSET0"></texture>
                        </diffuse>
                    </blinn>
                </technique>
            </profile_COMMON>
        </effect>
    </library_effects>
    <library_materials>
        <material id="mat0" name="Eye">
            <instance_effect url="#effect0"></instance_effect>
        </material>
        <material id="mat1" name="Skin_etc">
            <instance_effect url="#effect1"></instance_effect>
        </material>
        <material id="mat2" name="Skin_spc">
            <instance_effect url="#effect2"></instance_effect>
        </material>
    </library_materials>
    <library_geometries>
        <geometry id="mesh0">
            <mesh>
                <source id="points0">
                    <float_array id="pointarray0" count="27">64.51171875 -20.5390625 -5.203125 63.53125 -18.40234375 -6.82421875 63.50390625 -21.16015625 -9.6953125 62.82421875 -17.34765625 -8.84765625 61.4765625 -16.78515625 -12 58.609375 -21.04296875 -18.2109375 61.55859375 -21.40234375 -13.62109375 59.22265625 -18.625 -17.02734375 60.3671875 -17.26953125 -14.91015625</float_array>
                    <technique_common>
                        <accessor count="9" source="#pointarray0" stride="3">
                            <param name="X" type="float"/>
                            <param name="Y" type="float"/>
                            <param name="Z" type="float"/>
                        </accessor>
                    </technique_common>
                </source>
                <source id="uvs0">
                    <float_array id="uvarray0" count="18">0.1234130859375 0.5323486328125 0.17169189453125 0.35443115234375 0.35394287109375 0.4188232421875 0.29083251953125 0.18475341796875 0.46856689453125 0.11029052734375 0.8564453125 0.57000732421875 0.6346435546875 0.44879150390625 0.827392578125 0.36566162109375 0.6593017578125 0.15032958984375</float_array>
                    <technique_common>
                        <accessor count="9" source="#uvarray0" stride="2">
                            <param name="S" type="float"/>
                            <param name="T" type="float"/>
                        </accessor>
                    </technique_common>
                </source>
                <vertices id="vertices0">
                    <input semantic="POSITION" source="#points0"/>
                </vertices>
                <polylist count="7" material="Material1">
                    <input offset="0" semantic="VERTEX" source="#vertices0"/>
                    <input offset="1" semantic="TEXCOORD" source="#uvs0" set="0"/>
                    <vcount>3 3 3 3 3 3 3</vcount>
                    <p>2 2 1 1 0 0 3 3 1 1 2 2 4 4 3 3 2 2 7 7 6 6 5 5 8 8 6 6 7 7 8 8 2 2 6 6 4 4 2 2 8 8</p>
                </polylist>
            </mesh>
        </geometry>
        <geometry id="mesh1">
            <mesh>
                <source id="points1">
                    <float_array id="pointarray1" count="1200">46.515625 6.19921875 17.61328125 45.11328125 2.46875 8.12890625 44.30078125 6.40625 0.484375 44.640625 5.0625 0.484375 45.11328125 2.46875 -7.15625 46.59765625 3.2578125 0.484375 47.109375 0.8515625 -5.94921875 52.68359375 1.9296875 -6.16796875 48.5546875 2.9296875 -14.609375 53.34765625 5.1640625 -17.3359375 52.30859375 7.3984375 -20.7109375 63.1328125 12.51953125 -19.6171875 51.73046875 8.6328125 -19.84765625 62.55859375 14.78515625 -18.828125 60.19921875 15.61328125 -12.26171875 71.84765625 16.63671875 -11.57421875 73.75390625 18.21875 0.484375 77.39453125 15.1875 0.484375 71.84765625 16.63671875 12.546875 74.8515625 13.87890625 13.078125 62.55859375 14.78515625 19.80078125 63.1328125 12.51953125 20.58984375 51.73046875 8.6328125 20.8203125 52.30859375 7.3984375 21.68359375 46.9453125 4.8984375 18.3125 47.109375 0.8515625 6.921875 52.68359375 1.9296875 7.14453125 51.94921875 5.0078125 0.484375 62.53125 9.58203125 0.484375 63.0078125 8.25390625 -5.3203125 64.17578125 10.2890625 -15.875 75.15234375 13.9140625 -12.10546875 67.546875 -9.6484375 -20.7578125 70.98828125 -13.62890625 -12.15625 77.2265625 -10.21875 -13.8046875 72.52734375 -15.71484375 -6.8515625 76.609375 -15.58203125 0.03125 72.75390625 -17.78515625 0.03125 72.52734375 -15.71484375 6.91796875 65.16796875 -19.25390625 5 71.203125 -14.19921875 12.2265625 63.046875 -17.04296875 8.8515625 67.546875 -11.94921875 20.82421875 59.09765625 -11.734375 20.46875 68.72265625 -9.07421875 25.83203125 54.9375 -5.40234375 27.28125 60.95703125 -2.62890625 30.03515625 51.3359375 -0.92578125 31.16796875 60.23046875 -0.77734375 30.84375 54.65625 5.34375 32.59375 57.79296875 5.55859375 31.34765625 54.13671875 13.7734375 33.37890625 59.84375 11.65625 31.0625 59.16796875 15.078125 31.42578125 78.359375 -2.98828125 3.62890625 77.70703125 -1.76171875 7.3125 77.6015625 -5.015625 7.359375 76.09765625 -2.93359375 10.484375 74.5859375 -4.13671875 13.89453125 74.48828125 -1.37890625 13.22265625 68.1875 -3 19.734375 71.359375 3.37109375 17.5390625 64.109375 6.98046875 20.05078125 71.58203125 5.78515625 17.90625 72.64453125 6.73046875 21.0859375 72.83984375 4.45703125 21.65625 77.15625 9.7734375 16.14453125 77.08203125 3.15625 18.921875 78.29296875 4.9453125 15.75390625 76.6796875 -4.15625 15.46484375 77.5390625 -0.796875 14.9296875 79.1953125 -2.8515625 11.91796875 69.69921875 14.94140625 -28.87890625 73.65625 13.20703125 -27.30859375 74.13671875 16.59765625 -26.546875 79.79296875 15.24609375 -21.91796875 80.58203125 18.05078125 -21.5625 84.55859375 16.69140625 -14.6171875 85.7578125 18.8828125 -14.6328125 87.3515625 17.328125 -7.3515625 88.765625 19.38671875 -7.1875 88.9140625 17.87890625 0.03125 90.47265625 19.66015625 0.03125 89.7265625 19.74609375 7.2578125 87.2109375 22.53515625 5.48046875 84.4296875 22.5390625 12.296875 86.5546875 24.45703125 2.22265625 83.03515625 25.64453125 12.88671875 85.6328125 25.98828125 1.6171875 83.32421875 30.49609375 2.41796875 47.7890625 4.18359375 -33.796875 54.65625 5.34375 -33.12109375 44.234375 9.98828125 -35.4609375 52.35546875 12.47265625 -35.07421875 40.66015625 20.16796875 -34.79296875 52.06640625 21.9609375 -33.5625 40.046875 27.3046875 -30.75 60.296875 27.5859375 -29.1875 58.0703125 34.12890625 -23.21875 69.671875 33.1484375 -21.140625 63.953125 39.26953125 -13.37890625 72.76953125 37.921875 -11.59765625 61.95703125 41.96484375 0.02734375 66.93359375 41.515625 0.03125 72.125 38.15234375 11.6640625 47.7890625 4.18359375 33.58984375 44.234375 10.5546875 35.4609375 52.06640625 18.6796875 32.77734375 58.48046875 17.3359375 31.56640625 57.5703125 20.77734375 30.49609375 62.33984375 21.29296875 28.18359375 60.296875 26.03515625 28.09375 69.73046875 26.69140625 24.45703125 68.203125 33.828125 20.296875 78.1796875 33.01171875 13.61328125 79.12109375 34.46875 5.4921875 51.3359375 -0.92578125 -30.765625 60.95703125 -2.25390625 -28.80078125 68.71875 -3.41015625 -26.2265625 73.0078125 -6.26171875 -22.65625 75.3046875 -2.9609375 -23.375 80.86328125 -3.38671875 -14.3984375 76.81640625 0.265625 -22.41015625 80.0625 -0.72265625 -14.39453125 75.8671875 2.171875 -20.81640625 75.03125 12.37890625 0.484375 72.42578125 10.70703125 11.0078125 64.17578125 10.2890625 16.84765625 63.0078125 8.25390625 6.29296875 53.34765625 5.1640625 18.3125 48.5546875 2.9296875 15.58203125 79.56640625 17.109375 -0.31640625 78.4296875 17.11328125 6.51953125 81.8671875 8.44921875 0.1328125 80.6328125 8.54296875 7.30859375 83.671875 8.98046875 0.14453125 82.375 9.14453125 7.83203125 82.73046875 10.59375 8.14453125 78.296875 10.73828125 16.05859375 77.44921875 17.1796875 16.14453125 76.39453125 14.74609375 19.4375 75.05859375 17.42578125 20.1640625 70.94921875 17.61328125 22.921875 54.9375 -5.40234375 -27.10546875 59.09765625 -9.9296875 -20.46875 62.25 -14.62109375 -11.453125 63.90625 -16.73046875 -8.390625 65.16796875 -19.25390625 -5 65.46484375 -20.52734375 0 78.77734375 22.06640625 19.0625 71.33984375 21.42578125 25.109375 82.0625 18.7265625 21.484375 73.02734375 17.9765625 26.4375 80.7578125 16.515625 21.8515625 71.9765625 15.7265625 26.41015625 68.92578125 14.96484375 25.421875 65.16015625 15.21875 29.17578125 81.89453125 15.3515625 -13.859375 84.61328125 16.30078125 -7.12890625 85.875 16.7578125 0.03125 88.28125 17.8046875 7.41796875 87.49609375 19.2109375 14.7109375 68.078125 9.8125 18.74609375 76.26171875 8.82421875 19.31640625 76.015625 10.51171875 14.30078125 78.26953125 9.41796875 15.203125 76.85546875 8.9296875 14.01171875 75.125 16.6640625 13.67578125 61.81640625 16.37109375 13.234375 59.72265625 15.53515625 0.484375 50.28125 12.7734375 0.484375 50.9921875 10.21875 -13.4296875 47.5078125 8.59375 -11.2734375 46.515625 6.19921875 -16.63671875 47.5078125 8.59375 12.24609375 50.9921875 10.21875 14.40234375 68.8203125 2.07421875 -28.9453125 60.27734375 13.921875 -33.6015625 60.46875 21.15625 -32.6328125 83.9296875 -3.6640625 -2.14453125 83.5625 -3.43359375 -4.3984375 84.1484375 -6.33203125 -2.10546875 83.77734375 -6.10546875 -4.359375 80.13671875 -12.359375 -2.09375 79.76953125 -12.1328125 -4.34765625 75.796875 -15.734375 -2.109375 75.4296875 -15.5078125 -4.359375 70.09765625 -18.37109375 -2.14453125 69.73046875 -18.140625 -4.3984375 71.8046875 27.5 -24.36328125 80.828125 19.89453125 -19.140625 83.03515625 25.18359375 -12.65234375 83.984375 21.52734375 -11.41015625 86.1328125 24.45703125 -2.1328125 86.57421875 22.51953125 -5.2109375 87.3359375 22.8515625 0.046875 74.22265625 -4.2421875 19.39453125 70.55859375 -2.89453125 22.6328125 65.359375 -1.23046875 25.4921875 65.90234375 5.70703125 24.7265625 59.42578125 6.859375 28.22265625 59.65625 8.28515625 27.37890625 58.4765625 7.17578125 21.93359375 68.12109375 -1.62890625 26.83984375 75.0390625 -3.578125 22.265625 75.30859375 -6.16015625 22.80078125 80.015625 -4.65625 15.19140625 80.81640625 -7.4375 14.72265625 83.2890625 -7.625 7.5390625 76.2421875 -11.47265625 13.87109375 80.49609375 -12.47265625 0.03125 74.7421875 -2.4296875 -13.21484375 69.51953125 -0.63671875 -18.9140625 74.41796875 0.6953125 -12.75390625 71.3359375 7.046875 -16.08203125 74.2890625 6.83203125 -13.45703125 75.4375 11.7890625 -15.28125 76.6875 6.90234375 -15.36328125 75.84375 7.1875 -17.50390625 76.50390625 -1.87109375 -14.921875 74.21875 -0.65625 -18.59765625 60.84765625 0.7109375 29.52734375 68.41796875 -4.0234375 27.8515625 72.23828125 -9.98046875 21.85546875 72.75 8.06640625 -20.8515625 72.5703125 10.22265625 -19.8515625 71.55859375 8.80859375 -15.984375 65.7109375 11.3203125 -18.56640625 58.875 10.109375 -21.90625 64.72265625 10.421875 -20.16796875 58.75390625 9.921875 -27.72265625 66.4921875 10.8125 -23.3828125 66.32421875 12.1015625 -24.265625 72.828125 10.703125 -20.3984375 73.5390625 11.90625 -20.90625 70.3984375 11.078125 -17.91015625 76.20703125 8.78515625 -19.70703125 71.3046875 4.7109375 -24.5546875 71.3359375 3.6171875 -26.84375 68.33203125 6.22265625 -29.4921875 66.109375 11.48828125 -30.33984375 85.9609375 17.2109375 14.6953125 83.1171875 15.9609375 13.9375 77.7109375 15.515625 21.01953125 40.66015625 20.16796875 34.79296875 40.046875 27.3046875 30.75 58.0703125 34.04296875 22.97265625 41.53125 33.4453125 22.34765625 56.90234375 38.41015625 12.9375 46.11328125 38.0390625 11.98828125 56.83984375 41.92578125 0.02734375 70.45703125 0.76953125 -21.98046875 65.453125 2.0859375 -25.64453125 66.4921875 10.7734375 -23.79296875 58.98046875 11.9140625 -26.05078125 59.2265625 13.19140625 -24.953125 59.8671875 11.4296875 -19.78125 59.04296875 9.67578125 20.63671875 58.87890625 9.9453125 25.546875 62.39453125 9.9453125 20.2578125 64.13671875 10.3359375 23.94921875 70.26953125 10.16015625 21.26171875 63.95703125 11.625 24.8515625 70.9765625 11.3671875 21.7890625 64.4609375 17.25 26.1953125 70.91796875 17.3671875 -22.97265625 64.45703125 17.1953125 -26.32421875 58.4375 11.16796875 -28.19140625 69.05859375 9.80859375 19.53125 77.2890625 1.3203125 -14.734375 78.99609375 -0.421875 -12.3203125 80.078125 -3.7421875 -8.828125 80.703125 -0.91796875 -8.375 81.5078125 -2.72265625 -4.6171875 78.29296875 -2.47265625 -3.890625 79.01171875 -1.8828125 -0.046875 82.9609375 -4.82421875 7.94921875 84.21484375 -6.86328125 0.03125 83.12109375 -5.39453125 -7.47265625 78.26953125 17.10546875 -7.0234375 79.8828125 8.71875 -6.88671875 76.1015625 10.48046875 -14 76.80078125 8.85546875 -13.4765625 78.35546875 9.38671875 -14.90625 81.625 9.328125 -7.77734375 78.39453125 10.703125 -15.7421875 81.98828125 10.7734375 -8.06640625 46.9453125 4.8984375 -17.3359375 41.53125 33.4453125 -22.34765625 56.90234375 38.87890625 -12.87890625 46.11328125 38.0390625 -11.98828125 50.05859375 43.26171875 0 66.02734375 7.61328125 24.0234375 66.62890625 12.54296875 -22.7421875 33.3203125 -45.9296875 27.3984375 43.78515625 -38.17578125 26.203125 48.8984375 -43.58984375 20.02734375 53.6875 -35.03125 19.75 52.6796875 -43.16796875 17.1796875 55.52734375 -42.67578125 13.65625 53.2734375 -48.546875 11.25 85.48828125 25.66015625 -1.3828125 83.94140625 29.48828125 -2.3515625 78.95703125 31.75 -13.203125 79.6875 34.02734375 -5.1171875 56.96484375 -23.04296875 -22.9140625 55.12890625 -27.80859375 -20.8515625 62.47265625 -23.36328125 -16.5859375 53.6875 -35.03125 -19.75 59.58203125 -33.66796875 -15.4140625 48.8984375 -43.58984375 -20.02734375 57.2578125 -42.28125 -11.1640625 76.33984375 14.70703125 -19.73828125 76.19921875 16.9375 -15.65234375 75.0078125 17.38671875 -20.2421875 84.05078125 -4.24609375 0.03125 82.79296875 -2.59375 -7.8828125 80.8515625 -2.2421875 8.46875 75.99609375 -0.59375 -9.9453125 77.57421875 -0.96484375 -6.96484375 63.953125 38.78515625 13.4375 58.5546875 11.19140625 26.47265625 58.5 16.66015625 28.12109375 60.2734375 11.33203125 29.40625 64.6015625 17.66015625 29.3828125 67.65625 -21.9609375 8.94140625 66.3203125 -27.16796875 1.7734375 60.8671875 -32.2890625 11.07421875 63.37109375 -32.66796875 0 57.2578125 -42.28125 11.1640625 60.09765625 -41.296875 0 62.58984375 -32.2890625 -8.55859375 72.42578125 10.70703125 -10.03515625 78.9453125 -5.14453125 -0.17578125 77.54296875 -3.8671875 -7.40234375 60.8828125 -14.05078125 -16.4375 54.53515625 -13.6171875 -28.71875 57.65234375 -15.77734375 -21.140625 53.890625 -20.54296875 -25.32421875 60.83203125 -16.6015625 15.41015625 58.10546875 -17.5625 21.3203125 54.53515625 -13.6171875 28.71875 54.2578125 -20.65625 26.0625 42.16796875 -23.3984375 32.37109375 40.04296875 -35.76171875 29.41796875 70.9140625 10.19921875 -18.6015625 50.68359375 -7.734375 29.1875 68.0859375 10.234375 -26.80078125 71.984375 11.8359375 -24.73828125 58.640625 -0.12890625 29.31640625 58.16015625 -0.28515625 24.70703125 33.3203125 -45.9296875 -27.3984375 43.78515625 -38.17578125 -26.203125 52.03125 -27.5859375 -21.984375 63.73046875 -1.5625 22.37890625 85.31640625 16.48046875 7.1953125 65.8828125 -27.53515625 -1.8515625 66.23046875 -23.19140625 -8.3046875 50.68359375 -7.734375 -29.1875 47.02734375 -13.39453125 -32.1640625 56.7265625 16.9453125 -26.52734375 63.11328125 17.47265625 -23.046875 69.59765625 17.04296875 -19.515625 58.6953125 5.62890625 30.20703125 56.61328125 16.22265625 -30.37890625 75.19921875 16.63671875 -13.09765625 80.859375 17.52734375 7.90234375 84.14453125 10.18359375 0.1640625 80.15234375 -5.30078125 8.7109375 81.58203125 -3.3828125 4.1875 77.73046875 13.84765625 -20.40625 67.57421875 -24.40234375 2.52734375 68.26171875 -21.65625 2.234375 69.08203125 6.8984375 -27.16796875 66.93359375 -24.70703125 -2.62890625 67.27734375 -21.90625 -2.36328125 40.04296875 -35.76171875 -29.41796875 42.16796875 -23.3984375 -32.390625 68.51171875 -23.79296875 1.70703125 69.05859375 -23.7578125 -0.0390625 66.453125 -27.1875 -0.01171875 63.9453125 14.05859375 27.59375 80.96875 16.7734375 -8.453125 75.859375 5.16015625 14.078125 64.40625 -22.57421875 17.3515625 82.3125 -2.25 -0.09375 81.69921875 -5.3046875 -0.1171875 58.12890625 2.07421875 -22.94140625 64.1328125 0.6875 -21.3125 56.96484375 3.328125 -28.36328125 63.14453125 17.51953125 22.91796875 69.65625 17.0859375 19.41015625 58.6484375 17.375 23.796875 82.2109375 17.5859375 -0.36328125 58.84375 -22.4375 23.8515625 56.859375 -28.82421875 21.2734375 52.73828125 -28.1640625 22.4765625 68.0703125 -24.36328125 -1.80078125 67.8203125 -21.3984375 -0.01171875 47.02734375 -13.39453125 32.1640625</float_array>
                    <technique_common>
                        <accessor count="400" source="#pointarray1" stride="3">
                            <param name="X" type="float"/>
                            <param name="Y" type="float"/>
                            <param name="Z" type="float"/>
                        </accessor>
                    </technique_common>
                </source>
                <source id="uvs1">
                    <float_array id="uvarray1" count="708">0.4844970703125 0.99658203125 0.45440673828125 0.997802734375 0.43011474609375 0.99761962890625 0.43011474609375 0.997802734375 0.45458984375 0.997802734375 0.43011474609375 0.9971923828125 0.44610595703125 0.9971923828125 0.4466552734375 0.9945068359375 0.47821044921875 0.996337890625 0.48687744140625 0.99334716796875 0.49761962890625 0.99334716796875 0.494140625 0.97259521484375 0.494873046875 0.99334716796875 0.49163818359375 0.97259521484375 0.47076416015625 0.97259521484375 0.474609375 0.9503173828125 0.43011474609375 0.9398193359375 0.43011474609375 0.937255859375 0.47442626953125 0.9503173828125 0.47637939453125 0.9482421875 0.491455078125 0.97259521484375 0.49395751953125 0.97259521484375 0.49468994140625 0.99334716796875 0.4974365234375 0.99334716796875 0.4866943359375 0.99664306640625 0.4459228515625 0.9971923828125 0.44647216796875 0.9945068359375 0.43011474609375 0.99517822265625 0.43011474609375 0.97259521484375 0.44879150390625 0.97259521484375 0.48223876953125 0.97259521484375 0.4765625 0.9482421875 0.145751953125 0.90203857421875 0.18743896484375 0.9110107421875 0.194091796875 0.882568359375 0.22119140625 0.93017578125 0.25775146484375 0.9217529296875 0.25750732421875 0.949951171875 0.29302978515625 0.92578125 0.29034423828125 0.98095703125 0.3260498046875 0.91259765625 0.35833740234375 0.95111083984375 0.36663818359375 0.90380859375 0.39666748046875 0.93212890625 0.3828125 0.87176513671875 0.43829345703125 0.904296875 0.41375732421875 0.87158203125 0.47052001953125 0.87225341796875 0.4132080078125 0.8367919921875 0.44573974609375 0.82733154296875 0.41741943359375 0.81048583984375 0.44769287109375 0.788330078125 0.42578125 0.787109375 0.419189453125 0.78338623046875 0.5379638671875 0.6749267578125 0.54351806640625 0.6962890625 0.53228759765625 0.697021484375 0.53704833984375 0.7177734375 0.5318603515625 0.74346923828125 0.54486083984375 0.74285888671875 0.53155517578125 0.7852783203125 0.56988525390625 0.78314208984375 0.59637451171875 0.82598876953125 0.5948486328125 0.78228759765625 0.5748291015625 0.783203125 0.58233642578125 0.75799560546875 0.56231689453125 0.76055908203125 0.56878662109375 0.74224853515625 0.537109375 0.7178955078125 0.08551025390625 0.7314453125 0.09844970703125 0.7352294921875 0.10528564453125 0.7286376953125 0.15838623046875 0.7723388671875 0.16253662109375 0.7603759765625 0.18798828125 0.78558349609375 0.195068359375 0.7713623046875 0.22210693359375 0.7977294921875 0.2259521484375 0.7799072265625 0.257568359375 0.80657958984375 0.2578125 0.78729248046875 0.287841796875 0.79083251953125 0.28509521484375 0.7705078125 0.31103515625 0.7708740234375 0.26837158203125 0.7432861328125 0.3111572265625 0.73931884765625 0.26446533203125 0.72857666015625 0.26812744140625 0.70556640625 0.02740478515625 0.84051513671875 0.0631103515625 0.82708740234375 0.01458740234375 0.80615234375 0.0570068359375 0.7880859375 0.0123291015625 0.75201416015625 0.0526123046875 0.74810791015625 0.02587890625 0.714111328125 0.087158203125 0.712158203125 0.12579345703125 0.68896484375 0.1571044921875 0.7076416015625 0.18426513671875 0.6688232421875 0.1971435546875 0.68621826171875 0.25653076171875 0.64447021484375 0.257080078125 0.67633056640625 0.31695556640625 0.6788330078125 0.485595703125 0.84051513671875 0.49420166015625 0.80615234375 0.45098876953125 0.762939453125 0.4146728515625 0.77264404296875 0.41375732421875 0.75537109375 0.39599609375 0.7607421875 0.4017333984375 0.73101806640625 0.3656005859375 0.73443603515625 0.3507080078125 0.7010498046875 0.315185546875 0.70989990234375 0.28094482421875 0.6925048828125 0.046142578125 0.8739013671875 0.09527587890625 0.8651123046875 0.1270751953125 0.866943359375 0.15216064453125 0.87030029296875 0.149169921875 0.84600830078125 0.18896484375 0.8450927734375 0.1478271484375 0.8173828125 0.18267822265625 0.8363037109375 0.14593505859375 0.8092041015625 0.43011474609375 0.947265625 0.46875 0.956298828125 0.4820556640625 0.97259521484375 0.44854736328125 0.97259521484375 0.4866943359375 0.99334716796875 0.47802734375 0.996337890625 0.53240966796875 0.65618896484375 0.53173828125 0.69830322265625 0.57025146484375 0.6585693359375 0.58355712890625 0.69793701171875 0.56109619140625 0.6580810546875 0.5728759765625 0.69854736328125 0.568115234375 0.6983642578125 0.56939697265625 0.7392578125 0.53131103515625 0.740478515625 0.5491943359375 0.75494384765625 0.53118896484375 0.76495361328125 0.531005859375 0.78802490234375 0.07513427734375 0.90478515625 0.11444091796875 0.9312744140625 0.15716552734375 0.952880859375 0.20147705078125 0.9654541015625 0.2265625 0.98370361328125 0.25701904296875 0.99188232421875 0.34051513671875 0.76885986328125 0.3782958984375 0.76617431640625 0.34539794921875 0.790771484375 0.38177490234375 0.78179931640625 0.3555908203125 0.805419921875 0.38836669921875 0.794921875 0.38958740234375 0.80474853515625 0.40374755859375 0.78912353515625 0.18548583984375 0.794189453125 0.22015380859375 0.80621337890625 0.257080078125 0.816162109375 0.29156494140625 0.81005859375 0.31719970703125 0.79266357421875 0.570556640625 0.78375244140625 0.5836181640625 0.7568359375 0.57427978515625 0.73931884765625 0.58514404296875 0.73907470703125 0.4705810546875 0.97259521484375 0.43011474609375 0.99334716796875 0.4744873046875 0.99334716796875 0.4676513671875 0.9954833984375 0.48468017578125 0.99658203125 0.46746826171875 0.9954833984375 0.47430419921875 0.99334716796875 0.1175537109375 0.8260498046875 0.085205078125 0.7830810546875 0.06494140625 0.74298095703125 0.68377685546875 0.319580078125 0.6800537109375 0.319580078125 0.68377685546875 0.33050537109375 0.6800537109375 0.33050537109375 0.68377685546875 0.3414306640625 0.6800537109375 0.3414306640625 0.68377685546875 0.35235595703125 0.6800537109375 0.35235595703125 0.68377685546875 0.36328125 0.6800537109375 0.36328125 0.142822265625 0.73077392578125 0.17059326171875 0.750732421875 0.20123291015625 0.73895263671875 0.20550537109375 0.757080078125 0.245849609375 0.7432861328125 0.23004150390625 0.761962890625 0.25714111328125 0.76776123046875 0.53173828125 0.76287841796875 0.5313720703125 0.82769775390625 0.57073974609375 0.828125 0.571533203125 0.873291015625 0.5767822265625 0.8729248046875 0.57586669921875 0.884765625 0.394775390625 0.8421630859375 0.35687255859375 0.85626220703125 0.3543701171875 0.8631591796875 0.3314208984375 0.86224365234375 0.3228759765625 0.86871337890625 0.2926025390625 0.87078857421875 0.320556640625 0.88653564453125 0.25799560546875 0.89337158203125 0.56878662109375 0.74908447265625 0.53314208984375 0.76287841796875 0.41143798828125 0.832763671875 0.3919677734375 0.85040283203125 0.3524169921875 0.8770751953125 0.6005859375 0.87286376953125 0.59814453125 0.8267822265625 0.577880859375 0.8736572265625 0.576904296875 0.8289794921875 0.57171630859375 0.828857421875 0.575927734375 0.78387451171875 0.57098388671875 0.7838134765625 0.1263427734375 0.78924560546875 0.1231689453125 0.7939453125 0.0887451171875 0.7633056640625 0.07574462890625 0.74005126953125 0.32513427734375 0.81024169921875 0.32861328125 0.81964111328125 0.358642578125 0.81549072265625 0.4981689453125 0.74761962890625 0.48681640625 0.71044921875 0.38018798828125 0.686279296875 0.44140625 0.64947509765625 0.33734130859375 0.64031982421875 0.36492919921875 0.59539794921875 0.25665283203125 0.60614013671875 0.531005859375 0.83172607421875 0.572509765625 0.8740234375 0.5770263671875 0.8907470703125 0.5965576171875 0.78094482421875 0.5439453125 0.6962890625 0.53790283203125 0.67474365234375 0.535400390625 0.67462158203125 0.5379638671875 0.656494140625 0.2978515625 0.8653564453125 0.25762939453125 0.8704833984375 0.22137451171875 0.86041259765625 0.5728759765625 0.70013427734375 0.57940673828125 0.699951171875 0.48687744140625 0.99664306640625 0.05157470703125 0.6636962890625 0.172607421875 0.641845703125 0.14019775390625 0.5966796875 0.257080078125 0.57562255859375 0.5760498046875 0.82806396484375 0.5987548828125 0.8721923828125 0.7147216796875 0.99688720703125 0.72869873046875 0.918212890625 0.79156494140625 0.9793701171875 0.8017578125 0.94317626953125 0.81634521484375 0.97406005859375 0.84918212890625 0.96905517578125 0.842041015625 0.99786376953125 0.249755859375 0.73028564453125 0.2459716796875 0.7109375 0.1971435546875 0.71484375 0.233154296875 0.69677734375 0.79840087890625 0.86590576171875 0.801513671875 0.90496826171875 0.85040283203125 0.8477783203125 0.80462646484375 0.9425048828125 0.845947265625 0.92840576171875 0.87640380859375 0.9671630859375 0.257080078125 0.8658447265625 0.21624755859375 0.85382080078125 0.53985595703125 0.69659423828125 0.5340576171875 0.71807861328125 0.53936767578125 0.74322509765625 0.539306640625 0.742919921875 0.5401611328125 0.6966552734375 0.3272705078125 0.66595458984375 0.5308837890625 0.8775634765625 0.41864013671875 0.78582763671875 0.41815185546875 0.788330078125 0.398193359375 0.7772216796875 0.92431640625 0.83740234375 0.97540283203125 0.87530517578125 0.88665771484375 0.91436767578125 0.992431640625 0.9166259765625 0.876953125 0.9671630859375 0.992431640625 0.9571533203125 0.88720703125 0.91424560546875 0.46893310546875 0.956298828125 0.54351806640625 0.65643310546875 0.53314208984375 0.65576171875 0.8629150390625 0.72125244140625 0.76837158203125 0.68914794921875 0.81689453125 0.72515869140625 0.714111328125 0.7249755859375 0.7789306640625 0.75128173828125 0.7562255859375 0.79644775390625 0.81695556640625 0.72515869140625 0.77899169921875 0.75128173828125 0.714111328125 0.72491455078125 0.75994873046875 0.82177734375 0.66131591796875 0.81475830078125 0.687255859375 0.9073486328125 0.72271728515625 0.65985107421875 0.6759033203125 0.681884765625 0.08599853515625 0.7352294921875 0.09283447265625 0.7432861328125 0.098388671875 0.7388916015625 0.5504150390625 0.749267578125 0.56878662109375 0.74884033203125 0.53125 0.87872314453125 0.53106689453125 0.8909912109375 0.77471923828125 0.87969970703125 0.53125 0.87860107421875 0.5313720703125 0.82757568359375 0.2939453125 0.81976318359375 0.92437744140625 0.83740234375 0.65447998046875 0.73406982421875 0.414794921875 0.810546875 0.53070068359375 0.893310546875 0.5654296875 0.65789794921875 0.15545654296875 0.77972412109375 0.9669189453125 0.85467529296875 0.9583740234375 0.83251953125 0.09442138671875 0.74993896484375 0.95843505859375 0.83245849609375 0.7720947265625 0.87152099609375 0.97613525390625 0.68218994140625 0.99749755859375 0.67926025390625 0.962646484375 0.7210693359375 0.99749755859375 0.7186279296875 0.40386962890625 0.79656982421875 0.53173828125 0.69989013671875 0.58355712890625 0.69952392578125 0.58355712890625 0.7015380859375 0.57763671875 0.6998291015625 0.8502197265625 0.8505859375 0.57086181640625 0.66363525390625 0.53240966796875 0.6611328125 0.54345703125 0.656005859375 0.532958984375 0.65576171875 0.5325927734375 0.6563720703125 0.53271484375 0.6563720703125 0.5706787109375 0.78375244140625 0.5433349609375 0.656005859375 0.992431640625 0.87286376953125 0.797607421875 0.86663818359375 0.7996826171875 0.9053955078125 0.7738037109375 0.8798828125 0.97613525390625 0.68212890625 0.961669921875 0.66888427734375 0.997314453125 0.66595458984375 0.96160888671875 0.66888427734375 0.958740234375 0.687255859375 0.53173828125 0.701904296875 0.53985595703125 0.6966552734375</float_array>
                    <technique_common>
                        <accessor count="354" source="#uvarray1" stride="2">
                            <param name="S" type="float"/>
                            <param name="T" type="float"/>
                        </accessor>
                    </technique_common>
                </source>
                <vertices id="vertices1">
                    <input semantic="POSITION" source="#points1"/>
                </vertices>
                <polylist count="632" material="Material1">
                    <input offset="0" semantic="VERTEX" source="#vertices1"/>
                    <input offset="1" semantic="TEXCOORD" source="#uvs1" set="0"/>
                    <vcount>3 3 3 3 3 3 3 3 3 3 3 3 3 3 3 3 3 3 3 3 3 3 3 3 3 3 3 3 3 3 3 3 3 3 3 3 3 3 3 3 3 3 3 3 3 3 3 3 3 3 3 3 3 3 3 3 3 3 3 3 3 3 3 3 3 3 3 3 3 3 3 3 3 3 3 3 3 3 3 3 3 3 3 3 3 3 3 3 3 3 3 3 3 3 3 3 3 3 3 3 3 3 3 3 3 3 3 3 3 3 3 3 3 3 3 3 3 3 3 3 3 3 3 3 3 3 3 3 3 3 3 3 3 3 3 3 3 3 3 3 3 3 3 3 3 3 3 3 3 3 3 3 3 3 3 3 3 3 3 3 3 3 3 3 3 3 3 3 3 3 3 3 3 3 3 3 3 3 3 3 3 3 3 3 3 3 3 3 3 3 3 3 3 3 3 3 3 3 3 3 3 3 3 3 3 3 3 3 3 3 3 3 3 3 3 3 3 3 3 3 3 3 3 3 3 3 3 3 3 3 3 3 3 3 3 3 3 3 3 3 3 3 3 3 3 3 3 3 3 3 3 3 3 3 3 3 3 3 3 3 3 3 3 3 3 3 3 3 3 3 3 3 3 3 3 3 3 3 3 3 3 3 3 3 3 3 3 3 3 3 3 3 3 3 3 3 3 3 3 3 3 3 3 3 3 3 3 3 3 3 3 3 3 3 3 3 3 3 3 3 3 3 3 3 3 3 3 3 3 3 3 3 3 3 3 3 3 3 3 3 3 3 3 3 3 3 3 3 3 3 3 3 3 3 3 3 3 3 3 3 3 3 3 3 3 3 3 3 3 3 3 3 3 3 3 3 3 3 3 3 3 3 3 3 3 3 3 3 3 3 3 3 3 3 3 3 3 3 3 3 3 3 3 3 3 3 3 3 3 3 3 3 3 3 3 3 3 3 3 3 3 3 3 3 3 3 3 3 3 3 3 3 3 3 3 3 3 3 3 3 3 3 3 3 3 3 3 3 3 3 3 3 3 3 3 3 3 3 3 3 3 3 3 3 3 3 3 3 3 3 3 3 3 3 3 3 3 3 3 3 3 3 3 3 3 3 3 3 3 3 3 3 3 3 3 3 3 3 3 3 3 3 3 3 3 3 3 3 3 3 3 3 3 3 3 3 3 3 3 3 3 3 3 3 3 3 3 3 3 3 3 3 3 3 3 3 3 3 3 3 3 3 3 3 3 3 3 3 3 3 3 3 3 3 3 3 3 3 3 3 3 3 3 3 3 3 3 3 3 3 3 3 3 3 3 3 3 3 3 3 3 3 3 3 3 3 3 3 3 3 3 3 3 3 3 3 3 3 3 3 3 3 3 3 3 3 3 3 3 3 3 3 3 3 3 3 3 3 3 3 3 3 3 3 3 3 3 3 3 3 3 3</vcount>
                    <p>2 2 1 1 0 0 3 3 1 1 2 2 4 4 3 3 2 2 5 5 3 3 4 4 6 6 5 5 4 4 7 7 5 5 6 6 8 8 7 7 6 6 9 9 7 7 8 8 10 10 9 9 8 8 11 11 9 9 10 10 12 12 11 11 10 10 13 13 11 11 12 12 14 14 13 13 12 12 15 15 13 13 14 14 16 16 15 15 14 14 17 17 15 15 16 16 18 18 17 17 16 16 19 19 17 17 18 18 20 20 19 19 18 18 21 21 19 19 20 20 22 22 21 21 20 20 23 23 21 21 22 22 0 0 23 23 22 22 24 24 23 23 0 0 1 1 24 24 0 0 25 25 24 24 1 1 5 5 25 25 1 1 26 26 25 25 5 5 27 27 26 26 5 5 28 28 26 26 27 27 7 7 28 28 27 27 29 29 28 28 7 7 9 9 29 29 7 7 30 30 29 29 9 9 11 11 30 30 9 9 31 31 30 30 11 11 13 13 31 31 11 11 15 15 31 31 13 13 34 34 33 33 32 32 35 35 33 33 34 34 36 36 35 35 34 34 37 37 35 35 36 36 38 38 37 37 36 36 39 39 37 37 38 38 40 40 39 39 38 38 41 41 39 39 40 40 42 42 41 41 40 40 43 43 41 41 42 42 44 44 43 43 42 42 45 45 43 43 44 44 46 46 45 45 44 44 47 47 45 45 46 46 48 48 47 47 46 46 49 49 47 47 48 48 50 50 49 49 48 48 51 51 49 49 50 50 52 52 51 51 50 50 53 53 51 51 52 52 56 56 55 55 54 54 57 57 55 55 56 56 58 58 57 57 56 56 59 59 57 57 58 58 60 60 59 59 58 58 61 61 59 59 60 60 62 62 61 61 60 60 63 63 61 61 62 62 64 64 63 63 62 62 61 61 63 63 64 64 65 61 61 61 64 64 66 65 61 61 65 61 67 66 66 65 65 61 68 67 66 65 67 66 69 58 68 67 67 66 70 59 68 67 69 58 71 68 70 59 69 58 74 71 73 70 72 69 75 72 73 70 74 71 76 73 75 72 74 71 77 74 75 72 76 73 78 75 77 74 76 73 79 76 77 74 78 75 80 77 79 76 78 75 81 78 79 76 80 77 82 79 81 78 80 77 83 80 81 78 82 79 84 81 83 80 82 79 85 82 83 80 84 81 86 83 85 82 84 81 87 84 85 82 86 83 88 85 87 84 86 83 89 86 87 84 88 85 92 89 91 88 90 87 93 90 91 88 92 89 94 91 93 90 92 89 95 92 93 90 94 91 96 93 95 92 94 91 97 94 95 92 96 93 98 95 97 94 96 93 99 96 97 94 98 95 100 97 99 96 98 95 101 98 99 96 100 97 102 99 101 98 100 97 103 100 101 98 102 99 104 101 103 100 102 99 49 49 105 102 47 47 106 103 105 102 49 49 51 51 106 103 49 49 107 104 106 103 51 51 108 105 107 104 51 51 109 106 107 104 108 105 110 107 109 106 108 105 111 108 109 106 110 107 112 109 111 108 110 107 113 110 111 108 112 109 114 111 113 110 112 109 104 101 113 110 114 111 115 112 104 101 114 111 91 88 116 113 90 87 117 114 116 113 91 88 118 115 117 114 91 88 32 32 117 114 118 115 119 116 32 32 118 115 34 34 32 32 119 116 120 117 34 34 119 116 121 118 34 34 120 117 122 119 121 118 120 117 123 120 121 118 122 119 124 121 123 120 122 119 17 17 31 31 15 15 125 122 31 31 17 17 19 19 125 122 17 17 126 123 125 122 19 19 127 124 126 123 19 19 128 125 126 123 127 124 129 126 128 125 127 124 26 26 128 125 129 126 130 127 26 26 129 126 25 25 26 26 130 127 24 24 25 25 130 127 133 130 132 129 131 128 134 131 132 129 133 130 135 132 134 131 133 130 136 133 134 131 135 132 137 134 136 133 135 132 138 135 136 133 137 134 139 136 138 135 137 134 140 137 138 135 139 136 141 138 140 137 139 136 142 139 140 137 141 138 32 32 144 141 143 140 145 142 144 141 32 32 33 33 145 142 32 32 146 143 145 142 33 33 35 35 146 143 33 33 147 144 146 143 35 35 37 37 147 144 35 35 148 145 147 144 37 37 39 39 148 145 37 37 112 109 87 84 114 111 149 146 87 84 112 109 150 147 149 146 112 109 151 148 149 146 150 147 152 149 151 148 150 147 153 150 151 148 152 149 154 151 153 150 152 149 155 152 153 150 154 151 156 153 155 152 154 151 77 74 157 154 75 72 158 155 157 154 77 74 79 76 158 155 77 74 159 156 158 155 79 76 81 78 159 156 79 76 160 157 159 156 81 78 83 80 160 157 81 78 161 158 160 157 83 80 85 82 161 158 83 80 164 135 163 160 162 159 138 135 163 160 164 135 165 161 138 135 164 135 136 133 138 135 165 161 166 162 136 133 165 161 134 131 136 133 166 162 164 135 134 131 166 162 132 129 134 131 164 135 167 136 132 129 164 135 16 16 168 163 18 18 169 28 168 163 16 16 14 14 169 28 16 16 170 164 169 28 14 14 171 165 170 164 14 14 172 166 170 164 171 165 173 167 172 166 171 165 2 2 172 166 173 167 4 4 2 2 173 167 2 2 170 164 172 166 174 168 170 164 2 2 0 0 174 168 2 2 175 169 174 168 0 0 22 22 175 169 0 0 168 163 175 169 22 22 20 20 168 163 22 22 18 18 168 163 20 20 118 115 120 117 119 116 176 170 120 117 118 115 91 88 176 170 118 115 177 171 176 170 91 88 93 90 177 171 91 88 178 172 177 171 93 90 95 92 178 172 93 90 97 94 178 172 95 92 181 175 180 174 179 173 182 176 180 174 181 175 183 177 182 176 181 175 184 178 182 176 183 177 185 179 184 178 183 177 186 180 184 178 185 179 187 181 186 180 185 179 188 182 186 180 187 181 178 172 72 69 177 171 74 71 72 69 178 172 189 183 74 71 178 172 190 184 74 71 189 183 191 185 190 184 189 183 192 186 190 184 191 185 193 187 192 186 191 185 194 188 192 186 193 187 190 184 76 73 74 71 78 75 76 73 190 184 192 186 78 75 190 184 80 77 78 75 192 186 194 188 80 77 192 186 82 79 80 77 194 188 195 189 82 79 194 188 84 81 82 79 195 189 67 66 196 190 69 58 197 60 196 190 67 66 65 61 197 60 67 66 198 191 197 60 65 61 199 192 198 191 65 61 200 193 198 191 199 192 201 194 200 193 199 192 202 195 200 193 201 194 205 198 204 197 203 196 206 199 204 197 205 198 207 200 206 199 205 198 208 201 206 199 207 200 209 202 208 201 207 200 210 203 208 201 209 202 36 36 210 203 209 202 34 34 210 203 36 36 213 59 212 60 211 58 214 61 212 60 213 59 215 204 214 61 213 59 216 65 214 61 215 204 217 67 216 65 215 204 218 66 216 65 217 67 219 58 218 66 217 67 220 205 218 66 219 58 48 48 221 206 50 50 203 196 221 206 48 48 222 207 203 196 48 48 205 198 203 196 222 207 44 44 205 198 222 207 223 208 205 198 44 44 42 42 223 208 44 44 40 40 223 208 42 42 224 61 216 65 218 66 214 61 216 65 224 61 225 64 214 61 224 61 226 63 214 61 225 64 227 62 226 63 225 64 214 61 226 63 227 62 212 60 214 61 227 62 230 211 229 210 228 209 231 212 229 210 230 211 232 213 231 212 230 211 233 214 231 212 232 213 234 159 233 214 232 213 235 215 233 214 234 159 236 160 235 215 234 159 122 119 237 216 124 121 238 217 237 216 122 119 176 170 238 217 122 119 239 218 238 217 176 170 177 171 239 218 176 170 240 219 239 218 177 171 72 69 240 219 177 171 149 146 85 82 87 84 161 158 85 82 149 146 151 148 161 158 149 146 241 220 161 158 151 148 153 150 241 220 151 148 242 221 241 220 153 150 243 222 242 221 153 150 111 108 244 223 109 106 245 224 244 223 111 108 246 225 245 224 111 108 247 226 245 224 246 225 248 227 247 226 246 225 249 228 247 226 248 227 250 229 249 228 248 227 251 60 218 66 220 205 224 61 218 66 251 60 252 191 224 61 251 60 253 192 224 61 252 191 254 193 253 192 252 191 255 194 253 192 254 193 256 195 255 194 254 193 259 210 258 211 257 209 260 212 258 211 259 210 261 214 260 212 259 210 262 213 260 212 261 214 263 159 262 213 261 214 264 230 262 213 263 159 142 139 264 230 263 159 234 159 265 139 236 160 266 230 265 139 234 159 232 213 266 230 234 159 267 231 266 230 232 213 230 211 267 231 232 213 228 232 267 231 230 211 263 159 163 160 142 139 162 215 163 160 263 159 261 214 162 215 263 159 268 233 162 215 261 214 259 210 268 233 261 214 162 215 268 233 259 210 270 68 219 58 269 59 271 56 219 58 270 68 272 234 271 56 270 68 273 235 271 56 272 234 274 236 273 235 272 234 275 237 273 235 274 236 208 201 276 238 206 199 277 239 276 238 208 201 210 203 277 239 208 201 278 240 277 239 210 203 34 34 278 240 210 203 121 118 278 240 34 34 281 135 280 131 279 129 282 162 280 131 281 135 283 161 282 162 281 135 284 241 282 162 283 161 285 135 284 241 283 161 286 242 284 241 285 135 12 12 171 165 14 14 173 167 171 165 12 12 10 10 173 167 12 12 287 243 173 167 10 10 8 8 287 243 10 10 6 6 287 243 8 8 288 244 98 95 96 93 289 245 98 95 288 244 290 246 289 245 288 244 250 229 289 245 290 246 291 247 250 229 290 246 249 228 250 229 291 247 64 64 199 192 65 61 292 248 199 192 64 64 62 62 292 248 64 64 201 194 292 248 62 62 202 249 201 194 62 62 253 192 225 64 224 61 293 248 225 64 253 192 255 194 293 248 253 192 227 62 293 248 255 194 256 249 227 62 255 194 296 252 295 251 294 250 297 253 295 251 296 252 298 254 297 253 296 252 299 255 297 253 298 254 300 256 299 255 298 254 191 185 301 257 193 187 302 258 301 257 191 185 303 259 302 258 191 185 304 260 302 258 303 259 101 98 304 260 303 259 307 263 306 262 305 261 308 264 306 262 307 263 309 265 308 264 307 263 310 252 308 264 309 265 311 266 310 252 309 265 236 160 281 135 235 159 285 135 281 135 236 160 312 137 285 135 236 160 313 136 285 135 312 137 314 138 313 136 312 137 277 239 315 267 276 238 316 268 315 267 277 239 278 240 316 268 277 239 123 120 316 268 278 240 121 118 123 120 278 240 21 21 127 124 19 19 129 126 127 124 21 21 23 23 129 126 21 21 130 127 129 126 23 23 24 24 130 127 23 23 57 270 317 234 55 269 71 57 317 234 57 270 59 271 71 57 57 270 70 59 71 57 59 271 318 68 269 59 213 272 270 57 269 59 318 68 319 273 270 57 318 68 272 55 270 57 319 273 113 110 246 225 111 108 320 274 246 225 113 110 104 101 320 274 113 110 102 99 320 274 104 101 262 213 258 211 260 212 321 231 258 211 262 213 264 230 321 231 262 213 322 275 321 231 264 230 320 274 248 227 246 225 250 229 248 227 320 274 102 99 250 229 320 274 100 97 250 229 102 99 53 53 108 105 51 51 156 153 108 105 53 53 52 276 156 153 53 53 323 277 156 153 52 276 110 107 150 147 112 109 324 278 150 147 110 107 108 105 324 278 110 107 156 153 324 278 108 105 327 281 326 280 325 279 328 282 326 280 327 281 329 283 328 282 327 281 330 284 328 282 329 283 311 266 328 282 330 284 331 285 328 282 311 266 309 265 331 285 311 266 307 263 331 285 309 265 29 29 125 122 28 28 332 286 125 122 29 29 30 30 332 286 29 29 31 31 332 286 30 30 274 54 333 288 275 287 334 56 333 288 274 54 319 55 334 56 274 54 318 57 334 56 319 55 335 291 144 290 145 289 336 292 144 290 335 291 337 293 336 292 335 291 338 294 336 292 337 293 341 297 340 296 339 295 342 298 340 296 341 297 343 299 342 298 341 297 344 300 342 298 343 299 233 214 229 210 231 212 345 233 229 210 233 214 235 215 345 233 233 214 229 210 345 233 235 215 43 290 339 295 41 289 341 297 339 295 43 290 45 301 341 297 43 290 346 302 341 297 45 301 209 202 38 38 36 36 40 40 38 38 209 202 223 208 40 40 209 202 73 70 240 219 72 303 347 304 240 219 73 70 348 305 347 304 73 70 269 59 215 307 213 306 217 67 215 307 269 59 219 58 217 67 269 59 200 193 349 308 198 191 350 309 349 308 200 193 202 195 350 309 200 193 352 251 310 252 351 250 308 264 310 252 352 251 353 310 308 264 352 251 62 62 350 311 202 193 354 312 350 311 62 62 60 60 354 312 62 62 324 278 152 149 150 147 154 151 152 149 324 278 156 153 154 151 324 278 160 157 355 313 159 156 241 220 355 313 160 157 161 158 241 220 160 157 331 285 356 280 328 282 357 314 356 280 331 285 307 263 357 314 331 285 336 292 143 301 144 290 358 302 143 301 336 292 359 315 358 302 336 292 229 213 360 275 228 231 361 230 360 275 229 213 362 139 361 230 229 213 50 50 323 277 52 52 363 316 323 277 50 50 221 206 363 316 50 50 267 231 364 275 266 230 360 317 364 275 267 231 228 232 360 317 267 231 281 135 362 139 235 215 365 136 362 139 281 135 279 129 365 136 281 135 128 125 125 122 126 123 28 28 125 122 128 125 26 26 28 28 128 125 189 183 303 259 191 185 99 96 303 259 189 183 97 94 99 96 189 183 137 134 366 129 139 136 367 318 366 129 137 134 135 132 367 318 137 134 368 56 71 68 69 58 317 234 71 68 368 56 369 54 317 234 368 56 75 72 348 305 73 70 370 319 348 305 75 72 157 154 370 319 75 72 170 164 168 163 169 28 175 169 168 163 170 164 174 168 175 169 170 164 371 320 325 279 326 280 372 321 325 279 371 320 238 217 373 322 237 216 239 218 373 322 238 217 357 314 374 320 356 280 375 323 374 320 357 314 115 112 87 84 89 86 114 111 87 84 115 112 347 304 239 218 240 219 373 322 239 218 347 304 376 300 338 294 353 324 377 299 338 294 376 300 326 327 379 326 378 325 380 328 379 326 326 327 381 329 156 153 323 277 155 152 156 153 381 329 222 207 46 46 44 44 48 48 46 46 222 207 382 330 285 135 313 136 286 242 285 135 382 330 209 202 205 198 223 208 207 200 205 198 209 202 265 139 312 137 236 160 314 138 312 137 265 139 68 67 383 307 66 65 70 59 383 307 68 67 286 333 280 332 284 331 382 330 280 332 286 333 384 334 327 281 325 279 297 253 327 281 384 334 327 281 299 255 329 283 297 253 299 255 327 281 133 335 367 318 135 130 131 336 367 318 133 335 386 338 273 235 385 337 271 56 273 235 386 338 386 339 369 54 368 56 385 287 369 54 386 339 61 61 383 307 59 59 66 65 383 307 61 61 318 57 211 58 334 56 213 59 211 58 318 57 333 340 54 54 275 287 56 56 54 54 333 340 287 243 4 4 173 167 6 6 4 4 287 243 387 311 227 62 256 193 388 312 227 62 387 311 389 308 254 193 252 191 387 309 254 193 389 308 140 137 163 160 138 135 142 139 163 160 140 137 391 139 259 213 390 230 162 341 259 213 391 139 392 275 259 213 257 231 390 230 259 213 392 275 393 128 367 318 131 336 366 129 367 318 393 128 392 317 321 231 322 275 257 232 321 231 392 317 275 237 385 342 273 235 54 236 385 342 275 237 380 343 328 282 356 280 326 280 328 282 380 343 54 236 369 235 385 342 55 269 369 235 54 236 395 345 384 334 394 344 297 253 384 334 395 345 164 135 391 139 167 136 162 215 391 139 164 135 344 300 396 346 342 298 295 251 396 346 344 300 356 327 379 326 380 328 397 347 379 326 356 327 375 348 379 326 397 347 398 349 379 326 375 348 372 350 379 326 398 349 378 347 379 326 372 350 107 104 244 223 106 103 109 106 244 223 107 104 377 299 336 292 338 294 359 315 336 292 377 299 289 245 100 97 98 95 250 229 100 97 289 245 117 114 143 140 116 113 32 32 143 140 117 114 399 315 341 297 346 302 343 299 341 297 399 315 227 62 225 64 293 248 227 62 388 312 212 60 254 193 387 309 256 195 295 251 297 253 396 346 125 122 332 286 31 31 1 1 3 3 5 5 7 7 27 27 5 5 397 325 374 351 375 350 164 135 166 162 165 161 372 350 371 351 378 325 282 162 284 241 280 331 229 213 235 341 362 139 281 135 285 135 283 161 356 327 374 351 397 325 280 332 382 330 279 352 199 192 292 248 201 194 99 96 101 98 303 259 321 231 257 232 258 211 70 59 59 306 383 307 352 251 376 300 353 310 272 234 319 353 274 236 155 152 243 222 153 150 355 313 241 220 242 221 189 183 178 172 97 94 369 235 55 269 317 55 371 351 326 327 378 325 122 119 120 117 176 170</p>
                </polylist>
            </mesh>
        </geometry>
        <geometry id="mesh2">
            <mesh>
                <source id="points2">
                    <float_array id="pointarray2" count="384">86.5546875 24.45703125 2.22265625 85.6328125 25.98828125 1.6171875 86.07421875 26.3046875 0.03125 83.32421875 30.49609375 2.41796875 82.8828125 34.82421875 -0.05078125 79.12109375 34.46875 5.4921875 83.0390625 39.58984375 0.71875 72.125 38.15234375 11.6640625 79.5390625 41.43359375 2.5390625 76.9453125 43.11328125 -3.2734375 82.6328125 44.86328125 3.09765625 81.3359375 45.703125 0.1875 84.14453125 48.96484375 0.03125 82.79296875 44.8046875 -2.71484375 86.01953125 44.03125 0.1875 79.86328125 41.3203125 -9.08984375 83.32421875 39.37109375 -5.8515625 72.76953125 37.921875 -11.59765625 79.6875 34.02734375 -5.1171875 68.0859375 10.234375 -26.80078125 56.234375 9.1796875 -24.15234375 58.9375 12.0234375 -22.48046875 48.6171875 13.92578125 -21.14453125 62.40234375 14.55859375 -19.18359375 46.328125 12.3984375 -19.06640625 48.79296875 9.76171875 -12.73828125 65.00390625 -0.70703125 -12.8828125 67.921875 -2.5 -5.87109375 80.0625 -0.72265625 -14.39453125 82.79296875 -2.59375 -7.8828125 85.31640625 16.48046875 7.1953125 85.875 16.7578125 0.03125 69.1796875 17.62890625 7.08984375 69.75 18.01953125 0.30859375 52.10546875 6.0859375 6.99609375 52.92578125 6.05078125 0.46484375 68.1953125 -4.12109375 6.99609375 69.26953125 -3.7734375 0.59765625 84.05078125 -4.24609375 0.03125 83.1171875 15.9609375 13.9375 66.54296875 17.50390625 13.2578125 49.31640625 7.171875 12.8203125 65.2578125 -3.921875 12.578125 82.9609375 -4.82421875 7.94921875 75.8671875 2.171875 -20.81640625 60.76171875 2.69140625 -18.93359375 71.3046875 4.7109375 -24.5546875 57.359375 5.0546875 -22.07421875 69.08203125 6.8984375 -27.16796875 55.51171875 7.06640625 -24.24609375 65.46484375 -20.52734375 0 63.7890625 -19.55859375 6.0625 65.16796875 -19.25390625 5 63.484375 -19.89453125 9.9375 60.59375 -17.453125 12.6484375 62.078125 -20.1640625 15.16015625 58.55859375 -18.0234375 18.58203125 59.52734375 -20.3984375 19.22265625 56.140625 -20.59375 23.46875 80.015625 -4.65625 15.19140625 60.94921875 -3.05078125 20.09375 45.1953125 9.63671875 19.71875 62.609375 16.7578125 19.65625 60.2734375 11.33203125 29.40625 63.9453125 14.05859375 27.59375 43.30078125 13.4921875 27.3984375 49.58203125 14.18359375 26.1015625 44.73828125 11.48046875 23.87890625 54.19140625 17.08984375 23.05078125 77.7109375 15.515625 21.01953125 51.80078125 7.3046875 -6.12109375 65.7421875 16.69921875 -12.84375 77.73046875 13.84765625 -20.40625 62.25 -14.62109375 -11.453125 61.12890625 -15.1640625 -12.3515625 63.90625 -16.73046875 -8.390625 62.82421875 -17.34765625 -8.84765625 65.16796875 -19.25390625 -5 63.53125 -18.40234375 -6.82421875 64.51171875 -20.5390625 -5.203125 68.84765625 17.5234375 -6.50390625 81.89453125 15.3515625 -13.859375 52.73828125 -28.1640625 22.4765625 54.2578125 -20.65625 26.0625 58.84375 -22.4375 23.8515625 64.40625 -22.57421875 17.3515625 75.0390625 -3.578125 22.265625 52.70703125 -0.8515625 24.4375 66.93359375 41.515625 0.03125 67.65625 -21.9609375 8.94140625 68.26171875 -21.65625 2.234375 67.8203125 -21.3984375 -0.01171875 67.27734375 -21.90625 -2.36328125 58.6953125 5.62890625 30.20703125 46.36328125 1.59765625 27.8515625 60.84765625 0.7109375 29.52734375 68.12109375 -1.62890625 26.83984375 86.57421875 22.51953125 -5.2109375 87.3359375 22.8515625 0.046875 86.1328125 24.45703125 -2.1328125 85.48828125 25.66015625 -1.3828125 83.94140625 29.48828125 -2.3515625 53.890625 -20.54296875 -25.32421875 58.30078125 -16.23828125 -18.40234375 57.65234375 -15.77734375 -21.140625 60.8828125 -14.05078125 -16.4375 68.92578125 14.96484375 25.421875 85.29296875 39.05859375 -2.2734375 84.61328125 16.30078125 -7.12890625 52.03125 -27.5859375 -21.984375 55.12890625 -27.80859375 -20.8515625 56.96484375 -23.04296875 -22.9140625 62.47265625 -23.36328125 -16.5859375 63.50390625 -21.16015625 -9.6953125 66.23046875 -23.19140625 -8.3046875 58.609375 -21.04296875 -18.2109375 61.55859375 -21.40234375 -13.62109375 71.984375 11.8359375 -24.73828125 58.10546875 -17.5625 21.3203125 60.83203125 -16.6015625 15.41015625 87.2109375 22.53515625 5.48046875 61.4765625 -16.78515625 -12 60.3671875 -17.26953125 -14.91015625 59.22265625 -18.625 -17.02734375 63.046875 -17.04296875 8.8515625 53.6875 -35.03125 19.75 56.859375 -28.82421875 21.2734375 53.6875 -35.03125 -19.75</float_array>
                    <technique_common>
                        <accessor count="128" source="#pointarray2" stride="3">
                            <param name="X" type="float"/>
                            <param name="Y" type="float"/>
                            <param name="Z" type="float"/>
                        </accessor>
                    </technique_common>
                </source>
                <source id="uvs2">
                    <float_array id="uvarray2" count="226">0.09967041015625 0.978759765625 0.09014892578125 0.984130859375 0.0771484375 0.9962158203125 0.0771484375 0.9833984375 0.047119140625 0.9962158203125 0.062744140625 0.97393798828125 0.045654296875 0.98504638671875 0.04229736328125 0.95245361328125 0.03546142578125 0.97430419921875 0.0198974609375 0.9962158203125 0.03204345703125 0.98529052734375 0.02423095703125 0.9962158203125 0.02862548828125 0.9962158203125 0.03515625 0.993408203125 0.68609619140625 0.09234619140625 0.66290283203125 0.11456298828125 0.65985107421875 0.1123046875 0.6590576171875 0.1138916015625 0.65679931640625 0.11004638671875 0.658447265625 0.11395263671875 0.6484375 0.10638427734375 0.649169921875 0.10675048828125 0.63812255859375 0.0994873046875 0.6640625 0.03973388671875 0.6441650390625 0.0284423828125 0.64544677734375 0.0277099609375 0.62799072265625 0.020751953125 0.63885498046875 0.09881591796875 0.62701416015625 0.091552734375 0.6385498046875 0.0982666015625 0.62725830078125 0.091552734375 0.63824462890625 0.0977783203125 0.62750244140625 0.091552734375 0.66912841796875 0.0467529296875 0.64892578125 0.10650634765625 0.64837646484375 0.10675048828125 0.6478271484375 0.10693359375 0.6790771484375 0.0584716796875 0.66009521484375 0.11785888671875 0.6876220703125 0.07269287109375 0.66131591796875 0.11773681640625 0.6868896484375 0.09381103515625 0.66253662109375 0.1175537109375 0.992431640625 0.80035400390625 0.94134521484375 0.7841796875 0.92718505859375 0.7532958984375 0.8985595703125 0.764404296875 0.86834716796875 0.74188232421875 0.84710693359375 0.76031494140625 0.80010986328125 0.7607421875 0.808837890625 0.78125 0.77972412109375 0.83551025390625 0.660888671875 0.1180419921875 0.660400390625 0.11700439453125 0.659912109375 0.11590576171875 0.69451904296875 0.08612060546875 0.6949462890625 0.087158203125 0.6641845703125 0.1168212890625 0.664306640625 0.1175537109375 0.664794921875 0.11602783203125 0.66546630859375 0.114501953125 0.68707275390625 0.07708740234375 0.6375732421875 0.09930419921875 0.64776611328125 0.1060791015625 0.8629150390625 0.72125244140625 0.86834716796875 0.74737548828125 0.90948486328125 0.7396240234375 0.8985595703125 0.7705078125 0.9449462890625 0.7669677734375 0.92486572265625 0.786376953125 0.93353271484375 0.80755615234375 0.63702392578125 0.09918212890625 0.7738037109375 0.8798828125 0.75994873046875 0.82177734375 0.797607421875 0.86663818359375 0.8502197265625 0.8505859375 0.808837890625 0.82659912109375 0.843505859375 0.8197021484375 0.6641845703125 0.1175537109375 0.0111083984375 0.9962158203125 0.92431640625 0.83740234375 0.92919921875 0.80743408203125 0.9583740234375 0.83251953125 0.992431640625 0.8291015625 0.95843505859375 0.83245849609375 0.69451904296875 0.08624267578125 0.6640625 0.11614990234375 0.69000244140625 0.0838623046875 0.6954345703125 0.088134765625 0.1083984375 0.96649169921875 0.10772705078125 0.9962158203125 0.7562255859375 0.79644775390625 0.7789306640625 0.75128173828125 0.81689453125 0.72515869140625 0.037841796875 0.9962158203125 0.89727783203125 0.81060791015625 0.7720947265625 0.87152099609375 0.801513671875 0.90496826171875 0.79840087890625 0.86590576171875 0.85040283203125 0.8477783203125 0.92437744140625 0.83740234375 0.80426025390625 0.82769775390625 0.69622802734375 0.0869140625 0.77899169921875 0.75128173828125 0.81695556640625 0.72515869140625 0.86737060546875 0.76318359375 0.83349609375 0.77130126953125 0.7562255859375 0.79638671875 0.80963134765625 0.791748046875 0.80694580078125 0.8096923828125 0.8017578125 0.94317626953125 0.7996826171875 0.9053955078125 0.80462646484375 0.9425048828125</float_array>
                    <technique_common>
                        <accessor count="113" source="#uvarray2" stride="2">
                            <param name="S" type="float"/>
                            <param name="T" type="float"/>
                        </accessor>
                    </technique_common>
                </source>
                <vertices id="vertices2">
                    <input semantic="POSITION" source="#points2"/>
                </vertices>
                <polylist count="178" material="Material1">
                    <input offset="0" semantic="VERTEX" source="#vertices2"/>
                    <input offset="1" semantic="TEXCOORD" source="#uvs2" set="0"/>
                    <vcount>3 3 3 3 3 3 3 3 3 3 3 3 3 3 3 3 3 3 3 3 3 3 3 3 3 3 3 3 3 3 3 3 3 3 3 3 3 3 3 3 3 3 3 3 3 3 3 3 3 3 3 3 3 3 3 3 3 3 3 3 3 3 3 3 3 3 3 3 3 3 3 3 3 3 3 3 3 3 3 3 3 3 3 3 3 3 3 3 3 3 3 3 3 3 3 3 3 3 3 3 3 3 3 3 3 3 3 3 3 3 3 3 3 3 3 3 3 3 3 3 3 3 3 3 3 3 3 3 3 3 3 3 3 3 3 3 3 3 3 3 3 3 3 3 3 3 3 3 3 3 3 3 3 3 3 3 3 3 3 3 3 3 3 3 3 3 3 3 3 3 3 3 3 3 3 3 3 3</vcount>
                    <p>2 2 1 1 0 0 3 3 1 1 2 2 4 4 3 3 2 2 5 5 3 3 4 4 6 6 5 5 4 4 7 7 5 5 6 6 8 8 7 7 6 6 9 9 7 7 8 8 10 10 9 9 8 8 11 11 9 9 10 10 12 12 11 11 10 10 13 10 11 11 12 12 14 13 13 10 12 12 15 8 13 10 14 13 16 6 15 8 14 13 17 7 15 8 16 6 18 5 17 7 16 6 21 16 20 15 19 14 22 17 20 15 21 16 23 18 22 17 21 16 24 19 22 17 23 18 25 20 24 19 23 18 26 21 24 19 25 20 27 22 26 21 25 20 28 23 26 21 27 22 29 24 28 23 27 22 32 27 31 26 30 25 33 28 31 26 32 27 34 29 33 28 32 27 35 30 33 28 34 29 36 31 35 30 34 29 37 32 35 30 36 31 38 26 37 32 36 31 29 24 37 32 38 26 40 34 30 25 39 33 32 27 30 25 40 34 41 35 32 27 40 34 34 29 32 27 41 35 42 36 34 29 41 35 36 31 34 29 42 36 43 25 36 31 42 36 38 26 36 31 43 25 44 37 26 21 28 23 45 38 26 21 44 37 46 39 45 38 44 37 47 40 45 38 46 39 48 41 47 40 46 39 49 42 47 40 48 41 19 14 49 42 48 41 20 15 49 42 19 14 52 45 51 44 50 43 53 46 51 44 52 45 54 47 53 46 52 45 55 48 53 46 54 47 56 49 55 48 54 47 57 50 55 48 56 49 58 51 57 50 56 49 42 36 59 33 43 25 60 52 59 33 42 36 41 35 60 52 42 36 61 53 60 52 41 35 40 34 61 53 41 35 62 54 61 53 40 34 39 33 62 54 40 34 65 57 64 56 63 55 66 58 64 56 65 57 67 59 66 58 65 57 68 60 66 58 67 59 62 54 68 60 67 59 69 61 68 60 62 54 39 33 69 61 62 54 27 22 37 32 29 24 70 62 37 32 27 22 25 20 70 62 27 22 71 63 70 62 25 20 23 18 71 63 25 20 72 37 71 63 23 18 75 66 74 65 73 64 76 67 74 65 75 66 77 68 76 67 75 66 78 69 76 67 77 68 79 70 78 69 77 68 70 62 35 30 37 32 80 71 35 30 70 62 71 63 80 71 70 62 81 23 80 71 71 63 72 37 81 23 71 63 84 74 83 73 82 72 58 51 83 73 84 74 85 75 58 51 84 74 57 76 58 51 85 75 55 77 57 76 85 75 60 52 86 61 59 33 87 78 86 61 60 52 61 53 87 78 60 52 67 59 87 78 61 53 62 54 67 59 61 53 15 8 11 11 13 10 9 9 11 11 15 8 17 7 9 9 15 8 88 79 9 9 17 7 90 82 51 81 89 80 50 43 51 81 90 82 91 83 50 43 90 82 92 84 50 43 91 83 93 85 65 57 63 55 94 86 65 57 93 85 95 87 94 86 93 85 96 88 94 86 95 87 94 86 67 59 65 57 87 78 67 59 94 86 96 88 87 78 94 86 86 61 87 78 96 88 99 0 98 90 97 89 2 2 98 90 99 0 100 1 2 2 99 0 101 3 2 2 100 1 104 92 103 49 102 91 74 65 103 49 104 92 105 93 74 65 104 92 73 64 74 65 105 93 68 60 64 56 66 58 106 88 64 56 68 60 69 61 106 88 68 60 22 17 49 42 20 15 47 40 49 42 22 17 45 38 47 40 22 17 107 94 14 13 6 6 16 6 14 13 107 94 18 5 16 6 107 94 80 71 33 28 35 30 108 24 33 28 80 71 81 23 108 24 80 71 10 10 14 13 12 12 6 6 14 13 10 10 8 8 6 6 10 10 89 80 55 77 85 75 53 95 55 77 89 80 51 81 53 95 89 80 102 91 110 97 109 96 111 98 110 97 102 91 112 99 111 98 102 91 79 70 114 100 113 95 92 84 114 100 79 70 50 43 92 84 79 70 115 101 112 99 102 91 116 77 112 99 115 101 116 77 114 100 112 99 113 95 114 100 116 77 101 3 4 4 2 2 18 5 4 4 101 3 24 19 45 38 22 17 26 21 45 38 24 19 117 102 23 18 21 16 72 37 23 18 117 102 54 47 118 103 56 49 119 104 118 103 54 47 58 51 118 103 83 73 56 49 118 103 58 51 98 90 0 0 120 89 2 2 0 0 98 90 121 105 74 65 76 67 122 106 74 65 121 105 107 94 4 4 18 5 6 6 4 4 107 94 123 108 102 107 103 49 115 109 102 107 123 108 122 106 103 49 74 65 123 108 103 49 122 106 124 64 54 47 52 45 119 104 54 47 124 64 126 111 82 72 125 110 84 74 82 72 126 111 50 43 79 70 77 68 33 28 108 24 31 26 21 16 19 14 117 102 109 96 110 97 127 112 7 7 9 9 88 79</p>
                </polylist>
            </mesh>
        </geometry>
    </library_geometries>
    <library_visual_scenes>
        <visual_scene id="VisualSceneNode">
            <node id="node0" name="m0" type="NODE">
                <instance_geometry url="#mesh0">
                    <bind_material>
                        <technique_common>
                            <instance_material symbol="Material1" target="#mat0">
                                <bind_vertex_input semantic="UVSET0" input_semantic="TEXCOORD" input_set="0"></bind_vertex_input>
                            </instance_material>
                        </technique_common>
                    </bind_material>
                </instance_geometry>
            </node>
            <node id="node1" name="m1" type="NODE">
                <instance_geometry url="#mesh1">
                    <bind_material>
                        <technique_common>
                            <instance_material symbol="Material1" target="#mat2">
                                <bind_vertex_input semantic="UVSET0" input_semantic="TEXCOORD" input_set="0"></bind_vertex_input>
                            </instance_material>
                        </technique_common>
                    </bind_material>
                </instance_geometry>
            </node>
            <node id="node2" name="m2" type="NODE">
                <instance_geometry url="#mesh2">
                    <bind_material>
                        <technique_common>
                            <instance_material symbol="Material1" target="#mat1">
                                <bind_vertex_input semantic="UVSET0" input_semantic="TEXCOORD" input_set="0"></bind_vertex_input>
                            </instance_material>
                        </technique_common>
                    </bind_material>
                </instance_geometry>
            </node>
        </visual_scene>
    </library_visual_scenes>
    <scene>
        <instance_visual_scene url="#VisualSceneNode"></instance_visual_scene>
    </scene>
</COLLADA>
